  0
SECTION
  2
HEADER
  9
$ACADVER
  1
AC1009
  9
$INSBASE
 10
0.0
 20
0.0
 30
0.0
  9
$EXTMIN
 10
13.8400174336878194
 20
2.3435395550832459
 30
0.0
  9
$EXTMAX
 10
708.4117422093420373
 20
453.5938763682930244
 30
0.0
  9
$LIMMIN
 10
0.0
 20
0.0
  9
$LIMMAX
 10
12.0
 20
9.0
  9
$ORTHOMODE
 70
     0
  9
$REGENMODE
 70
     1
  9
$FILLMODE
 70
     1
  9
$QTEXTMODE
 70
     0
  9
$MIRRTEXT
 70
     0
  9
$DRAGMODE
 70
     2
  9
$LTSCALE
 40
1.0
  9
$OSMODE
 70
   303
  9
$ATTMODE
 70
     1
  9
$TEXTSIZE
 40
0.2
  9
$TRACEWID
 40
0.05
  9
$TEXTSTYLE
  7
STANDARD
  9
$CLAYER
  8
0
  9
$CELTYPE
  6
BYLAYER
  9
$CECOLOR
 62
   256
  9
$DIMSCALE
 40
1.0
  9
$DIMASZ
 40
0.18
  9
$DIMEXO
 40
0.0625
  9
$DIMDLI
 40
0.38
  9
$DIMRND
 40
0.0
  9
$DIMDLE
 40
0.0
  9
$DIMEXE
 40
0.18
  9
$DIMTP
 40
0.0
  9
$DIMTM
 40
0.0
  9
$DIMTXT
 40
0.18
  9
$DIMCEN
 40
0.09
  9
$DIMTSZ
 40
0.0
  9
$DIMTOL
 70
     0
  9
$DIMLIM
 70
     0
  9
$DIMTIH
 70
     1
  9
$DIMTOH
 70
     1
  9
$DIMSE1
 70
     0
  9
$DIMSE2
 70
     0
  9
$DIMTAD
 70
     0
  9
$DIMZIN
 70
     0
  9
$DIMBLK
  1

  9
$DIMASO
 70
     1
  9
$DIMSHO
 70
     1
  9
$DIMPOST
  1

  9
$DIMAPOST
  1

  9
$DIMALT
 70
     0
  9
$DIMALTD
 70
     2
  9
$DIMALTF
 40
25.3999999999999986
  9
$DIMLFAC
 40
1.0
  9
$DIMTOFL
 70
     0
  9
$DIMTVP
 40
0.0
  9
$DIMTIX
 70
     0
  9
$DIMSOXD
 70
     0
  9
$DIMSAH
 70
     0
  9
$DIMBLK1
  1

  9
$DIMBLK2
  1

  9
$DIMSTYLE
  2
STANDARD
  9
$DIMCLRD
 70
     0
  9
$DIMCLRE
 70
     0
  9
$DIMCLRT
 70
     0
  9
$DIMTFAC
 40
1.0
  9
$DIMGAP
 40
0.09
  9
$LUNITS
 70
     2
  9
$LUPREC
 70
     4
  9
$SKETCHINC
 40
0.1
  9
$FILLETRAD
 40
0.0
  9
$AUNITS
 70
     0
  9
$AUPREC
 70
     0
  9
$MENU
  1
.
  9
$ELEVATION
 40
0.0
  9
$PELEVATION
 40
0.0
  9
$THICKNESS
 40
0.0
  9
$LIMCHECK
 70
     0
  9
$BLIPMODE
 70
     0
  9
$CHAMFERA
 40
0.0
  9
$CHAMFERB
 40
0.0
  9
$SKPOLY
 70
     0
  9
$TDCREATE
 40
2457238.380920231807977
  9
$TDUPDATE
 40
2457238.4762785541824996
  9
$TDINDWG
 40
0.0766300347
  9
$TDUSRTIMER
 40
0.0766298495
  9
$USRTIMER
 70
     1
  9
$ANGBASE
 50
0.0
  9
$ANGDIR
 70
     0
  9
$PDMODE
 70
     0
  9
$PDSIZE
 40
0.0
  9
$PLINEWID
 40
0.0
  9
$COORDS
 70
     1
  9
$SPLFRAME
 70
     0
  9
$SPLINETYPE
 70
     6
  9
$SPLINESEGS
 70
     8
  9
$ATTDIA
 70
     1
  9
$ATTREQ
 70
     1
  9
$HANDLING
 70
     1
  9
$HANDSEED
  5
57C
  9
$SURFTAB1
 70
     6
  9
$SURFTAB2
 70
     6
  9
$SURFTYPE
 70
     6
  9
$SURFU
 70
     6
  9
$SURFV
 70
     6
  9
$UCSNAME
  2

  9
$UCSORG
 10
0.0
 20
0.0
 30
0.0
  9
$UCSXDIR
 10
1.0
 20
0.0
 30
0.0
  9
$UCSYDIR
 10
0.0
 20
1.0
 30
0.0
  9
$PUCSNAME
  2

  9
$PUCSORG
 10
0.0
 20
0.0
 30
0.0
  9
$PUCSXDIR
 10
1.0
 20
0.0
 30
0.0
  9
$PUCSYDIR
 10
0.0
 20
1.0
 30
0.0
  9
$USERI1
 70
     0
  9
$USERI2
 70
     0
  9
$USERI3
 70
     0
  9
$USERI4
 70
     0
  9
$USERI5
 70
     0
  9
$USERR1
 40
0.0
  9
$USERR2
 40
0.0
  9
$USERR3
 40
0.0
  9
$USERR4
 40
0.0
  9
$USERR5
 40
0.0
  9
$WORLDVIEW
 70
     1
  9
$SHADEDGE
 70
     3
  9
$SHADEDIF
 70
    70
  9
$TILEMODE
 70
     1
  9
$MAXACTVP
 70
    64
  9
$PLIMCHECK
 70
     0
  9
$PEXTMIN
 10
0.0
 20
0.0
 30
0.0
  9
$PEXTMAX
 10
0.0
 20
0.0
 30
0.0
  9
$PLIMMIN
 10
0.0
 20
0.0
  9
$PLIMMAX
 10
12.0
 20
9.0
  9
$UNITMODE
 70
     0
  9
$VISRETAIN
 70
     1
  9
$PLINEGEN
 70
     0
  9
$PSLTSCALE
 70
     1
  0
ENDSEC
  0
SECTION
  2
TABLES
  0
TABLE
  2
VPORT
 70
     1
  0
VPORT
  2
*ACTIVE
 70
     0
 10
0.0
 20
0.0
 11
1.0
 21
1.0
 12
330.3969190055815943
 22
308.9111205731138057
 13
0.0
 23
0.0
 14
0.5
 24
0.5
 15
0.5
 25
0.5
 16
0.0
 26
0.0
 36
1.0
 17
0.0
 27
0.0
 37
0.0
 40
685.520981670250535
 41
1.6803278688524581
 42
50.0
 43
0.0
 44
0.0
 50
0.0
 51
0.0
 71
     0
 72
  1000
 73
     1
 74
     3
 75
     0
 76
     1
 77
     0
 78
     0
  0
ENDTAB
  0
TABLE
  2
LTYPE
 70
     1
  0
LTYPE
  2
CONTINUOUS
 70
     0
  3
Solid line
 72
    65
 73
     0
 40
0.0
  0
ENDTAB
  0
TABLE
  2
LAYER
 70
     4
  0
LAYER
  2
0
 70
     0
 62
     7
  6
CONTINUOUS
  0
LAYER
  2
LAYOUT
 70
     0
 62
    10
  6
CONTINUOUS
  0
LAYER
  2
ANNOTATION
 70
     0
 62
     7
  6
CONTINUOUS
  0
LAYER
  2
DRILLING
 70
     0
 62
     3
  6
CONTINUOUS
  0
ENDTAB
  0
TABLE
  2
STYLE
 70
     2
  0
STYLE
  2
STANDARD
 70
     0
 40
0.0
 41
1.0
 50
0.0
 71
     0
 42
0.2
  3
txt
  4

  0
STYLE
  2
ANNOTATIVE
 70
     0
 40
0.0
 41
1.0
 50
0.0
 71
     0
 42
0.2
  3
txt
  4

  0
ENDTAB
  0
TABLE
  2
VIEW
 70
     1
  0
ENDTAB
  0
TABLE
  2
UCS
 70
     0
  0
ENDTAB
  0
TABLE
  2
APPID
 70
    10
  0
APPID
  2
ACAD
 70
     0
  0
APPID
  2
ACADANNOPO
 70
     0
  0
APPID
  2
ACADANNOTATIVE
 70
     0
  0
APPID
  2
ACAD_DSTYLE_DIMJAG
 70
     0
  0
APPID
  2
ACAD_DSTYLE_DIMTALN
 70
     0
  0
APPID
  2
ACAD_MLEADERVER
 70
     0
  0
APPID
  2
ACAD_NAV_VCDISPLAY
 70
     0
  0
APPID
  2
ACAECLAYERSTANDARD
 70
     0
  0
APPID
  2
ACCMTRANSPARENCY
 70
     0
  0
APPID
  2
ACAD_EXEMPT_FROM_CAD_STANDARDS
 70
     0
  0
ENDTAB
  0
TABLE
  2
DIMSTYLE
 70
     2
  0
DIMSTYLE
  2
STANDARD
 70
     0
  3

  4

  5

  6

  7

 40
1.0
 41
0.18
 42
0.0625
 43
0.38
 44
0.18
 45
0.0
 46
0.0
 47
0.0
 48
0.0
140
0.18
141
0.09
142
0.0
143
25.3999999999999986
144
1.0
145
0.0
146
1.0
147
0.09
 71
     0
 72
     0
 73
     1
 74
     1
 75
     0
 76
     0
 77
     0
 78
     0
170
     0
171
     2
172
     0
173
     0
174
     0
175
     0
176
     0
177
     0
178
     0
  0
DIMSTYLE
  2
ANNOTATIVE
 70
     0
  3

  4

  5

  6

  7

 40
0.0
 41
0.18
 42
0.0625
 43
0.38
 44
0.18
 45
0.0
 46
0.0
 47
0.0
 48
0.0
140
0.18
141
0.09
142
0.0
143
25.3999999999999986
144
1.0
145
0.0
146
1.0
147
0.09
 71
     0
 72
     0
 73
     1
 74
     1
 75
     0
 76
     0
 77
     0
 78
     0
170
     0
171
     2
172
     0
173
     0
174
     0
175
     0
176
     0
177
     0
178
     0
  0
ENDTAB
  0
ENDSEC
  0
SECTION
  2
BLOCKS
  0
BLOCK
  8
0
  2
$MODEL_SPACE
 70
     0
 10
0.0
 20
0.0
 30
0.0
  3
$MODEL_SPACE
  1

  0
ENDBLK
  5
21
  8
0
  0
BLOCK
 67
     1
  8
0
  2
$PAPER_SPACE
 70
     0
 10
0.0
 20
0.0
 30
0.0
  3
$PAPER_SPACE
  1

  0
ENDBLK
  5
5B
 67
     1
  8
0
  0
BLOCK
  8
0
  2
A$C6D274A10
 70
     0
 10
0.0
 20
0.0
 30
0.0
  3
A$C6D274A10
  1

  0
LINE
  5
3A1
  8
0
  6
CONTINUOUS
 62
     7
 10
643.4006083821250286
 20
11.9320901091680298
 30
0.0
 11
677.8406086083250557
 21
11.9320901091680298
 31
0.0
  0
CIRCLE
  5
3A2
  8
DRILLING
 10
665.7061206986320485
 20
14.6193807021450102
 30
0.0
 40
0.3225
  0
CIRCLE
  5
3A3
  8
DRILLING
 10
663.0389354640465172
 20
19.9939618880985108
 30
0.0
 40
0.3225
  0
CIRCLE
  5
3A4
  8
DRILLING
 10
660.3717502294606447
 20
25.3685430740524716
 30
0.0
 40
0.3225
  0
CIRCLE
  5
3A5
  8
DRILLING
 10
652.8679110572320496
 20
14.6193807021450102
 30
0.0
 40
0.3225
  0
CIRCLE
  5
3A6
  8
DRILLING
 10
650.2007258226456088
 20
19.9939618880982799
 30
0.0
 40
0.3225
  0
CIRCLE
  5
3A7
  8
DRILLING
 10
647.5335405880598501
 20
25.3685430740520204
 30
0.0
 40
0.3225
  0
INSERT
  5
3A8
  8
0
  2
*U23
 10
0.0
 20
0.0
 30
0.0
  0
CIRCLE
  5
3A9
  8
DRILLING
 10
657.7045649948745449
 20
30.7431242600064287
 30
0.0
 40
0.3225
  0
CIRCLE
  5
3AA
  8
DRILLING
 10
655.0373797602891273
 20
36.1177054459599276
 30
0.0
 40
0.3225
  0
CIRCLE
  5
3AB
  8
DRILLING
 10
652.3701945257031412
 20
41.4922866319138777
 30
0.0
 40
0.3225
  0
CIRCLE
  5
3AC
  8
DRILLING
 10
644.8663553534737503
 20
30.7431242600059704
 30
0.0
 40
0.3225
  0
CIRCLE
  5
3AD
  8
DRILLING
 10
642.1991701188883326
 20
36.1177054459594729
 30
0.0
 40
0.3225
  0
CIRCLE
  5
3AE
  8
DRILLING
 10
639.5319848843023465
 20
41.49228663191343
 30
0.0
 40
0.3225
  0
INSERT
  5
3AF
  8
0
  2
*U24
 10
0.0
 20
0.0
 30
0.0
  0
CIRCLE
  5
3B0
  8
DRILLING
 10
631.9017607862676869
 20
100.0466996191900932
 30
0.0
 40
0.3225
  0
CIRCLE
  5
3B1
  8
DRILLING
 10
628.6650265148789458
 20
105.0987834720587983
 30
0.0
 40
0.3225
  0
CIRCLE
  5
3B2
  8
DRILLING
 10
635.1384950576567689
 20
94.9946157663214308
 30
0.0
 40
0.3225
  0
CIRCLE
  5
3B3
  8
DRILLING
 10
614.0592795491287461
 20
100.0466996191905054
 30
0.0
 40
0.3225
  0
CIRCLE
  5
3B4
  8
DRILLING
 10
610.8225452777394366
 20
105.0987834720587983
 30
0.0
 40
0.3225
  0
CIRCLE
  5
3B5
  8
DRILLING
 10
617.2960138205180556
 20
94.9946157663218855
 30
0.0
 40
0.3225
  0
CIRCLE
  5
3B6
  8
DRILLING
 10
644.8486978718240152
 20
79.8383642077153439
 30
0.0
 40
0.3225
  0
CIRCLE
  5
3B7
  8
DRILLING
 10
641.6119636004347058
 20
84.890448060584049
 30
0.0
 40
0.3225
  0
CIRCLE
  5
3B8
  8
DRILLING
 10
638.3752293290459647
 20
89.9425319134527399
 30
0.0
 40
0.3225
  0
CIRCLE
  5
3B9
  8
DRILLING
 10
627.0062166346851882
 20
79.8383642077158129
 30
0.0
 40
0.3225
  0
CIRCLE
  5
3BA
  8
DRILLING
 10
623.7694823632959924
 20
84.8904480605845038
 30
0.0
 40
0.3225
  0
CIRCLE
  5
3BB
  8
DRILLING
 10
620.5327480919072514
 20
89.9425319134531946
 30
0.0
 40
0.3225
  0
POLYLINE
  5
3BC
  8
0
  6
CONTINUOUS
 62
     7
 66
     1
 10
0.0
 20
0.0
 30
0.0
 70
     1
  0
VERTEX
  5
539
  8
0
  6
CONTINUOUS
 62
     7
 10
619.7296594815900335
 20
68.2648254752430148
 30
0.0
  0
VERTEX
  5
53A
  8
0
  6
CONTINUOUS
 62
     7
 10
637.4016589807713444
 20
70.2515726048009128
 30
0.0
 42
-0.057656148960277
  0
VERTEX
  5
53B
  8
0
  6
CONTINUOUS
 62
     7
 10
637.8613799535088447
 20
70.2515726048009128
 30
0.0
  0
VERTEX
  5
53C
  8
0
  6
CONTINUOUS
 62
     7
 10
655.5333794526900419
 20
68.2648254752430148
 30
0.0
  0
VERTEX
  5
53D
  8
0
  6
CONTINUOUS
 62
     7
 10
636.28037905433996
 20
107.6248253984931011
 30
0.0
  0
VERTEX
  5
53E
  8
0
  6
CONTINUOUS
 62
     7
 10
599.4766590832400652
 20
107.6248253984931011
 30
0.0
  0
SEQEND
  5
53F
  8
0
  6
CONTINUOUS
 62
     7
  0
POLYLINE
  5
3BD
  8
0
  6
CONTINUOUS
 62
     7
 66
     1
 10
0.0
 20
0.0
 30
0.0
 70
     1
  0
VERTEX
  5
540
  8
0
  6
CONTINUOUS
 62
     7
 10
623.1476079837749467
 20
51.2920900324179385
 30
0.0
  0
VERTEX
  5
541
  8
0
  6
CONTINUOUS
 62
     7
 10
643.4006083821250286
 20
11.9320901091680298
 30
0.0
  0
VERTEX
  5
542
  8
0
  6
CONTINUOUS
 62
     7
 10
678.2043283532250371
 20
11.9320901091680298
 30
0.0
  0
VERTEX
  5
543
  8
0
  6
CONTINUOUS
 62
     7
 10
658.9513279548749551
 20
51.2920900324179385
 30
0.0
  0
VERTEX
  5
544
  8
0
  6
CONTINUOUS
 62
     7
 10
641.2793284556937579
 20
53.2788371619758365
 30
0.0
 42
0.057656148960277
  0
VERTEX
  5
545
  8
0
  6
CONTINUOUS
 62
     7
 10
640.8196074829563713
 20
53.2788371619758365
 30
0.0
  0
SEQEND
  5
546
  8
0
  6
CONTINUOUS
 62
     7
  0
CIRCLE
  5
3BE
  8
DRILLING
 10
12.49820750379752
 20
2.6872887035367512
 30
0.0
 40
0.3225
  0
CIRCLE
  5
3BF
  8
DRILLING
 10
15.1653927383830407
 20
8.0618698894902536
 30
0.0
 40
0.3225
  0
CIRCLE
  5
3C0
  8
DRILLING
 10
17.8325779729690304
 20
13.4364510754442108
 30
0.0
 40
0.3225
  0
CIRCLE
  5
3C1
  8
DRILLING
 10
25.3364171451975189
 20
2.6872887035367512
 30
0.0
 40
0.3225
  0
CIRCLE
  5
3C2
  8
DRILLING
 10
28.0036023797838389
 20
8.0618698894900263
 30
0.0
 40
0.3225
  0
CIRCLE
  5
3C3
  8
DRILLING
 10
30.6707876143698286
 20
13.4364510754437507
 30
0.0
 40
0.3225
  0
INSERT
  5
3C4
  8
0
  2
*U25
 10
0.0
 20
0.0
 30
0.0
  0
CIRCLE
  5
3C5
  8
DRILLING
 10
20.4997632075549099
 20
18.8110322613981715
 30
0.0
 40
0.3225
  0
CIRCLE
  5
3C6
  8
DRILLING
 10
23.1669484421405514
 20
24.1856134473516704
 30
0.0
 40
0.3225
  0
CIRCLE
  5
3C7
  8
DRILLING
 10
25.8341336767264309
 20
29.5601946333056311
 30
0.0
 40
0.3225
  0
CIRCLE
  5
3C8
  8
DRILLING
 10
33.3379728489558076
 20
18.8110322613977097
 30
0.0
 40
0.3225
  0
CIRCLE
  5
3C9
  8
DRILLING
 10
36.0051580835413532
 20
24.1856134473512192
 30
0.0
 40
0.3225
  0
CIRCLE
  5
3CA
  8
DRILLING
 10
38.6723433181273322
 20
29.5601946333051693
 30
0.0
 40
0.3225
  0
INSERT
  5
3CB
  8
0
  2
*U26
 10
0.0
 20
0.0
 30
0.0
  0
CIRCLE
  5
3CC
  8
DRILLING
 10
37.6462261899944224
 20
114.842233759016807
 30
0.0
 40
0.3225
  0
CIRCLE
  5
3CD
  8
DRILLING
 10
40.8829604613831634
 20
119.8943176118854979
 30
0.0
 40
0.3225
  0
CIRCLE
  5
3CE
  8
DRILLING
 10
34.4094919186052266
 20
109.7901499061481019
 30
0.0
 40
0.3225
  0
CIRCLE
  5
3CF
  8
DRILLING
 10
55.4887074271331286
 20
114.8422337590173044
 30
0.0
 40
0.3225
  0
CIRCLE
  5
3D0
  8
DRILLING
 10
58.7254416985226726
 20
119.8943176118854979
 30
0.0
 40
0.3225
  0
CIRCLE
  5
3D1
  8
DRILLING
 10
52.25197315574394
 20
109.7901499061485993
 30
0.0
 40
0.3225
  0
CIRCLE
  5
3D2
  8
DRILLING
 10
24.6992891044381011
 20
94.6338983475420861
 30
0.0
 40
0.3225
  0
CIRCLE
  5
3D3
  8
DRILLING
 10
27.9360233758272898
 20
99.6859822004107627
 30
0.0
 40
0.3225
  0
CIRCLE
  5
3D4
  8
DRILLING
 10
31.1727576472160308
 20
104.7380660532793968
 30
0.0
 40
0.3225
  0
CIRCLE
  5
3D5
  8
DRILLING
 10
42.5417703415768003
 20
94.6338983475425266
 30
0.0
 40
0.3225
  0
CIRCLE
  5
3D6
  8
DRILLING
 10
45.7785046129660032
 20
99.6859822004112317
 30
0.0
 40
0.3225
  0
CIRCLE
  5
3D7
  8
DRILLING
 10
49.0152388843547371
 20
104.7380660532798942
 30
0.0
 40
0.3225
  0
POLYLINE
  5
3D8
  8
0
 66
     1
 10
0.0
 20
0.0
 30
0.0
 70
     1
  0
VERTEX
  5
54F
  8
0
 10
-0.0000001507954721
 20
-0.0000018894402274
 30
0.0
  0
VERTEX
  5
550
  8
0
 10
19.253000247554489
 20
39.3599980338096884
 30
0.0
  0
VERTEX
  5
551
  8
0
 10
36.9249997467358071
 20
41.3467451633675793
 30
0.0
 42
-0.0576561489602912
  0
VERTEX
  5
552
  8
0
 10
37.3847207194733073
 20
41.3467451633675793
 30
0.0
  0
VERTEX
  5
553
  8
0
 10
55.0567202186544975
 20
39.3599980338096884
 30
0.0
  0
VERTEX
  5
554
  8
0
 10
34.8037198203045435
 20
-0.0000018894402274
 30
0.0
  0
VERTEX
  5
555
  8
0
 10
0.3637195941045093
 20
-0.0000018894402274
 30
0.0
  0
SEQEND
  5
556
  8
0
  0
POLYLINE
  5
3D9
  8
0
 66
     1
 10
0.0
 20
0.0
 30
0.0
 70
     1
  0
VERTEX
  5
557
  8
0
 10
70.0713278930219303
 20
122.4203595383198007
 30
0.0
  0
VERTEX
  5
558
  8
0
 10
33.2676079219220284
 20
122.4203595383198007
 30
0.0
  0
VERTEX
  5
559
  8
0
 10
14.0146075235719501
 20
83.0603596150697285
 30
0.0
  0
VERTEX
  5
55A
  8
0
 10
31.6866070227532717
 20
85.0471067446276265
 30
0.0
 42
-0.0576561489602912
  0
VERTEX
  5
55B
  8
0
 10
32.1463279954907719
 20
85.0471067446276265
 30
0.0
  0
VERTEX
  5
55C
  8
0
 10
49.8183274946719621
 20
83.0603596150697285
 30
0.0
  0
SEQEND
  5
55D
  8
0
  0
ENDBLK
  5
3DD
  8
0
  0
BLOCK
  8
0
  2
*U7
 70
     1
 10
0.0
 20
0.0
 30
0.0
  3
*U7
  1

  0
TEXT
  5
461
  8
ANNOTATION
 10
522.1265486993282821
 20
95.9247709964723327
 30
0.0
 40
5.0
  1
R 5
  0
TEXT
  5
462
  8
ANNOTATION
 10
522.535825643393764
 20
87.5436886863313646
 30
0.0
 40
5.0
  1
TOP
  0
ENDBLK
  5
464
  8
0
  0
BLOCK
  8
0
  2
*U8
 70
     1
 10
0.0
 20
0.0
 30
0.0
  3
*U8
  1

  0
TEXT
  5
493
  8
ANNOTATION
 10
67.7785840128629644
 20
95.9247709964724322
 30
0.0
 40
5.0
  1
L 5
  0
TEXT
  5
494
  8
ANNOTATION
 10
63.071899156109879
 20
87.5436886863314641
 30
0.0
 40
5.0
  1
TOP
  0
ENDBLK
  5
496
  8
0
  0
BLOCK
  8
0
  2
*U9
 70
     1
 10
0.0
 20
0.0
 30
0.0
  3
*U9
  1

  0
TEXT
  5
4C0
  8
ANNOTATION
 10
403.5428625714467898
 20
44.5264930932119114
 30
0.0
 40
1.5
  1
R 5 TOP
  0
ENDBLK
  5
4C2
  8
0
  0
BLOCK
  8
0
  2
*U10
 70
     1
 10
0.0
 20
0.0
 30
0.0
  3
*U10
  1

  0
TEXT
  5
4C4
  8
ANNOTATION
 10
408.1596016313009159
 20
6.1600846007907011
 30
0.0
 40
1.5
  1
R 5 TOP
  0
ENDBLK
  5
4C6
  8
0
  0
BLOCK
  8
0
  2
*U11
 70
     1
 10
0.0
 20
0.0
 30
0.0
  3
*U11
  1

  0
TEXT
  5
4C8
  8
ANNOTATION
 10
440.0077040741575161
 20
12.8412140863874793
 30
0.0
 40
1.5
  1
L 5 TOP
  0
ENDBLK
  5
4CA
  8
0
  0
BLOCK
  8
0
  2
*U12
 70
     1
 10
0.0
 20
0.0
 30
0.0
  3
*U12
  1

  0
TEXT
  5
4CC
  8
ANNOTATION
 10
136.2677674874902038
 20
7.2467189109396957
 30
0.0
 40
1.5
  1
R 5 TOP
 50
349.492240117892095
  0
ENDBLK
  5
4CE
  8
0
  0
BLOCK
  8
0
  2
*U13
 70
     1
 10
0.0
 20
0.0
 30
0.0
  3
*U13
  1

  0
TEXT
  5
4D0
  8
ANNOTATION
 10
168.7683907206761944
 20
21.2825184550133883
 30
0.0
 40
1.5
  1
L 5 TOP
 50
317.0444489878648255
  0
ENDBLK
  5
4D2
  8
0
  0
BLOCK
  8
0
  2
*U14
 70
     1
 10
0.0
 20
0.0
 30
0.0
  3
*U14
  1

  0
TEXT
  5
4D4
  8
ANNOTATION
 10
137.9446555194435859
 20
43.6652000327460712
 30
0.0
 40
1.5
  1
L 5 TOP
 50
295.3566764540599934
  0
ENDBLK
  5
4D6
  8
0
  0
BLOCK
  8
0
  2
*U15
 70
     1
 10
0.0
 20
0.0
 30
0.0
  3
*U15
  1

  0
TEXT
  5
4D8
  8
ANNOTATION
 10
637.4613233902630327
 20
45.6948261496777377
 30
0.0
 40
5.0
  1
R 5.1
  0
ENDBLK
  5
4DA
  8
0
  0
BLOCK
  8
0
  2
*U16
 70
     1
 10
0.0
 20
0.0
 30
0.0
  3
*U16
  1

  0
TEXT
  5
4DC
  8
ANNOTATION
 10
620.2159232781099263
 20
92.3553425927166245
 30
0.0
 40
5.0
  1
R 5.2
  0
ENDBLK
  5
4DE
  8
0
  0
BLOCK
  8
0
  2
*U17
 70
     1
 10
0.0
 20
0.0
 30
0.0
  3
*U17
  1

  0
TEXT
  5
4EE
  8
ANNOTATION
 10
26.281886121852871
 20
33.7627341510694805
 30
0.0
 40
5.0
  1
L 5.1
  0
ENDBLK
  5
4F0
  8
0
  0
BLOCK
  8
0
  2
*U18
 70
     1
 10
0.0
 20
0.0
 30
0.0
  3
*U18
  1

  0
TEXT
  5
4F2
  8
ANNOTATION
 10
33.9841782956965304
 20
107.1508767325432956
 30
0.0
 40
5.0
  1
L 5.2
  0
ENDBLK
  5
4F4
  8
0
  0
BLOCK
  8
0
  2
*U19
 70
     1
 10
0.0
 20
0.0
 30
0.0
  3
*U19
  1

  0
TEXT
  5
505
  8
ANNOTATION
 10
333.1251144663668811
 20
374.7129393051412762
 30
0.0
 40
5.0
  1
R 5.1
  0
ENDBLK
  5
507
  8
0
  0
BLOCK
  8
0
  2
*U20
 70
     1
 10
0.0
 20
0.0
 30
0.0
  3
*U20
  1

  0
TEXT
  5
509
  8
ANNOTATION
 10
376.3864609385062181
 20
365.7435103554707894
 30
0.0
 40
5.0
  1
R 5.2
  0
ENDBLK
  5
50B
  8
0
  0
BLOCK
  8
0
  2
*U21
 70
     1
 10
0.0
 20
0.0
 30
0.0
  3
*U21
  1

  0
TEXT
  5
51B
  8
ANNOTATION
 10
110.0330640615374023
 20
366.6160634444199786
 30
0.0
 40
5.0
  1
L 5.1
  0
ENDBLK
  5
51D
  8
0
  0
BLOCK
  8
0
  2
*U22
 70
     1
 10
0.0
 20
0.0
 30
0.0
  3
*U22
  1

  0
TEXT
  5
51F
  8
ANNOTATION
 10
66.3470121396708947
 20
358.8060511171750022
 30
0.0
 40
5.0
  1
L 5.2
  0
ENDBLK
  5
521
  8
0
  0
BLOCK
  8
0
  2
*U23
 70
     1
 10
0.0
 20
0.0
 30
0.0
  3
*U23
  1

  0
TEXT
  5
532
  8
ANNOTATION
 10
637.4613233902630327
 20
45.6948261496777377
 30
0.0
 40
5.0
  1
R 5.1
  0
ENDBLK
  5
534
  8
0
  0
BLOCK
  8
0
  2
*U24
 70
     1
 10
0.0
 20
0.0
 30
0.0
  3
*U24
  1

  0
TEXT
  5
536
  8
ANNOTATION
 10
620.2159232781099263
 20
92.3553425927166245
 30
0.0
 40
5.0
  1
R 5.2
  0
ENDBLK
  5
538
  8
0
  0
BLOCK
  8
0
  2
*U25
 70
     1
 10
0.0
 20
0.0
 30
0.0
  3
*U25
  1

  0
TEXT
  5
548
  8
ANNOTATION
 10
26.281886121852871
 20
33.7627341510694805
 30
0.0
 40
5.0
  1
L 5.1
  0
ENDBLK
  5
54A
  8
0
  0
BLOCK
  8
0
  2
*U26
 70
     1
 10
0.0
 20
0.0
 30
0.0
  3
*U26
  1

  0
TEXT
  5
54C
  8
ANNOTATION
 10
33.9841782956965304
 20
107.1508767325432956
 30
0.0
 40
5.0
  1
L 5.2
  0
ENDBLK
  5
54E
  8
0
  0
ENDSEC
  0
SECTION
  2
ENTITIES
  0
POLYLINE
  5
1E6
  8
LAYOUT
 66
     1
 10
0.0
 20
0.0
 30
0.0
 70
     1
  0
VERTEX
  5
45B
  8
LAYOUT
 10
383.4738381030111896
 20
48.3435395550832467
 30
0.0
  0
VERTEX
  5
45C
  8
LAYOUT
 10
383.4738381030111896
 20
2.3435395550832459
 30
0.0
  0
VERTEX
  5
45D
  8
LAYOUT
 10
477.4738381030110759
 20
2.3435395550832459
 30
0.0
  0
VERTEX
  5
45E
  8
LAYOUT
 10
477.4738381030110759
 20
48.3435395550832467
 30
0.0
  0
SEQEND
  5
45F
  8
LAYOUT
  0
LINE
  5
20F
  8
0
  6
CONTINUOUS
 62
     7
 10
508.2558544809422756
 20
83.7994206854610439
 30
0.0
 11
559.8254533044447498
 21
48.159245625040171
 31
0.0
  0
ARC
  5
210
  8
0
  6
CONTINUOUS
 62
     7
 10
568.7218080438424295
 20
43.2264797956609783
 30
0.0
 40
1.0000000000000071
 50
235.3513293890094076
 51
24.6000000000075616
  0
ARC
  5
211
  8
0
  6
CONTINUOUS
 62
     7
 10
530.9412930838423108
 20
125.5588330585608929
 30
0.0
 40
1.0000000000000071
 50
24.6999999999980204
 51
90.0
  0
LINE
  5
212
  8
0
  6
CONTINUOUS
 62
     7
 10
530.9412930838423108
 20
126.5588330585608929
 30
0.0
 11
507.9955103269596179
 21
126.5588330584831027
 31
0.0
  0
ARC
  5
213
  8
0
  6
CONTINUOUS
 62
     7
 10
507.9955103269596179
 20
124.6913098202608978
 30
0.0
 40
1.867523238222226
 50
90.0
 51
181.0000000000017053
  0
ARC
  5
214
  8
0
  6
CONTINUOUS
 62
     7
 10
508.8243972444423093
 20
84.6220743951608512
 30
0.0
 40
1.0000000000000051
 50
181.0000000000017053
 51
235.3513293890094076
  0
LINE
  5
215
  8
0
  6
CONTINUOUS
 62
     7
 10
501.8881830297423789
 20
80.906701126761007
 30
0.0
 11
555.0520988085064573
 21
44.1646804695873172
 31
0.0
  0
LINE
  5
216
  8
0
  6
CONTINUOUS
 62
     7
 10
499.8047317276922854
 20
132.5588330585609071
 30
0.0
 11
500.950820527692315
 21
104.1454356132192061
 31
0.0
  0
LINE
  5
217
  8
0
  6
CONTINUOUS
 62
     7
 10
506.1282715215043027
 20
124.6587170495604937
 30
0.0
 11
506.9970023847359926
 21
104.1454356132193055
 31
0.0
  0
LINE
  5
218
  8
0
  6
CONTINUOUS
 62
     7
 10
536.6084516987923507
 20
132.5588330585611061
 30
0.0
 11
499.8047317276921717
 21
132.5588330585609071
 31
0.0
  0
LINE
  5
219
  8
0
 10
536.6084516987923507
 20
132.5588330585611061
 30
0.0
 11
548.3604331908799168
 21
106.3215042581303038
 31
0.0
  0
LINE
  5
21A
  8
0
 10
569.6310441528894444
 20
43.6427605879215008
 30
0.0
 11
542.1096627592437471
 21
103.6181234511817024
 31
0.0
  0
ARC
  5
21B
  8
0
 10
545.2350479750617751
 20
104.969813854655996
 30
0.0
 40
1.0
 50
276.3099542301711722
 51
310.465815216782687
  0
ARC
  5
21C
  8
0
 10
503.9739114562141822
 20
104.1454356132192061
 30
0.0
 40
1.0
 50
70.6834333717514909
 51
109.3165666282484949
  0
ARC
  5
21D
  8
0
 10
557.4387760564753762
 20
46.1619630473135913
 30
0.0
 40
1.0
 50
111.1812002197607967
 51
148.6671217343879903
  0
LINE
  5
21E
  8
0
 10
542.1096627592437471
 20
103.6181234511817024
 30
0.0
 11
545.3449549693990548
 21
103.975871978792199
 31
0.0
  0
LINE
  5
21F
  8
0
 10
548.3604331908800305
 20
106.3215042581303038
 30
0.0
 11
545.884042221474715
 21
104.2090205396731051
 31
0.0
  0
LINE
  5
220
  8
0
 10
555.0520988085063436
 20
44.1646804695872817
 30
0.0
 11
556.5846154847300795
 21
46.6819723911485909
 31
0.0
  0
LINE
  5
221
  8
0
 10
559.8254533044446362
 20
48.1592456250401284
 30
0.0
 11
557.0774574181350545
 21
47.0944054538930033
 31
0.0
  0
LINE
  5
222
  8
0
 10
500.9508205276923718
 20
104.1454356132192061
 30
0.0
 11
503.6431241846289026
 21
105.0891409596898001
 31
0.0
  0
LINE
  5
223
  8
0
 10
506.9970023847359926
 20
104.1454356132192061
 30
0.0
 11
504.3046987277995186
 21
105.0891409596898001
 31
0.0
  0
INSERT
  5
224
  8
0
  2
*U7
 10
0.0
 20
0.0
 30
0.0
  0
LINE
  5
22F
  8
0
  6
CONTINUOUS
 62
     7
 10
555.0520988085064573
 20
44.1646804695873172
 30
0.0
 11
585.68312346404241
 21
22.9953267047608989
 31
0.0
  0
LINE
  5
231
  8
0
  6
CONTINUOUS
 62
     7
 10
559.8254533044447498
 20
48.159245625040171
 30
0.0
 11
568.1532652803423389
 21
42.4038260859609366
 31
0.0
  0
LINE
  5
232
  8
0
  6
CONTINUOUS
 62
     7
 10
506.9970023847359926
 20
104.1454356132193055
 30
0.0
 11
507.824549549285905
 21
84.6046219887235367
 31
0.0
  0
LINE
  5
233
  8
0
  6
CONTINUOUS
 62
     7
 10
500.950820527692315
 20
104.1454356132192061
 30
0.0
 11
501.8881830297423789
 21
80.906701126761007
 31
0.0
  0
LINE
  5
234
  8
0
 10
542.1096627592437471
 20
103.6181234511817024
 30
0.0
 11
531.8498012613689525
 21
125.9767001323618985
 31
0.0
  0
LINE
  5
235
  8
0
 10
548.3604331908799168
 20
106.3215042581303038
 30
0.0
 11
585.68312346404241
 21
22.9953267047608989
 31
0.0
  0
POLYLINE
  5
252
  8
0
 66
     1
 10
0.0
 20
0.0
 30
0.0
 70
     1
  0
VERTEX
  5
465
  8
0
 10
409.9070110706559831
 20
10.2400140037059302
 30
0.0
 42
-0.762131517395795
  0
VERTEX
  5
466
  8
0
 10
409.4028829596758783
 20
12.1013694087842101
 30
0.0
  0
VERTEX
  5
467
  8
0
 10
418.1225518562000047
 20
17.243808587978311
 30
0.0
  0
VERTEX
  5
468
  8
0
 10
418.3096589293604097
 20
20.1849575002975712
 30
0.0
 42
0.1650375654059125
  0
VERTEX
  5
469
  8
0
 10
418.1422154917943885
 20
20.8054064488686699
 30
0.0
  0
VERTEX
  5
46A
  8
0
 10
416.5008008822134116
 20
23.2530837275791384
 30
0.0
  0
VERTEX
  5
46B
  8
0
 10
384.4284637868536834
 20
4.3383697855172718
 30
0.0
  0
VERTEX
  5
46C
  8
0
 10
475.7247673495813842
 20
3.2338198027943998
 30
0.0
  0
VERTEX
  5
46D
  8
0
 10
474.8469936688666166
 20
6.3682436827988624
 30
0.0
 42
-0.1501463337900571
  0
VERTEX
  5
46E
  8
0
 10
474.8616860082734092
 20
6.9554041821124812
 30
0.0
  0
VERTEX
  5
46F
  8
0
 10
475.895126489743916
 20
10.0420043287717196
 30
0.0
  0
SEQEND
  5
470
  8
0
  0
POLYLINE
  5
26F
  8
0
 66
     1
 10
0.0
 20
0.0
 30
0.0
 70
     1
  0
VERTEX
  5
471
  8
0
 10
201.3560700730861015
 20
6.5770591516851118
 30
0.0
 42
-0.1650375654059075
  0
VERTEX
  5
472
  8
0
 10
201.5278928082512095
 20
7.1963096262487047
 30
0.0
  0
VERTEX
  5
473
  8
0
 10
203.1865593109507131
 20
9.6323292103421636
 30
0.0
  0
VERTEX
  5
474
  8
0
 10
140.4997357989323916
 20
9.7204151218228318
 30
0.0
 42
-0.2417006775862475
  0
VERTEX
  5
475
  8
0
 10
139.6877168442341031
 20
10.1387431032548392
 30
0.0
  0
VERTEX
  5
476
  8
0
 10
127.9190830401630024
 20
25.7601223574214799
 30
0.0
  0
VERTEX
  5
477
  8
0
 10
125.1666553318279966
 20
25.009642196124549
 30
0.0
 42
0.1701838564090715
  0
VERTEX
  5
478
  8
0
 10
124.6218805844793991
 20
24.6342739092079483
 30
0.0
  0
VERTEX
  5
479
  8
0
 10
122.9403437165355939
 20
22.3296020184919506
 30
0.0
  0
VERTEX
  5
47A
  8
0
 10
136.8975545400768965
 20
3.7254708907134741
 30
0.0
  0
VERTEX
  5
47B
  8
0
 10
201.522393236974608
 20
3.6346617301229638
 30
0.0
  0
SEQEND
  5
47C
  8
0
  0
POLYLINE
  5
293
  8
0
  6
CONTINUOUS
 62
     7
 66
     1
 10
0.0
 20
0.0
 30
0.0
  0
VERTEX
  5
47D
  8
0
  6
CONTINUOUS
 62
     7
 10
407.5037795179592877
 20
39.721546357835777
 30
0.0
  0
VERTEX
  5
47E
  8
0
  6
CONTINUOUS
 62
     7
 10
407.8440746566690223
 20
19.1926981724688517
 30
0.0
  0
VERTEX
  5
47F
  8
0
  6
CONTINUOUS
 62
     7
 10
405.176960722989179
 20
20.2054084108301701
 30
0.0
 42
0.1701838564090715
  0
VERTEX
  5
480
  8
0
  6
CONTINUOUS
 62
     7
 10
404.5156054912936838
 20
20.2224417217357484
 30
0.0
  0
VERTEX
  5
481
  8
0
  6
CONTINUOUS
 62
     7
 10
401.7998971044700056
 20
19.3483669424143088
 30
0.0
  0
VERTEX
  5
482
  8
0
  6
CONTINUOUS
 62
     7
 10
401.3857372881253127
 20
47.7818532845946677
 30
0.0
  0
VERTEX
  5
483
  8
0
  6
CONTINUOUS
 62
     7
 10
438.1772568530881244
 20
46.8342817505624112
 30
0.0
  0
VERTEX
  5
484
  8
0
  6
CONTINUOUS
 62
     7
 10
449.2498199367349798
 20
20.3030767584980296
 30
0.0
  0
VERTEX
  5
485
  8
0
  6
CONTINUOUS
 62
     7
 10
446.7198605654488119
 20
18.2550520336134383
 30
0.0
 42
-0.1501463337900576
  0
VERTEX
  5
486
  8
0
  6
CONTINUOUS
 62
     7
 10
446.1749492321051207
 20
18.0358604380056704
 30
0.0
  0
VERTEX
  5
487
  8
0
  6
CONTINUOUS
 62
     7
 10
442.9315187021712177
 20
17.7615283553187986
 30
0.0
  0
VERTEX
  5
488
  8
0
  6
CONTINUOUS
 62
     7
 10
433.2507162042695086
 20
40.3768499793950397
 30
0.0
 42
0.2928941675369856
  0
VERTEX
  5
489
  8
0
  6
CONTINUOUS
 62
     7
 10
432.3574971540123784
 20
40.982180947259458
 30
0.0
  0
VERTEX
  5
48A
  8
0
  6
CONTINUOUS
 62
     7
 10
409.4193209072573723
 20
41.572957384552403
 30
0.0
 42
0.4193348017583959
  0
VERTEX
  5
48B
  8
0
  6
CONTINUOUS
 62
     7
 10
407.5037795179270006
 20
39.7215463539511617
 30
0.0
  0
SEQEND
  5
48C
  8
0
  6
CONTINUOUS
 62
     7
  0
POLYLINE
  5
294
  8
LAYOUT
 66
     1
 10
0.0
 20
0.0
 30
0.0
 70
     1
  0
VERTEX
  5
48D
  8
LAYOUT
 10
216.0493027947190114
 20
48.3435395550832823
 30
0.0
  0
VERTEX
  5
48E
  8
LAYOUT
 10
216.0493027947190114
 20
2.3435395550832818
 30
0.0
  0
VERTEX
  5
48F
  8
LAYOUT
 10
122.0493027947189972
 20
2.343539555083324
 30
0.0
  0
VERTEX
  5
490
  8
LAYOUT
 10
122.0493027947189972
 20
48.343539555083332
 30
0.0
  0
SEQEND
  5
491
  8
LAYOUT
  0
LINE
  5
295
  8
0
  6
CONTINUOUS
 62
     7
 10
91.267286416787897
 20
83.7994206854611434
 30
0.0
 11
39.6976875932854796
 21
48.1592456250402918
 31
0.0
  0
LINE
  5
296
  8
0
  6
CONTINUOUS
 62
     7
 10
39.6976875932854796
 20
48.1592456250402918
 30
0.0
 11
31.3698756173878301
 21
42.4038260859610574
 31
0.0
  0
ARC
  5
297
  8
0
  6
CONTINUOUS
 62
     7
 10
30.8013328538878604
 20
43.226479795661092
 30
0.0
 40
1.0000000000000071
 50
155.3999999999923887
 51
304.6486706109906208
  0
ARC
  5
298
  8
0
  6
CONTINUOUS
 62
     7
 10
68.5818478138879186
 20
125.5588330585610066
 30
0.0
 40
1.0000000000000071
 50
90.0
 51
155.3000000000018019
  0
LINE
  5
299
  8
0
  6
CONTINUOUS
 62
     7
 10
68.5818478138879186
 20
126.5588330585610066
 30
0.0
 11
91.5276305707705546
 21
126.5588330584832022
 31
0.0
  0
ARC
  5
29A
  8
0
  6
CONTINUOUS
 62
     7
 10
91.5276305707705546
 20
124.6913098202608978
 30
0.0
 40
1.867523238222226
 50
358.999999999998181
 51
90.0
  0
ARC
  5
29B
  8
0
  6
CONTINUOUS
 62
     7
 10
90.6987436532879059
 20
84.6220743951609506
 30
0.0
 40
1.0000000000000051
 50
304.6486706109906208
 51
358.999999999998181
  0
LINE
  5
29C
  8
0
  6
CONTINUOUS
 62
     7
 10
97.6349578679878505
 20
80.9067011267611065
 30
0.0
 11
44.4710420892237082
 21
44.1646804695874309
 31
0.0
  0
LINE
  5
29D
  8
0
  6
CONTINUOUS
 62
     7
 10
44.4710420892237082
 20
44.1646804695874309
 30
0.0
 11
13.8400174336878194
 21
22.9953267047610197
 31
0.0
  0
LINE
  5
29E
  8
0
  6
CONTINUOUS
 62
     7
 10
99.718409170037873
 20
132.5588330585609071
 30
0.0
 11
98.5723203700378576
 21
104.1454356132193055
 31
0.0
  0
LINE
  5
29F
  8
0
  6
CONTINUOUS
 62
     7
 10
98.5723203700378576
 20
104.1454356132193055
 30
0.0
 11
97.6349578679878505
 21
80.9067011267611065
 31
0.0
  0
LINE
  5
2A0
  8
0
  6
CONTINUOUS
 62
     7
 10
93.3948693762259268
 20
124.6587170495605932
 30
0.0
 11
92.52613851299418
 21
104.145435613219405
 31
0.0
  0
LINE
  5
2A1
  8
0
  6
CONTINUOUS
 62
     7
 10
92.52613851299418
 20
104.145435613219405
 30
0.0
 11
91.6985913484443245
 21
84.6046219887236362
 31
0.0
  0
LINE
  5
2A2
  8
0
  6
CONTINUOUS
 62
     7
 10
62.9146891989378716
 20
132.5588330585611914
 30
0.0
 11
99.7184091700380151
 21
132.5588330585609071
 31
0.0
  0
LINE
  5
2A3
  8
0
 10
62.9146891989378716
 20
132.5588330585611914
 30
0.0
 11
51.1627077068503127
 21
106.3215042581304033
 31
0.0
  0
LINE
  5
2A4
  8
0
 10
51.1627077068503127
 20
106.3215042581304033
 30
0.0
 11
13.8400174336878194
 21
22.9953267047610197
 31
0.0
  0
LINE
  5
2A5
  8
0
 10
29.8920967448408383
 20
43.6427605879216216
 30
0.0
 11
57.4134781384863686
 21
103.6181234511818019
 31
0.0
  0
LINE
  5
2A6
  8
0
 10
57.4134781384863686
 20
103.6181234511818019
 30
0.0
 11
67.6733396363611632
 21
125.9767001323619979
 31
0.0
  0
ARC
  5
2A7
  8
0
 10
54.2880929226683406
 20
104.9698138546560955
 30
0.0
 40
1.0
 50
229.5341847832171993
 51
263.6900457698288278
  0
ARC
  5
2A8
  8
0
 10
95.5492294415159904
 20
104.145435613219405
 30
0.0
 40
1.0
 50
70.6834333717514056
 51
109.3165666282483954
  0
ARC
  5
2A9
  8
0
 10
42.0843648412546827
 20
46.1619630473136979
 30
0.0
 40
1.0
 50
31.332878265611761
 51
68.8187997802392317
  0
LINE
  5
2AA
  8
0
 10
57.4134781384863686
 20
103.6181234511818019
 30
0.0
 11
54.1781859283311817
 21
103.9758719787922985
 31
0.0
  0
LINE
  5
2AB
  8
0
 10
51.1627077068503127
 20
106.3215042581304033
 30
0.0
 11
53.6390986762554007
 21
104.2090205396732046
 31
0.0
  0
LINE
  5
2AC
  8
0
 10
44.4710420892237721
 20
44.1646804695874025
 30
0.0
 11
42.9385254129999723
 21
46.6819723911486975
 31
0.0
  0
LINE
  5
2AD
  8
0
 10
39.6976875932855933
 20
48.1592456250402421
 30
0.0
 11
42.4456834795952318
 21
47.0944054538931169
 31
0.0
  0
LINE
  5
2AE
  8
0
 10
98.572320370037815
 20
104.145435613219405
 30
0.0
 11
95.8800167131012699
 21
105.0891409596898995
 31
0.0
  0
LINE
  5
2AF
  8
0
 10
92.52613851299418
 20
104.145435613219405
 30
0.0
 11
95.2184421699307251
 21
105.0891409596898995
 31
0.0
  0
INSERT
  5
2B0
  8
0
  2
*U8
 10
0.0
 20
0.0
 30
0.0
  0
POLYLINE
  5
2B1
  8
0
 66
     1
 10
0.0
 20
0.0
 30
0.0
 70
     1
  0
VERTEX
  5
497
  8
0
 10
148.5876432466733092
 20
39.9882082442220508
 30
0.0
 42
0.762131517395795
  0
VERTEX
  5
498
  8
0
 10
148.100930181309991
 20
38.1222233867542926
 30
0.0
  0
VERTEX
  5
499
  8
0
 10
156.8682708066189946
 20
33.0614877943202714
 30
0.0
  0
VERTEX
  5
49A
  8
0
 10
157.0828526455294991
 20
30.1222156708731816
 30
0.0
 42
-0.1650375654059125
  0
VERTEX
  5
49B
  8
0
 10
156.9212141703455927
 20
29.5002291710943609
 30
0.0
  0
VERTEX
  5
49C
  8
0
 10
155.302743017809604
 20
27.037320908557831
 30
0.0
  0
VERTEX
  5
49D
  8
0
 10
123.0550616778864992
 20
45.6515159883134132
 30
0.0
  0
VERTEX
  5
49E
  8
0
 10
214.337058124535389
 20
47.6091164572678096
 30
0.0
  0
VERTEX
  5
49F
  8
0
 10
213.4886117174170863
 20
44.4666272546855765
 30
0.0
 42
0.1501463337900571
  0
VERTEX
  5
4A0
  8
0
 10
213.5087900106109089
 20
43.8796296794987413
 30
0.0
  0
VERTEX
  5
4A1
  8
0
 10
214.5710274457757976
 20
40.8028210527829174
 30
0.0
  0
SEQEND
  5
4A2
  8
0
  0
POLYLINE
  5
2B2
  8
0
 66
     1
 10
0.0
 20
0.0
 30
0.0
 70
     1
  0
VERTEX
  5
4A3
  8
0
 10
133.1166723736727135
 20
24.6487042412345012
 30
0.0
 42
0.1650375654059075
  0
VERTEX
  5
4A4
  8
0
 10
133.0370145417847141
 20
25.2863944735462098
 30
0.0
  0
VERTEX
  5
4A5
  8
0
 10
131.7514191425765944
 20
27.9383014196510011
 30
0.0
  0
VERTEX
  5
4A6
  8
0
 10
193.7806217510666897
 20
18.8816119080452083
 30
0.0
 42
0.2417006775862475
  0
VERTEX
  5
4A7
  8
0
 10
194.6449752655954057
 20
19.1770202436754786
 30
0.0
  0
VERTEX
  5
4A8
  8
0
 10
208.5663545623214929
 20
32.9146848884948895
 30
0.0
  0
VERTEX
  5
4A9
  8
0
 10
211.179874537632486
 20
31.7707477832478311
 30
0.0
 42
-0.1701838564090715
  0
VERTEX
  5
4AA
  8
0
 10
211.6640694098944948
 20
31.3199305233225687
 30
0.0
  0
VERTEX
  5
4AB
  8
0
 10
212.9914496361342913
 20
28.7946304427185815
 30
0.0
  0
VERTEX
  5
4AC
  8
0
 10
196.4698212949400045
 20
12.4253535513038802
 30
0.0
  0
VERTEX
  5
4AD
  8
0
 10
132.5229343976855034
 20
21.7620381370353684
 30
0.0
  0
SEQEND
  5
4AE
  8
0
  0
POLYLINE
  5
2C4
  8
0
  6
CONTINUOUS
 62
     7
 66
     1
 10
0.0
 20
0.0
 30
0.0
  0
VERTEX
  5
4AF
  8
0
  6
CONTINUOUS
 62
     7
 10
428.0538992120115722
 20
18.7911139818655002
 30
0.0
  0
VERTEX
  5
4B0
  8
0
  6
CONTINUOUS
 62
     7
 10
428.8673586554468784
 20
39.3066615576227392
 30
0.0
  0
VERTEX
  5
4B1
  8
0
  6
CONTINUOUS
 62
     7
 10
426.1776073649562022
 20
38.3557058502345285
 30
0.0
 42
-0.1701838564090715
  0
VERTEX
  5
4B2
  8
0
  6
CONTINUOUS
 62
     7
 10
425.5160352230003014
 20
38.3539233914696212
 30
0.0
  0
VERTEX
  5
4B3
  8
0
  6
CONTINUOUS
 62
     7
 10
422.8211987432933938
 20
39.2903715265801878
 30
0.0
  0
VERTEX
  5
4B4
  8
0
  6
CONTINUOUS
 62
     7
 10
421.7516673952765132
 20
10.8739893391862203
 30
0.0
  0
VERTEX
  5
4B5
  8
0
  6
CONTINUOUS
 62
     7
 10
458.555253785612706
 20
10.9731484043590708
 30
0.0
  0
VERTEX
  5
4B6
  8
0
  6
CONTINUOUS
 62
     7
 10
470.2365022420941045
 20
37.2420449565599796
 30
0.0
  0
VERTEX
  5
4B7
  8
0
  6
CONTINUOUS
 62
     7
 10
467.7544286647167837
 20
39.3478489480518192
 30
0.0
 42
0.1501463337900576
  0
VERTEX
  5
4B8
  8
0
  6
CONTINUOUS
 62
     7
 10
467.2147152047012924
 20
39.5795442174674506
 30
0.0
  0
VERTEX
  5
4B9
  8
0
  6
CONTINUOUS
 62
     7
 10
463.9784708669678821
 20
39.9285747040838288
 30
0.0
  0
VERTEX
  5
4BA
  8
0
  6
CONTINUOUS
 62
     7
 10
453.7788865933570719
 20
17.5424363633762397
 30
0.0
 42
-0.2928941675369856
  0
VERTEX
  5
4BB
  8
0
  6
CONTINUOUS
 62
     7
 10
452.8719501351030203
 20
16.9578577860340189
 30
0.0
  0
VERTEX
  5
4BC
  8
0
  6
CONTINUOUS
 62
     7
 10
429.9262506609749153
 20
16.8960357102557808
 30
0.0
 42
-0.4193348017583959
  0
VERTEX
  5
4BD
  8
0
  6
CONTINUOUS
 62
     7
 10
428.0538992120689841
 20
18.7911139857498597
 30
0.0
  0
SEQEND
  5
4BE
  8
0
  6
CONTINUOUS
 62
     7
  0
INSERT
  5
2CC
  8
0
  2
*U9
 10
0.0
 20
0.0
 30
0.0
  0
INSERT
  5
2D4
  8
0
  2
*U10
 10
0.0
 20
0.0
 30
0.0
  0
INSERT
  5
2DC
  8
0
  2
*U11
 10
0.0
 20
0.0
 30
0.0
  0
INSERT
  5
2E4
  8
0
  2
*U12
 10
0.0
 20
0.0
 30
0.0
  0
INSERT
  5
2EC
  8
0
  2
*U13
 10
0.0
 20
0.0
 30
0.0
  0
INSERT
  5
2F4
  8
0
  2
*U14
 10
0.0
 20
0.0
 30
0.0
  0
LINE
  5
366
  8
0
  6
CONTINUOUS
 62
     7
 10
339.0643994582288769
 20
340.9502032646316252
 30
0.0
 11
373.504399684428904
 21
340.9502032646316252
 31
0.0
  0
CIRCLE
  5
367
  8
DRILLING
 10
361.3699117747360106
 20
343.6374938576086038
 30
0.0
 40
0.3225
  0
CIRCLE
  5
368
  8
DRILLING
 10
358.7027265401504224
 20
349.0120750435619925
 30
0.0
 40
0.3225
  0
CIRCLE
  5
369
  8
DRILLING
 10
356.0355413055644931
 20
354.3866562295160065
 30
0.0
 40
0.3225
  0
CIRCLE
  5
36A
  8
DRILLING
 10
348.531702133335898
 20
343.6374938576086038
 30
0.0
 40
0.3225
  0
CIRCLE
  5
36B
  8
DRILLING
 10
345.8645168987496277
 20
349.012075043561822
 30
0.0
 40
0.3225
  0
CIRCLE
  5
36C
  8
DRILLING
 10
343.1973316641636984
 20
354.3866562295156086
 30
0.0
 40
0.3225
  0
INSERT
  5
36D
  8
0
  2
*U19
 10
0.0
 20
0.0
 30
0.0
  0
CIRCLE
  5
36E
  8
DRILLING
 10
353.368356070978507
 20
359.7612374154700206
 30
0.0
 40
0.3225
  0
CIRCLE
  5
36F
  8
DRILLING
 10
350.7011708363929756
 20
365.135818601423523
 30
0.0
 40
0.3225
  0
CIRCLE
  5
370
  8
DRILLING
 10
348.0339856018069895
 20
370.5103997873774233
 30
0.0
 40
0.3225
  0
CIRCLE
  5
371
  8
DRILLING
 10
340.5301464295777123
 20
359.761237415469509
 30
0.0
 40
0.3225
  0
CIRCLE
  5
372
  8
DRILLING
 10
337.8629611949921809
 20
365.1358186014230114
 30
0.0
 40
0.3225
  0
CIRCLE
  5
373
  8
DRILLING
 10
335.1957759604061948
 20
370.5103997873770254
 30
0.0
 40
0.3225
  0
INSERT
  5
374
  8
0
  2
*U20
 10
0.0
 20
0.0
 30
0.0
  0
CIRCLE
  5
375
  8
DRILLING
 10
388.0722984466639218
 20
373.4348673819442865
 30
0.0
 40
0.3225
  0
CIRCLE
  5
376
  8
DRILLING
 10
384.8355641752751808
 20
378.4869512348129774
 30
0.0
 40
0.3225
  0
CIRCLE
  5
377
  8
DRILLING
 10
391.3090327180531176
 20
368.3827835290755957
 30
0.0
 40
0.3225
  0
CIRCLE
  5
378
  8
DRILLING
 10
370.2298172095250948
 20
373.4348673819447981
 30
0.0
 40
0.3225
  0
CIRCLE
  5
379
  8
DRILLING
 10
366.9930829381356716
 20
378.4869512348129774
 30
0.0
 40
0.3225
  0
CIRCLE
  5
37A
  8
DRILLING
 10
373.4665514809142906
 20
368.3827835290759936
 30
0.0
 40
0.3225
  0
CIRCLE
  5
37B
  8
DRILLING
 10
401.0192355322201934
 20
353.226531970469523
 30
0.0
 40
0.3225
  0
CIRCLE
  5
37C
  8
DRILLING
 10
397.7825012608311113
 20
358.2786158233382139
 30
0.0
 40
0.3225
  0
CIRCLE
  5
37D
  8
DRILLING
 10
394.5457669894423134
 20
363.3306996762069048
 30
0.0
 40
0.3225
  0
CIRCLE
  5
37E
  8
DRILLING
 10
383.1767542950814232
 20
353.2265319704699778
 30
0.0
 40
0.3225
  0
CIRCLE
  5
37F
  8
DRILLING
 10
379.9400200236922274
 20
358.2786158233387255
 30
0.0
 40
0.3225
  0
CIRCLE
  5
380
  8
DRILLING
 10
376.7032857523034863
 20
363.3306996762073027
 30
0.0
 40
0.3225
  0
POLYLINE
  5
381
  8
0
  6
CONTINUOUS
 62
     7
 66
     1
 10
0.0
 20
0.0
 30
0.0
 70
     1
  0
VERTEX
  5
50C
  8
0
  6
CONTINUOUS
 62
     7
 10
375.9001971419863253
 20
341.6529932379971797
 30
0.0
  0
VERTEX
  5
50D
  8
0
  6
CONTINUOUS
 62
     7
 10
393.5721966411675794
 20
343.6397403675550777
 30
0.0
 42
-0.057656148960277
  0
VERTEX
  5
50E
  8
0
  6
CONTINUOUS
 62
     7
 10
394.0319176139050796
 20
343.6397403675550777
 30
0.0
  0
VERTEX
  5
50F
  8
0
  6
CONTINUOUS
 62
     7
 10
411.7039171130862201
 20
341.6529932379971797
 30
0.0
  0
VERTEX
  5
510
  8
0
  6
CONTINUOUS
 62
     7
 10
392.4509167147363087
 20
381.0129931612473229
 30
0.0
  0
VERTEX
  5
511
  8
0
  6
CONTINUOUS
 62
     7
 10
355.6471967436363002
 20
381.0129931612473229
 30
0.0
  0
SEQEND
  5
512
  8
0
  6
CONTINUOUS
 62
     7
  0
POLYLINE
  5
382
  8
0
  6
CONTINUOUS
 62
     7
 66
     1
 10
0.0
 20
0.0
 30
0.0
 70
     1
  0
VERTEX
  5
513
  8
0
  6
CONTINUOUS
 62
     7
 10
318.8113990598789087
 20
380.3102031878814842
 30
0.0
  0
VERTEX
  5
514
  8
0
  6
CONTINUOUS
 62
     7
 10
339.0643994582288769
 20
340.9502032646316252
 30
0.0
  0
VERTEX
  5
515
  8
0
  6
CONTINUOUS
 62
     7
 10
373.8681194293288854
 20
340.9502032646316252
 30
0.0
  0
VERTEX
  5
516
  8
0
  6
CONTINUOUS
 62
     7
 10
354.6151190309789172
 20
380.3102031878814842
 30
0.0
  0
VERTEX
  5
517
  8
0
  6
CONTINUOUS
 62
     7
 10
336.9431195317977199
 20
382.2969503174393822
 30
0.0
 42
0.057656148960277
  0
VERTEX
  5
518
  8
0
  6
CONTINUOUS
 62
     7
 10
336.4833985590602197
 20
382.2969503174393822
 30
0.0
  0
SEQEND
  5
519
  8
0
  6
CONTINUOUS
 62
     7
  0
CIRCLE
  5
383
  8
DRILLING
 10
96.2493854434821117
 20
335.5406179968873062
 30
0.0
 40
0.3225
  0
CIRCLE
  5
384
  8
DRILLING
 10
98.916570678067643
 20
340.9151991828408086
 30
0.0
 40
0.3225
  0
CIRCLE
  5
385
  8
DRILLING
 10
101.5837559126536007
 20
346.2897803687948226
 30
0.0
 40
0.3225
  0
CIRCLE
  5
386
  8
DRILLING
 10
109.0875950848820963
 20
335.5406179968873062
 30
0.0
 40
0.3225
  0
CIRCLE
  5
387
  8
DRILLING
 10
111.7547803194683951
 20
340.9151991828405812
 30
0.0
 40
0.3225
  0
CIRCLE
  5
388
  8
DRILLING
 10
114.4219655540543954
 20
346.289780368794311
 30
0.0
 40
0.3225
  0
INSERT
  5
389
  8
0
  2
*U21
 10
0.0
 20
0.0
 30
0.0
  0
CIRCLE
  5
38A
  8
DRILLING
 10
104.2509411472395016
 20
351.6643615547487229
 30
0.0
 40
0.3225
  0
CIRCLE
  5
38B
  8
DRILLING
 10
106.918126381825104
 20
357.0389427407022254
 30
0.0
 40
0.3225
  0
CIRCLE
  5
38C
  8
DRILLING
 10
109.5853116164110048
 20
362.4135239266561825
 30
0.0
 40
0.3225
  0
CIRCLE
  5
38D
  8
DRILLING
 10
117.0891507886403957
 20
351.664361554748325
 30
0.0
 40
0.3225
  0
CIRCLE
  5
38E
  8
DRILLING
 10
119.7563360232258987
 20
357.0389427407018275
 30
0.0
 40
0.3225
  0
CIRCLE
  5
38F
  8
DRILLING
 10
122.423521257811899
 20
362.4135239266557846
 30
0.0
 40
0.3225
  0
INSERT
  5
390
  8
0
  2
*U22
 10
0.0
 20
0.0
 30
0.0
  0
CIRCLE
  5
391
  8
DRILLING
 10
70.0090600339688081
 20
366.4974081436484994
 30
0.0
 40
0.3225
  0
CIRCLE
  5
392
  8
DRILLING
 10
73.2457943053575491
 20
371.5494919965171903
 30
0.0
 40
0.3225
  0
CIRCLE
  5
393
  8
DRILLING
 10
66.7723257625796123
 20
361.4453242907798085
 30
0.0
 40
0.3225
  0
CIRCLE
  5
394
  8
DRILLING
 10
87.8515412711075214
 20
366.4974081436488973
 30
0.0
 40
0.3225
  0
CIRCLE
  5
395
  8
DRILLING
 10
91.0882755424970441
 20
371.5494919965171903
 30
0.0
 40
0.3225
  0
CIRCLE
  5
396
  8
DRILLING
 10
84.6148069997183256
 20
361.4453242907803201
 30
0.0
 40
0.3225
  0
CIRCLE
  5
397
  8
DRILLING
 10
57.0621229484124726
 20
346.289072732173679
 30
0.0
 40
0.3225
  0
CIRCLE
  5
398
  8
DRILLING
 10
60.2988572198016684
 20
351.3411565850424267
 30
0.0
 40
0.3225
  0
CIRCLE
  5
399
  8
DRILLING
 10
63.5355914911904094
 20
356.3932404379111176
 30
0.0
 40
0.3225
  0
CIRCLE
  5
39A
  8
DRILLING
 10
74.904604185551193
 20
346.2890727321741906
 30
0.0
 40
0.3225
  0
CIRCLE
  5
39B
  8
DRILLING
 10
78.1413384569403888
 20
351.3411565850428815
 30
0.0
 40
0.3225
  0
CIRCLE
  5
39C
  8
DRILLING
 10
81.3780727283291441
 20
356.3932404379115724
 30
0.0
 40
0.3225
  0
POLYLINE
  5
39D
  8
0
 66
     1
 10
0.0
 20
0.0
 30
0.0
 70
     1
  0
VERTEX
  5
522
  8
0
 10
83.7511777888891089
 20
332.8533274039103276
 30
0.0
  0
VERTEX
  5
523
  8
0
 10
103.0041781872391056
 20
372.2133273271603002
 30
0.0
  0
VERTEX
  5
524
  8
0
 10
120.6761776864204023
 20
374.2000744567181982
 30
0.0
 42
-0.0576561489602912
  0
VERTEX
  5
525
  8
0
 10
121.1358986591579026
 20
374.2000744567181982
 30
0.0
  0
VERTEX
  5
526
  8
0
 10
138.8078981583390998
 20
372.2133273271603002
 30
0.0
  0
VERTEX
  5
527
  8
0
 10
118.5548977599891032
 20
332.8533274039103276
 30
0.0
  0
VERTEX
  5
528
  8
0
 10
84.1148975337891045
 20
332.8533274039103276
 30
0.0
  0
SEQEND
  5
529
  8
0
  0
POLYLINE
  5
39E
  8
0
 66
     1
 10
0.0
 20
0.0
 30
0.0
 70
     1
  0
VERTEX
  5
52A
  8
0
 10
102.4341617369963018
 20
374.0755339229515926
 30
0.0
  0
VERTEX
  5
52B
  8
0
 10
65.6304417658964212
 20
374.0755339229515926
 30
0.0
  0
VERTEX
  5
52C
  8
0
 10
46.3774413675463322
 20
334.7155339997013925
 30
0.0
  0
VERTEX
  5
52D
  8
0
 10
64.0494408667276502
 20
336.7022811292592905
 30
0.0
 42
-0.0576561489602912
  0
VERTEX
  5
52E
  8
0
 10
64.5091618394651505
 20
336.7022811292592905
 30
0.0
  0
VERTEX
  5
52F
  8
0
 10
82.1811613386463478
 20
334.7155339997013925
 30
0.0
  0
SEQEND
  5
530
  8
0
  0
POLYLINE
  5
3E8
  8
LAYOUT
 66
     1
 10
0.0
 20
0.0
 30
0.0
 70
     1
  0
VERTEX
  5
563
  8
LAYOUT
 10
139.5713820500795066
 20
377.1097916717308749
 30
0.0
  0
VERTEX
  5
564
  8
LAYOUT
 10
139.5713820500795066
 20
331.1097916717308749
 30
0.0
  0
VERTEX
  5
565
  8
LAYOUT
 10
45.5713820500794711
 20
331.1097916717308749
 30
0.0
  0
VERTEX
  5
566
  8
LAYOUT
 10
45.5713820500795279
 20
377.1097916717308749
 30
0.0
  0
SEQEND
  5
567
  8
LAYOUT
  0
POLYLINE
  5
3F8
  8
LAYOUT
 66
     1
 10
0.0
 20
0.0
 30
0.0
 70
     1
  0
VERTEX
  5
572
  8
LAYOUT
 10
412.1750243393582878
 20
384.8777057554486873
 30
0.0
  0
VERTEX
  5
573
  8
LAYOUT
 10
412.1750243393582878
 20
338.8777057554486873
 30
0.0
  0
VERTEX
  5
574
  8
LAYOUT
 10
318.1750243393584014
 20
338.877705755448801
 30
0.0
  0
VERTEX
  5
575
  8
LAYOUT
 10
318.1750243393584014
 20
384.877705755448801
 30
0.0
  0
SEQEND
  5
576
  8
LAYOUT
  0
ENDSEC
  0
EOF
