999
DXF created from Luxology modo on Fri Jun 19 16:08:00 2015
  0
SECTION
  2
HEADER
  9
$ACADVER
  1
AC1006
  0
ENDSEC
  0
SECTION
  2
TABLES
  0
TABLE
  2
LTYPE
 70
1
  0
LTYPE
  2
CONTINUOUS
 70
64
  3
Solid line
 72
65
 73
0
 40
0.000000
  0
ENDTAB
  0
TABLE
  2
LAYER
  70
6
  0
LAYER
  2
1 foot square
 70
64
 62
7
  6
CONTINUOUS
  0
LAYER
  2
sans arch SLICES separated
 70
64
 62
7
  6
CONTINUOUS
  0
ENDTAB
  0
ENDSEC
  0
SECTION
  2
BLOCKS
  0
ENDSEC
  0
SECTION
  2
ENTITIES
  0
POLYLINE
  8
1 foot square
 66
1
 10
0.0
 20
0.0
 30
0.0
 70
64
 71
8
 72
6
  0
VERTEX
  8
1 foot square
 10
-0.1524000018835068
 20
0.1524000018835068
 30
0.0000000000000000
 70
192
  0
VERTEX
  8
1 foot square
 10
-0.1524000018835068
 20
0.1524000018835068
 30
0.3048000037670135
 70
192
  0
VERTEX
  8
1 foot square
 10
0.1524000018835068
 20
0.1524000018835068
 30
0.3048000037670135
 70
192
  0
VERTEX
  8
1 foot square
 10
0.1524000018835068
 20
0.1524000018835068
 30
0.0000000000000000
 70
192
  0
VERTEX
  8
1 foot square
 10
-0.1524000018835068
 20
-0.1524000018835068
 30
0.0000000000000000
 70
192
  0
VERTEX
  8
1 foot square
 10
-0.1524000018835068
 20
-0.1524000018835068
 30
0.3048000037670135
 70
192
  0
VERTEX
  8
1 foot square
 10
0.1524000018835068
 20
-0.1524000018835068
 30
0.3048000037670135
 70
192
  0
VERTEX
  8
1 foot square
 10
0.1524000018835068
 20
-0.1524000018835068
 30
0.0000000000000000
 70
192
  0
VERTEX
  8
1 foot square
 10
0
 20
0
 30
0
 70
128
  71
4
  72
3
  73
2
  74
1
  0
VERTEX
  8
1 foot square
 10
0
 20
0
 30
0
 70
128
  71
1
  72
2
  73
6
  74
5
  0
VERTEX
  8
1 foot square
 10
0
 20
0
 30
0
 70
128
  71
2
  72
3
  73
7
  74
6
  0
VERTEX
  8
1 foot square
 10
0
 20
0
 30
0
 70
128
  71
3
  72
4
  73
8
  74
7
  0
VERTEX
  8
1 foot square
 10
0
 20
0
 30
0
 70
128
  71
4
  72
1
  73
5
  74
8
  0
VERTEX
  8
1 foot square
 10
0
 20
0
 30
0
 70
128
  71
6
  72
7
  73
8
  74
5
  0
SEQEND
  0
POLYLINE
  8
sans arch SLICES separated
 66
1
 10
0.0
 20
0.0
 30
0.0
 70
64
 71
190
 72
47
  0
VERTEX
  8
sans arch SLICES separated
 10
-0.4518191218376160
 20
0.1550825536251068
 30
18.9028625488281250
 70
192
  0
VERTEX
  8
sans arch SLICES separated
 10
8.1699571609497070
 20
-0.2720799148082733
 30
-0.0000600363709964
 70
192
  0
VERTEX
  8
sans arch SLICES separated
 10
8.0283565521240234
 20
0.0930736735463142
 30
0.0013408660888672
 70
192
  0
VERTEX
  8
sans arch SLICES separated
 10
7.9463996887207031
 20
0.3044936060905457
 30
-0.0004215240478516
 70
192
  0
VERTEX
  8
sans arch SLICES separated
 10
3.5696225166320801
 20
0.2329915910959244
 30
14.6303997039794922
 70
192
  0
VERTEX
  8
sans arch SLICES separated
 10
4.4469633102416992
 20
-1.1897164583206177
 30
14.6303997039794922
 70
192
  0
VERTEX
  8
sans arch SLICES separated
 10
5.6602373123168945
 20
-3.4695065021514893
 30
14.6303997039794922
 70
192
  0
VERTEX
  8
sans arch SLICES separated
 10
-5.6704330444335938
 20
-3.4587554931640625
 30
14.6303997039794922
 70
192
  0
VERTEX
  8
sans arch SLICES separated
 10
-4.9009275436401367
 20
-1.4197432994842529
 30
14.6303997039794922
 70
192
  0
VERTEX
  8
sans arch SLICES separated
 10
-4.2715978622436523
 20
0.0219936594367027
 30
14.6303997039794922
 70
192
  0
VERTEX
  8
sans arch SLICES separated
 10
-3.1899425983428955
 20
-1.8517820835113525
 30
14.6303997039794922
 70
192
  0
VERTEX
  8
sans arch SLICES separated
 10
3.1892566680908203
 20
-1.8614290952682495
 30
14.6303997039794922
 70
192
  0
VERTEX
  8
sans arch SLICES separated
 10
3.8336877822875977
 20
-1.3237853050231934
 30
15.8495998382568359
 70
192
  0
VERTEX
  8
sans arch SLICES separated
 10
-3.4847521781921387
 20
0.0496007166802883
 30
15.8495998382568359
 70
192
  0
VERTEX
  8
sans arch SLICES separated
 10
-2.3293132781982422
 20
-1.9828089475631714
 30
15.8495998382568359
 70
192
  0
VERTEX
  8
sans arch SLICES separated
 10
2.3261604309082031
 20
-1.9858961105346680
 30
15.8495998382568359
 70
192
  0
VERTEX
  8
sans arch SLICES separated
 10
2.7397389411926270
 20
0.2174512296915054
 30
15.8495998382568359
 70
192
  0
VERTEX
  8
sans arch SLICES separated
 10
5.2820115089416504
 20
-3.7215640544891357
 30
15.8495998382568359
 70
192
  0
VERTEX
  8
sans arch SLICES separated
 10
-5.2945194244384766
 20
-3.7217967510223389
 30
15.8495998382568359
 70
192
  0
VERTEX
  8
sans arch SLICES separated
 10
-4.2924180030822754
 20
-1.5275626182556152
 30
15.8495998382568359
 70
192
  0
VERTEX
  8
sans arch SLICES separated
 10
1.7299684286117554
 20
0.1982240825891495
 30
17.0687999725341797
 70
192
  0
VERTEX
  8
sans arch SLICES separated
 10
-3.6796574592590332
 20
-1.6360617876052856
 30
17.0687999725341797
 70
192
  0
VERTEX
  8
sans arch SLICES separated
 10
-1.3946740627288818
 20
-2.1135666370391846
 30
17.0687999725341797
 70
192
  0
VERTEX
  8
sans arch SLICES separated
 10
1.3899773359298706
 20
-2.1070592403411865
 30
17.0687999725341797
 70
192
  0
VERTEX
  8
sans arch SLICES separated
 10
4.8873081207275391
 20
-3.9798665046691895
 30
17.0687999725341797
 70
192
  0
VERTEX
  8
sans arch SLICES separated
 10
3.1855878829956055
 20
-1.4643390178680420
 30
17.0687999725341797
 70
192
  0
VERTEX
  8
sans arch SLICES separated
 10
-2.5309517383575439
 20
0.0820985659956932
 30
17.0687999725341797
 70
192
  0
VERTEX
  8
sans arch SLICES separated
 10
-4.9014477729797363
 20
-3.9847576618194580
 30
17.0687999725341797
 70
192
  0
VERTEX
  8
sans arch SLICES separated
 10
0.4108428955078125
 20
0.1724007874727249
 30
18.2880001068115234
 70
192
  0
VERTEX
  8
sans arch SLICES separated
 10
2.4897241592407227
 20
-1.6155961751937866
 30
18.2880001068115234
 70
192
  0
VERTEX
  8
sans arch SLICES separated
 10
-1.2309771776199341
 20
0.1275504976511002
 30
18.2880001068115234
 70
192
  0
VERTEX
  8
sans arch SLICES separated
 10
-2.9456076622009277
 20
-1.7639573812484741
 30
18.2880001068115234
 70
192
  0
VERTEX
  8
sans arch SLICES separated
 10
-0.3235277533531189
 20
-2.2438018321990967
 30
18.2880001068115234
 70
192
  0
VERTEX
  8
sans arch SLICES separated
 10
0.3317311704158783
 20
-2.2422704696655273
 30
18.2880001068115234
 70
192
  0
VERTEX
  8
sans arch SLICES separated
 10
4.4536595344543457
 20
-4.2529282569885254
 30
18.2880001068115234
 70
192
  0
VERTEX
  8
sans arch SLICES separated
 10
-4.4632644653320312
 20
-4.2475066184997559
 30
18.2880001068115234
 70
192
  0
VERTEX
  8
sans arch SLICES separated
 10
-0.3988088071346283
 20
-0.2465723901987076
 30
19.5072002410888672
 70
192
  0
VERTEX
  8
sans arch SLICES separated
 10
1.7655584812164307
 20
-1.7731955051422119
 30
19.5072002410888672
 70
192
  0
VERTEX
  8
sans arch SLICES separated
 10
-2.2115578651428223
 20
-1.8918529748916626
 30
19.5072002410888672
 70
192
  0
VERTEX
  8
sans arch SLICES separated
 10
0.0060402583330870
 20
-2.6233165264129639
 30
19.5072002410888672
 70
192
  0
VERTEX
  8
sans arch SLICES separated
 10
4.0200109481811523
 20
-4.5259900093078613
 30
19.5072002410888672
 70
192
  0
VERTEX
  8
sans arch SLICES separated
 10
-4.0250811576843262
 20
-4.5102558135986328
 30
19.5072002410888672
 70
192
  0
VERTEX
  8
sans arch SLICES separated
 10
1.0081739425659180
 20
-1.9598777294158936
 30
20.7264003753662109
 70
192
  0
VERTEX
  8
sans arch SLICES separated
 10
-1.3840360641479492
 20
-2.0385150909423828
 30
20.7264003753662109
 70
192
  0
VERTEX
  8
sans arch SLICES separated
 10
-0.2909255325794220
 20
-1.0639951229095459
 30
20.7264003753662109
 70
192
  0
VERTEX
  8
sans arch SLICES separated
 10
3.5604097843170166
 20
-4.7898726463317871
 30
20.7264003753662109
 70
192
  0
VERTEX
  8
sans arch SLICES separated
 10
-3.5645699501037598
 20
-4.7731389999389648
 30
20.7264003753662109
 70
192
  0
VERTEX
  8
sans arch SLICES separated
 10
0.0059734354726970
 20
-3.1136374473571777
 30
20.7264003753662109
 70
192
  0
VERTEX
  8
sans arch SLICES separated
 10
0.2290426492691040
 20
-2.1655991077423096
 30
21.9456005096435547
 70
192
  0
VERTEX
  8
sans arch SLICES separated
 10
-0.5297858119010925
 20
-2.1905434131622314
 30
21.9456005096435547
 70
192
  0
VERTEX
  8
sans arch SLICES separated
 10
-0.1830422580242157
 20
-1.8814177513122559
 30
21.9456005096435547
 70
192
  0
VERTEX
  8
sans arch SLICES separated
 10
3.0778012275695801
 20
-5.0456175804138184
 30
21.9456005096435547
 70
192
  0
VERTEX
  8
sans arch SLICES separated
 10
-3.0857748985290527
 20
-5.0361323356628418
 30
21.9456005096435547
 70
192
  0
VERTEX
  8
sans arch SLICES separated
 10
0.0059066126123071
 20
-3.6039583683013916
 30
21.9456005096435547
 70
192
  0
VERTEX
  8
sans arch SLICES separated
 10
-0.1201179996132851
 20
-2.6689956188201904
 30
23.1648006439208984
 70
192
  0
VERTEX
  8
sans arch SLICES separated
 10
2.5951929092407227
 20
-5.3013625144958496
 30
23.1648006439208984
 70
192
  0
VERTEX
  8
sans arch SLICES separated
 10
-2.6069798469543457
 20
-5.2991256713867188
 30
23.1648006439208984
 70
192
  0
VERTEX
  8
sans arch SLICES separated
 10
0.0058397897519171
 20
-4.0942792892456055
 30
23.1648006439208984
 70
192
  0
VERTEX
  8
sans arch SLICES separated
 10
-0.0962035581469536
 20
-3.4306778907775879
 30
24.3840007781982422
 70
192
  0
VERTEX
  8
sans arch SLICES separated
 10
2.1121597290039062
 20
-5.5573010444641113
 30
24.3840007781982422
 70
192
  0
VERTEX
  8
sans arch SLICES separated
 10
-2.1271712779998779
 20
-5.5620064735412598
 30
24.3840007781982422
 70
192
  0
VERTEX
  8
sans arch SLICES separated
 10
0.0057729668915272
 20
-4.5845999717712402
 30
24.3840007781982422
 70
192
  0
VERTEX
  8
sans arch SLICES separated
 10
-0.0722891166806221
 20
-4.1923604011535645
 30
25.6032009124755859
 70
192
  0
VERTEX
  8
sans arch SLICES separated
 10
1.6167454719543457
 20
-5.8188772201538086
 30
25.6032009124755859
 70
192
  0
VERTEX
  8
sans arch SLICES separated
 10
-1.6256452798843384
 20
-5.8224759101867676
 30
25.6032009124755859
 70
192
  0
VERTEX
  8
sans arch SLICES separated
 10
0.0057061440311372
 20
-5.0749206542968750
 30
25.6032009124755859
 70
192
  0
VERTEX
  8
sans arch SLICES separated
 10
-0.0483747161924839
 20
-4.9540414810180664
 30
26.8223991394042969
 70
192
  0
VERTEX
  8
sans arch SLICES separated
 10
1.1213319301605225
 20
-6.0804529190063477
 30
26.8223991394042969
 70
192
  0
VERTEX
  8
sans arch SLICES separated
 10
-1.1241199970245361
 20
-6.0829448699951172
 30
26.8223991394042969
 70
192
  0
VERTEX
  8
sans arch SLICES separated
 10
0.0056393211707473
 20
-5.5652408599853516
 30
26.8223991394042969
 70
192
  0
VERTEX
  8
sans arch SLICES separated
 10
-0.0244602784514427
 20
-5.7157239913940430
 30
28.0415992736816406
 70
192
  0
VERTEX
  8
sans arch SLICES separated
 10
0.6259176731109619
 20
-6.3420290946960449
 30
28.0415992736816406
 70
192
  0
VERTEX
  8
sans arch SLICES separated
 10
-0.6225939989089966
 20
-6.3434143066406250
 30
28.0415992736816406
 70
192
  0
VERTEX
  8
sans arch SLICES separated
 10
0.0055724983103573
 20
-6.0555615425109863
 30
28.0415992736816406
 70
192
  0
VERTEX
  8
sans arch SLICES separated
 10
-0.0005458403611556
 20
-6.4774065017700195
 30
29.2607994079589844
 70
192
  0
VERTEX
  8
sans arch SLICES separated
 10
0.1305033862590790
 20
-6.6036047935485840
 30
29.2607994079589844
 70
192
  0
VERTEX
  8
sans arch SLICES separated
 10
-0.1210680156946182
 20
-6.6038842201232910
 30
29.2607994079589844
 70
192
  0
VERTEX
  8
sans arch SLICES separated
 10
0.0055056754499674
 20
-6.5458827018737793
 30
29.2607994079589844
 70
192
  0
VERTEX
  8
sans arch SLICES separated
 10
8.1559085845947266
 20
-0.5360242128372192
 30
1.2192000150680542
 70
192
  0
VERTEX
  8
sans arch SLICES separated
 10
7.9706888198852539
 20
-0.0029752918053418
 30
1.2192000150680542
 70
192
  0
VERTEX
  8
sans arch SLICES separated
 10
7.8646588325500488
 20
0.3044381439685822
 30
1.2192000150680542
 70
192
  0
VERTEX
  8
sans arch SLICES separated
 10
-8.1659698486328125
 20
-0.5641353726387024
 30
1.2192000150680542
 70
192
  0
VERTEX
  8
sans arch SLICES separated
 10
-8.1831369400024414
 20
-0.2904447019100189
 30
1.2192000150680542
 70
192
  0
VERTEX
  8
sans arch SLICES separated
 10
-8.1936655044555664
 20
-0.1356966793537140
 30
1.2192000150680542
 70
192
  0
VERTEX
  8
sans arch SLICES separated
 10
-7.4656748771667480
 20
-0.3874909281730652
 30
1.2192000150680542
 70
192
  0
VERTEX
  8
sans arch SLICES separated
 10
7.4546923637390137
 20
-0.3547562658786774
 30
1.2192000150680542
 70
192
  0
VERTEX
  8
sans arch SLICES separated
 10
8.1132659912109375
 20
-0.8009495139122009
 30
2.4384000301361084
 70
192
  0
VERTEX
  8
sans arch SLICES separated
 10
7.8664808273315430
 20
-0.0997737571597099
 30
2.4384000301361084
 70
192
  0
VERTEX
  8
sans arch SLICES separated
 10
7.7275652885437012
 20
0.3035976886749268
 30
2.4384000301361084
 70
192
  0
VERTEX
  8
sans arch SLICES separated
 10
-8.1110935211181641
 20
-0.3802740871906281
 30
2.4384000301361084
 70
192
  0
VERTEX
  8
sans arch SLICES separated
 10
-8.1065340042114258
 20
-0.1274961829185486
 30
2.4384000301361084
 70
192
  0
VERTEX
  8
sans arch SLICES separated
 10
-8.1229877471923828
 20
-0.8242141604423523
 30
2.4384000301361084
 70
192
  0
VERTEX
  8
sans arch SLICES separated
 10
-7.3559756278991699
 20
-0.5203798413276672
 30
2.4384000301361084
 70
192
  0
VERTEX
  8
sans arch SLICES separated
 10
7.3460731506347656
 20
-0.4888371825218201
 30
2.4384000301361084
 70
192
  0
VERTEX
  8
sans arch SLICES separated
 10
7.5291805267333984
 20
0.3014568686485291
 30
3.6575999259948730
 70
192
  0
VERTEX
  8
sans arch SLICES separated
 10
7.7079830169677734
 20
-0.1996646970510483
 30
3.6575999259948730
 70
192
  0
VERTEX
  8
sans arch SLICES separated
 10
8.0307703018188477
 20
-1.0713397264480591
 30
3.6575999259948730
 70
192
  0
VERTEX
  8
sans arch SLICES separated
 10
-8.0028467178344727
 20
-0.4736222028732300
 30
3.6575999259948730
 70
192
  0
VERTEX
  8
sans arch SLICES separated
 10
-7.9810876846313477
 20
-0.1195659860968590
 30
3.6575999259948730
 70
192
  0
VERTEX
  8
sans arch SLICES separated
 10
-7.2095165252685547
 20
-0.6545409560203552
 30
3.6575999259948730
 70
192
  0
VERTEX
  8
sans arch SLICES separated
 10
7.1949248313903809
 20
-0.6299992799758911
 30
3.6575999259948730
 70
192
  0
VERTEX
  8
sans arch SLICES separated
 10
-8.0464954376220703
 20
-1.0867313146591187
 30
3.6575999259948730
 70
192
  0
VERTEX
  8
sans arch SLICES separated
 10
7.9077343940734863
 20
-1.3463761806488037
 30
4.8768000602722168
 70
192
  0
VERTEX
  8
sans arch SLICES separated
 10
7.5058064460754395
 20
-0.3021149933338165
 30
4.8768000602722168
 70
192
  0
VERTEX
  8
sans arch SLICES separated
 10
7.2862071990966797
 20
0.2981498837471008
 30
4.8768000602722168
 70
192
  0
VERTEX
  8
sans arch SLICES separated
 10
6.9972314834594727
 20
-0.7727303504943848
 30
4.8768000602722168
 70
192
  0
VERTEX
  8
sans arch SLICES separated
 10
-7.9194293022155762
 20
-1.3542401790618896
 30
4.8768000602722168
 70
192
  0
VERTEX
  8
sans arch SLICES separated
 10
-7.7956519126892090
 20
-0.5846855640411377
 30
4.8768000602722168
 70
192
  0
VERTEX
  8
sans arch SLICES separated
 10
-7.7554030418395996
 20
-0.1100744903087616
 30
4.8768000602722168
 70
192
  0
VERTEX
  8
sans arch SLICES separated
 10
-7.0122327804565430
 20
-0.7938331961631775
 30
4.8768000602722168
 70
192
  0
VERTEX
  8
sans arch SLICES separated
 10
7.0065755844116211
 20
0.2939578294754028
 30
6.0960001945495605
 70
192
  0
VERTEX
  8
sans arch SLICES separated
 10
-7.7394409179687500
 20
-1.6268047094345093
 30
6.0960001945495605
 70
192
  0
VERTEX
  8
sans arch SLICES separated
 10
-7.5650024414062500
 20
-0.6817558407783508
 30
6.0960001945495605
 70
192
  0
VERTEX
  8
sans arch SLICES separated
 10
-7.4924464225769043
 20
-0.1037491336464882
 30
6.0960001945495605
 70
192
  0
VERTEX
  8
sans arch SLICES separated
 10
-6.7377476692199707
 20
-0.9402902722358704
 30
6.0960001945495605
 70
192
  0
VERTEX
  8
sans arch SLICES separated
 10
6.7506937980651855
 20
-0.8997249007225037
 30
6.0960001945495605
 70
192
  0
VERTEX
  8
sans arch SLICES separated
 10
7.7461256980895996
 20
-1.6022858619689941
 30
6.0960001945495605
 70
192
  0
VERTEX
  8
sans arch SLICES separated
 10
7.2673430442810059
 20
-0.4013756811618805
 30
6.0960001945495605
 70
192
  0
VERTEX
  8
sans arch SLICES separated
 10
7.5356669425964355
 20
-1.8704297542572021
 30
7.3151998519897461
 70
192
  0
VERTEX
  8
sans arch SLICES separated
 10
6.9688158035278320
 20
-0.5036363601684570
 30
7.3151998519897461
 70
192
  0
VERTEX
  8
sans arch SLICES separated
 10
-7.3127436637878418
 20
-0.7800594568252563
 30
7.3151998519897461
 70
192
  0
VERTEX
  8
sans arch SLICES separated
 10
-7.2060861587524414
 20
-0.0910043120384216
 30
7.3151998519897461
 70
192
  0
VERTEX
  8
sans arch SLICES separated
 10
-6.4198932647705078
 20
-1.0745904445648193
 30
7.3151998519897461
 70
192
  0
VERTEX
  8
sans arch SLICES separated
 10
6.6676588058471680
 20
0.2881756126880646
 30
7.3151998519897461
 70
192
  0
VERTEX
  8
sans arch SLICES separated
 10
-7.5353779792785645
 20
-1.9016659259796143
 30
7.3151998519897461
 70
192
  0
VERTEX
  8
sans arch SLICES separated
 10
6.4382977485656738
 20
-1.0417692661285400
 30
7.3151998519897461
 70
192
  0
VERTEX
  8
sans arch SLICES separated
 10
6.6605715751647949
 20
-0.6085002422332764
 30
8.5343999862670898
 70
192
  0
VERTEX
  8
sans arch SLICES separated
 10
6.2886590957641602
 20
0.2821263372898102
 30
8.5343999862670898
 70
192
  0
VERTEX
  8
sans arch SLICES separated
 10
7.2901949882507324
 20
-2.1407313346862793
 30
8.5343999862670898
 70
192
  0
VERTEX
  8
sans arch SLICES separated
 10
-6.8863086700439453
 20
-0.0732651352882385
 30
8.5343999862670898
 70
192
  0
VERTEX
  8
sans arch SLICES separated
 10
-6.0517287254333496
 20
-1.1919896602630615
 30
8.5343999862670898
 70
192
  0
VERTEX
  8
sans arch SLICES separated
 10
6.0442614555358887
 20
-1.1817349195480347
 30
8.5343999862670898
 70
192
  0
VERTEX
  8
sans arch SLICES separated
 10
-7.0299248695373535
 20
-0.8863015770912170
 30
8.5343999862670898
 70
192
  0
VERTEX
  8
sans arch SLICES separated
 10
-7.2836880683898926
 20
-2.1524345874786377
 30
8.5343999862670898
 70
192
  0
VERTEX
  8
sans arch SLICES separated
 10
6.3340725898742676
 20
-0.7158212661743164
 30
9.7536001205444336
 70
192
  0
VERTEX
  8
sans arch SLICES separated
 10
5.8669672012329102
 20
0.2752971351146698
 30
9.7536001205444336
 70
192
  0
VERTEX
  8
sans arch SLICES separated
 10
-7.0154323577880859
 20
-2.4062123298645020
 30
9.7536001205444336
 70
192
  0
VERTEX
  8
sans arch SLICES separated
 10
-6.6701588630676270
 20
-0.9891893863677979
 30
9.7536001205444336
 70
192
  0
VERTEX
  8
sans arch SLICES separated
 10
5.6037664413452148
 20
-1.3197464942932129
 30
9.7536001205444336
 70
192
  0
VERTEX
  8
sans arch SLICES separated
 10
7.0075702667236328
 20
-2.4105613231658936
 30
9.7536001205444336
 70
192
  0
VERTEX
  8
sans arch SLICES separated
 10
-6.4852814674377441
 20
-0.0583565458655357
 30
9.7536001205444336
 70
192
  0
VERTEX
  8
sans arch SLICES separated
 10
-5.6149377822875977
 20
-1.3243715763092041
 30
9.7536001205444336
 70
192
  0
VERTEX
  8
sans arch SLICES separated
 10
5.3985018730163574
 20
0.2671685218811035
 30
10.9728002548217773
 70
192
  0
VERTEX
  8
sans arch SLICES separated
 10
-6.2788887023925781
 20
-1.0957484245300293
 30
10.9728002548217773
 70
192
  0
VERTEX
  8
sans arch SLICES separated
 10
-6.0175127983093262
 20
-0.0411437489092350
 30
10.9728002548217773
 70
192
  0
VERTEX
  8
sans arch SLICES separated
 10
-5.1103010177612305
 20
-1.4565488100051880
 30
10.9728002548217773
 70
192
  0
VERTEX
  8
sans arch SLICES separated
 10
5.1048145294189453
 20
-1.4590728282928467
 30
10.9728002548217773
 70
192
  0
VERTEX
  8
sans arch SLICES separated
 10
6.6984715461730957
 20
-2.6774995326995850
 30
10.9728002548217773
 70
192
  0
VERTEX
  8
sans arch SLICES separated
 10
5.9466381072998047
 20
-0.8261262178421021
 30
10.9728002548217773
 70
192
  0
VERTEX
  8
sans arch SLICES separated
 10
-6.7109322547912598
 20
-2.6691842079162598
 30
10.9728002548217773
 70
192
  0
VERTEX
  8
sans arch SLICES separated
 10
6.3747591972351074
 20
-2.9445588588714600
 30
12.1920003890991211
 70
192
  0
VERTEX
  8
sans arch SLICES separated
 10
5.5012216567993164
 20
-0.9441415667533875
 30
12.1920003890991211
 70
192
  0
VERTEX
  8
sans arch SLICES separated
 10
-5.5067582130432129
 20
-0.0224971696734428
 30
12.1920003890991211
 70
192
  0
VERTEX
  8
sans arch SLICES separated
 10
4.5412969589233398
 20
-1.5839458703994751
 30
12.1920003890991211
 70
192
  0
VERTEX
  8
sans arch SLICES separated
 10
-4.5477461814880371
 20
-1.5885360240936279
 30
12.1920003890991211
 70
192
  0
VERTEX
  8
sans arch SLICES separated
 10
4.8644461631774902
 20
0.2573831379413605
 30
12.1920003890991211
 70
192
  0
VERTEX
  8
sans arch SLICES separated
 10
-6.3836045265197754
 20
-2.9323310852050781
 30
12.1920003890991211
 70
192
  0
VERTEX
  8
sans arch SLICES separated
 10
-5.8575711250305176
 20
-1.2092727422714233
 30
12.1920003890991211
 70
192
  0
VERTEX
  8
sans arch SLICES separated
 10
4.2535219192504883
 20
0.2459070831537247
 30
13.4111995697021484
 70
192
  0
VERTEX
  8
sans arch SLICES separated
 10
5.0058035850524902
 20
-1.0657844543457031
 30
13.4111995697021484
 70
192
  0
VERTEX
  8
sans arch SLICES separated
 10
-5.3845186233520508
 20
-1.3152565956115723
 30
13.4111995697021484
 70
192
  0
VERTEX
  8
sans arch SLICES separated
 10
-3.9257013797760010
 20
-1.7203334569931030
 30
13.4111995697021484
 70
192
  0
VERTEX
  8
sans arch SLICES separated
 10
3.9174118041992188
 20
-1.7086381912231445
 30
13.4111995697021484
 70
192
  0
VERTEX
  8
sans arch SLICES separated
 10
6.0274553298950195
 20
-3.2119793891906738
 30
13.4111995697021484
 70
192
  0
VERTEX
  8
sans arch SLICES separated
 10
-4.9622473716735840
 20
-0.0027417617384344
 30
13.4111995697021484
 70
192
  0
VERTEX
  8
sans arch SLICES separated
 10
-6.0366687774658203
 20
-3.1956286430358887
 30
13.4111995697021484
 70
192
  0
VERTEX
  8
sans arch SLICES separated
 10
8.1699562072753906
 20
-0.2720929086208344
 30
0.0000000000000000
 70
192
  0
VERTEX
  8
sans arch SLICES separated
 10
8.1638889312744141
 20
-0.2564310729503632
 30
0.0000000000000000
 70
192
  0
VERTEX
  8
sans arch SLICES separated
 10
7.9463715553283691
 20
0.3044935762882233
 30
0.0000000000000000
 70
192
  0
VERTEX
  8
sans arch SLICES separated
 10
7.9660019874572754
 20
0.2539267241954803
 30
0.0000000000000000
 70
192
  0
VERTEX
  8
sans arch SLICES separated
 10
7.5341696739196777
 20
-0.2259331941604614
 30
0.0000000000000000
 70
192
  0
VERTEX
  8
sans arch SLICES separated
 10
-8.2042732238769531
 20
-0.1433337032794952
 30
0.0000000000000000
 70
192
  0
VERTEX
  8
sans arch SLICES separated
 10
-8.1929101943969727
 20
-0.2023663967847824
 30
0.0000000000000000
 70
192
  0
VERTEX
  8
sans arch SLICES separated
 10
-8.1734790802001953
 20
-0.3031030297279358
 30
0.0000000000000000
 70
192
  0
VERTEX
  8
sans arch SLICES separated
 10
-7.5389380455017090
 20
-0.2545725107192993
 30
0.0000000000000000
 70
192
  0
VERTEX
  8
sans arch SLICES separated
 10
0.0046923886984587
 20
-2.2764523029327393
 30
18.6639194488525391
 70
192
  0
VERTEX
  8
sans arch SLICES separated
 10
-0.1121023744344711
 20
0.1619024872779846
 30
18.6639194488525391
 70
192
  0
VERTEX
  8
sans arch SLICES separated
 10
-0.7586519718170166
 20
0.1442404091358185
 30
18.6639194488525391
 70
192
  0
VERTEX
  8
sans arch SLICES separated
 10
2.2664401531219482
 20
-1.6641892194747925
 30
18.6639194488525391
 70
192
  0
VERTEX
  8
sans arch SLICES separated
 10
4.3199515342712402
 20
-4.3371219635009766
 30
18.6639194488525391
 70
192
  0
VERTEX
  8
sans arch SLICES separated
 10
-4.3281583786010742
 20
-4.3285207748413086
 30
18.6639194488525391
 70
192
  0
VERTEX
  8
sans arch SLICES separated
 10
0.0060864775441587
 20
-2.2841777801513672
 30
18.6639194488525391
 70
192
  0
VERTEX
  8
sans arch SLICES separated
 10
-2.7192759513854980
 20
-1.8033918142318726
 30
18.6639194488525391
 70
192
  0
VERTEX
  8
sans arch SLICES separated
 10
-0.4371780455112457
 20
0.1553764790296555
 30
18.9028625488281250
 70
192
  0
VERTEX
  8
sans arch SLICES separated
 10
-0.4650429785251617
 20
0.1546152830123901
 30
18.9028625488281250
 70
192
  0
VERTEX
  8
sans arch SLICES separated
 10
2.1276412010192871
 20
-1.6943958997726440
 30
18.9028625488281250
 70
192
  0
VERTEX
  8
sans arch SLICES separated
 10
4.2368354797363281
 20
-4.3894591331481934
 30
18.9028625488281250
 70
192
  0
VERTEX
  8
sans arch SLICES separated
 10
0.0060736699961126
 20
-2.3781561851501465
 30
18.9028625488281250
 70
192
  0
VERTEX
  8
sans arch SLICES separated
 10
-4.2441730499267578
 20
-4.3788809776306152
 30
18.9028625488281250
 70
192
  0
VERTEX
  8
sans arch SLICES separated
 10
-2.5785827636718750
 20
-1.8279051780700684
 30
18.9028625488281250
 70
192
  0
VERTEX
  8
sans arch SLICES separated
 10
0
 20
0
 30
0
 70
128
  71
167
  74
2
  72
168
  73
2
  0
VERTEX
  8
sans arch SLICES separated
 10
0
 20
0
 30
0
 70
128
  71
170
  74
4
  72
169
  73
4
  0
VERTEX
  8
sans arch SLICES separated
 10
0
 20
0
 30
0
 70
128
  71
128
  72
127
  73
129
  74
132
  0
VERTEX
  8
sans arch SLICES separated
 10
0
 20
0
 30
0
 70
128
  71
21
  72
26
  73
25
  74
24
  0
VERTEX
  8
sans arch SLICES separated
 10
0
 20
0
 30
0
 70
128
  71
95
  72
96
  73
97
  74
101
  0
VERTEX
  8
sans arch SLICES separated
 10
0
 20
0
 30
0
 70
128
  71
111
  72
118
  73
117
  74
116
  0
VERTEX
  8
sans arch SLICES separated
 10
0
 20
0
 30
0
 70
128
  71
156
  72
152
  73
151
  74
154
  0
VERTEX
  8
sans arch SLICES separated
 10
0
 20
0
 30
0
 70
128
  71
81
  72
80
  73
79
  74
86
  0
VERTEX
  8
sans arch SLICES separated
 10
0
 20
0
 30
0
 70
128
  71
143
  72
149
  73
148
  74
147
  0
VERTEX
  8
sans arch SLICES separated
 10
0
 20
0
 30
0
 70
128
  71
136
  72
135
  73
140
  74
139
  0
VERTEX
  8
sans arch SLICES separated
 10
0
 20
0
 30
0
 70
128
  71
89
  72
88
  73
87
  74
94
  0
VERTEX
  8
sans arch SLICES separated
 10
0
 20
0
 30
0
 70
128
  71
17
  72
13
  73
18
  74
16
  0
VERTEX
  8
sans arch SLICES separated
 10
0
 20
0
 30
0
 70
128
  71
124
  72
120
  73
119
  74
126
  0
VERTEX
  8
sans arch SLICES separated
 10
0
 20
0
 30
0
 70
128
  71
159
  72
160
  73
164
  74
163
  0
VERTEX
  8
sans arch SLICES separated
 10
0
 20
0
 30
0
 70
128
  71
5
  72
6
  73
7
  74
12
  0
VERTEX
  8
sans arch SLICES separated
 10
0
 20
0
 30
0
 70
128
  71
105
  72
104
  73
103
  74
106
  0
VERTEX
  8
sans arch SLICES separated
 10
0
 20
0
 30
0
 70
128
  71
29
  72
30
  73
35
  74
34
  0
VERTEX
  8
sans arch SLICES separated
 10
0
 20
0
 30
0
 70
128
  71
68
  72
70
  73
69
  74
67
  0
VERTEX
  8
sans arch SLICES separated
 10
0
 20
0
 30
0
 70
128
  71
56
  72
58
  73
57
  74
55
  0
VERTEX
  8
sans arch SLICES separated
 10
0
 20
0
 30
0
 70
128
  71
76
  72
78
  73
77
  74
75
  0
VERTEX
  8
sans arch SLICES separated
 10
0
 20
0
 30
0
 70
128
  71
72
  72
74
  73
73
  74
71
  0
VERTEX
  8
sans arch SLICES separated
 10
0
 20
0
 30
0
 70
128
  71
60
  72
62
  73
61
  74
59
  0
VERTEX
  8
sans arch SLICES separated
 10
0
 20
0
 30
0
 70
128
  71
64
  72
66
  73
65
  74
63
  0
VERTEX
  8
sans arch SLICES separated
 10
0
 20
0
 30
0
 70
128
  71
36
  72
32
  73
31
  74
33
  0
VERTEX
  8
sans arch SLICES separated
 10
0
 20
0
 30
0
 70
128
  71
28
  72
22
  73
27
  74
23
  0
VERTEX
  8
sans arch SLICES separated
 10
0
 20
0
 30
0
 70
128
  71
112
  72
113
  73
114
  74
115
  0
VERTEX
  8
sans arch SLICES separated
 10
0
 20
0
 30
0
 70
128
  71
134
  72
133
  73
130
  74
131
  0
VERTEX
  8
sans arch SLICES separated
 10
0
 20
0
 30
0
 70
128
  71
82
  72
83
  73
84
  74
85
  0
VERTEX
  8
sans arch SLICES separated
 10
0
 20
0
 30
0
 70
128
  71
137
  72
138
  73
141
  74
142
  0
VERTEX
  8
sans arch SLICES separated
 10
0
 20
0
 30
0
 70
128
  71
107
  72
108
  73
109
  74
110
  0
VERTEX
  8
sans arch SLICES separated
 10
0
 20
0
 30
0
 70
128
  71
102
  72
98
  73
99
  74
100
  0
VERTEX
  8
sans arch SLICES separated
 10
0
 20
0
 30
0
 70
128
  71
150
  72
144
  73
145
  74
146
  0
VERTEX
  8
sans arch SLICES separated
 10
0
 20
0
 30
0
 70
128
  71
19
  72
20
  73
14
  74
15
  0
VERTEX
  8
sans arch SLICES separated
 10
0
 20
0
 30
0
 70
128
  71
8
  72
9
  73
10
  74
11
  0
VERTEX
  8
sans arch SLICES separated
 10
0
 20
0
 30
0
 70
128
  71
166
  72
161
  73
165
  74
162
  0
VERTEX
  8
sans arch SLICES separated
 10
0
 20
0
 30
0
 70
128
  71
157
  72
158
  73
153
  74
155
  0
VERTEX
  8
sans arch SLICES separated
 10
0
 20
0
 30
0
 70
128
  71
92
  72
90
  73
91
  74
93
  0
VERTEX
  8
sans arch SLICES separated
 10
0
 20
0
 30
0
 70
128
  71
125
  72
121
  73
122
  74
123
  0
VERTEX
  8
sans arch SLICES separated
 10
0
 20
0
 30
0
 70
128
  71
174
  72
173
  73
172
  74
175
  0
SEQEND
  0
ENDSEC
  0
EOF
