  0
SECTION
  2
HEADER
  9
$ACADVER
  1
AC1009
  9
$INSBASE
 10
0.0
 20
0.0
 30
0.0
  9
$EXTMIN
 10
21.4535244521104
 20
22.764460985770029
 30
0.0
  9
$EXTMAX
 10
117.4535244521104
 20
70.764460985770029
 30
0.0
  9
$LIMMIN
 10
0.0
 20
0.0
  9
$LIMMAX
 10
12.0
 20
9.0
  9
$ORTHOMODE
 70
     0
  9
$REGENMODE
 70
     1
  9
$FILLMODE
 70
     1
  9
$QTEXTMODE
 70
     0
  9
$MIRRTEXT
 70
     0
  9
$DRAGMODE
 70
     2
  9
$LTSCALE
 40
1.0
  9
$OSMODE
 70
   431
  9
$ATTMODE
 70
     1
  9
$TEXTSIZE
 40
0.2
  9
$TRACEWID
 40
0.05
  9
$TEXTSTYLE
  7
STANDARD
  9
$CLAYER
  8
LAYOUT
  9
$CELTYPE
  6
BYLAYER
  9
$CECOLOR
 62
   256
  9
$DIMSCALE
 40
1.0
  9
$DIMASZ
 40
0.18
  9
$DIMEXO
 40
0.0625
  9
$DIMDLI
 40
0.38
  9
$DIMRND
 40
0.0
  9
$DIMDLE
 40
0.0
  9
$DIMEXE
 40
0.18
  9
$DIMTP
 40
0.0
  9
$DIMTM
 40
0.0
  9
$DIMTXT
 40
0.18
  9
$DIMCEN
 40
0.09
  9
$DIMTSZ
 40
0.0
  9
$DIMTOL
 70
     0
  9
$DIMLIM
 70
     0
  9
$DIMTIH
 70
     1
  9
$DIMTOH
 70
     1
  9
$DIMSE1
 70
     0
  9
$DIMSE2
 70
     0
  9
$DIMTAD
 70
     0
  9
$DIMZIN
 70
     0
  9
$DIMBLK
  1

  9
$DIMASO
 70
     1
  9
$DIMSHO
 70
     1
  9
$DIMPOST
  1

  9
$DIMAPOST
  1

  9
$DIMALT
 70
     0
  9
$DIMALTD
 70
     2
  9
$DIMALTF
 40
25.399999999999999
  9
$DIMLFAC
 40
1.0
  9
$DIMTOFL
 70
     0
  9
$DIMTVP
 40
0.0
  9
$DIMTIX
 70
     0
  9
$DIMSOXD
 70
     0
  9
$DIMSAH
 70
     0
  9
$DIMBLK1
  1

  9
$DIMBLK2
  1

  9
$DIMSTYLE
  2
STANDARD
  9
$DIMCLRD
 70
     0
  9
$DIMCLRE
 70
     0
  9
$DIMCLRT
 70
     0
  9
$DIMTFAC
 40
1.0
  9
$DIMGAP
 40
0.09
  9
$LUNITS
 70
     2
  9
$LUPREC
 70
     4
  9
$SKETCHINC
 40
0.1
  9
$FILLETRAD
 40
0.0
  9
$AUNITS
 70
     0
  9
$AUPREC
 70
     0
  9
$MENU
  1
.
  9
$ELEVATION
 40
0.0
  9
$PELEVATION
 40
0.0
  9
$THICKNESS
 40
0.0
  9
$LIMCHECK
 70
     0
  9
$BLIPMODE
 70
     0
  9
$CHAMFERA
 40
0.0
  9
$CHAMFERB
 40
0.0
  9
$SKPOLY
 70
     0
  9
$TDCREATE
 40
2457228.710916759
  9
$TDUPDATE
 40
2457228.7164414348
  9
$TDINDWG
 40
0.0049497338
  9
$TDUSRTIMER
 40
0.0049496296
  9
$USRTIMER
 70
     1
  9
$ANGBASE
 50
0.0
  9
$ANGDIR
 70
     0
  9
$PDMODE
 70
    32
  9
$PDSIZE
 40
0.51
  9
$PLINEWID
 40
0.0
  9
$COORDS
 70
     1
  9
$SPLFRAME
 70
     0
  9
$SPLINETYPE
 70
     6
  9
$SPLINESEGS
 70
     8
  9
$ATTDIA
 70
     1
  9
$ATTREQ
 70
     1
  9
$HANDLING
 70
     1
  9
$HANDSEED
  5
488
  9
$SURFTAB1
 70
     6
  9
$SURFTAB2
 70
     6
  9
$SURFTYPE
 70
     6
  9
$SURFU
 70
     6
  9
$SURFV
 70
     6
  9
$UCSNAME
  2

  9
$UCSORG
 10
0.0
 20
0.0
 30
0.0
  9
$UCSXDIR
 10
1.0
 20
0.0
 30
0.0
  9
$UCSYDIR
 10
0.0
 20
1.0
 30
0.0
  9
$PUCSNAME
  2

  9
$PUCSORG
 10
0.0
 20
0.0
 30
0.0
  9
$PUCSXDIR
 10
1.0
 20
0.0
 30
0.0
  9
$PUCSYDIR
 10
0.0
 20
1.0
 30
0.0
  9
$USERI1
 70
     0
  9
$USERI2
 70
     0
  9
$USERI3
 70
     0
  9
$USERI4
 70
     0
  9
$USERI5
 70
     0
  9
$USERR1
 40
0.0
  9
$USERR2
 40
0.0
  9
$USERR3
 40
0.0
  9
$USERR4
 40
0.0
  9
$USERR5
 40
0.0
  9
$WORLDVIEW
 70
     1
  9
$SHADEDGE
 70
     3
  9
$SHADEDIF
 70
    70
  9
$TILEMODE
 70
     1
  9
$MAXACTVP
 70
    64
  9
$PLIMCHECK
 70
     0
  9
$PEXTMIN
 10
0.0
 20
0.0
 30
0.0
  9
$PEXTMAX
 10
0.0
 20
0.0
 30
0.0
  9
$PLIMMIN
 10
0.0
 20
0.0
  9
$PLIMMAX
 10
12.0
 20
9.0
  9
$UNITMODE
 70
     0
  9
$VISRETAIN
 70
     1
  9
$PLINEGEN
 70
     0
  9
$PSLTSCALE
 70
     1
  0
ENDSEC
  0
SECTION
  2
TABLES
  0
TABLE
  2
VPORT
 70
     1
  0
VPORT
  2
*ACTIVE
 70
     0
 10
0.0
 20
0.0
 11
1.0
 21
1.0
 12
91.539342983079905
 22
44.628551946311731
 13
0.0
 23
0.0
 14
0.5
 24
0.5
 15
0.5
 25
0.5
 16
0.0
 26
0.0
 36
1.0
 17
0.0
 27
0.0
 37
0.0
 40
84.278136461145863
 41
2.4535256410256401
 42
50.0
 43
0.0
 44
0.0
 50
0.0
 51
0.0
 71
     0
 72
  1000
 73
     1
 74
     3
 75
     0
 76
     1
 77
     0
 78
     0
  0
ENDTAB
  0
TABLE
  2
LTYPE
 70
     1
  0
LTYPE
  2
CONTINUOUS
 70
     0
  3
Solid line
 72
    65
 73
     0
 40
0.0
  0
ENDTAB
  0
TABLE
  2
LAYER
 70
     5
  0
LAYER
  2
0
 70
     0
 62
     7
  6
CONTINUOUS
  0
LAYER
  2
DRILLING
 70
     0
 62
     3
  6
CONTINUOUS
  0
LAYER
  2
ENGRAVE
 70
     0
 62
     4
  6
CONTINUOUS
  0
LAYER
  2
HALF_DRILL
 70
     0
 62
   200
  6
CONTINUOUS
  0
LAYER
  2
LAYOUT
 70
     0
 62
    10
  6
CONTINUOUS
  0
ENDTAB
  0
TABLE
  2
STYLE
 70
     2
  0
STYLE
  2
STANDARD
 70
     0
 40
0.0
 41
1.0
 50
0.0
 71
     0
 42
0.2
  3
txt
  4

  0
STYLE
  2
ANNOTATIVE
 70
     0
 40
0.0
 41
1.0
 50
0.0
 71
     0
 42
0.2
  3
txt
  4

  0
ENDTAB
  0
TABLE
  2
VIEW
 70
     0
  0
ENDTAB
  0
TABLE
  2
UCS
 70
     0
  0
ENDTAB
  0
TABLE
  2
APPID
 70
    11
  0
APPID
  2
ACAD
 70
     0
  0
APPID
  2
ACADANNOPO
 70
     0
  0
APPID
  2
ACADANNOTATIVE
 70
     0
  0
APPID
  2
ACAD_DSTYLE_DIMJAG
 70
     0
  0
APPID
  2
ACAD_DSTYLE_DIMTALN
 70
     0
  0
APPID
  2
ACAD_MLEADERVER
 70
     0
  0
APPID
  2
ACAD_NAV_VCDISPLAY
 70
     0
  0
APPID
  2
ACAECLAYERSTANDARD
 70
     0
  0
APPID
  2
ACCMTRANSPARENCY
 70
     0
  0
APPID
  2
ACAD_EXEMPT_FROM_CAD_STANDARDS
 70
     0
  0
APPID
  2
ACDBDYNAMICBLOCKTRUENAME2
 70
     0
  0
ENDTAB
  0
TABLE
  2
DIMSTYLE
 70
     2
  0
DIMSTYLE
  2
STANDARD
 70
     0
  3

  4

  5

  6

  7

 40
1.0
 41
0.18
 42
0.0625
 43
0.38
 44
0.18
 45
0.0
 46
0.0
 47
0.0
 48
0.0
140
0.18
141
0.09
142
0.0
143
25.399999999999999
144
1.0
145
0.0
146
1.0
147
0.09
 71
     0
 72
     0
 73
     1
 74
     1
 75
     0
 76
     0
 77
     0
 78
     0
170
     0
171
     2
172
     0
173
     0
174
     0
175
     0
176
     0
177
     0
178
     0
  0
DIMSTYLE
  2
ANNOTATIVE
 70
     0
  3

  4

  5

  6

  7

 40
0.0
 41
0.18
 42
0.0625
 43
0.38
 44
0.18
 45
0.0
 46
0.0
 47
0.0
 48
0.0
140
0.18
141
0.09
142
0.0
143
25.399999999999999
144
1.0
145
0.0
146
1.0
147
0.09
 71
     0
 72
     0
 73
     1
 74
     1
 75
     0
 76
     0
 77
     0
 78
     0
170
     0
171
     2
172
     0
173
     0
174
     0
175
     0
176
     0
177
     0
178
     0
  0
ENDTAB
  0
ENDSEC
  0
SECTION
  2
BLOCKS
  0
BLOCK
  8
0
  2
$MODEL_SPACE
 70
     0
 10
0.0
 20
0.0
 30
0.0
  3
$MODEL_SPACE
  1

  0
ENDBLK
  5
21
  8
0
  0
BLOCK
 67
     1
  8
0
  2
$PAPER_SPACE
 70
     0
 10
0.0
 20
0.0
 30
0.0
  3
$PAPER_SPACE
  1

  0
ENDBLK
  5
5B
 67
     1
  8
0
  0
BLOCK
  8
0
  2
*U1
 70
     1
 10
0.0
 20
0.0
 30
0.0
  3
*U1
  1

  0
POINT
  5
1DD
  8
ENGRAVE
 10
0.0
 20
0.0
 30
0.0
  0
ENDBLK
  5
1DE
  8
0
  0
BLOCK
  8
0
  2
*U3
 70
     1
 10
0.0
 20
0.0
 30
0.0
  3
*U3
  1

  0
POINT
  5
1EB
  8
ENGRAVE
 10
0.0
 20
0.0
 30
0.0
  0
ENDBLK
  5
1EC
  8
0
  0
BLOCK
  8
0
  2
*U5
 70
     1
 10
0.0
 20
0.0
 30
0.0
  3
*U5
  1

  0
POINT
  5
1F9
  8
ENGRAVE
 10
0.0
 20
0.0
 30
0.0
  0
ENDBLK
  5
1FA
  8
0
  0
BLOCK
  8
0
  2
*U7
 70
     1
 10
0.0
 20
0.0
 30
0.0
  3
*U7
  1

  0
POINT
  5
207
  8
ENGRAVE
 10
0.0
 20
0.0
 30
0.0
  0
ENDBLK
  5
208
  8
0
  0
BLOCK
  8
0
  2
*U9
 70
     1
 10
0.0
 20
0.0
 30
0.0
  3
*U9
  1

  0
POINT
  5
215
  8
HALF_DRILL
 10
0.0
 20
0.0
 30
0.0
  0
ENDBLK
  5
216
  8
0
  0
BLOCK
  8
0
  2
*U12
 70
     1
 10
0.0
 20
0.0
 30
0.0
  3
*U12
  1

  0
POINT
  5
28A
  8
ENGRAVE
 10
0.0
 20
0.0
 30
0.0
  0
ENDBLK
  5
28B
  8
0
  0
BLOCK
  8
0
  2
*U14
 70
     1
 10
0.0
 20
0.0
 30
0.0
  3
*U14
  1

  0
POINT
  5
298
  8
HALF_DRILL
 10
0.0
 20
0.0
 30
0.0
  0
ENDBLK
  5
299
  8
0
  0
BLOCK
  8
0
  2
*U16
 70
     1
 10
0.0
 20
0.0
 30
0.0
  3
*U16
  1

  0
POINT
  5
2CB
  8
ENGRAVE
 10
0.0
 20
0.0
 30
0.0
  0
ENDBLK
  5
2CC
  8
0
  0
BLOCK
  8
0
  2
*U18
 70
     1
 10
0.0
 20
0.0
 30
0.0
  3
*U18
  1

  0
POINT
  5
2D9
  8
ENGRAVE
 10
0.0
 20
0.0
 30
0.0
  0
ENDBLK
  5
2DA
  8
0
  0
BLOCK
  8
0
  2
*U20
 70
     1
 10
0.0
 20
0.0
 30
0.0
  3
*U20
  1

  0
POINT
  5
2E7
  8
ENGRAVE
 10
0.0
 20
0.0
 30
0.0
  0
ENDBLK
  5
2E8
  8
0
  0
BLOCK
  8
0
  2
*U21
 70
     1
 10
0.0
 20
0.0
 30
0.0
  3
*U21
  1

  0
POINT
  5
307
  8
ENGRAVE
 10
0.0
 20
0.0
 30
0.0
  0
ENDBLK
  5
308
  8
0
  0
BLOCK
  8
0
  2
*U23
 70
     1
 10
0.0
 20
0.0
 30
0.0
  3
*U23
  1

  0
POINT
  5
315
  8
ENGRAVE
 10
0.0
 20
0.0
 30
0.0
  0
ENDBLK
  5
316
  8
0
  0
BLOCK
  8
0
  2
*U25
 70
     1
 10
0.0
 20
0.0
 30
0.0
  3
*U25
  1

  0
POINT
  5
323
  8
ENGRAVE
 10
0.0
 20
0.0
 30
0.0
  0
ENDBLK
  5
324
  8
0
  0
BLOCK
  8
0
  2
*U27
 70
     1
 10
0.0
 20
0.0
 30
0.0
  3
*U27
  1

  0
POINT
  5
331
  8
ENGRAVE
 10
0.0
 20
0.0
 30
0.0
  0
ENDBLK
  5
332
  8
0
  0
BLOCK
  8
0
  2
*U29
 70
     1
 10
0.0
 20
0.0
 30
0.0
  3
*U29
  1

  0
POINT
  5
33F
  8
HALF_DRILL
 10
0.0
 20
0.0
 30
0.0
  0
ENDBLK
  5
340
  8
0
  0
BLOCK
  8
0
  2
*U31
 70
     1
 10
0.0
 20
0.0
 30
0.0
  3
*U31
  1

  0
POINT
  5
3A3
  8
ENGRAVE
 10
0.0
 20
0.0
 30
0.0
  0
ENDBLK
  5
3A4
  8
0
  0
BLOCK
  8
0
  2
*U32
 70
     1
 10
0.0
 20
0.0
 30
0.0
  3
*U32
  1

  0
INSERT
  5
3A9
  8
ENGRAVE
  6
BYBLOCK
 62
     0
  2
*U31
 10
0.0
 20
0.0
 30
0.0
  0
INSERT
  5
3AA
  8
ENGRAVE
  6
BYBLOCK
 62
     0
  2
*U31
 10
-4.0
 20
0.0
 30
0.0
  0
INSERT
  5
3AB
  8
ENGRAVE
  6
BYBLOCK
 62
     0
  2
*U31
 10
-8.0
 20
0.0
 30
0.0
  0
INSERT
  5
3AC
  8
ENGRAVE
  6
BYBLOCK
 62
     0
  2
*U31
 10
-12.0
 20
0.0
 30
0.0
  0
INSERT
  5
3AD
  8
ENGRAVE
  6
BYBLOCK
 62
     0
  2
*U31
 10
-16.0
 20
0.0
 30
0.0
  0
INSERT
  5
3AE
  8
ENGRAVE
  6
BYBLOCK
 62
     0
  2
*U31
 10
-20.0
 20
0.0
 30
0.0
  0
INSERT
  5
3AF
  8
ENGRAVE
  6
BYBLOCK
 62
     0
  2
*U31
 10
-24.0
 20
0.0
 30
0.0
  0
ENDBLK
  5
3B0
  8
0
  0
BLOCK
  8
0
  2
*U33
 70
     1
 10
0.0
 20
0.0
 30
0.0
  3
*U33
  1

  0
POINT
  5
3B3
  8
ENGRAVE
 10
0.0
 20
0.0
 30
0.0
  0
ENDBLK
  5
3B4
  8
0
  0
BLOCK
  8
0
  2
*U34
 70
     1
 10
0.0
 20
0.0
 30
0.0
  3
*U34
  1

  0
INSERT
  5
3B7
  8
ENGRAVE
  6
BYBLOCK
 62
     0
  2
*U33
 10
0.0
 20
0.0
 30
0.0
  0
INSERT
  5
3B8
  8
ENGRAVE
  6
BYBLOCK
 62
     0
  2
*U33
 10
-4.0
 20
0.0
 30
0.0
  0
INSERT
  5
3B9
  8
ENGRAVE
  6
BYBLOCK
 62
     0
  2
*U33
 10
-8.0
 20
0.0
 30
0.0
  0
INSERT
  5
3BA
  8
ENGRAVE
  6
BYBLOCK
 62
     0
  2
*U33
 10
-12.0
 20
0.0
 30
0.0
  0
INSERT
  5
3BB
  8
ENGRAVE
  6
BYBLOCK
 62
     0
  2
*U33
 10
-16.0
 20
0.0
 30
0.0
  0
INSERT
  5
3BC
  8
ENGRAVE
  6
BYBLOCK
 62
     0
  2
*U33
 10
-20.0
 20
0.0
 30
0.0
  0
INSERT
  5
3BD
  8
ENGRAVE
  6
BYBLOCK
 62
     0
  2
*U33
 10
-24.0
 20
0.0
 30
0.0
  0
ENDBLK
  5
3BE
  8
0
  0
BLOCK
  8
0
  2
*U35
 70
     1
 10
0.0
 20
0.0
 30
0.0
  3
*U35
  1

  0
POINT
  5
3C1
  8
ENGRAVE
 10
0.0
 20
0.0
 30
0.0
  0
ENDBLK
  5
3C2
  8
0
  0
BLOCK
  8
0
  2
*U36
 70
     1
 10
0.0
 20
0.0
 30
0.0
  3
*U36
  1

  0
INSERT
  5
3C5
  8
ENGRAVE
  6
BYBLOCK
 62
     0
  2
*U35
 10
0.0
 20
0.0
 30
0.0
  0
INSERT
  5
3C6
  8
ENGRAVE
  6
BYBLOCK
 62
     0
  2
*U35
 10
-4.0
 20
0.0
 30
0.0
  0
INSERT
  5
3C7
  8
ENGRAVE
  6
BYBLOCK
 62
     0
  2
*U35
 10
-8.0
 20
0.0
 30
0.0
  0
INSERT
  5
3C8
  8
ENGRAVE
  6
BYBLOCK
 62
     0
  2
*U35
 10
-12.0
 20
0.0
 30
0.0
  0
INSERT
  5
3C9
  8
ENGRAVE
  6
BYBLOCK
 62
     0
  2
*U35
 10
-16.0
 20
0.0
 30
0.0
  0
INSERT
  5
3CA
  8
ENGRAVE
  6
BYBLOCK
 62
     0
  2
*U35
 10
-20.0
 20
0.0
 30
0.0
  0
INSERT
  5
3CB
  8
ENGRAVE
  6
BYBLOCK
 62
     0
  2
*U35
 10
-24.0
 20
0.0
 30
0.0
  0
ENDBLK
  5
3CC
  8
0
  0
BLOCK
  8
0
  2
*U37
 70
     1
 10
0.0
 20
0.0
 30
0.0
  3
*U37
  1

  0
POINT
  5
3CF
  8
ENGRAVE
 10
0.0
 20
0.0
 30
0.0
  0
ENDBLK
  5
3D0
  8
0
  0
BLOCK
  8
0
  2
*U38
 70
     1
 10
0.0
 20
0.0
 30
0.0
  3
*U38
  1

  0
INSERT
  5
3D3
  8
ENGRAVE
  6
BYBLOCK
 62
     0
  2
*U37
 10
0.0
 20
0.0
 30
0.0
  0
INSERT
  5
3D4
  8
ENGRAVE
  6
BYBLOCK
 62
     0
  2
*U37
 10
-4.0
 20
0.0
 30
0.0
  0
INSERT
  5
3D5
  8
ENGRAVE
  6
BYBLOCK
 62
     0
  2
*U37
 10
-8.0
 20
0.0
 30
0.0
  0
INSERT
  5
3D6
  8
ENGRAVE
  6
BYBLOCK
 62
     0
  2
*U37
 10
-12.0
 20
0.0
 30
0.0
  0
INSERT
  5
3D7
  8
ENGRAVE
  6
BYBLOCK
 62
     0
  2
*U37
 10
-16.0
 20
0.0
 30
0.0
  0
INSERT
  5
3D8
  8
ENGRAVE
  6
BYBLOCK
 62
     0
  2
*U37
 10
-20.0
 20
0.0
 30
0.0
  0
INSERT
  5
3D9
  8
ENGRAVE
  6
BYBLOCK
 62
     0
  2
*U37
 10
-24.0
 20
0.0
 30
0.0
  0
ENDBLK
  5
3DA
  8
0
  0
BLOCK
  8
0
  2
*U39
 70
     1
 10
0.0
 20
0.0
 30
0.0
  3
*U39
  1

  0
POINT
  5
3DD
  8
HALF_DRILL
 10
0.0
 20
0.0
 30
0.0
  0
ENDBLK
  5
3DE
  8
0
  0
BLOCK
  8
0
  2
*U40
 70
     1
 10
0.0
 20
0.0
 30
0.0
  3
*U40
  1

  0
INSERT
  5
3E1
  8
HALF_DRILL
  6
BYBLOCK
 62
     0
  2
*U39
 10
0.0
 20
0.0
 30
0.0
  0
INSERT
  5
3E2
  8
HALF_DRILL
  6
BYBLOCK
 62
     0
  2
*U39
 10
-10.0
 20
0.0
 30
0.0
  0
INSERT
  5
3E3
  8
HALF_DRILL
  6
BYBLOCK
 62
     0
  2
*U39
 10
-20.0
 20
0.0
 30
0.0
  0
INSERT
  5
3E4
  8
HALF_DRILL
  6
BYBLOCK
 62
     0
  2
*U39
 10
-30.0
 20
0.0
 30
0.0
  0
ENDBLK
  5
3E5
  8
0
  0
ENDSEC
  0
SECTION
  2
ENTITIES
  0
POLYLINE
  5
2EE
  8
LAYOUT
 66
     1
 10
0.0
 20
0.0
 30
0.0
 70
     1
  0
VERTEX
  5
46A
  8
LAYOUT
 10
21.4535244521104
 20
22.764460985770029
 30
0.0
  0
VERTEX
  5
46B
  8
LAYOUT
 10
117.4535244521104
 20
22.764460985770029
 30
0.0
  0
VERTEX
  5
46C
  8
LAYOUT
 10
117.4535244521104
 20
70.764460985770029
 30
0.0
  0
VERTEX
  5
46D
  8
LAYOUT
 10
21.4535244521104
 20
70.764460985770029
 30
0.0
  0
SEQEND
  5
46E
  8
LAYOUT
  0
POLYLINE
  5
2F6
  8
LAYOUT
 66
     1
 10
0.0
 20
0.0
 30
0.0
 70
     1
  0
VERTEX
  5
46F
  8
LAYOUT
 10
22.4535244521104
 20
23.764460985770029
 30
0.0
  0
VERTEX
  5
470
  8
LAYOUT
 10
116.4535244521104
 20
23.764460985770029
 30
0.0
  0
VERTEX
  5
471
  8
LAYOUT
 10
116.4535244521104
 20
69.764460985770029
 30
0.0
  0
VERTEX
  5
472
  8
LAYOUT
 10
22.4535244521104
 20
69.764460985770029
 30
0.0
  0
SEQEND
  5
473
  8
LAYOUT
  0
CIRCLE
  5
38F
  8
DRILLING
 10
101.9847445323238
 20
43.200092190312638
 30
0.0
 40
0.3224999999999998
  0
CIRCLE
  5
390
  8
DRILLING
 10
107.9520982818588
 20
43.825143570528638
 30
0.0
 40
0.3224999999999998
  0
CIRCLE
  5
391
  8
DRILLING
 10
96.017390782788823
 20
42.575040810096631
 30
0.0
 40
0.3224999999999998
  0
CIRCLE
  5
392
  8
DRILLING
 10
104.0247400425102
 20
56.356727170618967
 30
0.0
 40
0.3224999999999998
  0
CIRCLE
  5
393
  8
DRILLING
 10
109.9920937920451
 20
56.981778550835919
 30
0.0
 40
0.3224999999999998
  0
CIRCLE
  5
394
  8
DRILLING
 10
98.057386292975224
 20
55.731675790402512
 30
0.0
 40
0.3224999999999998
  0
CIRCLE
  5
395
  8
DRILLING
 10
33.406425012079922
 20
38.525233509872173
 30
0.0
 40
0.3224999999999998
  0
CIRCLE
  5
396
  8
DRILLING
 10
39.406390877218342
 20
38.50499450857513
 30
0.0
 40
0.3224999999999998
  0
CIRCLE
  5
397
  8
DRILLING
 10
45.406356742356749
 20
38.48475550727855
 30
0.0
 40
0.3224999999999998
  0
CIRCLE
  5
398
  8
DRILLING
 10
35.451574443941979
 20
51.715107909513662
 30
0.0
 40
0.3224999999999998
  0
CIRCLE
  5
399
  8
DRILLING
 10
41.451540309080357
 20
51.694868908218012
 30
0.0
 40
0.3224999999999998
  0
CIRCLE
  5
39A
  8
DRILLING
 10
47.451506174218778
 20
51.674629906921417
 30
0.0
 40
0.3224999999999998
  0
INSERT
  5
39B
  8
ENGRAVE
  2
*U32
 10
51.055937229949912
 20
32.944029145731811
 30
0.0
 50
261.18621746046807
  0
INSERT
  5
39C
  8
ENGRAVE
  2
*U34
 10
62.037537976851198
 20
33.690025713917642
 30
0.0
 50
261.18621746046807
  0
INSERT
  5
39D
  8
ENGRAVE
  2
*U36
 10
78.401089505459026
 20
34.801626250580853
 30
0.0
 50
261.18621746046807
  0
INSERT
  5
39E
  8
ENGRAVE
  2
*U38
 10
88.189014146879757
 20
35.466534615076078
 30
0.0
 50
261.18621746046807
  0
INSERT
  5
39F
  8
HALF_DRILL
  2
*U40
 10
69.32148691211691
 20
32.632334543091758
 30
0.0
 50
261.18621746046807
  0
POLYLINE
  5
3A0
  8
0
  6
CONTINUOUS
 62
     7
 66
     1
 10
0.0
 20
0.0
 30
0.0
 70
     1
  0
VERTEX
  5
474
  8
0
  6
CONTINUOUS
 62
     7
 10
28.760703050665828
 20
27.921414123282599
 30
0.0
  0
VERTEX
  5
475
  8
0
  6
CONTINUOUS
 62
     7
 10
109.26937641442829
 20
33.390488753000412
 30
0.0
  0
VERTEX
  5
476
  8
0
  6
CONTINUOUS
 62
     7
 10
114.60212597218521
 20
67.783230806825856
 30
0.0
  0
VERTEX
  5
477
  8
0
  6
CONTINUOUS
 62
     7
 10
34.0934529679771
 20
62.314158495998328
 30
0.0
  0
SEQEND
  5
478
  8
0
  6
CONTINUOUS
 62
     7
  0
ENDSEC
  0
EOF
