  0
SECTION
  2
HEADER
  9
$ACADVER
  1
AC1009
  9
$DWGCODEPAGE
  3
ansi_1252
  9
$INSBASE
 10
0.0
 20
0.0
 30
0.0
  9
$EXTMIN
 10
0.0
 20
0.0
 30
0.0
  9
$EXTMAX
 10
549.0
 20
579.0
 30
0.0
  9
$LIMMIN
 10
0.0
 20
0.0
  9
$LIMMAX
 10
12.0
 20
9.0
  9
$ORTHOMODE
 70
     0
  9
$REGENMODE
 70
     1
  9
$FILLMODE
 70
     1
  9
$QTEXTMODE
 70
     0
  9
$MIRRTEXT
 70
     1
  9
$DRAGMODE
 70
     2
  9
$LTSCALE
 40
1.0
  9
$OSMODE
 70
    37
  9
$ATTMODE
 70
     1
  9
$TEXTSIZE
 40
0.2
  9
$TRACEWID
 40
0.05
  9
$TEXTSTYLE
  7
STANDARD
  9
$CLAYER
  8
0
  9
$CELTYPE
  6
BYLAYER
  9
$CECOLOR
 62
   256
  9
$DIMSCALE
 40
1.0
  9
$DIMASZ
 40
0.18
  9
$DIMEXO
 40
0.0625
  9
$DIMDLI
 40
0.38
  9
$DIMRND
 40
0.0
  9
$DIMDLE
 40
0.0
  9
$DIMEXE
 40
0.18
  9
$DIMTP
 40
0.0
  9
$DIMTM
 40
0.0
  9
$DIMTXT
 40
0.18
  9
$DIMCEN
 40
0.09
  9
$DIMTSZ
 40
0.0
  9
$DIMTOL
 70
     0
  9
$DIMLIM
 70
     0
  9
$DIMTIH
 70
     1
  9
$DIMTOH
 70
     1
  9
$DIMSE1
 70
     0
  9
$DIMSE2
 70
     0
  9
$DIMTAD
 70
     0
  9
$DIMZIN
 70
     0
  9
$DIMBLK
  1

  9
$DIMASO
 70
     1
  9
$DIMSHO
 70
     1
  9
$DIMPOST
  1

  9
$DIMAPOST
  1

  9
$DIMALT
 70
     0
  9
$DIMALTD
 70
     2
  9
$DIMALTF
 40
25.4
  9
$DIMLFAC
 40
1.0
  9
$DIMTOFL
 70
     0
  9
$DIMTVP
 40
0.0
  9
$DIMTIX
 70
     0
  9
$DIMSOXD
 70
     0
  9
$DIMSAH
 70
     0
  9
$DIMBLK1
  1

  9
$DIMBLK2
  1

  9
$DIMSTYLE
  2
STANDARD
  9
$DIMCLRD
 70
     0
  9
$DIMCLRE
 70
     0
  9
$DIMCLRT
 70
     0
  9
$DIMTFAC
 40
1.0
  9
$DIMGAP
 40
0.09
  9
$LUNITS
 70
     2
  9
$LUPREC
 70
     4
  9
$SKETCHINC
 40
0.1
  9
$FILLETRAD
 40
0.5
  9
$AUNITS
 70
     0
  9
$AUPREC
 70
     0
  9
$MENU
  1
.
  9
$ELEVATION
 40
0.0
  9
$PELEVATION
 40
0.0
  9
$THICKNESS
 40
0.0
  9
$LIMCHECK
 70
     0
  9
$CHAMFERA
 40
0.5
  9
$CHAMFERB
 40
0.5
  9
$SKPOLY
 70
     0
  9
$TDCREATE
 40
2454910.5
  9
$TDUPDATE
 40
2457202.669520023
  9
$TDINDWG
 40
0.0000000116
  9
$TDUSRTIMER
 40
0.0000000116
  9
$USRTIMER
 70
     1
  9
$ANGBASE
 50
0.0
  9
$ANGDIR
 70
     0
  9
$PDMODE
 70
     0
  9
$PDSIZE
 40
0.0
  9
$PLINEWID
 40
0.0
  9
$COORDS
 70
     1
  9
$SPLFRAME
 70
     0
  9
$SPLINETYPE
 70
     6
  9
$SPLINESEGS
 70
     8
  9
$ATTDIA
 70
     0
  9
$ATTREQ
 70
     1
  9
$HANDLING
 70
     1
  9
$HANDSEED
  5
8E
  9
$SURFTAB1
 70
     6
  9
$SURFTAB2
 70
     6
  9
$SURFTYPE
 70
     6
  9
$SURFU
 70
     6
  9
$SURFV
 70
     6
  9
$UCSNAME
  2

  9
$UCSORG
 10
0.0
 20
0.0
 30
0.0
  9
$UCSXDIR
 10
1.0
 20
0.0
 30
0.0
  9
$UCSYDIR
 10
0.0
 20
1.0
 30
0.0
  9
$PUCSNAME
  2

  9
$PUCSORG
 10
0.0
 20
0.0
 30
0.0
  9
$PUCSXDIR
 10
1.0
 20
0.0
 30
0.0
  9
$PUCSYDIR
 10
0.0
 20
1.0
 30
0.0
  9
$USERI1
 70
     0
  9
$USERI2
 70
     0
  9
$USERI3
 70
     0
  9
$USERI4
 70
     0
  9
$USERI5
 70
     0
  9
$USERR1
 40
0.0
  9
$USERR2
 40
0.0
  9
$USERR3
 40
0.0
  9
$USERR4
 40
0.0
  9
$USERR5
 40
0.0
  9
$WORLDVIEW
 70
     1
  9
$SHADEDGE
 70
     3
  9
$SHADEDIF
 70
    70
  9
$TILEMODE
 70
     1
  9
$MAXACTVP
 70
    64
  9
$PLIMCHECK
 70
     0
  9
$PEXTMIN
 10
1.000000000000000E+20
 20
1.000000000000000E+20
 30
1.000000000000000E+20
  9
$PEXTMAX
 10
-1.000000000000000E+20
 20
-1.000000000000000E+20
 30
-1.000000000000000E+20
  9
$PLIMMIN
 10
0.0
 20
0.0
  9
$PLIMMAX
 10
12.0
 20
9.0
  9
$UNITMODE
 70
     0
  9
$VISRETAIN
 70
     1
  9
$PLINEGEN
 70
     0
  9
$PSLTSCALE
 70
     1
  0
ENDSEC
  0
SECTION
  2
TABLES
  0
TABLE
  2
VPORT
 70
     1
  0
VPORT
  2
*ACTIVE
 70
     0
 10
0.0
 20
0.0
 11
1.0
 21
1.0
 12
10.42990654205607
 22
4.5
 13
0.0
 23
0.0
 14
0.5
 24
0.5
 15
0.5
 25
0.5
 16
0.0
 26
0.0
 36
1.0
 17
0.0
 27
0.0
 37
0.0
 40
9.0
 41
1.972972972850329
 42
50.0
 43
0.0
 44
0.0
 50
0.0
 51
0.0
 71
     0
 72
   100
 73
     1
 74
     3
 75
     0
 76
     0
 77
     0
 78
     0
  0
ENDTAB
  0
TABLE
  2
LTYPE
 70
     2
  0
LTYPE
  2
CONTINUOUS
 70
     0
  3
Solid line
 72
    65
 73
     0
 40
0.0
  0
LTYPE
  2
CONTINUOUS2
 70
     0
  3
Solid Line
 72
    65
 73
     0
 40
0.0
  0
ENDTAB
  0
TABLE
  2
LAYER
 70
     2
  0
LAYER
  2
0
 70
     0
 62
     7
  6
CONTINUOUS
  0
LAYER
  2
DEFPOINTS
 70
     0
 62
    18
  6
CONTINUOUS
  0
ENDTAB
  0
TABLE
  2
STYLE
 70
     1
  0
STYLE
  2
STANDARD
 70
     0
 40
0.0
 41
1.0
 50
0.0
 71
     0
 42
0.2
  3
txt
  4

  0
ENDTAB
  0
TABLE
  2
VIEW
 70
     0
  0
ENDTAB
  0
TABLE
  2
UCS
 70
     0
  0
ENDTAB
  0
TABLE
  2
APPID
 70
     1
  0
APPID
  2
ACAD
 70
     0
  0
ENDTAB
  0
TABLE
  2
DIMSTYLE
 70
     1
  0
DIMSTYLE
  2
STANDARD
 70
     0
  3

  4

  5

  6

  7

 40
1.0
 41
0.18
 42
0.0625
 43
0.38
 44
0.18
 45
0.0
 46
0.0
 47
0.0
 48
0.0
140
0.18
141
0.09
142
0.0
143
25.4
144
1.0
145
0.0
146
1.0
147
0.09
 71
     0
 72
     0
 73
     1
 74
     1
 75
     0
 76
     0
 77
     0
 78
     0
170
     0
171
     2
172
     0
173
     0
174
     0
175
     0
176
     0
177
     0
178
     0
  0
ENDTAB
  0
ENDSEC
  0
SECTION
  2
BLOCKS
  0
BLOCK
  8
0
  2
$MODEL_SPACE
 70
     0
 10
0.0
 20
0.0
 30
0.0
  3
$MODEL_SPACE
  1

  0
ENDBLK
  5
21
  8
0
  0
BLOCK
 67
     1
  8
0
  2
$PAPER_SPACE
 70
     0
 10
0.0
 20
0.0
 30
0.0
  3
$PAPER_SPACE
  1

  0
ENDBLK
  5
1D
 67
     1
  8
0
  0
ENDSEC
  0
SECTION
  2
ENTITIES
  0
POLYLINE
  5
41
  8
DEFPOINTS
 66
     1
 10
0.0
 20
0.0
 30
0.0
 70
     1
  0
VERTEX
  5
47
  8
DEFPOINTS
 10
274.4999519907387
 20
579.0
 30
0.0
  0
VERTEX
  5
48
  8
DEFPOINTS
 10
291.1488731649879
 20
576.5146088261495
 30
0.0
  0
VERTEX
  5
49
  8
DEFPOINTS
 10
309.2681286356637
 20
569.16081602953
 30
0.0
  0
VERTEX
  5
4A
  8
DEFPOINTS
 10
328.5523745927949
 20
557.0921926980245
 30
0.0
  0
VERTEX
  5
4B
  8
DEFPOINTS
 10
348.6962672264135
 20
540.4623099195155
 30
0.0
  0
VERTEX
  5
4C
  8
DEFPOINTS
 10
369.3944627265519
 20
519.424738782237
 30
0.0
  0
VERTEX
  5
4D
  8
DEFPOINTS
 10
390.341617283244
 20
494.1330503736322
 30
0.0
  0
VERTEX
  5
4E
  8
DEFPOINTS
 10
411.2323870865166
 20
464.7408157821105
 30
0.0
  0
VERTEX
  5
4F
  8
DEFPOINTS
 10
431.7614283264093
 20
431.4016060952913
 30
0.0
  0
VERTEX
  5
50
  8
DEFPOINTS
 10
451.6233971929478
 20
394.2689924011452
 30
0.0
  0
VERTEX
  5
51
  8
DEFPOINTS
 10
470.5129498761653
 20
353.4965457875542
 30
0.0
  0
VERTEX
  5
52
  8
DEFPOINTS
 10
488.1247425660968
 20
309.237837342489
 30
0.0
  0
VERTEX
  5
53
  8
DEFPOINTS
 10
504.153431452768
 20
261.6464381538322
 30
0.0
  0
VERTEX
  5
54
  8
DEFPOINTS
 10
518.2936727262195
 20
210.8759193096416
 30
0.0
  0
VERTEX
  5
55
  8
DEFPOINTS
 10
530.2401225764734
 20
157.0798518975366
 30
0.0
  0
VERTEX
  5
56
  8
DEFPOINTS
 10
539.687437193571
 20
100.4118070056638
 30
0.0
  0
VERTEX
  5
57
  8
DEFPOINTS
 10
546.3302727675364
 20
41.02535572164106
 30
0.0
  0
VERTEX
  5
58
  8
DEFPOINTS
 10
549.0
 20
0.0
 30
0.0
  0
VERTEX
  5
59
  8
DEFPOINTS
 10
506.8712499132771
 20
0.0
 30
0.0
  0
VERTEX
  5
5A
  8
DEFPOINTS
 10
506.6681703705854
 20
44.09229437228714
 30
0.0
  0
VERTEX
  5
5B
  8
DEFPOINTS
 10
503.6257250847702
 20
106.4071295600197
 30
0.0
  0
VERTEX
  5
5C
  8
DEFPOINTS
 10
497.5033008522505
 20
164.1956934436503
 30
0.0
  0
VERTEX
  5
5D
  8
DEFPOINTS
 10
488.6332340655254
 20
217.5277994057628
 30
0.0
  0
VERTEX
  5
5E
  8
DEFPOINTS
 10
477.3478611170895
 20
266.4732608299078
 30
0.0
  0
VERTEX
  5
5F
  8
DEFPOINTS
 10
463.9795183994356
 20
311.1018910988446
 30
0.0
  0
VERTEX
  5
60
  8
DEFPOINTS
 10
448.8605423050631
 20
351.4835035957731
 30
0.0
  0
VERTEX
  5
61
  8
DEFPOINTS
 10
432.3232692264655
 20
387.6879117036283
 30
0.0
  0
VERTEX
  5
62
  8
DEFPOINTS
 10
414.7000355561377
 20
419.7849288054331
 30
0.0
  0
VERTEX
  5
63
  8
DEFPOINTS
 10
396.3231776865759
 20
447.8443682842999
 30
0.0
  0
VERTEX
  5
64
  8
DEFPOINTS
 10
377.5250320102768
 20
471.9360435232511
 30
0.0
  0
VERTEX
  5
65
  8
DEFPOINTS
 10
358.6379349197387
 20
492.129767905134
 30
0.0
  0
VERTEX
  5
66
  8
DEFPOINTS
 10
339.9942228074497
 20
508.4953548134126
 30
0.0
  0
VERTEX
  5
67
  8
DEFPOINTS
 10
321.9262320659091
 20
521.10261763067
 30
0.0
  0
VERTEX
  5
68
  8
DEFPOINTS
 10
304.7662990876152
 20
530.0213697403692
 30
0.0
  0
VERTEX
  5
69
  8
DEFPOINTS
 10
288.8467602650589
 20
535.3214245252698
 30
0.0
  0
VERTEX
  5
6A
  8
DEFPOINTS
 10
274.4999519907387
 20
537.072595368395
 30
0.0
  0
VERTEX
  5
6B
  8
DEFPOINTS
 10
260.1531260899637
 20
535.3214245252698
 30
0.0
  0
VERTEX
  5
6C
  8
DEFPOINTS
 10
244.2335042041796
 20
530.0213697403692
 30
0.0
  0
VERTEX
  5
6D
  8
DEFPOINTS
 10
227.0734314527072
 20
521.10261763067
 30
0.0
  0
VERTEX
  5
6E
  8
DEFPOINTS
 10
209.0052529548648
 20
508.4953548134126
 30
0.0
  0
VERTEX
  5
6F
  8
DEFPOINTS
 10
190.3613138299652
 20
492.129767905134
 30
0.0
  0
VERTEX
  5
70
  8
DEFPOINTS
 10
171.4739591973348
 20
471.9360435232511
 30
0.0
  0
VERTEX
  5
71
  8
DEFPOINTS
 10
152.6755341762919
 20
447.8443682842999
 30
0.0
  0
VERTEX
  5
72
  8
DEFPOINTS
 10
134.2983838861501
 20
419.7849288054331
 30
0.0
  0
VERTEX
  5
73
  8
DEFPOINTS
 10
116.6748534462322
 20
387.6879117036283
 30
0.0
  0
VERTEX
  5
74
  8
DEFPOINTS
 10
100.1372879758565
 20
351.4835035957731
 30
0.0
  0
VERTEX
  5
75
  8
DEFPOINTS
 10
85.01803259433655
 20
311.1018910988446
 30
0.0
  0
VERTEX
  5
76
  8
DEFPOINTS
 10
71.64943242099889
 20
266.4732608299078
 30
0.0
  0
VERTEX
  5
77
  8
DEFPOINTS
 10
60.36383257516172
 20
217.5277994057628
 30
0.0
  0
VERTEX
  5
78
  8
DEFPOINTS
 10
51.493578176136
 20
164.1956934436503
 30
0.0
  0
VERTEX
  5
79
  8
DEFPOINTS
 10
45.37101434324995
 20
106.4071295600197
 30
0.0
  0
VERTEX
  5
7A
  8
DEFPOINTS
 10
42.32848619581546
 20
44.09229437228714
 30
0.0
  0
VERTEX
  5
7B
  8
DEFPOINTS
 10
42.12539122944327
 20
0.0
 30
0.0
  0
VERTEX
  5
7C
  8
DEFPOINTS
 10
0.0
 20
0.0
 30
0.0
  0
VERTEX
  5
7D
  8
DEFPOINTS
 10
2.669347040156936
 20
41.02535572164106
 30
0.0
  0
VERTEX
  5
7E
  8
DEFPOINTS
 10
9.311665749060921
 20
100.4118070056638
 30
0.0
  0
VERTEX
  5
7F
  8
DEFPOINTS
 10
18.75853478454883
 20
157.0798518975366
 30
0.0
  0
VERTEX
  5
80
  8
DEFPOINTS
 10
30.7046103366547
 20
210.8759193096416
 30
0.0
  0
VERTEX
  5
81
  8
DEFPOINTS
 10
44.84454859540983
 20
261.6464381538322
 30
0.0
  0
VERTEX
  5
82
  8
DEFPOINTS
 10
60.87300575084464
 20
309.237837342489
 30
0.0
  0
VERTEX
  5
83
  8
DEFPOINTS
 10
78.4846379929977
 20
353.4965457875542
 30
0.0
  0
VERTEX
  5
84
  8
DEFPOINTS
 10
97.37410151188942
 20
394.2689924011452
 30
0.0
  0
VERTEX
  5
85
  8
DEFPOINTS
 10
117.2360524975593
 20
431.4016060952913
 30
0.0
  0
VERTEX
  5
86
  8
DEFPOINTS
 10
137.7651471400422
 20
464.7408157821105
 30
0.0
  0
VERTEX
  5
87
  8
DEFPOINTS
 10
158.6560416293632
 20
494.1330503736322
 30
0.0
  0
VERTEX
  5
88
  8
DEFPOINTS
 10
179.603392155559
 20
519.424738782237
 30
0.0
  0
VERTEX
  5
89
  8
DEFPOINTS
 10
200.3018549086564
 20
540.4623099195155
 30
0.0
  0
VERTEX
  5
8A
  8
DEFPOINTS
 10
220.4460860786921
 20
557.0921926979368
 30
0.0
  0
VERTEX
  5
8B
  8
DEFPOINTS
 10
239.7307418556984
 20
569.16081602953
 30
0.0
  0
VERTEX
  5
8C
  8
DEFPOINTS
 10
257.8504784297011
 20
576.5146088261495
 30
0.0
  0
SEQEND
  5
8D
  8
DEFPOINTS
  0
ENDSEC
  0
EOF
