  0
SECTION
  2
HEADER
  9
$ACADVER
  1
AC1009
  9
$INSBASE
 10
0.0
 20
0.0
 30
0.0
  9
$EXTMIN
 10
21.4535244521104
 20
22.764460985770029
 30
0.0
  9
$EXTMAX
 10
117.4535244521104
 20
70.764460985770029
 30
0.0
  9
$LIMMIN
 10
0.0
 20
0.0
  9
$LIMMAX
 10
12.0
 20
9.0
  9
$ORTHOMODE
 70
     0
  9
$REGENMODE
 70
     1
  9
$FILLMODE
 70
     1
  9
$QTEXTMODE
 70
     0
  9
$MIRRTEXT
 70
     0
  9
$DRAGMODE
 70
     2
  9
$LTSCALE
 40
1.0
  9
$OSMODE
 70
   431
  9
$ATTMODE
 70
     1
  9
$TEXTSIZE
 40
0.2
  9
$TRACEWID
 40
0.05
  9
$TEXTSTYLE
  7
STANDARD
  9
$CLAYER
  8
LAYOUT
  9
$CELTYPE
  6
BYLAYER
  9
$CECOLOR
 62
   256
  9
$DIMSCALE
 40
1.0
  9
$DIMASZ
 40
0.18
  9
$DIMEXO
 40
0.0625
  9
$DIMDLI
 40
0.38
  9
$DIMRND
 40
0.0
  9
$DIMDLE
 40
0.0
  9
$DIMEXE
 40
0.18
  9
$DIMTP
 40
0.0
  9
$DIMTM
 40
0.0
  9
$DIMTXT
 40
0.18
  9
$DIMCEN
 40
0.09
  9
$DIMTSZ
 40
0.0
  9
$DIMTOL
 70
     0
  9
$DIMLIM
 70
     0
  9
$DIMTIH
 70
     1
  9
$DIMTOH
 70
     1
  9
$DIMSE1
 70
     0
  9
$DIMSE2
 70
     0
  9
$DIMTAD
 70
     0
  9
$DIMZIN
 70
     0
  9
$DIMBLK
  1

  9
$DIMASO
 70
     1
  9
$DIMSHO
 70
     1
  9
$DIMPOST
  1

  9
$DIMAPOST
  1

  9
$DIMALT
 70
     0
  9
$DIMALTD
 70
     2
  9
$DIMALTF
 40
25.399999999999999
  9
$DIMLFAC
 40
1.0
  9
$DIMTOFL
 70
     0
  9
$DIMTVP
 40
0.0
  9
$DIMTIX
 70
     0
  9
$DIMSOXD
 70
     0
  9
$DIMSAH
 70
     0
  9
$DIMBLK1
  1

  9
$DIMBLK2
  1

  9
$DIMSTYLE
  2
STANDARD
  9
$DIMCLRD
 70
     0
  9
$DIMCLRE
 70
     0
  9
$DIMCLRT
 70
     0
  9
$DIMTFAC
 40
1.0
  9
$DIMGAP
 40
0.09
  9
$LUNITS
 70
     2
  9
$LUPREC
 70
     4
  9
$SKETCHINC
 40
0.1
  9
$FILLETRAD
 40
0.0
  9
$AUNITS
 70
     0
  9
$AUPREC
 70
     0
  9
$MENU
  1
.
  9
$ELEVATION
 40
0.0
  9
$PELEVATION
 40
0.0
  9
$THICKNESS
 40
0.0
  9
$LIMCHECK
 70
     0
  9
$BLIPMODE
 70
     0
  9
$CHAMFERA
 40
0.0
  9
$CHAMFERB
 40
0.0
  9
$SKPOLY
 70
     0
  9
$TDCREATE
 40
2457228.710916759
  9
$TDUPDATE
 40
2457228.716229294
  9
$TDINDWG
 40
0.0027244097
  9
$TDUSRTIMER
 40
0.0027243056
  9
$USRTIMER
 70
     1
  9
$ANGBASE
 50
0.0
  9
$ANGDIR
 70
     0
  9
$PDMODE
 70
    32
  9
$PDSIZE
 40
0.51
  9
$PLINEWID
 40
0.0
  9
$COORDS
 70
     1
  9
$SPLFRAME
 70
     0
  9
$SPLINETYPE
 70
     6
  9
$SPLINESEGS
 70
     8
  9
$ATTDIA
 70
     1
  9
$ATTREQ
 70
     1
  9
$HANDLING
 70
     1
  9
$HANDSEED
  5
378
  9
$SURFTAB1
 70
     6
  9
$SURFTAB2
 70
     6
  9
$SURFTYPE
 70
     6
  9
$SURFU
 70
     6
  9
$SURFV
 70
     6
  9
$UCSNAME
  2

  9
$UCSORG
 10
0.0
 20
0.0
 30
0.0
  9
$UCSXDIR
 10
1.0
 20
0.0
 30
0.0
  9
$UCSYDIR
 10
0.0
 20
1.0
 30
0.0
  9
$PUCSNAME
  2

  9
$PUCSORG
 10
0.0
 20
0.0
 30
0.0
  9
$PUCSXDIR
 10
1.0
 20
0.0
 30
0.0
  9
$PUCSYDIR
 10
0.0
 20
1.0
 30
0.0
  9
$USERI1
 70
     0
  9
$USERI2
 70
     0
  9
$USERI3
 70
     0
  9
$USERI4
 70
     0
  9
$USERI5
 70
     0
  9
$USERR1
 40
0.0
  9
$USERR2
 40
0.0
  9
$USERR3
 40
0.0
  9
$USERR4
 40
0.0
  9
$USERR5
 40
0.0
  9
$WORLDVIEW
 70
     1
  9
$SHADEDGE
 70
     3
  9
$SHADEDIF
 70
    70
  9
$TILEMODE
 70
     1
  9
$MAXACTVP
 70
    64
  9
$PLIMCHECK
 70
     0
  9
$PEXTMIN
 10
0.0
 20
0.0
 30
0.0
  9
$PEXTMAX
 10
0.0
 20
0.0
 30
0.0
  9
$PLIMMIN
 10
0.0
 20
0.0
  9
$PLIMMAX
 10
12.0
 20
9.0
  9
$UNITMODE
 70
     0
  9
$VISRETAIN
 70
     1
  9
$PLINEGEN
 70
     0
  9
$PSLTSCALE
 70
     1
  0
ENDSEC
  0
SECTION
  2
TABLES
  0
TABLE
  2
VPORT
 70
     1
  0
VPORT
  2
*ACTIVE
 70
     0
 10
0.0
 20
0.0
 11
1.0
 21
1.0
 12
239.69368631809471
 22
51.185933446426269
 13
0.0
 23
0.0
 14
0.5
 24
0.5
 15
0.5
 25
0.5
 16
0.0
 26
0.0
 36
1.0
 17
0.0
 27
0.0
 37
0.0
 40
507.52629690240968
 41
2.4535256410256401
 42
50.0
 43
0.0
 44
0.0
 50
0.0
 51
0.0
 71
     0
 72
  1000
 73
     1
 74
     3
 75
     0
 76
     1
 77
     0
 78
     0
  0
ENDTAB
  0
TABLE
  2
LTYPE
 70
     1
  0
LTYPE
  2
CONTINUOUS
 70
     0
  3
Solid line
 72
    65
 73
     0
 40
0.0
  0
ENDTAB
  0
TABLE
  2
LAYER
 70
     5
  0
LAYER
  2
0
 70
     0
 62
     7
  6
CONTINUOUS
  0
LAYER
  2
DRILLING
 70
     0
 62
     3
  6
CONTINUOUS
  0
LAYER
  2
ENGRAVE
 70
     0
 62
     4
  6
CONTINUOUS
  0
LAYER
  2
HALF_DRILL
 70
     0
 62
   200
  6
CONTINUOUS
  0
LAYER
  2
LAYOUT
 70
     0
 62
    10
  6
CONTINUOUS
  0
ENDTAB
  0
TABLE
  2
STYLE
 70
     2
  0
STYLE
  2
STANDARD
 70
     0
 40
0.0
 41
1.0
 50
0.0
 71
     0
 42
0.2
  3
txt
  4

  0
STYLE
  2
ANNOTATIVE
 70
     0
 40
0.0
 41
1.0
 50
0.0
 71
     0
 42
0.2
  3
txt
  4

  0
ENDTAB
  0
TABLE
  2
VIEW
 70
     0
  0
ENDTAB
  0
TABLE
  2
UCS
 70
     0
  0
ENDTAB
  0
TABLE
  2
APPID
 70
    11
  0
APPID
  2
ACAD
 70
     0
  0
APPID
  2
ACADANNOPO
 70
     0
  0
APPID
  2
ACADANNOTATIVE
 70
     0
  0
APPID
  2
ACAD_DSTYLE_DIMJAG
 70
     0
  0
APPID
  2
ACAD_DSTYLE_DIMTALN
 70
     0
  0
APPID
  2
ACAD_MLEADERVER
 70
     0
  0
APPID
  2
ACAD_NAV_VCDISPLAY
 70
     0
  0
APPID
  2
ACAECLAYERSTANDARD
 70
     0
  0
APPID
  2
ACCMTRANSPARENCY
 70
     0
  0
APPID
  2
ACAD_EXEMPT_FROM_CAD_STANDARDS
 70
     0
  0
APPID
  2
ACDBDYNAMICBLOCKTRUENAME2
 70
     0
  0
ENDTAB
  0
TABLE
  2
DIMSTYLE
 70
     2
  0
DIMSTYLE
  2
STANDARD
 70
     0
  3

  4

  5

  6

  7

 40
1.0
 41
0.18
 42
0.0625
 43
0.38
 44
0.18
 45
0.0
 46
0.0
 47
0.0
 48
0.0
140
0.18
141
0.09
142
0.0
143
25.399999999999999
144
1.0
145
0.0
146
1.0
147
0.09
 71
     0
 72
     0
 73
     1
 74
     1
 75
     0
 76
     0
 77
     0
 78
     0
170
     0
171
     2
172
     0
173
     0
174
     0
175
     0
176
     0
177
     0
178
     0
  0
DIMSTYLE
  2
ANNOTATIVE
 70
     0
  3

  4

  5

  6

  7

 40
0.0
 41
0.18
 42
0.0625
 43
0.38
 44
0.18
 45
0.0
 46
0.0
 47
0.0
 48
0.0
140
0.18
141
0.09
142
0.0
143
25.399999999999999
144
1.0
145
0.0
146
1.0
147
0.09
 71
     0
 72
     0
 73
     1
 74
     1
 75
     0
 76
     0
 77
     0
 78
     0
170
     0
171
     2
172
     0
173
     0
174
     0
175
     0
176
     0
177
     0
178
     0
  0
ENDTAB
  0
ENDSEC
  0
SECTION
  2
BLOCKS
  0
BLOCK
  8
0
  2
$MODEL_SPACE
 70
     0
 10
0.0
 20
0.0
 30
0.0
  3
$MODEL_SPACE
  1

  0
ENDBLK
  5
21
  8
0
  0
BLOCK
 67
     1
  8
0
  2
$PAPER_SPACE
 70
     0
 10
0.0
 20
0.0
 30
0.0
  3
$PAPER_SPACE
  1

  0
ENDBLK
  5
5B
 67
     1
  8
0
  0
BLOCK
  8
0
  2
*U1
 70
     1
 10
0.0
 20
0.0
 30
0.0
  3
*U1
  1

  0
POINT
  5
1DD
  8
ENGRAVE
 10
0.0
 20
0.0
 30
0.0
  0
ENDBLK
  5
1DE
  8
0
  0
BLOCK
  8
0
  2
*U3
 70
     1
 10
0.0
 20
0.0
 30
0.0
  3
*U3
  1

  0
POINT
  5
1EB
  8
ENGRAVE
 10
0.0
 20
0.0
 30
0.0
  0
ENDBLK
  5
1EC
  8
0
  0
BLOCK
  8
0
  2
*U5
 70
     1
 10
0.0
 20
0.0
 30
0.0
  3
*U5
  1

  0
POINT
  5
1F9
  8
ENGRAVE
 10
0.0
 20
0.0
 30
0.0
  0
ENDBLK
  5
1FA
  8
0
  0
BLOCK
  8
0
  2
*U7
 70
     1
 10
0.0
 20
0.0
 30
0.0
  3
*U7
  1

  0
POINT
  5
207
  8
ENGRAVE
 10
0.0
 20
0.0
 30
0.0
  0
ENDBLK
  5
208
  8
0
  0
BLOCK
  8
0
  2
*U9
 70
     1
 10
0.0
 20
0.0
 30
0.0
  3
*U9
  1

  0
POINT
  5
215
  8
HALF_DRILL
 10
0.0
 20
0.0
 30
0.0
  0
ENDBLK
  5
216
  8
0
  0
BLOCK
  8
0
  2
*U11
 70
     1
 10
0.0
 20
0.0
 30
0.0
  3
*U11
  1

  0
INSERT
  5
27E
  8
ENGRAVE
  6
BYBLOCK
 62
     0
  2
*U20
 10
0.0
 20
0.0
 30
0.0
  0
INSERT
  5
27F
  8
ENGRAVE
  6
BYBLOCK
 62
     0
  2
*U20
 10
-4.0
 20
0.0
 30
0.0
  0
INSERT
  5
280
  8
ENGRAVE
  6
BYBLOCK
 62
     0
  2
*U20
 10
-8.0
 20
0.0
 30
0.0
  0
INSERT
  5
281
  8
ENGRAVE
  6
BYBLOCK
 62
     0
  2
*U20
 10
-12.0
 20
0.0
 30
0.0
  0
INSERT
  5
282
  8
ENGRAVE
  6
BYBLOCK
 62
     0
  2
*U20
 10
-16.0
 20
0.0
 30
0.0
  0
INSERT
  5
283
  8
ENGRAVE
  6
BYBLOCK
 62
     0
  2
*U20
 10
-20.0
 20
0.0
 30
0.0
  0
INSERT
  5
284
  8
ENGRAVE
  6
BYBLOCK
 62
     0
  2
*U20
 10
-24.0
 20
0.0
 30
0.0
  0
ENDBLK
  5
285
  8
0
  0
BLOCK
  8
0
  2
*U12
 70
     1
 10
0.0
 20
0.0
 30
0.0
  3
*U12
  1

  0
POINT
  5
28A
  8
ENGRAVE
 10
0.0
 20
0.0
 30
0.0
  0
ENDBLK
  5
28B
  8
0
  0
BLOCK
  8
0
  2
*U13
 70
     1
 10
0.0
 20
0.0
 30
0.0
  3
*U13
  1

  0
INSERT
  5
28E
  8
ENGRAVE
  6
BYBLOCK
 62
     0
  2
*U12
 10
0.0
 20
0.0
 30
0.0
  0
INSERT
  5
28F
  8
ENGRAVE
  6
BYBLOCK
 62
     0
  2
*U12
 10
-4.0
 20
0.0
 30
0.0
  0
INSERT
  5
290
  8
ENGRAVE
  6
BYBLOCK
 62
     0
  2
*U12
 10
-8.0
 20
0.0
 30
0.0
  0
INSERT
  5
291
  8
ENGRAVE
  6
BYBLOCK
 62
     0
  2
*U12
 10
-12.0
 20
0.0
 30
0.0
  0
INSERT
  5
292
  8
ENGRAVE
  6
BYBLOCK
 62
     0
  2
*U12
 10
-16.0
 20
0.0
 30
0.0
  0
INSERT
  5
293
  8
ENGRAVE
  6
BYBLOCK
 62
     0
  2
*U12
 10
-20.0
 20
0.0
 30
0.0
  0
INSERT
  5
294
  8
ENGRAVE
  6
BYBLOCK
 62
     0
  2
*U12
 10
-24.0
 20
0.0
 30
0.0
  0
ENDBLK
  5
295
  8
0
  0
BLOCK
  8
0
  2
*U14
 70
     1
 10
0.0
 20
0.0
 30
0.0
  3
*U14
  1

  0
POINT
  5
298
  8
HALF_DRILL
 10
0.0
 20
0.0
 30
0.0
  0
ENDBLK
  5
299
  8
0
  0
BLOCK
  8
0
  2
*U15
 70
     1
 10
0.0
 20
0.0
 30
0.0
  3
*U15
  1

  0
INSERT
  5
29C
  8
HALF_DRILL
  6
BYBLOCK
 62
     0
  2
*U14
 10
0.0
 20
0.0
 30
0.0
  0
INSERT
  5
29D
  8
HALF_DRILL
  6
BYBLOCK
 62
     0
  2
*U14
 10
-10.0
 20
0.0
 30
0.0
  0
INSERT
  5
29E
  8
HALF_DRILL
  6
BYBLOCK
 62
     0
  2
*U14
 10
-20.0
 20
0.0
 30
0.0
  0
INSERT
  5
29F
  8
HALF_DRILL
  6
BYBLOCK
 62
     0
  2
*U14
 10
-30.0
 20
0.0
 30
0.0
  0
ENDBLK
  5
2A0
  8
0
  0
BLOCK
  8
0
  2
*U16
 70
     1
 10
0.0
 20
0.0
 30
0.0
  3
*U16
  1

  0
POINT
  5
2CB
  8
ENGRAVE
 10
0.0
 20
0.0
 30
0.0
  0
ENDBLK
  5
2CC
  8
0
  0
BLOCK
  8
0
  2
*U17
 70
     1
 10
0.0
 20
0.0
 30
0.0
  3
*U17
  1

  0
INSERT
  5
2CF
  8
ENGRAVE
  6
BYBLOCK
 62
     0
  2
*U16
 10
0.0
 20
0.0
 30
0.0
  0
INSERT
  5
2D0
  8
ENGRAVE
  6
BYBLOCK
 62
     0
  2
*U16
 10
-4.0
 20
0.0
 30
0.0
  0
INSERT
  5
2D1
  8
ENGRAVE
  6
BYBLOCK
 62
     0
  2
*U16
 10
-8.0
 20
0.0
 30
0.0
  0
INSERT
  5
2D2
  8
ENGRAVE
  6
BYBLOCK
 62
     0
  2
*U16
 10
-12.0
 20
0.0
 30
0.0
  0
INSERT
  5
2D3
  8
ENGRAVE
  6
BYBLOCK
 62
     0
  2
*U16
 10
-16.0
 20
0.0
 30
0.0
  0
INSERT
  5
2D4
  8
ENGRAVE
  6
BYBLOCK
 62
     0
  2
*U16
 10
-20.0
 20
0.0
 30
0.0
  0
INSERT
  5
2D5
  8
ENGRAVE
  6
BYBLOCK
 62
     0
  2
*U16
 10
-24.0
 20
0.0
 30
0.0
  0
ENDBLK
  5
2D6
  8
0
  0
BLOCK
  8
0
  2
*U18
 70
     1
 10
0.0
 20
0.0
 30
0.0
  3
*U18
  1

  0
POINT
  5
2D9
  8
ENGRAVE
 10
0.0
 20
0.0
 30
0.0
  0
ENDBLK
  5
2DA
  8
0
  0
BLOCK
  8
0
  2
*U19
 70
     1
 10
0.0
 20
0.0
 30
0.0
  3
*U19
  1

  0
INSERT
  5
2DD
  8
ENGRAVE
  6
BYBLOCK
 62
     0
  2
*U18
 10
0.0
 20
0.0
 30
0.0
  0
INSERT
  5
2DE
  8
ENGRAVE
  6
BYBLOCK
 62
     0
  2
*U18
 10
-4.0
 20
0.0
 30
0.0
  0
INSERT
  5
2DF
  8
ENGRAVE
  6
BYBLOCK
 62
     0
  2
*U18
 10
-8.0
 20
0.0
 30
0.0
  0
INSERT
  5
2E0
  8
ENGRAVE
  6
BYBLOCK
 62
     0
  2
*U18
 10
-12.0
 20
0.0
 30
0.0
  0
INSERT
  5
2E1
  8
ENGRAVE
  6
BYBLOCK
 62
     0
  2
*U18
 10
-16.0
 20
0.0
 30
0.0
  0
INSERT
  5
2E2
  8
ENGRAVE
  6
BYBLOCK
 62
     0
  2
*U18
 10
-20.0
 20
0.0
 30
0.0
  0
INSERT
  5
2E3
  8
ENGRAVE
  6
BYBLOCK
 62
     0
  2
*U18
 10
-24.0
 20
0.0
 30
0.0
  0
ENDBLK
  5
2E4
  8
0
  0
BLOCK
  8
0
  2
*U20
 70
     1
 10
0.0
 20
0.0
 30
0.0
  3
*U20
  1

  0
POINT
  5
2E7
  8
ENGRAVE
 10
0.0
 20
0.0
 30
0.0
  0
ENDBLK
  5
2E8
  8
0
  0
ENDSEC
  0
SECTION
  2
ENTITIES
  0
CIRCLE
  5
26A
  8
DRILLING
 10
100.59574014279841
 20
51.538761651739279
 30
0.0
 40
0.3224999999999999
  0
CIRCLE
  5
26B
  8
DRILLING
 10
106.5618457897985
 20
50.90190734435464
 30
0.0
 40
0.3224999999999999
  0
CIRCLE
  5
26C
  8
DRILLING
 10
94.629634495798484
 20
52.175615959123903
 30
0.0
 40
0.3224999999999999
  0
CIRCLE
  5
26D
  8
DRILLING
 10
102.6097062407397
 20
38.378117053432391
 30
0.0
 40
0.3224999999999999
  0
CIRCLE
  5
26E
  8
DRILLING
 10
108.5758118877396
 20
37.741262746046807
 30
0.0
 40
0.3224999999999999
  0
CIRCLE
  5
26F
  8
DRILLING
 10
96.643600593739762
 20
39.014971360817491
 30
0.0
 40
0.3224999999999999
  0
CIRCLE
  5
270
  8
DRILLING
 10
32.026802232874843
 20
56.349267426374077
 30
0.0
 40
0.3224999999999998
  0
CIRCLE
  5
271
  8
DRILLING
 10
38.0267963943772
 20
56.357637727278828
 30
0.0
 40
0.3224999999999998
  0
CIRCLE
  5
272
  8
DRILLING
 10
44.026790555879572
 20
56.366008028183138
 30
0.0
 40
0.3224999999999998
  0
CIRCLE
  5
273
  8
DRILLING
 10
34.045856490801953
 20
43.155373278681729
 30
0.0
 40
0.3224999999999998
  0
CIRCLE
  5
274
  8
DRILLING
 10
40.045850652304289
 20
43.163743579585102
 30
0.0
 40
0.3224999999999998
  0
CIRCLE
  5
275
  8
DRILLING
 10
46.045844813806653
 20
43.172113880489412
 30
0.0
 40
0.3224999999999998
  0
INSERT
  5
276
  8
ENGRAVE
  2
*U17
 10
49.68732021947028
 20
61.895547993401053
 30
0.0
 41
-1.0
 50
278.70044445881672
  0
INSERT
  5
277
  8
ENGRAVE
  2
*U19
 10
60.667423809279512
 20
61.127829945452149
 30
0.0
 41
-1.0
 50
278.70044445881672
  0
INSERT
  5
278
  8
ENGRAVE
  2
*U11
 10
77.028744442065573
 20
59.983862492382777
 30
0.0
 41
-1.0
 50
278.70044445881672
  0
INSERT
  5
279
  8
ENGRAVE
  2
*U13
 10
86.815334664112413
 20
59.2995937257093
 30
0.0
 41
-1.0
 50
278.70044445881672
  0
INSERT
  5
27A
  8
HALF_DRILL
  2
*U15
 10
67.953450735140621
 20
62.171110511756453
 30
0.0
 41
-1.0
 50
278.70044445881672
  0
POLYLINE
  5
27B
  8
0
  6
CONTINUOUS
 62
     7
 66
     1
 10
0.0
 20
0.0
 30
0.0
 70
     1
  0
VERTEX
  5
35A
  8
0
  6
CONTINUOUS
 62
     7
 10
27.4020650026468
 20
66.962255868727212
 30
0.0
  0
VERTEX
  5
35B
  8
0
  6
CONTINUOUS
 62
     7
 10
107.8997623589877
 20
61.333936010601668
 30
0.0
  0
VERTEX
  5
35C
  8
0
  6
CONTINUOUS
 62
     7
 10
113.1644684647145
 20
26.930712419678521
 30
0.0
  0
VERTEX
  5
35D
  8
0
  6
CONTINUOUS
 62
     7
 10
32.666771463340268
 20
32.559029958207027
 30
0.0
  0
SEQEND
  5
35E
  8
0
  6
CONTINUOUS
 62
     7
  0
POLYLINE
  5
2EE
  8
LAYOUT
 66
     1
 10
0.0
 20
0.0
 30
0.0
 70
     1
  0
VERTEX
  5
36E
  8
LAYOUT
 10
21.4535244521104
 20
22.764460985770029
 30
0.0
  0
VERTEX
  5
36F
  8
LAYOUT
 10
117.4535244521104
 20
22.764460985770029
 30
0.0
  0
VERTEX
  5
370
  8
LAYOUT
 10
117.4535244521104
 20
70.764460985770029
 30
0.0
  0
VERTEX
  5
371
  8
LAYOUT
 10
21.4535244521104
 20
70.764460985770029
 30
0.0
  0
SEQEND
  5
372
  8
LAYOUT
  0
POLYLINE
  5
2F6
  8
LAYOUT
 66
     1
 10
0.0
 20
0.0
 30
0.0
 70
     1
  0
VERTEX
  5
373
  8
LAYOUT
 10
22.4535244521104
 20
23.764460985770029
 30
0.0
  0
VERTEX
  5
374
  8
LAYOUT
 10
116.4535244521104
 20
23.764460985770029
 30
0.0
  0
VERTEX
  5
375
  8
LAYOUT
 10
116.4535244521104
 20
69.764460985770029
 30
0.0
  0
VERTEX
  5
376
  8
LAYOUT
 10
22.4535244521104
 20
69.764460985770029
 30
0.0
  0
SEQEND
  5
377
  8
LAYOUT
  0
ENDSEC
  0
EOF
