                                                                        S      1
1H,,1H;,55H/Users/jazztigan/Documents/temple/simpleCube_10foot.igs,55H/UG      1
sers/jazztigan/Documents/temple/simpleCube_10foot.igs,23HHarmonyWare TraG      2
nslators,23HHarmonyWare IGES v1.9.7,32,38,6,308,15,,1.,6,1HM,1,1.,15H201G      3
50521.134521,1.D-6,4.97865399352074,,,11,0,15H20150521.134521;          G      4
     502       1       0       0       0       0       0       000010000D      1
     502       0       0       3       1                               0D      2
     126       4       0       0       0       0       0       000010000D      3
     126       0       0       2       0                               0D      4
     126       6       0       0       0       0       0       000010000D      5
     126       0       0       2       0                               0D      6
     126       8       0       0       0       0       0       000010000D      7
     126       0       0       2       0                               0D      8
     126      10       0       0       0       0       0       000010000D      9
     126       0       0       2       0                               0D     10
     126      12       0       0       0       0       0       000010000D     11
     126       0       0       2       0                               0D     12
     126      14       0       0       0       0       0       000010000D     13
     126       0       0       2       0                               0D     14
     126      16       0       0       0       0       0       000010000D     15
     126       0       0       2       0                               0D     16
     126      18       0       0       0       0       0       000010000D     17
     126       0       0       2       0                               0D     18
     126      20       0       0       0       0       0       000010000D     19
     126       0       0       2       0                               0D     20
     126      22       0       0       0       0       0       000010000D     21
     126       0       0       2       0                               0D     22
     126      24       0       0       0       0       0       000010000D     23
     126       0       0       2       0                               0D     24
     126      26       0       0       0       0       0       000010000D     25
     126       0       0       2       0                               0D     26
     504      28       0       0       0       0       0       000010000D     27
     504       0       0       3       1                               0D     28
     128      31       0       0       0       0       0       000010000D     29
     128       0       0       5       0                               0D     30
     508      36       0       0       0       0       0       000010000D     31
     508       0       0       1       1                               0D     32
     510      37       0       0       0       0       0       000010000D     33
     510       0       0       1       1                               0D     34
     128      38       0       0       0       0       0       000010000D     35
     128       0       0       5       0                               0D     36
     508      43       0       0       0       0       0       000010000D     37
     508       0       0       1       1                               0D     38
     510      44       0       0       0       0       0       000010000D     39
     510       0       0       1       1                               0D     40
     128      45       0       0       0       0       0       000010000D     41
     128       0       0       4       0                               0D     42
     508      49       0       0       0       0       0       000010000D     43
     508       0       0       1       1                               0D     44
     510      50       0       0       0       0       0       000010000D     45
     510       0       0       1       1                               0D     46
     128      51       0       0       0       0       0       000010000D     47
     128       0       0       4       0                               0D     48
     508      55       0       0       0       0       0       000010000D     49
     508       0       0       1       1                               0D     50
     510      56       0       0       0       0       0       000010000D     51
     510       0       0       1       1                               0D     52
     128      57       0       0       0       0       0       000010000D     53
     128       0       0       4       0                               0D     54
     508      61       0       0       0       0       0       000010000D     55
     508       0       0       1       1                               0D     56
     510      62       0       0       0       0       0       000010000D     57
     510       0       0       1       1                               0D     58
     128      63       0       0       0       0       0       000010000D     59
     128       0       0       4       0                               0D     60
     508      67       0       0       0       0       0       000010000D     61
     508       0       0       1       1                               0D     62
     510      68       0       0       0       0       0       000010000D     63
     510       0       0       1       1                               0D     64
     514      69       0       0       0       0       0       000010000D     65
     514       0       0       1       1                               0D     66
     186      70       0       0       0       0       0       000010000D     67
     186       0       0       1       0                               0D     68
     308      71       0       0       0       0       0       000010000D     69
     308       0       0       1       0                               0D     70
     124      72       0       0       0       0       0       000000000D     71
     124       0       0       1       0                               0D     72
     408      73       0       0       0       0      71       000000000D     73
     408       0       0       1       0                               0D     74
502,8,-1.524,-1.524,1.524,-1.524,-1.524,-1.524,1.524,-1.524,           1P      1
-1.524,1.524,-1.524,1.524,-1.524,1.524,1.524,-1.524,1.524,             1P      2
-1.524,1.524,1.524,-1.524,1.524,1.524,1.524;                           1P      3
126,1,1,0,0,1,0,0.,0.,1.,1.,1.,1.,-1.524,-1.524,1.524,-1.524,          3P      4
-1.524,-1.524,0.,1.,0.,0.,0.;                                          3P      5
126,1,1,0,0,1,0,0.,0.,1.,1.,1.,1.,-1.524,-1.524,-1.524,1.524,          5P      6
-1.524,-1.524,0.,1.,0.,0.,0.;                                          5P      7
126,1,1,0,0,1,0,0.,0.,1.,1.,1.,1.,1.524,-1.524,-1.524,1.524,           7P      8
-1.524,1.524,0.,1.,0.,0.,0.;                                           7P      9
126,1,1,0,0,1,0,0.,0.,1.,1.,1.,1.,1.524,-1.524,1.524,-1.524,           9P     10
-1.524,1.524,0.,1.,0.,0.,0.;                                           9P     11
126,1,1,0,0,1,0,0.,0.,1.,1.,1.,1.,-1.524,-1.524,1.524,-1.524,         11P     12
1.524,1.524,0.,1.,0.,0.,0.;                                           11P     13
126,1,1,0,0,1,0,0.,0.,1.,1.,1.,1.,-1.524,1.524,1.524,-1.524,          13P     14
1.524,-1.524,0.,1.,0.,0.,0.;                                          13P     15
126,1,1,0,0,1,0,0.,0.,1.,1.,1.,1.,-1.524,1.524,-1.524,-1.524,         15P     16
-1.524,-1.524,0.,1.,0.,0.,0.;                                         15P     17
126,1,1,0,0,1,0,0.,0.,1.,1.,1.,1.,1.524,1.524,-1.524,-1.524,          17P     18
1.524,-1.524,0.,1.,0.,0.,0.;                                          17P     19
126,1,1,0,0,1,0,0.,0.,1.,1.,1.,1.,1.524,1.524,-1.524,1.524,           19P     20
-1.524,-1.524,0.,1.,0.,0.,0.;                                         19P     21
126,1,1,0,0,1,0,0.,0.,1.,1.,1.,1.,1.524,1.524,1.524,1.524,            21P     22
-1.524,1.524,0.,1.,0.,0.,0.;                                          21P     23
126,1,1,0,0,1,0,0.,0.,1.,1.,1.,1.,1.524,1.524,1.524,-1.524,           23P     24
1.524,1.524,0.,1.,0.,0.,0.;                                           23P     25
126,1,1,0,0,1,0,0.,0.,1.,1.,1.,1.,1.524,1.524,-1.524,1.524,           25P     26
1.524,1.524,0.,1.,0.,0.,0.;                                           25P     27
504,12,3,1,1,1,2,5,1,2,1,3,7,1,3,1,4,9,1,4,1,1,11,1,1,1,5,13,1,       27P     28
5,1,6,15,1,6,1,2,17,1,7,1,6,19,1,7,1,3,21,1,8,1,4,23,1,8,1,5,25,      27P     29
1,7,1,8;                                                              27P     30
128,1,1,1,1,0,0,1,0,0,0.,0.,1.,1.,0.,0.,1.,1.,1.,1.,1.,1.,            29P     31
4.52604908501885,-1.524,-4.52604908501885,4.52604908501885,           29P     32
-1.524,4.52604908501885,-4.52604908501885,-1.524,                     29P     33
-4.52604908501885,-4.52604908501885,-1.524,4.52604908501885,0.,       29P     34
1.,0.,1.;                                                             29P     35
508,4,0,27,1,1,0,0,27,2,1,0,0,27,3,1,0,0,27,4,1,0;                    31P     36
510,29,1,1,31;                                                        33P     37
128,1,1,1,1,0,0,1,0,0,0.,0.,1.,1.,0.,0.,1.,1.,1.,1.,1.,1.,            35P     38
-1.524,-4.52604908501885,4.52604908501885,-1.524,                     35P     39
4.52604908501885,4.52604908501885,-1.524,-4.52604908501885,           35P     40
-4.52604908501885,-1.524,4.52604908501885,-4.52604908501885,0.,       35P     41
1.,0.,1.;                                                             35P     42
508,4,0,27,5,1,0,0,27,6,1,0,0,27,7,1,0,0,27,1,0,0;                    37P     43
510,35,1,1,37;                                                        39P     44
128,1,1,1,1,0,0,1,0,0,0.,0.,1.,1.,0.,0.,1.,1.,1.,1.,1.,1.,            41P     45
-4.52604908501885,-4.52604908501885,-1.524,-4.52604908501885,         41P     46
4.52604908501885,-1.524,4.52604908501885,-4.52604908501885,           41P     47
-1.524,4.52604908501885,4.52604908501885,-1.524,0.,1.,0.,1.;          41P     48
508,4,0,27,7,0,0,0,27,8,0,0,0,27,9,1,0,0,27,2,0,0;                    43P     49
510,41,1,1,43;                                                        45P     50
128,1,1,1,1,0,0,1,0,0,0.,0.,1.,1.,0.,0.,1.,1.,1.,1.,1.,1.,            47P     51
4.52604908501885,-4.52604908501885,1.524,4.52604908501885,            47P     52
4.52604908501885,1.524,-4.52604908501885,-4.52604908501885,           47P     53
1.524,-4.52604908501885,4.52604908501885,1.524,0.,1.,0.,1.;           47P     54
508,4,0,27,10,0,0,0,27,11,1,0,0,27,5,0,0,0,27,4,0,0;                  49P     55
510,47,1,1,49;                                                        51P     56
128,1,1,1,1,0,0,1,0,0,0.,0.,1.,1.,0.,0.,1.,1.,1.,1.,1.,1.,1.524,      53P     57
-4.52604908501885,-4.52604908501885,1.524,4.52604908501885,           53P     58
-4.52604908501885,1.524,-4.52604908501885,4.52604908501885,           53P     59
1.524,4.52604908501885,4.52604908501885,0.,1.,0.,1.;                  53P     60
508,4,0,27,9,0,0,0,27,12,1,0,0,27,10,1,0,0,27,3,0,0;                  55P     61
510,53,1,1,55;                                                        57P     62
128,1,1,1,1,0,0,1,0,0,0.,0.,1.,1.,0.,0.,1.,1.,1.,1.,1.,1.,            59P     63
-4.52604908501885,1.524,-4.52604908501885,-4.52604908501885,          59P     64
1.524,4.52604908501885,4.52604908501885,1.524,-4.52604908501885,      59P     65
4.52604908501885,1.524,4.52604908501885,0.,1.,0.,1.;                  59P     66
508,4,0,27,8,1,0,0,27,6,0,0,0,27,11,0,0,0,27,12,0,0;                  61P     67
510,59,1,1,61;                                                        63P     68
514,6,33,1,39,1,45,1,51,1,57,1,63,1;                                  65P     69
186,65,0,0;                                                           67P     70
308,0,,1,67;                                                          69P     71
124,1.,0.,0.,0.,0.,1.,0.,0.,0.,0.,1.,0.;                              71P     72
408,69,0.,0.,0.,1.;                                                   73P     73
S      1G      4D     74P     73                                        T      1
