  0
SECTION
  2
HEADER
  9
$ACADVER
  1
AC1009
  9
$INSBASE
 10
0.0
 20
0.0
 30
0.0
  9
$EXTMIN
 10
89.146128059043008
 20
25.900269726998211
 30
0.0
  9
$EXTMAX
 10
185.14612805904301
 20
73.900269726998204
 30
0.0
  9
$LIMMIN
 10
0.0
 20
0.0
  9
$LIMMAX
 10
12.0
 20
9.0
  9
$ORTHOMODE
 70
     0
  9
$REGENMODE
 70
     1
  9
$FILLMODE
 70
     1
  9
$QTEXTMODE
 70
     0
  9
$MIRRTEXT
 70
     0
  9
$DRAGMODE
 70
     2
  9
$LTSCALE
 40
1.0
  9
$OSMODE
 70
   431
  9
$ATTMODE
 70
     1
  9
$TEXTSIZE
 40
0.2
  9
$TRACEWID
 40
0.05
  9
$TEXTSTYLE
  7
STANDARD
  9
$CLAYER
  8
DRILL
  9
$CELTYPE
  6
BYLAYER
  9
$CECOLOR
 62
   256
  9
$DIMSCALE
 40
1.0
  9
$DIMASZ
 40
0.18
  9
$DIMEXO
 40
0.0625
  9
$DIMDLI
 40
0.38
  9
$DIMRND
 40
0.0
  9
$DIMDLE
 40
0.0
  9
$DIMEXE
 40
0.18
  9
$DIMTP
 40
0.0
  9
$DIMTM
 40
0.0
  9
$DIMTXT
 40
0.18
  9
$DIMCEN
 40
0.09
  9
$DIMTSZ
 40
0.0
  9
$DIMTOL
 70
     0
  9
$DIMLIM
 70
     0
  9
$DIMTIH
 70
     1
  9
$DIMTOH
 70
     1
  9
$DIMSE1
 70
     0
  9
$DIMSE2
 70
     0
  9
$DIMTAD
 70
     0
  9
$DIMZIN
 70
     0
  9
$DIMBLK
  1

  9
$DIMASO
 70
     1
  9
$DIMSHO
 70
     1
  9
$DIMPOST
  1

  9
$DIMAPOST
  1

  9
$DIMALT
 70
     0
  9
$DIMALTD
 70
     2
  9
$DIMALTF
 40
25.399999999999999
  9
$DIMLFAC
 40
1.0
  9
$DIMTOFL
 70
     0
  9
$DIMTVP
 40
0.0
  9
$DIMTIX
 70
     0
  9
$DIMSOXD
 70
     0
  9
$DIMSAH
 70
     0
  9
$DIMBLK1
  1

  9
$DIMBLK2
  1

  9
$DIMSTYLE
  2
STANDARD
  9
$DIMCLRD
 70
     0
  9
$DIMCLRE
 70
     0
  9
$DIMCLRT
 70
     0
  9
$DIMTFAC
 40
1.0
  9
$DIMGAP
 40
0.09
  9
$LUNITS
 70
     2
  9
$LUPREC
 70
     4
  9
$SKETCHINC
 40
0.1
  9
$FILLETRAD
 40
0.0
  9
$AUNITS
 70
     0
  9
$AUPREC
 70
     0
  9
$MENU
  1
.
  9
$ELEVATION
 40
0.0
  9
$PELEVATION
 40
0.0
  9
$THICKNESS
 40
0.0
  9
$LIMCHECK
 70
     0
  9
$BLIPMODE
 70
     0
  9
$CHAMFERA
 40
0.0
  9
$CHAMFERB
 40
0.0
  9
$SKPOLY
 70
     0
  9
$TDCREATE
 40
2457228.6482916442
  9
$TDUPDATE
 40
2457228.6767431018
  9
$TDINDWG
 40
0.0148135417
  9
$TDUSRTIMER
 40
0.0148135185
  9
$USRTIMER
 70
     1
  9
$ANGBASE
 50
0.0
  9
$ANGDIR
 70
     0
  9
$PDMODE
 70
    32
  9
$PDSIZE
 40
0.6450000000000001
  9
$PLINEWID
 40
0.0
  9
$COORDS
 70
     1
  9
$SPLFRAME
 70
     0
  9
$SPLINETYPE
 70
     6
  9
$SPLINESEGS
 70
     8
  9
$ATTDIA
 70
     1
  9
$ATTREQ
 70
     1
  9
$HANDLING
 70
     1
  9
$HANDSEED
  5
456
  9
$SURFTAB1
 70
     6
  9
$SURFTAB2
 70
     6
  9
$SURFTYPE
 70
     6
  9
$SURFU
 70
     6
  9
$SURFV
 70
     6
  9
$UCSNAME
  2

  9
$UCSORG
 10
0.0
 20
0.0
 30
0.0
  9
$UCSXDIR
 10
1.0
 20
0.0
 30
0.0
  9
$UCSYDIR
 10
0.0
 20
1.0
 30
0.0
  9
$PUCSNAME
  2

  9
$PUCSORG
 10
0.0
 20
0.0
 30
0.0
  9
$PUCSXDIR
 10
1.0
 20
0.0
 30
0.0
  9
$PUCSYDIR
 10
0.0
 20
1.0
 30
0.0
  9
$USERI1
 70
     0
  9
$USERI2
 70
     0
  9
$USERI3
 70
     0
  9
$USERI4
 70
     0
  9
$USERI5
 70
     0
  9
$USERR1
 40
0.0
  9
$USERR2
 40
0.0
  9
$USERR3
 40
0.0
  9
$USERR4
 40
0.0
  9
$USERR5
 40
0.0
  9
$WORLDVIEW
 70
     1
  9
$SHADEDGE
 70
     3
  9
$SHADEDIF
 70
    70
  9
$TILEMODE
 70
     1
  9
$MAXACTVP
 70
    64
  9
$PLIMCHECK
 70
     0
  9
$PEXTMIN
 10
0.0
 20
0.0
 30
0.0
  9
$PEXTMAX
 10
0.0
 20
0.0
 30
0.0
  9
$PLIMMIN
 10
0.0
 20
0.0
  9
$PLIMMAX
 10
12.0
 20
9.0
  9
$UNITMODE
 70
     0
  9
$VISRETAIN
 70
     1
  9
$PLINEGEN
 70
     0
  9
$PSLTSCALE
 70
     1
  0
ENDSEC
  0
SECTION
  2
TABLES
  0
TABLE
  2
VPORT
 70
     1
  0
VPORT
  2
*ACTIVE
 70
     0
 10
0.0
 20
0.0
 11
1.0
 21
1.0
 12
136.8398073459918
 22
46.4068636187016
 13
0.0
 23
0.0
 14
0.5
 24
0.5
 15
0.5
 25
0.5
 16
0.0
 26
0.0
 36
1.0
 17
0.0
 27
0.0
 37
0.0
 40
72.524871584293663
 41
2.4535256410256401
 42
50.0
 43
0.0
 44
0.0
 50
0.0
 51
0.0
 71
     0
 72
  1000
 73
     1
 74
     3
 75
     0
 76
     1
 77
     0
 78
     0
  0
ENDTAB
  0
TABLE
  2
LTYPE
 70
     1
  0
LTYPE
  2
CONTINUOUS
 70
     0
  3
Solid line
 72
    65
 73
     0
 40
0.0
  0
ENDTAB
  0
TABLE
  2
LAYER
 70
     3
  0
LAYER
  2
0
 70
     0
 62
     7
  6
CONTINUOUS
  0
LAYER
  2
DRILL
 70
     0
 62
   130
  6
CONTINUOUS
  0
LAYER
  2
LAYOUT
 70
     0
 62
    10
  6
CONTINUOUS
  0
ENDTAB
  0
TABLE
  2
STYLE
 70
     2
  0
STYLE
  2
STANDARD
 70
     0
 40
0.0
 41
1.0
 50
0.0
 71
     0
 42
0.2
  3
txt
  4

  0
STYLE
  2
ANNOTATIVE
 70
     0
 40
0.0
 41
1.0
 50
0.0
 71
     0
 42
0.2
  3
txt
  4

  0
ENDTAB
  0
TABLE
  2
VIEW
 70
     0
  0
ENDTAB
  0
TABLE
  2
UCS
 70
     0
  0
ENDTAB
  0
TABLE
  2
APPID
 70
     9
  0
APPID
  2
ACAD
 70
     0
  0
APPID
  2
ACADANNOPO
 70
     0
  0
APPID
  2
ACADANNOTATIVE
 70
     0
  0
APPID
  2
ACAD_DSTYLE_DIMJAG
 70
     0
  0
APPID
  2
ACAD_DSTYLE_DIMTALN
 70
     0
  0
APPID
  2
ACAD_MLEADERVER
 70
     0
  0
APPID
  2
ACAD_NAV_VCDISPLAY
 70
     0
  0
APPID
  2
ACAECLAYERSTANDARD
 70
     0
  0
APPID
  2
ACCMTRANSPARENCY
 70
     0
  0
ENDTAB
  0
TABLE
  2
DIMSTYLE
 70
     2
  0
DIMSTYLE
  2
STANDARD
 70
     0
  3

  4

  5

  6

  7

 40
1.0
 41
0.18
 42
0.0625
 43
0.38
 44
0.18
 45
0.0
 46
0.0
 47
0.0
 48
0.0
140
0.18
141
0.09
142
0.0
143
25.399999999999999
144
1.0
145
0.0
146
1.0
147
0.09
 71
     0
 72
     0
 73
     1
 74
     1
 75
     0
 76
     0
 77
     0
 78
     0
170
     0
171
     2
172
     0
173
     0
174
     0
175
     0
176
     0
177
     0
178
     0
  0
DIMSTYLE
  2
ANNOTATIVE
 70
     0
  3

  4

  5

  6

  7

 40
0.0
 41
0.18
 42
0.0625
 43
0.38
 44
0.18
 45
0.0
 46
0.0
 47
0.0
 48
0.0
140
0.18
141
0.09
142
0.0
143
25.399999999999999
144
1.0
145
0.0
146
1.0
147
0.09
 71
     0
 72
     0
 73
     1
 74
     1
 75
     0
 76
     0
 77
     0
 78
     0
170
     0
171
     2
172
     0
173
     0
174
     0
175
     0
176
     0
177
     0
178
     0
  0
ENDTAB
  0
ENDSEC
  0
SECTION
  2
BLOCKS
  0
BLOCK
  8
0
  2
$MODEL_SPACE
 70
     0
 10
0.0
 20
0.0
 30
0.0
  3
$MODEL_SPACE
  1

  0
ENDBLK
  5
21
  8
0
  0
BLOCK
 67
     1
  8
0
  2
$PAPER_SPACE
 70
     0
 10
0.0
 20
0.0
 30
0.0
  3
$PAPER_SPACE
  1

  0
ENDBLK
  5
5B
 67
     1
  8
0
  0
BLOCK
  8
0
  2
SW_CENTERMARKSYMBOL_0
 70
     0
 10
0.0
 20
0.0
 30
0.0
  3
SW_CENTERMARKSYMBOL_0
  1
SW_CENTERMARKSYMBOL_0
  0
LINE
  5
1DD
  8
0
  6
CONTINUOUS
 62
     0
 10
0.0
 20
0.0
 30
0.0
 11
0.0
 21
0.0984251969
 31
0.0
  0
LINE
  5
1DE
  8
0
  6
CONTINUOUS
 62
     0
 10
0.0
 20
0.0
 30
0.0
 11
-0.0984251969
 21
0.0
 31
0.0
  0
LINE
  5
1DF
  8
0
  6
CONTINUOUS
 62
     0
 10
0.0
 20
0.0
 30
0.0
 11
0.0
 21
-0.0984251969
 31
0.0
  0
LINE
  5
1E0
  8
0
  6
CONTINUOUS
 62
     0
 10
0.0
 20
0.0
 30
0.0
 11
0.0984251969
 21
0.0
 31
0.0
  0
LINE
  5
1E1
  8
0
  6
CONTINUOUS
 62
     0
 10
0.0
 20
0.0984251969
 30
0.0
 11
0.0
 21
0.1924251969
 31
0.0
  0
LINE
  5
1E2
  8
0
  6
CONTINUOUS
 62
     0
 10
-0.0984251969
 20
0.0
 30
0.0
 11
-0.1924251969
 21
0.0
 31
0.0
  0
LINE
  5
1E3
  8
0
  6
CONTINUOUS
 62
     0
 10
0.0
 20
-0.0984251969
 30
0.0
 11
0.0
 21
-0.1924251969
 31
0.0
  0
LINE
  5
1E4
  8
0
  6
CONTINUOUS
 62
     0
 10
0.0984251969
 20
0.0
 30
0.0
 11
0.1924251969
 21
0.0
 31
0.0
  0
ENDBLK
  5
1E5
  8
0
  0
BLOCK
  8
0
  2
SW_CENTERMARKSYMBOL_1
 70
     0
 10
0.0
 20
0.0
 30
0.0
  3
SW_CENTERMARKSYMBOL_1
  1
SW_CENTERMARKSYMBOL_1
  0
LINE
  5
1E8
  8
0
  6
CONTINUOUS
 62
     0
 10
0.0
 20
0.0
 30
0.0
 11
0.0
 21
0.0984251969
 31
0.0
  0
LINE
  5
1E9
  8
0
  6
CONTINUOUS
 62
     0
 10
0.0
 20
0.0
 30
0.0
 11
-0.0984251969
 21
0.0
 31
0.0
  0
LINE
  5
1EA
  8
0
  6
CONTINUOUS
 62
     0
 10
0.0
 20
0.0
 30
0.0
 11
0.0
 21
-0.0984251969
 31
0.0
  0
LINE
  5
1EB
  8
0
  6
CONTINUOUS
 62
     0
 10
0.0
 20
0.0
 30
0.0
 11
0.0984251969
 21
0.0
 31
0.0
  0
LINE
  5
1EC
  8
0
  6
CONTINUOUS
 62
     0
 10
0.0
 20
0.0984251969
 30
0.0
 11
0.0
 21
0.1924251969
 31
0.0
  0
LINE
  5
1ED
  8
0
  6
CONTINUOUS
 62
     0
 10
-0.0984251969
 20
0.0
 30
0.0
 11
-0.1924251969
 21
0.0
 31
0.0
  0
LINE
  5
1EE
  8
0
  6
CONTINUOUS
 62
     0
 10
0.0
 20
-0.0984251969
 30
0.0
 11
0.0
 21
-0.1924251969
 31
0.0
  0
LINE
  5
1EF
  8
0
  6
CONTINUOUS
 62
     0
 10
0.0984251969
 20
0.0
 30
0.0
 11
0.1924251969
 21
0.0
 31
0.0
  0
ENDBLK
  5
1F0
  8
0
  0
BLOCK
  8
0
  2
SW_CENTERMARKSYMBOL_2
 70
     0
 10
0.0
 20
0.0
 30
0.0
  3
SW_CENTERMARKSYMBOL_2
  1
SW_CENTERMARKSYMBOL_2
  0
LINE
  5
1F3
  8
0
  6
CONTINUOUS
 62
     0
 10
0.0
 20
0.0
 30
0.0
 11
0.0
 21
0.0984251969
 31
0.0
  0
LINE
  5
1F4
  8
0
  6
CONTINUOUS
 62
     0
 10
0.0
 20
0.0
 30
0.0
 11
-0.0984251969
 21
0.0
 31
0.0
  0
LINE
  5
1F5
  8
0
  6
CONTINUOUS
 62
     0
 10
0.0
 20
0.0
 30
0.0
 11
0.0
 21
-0.0984251969
 31
0.0
  0
LINE
  5
1F6
  8
0
  6
CONTINUOUS
 62
     0
 10
0.0
 20
0.0
 30
0.0
 11
0.0984251969
 21
0.0
 31
0.0
  0
LINE
  5
1F7
  8
0
  6
CONTINUOUS
 62
     0
 10
0.0
 20
0.0984251969
 30
0.0
 11
0.0
 21
0.1924251969
 31
0.0
  0
LINE
  5
1F8
  8
0
  6
CONTINUOUS
 62
     0
 10
-0.0984251969
 20
0.0
 30
0.0
 11
-0.1924251969
 21
0.0
 31
0.0
  0
LINE
  5
1F9
  8
0
  6
CONTINUOUS
 62
     0
 10
0.0
 20
-0.0984251969
 30
0.0
 11
0.0
 21
-0.1924251969
 31
0.0
  0
LINE
  5
1FA
  8
0
  6
CONTINUOUS
 62
     0
 10
0.0984251969
 20
0.0
 30
0.0
 11
0.1924251969
 21
0.0
 31
0.0
  0
ENDBLK
  5
1FB
  8
0
  0
BLOCK
  8
0
  2
SW_CENTERMARKSYMBOL_3
 70
     0
 10
0.0
 20
0.0
 30
0.0
  3
SW_CENTERMARKSYMBOL_3
  1
SW_CENTERMARKSYMBOL_3
  0
LINE
  5
1FE
  8
0
  6
CONTINUOUS
 62
     0
 10
0.0
 20
0.0
 30
0.0
 11
0.0
 21
0.0984251969
 31
0.0
  0
LINE
  5
1FF
  8
0
  6
CONTINUOUS
 62
     0
 10
0.0
 20
0.0
 30
0.0
 11
-0.0984251969
 21
0.0
 31
0.0
  0
LINE
  5
200
  8
0
  6
CONTINUOUS
 62
     0
 10
0.0
 20
0.0
 30
0.0
 11
0.0
 21
-0.0984251969
 31
0.0
  0
LINE
  5
201
  8
0
  6
CONTINUOUS
 62
     0
 10
0.0
 20
0.0
 30
0.0
 11
0.0984251969
 21
0.0
 31
0.0
  0
LINE
  5
202
  8
0
  6
CONTINUOUS
 62
     0
 10
0.0
 20
0.1968503937
 30
0.0
 11
0.0
 21
0.4734251969
 31
0.0
  0
LINE
  5
203
  8
0
  6
CONTINUOUS
 62
     0
 10
-0.1968503937
 20
0.0
 30
0.0
 11
-0.4734251969
 21
0.0
 31
0.0
  0
LINE
  5
204
  8
0
  6
CONTINUOUS
 62
     0
 10
0.0
 20
-0.1968503937
 30
0.0
 11
0.0
 21
-0.4734251969
 31
0.0
  0
LINE
  5
205
  8
0
  6
CONTINUOUS
 62
     0
 10
0.1968503937
 20
0.0
 30
0.0
 11
0.4734251969
 21
0.0
 31
0.0
  0
ENDBLK
  5
206
  8
0
  0
BLOCK
  8
0
  2
SW_CENTERMARKSYMBOL_4
 70
     0
 10
0.0
 20
0.0
 30
0.0
  3
SW_CENTERMARKSYMBOL_4
  1
SW_CENTERMARKSYMBOL_4
  0
LINE
  5
209
  8
0
  6
CONTINUOUS
 62
     0
 10
0.0
 20
0.0
 30
0.0
 11
0.0
 21
0.0984251969
 31
0.0
  0
LINE
  5
20A
  8
0
  6
CONTINUOUS
 62
     0
 10
0.0
 20
0.0
 30
0.0
 11
-0.0984251969
 21
0.0
 31
0.0
  0
LINE
  5
20B
  8
0
  6
CONTINUOUS
 62
     0
 10
0.0
 20
0.0
 30
0.0
 11
0.0
 21
-0.0984251969
 31
0.0
  0
LINE
  5
20C
  8
0
  6
CONTINUOUS
 62
     0
 10
0.0
 20
0.0
 30
0.0
 11
0.0984251969
 21
0.0
 31
0.0
  0
LINE
  5
20D
  8
0
  6
CONTINUOUS
 62
     0
 10
0.0
 20
0.1968503937
 30
0.0
 11
0.0
 21
0.4734251969
 31
0.0
  0
LINE
  5
20E
  8
0
  6
CONTINUOUS
 62
     0
 10
-0.1968503937
 20
0.0
 30
0.0
 11
-0.4734251969
 21
0.0
 31
0.0
  0
LINE
  5
20F
  8
0
  6
CONTINUOUS
 62
     0
 10
0.0
 20
-0.1968503937
 30
0.0
 11
0.0
 21
-0.4734251969
 31
0.0
  0
LINE
  5
210
  8
0
  6
CONTINUOUS
 62
     0
 10
0.1968503937
 20
0.0
 30
0.0
 11
0.4734251969
 21
0.0
 31
0.0
  0
ENDBLK
  5
211
  8
0
  0
BLOCK
  8
0
  2
SW_CENTERMARKSYMBOL_5
 70
     0
 10
0.0
 20
0.0
 30
0.0
  3
SW_CENTERMARKSYMBOL_5
  1
SW_CENTERMARKSYMBOL_5
  0
LINE
  5
214
  8
0
  6
CONTINUOUS
 62
     0
 10
0.0
 20
0.0
 30
0.0
 11
0.0
 21
0.0984251969
 31
0.0
  0
LINE
  5
215
  8
0
  6
CONTINUOUS
 62
     0
 10
0.0
 20
0.0
 30
0.0
 11
-0.0984251969
 21
0.0
 31
0.0
  0
LINE
  5
216
  8
0
  6
CONTINUOUS
 62
     0
 10
0.0
 20
0.0
 30
0.0
 11
0.0
 21
-0.0984251969
 31
0.0
  0
LINE
  5
217
  8
0
  6
CONTINUOUS
 62
     0
 10
0.0
 20
0.0
 30
0.0
 11
0.0984251969
 21
0.0
 31
0.0
  0
LINE
  5
218
  8
0
  6
CONTINUOUS
 62
     0
 10
0.0
 20
0.1968503937
 30
0.0
 11
0.0
 21
0.4734251969
 31
0.0
  0
LINE
  5
219
  8
0
  6
CONTINUOUS
 62
     0
 10
-0.1968503937
 20
0.0
 30
0.0
 11
-0.4734251969
 21
0.0
 31
0.0
  0
LINE
  5
21A
  8
0
  6
CONTINUOUS
 62
     0
 10
0.0
 20
-0.1968503937
 30
0.0
 11
0.0
 21
-0.4734251969
 31
0.0
  0
LINE
  5
21B
  8
0
  6
CONTINUOUS
 62
     0
 10
0.1968503937
 20
0.0
 30
0.0
 11
0.4734251969
 21
0.0
 31
0.0
  0
ENDBLK
  5
21C
  8
0
  0
ENDSEC
  0
SECTION
  2
ENTITIES
  0
POINT
  5
3C1
  8
DRILL
 10
142.49912065680559
 20
62.975125001755373
 30
0.0
 50
68.787622128927708
  0
POINT
  5
3C2
  8
DRILL
 10
129.7462427674856
 20
54.771435751485448
 30
0.0
 50
68.787622128927708
  0
POINT
  5
3C3
  8
DRILL
 10
126.4597852832824
 20
63.034578167968327
 30
0.0
 50
68.787622128927708
  0
POINT
  5
3C4
  8
DRILL
 10
116.9933648781295
 20
46.567746501122343
 30
0.0
 50
68.787622128927708
  0
POINT
  5
3C5
  8
DRILL
 10
101.3257671466158
 20
39.661555323364581
 30
0.0
 50
68.787622128927708
  0
POINT
  5
3C6
  8
DRILL
 10
110.42044990985249
 20
63.094031334145193
 30
0.0
 50
68.787622128927708
  0
POLYLINE
  5
3C7
  8
LAYOUT
 66
     1
 10
0.0
 20
0.0
 30
0.0
 70
     1
  0
VERTEX
  5
42A
  8
LAYOUT
 10
89.146128059043008
 20
73.900269726998204
 30
0.0
  0
VERTEX
  5
42B
  8
LAYOUT
 10
185.14612805904301
 20
73.900269726998204
 30
0.0
  0
VERTEX
  5
42C
  8
LAYOUT
 10
185.14612805904301
 20
25.900269726998211
 30
0.0
  0
VERTEX
  5
42D
  8
LAYOUT
 10
89.146128059043008
 20
25.900269726998211
 30
0.0
  0
SEQEND
  5
42E
  8
LAYOUT
  0
POLYLINE
  5
3C9
  8
LAYOUT
 66
     1
 10
0.0
 20
0.0
 30
0.0
 70
     1
  0
VERTEX
  5
42F
  8
LAYOUT
 10
90.146128059043008
 20
72.900269726998204
 30
0.0
  0
VERTEX
  5
430
  8
LAYOUT
 10
184.14612805904301
 20
72.900269726998204
 30
0.0
  0
VERTEX
  5
431
  8
LAYOUT
 10
184.14612805904301
 20
26.900269726998211
 30
0.0
  0
VERTEX
  5
432
  8
LAYOUT
 10
90.146128059043008
 20
26.900269726998211
 30
0.0
  0
SEQEND
  5
433
  8
LAYOUT
  0
POLYLINE
  5
3CE
  8
0
  6
CONTINUOUS
 62
     7
 66
     1
 10
0.0
 20
0.0
 30
0.0
 70
     1
  0
VERTEX
  5
434
  8
0
  6
CONTINUOUS
 62
     7
 10
118.4186065698721
 20
43.917464482186801
 30
0.0
  0
VERTEX
  5
435
  8
0
  6
CONTINUOUS
 62
     7
 10
152.64943705851269
 20
65.937521331114567
 30
0.0
  0
VERTEX
  5
436
  8
0
  6
CONTINUOUS
 62
     7
 10
108.36974125231249
 20
66.101653326081248
 30
0.0
  0
VERTEX
  5
437
  8
0
  6
CONTINUOUS
 62
     7
 10
95.908454644190087
 20
33.995112932101911
 30
0.0
  0
SEQEND
  5
438
  8
0
  6
CONTINUOUS
 62
     7
  0
POLYLINE
  5
3CF
  8
0
  6
CONTINUOUS
 62
     7
 66
     1
 10
0.0
 20
0.0
 30
0.0
 70
     1
  0
VERTEX
  5
439
  8
0
  6
CONTINUOUS
 62
     7
 10
145.30889181435879
 20
31.304614865182909
 30
0.0
  0
VERTEX
  5
43A
  8
0
  6
CONTINUOUS
 62
     7
 10
157.7158290288501
 20
63.432196612891147
 30
0.0
  0
VERTEX
  5
43B
  8
0
  6
CONTINUOUS
 62
     7
 10
138.33016538080761
 20
52.737541643009671
 30
0.0
  0
VERTEX
  5
43C
  8
0
  6
CONTINUOUS
 62
     7
 10
109.2331916961808
 20
30.747604111174159
 30
0.0
  0
SEQEND
  5
43D
  8
0
  6
CONTINUOUS
 62
     7
  0
POLYLINE
  5
3D0
  8
0
  6
CONTINUOUS
 62
     7
 66
     1
 10
0.0
 20
0.0
 30
0.0
 70
     1
  0
VERTEX
  5
43E
  8
0
  6
CONTINUOUS
 62
     7
 10
174.826661466649
 20
37.719140054593282
 30
0.0
  0
VERTEX
  5
43F
  8
0
  6
CONTINUOUS
 62
     7
 10
180.49378730854389
 20
71.689675591910401
 30
0.0
  0
VERTEX
  5
440
  8
0
  6
CONTINUOUS
 62
     7
 10
165.38658127769469
 20
57.832463536870868
 30
0.0
  0
VERTEX
  5
441
  8
0
  6
CONTINUOUS
 62
     7
 10
147.4593363941832
 20
29.075094799215488
 30
0.0
  0
SEQEND
  5
442
  8
0
  6
CONTINUOUS
 62
     7
  0
POLYLINE
  5
3D1
  8
0
  6
CONTINUOUS
 62
     7
 66
     1
 10
0.0
 20
0.0
 30
0.0
  0
VERTEX
  5
443
  8
0
  6
CONTINUOUS
 62
     7
 10
141.54766220487861
 20
47.648415603330321
 30
0.0
  0
VERTEX
  5
444
  8
0
  6
CONTINUOUS
 62
     7
 10
129.9390423769614
 20
38.875241196463421
 30
0.0
 42
0.7252402915521578
  0
VERTEX
  5
445
  8
0
  6
CONTINUOUS
 62
     7
 10
130.55741067670351
 20
37.077566344626547
 30
0.0
  0
VERTEX
  5
446
  8
0
  6
CONTINUOUS
 62
     7
 10
140.49526561177771
 20
37.231007360386293
 30
0.0
 42
0.3057306814586547
  0
VERTEX
  5
447
  8
0
  6
CONTINUOUS
 62
     7
 10
141.4126840108604
 20
37.870640297462472
 30
0.0
  0
VERTEX
  5
448
  8
0
  6
CONTINUOUS
 62
     7
 10
145.1902788146715
 20
47.652666576067809
 30
0.0
 42
0.7002075382097109
  0
VERTEX
  5
449
  8
0
  6
CONTINUOUS
 62
     7
 10
143.77437545518379
 20
48.888509026718118
 30
0.0
  0
VERTEX
  5
44A
  8
0
  6
CONTINUOUS
 62
     7
 10
141.6675455441289
 20
47.726216139119167
 30
0.0
 42
0.0357746878969321
  0
VERTEX
  5
44B
  8
0
  6
CONTINUOUS
 62
     7
 10
141.54766220477859
 20
47.648415603291873
 30
0.0
  0
SEQEND
  5
44C
  8
0
  6
CONTINUOUS
 62
     7
  0
POLYLINE
  5
3D2
  8
0
  6
CONTINUOUS
 62
     7
 66
     1
 10
0.0
 20
0.0
 30
0.0
 70
     1
  0
VERTEX
  5
44D
  8
0
  6
CONTINUOUS
 62
     7
 10
107.61660482715649
 20
47.578637820924861
 30
0.0
 42
0.6681786379193018
  0
VERTEX
  5
44E
  8
0
  6
CONTINUOUS
 62
     7
 10
108.9521981071899
 20
46.30176501881521
 30
0.0
  0
VERTEX
  5
44F
  8
0
  6
CONTINUOUS
 62
     7
 10
115.4963902464665
 20
49.186409033382169
 30
0.0
 42
0.0391362868988906
  0
VERTEX
  5
450
  8
0
  6
CONTINUOUS
 62
     7
 10
115.6340526644255
 20
49.260439727463897
 30
0.0
  0
VERTEX
  5
451
  8
0
  6
CONTINUOUS
 62
     7
 10
129.50637549657131
 20
58.184247097216343
 30
0.0
 42
0.7469746696963929
  0
VERTEX
  5
452
  8
0
  6
CONTINUOUS
 62
     7
 10
128.969072139155
 20
60.025256359569823
 30
0.0
  0
VERTEX
  5
453
  8
0
  6
CONTINUOUS
 62
     7
 10
113.15843480452639
 20
60.083861808451339
 30
0.0
 42
0.310508253462825
  0
VERTEX
  5
454
  8
0
  6
CONTINUOUS
 62
     7
 10
112.222482463867
 20
59.445694654075972
 30
0.0
  0
SEQEND
  5
455
  8
0
  6
CONTINUOUS
 62
     7
  0
ENDSEC
  0
EOF
