999
DXF created from Luxology modo on Fri Jun 05 09:33:50 2015
  0
SECTION
  2
HEADER
  9
$ACADVER
  1
AC1006
  0
ENDSEC
  0
SECTION
  2
TABLES
  0
TABLE
  2
LTYPE
 70
1
  0
LTYPE
  2
CONTINUOUS
 70
64
  3
Solid line
 72
65
 73
0
 40
0.000000
  0
ENDTAB
  0
TABLE
  2
LAYER
  70
6
  0
LAYER
  2
grove cross beam (3)
 70
64
 62
7
  6
CONTINUOUS
  0
LAYER
  2
grove cross beam (7)
 70
64
 62
7
  6
CONTINUOUS
  0
LAYER
  2
grove cross beam (9)
 70
64
 62
7
  6
CONTINUOUS
  0
LAYER
  2
grove cross beam (10)
 70
64
 62
7
  6
CONTINUOUS
  0
LAYER
  2
grove cross beam (11)
 70
64
 62
7
  6
CONTINUOUS
  0
LAYER
  2
grove cross beam
 70
64
 62
7
  6
CONTINUOUS
  0
LAYER
  2
grove cross beam (4)
 70
64
 62
7
  6
CONTINUOUS
  0
LAYER
  2
grove cross beam (5)
 70
64
 62
7
  6
CONTINUOUS
  0
LAYER
  2
Mesh
 70
64
 62
7
  6
CONTINUOUS
  0
ENDTAB
  0
ENDSEC
  0
SECTION
  2
BLOCKS
  0
ENDSEC
  0
SECTION
  2
ENTITIES
  0
POLYLINE
  8
grove cross beam (3)
 66
1
 10
0.0
 20
0.0
 30
0.0
 70
64
 71
54
 72
52
  0
VERTEX
  8
grove cross beam (3)
 10
-12.0433124199027350
 20
0.0022123646647647
 30
0.0047511167270943
 70
192
  0
VERTEX
  8
grove cross beam (3)
 10
-11.1787925298048180
 20
-0.0008059556738029
 30
0.0062033881417352
 70
192
  0
VERTEX
  8
grove cross beam (3)
 10
-12.2002926423361530
 20
0.0027586298586106
 30
0.5394910959091195
 70
192
  0
VERTEX
  8
grove cross beam (3)
 10
-11.6917781010763950
 20
0.0009843214798892
 30
0.7100604805542108
 70
192
  0
VERTEX
  8
grove cross beam (3)
 10
-12.3417243416912220
 20
0.0032537727885751
 30
0.8346890836822698
 70
192
  0
VERTEX
  8
grove cross beam (3)
 10
-11.9460338919625680
 20
0.0018718083516693
 30
0.6247758436787361
 70
192
  0
VERTEX
  8
grove cross beam (3)
 10
-12.1489968797413630
 20
0.0025815317013216
 30
0.9250252814023152
 70
192
  0
VERTEX
  8
grove cross beam (3)
 10
-12.1087572076437220
 20
0.0024396979269965
 30
0.2663326811911702
 70
192
  0
VERTEX
  8
grove cross beam (3)
 10
-11.6020991174894320
 20
0.0006722649927697
 30
0.0041944281349106
 70
192
  0
VERTEX
  8
grove cross beam (3)
 10
-11.4269782768586020
 20
0.0000603503917078
 30
0.3666541478510854
 70
192
  0
VERTEX
  8
grove cross beam (3)
 10
-11.7678674511540380
 20
0.0012504677359184
 30
0.3164931788710763
 70
192
  0
VERTEX
  8
grove cross beam (3)
 10
-12.3415837832008090
 20
0.0431846462864196
 30
0.8346890836822698
 70
192
  0
VERTEX
  8
grove cross beam (3)
 10
-12.1488572084040860
 20
0.0425120725167440
 30
0.9250252814023152
 70
192
  0
VERTEX
  8
grove cross beam (3)
 10
-12.2001521115692690
 20
0.0426913885568672
 30
0.5394910959091195
 70
192
  0
VERTEX
  8
grove cross beam (3)
 10
-11.9458954959079140
 20
0.0418043452616508
 30
0.6247758436787361
 70
192
  0
VERTEX
  8
grove cross beam (3)
 10
-11.6916376257565810
 20
0.0409170801781458
 30
0.7100609241307783
 70
192
  0
VERTEX
  8
grove cross beam (3)
 10
-12.1086188115890680
 20
0.0423722348369782
 30
0.2663326811911702
 70
192
  0
VERTEX
  8
grove cross beam (3)
 10
-11.7677290828229260
 20
0.0411812303396302
 30
0.3164931788710763
 70
192
  0
VERTEX
  8
grove cross beam (3)
 10
-12.0431739753319040
 20
0.0421430163743342
 30
0.0047506740168873
 70
192
  0
VERTEX
  8
grove cross beam (3)
 10
-11.6019586698931610
 20
0.0406032493847566
 30
0.0041944281349106
 70
192
  0
VERTEX
  8
grove cross beam (3)
 10
-11.1786520267614760
 20
0.0391250287181837
 30
0.0062029445651677
 70
192
  0
VERTEX
  8
grove cross beam (3)
 10
-11.4268386055213260
 20
0.0399908912071303
 30
0.3666541478510854
 70
192
  0
VERTEX
  8
grove cross beam (3)
 10
-13.2774473641878150
 20
0.0065201636177841
 30
2.1048075413331966
 70
192
  0
VERTEX
  8
grove cross beam (3)
 10
-13.3487171439657480
 20
0.0067688994735531
 30
2.0326873143802353
 70
192
  0
VERTEX
  8
grove cross beam (3)
 10
-12.2211602583762350
 20
0.0028331508084849
 30
1.2859734039370305
 70
192
  0
VERTEX
  8
grove cross beam (3)
 10
-12.5160527882313380
 20
0.0038626932445205
 30
1.1251018228925485
 70
192
  0
VERTEX
  8
grove cross beam (3)
 10
-12.9106782972575510
 20
0.0052393347582003
 30
1.6176873910038860
 70
192
  0
VERTEX
  8
grove cross beam (3)
 10
-12.7535439042434080
 20
0.0046910734691612
 30
1.7389638860115209
 70
192
  0
VERTEX
  8
grove cross beam (3)
 10
-11.9562702455989540
 20
0.0019070727312340
 30
1.0153614236752897
 70
192
  0
VERTEX
  8
grove cross beam (3)
 10
-12.3686061074507540
 20
0.0033481438147849
 30
1.2055378906501442
 70
192
  0
VERTEX
  8
grove cross beam (3)
 10
-13.1275179299120260
 20
0.0059970753288285
 30
1.8330415966311644
 70
192
  0
VERTEX
  8
grove cross beam (3)
 10
-12.8321105185562310
 20
0.0049659803726714
 30
1.6783257494018453
 70
192
  0
VERTEX
  8
grove cross beam (3)
 10
-13.0196453207278380
 20
0.0056192585401313
 30
1.9324966750841905
 70
192
  0
VERTEX
  8
grove cross beam (3)
 10
-13.3239992833200170
 20
0.0066820692579643
 30
2.0805301522186093
 70
192
  0
VERTEX
  8
grove cross beam (3)
 10
-13.0735826788142830
 20
0.0058072243342784
 30
1.8827690804106065
 70
192
  0
VERTEX
  8
grove cross beam (3)
 10
-12.7062803219557720
 20
0.0045258410017737
 30
1.3839043533042055
 70
192
  0
VERTEX
  8
grove cross beam (3)
 10
-12.4871493390949520
 20
0.0037615576672729
 30
1.5253152322861918
 70
192
  0
VERTEX
  8
grove cross beam (3)
 10
-12.5967153018254690
 20
0.0041425903931065
 30
1.4546095710069149
 70
192
  0
VERTEX
  8
grove cross beam (3)
 10
-12.5159144476237620
 20
0.0437934558482325
 30
1.1251013793159810
 70
192
  0
VERTEX
  8
grove cross beam (3)
 10
-12.3684664083899420
 20
0.0432785737360653
 30
1.2055378906501442
 70
192
  0
VERTEX
  8
grove cross beam (3)
 10
-11.9561297265279350
 20
0.0418398314294905
 30
1.0153614236752897
 70
192
  0
VERTEX
  8
grove cross beam (3)
 10
-12.2210198107799640
 20
0.0427641352004717
 30
1.2859740693018817
 70
192
  0
VERTEX
  8
grove cross beam (3)
 10
-13.3485809657939410
 20
0.0466994402889902
 30
2.0326855400739654
 70
192
  0
VERTEX
  8
grove cross beam (3)
 10
-13.1273795338573790
 20
0.0459278379325401
 30
1.8330415966311644
 70
192
  0
VERTEX
  8
grove cross beam (3)
 10
-13.0734429520299290
 20
0.0457394285618287
 30
1.8827690804106065
 70
192
  0
VERTEX
  8
grove cross beam (3)
 10
-13.3238595565356700
 20
0.0466124991792449
 30
2.0805301522186093
 70
192
  0
VERTEX
  8
grove cross beam (3)
 10
-12.9105399012028970
 20
0.0451718716681817
 30
1.6176865038507511
 70
192
  0
VERTEX
  8
grove cross beam (3)
 10
-12.8319700155128890
 20
0.0448969647646580
 30
1.6783257494018453
 70
192
  0
VERTEX
  8
grove cross beam (3)
 10
-12.7534021813645050
 20
0.0446218360728590
 30
1.7389652167412233
 70
192
  0
VERTEX
  8
grove cross beam (3)
 10
-13.0195069246731840
 20
0.0455517954501128
 30
1.9324966750841905
 70
192
  0
VERTEX
  8
grove cross beam (3)
 10
-13.2773047541557750
 20
0.0464513697980458
 30
2.1048106463691689
 70
192
  0
VERTEX
  8
grove cross beam (3)
 10
-12.7061419813481980
 20
0.0444566036054854
 30
1.3839043533042055
 70
192
  0
VERTEX
  8
grove cross beam (3)
 10
-12.5965747987821200
 20
0.0440753490913630
 30
1.4546095710069149
 70
192
  0
VERTEX
  8
grove cross beam (3)
 10
-12.4870096123106040
 20
0.0436919875885535
 30
1.5253152322861918
 70
192
  0
VERTEX
  8
grove cross beam (3)
 10
0
 20
0
 30
0
 70
128
  71
12
  72
39
  73
26
  74
5
  0
VERTEX
  8
grove cross beam (3)
 10
0
 20
0
 30
0
 70
128
  71
5
  72
26
  73
30
  74
7
  0
VERTEX
  8
grove cross beam (3)
 10
0
 20
0
 30
0
 70
128
  71
40
  72
39
  73
12
  74
13
  0
VERTEX
  8
grove cross beam (3)
 10
0
 20
0
 30
0
 70
128
  71
12
  72
5
  73
3
  74
14
  0
VERTEX
  8
grove cross beam (3)
 10
0
 20
0
 30
0
 70
128
  71
3
  72
5
  73
7
  74
6
  0
VERTEX
  8
grove cross beam (3)
 10
0
 20
0
 30
0
 70
128
  71
13
  72
12
  73
14
  74
15
  0
VERTEX
  8
grove cross beam (3)
 10
0
 20
0
 30
0
 70
128
  71
41
  72
16
  73
4
  74
29
  0
VERTEX
  8
grove cross beam (3)
 10
0
 20
0
 30
0
 70
128
  71
6
  72
7
  73
29
  74
4
  0
VERTEX
  8
grove cross beam (3)
 10
0
 20
0
 30
0
 70
128
  71
41
  72
13
  73
15
  74
16
  0
VERTEX
  8
grove cross beam (3)
 10
0
 20
0
 30
0
 70
128
  71
29
  72
25
  73
42
  74
41
  0
VERTEX
  8
grove cross beam (3)
 10
0
 20
0
 30
0
 70
128
  71
7
  72
30
  73
25
  74
29
  0
VERTEX
  8
grove cross beam (3)
 10
0
 20
0
 30
0
 70
128
  71
42
  72
40
  73
13
  74
41
  0
VERTEX
  8
grove cross beam (3)
 10
0
 20
0
 30
0
 70
128
  71
8
  72
17
  73
14
  74
3
  0
VERTEX
  8
grove cross beam (3)
 10
0
 20
0
 30
0
 70
128
  71
8
  72
3
  73
6
  74
11
  0
VERTEX
  8
grove cross beam (3)
 10
0
 20
0
 30
0
 70
128
  71
15
  72
14
  73
17
  74
18
  0
VERTEX
  8
grove cross beam (3)
 10
0
 20
0
 30
0
 70
128
  71
8
  72
1
  73
19
  74
17
  0
VERTEX
  8
grove cross beam (3)
 10
0
 20
0
 30
0
 70
128
  71
19
  72
1
  73
9
  74
20
  0
VERTEX
  8
grove cross beam (3)
 10
0
 20
0
 30
0
 70
128
  71
1
  72
8
  73
11
  74
9
  0
VERTEX
  8
grove cross beam (3)
 10
0
 20
0
 30
0
 70
128
  71
18
  72
17
  73
19
  74
20
  0
VERTEX
  8
grove cross beam (3)
 10
0
 20
0
 30
0
 70
128
  71
20
  72
9
  73
2
  74
21
  0
VERTEX
  8
grove cross beam (3)
 10
0
 20
0
 30
0
 70
128
  71
2
  72
10
  73
22
  74
21
  0
VERTEX
  8
grove cross beam (3)
 10
0
 20
0
 30
0
 70
128
  71
9
  72
11
  73
10
  74
2
  0
VERTEX
  8
grove cross beam (3)
 10
0
 20
0
 30
0
 70
128
  71
22
  72
18
  73
20
  74
21
  0
VERTEX
  8
grove cross beam (3)
 10
0
 20
0
 30
0
 70
128
  71
22
  72
10
  73
4
  74
16
  0
VERTEX
  8
grove cross beam (3)
 10
0
 20
0
 30
0
 70
128
  71
11
  72
6
  73
4
  74
10
  0
VERTEX
  8
grove cross beam (3)
 10
0
 20
0
 30
0
 70
128
  71
16
  72
15
  73
18
  74
22
  0
VERTEX
  8
grove cross beam (3)
 10
0
 20
0
 30
0
 70
128
  71
43
  72
24
  73
31
  74
44
  0
VERTEX
  8
grove cross beam (3)
 10
0
 20
0
 30
0
 70
128
  71
46
  72
34
  73
24
  74
43
  0
VERTEX
  8
grove cross beam (3)
 10
0
 20
0
 30
0
 70
128
  71
31
  72
24
  73
34
  74
35
  0
VERTEX
  8
grove cross beam (3)
 10
0
 20
0
 30
0
 70
128
  71
46
  72
43
  73
44
  74
45
  0
VERTEX
  8
grove cross beam (3)
 10
0
 20
0
 30
0
 70
128
  71
47
  72
44
  73
31
  74
27
  0
VERTEX
  8
grove cross beam (3)
 10
0
 20
0
 30
0
 70
128
  71
27
  72
31
  73
35
  74
32
  0
VERTEX
  8
grove cross beam (3)
 10
0
 20
0
 30
0
 70
128
  71
45
  72
44
  73
47
  74
48
  0
VERTEX
  8
grove cross beam (3)
 10
0
 20
0
 30
0
 70
128
  71
49
  72
28
  73
33
  74
50
  0
VERTEX
  8
grove cross beam (3)
 10
0
 20
0
 30
0
 70
128
  71
32
  72
35
  73
33
  74
28
  0
VERTEX
  8
grove cross beam (3)
 10
0
 20
0
 30
0
 70
128
  71
50
  72
45
  73
48
  74
49
  0
VERTEX
  8
grove cross beam (3)
 10
0
 20
0
 30
0
 70
128
  71
23
  72
51
  73
50
  74
33
  0
VERTEX
  8
grove cross beam (3)
 10
0
 20
0
 30
0
 70
128
  71
23
  72
34
  73
46
  74
51
  0
VERTEX
  8
grove cross beam (3)
 10
0
 20
0
 30
0
 70
128
  71
34
  72
23
  73
33
  74
35
  0
VERTEX
  8
grove cross beam (3)
 10
0
 20
0
 30
0
 70
128
  71
50
  72
51
  73
46
  74
45
  0
VERTEX
  8
grove cross beam (3)
 10
0
 20
0
 30
0
 70
128
  71
36
  72
52
  73
47
  74
27
  0
VERTEX
  8
grove cross beam (3)
 10
0
 20
0
 30
0
 70
128
  71
36
  72
27
  73
32
  74
38
  0
VERTEX
  8
grove cross beam (3)
 10
0
 20
0
 30
0
 70
128
  71
48
  72
47
  73
52
  74
53
  0
VERTEX
  8
grove cross beam (3)
 10
0
 20
0
 30
0
 70
128
  71
52
  72
36
  73
26
  74
39
  0
VERTEX
  8
grove cross beam (3)
 10
0
 20
0
 30
0
 70
128
  71
26
  72
36
  73
38
  74
30
  0
VERTEX
  8
grove cross beam (3)
 10
0
 20
0
 30
0
 70
128
  71
53
  72
52
  73
39
  74
40
  0
VERTEX
  8
grove cross beam (3)
 10
0
 20
0
 30
0
 70
128
  71
25
  72
37
  73
54
  74
42
  0
VERTEX
  8
grove cross beam (3)
 10
0
 20
0
 30
0
 70
128
  71
30
  72
38
  73
37
  74
25
  0
VERTEX
  8
grove cross beam (3)
 10
0
 20
0
 30
0
 70
128
  71
54
  72
53
  73
40
  74
42
  0
VERTEX
  8
grove cross beam (3)
 10
0
 20
0
 30
0
 70
128
  71
49
  72
54
  73
37
  74
28
  0
VERTEX
  8
grove cross beam (3)
 10
0
 20
0
 30
0
 70
128
  71
38
  72
32
  73
28
  74
37
  0
VERTEX
  8
grove cross beam (3)
 10
0
 20
0
 30
0
 70
128
  71
49
  72
48
  73
53
  74
54
  0
SEQEND
  0
POLYLINE
  8
grove cross beam (7)
 66
1
 10
0.0
 20
0.0
 30
0.0
 70
64
 71
54
 72
52
  0
VERTEX
  8
grove cross beam (7)
 10
-8.5248097301034118
 20
0.0008319008065569
 30
0.0111341782746741
 70
192
  0
VERTEX
  8
grove cross beam (7)
 10
-7.6140281894441060
 20
-0.0023476991365685
 30
0.0126641600620451
 70
192
  0
VERTEX
  8
grove cross beam (7)
 10
-8.6901901693810260
 20
0.0014077476677916
 30
0.5744885180282766
 70
192
  0
VERTEX
  8
grove cross beam (7)
 10
-8.1544641141546990
 20
-0.0004616225086735
 30
0.7541852060739005
 70
192
  0
VERTEX
  8
grove cross beam (7)
 10
-8.8391897869783236
 20
0.0019296198342733
 30
0.8854827848537228
 70
192
  0
VERTEX
  8
grove cross beam (7)
 10
-8.4223256439941423
 20
0.0004732378218153
 30
0.6643368620510886
 70
192
  0
VERTEX
  8
grove cross beam (7)
 10
-8.6361496903808366
 20
0.0012210559870962
 30
0.9806529443445571
 70
192
  0
VERTEX
  8
grove cross beam (7)
 10
-8.5937568636574362
 20
0.0010713988932627
 30
0.2867131501299284
 70
192
  0
VERTEX
  8
grove cross beam (7)
 10
-8.0599873298874769
 20
-0.0007901437861659
 30
0.0105477008332719
 70
192
  0
VERTEX
  8
grove cross beam (7)
 10
-7.8754954293783079
 20
-0.0014353866742716
 30
0.3924029274484313
 70
192
  0
VERTEX
  8
grove cross beam (7)
 10
-8.2346250804607664
 20
-0.0001814681637193
 30
0.3395578051328287
 70
192
  0
VERTEX
  8
grove cross beam (7)
 10
-8.8390416194452719
 20
0.0439967588112140
 30
0.8854827848537228
 70
192
  0
VERTEX
  8
grove cross beam (7)
 10
-8.6360024720767115
 20
0.0432884286203927
 30
0.9806529443445571
 70
192
  0
VERTEX
  8
grove cross beam (7)
 10
-8.6900425859888433
 20
0.0434768727237200
 30
0.5744885180282766
 70
192
  0
VERTEX
  8
grove cross beam (7)
 10
-8.4221809438848236
 20
0.0425424797059328
 30
0.6643368620510886
 70
192
  0
VERTEX
  8
grove cross beam (7)
 10
-8.1543174361808752
 20
0.0416077362036102
 30
0.7541856733866028
 70
192
  0
VERTEX
  8
grove cross beam (7)
 10
-8.5936121717625973
 20
0.0431406407773802
 30
0.2867131501299284
 70
192
  0
VERTEX
  8
grove cross beam (7)
 10
-8.2344797314074487
 20
0.0418861381259370
 30
0.3395578051328287
 70
192
  0
VERTEX
  8
grove cross beam (7)
 10
-8.5246643810500924
 20
0.0428996239243891
 30
0.0111337100492516
 70
192
  0
VERTEX
  8
grove cross beam (7)
 10
-8.0598400969798298
 20
0.0412771120189548
 30
0.0105477008332719
 70
192
  0
VERTEX
  8
grove cross beam (7)
 10
-7.6138809273294141
 20
0.0397196734967278
 30
0.0126636927493428
 70
192
  0
VERTEX
  8
grove cross beam (7)
 10
-7.8753481088495265
 20
0.0406323364435512
 30
0.3924029274484313
 70
192
  0
VERTEX
  8
grove cross beam (7)
 10
-9.8249848810366185
 20
0.0053706815898644
 30
2.2235662911077028
 70
192
  0
VERTEX
  8
grove cross beam (7)
 10
-9.9000675456032230
 20
0.0056322602308334
 30
2.1475868534641207
 70
192
  0
VERTEX
  8
grove cross beam (7)
 10
-8.7121745741834609
 20
0.0014864899623248
 30
1.3609155710956757
 70
192
  0
VERTEX
  8
grove cross beam (7)
 10
-9.0228475927279757
 20
0.0025700727632270
 30
1.1914357406607097
 70
192
  0
VERTEX
  8
grove cross beam (7)
 10
-9.4385897096994498
 20
0.0040210806742906
 30
1.7103799542008902
 70
192
  0
VERTEX
  8
grove cross beam (7)
 10
-9.2730471640264671
 20
0.0034433645614784
 30
1.8381460508893370
 70
192
  0
VERTEX
  8
grove cross beam (7)
 10
-8.4331109026240139
 20
0.0005108565454675
 30
1.0758230454213036
 70
192
  0
VERTEX
  8
grove cross beam (7)
 10
-8.8675115069578538
 20
0.0020285734332168
 30
1.2761758895345439
 70
192
  0
VERTEX
  8
grove cross beam (7)
 10
-9.6670319025476825
 20
0.0048190181961765
 30
1.9372579346100893
 70
192
  0
VERTEX
  8
grove cross beam (7)
 10
-9.3558173562023317
 20
0.0037327483446694
 30
1.7742630025451136
 70
192
  0
VERTEX
  8
grove cross beam (7)
 10
-9.5533872947559502
 20
0.0044212177197216
 30
2.0420349333928001
 70
192
  0
VERTEX
  8
grove cross beam (7)
 10
-9.8740284145181025
 20
0.0055406668177693
 30
2.1979897995974382
 70
192
  0
VERTEX
  8
grove cross beam (7)
 10
-9.6102107669335783
 20
0.0046188912621110
 30
1.9896463755873570
 70
192
  0
VERTEX
  8
grove cross beam (7)
 10
-9.2232540609704898
 20
0.0032697576565781
 30
1.4640870002614166
 70
192
  0
VERTEX
  8
grove cross beam (7)
 10
-8.9923970297330964
 20
0.0024637589791323
 30
1.6130648878205294
 70
192
  0
VERTEX
  8
grove cross beam (7)
 10
-9.1078247859686563
 20
0.0028656484501837
 30
1.5385757103846218
 70
192
  0
VERTEX
  8
grove cross beam (7)
 10
-9.0227021414500008
 20
0.0446382631937610
 30
1.1914352733480074
 70
192
  0
VERTEX
  8
grove cross beam (7)
 10
-8.8673632518036687
 20
0.0440961797228596
 30
1.2761758895345439
 70
192
  0
VERTEX
  8
grove cross beam (7)
 10
-8.4329623700029046
 20
0.0425798647732158
 30
1.0758230454213036
 70
192
  0
VERTEX
  8
grove cross beam (7)
 10
-8.7120264358574548
 20
0.0435535121110902
 30
1.3609165057210804
 70
192
  0
VERTEX
  8
grove cross beam (7)
 10
-9.8999240804042365
 20
0.0476998665204988
 30
2.1475849842133115
 70
192
  0
VERTEX
  8
grove cross beam (7)
 10
-9.6668865680978868
 20
0.0468866244858330
 30
1.9372579346100893
 70
192
  0
VERTEX
  8
grove cross beam (7)
 10
-9.6100630959202604
 20
0.0466884836307413
 30
1.9896463755873570
 70
192
  0
VERTEX
  8
grove cross beam (7)
 10
-9.8738801593639174
 20
0.0476082731074119
 30
2.1979897995974382
 70
192
  0
VERTEX
  8
grove cross beam (7)
 10
-9.4384432069678912
 20
0.0460899720738730
 30
1.7103790195754855
 70
192
  0
VERTEX
  8
grove cross beam (7)
 10
-9.3556690426340570
 20
0.0458007051188387
 30
1.7742630025451136
 70
192
  0
VERTEX
  8
grove cross beam (7)
 10
-9.2728970396214745
 20
0.0455105035384100
 30
1.8381474528274440
 70
192
  0
VERTEX
  8
grove cross beam (7)
 10
-9.5532425444470253
 20
0.0464904596038389
 30
2.0420349333928001
 70
192
  0
VERTEX
  8
grove cross beam (7)
 10
-9.8248347566316259
 20
0.0474379373949716
 30
2.2235695622966190
 70
192
  0
VERTEX
  8
grove cross beam (7)
 10
-9.2231078503093809
 20
0.0453367798053526
 30
1.4640870002614166
 70
192
  0
VERTEX
  8
grove cross beam (7)
 10
-9.1076781079948343
 20
0.0449350071624675
 30
1.5385757103846218
 70
192
  0
VERTEX
  8
grove cross beam (7)
 10
-8.9922497092043141
 20
0.0445314820969551
 30
1.6130648878205294
 70
192
  0
VERTEX
  8
grove cross beam (7)
 10
0
 20
0
 30
0
 70
128
  71
5
  72
12
  73
39
  74
26
  0
VERTEX
  8
grove cross beam (7)
 10
0
 20
0
 30
0
 70
128
  71
5
  72
26
  73
30
  74
7
  0
VERTEX
  8
grove cross beam (7)
 10
0
 20
0
 30
0
 70
128
  71
40
  72
39
  73
12
  74
13
  0
VERTEX
  8
grove cross beam (7)
 10
0
 20
0
 30
0
 70
128
  71
12
  72
5
  73
3
  74
14
  0
VERTEX
  8
grove cross beam (7)
 10
0
 20
0
 30
0
 70
128
  71
3
  72
5
  73
7
  74
6
  0
VERTEX
  8
grove cross beam (7)
 10
0
 20
0
 30
0
 70
128
  71
13
  72
12
  73
14
  74
15
  0
VERTEX
  8
grove cross beam (7)
 10
0
 20
0
 30
0
 70
128
  71
29
  72
41
  73
16
  74
4
  0
VERTEX
  8
grove cross beam (7)
 10
0
 20
0
 30
0
 70
128
  71
6
  72
7
  73
29
  74
4
  0
VERTEX
  8
grove cross beam (7)
 10
0
 20
0
 30
0
 70
128
  71
41
  72
13
  73
15
  74
16
  0
VERTEX
  8
grove cross beam (7)
 10
0
 20
0
 30
0
 70
128
  71
29
  72
25
  73
42
  74
41
  0
VERTEX
  8
grove cross beam (7)
 10
0
 20
0
 30
0
 70
128
  71
7
  72
30
  73
25
  74
29
  0
VERTEX
  8
grove cross beam (7)
 10
0
 20
0
 30
0
 70
128
  71
42
  72
40
  73
13
  74
41
  0
VERTEX
  8
grove cross beam (7)
 10
0
 20
0
 30
0
 70
128
  71
14
  72
3
  73
8
  74
17
  0
VERTEX
  8
grove cross beam (7)
 10
0
 20
0
 30
0
 70
128
  71
8
  72
3
  73
6
  74
11
  0
VERTEX
  8
grove cross beam (7)
 10
0
 20
0
 30
0
 70
128
  71
15
  72
14
  73
17
  74
18
  0
VERTEX
  8
grove cross beam (7)
 10
0
 20
0
 30
0
 70
128
  71
8
  72
1
  73
19
  74
17
  0
VERTEX
  8
grove cross beam (7)
 10
0
 20
0
 30
0
 70
128
  71
1
  72
9
  73
20
  74
19
  0
VERTEX
  8
grove cross beam (7)
 10
0
 20
0
 30
0
 70
128
  71
1
  72
8
  73
11
  74
9
  0
VERTEX
  8
grove cross beam (7)
 10
0
 20
0
 30
0
 70
128
  71
18
  72
17
  73
19
  74
20
  0
VERTEX
  8
grove cross beam (7)
 10
0
 20
0
 30
0
 70
128
  71
20
  72
9
  73
2
  74
21
  0
VERTEX
  8
grove cross beam (7)
 10
0
 20
0
 30
0
 70
128
  71
21
  72
2
  73
10
  74
22
  0
VERTEX
  8
grove cross beam (7)
 10
0
 20
0
 30
0
 70
128
  71
9
  72
11
  73
10
  74
2
  0
VERTEX
  8
grove cross beam (7)
 10
0
 20
0
 30
0
 70
128
  71
22
  72
18
  73
20
  74
21
  0
VERTEX
  8
grove cross beam (7)
 10
0
 20
0
 30
0
 70
128
  71
22
  72
10
  73
4
  74
16
  0
VERTEX
  8
grove cross beam (7)
 10
0
 20
0
 30
0
 70
128
  71
11
  72
6
  73
4
  74
10
  0
VERTEX
  8
grove cross beam (7)
 10
0
 20
0
 30
0
 70
128
  71
16
  72
15
  73
18
  74
22
  0
VERTEX
  8
grove cross beam (7)
 10
0
 20
0
 30
0
 70
128
  71
43
  72
24
  73
31
  74
44
  0
VERTEX
  8
grove cross beam (7)
 10
0
 20
0
 30
0
 70
128
  71
34
  72
24
  73
43
  74
46
  0
VERTEX
  8
grove cross beam (7)
 10
0
 20
0
 30
0
 70
128
  71
31
  72
24
  73
34
  74
35
  0
VERTEX
  8
grove cross beam (7)
 10
0
 20
0
 30
0
 70
128
  71
46
  72
43
  73
44
  74
45
  0
VERTEX
  8
grove cross beam (7)
 10
0
 20
0
 30
0
 70
128
  71
44
  72
31
  73
27
  74
47
  0
VERTEX
  8
grove cross beam (7)
 10
0
 20
0
 30
0
 70
128
  71
27
  72
31
  73
35
  74
32
  0
VERTEX
  8
grove cross beam (7)
 10
0
 20
0
 30
0
 70
128
  71
45
  72
44
  73
47
  74
48
  0
VERTEX
  8
grove cross beam (7)
 10
0
 20
0
 30
0
 70
128
  71
49
  72
28
  73
33
  74
50
  0
VERTEX
  8
grove cross beam (7)
 10
0
 20
0
 30
0
 70
128
  71
32
  72
35
  73
33
  74
28
  0
VERTEX
  8
grove cross beam (7)
 10
0
 20
0
 30
0
 70
128
  71
50
  72
45
  73
48
  74
49
  0
VERTEX
  8
grove cross beam (7)
 10
0
 20
0
 30
0
 70
128
  71
23
  72
51
  73
50
  74
33
  0
VERTEX
  8
grove cross beam (7)
 10
0
 20
0
 30
0
 70
128
  71
51
  72
23
  73
34
  74
46
  0
VERTEX
  8
grove cross beam (7)
 10
0
 20
0
 30
0
 70
128
  71
34
  72
23
  73
33
  74
35
  0
VERTEX
  8
grove cross beam (7)
 10
0
 20
0
 30
0
 70
128
  71
50
  72
51
  73
46
  74
45
  0
VERTEX
  8
grove cross beam (7)
 10
0
 20
0
 30
0
 70
128
  71
36
  72
52
  73
47
  74
27
  0
VERTEX
  8
grove cross beam (7)
 10
0
 20
0
 30
0
 70
128
  71
36
  72
27
  73
32
  74
38
  0
VERTEX
  8
grove cross beam (7)
 10
0
 20
0
 30
0
 70
128
  71
48
  72
47
  73
52
  74
53
  0
VERTEX
  8
grove cross beam (7)
 10
0
 20
0
 30
0
 70
128
  71
52
  72
36
  73
26
  74
39
  0
VERTEX
  8
grove cross beam (7)
 10
0
 20
0
 30
0
 70
128
  71
26
  72
36
  73
38
  74
30
  0
VERTEX
  8
grove cross beam (7)
 10
0
 20
0
 30
0
 70
128
  71
53
  72
52
  73
39
  74
40
  0
VERTEX
  8
grove cross beam (7)
 10
0
 20
0
 30
0
 70
128
  71
42
  72
25
  73
37
  74
54
  0
VERTEX
  8
grove cross beam (7)
 10
0
 20
0
 30
0
 70
128
  71
30
  72
38
  73
37
  74
25
  0
VERTEX
  8
grove cross beam (7)
 10
0
 20
0
 30
0
 70
128
  71
54
  72
53
  73
40
  74
42
  0
VERTEX
  8
grove cross beam (7)
 10
0
 20
0
 30
0
 70
128
  71
28
  72
49
  73
54
  74
37
  0
VERTEX
  8
grove cross beam (7)
 10
0
 20
0
 30
0
 70
128
  71
38
  72
32
  73
28
  74
37
  0
VERTEX
  8
grove cross beam (7)
 10
0
 20
0
 30
0
 70
128
  71
49
  72
48
  73
53
  74
54
  0
SEQEND
  0
POLYLINE
  8
grove cross beam (9)
 66
1
 10
0.0
 20
0.0
 30
0.0
 70
64
 71
54
 72
52
  0
VERTEX
  8
grove cross beam (9)
 10
-13.0834431748575890
 20
0.0027104448338373
 30
0.0103871059211821
 70
192
  0
VERTEX
  8
grove cross beam (9)
 10
-12.2606778364947980
 20
-0.0001614825777061
 30
0.0117692332398457
 70
192
  0
VERTEX
  8
grove cross beam (9)
 10
-13.2328415201685450
 20
0.0032303299871415
 30
0.5192999763149196
 70
192
  0
VERTEX
  8
grove cross beam (9)
 10
-12.7488870565418150
 20
0.0015422335879136
 30
0.6816311253987174
 70
192
  0
VERTEX
  8
grove cross beam (9)
 10
-13.3674422491819270
 20
0.0037014560959472
 30
0.8002403611451080
 70
192
  0
VERTEX
  8
grove cross beam (9)
 10
-12.9908632461661600
 20
0.0023866511709438
 30
0.6004655508568185
 70
192
  0
VERTEX
  8
grove cross beam (9)
 10
-13.1840233025783040
 20
0.0030619952565201
 30
0.8862134612431633
 70
192
  0
VERTEX
  8
grove cross beam (9)
 10
-13.1457271439600130
 20
0.0029270108796564
 30
0.2593346611106080
 70
192
  0
VERTEX
  8
grove cross beam (9)
 10
-12.6635397183952810
 20
0.0012451412812506
 30
0.0098573045207780
 70
192
  0
VERTEX
  8
grove cross beam (9)
 10
-12.4968776539563610
 20
0.0006621438265100
 30
0.3548107835985599
 70
192
  0
VERTEX
  8
grove cross beam (9)
 10
-12.8213013040000860
 20
0.0017955271961996
 30
0.3070725112783288
 70
192
  0
VERTEX
  8
grove cross beam (9)
 10
-13.3673086895783100
 20
0.0417039416820477
 30
0.8002403611451080
 70
192
  0
VERTEX
  8
grove cross beam (9)
 10
-13.1838903102421480
 20
0.0410636365376165
 30
0.8862134612431633
 70
192
  0
VERTEX
  8
grove cross beam (9)
 10
-13.2327080265262180
 20
0.0412341875689024
 30
0.5192999763149196
 70
192
  0
VERTEX
  8
grove cross beam (9)
 10
-12.9907319226516000
 20
0.0403898755240022
 30
0.6004655508568185
 70
192
  0
VERTEX
  8
grove cross beam (9)
 10
-12.7487537343989420
 20
0.0395461967078070
 30
0.6816314947821639
 70
192
  0
VERTEX
  8
grove cross beam (9)
 10
-13.1455958995990460
 20
0.0409303407708448
 30
0.2593346611106080
 70
192
  0
VERTEX
  8
grove cross beam (9)
 10
-12.8211700926198200
 20
0.0397975906298580
 30
0.3070725112783288
 70
192
  0
VERTEX
  8
grove cross beam (9)
 10
-13.0833111455568200
 20
0.0407130359581098
 30
0.0103866845931884
 70
192
  0
VERTEX
  8
grove cross beam (9)
 10
-12.6634066337132630
 20
0.0392467825623444
 30
0.0098573045207780
 70
192
  0
VERTEX
  8
grove cross beam (9)
 10
-12.2605449101199680
 20
0.0378402642415199
 30
0.0117688102628188
 70
192
  0
VERTEX
  8
grove cross beam (9)
 10
-12.4967440943527440
 20
0.0386646294126107
 30
0.3548107835985599
 70
192
  0
VERTEX
  8
grove cross beam (9)
 10
-14.2579705421548170
 20
0.0068111628760010
 30
2.0090140759123871
 70
192
  0
VERTEX
  8
grove cross beam (9)
 10
-14.3257991579706570
 20
0.0070469370219937
 30
1.9403771435706405
 70
192
  0
VERTEX
  8
grove cross beam (9)
 10
-13.2527006428236780
 20
0.0033019909522531
 30
1.2297282462149370
 70
192
  0
VERTEX
  8
grove cross beam (9)
 10
-13.5333511407735400
 20
0.0042810763087417
 30
1.0766266174634369
 70
192
  0
VERTEX
  8
grove cross beam (9)
 10
-13.9089163775166450
 20
0.0055918707554687
 30
1.5454210699965687
 70
192
  0
VERTEX
  8
grove cross beam (9)
 10
-13.7593716475247480
 20
0.0050696637591088
 30
1.6608400992227574
 70
192
  0
VERTEX
  8
grove cross beam (9)
 10
-13.0006048539827840
 20
0.0024203181164284
 30
0.9721865085721547
 70
192
  0
VERTEX
  8
grove cross beam (9)
 10
-13.3930258522218110
 20
0.0037914808614326
 30
1.1531776429154421
 70
192
  0
VERTEX
  8
grove cross beam (9)
 10
-14.1152827826176730
 20
0.0063130187717784
 30
1.7503740029759784
 70
192
  0
VERTEX
  8
grove cross beam (9)
 10
-13.8341436695217720
 20
0.0053310838716614
 30
1.6031305846096631
 70
192
  0
VERTEX
  8
grove cross beam (9)
 10
-14.0126209911864060
 20
0.0059529197003336
 30
1.8450255560732218
 70
192
  0
VERTEX
  8
grove cross beam (9)
 10
-14.3022741816469240
 20
0.0069651442902188
 30
1.9859092468721373
 70
192
  0
VERTEX
  8
grove cross beam (9)
 10
-14.0639532588977370
 20
0.0061315972404374
 30
1.7976997267555364
 70
192
  0
VERTEX
  8
grove cross beam (9)
 10
-13.7143908226371880
 20
0.0049121995670229
 30
1.3229293888249787
 70
192
  0
VERTEX
  8
grove cross beam (9)
 10
-13.5058437359754140
 20
0.0041848247378835
 30
1.4575103426453824
 70
192
  0
VERTEX
  8
grove cross beam (9)
 10
-13.6101169363073960
 20
0.0045481955380606
 30
1.3902196546589254
 70
192
  0
VERTEX
  8
grove cross beam (9)
 10
-13.5332197447015530
 20
0.0422830342042673
 30
1.0766260897727991
 70
192
  0
VERTEX
  8
grove cross beam (9)
 10
-13.3928929522315110
 20
0.0417933332187868
 30
1.1531776429154421
 70
192
  0
VERTEX
  8
grove cross beam (9)
 10
-13.0004713570423910
 20
0.0404241756981891
 30
0.9721865085721547
 70
192
  0
VERTEX
  8
grove cross beam (9)
 10
-13.2525676372952560
 20
0.0413036322333493
 30
1.2297290905199576
 70
192
  0
VERTEX
  8
grove cross beam (9)
 10
-14.3256686062036710
 20
0.0450496336844368
 30
1.9403754549605994
 70
192
  0
VERTEX
  8
grove cross beam (9)
 10
-14.1151513865456870
 20
0.0443149766673039
 30
1.7503740029759784
 70
192
  0
VERTEX
  8
grove cross beam (9)
 10
-14.0638192243724860
 20
0.0441361935890756
 30
1.7976997267555364
 70
192
  0
VERTEX
  8
grove cross beam (9)
 10
-14.3021419412699440
 20
0.0449661523425717
 30
1.9859092468721373
 70
192
  0
VERTEX
  8
grove cross beam (9)
 10
-13.9087851397518140
 20
0.0435950951085298
 30
1.5454202256915481
 70
192
  0
VERTEX
  8
grove cross beam (9)
 10
-13.8340100043800320
 20
0.0433334639196314
 30
1.6031305846096631
 70
192
  0
VERTEX
  8
grove cross beam (9)
 10
-13.7592365048492220
 20
0.0430720438070358
 30
1.6608414712184159
 70
192
  0
VERTEX
  8
grove cross beam (9)
 10
-14.0124890674237260
 20
0.0439568828202677
 30
1.8450255560732218
 70
192
  0
VERTEX
  8
grove cross beam (9)
 10
-14.2578359799390170
 20
0.0448126986189243
 30
2.0090172420562142
 70
192
  0
VERTEX
  8
grove cross beam (9)
 10
-13.7142587933364180
 20
0.0429147906912954
 30
1.3229293888249787
 70
192
  0
VERTEX
  8
grove cross beam (9)
 10
-13.6099840627015900
 20
0.0425513143529466
 30
1.3902196546589254
 70
192
  0
VERTEX
  8
grove cross beam (9)
 10
-13.5057101763717990
 20
0.0421873103239840
 30
1.4575103426453824
 70
192
  0
VERTEX
  8
grove cross beam (9)
 10
0
 20
0
 30
0
 70
128
  71
12
  72
39
  73
26
  74
5
  0
VERTEX
  8
grove cross beam (9)
 10
0
 20
0
 30
0
 70
128
  71
5
  72
26
  73
30
  74
7
  0
VERTEX
  8
grove cross beam (9)
 10
0
 20
0
 30
0
 70
128
  71
40
  72
39
  73
12
  74
13
  0
VERTEX
  8
grove cross beam (9)
 10
0
 20
0
 30
0
 70
128
  71
12
  72
5
  73
3
  74
14
  0
VERTEX
  8
grove cross beam (9)
 10
0
 20
0
 30
0
 70
128
  71
3
  72
5
  73
7
  74
6
  0
VERTEX
  8
grove cross beam (9)
 10
0
 20
0
 30
0
 70
128
  71
13
  72
12
  73
14
  74
15
  0
VERTEX
  8
grove cross beam (9)
 10
0
 20
0
 30
0
 70
128
  71
29
  72
41
  73
16
  74
4
  0
VERTEX
  8
grove cross beam (9)
 10
0
 20
0
 30
0
 70
128
  71
6
  72
7
  73
29
  74
4
  0
VERTEX
  8
grove cross beam (9)
 10
0
 20
0
 30
0
 70
128
  71
41
  72
13
  73
15
  74
16
  0
VERTEX
  8
grove cross beam (9)
 10
0
 20
0
 30
0
 70
128
  71
29
  72
25
  73
42
  74
41
  0
VERTEX
  8
grove cross beam (9)
 10
0
 20
0
 30
0
 70
128
  71
7
  72
30
  73
25
  74
29
  0
VERTEX
  8
grove cross beam (9)
 10
0
 20
0
 30
0
 70
128
  71
42
  72
40
  73
13
  74
41
  0
VERTEX
  8
grove cross beam (9)
 10
0
 20
0
 30
0
 70
128
  71
8
  72
17
  73
14
  74
3
  0
VERTEX
  8
grove cross beam (9)
 10
0
 20
0
 30
0
 70
128
  71
8
  72
3
  73
6
  74
11
  0
VERTEX
  8
grove cross beam (9)
 10
0
 20
0
 30
0
 70
128
  71
15
  72
14
  73
17
  74
18
  0
VERTEX
  8
grove cross beam (9)
 10
0
 20
0
 30
0
 70
128
  71
8
  72
1
  73
19
  74
17
  0
VERTEX
  8
grove cross beam (9)
 10
0
 20
0
 30
0
 70
128
  71
1
  72
9
  73
20
  74
19
  0
VERTEX
  8
grove cross beam (9)
 10
0
 20
0
 30
0
 70
128
  71
1
  72
8
  73
11
  74
9
  0
VERTEX
  8
grove cross beam (9)
 10
0
 20
0
 30
0
 70
128
  71
18
  72
17
  73
19
  74
20
  0
VERTEX
  8
grove cross beam (9)
 10
0
 20
0
 30
0
 70
128
  71
21
  72
20
  73
9
  74
2
  0
VERTEX
  8
grove cross beam (9)
 10
0
 20
0
 30
0
 70
128
  71
21
  72
2
  73
10
  74
22
  0
VERTEX
  8
grove cross beam (9)
 10
0
 20
0
 30
0
 70
128
  71
9
  72
11
  73
10
  74
2
  0
VERTEX
  8
grove cross beam (9)
 10
0
 20
0
 30
0
 70
128
  71
22
  72
18
  73
20
  74
21
  0
VERTEX
  8
grove cross beam (9)
 10
0
 20
0
 30
0
 70
128
  71
22
  72
10
  73
4
  74
16
  0
VERTEX
  8
grove cross beam (9)
 10
0
 20
0
 30
0
 70
128
  71
11
  72
6
  73
4
  74
10
  0
VERTEX
  8
grove cross beam (9)
 10
0
 20
0
 30
0
 70
128
  71
16
  72
15
  73
18
  74
22
  0
VERTEX
  8
grove cross beam (9)
 10
0
 20
0
 30
0
 70
128
  71
24
  72
31
  73
44
  74
43
  0
VERTEX
  8
grove cross beam (9)
 10
0
 20
0
 30
0
 70
128
  71
46
  72
34
  73
24
  74
43
  0
VERTEX
  8
grove cross beam (9)
 10
0
 20
0
 30
0
 70
128
  71
31
  72
24
  73
34
  74
35
  0
VERTEX
  8
grove cross beam (9)
 10
0
 20
0
 30
0
 70
128
  71
46
  72
43
  73
44
  74
45
  0
VERTEX
  8
grove cross beam (9)
 10
0
 20
0
 30
0
 70
128
  71
47
  72
44
  73
31
  74
27
  0
VERTEX
  8
grove cross beam (9)
 10
0
 20
0
 30
0
 70
128
  71
27
  72
31
  73
35
  74
32
  0
VERTEX
  8
grove cross beam (9)
 10
0
 20
0
 30
0
 70
128
  71
45
  72
44
  73
47
  74
48
  0
VERTEX
  8
grove cross beam (9)
 10
0
 20
0
 30
0
 70
128
  71
49
  72
28
  73
33
  74
50
  0
VERTEX
  8
grove cross beam (9)
 10
0
 20
0
 30
0
 70
128
  71
32
  72
35
  73
33
  74
28
  0
VERTEX
  8
grove cross beam (9)
 10
0
 20
0
 30
0
 70
128
  71
50
  72
45
  73
48
  74
49
  0
VERTEX
  8
grove cross beam (9)
 10
0
 20
0
 30
0
 70
128
  71
23
  72
51
  73
50
  74
33
  0
VERTEX
  8
grove cross beam (9)
 10
0
 20
0
 30
0
 70
128
  71
23
  72
34
  73
46
  74
51
  0
VERTEX
  8
grove cross beam (9)
 10
0
 20
0
 30
0
 70
128
  71
34
  72
23
  73
33
  74
35
  0
VERTEX
  8
grove cross beam (9)
 10
0
 20
0
 30
0
 70
128
  71
50
  72
51
  73
46
  74
45
  0
VERTEX
  8
grove cross beam (9)
 10
0
 20
0
 30
0
 70
128
  71
36
  72
52
  73
47
  74
27
  0
VERTEX
  8
grove cross beam (9)
 10
0
 20
0
 30
0
 70
128
  71
36
  72
27
  73
32
  74
38
  0
VERTEX
  8
grove cross beam (9)
 10
0
 20
0
 30
0
 70
128
  71
48
  72
47
  73
52
  74
53
  0
VERTEX
  8
grove cross beam (9)
 10
0
 20
0
 30
0
 70
128
  71
36
  72
26
  73
39
  74
52
  0
VERTEX
  8
grove cross beam (9)
 10
0
 20
0
 30
0
 70
128
  71
26
  72
36
  73
38
  74
30
  0
VERTEX
  8
grove cross beam (9)
 10
0
 20
0
 30
0
 70
128
  71
53
  72
52
  73
39
  74
40
  0
VERTEX
  8
grove cross beam (9)
 10
0
 20
0
 30
0
 70
128
  71
54
  72
42
  73
25
  74
37
  0
VERTEX
  8
grove cross beam (9)
 10
0
 20
0
 30
0
 70
128
  71
30
  72
38
  73
37
  74
25
  0
VERTEX
  8
grove cross beam (9)
 10
0
 20
0
 30
0
 70
128
  71
54
  72
53
  73
40
  74
42
  0
VERTEX
  8
grove cross beam (9)
 10
0
 20
0
 30
0
 70
128
  71
28
  72
49
  73
54
  74
37
  0
VERTEX
  8
grove cross beam (9)
 10
0
 20
0
 30
0
 70
128
  71
38
  72
32
  73
28
  74
37
  0
VERTEX
  8
grove cross beam (9)
 10
0
 20
0
 30
0
 70
128
  71
49
  72
48
  73
53
  74
54
  0
SEQEND
  0
POLYLINE
  8
grove cross beam (10)
 66
1
 10
0.0
 20
0.0
 30
0.0
 70
64
 71
54
 72
52
  0
VERTEX
  8
grove cross beam (10)
 10
-14.9846168380485580
 20
0.0059454950470751
 30
0.0104290022804807
 70
192
  0
VERTEX
  8
grove cross beam (10)
 10
-14.3799386000023490
 20
0.0074950806865735
 30
0.0115987050406179
 70
192
  0
VERTEX
  8
grove cross beam (10)
 10
-15.0944145884724200
 20
0.0056630459486150
 30
0.4411250612690726
 70
192
  0
VERTEX
  8
grove cross beam (10)
 10
-14.7387405558185640
 20
0.0065749624639924
 30
0.5785069005363500
 70
192
  0
VERTEX
  8
grove cross beam (10)
 10
-15.1933372473691260
 20
0.0054114193993434
 30
0.6788866631537186
 70
192
  0
VERTEX
  8
grove cross beam (10)
 10
-14.9165769848563380
 20
0.0061189046239682
 30
0.5098159809027113
 70
192
  0
VERTEX
  8
grove cross beam (10)
 10
-15.0585367066927170
 20
0.0057571617083506
 30
0.7516461762609193
 70
192
  0
VERTEX
  8
grove cross beam (10)
 10
-15.0303916060635580
 20
0.0058281375028472
 30
0.2211148331025147
 70
192
  0
VERTEX
  8
grove cross beam (10)
 10
-14.6760155998772210
 20
0.0067365371231077
 30
0.0099806281314361
 70
192
  0
VERTEX
  8
grove cross beam (10)
 10
-14.5535299596962060
 20
0.0070497001612442
 30
0.3019168565436946
 70
192
  0
VERTEX
  8
grove cross beam (10)
 10
-14.7919600376744850
 20
0.0064397098049233
 30
0.2615156661879855
 70
192
  0
VERTEX
  8
grove cross beam (10)
 10
-15.1920088860400020
 20
0.0374515105450565
 30
0.6788865738361590
 70
192
  0
VERTEX
  8
grove cross beam (10)
 10
-15.0572086695683250
 20
0.0377954718897755
 30
0.7516461762609193
 70
192
  0
VERTEX
  8
grove cross beam (10)
 10
-15.0930861286623370
 20
0.0377051006609697
 30
0.4411250612690726
 70
192
  0
VERTEX
  8
grove cross beam (10)
 10
-14.9152497052060620
 20
0.0381611585984192
 30
0.5098159809027113
 70
192
  0
VERTEX
  8
grove cross beam (10)
 10
-14.7374121972801890
 20
0.0386150536584182
 30
0.5785073024653681
 70
192
  0
VERTEX
  8
grove cross beam (10)
 10
-15.0290646493860700
 20
0.0378685211603412
 30
0.2211148331025147
 70
192
  0
VERTEX
  8
grove cross beam (10)
 10
-14.7906331807098980
 20
0.0384782192484446
 30
0.2615156661879855
 70
192
  0
VERTEX
  8
grove cross beam (10)
 10
-14.9832896596699870
 20
0.0379857855035972
 30
0.0104286450102424
 70
192
  0
VERTEX
  8
grove cross beam (10)
 10
-14.6746872413388460
 20
0.0387766283175335
 30
0.0099806281314361
 70
192
  0
VERTEX
  8
grove cross beam (10)
 10
-14.3786103188508850
 20
0.0395332972773249
 30
0.0115983477703796
 70
192
  0
VERTEX
  8
grove cross beam (10)
 10
-14.5522013332459630
 20
0.0390897866792509
 30
0.3019168565436946
 70
192
  0
VERTEX
  8
grove cross beam (10)
 10
-15.8478170515602860
 20
0.0037359741507749
 30
1.7018791687844936
 70
192
  0
VERTEX
  8
grove cross beam (10)
 10
-15.8976664515142790
 20
0.0036069295815161
 30
1.6437913152826054
 70
192
  0
VERTEX
  8
grove cross beam (10)
 10
-15.1090100297930160
 20
0.0056277520313130
 30
1.0423648290966978
 70
192
  0
VERTEX
  8
grove cross beam (10)
 10
-15.3152694860434340
 20
0.0050994057729578
 30
0.9127939890489923
 70
192
  0
VERTEX
  8
grove cross beam (10)
 10
-15.5912852137041220
 20
0.0043923243189191
 30
1.3095376761960222
 70
192
  0
VERTEX
  8
grove cross beam (10)
 10
-15.4813797732184990
 20
0.0046732510050196
 30
1.4072175029639096
 70
192
  0
VERTEX
  8
grove cross beam (10)
 10
-14.9237362517754630
 20
0.0061010295598215
 30
0.8244056893681201
 70
192
  0
VERTEX
  8
grove cross beam (10)
 10
-15.2121400394068120
 20
0.0053626458383030
 30
0.9775795877079642
 70
192
  0
VERTEX
  8
grove cross beam (10)
 10
-15.7429510600778620
 20
0.0040048138414721
 30
1.4829905012134643
 70
192
  0
VERTEX
  8
grove cross beam (10)
 10
-15.5363317522786040
 20
0.0045336680362286
 30
1.3583775002624063
 70
192
  0
VERTEX
  8
grove cross beam (10)
 10
-15.6675012927750290
 20
0.0041964579712629
 30
1.5630946865617188
 70
192
  0
VERTEX
  8
grove cross beam (10)
 10
-15.8803777259669570
 20
0.0036514906818084
 30
1.6823254113730497
 70
192
  0
VERTEX
  8
grove cross beam (10)
 10
-15.7052269666861990
 20
0.0040988630770999
 30
1.5230425492288118
 70
192
  0
VERTEX
  8
grove cross beam (10)
 10
-15.4483213672342540
 20
0.0047590516274785
 30
1.1212416125413325
 70
192
  0
VERTEX
  8
grove cross beam (10)
 10
-15.2950533602160110
 20
0.0051507555063005
 30
1.2351382926951044
 70
192
  0
VERTEX
  8
grove cross beam (10)
 10
-15.3716875870103760
 20
0.0049529868442975
 30
1.1781895953479802
 70
192
  0
VERTEX
  8
grove cross beam (10)
 10
-15.3139426290788490
 20
0.0371379152164790
 30
0.9127936317787541
 70
192
  0
VERTEX
  8
grove cross beam (10)
 10
-15.2108116765188800
 20
0.0374028262879723
 30
0.9775796770255237
 70
192
  0
VERTEX
  8
grove cross beam (10)
 10
-14.9224081372641600
 20
0.0381412143449208
 30
0.8244056893681201
 70
192
  0
VERTEX
  8
grove cross beam (10)
 10
-15.1076816696958320
 20
0.0376679325296950
 30
1.0423655436371744
 70
192
  0
VERTEX
  8
grove cross beam (10)
 10
-15.8963404517367090
 20
0.0356475086040905
 30
1.6437898862016522
 70
192
  0
VERTEX
  8
grove cross beam (10)
 10
-15.7416242031132770
 20
0.0360433232849934
 30
1.4829905012134643
 70
192
  0
VERTEX
  8
grove cross beam (10)
 10
-15.7038984845501290
 20
0.0361409173997531
 30
1.5230425492288118
 70
192
  0
VERTEX
  8
grove cross beam (10)
 10
-15.8790497127273600
 20
0.0356897119489789
 30
1.6823254113730497
 70
192
  0
VERTEX
  8
grove cross beam (10)
 10
-15.5899582777938170
 20
0.0364327976700708
 30
1.3095369616555457
 70
192
  0
VERTEX
  8
grove cross beam (10)
 10
-15.5350037167130190
 20
0.0365718889136974
 30
1.3583775002624063
 70
192
  0
VERTEX
  8
grove cross beam (10)
 10
-15.4800500112604290
 20
0.0367131390403334
 30
1.4072185747746244
 70
192
  0
VERTEX
  8
grove cross beam (10)
 10
-15.6661740920704700
 20
0.0362367480380834
 30
1.5630946865617188
 70
192
  0
VERTEX
  8
grove cross beam (10)
 10
-15.8464878804868740
 20
0.0357739965455507
 30
1.7018816696761616
 70
192
  0
VERTEX
  8
grove cross beam (10)
 10
-15.4469945102696670
 20
0.0367975610709996
 30
1.1212416125413325
 70
192
  0
VERTEX
  8
grove cross beam (10)
 10
-15.3703591272002940
 20
0.0369950415566521
 30
1.1781895953479802
 70
192
  0
VERTEX
  8
grove cross beam (10)
 10
-15.2937250016776360
 20
0.0371908467007265
 30
1.2351382926951044
 70
192
  0
VERTEX
  8
grove cross beam (10)
 10
0
 20
0
 30
0
 70
128
  71
12
  72
39
  73
26
  74
5
  0
VERTEX
  8
grove cross beam (10)
 10
0
 20
0
 30
0
 70
128
  71
5
  72
26
  73
30
  74
7
  0
VERTEX
  8
grove cross beam (10)
 10
0
 20
0
 30
0
 70
128
  71
40
  72
39
  73
12
  74
13
  0
VERTEX
  8
grove cross beam (10)
 10
0
 20
0
 30
0
 70
128
  71
14
  72
12
  73
5
  74
3
  0
VERTEX
  8
grove cross beam (10)
 10
0
 20
0
 30
0
 70
128
  71
3
  72
5
  73
7
  74
6
  0
VERTEX
  8
grove cross beam (10)
 10
0
 20
0
 30
0
 70
128
  71
13
  72
12
  73
14
  74
15
  0
VERTEX
  8
grove cross beam (10)
 10
0
 20
0
 30
0
 70
128
  71
41
  72
16
  73
4
  74
29
  0
VERTEX
  8
grove cross beam (10)
 10
0
 20
0
 30
0
 70
128
  71
6
  72
7
  73
29
  74
4
  0
VERTEX
  8
grove cross beam (10)
 10
0
 20
0
 30
0
 70
128
  71
41
  72
13
  73
15
  74
16
  0
VERTEX
  8
grove cross beam (10)
 10
0
 20
0
 30
0
 70
128
  71
41
  72
29
  73
25
  74
42
  0
VERTEX
  8
grove cross beam (10)
 10
0
 20
0
 30
0
 70
128
  71
7
  72
30
  73
25
  74
29
  0
VERTEX
  8
grove cross beam (10)
 10
0
 20
0
 30
0
 70
128
  71
42
  72
40
  73
13
  74
41
  0
VERTEX
  8
grove cross beam (10)
 10
0
 20
0
 30
0
 70
128
  71
8
  72
17
  73
14
  74
3
  0
VERTEX
  8
grove cross beam (10)
 10
0
 20
0
 30
0
 70
128
  71
8
  72
3
  73
6
  74
11
  0
VERTEX
  8
grove cross beam (10)
 10
0
 20
0
 30
0
 70
128
  71
15
  72
14
  73
17
  74
18
  0
VERTEX
  8
grove cross beam (10)
 10
0
 20
0
 30
0
 70
128
  71
8
  72
1
  73
19
  74
17
  0
VERTEX
  8
grove cross beam (10)
 10
0
 20
0
 30
0
 70
128
  71
1
  72
9
  73
20
  74
19
  0
VERTEX
  8
grove cross beam (10)
 10
0
 20
0
 30
0
 70
128
  71
1
  72
8
  73
11
  74
9
  0
VERTEX
  8
grove cross beam (10)
 10
0
 20
0
 30
0
 70
128
  71
18
  72
17
  73
19
  74
20
  0
VERTEX
  8
grove cross beam (10)
 10
0
 20
0
 30
0
 70
128
  71
9
  72
2
  73
21
  74
20
  0
VERTEX
  8
grove cross beam (10)
 10
0
 20
0
 30
0
 70
128
  71
21
  72
2
  73
10
  74
22
  0
VERTEX
  8
grove cross beam (10)
 10
0
 20
0
 30
0
 70
128
  71
9
  72
11
  73
10
  74
2
  0
VERTEX
  8
grove cross beam (10)
 10
0
 20
0
 30
0
 70
128
  71
22
  72
18
  73
20
  74
21
  0
VERTEX
  8
grove cross beam (10)
 10
0
 20
0
 30
0
 70
128
  71
22
  72
10
  73
4
  74
16
  0
VERTEX
  8
grove cross beam (10)
 10
0
 20
0
 30
0
 70
128
  71
11
  72
6
  73
4
  74
10
  0
VERTEX
  8
grove cross beam (10)
 10
0
 20
0
 30
0
 70
128
  71
16
  72
15
  73
18
  74
22
  0
VERTEX
  8
grove cross beam (10)
 10
0
 20
0
 30
0
 70
128
  71
31
  72
44
  73
43
  74
24
  0
VERTEX
  8
grove cross beam (10)
 10
0
 20
0
 30
0
 70
128
  71
46
  72
34
  73
24
  74
43
  0
VERTEX
  8
grove cross beam (10)
 10
0
 20
0
 30
0
 70
128
  71
31
  72
24
  73
34
  74
35
  0
VERTEX
  8
grove cross beam (10)
 10
0
 20
0
 30
0
 70
128
  71
46
  72
43
  73
44
  74
45
  0
VERTEX
  8
grove cross beam (10)
 10
0
 20
0
 30
0
 70
128
  71
44
  72
31
  73
27
  74
47
  0
VERTEX
  8
grove cross beam (10)
 10
0
 20
0
 30
0
 70
128
  71
27
  72
31
  73
35
  74
32
  0
VERTEX
  8
grove cross beam (10)
 10
0
 20
0
 30
0
 70
128
  71
45
  72
44
  73
47
  74
48
  0
VERTEX
  8
grove cross beam (10)
 10
0
 20
0
 30
0
 70
128
  71
49
  72
28
  73
33
  74
50
  0
VERTEX
  8
grove cross beam (10)
 10
0
 20
0
 30
0
 70
128
  71
32
  72
35
  73
33
  74
28
  0
VERTEX
  8
grove cross beam (10)
 10
0
 20
0
 30
0
 70
128
  71
50
  72
45
  73
48
  74
49
  0
VERTEX
  8
grove cross beam (10)
 10
0
 20
0
 30
0
 70
128
  71
23
  72
51
  73
50
  74
33
  0
VERTEX
  8
grove cross beam (10)
 10
0
 20
0
 30
0
 70
128
  71
51
  72
23
  73
34
  74
46
  0
VERTEX
  8
grove cross beam (10)
 10
0
 20
0
 30
0
 70
128
  71
34
  72
23
  73
33
  74
35
  0
VERTEX
  8
grove cross beam (10)
 10
0
 20
0
 30
0
 70
128
  71
50
  72
51
  73
46
  74
45
  0
VERTEX
  8
grove cross beam (10)
 10
0
 20
0
 30
0
 70
128
  71
36
  72
52
  73
47
  74
27
  0
VERTEX
  8
grove cross beam (10)
 10
0
 20
0
 30
0
 70
128
  71
36
  72
27
  73
32
  74
38
  0
VERTEX
  8
grove cross beam (10)
 10
0
 20
0
 30
0
 70
128
  71
48
  72
47
  73
52
  74
53
  0
VERTEX
  8
grove cross beam (10)
 10
0
 20
0
 30
0
 70
128
  71
36
  72
26
  73
39
  74
52
  0
VERTEX
  8
grove cross beam (10)
 10
0
 20
0
 30
0
 70
128
  71
26
  72
36
  73
38
  74
30
  0
VERTEX
  8
grove cross beam (10)
 10
0
 20
0
 30
0
 70
128
  71
53
  72
52
  73
39
  74
40
  0
VERTEX
  8
grove cross beam (10)
 10
0
 20
0
 30
0
 70
128
  71
37
  72
54
  73
42
  74
25
  0
VERTEX
  8
grove cross beam (10)
 10
0
 20
0
 30
0
 70
128
  71
30
  72
38
  73
37
  74
25
  0
VERTEX
  8
grove cross beam (10)
 10
0
 20
0
 30
0
 70
128
  71
54
  72
53
  73
40
  74
42
  0
VERTEX
  8
grove cross beam (10)
 10
0
 20
0
 30
0
 70
128
  71
28
  72
49
  73
54
  74
37
  0
VERTEX
  8
grove cross beam (10)
 10
0
 20
0
 30
0
 70
128
  71
38
  72
32
  73
28
  74
37
  0
VERTEX
  8
grove cross beam (10)
 10
0
 20
0
 30
0
 70
128
  71
49
  72
48
  73
53
  74
54
  0
SEQEND
  0
POLYLINE
  8
grove cross beam (11)
 66
1
 10
0.0
 20
0.0
 30
0.0
 70
64
 71
54
 72
52
  0
VERTEX
  8
grove cross beam (11)
 10
-15.7073192522289970
 20
0.0009735819741425
 30
0.0099562851539739
 70
192
  0
VERTEX
  8
grove cross beam (11)
 10
-15.2029021158004230
 20
0.0031864890054774
 30
0.0110100714503554
 70
192
  0
VERTEX
  8
grove cross beam (11)
 10
-15.7989117956609370
 20
0.0005714189768564
 30
0.3979707622801848
 70
192
  0
VERTEX
  8
grove cross beam (11)
 10
-15.5022109966399790
 20
0.0018715935381747
 30
0.5217381880957569
 70
192
  0
VERTEX
  8
grove cross beam (11)
 10
-15.8814324217071330
 20
0.0002109118466658
 30
0.6121704089001342
 70
192
  0
VERTEX
  8
grove cross beam (11)
 10
-15.6505607958584090
 20
0.0012225319940105
 30
0.4598544751879709
 70
192
  0
VERTEX
  8
grove cross beam (11)
 10
-15.7689827258401750
 20
0.0007026821635860
 30
0.6777195214240451
 70
192
  0
VERTEX
  8
grove cross beam (11)
 10
-15.7455042622069530
 20
0.0008048575873768
 30
0.1997633446294779
 70
192
  0
VERTEX
  8
grove cross beam (11)
 10
-15.4498867538172020
 20
0.0021026843466270
 30
0.0095523444691972
 70
192
  0
VERTEX
  8
grove cross beam (11)
 10
-15.3477096305754600
 20
0.0025495575069987
 30
0.2725579420208907
 70
192
  0
VERTEX
  8
grove cross beam (11)
 10
-15.5466064788510410
 20
0.0016781976618208
 30
0.2361604924509246
 70
192
  0
VERTEX
  8
grove cross beam (11)
 10
-15.8816034179061830
 20
0.0291840407376880
 30
0.6121704089001342
 70
192
  0
VERTEX
  8
grove cross beam (11)
 10
-15.7691537212517260
 20
0.0296758915424278
 30
0.6777195214240451
 70
192
  0
VERTEX
  8
grove cross beam (11)
 10
-15.7990825526257730
 20
0.0295446200289555
 30
0.3979707622801848
 70
192
  0
VERTEX
  8
grove cross beam (11)
 10
-15.6507329742615240
 20
0.0301975540208598
 30
0.4598544751879709
 70
192
  0
VERTEX
  8
grove cross beam (11)
 10
-15.5023819731515890
 20
0.0308467346246870
 30
0.5217385099608444
 70
192
  0
VERTEX
  8
grove cross beam (11)
 10
-15.7456764353353640
 20
0.0297797989147097
 30
0.1997633446294779
 70
192
  0
VERTEX
  8
grove cross beam (11)
 10
-15.5467788863846950
 20
0.0306531471747652
 30
0.2361604924509246
 70
192
  0
VERTEX
  8
grove cross beam (11)
 10
-15.7074911908779920
 20
0.0299466632609223
 30
0.0099559632888864
 70
192
  0
VERTEX
  8
grove cross beam (11)
 10
-15.4500577303288140
 20
0.0310778254331393
 30
0.0095523444691972
 70
192
  0
VERTEX
  8
grove cross beam (11)
 10
-15.2030728714578520
 20
0.0321577576442497
 30
0.0110097489566252
 70
192
  0
VERTEX
  8
grove cross beam (11)
 10
-15.3478808334093750
 20
0.0315247064968602
 30
0.2725579420208907
 70
192
  0
VERTEX
  8
grove cross beam (11)
 10
-16.4273944746081430
 20
-0.0021835823230610
 30
1.5337853015659422
 70
192
  0
VERTEX
  8
grove cross beam (11)
 10
-16.4689782059652430
 20
-0.0023661489600819
 30
1.4814539007241339
 70
192
  0
VERTEX
  8
grove cross beam (11)
 10
-15.8110871609168540
 20
0.0005177674946255
 30
0.9396282241314894
 70
192
  0
VERTEX
  8
grove cross beam (11)
 10
-15.9831475188382580
 20
-0.0002350263732536
 30
0.8228977347233056
 70
192
  0
VERTEX
  8
grove cross beam (11)
 10
-16.2133974371055490
 20
-0.0012472620139988
 30
1.1803244082491278
 70
192
  0
VERTEX
  8
grove cross beam (11)
 10
-16.1217152218994710
 20
-0.0008437215661685
 30
1.2683242543543474
 70
192
  0
VERTEX
  8
grove cross beam (11)
 10
-15.6565330271649850
 20
0.0011945328977601
 30
0.7432686339479561
 70
192
  0
VERTEX
  8
grove cross beam (11)
 10
-15.8971172260997860
 20
0.0001413263298189
 30
0.8812631403599412
 70
192
  0
VERTEX
  8
grove cross beam (11)
 10
-16.3399163223622390
 20
-0.0018004630805311
 30
1.3365882988910800
 70
192
  0
VERTEX
  8
grove cross beam (11)
 10
-16.1675561893584780
 20
-0.0010435643163501
 30
1.2243243313017376
 70
192
  0
VERTEX
  8
grove cross beam (11)
 10
-16.2769764934400700
 20
-0.0015246981733293
 30
1.4087542334169572
 70
192
  0
VERTEX
  8
grove cross beam (11)
 10
-16.4545564765398670
 20
-0.0023037441520531
 30
1.5161693034635422
 70
192
  0
VERTEX
  8
grove cross beam (11)
 10
-16.3084466221957600
 20
-0.0016645457689285
 30
1.3726712259208826
 70
192
  0
VERTEX
  8
grove cross beam (11)
 10
-16.0941382361488970
 20
-0.0007225923500891
 30
1.0106883106830866
 70
192
  0
VERTEX
  8
grove cross beam (11)
 10
-15.9662831334798680
 20
-0.0001629129128516
 30
1.1132979349737229
 70
192
  0
VERTEX
  8
grove cross beam (11)
 10
-16.0302106848143850
 20
-0.0004427526314703
 30
1.0619928814295891
 70
192
  0
VERTEX
  8
grove cross beam (11)
 10
-15.9833194655701920
 20
0.0287380551957889
 30
0.8228974128582182
 70
192
  0
VERTEX
  8
grove cross beam (11)
 10
-15.8972886903959960
 20
0.0291164039348253
 30
0.8812631403599412
 70
192
  0
VERTEX
  8
grove cross beam (11)
 10
-15.6567042624048300
 20
0.0301715348716128
 30
0.7432686339479561
 70
192
  0
VERTEX
  8
grove cross beam (11)
 10
-15.8112583908078200
 20
0.0294928369140204
 30
0.9396288678616643
 70
192
  0
VERTEX
  8
grove cross beam (11)
 10
-16.4691512980081070
 20
0.0266068115734601
 30
1.4814526132637840
 70
192
  0
VERTEX
  8
grove cross beam (11)
 10
-16.3400880185230480
 20
0.0271726097383749
 30
1.3365882988910800
 70
192
  0
VERTEX
  8
grove cross beam (11)
 10
-16.3086176310391270
 20
0.0273105964466338
 30
1.3726712259208826
 70
192
  0
VERTEX
  8
grove cross beam (11)
 10
-16.4547277468455310
 20
0.0266713266786539
 30
1.5161693034635422
 70
192
  0
VERTEX
  8
grove cross beam (11)
 10
-16.2135695859851410
 20
0.0277276784665466
 30
1.1803236840526810
 70
192
  0
VERTEX
  8
grove cross beam (11)
 10
-16.1677269394736100
 20
0.0279297170118716
 30
1.2243243313017376
 70
192
  0
VERTEX
  8
grove cross beam (11)
 10
-16.1218852579076990
 20
0.0281296153402103
 30
1.2683252199496098
 70
192
  0
VERTEX
  8
grove cross beam (11)
 10
-16.2771479604703410
 20
0.0274484471594816
 30
1.4087542334169572
 70
192
  0
VERTEX
  8
grove cross beam (11)
 10
-16.4275645134246060
 20
0.0267896741660638
 30
1.5337875546215545
 70
192
  0
VERTEX
  8
grove cross beam (11)
 10
-16.0943104039284290
 20
0.0282504164227859
 30
1.0106883106830866
 70
192
  0
VERTEX
  8
grove cross beam (11)
 10
-16.0303819066224090
 20
0.0285323165056620
 30
1.0619928814295891
 70
192
  0
VERTEX
  8
grove cross beam (11)
 10
-15.9664543633708340
 20
0.0288121565065432
 30
1.1132979349737229
 70
192
  0
VERTEX
  8
grove cross beam (11)
 10
0
 20
0
 30
0
 70
128
  71
12
  72
39
  73
26
  74
5
  0
VERTEX
  8
grove cross beam (11)
 10
0
 20
0
 30
0
 70
128
  71
5
  72
26
  73
30
  74
7
  0
VERTEX
  8
grove cross beam (11)
 10
0
 20
0
 30
0
 70
128
  71
40
  72
39
  73
12
  74
13
  0
VERTEX
  8
grove cross beam (11)
 10
0
 20
0
 30
0
 70
128
  71
12
  72
5
  73
3
  74
14
  0
VERTEX
  8
grove cross beam (11)
 10
0
 20
0
 30
0
 70
128
  71
3
  72
5
  73
7
  74
6
  0
VERTEX
  8
grove cross beam (11)
 10
0
 20
0
 30
0
 70
128
  71
13
  72
12
  73
14
  74
15
  0
VERTEX
  8
grove cross beam (11)
 10
0
 20
0
 30
0
 70
128
  71
41
  72
16
  73
4
  74
29
  0
VERTEX
  8
grove cross beam (11)
 10
0
 20
0
 30
0
 70
128
  71
6
  72
7
  73
29
  74
4
  0
VERTEX
  8
grove cross beam (11)
 10
0
 20
0
 30
0
 70
128
  71
41
  72
13
  73
15
  74
16
  0
VERTEX
  8
grove cross beam (11)
 10
0
 20
0
 30
0
 70
128
  71
29
  72
25
  73
42
  74
41
  0
VERTEX
  8
grove cross beam (11)
 10
0
 20
0
 30
0
 70
128
  71
7
  72
30
  73
25
  74
29
  0
VERTEX
  8
grove cross beam (11)
 10
0
 20
0
 30
0
 70
128
  71
42
  72
40
  73
13
  74
41
  0
VERTEX
  8
grove cross beam (11)
 10
0
 20
0
 30
0
 70
128
  71
14
  72
3
  73
8
  74
17
  0
VERTEX
  8
grove cross beam (11)
 10
0
 20
0
 30
0
 70
128
  71
8
  72
3
  73
6
  74
11
  0
VERTEX
  8
grove cross beam (11)
 10
0
 20
0
 30
0
 70
128
  71
15
  72
14
  73
17
  74
18
  0
VERTEX
  8
grove cross beam (11)
 10
0
 20
0
 30
0
 70
128
  71
8
  72
1
  73
19
  74
17
  0
VERTEX
  8
grove cross beam (11)
 10
0
 20
0
 30
0
 70
128
  71
19
  72
1
  73
9
  74
20
  0
VERTEX
  8
grove cross beam (11)
 10
0
 20
0
 30
0
 70
128
  71
1
  72
8
  73
11
  74
9
  0
VERTEX
  8
grove cross beam (11)
 10
0
 20
0
 30
0
 70
128
  71
18
  72
17
  73
19
  74
20
  0
VERTEX
  8
grove cross beam (11)
 10
0
 20
0
 30
0
 70
128
  71
9
  72
2
  73
21
  74
20
  0
VERTEX
  8
grove cross beam (11)
 10
0
 20
0
 30
0
 70
128
  71
21
  72
2
  73
10
  74
22
  0
VERTEX
  8
grove cross beam (11)
 10
0
 20
0
 30
0
 70
128
  71
9
  72
11
  73
10
  74
2
  0
VERTEX
  8
grove cross beam (11)
 10
0
 20
0
 30
0
 70
128
  71
22
  72
18
  73
20
  74
21
  0
VERTEX
  8
grove cross beam (11)
 10
0
 20
0
 30
0
 70
128
  71
22
  72
10
  73
4
  74
16
  0
VERTEX
  8
grove cross beam (11)
 10
0
 20
0
 30
0
 70
128
  71
11
  72
6
  73
4
  74
10
  0
VERTEX
  8
grove cross beam (11)
 10
0
 20
0
 30
0
 70
128
  71
16
  72
15
  73
18
  74
22
  0
VERTEX
  8
grove cross beam (11)
 10
0
 20
0
 30
0
 70
128
  71
43
  72
24
  73
31
  74
44
  0
VERTEX
  8
grove cross beam (11)
 10
0
 20
0
 30
0
 70
128
  71
34
  72
24
  73
43
  74
46
  0
VERTEX
  8
grove cross beam (11)
 10
0
 20
0
 30
0
 70
128
  71
31
  72
24
  73
34
  74
35
  0
VERTEX
  8
grove cross beam (11)
 10
0
 20
0
 30
0
 70
128
  71
46
  72
43
  73
44
  74
45
  0
VERTEX
  8
grove cross beam (11)
 10
0
 20
0
 30
0
 70
128
  71
47
  72
44
  73
31
  74
27
  0
VERTEX
  8
grove cross beam (11)
 10
0
 20
0
 30
0
 70
128
  71
27
  72
31
  73
35
  74
32
  0
VERTEX
  8
grove cross beam (11)
 10
0
 20
0
 30
0
 70
128
  71
45
  72
44
  73
47
  74
48
  0
VERTEX
  8
grove cross beam (11)
 10
0
 20
0
 30
0
 70
128
  71
28
  72
33
  73
50
  74
49
  0
VERTEX
  8
grove cross beam (11)
 10
0
 20
0
 30
0
 70
128
  71
32
  72
35
  73
33
  74
28
  0
VERTEX
  8
grove cross beam (11)
 10
0
 20
0
 30
0
 70
128
  71
50
  72
45
  73
48
  74
49
  0
VERTEX
  8
grove cross beam (11)
 10
0
 20
0
 30
0
 70
128
  71
51
  72
50
  73
33
  74
23
  0
VERTEX
  8
grove cross beam (11)
 10
0
 20
0
 30
0
 70
128
  71
51
  72
23
  73
34
  74
46
  0
VERTEX
  8
grove cross beam (11)
 10
0
 20
0
 30
0
 70
128
  71
34
  72
23
  73
33
  74
35
  0
VERTEX
  8
grove cross beam (11)
 10
0
 20
0
 30
0
 70
128
  71
50
  72
51
  73
46
  74
45
  0
VERTEX
  8
grove cross beam (11)
 10
0
 20
0
 30
0
 70
128
  71
36
  72
52
  73
47
  74
27
  0
VERTEX
  8
grove cross beam (11)
 10
0
 20
0
 30
0
 70
128
  71
36
  72
27
  73
32
  74
38
  0
VERTEX
  8
grove cross beam (11)
 10
0
 20
0
 30
0
 70
128
  71
48
  72
47
  73
52
  74
53
  0
VERTEX
  8
grove cross beam (11)
 10
0
 20
0
 30
0
 70
128
  71
52
  72
36
  73
26
  74
39
  0
VERTEX
  8
grove cross beam (11)
 10
0
 20
0
 30
0
 70
128
  71
26
  72
36
  73
38
  74
30
  0
VERTEX
  8
grove cross beam (11)
 10
0
 20
0
 30
0
 70
128
  71
53
  72
52
  73
39
  74
40
  0
VERTEX
  8
grove cross beam (11)
 10
0
 20
0
 30
0
 70
128
  71
42
  72
25
  73
37
  74
54
  0
VERTEX
  8
grove cross beam (11)
 10
0
 20
0
 30
0
 70
128
  71
30
  72
38
  73
37
  74
25
  0
VERTEX
  8
grove cross beam (11)
 10
0
 20
0
 30
0
 70
128
  71
54
  72
53
  73
40
  74
42
  0
VERTEX
  8
grove cross beam (11)
 10
0
 20
0
 30
0
 70
128
  71
28
  72
49
  73
54
  74
37
  0
VERTEX
  8
grove cross beam (11)
 10
0
 20
0
 30
0
 70
128
  71
38
  72
32
  73
28
  74
37
  0
VERTEX
  8
grove cross beam (11)
 10
0
 20
0
 30
0
 70
128
  71
49
  72
48
  73
53
  74
54
  0
SEQEND
  0
POLYLINE
  8
grove cross beam
 66
1
 10
0.0
 20
0.0
 30
0.0
 70
64
 71
54
 72
52
  0
VERTEX
  8
grove cross beam
 10
-9.6607549838241944
 20
-0.0010977513915258
 30
0.0054743107589761
 70
192
  0
VERTEX
  8
grove cross beam
 10
-8.7607673367443724
 20
-0.0050018143397248
 30
0.0069861615114550
 70
192
  0
VERTEX
  8
grove cross beam
 10
-9.8241757785635730
 20
-0.0003907909223289
 30
0.5621526251670407
 70
192
  0
VERTEX
  8
grove cross beam
 10
-9.2947993933698907
 20
-0.0026861171210202
 30
0.7397198192880655
 70
192
  0
VERTEX
  8
grove cross beam
 10
-9.9714110917709498
 20
0.0002494616292186
 30
0.8694614573359406
 70
192
  0
VERTEX
  8
grove cross beam
 10
-9.5594875751438853
 20
-0.0015384540216745
 30
0.6509362222275531
 70
192
  0
VERTEX
  8
grove cross beam
 10
-9.7707764561386270
 20
-0.0006200366264231
 30
0.9635038037399394
 70
192
  0
VERTEX
  8
grove cross beam
 10
-9.7288867411655779
 20
-0.0008040930959807
 30
0.2777875365802021
 70
192
  0
VERTEX
  8
grove cross beam
 10
-9.2014411519275487
 20
-0.0030900945319898
 30
0.0048947833630197
 70
192
  0
VERTEX
  8
grove cross beam
 10
-9.0191366388147678
 20
-0.0038821255284258
 30
0.3822248381789808
 70
192
  0
VERTEX
  8
grove cross beam
 10
-9.3740112498610504
 20
-0.0023419616491038
 30
0.3300059564921827
 70
192
  0
VERTEX
  8
grove cross beam
 10
-9.9712640164915776
 20
0.0519059211886543
 30
0.8694614573359406
 70
192
  0
VERTEX
  8
grove cross beam
 10
-9.7706303332698159
 20
0.0510361360172378
 30
0.9635038037399394
 70
192
  0
VERTEX
  8
grove cross beam
 10
-9.8240297134166141
 20
0.0512676770475307
 30
0.5621526251670407
 70
192
  0
VERTEX
  8
grove cross beam
 10
-9.5593434364637435
 20
0.0501200139481850
 30
0.6509362222275531
 70
192
  0
VERTEX
  8
grove cross beam
 10
-9.2946533282229318
 20
0.0489724943067269
 30
0.7397202810628830
 70
192
  0
VERTEX
  8
grove cross beam
 10
-9.7287426097006673
 20
0.0508543748738790
 30
0.2777875365802021
 70
192
  0
VERTEX
  8
grove cross beam
 10
-9.3738660938332625
 20
0.0493143544524444
 30
0.3300059564921827
 70
192
  0
VERTEX
  8
grove cross beam
 10
-9.6606117470479926
 20
0.0505587081679100
 30
0.0054738489841586
 70
192
  0
VERTEX
  8
grove cross beam
 10
-9.2012950290587376
 20
0.0485663650274459
 30
0.0048947833630197
 70
192
  0
VERTEX
  8
grove cross beam
 10
-8.7606221662861223
 20
0.0466542148460487
 30
0.0069856997366375
 70
192
  0
VERTEX
  8
grove cross beam
 10
-9.0189905448068828
 20
0.0477743340310099
 30
0.3822248381789808
 70
192
  0
VERTEX
  8
grove cross beam
 10
-10.9455223563498050
 20
0.0044753006188967
 30
2.1916880174872158
 70
192
  0
VERTEX
  8
grove cross beam
 10
-11.0197168707137860
 20
0.0047966462867135
 30
2.1166089734603228
 70
192
  0
VERTEX
  8
grove cross beam
 10
-9.8458994842168863
 20
-0.0002942437640965
 30
1.3392601317816850
 70
192
  0
VERTEX
  8
grove cross beam
 10
-10.1528916543046890
 20
0.0010366150574823
 30
1.1717887204955555
 70
192
  0
VERTEX
  8
grove cross beam
 10
-10.5637063882654800
 20
0.0028182185613290
 30
1.6845831904764164
 70
192
  0
VERTEX
  8
grove cross beam
 10
-10.4001253720948950
 20
0.0021089627659334
 30
1.8108353116721854
 70
192
  0
VERTEX
  8
grove cross beam
 10
-9.5701426971569337
 20
-0.0014925474977008
 30
1.0575460924220859
 70
192
  0
VERTEX
  8
grove cross beam
 10
-9.9993960598965312
 20
0.0003712573756367
 30
1.2555246570260290
 70
192
  0
VERTEX
  8
grove cross beam
 10
-10.7894428143675750
 20
0.0037981793902828
 30
1.9087725554961987
 70
192
  0
VERTEX
  8
grove cross beam
 10
-10.4819153895444440
 20
0.0024644514109557
 30
1.7477090779087443
 70
192
  0
VERTEX
  8
grove cross beam
 10
-10.6771442582757600
 20
0.0033091314520741
 30
2.0123076645452964
 70
192
  0
VERTEX
  8
grove cross beam
 10
-10.9939849307836890
 20
0.0046843187608652
 30
2.1664146199508916
 70
192
  0
VERTEX
  8
grove cross beam
 10
-10.7332944598713030
 20
0.0035527229449104
 30
1.9605401677425998
 70
192
  0
VERTEX
  8
grove cross beam
 10
-10.3509222262974530
 20
0.0018954974294552
 30
1.4412089288889827
 70
192
  0
VERTEX
  8
grove cross beam
 10
-10.1228023494748560
 20
0.0009060683799318
 30
1.5884213553819673
 70
192
  0
VERTEX
  8
grove cross beam
 10
-10.2368617683894850
 20
0.0013997069705378
 30
1.5148149112480662
 70
192
  0
VERTEX
  8
grove cross beam
 10
-10.1527474651179260
 20
0.0526933615326930
 30
1.1717882587207380
 70
192
  0
VERTEX
  8
grove cross beam
 10
-9.9992499370277201
 20
0.0520274300192975
 30
1.2555246570260290
 70
192
  0
VERTEX
  8
grove cross beam
 10
-9.5699966428328231
 20
0.0501660639300463
 30
1.0575460924220859
 70
192
  0
VERTEX
  8
grove cross beam
 10
-9.8457543137586363
 20
0.0513617854216770
 30
1.3392610553313200
 70
192
  0
VERTEX
  8
grove cross beam
 10
-11.0195746440699980
 20
0.0564529623882619
 30
2.1166071263610529
 70
192
  0
VERTEX
  8
grove cross beam
 10
-10.7892986251808130
 20
0.0554544954918312
 30
1.9087725554961987
 70
192
  0
VERTEX
  8
grove cross beam
 10
-10.7331493471349050
 20
0.0552111909147699
 30
1.9605401677425998
 70
192
  0
VERTEX
  8
grove cross beam
 10
-10.9938388944976570
 20
0.0563404914045260
 30
2.1664146199508916
 70
192
  0
VERTEX
  8
grove cross beam
 10
-10.5635621990787170
 20
0.0544766865311888
 30
1.6845822669267814
 70
192
  0
VERTEX
  8
grove cross beam
 10
-10.4817692955365590
 20
0.0541206240546166
 30
1.7477090779087443
 70
192
  0
VERTEX
  8
grove cross beam
 10
-10.3999782968155220
 20
0.0537652788674818
 30
1.8108365815529335
 70
192
  0
VERTEX
  8
grove cross beam
 10
-10.6770001845327020
 20
0.0549678863377085
 30
2.0123076645452964
 70
192
  0
VERTEX
  8
grove cross beam
 10
-10.9453752810704330
 20
0.0561316167204451
 30
2.1916912499109382
 70
192
  0
VERTEX
  8
grove cross beam
 10
-10.3507790183821770
 20
0.0535515266152287
 30
1.4412088134452783
 70
192
  0
VERTEX
  8
grove cross beam
 10
-10.2367167133749390
 20
0.0530580314825100
 30
1.5148149112480662
 70
192
  0
VERTEX
  8
grove cross beam
 10
-10.1226562554669710
 20
0.0525625279393676
 30
1.5884213553819673
 70
192
  0
VERTEX
  8
grove cross beam
 10
0
 20
0
 30
0
 70
128
  71
5
  72
12
  73
39
  74
26
  0
VERTEX
  8
grove cross beam
 10
0
 20
0
 30
0
 70
128
  71
5
  72
26
  73
30
  74
7
  0
VERTEX
  8
grove cross beam
 10
0
 20
0
 30
0
 70
128
  71
40
  72
39
  73
12
  74
13
  0
VERTEX
  8
grove cross beam
 10
0
 20
0
 30
0
 70
128
  71
12
  72
5
  73
3
  74
14
  0
VERTEX
  8
grove cross beam
 10
0
 20
0
 30
0
 70
128
  71
3
  72
5
  73
7
  74
6
  0
VERTEX
  8
grove cross beam
 10
0
 20
0
 30
0
 70
128
  71
13
  72
12
  73
14
  74
15
  0
VERTEX
  8
grove cross beam
 10
0
 20
0
 30
0
 70
128
  71
41
  72
16
  73
4
  74
29
  0
VERTEX
  8
grove cross beam
 10
0
 20
0
 30
0
 70
128
  71
6
  72
7
  73
29
  74
4
  0
VERTEX
  8
grove cross beam
 10
0
 20
0
 30
0
 70
128
  71
41
  72
13
  73
15
  74
16
  0
VERTEX
  8
grove cross beam
 10
0
 20
0
 30
0
 70
128
  71
29
  72
25
  73
42
  74
41
  0
VERTEX
  8
grove cross beam
 10
0
 20
0
 30
0
 70
128
  71
7
  72
30
  73
25
  74
29
  0
VERTEX
  8
grove cross beam
 10
0
 20
0
 30
0
 70
128
  71
42
  72
40
  73
13
  74
41
  0
VERTEX
  8
grove cross beam
 10
0
 20
0
 30
0
 70
128
  71
14
  72
3
  73
8
  74
17
  0
VERTEX
  8
grove cross beam
 10
0
 20
0
 30
0
 70
128
  71
8
  72
3
  73
6
  74
11
  0
VERTEX
  8
grove cross beam
 10
0
 20
0
 30
0
 70
128
  71
15
  72
14
  73
17
  74
18
  0
VERTEX
  8
grove cross beam
 10
0
 20
0
 30
0
 70
128
  71
8
  72
1
  73
19
  74
17
  0
VERTEX
  8
grove cross beam
 10
0
 20
0
 30
0
 70
128
  71
19
  72
1
  73
9
  74
20
  0
VERTEX
  8
grove cross beam
 10
0
 20
0
 30
0
 70
128
  71
1
  72
8
  73
11
  74
9
  0
VERTEX
  8
grove cross beam
 10
0
 20
0
 30
0
 70
128
  71
18
  72
17
  73
19
  74
20
  0
VERTEX
  8
grove cross beam
 10
0
 20
0
 30
0
 70
128
  71
2
  72
21
  73
20
  74
9
  0
VERTEX
  8
grove cross beam
 10
0
 20
0
 30
0
 70
128
  71
21
  72
2
  73
10
  74
22
  0
VERTEX
  8
grove cross beam
 10
0
 20
0
 30
0
 70
128
  71
9
  72
11
  73
10
  74
2
  0
VERTEX
  8
grove cross beam
 10
0
 20
0
 30
0
 70
128
  71
22
  72
18
  73
20
  74
21
  0
VERTEX
  8
grove cross beam
 10
0
 20
0
 30
0
 70
128
  71
22
  72
10
  73
4
  74
16
  0
VERTEX
  8
grove cross beam
 10
0
 20
0
 30
0
 70
128
  71
11
  72
6
  73
4
  74
10
  0
VERTEX
  8
grove cross beam
 10
0
 20
0
 30
0
 70
128
  71
16
  72
15
  73
18
  74
22
  0
VERTEX
  8
grove cross beam
 10
0
 20
0
 30
0
 70
128
  71
43
  72
24
  73
31
  74
44
  0
VERTEX
  8
grove cross beam
 10
0
 20
0
 30
0
 70
128
  71
46
  72
34
  73
24
  74
43
  0
VERTEX
  8
grove cross beam
 10
0
 20
0
 30
0
 70
128
  71
31
  72
24
  73
34
  74
35
  0
VERTEX
  8
grove cross beam
 10
0
 20
0
 30
0
 70
128
  71
46
  72
43
  73
44
  74
45
  0
VERTEX
  8
grove cross beam
 10
0
 20
0
 30
0
 70
128
  71
47
  72
44
  73
31
  74
27
  0
VERTEX
  8
grove cross beam
 10
0
 20
0
 30
0
 70
128
  71
27
  72
31
  73
35
  74
32
  0
VERTEX
  8
grove cross beam
 10
0
 20
0
 30
0
 70
128
  71
45
  72
44
  73
47
  74
48
  0
VERTEX
  8
grove cross beam
 10
0
 20
0
 30
0
 70
128
  71
49
  72
28
  73
33
  74
50
  0
VERTEX
  8
grove cross beam
 10
0
 20
0
 30
0
 70
128
  71
32
  72
35
  73
33
  74
28
  0
VERTEX
  8
grove cross beam
 10
0
 20
0
 30
0
 70
128
  71
50
  72
45
  73
48
  74
49
  0
VERTEX
  8
grove cross beam
 10
0
 20
0
 30
0
 70
128
  71
23
  72
51
  73
50
  74
33
  0
VERTEX
  8
grove cross beam
 10
0
 20
0
 30
0
 70
128
  71
23
  72
34
  73
46
  74
51
  0
VERTEX
  8
grove cross beam
 10
0
 20
0
 30
0
 70
128
  71
34
  72
23
  73
33
  74
35
  0
VERTEX
  8
grove cross beam
 10
0
 20
0
 30
0
 70
128
  71
50
  72
51
  73
46
  74
45
  0
VERTEX
  8
grove cross beam
 10
0
 20
0
 30
0
 70
128
  71
36
  72
52
  73
47
  74
27
  0
VERTEX
  8
grove cross beam
 10
0
 20
0
 30
0
 70
128
  71
36
  72
27
  73
32
  74
38
  0
VERTEX
  8
grove cross beam
 10
0
 20
0
 30
0
 70
128
  71
48
  72
47
  73
52
  74
53
  0
VERTEX
  8
grove cross beam
 10
0
 20
0
 30
0
 70
128
  71
52
  72
36
  73
26
  74
39
  0
VERTEX
  8
grove cross beam
 10
0
 20
0
 30
0
 70
128
  71
26
  72
36
  73
38
  74
30
  0
VERTEX
  8
grove cross beam
 10
0
 20
0
 30
0
 70
128
  71
53
  72
52
  73
39
  74
40
  0
VERTEX
  8
grove cross beam
 10
0
 20
0
 30
0
 70
128
  71
54
  72
42
  73
25
  74
37
  0
VERTEX
  8
grove cross beam
 10
0
 20
0
 30
0
 70
128
  71
30
  72
38
  73
37
  74
25
  0
VERTEX
  8
grove cross beam
 10
0
 20
0
 30
0
 70
128
  71
54
  72
53
  73
40
  74
42
  0
VERTEX
  8
grove cross beam
 10
0
 20
0
 30
0
 70
128
  71
28
  72
49
  73
54
  74
37
  0
VERTEX
  8
grove cross beam
 10
0
 20
0
 30
0
 70
128
  71
38
  72
32
  73
28
  74
37
  0
VERTEX
  8
grove cross beam
 10
0
 20
0
 30
0
 70
128
  71
49
  72
48
  73
53
  74
54
  0
SEQEND
  0
POLYLINE
  8
grove cross beam (4)
 66
1
 10
0.0
 20
0.0
 30
0.0
 70
64
 71
54
 72
52
  0
VERTEX
  8
grove cross beam (4)
 10
-14.0403522785716180
 20
0.0085619326733170
 30
0.0108730700566584
 70
192
  0
VERTEX
  8
grove cross beam (4)
 10
-13.3101738969491470
 20
0.0079722433854708
 30
0.0121516640826203
 70
192
  0
VERTEX
  8
grove cross beam (4)
 10
-14.1729392625930770
 20
0.0086655126467047
 30
0.4816639639445675
 70
192
  0
VERTEX
  8
grove cross beam (4)
 10
-13.7434444778310160
 20
0.0083218048604004
 30
0.6318351056645333
 70
192
  0
VERTEX
  8
grove cross beam (4)
 10
-14.2923928930510440
 20
0.0087639495907609
 30
0.7415594347702359
 70
192
  0
VERTEX
  8
grove cross beam (4)
 10
-13.9581912277556520
 20
0.0084934034212321
 30
0.5567495348045504
 70
192
  0
VERTEX
  8
grove cross beam (4)
 10
-14.1296148523638880
 20
0.0086329462525058
 30
0.8210924547493881
 70
192
  0
VERTEX
  8
grove cross beam (4)
 10
-14.0956280054216220
 20
0.0086046908001624
 30
0.2411722997620536
 70
192
  0
VERTEX
  8
grove cross beam (4)
 10
-13.6677008974762670
 20
0.0082616892067732
 30
0.0103829546016077
 70
192
  0
VERTEX
  8
grove cross beam (4)
 10
-13.5197936917118560
 20
0.0081408661020134
 30
0.3294964347289642
 70
192
  0
VERTEX
  8
grove cross beam (4)
 10
-13.8077099879196190
 20
0.0083734469594033
 30
0.2853341719806912
 70
192
  0
VERTEX
  8
grove cross beam (4)
 10
-14.2909836815494310
 20
0.0435775580307343
 30
0.7415594835864403
 70
192
  0
VERTEX
  8
grove cross beam (4)
 10
-14.1282054229267310
 20
0.0434464532411191
 30
0.8210924547493881
 70
192
  0
VERTEX
  8
grove cross beam (4)
 10
-14.1715294269106450
 20
0.0434809654898998
 30
0.4816639639445675
 70
192
  0
VERTEX
  8
grove cross beam (4)
 10
-13.9567832994629060
 20
0.0433076201433853
 30
0.5567495348045504
 70
192
  0
VERTEX
  8
grove cross beam (4)
 10
-13.7420352646254800
 20
0.0431355109179126
 30
0.6318354473779642
 70
192
  0
VERTEX
  8
grove cross beam (4)
 10
-14.0942202897379720
 20
0.0434191065279831
 30
0.2411722997620536
 70
192
  0
VERTEX
  8
grove cross beam (4)
 10
-13.8063024824715170
 20
0.0431858157639988
 30
0.2853341719806912
 70
192
  0
VERTEX
  8
grove cross beam (4)
 10
-14.0389445446897040
 20
0.0433741021960234
 30
0.0108726795270231
 70
192
  0
VERTEX
  8
grove cross beam (4)
 10
-13.6662921105232190
 20
0.0430733521116498
 30
0.0103829546016077
 70
192
  0
VERTEX
  8
grove cross beam (4)
 10
-13.3087646854475330
 20
0.0427858518254440
 30
0.0121512735529850
 70
192
  0
VERTEX
  8
grove cross beam (4)
 10
-13.5183840443391570
 20
0.0429542716392668
 30
0.3294964347289642
 70
192
  0
VERTEX
  8
grove cross beam (4)
 10
-15.0827104756090460
 20
0.0094002420181802
 30
1.8597855902345350
 70
192
  0
VERTEX
  8
grove cross beam (4)
 10
-15.1429054696400040
 20
0.0094486002081043
 30
1.7962901578908919
 70
192
  0
VERTEX
  8
grove cross beam (4)
 10
-14.1905639555982200
 20
0.0086819686155727
 30
1.1388750106424061
 70
192
  0
VERTEX
  8
grove cross beam (4)
 10
-14.4396330102344150
 20
0.0088819168763138
 30
0.9972420183389352
 70
192
  0
VERTEX
  8
grove cross beam (4)
 10
-14.7729349350566570
 20
0.0091507215786452
 30
1.4309196132887769
 70
192
  0
VERTEX
  8
grove cross beam (4)
 10
-14.6402188678898250
 20
0.0090436190359212
 30
1.5376928563891545
 70
192
  0
VERTEX
  8
grove cross beam (4)
 10
-13.9668365763175740
 20
0.0084996929185789
 30
0.9006253770961314
 70
192
  0
VERTEX
  8
grove cross beam (4)
 10
-14.3150982719338310
 20
0.0087817925923087
 30
1.0680587097554883
 70
192
  0
VERTEX
  8
grove cross beam (4)
 10
-14.9560792560435230
 20
0.0092983835968842
 30
1.6205197985772180
 70
192
  0
VERTEX
  8
grove cross beam (4)
 10
-14.7065764420497320
 20
0.0090969181698136
 30
1.4843061860227613
 70
192
  0
VERTEX
  8
grove cross beam (4)
 10
-14.8649696824774940
 20
0.0092241317591724
 30
1.7080812291663938
 70
192
  0
VERTEX
  8
grove cross beam (4)
 10
-15.1220287823782980
 20
0.0094313323603422
 30
1.8384115127651035
 70
192
  0
VERTEX
  8
grove cross beam (4)
 10
-14.9105254556594210
 20
0.0092606890119995
 30
1.6643005138718059
 70
192
  0
VERTEX
  8
grove cross beam (4)
 10
-14.6002991591944620
 20
0.0090120888540317
 30
1.2250945814047021
 70
192
  0
VERTEX
  8
grove cross beam (4)
 10
-14.4152200558890640
 20
0.0088629763348046
 30
1.3495943551808387
 70
192
  0
VERTEX
  8
grove cross beam (4)
 10
-14.5077598067618930
 20
0.0089366084226492
 30
1.2873441265793395
 70
192
  0
VERTEX
  8
grove cross beam (4)
 10
-14.4382244281350420
 20
0.0436958292443870
 30
0.9972416278092999
 70
192
  0
VERTEX
  8
grove cross beam (4)
 10
-14.3136886245611340
 20
0.0435951981295621
 30
1.0680586121230795
 70
192
  0
VERTEX
  8
grove cross beam (4)
 10
-13.9654269524695870
 20
0.0433152471066390
 30
0.9006253770961314
 70
192
  0
VERTEX
  8
grove cross beam (4)
 10
-14.1891545261610650
 20
0.0434954756041860
 30
1.1388758893340856
 70
192
  0
VERTEX
  8
grove cross beam (4)
 10
-15.1414994409319290
 20
0.0442616783202597
 30
1.7962885957723507
 70
192
  0
VERTEX
  8
grove cross beam (4)
 10
-14.9546719685309650
 20
0.0441108538528395
 30
1.6205198962096268
 70
192
  0
VERTEX
  8
grove cross beam (4)
 10
-14.9091164376889650
 20
0.0440743984773527
 30
1.6643005138718059
 70
192
  0
VERTEX
  8
grove cross beam (4)
 10
-15.1206200442340180
 20
0.0442429961171790
 30
1.8384115127651035
 70
192
  0
VERTEX
  8
grove cross beam (4)
 10
-14.7715272229955320
 20
0.0439651373696974
 30
1.4309188322295063
 70
192
  0
VERTEX
  8
grove cross beam (4)
 10
-14.7051672288441980
 20
0.0439106242273258
 30
1.4843061860227613
 70
192
  0
VERTEX
  8
grove cross beam (4)
 10
-14.6388081552438010
 20
0.0438565177423546
 30
1.5376939303456516
 70
192
  0
VERTEX
  8
grove cross beam (4)
 10
-14.8635619216076000
 20
0.0440385466982642
 30
1.7080812291663938
 70
192
  0
VERTEX
  8
grove cross beam (4)
 10
-15.0812997629630220
 20
0.0442131407246136
 30
1.8597883239419821
 70
192
  0
VERTEX
  8
grove cross beam (4)
 10
-14.5988916310458960
 20
0.0438243596151081
 30
1.2250945814047021
 70
192
  0
VERTEX
  8
grove cross beam (4)
 10
-14.5063508131958210
 20
0.0437503183139826
 30
1.2873442242117483
 70
192
  0
VERTEX
  8
grove cross beam (4)
 10
-14.4138116786987940
 20
0.0436749393339599
 30
1.3495942575484299
 70
192
  0
VERTEX
  8
grove cross beam (4)
 10
0
 20
0
 30
0
 70
128
  71
5
  72
12
  73
39
  74
26
  0
VERTEX
  8
grove cross beam (4)
 10
0
 20
0
 30
0
 70
128
  71
5
  72
26
  73
30
  74
7
  0
VERTEX
  8
grove cross beam (4)
 10
0
 20
0
 30
0
 70
128
  71
40
  72
39
  73
12
  74
13
  0
VERTEX
  8
grove cross beam (4)
 10
0
 20
0
 30
0
 70
128
  71
12
  72
5
  73
3
  74
14
  0
VERTEX
  8
grove cross beam (4)
 10
0
 20
0
 30
0
 70
128
  71
3
  72
5
  73
7
  74
6
  0
VERTEX
  8
grove cross beam (4)
 10
0
 20
0
 30
0
 70
128
  71
13
  72
12
  73
14
  74
15
  0
VERTEX
  8
grove cross beam (4)
 10
0
 20
0
 30
0
 70
128
  71
41
  72
16
  73
4
  74
29
  0
VERTEX
  8
grove cross beam (4)
 10
0
 20
0
 30
0
 70
128
  71
6
  72
7
  73
29
  74
4
  0
VERTEX
  8
grove cross beam (4)
 10
0
 20
0
 30
0
 70
128
  71
41
  72
13
  73
15
  74
16
  0
VERTEX
  8
grove cross beam (4)
 10
0
 20
0
 30
0
 70
128
  71
29
  72
25
  73
42
  74
41
  0
VERTEX
  8
grove cross beam (4)
 10
0
 20
0
 30
0
 70
128
  71
7
  72
30
  73
25
  74
29
  0
VERTEX
  8
grove cross beam (4)
 10
0
 20
0
 30
0
 70
128
  71
42
  72
40
  73
13
  74
41
  0
VERTEX
  8
grove cross beam (4)
 10
0
 20
0
 30
0
 70
128
  71
8
  72
17
  73
14
  74
3
  0
VERTEX
  8
grove cross beam (4)
 10
0
 20
0
 30
0
 70
128
  71
8
  72
3
  73
6
  74
11
  0
VERTEX
  8
grove cross beam (4)
 10
0
 20
0
 30
0
 70
128
  71
15
  72
14
  73
17
  74
18
  0
VERTEX
  8
grove cross beam (4)
 10
0
 20
0
 30
0
 70
128
  71
8
  72
1
  73
19
  74
17
  0
VERTEX
  8
grove cross beam (4)
 10
0
 20
0
 30
0
 70
128
  71
1
  72
9
  73
20
  74
19
  0
VERTEX
  8
grove cross beam (4)
 10
0
 20
0
 30
0
 70
128
  71
1
  72
8
  73
11
  74
9
  0
VERTEX
  8
grove cross beam (4)
 10
0
 20
0
 30
0
 70
128
  71
18
  72
17
  73
19
  74
20
  0
VERTEX
  8
grove cross beam (4)
 10
0
 20
0
 30
0
 70
128
  71
20
  72
9
  73
2
  74
21
  0
VERTEX
  8
grove cross beam (4)
 10
0
 20
0
 30
0
 70
128
  71
2
  72
10
  73
22
  74
21
  0
VERTEX
  8
grove cross beam (4)
 10
0
 20
0
 30
0
 70
128
  71
9
  72
11
  73
10
  74
2
  0
VERTEX
  8
grove cross beam (4)
 10
0
 20
0
 30
0
 70
128
  71
22
  72
18
  73
20
  74
21
  0
VERTEX
  8
grove cross beam (4)
 10
0
 20
0
 30
0
 70
128
  71
22
  72
10
  73
4
  74
16
  0
VERTEX
  8
grove cross beam (4)
 10
0
 20
0
 30
0
 70
128
  71
11
  72
6
  73
4
  74
10
  0
VERTEX
  8
grove cross beam (4)
 10
0
 20
0
 30
0
 70
128
  71
16
  72
15
  73
18
  74
22
  0
VERTEX
  8
grove cross beam (4)
 10
0
 20
0
 30
0
 70
128
  71
24
  72
31
  73
44
  74
43
  0
VERTEX
  8
grove cross beam (4)
 10
0
 20
0
 30
0
 70
128
  71
46
  72
34
  73
24
  74
43
  0
VERTEX
  8
grove cross beam (4)
 10
0
 20
0
 30
0
 70
128
  71
31
  72
24
  73
34
  74
35
  0
VERTEX
  8
grove cross beam (4)
 10
0
 20
0
 30
0
 70
128
  71
46
  72
43
  73
44
  74
45
  0
VERTEX
  8
grove cross beam (4)
 10
0
 20
0
 30
0
 70
128
  71
44
  72
31
  73
27
  74
47
  0
VERTEX
  8
grove cross beam (4)
 10
0
 20
0
 30
0
 70
128
  71
27
  72
31
  73
35
  74
32
  0
VERTEX
  8
grove cross beam (4)
 10
0
 20
0
 30
0
 70
128
  71
45
  72
44
  73
47
  74
48
  0
VERTEX
  8
grove cross beam (4)
 10
0
 20
0
 30
0
 70
128
  71
49
  72
28
  73
33
  74
50
  0
VERTEX
  8
grove cross beam (4)
 10
0
 20
0
 30
0
 70
128
  71
32
  72
35
  73
33
  74
28
  0
VERTEX
  8
grove cross beam (4)
 10
0
 20
0
 30
0
 70
128
  71
50
  72
45
  73
48
  74
49
  0
VERTEX
  8
grove cross beam (4)
 10
0
 20
0
 30
0
 70
128
  71
23
  72
51
  73
50
  74
33
  0
VERTEX
  8
grove cross beam (4)
 10
0
 20
0
 30
0
 70
128
  71
23
  72
34
  73
46
  74
51
  0
VERTEX
  8
grove cross beam (4)
 10
0
 20
0
 30
0
 70
128
  71
34
  72
23
  73
33
  74
35
  0
VERTEX
  8
grove cross beam (4)
 10
0
 20
0
 30
0
 70
128
  71
50
  72
51
  73
46
  74
45
  0
VERTEX
  8
grove cross beam (4)
 10
0
 20
0
 30
0
 70
128
  71
36
  72
52
  73
47
  74
27
  0
VERTEX
  8
grove cross beam (4)
 10
0
 20
0
 30
0
 70
128
  71
36
  72
27
  73
32
  74
38
  0
VERTEX
  8
grove cross beam (4)
 10
0
 20
0
 30
0
 70
128
  71
48
  72
47
  73
52
  74
53
  0
VERTEX
  8
grove cross beam (4)
 10
0
 20
0
 30
0
 70
128
  71
52
  72
36
  73
26
  74
39
  0
VERTEX
  8
grove cross beam (4)
 10
0
 20
0
 30
0
 70
128
  71
26
  72
36
  73
38
  74
30
  0
VERTEX
  8
grove cross beam (4)
 10
0
 20
0
 30
0
 70
128
  71
53
  72
52
  73
39
  74
40
  0
VERTEX
  8
grove cross beam (4)
 10
0
 20
0
 30
0
 70
128
  71
25
  72
37
  73
54
  74
42
  0
VERTEX
  8
grove cross beam (4)
 10
0
 20
0
 30
0
 70
128
  71
30
  72
38
  73
37
  74
25
  0
VERTEX
  8
grove cross beam (4)
 10
0
 20
0
 30
0
 70
128
  71
54
  72
53
  73
40
  74
42
  0
VERTEX
  8
grove cross beam (4)
 10
0
 20
0
 30
0
 70
128
  71
49
  72
54
  73
37
  74
28
  0
VERTEX
  8
grove cross beam (4)
 10
0
 20
0
 30
0
 70
128
  71
38
  72
32
  73
28
  74
37
  0
VERTEX
  8
grove cross beam (4)
 10
0
 20
0
 30
0
 70
128
  71
49
  72
48
  73
53
  74
54
  0
SEQEND
  0
POLYLINE
  8
grove cross beam (5)
 66
1
 10
0.0
 20
0.0
 30
0.0
 70
64
 71
210
 72
208
  0
VERTEX
  8
grove cross beam (5)
 10
-10.8376932448544390
 20
0.0093295972605061
 30
0.0728449990555750
 70
192
  0
VERTEX
  8
grove cross beam (5)
 10
-10.1753466068026130
 20
0.0070172325458655
 30
0.0940132708104615
 70
192
  0
VERTEX
  8
grove cross beam (5)
 10
-11.0579375540282750
 20
0.0060598789550310
 30
0.5806472534340204
 70
192
  0
VERTEX
  8
grove cross beam (5)
 10
-10.5894785850669240
 20
0.0044250774672490
 30
0.7290239124035169
 70
192
  0
VERTEX
  8
grove cross beam (5)
 10
-11.2109594423187250
 20
0.0065948944119496
 30
0.8850682805028329
 70
192
  0
VERTEX
  8
grove cross beam (5)
 10
-10.8237255339199740
 20
0.0000514212541161
 30
0.6548355252538132
 70
192
  0
VERTEX
  8
grove cross beam (5)
 10
-11.0337473358653600
 20
0.0007853808074314
 30
0.9655735175353444
 70
192
  0
VERTEX
  8
grove cross beam (5)
 10
-10.9485695074905220
 20
0.0056784829395040
 30
0.2908714527727385
 70
192
  0
VERTEX
  8
grove cross beam (5)
 10
-10.4863780560425680
 20
0.0040658247946253
 30
0.0513658807541284
 70
192
  0
VERTEX
  8
grove cross beam (5)
 10
-10.3270725617161430
 20
0.0035091273144472
 30
0.3789083384726206
 70
192
  0
VERTEX
  8
grove cross beam (5)
 10
-10.6371114096612280
 20
-0.0005996160932229
 30
0.3347855653019822
 70
192
  0
VERTEX
  8
grove cross beam (5)
 10
-11.2108501095631400
 20
0.0377411208241822
 30
0.8850682805028329
 70
192
  0
VERTEX
  8
grove cross beam (5)
 10
-11.0336020201775580
 20
0.0423137211337119
 30
0.9655735175353444
 70
192
  0
VERTEX
  8
grove cross beam (5)
 10
-11.0578283654350780
 20
0.0372071433364622
 30
0.5806472534340204
 70
192
  0
VERTEX
  8
grove cross beam (5)
 10
-10.8235809786887720
 20
0.0415810302094171
 30
0.6548356405837241
 70
192
  0
VERTEX
  8
grove cross beam (5)
 10
-10.5893693388087730
 20
0.0355723418486802
 30
0.7290241430633389
 70
192
  0
VERTEX
  8
grove cross beam (5)
 10
-10.9484613496584040
 20
0.0368255166611133
 30
0.2908714239402607
 70
192
  0
VERTEX
  8
grove cross beam (5)
 10
-10.6369670742776690
 20
0.0409288395629686
 30
0.3347855653019822
 70
192
  0
VERTEX
  8
grove cross beam (5)
 10
-10.8376129750393170
 20
0.0324008846273385
 30
0.0728448837256641
 70
192
  0
VERTEX
  8
grove cross beam (5)
 10
-10.4862688962818500
 20
0.0352120512068579
 30
0.0513658086729340
 70
192
  0
VERTEX
  8
grove cross beam (5)
 10
-10.1752655875401670
 20
0.0300884045827869
 30
0.0940131554805505
 70
192
  0
VERTEX
  8
grove cross beam (5)
 10
-10.3269636326152470
 20
0.0346553537266798
 30
0.3789083384726206
 70
192
  0
VERTEX
  8
grove cross beam (5)
 10
-12.1565300644757530
 20
0.0139328753263497
 30
2.1489444977085030
 70
192
  0
VERTEX
  8
grove cross beam (5)
 10
-12.2215823620693630
 20
0.0141600752509303
 30
2.0850787142387945
 70
192
  0
VERTEX
  8
grove cross beam (5)
 10
-11.1260459500997940
 20
0.0062986118707071
 30
1.3290009599407471
 70
192
  0
VERTEX
  8
grove cross beam (5)
 10
-11.3960818832020790
 20
0.0072414338927613
 30
1.1825689939297677
 70
192
  0
VERTEX
  8
grove cross beam (5)
 10
-11.8150140941876670
 20
0.0087033558440224
 30
1.6939813772621095
 70
192
  0
VERTEX
  8
grove cross beam (5)
 10
-11.6705728377696760
 20
0.0081990181434177
 30
1.8041513126707303
 70
192
  0
VERTEX
  8
grove cross beam (5)
 10
-10.8564994356929140
 20
0.0053570584776734
 30
1.0460786969029003
 70
192
  0
VERTEX
  8
grove cross beam (5)
 10
-11.2610818504520900
 20
0.0015790812546213
 30
1.2557851499301238
 70
192
  0
VERTEX
  8
grove cross beam (5)
 10
-12.0428568676919740
 20
0.0094989015697875
 30
1.9170453405760997
 70
192
  0
VERTEX
  8
grove cross beam (5)
 10
-11.7428114574447800
 20
0.0032603606965180
 30
1.7490662873014644
 70
192
  0
VERTEX
  8
grove cross beam (5)
 10
-11.9432526514156410
 20
0.0091504899087935
 30
2.0069224015026963
 70
192
  0
VERTEX
  8
grove cross beam (5)
 10
-12.2185298099862150
 20
0.0101115340567786
 30
2.1414750406956147
 70
192
  0
VERTEX
  8
grove cross beam (5)
 10
-11.9939602146847120
 20
0.0041362913702185
 30
1.9629411093003215
 70
192
  0
VERTEX
  8
grove cross beam (5)
 10
-11.5986268100786630
 20
0.0079477142674476
 30
1.4513072925389467
 70
192
  0
VERTEX
  8
grove cross beam (5)
 10
-11.3976516386200830
 20
0.0072465084088433
 30
1.5799145594922424
 70
192
  0
VERTEX
  8
grove cross beam (5)
 10
-11.4981575041402590
 20
0.0024056507264332
 30
1.5156107530207281
 70
192
  0
VERTEX
  8
grove cross beam (5)
 10
-11.3959736460806480
 20
0.0383874296451721
 30
1.1825687632699458
 70
192
  0
VERTEX
  8
grove cross beam (5)
 10
-11.2609365635967650
 20
0.0431070755911689
 30
1.2557851499301238
 70
192
  0
VERTEX
  8
grove cross beam (5)
 10
-10.8563899713891490
 20
0.0365042075291937
 30
1.0460786969029003
 70
192
  0
VERTEX
  8
grove cross beam (5)
 10
-11.1259365308467760
 20
0.0374449536128507
 30
1.3290011906005690
 70
192
  0
VERTEX
  8
grove cross beam (5)
 10
-12.2215027844308040
 20
0.0372311319579408
 30
2.0850782529191507
 70
192
  0
VERTEX
  8
grove cross beam (5)
 10
-12.0427489188953200
 20
0.0406452433119311
 30
1.9170452252461887
 70
192
  0
VERTEX
  8
grove cross beam (5)
 10
-11.9938151296567310
 20
0.0456653236759648
 30
1.9629413399601434
 70
192
  0
VERTEX
  8
grove cross beam (5)
 10
-12.2184209385502740
 20
0.0412575298091893
 30
2.1414750406956147
 70
192
  0
VERTEX
  8
grove cross beam (5)
 10
-11.8149057994012810
 20
0.0398502742357207
 30
1.6939810312723766
 70
192
  0
VERTEX
  8
grove cross beam (5)
 10
-11.7426655651074230
 20
0.0447890470125314
 30
1.7490662873014644
 70
192
  0
VERTEX
  8
grove cross beam (5)
 10
-11.6704628706995810
 20
0.0393452445556504
 30
1.8041518893202850
 70
192
  0
VERTEX
  8
grove cross beam (5)
 10
-11.9431438953096110
 20
0.0402975236304028
 30
2.0069228628223401
 70
192
  0
VERTEX
  8
grove cross beam (5)
 10
-12.1564487568885300
 20
0.0370043933530040
 30
2.1489451896879688
 70
192
  0
VERTEX
  8
grove cross beam (5)
 10
-11.5985186882871430
 20
0.0390940560095911
 30
1.4513071772090358
 70
192
  0
VERTEX
  8
grove cross beam (5)
 10
-11.4980117847977680
 20
0.0439349136920013
 30
1.5156107530207281
 70
192
  0
VERTEX
  8
grove cross beam (5)
 10
-11.3975423635294530
 20
0.0383926194911650
 30
1.5799146748221533
 70
192
  0
VERTEX
  8
grove cross beam (5)
 10
-11.4153161444314510
 20
0.0228816691070532
 30
1.1721093783155583
 70
192
  0
VERTEX
  8
grove cross beam (5)
 10
-11.3004323007399030
 20
0.0380538955426912
 30
1.0363043716195834
 70
192
  0
VERTEX
  8
grove cross beam (5)
 10
-11.2362233819526270
 20
0.0222563503298572
 30
0.8735675817824360
 70
192
  0
VERTEX
  8
grove cross beam (5)
 10
-11.3005410856784110
 20
0.0069078997902805
 30
1.0363044869494944
 70
192
  0
VERTEX
  8
grove cross beam (5)
 10
-11.3225980464783970
 20
0.0225580533769145
 30
1.0252042136799320
 70
192
  0
VERTEX
  8
grove cross beam (5)
 10
-11.1457800799957210
 20
0.0011766951953005
 30
1.1140058231868766
 70
192
  0
VERTEX
  8
grove cross beam (5)
 10
-11.3382349947902270
 20
0.0018483765967003
 30
1.2139473794527520
 70
192
  0
VERTEX
  8
grove cross beam (5)
 10
-11.1350217599121390
 20
0.0011388669845074
 30
0.9195705496588902
 70
192
  0
VERTEX
  8
grove cross beam (5)
 10
-11.2342252624128600
 20
0.0014854333669261
 30
1.0696050760983598
 70
192
  0
VERTEX
  8
grove cross beam (5)
 10
-11.1348762712294690
 20
0.0426670919808769
 30
0.9195705496588902
 70
192
  0
VERTEX
  8
grove cross beam (5)
 10
-11.3380902557519790
 20
0.0433763709332480
 30
1.2139471487929301
 70
192
  0
VERTEX
  8
grove cross beam (5)
 10
-11.1456347354754400
 20
0.0427045742019372
 30
1.1140058231868766
 70
192
  0
VERTEX
  8
grove cross beam (5)
 10
-11.2340801197199230
 20
0.0430133123735628
 30
1.0696049607684488
 70
192
  0
VERTEX
  8
grove cross beam (5)
 10
-11.0913443620251290
 20
0.0217501673506773
 30
0.5700488959369325
 70
192
  0
VERTEX
  8
grove cross beam (5)
 10
-11.1294028866504280
 20
0.0063096835421588
 30
0.7321020677268963
 70
192
  0
VERTEX
  8
grove cross beam (5)
 10
-11.1292934673974100
 20
0.0374564866039462
 30
0.7321020677268963
 70
192
  0
VERTEX
  8
grove cross beam (5)
 10
-11.1584021891052850
 20
0.0219844023998261
 30
0.7206867131406058
 70
192
  0
VERTEX
  8
grove cross beam (5)
 10
-10.9260426710089470
 20
0.0004089439780754
 30
0.8120096074958854
 70
192
  0
VERTEX
  8
grove cross beam (5)
 10
-10.9575712593247110
 20
0.0005185073934824
 30
0.6124422105953729
 70
192
  0
VERTEX
  8
grove cross beam (5)
 10
-11.0422588418724410
 20
0.0008145592749029
 30
0.7663481891507233
 70
192
  0
VERTEX
  8
grove cross beam (5)
 10
-10.9574262752104020
 20
0.0420480010188724
 30
0.6124422105953729
 70
192
  0
VERTEX
  8
grove cross beam (5)
 10
-10.9258976941027580
 20
0.0419379762838217
 30
0.8120096074958854
 70
192
  0
VERTEX
  8
grove cross beam (5)
 10
-11.0421134685196820
 20
0.0423434762507382
 30
0.7663481891507233
 70
192
  0
VERTEX
  8
grove cross beam (5)
 10
-10.7226471572065950
 20
0.0048897416784852
 30
0.8919170895999189
 70
192
  0
VERTEX
  8
grove cross beam (5)
 10
-10.5559626461418290
 20
0.0198818227932120
 30
0.7396223852305157
 70
192
  0
VERTEX
  8
grove cross beam (5)
 10
-10.7225377595779360
 20
0.0360371213898274
 30
0.8919172625947853
 70
192
  0
VERTEX
  8
grove cross beam (5)
 10
-10.8311261394265300
 20
0.0208421749617314
 30
1.0575793956232973
 70
192
  0
VERTEX
  8
grove cross beam (5)
 10
-10.6935385003717960
 20
0.0203619412125162
 30
0.9033325595161204
 70
192
  0
VERTEX
  8
grove cross beam (5)
 10
-10.9324732001433600
 20
0.0004314333107116
 30
1.0115764854117986
 70
192
  0
VERTEX
  8
grove cross beam (5)
 10
-10.6898804374236590
 20
-0.0004156648852502
 30
0.6972288975772090
 70
192
  0
VERTEX
  8
grove cross beam (5)
 10
-10.8098269939016360
 20
0.0000030980214261
 30
0.8576710258410474
 70
192
  0
VERTEX
  8
grove cross beam (5)
 10
-10.6897353812281550
 20
0.0411138287401398
 30
0.6972290705720754
 70
192
  0
VERTEX
  8
grove cross beam (5)
 10
-10.9323275889226590
 20
0.0419603502865469
 30
1.0115764854117986
 70
192
  0
VERTEX
  8
grove cross beam (5)
 10
-10.8096816385691760
 20
0.0415324763169052
 30
0.8576711411709583
 70
192
  0
VERTEX
  8
grove cross beam (5)
 10
-10.9908737730414660
 20
0.0369734849368681
 30
1.1917072747541697
 70
192
  0
VERTEX
  8
grove cross beam (5)
 10
-11.1067029904293480
 20
0.0218043724088259
 30
1.3394604602250455
 70
192
  0
VERTEX
  8
grove cross beam (5)
 10
-10.9909832355432010
 20
0.0058267972049917
 30
1.1917070440943478
 70
192
  0
VERTEX
  8
grove cross beam (5)
 10
-10.9688172447286460
 20
0.0213228700305903
 30
1.2028073173639102
 70
192
  0
VERTEX
  8
grove cross beam (5)
 10
-11.1839288791088190
 20
0.0013096705826312
 30
1.2976226897476737
 70
192
  0
VERTEX
  8
grove cross beam (5)
 10
-11.0573351426546420
 20
0.0008676110339421
 30
1.1584065702753934
 70
192
  0
VERTEX
  8
grove cross beam (5)
 10
-11.1837831885988060
 20
0.0428378955790008
 30
1.2976229204074956
 70
192
  0
VERTEX
  8
grove cross beam (5)
 10
-11.0571894521446290
 20
0.0423960666901335
 30
1.1584066856053044
 70
192
  0
VERTEX
  8
grove cross beam (5)
 10
-10.9930535948559420
 20
0.0214074068553201
 30
0.2846039640918194
 70
192
  0
VERTEX
  8
grove cross beam (5)
 10
-10.9986295653907770
 20
0.0058528617648674
 30
0.4339453289339738
 70
192
  0
VERTEX
  8
grove cross beam (5)
 10
-10.9985209246146580
 20
0.0370002414762096
 30
0.4339453289339738
 70
192
  0
VERTEX
  8
grove cross beam (5)
 10
-11.0372598236333950
 20
0.0215616029462664
 30
0.4251413606889515
 70
192
  0
VERTEX
  8
grove cross beam (5)
 10
-10.7278553478635160
 20
-0.0002830354876524
 30
0.4955729336542633
 70
192
  0
VERTEX
  8
grove cross beam (5)
 10
-10.8149730145284320
 20
0.0000210894875350
 30
0.3096739188154957
 70
192
  0
VERTEX
  8
grove cross beam (5)
 10
-10.8825937344674200
 20
0.0002568238255263
 30
0.4603571471716074
 70
192
  0
VERTEX
  8
grove cross beam (5)
 10
-10.8148288179011710
 20
0.0415500064633703
 30
0.3096738899830180
 70
192
  0
VERTEX
  8
grove cross beam (5)
 10
-10.7277110701449110
 20
0.0412459968180938
 30
0.4955729336542633
 70
192
  0
VERTEX
  8
grove cross beam (5)
 10
-10.8824492549214720
 20
0.0417862021210054
 30
0.4603571471716074
 70
192
  0
VERTEX
  8
grove cross beam (5)
 10
-10.9047398452885740
 20
0.0366728198590094
 30
0.1503006537501461
 70
192
  0
VERTEX
  8
grove cross beam (5)
 10
-10.8727493174307210
 20
0.0209877213093561
 30
0.0449872212471684
 70
192
  0
VERTEX
  8
grove cross beam (5)
 10
-10.9048479382476170
 20
0.0055262474570439
 30
0.1503007979125348
 70
192
  0
VERTEX
  8
grove cross beam (5)
 10
-10.9556306533699140
 20
0.0212769687260304
 30
0.1470764619270204
 70
192
  0
VERTEX
  8
grove cross beam (5)
 10
-10.4650644541836400
 20
0.0195647808679977
 30
0.0108086804481161
 70
192
  0
VERTEX
  8
grove cross beam (5)
 10
-10.7072511402868700
 20
0.0048368052493570
 30
0.0480668758593903
 70
192
  0
VERTEX
  8
grove cross beam (5)
 10
-10.7071425139269890
 20
0.0359829163316787
 30
0.0480667316970016
 70
192
  0
VERTEX
  8
grove cross beam (5)
 10
-10.6921679052937720
 20
0.0203574433459890
 30
0.0107645667571759
 70
192
  0
VERTEX
  8
grove cross beam (5)
 10
-10.5501729981144730
 20
-0.0009028184291227
 30
0.1730373546290602
 70
192
  0
VERTEX
  8
grove cross beam (5)
 10
-10.7523558323193760
 20
-0.0001971147039912
 30
0.1599735752092561
 70
192
  0
VERTEX
  8
grove cross beam (5)
 10
-10.5500280572488800
 20
0.0406254065672469
 30
0.1730372969641047
 70
192
  0
VERTEX
  8
grove cross beam (5)
 10
-10.7522113599815460
 20
0.0413313409522003
 30
0.1599734598793452
 70
192
  0
VERTEX
  8
grove cross beam (5)
 10
-10.1097916437921070
 20
0.0183240616859477
 30
0.0591617862880933
 70
192
  0
VERTEX
  8
grove cross beam (5)
 10
-10.2695788134916340
 20
0.0033087992591190
 30
0.0552485523079093
 70
192
  0
VERTEX
  8
grove cross beam (5)
 10
-10.2694694230710940
 20
0.0344550256713516
 30
0.0552484081455206
 70
192
  0
VERTEX
  8
grove cross beam (5)
 10
-10.2426170445736130
 20
0.0187880339177182
 30
0.0115197479151219
 70
192
  0
VERTEX
  8
grove cross beam (5)
 10
-10.2011725490925970
 20
0.0342161774257645
 30
0.1966077033530711
 70
192
  0
VERTEX
  8
grove cross beam (5)
 10
-10.2827708830211360
 20
0.0189276984398843
 30
0.3852175477488275
 70
192
  0
VERTEX
  8
grove cross beam (5)
 10
-10.2012817665182710
 20
0.0030701816733538
 30
0.1966078475154598
 70
192
  0
VERTEX
  8
grove cross beam (5)
 10
-10.1515543921624030
 20
0.0184697233634834
 30
0.1999988063898259
 70
192
  0
VERTEX
  8
grove cross beam (5)
 10
-10.4598319937885830
 20
-0.0012183610654946
 30
0.3599806818115220
 70
192
  0
VERTEX
  8
grove cross beam (5)
 10
-10.3503181125784280
 20
-0.0016005643903982
 30
0.1864347402325395
 70
192
  0
VERTEX
  8
grove cross beam (5)
 10
-10.4596871682529020
 20
0.0403097486009640
 30
0.3599806818115220
 70
192
  0
VERTEX
  8
grove cross beam (5)
 10
-10.3501727968906250
 20
0.0399275452760604
 30
0.1864346249026285
 70
192
  0
VERTEX
  8
grove cross beam (5)
 10
-10.4570459402971740
 20
0.0039628351841428
 30
0.5572006825369416
 70
192
  0
VERTEX
  8
grove cross beam (5)
 10
-10.4569368958663670
 20
0.0351095229160192
 30
0.5572008555318080
 70
192
  0
VERTEX
  8
grove cross beam (5)
 10
-10.4183068826998100
 20
0.0194011277243531
 30
0.5660047372793970
 70
192
  0
VERTEX
  8
grove cross beam (5)
 10
-10.5731174225792550
 20
-0.0008231254606530
 30
0.5307887489693970
 70
192
  0
VERTEX
  8
grove cross beam (5)
 10
-10.5729726258760510
 20
0.0407057915151823
 30
0.5307888642993079
 70
192
  0
VERTEX
  8
grove cross beam (5)
 10
-12.0497399874375690
 20
0.0250963493871152
 30
1.9104340534306248
 70
192
  0
VERTEX
  8
grove cross beam (5)
 10
-12.1591383657419030
 20
0.0099047475264369
 30
2.0226340259318691
 70
192
  0
VERTEX
  8
grove cross beam (5)
 10
-12.2472519170000920
 20
0.0257853302751583
 30
2.1003728443903116
 70
192
  0
VERTEX
  8
grove cross beam (5)
 10
-12.1590309935948040
 20
0.0410507432788476
 30
2.0226335646122253
 70
192
  0
VERTEX
  8
grove cross beam (5)
 10
-12.1641973122859280
 20
0.0254957368687512
 30
2.0162915728088295
 70
192
  0
VERTEX
  8
grove cross beam (5)
 10
-12.2356582623714660
 20
0.0413177320227076
 30
2.1191540897294532
 70
192
  0
VERTEX
  8
grove cross beam (5)
 10
-12.2357660958382080
 20
0.0101718516002078
 30
2.1191545510490970
 70
192
  0
VERTEX
  8
grove cross beam (5)
 10
-12.2506746780974040
 20
0.0257968632662537
 30
2.1668010278216103
 70
192
  0
VERTEX
  8
grove cross beam (5)
 10
-12.2663672730912690
 20
0.0258517603038682
 30
2.1449856831850740
 70
192
  0
VERTEX
  8
grove cross beam (5)
 10
-12.1219497746349350
 20
0.0045830794452568
 30
2.0654968486578058
 70
192
  0
VERTEX
  8
grove cross beam (5)
 10
-12.0220635767263180
 20
0.0042347831141738
 30
1.9368793173424352
 70
192
  0
VERTEX
  8
grove cross beam (5)
 10
-12.1438188630099760
 20
0.0046597738360417
 30
2.0416604626617003
 70
192
  0
VERTEX
  8
grove cross beam (5)
 10
-12.0219189530179800
 20
0.0457634694301872
 30
1.9368790866826133
 70
192
  0
VERTEX
  8
grove cross beam (5)
 10
-12.1218046896069540
 20
0.0461116504313592
 30
2.0654970793176277
 70
192
  0
VERTEX
  8
grove cross beam (5)
 10
-12.1436748159511940
 20
0.0461879988324112
 30
2.0416600013420565
 70
192
  0
VERTEX
  8
grove cross beam (5)
 10
-11.9278578382518600
 20
0.0090973228198434
 30
1.8076658763771620
 70
192
  0
VERTEX
  8
grove cross beam (5)
 10
-11.9277496587953850
 20
0.0402440105517199
 30
1.8076655303874292
 70
192
  0
VERTEX
  8
grove cross beam (5)
 10
-11.8252773029635210
 20
0.0243127979720894
 30
1.6861118407881195
 70
192
  0
VERTEX
  8
grove cross beam (5)
 10
-11.9364164709438040
 20
0.0247008831224518
 30
1.8004918945961395
 70
192
  0
VERTEX
  8
grove cross beam (5)
 10
-11.8675868881066080
 20
0.0036955004505499
 30
1.8578823648853886
 70
192
  0
VERTEX
  8
grove cross beam (5)
 10
-11.7840803631363680
 20
0.0034042924253894
 30
1.7175892947046139
 70
192
  0
VERTEX
  8
grove cross beam (5)
 10
-11.9020376624574240
 20
0.0038159048775865
 30
1.8291872450706750
 70
192
  0
VERTEX
  8
grove cross beam (5)
 10
-11.7839353934382980
 20
0.0449332094012247
 30
1.7175889487148810
 70
192
  0
VERTEX
  8
grove cross beam (5)
 10
-11.8674413417589830
 20
0.0452244174263852
 30
1.8578823648853886
 70
192
  0
VERTEX
  8
grove cross beam (5)
 10
-11.9018929234191760
 20
0.0453448218534218
 30
1.8291870144108531
 70
192
  0
VERTEX
  8
grove cross beam (5)
 10
-11.9359062514177410
 20
0.0246985765242327
 30
2.0131511393335346
 70
192
  0
VERTEX
  8
grove cross beam (5)
 10
-11.8072793783795830
 20
0.0086760226551261
 30
1.9080988533936152
 70
192
  0
VERTEX
  8
grove cross beam (5)
 10
-11.6602006422279700
 20
0.0237360330874052
 30
1.8120209644746312
 70
192
  0
VERTEX
  8
grove cross beam (5)
 10
-11.8071701609539090
 20
0.0398227103870026
 30
1.9080993147132590
 70
192
  0
VERTEX
  8
grove cross beam (5)
 10
-11.7986119895816090
 20
0.0242192654143052
 30
1.9152729505045487
 70
192
  0
VERTEX
  8
grove cross beam (5)
 10
-11.9651469970411810
 20
0.0040356083579551
 30
1.9882375719691128
 70
192
  0
VERTEX
  8
grove cross beam (5)
 10
-11.7015427247480590
 20
0.0031161983078247
 30
1.7805433952282259
 70
192
  0
VERTEX
  8
grove cross beam (5)
 10
-11.8331358830959700
 20
0.0035752113534242
 30
1.8865774847001022
 70
192
  0
VERTEX
  8
grove cross beam (5)
 10
-11.7013963134261020
 20
0.0446445386341052
 30
1.7805438565478697
 70
192
  0
VERTEX
  8
grove cross beam (5)
 10
-11.9650017966832890
 20
0.0455648713235233
 30
1.9882378026289347
 70
192
  0
VERTEX
  8
grove cross beam (5)
 10
-11.8329902214184340
 20
0.0451040129993485
 30
1.8865778306898351
 70
192
  0
VERTEX
  8
grove cross beam (5)
 10
-12.0775186957798370
 20
0.0407665703782554
 30
2.1007022266159980
 70
192
  0
VERTEX
  8
grove cross beam (5)
 10
-12.1776355535103630
 20
0.0255425608125988
 30
2.1695576433532482
 70
192
  0
VERTEX
  8
grove cross beam (5)
 10
-12.0776281438653330
 20
0.0096197673164680
 30
2.1007010733168885
 70
192
  0
VERTEX
  8
grove cross beam (5)
 10
-12.0710415373208020
 20
0.0251705065198591
 30
2.1055121758822724
 70
192
  0
VERTEX
  8
grove cross beam (5)
 10
-12.1962163554642660
 20
0.0411803740987606
 30
2.1584352267407825
 70
192
  0
VERTEX
  8
grove cross beam (5)
 10
-12.1963261495394950
 20
0.0100341476865280
 30
2.1584343041014948
 70
192
  0
VERTEX
  8
grove cross beam (5)
 10
-12.2293053142265290
 20
0.0257225908035990
 30
2.1824893556087703
 70
192
  0
VERTEX
  8
grove cross beam (5)
 10
-12.0972418405017450
 20
0.0044969280017737
 30
2.0862700722189560
 70
192
  0
VERTEX
  8
grove cross beam (5)
 10
-12.0970961788242090
 20
0.0460257296476980
 30
2.0862707641984217
 70
192
  0
VERTEX
  8
grove cross beam (5)
 10
-11.7050900998141570
 20
0.0394664562920637
 30
1.5754777024879063
 70
192
  0
VERTEX
  8
grove cross beam (5)
 10
-11.6129281803566830
 20
0.0235709959848291
 30
1.4421209191416766
 70
192
  0
VERTEX
  8
grove cross beam (5)
 10
-11.7051983369355880
 20
0.0083197685601872
 30
1.5754780484776392
 70
192
  0
VERTEX
  8
grove cross beam (5)
 10
-11.7173729659906480
 20
0.0239357844931787
 30
1.5669405211593999
 70
192
  0
VERTEX
  8
grove cross beam (5)
 10
-11.6196158735681650
 20
0.0028299494688353
 30
1.6352394710762939
 70
192
  0
VERTEX
  8
grove cross beam (5)
 10
-11.5555788251806890
 20
0.0026062094415833
 30
1.4788659514111133
 70
192
  0
VERTEX
  8
grove cross beam (5)
 10
-11.6685304027116250
 20
0.0030006377370482
 30
1.6010900537828023
 70
192
  0
VERTEX
  8
grove cross beam (5)
 10
-11.5554339131475740
 20
0.0441350110875076
 30
1.4788658360812024
 70
192
  0
VERTEX
  8
grove cross beam (5)
 10
-11.6194700388957630
 20
0.0443588664446706
 30
1.6352394710762939
 70
192
  0
VERTEX
  8
grove cross beam (5)
 10
-11.6683853753485990
 20
0.0445296700427944
 30
1.6010898231229804
 70
192
  0
VERTEX
  8
grove cross beam (5)
 10
-11.4955159301947990
 20
0.0075881156050910
 30
1.3206203966313170
 70
192
  0
VERTEX
  8
grove cross beam (5)
 10
-11.4954078084032790
 20
0.0387342266874127
 30
1.3206202813014061
 70
192
  0
VERTEX
  8
grove cross beam (5)
 10
-11.5121677240580740
 20
0.0232194704162394
 30
1.3107961334965568
 70
192
  0
VERTEX
  8
grove cross beam (5)
 10
-11.3785935438296950
 20
0.0019887330983321
 30
1.3893896619250841
 70
192
  0
VERTEX
  8
grove cross beam (5)
 10
-11.4454166168761020
 20
0.0022220455081934
 30
1.3500929553757759
 70
192
  0
VERTEX
  8
grove cross beam (5)
 10
-11.3784481128119810
 20
0.0435174194143455
 30
1.3893897772549950
 70
192
  0
VERTEX
  8
grove cross beam (5)
 10
-11.4452718201728980
 20
0.0437505011643848
 30
1.3500928400458649
 70
192
  0
VERTEX
  8
grove cross beam (5)
 10
-11.3832416275659440
 20
0.0227694531036944
 30
1.5891009328895125
 70
192
  0
VERTEX
  8
grove cross beam (5)
 10
-11.2616349727050280
 20
0.0067719258252650
 30
1.4581590425487621
 70
192
  0
VERTEX
  8
grove cross beam (5)
 10
-11.2615257264468770
 20
0.0379180369075867
 30
1.4581591578786730
 70
192
  0
VERTEX
  8
grove cross beam (5)
 10
-11.2448745668981120
 20
0.0222866820964382
 30
1.4679833056835223
 70
192
  0
VERTEX
  8
grove cross beam (5)
 10
-11.4407360101049630
 20
0.0022055533309269
 30
1.5523557852901648
 70
192
  0
VERTEX
  8
grove cross beam (5)
 10
-11.3117704996157650
 20
0.0017556513482928
 30
1.4286863684743922
 70
192
  0
VERTEX
  8
grove cross beam (5)
 10
-11.4405901754325610
 20
0.0437342396469402
 30
1.5523559006200758
 70
192
  0
VERTEX
  8
grove cross beam (5)
 10
-11.3116248091057510
 20
0.0432839916745733
 30
1.4286865991342141
 70
192
  0
VERTEX
  8
grove cross beam (5)
 10
-11.5339972542736580
 20
0.0077224749513531
 30
1.6950008936749485
 70
192
  0
VERTEX
  8
grove cross beam (5)
 10
-11.5338875178633840
 20
0.0388684707037639
 30
1.6950013549945924
 70
192
  0
VERTEX
  8
grove cross beam (5)
 10
-11.5217137537826560
 20
0.0232526854305943
 30
1.7035385363230988
 70
192
  0
VERTEX
  8
grove cross beam (5)
 10
-11.5707014020896610
 20
0.0026593765305334
 30
1.6693887730398744
 70
192
  0
VERTEX
  8
grove cross beam (5)
 10
-11.5705551637625700
 20
0.0441878321867248
 30
1.6693891190296073
 70
192
  0
VERTEX
  8
grove cross beam (5)
 10
0
 20
0
 30
0
 70
128
  71
59
  72
55
  73
26
  74
58
  0
VERTEX
  8
grove cross beam (5)
 10
0
 20
0
 30
0
 70
128
  71
39
  72
55
  73
59
  74
56
  0
VERTEX
  8
grove cross beam (5)
 10
0
 20
0
 30
0
 70
128
  71
56
  72
59
  73
57
  74
12
  0
VERTEX
  8
grove cross beam (5)
 10
0
 20
0
 30
0
 70
128
  71
57
  72
59
  73
58
  74
5
  0
VERTEX
  8
grove cross beam (5)
 10
0
 20
0
 30
0
 70
128
  71
62
  72
63
  73
60
  74
7
  0
VERTEX
  8
grove cross beam (5)
 10
0
 20
0
 30
0
 70
128
  71
63
  72
61
  73
30
  74
60
  0
VERTEX
  8
grove cross beam (5)
 10
0
 20
0
 30
0
 70
128
  71
58
  72
26
  73
61
  74
63
  0
VERTEX
  8
grove cross beam (5)
 10
0
 20
0
 30
0
 70
128
  71
5
  72
58
  73
63
  74
62
  0
VERTEX
  8
grove cross beam (5)
 10
0
 20
0
 30
0
 70
128
  71
66
  72
67
  73
64
  74
13
  0
VERTEX
  8
grove cross beam (5)
 10
0
 20
0
 30
0
 70
128
  71
67
  72
56
  73
12
  74
64
  0
VERTEX
  8
grove cross beam (5)
 10
0
 20
0
 30
0
 70
128
  71
65
  72
39
  73
56
  74
67
  0
VERTEX
  8
grove cross beam (5)
 10
0
 20
0
 30
0
 70
128
  71
40
  72
65
  73
67
  74
66
  0
VERTEX
  8
grove cross beam (5)
 10
0
 20
0
 30
0
 70
128
  71
70
  72
71
  73
68
  74
14
  0
VERTEX
  8
grove cross beam (5)
 10
0
 20
0
 30
0
 70
128
  71
68
  72
71
  73
69
  74
3
  0
VERTEX
  8
grove cross beam (5)
 10
0
 20
0
 30
0
 70
128
  71
71
  72
57
  73
5
  74
69
  0
VERTEX
  8
grove cross beam (5)
 10
0
 20
0
 30
0
 70
128
  71
12
  72
57
  73
71
  74
70
  0
VERTEX
  8
grove cross beam (5)
 10
0
 20
0
 30
0
 70
128
  71
73
  72
74
  73
72
  74
6
  0
VERTEX
  8
grove cross beam (5)
 10
0
 20
0
 30
0
 70
128
  71
74
  72
62
  73
7
  74
72
  0
VERTEX
  8
grove cross beam (5)
 10
0
 20
0
 30
0
 70
128
  71
69
  72
5
  73
62
  74
74
  0
VERTEX
  8
grove cross beam (5)
 10
0
 20
0
 30
0
 70
128
  71
3
  72
69
  73
74
  74
73
  0
VERTEX
  8
grove cross beam (5)
 10
0
 20
0
 30
0
 70
128
  71
76
  72
77
  73
75
  74
15
  0
VERTEX
  8
grove cross beam (5)
 10
0
 20
0
 30
0
 70
128
  71
77
  72
70
  73
14
  74
75
  0
VERTEX
  8
grove cross beam (5)
 10
0
 20
0
 30
0
 70
128
  71
64
  72
12
  73
70
  74
77
  0
VERTEX
  8
grove cross beam (5)
 10
0
 20
0
 30
0
 70
128
  71
13
  72
64
  73
77
  74
76
  0
VERTEX
  8
grove cross beam (5)
 10
0
 20
0
 30
0
 70
128
  71
78
  72
29
  73
81
  74
82
  0
VERTEX
  8
grove cross beam (5)
 10
0
 20
0
 30
0
 70
128
  71
4
  72
78
  73
82
  74
79
  0
VERTEX
  8
grove cross beam (5)
 10
0
 20
0
 30
0
 70
128
  71
82
  72
80
  73
16
  74
79
  0
VERTEX
  8
grove cross beam (5)
 10
0
 20
0
 30
0
 70
128
  71
81
  72
41
  73
80
  74
82
  0
VERTEX
  8
grove cross beam (5)
 10
0
 20
0
 30
0
 70
128
  71
84
  72
85
  73
78
  74
4
  0
VERTEX
  8
grove cross beam (5)
 10
0
 20
0
 30
0
 70
128
  71
85
  72
83
  73
29
  74
78
  0
VERTEX
  8
grove cross beam (5)
 10
0
 20
0
 30
0
 70
128
  71
72
  72
7
  73
83
  74
85
  0
VERTEX
  8
grove cross beam (5)
 10
0
 20
0
 30
0
 70
128
  71
6
  72
72
  73
85
  74
84
  0
VERTEX
  8
grove cross beam (5)
 10
0
 20
0
 30
0
 70
128
  71
80
  72
88
  73
86
  74
16
  0
VERTEX
  8
grove cross beam (5)
 10
0
 20
0
 30
0
 70
128
  71
88
  72
76
  73
15
  74
86
  0
VERTEX
  8
grove cross beam (5)
 10
0
 20
0
 30
0
 70
128
  71
87
  72
13
  73
76
  74
88
  0
VERTEX
  8
grove cross beam (5)
 10
0
 20
0
 30
0
 70
128
  71
41
  72
87
  73
88
  74
80
  0
VERTEX
  8
grove cross beam (5)
 10
0
 20
0
 30
0
 70
128
  71
92
  72
89
  73
41
  74
81
  0
VERTEX
  8
grove cross beam (5)
 10
0
 20
0
 30
0
 70
128
  71
90
  72
42
  73
89
  74
92
  0
VERTEX
  8
grove cross beam (5)
 10
0
 20
0
 30
0
 70
128
  71
91
  72
25
  73
90
  74
92
  0
VERTEX
  8
grove cross beam (5)
 10
0
 20
0
 30
0
 70
128
  71
29
  72
91
  73
92
  74
81
  0
VERTEX
  8
grove cross beam (5)
 10
0
 20
0
 30
0
 70
128
  71
83
  72
94
  73
91
  74
29
  0
VERTEX
  8
grove cross beam (5)
 10
0
 20
0
 30
0
 70
128
  71
94
  72
93
  73
25
  74
91
  0
VERTEX
  8
grove cross beam (5)
 10
0
 20
0
 30
0
 70
128
  71
60
  72
30
  73
93
  74
94
  0
VERTEX
  8
grove cross beam (5)
 10
0
 20
0
 30
0
 70
128
  71
7
  72
60
  73
94
  74
83
  0
VERTEX
  8
grove cross beam (5)
 10
0
 20
0
 30
0
 70
128
  71
89
  72
96
  73
87
  74
41
  0
VERTEX
  8
grove cross beam (5)
 10
0
 20
0
 30
0
 70
128
  71
96
  72
66
  73
13
  74
87
  0
VERTEX
  8
grove cross beam (5)
 10
0
 20
0
 30
0
 70
128
  71
95
  72
40
  73
66
  74
96
  0
VERTEX
  8
grove cross beam (5)
 10
0
 20
0
 30
0
 70
128
  71
42
  72
95
  73
96
  74
89
  0
VERTEX
  8
grove cross beam (5)
 10
0
 20
0
 30
0
 70
128
  71
99
  72
100
  73
97
  74
17
  0
VERTEX
  8
grove cross beam (5)
 10
0
 20
0
 30
0
 70
128
  71
97
  72
100
  73
98
  74
8
  0
VERTEX
  8
grove cross beam (5)
 10
0
 20
0
 30
0
 70
128
  71
100
  72
68
  73
3
  74
98
  0
VERTEX
  8
grove cross beam (5)
 10
0
 20
0
 30
0
 70
128
  71
14
  72
68
  73
100
  74
99
  0
VERTEX
  8
grove cross beam (5)
 10
0
 20
0
 30
0
 70
128
  71
102
  72
103
  73
101
  74
11
  0
VERTEX
  8
grove cross beam (5)
 10
0
 20
0
 30
0
 70
128
  71
103
  72
73
  73
6
  74
101
  0
VERTEX
  8
grove cross beam (5)
 10
0
 20
0
 30
0
 70
128
  71
98
  72
3
  73
73
  74
103
  0
VERTEX
  8
grove cross beam (5)
 10
0
 20
0
 30
0
 70
128
  71
8
  72
98
  73
103
  74
102
  0
VERTEX
  8
grove cross beam (5)
 10
0
 20
0
 30
0
 70
128
  71
105
  72
106
  73
104
  74
18
  0
VERTEX
  8
grove cross beam (5)
 10
0
 20
0
 30
0
 70
128
  71
106
  72
99
  73
17
  74
104
  0
VERTEX
  8
grove cross beam (5)
 10
0
 20
0
 30
0
 70
128
  71
75
  72
14
  73
99
  74
106
  0
VERTEX
  8
grove cross beam (5)
 10
0
 20
0
 30
0
 70
128
  71
15
  72
75
  73
106
  74
105
  0
VERTEX
  8
grove cross beam (5)
 10
0
 20
0
 30
0
 70
128
  71
17
  72
97
  73
110
  74
107
  0
VERTEX
  8
grove cross beam (5)
 10
0
 20
0
 30
0
 70
128
  71
19
  72
107
  73
110
  74
108
  0
VERTEX
  8
grove cross beam (5)
 10
0
 20
0
 30
0
 70
128
  71
110
  72
109
  73
1
  74
108
  0
VERTEX
  8
grove cross beam (5)
 10
0
 20
0
 30
0
 70
128
  71
110
  72
97
  73
8
  74
109
  0
VERTEX
  8
grove cross beam (5)
 10
0
 20
0
 30
0
 70
128
  71
20
  72
113
  73
114
  74
111
  0
VERTEX
  8
grove cross beam (5)
 10
0
 20
0
 30
0
 70
128
  71
114
  72
112
  73
9
  74
111
  0
VERTEX
  8
grove cross beam (5)
 10
0
 20
0
 30
0
 70
128
  71
1
  72
112
  73
114
  74
108
  0
VERTEX
  8
grove cross beam (5)
 10
0
 20
0
 30
0
 70
128
  71
114
  72
113
  73
19
  74
108
  0
VERTEX
  8
grove cross beam (5)
 10
0
 20
0
 30
0
 70
128
  71
112
  72
116
  73
115
  74
9
  0
VERTEX
  8
grove cross beam (5)
 10
0
 20
0
 30
0
 70
128
  71
116
  72
102
  73
11
  74
115
  0
VERTEX
  8
grove cross beam (5)
 10
0
 20
0
 30
0
 70
128
  71
109
  72
8
  73
102
  74
116
  0
VERTEX
  8
grove cross beam (5)
 10
0
 20
0
 30
0
 70
128
  71
112
  72
1
  73
109
  74
116
  0
VERTEX
  8
grove cross beam (5)
 10
0
 20
0
 30
0
 70
128
  71
117
  72
118
  73
113
  74
20
  0
VERTEX
  8
grove cross beam (5)
 10
0
 20
0
 30
0
 70
128
  71
107
  72
19
  73
113
  74
118
  0
VERTEX
  8
grove cross beam (5)
 10
0
 20
0
 30
0
 70
128
  71
104
  72
17
  73
107
  74
118
  0
VERTEX
  8
grove cross beam (5)
 10
0
 20
0
 30
0
 70
128
  71
18
  72
104
  73
118
  74
117
  0
VERTEX
  8
grove cross beam (5)
 10
0
 20
0
 30
0
 70
128
  71
21
  72
121
  73
122
  74
119
  0
VERTEX
  8
grove cross beam (5)
 10
0
 20
0
 30
0
 70
128
  71
122
  72
120
  73
2
  74
119
  0
VERTEX
  8
grove cross beam (5)
 10
0
 20
0
 30
0
 70
128
  71
111
  72
9
  73
120
  74
122
  0
VERTEX
  8
grove cross beam (5)
 10
0
 20
0
 30
0
 70
128
  71
121
  72
20
  73
111
  74
122
  0
VERTEX
  8
grove cross beam (5)
 10
0
 20
0
 30
0
 70
128
  71
126
  72
123
  73
21
  74
119
  0
VERTEX
  8
grove cross beam (5)
 10
0
 20
0
 30
0
 70
128
  71
124
  72
22
  73
123
  74
126
  0
VERTEX
  8
grove cross beam (5)
 10
0
 20
0
 30
0
 70
128
  71
125
  72
10
  73
124
  74
126
  0
VERTEX
  8
grove cross beam (5)
 10
0
 20
0
 30
0
 70
128
  71
2
  72
125
  73
126
  74
119
  0
VERTEX
  8
grove cross beam (5)
 10
0
 20
0
 30
0
 70
128
  71
125
  72
2
  73
120
  74
128
  0
VERTEX
  8
grove cross beam (5)
 10
0
 20
0
 30
0
 70
128
  71
128
  72
127
  73
10
  74
125
  0
VERTEX
  8
grove cross beam (5)
 10
0
 20
0
 30
0
 70
128
  71
115
  72
11
  73
127
  74
128
  0
VERTEX
  8
grove cross beam (5)
 10
0
 20
0
 30
0
 70
128
  71
9
  72
115
  73
128
  74
120
  0
VERTEX
  8
grove cross beam (5)
 10
0
 20
0
 30
0
 70
128
  71
121
  72
21
  73
123
  74
130
  0
VERTEX
  8
grove cross beam (5)
 10
0
 20
0
 30
0
 70
128
  71
130
  72
117
  73
20
  74
121
  0
VERTEX
  8
grove cross beam (5)
 10
0
 20
0
 30
0
 70
128
  71
129
  72
18
  73
117
  74
130
  0
VERTEX
  8
grove cross beam (5)
 10
0
 20
0
 30
0
 70
128
  71
22
  72
129
  73
130
  74
123
  0
VERTEX
  8
grove cross beam (5)
 10
0
 20
0
 30
0
 70
128
  71
79
  72
16
  73
132
  74
133
  0
VERTEX
  8
grove cross beam (5)
 10
0
 20
0
 30
0
 70
128
  71
131
  72
4
  73
79
  74
133
  0
VERTEX
  8
grove cross beam (5)
 10
0
 20
0
 30
0
 70
128
  71
10
  72
131
  73
133
  74
124
  0
VERTEX
  8
grove cross beam (5)
 10
0
 20
0
 30
0
 70
128
  71
133
  72
132
  73
22
  74
124
  0
VERTEX
  8
grove cross beam (5)
 10
0
 20
0
 30
0
 70
128
  71
127
  72
134
  73
131
  74
10
  0
VERTEX
  8
grove cross beam (5)
 10
0
 20
0
 30
0
 70
128
  71
134
  72
84
  73
4
  74
131
  0
VERTEX
  8
grove cross beam (5)
 10
0
 20
0
 30
0
 70
128
  71
101
  72
6
  73
84
  74
134
  0
VERTEX
  8
grove cross beam (5)
 10
0
 20
0
 30
0
 70
128
  71
11
  72
101
  73
134
  74
127
  0
VERTEX
  8
grove cross beam (5)
 10
0
 20
0
 30
0
 70
128
  71
132
  72
135
  73
129
  74
22
  0
VERTEX
  8
grove cross beam (5)
 10
0
 20
0
 30
0
 70
128
  71
135
  72
105
  73
18
  74
129
  0
VERTEX
  8
grove cross beam (5)
 10
0
 20
0
 30
0
 70
128
  71
86
  72
15
  73
105
  74
135
  0
VERTEX
  8
grove cross beam (5)
 10
0
 20
0
 30
0
 70
128
  71
16
  72
86
  73
135
  74
132
  0
VERTEX
  8
grove cross beam (5)
 10
0
 20
0
 30
0
 70
128
  71
139
  72
140
  73
136
  74
44
  0
VERTEX
  8
grove cross beam (5)
 10
0
 20
0
 30
0
 70
128
  71
136
  72
140
  73
137
  74
31
  0
VERTEX
  8
grove cross beam (5)
 10
0
 20
0
 30
0
 70
128
  71
138
  72
24
  73
137
  74
140
  0
VERTEX
  8
grove cross beam (5)
 10
0
 20
0
 30
0
 70
128
  71
139
  72
43
  73
138
  74
140
  0
VERTEX
  8
grove cross beam (5)
 10
0
 20
0
 30
0
 70
128
  71
143
  72
144
  73
141
  74
46
  0
VERTEX
  8
grove cross beam (5)
 10
0
 20
0
 30
0
 70
128
  71
138
  72
43
  73
141
  74
144
  0
VERTEX
  8
grove cross beam (5)
 10
0
 20
0
 30
0
 70
128
  71
142
  72
24
  73
138
  74
144
  0
VERTEX
  8
grove cross beam (5)
 10
0
 20
0
 30
0
 70
128
  71
142
  72
144
  73
143
  74
34
  0
VERTEX
  8
grove cross beam (5)
 10
0
 20
0
 30
0
 70
128
  71
146
  72
147
  73
145
  74
35
  0
VERTEX
  8
grove cross beam (5)
 10
0
 20
0
 30
0
 70
128
  71
147
  72
142
  73
34
  74
145
  0
VERTEX
  8
grove cross beam (5)
 10
0
 20
0
 30
0
 70
128
  71
137
  72
24
  73
142
  74
147
  0
VERTEX
  8
grove cross beam (5)
 10
0
 20
0
 30
0
 70
128
  71
31
  72
137
  73
147
  74
146
  0
VERTEX
  8
grove cross beam (5)
 10
0
 20
0
 30
0
 70
128
  71
149
  72
150
  73
148
  74
45
  0
VERTEX
  8
grove cross beam (5)
 10
0
 20
0
 30
0
 70
128
  71
150
  72
139
  73
44
  74
148
  0
VERTEX
  8
grove cross beam (5)
 10
0
 20
0
 30
0
 70
128
  71
141
  72
43
  73
139
  74
150
  0
VERTEX
  8
grove cross beam (5)
 10
0
 20
0
 30
0
 70
128
  71
46
  72
141
  73
150
  74
149
  0
VERTEX
  8
grove cross beam (5)
 10
0
 20
0
 30
0
 70
128
  71
153
  72
154
  73
151
  74
27
  0
VERTEX
  8
grove cross beam (5)
 10
0
 20
0
 30
0
 70
128
  71
154
  72
136
  73
31
  74
151
  0
VERTEX
  8
grove cross beam (5)
 10
0
 20
0
 30
0
 70
128
  71
44
  72
136
  73
154
  74
152
  0
VERTEX
  8
grove cross beam (5)
 10
0
 20
0
 30
0
 70
128
  71
152
  72
154
  73
153
  74
47
  0
VERTEX
  8
grove cross beam (5)
 10
0
 20
0
 30
0
 70
128
  71
156
  72
157
  73
155
  74
32
  0
VERTEX
  8
grove cross beam (5)
 10
0
 20
0
 30
0
 70
128
  71
157
  72
146
  73
35
  74
155
  0
VERTEX
  8
grove cross beam (5)
 10
0
 20
0
 30
0
 70
128
  71
151
  72
31
  73
146
  74
157
  0
VERTEX
  8
grove cross beam (5)
 10
0
 20
0
 30
0
 70
128
  71
27
  72
151
  73
157
  74
156
  0
VERTEX
  8
grove cross beam (5)
 10
0
 20
0
 30
0
 70
128
  71
159
  72
160
  73
158
  74
48
  0
VERTEX
  8
grove cross beam (5)
 10
0
 20
0
 30
0
 70
128
  71
160
  72
152
  73
47
  74
158
  0
VERTEX
  8
grove cross beam (5)
 10
0
 20
0
 30
0
 70
128
  71
148
  72
44
  73
152
  74
160
  0
VERTEX
  8
grove cross beam (5)
 10
0
 20
0
 30
0
 70
128
  71
45
  72
148
  73
160
  74
159
  0
VERTEX
  8
grove cross beam (5)
 10
0
 20
0
 30
0
 70
128
  71
50
  72
164
  73
165
  74
161
  0
VERTEX
  8
grove cross beam (5)
 10
0
 20
0
 30
0
 70
128
  71
165
  72
162
  73
33
  74
161
  0
VERTEX
  8
grove cross beam (5)
 10
0
 20
0
 30
0
 70
128
  71
163
  72
28
  73
162
  74
165
  0
VERTEX
  8
grove cross beam (5)
 10
0
 20
0
 30
0
 70
128
  71
164
  72
49
  73
163
  74
165
  0
VERTEX
  8
grove cross beam (5)
 10
0
 20
0
 30
0
 70
128
  71
167
  72
168
  73
162
  74
28
  0
VERTEX
  8
grove cross beam (5)
 10
0
 20
0
 30
0
 70
128
  71
168
  72
166
  73
33
  74
162
  0
VERTEX
  8
grove cross beam (5)
 10
0
 20
0
 30
0
 70
128
  71
155
  72
35
  73
166
  74
168
  0
VERTEX
  8
grove cross beam (5)
 10
0
 20
0
 30
0
 70
128
  71
32
  72
155
  73
168
  74
167
  0
VERTEX
  8
grove cross beam (5)
 10
0
 20
0
 30
0
 70
128
  71
164
  72
171
  73
169
  74
49
  0
VERTEX
  8
grove cross beam (5)
 10
0
 20
0
 30
0
 70
128
  71
171
  72
159
  73
48
  74
169
  0
VERTEX
  8
grove cross beam (5)
 10
0
 20
0
 30
0
 70
128
  71
170
  72
45
  73
159
  74
171
  0
VERTEX
  8
grove cross beam (5)
 10
0
 20
0
 30
0
 70
128
  71
50
  72
170
  73
171
  74
164
  0
VERTEX
  8
grove cross beam (5)
 10
0
 20
0
 30
0
 70
128
  71
33
  72
174
  73
175
  74
161
  0
VERTEX
  8
grove cross beam (5)
 10
0
 20
0
 30
0
 70
128
  71
175
  72
172
  73
50
  74
161
  0
VERTEX
  8
grove cross beam (5)
 10
0
 20
0
 30
0
 70
128
  71
173
  72
51
  73
172
  74
175
  0
VERTEX
  8
grove cross beam (5)
 10
0
 20
0
 30
0
 70
128
  71
174
  72
23
  73
173
  74
175
  0
VERTEX
  8
grove cross beam (5)
 10
0
 20
0
 30
0
 70
128
  71
176
  72
51
  73
173
  74
178
  0
VERTEX
  8
grove cross beam (5)
 10
0
 20
0
 30
0
 70
128
  71
176
  72
178
  73
143
  74
46
  0
VERTEX
  8
grove cross beam (5)
 10
0
 20
0
 30
0
 70
128
  71
143
  72
178
  73
177
  74
34
  0
VERTEX
  8
grove cross beam (5)
 10
0
 20
0
 30
0
 70
128
  71
173
  72
23
  73
177
  74
178
  0
VERTEX
  8
grove cross beam (5)
 10
0
 20
0
 30
0
 70
128
  71
145
  72
179
  73
166
  74
35
  0
VERTEX
  8
grove cross beam (5)
 10
0
 20
0
 30
0
 70
128
  71
179
  72
174
  73
33
  74
166
  0
VERTEX
  8
grove cross beam (5)
 10
0
 20
0
 30
0
 70
128
  71
177
  72
23
  73
174
  74
179
  0
VERTEX
  8
grove cross beam (5)
 10
0
 20
0
 30
0
 70
128
  71
34
  72
177
  73
179
  74
145
  0
VERTEX
  8
grove cross beam (5)
 10
0
 20
0
 30
0
 70
128
  71
170
  72
180
  73
149
  74
45
  0
VERTEX
  8
grove cross beam (5)
 10
0
 20
0
 30
0
 70
128
  71
180
  72
176
  73
46
  74
149
  0
VERTEX
  8
grove cross beam (5)
 10
0
 20
0
 30
0
 70
128
  71
172
  72
51
  73
176
  74
180
  0
VERTEX
  8
grove cross beam (5)
 10
0
 20
0
 30
0
 70
128
  71
50
  72
172
  73
180
  74
170
  0
VERTEX
  8
grove cross beam (5)
 10
0
 20
0
 30
0
 70
128
  71
184
  72
153
  73
27
  74
183
  0
VERTEX
  8
grove cross beam (5)
 10
0
 20
0
 30
0
 70
128
  71
47
  72
153
  73
184
  74
181
  0
VERTEX
  8
grove cross beam (5)
 10
0
 20
0
 30
0
 70
128
  71
181
  72
184
  73
182
  74
52
  0
VERTEX
  8
grove cross beam (5)
 10
0
 20
0
 30
0
 70
128
  71
182
  72
184
  73
183
  74
36
  0
VERTEX
  8
grove cross beam (5)
 10
0
 20
0
 30
0
 70
128
  71
186
  72
187
  73
185
  74
38
  0
VERTEX
  8
grove cross beam (5)
 10
0
 20
0
 30
0
 70
128
  71
187
  72
156
  73
32
  74
185
  0
VERTEX
  8
grove cross beam (5)
 10
0
 20
0
 30
0
 70
128
  71
183
  72
27
  73
156
  74
187
  0
VERTEX
  8
grove cross beam (5)
 10
0
 20
0
 30
0
 70
128
  71
36
  72
183
  73
187
  74
186
  0
VERTEX
  8
grove cross beam (5)
 10
0
 20
0
 30
0
 70
128
  71
189
  72
190
  73
188
  74
53
  0
VERTEX
  8
grove cross beam (5)
 10
0
 20
0
 30
0
 70
128
  71
190
  72
181
  73
52
  74
188
  0
VERTEX
  8
grove cross beam (5)
 10
0
 20
0
 30
0
 70
128
  71
158
  72
47
  73
181
  74
190
  0
VERTEX
  8
grove cross beam (5)
 10
0
 20
0
 30
0
 70
128
  71
48
  72
158
  73
190
  74
189
  0
VERTEX
  8
grove cross beam (5)
 10
0
 20
0
 30
0
 70
128
  71
192
  72
193
  73
55
  74
39
  0
VERTEX
  8
grove cross beam (5)
 10
0
 20
0
 30
0
 70
128
  71
55
  72
193
  73
191
  74
26
  0
VERTEX
  8
grove cross beam (5)
 10
0
 20
0
 30
0
 70
128
  71
193
  72
182
  73
36
  74
191
  0
VERTEX
  8
grove cross beam (5)
 10
0
 20
0
 30
0
 70
128
  71
52
  72
182
  73
193
  74
192
  0
VERTEX
  8
grove cross beam (5)
 10
0
 20
0
 30
0
 70
128
  71
61
  72
195
  73
194
  74
30
  0
VERTEX
  8
grove cross beam (5)
 10
0
 20
0
 30
0
 70
128
  71
195
  72
186
  73
38
  74
194
  0
VERTEX
  8
grove cross beam (5)
 10
0
 20
0
 30
0
 70
128
  71
191
  72
36
  73
186
  74
195
  0
VERTEX
  8
grove cross beam (5)
 10
0
 20
0
 30
0
 70
128
  71
26
  72
191
  73
195
  74
61
  0
VERTEX
  8
grove cross beam (5)
 10
0
 20
0
 30
0
 70
128
  71
196
  72
197
  73
65
  74
40
  0
VERTEX
  8
grove cross beam (5)
 10
0
 20
0
 30
0
 70
128
  71
197
  72
192
  73
39
  74
65
  0
VERTEX
  8
grove cross beam (5)
 10
0
 20
0
 30
0
 70
128
  71
188
  72
52
  73
192
  74
197
  0
VERTEX
  8
grove cross beam (5)
 10
0
 20
0
 30
0
 70
128
  71
53
  72
188
  73
197
  74
196
  0
VERTEX
  8
grove cross beam (5)
 10
0
 20
0
 30
0
 70
128
  71
198
  72
54
  73
200
  74
201
  0
VERTEX
  8
grove cross beam (5)
 10
0
 20
0
 30
0
 70
128
  71
199
  72
37
  73
198
  74
201
  0
VERTEX
  8
grove cross beam (5)
 10
0
 20
0
 30
0
 70
128
  71
25
  72
199
  73
201
  74
90
  0
VERTEX
  8
grove cross beam (5)
 10
0
 20
0
 30
0
 70
128
  71
201
  72
200
  73
42
  74
90
  0
VERTEX
  8
grove cross beam (5)
 10
0
 20
0
 30
0
 70
128
  71
93
  72
203
  73
199
  74
25
  0
VERTEX
  8
grove cross beam (5)
 10
0
 20
0
 30
0
 70
128
  71
203
  72
202
  73
37
  74
199
  0
VERTEX
  8
grove cross beam (5)
 10
0
 20
0
 30
0
 70
128
  71
194
  72
38
  73
202
  74
203
  0
VERTEX
  8
grove cross beam (5)
 10
0
 20
0
 30
0
 70
128
  71
30
  72
194
  73
203
  74
93
  0
VERTEX
  8
grove cross beam (5)
 10
0
 20
0
 30
0
 70
128
  71
200
  72
205
  73
95
  74
42
  0
VERTEX
  8
grove cross beam (5)
 10
0
 20
0
 30
0
 70
128
  71
205
  72
196
  73
40
  74
95
  0
VERTEX
  8
grove cross beam (5)
 10
0
 20
0
 30
0
 70
128
  71
204
  72
53
  73
196
  74
205
  0
VERTEX
  8
grove cross beam (5)
 10
0
 20
0
 30
0
 70
128
  71
54
  72
204
  73
205
  74
200
  0
VERTEX
  8
grove cross beam (5)
 10
0
 20
0
 30
0
 70
128
  71
206
  72
28
  73
163
  74
208
  0
VERTEX
  8
grove cross beam (5)
 10
0
 20
0
 30
0
 70
128
  71
37
  72
206
  73
208
  74
198
  0
VERTEX
  8
grove cross beam (5)
 10
0
 20
0
 30
0
 70
128
  71
208
  72
207
  73
54
  74
198
  0
VERTEX
  8
grove cross beam (5)
 10
0
 20
0
 30
0
 70
128
  71
163
  72
49
  73
207
  74
208
  0
VERTEX
  8
grove cross beam (5)
 10
0
 20
0
 30
0
 70
128
  71
202
  72
209
  73
206
  74
37
  0
VERTEX
  8
grove cross beam (5)
 10
0
 20
0
 30
0
 70
128
  71
209
  72
167
  73
28
  74
206
  0
VERTEX
  8
grove cross beam (5)
 10
0
 20
0
 30
0
 70
128
  71
185
  72
32
  73
167
  74
209
  0
VERTEX
  8
grove cross beam (5)
 10
0
 20
0
 30
0
 70
128
  71
38
  72
185
  73
209
  74
202
  0
VERTEX
  8
grove cross beam (5)
 10
0
 20
0
 30
0
 70
128
  71
207
  72
210
  73
204
  74
54
  0
VERTEX
  8
grove cross beam (5)
 10
0
 20
0
 30
0
 70
128
  71
210
  72
189
  73
53
  74
204
  0
VERTEX
  8
grove cross beam (5)
 10
0
 20
0
 30
0
 70
128
  71
169
  72
48
  73
189
  74
210
  0
VERTEX
  8
grove cross beam (5)
 10
0
 20
0
 30
0
 70
128
  71
49
  72
169
  73
210
  74
207
  0
SEQEND
  0
POLYLINE
  8
Mesh
 66
1
 10
0.0
 20
0.0
 30
0.0
 70
64
 71
0
 72
0
  0
SEQEND
  0
ENDSEC
  0
EOF
