  0
SECTION
  2
HEADER
  9
$ACADVER
  1
AC1009
  9
$INSBASE
 10
0.0
 20
0.0
 30
0.0
  9
$EXTMIN
 10
7.4639277885639643
 20
4.2816093338401791
 30
0.0
  9
$EXTMAX
 10
101.4639277885638933
 20
50.2816093338401799
 30
0.0
  9
$LIMMIN
 10
0.0
 20
0.0
  9
$LIMMAX
 10
12.0
 20
9.0
  9
$ORTHOMODE
 70
     0
  9
$REGENMODE
 70
     1
  9
$FILLMODE
 70
     1
  9
$QTEXTMODE
 70
     0
  9
$MIRRTEXT
 70
     0
  9
$DRAGMODE
 70
     2
  9
$LTSCALE
 40
1.0
  9
$OSMODE
 70
   303
  9
$ATTMODE
 70
     1
  9
$TEXTSIZE
 40
0.2
  9
$TRACEWID
 40
0.05
  9
$TEXTSTYLE
  7
STANDARD
  9
$CLAYER
  8
0
  9
$CELTYPE
  6
BYLAYER
  9
$CECOLOR
 62
   256
  9
$DIMSCALE
 40
1.0
  9
$DIMASZ
 40
0.18
  9
$DIMEXO
 40
0.0625
  9
$DIMDLI
 40
0.38
  9
$DIMRND
 40
0.0
  9
$DIMDLE
 40
0.0
  9
$DIMEXE
 40
0.18
  9
$DIMTP
 40
0.0
  9
$DIMTM
 40
0.0
  9
$DIMTXT
 40
0.18
  9
$DIMCEN
 40
0.09
  9
$DIMTSZ
 40
0.0
  9
$DIMTOL
 70
     0
  9
$DIMLIM
 70
     0
  9
$DIMTIH
 70
     1
  9
$DIMTOH
 70
     1
  9
$DIMSE1
 70
     0
  9
$DIMSE2
 70
     0
  9
$DIMTAD
 70
     0
  9
$DIMZIN
 70
     0
  9
$DIMBLK
  1

  9
$DIMASO
 70
     1
  9
$DIMSHO
 70
     1
  9
$DIMPOST
  1

  9
$DIMAPOST
  1

  9
$DIMALT
 70
     0
  9
$DIMALTD
 70
     2
  9
$DIMALTF
 40
25.3999999999999986
  9
$DIMLFAC
 40
1.0
  9
$DIMTOFL
 70
     0
  9
$DIMTVP
 40
0.0
  9
$DIMTIX
 70
     0
  9
$DIMSOXD
 70
     0
  9
$DIMSAH
 70
     0
  9
$DIMBLK1
  1

  9
$DIMBLK2
  1

  9
$DIMSTYLE
  2
STANDARD
  9
$DIMCLRD
 70
     0
  9
$DIMCLRE
 70
     0
  9
$DIMCLRT
 70
     0
  9
$DIMTFAC
 40
1.0
  9
$DIMGAP
 40
0.09
  9
$LUNITS
 70
     2
  9
$LUPREC
 70
     4
  9
$SKETCHINC
 40
0.1
  9
$FILLETRAD
 40
0.0
  9
$AUNITS
 70
     0
  9
$AUPREC
 70
     0
  9
$MENU
  1
.
  9
$ELEVATION
 40
0.0
  9
$PELEVATION
 40
0.0
  9
$THICKNESS
 40
0.0
  9
$LIMCHECK
 70
     0
  9
$BLIPMODE
 70
     0
  9
$CHAMFERA
 40
0.0
  9
$CHAMFERB
 40
0.0
  9
$SKPOLY
 70
     0
  9
$TDCREATE
 40
2457228.6055319798178971
  9
$TDUPDATE
 40
2457228.6057476038113236
  9
$TDINDWG
 40
0.000220081
  9
$TDUSRTIMER
 40
0.0002198958
  9
$USRTIMER
 70
     1
  9
$ANGBASE
 50
0.0
  9
$ANGDIR
 70
     0
  9
$PDMODE
 70
     0
  9
$PDSIZE
 40
0.0
  9
$PLINEWID
 40
0.0
  9
$COORDS
 70
     1
  9
$SPLFRAME
 70
     0
  9
$SPLINETYPE
 70
     6
  9
$SPLINESEGS
 70
     8
  9
$ATTDIA
 70
     1
  9
$ATTREQ
 70
     1
  9
$HANDLING
 70
     1
  9
$HANDSEED
  5
8BA
  9
$SURFTAB1
 70
     6
  9
$SURFTAB2
 70
     6
  9
$SURFTYPE
 70
     6
  9
$SURFU
 70
     6
  9
$SURFV
 70
     6
  9
$UCSNAME
  2

  9
$UCSORG
 10
0.0
 20
0.0
 30
0.0
  9
$UCSXDIR
 10
1.0
 20
0.0
 30
0.0
  9
$UCSYDIR
 10
0.0
 20
1.0
 30
0.0
  9
$PUCSNAME
  2

  9
$PUCSORG
 10
0.0
 20
0.0
 30
0.0
  9
$PUCSXDIR
 10
1.0
 20
0.0
 30
0.0
  9
$PUCSYDIR
 10
0.0
 20
1.0
 30
0.0
  9
$USERI1
 70
     0
  9
$USERI2
 70
     0
  9
$USERI3
 70
     0
  9
$USERI4
 70
     0
  9
$USERI5
 70
     0
  9
$USERR1
 40
0.0
  9
$USERR2
 40
0.0
  9
$USERR3
 40
0.0
  9
$USERR4
 40
0.0
  9
$USERR5
 40
0.0
  9
$WORLDVIEW
 70
     1
  9
$SHADEDGE
 70
     3
  9
$SHADEDIF
 70
    70
  9
$TILEMODE
 70
     1
  9
$MAXACTVP
 70
    64
  9
$PLIMCHECK
 70
     0
  9
$PEXTMIN
 10
0.0
 20
0.0
 30
0.0
  9
$PEXTMAX
 10
0.0
 20
0.0
 30
0.0
  9
$PLIMMIN
 10
0.0
 20
0.0
  9
$PLIMMAX
 10
12.0
 20
9.0
  9
$UNITMODE
 70
     0
  9
$VISRETAIN
 70
     1
  9
$PLINEGEN
 70
     0
  9
$PSLTSCALE
 70
     1
  0
ENDSEC
  0
SECTION
  2
TABLES
  0
TABLE
  2
VPORT
 70
     1
  0
VPORT
  2
*ACTIVE
 70
     0
 10
0.0
 20
0.0
 11
1.0
 21
1.0
 12
23.4518101673001098
 22
13.1348712842764801
 13
0.0
 23
0.0
 14
0.5
 24
0.5
 15
0.5
 25
0.5
 16
0.0
 26
0.0
 36
1.0
 17
0.0
 27
0.0
 37
0.0
 40
29.2260236050612683
 41
1.6803278688524581
 42
50.0
 43
0.0
 44
0.0
 50
0.0
 51
0.0
 71
     0
 72
  1000
 73
     1
 74
     3
 75
     0
 76
     1
 77
     0
 78
     0
  0
ENDTAB
  0
TABLE
  2
LTYPE
 70
     1
  0
LTYPE
  2
CONTINUOUS
 70
     0
  3
Solid line
 72
    65
 73
     0
 40
0.0
  0
ENDTAB
  0
TABLE
  2
LAYER
 70
     4
  0
LAYER
  2
0
 70
     0
 62
     7
  6
CONTINUOUS
  0
LAYER
  2
DRILLING
 70
     0
 62
     3
  6
CONTINUOUS
  0
LAYER
  2
CUT_SHEET
 70
     0
 62
     1
  6
CONTINUOUS
  0
LAYER
  2
ANNOTATION
 70
     0
 62
     7
  6
CONTINUOUS
  0
ENDTAB
  0
TABLE
  2
STYLE
 70
     3
  0
STYLE
  2
STANDARD
 70
     0
 40
0.0
 41
1.0
 50
0.0
 71
     0
 42
0.2
  3
txt
  4

  0
STYLE
  2
ANNOTATIVE
 70
     0
 40
0.0
 41
1.0
 50
0.0
 71
     0
 42
0.2
  3
txt
  4

  0
STYLE
  2
TW_CEN_MT
 70
     0
 40
0.0
 41
1.0
 50
0.0
 71
     0
 42
0.0
  3
txt
  4

  0
ENDTAB
  0
TABLE
  2
VIEW
 70
     1
  0
ENDTAB
  0
TABLE
  2
UCS
 70
     0
  0
ENDTAB
  0
TABLE
  2
APPID
 70
     9
  0
APPID
  2
ACAD
 70
     0
  0
APPID
  2
ACADANNOPO
 70
     0
  0
APPID
  2
ACADANNOTATIVE
 70
     0
  0
APPID
  2
ACAD_DSTYLE_DIMJAG
 70
     0
  0
APPID
  2
ACAD_DSTYLE_DIMTALN
 70
     0
  0
APPID
  2
ACAD_MLEADERVER
 70
     0
  0
APPID
  2
ACAD_NAV_VCDISPLAY
 70
     0
  0
APPID
  2
ACAECLAYERSTANDARD
 70
     0
  0
APPID
  2
ACCMTRANSPARENCY
 70
     0
  0
ENDTAB
  0
TABLE
  2
DIMSTYLE
 70
     2
  0
DIMSTYLE
  2
STANDARD
 70
     0
  3

  4

  5

  6

  7

 40
1.0
 41
0.18
 42
0.0625
 43
0.38
 44
0.18
 45
0.0
 46
0.0
 47
0.0
 48
0.0
140
0.18
141
0.09
142
0.0
143
25.3999999999999986
144
1.0
145
0.0
146
1.0
147
0.09
 71
     0
 72
     0
 73
     1
 74
     1
 75
     0
 76
     0
 77
     0
 78
     0
170
     0
171
     2
172
     0
173
     0
174
     0
175
     0
176
     0
177
     0
178
     0
  0
DIMSTYLE
  2
ANNOTATIVE
 70
     0
  3

  4

  5

  6

  7

 40
0.0
 41
0.18
 42
0.0625
 43
0.38
 44
0.18
 45
0.0
 46
0.0
 47
0.0
 48
0.0
140
0.18
141
0.09
142
0.0
143
25.3999999999999986
144
1.0
145
0.0
146
1.0
147
0.09
 71
     0
 72
     0
 73
     1
 74
     1
 75
     0
 76
     0
 77
     0
 78
     0
170
     0
171
     2
172
     0
173
     0
174
     0
175
     0
176
     0
177
     0
178
     0
  0
ENDTAB
  0
ENDSEC
  0
SECTION
  2
BLOCKS
  0
BLOCK
  8
0
  2
$MODEL_SPACE
 70
     0
 10
0.0
 20
0.0
 30
0.0
  3
$MODEL_SPACE
  1

  0
ENDBLK
  5
21
  8
0
  0
BLOCK
 67
     1
  8
0
  2
$PAPER_SPACE
 70
     0
 10
0.0
 20
0.0
 30
0.0
  3
$PAPER_SPACE
  1

  0
ENDBLK
  5
5B
 67
     1
  8
0
  0
BLOCK
  8
0
  2
*U2
 70
     1
 10
0.0
 20
0.0
 30
0.0
  3
*U2
  1

  0
TEXT
  5
262
  8
ANNOTATION
 62
     7
 10
29.2058739877677382
 20
19.4918038969328187
 30
0.0
 40
4.1481299999999992
  1
G.11
 50
233.1366826364589997
  7
TW_CEN_MT
  0
ENDBLK
  5
264
  8
0
  0
BLOCK
  8
0
  2
*U3
 70
     1
 10
0.0
 20
0.0
 30
0.0
  3
*U3
  1

  0
TEXT
  5
266
  8
ANNOTATION
 62
     7
 10
63.7009281965322316
 20
26.6288455263278401
 30
0.0
 40
4.1481299999999992
  1
G.11
 50
53.0702434736890396
  7
TW_CEN_MT
  0
ENDBLK
  5
268
  8
0
  0
BLOCK
  8
0
  2
*U4
 70
     1
 10
0.0
 20
0.0
 30
0.0
  3
*U4
  1

  0
TEXT
  5
26F
  8
ANNOTATION
 62
     7
 10
36.669802010956559
 20
23.7734118664670611
 30
0.0
 40
4.1481299999999992
  1
G.11
 50
233.1366826364589997
  7
TW_CEN_MT
  0
ENDBLK
  5
271
  8
0
  0
BLOCK
  8
0
  2
*U5
 70
     1
 10
0.0
 20
0.0
 30
0.0
  3
*U5
  1

  0
TEXT
  5
273
  8
ANNOTATION
 62
     7
 10
71.1648562197210452
 20
30.9104534958620683
 30
0.0
 40
4.1481299999999992
  1
G.11
 50
53.0702434736890396
  7
TW_CEN_MT
  0
ENDBLK
  5
275
  8
0
  0
ENDSEC
  0
SECTION
  2
ENTITIES
  0
POLYLINE
  5
1F5
  8
CUT_SHEET
 66
     1
 10
0.0
 20
0.0
 30
0.0
 70
     1
  0
VERTEX
  5
269
  8
CUT_SHEET
 10
7.4639277885639643
 20
50.2816093338401799
 30
0.0
  0
VERTEX
  5
26A
  8
CUT_SHEET
 10
7.4639277885639643
 20
4.2816093338401791
 30
0.0
  0
VERTEX
  5
26B
  8
CUT_SHEET
 10
101.4639277885638933
 20
4.2816093338401791
 30
0.0
  0
VERTEX
  5
26C
  8
CUT_SHEET
 10
101.4639277885638933
 20
50.2816093338401799
 30
0.0
  0
SEQEND
  5
26D
  8
CUT_SHEET
  0
POLYLINE
  8
0
  5
276
  66
     1
 10
0.00000
 20
0.00000
 30
0.00000
  70
     8
  0
VERTEX
  8
0
  5
277
 10
68.7817
 20
7.44368
 30
0.00000
  70
    32
  0
VERTEX
  8
0
  5
278
 10
68.6499
 20
7.42484
 30
0.00000
  70
    32
  0
VERTEX
  8
0
  5
279
 10
68.5180
 20
7.40607
 30
0.00000
  70
    32
  0
VERTEX
  8
0
  5
27A
 10
68.3862
 20
7.38737
 30
0.00000
  70
    32
  0
VERTEX
  8
0
  5
27B
 10
68.2543
 20
7.36873
 30
0.00000
  70
    32
  0
VERTEX
  8
0
  5
27C
 10
68.1224
 20
7.35017
 30
0.00000
  70
    32
  0
VERTEX
  8
0
  5
27D
 10
67.9905
 20
7.33167
 30
0.00000
  70
    32
  0
VERTEX
  8
0
  5
27E
 10
67.8586
 20
7.31324
 30
0.00000
  70
    32
  0
VERTEX
  8
0
  5
27F
 10
67.7267
 20
7.29487
 30
0.00000
  70
    32
  0
VERTEX
  8
0
  5
280
 10
67.5947
 20
7.27657
 30
0.00000
  70
    32
  0
VERTEX
  8
0
  5
281
 10
67.4628
 20
7.25835
 30
0.00000
  70
    32
  0
VERTEX
  8
0
  5
282
 10
67.3308
 20
7.24018
 30
0.00000
  70
    32
  0
VERTEX
  8
0
  5
283
 10
67.1989
 20
7.22209
 30
0.00000
  70
    32
  0
VERTEX
  8
0
  5
284
 10
67.0669
 20
7.20406
 30
0.00000
  70
    32
  0
VERTEX
  8
0
  5
285
 10
66.9349
 20
7.18611
 30
0.00000
  70
    32
  0
VERTEX
  8
0
  5
286
 10
66.8030
 20
7.16821
 30
0.00000
  70
    32
  0
VERTEX
  8
0
  5
287
 10
66.6710
 20
7.15039
 30
0.00000
  70
    32
  0
VERTEX
  8
0
  5
288
 10
66.5390
 20
7.13264
 30
0.00000
  70
    32
  0
VERTEX
  8
0
  5
289
 10
66.4070
 20
7.11495
 30
0.00000
  70
    32
  0
VERTEX
  8
0
  5
28A
 10
66.2749
 20
7.09733
 30
0.00000
  70
    32
  0
VERTEX
  8
0
  5
28B
 10
66.1429
 20
7.07978
 30
0.00000
  70
    32
  0
VERTEX
  8
0
  5
28C
 10
66.0109
 20
7.06229
 30
0.00000
  70
    32
  0
VERTEX
  8
0
  5
28D
 10
65.8788
 20
7.04487
 30
0.00000
  70
    32
  0
VERTEX
  8
0
  5
28E
 10
65.7468
 20
7.02753
 30
0.00000
  70
    32
  0
VERTEX
  8
0
  5
28F
 10
65.6147
 20
7.01025
 30
0.00000
  70
    32
  0
VERTEX
  8
0
  5
290
 10
65.4826
 20
6.99303
 30
0.00000
  70
    32
  0
VERTEX
  8
0
  5
291
 10
65.3505
 20
6.97589
 30
0.00000
  70
    32
  0
VERTEX
  8
0
  5
292
 10
65.2185
 20
6.95881
 30
0.00000
  70
    32
  0
VERTEX
  8
0
  5
293
 10
65.0864
 20
6.94180
 30
0.00000
  70
    32
  0
VERTEX
  8
0
  5
294
 10
64.9542
 20
6.92486
 30
0.00000
  70
    32
  0
VERTEX
  8
0
  5
295
 10
64.8221
 20
6.90799
 30
0.00000
  70
    32
  0
VERTEX
  8
0
  5
296
 10
64.6900
 20
6.89118
 30
0.00000
  70
    32
  0
VERTEX
  8
0
  5
297
 10
64.5579
 20
6.87444
 30
0.00000
  70
    32
  0
VERTEX
  8
0
  5
298
 10
64.4257
 20
6.85777
 30
0.00000
  70
    32
  0
VERTEX
  8
0
  5
299
 10
64.2936
 20
6.84117
 30
0.00000
  70
    32
  0
VERTEX
  8
0
  5
29A
 10
64.1614
 20
6.82464
 30
0.00000
  70
    32
  0
VERTEX
  8
0
  5
29B
 10
64.0293
 20
6.80817
 30
0.00000
  70
    32
  0
VERTEX
  8
0
  5
29C
 10
63.8971
 20
6.79177
 30
0.00000
  70
    32
  0
VERTEX
  8
0
  5
29D
 10
63.7649
 20
6.77544
 30
0.00000
  70
    32
  0
VERTEX
  8
0
  5
29E
 10
63.6327
 20
6.75918
 30
0.00000
  70
    32
  0
VERTEX
  8
0
  5
29F
 10
63.5005
 20
6.74299
 30
0.00000
  70
    32
  0
VERTEX
  8
0
  5
2A0
 10
63.3683
 20
6.72687
 30
0.00000
  70
    32
  0
VERTEX
  8
0
  5
2A1
 10
63.2361
 20
6.71081
 30
0.00000
  70
    32
  0
VERTEX
  8
0
  5
2A2
 10
63.1039
 20
6.69482
 30
0.00000
  70
    32
  0
VERTEX
  8
0
  5
2A3
 10
62.9716
 20
6.67890
 30
0.00000
  70
    32
  0
VERTEX
  8
0
  5
2A4
 10
62.8394
 20
6.66305
 30
0.00000
  70
    32
  0
VERTEX
  8
0
  5
2A5
 10
62.7071
 20
6.64726
 30
0.00000
  70
    32
  0
VERTEX
  8
0
  5
2A6
 10
62.5749
 20
6.63155
 30
0.00000
  70
    32
  0
VERTEX
  8
0
  5
2A7
 10
62.4426
 20
6.61590
 30
0.00000
  70
    32
  0
VERTEX
  8
0
  5
2A8
 10
62.3103
 20
6.60032
 30
0.00000
  70
    32
  0
VERTEX
  8
0
  5
2A9
 10
62.1781
 20
6.58481
 30
0.00000
  70
    32
  0
VERTEX
  8
0
  5
2AA
 10
62.0458
 20
6.56936
 30
0.00000
  70
    32
  0
VERTEX
  8
0
  5
2AB
 10
61.9135
 20
6.55399
 30
0.00000
  70
    32
  0
VERTEX
  8
0
  5
2AC
 10
61.7812
 20
6.53868
 30
0.00000
  70
    32
  0
VERTEX
  8
0
  5
2AD
 10
61.6489
 20
6.52345
 30
0.00000
  70
    32
  0
VERTEX
  8
0
  5
2AE
 10
61.5165
 20
6.50828
 30
0.00000
  70
    32
  0
VERTEX
  8
0
  5
2AF
 10
61.3842
 20
6.49317
 30
0.00000
  70
    32
  0
VERTEX
  8
0
  5
2B0
 10
61.2519
 20
6.47814
 30
0.00000
  70
    32
  0
VERTEX
  8
0
  5
2B1
 10
61.1195
 20
6.46318
 30
0.00000
  70
    32
  0
VERTEX
  8
0
  5
2B2
 10
60.9872
 20
6.44828
 30
0.00000
  70
    32
  0
VERTEX
  8
0
  5
2B3
 10
60.8548
 20
6.43345
 30
0.00000
  70
    32
  0
VERTEX
  8
0
  5
2B4
 10
60.7225
 20
6.41869
 30
0.00000
  70
    32
  0
VERTEX
  8
0
  5
2B5
 10
60.5901
 20
6.40400
 30
0.00000
  70
    32
  0
VERTEX
  8
0
  5
2B6
 10
60.4577
 20
6.38938
 30
0.00000
  70
    32
  0
VERTEX
  8
0
  5
2B7
 10
60.3254
 20
6.37483
 30
0.00000
  70
    32
  0
VERTEX
  8
0
  5
2B8
 10
60.1930
 20
6.36034
 30
0.00000
  70
    32
  0
VERTEX
  8
0
  5
2B9
 10
60.0606
 20
6.34593
 30
0.00000
  70
    32
  0
VERTEX
  8
0
  5
2BA
 10
59.9282
 20
6.33158
 30
0.00000
  70
    32
  0
VERTEX
  8
0
  5
2BB
 10
59.7957
 20
6.31730
 30
0.00000
  70
    32
  0
VERTEX
  8
0
  5
2BC
 10
59.6633
 20
6.30309
 30
0.00000
  70
    32
  0
VERTEX
  8
0
  5
2BD
 10
59.5309
 20
6.28895
 30
0.00000
  70
    32
  0
VERTEX
  8
0
  5
2BE
 10
59.3985
 20
6.27487
 30
0.00000
  70
    32
  0
VERTEX
  8
0
  5
2BF
 10
59.2660
 20
6.26087
 30
0.00000
  70
    32
  0
VERTEX
  8
0
  5
2C0
 10
59.1336
 20
6.24693
 30
0.00000
  70
    32
  0
VERTEX
  8
0
  5
2C1
 10
59.0011
 20
6.23306
 30
0.00000
  70
    32
  0
VERTEX
  8
0
  5
2C2
 10
58.8687
 20
6.21926
 30
0.00000
  70
    32
  0
VERTEX
  8
0
  5
2C3
 10
58.7362
 20
6.20553
 30
0.00000
  70
    32
  0
VERTEX
  8
0
  5
2C4
 10
58.6037
 20
6.19187
 30
0.00000
  70
    32
  0
VERTEX
  8
0
  5
2C5
 10
58.4712
 20
6.17828
 30
0.00000
  70
    32
  0
VERTEX
  8
0
  5
2C6
 10
58.3387
 20
6.16476
 30
0.00000
  70
    32
  0
VERTEX
  8
0
  5
2C7
 10
58.2062
 20
6.15130
 30
0.00000
  70
    32
  0
VERTEX
  8
0
  5
2C8
 10
58.0737
 20
6.13791
 30
0.00000
  70
    32
  0
VERTEX
  8
0
  5
2C9
 10
57.9412
 20
6.12460
 30
0.00000
  70
    32
  0
VERTEX
  8
0
  5
2CA
 10
57.8087
 20
6.11135
 30
0.00000
  70
    32
  0
VERTEX
  8
0
  5
2CB
 10
57.6762
 20
6.09817
 30
0.00000
  70
    32
  0
VERTEX
  8
0
  5
2CC
 10
57.5437
 20
6.08506
 30
0.00000
  70
    32
  0
VERTEX
  8
0
  5
2CD
 10
57.4111
 20
6.07201
 30
0.00000
  70
    32
  0
VERTEX
  8
0
  5
2CE
 10
57.2786
 20
6.05904
 30
0.00000
  70
    32
  0
VERTEX
  8
0
  5
2CF
 10
57.1460
 20
6.04614
 30
0.00000
  70
    32
  0
VERTEX
  8
0
  5
2D0
 10
57.0135
 20
6.03330
 30
0.00000
  70
    32
  0
VERTEX
  8
0
  5
2D1
 10
56.8809
 20
6.02054
 30
0.00000
  70
    32
  0
VERTEX
  8
0
  5
2D2
 10
56.7484
 20
6.00784
 30
0.00000
  70
    32
  0
VERTEX
  8
0
  5
2D3
 10
56.6158
 20
5.99521
 30
0.00000
  70
    32
  0
VERTEX
  8
0
  5
2D4
 10
56.4832
 20
5.98265
 30
0.00000
  70
    32
  0
VERTEX
  8
0
  5
2D5
 10
56.3506
 20
5.97016
 30
0.00000
  70
    32
  0
VERTEX
  8
0
  5
2D6
 10
56.2180
 20
5.95774
 30
0.00000
  70
    32
  0
VERTEX
  8
0
  5
2D7
 10
56.0854
 20
5.94539
 30
0.00000
  70
    32
  0
VERTEX
  8
0
  5
2D8
 10
55.9528
 20
5.93310
 30
0.00000
  70
    32
  0
VERTEX
  8
0
  5
2D9
 10
55.8202
 20
5.92089
 30
0.00000
  70
    32
  0
VERTEX
  8
0
  5
2DA
 10
55.6876
 20
5.90874
 30
0.00000
  70
    32
  0
VERTEX
  8
0
  5
2DB
 10
55.5550
 20
5.89667
 30
0.00000
  70
    32
  0
VERTEX
  8
0
  5
2DC
 10
55.4224
 20
5.88466
 30
0.00000
  70
    32
  0
VERTEX
  8
0
  5
2DD
 10
55.2897
 20
5.87272
 30
0.00000
  70
    32
  0
VERTEX
  8
0
  5
2DE
 10
55.1571
 20
5.86085
 30
0.00000
  70
    32
  0
VERTEX
  8
0
  5
2DF
 10
55.0245
 20
5.84905
 30
0.00000
  70
    32
  0
VERTEX
  8
0
  5
2E0
 10
54.8918
 20
5.83732
 30
0.00000
  70
    32
  0
VERTEX
  8
0
  5
2E1
 10
54.7591
 20
5.82566
 30
0.00000
  70
    32
  0
VERTEX
  8
0
  5
2E2
 10
54.6265
 20
5.81407
 30
0.00000
  70
    32
  0
VERTEX
  8
0
  5
2E3
 10
54.4938
 20
5.80254
 30
0.00000
  70
    32
  0
VERTEX
  8
0
  5
2E4
 10
54.3611
 20
5.79109
 30
0.00000
  70
    32
  0
VERTEX
  8
0
  5
2E5
 10
54.2285
 20
5.77970
 30
0.00000
  70
    32
  0
VERTEX
  8
0
  5
2E6
 10
54.0958
 20
5.76838
 30
0.00000
  70
    32
  0
VERTEX
  8
0
  5
2E7
 10
53.9631
 20
5.75713
 30
0.00000
  70
    32
  0
VERTEX
  8
0
  5
2E8
 10
53.8304
 20
5.74595
 30
0.00000
  70
    32
  0
VERTEX
  8
0
  5
2E9
 10
53.6977
 20
5.73484
 30
0.00000
  70
    32
  0
VERTEX
  8
0
  5
2EA
 10
53.5650
 20
5.72379
 30
0.00000
  70
    32
  0
VERTEX
  8
0
  5
2EB
 10
53.4323
 20
5.71281
 30
0.00000
  70
    32
  0
VERTEX
  8
0
  5
2EC
 10
53.2996
 20
5.70191
 30
0.00000
  70
    32
  0
VERTEX
  8
0
  5
2ED
 10
53.1668
 20
5.69107
 30
0.00000
  70
    32
  0
VERTEX
  8
0
  5
2EE
 10
53.0341
 20
5.68029
 30
0.00000
  70
    32
  0
VERTEX
  8
0
  5
2EF
 10
52.9014
 20
5.66959
 30
0.00000
  70
    32
  0
VERTEX
  8
0
  5
2F0
 10
52.7687
 20
5.65895
 30
0.00000
  70
    32
  0
VERTEX
  8
0
  5
2F1
 10
52.6359
 20
5.64839
 30
0.00000
  70
    32
  0
VERTEX
  8
0
  5
2F2
 10
52.5032
 20
5.63789
 30
0.00000
  70
    32
  0
VERTEX
  8
0
  5
2F3
 10
52.3704
 20
5.62745
 30
0.00000
  70
    32
  0
VERTEX
  8
0
  5
2F4
 10
52.2376
 20
5.61709
 30
0.00000
  70
    32
  0
VERTEX
  8
0
  5
2F5
 10
52.1049
 20
5.60679
 30
0.00000
  70
    32
  0
VERTEX
  8
0
  5
2F6
 10
51.9721
 20
5.59656
 30
0.00000
  70
    32
  0
VERTEX
  8
0
  5
2F7
 10
51.8393
 20
5.58640
 30
0.00000
  70
    32
  0
VERTEX
  8
0
  5
2F8
 10
51.7066
 20
5.57631
 30
0.00000
  70
    32
  0
VERTEX
  8
0
  5
2F9
 10
51.5738
 20
5.56628
 30
0.00000
  70
    32
  0
VERTEX
  8
0
  5
2FA
 10
51.4410
 20
5.55632
 30
0.00000
  70
    32
  0
VERTEX
  8
0
  5
2FB
 10
51.3082
 20
5.54643
 30
0.00000
  70
    32
  0
VERTEX
  8
0
  5
2FC
 10
51.1754
 20
5.53661
 30
0.00000
  70
    32
  0
VERTEX
  8
0
  5
2FD
 10
51.0426
 20
5.52685
 30
0.00000
  70
    32
  0
VERTEX
  8
0
  5
2FE
 10
50.9098
 20
5.51716
 30
0.00000
  70
    32
  0
VERTEX
  8
0
  5
2FF
 10
50.7770
 20
5.50754
 30
0.00000
  70
    32
  0
VERTEX
  8
0
  5
300
 10
50.6441
 20
5.49798
 30
0.00000
  70
    32
  0
VERTEX
  8
0
  5
301
 10
50.5113
 20
5.48850
 30
0.00000
  70
    32
  0
VERTEX
  8
0
  5
302
 10
50.3785
 20
5.47907
 30
0.00000
  70
    32
  0
VERTEX
  8
0
  5
303
 10
50.2457
 20
5.46972
 30
0.00000
  70
    32
  0
VERTEX
  8
0
  5
304
 10
50.1128
 20
5.46043
 30
0.00000
  70
    32
  0
VERTEX
  8
0
  5
305
 10
49.9800
 20
5.45121
 30
0.00000
  70
    32
  0
VERTEX
  8
0
  5
306
 10
49.8471
 20
5.44206
 30
0.00000
  70
    32
  0
VERTEX
  8
0
  5
307
 10
49.7143
 20
5.43297
 30
0.00000
  70
    32
  0
VERTEX
  8
0
  5
308
 10
49.5814
 20
5.42395
 30
0.00000
  70
    32
  0
VERTEX
  8
0
  5
309
 10
49.4486
 20
5.41500
 30
0.00000
  70
    32
  0
VERTEX
  8
0
  5
30A
 10
49.3157
 20
5.40611
 30
0.00000
  70
    32
  0
VERTEX
  8
0
  5
30B
 10
49.1828
 20
5.39729
 30
0.00000
  70
    32
  0
VERTEX
  8
0
  5
30C
 10
49.0499
 20
5.38853
 30
0.00000
  70
    32
  0
VERTEX
  8
0
  5
30D
 10
48.9171
 20
5.37984
 30
0.00000
  70
    32
  0
VERTEX
  8
0
  5
30E
 10
48.7842
 20
5.37122
 30
0.00000
  70
    32
  0
VERTEX
  8
0
  5
30F
 10
48.6513
 20
5.36267
 30
0.00000
  70
    32
  0
VERTEX
  8
0
  5
310
 10
48.5184
 20
5.35418
 30
0.00000
  70
    32
  0
VERTEX
  8
0
  5
311
 10
48.3855
 20
5.34575
 30
0.00000
  70
    32
  0
VERTEX
  8
0
  5
312
 10
48.2526
 20
5.33740
 30
0.00000
  70
    32
  0
VERTEX
  8
0
  5
313
 10
48.1197
 20
5.32910
 30
0.00000
  70
    32
  0
VERTEX
  8
0
  5
314
 10
47.9868
 20
5.32088
 30
0.00000
  70
    32
  0
VERTEX
  8
0
  5
315
 10
47.8538
 20
5.31272
 30
0.00000
  70
    32
  0
VERTEX
  8
0
  5
316
 10
47.7209
 20
5.30463
 30
0.00000
  70
    32
  0
VERTEX
  8
0
  5
317
 10
47.5880
 20
5.29660
 30
0.00000
  70
    32
  0
VERTEX
  8
0
  5
318
 10
47.4551
 20
5.28864
 30
0.00000
  70
    32
  0
VERTEX
  8
0
  5
319
 10
47.3221
 20
5.28074
 30
0.00000
  70
    32
  0
VERTEX
  8
0
  5
31A
 10
47.1892
 20
5.27291
 30
0.00000
  70
    32
  0
VERTEX
  8
0
  5
31B
 10
47.0563
 20
5.26514
 30
0.00000
  70
    32
  0
VERTEX
  8
0
  5
31C
 10
46.9233
 20
5.25744
 30
0.00000
  70
    32
  0
VERTEX
  8
0
  5
31D
 10
46.7904
 20
5.24981
 30
0.00000
  70
    32
  0
VERTEX
  8
0
  5
31E
 10
46.6574
 20
5.24224
 30
0.00000
  70
    32
  0
VERTEX
  8
0
  5
31F
 10
46.5244
 20
5.23474
 30
0.00000
  70
    32
  0
VERTEX
  8
0
  5
320
 10
46.3915
 20
5.22730
 30
0.00000
  70
    32
  0
VERTEX
  8
0
  5
321
 10
46.2585
 20
5.21993
 30
0.00000
  70
    32
  0
VERTEX
  8
0
  5
322
 10
46.1255
 20
5.21262
 30
0.00000
  70
    32
  0
VERTEX
  8
0
  5
323
 10
45.9926
 20
5.20538
 30
0.00000
  70
    32
  0
VERTEX
  8
0
  5
324
 10
45.8596
 20
5.19820
 30
0.00000
  70
    32
  0
VERTEX
  8
0
  5
325
 10
45.7266
 20
5.19109
 30
0.00000
  70
    32
  0
VERTEX
  8
0
  5
326
 10
45.5936
 20
5.18404
 30
0.00000
  70
    32
  0
VERTEX
  8
0
  5
327
 10
45.4606
 20
5.17706
 30
0.00000
  70
    32
  0
VERTEX
  8
0
  5
328
 10
45.3276
 20
5.17014
 30
0.00000
  70
    32
  0
VERTEX
  8
0
  5
329
 10
45.1946
 20
5.16328
 30
0.00000
  70
    32
  0
VERTEX
  8
0
  5
32A
 10
45.0616
 20
5.15650
 30
0.00000
  70
    32
  0
VERTEX
  8
0
  5
32B
 10
44.9286
 20
5.14977
 30
0.00000
  70
    32
  0
VERTEX
  8
0
  5
32C
 10
44.7956
 20
5.14311
 30
0.00000
  70
    32
  0
VERTEX
  8
0
  5
32D
 10
44.6626
 20
5.13652
 30
0.00000
  70
    32
  0
VERTEX
  8
0
  5
32E
 10
44.5296
 20
5.12999
 30
0.00000
  70
    32
  0
VERTEX
  8
0
  5
32F
 10
44.3966
 20
5.12352
 30
0.00000
  70
    32
  0
VERTEX
  8
0
  5
330
 10
44.2635
 20
5.11712
 30
0.00000
  70
    32
  0
VERTEX
  8
0
  5
331
 10
44.1305
 20
5.11078
 30
0.00000
  70
    32
  0
VERTEX
  8
0
  5
332
 10
43.9975
 20
5.10451
 30
0.00000
  70
    32
  0
VERTEX
  8
0
  5
333
 10
43.8645
 20
5.09830
 30
0.00000
  70
    32
  0
VERTEX
  8
0
  5
334
 10
43.7314
 20
5.09216
 30
0.00000
  70
    32
  0
VERTEX
  8
0
  5
335
 10
43.5984
 20
5.08608
 30
0.00000
  70
    32
  0
VERTEX
  8
0
  5
336
 10
43.4653
 20
5.08006
 30
0.00000
  70
    32
  0
VERTEX
  8
0
  5
337
 10
43.3323
 20
5.07411
 30
0.00000
  70
    32
  0
VERTEX
  8
0
  5
338
 10
43.1992
 20
5.06822
 30
0.00000
  70
    32
  0
VERTEX
  8
0
  5
339
 10
43.0662
 20
5.06239
 30
0.00000
  70
    32
  0
VERTEX
  8
0
  5
33A
 10
42.9331
 20
5.05663
 30
0.00000
  70
    32
  0
VERTEX
  8
0
  5
33B
 10
42.8000
 20
5.05093
 30
0.00000
  70
    32
  0
VERTEX
  8
0
  5
33C
 10
42.6670
 20
5.04530
 30
0.00000
  70
    32
  0
VERTEX
  8
0
  5
33D
 10
42.5339
 20
5.03973
 30
0.00000
  70
    32
  0
VERTEX
  8
0
  5
33E
 10
42.4008
 20
5.03422
 30
0.00000
  70
    32
  0
VERTEX
  8
0
  5
33F
 10
42.2678
 20
5.02878
 30
0.00000
  70
    32
  0
VERTEX
  8
0
  5
340
 10
42.1347
 20
5.02340
 30
0.00000
  70
    32
  0
VERTEX
  8
0
  5
341
 10
42.0016
 20
5.01809
 30
0.00000
  70
    32
  0
VERTEX
  8
0
  5
342
 10
41.8685
 20
5.01283
 30
0.00000
  70
    32
  0
VERTEX
  8
0
  5
343
 10
41.7354
 20
5.00764
 30
0.00000
  70
    32
  0
VERTEX
  8
0
  5
344
 10
41.6023
 20
5.00252
 30
0.00000
  70
    32
  0
VERTEX
  8
0
  5
345
 10
41.4692
 20
4.99745
 30
0.00000
  70
    32
  0
VERTEX
  8
0
  5
346
 10
41.3361
 20
4.99245
 30
0.00000
  70
    32
  0
VERTEX
  8
0
  5
347
 10
41.2030
 20
4.98752
 30
0.00000
  70
    32
  0
VERTEX
  8
0
  5
348
 10
41.0699
 20
4.98264
 30
0.00000
  70
    32
  0
VERTEX
  8
0
  5
349
 10
40.9368
 20
4.97783
 30
0.00000
  70
    32
  0
VERTEX
  8
0
  5
34A
 10
40.8037
 20
4.97309
 30
0.00000
  70
    32
  0
VERTEX
  8
0
  5
34B
 10
40.6706
 20
4.96840
 30
0.00000
  70
    32
  0
VERTEX
  8
0
  5
34C
 10
40.5375
 20
4.96378
 30
0.00000
  70
    32
  0
VERTEX
  8
0
  5
34D
 10
40.4044
 20
4.95922
 30
0.00000
  70
    32
  0
VERTEX
  8
0
  5
34E
 10
40.2712
 20
4.95473
 30
0.00000
  70
    32
  0
VERTEX
  8
0
  5
34F
 10
40.1381
 20
4.95030
 30
0.00000
  70
    32
  0
VERTEX
  8
0
  5
350
 10
40.0050
 20
4.94593
 30
0.00000
  70
    32
  0
VERTEX
  8
0
  5
351
 10
39.8719
 20
4.94163
 30
0.00000
  70
    32
  0
VERTEX
  8
0
  5
352
 10
39.7387
 20
4.93739
 30
0.00000
  70
    32
  0
VERTEX
  8
0
  5
353
 10
39.6056
 20
4.93322
 30
0.00000
  70
    32
  0
VERTEX
  8
0
  5
354
 10
39.4725
 20
4.92911
 30
0.00000
  70
    32
  0
VERTEX
  8
0
  5
355
 10
39.3393
 20
4.92506
 30
0.00000
  70
    32
  0
VERTEX
  8
0
  5
356
 10
39.2062
 20
4.92108
 30
0.00000
  70
    32
  0
VERTEX
  8
0
  5
357
 10
39.0730
 20
4.91716
 30
0.00000
  70
    32
  0
VERTEX
  8
0
  5
358
 10
38.9399
 20
4.91331
 30
0.00000
  70
    32
  0
VERTEX
  8
0
  5
359
 10
38.8067
 20
4.90952
 30
0.00000
  70
    32
  0
VERTEX
  8
0
  5
35A
 10
38.6736
 20
4.90580
 30
0.00000
  70
    32
  0
VERTEX
  8
0
  5
35B
 10
38.5404
 20
4.90214
 30
0.00000
  70
    32
  0
VERTEX
  8
0
  5
35C
 10
38.4073
 20
4.89854
 30
0.00000
  70
    32
  0
VERTEX
  8
0
  5
35D
 10
38.2741
 20
4.89501
 30
0.00000
  70
    32
  0
VERTEX
  8
0
  5
35E
 10
38.1410
 20
4.89154
 30
0.00000
  70
    32
  0
VERTEX
  8
0
  5
35F
 10
38.0078
 20
4.88814
 30
0.00000
  70
    32
  0
VERTEX
  8
0
  5
360
 10
37.8746
 20
4.88481
 30
0.00000
  70
    32
  0
VERTEX
  8
0
  5
361
 10
37.7415
 20
4.88154
 30
0.00000
  70
    32
  0
VERTEX
  8
0
  5
362
 10
37.6083
 20
4.87833
 30
0.00000
  70
    32
  0
VERTEX
  8
0
  5
363
 10
37.4751
 20
4.87519
 30
0.00000
  70
    32
  0
VERTEX
  8
0
  5
364
 10
37.3420
 20
4.87211
 30
0.00000
  70
    32
  0
VERTEX
  8
0
  5
365
 10
37.2088
 20
4.86910
 30
0.00000
  70
    32
  0
VERTEX
  8
0
  5
366
 10
37.0756
 20
4.86616
 30
0.00000
  70
    32
  0
VERTEX
  8
0
  5
367
 10
36.9425
 20
4.86328
 30
0.00000
  70
    32
  0
VERTEX
  8
0
  5
368
 10
36.8093
 20
4.86047
 30
0.00000
  70
    32
  0
VERTEX
  8
0
  5
369
 10
36.6761
 20
4.85772
 30
0.00000
  70
    32
  0
VERTEX
  8
0
  5
36A
 10
36.5429
 20
4.85504
 30
0.00000
  70
    32
  0
VERTEX
  8
0
  5
36B
 10
36.4097
 20
4.85242
 30
0.00000
  70
    32
  0
VERTEX
  8
0
  5
36C
 10
36.2766
 20
4.84987
 30
0.00000
  70
    32
  0
VERTEX
  8
0
  5
36D
 10
36.1434
 20
4.84739
 30
0.00000
  70
    32
  0
VERTEX
  8
0
  5
36E
 10
36.0102
 20
4.84497
 30
0.00000
  70
    32
  0
VERTEX
  8
0
  5
36F
 10
35.8770
 20
4.84262
 30
0.00000
  70
    32
  0
VERTEX
  8
0
  5
370
 10
35.7438
 20
4.84033
 30
0.00000
  70
    32
  0
VERTEX
  8
0
  5
371
 10
35.6106
 20
4.83811
 30
0.00000
  70
    32
  0
VERTEX
  8
0
  5
372
 10
35.4774
 20
4.83596
 30
0.00000
  70
    32
  0
VERTEX
  8
0
  5
373
 10
35.3442
 20
4.83387
 30
0.00000
  70
    32
  0
VERTEX
  8
0
  5
374
 10
35.2111
 20
4.83185
 30
0.00000
  70
    32
  0
VERTEX
  8
0
  5
375
 10
35.0779
 20
4.82990
 30
0.00000
  70
    32
  0
VERTEX
  8
0
  5
376
 10
34.9447
 20
4.82801
 30
0.00000
  70
    32
  0
VERTEX
  8
0
  5
377
 10
34.8115
 20
4.82619
 30
0.00000
  70
    32
  0
VERTEX
  8
0
  5
378
 10
34.6783
 20
4.82444
 30
0.00000
  70
    32
  0
VERTEX
  8
0
  5
379
 10
34.5451
 20
4.82275
 30
0.00000
  70
    32
  0
VERTEX
  8
0
  5
37A
 10
34.4119
 20
4.82113
 30
0.00000
  70
    32
  0
VERTEX
  8
0
  5
37B
 10
34.2787
 20
4.81958
 30
0.00000
  70
    32
  0
VERTEX
  8
0
  5
37C
 10
34.1455
 20
4.81809
 30
0.00000
  70
    32
  0
VERTEX
  8
0
  5
37D
 10
34.0123
 20
4.81668
 30
0.00000
  70
    32
  0
VERTEX
  8
0
  5
37E
 10
33.8791
 20
4.81533
 30
0.00000
  70
    32
  0
VERTEX
  8
0
  5
37F
 10
33.7459
 20
4.81404
 30
0.00000
  70
    32
  0
VERTEX
  8
0
  5
380
 10
33.6127
 20
4.81283
 30
0.00000
  70
    32
  0
VERTEX
  8
0
  5
381
 10
33.4795
 20
4.81168
 30
0.00000
  70
    32
  0
VERTEX
  8
0
  5
382
 10
33.3463
 20
4.81060
 30
0.00000
  70
    32
  0
VERTEX
  8
0
  5
383
 10
33.2131
 20
4.80958
 30
0.00000
  70
    32
  0
VERTEX
  8
0
  5
384
 10
33.0799
 20
4.80864
 30
0.00000
  70
    32
  0
VERTEX
  8
0
  5
385
 10
32.9467
 20
4.80776
 30
0.00000
  70
    32
  0
VERTEX
  8
0
  5
386
 10
32.8135
 20
4.80695
 30
0.00000
  70
    32
  0
VERTEX
  8
0
  5
387
 10
32.6803
 20
4.80621
 30
0.00000
  70
    32
  0
VERTEX
  8
0
  5
388
 10
32.5471
 20
4.80554
 30
0.00000
  70
    32
  0
VERTEX
  8
0
  5
389
 10
32.4139
 20
4.80493
 30
0.00000
  70
    32
  0
VERTEX
  8
0
  5
38A
 10
32.2807
 20
4.80439
 30
0.00000
  70
    32
  0
VERTEX
  8
0
  5
38B
 10
32.1475
 20
4.80393
 30
0.00000
  70
    32
  0
VERTEX
  8
0
  5
38C
 10
32.0143
 20
4.80353
 30
0.00000
  70
    32
  0
VERTEX
  8
0
  5
38D
 10
31.8810
 20
4.80319
 30
0.00000
  70
    32
  0
VERTEX
  8
0
  5
38E
 10
31.7478
 20
4.80293
 30
0.00000
  70
    32
  0
VERTEX
  8
0
  5
38F
 10
31.6146
 20
4.80274
 30
0.00000
  70
    32
  0
VERTEX
  8
0
  5
390
 10
31.4814
 20
4.80261
 30
0.00000
  70
    32
  0
VERTEX
  8
0
  5
391
 10
31.3482
 20
4.80255
 30
0.00000
  70
    32
  0
VERTEX
  8
0
  5
392
 10
31.2150
 20
4.80256
 30
0.00000
  70
    32
  0
VERTEX
  8
0
  5
393
 10
31.0818
 20
4.80264
 30
0.00000
  70
    32
  0
VERTEX
  8
0
  5
394
 10
30.9486
 20
4.80279
 30
0.00000
  70
    32
  0
VERTEX
  8
0
  5
395
 10
30.8154
 20
4.80301
 30
0.00000
  70
    32
  0
VERTEX
  8
0
  5
396
 10
30.6822
 20
4.80330
 30
0.00000
  70
    32
  0
VERTEX
  8
0
  5
397
 10
30.5490
 20
4.80366
 30
0.00000
  70
    32
  0
VERTEX
  8
0
  5
398
 10
30.4158
 20
4.80408
 30
0.00000
  70
    32
  0
VERTEX
  8
0
  5
399
 10
30.2826
 20
4.80458
 30
0.00000
  70
    32
  0
VERTEX
  8
0
  5
39A
 10
30.1494
 20
4.80514
 30
0.00000
  70
    32
  0
VERTEX
  8
0
  5
39B
 10
30.0162
 20
4.80578
 30
0.00000
  70
    32
  0
VERTEX
  8
0
  5
39C
 10
29.8830
 20
4.80648
 30
0.00000
  70
    32
  0
VERTEX
  8
0
  5
39D
 10
29.7498
 20
4.80726
 30
0.00000
  70
    32
  0
VERTEX
  8
0
  5
39E
 10
29.6167
 20
4.80810
 30
0.00000
  70
    32
  0
VERTEX
  8
0
  5
39F
 10
29.4835
 20
4.80901
 30
0.00000
  70
    32
  0
VERTEX
  8
0
  5
3A0
 10
29.3503
 20
4.81000
 30
0.00000
  70
    32
  0
VERTEX
  8
0
  5
3A1
 10
29.2171
 20
4.81105
 30
0.00000
  70
    32
  0
VERTEX
  8
0
  5
3A2
 10
29.0839
 20
4.81218
 30
0.00000
  70
    32
  0
VERTEX
  8
0
  5
3A3
 10
28.9507
 20
4.81337
 30
0.00000
  70
    32
  0
VERTEX
  8
0
  5
3A4
 10
28.8175
 20
4.81463
 30
0.00000
  70
    32
  0
VERTEX
  8
0
  5
3A5
 10
28.6843
 20
4.81597
 30
0.00000
  70
    32
  0
VERTEX
  8
0
  5
3A6
 10
28.5511
 20
4.81737
 30
0.00000
  70
    32
  0
VERTEX
  8
0
  5
3A7
 10
28.4179
 20
4.81885
 30
0.00000
  70
    32
  0
VERTEX
  8
0
  5
3A8
 10
28.2848
 20
4.82039
 30
0.00000
  70
    32
  0
VERTEX
  8
0
  5
3A9
 10
28.1516
 20
4.82201
 30
0.00000
  70
    32
  0
VERTEX
  8
0
  5
3AA
 10
28.0184
 20
4.82370
 30
0.00000
  70
    32
  0
VERTEX
  8
0
  5
3AB
 10
27.8852
 20
4.82546
 30
0.00000
  70
    32
  0
VERTEX
  8
0
  5
3AC
 10
27.7520
 20
4.82729
 30
0.00000
  70
    32
  0
VERTEX
  8
0
  5
3AD
 10
27.6189
 20
4.82919
 30
0.00000
  70
    32
  0
VERTEX
  8
0
  5
3AE
 10
27.4857
 20
4.83116
 30
0.00000
  70
    32
  0
VERTEX
  8
0
  5
3AF
 10
27.3525
 20
4.83320
 30
0.00000
  70
    32
  0
VERTEX
  8
0
  5
3B0
 10
27.2193
 20
4.83531
 30
0.00000
  70
    32
  0
VERTEX
  8
0
  5
3B1
 10
27.0862
 20
4.83750
 30
0.00000
  70
    32
  0
VERTEX
  8
0
  5
3B2
 10
26.9530
 20
4.83975
 30
0.00000
  70
    32
  0
VERTEX
  8
0
  5
3B3
 10
26.8198
 20
4.84208
 30
0.00000
  70
    32
  0
VERTEX
  8
0
  5
3B4
 10
26.6867
 20
4.84448
 30
0.00000
  70
    32
  0
VERTEX
  8
0
  5
3B5
 10
26.5535
 20
4.84695
 30
0.00000
  70
    32
  0
VERTEX
  8
0
  5
3B6
 10
26.4204
 20
4.84949
 30
0.00000
  70
    32
  0
VERTEX
  8
0
  5
3B7
 10
26.2872
 20
4.85210
 30
0.00000
  70
    32
  0
VERTEX
  8
0
  5
3B8
 10
26.1540
 20
4.85479
 30
0.00000
  70
    32
  0
VERTEX
  8
0
  5
3B9
 10
26.0209
 20
4.85755
 30
0.00000
  70
    32
  0
VERTEX
  8
0
  5
3BA
 10
25.8877
 20
4.86038
 30
0.00000
  70
    32
  0
VERTEX
  8
0
  5
3BB
 10
25.7546
 20
4.86328
 30
0.00000
  70
    32
  0
VERTEX
  8
0
  5
3BC
 10
25.6214
 20
4.86625
 30
0.00000
  70
    32
  0
VERTEX
  8
0
  5
3BD
 10
25.4883
 20
4.86930
 30
0.00000
  70
    32
  0
VERTEX
  8
0
  5
3BE
 10
25.3551
 20
4.87241
 30
0.00000
  70
    32
  0
VERTEX
  8
0
  5
3BF
 10
25.2220
 20
4.87560
 30
0.00000
  70
    32
  0
VERTEX
  8
0
  5
3C0
 10
25.0889
 20
4.87887
 30
0.00000
  70
    32
  0
VERTEX
  8
0
  5
3C1
 10
24.9557
 20
4.88220
 30
0.00000
  70
    32
  0
VERTEX
  8
0
  5
3C2
 10
24.8226
 20
4.88561
 30
0.00000
  70
    32
  0
VERTEX
  8
0
  5
3C3
 10
24.6895
 20
4.88909
 30
0.00000
  70
    32
  0
VERTEX
  8
0
  5
3C4
 10
24.5563
 20
4.89264
 30
0.00000
  70
    32
  0
VERTEX
  8
0
  5
3C5
 10
24.4232
 20
4.89627
 30
0.00000
  70
    32
  0
VERTEX
  8
0
  5
3C6
 10
24.2901
 20
4.89997
 30
0.00000
  70
    32
  0
VERTEX
  8
0
  5
3C7
 10
24.1570
 20
4.90374
 30
0.00000
  70
    32
  0
VERTEX
  8
0
  5
3C8
 10
24.0238
 20
4.90758
 30
0.00000
  70
    32
  0
VERTEX
  8
0
  5
3C9
 10
23.8907
 20
4.91150
 30
0.00000
  70
    32
  0
VERTEX
  8
0
  5
3CA
 10
23.7576
 20
4.91549
 30
0.00000
  70
    32
  0
VERTEX
  8
0
  5
3CB
 10
23.6245
 20
4.91956
 30
0.00000
  70
    32
  0
VERTEX
  8
0
  5
3CC
 10
23.4914
 20
4.92370
 30
0.00000
  70
    32
  0
VERTEX
  8
0
  5
3CD
 10
23.3583
 20
4.92791
 30
0.00000
  70
    32
  0
VERTEX
  8
0
  5
3CE
 10
23.2252
 20
4.93219
 30
0.00000
  70
    32
  0
VERTEX
  8
0
  5
3CF
 10
23.0921
 20
4.93655
 30
0.00000
  70
    32
  0
VERTEX
  8
0
  5
3D0
 10
22.9590
 20
4.94098
 30
0.00000
  70
    32
  0
VERTEX
  8
0
  5
3D1
 10
22.8259
 20
4.94549
 30
0.00000
  70
    32
  0
VERTEX
  8
0
  5
3D2
 10
22.6928
 20
4.95007
 30
0.00000
  70
    32
  0
VERTEX
  8
0
  5
3D3
 10
22.5597
 20
4.95472
 30
0.00000
  70
    32
  0
VERTEX
  8
0
  5
3D4
 10
22.4267
 20
4.95945
 30
0.00000
  70
    32
  0
VERTEX
  8
0
  5
3D5
 10
22.2936
 20
4.96425
 30
0.00000
  70
    32
  0
VERTEX
  8
0
  5
3D6
 10
22.1605
 20
4.96913
 30
0.00000
  70
    32
  0
VERTEX
  8
0
  5
3D7
 10
22.0274
 20
4.97408
 30
0.00000
  70
    32
  0
VERTEX
  8
0
  5
3D8
 10
21.8944
 20
4.97910
 30
0.00000
  70
    32
  0
VERTEX
  8
0
  5
3D9
 10
21.7613
 20
4.98420
 30
0.00000
  70
    32
  0
VERTEX
  8
0
  5
3DA
 10
21.6282
 20
4.98937
 30
0.00000
  70
    32
  0
VERTEX
  8
0
  5
3DB
 10
21.4952
 20
4.99462
 30
0.00000
  70
    32
  0
VERTEX
  8
0
  5
3DC
 10
21.3621
 20
4.99994
 30
0.00000
  70
    32
  0
VERTEX
  8
0
  5
3DD
 10
21.2291
 20
5.00534
 30
0.00000
  70
    32
  0
VERTEX
  8
0
  5
3DE
 10
21.0960
 20
5.01081
 30
0.00000
  70
    32
  0
VERTEX
  8
0
  5
3DF
 10
20.9630
 20
5.01635
 30
0.00000
  70
    32
  0
VERTEX
  8
0
  5
3E0
 10
20.8300
 20
5.02198
 30
0.00000
  70
    32
  0
VERTEX
  8
0
  5
3E1
 10
20.6969
 20
5.02767
 30
0.00000
  70
    32
  0
VERTEX
  8
0
  5
3E2
 10
20.5639
 20
5.03344
 30
0.00000
  70
    32
  0
VERTEX
  8
0
  5
3E3
 10
20.4309
 20
5.03929
 30
0.00000
  70
    32
  0
VERTEX
  8
0
  5
3E4
 10
20.2978
 20
5.04521
 30
0.00000
  70
    32
  0
VERTEX
  8
0
  5
3E5
 10
20.1648
 20
5.05121
 30
0.00000
  70
    32
  0
VERTEX
  8
0
  5
3E6
 10
20.0318
 20
5.05728
 30
0.00000
  70
    32
  0
VERTEX
  8
0
  5
3E7
 10
19.8988
 20
5.06342
 30
0.00000
  70
    32
  0
VERTEX
  8
0
  5
3E8
 10
19.7658
 20
5.06963
 30
0.00000
  70
    32
  0
VERTEX
  8
0
  5
3E9
 10
19.6328
 20
5.07592
 30
0.00000
  70
    32
  0
VERTEX
  8
0
  5
3EA
 10
19.4998
 20
5.08228
 30
0.00000
  70
    32
  0
VERTEX
  8
0
  5
3EB
 10
19.3668
 20
5.08870
 30
0.00000
  70
    32
  0
VERTEX
  8
0
  5
3EC
 10
19.2338
 20
5.09520
 30
0.00000
  70
    32
  0
VERTEX
  8
0
  5
3ED
 10
19.1008
 20
5.10176
 30
0.00000
  70
    32
  0
VERTEX
  8
0
  5
3EE
 10
18.9678
 20
5.10839
 30
0.00000
  70
    32
  0
VERTEX
  8
0
  5
3EF
 10
18.8348
 20
5.11509
 30
0.00000
  70
    32
  0
VERTEX
  8
0
  5
3F0
 10
18.7019
 20
5.12186
 30
0.00000
  70
    32
  0
VERTEX
  8
0
  5
3F1
 10
18.5689
 20
5.12869
 30
0.00000
  70
    32
  0
VERTEX
  8
0
  5
3F2
 10
18.4359
 20
5.13558
 30
0.00000
  70
    32
  0
VERTEX
  8
0
  5
3F3
 10
18.3030
 20
5.14254
 30
0.00000
  70
    32
  0
VERTEX
  8
0
  5
3F4
 10
18.1700
 20
5.14956
 30
0.00000
  70
    32
  0
VERTEX
  8
0
  5
3F5
 10
18.0370
 20
5.15664
 30
0.00000
  70
    32
  0
VERTEX
  8
0
  5
3F6
 10
17.9041
 20
5.16379
 30
0.00000
  70
    32
  0
VERTEX
  8
0
  5
3F7
 10
17.7711
 20
5.17099
 30
0.00000
  70
    32
  0
VERTEX
  8
0
  5
3F8
 10
17.6382
 20
5.17825
 30
0.00000
  70
    32
  0
VERTEX
  8
0
  5
3F9
 10
17.5052
 20
5.18558
 30
0.00000
  70
    32
  0
VERTEX
  8
0
  5
3FA
 10
17.3723
 20
5.19296
 30
0.00000
  70
    32
  0
VERTEX
  8
0
  5
3FB
 10
17.2393
 20
5.20040
 30
0.00000
  70
    32
  0
VERTEX
  8
0
  5
3FC
 10
17.1064
 20
5.20790
 30
0.00000
  70
    32
  0
VERTEX
  8
0
  5
3FD
 10
16.9735
 20
5.21545
 30
0.00000
  70
    32
  0
VERTEX
  8
0
  5
3FE
 10
16.8405
 20
5.22306
 30
0.00000
  70
    32
  0
VERTEX
  8
0
  5
3FF
 10
16.7076
 20
5.23072
 30
0.00000
  70
    32
  0
VERTEX
  8
0
  5
400
 10
16.5747
 20
5.23843
 30
0.00000
  70
    32
  0
VERTEX
  8
0
  5
401
 10
16.4418
 20
5.24620
 30
0.00000
  70
    32
  0
VERTEX
  8
0
  5
402
 10
16.3088
 20
5.25402
 30
0.00000
  70
    32
  0
VERTEX
  8
0
  5
403
 10
16.1759
 20
5.26189
 30
0.00000
  70
    32
  0
VERTEX
  8
0
  5
404
 10
16.0430
 20
5.26982
 30
0.00000
  70
    32
  0
VERTEX
  8
0
  5
405
 10
15.9101
 20
5.27779
 30
0.00000
  70
    32
  0
VERTEX
  8
0
  5
406
 10
15.7772
 20
5.28581
 30
0.00000
  70
    32
  0
VERTEX
  8
0
  5
407
 10
15.6443
 20
5.29388
 30
0.00000
  70
    32
  0
VERTEX
  8
0
  5
408
 10
15.5114
 20
5.30200
 30
0.00000
  70
    32
  0
VERTEX
  8
0
  5
409
 10
15.3785
 20
5.31016
 30
0.00000
  70
    32
  0
VERTEX
  8
0
  5
40A
 10
15.2456
 20
5.31837
 30
0.00000
  70
    32
  0
VERTEX
  8
0
  5
40B
 10
15.1127
 20
5.32663
 30
0.00000
  70
    32
  0
VERTEX
  8
0
  5
40C
 10
14.9798
 20
5.33493
 30
0.00000
  70
    32
  0
VERTEX
  8
0
  5
40D
 10
14.8469
 20
5.34327
 30
0.00000
  70
    32
  0
VERTEX
  8
0
  5
40E
 10
14.7140
 20
5.35166
 30
0.00000
  70
    32
  0
VERTEX
  8
0
  5
40F
 10
14.5811
 20
5.36008
 30
0.00000
  70
    32
  0
VERTEX
  8
0
  5
410
 10
14.4482
 20
5.36855
 30
0.00000
  70
    32
  0
VERTEX
  8
0
  5
411
 10
14.3153
 20
5.37707
 30
0.00000
  70
    32
  0
VERTEX
  8
0
  5
412
 10
14.1824
 20
5.38562
 30
0.00000
  70
    32
  0
VERTEX
  8
0
  5
413
 10
14.0496
 20
5.39420
 30
0.00000
  70
    32
  0
VERTEX
  8
0
  5
414
 10
13.9167
 20
5.40283
 30
0.00000
  70
    32
  0
VERTEX
  8
0
  5
415
 10
13.7838
 20
5.41150
 30
0.00000
  70
    32
  0
VERTEX
  8
0
  5
416
 10
13.6509
 20
5.42020
 30
0.00000
  70
    32
  0
VERTEX
  8
0
  5
417
 10
13.5181
 20
5.42894
 30
0.00000
  70
    32
  0
VERTEX
  8
0
  5
418
 10
13.3852
 20
5.43771
 30
0.00000
  70
    32
  0
VERTEX
  8
0
  5
419
 10
13.2523
 20
5.44652
 30
0.00000
  70
    32
  0
VERTEX
  8
0
  5
41A
 10
13.1194
 20
5.45536
 30
0.00000
  70
    32
  0
VERTEX
  8
0
  5
41B
 10
12.9866
 20
5.46423
 30
0.00000
  70
    32
  0
VERTEX
  8
0
  5
41C
 10
12.8537
 20
5.47314
 30
0.00000
  70
    32
  0
VERTEX
  8
0
  5
41D
 10
12.7209
 20
5.48208
 30
0.00000
  70
    32
  0
VERTEX
  8
0
  5
41E
 10
12.5880
 20
5.49104
 30
0.00000
  70
    32
  0
VERTEX
  8
0
  5
41F
 10
12.4551
 20
5.50004
 30
0.00000
  70
    32
  0
VERTEX
  8
0
  5
420
 10
12.3223
 20
5.50907
 30
0.00000
  70
    32
  0
VERTEX
  8
0
  5
421
 10
12.1894
 20
5.51812
 30
0.00000
  70
    32
  0
VERTEX
  8
0
  5
422
 10
12.0566
 20
5.52721
 30
0.00000
  70
    32
  0
VERTEX
  8
0
  5
423
 10
11.9237
 20
5.53632
 30
0.00000
  70
    32
  0
VERTEX
  8
0
  5
424
 10
11.7909
 20
5.54545
 30
0.00000
  70
    32
  0
VERTEX
  8
0
  5
425
 10
11.6580
 20
5.55461
 30
0.00000
  70
    32
  0
VERTEX
  8
0
  5
426
 10
11.5252
 20
5.56380
 30
0.00000
  70
    32
  0
VERTEX
  8
0
  5
427
 10
11.3923
 20
5.57301
 30
0.00000
  70
    32
  0
VERTEX
  8
0
  5
428
 10
11.2595
 20
5.58224
 30
0.00000
  70
    32
  0
VERTEX
  8
0
  5
429
 10
11.1266
 20
5.59149
 30
0.00000
  70
    32
  0
VERTEX
  8
0
  5
42A
 10
10.9938
 20
5.60077
 30
0.00000
  70
    32
  0
VERTEX
  8
0
  5
42B
 10
10.8609
 20
5.61006
 30
0.00000
  70
    32
  0
VERTEX
  8
0
  5
42C
 10
10.7281
 20
5.61938
 30
0.00000
  70
    32
  0
VERTEX
  8
0
  5
42D
 10
10.5953
 20
5.62871
 30
0.00000
  70
    32
  0
VERTEX
  8
0
  5
42E
 10
10.4624
 20
5.63806
 30
0.00000
  70
    32
  0
VERTEX
  8
0
  5
42F
 10
10.3296
 20
5.64744
 30
0.00000
  70
    32
  0
VERTEX
  8
0
  5
430
 10
10.1967
 20
5.65682
 30
0.00000
  70
    32
  0
VERTEX
  8
0
  5
431
 10
10.0639
 20
5.66623
 30
0.00000
  70
    32
  0
VERTEX
  8
0
  5
432
 10
9.93107
 20
5.67564
 30
0.00000
  70
    32
  0
VERTEX
  8
0
  5
433
 10
9.79824
 20
5.68508
 30
0.00000
  70
    32
  0
VERTEX
  8
0
  5
434
 10
9.66540
 20
5.69452
 30
0.00000
  70
    32
  0
VERTEX
  8
0
  5
435
 10
9.53257
 20
5.70398
 30
0.00000
  70
    32
  0
VERTEX
  8
0
  5
436
 10
9.39974
 20
5.71345
 30
0.00000
  70
    32
  0
VERTEX
  8
0
  5
437
 10
9.26690
 20
5.72293
 30
0.00000
  70
    32
  0
VERTEX
  8
0
  5
438
 10
9.13407
 20
5.73243
 30
0.00000
  70
    32
  0
VERTEX
  8
0
  5
439
 10
9.00124
 20
5.74193
 30
0.00000
  70
    32
  0
VERTEX
  8
0
  5
43A
 10
8.86841
 20
5.75144
 30
0.00000
  70
    32
  0
VERTEX
  8
0
  5
43B
 10
8.73558
 20
5.76096
 30
0.00000
  70
    32
  0
VERTEX
  8
0
  5
43C
 10
8.60275
 20
5.77049
 30
0.00000
  70
    32
  0
VERTEX
  8
0
  5
43D
 10
8.46992
 20
5.78003
 30
0.00000
  70
    32
  0
VERTEX
  8
0
  5
43E
 10
8.33709
 20
5.78957
 30
0.00000
  70
    32
  0
VERTEX
  8
0
  5
43F
 10
8.20426
 20
5.79911
 30
0.00000
  70
    32
  0
VERTEX
  8
0
  5
440
 10
8.07143
 20
5.80866
 30
0.00000
  70
    32
  0
VERTEX
  8
0
  5
441
 10
8.74345
 20
6.84100
 30
0.00000
  70
    32
  0
VERTEX
  8
0
  5
442
 10
11.5802
 20
10.6242
 30
0.00000
  70
    32
  0
VERTEX
  8
0
  5
443
 10
14.4169
 20
14.4074
 30
0.00000
  70
    32
  0
VERTEX
  8
0
  5
444
 10
17.2537
 20
18.1907
 30
0.00000
  70
    32
  0
VERTEX
  8
0
  5
445
 10
20.0904
 20
21.9739
 30
0.00000
  70
    32
  0
VERTEX
  8
0
  5
446
 10
22.9271
 20
25.7571
 30
0.00000
  70
    32
  0
VERTEX
  8
0
  5
447
 10
25.7639
 20
29.5403
 30
0.00000
  70
    32
  0
VERTEX
  8
0
  5
448
 10
28.6006
 20
33.3236
 30
0.00000
  70
    32
  0
VERTEX
  8
0
  5
449
 10
29.3698
 20
34.1834
 30
0.00000
  70
    32
  0
VERTEX
  8
0
  5
44A
 10
29.4897
 20
34.1251
 30
0.00000
  70
    32
  0
VERTEX
  8
0
  5
44B
 10
29.6096
 20
34.0668
 30
0.00000
  70
    32
  0
VERTEX
  8
0
  5
44C
 10
29.7295
 20
34.0086
 30
0.00000
  70
    32
  0
VERTEX
  8
0
  5
44D
 10
29.8494
 20
33.9503
 30
0.00000
  70
    32
  0
VERTEX
  8
0
  5
44E
 10
29.9693
 20
33.8921
 30
0.00000
  70
    32
  0
VERTEX
  8
0
  5
44F
 10
30.0892
 20
33.8340
 30
0.00000
  70
    32
  0
VERTEX
  8
0
  5
450
 10
30.2091
 20
33.7758
 30
0.00000
  70
    32
  0
VERTEX
  8
0
  5
451
 10
30.3291
 20
33.7177
 30
0.00000
  70
    32
  0
VERTEX
  8
0
  5
452
 10
30.4490
 20
33.6597
 30
0.00000
  70
    32
  0
VERTEX
  8
0
  5
453
 10
30.5690
 20
33.6016
 30
0.00000
  70
    32
  0
VERTEX
  8
0
  5
454
 10
30.6890
 20
33.5437
 30
0.00000
  70
    32
  0
VERTEX
  8
0
  5
455
 10
30.8090
 20
33.4858
 30
0.00000
  70
    32
  0
VERTEX
  8
0
  5
456
 10
30.9291
 20
33.4279
 30
0.00000
  70
    32
  0
VERTEX
  8
0
  5
457
 10
31.0492
 20
33.3701
 30
0.00000
  70
    32
  0
VERTEX
  8
0
  5
458
 10
31.1693
 20
33.3124
 30
0.00000
  70
    32
  0
VERTEX
  8
0
  5
459
 10
31.2894
 20
33.2547
 30
0.00000
  70
    32
  0
VERTEX
  8
0
  5
45A
 10
31.4096
 20
33.1971
 30
0.00000
  70
    32
  0
VERTEX
  8
0
  5
45B
 10
31.5297
 20
33.1396
 30
0.00000
  70
    32
  0
VERTEX
  8
0
  5
45C
 10
31.6500
 20
33.0821
 30
0.00000
  70
    32
  0
VERTEX
  8
0
  5
45D
 10
31.7702
 20
33.0247
 30
0.00000
  70
    32
  0
VERTEX
  8
0
  5
45E
 10
31.8905
 20
32.9674
 30
0.00000
  70
    32
  0
VERTEX
  8
0
  5
45F
 10
32.0108
 20
32.9102
 30
0.00000
  70
    32
  0
VERTEX
  8
0
  5
460
 10
32.1312
 20
32.8531
 30
0.00000
  70
    32
  0
VERTEX
  8
0
  5
461
 10
32.2516
 20
32.7961
 30
0.00000
  70
    32
  0
VERTEX
  8
0
  5
462
 10
32.3720
 20
32.7392
 30
0.00000
  70
    32
  0
VERTEX
  8
0
  5
463
 10
32.4925
 20
32.6824
 30
0.00000
  70
    32
  0
VERTEX
  8
0
  5
464
 10
32.6130
 20
32.6257
 30
0.00000
  70
    32
  0
VERTEX
  8
0
  5
465
 10
32.7336
 20
32.5690
 30
0.00000
  70
    32
  0
VERTEX
  8
0
  5
466
 10
32.8542
 20
32.5125
 30
0.00000
  70
    32
  0
VERTEX
  8
0
  5
467
 10
32.9749
 20
32.4562
 30
0.00000
  70
    32
  0
VERTEX
  8
0
  5
468
 10
33.0956
 20
32.3999
 30
0.00000
  70
    32
  0
VERTEX
  8
0
  5
469
 10
33.2163
 20
32.3437
 30
0.00000
  70
    32
  0
VERTEX
  8
0
  5
46A
 10
33.3371
 20
32.2877
 30
0.00000
  70
    32
  0
VERTEX
  8
0
  5
46B
 10
33.4580
 20
32.2318
 30
0.00000
  70
    32
  0
VERTEX
  8
0
  5
46C
 10
33.5789
 20
32.1761
 30
0.00000
  70
    32
  0
VERTEX
  8
0
  5
46D
 10
33.6999
 20
32.1204
 30
0.00000
  70
    32
  0
VERTEX
  8
0
  5
46E
 10
33.8209
 20
32.0650
 30
0.00000
  70
    32
  0
VERTEX
  8
0
  5
46F
 10
33.9420
 20
32.0096
 30
0.00000
  70
    32
  0
VERTEX
  8
0
  5
470
 10
34.0632
 20
31.9544
 30
0.00000
  70
    32
  0
VERTEX
  8
0
  5
471
 10
34.1844
 20
31.8993
 30
0.00000
  70
    32
  0
VERTEX
  8
0
  5
472
 10
34.3057
 20
31.8444
 30
0.00000
  70
    32
  0
VERTEX
  8
0
  5
473
 10
34.4270
 20
31.7897
 30
0.00000
  70
    32
  0
VERTEX
  8
0
  5
474
 10
34.5484
 20
31.7351
 30
0.00000
  70
    32
  0
VERTEX
  8
0
  5
475
 10
34.6699
 20
31.6807
 30
0.00000
  70
    32
  0
VERTEX
  8
0
  5
476
 10
34.7914
 20
31.6264
 30
0.00000
  70
    32
  0
VERTEX
  8
0
  5
477
 10
34.9131
 20
31.5723
 30
0.00000
  70
    32
  0
VERTEX
  8
0
  5
478
 10
35.0348
 20
31.5184
 30
0.00000
  70
    32
  0
VERTEX
  8
0
  5
479
 10
35.1565
 20
31.4647
 30
0.00000
  70
    32
  0
VERTEX
  8
0
  5
47A
 10
35.2783
 20
31.4111
 30
0.00000
  70
    32
  0
VERTEX
  8
0
  5
47B
 10
35.4003
 20
31.3577
 30
0.00000
  70
    32
  0
VERTEX
  8
0
  5
47C
 10
35.5222
 20
31.3045
 30
0.00000
  70
    32
  0
VERTEX
  8
0
  5
47D
 10
35.6443
 20
31.2515
 30
0.00000
  70
    32
  0
VERTEX
  8
0
  5
47E
 10
35.7665
 20
31.1987
 30
0.00000
  70
    32
  0
VERTEX
  8
0
  5
47F
 10
35.8887
 20
31.1461
 30
0.00000
  70
    32
  0
VERTEX
  8
0
  5
480
 10
36.0110
 20
31.0937
 30
0.00000
  70
    32
  0
VERTEX
  8
0
  5
481
 10
36.1334
 20
31.0415
 30
0.00000
  70
    32
  0
VERTEX
  8
0
  5
482
 10
36.2559
 20
30.9895
 30
0.00000
  70
    32
  0
VERTEX
  8
0
  5
483
 10
36.3785
 20
30.9377
 30
0.00000
  70
    32
  0
VERTEX
  8
0
  5
484
 10
36.5011
 20
30.8861
 30
0.00000
  70
    32
  0
VERTEX
  8
0
  5
485
 10
36.6239
 20
30.8348
 30
0.00000
  70
    32
  0
VERTEX
  8
0
  5
486
 10
36.7467
 20
30.7836
 30
0.00000
  70
    32
  0
VERTEX
  8
0
  5
487
 10
36.8696
 20
30.7327
 30
0.00000
  70
    32
  0
VERTEX
  8
0
  5
488
 10
36.9927
 20
30.6820
 30
0.00000
  70
    32
  0
VERTEX
  8
0
  5
489
 10
37.1158
 20
30.6316
 30
0.00000
  70
    32
  0
VERTEX
  8
0
  5
48A
 10
37.2390
 20
30.5814
 30
0.00000
  70
    32
  0
VERTEX
  8
0
  5
48B
 10
37.3623
 20
30.5314
 30
0.00000
  70
    32
  0
VERTEX
  8
0
  5
48C
 10
37.4857
 20
30.4816
 30
0.00000
  70
    32
  0
VERTEX
  8
0
  5
48D
 10
37.6093
 20
30.4321
 30
0.00000
  70
    32
  0
VERTEX
  8
0
  5
48E
 10
37.7329
 20
30.3828
 30
0.00000
  70
    32
  0
VERTEX
  8
0
  5
48F
 10
37.8566
 20
30.3337
 30
0.00000
  70
    32
  0
VERTEX
  8
0
  5
490
 10
37.9803
 20
30.2849
 30
0.00000
  70
    32
  0
VERTEX
  8
0
  5
491
 10
38.1042
 20
30.2363
 30
0.00000
  70
    32
  0
VERTEX
  8
0
  5
492
 10
38.2282
 20
30.1879
 30
0.00000
  70
    32
  0
VERTEX
  8
0
  5
493
 10
38.3523
 20
30.1397
 30
0.00000
  70
    32
  0
VERTEX
  8
0
  5
494
 10
38.4764
 20
30.0917
 30
0.00000
  70
    32
  0
VERTEX
  8
0
  5
495
 10
38.6007
 20
30.0440
 30
0.00000
  70
    32
  0
VERTEX
  8
0
  5
496
 10
38.7250
 20
29.9965
 30
0.00000
  70
    32
  0
VERTEX
  8
0
  5
497
 10
38.8494
 20
29.9492
 30
0.00000
  70
    32
  0
VERTEX
  8
0
  5
498
 10
38.9739
 20
29.9021
 30
0.00000
  70
    32
  0
VERTEX
  8
0
  5
499
 10
39.0985
 20
29.8552
 30
0.00000
  70
    32
  0
VERTEX
  8
0
  5
49A
 10
39.2232
 20
29.8086
 30
0.00000
  70
    32
  0
VERTEX
  8
0
  5
49B
 10
39.3479
 20
29.7621
 30
0.00000
  70
    32
  0
VERTEX
  8
0
  5
49C
 10
39.4728
 20
29.7159
 30
0.00000
  70
    32
  0
VERTEX
  8
0
  5
49D
 10
39.5977
 20
29.6699
 30
0.00000
  70
    32
  0
VERTEX
  8
0
  5
49E
 10
39.7227
 20
29.6241
 30
0.00000
  70
    32
  0
VERTEX
  8
0
  5
49F
 10
39.8478
 20
29.5784
 30
0.00000
  70
    32
  0
VERTEX
  8
0
  5
4A0
 10
39.9729
 20
29.5330
 30
0.00000
  70
    32
  0
VERTEX
  8
0
  5
4A1
 10
40.0982
 20
29.4878
 30
0.00000
  70
    32
  0
VERTEX
  8
0
  5
4A2
 10
40.2235
 20
29.4428
 30
0.00000
  70
    32
  0
VERTEX
  8
0
  5
4A3
 10
40.3489
 20
29.3980
 30
0.00000
  70
    32
  0
VERTEX
  8
0
  5
4A4
 10
40.4744
 20
29.3534
 30
0.00000
  70
    32
  0
VERTEX
  8
0
  5
4A5
 10
40.5999
 20
29.3090
 30
0.00000
  70
    32
  0
VERTEX
  8
0
  5
4A6
 10
40.7255
 20
29.2648
 30
0.00000
  70
    32
  0
VERTEX
  8
0
  5
4A7
 10
40.8512
 20
29.2208
 30
0.00000
  70
    32
  0
VERTEX
  8
0
  5
4A8
 10
40.9770
 20
29.1770
 30
0.00000
  70
    32
  0
VERTEX
  8
0
  5
4A9
 10
41.1028
 20
29.1333
 30
0.00000
  70
    32
  0
VERTEX
  8
0
  5
4AA
 10
41.2288
 20
29.0899
 30
0.00000
  70
    32
  0
VERTEX
  8
0
  5
4AB
 10
41.3548
 20
29.0467
 30
0.00000
  70
    32
  0
VERTEX
  8
0
  5
4AC
 10
41.4808
 20
29.0036
 30
0.00000
  70
    32
  0
VERTEX
  8
0
  5
4AD
 10
41.6069
 20
28.9607
 30
0.00000
  70
    32
  0
VERTEX
  8
0
  5
4AE
 10
41.7331
 20
28.9180
 30
0.00000
  70
    32
  0
VERTEX
  8
0
  5
4AF
 10
41.8594
 20
28.8755
 30
0.00000
  70
    32
  0
VERTEX
  8
0
  5
4B0
 10
41.9857
 20
28.8332
 30
0.00000
  70
    32
  0
VERTEX
  8
0
  5
4B1
 10
42.1121
 20
28.7911
 30
0.00000
  70
    32
  0
VERTEX
  8
0
  5
4B2
 10
42.2386
 20
28.7491
 30
0.00000
  70
    32
  0
VERTEX
  8
0
  5
4B3
 10
42.3651
 20
28.7073
 30
0.00000
  70
    32
  0
VERTEX
  8
0
  5
4B4
 10
42.4917
 20
28.6657
 30
0.00000
  70
    32
  0
VERTEX
  8
0
  5
4B5
 10
42.6184
 20
28.6243
 30
0.00000
  70
    32
  0
VERTEX
  8
0
  5
4B6
 10
42.7451
 20
28.5831
 30
0.00000
  70
    32
  0
VERTEX
  8
0
  5
4B7
 10
42.8719
 20
28.5420
 30
0.00000
  70
    32
  0
VERTEX
  8
0
  5
4B8
 10
42.9987
 20
28.5011
 30
0.00000
  70
    32
  0
VERTEX
  8
0
  5
4B9
 10
43.1256
 20
28.4604
 30
0.00000
  70
    32
  0
VERTEX
  8
0
  5
4BA
 10
43.2526
 20
28.4198
 30
0.00000
  70
    32
  0
VERTEX
  8
0
  5
4BB
 10
43.3796
 20
28.3794
 30
0.00000
  70
    32
  0
VERTEX
  8
0
  5
4BC
 10
43.5067
 20
28.3392
 30
0.00000
  70
    32
  0
VERTEX
  8
0
  5
4BD
 10
43.6338
 20
28.2991
 30
0.00000
  70
    32
  0
VERTEX
  8
0
  5
4BE
 10
43.7610
 20
28.2592
 30
0.00000
  70
    32
  0
VERTEX
  8
0
  5
4BF
 10
43.8883
 20
28.2195
 30
0.00000
  70
    32
  0
VERTEX
  8
0
  5
4C0
 10
44.0156
 20
28.1799
 30
0.00000
  70
    32
  0
VERTEX
  8
0
  5
4C1
 10
44.1429
 20
28.1405
 30
0.00000
  70
    32
  0
VERTEX
  8
0
  5
4C2
 10
44.2703
 20
28.1012
 30
0.00000
  70
    32
  0
VERTEX
  8
0
  5
4C3
 10
44.3978
 20
28.0621
 30
0.00000
  70
    32
  0
VERTEX
  8
0
  5
4C4
 10
44.5253
 20
28.0232
 30
0.00000
  70
    32
  0
VERTEX
  8
0
  5
4C5
 10
44.6529
 20
27.9844
 30
0.00000
  70
    32
  0
VERTEX
  8
0
  5
4C6
 10
44.7805
 20
27.9458
 30
0.00000
  70
    32
  0
VERTEX
  8
0
  5
4C7
 10
44.9081
 20
27.9073
 30
0.00000
  70
    32
  0
VERTEX
  8
0
  5
4C8
 10
45.0358
 20
27.8690
 30
0.00000
  70
    32
  0
VERTEX
  8
0
  5
4C9
 10
45.1636
 20
27.8308
 30
0.00000
  70
    32
  0
VERTEX
  8
0
  5
4CA
 10
45.2914
 20
27.7927
 30
0.00000
  70
    32
  0
VERTEX
  8
0
  5
4CB
 10
45.4193
 20
27.7549
 30
0.00000
  70
    32
  0
VERTEX
  8
0
  5
4CC
 10
45.5472
 20
27.7171
 30
0.00000
  70
    32
  0
VERTEX
  8
0
  5
4CD
 10
45.6751
 20
27.6795
 30
0.00000
  70
    32
  0
VERTEX
  8
0
  5
4CE
 10
45.8031
 20
27.6421
 30
0.00000
  70
    32
  0
VERTEX
  8
0
  5
4CF
 10
45.9311
 20
27.6048
 30
0.00000
  70
    32
  0
VERTEX
  8
0
  5
4D0
 10
46.0592
 20
27.5676
 30
0.00000
  70
    32
  0
VERTEX
  8
0
  5
4D1
 10
46.1873
 20
27.5306
 30
0.00000
  70
    32
  0
VERTEX
  8
0
  5
4D2
 10
46.3154
 20
27.4937
 30
0.00000
  70
    32
  0
VERTEX
  8
0
  5
4D3
 10
46.4436
 20
27.4569
 30
0.00000
  70
    32
  0
VERTEX
  8
0
  5
4D4
 10
46.5718
 20
27.4203
 30
0.00000
  70
    32
  0
VERTEX
  8
0
  5
4D5
 10
46.7001
 20
27.3838
 30
0.00000
  70
    32
  0
VERTEX
  8
0
  5
4D6
 10
46.8284
 20
27.3474
 30
0.00000
  70
    32
  0
VERTEX
  8
0
  5
4D7
 10
46.9568
 20
27.3112
 30
0.00000
  70
    32
  0
VERTEX
  8
0
  5
4D8
 10
47.0851
 20
27.2751
 30
0.00000
  70
    32
  0
VERTEX
  8
0
  5
4D9
 10
47.2135
 20
27.2391
 30
0.00000
  70
    32
  0
VERTEX
  8
0
  5
4DA
 10
47.3420
 20
27.2033
 30
0.00000
  70
    32
  0
VERTEX
  8
0
  5
4DB
 10
47.4705
 20
27.1675
 30
0.00000
  70
    32
  0
VERTEX
  8
0
  5
4DC
 10
47.5990
 20
27.1319
 30
0.00000
  70
    32
  0
VERTEX
  8
0
  5
4DD
 10
47.7275
 20
27.0965
 30
0.00000
  70
    32
  0
VERTEX
  8
0
  5
4DE
 10
47.8561
 20
27.0611
 30
0.00000
  70
    32
  0
VERTEX
  8
0
  5
4DF
 10
47.9847
 20
27.0259
 30
0.00000
  70
    32
  0
VERTEX
  8
0
  5
4E0
 10
48.1133
 20
26.9908
 30
0.00000
  70
    32
  0
VERTEX
  8
0
  5
4E1
 10
48.2420
 20
26.9558
 30
0.00000
  70
    32
  0
VERTEX
  8
0
  5
4E2
 10
48.3707
 20
26.9209
 30
0.00000
  70
    32
  0
VERTEX
  8
0
  5
4E3
 10
48.4994
 20
26.8861
 30
0.00000
  70
    32
  0
VERTEX
  8
0
  5
4E4
 10
48.6281
 20
26.8515
 30
0.00000
  70
    32
  0
VERTEX
  8
0
  5
4E5
 10
48.7569
 20
26.8169
 30
0.00000
  70
    32
  0
VERTEX
  8
0
  5
4E6
 10
48.8857
 20
26.7825
 30
0.00000
  70
    32
  0
VERTEX
  8
0
  5
4E7
 10
49.0145
 20
26.7482
 30
0.00000
  70
    32
  0
VERTEX
  8
0
  5
4E8
 10
49.1434
 20
26.7141
 30
0.00000
  70
    32
  0
VERTEX
  8
0
  5
4E9
 10
49.2723
 20
26.6800
 30
0.00000
  70
    32
  0
VERTEX
  8
0
  5
4EA
 10
49.4012
 20
26.6461
 30
0.00000
  70
    32
  0
VERTEX
  8
0
  5
4EB
 10
49.5301
 20
26.6123
 30
0.00000
  70
    32
  0
VERTEX
  8
0
  5
4EC
 10
49.6591
 20
26.5785
 30
0.00000
  70
    32
  0
VERTEX
  8
0
  5
4ED
 10
49.7881
 20
26.5450
 30
0.00000
  70
    32
  0
VERTEX
  8
0
  5
4EE
 10
49.9171
 20
26.5115
 30
0.00000
  70
    32
  0
VERTEX
  8
0
  5
4EF
 10
50.0462
 20
26.4782
 30
0.00000
  70
    32
  0
VERTEX
  8
0
  5
4F0
 10
50.1753
 20
26.4449
 30
0.00000
  70
    32
  0
VERTEX
  8
0
  5
4F1
 10
50.3044
 20
26.4118
 30
0.00000
  70
    32
  0
VERTEX
  8
0
  5
4F2
 10
50.4335
 20
26.3788
 30
0.00000
  70
    32
  0
VERTEX
  8
0
  5
4F3
 10
50.5627
 20
26.3460
 30
0.00000
  70
    32
  0
VERTEX
  8
0
  5
4F4
 10
50.6919
 20
26.3132
 30
0.00000
  70
    32
  0
VERTEX
  8
0
  5
4F5
 10
50.8211
 20
26.2806
 30
0.00000
  70
    32
  0
VERTEX
  8
0
  5
4F6
 10
50.9504
 20
26.2481
 30
0.00000
  70
    32
  0
VERTEX
  8
0
  5
4F7
 10
51.0796
 20
26.2157
 30
0.00000
  70
    32
  0
VERTEX
  8
0
  5
4F8
 10
51.2090
 20
26.1834
 30
0.00000
  70
    32
  0
VERTEX
  8
0
  5
4F9
 10
51.3383
 20
26.1512
 30
0.00000
  70
    32
  0
VERTEX
  8
0
  5
4FA
 10
51.4676
 20
26.1192
 30
0.00000
  70
    32
  0
VERTEX
  8
0
  5
4FB
 10
51.5970
 20
26.0873
 30
0.00000
  70
    32
  0
VERTEX
  8
0
  5
4FC
 10
51.7264
 20
26.0555
 30
0.00000
  70
    32
  0
VERTEX
  8
0
  5
4FD
 10
51.8559
 20
26.0238
 30
0.00000
  70
    32
  0
VERTEX
  8
0
  5
4FE
 10
51.9853
 20
25.9923
 30
0.00000
  70
    32
  0
VERTEX
  8
0
  5
4FF
 10
52.1148
 20
25.9608
 30
0.00000
  70
    32
  0
VERTEX
  8
0
  5
500
 10
52.2444
 20
25.9295
 30
0.00000
  70
    32
  0
VERTEX
  8
0
  5
501
 10
52.3739
 20
25.8983
 30
0.00000
  70
    32
  0
VERTEX
  8
0
  5
502
 10
52.5035
 20
25.8672
 30
0.00000
  70
    32
  0
VERTEX
  8
0
  5
503
 10
52.6331
 20
25.8363
 30
0.00000
  70
    32
  0
VERTEX
  8
0
  5
504
 10
52.7627
 20
25.8054
 30
0.00000
  70
    32
  0
VERTEX
  8
0
  5
505
 10
52.8923
 20
25.7747
 30
0.00000
  70
    32
  0
VERTEX
  8
0
  5
506
 10
53.0220
 20
25.7441
 30
0.00000
  70
    32
  0
VERTEX
  8
0
  5
507
 10
53.1517
 20
25.7137
 30
0.00000
  70
    32
  0
VERTEX
  8
0
  5
508
 10
53.2815
 20
25.6833
 30
0.00000
  70
    32
  0
VERTEX
  8
0
  5
509
 10
53.4112
 20
25.6531
 30
0.00000
  70
    32
  0
VERTEX
  8
0
  5
50A
 10
53.5410
 20
25.6230
 30
0.00000
  70
    32
  0
VERTEX
  8
0
  5
50B
 10
53.6708
 20
25.5930
 30
0.00000
  70
    32
  0
VERTEX
  8
0
  5
50C
 10
53.8006
 20
25.5631
 30
0.00000
  70
    32
  0
VERTEX
  8
0
  5
50D
 10
53.9305
 20
25.5333
 30
0.00000
  70
    32
  0
VERTEX
  8
0
  5
50E
 10
54.0604
 20
25.5037
 30
0.00000
  70
    32
  0
VERTEX
  8
0
  5
50F
 10
54.1903
 20
25.4742
 30
0.00000
  70
    32
  0
VERTEX
  8
0
  5
510
 10
54.3202
 20
25.4448
 30
0.00000
  70
    32
  0
VERTEX
  8
0
  5
511
 10
54.4502
 20
25.4156
 30
0.00000
  70
    32
  0
VERTEX
  8
0
  5
512
 10
54.5802
 20
25.3864
 30
0.00000
  70
    32
  0
VERTEX
  8
0
  5
513
 10
54.7102
 20
25.3574
 30
0.00000
  70
    32
  0
VERTEX
  8
0
  5
514
 10
54.8402
 20
25.3285
 30
0.00000
  70
    32
  0
VERTEX
  8
0
  5
515
 10
54.9703
 20
25.2997
 30
0.00000
  70
    32
  0
VERTEX
  8
0
  5
516
 10
55.1004
 20
25.2710
 30
0.00000
  70
    32
  0
VERTEX
  8
0
  5
517
 10
55.2305
 20
25.2425
 30
0.00000
  70
    32
  0
VERTEX
  8
0
  5
518
 10
55.3606
 20
25.2141
 30
0.00000
  70
    32
  0
VERTEX
  8
0
  5
519
 10
55.4908
 20
25.1858
 30
0.00000
  70
    32
  0
VERTEX
  8
0
  5
51A
 10
55.6210
 20
25.1576
 30
0.00000
  70
    32
  0
VERTEX
  8
0
  5
51B
 10
55.7512
 20
25.1296
 30
0.00000
  70
    32
  0
VERTEX
  8
0
  5
51C
 10
55.8815
 20
25.1017
 30
0.00000
  70
    32
  0
VERTEX
  8
0
  5
51D
 10
56.0117
 20
25.0739
 30
0.00000
  70
    32
  0
VERTEX
  8
0
  5
51E
 10
56.1420
 20
25.0462
 30
0.00000
  70
    32
  0
VERTEX
  8
0
  5
51F
 10
56.2723
 20
25.0186
 30
0.00000
  70
    32
  0
VERTEX
  8
0
  5
520
 10
56.4027
 20
24.9912
 30
0.00000
  70
    32
  0
VERTEX
  8
0
  5
521
 10
56.5330
 20
24.9639
 30
0.00000
  70
    32
  0
VERTEX
  8
0
  5
522
 10
56.6634
 20
24.9367
 30
0.00000
  70
    32
  0
VERTEX
  8
0
  5
523
 10
56.7938
 20
24.9096
 30
0.00000
  70
    32
  0
VERTEX
  8
0
  5
524
 10
56.9243
 20
24.8827
 30
0.00000
  70
    32
  0
VERTEX
  8
0
  5
525
 10
57.0547
 20
24.8559
 30
0.00000
  70
    32
  0
VERTEX
  8
0
  5
526
 10
57.1852
 20
24.8292
 30
0.00000
  70
    32
  0
VERTEX
  8
0
  5
527
 10
57.3157
 20
24.8026
 30
0.00000
  70
    32
  0
VERTEX
  8
0
  5
528
 10
57.4463
 20
24.7761
 30
0.00000
  70
    32
  0
VERTEX
  8
0
  5
529
 10
57.5768
 20
24.7498
 30
0.00000
  70
    32
  0
VERTEX
  8
0
  5
52A
 10
57.7074
 20
24.7236
 30
0.00000
  70
    32
  0
VERTEX
  8
0
  5
52B
 10
57.8380
 20
24.6975
 30
0.00000
  70
    32
  0
VERTEX
  8
0
  5
52C
 10
57.9686
 20
24.6716
 30
0.00000
  70
    32
  0
VERTEX
  8
0
  5
52D
 10
58.0993
 20
24.6457
 30
0.00000
  70
    32
  0
VERTEX
  8
0
  5
52E
 10
58.2300
 20
24.6200
 30
0.00000
  70
    32
  0
VERTEX
  8
0
  5
52F
 10
58.3607
 20
24.5944
 30
0.00000
  70
    32
  0
VERTEX
  8
0
  5
530
 10
58.4914
 20
24.5690
 30
0.00000
  70
    32
  0
VERTEX
  8
0
  5
531
 10
58.6221
 20
24.5436
 30
0.00000
  70
    32
  0
VERTEX
  8
0
  5
532
 10
58.7529
 20
24.5184
 30
0.00000
  70
    32
  0
VERTEX
  8
0
  5
533
 10
58.8837
 20
24.4933
 30
0.00000
  70
    32
  0
VERTEX
  8
0
  5
534
 10
59.0145
 20
24.4683
 30
0.00000
  70
    32
  0
VERTEX
  8
0
  5
535
 10
59.1453
 20
24.4435
 30
0.00000
  70
    32
  0
VERTEX
  8
0
  5
536
 10
59.2762
 20
24.4188
 30
0.00000
  70
    32
  0
VERTEX
  8
0
  5
537
 10
59.4071
 20
24.3942
 30
0.00000
  70
    32
  0
VERTEX
  8
0
  5
538
 10
59.5380
 20
24.3697
 30
0.00000
  70
    32
  0
VERTEX
  8
0
  5
539
 10
59.6689
 20
24.3454
 30
0.00000
  70
    32
  0
VERTEX
  8
0
  5
53A
 10
59.7999
 20
24.3211
 30
0.00000
  70
    32
  0
VERTEX
  8
0
  5
53B
 10
59.9309
 20
24.2970
 30
0.00000
  70
    32
  0
VERTEX
  8
0
  5
53C
 10
60.0619
 20
24.2731
 30
0.00000
  70
    32
  0
VERTEX
  8
0
  5
53D
 10
60.1929
 20
24.2492
 30
0.00000
  70
    32
  0
VERTEX
  8
0
  5
53E
 10
60.3239
 20
24.2255
 30
0.00000
  70
    32
  0
VERTEX
  8
0
  5
53F
 10
60.4550
 20
24.2019
 30
0.00000
  70
    32
  0
VERTEX
  8
0
  5
540
 10
60.5861
 20
24.1784
 30
0.00000
  70
    32
  0
VERTEX
  8
0
  5
541
 10
60.7172
 20
24.1551
 30
0.00000
  70
    32
  0
VERTEX
  8
0
  5
542
 10
60.8484
 20
24.1319
 30
0.00000
  70
    32
  0
VERTEX
  8
0
  5
543
 10
60.9795
 20
24.1088
 30
0.00000
  70
    32
  0
VERTEX
  8
0
  5
544
 10
61.1107
 20
24.0858
 30
0.00000
  70
    32
  0
VERTEX
  8
0
  5
545
 10
61.2419
 20
24.0630
 30
0.00000
  70
    32
  0
VERTEX
  8
0
  5
546
 10
61.3731
 20
24.0402
 30
0.00000
  70
    32
  0
VERTEX
  8
0
  5
547
 10
61.5044
 20
24.0176
 30
0.00000
  70
    32
  0
VERTEX
  8
0
  5
548
 10
61.6356
 20
23.9952
 30
0.00000
  70
    32
  0
VERTEX
  8
0
  5
549
 10
61.7669
 20
23.9728
 30
0.00000
  70
    32
  0
VERTEX
  8
0
  5
54A
 10
61.8982
 20
23.9506
 30
0.00000
  70
    32
  0
VERTEX
  8
0
  5
54B
 10
62.0296
 20
23.9285
 30
0.00000
  70
    32
  0
VERTEX
  8
0
  5
54C
 10
62.1609
 20
23.9066
 30
0.00000
  70
    32
  0
VERTEX
  8
0
  5
54D
 10
62.2923
 20
23.8847
 30
0.00000
  70
    32
  0
VERTEX
  8
0
  5
54E
 10
62.4237
 20
23.8630
 30
0.00000
  70
    32
  0
VERTEX
  8
0
  5
54F
 10
62.5551
 20
23.8414
 30
0.00000
  70
    32
  0
VERTEX
  8
0
  5
550
 10
62.6866
 20
23.8200
 30
0.00000
  70
    32
  0
VERTEX
  8
0
  5
551
 10
62.8180
 20
23.7986
 30
0.00000
  70
    32
  0
VERTEX
  8
0
  5
552
 10
62.9495
 20
23.7774
 30
0.00000
  70
    32
  0
VERTEX
  8
0
  5
553
 10
63.0810
 20
23.7564
 30
0.00000
  70
    32
  0
VERTEX
  8
0
  5
554
 10
63.2126
 20
23.7354
 30
0.00000
  70
    32
  0
VERTEX
  8
0
  5
555
 10
63.3441
 20
23.7146
 30
0.00000
  70
    32
  0
VERTEX
  8
0
  5
556
 10
63.4757
 20
23.6939
 30
0.00000
  70
    32
  0
VERTEX
  8
0
  5
557
 10
63.6073
 20
23.6733
 30
0.00000
  70
    32
  0
VERTEX
  8
0
  5
558
 10
63.7389
 20
23.6529
 30
0.00000
  70
    32
  0
VERTEX
  8
0
  5
559
 10
63.8705
 20
23.6325
 30
0.00000
  70
    32
  0
VERTEX
  8
0
  5
55A
 10
64.0022
 20
23.6124
 30
0.00000
  70
    32
  0
VERTEX
  8
0
  5
55B
 10
64.1338
 20
23.5923
 30
0.00000
  70
    32
  0
VERTEX
  8
0
  5
55C
 10
64.2655
 20
23.5723
 30
0.00000
  70
    32
  0
VERTEX
  8
0
  5
55D
 10
64.3972
 20
23.5525
 30
0.00000
  70
    32
  0
VERTEX
  8
0
  5
55E
 10
64.5290
 20
23.5328
 30
0.00000
  70
    32
  0
VERTEX
  8
0
  5
55F
 10
64.6607
 20
23.5133
 30
0.00000
  70
    32
  0
VERTEX
  8
0
  5
560
 10
64.7925
 20
23.4939
 30
0.00000
  70
    32
  0
VERTEX
  8
0
  5
561
 10
64.9243
 20
23.4745
 30
0.00000
  70
    32
  0
VERTEX
  8
0
  5
562
 10
65.0561
 20
23.4554
 30
0.00000
  70
    32
  0
VERTEX
  8
0
  5
563
 10
65.1879
 20
23.4363
 30
0.00000
  70
    32
  0
VERTEX
  8
0
  5
564
 10
65.3198
 20
23.4174
 30
0.00000
  70
    32
  0
VERTEX
  8
0
  5
565
 10
65.4517
 20
23.3986
 30
0.00000
  70
    32
  0
VERTEX
  8
0
  5
566
 10
65.5835
 20
23.3799
 30
0.00000
  70
    32
  0
VERTEX
  8
0
  5
567
 10
65.7155
 20
23.3613
 30
0.00000
  70
    32
  0
VERTEX
  8
0
  5
568
 10
65.8474
 20
23.3429
 30
0.00000
  70
    32
  0
VERTEX
  8
0
  5
569
 10
65.9793
 20
23.3246
 30
0.00000
  70
    32
  0
VERTEX
  8
0
  5
56A
 10
66.1113
 20
23.3064
 30
0.00000
  70
    32
  0
VERTEX
  8
0
  5
56B
 10
66.2433
 20
23.2884
 30
0.00000
  70
    32
  0
VERTEX
  8
0
  5
56C
 10
66.3753
 20
23.2705
 30
0.00000
  70
    32
  0
VERTEX
  8
0
  5
56D
 10
66.5073
 20
23.2527
 30
0.00000
  70
    32
  0
VERTEX
  8
0
  5
56E
 10
66.6393
 20
23.2350
 30
0.00000
  70
    32
  0
VERTEX
  8
0
  5
56F
 10
66.7714
 20
23.2174
 30
0.00000
  70
    32
  0
VERTEX
  8
0
  5
570
 10
66.9034
 20
23.2000
 30
0.00000
  70
    32
  0
VERTEX
  8
0
  5
571
 10
67.0355
 20
23.1827
 30
0.00000
  70
    32
  0
VERTEX
  8
0
  5
572
 10
67.1676
 20
23.1655
 30
0.00000
  70
    32
  0
VERTEX
  8
0
  5
573
 10
67.2998
 20
23.1485
 30
0.00000
  70
    32
  0
VERTEX
  8
0
  5
574
 10
67.4319
 20
23.1316
 30
0.00000
  70
    32
  0
VERTEX
  8
0
  5
575
 10
67.5641
 20
23.1148
 30
0.00000
  70
    32
  0
VERTEX
  8
0
  5
576
 10
67.6962
 20
23.0981
 30
0.00000
  70
    32
  0
VERTEX
  8
0
  5
577
 10
67.8284
 20
23.0815
 30
0.00000
  70
    32
  0
VERTEX
  8
0
  5
578
 10
67.9606
 20
23.0651
 30
0.00000
  70
    32
  0
VERTEX
  8
0
  5
579
 10
68.0928
 20
23.0488
 30
0.00000
  70
    32
  0
VERTEX
  8
0
  5
57A
 10
68.2251
 20
23.0326
 30
0.00000
  70
    32
  0
VERTEX
  8
0
  5
57B
 10
68.3573
 20
23.0166
 30
0.00000
  70
    32
  0
VERTEX
  8
0
  5
57C
 10
68.4896
 20
23.0007
 30
0.00000
  70
    32
  0
VERTEX
  8
0
  5
57D
 10
68.6219
 20
22.9848
 30
0.00000
  70
    32
  0
VERTEX
  8
0
  5
57E
 10
68.7542
 20
22.9692
 30
0.00000
  70
    32
  0
VERTEX
  8
0
  5
57F
 10
68.8865
 20
22.9536
 30
0.00000
  70
    32
  0
VERTEX
  8
0
  5
580
 10
69.0188
 20
22.9382
 30
0.00000
  70
    32
  0
VERTEX
  8
0
  5
581
 10
69.1512
 20
22.9229
 30
0.00000
  70
    32
  0
VERTEX
  8
0
  5
582
 10
69.2836
 20
22.9077
 30
0.00000
  70
    32
  0
VERTEX
  8
0
  5
583
 10
69.4159
 20
22.8926
 30
0.00000
  70
    32
  0
VERTEX
  8
0
  5
584
 10
69.5483
 20
22.8777
 30
0.00000
  70
    32
  0
VERTEX
  8
0
  5
585
 10
69.6807
 20
22.8629
 30
0.00000
  70
    32
  0
VERTEX
  8
0
  5
586
 10
69.7552
 20
21.8754
 30
0.00000
  70
    32
  0
VERTEX
  8
0
  5
587
 10
69.8279
 20
20.8583
 30
0.00000
  70
    32
  0
VERTEX
  8
0
  5
588
 10
69.9006
 20
19.8413
 30
0.00000
  70
    32
  0
VERTEX
  8
0
  5
589
 10
69.9733
 20
18.8242
 30
0.00000
  70
    32
  0
VERTEX
  8
0
  5
58A
 10
70.0460
 20
17.8072
 30
0.00000
  70
    32
  0
VERTEX
  8
0
  5
58B
 10
70.1187
 20
16.7901
 30
0.00000
  70
    32
  0
VERTEX
  8
0
  5
58C
 10
70.1914
 20
15.7731
 30
0.00000
  70
    32
  0
VERTEX
  8
0
  5
58D
 10
70.2331
 20
15.1632
 30
0.00000
  70
    32
  0
VERTEX
  8
0
  5
58E
 10
70.2256
 20
15.0302
 30
0.00000
  70
    32
  0
VERTEX
  8
0
  5
58F
 10
70.1181
 20
14.4550
 30
0.00000
  70
    32
  0
VERTEX
  8
0
  5
590
 10
69.9272
 20
13.4533
 30
0.00000
  70
    32
  0
VERTEX
  8
0
  5
591
 10
69.7363
 20
12.4517
 30
0.00000
  70
    32
  0
VERTEX
  8
0
  5
592
 10
69.5454
 20
11.4501
 30
0.00000
  70
    32
  0
VERTEX
  8
0
  5
593
 10
69.3545
 20
10.4485
 30
0.00000
  70
    32
  0
VERTEX
  8
0
  5
594
 10
69.1636
 20
9.44690
 30
0.00000
  70
    32
  0
VERTEX
  8
0
  5
595
 10
68.9727
 20
8.44529
 30
0.00000
  70
    32
  0
VERTEX
  8
0
  5
596
 10
68.7817
 20
7.44368
 30
0.00000
  70
    32
  0
SEQEND
  8
0
  5
597
  0
CIRCLE
  5
1F7
  8
DRILLING
 10
21.8264641611662995
 20
21.3720811582951704
 30
0.0
 40
0.3224999999999999
  0
CIRCLE
  5
1F8
  8
DRILLING
 10
18.2270154533477893
 20
16.5716677386212403
 30
0.0
 40
0.3224999999999999
  0
INSERT
  5
1F9
  8
0
  2
*U4
 10
0.0
 20
0.0
 30
0.0
  0
CIRCLE
  5
1FA
  8
DRILLING
 10
66.2364768617858175
 20
15.0128070528531001
 30
0.0
 40
0.3224999999999998
  0
CIRCLE
  5
1FB
  8
DRILLING
 10
60.2430366616995201
 20
14.7323171813885399
 30
0.0
 40
0.3224999999999998
  0
POLYLINE
  8
0
  5
598
  66
     1
 10
0.00000
 20
0.00000
 30
0.00000
  70
     8
  0
VERTEX
  8
0
  5
599
 10
39.0719
 20
47.2774
 30
0.00000
  70
    32
  0
VERTEX
  8
0
  5
59A
 10
39.2037
 20
47.2961
 30
0.00000
  70
    32
  0
VERTEX
  8
0
  5
59B
 10
39.3356
 20
47.3147
 30
0.00000
  70
    32
  0
VERTEX
  8
0
  5
59C
 10
39.4675
 20
47.3333
 30
0.00000
  70
    32
  0
VERTEX
  8
0
  5
59D
 10
39.5994
 20
47.3517
 30
0.00000
  70
    32
  0
VERTEX
  8
0
  5
59E
 10
39.7313
 20
47.3702
 30
0.00000
  70
    32
  0
VERTEX
  8
0
  5
59F
 10
39.8633
 20
47.3885
 30
0.00000
  70
    32
  0
VERTEX
  8
0
  5
5A0
 10
39.9952
 20
47.4068
 30
0.00000
  70
    32
  0
VERTEX
  8
0
  5
5A1
 10
40.1271
 20
47.4250
 30
0.00000
  70
    32
  0
VERTEX
  8
0
  5
5A2
 10
40.2591
 20
47.4431
 30
0.00000
  70
    32
  0
VERTEX
  8
0
  5
5A3
 10
40.3910
 20
47.4612
 30
0.00000
  70
    32
  0
VERTEX
  8
0
  5
5A4
 10
40.5230
 20
47.4792
 30
0.00000
  70
    32
  0
VERTEX
  8
0
  5
5A5
 10
40.6550
 20
47.4972
 30
0.00000
  70
    32
  0
VERTEX
  8
0
  5
5A6
 10
40.7870
 20
47.5150
 30
0.00000
  70
    32
  0
VERTEX
  8
0
  5
5A7
 10
40.9190
 20
47.5328
 30
0.00000
  70
    32
  0
VERTEX
  8
0
  5
5A8
 10
41.0510
 20
47.5506
 30
0.00000
  70
    32
  0
VERTEX
  8
0
  5
5A9
 10
41.1830
 20
47.5683
 30
0.00000
  70
    32
  0
VERTEX
  8
0
  5
5AA
 10
41.3150
 20
47.5859
 30
0.00000
  70
    32
  0
VERTEX
  8
0
  5
5AB
 10
41.4470
 20
47.6034
 30
0.00000
  70
    32
  0
VERTEX
  8
0
  5
5AC
 10
41.5791
 20
47.6209
 30
0.00000
  70
    32
  0
VERTEX
  8
0
  5
5AD
 10
41.7111
 20
47.6383
 30
0.00000
  70
    32
  0
VERTEX
  8
0
  5
5AE
 10
41.8432
 20
47.6556
 30
0.00000
  70
    32
  0
VERTEX
  8
0
  5
5AF
 10
41.9753
 20
47.6728
 30
0.00000
  70
    32
  0
VERTEX
  8
0
  5
5B0
 10
42.1073
 20
47.6900
 30
0.00000
  70
    32
  0
VERTEX
  8
0
  5
5B1
 10
42.2394
 20
47.7072
 30
0.00000
  70
    32
  0
VERTEX
  8
0
  5
5B2
 10
42.3715
 20
47.7242
 30
0.00000
  70
    32
  0
VERTEX
  8
0
  5
5B3
 10
42.5036
 20
47.7412
 30
0.00000
  70
    32
  0
VERTEX
  8
0
  5
5B4
 10
42.6357
 20
47.7581
 30
0.00000
  70
    32
  0
VERTEX
  8
0
  5
5B5
 10
42.7678
 20
47.7750
 30
0.00000
  70
    32
  0
VERTEX
  8
0
  5
5B6
 10
42.9000
 20
47.7918
 30
0.00000
  70
    32
  0
VERTEX
  8
0
  5
5B7
 10
43.0321
 20
47.8085
 30
0.00000
  70
    32
  0
VERTEX
  8
0
  5
5B8
 10
43.1643
 20
47.8252
 30
0.00000
  70
    32
  0
VERTEX
  8
0
  5
5B9
 10
43.2964
 20
47.8418
 30
0.00000
  70
    32
  0
VERTEX
  8
0
  5
5BA
 10
43.4286
 20
47.8583
 30
0.00000
  70
    32
  0
VERTEX
  8
0
  5
5BB
 10
43.5607
 20
47.8747
 30
0.00000
  70
    32
  0
VERTEX
  8
0
  5
5BC
 10
43.6929
 20
47.8911
 30
0.00000
  70
    32
  0
VERTEX
  8
0
  5
5BD
 10
43.8251
 20
47.9074
 30
0.00000
  70
    32
  0
VERTEX
  8
0
  5
5BE
 10
43.9573
 20
47.9237
 30
0.00000
  70
    32
  0
VERTEX
  8
0
  5
5BF
 10
44.0895
 20
47.9398
 30
0.00000
  70
    32
  0
VERTEX
  8
0
  5
5C0
 10
44.2217
 20
47.9559
 30
0.00000
  70
    32
  0
VERTEX
  8
0
  5
5C1
 10
44.3539
 20
47.9720
 30
0.00000
  70
    32
  0
VERTEX
  8
0
  5
5C2
 10
44.4861
 20
47.9879
 30
0.00000
  70
    32
  0
VERTEX
  8
0
  5
5C3
 10
44.6184
 20
48.0039
 30
0.00000
  70
    32
  0
VERTEX
  8
0
  5
5C4
 10
44.7506
 20
48.0197
 30
0.00000
  70
    32
  0
VERTEX
  8
0
  5
5C5
 10
44.8829
 20
48.0355
 30
0.00000
  70
    32
  0
VERTEX
  8
0
  5
5C6
 10
45.0151
 20
48.0512
 30
0.00000
  70
    32
  0
VERTEX
  8
0
  5
5C7
 10
45.1474
 20
48.0668
 30
0.00000
  70
    32
  0
VERTEX
  8
0
  5
5C8
 10
45.2797
 20
48.0823
 30
0.00000
  70
    32
  0
VERTEX
  8
0
  5
5C9
 10
45.4120
 20
48.0978
 30
0.00000
  70
    32
  0
VERTEX
  8
0
  5
5CA
 10
45.5442
 20
48.1133
 30
0.00000
  70
    32
  0
VERTEX
  8
0
  5
5CB
 10
45.6765
 20
48.1286
 30
0.00000
  70
    32
  0
VERTEX
  8
0
  5
5CC
 10
45.8089
 20
48.1439
 30
0.00000
  70
    32
  0
VERTEX
  8
0
  5
5CD
 10
45.9412
 20
48.1591
 30
0.00000
  70
    32
  0
VERTEX
  8
0
  5
5CE
 10
46.0735
 20
48.1743
 30
0.00000
  70
    32
  0
VERTEX
  8
0
  5
5CF
 10
46.2058
 20
48.1894
 30
0.00000
  70
    32
  0
VERTEX
  8
0
  5
5D0
 10
46.3381
 20
48.2044
 30
0.00000
  70
    32
  0
VERTEX
  8
0
  5
5D1
 10
46.4705
 20
48.2193
 30
0.00000
  70
    32
  0
VERTEX
  8
0
  5
5D2
 10
46.6028
 20
48.2342
 30
0.00000
  70
    32
  0
VERTEX
  8
0
  5
5D3
 10
46.7352
 20
48.2490
 30
0.00000
  70
    32
  0
VERTEX
  8
0
  5
5D4
 10
46.8676
 20
48.2638
 30
0.00000
  70
    32
  0
VERTEX
  8
0
  5
5D5
 10
46.9999
 20
48.2784
 30
0.00000
  70
    32
  0
VERTEX
  8
0
  5
5D6
 10
47.1323
 20
48.2931
 30
0.00000
  70
    32
  0
VERTEX
  8
0
  5
5D7
 10
47.2647
 20
48.3076
 30
0.00000
  70
    32
  0
VERTEX
  8
0
  5
5D8
 10
47.3971
 20
48.3221
 30
0.00000
  70
    32
  0
VERTEX
  8
0
  5
5D9
 10
47.5295
 20
48.3365
 30
0.00000
  70
    32
  0
VERTEX
  8
0
  5
5DA
 10
47.6619
 20
48.3508
 30
0.00000
  70
    32
  0
VERTEX
  8
0
  5
5DB
 10
47.7943
 20
48.3651
 30
0.00000
  70
    32
  0
VERTEX
  8
0
  5
5DC
 10
47.9267
 20
48.3792
 30
0.00000
  70
    32
  0
VERTEX
  8
0
  5
5DD
 10
48.0592
 20
48.3934
 30
0.00000
  70
    32
  0
VERTEX
  8
0
  5
5DE
 10
48.1916
 20
48.4074
 30
0.00000
  70
    32
  0
VERTEX
  8
0
  5
5DF
 10
48.3241
 20
48.4214
 30
0.00000
  70
    32
  0
VERTEX
  8
0
  5
5E0
 10
48.4565
 20
48.4353
 30
0.00000
  70
    32
  0
VERTEX
  8
0
  5
5E1
 10
48.5890
 20
48.4492
 30
0.00000
  70
    32
  0
VERTEX
  8
0
  5
5E2
 10
48.7214
 20
48.4630
 30
0.00000
  70
    32
  0
VERTEX
  8
0
  5
5E3
 10
48.8539
 20
48.4767
 30
0.00000
  70
    32
  0
VERTEX
  8
0
  5
5E4
 10
48.9864
 20
48.4903
 30
0.00000
  70
    32
  0
VERTEX
  8
0
  5
5E5
 10
49.1189
 20
48.5039
 30
0.00000
  70
    32
  0
VERTEX
  8
0
  5
5E6
 10
49.2514
 20
48.5174
 30
0.00000
  70
    32
  0
VERTEX
  8
0
  5
5E7
 10
49.3838
 20
48.5309
 30
0.00000
  70
    32
  0
VERTEX
  8
0
  5
5E8
 10
49.5164
 20
48.5442
 30
0.00000
  70
    32
  0
VERTEX
  8
0
  5
5E9
 10
49.6489
 20
48.5575
 30
0.00000
  70
    32
  0
VERTEX
  8
0
  5
5EA
 10
49.7814
 20
48.5708
 30
0.00000
  70
    32
  0
VERTEX
  8
0
  5
5EB
 10
49.9139
 20
48.5839
 30
0.00000
  70
    32
  0
VERTEX
  8
0
  5
5EC
 10
50.0464
 20
48.5970
 30
0.00000
  70
    32
  0
VERTEX
  8
0
  5
5ED
 10
50.1790
 20
48.6100
 30
0.00000
  70
    32
  0
VERTEX
  8
0
  5
5EE
 10
50.3115
 20
48.6230
 30
0.00000
  70
    32
  0
VERTEX
  8
0
  5
5EF
 10
50.4441
 20
48.6359
 30
0.00000
  70
    32
  0
VERTEX
  8
0
  5
5F0
 10
50.5766
 20
48.6487
 30
0.00000
  70
    32
  0
VERTEX
  8
0
  5
5F1
 10
50.7092
 20
48.6615
 30
0.00000
  70
    32
  0
VERTEX
  8
0
  5
5F2
 10
50.8418
 20
48.6741
 30
0.00000
  70
    32
  0
VERTEX
  8
0
  5
5F3
 10
50.9743
 20
48.6868
 30
0.00000
  70
    32
  0
VERTEX
  8
0
  5
5F4
 10
51.1069
 20
48.6993
 30
0.00000
  70
    32
  0
VERTEX
  8
0
  5
5F5
 10
51.2395
 20
48.7118
 30
0.00000
  70
    32
  0
VERTEX
  8
0
  5
5F6
 10
51.3721
 20
48.7242
 30
0.00000
  70
    32
  0
VERTEX
  8
0
  5
5F7
 10
51.5047
 20
48.7365
 30
0.00000
  70
    32
  0
VERTEX
  8
0
  5
5F8
 10
51.6373
 20
48.7488
 30
0.00000
  70
    32
  0
VERTEX
  8
0
  5
5F9
 10
51.7699
 20
48.7610
 30
0.00000
  70
    32
  0
VERTEX
  8
0
  5
5FA
 10
51.9025
 20
48.7731
 30
0.00000
  70
    32
  0
VERTEX
  8
0
  5
5FB
 10
52.0351
 20
48.7852
 30
0.00000
  70
    32
  0
VERTEX
  8
0
  5
5FC
 10
52.1678
 20
48.7972
 30
0.00000
  70
    32
  0
VERTEX
  8
0
  5
5FD
 10
52.3004
 20
48.8091
 30
0.00000
  70
    32
  0
VERTEX
  8
0
  5
5FE
 10
52.4330
 20
48.8209
 30
0.00000
  70
    32
  0
VERTEX
  8
0
  5
5FF
 10
52.5657
 20
48.8327
 30
0.00000
  70
    32
  0
VERTEX
  8
0
  5
600
 10
52.6983
 20
48.8444
 30
0.00000
  70
    32
  0
VERTEX
  8
0
  5
601
 10
52.8310
 20
48.8561
 30
0.00000
  70
    32
  0
VERTEX
  8
0
  5
602
 10
52.9637
 20
48.8677
 30
0.00000
  70
    32
  0
VERTEX
  8
0
  5
603
 10
53.0963
 20
48.8792
 30
0.00000
  70
    32
  0
VERTEX
  8
0
  5
604
 10
53.2290
 20
48.8906
 30
0.00000
  70
    32
  0
VERTEX
  8
0
  5
605
 10
53.3617
 20
48.9020
 30
0.00000
  70
    32
  0
VERTEX
  8
0
  5
606
 10
53.4944
 20
48.9133
 30
0.00000
  70
    32
  0
VERTEX
  8
0
  5
607
 10
53.6271
 20
48.9245
 30
0.00000
  70
    32
  0
VERTEX
  8
0
  5
608
 10
53.7598
 20
48.9357
 30
0.00000
  70
    32
  0
VERTEX
  8
0
  5
609
 10
53.8925
 20
48.9468
 30
0.00000
  70
    32
  0
VERTEX
  8
0
  5
60A
 10
54.0252
 20
48.9578
 30
0.00000
  70
    32
  0
VERTEX
  8
0
  5
60B
 10
54.1579
 20
48.9688
 30
0.00000
  70
    32
  0
VERTEX
  8
0
  5
60C
 10
54.2906
 20
48.9797
 30
0.00000
  70
    32
  0
VERTEX
  8
0
  5
60D
 10
54.4233
 20
48.9905
 30
0.00000
  70
    32
  0
VERTEX
  8
0
  5
60E
 10
54.5561
 20
49.0012
 30
0.00000
  70
    32
  0
VERTEX
  8
0
  5
60F
 10
54.6888
 20
49.0119
 30
0.00000
  70
    32
  0
VERTEX
  8
0
  5
610
 10
54.8215
 20
49.0225
 30
0.00000
  70
    32
  0
VERTEX
  8
0
  5
611
 10
54.9543
 20
49.0331
 30
0.00000
  70
    32
  0
VERTEX
  8
0
  5
612
 10
55.0870
 20
49.0436
 30
0.00000
  70
    32
  0
VERTEX
  8
0
  5
613
 10
55.2198
 20
49.0540
 30
0.00000
  70
    32
  0
VERTEX
  8
0
  5
614
 10
55.3525
 20
49.0643
 30
0.00000
  70
    32
  0
VERTEX
  8
0
  5
615
 10
55.4853
 20
49.0746
 30
0.00000
  70
    32
  0
VERTEX
  8
0
  5
616
 10
55.6181
 20
49.0848
 30
0.00000
  70
    32
  0
VERTEX
  8
0
  5
617
 10
55.7509
 20
49.0950
 30
0.00000
  70
    32
  0
VERTEX
  8
0
  5
618
 10
55.8836
 20
49.1050
 30
0.00000
  70
    32
  0
VERTEX
  8
0
  5
619
 10
56.0164
 20
49.1150
 30
0.00000
  70
    32
  0
VERTEX
  8
0
  5
61A
 10
56.1492
 20
49.1250
 30
0.00000
  70
    32
  0
VERTEX
  8
0
  5
61B
 10
56.2820
 20
49.1349
 30
0.00000
  70
    32
  0
VERTEX
  8
0
  5
61C
 10
56.4148
 20
49.1447
 30
0.00000
  70
    32
  0
VERTEX
  8
0
  5
61D
 10
56.5476
 20
49.1544
 30
0.00000
  70
    32
  0
VERTEX
  8
0
  5
61E
 10
56.6804
 20
49.1641
 30
0.00000
  70
    32
  0
VERTEX
  8
0
  5
61F
 10
56.8132
 20
49.1737
 30
0.00000
  70
    32
  0
VERTEX
  8
0
  5
620
 10
56.9461
 20
49.1832
 30
0.00000
  70
    32
  0
VERTEX
  8
0
  5
621
 10
57.0789
 20
49.1927
 30
0.00000
  70
    32
  0
VERTEX
  8
0
  5
622
 10
57.2117
 20
49.2021
 30
0.00000
  70
    32
  0
VERTEX
  8
0
  5
623
 10
57.3446
 20
49.2114
 30
0.00000
  70
    32
  0
VERTEX
  8
0
  5
624
 10
57.4774
 20
49.2207
 30
0.00000
  70
    32
  0
VERTEX
  8
0
  5
625
 10
57.6102
 20
49.2299
 30
0.00000
  70
    32
  0
VERTEX
  8
0
  5
626
 10
57.7431
 20
49.2390
 30
0.00000
  70
    32
  0
VERTEX
  8
0
  5
627
 10
57.8759
 20
49.2481
 30
0.00000
  70
    32
  0
VERTEX
  8
0
  5
628
 10
58.0088
 20
49.2571
 30
0.00000
  70
    32
  0
VERTEX
  8
0
  5
629
 10
58.1417
 20
49.2660
 30
0.00000
  70
    32
  0
VERTEX
  8
0
  5
62A
 10
58.2745
 20
49.2749
 30
0.00000
  70
    32
  0
VERTEX
  8
0
  5
62B
 10
58.4074
 20
49.2837
 30
0.00000
  70
    32
  0
VERTEX
  8
0
  5
62C
 10
58.5403
 20
49.2924
 30
0.00000
  70
    32
  0
VERTEX
  8
0
  5
62D
 10
58.6732
 20
49.3011
 30
0.00000
  70
    32
  0
VERTEX
  8
0
  5
62E
 10
58.8060
 20
49.3097
 30
0.00000
  70
    32
  0
VERTEX
  8
0
  5
62F
 10
58.9389
 20
49.3182
 30
0.00000
  70
    32
  0
VERTEX
  8
0
  5
630
 10
59.0718
 20
49.3267
 30
0.00000
  70
    32
  0
VERTEX
  8
0
  5
631
 10
59.2047
 20
49.3351
 30
0.00000
  70
    32
  0
VERTEX
  8
0
  5
632
 10
59.3376
 20
49.3434
 30
0.00000
  70
    32
  0
VERTEX
  8
0
  5
633
 10
59.4705
 20
49.3517
 30
0.00000
  70
    32
  0
VERTEX
  8
0
  5
634
 10
59.6035
 20
49.3599
 30
0.00000
  70
    32
  0
VERTEX
  8
0
  5
635
 10
59.7364
 20
49.3680
 30
0.00000
  70
    32
  0
VERTEX
  8
0
  5
636
 10
59.8693
 20
49.3761
 30
0.00000
  70
    32
  0
VERTEX
  8
0
  5
637
 10
60.0022
 20
49.3841
 30
0.00000
  70
    32
  0
VERTEX
  8
0
  5
638
 10
60.1352
 20
49.3920
 30
0.00000
  70
    32
  0
VERTEX
  8
0
  5
639
 10
60.2681
 20
49.3999
 30
0.00000
  70
    32
  0
VERTEX
  8
0
  5
63A
 10
60.4010
 20
49.4077
 30
0.00000
  70
    32
  0
VERTEX
  8
0
  5
63B
 10
60.5340
 20
49.4155
 30
0.00000
  70
    32
  0
VERTEX
  8
0
  5
63C
 10
60.6669
 20
49.4231
 30
0.00000
  70
    32
  0
VERTEX
  8
0
  5
63D
 10
60.7999
 20
49.4308
 30
0.00000
  70
    32
  0
VERTEX
  8
0
  5
63E
 10
60.9328
 20
49.4383
 30
0.00000
  70
    32
  0
VERTEX
  8
0
  5
63F
 10
61.0658
 20
49.4458
 30
0.00000
  70
    32
  0
VERTEX
  8
0
  5
640
 10
61.1987
 20
49.4532
 30
0.00000
  70
    32
  0
VERTEX
  8
0
  5
641
 10
61.3317
 20
49.4605
 30
0.00000
  70
    32
  0
VERTEX
  8
0
  5
642
 10
61.4647
 20
49.4678
 30
0.00000
  70
    32
  0
VERTEX
  8
0
  5
643
 10
61.5977
 20
49.4750
 30
0.00000
  70
    32
  0
VERTEX
  8
0
  5
644
 10
61.7306
 20
49.4822
 30
0.00000
  70
    32
  0
VERTEX
  8
0
  5
645
 10
61.8636
 20
49.4893
 30
0.00000
  70
    32
  0
VERTEX
  8
0
  5
646
 10
61.9966
 20
49.4963
 30
0.00000
  70
    32
  0
VERTEX
  8
0
  5
647
 10
62.1296
 20
49.5033
 30
0.00000
  70
    32
  0
VERTEX
  8
0
  5
648
 10
62.2626
 20
49.5102
 30
0.00000
  70
    32
  0
VERTEX
  8
0
  5
649
 10
62.3956
 20
49.5170
 30
0.00000
  70
    32
  0
VERTEX
  8
0
  5
64A
 10
62.5286
 20
49.5238
 30
0.00000
  70
    32
  0
VERTEX
  8
0
  5
64B
 10
62.6616
 20
49.5305
 30
0.00000
  70
    32
  0
VERTEX
  8
0
  5
64C
 10
62.7946
 20
49.5371
 30
0.00000
  70
    32
  0
VERTEX
  8
0
  5
64D
 10
62.9276
 20
49.5437
 30
0.00000
  70
    32
  0
VERTEX
  8
0
  5
64E
 10
63.0606
 20
49.5502
 30
0.00000
  70
    32
  0
VERTEX
  8
0
  5
64F
 10
63.1937
 20
49.5566
 30
0.00000
  70
    32
  0
VERTEX
  8
0
  5
650
 10
63.3267
 20
49.5630
 30
0.00000
  70
    32
  0
VERTEX
  8
0
  5
651
 10
63.4597
 20
49.5693
 30
0.00000
  70
    32
  0
VERTEX
  8
0
  5
652
 10
63.5927
 20
49.5755
 30
0.00000
  70
    32
  0
VERTEX
  8
0
  5
653
 10
63.7258
 20
49.5817
 30
0.00000
  70
    32
  0
VERTEX
  8
0
  5
654
 10
63.8588
 20
49.5878
 30
0.00000
  70
    32
  0
VERTEX
  8
0
  5
655
 10
63.9919
 20
49.5939
 30
0.00000
  70
    32
  0
VERTEX
  8
0
  5
656
 10
64.1249
 20
49.5999
 30
0.00000
  70
    32
  0
VERTEX
  8
0
  5
657
 10
64.2580
 20
49.6058
 30
0.00000
  70
    32
  0
VERTEX
  8
0
  5
658
 10
64.3910
 20
49.6117
 30
0.00000
  70
    32
  0
VERTEX
  8
0
  5
659
 10
64.5241
 20
49.6175
 30
0.00000
  70
    32
  0
VERTEX
  8
0
  5
65A
 10
64.6571
 20
49.6232
 30
0.00000
  70
    32
  0
VERTEX
  8
0
  5
65B
 10
64.7902
 20
49.6289
 30
0.00000
  70
    32
  0
VERTEX
  8
0
  5
65C
 10
64.9233
 20
49.6345
 30
0.00000
  70
    32
  0
VERTEX
  8
0
  5
65D
 10
65.0563
 20
49.6400
 30
0.00000
  70
    32
  0
VERTEX
  8
0
  5
65E
 10
65.1894
 20
49.6455
 30
0.00000
  70
    32
  0
VERTEX
  8
0
  5
65F
 10
65.3225
 20
49.6509
 30
0.00000
  70
    32
  0
VERTEX
  8
0
  5
660
 10
65.4556
 20
49.6563
 30
0.00000
  70
    32
  0
VERTEX
  8
0
  5
661
 10
65.5886
 20
49.6616
 30
0.00000
  70
    32
  0
VERTEX
  8
0
  5
662
 10
65.7217
 20
49.6668
 30
0.00000
  70
    32
  0
VERTEX
  8
0
  5
663
 10
65.8548
 20
49.6719
 30
0.00000
  70
    32
  0
VERTEX
  8
0
  5
664
 10
65.9879
 20
49.6770
 30
0.00000
  70
    32
  0
VERTEX
  8
0
  5
665
 10
66.1210
 20
49.6821
 30
0.00000
  70
    32
  0
VERTEX
  8
0
  5
666
 10
66.2541
 20
49.6871
 30
0.00000
  70
    32
  0
VERTEX
  8
0
  5
667
 10
66.3872
 20
49.6920
 30
0.00000
  70
    32
  0
VERTEX
  8
0
  5
668
 10
66.5203
 20
49.6968
 30
0.00000
  70
    32
  0
VERTEX
  8
0
  5
669
 10
66.6534
 20
49.7016
 30
0.00000
  70
    32
  0
VERTEX
  8
0
  5
66A
 10
66.7865
 20
49.7063
 30
0.00000
  70
    32
  0
VERTEX
  8
0
  5
66B
 10
66.9196
 20
49.7110
 30
0.00000
  70
    32
  0
VERTEX
  8
0
  5
66C
 10
67.0527
 20
49.7156
 30
0.00000
  70
    32
  0
VERTEX
  8
0
  5
66D
 10
67.1859
 20
49.7201
 30
0.00000
  70
    32
  0
VERTEX
  8
0
  5
66E
 10
67.3190
 20
49.7246
 30
0.00000
  70
    32
  0
VERTEX
  8
0
  5
66F
 10
67.4521
 20
49.7290
 30
0.00000
  70
    32
  0
VERTEX
  8
0
  5
670
 10
67.5852
 20
49.7333
 30
0.00000
  70
    32
  0
VERTEX
  8
0
  5
671
 10
67.7184
 20
49.7376
 30
0.00000
  70
    32
  0
VERTEX
  8
0
  5
672
 10
67.8515
 20
49.7418
 30
0.00000
  70
    32
  0
VERTEX
  8
0
  5
673
 10
67.9846
 20
49.7459
 30
0.00000
  70
    32
  0
VERTEX
  8
0
  5
674
 10
68.1178
 20
49.7500
 30
0.00000
  70
    32
  0
VERTEX
  8
0
  5
675
 10
68.2509
 20
49.7540
 30
0.00000
  70
    32
  0
VERTEX
  8
0
  5
676
 10
68.3840
 20
49.7580
 30
0.00000
  70
    32
  0
VERTEX
  8
0
  5
677
 10
68.5172
 20
49.7619
 30
0.00000
  70
    32
  0
VERTEX
  8
0
  5
678
 10
68.6503
 20
49.7657
 30
0.00000
  70
    32
  0
VERTEX
  8
0
  5
679
 10
68.7835
 20
49.7695
 30
0.00000
  70
    32
  0
VERTEX
  8
0
  5
67A
 10
68.9166
 20
49.7732
 30
0.00000
  70
    32
  0
VERTEX
  8
0
  5
67B
 10
69.0498
 20
49.7768
 30
0.00000
  70
    32
  0
VERTEX
  8
0
  5
67C
 10
69.1829
 20
49.7804
 30
0.00000
  70
    32
  0
VERTEX
  8
0
  5
67D
 10
69.3161
 20
49.7839
 30
0.00000
  70
    32
  0
VERTEX
  8
0
  5
67E
 10
69.4493
 20
49.7873
 30
0.00000
  70
    32
  0
VERTEX
  8
0
  5
67F
 10
69.5824
 20
49.7907
 30
0.00000
  70
    32
  0
VERTEX
  8
0
  5
680
 10
69.7156
 20
49.7940
 30
0.00000
  70
    32
  0
VERTEX
  8
0
  5
681
 10
69.8487
 20
49.7973
 30
0.00000
  70
    32
  0
VERTEX
  8
0
  5
682
 10
69.9819
 20
49.8004
 30
0.00000
  70
    32
  0
VERTEX
  8
0
  5
683
 10
70.1151
 20
49.8036
 30
0.00000
  70
    32
  0
VERTEX
  8
0
  5
684
 10
70.2483
 20
49.8066
 30
0.00000
  70
    32
  0
VERTEX
  8
0
  5
685
 10
70.3814
 20
49.8096
 30
0.00000
  70
    32
  0
VERTEX
  8
0
  5
686
 10
70.5146
 20
49.8125
 30
0.00000
  70
    32
  0
VERTEX
  8
0
  5
687
 10
70.6478
 20
49.8154
 30
0.00000
  70
    32
  0
VERTEX
  8
0
  5
688
 10
70.7809
 20
49.8182
 30
0.00000
  70
    32
  0
VERTEX
  8
0
  5
689
 10
70.9141
 20
49.8209
 30
0.00000
  70
    32
  0
VERTEX
  8
0
  5
68A
 10
71.0473
 20
49.8235
 30
0.00000
  70
    32
  0
VERTEX
  8
0
  5
68B
 10
71.1805
 20
49.8261
 30
0.00000
  70
    32
  0
VERTEX
  8
0
  5
68C
 10
71.3137
 20
49.8287
 30
0.00000
  70
    32
  0
VERTEX
  8
0
  5
68D
 10
71.4469
 20
49.8311
 30
0.00000
  70
    32
  0
VERTEX
  8
0
  5
68E
 10
71.5800
 20
49.8335
 30
0.00000
  70
    32
  0
VERTEX
  8
0
  5
68F
 10
71.7132
 20
49.8359
 30
0.00000
  70
    32
  0
VERTEX
  8
0
  5
690
 10
71.8464
 20
49.8381
 30
0.00000
  70
    32
  0
VERTEX
  8
0
  5
691
 10
71.9796
 20
49.8403
 30
0.00000
  70
    32
  0
VERTEX
  8
0
  5
692
 10
72.1128
 20
49.8424
 30
0.00000
  70
    32
  0
VERTEX
  8
0
  5
693
 10
72.2460
 20
49.8445
 30
0.00000
  70
    32
  0
VERTEX
  8
0
  5
694
 10
72.3792
 20
49.8465
 30
0.00000
  70
    32
  0
VERTEX
  8
0
  5
695
 10
72.5124
 20
49.8484
 30
0.00000
  70
    32
  0
VERTEX
  8
0
  5
696
 10
72.6456
 20
49.8503
 30
0.00000
  70
    32
  0
VERTEX
  8
0
  5
697
 10
72.7788
 20
49.8521
 30
0.00000
  70
    32
  0
VERTEX
  8
0
  5
698
 10
72.9120
 20
49.8538
 30
0.00000
  70
    32
  0
VERTEX
  8
0
  5
699
 10
73.0452
 20
49.8555
 30
0.00000
  70
    32
  0
VERTEX
  8
0
  5
69A
 10
73.1784
 20
49.8571
 30
0.00000
  70
    32
  0
VERTEX
  8
0
  5
69B
 10
73.3116
 20
49.8586
 30
0.00000
  70
    32
  0
VERTEX
  8
0
  5
69C
 10
73.4448
 20
49.8601
 30
0.00000
  70
    32
  0
VERTEX
  8
0
  5
69D
 10
73.5780
 20
49.8615
 30
0.00000
  70
    32
  0
VERTEX
  8
0
  5
69E
 10
73.7112
 20
49.8628
 30
0.00000
  70
    32
  0
VERTEX
  8
0
  5
69F
 10
73.8444
 20
49.8641
 30
0.00000
  70
    32
  0
VERTEX
  8
0
  5
6A0
 10
73.9776
 20
49.8653
 30
0.00000
  70
    32
  0
VERTEX
  8
0
  5
6A1
 10
74.1108
 20
49.8664
 30
0.00000
  70
    32
  0
VERTEX
  8
0
  5
6A2
 10
74.2440
 20
49.8675
 30
0.00000
  70
    32
  0
VERTEX
  8
0
  5
6A3
 10
74.3772
 20
49.8685
 30
0.00000
  70
    32
  0
VERTEX
  8
0
  5
6A4
 10
74.5104
 20
49.8694
 30
0.00000
  70
    32
  0
VERTEX
  8
0
  5
6A5
 10
74.6436
 20
49.8703
 30
0.00000
  70
    32
  0
VERTEX
  8
0
  5
6A6
 10
74.7768
 20
49.8711
 30
0.00000
  70
    32
  0
VERTEX
  8
0
  5
6A7
 10
74.9100
 20
49.8718
 30
0.00000
  70
    32
  0
VERTEX
  8
0
  5
6A8
 10
75.0432
 20
49.8724
 30
0.00000
  70
    32
  0
VERTEX
  8
0
  5
6A9
 10
75.1764
 20
49.8730
 30
0.00000
  70
    32
  0
VERTEX
  8
0
  5
6AA
 10
75.3096
 20
49.8735
 30
0.00000
  70
    32
  0
VERTEX
  8
0
  5
6AB
 10
75.4428
 20
49.8740
 30
0.00000
  70
    32
  0
VERTEX
  8
0
  5
6AC
 10
75.5760
 20
49.8744
 30
0.00000
  70
    32
  0
VERTEX
  8
0
  5
6AD
 10
75.7092
 20
49.8747
 30
0.00000
  70
    32
  0
VERTEX
  8
0
  5
6AE
 10
75.8424
 20
49.8749
 30
0.00000
  70
    32
  0
VERTEX
  8
0
  5
6AF
 10
75.9756
 20
49.8751
 30
0.00000
  70
    32
  0
VERTEX
  8
0
  5
6B0
 10
76.1088
 20
49.8752
 30
0.00000
  70
    32
  0
VERTEX
  8
0
  5
6B1
 10
76.2420
 20
49.8753
 30
0.00000
  70
    32
  0
VERTEX
  8
0
  5
6B2
 10
76.3752
 20
49.8752
 30
0.00000
  70
    32
  0
VERTEX
  8
0
  5
6B3
 10
76.5084
 20
49.8751
 30
0.00000
  70
    32
  0
VERTEX
  8
0
  5
6B4
 10
76.6416
 20
49.8750
 30
0.00000
  70
    32
  0
VERTEX
  8
0
  5
6B5
 10
76.7748
 20
49.8747
 30
0.00000
  70
    32
  0
VERTEX
  8
0
  5
6B6
 10
76.9080
 20
49.8744
 30
0.00000
  70
    32
  0
VERTEX
  8
0
  5
6B7
 10
77.0412
 20
49.8741
 30
0.00000
  70
    32
  0
VERTEX
  8
0
  5
6B8
 10
77.1744
 20
49.8736
 30
0.00000
  70
    32
  0
VERTEX
  8
0
  5
6B9
 10
77.3076
 20
49.8731
 30
0.00000
  70
    32
  0
VERTEX
  8
0
  5
6BA
 10
77.4408
 20
49.8725
 30
0.00000
  70
    32
  0
VERTEX
  8
0
  5
6BB
 10
77.5740
 20
49.8719
 30
0.00000
  70
    32
  0
VERTEX
  8
0
  5
6BC
 10
77.7072
 20
49.8711
 30
0.00000
  70
    32
  0
VERTEX
  8
0
  5
6BD
 10
77.8404
 20
49.8704
 30
0.00000
  70
    32
  0
VERTEX
  8
0
  5
6BE
 10
77.9736
 20
49.8695
 30
0.00000
  70
    32
  0
VERTEX
  8
0
  5
6BF
 10
78.1068
 20
49.8686
 30
0.00000
  70
    32
  0
VERTEX
  8
0
  5
6C0
 10
78.2400
 20
49.8676
 30
0.00000
  70
    32
  0
VERTEX
  8
0
  5
6C1
 10
78.3732
 20
49.8665
 30
0.00000
  70
    32
  0
VERTEX
  8
0
  5
6C2
 10
78.5064
 20
49.8654
 30
0.00000
  70
    32
  0
VERTEX
  8
0
  5
6C3
 10
78.6396
 20
49.8642
 30
0.00000
  70
    32
  0
VERTEX
  8
0
  5
6C4
 10
78.7728
 20
49.8629
 30
0.00000
  70
    32
  0
VERTEX
  8
0
  5
6C5
 10
78.9059
 20
49.8615
 30
0.00000
  70
    32
  0
VERTEX
  8
0
  5
6C6
 10
79.0391
 20
49.8601
 30
0.00000
  70
    32
  0
VERTEX
  8
0
  5
6C7
 10
79.1723
 20
49.8586
 30
0.00000
  70
    32
  0
VERTEX
  8
0
  5
6C8
 10
79.3055
 20
49.8571
 30
0.00000
  70
    32
  0
VERTEX
  8
0
  5
6C9
 10
79.4387
 20
49.8554
 30
0.00000
  70
    32
  0
VERTEX
  8
0
  5
6CA
 10
79.5719
 20
49.8537
 30
0.00000
  70
    32
  0
VERTEX
  8
0
  5
6CB
 10
79.7050
 20
49.8520
 30
0.00000
  70
    32
  0
VERTEX
  8
0
  5
6CC
 10
79.8382
 20
49.8501
 30
0.00000
  70
    32
  0
VERTEX
  8
0
  5
6CD
 10
79.9714
 20
49.8482
 30
0.00000
  70
    32
  0
VERTEX
  8
0
  5
6CE
 10
80.1046
 20
49.8462
 30
0.00000
  70
    32
  0
VERTEX
  8
0
  5
6CF
 10
80.2378
 20
49.8442
 30
0.00000
  70
    32
  0
VERTEX
  8
0
  5
6D0
 10
80.3709
 20
49.8420
 30
0.00000
  70
    32
  0
VERTEX
  8
0
  5
6D1
 10
80.5041
 20
49.8399
 30
0.00000
  70
    32
  0
VERTEX
  8
0
  5
6D2
 10
80.6373
 20
49.8376
 30
0.00000
  70
    32
  0
VERTEX
  8
0
  5
6D3
 10
80.7704
 20
49.8352
 30
0.00000
  70
    32
  0
VERTEX
  8
0
  5
6D4
 10
80.9036
 20
49.8328
 30
0.00000
  70
    32
  0
VERTEX
  8
0
  5
6D5
 10
81.0368
 20
49.8304
 30
0.00000
  70
    32
  0
VERTEX
  8
0
  5
6D6
 10
81.1699
 20
49.8278
 30
0.00000
  70
    32
  0
VERTEX
  8
0
  5
6D7
 10
81.3031
 20
49.8252
 30
0.00000
  70
    32
  0
VERTEX
  8
0
  5
6D8
 10
81.4362
 20
49.8225
 30
0.00000
  70
    32
  0
VERTEX
  8
0
  5
6D9
 10
81.5694
 20
49.8197
 30
0.00000
  70
    32
  0
VERTEX
  8
0
  5
6DA
 10
81.7025
 20
49.8169
 30
0.00000
  70
    32
  0
VERTEX
  8
0
  5
6DB
 10
81.8357
 20
49.8140
 30
0.00000
  70
    32
  0
VERTEX
  8
0
  5
6DC
 10
81.9688
 20
49.8110
 30
0.00000
  70
    32
  0
VERTEX
  8
0
  5
6DD
 10
82.1020
 20
49.8079
 30
0.00000
  70
    32
  0
VERTEX
  8
0
  5
6DE
 10
82.2351
 20
49.8048
 30
0.00000
  70
    32
  0
VERTEX
  8
0
  5
6DF
 10
82.3683
 20
49.8016
 30
0.00000
  70
    32
  0
VERTEX
  8
0
  5
6E0
 10
82.5014
 20
49.7983
 30
0.00000
  70
    32
  0
VERTEX
  8
0
  5
6E1
 10
82.6346
 20
49.7950
 30
0.00000
  70
    32
  0
VERTEX
  8
0
  5
6E2
 10
82.7677
 20
49.7916
 30
0.00000
  70
    32
  0
VERTEX
  8
0
  5
6E3
 10
82.9008
 20
49.7881
 30
0.00000
  70
    32
  0
VERTEX
  8
0
  5
6E4
 10
83.0340
 20
49.7845
 30
0.00000
  70
    32
  0
VERTEX
  8
0
  5
6E5
 10
83.1671
 20
49.7809
 30
0.00000
  70
    32
  0
VERTEX
  8
0
  5
6E6
 10
83.3002
 20
49.7772
 30
0.00000
  70
    32
  0
VERTEX
  8
0
  5
6E7
 10
83.4333
 20
49.7734
 30
0.00000
  70
    32
  0
VERTEX
  8
0
  5
6E8
 10
83.5664
 20
49.7695
 30
0.00000
  70
    32
  0
VERTEX
  8
0
  5
6E9
 10
83.6996
 20
49.7656
 30
0.00000
  70
    32
  0
VERTEX
  8
0
  5
6EA
 10
83.8327
 20
49.7616
 30
0.00000
  70
    32
  0
VERTEX
  8
0
  5
6EB
 10
83.9658
 20
49.7575
 30
0.00000
  70
    32
  0
VERTEX
  8
0
  5
6EC
 10
84.0989
 20
49.7534
 30
0.00000
  70
    32
  0
VERTEX
  8
0
  5
6ED
 10
84.2320
 20
49.7492
 30
0.00000
  70
    32
  0
VERTEX
  8
0
  5
6EE
 10
84.3651
 20
49.7449
 30
0.00000
  70
    32
  0
VERTEX
  8
0
  5
6EF
 10
84.4982
 20
49.7405
 30
0.00000
  70
    32
  0
VERTEX
  8
0
  5
6F0
 10
84.6313
 20
49.7361
 30
0.00000
  70
    32
  0
VERTEX
  8
0
  5
6F1
 10
84.7644
 20
49.7316
 30
0.00000
  70
    32
  0
VERTEX
  8
0
  5
6F2
 10
84.8975
 20
49.7270
 30
0.00000
  70
    32
  0
VERTEX
  8
0
  5
6F3
 10
85.0306
 20
49.7223
 30
0.00000
  70
    32
  0
VERTEX
  8
0
  5
6F4
 10
85.1636
 20
49.7176
 30
0.00000
  70
    32
  0
VERTEX
  8
0
  5
6F5
 10
85.2967
 20
49.7128
 30
0.00000
  70
    32
  0
VERTEX
  8
0
  5
6F6
 10
85.4298
 20
49.7079
 30
0.00000
  70
    32
  0
VERTEX
  8
0
  5
6F7
 10
85.5629
 20
49.7029
 30
0.00000
  70
    32
  0
VERTEX
  8
0
  5
6F8
 10
85.6959
 20
49.6979
 30
0.00000
  70
    32
  0
VERTEX
  8
0
  5
6F9
 10
85.8290
 20
49.6928
 30
0.00000
  70
    32
  0
VERTEX
  8
0
  5
6FA
 10
85.9621
 20
49.6876
 30
0.00000
  70
    32
  0
VERTEX
  8
0
  5
6FB
 10
86.0951
 20
49.6824
 30
0.00000
  70
    32
  0
VERTEX
  8
0
  5
6FC
 10
86.2282
 20
49.6770
 30
0.00000
  70
    32
  0
VERTEX
  8
0
  5
6FD
 10
86.3612
 20
49.6716
 30
0.00000
  70
    32
  0
VERTEX
  8
0
  5
6FE
 10
86.4943
 20
49.6662
 30
0.00000
  70
    32
  0
VERTEX
  8
0
  5
6FF
 10
86.6273
 20
49.6606
 30
0.00000
  70
    32
  0
VERTEX
  8
0
  5
700
 10
86.7604
 20
49.6550
 30
0.00000
  70
    32
  0
VERTEX
  8
0
  5
701
 10
86.8934
 20
49.6493
 30
0.00000
  70
    32
  0
VERTEX
  8
0
  5
702
 10
87.0264
 20
49.6435
 30
0.00000
  70
    32
  0
VERTEX
  8
0
  5
703
 10
87.1595
 20
49.6377
 30
0.00000
  70
    32
  0
VERTEX
  8
0
  5
704
 10
87.2925
 20
49.6317
 30
0.00000
  70
    32
  0
VERTEX
  8
0
  5
705
 10
87.4255
 20
49.6257
 30
0.00000
  70
    32
  0
VERTEX
  8
0
  5
706
 10
87.5585
 20
49.6197
 30
0.00000
  70
    32
  0
VERTEX
  8
0
  5
707
 10
87.6915
 20
49.6135
 30
0.00000
  70
    32
  0
VERTEX
  8
0
  5
708
 10
87.8245
 20
49.6073
 30
0.00000
  70
    32
  0
VERTEX
  8
0
  5
709
 10
87.9575
 20
49.6010
 30
0.00000
  70
    32
  0
VERTEX
  8
0
  5
70A
 10
88.0905
 20
49.5946
 30
0.00000
  70
    32
  0
VERTEX
  8
0
  5
70B
 10
88.2235
 20
49.5882
 30
0.00000
  70
    32
  0
VERTEX
  8
0
  5
70C
 10
88.3565
 20
49.5817
 30
0.00000
  70
    32
  0
VERTEX
  8
0
  5
70D
 10
88.4895
 20
49.5751
 30
0.00000
  70
    32
  0
VERTEX
  8
0
  5
70E
 10
88.6225
 20
49.5684
 30
0.00000
  70
    32
  0
VERTEX
  8
0
  5
70F
 10
88.7555
 20
49.5617
 30
0.00000
  70
    32
  0
VERTEX
  8
0
  5
710
 10
88.8885
 20
49.5549
 30
0.00000
  70
    32
  0
VERTEX
  8
0
  5
711
 10
89.0214
 20
49.5481
 30
0.00000
  70
    32
  0
VERTEX
  8
0
  5
712
 10
89.1544
 20
49.5412
 30
0.00000
  70
    32
  0
VERTEX
  8
0
  5
713
 10
89.2874
 20
49.5342
 30
0.00000
  70
    32
  0
VERTEX
  8
0
  5
714
 10
89.4203
 20
49.5271
 30
0.00000
  70
    32
  0
VERTEX
  8
0
  5
715
 10
89.5533
 20
49.5200
 30
0.00000
  70
    32
  0
VERTEX
  8
0
  5
716
 10
89.6862
 20
49.5128
 30
0.00000
  70
    32
  0
VERTEX
  8
0
  5
717
 10
89.8192
 20
49.5056
 30
0.00000
  70
    32
  0
VERTEX
  8
0
  5
718
 10
89.9521
 20
49.4983
 30
0.00000
  70
    32
  0
VERTEX
  8
0
  5
719
 10
90.0851
 20
49.4909
 30
0.00000
  70
    32
  0
VERTEX
  8
0
  5
71A
 10
90.2180
 20
49.4835
 30
0.00000
  70
    32
  0
VERTEX
  8
0
  5
71B
 10
90.3510
 20
49.4761
 30
0.00000
  70
    32
  0
VERTEX
  8
0
  5
71C
 10
90.4839
 20
49.4685
 30
0.00000
  70
    32
  0
VERTEX
  8
0
  5
71D
 10
90.6168
 20
49.4609
 30
0.00000
  70
    32
  0
VERTEX
  8
0
  5
71E
 10
90.7498
 20
49.4533
 30
0.00000
  70
    32
  0
VERTEX
  8
0
  5
71F
 10
90.8827
 20
49.4456
 30
0.00000
  70
    32
  0
VERTEX
  8
0
  5
720
 10
91.0156
 20
49.4378
 30
0.00000
  70
    32
  0
VERTEX
  8
0
  5
721
 10
91.1485
 20
49.4300
 30
0.00000
  70
    32
  0
VERTEX
  8
0
  5
722
 10
91.2815
 20
49.4221
 30
0.00000
  70
    32
  0
VERTEX
  8
0
  5
723
 10
91.4144
 20
49.4142
 30
0.00000
  70
    32
  0
VERTEX
  8
0
  5
724
 10
91.5473
 20
49.4062
 30
0.00000
  70
    32
  0
VERTEX
  8
0
  5
725
 10
91.6802
 20
49.3982
 30
0.00000
  70
    32
  0
VERTEX
  8
0
  5
726
 10
91.8131
 20
49.3901
 30
0.00000
  70
    32
  0
VERTEX
  8
0
  5
727
 10
91.9460
 20
49.3820
 30
0.00000
  70
    32
  0
VERTEX
  8
0
  5
728
 10
92.0789
 20
49.3738
 30
0.00000
  70
    32
  0
VERTEX
  8
0
  5
729
 10
92.2118
 20
49.3656
 30
0.00000
  70
    32
  0
VERTEX
  8
0
  5
72A
 10
92.3447
 20
49.3573
 30
0.00000
  70
    32
  0
VERTEX
  8
0
  5
72B
 10
92.4776
 20
49.3490
 30
0.00000
  70
    32
  0
VERTEX
  8
0
  5
72C
 10
92.6105
 20
49.3406
 30
0.00000
  70
    32
  0
VERTEX
  8
0
  5
72D
 10
92.7434
 20
49.3322
 30
0.00000
  70
    32
  0
VERTEX
  8
0
  5
72E
 10
92.8763
 20
49.3238
 30
0.00000
  70
    32
  0
VERTEX
  8
0
  5
72F
 10
93.0091
 20
49.3153
 30
0.00000
  70
    32
  0
VERTEX
  8
0
  5
730
 10
93.1420
 20
49.3067
 30
0.00000
  70
    32
  0
VERTEX
  8
0
  5
731
 10
93.2749
 20
49.2982
 30
0.00000
  70
    32
  0
VERTEX
  8
0
  5
732
 10
93.4078
 20
49.2895
 30
0.00000
  70
    32
  0
VERTEX
  8
0
  5
733
 10
93.5407
 20
49.2809
 30
0.00000
  70
    32
  0
VERTEX
  8
0
  5
734
 10
93.6735
 20
49.2722
 30
0.00000
  70
    32
  0
VERTEX
  8
0
  5
735
 10
93.8064
 20
49.2634
 30
0.00000
  70
    32
  0
VERTEX
  8
0
  5
736
 10
93.9393
 20
49.2546
 30
0.00000
  70
    32
  0
VERTEX
  8
0
  5
737
 10
94.0721
 20
49.2458
 30
0.00000
  70
    32
  0
VERTEX
  8
0
  5
738
 10
94.2050
 20
49.2370
 30
0.00000
  70
    32
  0
VERTEX
  8
0
  5
739
 10
94.3379
 20
49.2281
 30
0.00000
  70
    32
  0
VERTEX
  8
0
  5
73A
 10
94.4707
 20
49.2191
 30
0.00000
  70
    32
  0
VERTEX
  8
0
  5
73B
 10
94.6036
 20
49.2102
 30
0.00000
  70
    32
  0
VERTEX
  8
0
  5
73C
 10
94.7364
 20
49.2012
 30
0.00000
  70
    32
  0
VERTEX
  8
0
  5
73D
 10
94.8693
 20
49.1922
 30
0.00000
  70
    32
  0
VERTEX
  8
0
  5
73E
 10
95.0021
 20
49.1831
 30
0.00000
  70
    32
  0
VERTEX
  8
0
  5
73F
 10
95.1350
 20
49.1740
 30
0.00000
  70
    32
  0
VERTEX
  8
0
  5
740
 10
95.2678
 20
49.1649
 30
0.00000
  70
    32
  0
VERTEX
  8
0
  5
741
 10
95.4007
 20
49.1557
 30
0.00000
  70
    32
  0
VERTEX
  8
0
  5
742
 10
95.5335
 20
49.1466
 30
0.00000
  70
    32
  0
VERTEX
  8
0
  5
743
 10
95.6664
 20
49.1373
 30
0.00000
  70
    32
  0
VERTEX
  8
0
  5
744
 10
95.7992
 20
49.1281
 30
0.00000
  70
    32
  0
VERTEX
  8
0
  5
745
 10
95.9321
 20
49.1188
 30
0.00000
  70
    32
  0
VERTEX
  8
0
  5
746
 10
96.0649
 20
49.1096
 30
0.00000
  70
    32
  0
VERTEX
  8
0
  5
747
 10
96.1978
 20
49.1002
 30
0.00000
  70
    32
  0
VERTEX
  8
0
  5
748
 10
96.3306
 20
49.0909
 30
0.00000
  70
    32
  0
VERTEX
  8
0
  5
749
 10
96.4634
 20
49.0815
 30
0.00000
  70
    32
  0
VERTEX
  8
0
  5
74A
 10
96.5963
 20
49.0722
 30
0.00000
  70
    32
  0
VERTEX
  8
0
  5
74B
 10
96.7291
 20
49.0627
 30
0.00000
  70
    32
  0
VERTEX
  8
0
  5
74C
 10
96.8619
 20
49.0533
 30
0.00000
  70
    32
  0
VERTEX
  8
0
  5
74D
 10
96.9948
 20
49.0439
 30
0.00000
  70
    32
  0
VERTEX
  8
0
  5
74E
 10
97.1276
 20
49.0344
 30
0.00000
  70
    32
  0
VERTEX
  8
0
  5
74F
 10
97.2604
 20
49.0249
 30
0.00000
  70
    32
  0
VERTEX
  8
0
  5
750
 10
97.3932
 20
49.0154
 30
0.00000
  70
    32
  0
VERTEX
  8
0
  5
751
 10
97.5261
 20
49.0059
 30
0.00000
  70
    32
  0
VERTEX
  8
0
  5
752
 10
97.6589
 20
48.9963
 30
0.00000
  70
    32
  0
VERTEX
  8
0
  5
753
 10
97.7917
 20
48.9868
 30
0.00000
  70
    32
  0
VERTEX
  8
0
  5
754
 10
97.9246
 20
48.9772
 30
0.00000
  70
    32
  0
VERTEX
  8
0
  5
755
 10
98.0574
 20
48.9676
 30
0.00000
  70
    32
  0
VERTEX
  8
0
  5
756
 10
98.1902
 20
48.9580
 30
0.00000
  70
    32
  0
VERTEX
  8
0
  5
757
 10
98.3230
 20
48.9484
 30
0.00000
  70
    32
  0
VERTEX
  8
0
  5
758
 10
98.4558
 20
48.9388
 30
0.00000
  70
    32
  0
VERTEX
  8
0
  5
759
 10
98.5887
 20
48.9291
 30
0.00000
  70
    32
  0
VERTEX
  8
0
  5
75A
 10
98.7215
 20
48.9195
 30
0.00000
  70
    32
  0
VERTEX
  8
0
  5
75B
 10
98.8543
 20
48.9098
 30
0.00000
  70
    32
  0
VERTEX
  8
0
  5
75C
 10
98.9871
 20
48.9002
 30
0.00000
  70
    32
  0
VERTEX
  8
0
  5
75D
 10
99.1199
 20
48.8905
 30
0.00000
  70
    32
  0
VERTEX
  8
0
  5
75E
 10
99.2528
 20
48.8808
 30
0.00000
  70
    32
  0
VERTEX
  8
0
  5
75F
 10
99.3856
 20
48.8711
 30
0.00000
  70
    32
  0
VERTEX
  8
0
  5
760
 10
99.5184
 20
48.8614
 30
0.00000
  70
    32
  0
VERTEX
  8
0
  5
761
 10
99.6512
 20
48.8517
 30
0.00000
  70
    32
  0
VERTEX
  8
0
  5
762
 10
99.7840
 20
48.8420
 30
0.00000
  70
    32
  0
VERTEX
  8
0
  5
763
 10
99.1108
 20
47.8105
 30
0.00000
  70
    32
  0
VERTEX
  8
0
  5
764
 10
96.2697
 20
44.0305
 30
0.00000
  70
    32
  0
VERTEX
  8
0
  5
765
 10
93.4286
 20
40.2506
 30
0.00000
  70
    32
  0
VERTEX
  8
0
  5
766
 10
90.5875
 20
36.4707
 30
0.00000
  70
    32
  0
VERTEX
  8
0
  5
767
 10
87.7463
 20
32.6907
 30
0.00000
  70
    32
  0
VERTEX
  8
0
  5
768
 10
84.9052
 20
28.9108
 30
0.00000
  70
    32
  0
VERTEX
  8
0
  5
769
 10
82.0641
 20
25.1309
 30
0.00000
  70
    32
  0
VERTEX
  8
0
  5
76A
 10
79.2230
 20
21.3510
 30
0.00000
  70
    32
  0
VERTEX
  8
0
  5
76B
 10
78.4527
 20
20.4920
 30
0.00000
  70
    32
  0
VERTEX
  8
0
  5
76C
 10
78.3329
 20
20.5504
 30
0.00000
  70
    32
  0
VERTEX
  8
0
  5
76D
 10
78.2131
 20
20.6088
 30
0.00000
  70
    32
  0
VERTEX
  8
0
  5
76E
 10
78.0933
 20
20.6672
 30
0.00000
  70
    32
  0
VERTEX
  8
0
  5
76F
 10
77.9735
 20
20.7256
 30
0.00000
  70
    32
  0
VERTEX
  8
0
  5
770
 10
77.8537
 20
20.7840
 30
0.00000
  70
    32
  0
VERTEX
  8
0
  5
771
 10
77.7338
 20
20.8423
 30
0.00000
  70
    32
  0
VERTEX
  8
0
  5
772
 10
77.6139
 20
20.9006
 30
0.00000
  70
    32
  0
VERTEX
  8
0
  5
773
 10
77.4941
 20
20.9588
 30
0.00000
  70
    32
  0
VERTEX
  8
0
  5
774
 10
77.3742
 20
21.0170
 30
0.00000
  70
    32
  0
VERTEX
  8
0
  5
775
 10
77.2542
 20
21.0752
 30
0.00000
  70
    32
  0
VERTEX
  8
0
  5
776
 10
77.1343
 20
21.1333
 30
0.00000
  70
    32
  0
VERTEX
  8
0
  5
777
 10
77.0143
 20
21.1913
 30
0.00000
  70
    32
  0
VERTEX
  8
0
  5
778
 10
76.8944
 20
21.2493
 30
0.00000
  70
    32
  0
VERTEX
  8
0
  5
779
 10
76.7744
 20
21.3073
 30
0.00000
  70
    32
  0
VERTEX
  8
0
  5
77A
 10
76.6543
 20
21.3651
 30
0.00000
  70
    32
  0
VERTEX
  8
0
  5
77B
 10
76.5343
 20
21.4229
 30
0.00000
  70
    32
  0
VERTEX
  8
0
  5
77C
 10
76.4142
 20
21.4807
 30
0.00000
  70
    32
  0
VERTEX
  8
0
  5
77D
 10
76.2941
 20
21.5383
 30
0.00000
  70
    32
  0
VERTEX
  8
0
  5
77E
 10
76.1739
 20
21.5959
 30
0.00000
  70
    32
  0
VERTEX
  8
0
  5
77F
 10
76.0537
 20
21.6535
 30
0.00000
  70
    32
  0
VERTEX
  8
0
  5
780
 10
75.9335
 20
21.7109
 30
0.00000
  70
    32
  0
VERTEX
  8
0
  5
781
 10
75.8132
 20
21.7682
 30
0.00000
  70
    32
  0
VERTEX
  8
0
  5
782
 10
75.6930
 20
21.8255
 30
0.00000
  70
    32
  0
VERTEX
  8
0
  5
783
 10
75.5726
 20
21.8826
 30
0.00000
  70
    32
  0
VERTEX
  8
0
  5
784
 10
75.4522
 20
21.9397
 30
0.00000
  70
    32
  0
VERTEX
  8
0
  5
785
 10
75.3318
 20
21.9967
 30
0.00000
  70
    32
  0
VERTEX
  8
0
  5
786
 10
75.2114
 20
22.0535
 30
0.00000
  70
    32
  0
VERTEX
  8
0
  5
787
 10
75.0909
 20
22.1103
 30
0.00000
  70
    32
  0
VERTEX
  8
0
  5
788
 10
74.9703
 20
22.1669
 30
0.00000
  70
    32
  0
VERTEX
  8
0
  5
789
 10
74.8497
 20
22.2234
 30
0.00000
  70
    32
  0
VERTEX
  8
0
  5
78A
 10
74.7291
 20
22.2798
 30
0.00000
  70
    32
  0
VERTEX
  8
0
  5
78B
 10
74.6084
 20
22.3361
 30
0.00000
  70
    32
  0
VERTEX
  8
0
  5
78C
 10
74.4876
 20
22.3923
 30
0.00000
  70
    32
  0
VERTEX
  8
0
  5
78D
 10
74.3668
 20
22.4483
 30
0.00000
  70
    32
  0
VERTEX
  8
0
  5
78E
 10
74.2460
 20
22.5042
 30
0.00000
  70
    32
  0
VERTEX
  8
0
  5
78F
 10
74.1251
 20
22.5600
 30
0.00000
  70
    32
  0
VERTEX
  8
0
  5
790
 10
74.0041
 20
22.6156
 30
0.00000
  70
    32
  0
VERTEX
  8
0
  5
791
 10
73.8831
 20
22.6711
 30
0.00000
  70
    32
  0
VERTEX
  8
0
  5
792
 10
73.7620
 20
22.7264
 30
0.00000
  70
    32
  0
VERTEX
  8
0
  5
793
 10
73.6408
 20
22.7816
 30
0.00000
  70
    32
  0
VERTEX
  8
0
  5
794
 10
73.5196
 20
22.8367
 30
0.00000
  70
    32
  0
VERTEX
  8
0
  5
795
 10
73.3983
 20
22.8916
 30
0.00000
  70
    32
  0
VERTEX
  8
0
  5
796
 10
73.2770
 20
22.9463
 30
0.00000
  70
    32
  0
VERTEX
  8
0
  5
797
 10
73.1556
 20
23.0009
 30
0.00000
  70
    32
  0
VERTEX
  8
0
  5
798
 10
73.0341
 20
23.0553
 30
0.00000
  70
    32
  0
VERTEX
  8
0
  5
799
 10
72.9125
 20
23.1095
 30
0.00000
  70
    32
  0
VERTEX
  8
0
  5
79A
 10
72.7909
 20
23.1636
 30
0.00000
  70
    32
  0
VERTEX
  8
0
  5
79B
 10
72.6692
 20
23.2174
 30
0.00000
  70
    32
  0
VERTEX
  8
0
  5
79C
 10
72.5475
 20
23.2711
 30
0.00000
  70
    32
  0
VERTEX
  8
0
  5
79D
 10
72.4256
 20
23.3247
 30
0.00000
  70
    32
  0
VERTEX
  8
0
  5
79E
 10
72.3037
 20
23.3780
 30
0.00000
  70
    32
  0
VERTEX
  8
0
  5
79F
 10
72.1817
 20
23.4311
 30
0.00000
  70
    32
  0
VERTEX
  8
0
  5
7A0
 10
72.0596
 20
23.4841
 30
0.00000
  70
    32
  0
VERTEX
  8
0
  5
7A1
 10
71.9374
 20
23.5368
 30
0.00000
  70
    32
  0
VERTEX
  8
0
  5
7A2
 10
71.8152
 20
23.5894
 30
0.00000
  70
    32
  0
VERTEX
  8
0
  5
7A3
 10
71.6928
 20
23.6417
 30
0.00000
  70
    32
  0
VERTEX
  8
0
  5
7A4
 10
71.5704
 20
23.6939
 30
0.00000
  70
    32
  0
VERTEX
  8
0
  5
7A5
 10
71.4479
 20
23.7458
 30
0.00000
  70
    32
  0
VERTEX
  8
0
  5
7A6
 10
71.3253
 20
23.7975
 30
0.00000
  70
    32
  0
VERTEX
  8
0
  5
7A7
 10
71.2026
 20
23.8490
 30
0.00000
  70
    32
  0
VERTEX
  8
0
  5
7A8
 10
71.0798
 20
23.9003
 30
0.00000
  70
    32
  0
VERTEX
  8
0
  5
7A9
 10
70.9570
 20
23.9514
 30
0.00000
  70
    32
  0
VERTEX
  8
0
  5
7AA
 10
70.8340
 20
24.0022
 30
0.00000
  70
    32
  0
VERTEX
  8
0
  5
7AB
 10
70.7109
 20
24.0528
 30
0.00000
  70
    32
  0
VERTEX
  8
0
  5
7AC
 10
70.5877
 20
24.1032
 30
0.00000
  70
    32
  0
VERTEX
  8
0
  5
7AD
 10
70.4645
 20
24.1533
 30
0.00000
  70
    32
  0
VERTEX
  8
0
  5
7AE
 10
70.3411
 20
24.2032
 30
0.00000
  70
    32
  0
VERTEX
  8
0
  5
7AF
 10
70.2177
 20
24.2529
 30
0.00000
  70
    32
  0
VERTEX
  8
0
  5
7B0
 10
70.0941
 20
24.3023
 30
0.00000
  70
    32
  0
VERTEX
  8
0
  5
7B1
 10
69.9705
 20
24.3515
 30
0.00000
  70
    32
  0
VERTEX
  8
0
  5
7B2
 10
69.8468
 20
24.4005
 30
0.00000
  70
    32
  0
VERTEX
  8
0
  5
7B3
 10
69.7229
 20
24.4493
 30
0.00000
  70
    32
  0
VERTEX
  8
0
  5
7B4
 10
69.5990
 20
24.4978
 30
0.00000
  70
    32
  0
VERTEX
  8
0
  5
7B5
 10
69.4750
 20
24.5461
 30
0.00000
  70
    32
  0
VERTEX
  8
0
  5
7B6
 10
69.3509
 20
24.5942
 30
0.00000
  70
    32
  0
VERTEX
  8
0
  5
7B7
 10
69.2267
 20
24.6421
 30
0.00000
  70
    32
  0
VERTEX
  8
0
  5
7B8
 10
69.1025
 20
24.6898
 30
0.00000
  70
    32
  0
VERTEX
  8
0
  5
7B9
 10
68.9781
 20
24.7372
 30
0.00000
  70
    32
  0
VERTEX
  8
0
  5
7BA
 10
68.8537
 20
24.7844
 30
0.00000
  70
    32
  0
VERTEX
  8
0
  5
7BB
 10
68.7291
 20
24.8314
 30
0.00000
  70
    32
  0
VERTEX
  8
0
  5
7BC
 10
68.6045
 20
24.8782
 30
0.00000
  70
    32
  0
VERTEX
  8
0
  5
7BD
 10
68.4798
 20
24.9248
 30
0.00000
  70
    32
  0
VERTEX
  8
0
  5
7BE
 10
68.3550
 20
24.9712
 30
0.00000
  70
    32
  0
VERTEX
  8
0
  5
7BF
 10
68.2302
 20
25.0174
 30
0.00000
  70
    32
  0
VERTEX
  8
0
  5
7C0
 10
68.1052
 20
25.0633
 30
0.00000
  70
    32
  0
VERTEX
  8
0
  5
7C1
 10
67.9802
 20
25.1091
 30
0.00000
  70
    32
  0
VERTEX
  8
0
  5
7C2
 10
67.8551
 20
25.1547
 30
0.00000
  70
    32
  0
VERTEX
  8
0
  5
7C3
 10
67.7299
 20
25.2000
 30
0.00000
  70
    32
  0
VERTEX
  8
0
  5
7C4
 10
67.6046
 20
25.2452
 30
0.00000
  70
    32
  0
VERTEX
  8
0
  5
7C5
 10
67.4793
 20
25.2901
 30
0.00000
  70
    32
  0
VERTEX
  8
0
  5
7C6
 10
67.3538
 20
25.3349
 30
0.00000
  70
    32
  0
VERTEX
  8
0
  5
7C7
 10
67.2283
 20
25.3794
 30
0.00000
  70
    32
  0
VERTEX
  8
0
  5
7C8
 10
67.1028
 20
25.4238
 30
0.00000
  70
    32
  0
VERTEX
  8
0
  5
7C9
 10
66.9771
 20
25.4679
 30
0.00000
  70
    32
  0
VERTEX
  8
0
  5
7CA
 10
66.8514
 20
25.5119
 30
0.00000
  70
    32
  0
VERTEX
  8
0
  5
7CB
 10
66.7256
 20
25.5557
 30
0.00000
  70
    32
  0
VERTEX
  8
0
  5
7CC
 10
66.5997
 20
25.5993
 30
0.00000
  70
    32
  0
VERTEX
  8
0
  5
7CD
 10
66.4738
 20
25.6426
 30
0.00000
  70
    32
  0
VERTEX
  8
0
  5
7CE
 10
66.3478
 20
25.6859
 30
0.00000
  70
    32
  0
VERTEX
  8
0
  5
7CF
 10
66.2217
 20
25.7289
 30
0.00000
  70
    32
  0
VERTEX
  8
0
  5
7D0
 10
66.0956
 20
25.7717
 30
0.00000
  70
    32
  0
VERTEX
  8
0
  5
7D1
 10
65.9693
 20
25.8144
 30
0.00000
  70
    32
  0
VERTEX
  8
0
  5
7D2
 10
65.8431
 20
25.8568
 30
0.00000
  70
    32
  0
VERTEX
  8
0
  5
7D3
 10
65.7167
 20
25.8991
 30
0.00000
  70
    32
  0
VERTEX
  8
0
  5
7D4
 10
65.5903
 20
25.9412
 30
0.00000
  70
    32
  0
VERTEX
  8
0
  5
7D5
 10
65.4638
 20
25.9831
 30
0.00000
  70
    32
  0
VERTEX
  8
0
  5
7D6
 10
65.3373
 20
26.0249
 30
0.00000
  70
    32
  0
VERTEX
  8
0
  5
7D7
 10
65.2107
 20
26.0665
 30
0.00000
  70
    32
  0
VERTEX
  8
0
  5
7D8
 10
65.0840
 20
26.1078
 30
0.00000
  70
    32
  0
VERTEX
  8
0
  5
7D9
 10
64.9572
 20
26.1491
 30
0.00000
  70
    32
  0
VERTEX
  8
0
  5
7DA
 10
64.8305
 20
26.1901
 30
0.00000
  70
    32
  0
VERTEX
  8
0
  5
7DB
 10
64.7036
 20
26.2310
 30
0.00000
  70
    32
  0
VERTEX
  8
0
  5
7DC
 10
64.5767
 20
26.2717
 30
0.00000
  70
    32
  0
VERTEX
  8
0
  5
7DD
 10
64.4497
 20
26.3123
 30
0.00000
  70
    32
  0
VERTEX
  8
0
  5
7DE
 10
64.3227
 20
26.3526
 30
0.00000
  70
    32
  0
VERTEX
  8
0
  5
7DF
 10
64.1956
 20
26.3928
 30
0.00000
  70
    32
  0
VERTEX
  8
0
  5
7E0
 10
64.0684
 20
26.4329
 30
0.00000
  70
    32
  0
VERTEX
  8
0
  5
7E1
 10
63.9412
 20
26.4728
 30
0.00000
  70
    32
  0
VERTEX
  8
0
  5
7E2
 10
63.8140
 20
26.5125
 30
0.00000
  70
    32
  0
VERTEX
  8
0
  5
7E3
 10
63.6867
 20
26.5520
 30
0.00000
  70
    32
  0
VERTEX
  8
0
  5
7E4
 10
63.5593
 20
26.5915
 30
0.00000
  70
    32
  0
VERTEX
  8
0
  5
7E5
 10
63.4319
 20
26.6307
 30
0.00000
  70
    32
  0
VERTEX
  8
0
  5
7E6
 10
63.3044
 20
26.6698
 30
0.00000
  70
    32
  0
VERTEX
  8
0
  5
7E7
 10
63.1769
 20
26.7087
 30
0.00000
  70
    32
  0
VERTEX
  8
0
  5
7E8
 10
63.0493
 20
26.7475
 30
0.00000
  70
    32
  0
VERTEX
  8
0
  5
7E9
 10
62.9217
 20
26.7861
 30
0.00000
  70
    32
  0
VERTEX
  8
0
  5
7EA
 10
62.7941
 20
26.8246
 30
0.00000
  70
    32
  0
VERTEX
  8
0
  5
7EB
 10
62.6664
 20
26.8629
 30
0.00000
  70
    32
  0
VERTEX
  8
0
  5
7EC
 10
62.5386
 20
26.9011
 30
0.00000
  70
    32
  0
VERTEX
  8
0
  5
7ED
 10
62.4108
 20
26.9392
 30
0.00000
  70
    32
  0
VERTEX
  8
0
  5
7EE
 10
62.2829
 20
26.9770
 30
0.00000
  70
    32
  0
VERTEX
  8
0
  5
7EF
 10
62.1550
 20
27.0148
 30
0.00000
  70
    32
  0
VERTEX
  8
0
  5
7F0
 10
62.0271
 20
27.0524
 30
0.00000
  70
    32
  0
VERTEX
  8
0
  5
7F1
 10
61.8991
 20
27.0898
 30
0.00000
  70
    32
  0
VERTEX
  8
0
  5
7F2
 10
61.7711
 20
27.1272
 30
0.00000
  70
    32
  0
VERTEX
  8
0
  5
7F3
 10
61.6430
 20
27.1644
 30
0.00000
  70
    32
  0
VERTEX
  8
0
  5
7F4
 10
61.5149
 20
27.2014
 30
0.00000
  70
    32
  0
VERTEX
  8
0
  5
7F5
 10
61.3868
 20
27.2383
 30
0.00000
  70
    32
  0
VERTEX
  8
0
  5
7F6
 10
61.2586
 20
27.2751
 30
0.00000
  70
    32
  0
VERTEX
  8
0
  5
7F7
 10
61.1304
 20
27.3117
 30
0.00000
  70
    32
  0
VERTEX
  8
0
  5
7F8
 10
61.0021
 20
27.3482
 30
0.00000
  70
    32
  0
VERTEX
  8
0
  5
7F9
 10
60.8738
 20
27.3846
 30
0.00000
  70
    32
  0
VERTEX
  8
0
  5
7FA
 10
60.7455
 20
27.4209
 30
0.00000
  70
    32
  0
VERTEX
  8
0
  5
7FB
 10
60.6171
 20
27.4570
 30
0.00000
  70
    32
  0
VERTEX
  8
0
  5
7FC
 10
60.4887
 20
27.4930
 30
0.00000
  70
    32
  0
VERTEX
  8
0
  5
7FD
 10
60.3603
 20
27.5289
 30
0.00000
  70
    32
  0
VERTEX
  8
0
  5
7FE
 10
60.2318
 20
27.5646
 30
0.00000
  70
    32
  0
VERTEX
  8
0
  5
7FF
 10
60.1033
 20
27.6002
 30
0.00000
  70
    32
  0
VERTEX
  8
0
  5
800
 10
59.9748
 20
27.6357
 30
0.00000
  70
    32
  0
VERTEX
  8
0
  5
801
 10
59.8462
 20
27.6711
 30
0.00000
  70
    32
  0
VERTEX
  8
0
  5
802
 10
59.7176
 20
27.7064
 30
0.00000
  70
    32
  0
VERTEX
  8
0
  5
803
 10
59.5890
 20
27.7415
 30
0.00000
  70
    32
  0
VERTEX
  8
0
  5
804
 10
59.4603
 20
27.7766
 30
0.00000
  70
    32
  0
VERTEX
  8
0
  5
805
 10
59.3317
 20
27.8115
 30
0.00000
  70
    32
  0
VERTEX
  8
0
  5
806
 10
59.2030
 20
27.8463
 30
0.00000
  70
    32
  0
VERTEX
  8
0
  5
807
 10
59.0742
 20
27.8809
 30
0.00000
  70
    32
  0
VERTEX
  8
0
  5
808
 10
58.9455
 20
27.9155
 30
0.00000
  70
    32
  0
VERTEX
  8
0
  5
809
 10
58.8167
 20
27.9499
 30
0.00000
  70
    32
  0
VERTEX
  8
0
  5
80A
 10
58.6879
 20
27.9843
 30
0.00000
  70
    32
  0
VERTEX
  8
0
  5
80B
 10
58.5590
 20
28.0185
 30
0.00000
  70
    32
  0
VERTEX
  8
0
  5
80C
 10
58.4301
 20
28.0526
 30
0.00000
  70
    32
  0
VERTEX
  8
0
  5
80D
 10
58.3012
 20
28.0865
 30
0.00000
  70
    32
  0
VERTEX
  8
0
  5
80E
 10
58.1723
 20
28.1204
 30
0.00000
  70
    32
  0
VERTEX
  8
0
  5
80F
 10
58.0433
 20
28.1541
 30
0.00000
  70
    32
  0
VERTEX
  8
0
  5
810
 10
57.9143
 20
28.1877
 30
0.00000
  70
    32
  0
VERTEX
  8
0
  5
811
 10
57.7853
 20
28.2212
 30
0.00000
  70
    32
  0
VERTEX
  8
0
  5
812
 10
57.6563
 20
28.2546
 30
0.00000
  70
    32
  0
VERTEX
  8
0
  5
813
 10
57.5272
 20
28.2879
 30
0.00000
  70
    32
  0
VERTEX
  8
0
  5
814
 10
57.3981
 20
28.3210
 30
0.00000
  70
    32
  0
VERTEX
  8
0
  5
815
 10
57.2690
 20
28.3540
 30
0.00000
  70
    32
  0
VERTEX
  8
0
  5
816
 10
57.1398
 20
28.3869
 30
0.00000
  70
    32
  0
VERTEX
  8
0
  5
817
 10
57.0106
 20
28.4197
 30
0.00000
  70
    32
  0
VERTEX
  8
0
  5
818
 10
56.8814
 20
28.4524
 30
0.00000
  70
    32
  0
VERTEX
  8
0
  5
819
 10
56.7522
 20
28.4849
 30
0.00000
  70
    32
  0
VERTEX
  8
0
  5
81A
 10
56.6229
 20
28.5173
 30
0.00000
  70
    32
  0
VERTEX
  8
0
  5
81B
 10
56.4936
 20
28.5496
 30
0.00000
  70
    32
  0
VERTEX
  8
0
  5
81C
 10
56.3643
 20
28.5818
 30
0.00000
  70
    32
  0
VERTEX
  8
0
  5
81D
 10
56.2350
 20
28.6139
 30
0.00000
  70
    32
  0
VERTEX
  8
0
  5
81E
 10
56.1056
 20
28.6458
 30
0.00000
  70
    32
  0
VERTEX
  8
0
  5
81F
 10
55.9762
 20
28.6777
 30
0.00000
  70
    32
  0
VERTEX
  8
0
  5
820
 10
55.8468
 20
28.7094
 30
0.00000
  70
    32
  0
VERTEX
  8
0
  5
821
 10
55.7173
 20
28.7410
 30
0.00000
  70
    32
  0
VERTEX
  8
0
  5
822
 10
55.5878
 20
28.7724
 30
0.00000
  70
    32
  0
VERTEX
  8
0
  5
823
 10
55.4583
 20
28.8038
 30
0.00000
  70
    32
  0
VERTEX
  8
0
  5
824
 10
55.3288
 20
28.8350
 30
0.00000
  70
    32
  0
VERTEX
  8
0
  5
825
 10
55.1992
 20
28.8661
 30
0.00000
  70
    32
  0
VERTEX
  8
0
  5
826
 10
55.0696
 20
28.8971
 30
0.00000
  70
    32
  0
VERTEX
  8
0
  5
827
 10
54.9400
 20
28.9280
 30
0.00000
  70
    32
  0
VERTEX
  8
0
  5
828
 10
54.8104
 20
28.9587
 30
0.00000
  70
    32
  0
VERTEX
  8
0
  5
829
 10
54.6807
 20
28.9893
 30
0.00000
  70
    32
  0
VERTEX
  8
0
  5
82A
 10
54.5510
 20
29.0198
 30
0.00000
  70
    32
  0
VERTEX
  8
0
  5
82B
 10
54.4213
 20
29.0502
 30
0.00000
  70
    32
  0
VERTEX
  8
0
  5
82C
 10
54.2915
 20
29.0805
 30
0.00000
  70
    32
  0
VERTEX
  8
0
  5
82D
 10
54.1618
 20
29.1106
 30
0.00000
  70
    32
  0
VERTEX
  8
0
  5
82E
 10
54.0320
 20
29.1406
 30
0.00000
  70
    32
  0
VERTEX
  8
0
  5
82F
 10
53.9021
 20
29.1705
 30
0.00000
  70
    32
  0
VERTEX
  8
0
  5
830
 10
53.7723
 20
29.2003
 30
0.00000
  70
    32
  0
VERTEX
  8
0
  5
831
 10
53.6424
 20
29.2300
 30
0.00000
  70
    32
  0
VERTEX
  8
0
  5
832
 10
53.5125
 20
29.2595
 30
0.00000
  70
    32
  0
VERTEX
  8
0
  5
833
 10
53.3826
 20
29.2889
 30
0.00000
  70
    32
  0
VERTEX
  8
0
  5
834
 10
53.2526
 20
29.3182
 30
0.00000
  70
    32
  0
VERTEX
  8
0
  5
835
 10
53.1226
 20
29.3474
 30
0.00000
  70
    32
  0
VERTEX
  8
0
  5
836
 10
52.9926
 20
29.3765
 30
0.00000
  70
    32
  0
VERTEX
  8
0
  5
837
 10
52.8626
 20
29.4054
 30
0.00000
  70
    32
  0
VERTEX
  8
0
  5
838
 10
52.7325
 20
29.4342
 30
0.00000
  70
    32
  0
VERTEX
  8
0
  5
839
 10
52.6025
 20
29.4629
 30
0.00000
  70
    32
  0
VERTEX
  8
0
  5
83A
 10
52.4724
 20
29.4914
 30
0.00000
  70
    32
  0
VERTEX
  8
0
  5
83B
 10
52.3422
 20
29.5199
 30
0.00000
  70
    32
  0
VERTEX
  8
0
  5
83C
 10
52.2121
 20
29.5482
 30
0.00000
  70
    32
  0
VERTEX
  8
0
  5
83D
 10
52.0819
 20
29.5764
 30
0.00000
  70
    32
  0
VERTEX
  8
0
  5
83E
 10
51.9517
 20
29.6045
 30
0.00000
  70
    32
  0
VERTEX
  8
0
  5
83F
 10
51.8214
 20
29.6324
 30
0.00000
  70
    32
  0
VERTEX
  8
0
  5
840
 10
51.6912
 20
29.6603
 30
0.00000
  70
    32
  0
VERTEX
  8
0
  5
841
 10
51.5609
 20
29.6880
 30
0.00000
  70
    32
  0
VERTEX
  8
0
  5
842
 10
51.4306
 20
29.7156
 30
0.00000
  70
    32
  0
VERTEX
  8
0
  5
843
 10
51.3003
 20
29.7430
 30
0.00000
  70
    32
  0
VERTEX
  8
0
  5
844
 10
51.1699
 20
29.7704
 30
0.00000
  70
    32
  0
VERTEX
  8
0
  5
845
 10
51.0395
 20
29.7976
 30
0.00000
  70
    32
  0
VERTEX
  8
0
  5
846
 10
50.9091
 20
29.8247
 30
0.00000
  70
    32
  0
VERTEX
  8
0
  5
847
 10
50.7787
 20
29.8516
 30
0.00000
  70
    32
  0
VERTEX
  8
0
  5
848
 10
50.6482
 20
29.8785
 30
0.00000
  70
    32
  0
VERTEX
  8
0
  5
849
 10
50.5178
 20
29.9052
 30
0.00000
  70
    32
  0
VERTEX
  8
0
  5
84A
 10
50.3873
 20
29.9318
 30
0.00000
  70
    32
  0
VERTEX
  8
0
  5
84B
 10
50.2567
 20
29.9583
 30
0.00000
  70
    32
  0
VERTEX
  8
0
  5
84C
 10
50.1262
 20
29.9847
 30
0.00000
  70
    32
  0
VERTEX
  8
0
  5
84D
 10
49.9956
 20
30.0109
 30
0.00000
  70
    32
  0
VERTEX
  8
0
  5
84E
 10
49.8650
 20
30.0370
 30
0.00000
  70
    32
  0
VERTEX
  8
0
  5
84F
 10
49.7344
 20
30.0630
 30
0.00000
  70
    32
  0
VERTEX
  8
0
  5
850
 10
49.6037
 20
30.0889
 30
0.00000
  70
    32
  0
VERTEX
  8
0
  5
851
 10
49.4731
 20
30.1146
 30
0.00000
  70
    32
  0
VERTEX
  8
0
  5
852
 10
49.3424
 20
30.1402
 30
0.00000
  70
    32
  0
VERTEX
  8
0
  5
853
 10
49.2117
 20
30.1657
 30
0.00000
  70
    32
  0
VERTEX
  8
0
  5
854
 10
49.0809
 20
30.1911
 30
0.00000
  70
    32
  0
VERTEX
  8
0
  5
855
 10
48.9502
 20
30.2163
 30
0.00000
  70
    32
  0
VERTEX
  8
0
  5
856
 10
48.8194
 20
30.2414
 30
0.00000
  70
    32
  0
VERTEX
  8
0
  5
857
 10
48.6886
 20
30.2664
 30
0.00000
  70
    32
  0
VERTEX
  8
0
  5
858
 10
48.5577
 20
30.2913
 30
0.00000
  70
    32
  0
VERTEX
  8
0
  5
859
 10
48.4269
 20
30.3160
 30
0.00000
  70
    32
  0
VERTEX
  8
0
  5
85A
 10
48.2960
 20
30.3407
 30
0.00000
  70
    32
  0
VERTEX
  8
0
  5
85B
 10
48.1651
 20
30.3652
 30
0.00000
  70
    32
  0
VERTEX
  8
0
  5
85C
 10
48.0341
 20
30.3895
 30
0.00000
  70
    32
  0
VERTEX
  8
0
  5
85D
 10
47.9032
 20
30.4138
 30
0.00000
  70
    32
  0
VERTEX
  8
0
  5
85E
 10
47.7722
 20
30.4379
 30
0.00000
  70
    32
  0
VERTEX
  8
0
  5
85F
 10
47.6412
 20
30.4619
 30
0.00000
  70
    32
  0
VERTEX
  8
0
  5
860
 10
47.5102
 20
30.4858
 30
0.00000
  70
    32
  0
VERTEX
  8
0
  5
861
 10
47.3792
 20
30.5095
 30
0.00000
  70
    32
  0
VERTEX
  8
0
  5
862
 10
47.2481
 20
30.5332
 30
0.00000
  70
    32
  0
VERTEX
  8
0
  5
863
 10
47.1170
 20
30.5567
 30
0.00000
  70
    32
  0
VERTEX
  8
0
  5
864
 10
46.9859
 20
30.5800
 30
0.00000
  70
    32
  0
VERTEX
  8
0
  5
865
 10
46.8548
 20
30.6033
 30
0.00000
  70
    32
  0
VERTEX
  8
0
  5
866
 10
46.7236
 20
30.6264
 30
0.00000
  70
    32
  0
VERTEX
  8
0
  5
867
 10
46.5924
 20
30.6494
 30
0.00000
  70
    32
  0
VERTEX
  8
0
  5
868
 10
46.4612
 20
30.6723
 30
0.00000
  70
    32
  0
VERTEX
  8
0
  5
869
 10
46.3300
 20
30.6950
 30
0.00000
  70
    32
  0
VERTEX
  8
0
  5
86A
 10
46.1988
 20
30.7176
 30
0.00000
  70
    32
  0
VERTEX
  8
0
  5
86B
 10
46.0675
 20
30.7401
 30
0.00000
  70
    32
  0
VERTEX
  8
0
  5
86C
 10
45.9362
 20
30.7625
 30
0.00000
  70
    32
  0
VERTEX
  8
0
  5
86D
 10
45.8049
 20
30.7847
 30
0.00000
  70
    32
  0
VERTEX
  8
0
  5
86E
 10
45.6736
 20
30.8069
 30
0.00000
  70
    32
  0
VERTEX
  8
0
  5
86F
 10
45.5422
 20
30.8288
 30
0.00000
  70
    32
  0
VERTEX
  8
0
  5
870
 10
45.4109
 20
30.8507
 30
0.00000
  70
    32
  0
VERTEX
  8
0
  5
871
 10
45.2795
 20
30.8724
 30
0.00000
  70
    32
  0
VERTEX
  8
0
  5
872
 10
45.1481
 20
30.8941
 30
0.00000
  70
    32
  0
VERTEX
  8
0
  5
873
 10
45.0166
 20
30.9155
 30
0.00000
  70
    32
  0
VERTEX
  8
0
  5
874
 10
44.8852
 20
30.9369
 30
0.00000
  70
    32
  0
VERTEX
  8
0
  5
875
 10
44.7537
 20
30.9581
 30
0.00000
  70
    32
  0
VERTEX
  8
0
  5
876
 10
44.6222
 20
30.9792
 30
0.00000
  70
    32
  0
VERTEX
  8
0
  5
877
 10
44.4906
 20
31.0002
 30
0.00000
  70
    32
  0
VERTEX
  8
0
  5
878
 10
44.3591
 20
31.0211
 30
0.00000
  70
    32
  0
VERTEX
  8
0
  5
879
 10
44.2275
 20
31.0418
 30
0.00000
  70
    32
  0
VERTEX
  8
0
  5
87A
 10
44.0959
 20
31.0624
 30
0.00000
  70
    32
  0
VERTEX
  8
0
  5
87B
 10
43.9643
 20
31.0829
 30
0.00000
  70
    32
  0
VERTEX
  8
0
  5
87C
 10
43.8327
 20
31.1032
 30
0.00000
  70
    32
  0
VERTEX
  8
0
  5
87D
 10
43.7011
 20
31.1234
 30
0.00000
  70
    32
  0
VERTEX
  8
0
  5
87E
 10
43.5694
 20
31.1435
 30
0.00000
  70
    32
  0
VERTEX
  8
0
  5
87F
 10
43.4377
 20
31.1635
 30
0.00000
  70
    32
  0
VERTEX
  8
0
  5
880
 10
43.3060
 20
31.1833
 30
0.00000
  70
    32
  0
VERTEX
  8
0
  5
881
 10
43.1743
 20
31.2030
 30
0.00000
  70
    32
  0
VERTEX
  8
0
  5
882
 10
43.0425
 20
31.2226
 30
0.00000
  70
    32
  0
VERTEX
  8
0
  5
883
 10
42.9107
 20
31.2421
 30
0.00000
  70
    32
  0
VERTEX
  8
0
  5
884
 10
42.7789
 20
31.2614
 30
0.00000
  70
    32
  0
VERTEX
  8
0
  5
885
 10
42.6471
 20
31.2806
 30
0.00000
  70
    32
  0
VERTEX
  8
0
  5
886
 10
42.5153
 20
31.2997
 30
0.00000
  70
    32
  0
VERTEX
  8
0
  5
887
 10
42.3835
 20
31.3187
 30
0.00000
  70
    32
  0
VERTEX
  8
0
  5
888
 10
42.2516
 20
31.3375
 30
0.00000
  70
    32
  0
VERTEX
  8
0
  5
889
 10
42.1197
 20
31.3562
 30
0.00000
  70
    32
  0
VERTEX
  8
0
  5
88A
 10
41.9878
 20
31.3748
 30
0.00000
  70
    32
  0
VERTEX
  8
0
  5
88B
 10
41.8559
 20
31.3932
 30
0.00000
  70
    32
  0
VERTEX
  8
0
  5
88C
 10
41.7239
 20
31.4116
 30
0.00000
  70
    32
  0
VERTEX
  8
0
  5
88D
 10
41.5920
 20
31.4298
 30
0.00000
  70
    32
  0
VERTEX
  8
0
  5
88E
 10
41.4600
 20
31.4478
 30
0.00000
  70
    32
  0
VERTEX
  8
0
  5
88F
 10
41.3280
 20
31.4658
 30
0.00000
  70
    32
  0
VERTEX
  8
0
  5
890
 10
41.1960
 20
31.4836
 30
0.00000
  70
    32
  0
VERTEX
  8
0
  5
891
 10
41.0640
 20
31.5013
 30
0.00000
  70
    32
  0
VERTEX
  8
0
  5
892
 10
40.9319
 20
31.5189
 30
0.00000
  70
    32
  0
VERTEX
  8
0
  5
893
 10
40.7998
 20
31.5364
 30
0.00000
  70
    32
  0
VERTEX
  8
0
  5
894
 10
40.6677
 20
31.5537
 30
0.00000
  70
    32
  0
VERTEX
  8
0
  5
895
 10
40.5356
 20
31.5709
 30
0.00000
  70
    32
  0
VERTEX
  8
0
  5
896
 10
40.4035
 20
31.5880
 30
0.00000
  70
    32
  0
VERTEX
  8
0
  5
897
 10
40.2714
 20
31.6049
 30
0.00000
  70
    32
  0
VERTEX
  8
0
  5
898
 10
40.1392
 20
31.6218
 30
0.00000
  70
    32
  0
VERTEX
  8
0
  5
899
 10
40.0071
 20
31.6385
 30
0.00000
  70
    32
  0
VERTEX
  8
0
  5
89A
 10
39.8749
 20
31.6550
 30
0.00000
  70
    32
  0
VERTEX
  8
0
  5
89B
 10
39.7427
 20
31.6715
 30
0.00000
  70
    32
  0
VERTEX
  8
0
  5
89C
 10
39.6105
 20
31.6878
 30
0.00000
  70
    32
  0
VERTEX
  8
0
  5
89D
 10
39.4782
 20
31.7040
 30
0.00000
  70
    32
  0
VERTEX
  8
0
  5
89E
 10
39.3460
 20
31.7201
 30
0.00000
  70
    32
  0
VERTEX
  8
0
  5
89F
 10
39.2137
 20
31.7361
 30
0.00000
  70
    32
  0
VERTEX
  8
0
  5
8A0
 10
39.0814
 20
31.7519
 30
0.00000
  70
    32
  0
VERTEX
  8
0
  5
8A1
 10
38.9491
 20
31.7676
 30
0.00000
  70
    32
  0
VERTEX
  8
0
  5
8A2
 10
38.8168
 20
31.7832
 30
0.00000
  70
    32
  0
VERTEX
  8
0
  5
8A3
 10
38.6845
 20
31.7987
 30
0.00000
  70
    32
  0
VERTEX
  8
0
  5
8A4
 10
38.5521
 20
31.8140
 30
0.00000
  70
    32
  0
VERTEX
  8
0
  5
8A5
 10
38.4198
 20
31.8292
 30
0.00000
  70
    32
  0
VERTEX
  8
0
  5
8A6
 10
38.2874
 20
31.8443
 30
0.00000
  70
    32
  0
VERTEX
  8
0
  5
8A7
 10
38.1550
 20
31.8593
 30
0.00000
  70
    32
  0
VERTEX
  8
0
  5
8A8
 10
38.0817
 20
32.8469
 30
0.00000
  70
    32
  0
VERTEX
  8
0
  5
8A9
 10
38.0102
 20
33.8640
 30
0.00000
  70
    32
  0
VERTEX
  8
0
  5
8AA
 10
37.9386
 20
34.8811
 30
0.00000
  70
    32
  0
VERTEX
  8
0
  5
8AB
 10
37.8671
 20
35.8983
 30
0.00000
  70
    32
  0
VERTEX
  8
0
  5
8AC
 10
37.7956
 20
36.9154
 30
0.00000
  70
    32
  0
VERTEX
  8
0
  5
8AD
 10
37.7241
 20
37.9325
 30
0.00000
  70
    32
  0
VERTEX
  8
0
  5
8AE
 10
37.6525
 20
38.9497
 30
0.00000
  70
    32
  0
VERTEX
  8
0
  5
8AF
 10
37.6115
 20
39.5596
 30
0.00000
  70
    32
  0
VERTEX
  8
0
  5
8B0
 10
37.6192
 20
39.6926
 30
0.00000
  70
    32
  0
VERTEX
  8
0
  5
8B1
 10
37.7273
 20
40.2677
 30
0.00000
  70
    32
  0
VERTEX
  8
0
  5
8B2
 10
37.9194
 20
41.2691
 30
0.00000
  70
    32
  0
VERTEX
  8
0
  5
8B3
 10
38.1115
 20
42.2705
 30
0.00000
  70
    32
  0
VERTEX
  8
0
  5
8B4
 10
38.3036
 20
43.2719
 30
0.00000
  70
    32
  0
VERTEX
  8
0
  5
8B5
 10
38.4956
 20
44.2732
 30
0.00000
  70
    32
  0
VERTEX
  8
0
  5
8B6
 10
38.6877
 20
45.2746
 30
0.00000
  70
    32
  0
VERTEX
  8
0
  5
8B7
 10
38.8798
 20
46.2760
 30
0.00000
  70
    32
  0
VERTEX
  8
0
  5
8B8
 10
39.0719
 20
47.2774
 30
0.00000
  70
    32
  0
SEQEND
  8
0
  5
8B9
  0
CIRCLE
  5
1FD
  8
DRILLING
 10
86.0109686296921012
 20
33.2945705239326131
 30
0.0
 40
0.3224999999999999
  0
CIRCLE
  5
1FE
  8
DRILLING
 10
89.6159813899769091
 20
38.0908068607057828
 30
0.0
 40
0.3224999999999999
  0
INSERT
  5
1FF
  8
0
  2
*U5
 10
0.0
 20
0.0
 30
0.0
  0
CIRCLE
  5
200
  8
DRILLING
 10
41.6083598856432531
 20
39.7053374000771271
 30
0.0
 40
0.3224999999999998
  0
CIRCLE
  5
201
  8
DRILLING
 10
47.6021213072210472
 20
39.9788771982928495
 30
0.0
 40
0.3224999999999998
  0
ENDSEC
  0
EOF
