  0
SECTION
  2
HEADER
  9
$ACADVER
  1
AC1009
  9
$INSBASE
 10
0.0
 20
0.0
 30
0.0
  9
$EXTMIN
 10
3.8584124661974211
 20
1.6091939102546391
 30
0.0
  9
$EXTMAX
 10
97.8584124661974215
 20
47.609193910254632
 30
0.0
  9
$LIMMIN
 10
0.0
 20
0.0
  9
$LIMMAX
 10
12.0
 20
9.0
  9
$ORTHOMODE
 70
     0
  9
$REGENMODE
 70
     1
  9
$FILLMODE
 70
     1
  9
$QTEXTMODE
 70
     0
  9
$MIRRTEXT
 70
     0
  9
$DRAGMODE
 70
     2
  9
$LTSCALE
 40
1.0
  9
$OSMODE
 70
   303
  9
$ATTMODE
 70
     1
  9
$TEXTSIZE
 40
0.2
  9
$TRACEWID
 40
0.05
  9
$TEXTSTYLE
  7
STANDARD
  9
$CLAYER
  8
0
  9
$CELTYPE
  6
BYLAYER
  9
$CECOLOR
 62
   256
  9
$DIMSCALE
 40
1.0
  9
$DIMASZ
 40
0.18
  9
$DIMEXO
 40
0.0625
  9
$DIMDLI
 40
0.38
  9
$DIMRND
 40
0.0
  9
$DIMDLE
 40
0.0
  9
$DIMEXE
 40
0.18
  9
$DIMTP
 40
0.0
  9
$DIMTM
 40
0.0
  9
$DIMTXT
 40
0.18
  9
$DIMCEN
 40
0.09
  9
$DIMTSZ
 40
0.0
  9
$DIMTOL
 70
     0
  9
$DIMLIM
 70
     0
  9
$DIMTIH
 70
     1
  9
$DIMTOH
 70
     1
  9
$DIMSE1
 70
     0
  9
$DIMSE2
 70
     0
  9
$DIMTAD
 70
     0
  9
$DIMZIN
 70
     0
  9
$DIMBLK
  1

  9
$DIMASO
 70
     1
  9
$DIMSHO
 70
     1
  9
$DIMPOST
  1

  9
$DIMAPOST
  1

  9
$DIMALT
 70
     0
  9
$DIMALTD
 70
     2
  9
$DIMALTF
 40
25.3999999999999986
  9
$DIMLFAC
 40
1.0
  9
$DIMTOFL
 70
     0
  9
$DIMTVP
 40
0.0
  9
$DIMTIX
 70
     0
  9
$DIMSOXD
 70
     0
  9
$DIMSAH
 70
     0
  9
$DIMBLK1
  1

  9
$DIMBLK2
  1

  9
$DIMSTYLE
  2
STANDARD
  9
$DIMCLRD
 70
     0
  9
$DIMCLRE
 70
     0
  9
$DIMCLRT
 70
     0
  9
$DIMTFAC
 40
1.0
  9
$DIMGAP
 40
0.09
  9
$LUNITS
 70
     2
  9
$LUPREC
 70
     4
  9
$SKETCHINC
 40
0.1
  9
$FILLETRAD
 40
0.0
  9
$AUNITS
 70
     0
  9
$AUPREC
 70
     0
  9
$MENU
  1
.
  9
$ELEVATION
 40
0.0
  9
$PELEVATION
 40
0.0
  9
$THICKNESS
 40
0.0
  9
$LIMCHECK
 70
     0
  9
$BLIPMODE
 70
     0
  9
$CHAMFERA
 40
0.0
  9
$CHAMFERB
 40
0.0
  9
$SKPOLY
 70
     0
  9
$TDCREATE
 40
2457228.6046063657850027
  9
$TDUPDATE
 40
2457228.6048462851904333
  9
$TDINDWG
 40
0.0002451157
  9
$TDUSRTIMER
 40
0.0002449074
  9
$USRTIMER
 70
     1
  9
$ANGBASE
 50
0.0
  9
$ANGDIR
 70
     0
  9
$PDMODE
 70
     0
  9
$PDSIZE
 40
0.0
  9
$PLINEWID
 40
0.0
  9
$COORDS
 70
     1
  9
$SPLFRAME
 70
     0
  9
$SPLINETYPE
 70
     6
  9
$SPLINESEGS
 70
     8
  9
$ATTDIA
 70
     1
  9
$ATTREQ
 70
     1
  9
$HANDLING
 70
     1
  9
$HANDSEED
  5
C84
  9
$SURFTAB1
 70
     6
  9
$SURFTAB2
 70
     6
  9
$SURFTYPE
 70
     6
  9
$SURFU
 70
     6
  9
$SURFV
 70
     6
  9
$UCSNAME
  2

  9
$UCSORG
 10
0.0
 20
0.0
 30
0.0
  9
$UCSXDIR
 10
1.0
 20
0.0
 30
0.0
  9
$UCSYDIR
 10
0.0
 20
1.0
 30
0.0
  9
$PUCSNAME
  2

  9
$PUCSORG
 10
0.0
 20
0.0
 30
0.0
  9
$PUCSXDIR
 10
1.0
 20
0.0
 30
0.0
  9
$PUCSYDIR
 10
0.0
 20
1.0
 30
0.0
  9
$USERI1
 70
     0
  9
$USERI2
 70
     0
  9
$USERI3
 70
     0
  9
$USERI4
 70
     0
  9
$USERI5
 70
     0
  9
$USERR1
 40
0.0
  9
$USERR2
 40
0.0
  9
$USERR3
 40
0.0
  9
$USERR4
 40
0.0
  9
$USERR5
 40
0.0
  9
$WORLDVIEW
 70
     1
  9
$SHADEDGE
 70
     3
  9
$SHADEDIF
 70
    70
  9
$TILEMODE
 70
     1
  9
$MAXACTVP
 70
    64
  9
$PLIMCHECK
 70
     0
  9
$PEXTMIN
 10
0.0
 20
0.0
 30
0.0
  9
$PEXTMAX
 10
0.0
 20
0.0
 30
0.0
  9
$PLIMMIN
 10
0.0
 20
0.0
  9
$PLIMMAX
 10
12.0
 20
9.0
  9
$UNITMODE
 70
     0
  9
$VISRETAIN
 70
     1
  9
$PLINEGEN
 70
     0
  9
$PSLTSCALE
 70
     1
  0
ENDSEC
  0
SECTION
  2
TABLES
  0
TABLE
  2
VPORT
 70
     1
  0
VPORT
  2
*ACTIVE
 70
     0
 10
0.0
 20
0.0
 11
1.0
 21
1.0
 12
24.8761732016476209
 22
14.3059991207275292
 13
0.0
 23
0.0
 14
0.5
 24
0.5
 15
0.5
 25
0.5
 16
0.0
 26
0.0
 36
1.0
 17
0.0
 27
0.0
 37
0.0
 40
34.2453299229497219
 41
1.6803278688524581
 42
50.0
 43
0.0
 44
0.0
 50
0.0
 51
0.0
 71
     0
 72
  1000
 73
     1
 74
     3
 75
     0
 76
     1
 77
     0
 78
     0
  0
ENDTAB
  0
TABLE
  2
LTYPE
 70
     1
  0
LTYPE
  2
CONTINUOUS
 70
     0
  3
Solid line
 72
    65
 73
     0
 40
0.0
  0
ENDTAB
  0
TABLE
  2
LAYER
 70
     4
  0
LAYER
  2
0
 70
     0
 62
     7
  6
CONTINUOUS
  0
LAYER
  2
DRILLING
 70
     0
 62
     3
  6
CONTINUOUS
  0
LAYER
  2
CUT_SHEET
 70
     0
 62
     1
  6
CONTINUOUS
  0
LAYER
  2
ANNOTATION
 70
     0
 62
     7
  6
CONTINUOUS
  0
ENDTAB
  0
TABLE
  2
STYLE
 70
     3
  0
STYLE
  2
STANDARD
 70
     0
 40
0.0
 41
1.0
 50
0.0
 71
     0
 42
0.2
  3
txt
  4

  0
STYLE
  2
ANNOTATIVE
 70
     0
 40
0.0
 41
1.0
 50
0.0
 71
     0
 42
0.2
  3
txt
  4

  0
STYLE
  2
TW_CEN_MT
 70
     0
 40
0.0
 41
1.0
 50
0.0
 71
     0
 42
0.0
  3
txt
  4

  0
ENDTAB
  0
TABLE
  2
VIEW
 70
     1
  0
ENDTAB
  0
TABLE
  2
UCS
 70
     0
  0
ENDTAB
  0
TABLE
  2
APPID
 70
     9
  0
APPID
  2
ACAD
 70
     0
  0
APPID
  2
ACADANNOPO
 70
     0
  0
APPID
  2
ACADANNOTATIVE
 70
     0
  0
APPID
  2
ACAD_DSTYLE_DIMJAG
 70
     0
  0
APPID
  2
ACAD_DSTYLE_DIMTALN
 70
     0
  0
APPID
  2
ACAD_MLEADERVER
 70
     0
  0
APPID
  2
ACAD_NAV_VCDISPLAY
 70
     0
  0
APPID
  2
ACAECLAYERSTANDARD
 70
     0
  0
APPID
  2
ACCMTRANSPARENCY
 70
     0
  0
ENDTAB
  0
TABLE
  2
DIMSTYLE
 70
     2
  0
DIMSTYLE
  2
STANDARD
 70
     0
  3

  4

  5

  6

  7

 40
1.0
 41
0.18
 42
0.0625
 43
0.38
 44
0.18
 45
0.0
 46
0.0
 47
0.0
 48
0.0
140
0.18
141
0.09
142
0.0
143
25.3999999999999986
144
1.0
145
0.0
146
1.0
147
0.09
 71
     0
 72
     0
 73
     1
 74
     1
 75
     0
 76
     0
 77
     0
 78
     0
170
     0
171
     2
172
     0
173
     0
174
     0
175
     0
176
     0
177
     0
178
     0
  0
DIMSTYLE
  2
ANNOTATIVE
 70
     0
  3

  4

  5

  6

  7

 40
0.0
 41
0.18
 42
0.0625
 43
0.38
 44
0.18
 45
0.0
 46
0.0
 47
0.0
 48
0.0
140
0.18
141
0.09
142
0.0
143
25.3999999999999986
144
1.0
145
0.0
146
1.0
147
0.09
 71
     0
 72
     0
 73
     1
 74
     1
 75
     0
 76
     0
 77
     0
 78
     0
170
     0
171
     2
172
     0
173
     0
174
     0
175
     0
176
     0
177
     0
178
     0
  0
ENDTAB
  0
ENDSEC
  0
SECTION
  2
BLOCKS
  0
BLOCK
  8
0
  2
$MODEL_SPACE
 70
     0
 10
0.0
 20
0.0
 30
0.0
  3
$MODEL_SPACE
  1

  0
ENDBLK
  5
21
  8
0
  0
BLOCK
 67
     1
  8
0
  2
$PAPER_SPACE
 70
     0
 10
0.0
 20
0.0
 30
0.0
  3
$PAPER_SPACE
  1

  0
ENDBLK
  5
5B
 67
     1
  8
0
  0
BLOCK
  8
0
  2
*U2
 70
     1
 10
0.0
 20
0.0
 30
0.0
  3
*U2
  1

  0
TEXT
  5
25D
  8
ANNOTATION
 62
     7
 10
54.2094060975978209
 20
31.6139468402884596
 30
0.0
 40
2.3703599999999989
  1
G.9
 50
262.0878727100384822
  7
TW_CEN_MT
  0
ENDBLK
  5
25F
  8
0
  0
BLOCK
  8
0
  2
*U3
 70
     1
 10
0.0
 20
0.0
 30
0.0
  3
*U3
  1

  0
TEXT
  5
266
  8
ANNOTATION
 62
     7
 10
63.4661598479701823
 20
13.2652577892399695
 30
0.0
 40
2.3703599999999989
  1
G.10
 50
78.794852686731744
  7
TW_CEN_MT
  0
ENDBLK
  5
268
  8
0
  0
BLOCK
  8
0
  2
*U4
 70
     1
 10
0.0
 20
0.0
 30
0.0
  3
*U4
  1

  0
TEXT
  5
26A
  8
ANNOTATION
 62
     7
 10
23.1890877438768293
 20
15.7517871454015204
 30
0.0
 40
2.3703599999999989
  1
G.10
 50
78.794852686731744
  7
TW_CEN_MT
  0
ENDBLK
  5
26C
  8
0
  0
BLOCK
  8
0
  2
*U5
 70
     1
 10
0.0
 20
0.0
 30
0.0
  3
*U5
  1

  0
TEXT
  5
26E
  8
ANNOTATION
 62
     7
 10
58.0678187984200918
 20
33.2231393862371576
 30
0.0
 40
2.3703599999999989
  1
G.9
 50
262.0878727100384822
  7
TW_CEN_MT
  0
ENDBLK
  5
270
  8
0
  0
BLOCK
  8
0
  2
*U6
 70
     1
 10
0.0
 20
0.0
 30
0.0
  3
*U6
  1

  0
TEXT
  5
277
  8
ANNOTATION
 62
     7
 10
67.324572548792446
 20
14.8744503351886603
 30
0.0
 40
2.3703599999999989
  1
G.10
 50
78.794852686731744
  7
TW_CEN_MT
  0
ENDBLK
  5
279
  8
0
  0
BLOCK
  8
0
  2
*U7
 70
     1
 10
0.0
 20
0.0
 30
0.0
  3
*U7
  1

  0
TEXT
  5
27B
  8
ANNOTATION
 62
     7
 10
27.0475004446991001
 20
17.3609796913502201
 30
0.0
 40
2.3703599999999989
  1
G.10
 50
78.794852686731744
  7
TW_CEN_MT
  0
ENDBLK
  5
27D
  8
0
  0
ENDSEC
  0
SECTION
  2
ENTITIES
  0
POLYLINE
  8
0
  5
27E
  66
     1
 10
0.00000
 20
0.00000
 30
0.00000
  70
     8
  0
VERTEX
  8
0
  5
27F
 10
79.1847
 20
43.5737
 30
0.00000
  70
    32
  0
VERTEX
  8
0
  5
280
 10
79.0879
 20
43.4643
 30
0.00000
  70
    32
  0
VERTEX
  8
0
  5
281
 10
78.9912
 20
43.3549
 30
0.00000
  70
    32
  0
VERTEX
  8
0
  5
282
 10
78.8945
 20
43.2455
 30
0.00000
  70
    32
  0
VERTEX
  8
0
  5
283
 10
78.7977
 20
43.1360
 30
0.00000
  70
    32
  0
VERTEX
  8
0
  5
284
 10
78.7010
 20
43.0266
 30
0.00000
  70
    32
  0
VERTEX
  8
0
  5
285
 10
78.6042
 20
42.9172
 30
0.00000
  70
    32
  0
VERTEX
  8
0
  5
286
 10
78.5075
 20
42.8078
 30
0.00000
  70
    32
  0
VERTEX
  8
0
  5
287
 10
78.4107
 20
42.6984
 30
0.00000
  70
    32
  0
VERTEX
  8
0
  5
288
 10
78.3140
 20
42.5890
 30
0.00000
  70
    32
  0
VERTEX
  8
0
  5
289
 10
78.2172
 20
42.4796
 30
0.00000
  70
    32
  0
VERTEX
  8
0
  5
28A
 10
78.1204
 20
42.3703
 30
0.00000
  70
    32
  0
VERTEX
  8
0
  5
28B
 10
78.0236
 20
42.2609
 30
0.00000
  70
    32
  0
VERTEX
  8
0
  5
28C
 10
77.9269
 20
42.1515
 30
0.00000
  70
    32
  0
VERTEX
  8
0
  5
28D
 10
77.8301
 20
42.0421
 30
0.00000
  70
    32
  0
VERTEX
  8
0
  5
28E
 10
77.7333
 20
41.9328
 30
0.00000
  70
    32
  0
VERTEX
  8
0
  5
28F
 10
77.6365
 20
41.8234
 30
0.00000
  70
    32
  0
VERTEX
  8
0
  5
290
 10
77.5396
 20
41.7141
 30
0.00000
  70
    32
  0
VERTEX
  8
0
  5
291
 10
77.4428
 20
41.6048
 30
0.00000
  70
    32
  0
VERTEX
  8
0
  5
292
 10
77.3460
 20
41.4954
 30
0.00000
  70
    32
  0
VERTEX
  8
0
  5
293
 10
77.2491
 20
41.3861
 30
0.00000
  70
    32
  0
VERTEX
  8
0
  5
294
 10
77.1522
 20
41.2768
 30
0.00000
  70
    32
  0
VERTEX
  8
0
  5
295
 10
77.0554
 20
41.1676
 30
0.00000
  70
    32
  0
VERTEX
  8
0
  5
296
 10
76.9585
 20
41.0583
 30
0.00000
  70
    32
  0
VERTEX
  8
0
  5
297
 10
76.8616
 20
40.9490
 30
0.00000
  70
    32
  0
VERTEX
  8
0
  5
298
 10
76.7646
 20
40.8398
 30
0.00000
  70
    32
  0
VERTEX
  8
0
  5
299
 10
76.6677
 20
40.7305
 30
0.00000
  70
    32
  0
VERTEX
  8
0
  5
29A
 10
76.5708
 20
40.6213
 30
0.00000
  70
    32
  0
VERTEX
  8
0
  5
29B
 10
76.4738
 20
40.5121
 30
0.00000
  70
    32
  0
VERTEX
  8
0
  5
29C
 10
76.3768
 20
40.4029
 30
0.00000
  70
    32
  0
VERTEX
  8
0
  5
29D
 10
76.2798
 20
40.2938
 30
0.00000
  70
    32
  0
VERTEX
  8
0
  5
29E
 10
76.1828
 20
40.1846
 30
0.00000
  70
    32
  0
VERTEX
  8
0
  5
29F
 10
76.0857
 20
40.0755
 30
0.00000
  70
    32
  0
VERTEX
  8
0
  5
2A0
 10
75.9887
 20
39.9664
 30
0.00000
  70
    32
  0
VERTEX
  8
0
  5
2A1
 10
75.8916
 20
39.8573
 30
0.00000
  70
    32
  0
VERTEX
  8
0
  5
2A2
 10
75.7945
 20
39.7482
 30
0.00000
  70
    32
  0
VERTEX
  8
0
  5
2A3
 10
75.6974
 20
39.6391
 30
0.00000
  70
    32
  0
VERTEX
  8
0
  5
2A4
 10
75.6002
 20
39.5301
 30
0.00000
  70
    32
  0
VERTEX
  8
0
  5
2A5
 10
75.5031
 20
39.4211
 30
0.00000
  70
    32
  0
VERTEX
  8
0
  5
2A6
 10
75.4059
 20
39.3121
 30
0.00000
  70
    32
  0
VERTEX
  8
0
  5
2A7
 10
75.3087
 20
39.2031
 30
0.00000
  70
    32
  0
VERTEX
  8
0
  5
2A8
 10
75.2114
 20
39.0942
 30
0.00000
  70
    32
  0
VERTEX
  8
0
  5
2A9
 10
75.1142
 20
38.9852
 30
0.00000
  70
    32
  0
VERTEX
  8
0
  5
2AA
 10
75.0169
 20
38.8763
 30
0.00000
  70
    32
  0
VERTEX
  8
0
  5
2AB
 10
74.9196
 20
38.7675
 30
0.00000
  70
    32
  0
VERTEX
  8
0
  5
2AC
 10
74.8222
 20
38.6586
 30
0.00000
  70
    32
  0
VERTEX
  8
0
  5
2AD
 10
74.7249
 20
38.5498
 30
0.00000
  70
    32
  0
VERTEX
  8
0
  5
2AE
 10
74.6275
 20
38.4410
 30
0.00000
  70
    32
  0
VERTEX
  8
0
  5
2AF
 10
74.5301
 20
38.3322
 30
0.00000
  70
    32
  0
VERTEX
  8
0
  5
2B0
 10
74.4326
 20
38.2234
 30
0.00000
  70
    32
  0
VERTEX
  8
0
  5
2B1
 10
74.3351
 20
38.1147
 30
0.00000
  70
    32
  0
VERTEX
  8
0
  5
2B2
 10
74.2376
 20
38.0060
 30
0.00000
  70
    32
  0
VERTEX
  8
0
  5
2B3
 10
74.1401
 20
37.8974
 30
0.00000
  70
    32
  0
VERTEX
  8
0
  5
2B4
 10
74.0425
 20
37.7887
 30
0.00000
  70
    32
  0
VERTEX
  8
0
  5
2B5
 10
73.9449
 20
37.6801
 30
0.00000
  70
    32
  0
VERTEX
  8
0
  5
2B6
 10
73.8473
 20
37.5716
 30
0.00000
  70
    32
  0
VERTEX
  8
0
  5
2B7
 10
73.7496
 20
37.4630
 30
0.00000
  70
    32
  0
VERTEX
  8
0
  5
2B8
 10
73.6519
 20
37.3545
 30
0.00000
  70
    32
  0
VERTEX
  8
0
  5
2B9
 10
73.5541
 20
37.2460
 30
0.00000
  70
    32
  0
VERTEX
  8
0
  5
2BA
 10
73.4564
 20
37.1376
 30
0.00000
  70
    32
  0
VERTEX
  8
0
  5
2BB
 10
73.3585
 20
37.0292
 30
0.00000
  70
    32
  0
VERTEX
  8
0
  5
2BC
 10
73.2607
 20
36.9208
 30
0.00000
  70
    32
  0
VERTEX
  8
0
  5
2BD
 10
73.1628
 20
36.8125
 30
0.00000
  70
    32
  0
VERTEX
  8
0
  5
2BE
 10
73.0649
 20
36.7041
 30
0.00000
  70
    32
  0
VERTEX
  8
0
  5
2BF
 10
72.9669
 20
36.5959
 30
0.00000
  70
    32
  0
VERTEX
  8
0
  5
2C0
 10
72.8689
 20
36.4876
 30
0.00000
  70
    32
  0
VERTEX
  8
0
  5
2C1
 10
72.7709
 20
36.3794
 30
0.00000
  70
    32
  0
VERTEX
  8
0
  5
2C2
 10
72.6728
 20
36.2713
 30
0.00000
  70
    32
  0
VERTEX
  8
0
  5
2C3
 10
72.5747
 20
36.1632
 30
0.00000
  70
    32
  0
VERTEX
  8
0
  5
2C4
 10
72.4765
 20
36.0551
 30
0.00000
  70
    32
  0
VERTEX
  8
0
  5
2C5
 10
72.3783
 20
35.9470
 30
0.00000
  70
    32
  0
VERTEX
  8
0
  5
2C6
 10
72.2801
 20
35.8390
 30
0.00000
  70
    32
  0
VERTEX
  8
0
  5
2C7
 10
72.1818
 20
35.7311
 30
0.00000
  70
    32
  0
VERTEX
  8
0
  5
2C8
 10
72.0834
 20
35.6231
 30
0.00000
  70
    32
  0
VERTEX
  8
0
  5
2C9
 10
71.9851
 20
35.5152
 30
0.00000
  70
    32
  0
VERTEX
  8
0
  5
2CA
 10
71.8866
 20
35.4074
 30
0.00000
  70
    32
  0
VERTEX
  8
0
  5
2CB
 10
71.7882
 20
35.2996
 30
0.00000
  70
    32
  0
VERTEX
  8
0
  5
2CC
 10
71.6896
 20
35.1919
 30
0.00000
  70
    32
  0
VERTEX
  8
0
  5
2CD
 10
71.5911
 20
35.0841
 30
0.00000
  70
    32
  0
VERTEX
  8
0
  5
2CE
 10
71.4925
 20
34.9765
 30
0.00000
  70
    32
  0
VERTEX
  8
0
  5
2CF
 10
71.3938
 20
34.8689
 30
0.00000
  70
    32
  0
VERTEX
  8
0
  5
2D0
 10
71.2951
 20
34.7613
 30
0.00000
  70
    32
  0
VERTEX
  8
0
  5
2D1
 10
71.1964
 20
34.6537
 30
0.00000
  70
    32
  0
VERTEX
  8
0
  5
2D2
 10
71.0975
 20
34.5463
 30
0.00000
  70
    32
  0
VERTEX
  8
0
  5
2D3
 10
70.9987
 20
34.4388
 30
0.00000
  70
    32
  0
VERTEX
  8
0
  5
2D4
 10
70.8998
 20
34.3314
 30
0.00000
  70
    32
  0
VERTEX
  8
0
  5
2D5
 10
70.8008
 20
34.2241
 30
0.00000
  70
    32
  0
VERTEX
  8
0
  5
2D6
 10
70.7018
 20
34.1168
 30
0.00000
  70
    32
  0
VERTEX
  8
0
  5
2D7
 10
70.6028
 20
34.0096
 30
0.00000
  70
    32
  0
VERTEX
  8
0
  5
2D8
 10
70.5036
 20
33.9024
 30
0.00000
  70
    32
  0
VERTEX
  8
0
  5
2D9
 10
70.4045
 20
33.7952
 30
0.00000
  70
    32
  0
VERTEX
  8
0
  5
2DA
 10
70.3052
 20
33.6881
 30
0.00000
  70
    32
  0
VERTEX
  8
0
  5
2DB
 10
70.2060
 20
33.5811
 30
0.00000
  70
    32
  0
VERTEX
  8
0
  5
2DC
 10
70.1066
 20
33.4741
 30
0.00000
  70
    32
  0
VERTEX
  8
0
  5
2DD
 10
70.0072
 20
33.3672
 30
0.00000
  70
    32
  0
VERTEX
  8
0
  5
2DE
 10
69.9078
 20
33.2603
 30
0.00000
  70
    32
  0
VERTEX
  8
0
  5
2DF
 10
69.8083
 20
33.1535
 30
0.00000
  70
    32
  0
VERTEX
  8
0
  5
2E0
 10
69.7087
 20
33.0467
 30
0.00000
  70
    32
  0
VERTEX
  8
0
  5
2E1
 10
69.6091
 20
32.9400
 30
0.00000
  70
    32
  0
VERTEX
  8
0
  5
2E2
 10
69.5094
 20
32.8333
 30
0.00000
  70
    32
  0
VERTEX
  8
0
  5
2E3
 10
69.4097
 20
32.7267
 30
0.00000
  70
    32
  0
VERTEX
  8
0
  5
2E4
 10
69.3099
 20
32.6201
 30
0.00000
  70
    32
  0
VERTEX
  8
0
  5
2E5
 10
69.2100
 20
32.5137
 30
0.00000
  70
    32
  0
VERTEX
  8
0
  5
2E6
 10
69.1101
 20
32.4072
 30
0.00000
  70
    32
  0
VERTEX
  8
0
  5
2E7
 10
69.0101
 20
32.3008
 30
0.00000
  70
    32
  0
VERTEX
  8
0
  5
2E8
 10
68.9100
 20
32.1945
 30
0.00000
  70
    32
  0
VERTEX
  8
0
  5
2E9
 10
68.8099
 20
32.0883
 30
0.00000
  70
    32
  0
VERTEX
  8
0
  5
2EA
 10
68.7097
 20
31.9821
 30
0.00000
  70
    32
  0
VERTEX
  8
0
  5
2EB
 10
68.6095
 20
31.8759
 30
0.00000
  70
    32
  0
VERTEX
  8
0
  5
2EC
 10
68.5092
 20
31.7699
 30
0.00000
  70
    32
  0
VERTEX
  8
0
  5
2ED
 10
68.4088
 20
31.6638
 30
0.00000
  70
    32
  0
VERTEX
  8
0
  5
2EE
 10
68.3083
 20
31.5579
 30
0.00000
  70
    32
  0
VERTEX
  8
0
  5
2EF
 10
68.2078
 20
31.4520
 30
0.00000
  70
    32
  0
VERTEX
  8
0
  5
2F0
 10
68.1072
 20
31.3462
 30
0.00000
  70
    32
  0
VERTEX
  8
0
  5
2F1
 10
68.0066
 20
31.2404
 30
0.00000
  70
    32
  0
VERTEX
  8
0
  5
2F2
 10
67.9059
 20
31.1347
 30
0.00000
  70
    32
  0
VERTEX
  8
0
  5
2F3
 10
67.8051
 20
31.0291
 30
0.00000
  70
    32
  0
VERTEX
  8
0
  5
2F4
 10
67.7042
 20
30.9235
 30
0.00000
  70
    32
  0
VERTEX
  8
0
  5
2F5
 10
67.6033
 20
30.8180
 30
0.00000
  70
    32
  0
VERTEX
  8
0
  5
2F6
 10
67.5023
 20
30.7126
 30
0.00000
  70
    32
  0
VERTEX
  8
0
  5
2F7
 10
67.4013
 20
30.6072
 30
0.00000
  70
    32
  0
VERTEX
  8
0
  5
2F8
 10
67.3002
 20
30.5019
 30
0.00000
  70
    32
  0
VERTEX
  8
0
  5
2F9
 10
67.1990
 20
30.3966
 30
0.00000
  70
    32
  0
VERTEX
  8
0
  5
2FA
 10
67.0977
 20
30.2914
 30
0.00000
  70
    32
  0
VERTEX
  8
0
  5
2FB
 10
66.9964
 20
30.1863
 30
0.00000
  70
    32
  0
VERTEX
  8
0
  5
2FC
 10
66.8950
 20
30.0812
 30
0.00000
  70
    32
  0
VERTEX
  8
0
  5
2FD
 10
66.7936
 20
29.9762
 30
0.00000
  70
    32
  0
VERTEX
  8
0
  5
2FE
 10
66.6921
 20
29.8713
 30
0.00000
  70
    32
  0
VERTEX
  8
0
  5
2FF
 10
66.5905
 20
29.7664
 30
0.00000
  70
    32
  0
VERTEX
  8
0
  5
300
 10
66.4888
 20
29.6616
 30
0.00000
  70
    32
  0
VERTEX
  8
0
  5
301
 10
66.3871
 20
29.5568
 30
0.00000
  70
    32
  0
VERTEX
  8
0
  5
302
 10
66.2854
 20
29.4521
 30
0.00000
  70
    32
  0
VERTEX
  8
0
  5
303
 10
66.1835
 20
29.3475
 30
0.00000
  70
    32
  0
VERTEX
  8
0
  5
304
 10
66.0816
 20
29.2429
 30
0.00000
  70
    32
  0
VERTEX
  8
0
  5
305
 10
65.9797
 20
29.1384
 30
0.00000
  70
    32
  0
VERTEX
  8
0
  5
306
 10
65.8776
 20
29.0339
 30
0.00000
  70
    32
  0
VERTEX
  8
0
  5
307
 10
65.7755
 20
28.9295
 30
0.00000
  70
    32
  0
VERTEX
  8
0
  5
308
 10
65.6734
 20
28.8252
 30
0.00000
  70
    32
  0
VERTEX
  8
0
  5
309
 10
65.5711
 20
28.7209
 30
0.00000
  70
    32
  0
VERTEX
  8
0
  5
30A
 10
65.4689
 20
28.6167
 30
0.00000
  70
    32
  0
VERTEX
  8
0
  5
30B
 10
65.3665
 20
28.5126
 30
0.00000
  70
    32
  0
VERTEX
  8
0
  5
30C
 10
65.2641
 20
28.4085
 30
0.00000
  70
    32
  0
VERTEX
  8
0
  5
30D
 10
65.1616
 20
28.3045
 30
0.00000
  70
    32
  0
VERTEX
  8
0
  5
30E
 10
65.0591
 20
28.2005
 30
0.00000
  70
    32
  0
VERTEX
  8
0
  5
30F
 10
64.9565
 20
28.0966
 30
0.00000
  70
    32
  0
VERTEX
  8
0
  5
310
 10
64.8538
 20
27.9928
 30
0.00000
  70
    32
  0
VERTEX
  8
0
  5
311
 10
64.7511
 20
27.8890
 30
0.00000
  70
    32
  0
VERTEX
  8
0
  5
312
 10
64.6483
 20
27.7853
 30
0.00000
  70
    32
  0
VERTEX
  8
0
  5
313
 10
64.5454
 20
27.6816
 30
0.00000
  70
    32
  0
VERTEX
  8
0
  5
314
 10
64.4425
 20
27.5781
 30
0.00000
  70
    32
  0
VERTEX
  8
0
  5
315
 10
64.3395
 20
27.4745
 30
0.00000
  70
    32
  0
VERTEX
  8
0
  5
316
 10
64.2365
 20
27.3710
 30
0.00000
  70
    32
  0
VERTEX
  8
0
  5
317
 10
64.1334
 20
27.2676
 30
0.00000
  70
    32
  0
VERTEX
  8
0
  5
318
 10
64.0302
 20
27.1643
 30
0.00000
  70
    32
  0
VERTEX
  8
0
  5
319
 10
63.9270
 20
27.0610
 30
0.00000
  70
    32
  0
VERTEX
  8
0
  5
31A
 10
63.8237
 20
26.9577
 30
0.00000
  70
    32
  0
VERTEX
  8
0
  5
31B
 10
63.7204
 20
26.8546
 30
0.00000
  70
    32
  0
VERTEX
  8
0
  5
31C
 10
63.6170
 20
26.7515
 30
0.00000
  70
    32
  0
VERTEX
  8
0
  5
31D
 10
63.5135
 20
26.6484
 30
0.00000
  70
    32
  0
VERTEX
  8
0
  5
31E
 10
63.4100
 20
26.5454
 30
0.00000
  70
    32
  0
VERTEX
  8
0
  5
31F
 10
63.3064
 20
26.4425
 30
0.00000
  70
    32
  0
VERTEX
  8
0
  5
320
 10
63.2028
 20
26.3396
 30
0.00000
  70
    32
  0
VERTEX
  8
0
  5
321
 10
63.0991
 20
26.2368
 30
0.00000
  70
    32
  0
VERTEX
  8
0
  5
322
 10
62.9953
 20
26.1340
 30
0.00000
  70
    32
  0
VERTEX
  8
0
  5
323
 10
62.8915
 20
26.0313
 30
0.00000
  70
    32
  0
VERTEX
  8
0
  5
324
 10
62.7876
 20
25.9287
 30
0.00000
  70
    32
  0
VERTEX
  8
0
  5
325
 10
62.6836
 20
25.8261
 30
0.00000
  70
    32
  0
VERTEX
  8
0
  5
326
 10
62.5796
 20
25.7236
 30
0.00000
  70
    32
  0
VERTEX
  8
0
  5
327
 10
62.4756
 20
25.6211
 30
0.00000
  70
    32
  0
VERTEX
  8
0
  5
328
 10
62.3714
 20
25.5187
 30
0.00000
  70
    32
  0
VERTEX
  8
0
  5
329
 10
62.2673
 20
25.4164
 30
0.00000
  70
    32
  0
VERTEX
  8
0
  5
32A
 10
62.1630
 20
25.3141
 30
0.00000
  70
    32
  0
VERTEX
  8
0
  5
32B
 10
62.0587
 20
25.2119
 30
0.00000
  70
    32
  0
VERTEX
  8
0
  5
32C
 10
61.9544
 20
25.1097
 30
0.00000
  70
    32
  0
VERTEX
  8
0
  5
32D
 10
61.8500
 20
25.0076
 30
0.00000
  70
    32
  0
VERTEX
  8
0
  5
32E
 10
61.7455
 20
24.9056
 30
0.00000
  70
    32
  0
VERTEX
  8
0
  5
32F
 10
61.6410
 20
24.8036
 30
0.00000
  70
    32
  0
VERTEX
  8
0
  5
330
 10
61.5364
 20
24.7016
 30
0.00000
  70
    32
  0
VERTEX
  8
0
  5
331
 10
61.4317
 20
24.5998
 30
0.00000
  70
    32
  0
VERTEX
  8
0
  5
332
 10
61.3270
 20
24.4980
 30
0.00000
  70
    32
  0
VERTEX
  8
0
  5
333
 10
61.2223
 20
24.3962
 30
0.00000
  70
    32
  0
VERTEX
  8
0
  5
334
 10
61.1174
 20
24.2945
 30
0.00000
  70
    32
  0
VERTEX
  8
0
  5
335
 10
61.0126
 20
24.1929
 30
0.00000
  70
    32
  0
VERTEX
  8
0
  5
336
 10
60.9076
 20
24.0913
 30
0.00000
  70
    32
  0
VERTEX
  8
0
  5
337
 10
60.8027
 20
23.9897
 30
0.00000
  70
    32
  0
VERTEX
  8
0
  5
338
 10
60.6976
 20
23.8883
 30
0.00000
  70
    32
  0
VERTEX
  8
0
  5
339
 10
60.5925
 20
23.7869
 30
0.00000
  70
    32
  0
VERTEX
  8
0
  5
33A
 10
60.4874
 20
23.6855
 30
0.00000
  70
    32
  0
VERTEX
  8
0
  5
33B
 10
60.3822
 20
23.5842
 30
0.00000
  70
    32
  0
VERTEX
  8
0
  5
33C
 10
60.2769
 20
23.4830
 30
0.00000
  70
    32
  0
VERTEX
  8
0
  5
33D
 10
60.1716
 20
23.3818
 30
0.00000
  70
    32
  0
VERTEX
  8
0
  5
33E
 10
60.0662
 20
23.2807
 30
0.00000
  70
    32
  0
VERTEX
  8
0
  5
33F
 10
59.9608
 20
23.1796
 30
0.00000
  70
    32
  0
VERTEX
  8
0
  5
340
 10
59.8553
 20
23.0786
 30
0.00000
  70
    32
  0
VERTEX
  8
0
  5
341
 10
59.7497
 20
22.9777
 30
0.00000
  70
    32
  0
VERTEX
  8
0
  5
342
 10
59.6441
 20
22.8768
 30
0.00000
  70
    32
  0
VERTEX
  8
0
  5
343
 10
59.5385
 20
22.7759
 30
0.00000
  70
    32
  0
VERTEX
  8
0
  5
344
 10
59.4328
 20
22.6751
 30
0.00000
  70
    32
  0
VERTEX
  8
0
  5
345
 10
59.3270
 20
22.5744
 30
0.00000
  70
    32
  0
VERTEX
  8
0
  5
346
 10
59.2212
 20
22.4737
 30
0.00000
  70
    32
  0
VERTEX
  8
0
  5
347
 10
59.1154
 20
22.3731
 30
0.00000
  70
    32
  0
VERTEX
  8
0
  5
348
 10
59.0094
 20
22.2726
 30
0.00000
  70
    32
  0
VERTEX
  8
0
  5
349
 10
58.9035
 20
22.1721
 30
0.00000
  70
    32
  0
VERTEX
  8
0
  5
34A
 10
58.7974
 20
22.0716
 30
0.00000
  70
    32
  0
VERTEX
  8
0
  5
34B
 10
58.6913
 20
21.9713
 30
0.00000
  70
    32
  0
VERTEX
  8
0
  5
34C
 10
58.5852
 20
21.8709
 30
0.00000
  70
    32
  0
VERTEX
  8
0
  5
34D
 10
58.4790
 20
21.7706
 30
0.00000
  70
    32
  0
VERTEX
  8
0
  5
34E
 10
58.3728
 20
21.6704
 30
0.00000
  70
    32
  0
VERTEX
  8
0
  5
34F
 10
58.2665
 20
21.5703
 30
0.00000
  70
    32
  0
VERTEX
  8
0
  5
350
 10
58.1602
 20
21.4702
 30
0.00000
  70
    32
  0
VERTEX
  8
0
  5
351
 10
58.0538
 20
21.3701
 30
0.00000
  70
    32
  0
VERTEX
  8
0
  5
352
 10
57.9473
 20
21.2701
 30
0.00000
  70
    32
  0
VERTEX
  8
0
  5
353
 10
57.8408
 20
21.1702
 30
0.00000
  70
    32
  0
VERTEX
  8
0
  5
354
 10
57.7343
 20
21.0703
 30
0.00000
  70
    32
  0
VERTEX
  8
0
  5
355
 10
57.6276
 20
20.9705
 30
0.00000
  70
    32
  0
VERTEX
  8
0
  5
356
 10
57.5210
 20
20.8707
 30
0.00000
  70
    32
  0
VERTEX
  8
0
  5
357
 10
57.4143
 20
20.7710
 30
0.00000
  70
    32
  0
VERTEX
  8
0
  5
358
 10
57.3075
 20
20.6713
 30
0.00000
  70
    32
  0
VERTEX
  8
0
  5
359
 10
57.2007
 20
20.5717
 30
0.00000
  70
    32
  0
VERTEX
  8
0
  5
35A
 10
57.0938
 20
20.4722
 30
0.00000
  70
    32
  0
VERTEX
  8
0
  5
35B
 10
56.9869
 20
20.3727
 30
0.00000
  70
    32
  0
VERTEX
  8
0
  5
35C
 10
56.8799
 20
20.2733
 30
0.00000
  70
    32
  0
VERTEX
  8
0
  5
35D
 10
56.7729
 20
20.1739
 30
0.00000
  70
    32
  0
VERTEX
  8
0
  5
35E
 10
56.6658
 20
20.0746
 30
0.00000
  70
    32
  0
VERTEX
  8
0
  5
35F
 10
56.5587
 20
19.9753
 30
0.00000
  70
    32
  0
VERTEX
  8
0
  5
360
 10
56.4515
 20
19.8761
 30
0.00000
  70
    32
  0
VERTEX
  8
0
  5
361
 10
56.3443
 20
19.7770
 30
0.00000
  70
    32
  0
VERTEX
  8
0
  5
362
 10
56.2370
 20
19.6779
 30
0.00000
  70
    32
  0
VERTEX
  8
0
  5
363
 10
56.1296
 20
19.5789
 30
0.00000
  70
    32
  0
VERTEX
  8
0
  5
364
 10
56.0222
 20
19.4799
 30
0.00000
  70
    32
  0
VERTEX
  8
0
  5
365
 10
55.9148
 20
19.3810
 30
0.00000
  70
    32
  0
VERTEX
  8
0
  5
366
 10
55.8073
 20
19.2821
 30
0.00000
  70
    32
  0
VERTEX
  8
0
  5
367
 10
55.6997
 20
19.1833
 30
0.00000
  70
    32
  0
VERTEX
  8
0
  5
368
 10
55.5921
 20
19.0846
 30
0.00000
  70
    32
  0
VERTEX
  8
0
  5
369
 10
55.4845
 20
18.9859
 30
0.00000
  70
    32
  0
VERTEX
  8
0
  5
36A
 10
55.3768
 20
18.8873
 30
0.00000
  70
    32
  0
VERTEX
  8
0
  5
36B
 10
55.2690
 20
18.7887
 30
0.00000
  70
    32
  0
VERTEX
  8
0
  5
36C
 10
55.1612
 20
18.6902
 30
0.00000
  70
    32
  0
VERTEX
  8
0
  5
36D
 10
55.0533
 20
18.5918
 30
0.00000
  70
    32
  0
VERTEX
  8
0
  5
36E
 10
54.9454
 20
18.4934
 30
0.00000
  70
    32
  0
VERTEX
  8
0
  5
36F
 10
54.8374
 20
18.3950
 30
0.00000
  70
    32
  0
VERTEX
  8
0
  5
370
 10
54.7294
 20
18.2968
 30
0.00000
  70
    32
  0
VERTEX
  8
0
  5
371
 10
54.6213
 20
18.1985
 30
0.00000
  70
    32
  0
VERTEX
  8
0
  5
372
 10
54.5131
 20
18.1004
 30
0.00000
  70
    32
  0
VERTEX
  8
0
  5
373
 10
54.4049
 20
18.0023
 30
0.00000
  70
    32
  0
VERTEX
  8
0
  5
374
 10
54.2967
 20
17.9043
 30
0.00000
  70
    32
  0
VERTEX
  8
0
  5
375
 10
54.1884
 20
17.8063
 30
0.00000
  70
    32
  0
VERTEX
  8
0
  5
376
 10
54.0801
 20
17.7084
 30
0.00000
  70
    32
  0
VERTEX
  8
0
  5
377
 10
53.9716
 20
17.6105
 30
0.00000
  70
    32
  0
VERTEX
  8
0
  5
378
 10
53.8632
 20
17.5127
 30
0.00000
  70
    32
  0
VERTEX
  8
0
  5
379
 10
53.7547
 20
17.4150
 30
0.00000
  70
    32
  0
VERTEX
  8
0
  5
37A
 10
53.6461
 20
17.3173
 30
0.00000
  70
    32
  0
VERTEX
  8
0
  5
37B
 10
53.5375
 20
17.2197
 30
0.00000
  70
    32
  0
VERTEX
  8
0
  5
37C
 10
53.4288
 20
17.1221
 30
0.00000
  70
    32
  0
VERTEX
  8
0
  5
37D
 10
53.3201
 20
17.0246
 30
0.00000
  70
    32
  0
VERTEX
  8
0
  5
37E
 10
53.2113
 20
16.9272
 30
0.00000
  70
    32
  0
VERTEX
  8
0
  5
37F
 10
53.1025
 20
16.8298
 30
0.00000
  70
    32
  0
VERTEX
  8
0
  5
380
 10
52.9936
 20
16.7324
 30
0.00000
  70
    32
  0
VERTEX
  8
0
  5
381
 10
52.8847
 20
16.6352
 30
0.00000
  70
    32
  0
VERTEX
  8
0
  5
382
 10
52.7757
 20
16.5380
 30
0.00000
  70
    32
  0
VERTEX
  8
0
  5
383
 10
52.6666
 20
16.4408
 30
0.00000
  70
    32
  0
VERTEX
  8
0
  5
384
 10
52.5575
 20
16.3438
 30
0.00000
  70
    32
  0
VERTEX
  8
0
  5
385
 10
52.4484
 20
16.2468
 30
0.00000
  70
    32
  0
VERTEX
  8
0
  5
386
 10
52.3392
 20
16.1498
 30
0.00000
  70
    32
  0
VERTEX
  8
0
  5
387
 10
52.2299
 20
16.0529
 30
0.00000
  70
    32
  0
VERTEX
  8
0
  5
388
 10
52.1206
 20
15.9561
 30
0.00000
  70
    32
  0
VERTEX
  8
0
  5
389
 10
52.0112
 20
15.8593
 30
0.00000
  70
    32
  0
VERTEX
  8
0
  5
38A
 10
51.9018
 20
15.7626
 30
0.00000
  70
    32
  0
VERTEX
  8
0
  5
38B
 10
51.7923
 20
15.6659
 30
0.00000
  70
    32
  0
VERTEX
  8
0
  5
38C
 10
51.6828
 20
15.5693
 30
0.00000
  70
    32
  0
VERTEX
  8
0
  5
38D
 10
51.5732
 20
15.4728
 30
0.00000
  70
    32
  0
VERTEX
  8
0
  5
38E
 10
51.4636
 20
15.3763
 30
0.00000
  70
    32
  0
VERTEX
  8
0
  5
38F
 10
51.3539
 20
15.2799
 30
0.00000
  70
    32
  0
VERTEX
  8
0
  5
390
 10
51.2441
 20
15.1836
 30
0.00000
  70
    32
  0
VERTEX
  8
0
  5
391
 10
51.1343
 20
15.0873
 30
0.00000
  70
    32
  0
VERTEX
  8
0
  5
392
 10
51.0245
 20
14.9911
 30
0.00000
  70
    32
  0
VERTEX
  8
0
  5
393
 10
50.9145
 20
14.8949
 30
0.00000
  70
    32
  0
VERTEX
  8
0
  5
394
 10
50.8046
 20
14.7988
 30
0.00000
  70
    32
  0
VERTEX
  8
0
  5
395
 10
50.6946
 20
14.7028
 30
0.00000
  70
    32
  0
VERTEX
  8
0
  5
396
 10
50.5845
 20
14.6068
 30
0.00000
  70
    32
  0
VERTEX
  8
0
  5
397
 10
50.4744
 20
14.5109
 30
0.00000
  70
    32
  0
VERTEX
  8
0
  5
398
 10
50.3642
 20
14.4151
 30
0.00000
  70
    32
  0
VERTEX
  8
0
  5
399
 10
50.2540
 20
14.3193
 30
0.00000
  70
    32
  0
VERTEX
  8
0
  5
39A
 10
50.1437
 20
14.2236
 30
0.00000
  70
    32
  0
VERTEX
  8
0
  5
39B
 10
50.0333
 20
14.1279
 30
0.00000
  70
    32
  0
VERTEX
  8
0
  5
39C
 10
49.9229
 20
14.0323
 30
0.00000
  70
    32
  0
VERTEX
  8
0
  5
39D
 10
49.8125
 20
13.9368
 30
0.00000
  70
    32
  0
VERTEX
  8
0
  5
39E
 10
49.7020
 20
13.8413
 30
0.00000
  70
    32
  0
VERTEX
  8
0
  5
39F
 10
49.5914
 20
13.7459
 30
0.00000
  70
    32
  0
VERTEX
  8
0
  5
3A0
 10
49.4808
 20
13.6506
 30
0.00000
  70
    32
  0
VERTEX
  8
0
  5
3A1
 10
49.3701
 20
13.5553
 30
0.00000
  70
    32
  0
VERTEX
  8
0
  5
3A2
 10
49.2594
 20
13.4601
 30
0.00000
  70
    32
  0
VERTEX
  8
0
  5
3A3
 10
49.1486
 20
13.3649
 30
0.00000
  70
    32
  0
VERTEX
  8
0
  5
3A4
 10
49.0378
 20
13.2698
 30
0.00000
  70
    32
  0
VERTEX
  8
0
  5
3A5
 10
48.9269
 20
13.1748
 30
0.00000
  70
    32
  0
VERTEX
  8
0
  5
3A6
 10
48.8160
 20
13.0798
 30
0.00000
  70
    32
  0
VERTEX
  8
0
  5
3A7
 10
48.7050
 20
12.9850
 30
0.00000
  70
    32
  0
VERTEX
  8
0
  5
3A8
 10
48.5939
 20
12.8901
 30
0.00000
  70
    32
  0
VERTEX
  8
0
  5
3A9
 10
48.4828
 20
12.7954
 30
0.00000
  70
    32
  0
VERTEX
  8
0
  5
3AA
 10
48.3716
 20
12.7006
 30
0.00000
  70
    32
  0
VERTEX
  8
0
  5
3AB
 10
48.2604
 20
12.6060
 30
0.00000
  70
    32
  0
VERTEX
  8
0
  5
3AC
 10
48.1492
 20
12.5114
 30
0.00000
  70
    32
  0
VERTEX
  8
0
  5
3AD
 10
48.0378
 20
12.4169
 30
0.00000
  70
    32
  0
VERTEX
  8
0
  5
3AE
 10
47.9265
 20
12.3225
 30
0.00000
  70
    32
  0
VERTEX
  8
0
  5
3AF
 10
47.8150
 20
12.2281
 30
0.00000
  70
    32
  0
VERTEX
  8
0
  5
3B0
 10
47.7035
 20
12.1338
 30
0.00000
  70
    32
  0
VERTEX
  8
0
  5
3B1
 10
47.5920
 20
12.0395
 30
0.00000
  70
    32
  0
VERTEX
  8
0
  5
3B2
 10
47.4804
 20
11.9453
 30
0.00000
  70
    32
  0
VERTEX
  8
0
  5
3B3
 10
47.3687
 20
11.8512
 30
0.00000
  70
    32
  0
VERTEX
  8
0
  5
3B4
 10
47.2570
 20
11.7572
 30
0.00000
  70
    32
  0
VERTEX
  8
0
  5
3B5
 10
47.1453
 20
11.6632
 30
0.00000
  70
    32
  0
VERTEX
  8
0
  5
3B6
 10
47.0334
 20
11.5692
 30
0.00000
  70
    32
  0
VERTEX
  8
0
  5
3B7
 10
46.9216
 20
11.4754
 30
0.00000
  70
    32
  0
VERTEX
  8
0
  5
3B8
 10
46.8096
 20
11.3816
 30
0.00000
  70
    32
  0
VERTEX
  8
0
  5
3B9
 10
46.6977
 20
11.2879
 30
0.00000
  70
    32
  0
VERTEX
  8
0
  5
3BA
 10
46.5856
 20
11.1942
 30
0.00000
  70
    32
  0
VERTEX
  8
0
  5
3BB
 10
46.4735
 20
11.1006
 30
0.00000
  70
    32
  0
VERTEX
  8
0
  5
3BC
 10
46.3614
 20
11.0071
 30
0.00000
  70
    32
  0
VERTEX
  8
0
  5
3BD
 10
46.2492
 20
10.9136
 30
0.00000
  70
    32
  0
VERTEX
  8
0
  5
3BE
 10
46.1369
 20
10.8202
 30
0.00000
  70
    32
  0
VERTEX
  8
0
  5
3BF
 10
46.0246
 20
10.7269
 30
0.00000
  70
    32
  0
VERTEX
  8
0
  5
3C0
 10
45.9122
 20
10.6336
 30
0.00000
  70
    32
  0
VERTEX
  8
0
  5
3C1
 10
45.7998
 20
10.5404
 30
0.00000
  70
    32
  0
VERTEX
  8
0
  5
3C2
 10
45.6873
 20
10.4473
 30
0.00000
  70
    32
  0
VERTEX
  8
0
  5
3C3
 10
45.5748
 20
10.3542
 30
0.00000
  70
    32
  0
VERTEX
  8
0
  5
3C4
 10
45.4622
 20
10.2612
 30
0.00000
  70
    32
  0
VERTEX
  8
0
  5
3C5
 10
45.3495
 20
10.1683
 30
0.00000
  70
    32
  0
VERTEX
  8
0
  5
3C6
 10
45.2368
 20
10.0754
 30
0.00000
  70
    32
  0
VERTEX
  8
0
  5
3C7
 10
45.1241
 20
9.98258
 30
0.00000
  70
    32
  0
VERTEX
  8
0
  5
3C8
 10
45.0113
 20
9.88985
 30
0.00000
  70
    32
  0
VERTEX
  8
0
  5
3C9
 10
44.8984
 20
9.79718
 30
0.00000
  70
    32
  0
VERTEX
  8
0
  5
3CA
 10
44.7855
 20
9.70458
 30
0.00000
  70
    32
  0
VERTEX
  8
0
  5
3CB
 10
44.6725
 20
9.61205
 30
0.00000
  70
    32
  0
VERTEX
  8
0
  5
3CC
 10
44.5594
 20
9.51959
 30
0.00000
  70
    32
  0
VERTEX
  8
0
  5
3CD
 10
44.4464
 20
9.42719
 30
0.00000
  70
    32
  0
VERTEX
  8
0
  5
3CE
 10
44.3332
 20
9.33486
 30
0.00000
  70
    32
  0
VERTEX
  8
0
  5
3CF
 10
44.2200
 20
9.24260
 30
0.00000
  70
    32
  0
VERTEX
  8
0
  5
3D0
 10
44.1067
 20
9.15040
 30
0.00000
  70
    32
  0
VERTEX
  8
0
  5
3D1
 10
43.9934
 20
9.05828
 30
0.00000
  70
    32
  0
VERTEX
  8
0
  5
3D2
 10
43.8801
 20
8.96622
 30
0.00000
  70
    32
  0
VERTEX
  8
0
  5
3D3
 10
43.7666
 20
8.87422
 30
0.00000
  70
    32
  0
VERTEX
  8
0
  5
3D4
 10
43.6532
 20
8.78230
 30
0.00000
  70
    32
  0
VERTEX
  8
0
  5
3D5
 10
43.5396
 20
8.69044
 30
0.00000
  70
    32
  0
VERTEX
  8
0
  5
3D6
 10
43.4260
 20
8.59865
 30
0.00000
  70
    32
  0
VERTEX
  8
0
  5
3D7
 10
43.3124
 20
8.50693
 30
0.00000
  70
    32
  0
VERTEX
  8
0
  5
3D8
 10
43.1987
 20
8.41528
 30
0.00000
  70
    32
  0
VERTEX
  8
0
  5
3D9
 10
43.0849
 20
8.32369
 30
0.00000
  70
    32
  0
VERTEX
  8
0
  5
3DA
 10
42.9711
 20
8.23218
 30
0.00000
  70
    32
  0
VERTEX
  8
0
  5
3DB
 10
42.8573
 20
8.14073
 30
0.00000
  70
    32
  0
VERTEX
  8
0
  5
3DC
 10
42.7434
 20
8.04934
 30
0.00000
  70
    32
  0
VERTEX
  8
0
  5
3DD
 10
42.6294
 20
7.95803
 30
0.00000
  70
    32
  0
VERTEX
  8
0
  5
3DE
 10
42.5153
 20
7.86679
 30
0.00000
  70
    32
  0
VERTEX
  8
0
  5
3DF
 10
42.4013
 20
7.77561
 30
0.00000
  70
    32
  0
VERTEX
  8
0
  5
3E0
 10
42.2871
 20
7.68450
 30
0.00000
  70
    32
  0
VERTEX
  8
0
  5
3E1
 10
42.1729
 20
7.59346
 30
0.00000
  70
    32
  0
VERTEX
  8
0
  5
3E2
 10
42.0587
 20
7.50248
 30
0.00000
  70
    32
  0
VERTEX
  8
0
  5
3E3
 10
41.9444
 20
7.41158
 30
0.00000
  70
    32
  0
VERTEX
  8
0
  5
3E4
 10
41.8300
 20
7.32074
 30
0.00000
  70
    32
  0
VERTEX
  8
0
  5
3E5
 10
41.7156
 20
7.22998
 30
0.00000
  70
    32
  0
VERTEX
  8
0
  5
3E6
 10
41.6012
 20
7.13928
 30
0.00000
  70
    32
  0
VERTEX
  8
0
  5
3E7
 10
41.4866
 20
7.04865
 30
0.00000
  70
    32
  0
VERTEX
  8
0
  5
3E8
 10
41.3721
 20
6.95808
 30
0.00000
  70
    32
  0
VERTEX
  8
0
  5
3E9
 10
41.2574
 20
6.86759
 30
0.00000
  70
    32
  0
VERTEX
  8
0
  5
3EA
 10
41.1428
 20
6.77716
 30
0.00000
  70
    32
  0
VERTEX
  8
0
  5
3EB
 10
41.0280
 20
6.68681
 30
0.00000
  70
    32
  0
VERTEX
  8
0
  5
3EC
 10
40.9132
 20
6.59652
 30
0.00000
  70
    32
  0
VERTEX
  8
0
  5
3ED
 10
40.7984
 20
6.50630
 30
0.00000
  70
    32
  0
VERTEX
  8
0
  5
3EE
 10
40.6835
 20
6.41615
 30
0.00000
  70
    32
  0
VERTEX
  8
0
  5
3EF
 10
40.5685
 20
6.32607
 30
0.00000
  70
    32
  0
VERTEX
  8
0
  5
3F0
 10
40.4535
 20
6.23606
 30
0.00000
  70
    32
  0
VERTEX
  8
0
  5
3F1
 10
40.3385
 20
6.14611
 30
0.00000
  70
    32
  0
VERTEX
  8
0
  5
3F2
 10
40.2233
 20
6.05624
 30
0.00000
  70
    32
  0
VERTEX
  8
0
  5
3F3
 10
40.1082
 20
5.96643
 30
0.00000
  70
    32
  0
VERTEX
  8
0
  5
3F4
 10
39.9929
 20
5.87669
 30
0.00000
  70
    32
  0
VERTEX
  8
0
  5
3F5
 10
39.8777
 20
5.78703
 30
0.00000
  70
    32
  0
VERTEX
  8
0
  5
3F6
 10
39.7623
 20
5.69743
 30
0.00000
  70
    32
  0
VERTEX
  8
0
  5
3F7
 10
39.6469
 20
5.60790
 30
0.00000
  70
    32
  0
VERTEX
  8
0
  5
3F8
 10
39.5315
 20
5.51844
 30
0.00000
  70
    32
  0
VERTEX
  8
0
  5
3F9
 10
39.4160
 20
5.42904
 30
0.00000
  70
    32
  0
VERTEX
  8
0
  5
3FA
 10
39.3005
 20
5.33972
 30
0.00000
  70
    32
  0
VERTEX
  8
0
  5
3FB
 10
39.1849
 20
5.25047
 30
0.00000
  70
    32
  0
VERTEX
  8
0
  5
3FC
 10
39.0692
 20
5.16129
 30
0.00000
  70
    32
  0
VERTEX
  8
0
  5
3FD
 10
38.9535
 20
5.07217
 30
0.00000
  70
    32
  0
VERTEX
  8
0
  5
3FE
 10
38.8377
 20
4.98313
 30
0.00000
  70
    32
  0
VERTEX
  8
0
  5
3FF
 10
38.7219
 20
4.89415
 30
0.00000
  70
    32
  0
VERTEX
  8
0
  5
400
 10
38.6061
 20
4.80525
 30
0.00000
  70
    32
  0
VERTEX
  8
0
  5
401
 10
38.4901
 20
4.71641
 30
0.00000
  70
    32
  0
VERTEX
  8
0
  5
402
 10
38.3742
 20
4.62764
 30
0.00000
  70
    32
  0
VERTEX
  8
0
  5
403
 10
38.2581
 20
4.53895
 30
0.00000
  70
    32
  0
VERTEX
  8
0
  5
404
 10
38.1420
 20
4.45032
 30
0.00000
  70
    32
  0
VERTEX
  8
0
  5
405
 10
38.0259
 20
4.36176
 30
0.00000
  70
    32
  0
VERTEX
  8
0
  5
406
 10
37.9097
 20
4.27327
 30
0.00000
  70
    32
  0
VERTEX
  8
0
  5
407
 10
37.7935
 20
4.18486
 30
0.00000
  70
    32
  0
VERTEX
  8
0
  5
408
 10
37.6772
 20
4.09651
 30
0.00000
  70
    32
  0
VERTEX
  8
0
  5
409
 10
37.5608
 20
4.00823
 30
0.00000
  70
    32
  0
VERTEX
  8
0
  5
40A
 10
37.4444
 20
3.92002
 30
0.00000
  70
    32
  0
VERTEX
  8
0
  5
40B
 10
37.3280
 20
3.83188
 30
0.00000
  70
    32
  0
VERTEX
  8
0
  5
40C
 10
37.2115
 20
3.74382
 30
0.00000
  70
    32
  0
VERTEX
  8
0
  5
40D
 10
37.0949
 20
3.65582
 30
0.00000
  70
    32
  0
VERTEX
  8
0
  5
40E
 10
36.9783
 20
3.56789
 30
0.00000
  70
    32
  0
VERTEX
  8
0
  5
40F
 10
36.8616
 20
3.48003
 30
0.00000
  70
    32
  0
VERTEX
  8
0
  5
410
 10
36.7449
 20
3.39224
 30
0.00000
  70
    32
  0
VERTEX
  8
0
  5
411
 10
36.6281
 20
3.30453
 30
0.00000
  70
    32
  0
VERTEX
  8
0
  5
412
 10
36.5113
 20
3.21688
 30
0.00000
  70
    32
  0
VERTEX
  8
0
  5
413
 10
36.3944
 20
3.12930
 30
0.00000
  70
    32
  0
VERTEX
  8
0
  5
414
 10
36.2775
 20
3.04180
 30
0.00000
  70
    32
  0
VERTEX
  8
0
  5
415
 10
36.1605
 20
2.95436
 30
0.00000
  70
    32
  0
VERTEX
  8
0
  5
416
 10
36.0435
 20
2.86699
 30
0.00000
  70
    32
  0
VERTEX
  8
0
  5
417
 10
35.9264
 20
2.77970
 30
0.00000
  70
    32
  0
VERTEX
  8
0
  5
418
 10
35.8092
 20
2.69247
 30
0.00000
  70
    32
  0
VERTEX
  8
0
  5
419
 10
35.6920
 20
2.60532
 30
0.00000
  70
    32
  0
VERTEX
  8
0
  5
41A
 10
35.5748
 20
2.51824
 30
0.00000
  70
    32
  0
VERTEX
  8
0
  5
41B
 10
35.4575
 20
2.43122
 30
0.00000
  70
    32
  0
VERTEX
  8
0
  5
41C
 10
35.3401
 20
2.34428
 30
0.00000
  70
    32
  0
VERTEX
  8
0
  5
41D
 10
35.2227
 20
2.25741
 30
0.00000
  70
    32
  0
VERTEX
  8
0
  5
41E
 10
34.9854
 20
2.77947
 30
0.00000
  70
    32
  0
VERTEX
  8
0
  5
41F
 10
34.6450
 20
3.82493
 30
0.00000
  70
    32
  0
VERTEX
  8
0
  5
420
 10
34.3046
 20
4.87039
 30
0.00000
  70
    32
  0
VERTEX
  8
0
  5
421
 10
33.9642
 20
5.91585
 30
0.00000
  70
    32
  0
VERTEX
  8
0
  5
422
 10
33.6238
 20
6.96131
 30
0.00000
  70
    32
  0
VERTEX
  8
0
  5
423
 10
33.2834
 20
8.00677
 30
0.00000
  70
    32
  0
VERTEX
  8
0
  5
424
 10
32.9430
 20
9.05223
 30
0.00000
  70
    32
  0
VERTEX
  8
0
  5
425
 10
32.8012
 20
9.47132
 30
0.00000
  70
    32
  0
VERTEX
  8
0
  5
426
 10
32.7327
 20
9.60022
 30
0.00000
  70
    32
  0
VERTEX
  8
0
  5
427
 10
32.1938
 20
10.4253
 30
0.00000
  70
    32
  0
VERTEX
  8
0
  5
428
 10
31.5923
 20
11.3456
 30
0.00000
  70
    32
  0
VERTEX
  8
0
  5
429
 10
30.9908
 20
12.2660
 30
0.00000
  70
    32
  0
VERTEX
  8
0
  5
42A
 10
30.3894
 20
13.1864
 30
0.00000
  70
    32
  0
VERTEX
  8
0
  5
42B
 10
29.7879
 20
14.1068
 30
0.00000
  70
    32
  0
VERTEX
  8
0
  5
42C
 10
29.1864
 20
15.0272
 30
0.00000
  70
    32
  0
VERTEX
  8
0
  5
42D
 10
28.6083
 20
15.9201
 30
0.00000
  70
    32
  0
VERTEX
  8
0
  5
42E
 10
28.7442
 20
15.9737
 30
0.00000
  70
    32
  0
VERTEX
  8
0
  5
42F
 10
28.8801
 20
16.0275
 30
0.00000
  70
    32
  0
VERTEX
  8
0
  5
430
 10
29.0158
 20
16.0814
 30
0.00000
  70
    32
  0
VERTEX
  8
0
  5
431
 10
29.1516
 20
16.1355
 30
0.00000
  70
    32
  0
VERTEX
  8
0
  5
432
 10
29.2872
 20
16.1898
 30
0.00000
  70
    32
  0
VERTEX
  8
0
  5
433
 10
29.4228
 20
16.2441
 30
0.00000
  70
    32
  0
VERTEX
  8
0
  5
434
 10
29.5584
 20
16.2987
 30
0.00000
  70
    32
  0
VERTEX
  8
0
  5
435
 10
29.6938
 20
16.3534
 30
0.00000
  70
    32
  0
VERTEX
  8
0
  5
436
 10
29.8293
 20
16.4082
 30
0.00000
  70
    32
  0
VERTEX
  8
0
  5
437
 10
29.9646
 20
16.4632
 30
0.00000
  70
    32
  0
VERTEX
  8
0
  5
438
 10
30.1000
 20
16.5183
 30
0.00000
  70
    32
  0
VERTEX
  8
0
  5
439
 10
30.2352
 20
16.5736
 30
0.00000
  70
    32
  0
VERTEX
  8
0
  5
43A
 10
30.3704
 20
16.6290
 30
0.00000
  70
    32
  0
VERTEX
  8
0
  5
43B
 10
30.5055
 20
16.6846
 30
0.00000
  70
    32
  0
VERTEX
  8
0
  5
43C
 10
30.6406
 20
16.7403
 30
0.00000
  70
    32
  0
VERTEX
  8
0
  5
43D
 10
30.7756
 20
16.7961
 30
0.00000
  70
    32
  0
VERTEX
  8
0
  5
43E
 10
30.9106
 20
16.8521
 30
0.00000
  70
    32
  0
VERTEX
  8
0
  5
43F
 10
31.0455
 20
16.9083
 30
0.00000
  70
    32
  0
VERTEX
  8
0
  5
440
 10
31.1803
 20
16.9646
 30
0.00000
  70
    32
  0
VERTEX
  8
0
  5
441
 10
31.3151
 20
17.0210
 30
0.00000
  70
    32
  0
VERTEX
  8
0
  5
442
 10
31.4498
 20
17.0776
 30
0.00000
  70
    32
  0
VERTEX
  8
0
  5
443
 10
31.5844
 20
17.1344
 30
0.00000
  70
    32
  0
VERTEX
  8
0
  5
444
 10
31.7190
 20
17.1912
 30
0.00000
  70
    32
  0
VERTEX
  8
0
  5
445
 10
31.8536
 20
17.2483
 30
0.00000
  70
    32
  0
VERTEX
  8
0
  5
446
 10
31.9881
 20
17.3054
 30
0.00000
  70
    32
  0
VERTEX
  8
0
  5
447
 10
32.1225
 20
17.3628
 30
0.00000
  70
    32
  0
VERTEX
  8
0
  5
448
 10
32.2568
 20
17.4202
 30
0.00000
  70
    32
  0
VERTEX
  8
0
  5
449
 10
32.3911
 20
17.4778
 30
0.00000
  70
    32
  0
VERTEX
  8
0
  5
44A
 10
32.5253
 20
17.5356
 30
0.00000
  70
    32
  0
VERTEX
  8
0
  5
44B
 10
32.6595
 20
17.5935
 30
0.00000
  70
    32
  0
VERTEX
  8
0
  5
44C
 10
32.7936
 20
17.6515
 30
0.00000
  70
    32
  0
VERTEX
  8
0
  5
44D
 10
32.9277
 20
17.7097
 30
0.00000
  70
    32
  0
VERTEX
  8
0
  5
44E
 10
33.0617
 20
17.7680
 30
0.00000
  70
    32
  0
VERTEX
  8
0
  5
44F
 10
33.1956
 20
17.8265
 30
0.00000
  70
    32
  0
VERTEX
  8
0
  5
450
 10
33.3294
 20
17.8851
 30
0.00000
  70
    32
  0
VERTEX
  8
0
  5
451
 10
33.4632
 20
17.9438
 30
0.00000
  70
    32
  0
VERTEX
  8
0
  5
452
 10
33.5970
 20
18.0027
 30
0.00000
  70
    32
  0
VERTEX
  8
0
  5
453
 10
33.7307
 20
18.0617
 30
0.00000
  70
    32
  0
VERTEX
  8
0
  5
454
 10
33.8643
 20
18.1209
 30
0.00000
  70
    32
  0
VERTEX
  8
0
  5
455
 10
33.9978
 20
18.1802
 30
0.00000
  70
    32
  0
VERTEX
  8
0
  5
456
 10
34.1313
 20
18.2397
 30
0.00000
  70
    32
  0
VERTEX
  8
0
  5
457
 10
34.2648
 20
18.2993
 30
0.00000
  70
    32
  0
VERTEX
  8
0
  5
458
 10
34.3981
 20
18.3590
 30
0.00000
  70
    32
  0
VERTEX
  8
0
  5
459
 10
34.5314
 20
18.4189
 30
0.00000
  70
    32
  0
VERTEX
  8
0
  5
45A
 10
34.6647
 20
18.4789
 30
0.00000
  70
    32
  0
VERTEX
  8
0
  5
45B
 10
34.7978
 20
18.5391
 30
0.00000
  70
    32
  0
VERTEX
  8
0
  5
45C
 10
34.9310
 20
18.5994
 30
0.00000
  70
    32
  0
VERTEX
  8
0
  5
45D
 10
35.0640
 20
18.6598
 30
0.00000
  70
    32
  0
VERTEX
  8
0
  5
45E
 10
35.1970
 20
18.7204
 30
0.00000
  70
    32
  0
VERTEX
  8
0
  5
45F
 10
35.3299
 20
18.7811
 30
0.00000
  70
    32
  0
VERTEX
  8
0
  5
460
 10
35.4628
 20
18.8420
 30
0.00000
  70
    32
  0
VERTEX
  8
0
  5
461
 10
35.5956
 20
18.9030
 30
0.00000
  70
    32
  0
VERTEX
  8
0
  5
462
 10
35.7283
 20
18.9641
 30
0.00000
  70
    32
  0
VERTEX
  8
0
  5
463
 10
35.8610
 20
19.0254
 30
0.00000
  70
    32
  0
VERTEX
  8
0
  5
464
 10
35.9936
 20
19.0868
 30
0.00000
  70
    32
  0
VERTEX
  8
0
  5
465
 10
36.1261
 20
19.1483
 30
0.00000
  70
    32
  0
VERTEX
  8
0
  5
466
 10
36.2586
 20
19.2100
 30
0.00000
  70
    32
  0
VERTEX
  8
0
  5
467
 10
36.3910
 20
19.2718
 30
0.00000
  70
    32
  0
VERTEX
  8
0
  5
468
 10
36.5234
 20
19.3338
 30
0.00000
  70
    32
  0
VERTEX
  8
0
  5
469
 10
36.6556
 20
19.3959
 30
0.00000
  70
    32
  0
VERTEX
  8
0
  5
46A
 10
36.7879
 20
19.4581
 30
0.00000
  70
    32
  0
VERTEX
  8
0
  5
46B
 10
36.9200
 20
19.5205
 30
0.00000
  70
    32
  0
VERTEX
  8
0
  5
46C
 10
37.0521
 20
19.5830
 30
0.00000
  70
    32
  0
VERTEX
  8
0
  5
46D
 10
37.1841
 20
19.6457
 30
0.00000
  70
    32
  0
VERTEX
  8
0
  5
46E
 10
37.3161
 20
19.7084
 30
0.00000
  70
    32
  0
VERTEX
  8
0
  5
46F
 10
37.4480
 20
19.7713
 30
0.00000
  70
    32
  0
VERTEX
  8
0
  5
470
 10
37.5798
 20
19.8344
 30
0.00000
  70
    32
  0
VERTEX
  8
0
  5
471
 10
37.7116
 20
19.8976
 30
0.00000
  70
    32
  0
VERTEX
  8
0
  5
472
 10
37.8433
 20
19.9609
 30
0.00000
  70
    32
  0
VERTEX
  8
0
  5
473
 10
37.9749
 20
20.0244
 30
0.00000
  70
    32
  0
VERTEX
  8
0
  5
474
 10
38.1065
 20
20.0880
 30
0.00000
  70
    32
  0
VERTEX
  8
0
  5
475
 10
38.2380
 20
20.1517
 30
0.00000
  70
    32
  0
VERTEX
  8
0
  5
476
 10
38.3694
 20
20.2155
 30
0.00000
  70
    32
  0
VERTEX
  8
0
  5
477
 10
38.5008
 20
20.2795
 30
0.00000
  70
    32
  0
VERTEX
  8
0
  5
478
 10
38.6321
 20
20.3437
 30
0.00000
  70
    32
  0
VERTEX
  8
0
  5
479
 10
38.7633
 20
20.4079
 30
0.00000
  70
    32
  0
VERTEX
  8
0
  5
47A
 10
38.8945
 20
20.4723
 30
0.00000
  70
    32
  0
VERTEX
  8
0
  5
47B
 10
39.0256
 20
20.5368
 30
0.00000
  70
    32
  0
VERTEX
  8
0
  5
47C
 10
39.1566
 20
20.6015
 30
0.00000
  70
    32
  0
VERTEX
  8
0
  5
47D
 10
39.2876
 20
20.6663
 30
0.00000
  70
    32
  0
VERTEX
  8
0
  5
47E
 10
39.4185
 20
20.7312
 30
0.00000
  70
    32
  0
VERTEX
  8
0
  5
47F
 10
39.5493
 20
20.7963
 30
0.00000
  70
    32
  0
VERTEX
  8
0
  5
480
 10
39.6801
 20
20.8615
 30
0.00000
  70
    32
  0
VERTEX
  8
0
  5
481
 10
39.8108
 20
20.9268
 30
0.00000
  70
    32
  0
VERTEX
  8
0
  5
482
 10
39.9414
 20
20.9923
 30
0.00000
  70
    32
  0
VERTEX
  8
0
  5
483
 10
40.0719
 20
21.0578
 30
0.00000
  70
    32
  0
VERTEX
  8
0
  5
484
 10
40.2024
 20
21.1236
 30
0.00000
  70
    32
  0
VERTEX
  8
0
  5
485
 10
40.3329
 20
21.1894
 30
0.00000
  70
    32
  0
VERTEX
  8
0
  5
486
 10
40.4632
 20
21.2554
 30
0.00000
  70
    32
  0
VERTEX
  8
0
  5
487
 10
40.5935
 20
21.3215
 30
0.00000
  70
    32
  0
VERTEX
  8
0
  5
488
 10
40.7237
 20
21.3878
 30
0.00000
  70
    32
  0
VERTEX
  8
0
  5
489
 10
40.8539
 20
21.4541
 30
0.00000
  70
    32
  0
VERTEX
  8
0
  5
48A
 10
40.9840
 20
21.5207
 30
0.00000
  70
    32
  0
VERTEX
  8
0
  5
48B
 10
41.1140
 20
21.5873
 30
0.00000
  70
    32
  0
VERTEX
  8
0
  5
48C
 10
41.2439
 20
21.6541
 30
0.00000
  70
    32
  0
VERTEX
  8
0
  5
48D
 10
41.3738
 20
21.7210
 30
0.00000
  70
    32
  0
VERTEX
  8
0
  5
48E
 10
41.5036
 20
21.7880
 30
0.00000
  70
    32
  0
VERTEX
  8
0
  5
48F
 10
41.6334
 20
21.8552
 30
0.00000
  70
    32
  0
VERTEX
  8
0
  5
490
 10
41.7631
 20
21.9225
 30
0.00000
  70
    32
  0
VERTEX
  8
0
  5
491
 10
41.8927
 20
21.9899
 30
0.00000
  70
    32
  0
VERTEX
  8
0
  5
492
 10
42.0222
 20
22.0575
 30
0.00000
  70
    32
  0
VERTEX
  8
0
  5
493
 10
42.1517
 20
22.1252
 30
0.00000
  70
    32
  0
VERTEX
  8
0
  5
494
 10
42.2811
 20
22.1930
 30
0.00000
  70
    32
  0
VERTEX
  8
0
  5
495
 10
42.4104
 20
22.2609
 30
0.00000
  70
    32
  0
VERTEX
  8
0
  5
496
 10
42.5396
 20
22.3290
 30
0.00000
  70
    32
  0
VERTEX
  8
0
  5
497
 10
42.6688
 20
22.3972
 30
0.00000
  70
    32
  0
VERTEX
  8
0
  5
498
 10
42.7980
 20
22.4656
 30
0.00000
  70
    32
  0
VERTEX
  8
0
  5
499
 10
42.9270
 20
22.5341
 30
0.00000
  70
    32
  0
VERTEX
  8
0
  5
49A
 10
43.0560
 20
22.6027
 30
0.00000
  70
    32
  0
VERTEX
  8
0
  5
49B
 10
43.1849
 20
22.6714
 30
0.00000
  70
    32
  0
VERTEX
  8
0
  5
49C
 10
43.3137
 20
22.7403
 30
0.00000
  70
    32
  0
VERTEX
  8
0
  5
49D
 10
43.4425
 20
22.8092
 30
0.00000
  70
    32
  0
VERTEX
  8
0
  5
49E
 10
43.5712
 20
22.8784
 30
0.00000
  70
    32
  0
VERTEX
  8
0
  5
49F
 10
43.6998
 20
22.9476
 30
0.00000
  70
    32
  0
VERTEX
  8
0
  5
4A0
 10
43.8284
 20
23.0170
 30
0.00000
  70
    32
  0
VERTEX
  8
0
  5
4A1
 10
43.9569
 20
23.0865
 30
0.00000
  70
    32
  0
VERTEX
  8
0
  5
4A2
 10
44.0853
 20
23.1562
 30
0.00000
  70
    32
  0
VERTEX
  8
0
  5
4A3
 10
44.2136
 20
23.2259
 30
0.00000
  70
    32
  0
VERTEX
  8
0
  5
4A4
 10
44.3419
 20
23.2958
 30
0.00000
  70
    32
  0
VERTEX
  8
0
  5
4A5
 10
44.4701
 20
23.3658
 30
0.00000
  70
    32
  0
VERTEX
  8
0
  5
4A6
 10
44.5982
 20
23.4360
 30
0.00000
  70
    32
  0
VERTEX
  8
0
  5
4A7
 10
44.7263
 20
23.5063
 30
0.00000
  70
    32
  0
VERTEX
  8
0
  5
4A8
 10
44.8543
 20
23.5767
 30
0.00000
  70
    32
  0
VERTEX
  8
0
  5
4A9
 10
44.9822
 20
23.6472
 30
0.00000
  70
    32
  0
VERTEX
  8
0
  5
4AA
 10
45.1101
 20
23.7179
 30
0.00000
  70
    32
  0
VERTEX
  8
0
  5
4AB
 10
45.2378
 20
23.7887
 30
0.00000
  70
    32
  0
VERTEX
  8
0
  5
4AC
 10
45.3655
 20
23.8596
 30
0.00000
  70
    32
  0
VERTEX
  8
0
  5
4AD
 10
45.4932
 20
23.9307
 30
0.00000
  70
    32
  0
VERTEX
  8
0
  5
4AE
 10
45.6207
 20
24.0019
 30
0.00000
  70
    32
  0
VERTEX
  8
0
  5
4AF
 10
45.7482
 20
24.0732
 30
0.00000
  70
    32
  0
VERTEX
  8
0
  5
4B0
 10
45.8756
 20
24.1446
 30
0.00000
  70
    32
  0
VERTEX
  8
0
  5
4B1
 10
46.0030
 20
24.2162
 30
0.00000
  70
    32
  0
VERTEX
  8
0
  5
4B2
 10
46.1302
 20
24.2879
 30
0.00000
  70
    32
  0
VERTEX
  8
0
  5
4B3
 10
46.2574
 20
24.3597
 30
0.00000
  70
    32
  0
VERTEX
  8
0
  5
4B4
 10
46.3846
 20
24.4317
 30
0.00000
  70
    32
  0
VERTEX
  8
0
  5
4B5
 10
46.5116
 20
24.5037
 30
0.00000
  70
    32
  0
VERTEX
  8
0
  5
4B6
 10
46.6386
 20
24.5759
 30
0.00000
  70
    32
  0
VERTEX
  8
0
  5
4B7
 10
46.7655
 20
24.6483
 30
0.00000
  70
    32
  0
VERTEX
  8
0
  5
4B8
 10
46.8923
 20
24.7207
 30
0.00000
  70
    32
  0
VERTEX
  8
0
  5
4B9
 10
47.0191
 20
24.7933
 30
0.00000
  70
    32
  0
VERTEX
  8
0
  5
4BA
 10
47.1458
 20
24.8660
 30
0.00000
  70
    32
  0
VERTEX
  8
0
  5
4BB
 10
47.2724
 20
24.9389
 30
0.00000
  70
    32
  0
VERTEX
  8
0
  5
4BC
 10
47.3989
 20
25.0118
 30
0.00000
  70
    32
  0
VERTEX
  8
0
  5
4BD
 10
47.5254
 20
25.0849
 30
0.00000
  70
    32
  0
VERTEX
  8
0
  5
4BE
 10
47.6518
 20
25.1582
 30
0.00000
  70
    32
  0
VERTEX
  8
0
  5
4BF
 10
47.7781
 20
25.2315
 30
0.00000
  70
    32
  0
VERTEX
  8
0
  5
4C0
 10
47.9044
 20
25.3050
 30
0.00000
  70
    32
  0
VERTEX
  8
0
  5
4C1
 10
48.0305
 20
25.3786
 30
0.00000
  70
    32
  0
VERTEX
  8
0
  5
4C2
 10
48.1566
 20
25.4523
 30
0.00000
  70
    32
  0
VERTEX
  8
0
  5
4C3
 10
48.2826
 20
25.5261
 30
0.00000
  70
    32
  0
VERTEX
  8
0
  5
4C4
 10
48.4086
 20
25.6001
 30
0.00000
  70
    32
  0
VERTEX
  8
0
  5
4C5
 10
48.5345
 20
25.6742
 30
0.00000
  70
    32
  0
VERTEX
  8
0
  5
4C6
 10
48.6603
 20
25.7485
 30
0.00000
  70
    32
  0
VERTEX
  8
0
  5
4C7
 10
48.7860
 20
25.8228
 30
0.00000
  70
    32
  0
VERTEX
  8
0
  5
4C8
 10
48.9116
 20
25.8973
 30
0.00000
  70
    32
  0
VERTEX
  8
0
  5
4C9
 10
49.0372
 20
25.9719
 30
0.00000
  70
    32
  0
VERTEX
  8
0
  5
4CA
 10
49.1627
 20
26.0466
 30
0.00000
  70
    32
  0
VERTEX
  8
0
  5
4CB
 10
49.2882
 20
26.1215
 30
0.00000
  70
    32
  0
VERTEX
  8
0
  5
4CC
 10
49.4135
 20
26.1965
 30
0.00000
  70
    32
  0
VERTEX
  8
0
  5
4CD
 10
49.5388
 20
26.2716
 30
0.00000
  70
    32
  0
VERTEX
  8
0
  5
4CE
 10
49.6640
 20
26.3468
 30
0.00000
  70
    32
  0
VERTEX
  8
0
  5
4CF
 10
49.7891
 20
26.4221
 30
0.00000
  70
    32
  0
VERTEX
  8
0
  5
4D0
 10
49.9142
 20
26.4976
 30
0.00000
  70
    32
  0
VERTEX
  8
0
  5
4D1
 10
50.0391
 20
26.5732
 30
0.00000
  70
    32
  0
VERTEX
  8
0
  5
4D2
 10
50.1640
 20
26.6490
 30
0.00000
  70
    32
  0
VERTEX
  8
0
  5
4D3
 10
50.2889
 20
26.7248
 30
0.00000
  70
    32
  0
VERTEX
  8
0
  5
4D4
 10
50.4136
 20
26.8008
 30
0.00000
  70
    32
  0
VERTEX
  8
0
  5
4D5
 10
50.5383
 20
26.8769
 30
0.00000
  70
    32
  0
VERTEX
  8
0
  5
4D6
 10
50.6629
 20
26.9531
 30
0.00000
  70
    32
  0
VERTEX
  8
0
  5
4D7
 10
50.7874
 20
27.0295
 30
0.00000
  70
    32
  0
VERTEX
  8
0
  5
4D8
 10
50.9118
 20
27.1059
 30
0.00000
  70
    32
  0
VERTEX
  8
0
  5
4D9
 10
51.0362
 20
27.1825
 30
0.00000
  70
    32
  0
VERTEX
  8
0
  5
4DA
 10
51.1605
 20
27.2593
 30
0.00000
  70
    32
  0
VERTEX
  8
0
  5
4DB
 10
51.2847
 20
27.3361
 30
0.00000
  70
    32
  0
VERTEX
  8
0
  5
4DC
 10
51.4088
 20
27.4131
 30
0.00000
  70
    32
  0
VERTEX
  8
0
  5
4DD
 10
51.5329
 20
27.4902
 30
0.00000
  70
    32
  0
VERTEX
  8
0
  5
4DE
 10
51.6569
 20
27.5674
 30
0.00000
  70
    32
  0
VERTEX
  8
0
  5
4DF
 10
51.7808
 20
27.6447
 30
0.00000
  70
    32
  0
VERTEX
  8
0
  5
4E0
 10
51.9046
 20
27.7222
 30
0.00000
  70
    32
  0
VERTEX
  8
0
  5
4E1
 10
52.0284
 20
27.7998
 30
0.00000
  70
    32
  0
VERTEX
  8
0
  5
4E2
 10
52.1520
 20
27.8775
 30
0.00000
  70
    32
  0
VERTEX
  8
0
  5
4E3
 10
52.2756
 20
27.9553
 30
0.00000
  70
    32
  0
VERTEX
  8
0
  5
4E4
 10
52.3992
 20
28.0332
 30
0.00000
  70
    32
  0
VERTEX
  8
0
  5
4E5
 10
52.5226
 20
28.1113
 30
0.00000
  70
    32
  0
VERTEX
  8
0
  5
4E6
 10
52.6460
 20
28.1895
 30
0.00000
  70
    32
  0
VERTEX
  8
0
  5
4E7
 10
52.7693
 20
28.2678
 30
0.00000
  70
    32
  0
VERTEX
  8
0
  5
4E8
 10
52.8925
 20
28.3463
 30
0.00000
  70
    32
  0
VERTEX
  8
0
  5
4E9
 10
53.0156
 20
28.4249
 30
0.00000
  70
    32
  0
VERTEX
  8
0
  5
4EA
 10
53.1386
 20
28.5035
 30
0.00000
  70
    32
  0
VERTEX
  8
0
  5
4EB
 10
53.2616
 20
28.5823
 30
0.00000
  70
    32
  0
VERTEX
  8
0
  5
4EC
 10
53.3845
 20
28.6613
 30
0.00000
  70
    32
  0
VERTEX
  8
0
  5
4ED
 10
53.5073
 20
28.7403
 30
0.00000
  70
    32
  0
VERTEX
  8
0
  5
4EE
 10
53.6301
 20
28.8195
 30
0.00000
  70
    32
  0
VERTEX
  8
0
  5
4EF
 10
53.7527
 20
28.8988
 30
0.00000
  70
    32
  0
VERTEX
  8
0
  5
4F0
 10
53.8753
 20
28.9782
 30
0.00000
  70
    32
  0
VERTEX
  8
0
  5
4F1
 10
53.9978
 20
29.0577
 30
0.00000
  70
    32
  0
VERTEX
  8
0
  5
4F2
 10
54.1203
 20
29.1374
 30
0.00000
  70
    32
  0
VERTEX
  8
0
  5
4F3
 10
54.2426
 20
29.2172
 30
0.00000
  70
    32
  0
VERTEX
  8
0
  5
4F4
 10
54.3649
 20
29.2971
 30
0.00000
  70
    32
  0
VERTEX
  8
0
  5
4F5
 10
54.4871
 20
29.3771
 30
0.00000
  70
    32
  0
VERTEX
  8
0
  5
4F6
 10
54.6092
 20
29.4572
 30
0.00000
  70
    32
  0
VERTEX
  8
0
  5
4F7
 10
54.7312
 20
29.5375
 30
0.00000
  70
    32
  0
VERTEX
  8
0
  5
4F8
 10
54.8532
 20
29.6178
 30
0.00000
  70
    32
  0
VERTEX
  8
0
  5
4F9
 10
54.9751
 20
29.6983
 30
0.00000
  70
    32
  0
VERTEX
  8
0
  5
4FA
 10
55.0969
 20
29.7789
 30
0.00000
  70
    32
  0
VERTEX
  8
0
  5
4FB
 10
55.2186
 20
29.8597
 30
0.00000
  70
    32
  0
VERTEX
  8
0
  5
4FC
 10
55.3403
 20
29.9405
 30
0.00000
  70
    32
  0
VERTEX
  8
0
  5
4FD
 10
55.4618
 20
30.0215
 30
0.00000
  70
    32
  0
VERTEX
  8
0
  5
4FE
 10
55.5833
 20
30.1026
 30
0.00000
  70
    32
  0
VERTEX
  8
0
  5
4FF
 10
55.7047
 20
30.1838
 30
0.00000
  70
    32
  0
VERTEX
  8
0
  5
500
 10
55.8261
 20
30.2651
 30
0.00000
  70
    32
  0
VERTEX
  8
0
  5
501
 10
55.9473
 20
30.3465
 30
0.00000
  70
    32
  0
VERTEX
  8
0
  5
502
 10
56.0685
 20
30.4281
 30
0.00000
  70
    32
  0
VERTEX
  8
0
  5
503
 10
56.1896
 20
30.5097
 30
0.00000
  70
    32
  0
VERTEX
  8
0
  5
504
 10
56.3106
 20
30.5915
 30
0.00000
  70
    32
  0
VERTEX
  8
0
  5
505
 10
56.4316
 20
30.6734
 30
0.00000
  70
    32
  0
VERTEX
  8
0
  5
506
 10
56.5524
 20
30.7554
 30
0.00000
  70
    32
  0
VERTEX
  8
0
  5
507
 10
56.6732
 20
30.8376
 30
0.00000
  70
    32
  0
VERTEX
  8
0
  5
508
 10
56.7939
 20
30.9198
 30
0.00000
  70
    32
  0
VERTEX
  8
0
  5
509
 10
56.9146
 20
31.0022
 30
0.00000
  70
    32
  0
VERTEX
  8
0
  5
50A
 10
57.0351
 20
31.0847
 30
0.00000
  70
    32
  0
VERTEX
  8
0
  5
50B
 10
57.1556
 20
31.1673
 30
0.00000
  70
    32
  0
VERTEX
  8
0
  5
50C
 10
57.2760
 20
31.2500
 30
0.00000
  70
    32
  0
VERTEX
  8
0
  5
50D
 10
57.3963
 20
31.3328
 30
0.00000
  70
    32
  0
VERTEX
  8
0
  5
50E
 10
57.5165
 20
31.4157
 30
0.00000
  70
    32
  0
VERTEX
  8
0
  5
50F
 10
57.6367
 20
31.4988
 30
0.00000
  70
    32
  0
VERTEX
  8
0
  5
510
 10
57.7567
 20
31.5820
 30
0.00000
  70
    32
  0
VERTEX
  8
0
  5
511
 10
57.8767
 20
31.6653
 30
0.00000
  70
    32
  0
VERTEX
  8
0
  5
512
 10
57.9967
 20
31.7487
 30
0.00000
  70
    32
  0
VERTEX
  8
0
  5
513
 10
58.1165
 20
31.8322
 30
0.00000
  70
    32
  0
VERTEX
  8
0
  5
514
 10
58.2363
 20
31.9158
 30
0.00000
  70
    32
  0
VERTEX
  8
0
  5
515
 10
58.3559
 20
31.9995
 30
0.00000
  70
    32
  0
VERTEX
  8
0
  5
516
 10
58.4755
 20
32.0834
 30
0.00000
  70
    32
  0
VERTEX
  8
0
  5
517
 10
58.5951
 20
32.1674
 30
0.00000
  70
    32
  0
VERTEX
  8
0
  5
518
 10
58.7145
 20
32.2514
 30
0.00000
  70
    32
  0
VERTEX
  8
0
  5
519
 10
58.8339
 20
32.3356
 30
0.00000
  70
    32
  0
VERTEX
  8
0
  5
51A
 10
58.9532
 20
32.4199
 30
0.00000
  70
    32
  0
VERTEX
  8
0
  5
51B
 10
59.0724
 20
32.5043
 30
0.00000
  70
    32
  0
VERTEX
  8
0
  5
51C
 10
59.1915
 20
32.5889
 30
0.00000
  70
    32
  0
VERTEX
  8
0
  5
51D
 10
59.3106
 20
32.6735
 30
0.00000
  70
    32
  0
VERTEX
  8
0
  5
51E
 10
59.4295
 20
32.7583
 30
0.00000
  70
    32
  0
VERTEX
  8
0
  5
51F
 10
59.5484
 20
32.8431
 30
0.00000
  70
    32
  0
VERTEX
  8
0
  5
520
 10
59.6672
 20
32.9281
 30
0.00000
  70
    32
  0
VERTEX
  8
0
  5
521
 10
59.7860
 20
33.0132
 30
0.00000
  70
    32
  0
VERTEX
  8
0
  5
522
 10
59.9046
 20
33.0984
 30
0.00000
  70
    32
  0
VERTEX
  8
0
  5
523
 10
60.0232
 20
33.1837
 30
0.00000
  70
    32
  0
VERTEX
  8
0
  5
524
 10
60.1417
 20
33.2691
 30
0.00000
  70
    32
  0
VERTEX
  8
0
  5
525
 10
60.2601
 20
33.3546
 30
0.00000
  70
    32
  0
VERTEX
  8
0
  5
526
 10
60.3784
 20
33.4403
 30
0.00000
  70
    32
  0
VERTEX
  8
0
  5
527
 10
60.4967
 20
33.5260
 30
0.00000
  70
    32
  0
VERTEX
  8
0
  5
528
 10
60.6149
 20
33.6119
 30
0.00000
  70
    32
  0
VERTEX
  8
0
  5
529
 10
60.7330
 20
33.6978
 30
0.00000
  70
    32
  0
VERTEX
  8
0
  5
52A
 10
60.8510
 20
33.7839
 30
0.00000
  70
    32
  0
VERTEX
  8
0
  5
52B
 10
60.9689
 20
33.8701
 30
0.00000
  70
    32
  0
VERTEX
  8
0
  5
52C
 10
61.0868
 20
33.9564
 30
0.00000
  70
    32
  0
VERTEX
  8
0
  5
52D
 10
61.2046
 20
34.0428
 30
0.00000
  70
    32
  0
VERTEX
  8
0
  5
52E
 10
61.3223
 20
34.1293
 30
0.00000
  70
    32
  0
VERTEX
  8
0
  5
52F
 10
61.4399
 20
34.2159
 30
0.00000
  70
    32
  0
VERTEX
  8
0
  5
530
 10
61.5574
 20
34.3027
 30
0.00000
  70
    32
  0
VERTEX
  8
0
  5
531
 10
61.6749
 20
34.3895
 30
0.00000
  70
    32
  0
VERTEX
  8
0
  5
532
 10
61.7923
 20
34.4765
 30
0.00000
  70
    32
  0
VERTEX
  8
0
  5
533
 10
61.9096
 20
34.5635
 30
0.00000
  70
    32
  0
VERTEX
  8
0
  5
534
 10
62.0268
 20
34.6507
 30
0.00000
  70
    32
  0
VERTEX
  8
0
  5
535
 10
62.1439
 20
34.7379
 30
0.00000
  70
    32
  0
VERTEX
  8
0
  5
536
 10
62.2610
 20
34.8253
 30
0.00000
  70
    32
  0
VERTEX
  8
0
  5
537
 10
62.3780
 20
34.9128
 30
0.00000
  70
    32
  0
VERTEX
  8
0
  5
538
 10
62.4949
 20
35.0004
 30
0.00000
  70
    32
  0
VERTEX
  8
0
  5
539
 10
62.6117
 20
35.0881
 30
0.00000
  70
    32
  0
VERTEX
  8
0
  5
53A
 10
62.7284
 20
35.1759
 30
0.00000
  70
    32
  0
VERTEX
  8
0
  5
53B
 10
62.8451
 20
35.2638
 30
0.00000
  70
    32
  0
VERTEX
  8
0
  5
53C
 10
62.9617
 20
35.3518
 30
0.00000
  70
    32
  0
VERTEX
  8
0
  5
53D
 10
63.0782
 20
35.4399
 30
0.00000
  70
    32
  0
VERTEX
  8
0
  5
53E
 10
63.1946
 20
35.5281
 30
0.00000
  70
    32
  0
VERTEX
  8
0
  5
53F
 10
63.3110
 20
35.6165
 30
0.00000
  70
    32
  0
VERTEX
  8
0
  5
540
 10
63.4272
 20
35.7049
 30
0.00000
  70
    32
  0
VERTEX
  8
0
  5
541
 10
63.5434
 20
35.7934
 30
0.00000
  70
    32
  0
VERTEX
  8
0
  5
542
 10
63.6595
 20
35.8821
 30
0.00000
  70
    32
  0
VERTEX
  8
0
  5
543
 10
63.7755
 20
35.9708
 30
0.00000
  70
    32
  0
VERTEX
  8
0
  5
544
 10
63.8915
 20
36.0597
 30
0.00000
  70
    32
  0
VERTEX
  8
0
  5
545
 10
64.0073
 20
36.1486
 30
0.00000
  70
    32
  0
VERTEX
  8
0
  5
546
 10
64.1231
 20
36.2377
 30
0.00000
  70
    32
  0
VERTEX
  8
0
  5
547
 10
64.2388
 20
36.3268
 30
0.00000
  70
    32
  0
VERTEX
  8
0
  5
548
 10
64.3544
 20
36.4161
 30
0.00000
  70
    32
  0
VERTEX
  8
0
  5
549
 10
64.4700
 20
36.5055
 30
0.00000
  70
    32
  0
VERTEX
  8
0
  5
54A
 10
64.5854
 20
36.5950
 30
0.00000
  70
    32
  0
VERTEX
  8
0
  5
54B
 10
64.7008
 20
36.6845
 30
0.00000
  70
    32
  0
VERTEX
  8
0
  5
54C
 10
64.8161
 20
36.7742
 30
0.00000
  70
    32
  0
VERTEX
  8
0
  5
54D
 10
64.9313
 20
36.8640
 30
0.00000
  70
    32
  0
VERTEX
  8
0
  5
54E
 10
65.0465
 20
36.9539
 30
0.00000
  70
    32
  0
VERTEX
  8
0
  5
54F
 10
65.1615
 20
37.0439
 30
0.00000
  70
    32
  0
VERTEX
  8
0
  5
550
 10
65.2765
 20
37.1339
 30
0.00000
  70
    32
  0
VERTEX
  8
0
  5
551
 10
65.3914
 20
37.2241
 30
0.00000
  70
    32
  0
VERTEX
  8
0
  5
552
 10
65.5062
 20
37.3144
 30
0.00000
  70
    32
  0
VERTEX
  8
0
  5
553
 10
65.6209
 20
37.4048
 30
0.00000
  70
    32
  0
VERTEX
  8
0
  5
554
 10
65.7356
 20
37.4953
 30
0.00000
  70
    32
  0
VERTEX
  8
0
  5
555
 10
65.8502
 20
37.5860
 30
0.00000
  70
    32
  0
VERTEX
  8
0
  5
556
 10
65.9646
 20
37.6767
 30
0.00000
  70
    32
  0
VERTEX
  8
0
  5
557
 10
66.0790
 20
37.7675
 30
0.00000
  70
    32
  0
VERTEX
  8
0
  5
558
 10
66.1933
 20
37.8584
 30
0.00000
  70
    32
  0
VERTEX
  8
0
  5
559
 10
66.3076
 20
37.9494
 30
0.00000
  70
    32
  0
VERTEX
  8
0
  5
55A
 10
66.4217
 20
38.0406
 30
0.00000
  70
    32
  0
VERTEX
  8
0
  5
55B
 10
66.5358
 20
38.1318
 30
0.00000
  70
    32
  0
VERTEX
  8
0
  5
55C
 10
66.6497
 20
38.2231
 30
0.00000
  70
    32
  0
VERTEX
  8
0
  5
55D
 10
66.7636
 20
38.3146
 30
0.00000
  70
    32
  0
VERTEX
  8
0
  5
55E
 10
66.8774
 20
38.4061
 30
0.00000
  70
    32
  0
VERTEX
  8
0
  5
55F
 10
66.9911
 20
38.4978
 30
0.00000
  70
    32
  0
VERTEX
  8
0
  5
560
 10
67.1048
 20
38.5896
 30
0.00000
  70
    32
  0
VERTEX
  8
0
  5
561
 10
67.2183
 20
38.6814
 30
0.00000
  70
    32
  0
VERTEX
  8
0
  5
562
 10
67.3318
 20
38.7734
 30
0.00000
  70
    32
  0
VERTEX
  8
0
  5
563
 10
67.4451
 20
38.8655
 30
0.00000
  70
    32
  0
VERTEX
  8
0
  5
564
 10
67.5584
 20
38.9577
 30
0.00000
  70
    32
  0
VERTEX
  8
0
  5
565
 10
67.6716
 20
39.0500
 30
0.00000
  70
    32
  0
VERTEX
  8
0
  5
566
 10
67.7847
 20
39.1424
 30
0.00000
  70
    32
  0
VERTEX
  8
0
  5
567
 10
67.8977
 20
39.2349
 30
0.00000
  70
    32
  0
VERTEX
  8
0
  5
568
 10
68.0106
 20
39.3275
 30
0.00000
  70
    32
  0
VERTEX
  8
0
  5
569
 10
68.1235
 20
39.4202
 30
0.00000
  70
    32
  0
VERTEX
  8
0
  5
56A
 10
68.2362
 20
39.5131
 30
0.00000
  70
    32
  0
VERTEX
  8
0
  5
56B
 10
68.3488
 20
39.6060
 30
0.00000
  70
    32
  0
VERTEX
  8
0
  5
56C
 10
68.4614
 20
39.6991
 30
0.00000
  70
    32
  0
VERTEX
  8
0
  5
56D
 10
68.5739
 20
39.7922
 30
0.00000
  70
    32
  0
VERTEX
  8
0
  5
56E
 10
68.6862
 20
39.8855
 30
0.00000
  70
    32
  0
VERTEX
  8
0
  5
56F
 10
68.7985
 20
39.9789
 30
0.00000
  70
    32
  0
VERTEX
  8
0
  5
570
 10
68.9107
 20
40.0724
 30
0.00000
  70
    32
  0
VERTEX
  8
0
  5
571
 10
69.0228
 20
40.1660
 30
0.00000
  70
    32
  0
VERTEX
  8
0
  5
572
 10
69.1348
 20
40.2597
 30
0.00000
  70
    32
  0
VERTEX
  8
0
  5
573
 10
69.2467
 20
40.3535
 30
0.00000
  70
    32
  0
VERTEX
  8
0
  5
574
 10
69.3585
 20
40.4474
 30
0.00000
  70
    32
  0
VERTEX
  8
0
  5
575
 10
69.4703
 20
40.5415
 30
0.00000
  70
    32
  0
VERTEX
  8
0
  5
576
 10
69.5819
 20
40.6356
 30
0.00000
  70
    32
  0
VERTEX
  8
0
  5
577
 10
69.6934
 20
40.7299
 30
0.00000
  70
    32
  0
VERTEX
  8
0
  5
578
 10
69.8049
 20
40.8242
 30
0.00000
  70
    32
  0
VERTEX
  8
0
  5
579
 10
69.9162
 20
40.9187
 30
0.00000
  70
    32
  0
VERTEX
  8
0
  5
57A
 10
70.0275
 20
41.0133
 30
0.00000
  70
    32
  0
VERTEX
  8
0
  5
57B
 10
70.1386
 20
41.1080
 30
0.00000
  70
    32
  0
VERTEX
  8
0
  5
57C
 10
70.2497
 20
41.2028
 30
0.00000
  70
    32
  0
VERTEX
  8
0
  5
57D
 10
70.3606
 20
41.2977
 30
0.00000
  70
    32
  0
VERTEX
  8
0
  5
57E
 10
70.4715
 20
41.3928
 30
0.00000
  70
    32
  0
VERTEX
  8
0
  5
57F
 10
70.5822
 20
41.4879
 30
0.00000
  70
    32
  0
VERTEX
  8
0
  5
580
 10
70.6929
 20
41.5832
 30
0.00000
  70
    32
  0
VERTEX
  8
0
  5
581
 10
70.8035
 20
41.6786
 30
0.00000
  70
    32
  0
VERTEX
  8
0
  5
582
 10
70.9139
 20
41.7740
 30
0.00000
  70
    32
  0
VERTEX
  8
0
  5
583
 10
71.0243
 20
41.8696
 30
0.00000
  70
    32
  0
VERTEX
  8
0
  5
584
 10
71.1346
 20
41.9653
 30
0.00000
  70
    32
  0
VERTEX
  8
0
  5
585
 10
71.2448
 20
42.0612
 30
0.00000
  70
    32
  0
VERTEX
  8
0
  5
586
 10
71.3548
 20
42.1571
 30
0.00000
  70
    32
  0
VERTEX
  8
0
  5
587
 10
71.4648
 20
42.2532
 30
0.00000
  70
    32
  0
VERTEX
  8
0
  5
588
 10
71.5747
 20
42.3493
 30
0.00000
  70
    32
  0
VERTEX
  8
0
  5
589
 10
71.6844
 20
42.4456
 30
0.00000
  70
    32
  0
VERTEX
  8
0
  5
58A
 10
71.7941
 20
42.5420
 30
0.00000
  70
    32
  0
VERTEX
  8
0
  5
58B
 10
71.9037
 20
42.6385
 30
0.00000
  70
    32
  0
VERTEX
  8
0
  5
58C
 10
72.0131
 20
42.7351
 30
0.00000
  70
    32
  0
VERTEX
  8
0
  5
58D
 10
72.1225
 20
42.8319
 30
0.00000
  70
    32
  0
VERTEX
  8
0
  5
58E
 10
72.2318
 20
42.9287
 30
0.00000
  70
    32
  0
VERTEX
  8
0
  5
58F
 10
72.3409
 20
43.0257
 30
0.00000
  70
    32
  0
VERTEX
  8
0
  5
590
 10
72.4500
 20
43.1228
 30
0.00000
  70
    32
  0
VERTEX
  8
0
  5
591
 10
72.5589
 20
43.2200
 30
0.00000
  70
    32
  0
VERTEX
  8
0
  5
592
 10
72.6678
 20
43.3173
 30
0.00000
  70
    32
  0
VERTEX
  8
0
  5
593
 10
72.7765
 20
43.4147
 30
0.00000
  70
    32
  0
VERTEX
  8
0
  5
594
 10
72.8852
 20
43.5122
 30
0.00000
  70
    32
  0
VERTEX
  8
0
  5
595
 10
72.9937
 20
43.6098
 30
0.00000
  70
    32
  0
VERTEX
  8
0
  5
596
 10
73.1022
 20
43.7076
 30
0.00000
  70
    32
  0
VERTEX
  8
0
  5
597
 10
73.2106
 20
43.8054
 30
0.00000
  70
    32
  0
VERTEX
  8
0
  5
598
 10
73.3189
 20
43.9033
 30
0.00000
  70
    32
  0
VERTEX
  8
0
  5
599
 10
73.4271
 20
44.0013
 30
0.00000
  70
    32
  0
VERTEX
  8
0
  5
59A
 10
73.5352
 20
44.0994
 30
0.00000
  70
    32
  0
VERTEX
  8
0
  5
59B
 10
73.6433
 20
44.1976
 30
0.00000
  70
    32
  0
VERTEX
  8
0
  5
59C
 10
73.7513
 20
44.2959
 30
0.00000
  70
    32
  0
VERTEX
  8
0
  5
59D
 10
73.8592
 20
44.3943
 30
0.00000
  70
    32
  0
VERTEX
  8
0
  5
59E
 10
73.9670
 20
44.4927
 30
0.00000
  70
    32
  0
VERTEX
  8
0
  5
59F
 10
74.0748
 20
44.5912
 30
0.00000
  70
    32
  0
VERTEX
  8
0
  5
5A0
 10
74.1825
 20
44.6898
 30
0.00000
  70
    32
  0
VERTEX
  8
0
  5
5A1
 10
74.2902
 20
44.7884
 30
0.00000
  70
    32
  0
VERTEX
  8
0
  5
5A2
 10
74.3978
 20
44.8871
 30
0.00000
  70
    32
  0
VERTEX
  8
0
  5
5A3
 10
74.5053
 20
44.9859
 30
0.00000
  70
    32
  0
VERTEX
  8
0
  5
5A4
 10
74.6128
 20
45.0847
 30
0.00000
  70
    32
  0
VERTEX
  8
0
  5
5A5
 10
74.7202
 20
45.1836
 30
0.00000
  70
    32
  0
VERTEX
  8
0
  5
5A6
 10
74.8276
 20
45.2826
 30
0.00000
  70
    32
  0
VERTEX
  8
0
  5
5A7
 10
74.9349
 20
45.3816
 30
0.00000
  70
    32
  0
VERTEX
  8
0
  5
5A8
 10
75.0422
 20
45.4806
 30
0.00000
  70
    32
  0
VERTEX
  8
0
  5
5A9
 10
75.1495
 20
45.5797
 30
0.00000
  70
    32
  0
VERTEX
  8
0
  5
5AA
 10
75.2567
 20
45.6788
 30
0.00000
  70
    32
  0
VERTEX
  8
0
  5
5AB
 10
75.3639
 20
45.7780
 30
0.00000
  70
    32
  0
VERTEX
  8
0
  5
5AC
 10
75.4710
 20
45.8772
 30
0.00000
  70
    32
  0
VERTEX
  8
0
  5
5AD
 10
75.5781
 20
45.9764
 30
0.00000
  70
    32
  0
VERTEX
  8
0
  5
5AE
 10
75.6852
 20
46.0757
 30
0.00000
  70
    32
  0
VERTEX
  8
0
  5
5AF
 10
75.7923
 20
46.1750
 30
0.00000
  70
    32
  0
VERTEX
  8
0
  5
5B0
 10
75.8993
 20
46.2743
 30
0.00000
  70
    32
  0
VERTEX
  8
0
  5
5B1
 10
76.0064
 20
46.3736
 30
0.00000
  70
    32
  0
VERTEX
  8
0
  5
5B2
 10
76.1134
 20
46.4730
 30
0.00000
  70
    32
  0
VERTEX
  8
0
  5
5B3
 10
76.2204
 20
46.5723
 30
0.00000
  70
    32
  0
VERTEX
  8
0
  5
5B4
 10
76.3274
 20
46.6717
 30
0.00000
  70
    32
  0
VERTEX
  8
0
  5
5B5
 10
76.4343
 20
46.7711
 30
0.00000
  70
    32
  0
VERTEX
  8
0
  5
5B6
 10
76.5413
 20
46.8705
 30
0.00000
  70
    32
  0
VERTEX
  8
0
  5
5B7
 10
76.6483
 20
46.9699
 30
0.00000
  70
    32
  0
VERTEX
  8
0
  5
5B8
 10
76.9768
 20
46.5622
 30
0.00000
  70
    32
  0
VERTEX
  8
0
  5
5B9
 10
77.3448
 20
46.0641
 30
0.00000
  70
    32
  0
VERTEX
  8
0
  5
5BA
 10
77.7128
 20
45.5660
 30
0.00000
  70
    32
  0
VERTEX
  8
0
  5
5BB
 10
78.0807
 20
45.0679
 30
0.00000
  70
    32
  0
VERTEX
  8
0
  5
5BC
 10
78.4487
 20
44.5699
 30
0.00000
  70
    32
  0
VERTEX
  8
0
  5
5BD
 10
78.8167
 20
44.0718
 30
0.00000
  70
    32
  0
VERTEX
  8
0
  5
5BE
 10
79.1847
 20
43.5737
 30
0.00000
  70
    32
  0
SEQEND
  8
0
  5
5BF
  0
INSERT
  5
1F6
  8
0
  2
*U5
 10
0.0
 20
0.0
 30
0.0
  0
CIRCLE
  5
1F7
  8
DRILLING
 10
39.5487615223591504
 20
13.7886032367778597
 30
0.0
 40
0.3224999999999999
  0
CIRCLE
  5
1F8
  8
DRILLING
 10
34.4404116610132291
 20
10.6414201003704392
 30
0.0
 40
0.3224999999999999
  0
POLYLINE
  5
1F9
  8
CUT_SHEET
 66
     1
 10
0.0
 20
0.0
 30
0.0
 70
     1
  0
VERTEX
  5
271
  8
CUT_SHEET
 10
3.8584124661974211
 20
47.609193910254632
 30
0.0
  0
VERTEX
  5
272
  8
CUT_SHEET
 10
3.8584124661974211
 20
1.6091939102546391
 30
0.0
  0
VERTEX
  5
273
  8
CUT_SHEET
 10
97.8584124661974215
 20
1.6091939102546391
 30
0.0
  0
VERTEX
  5
274
  8
CUT_SHEET
 10
97.8584124661974215
 20
47.609193910254632
 30
0.0
  0
SEQEND
  5
275
  8
CUT_SHEET
  0
POLYLINE
  8
0
  5
5C0
  66
     1
 10
0.00000
 20
0.00000
 30
0.00000
  70
     8
  0
VERTEX
  8
0
  5
5C1
 10
46.0503
 20
6.22080
 30
0.00000
  70
    32
  0
VERTEX
  8
0
  5
5C2
 10
46.1476
 20
6.31964
 30
0.00000
  70
    32
  0
VERTEX
  8
0
  5
5C3
 10
46.2448
 20
6.41848
 30
0.00000
  70
    32
  0
VERTEX
  8
0
  5
5C4
 10
46.3421
 20
6.51732
 30
0.00000
  70
    32
  0
VERTEX
  8
0
  5
5C5
 10
46.4394
 20
6.61616
 30
0.00000
  70
    32
  0
VERTEX
  8
0
  5
5C6
 10
46.5366
 20
6.71500
 30
0.00000
  70
    32
  0
VERTEX
  8
0
  5
5C7
 10
46.6339
 20
6.81383
 30
0.00000
  70
    32
  0
VERTEX
  8
0
  5
5C8
 10
46.7311
 20
6.91266
 30
0.00000
  70
    32
  0
VERTEX
  8
0
  5
5C9
 10
46.8284
 20
7.01149
 30
0.00000
  70
    32
  0
VERTEX
  8
0
  5
5CA
 10
46.9257
 20
7.11030
 30
0.00000
  70
    32
  0
VERTEX
  8
0
  5
5CB
 10
47.0230
 20
7.20912
 30
0.00000
  70
    32
  0
VERTEX
  8
0
  5
5CC
 10
47.1203
 20
7.30792
 30
0.00000
  70
    32
  0
VERTEX
  8
0
  5
5CD
 10
47.2176
 20
7.40672
 30
0.00000
  70
    32
  0
VERTEX
  8
0
  5
5CE
 10
47.3149
 20
7.50551
 30
0.00000
  70
    32
  0
VERTEX
  8
0
  5
5CF
 10
47.4122
 20
7.60430
 30
0.00000
  70
    32
  0
VERTEX
  8
0
  5
5D0
 10
47.5095
 20
7.70307
 30
0.00000
  70
    32
  0
VERTEX
  8
0
  5
5D1
 10
47.6068
 20
7.80183
 30
0.00000
  70
    32
  0
VERTEX
  8
0
  5
5D2
 10
47.7042
 20
7.90058
 30
0.00000
  70
    32
  0
VERTEX
  8
0
  5
5D3
 10
47.8015
 20
7.99932
 30
0.00000
  70
    32
  0
VERTEX
  8
0
  5
5D4
 10
47.8989
 20
8.09805
 30
0.00000
  70
    32
  0
VERTEX
  8
0
  5
5D5
 10
47.9963
 20
8.19677
 30
0.00000
  70
    32
  0
VERTEX
  8
0
  5
5D6
 10
48.0937
 20
8.29547
 30
0.00000
  70
    32
  0
VERTEX
  8
0
  5
5D7
 10
48.1911
 20
8.39416
 30
0.00000
  70
    32
  0
VERTEX
  8
0
  5
5D8
 10
48.2885
 20
8.49283
 30
0.00000
  70
    32
  0
VERTEX
  8
0
  5
5D9
 10
48.3860
 20
8.59149
 30
0.00000
  70
    32
  0
VERTEX
  8
0
  5
5DA
 10
48.4834
 20
8.69013
 30
0.00000
  70
    32
  0
VERTEX
  8
0
  5
5DB
 10
48.5809
 20
8.78875
 30
0.00000
  70
    32
  0
VERTEX
  8
0
  5
5DC
 10
48.6784
 20
8.88736
 30
0.00000
  70
    32
  0
VERTEX
  8
0
  5
5DD
 10
48.7759
 20
8.98595
 30
0.00000
  70
    32
  0
VERTEX
  8
0
  5
5DE
 10
48.8734
 20
9.08452
 30
0.00000
  70
    32
  0
VERTEX
  8
0
  5
5DF
 10
48.9709
 20
9.18307
 30
0.00000
  70
    32
  0
VERTEX
  8
0
  5
5E0
 10
49.0685
 20
9.28160
 30
0.00000
  70
    32
  0
VERTEX
  8
0
  5
5E1
 10
49.1661
 20
9.38011
 30
0.00000
  70
    32
  0
VERTEX
  8
0
  5
5E2
 10
49.2637
 20
9.47860
 30
0.00000
  70
    32
  0
VERTEX
  8
0
  5
5E3
 10
49.3613
 20
9.57707
 30
0.00000
  70
    32
  0
VERTEX
  8
0
  5
5E4
 10
49.4589
 20
9.67551
 30
0.00000
  70
    32
  0
VERTEX
  8
0
  5
5E5
 10
49.5566
 20
9.77393
 30
0.00000
  70
    32
  0
VERTEX
  8
0
  5
5E6
 10
49.6543
 20
9.87232
 30
0.00000
  70
    32
  0
VERTEX
  8
0
  5
5E7
 10
49.7520
 20
9.97070
 30
0.00000
  70
    32
  0
VERTEX
  8
0
  5
5E8
 10
49.8498
 20
10.0690
 30
0.00000
  70
    32
  0
VERTEX
  8
0
  5
5E9
 10
49.9475
 20
10.1674
 30
0.00000
  70
    32
  0
VERTEX
  8
0
  5
5EA
 10
50.0453
 20
10.2657
 30
0.00000
  70
    32
  0
VERTEX
  8
0
  5
5EB
 10
50.1432
 20
10.3639
 30
0.00000
  70
    32
  0
VERTEX
  8
0
  5
5EC
 10
50.2410
 20
10.4622
 30
0.00000
  70
    32
  0
VERTEX
  8
0
  5
5ED
 10
50.3389
 20
10.5604
 30
0.00000
  70
    32
  0
VERTEX
  8
0
  5
5EE
 10
50.4368
 20
10.6585
 30
0.00000
  70
    32
  0
VERTEX
  8
0
  5
5EF
 10
50.5347
 20
10.7567
 30
0.00000
  70
    32
  0
VERTEX
  8
0
  5
5F0
 10
50.6327
 20
10.8548
 30
0.00000
  70
    32
  0
VERTEX
  8
0
  5
5F1
 10
50.7307
 20
10.9529
 30
0.00000
  70
    32
  0
VERTEX
  8
0
  5
5F2
 10
50.8287
 20
11.0509
 30
0.00000
  70
    32
  0
VERTEX
  8
0
  5
5F3
 10
50.9268
 20
11.1490
 30
0.00000
  70
    32
  0
VERTEX
  8
0
  5
5F4
 10
51.0249
 20
11.2469
 30
0.00000
  70
    32
  0
VERTEX
  8
0
  5
5F5
 10
51.1230
 20
11.3449
 30
0.00000
  70
    32
  0
VERTEX
  8
0
  5
5F6
 10
51.2212
 20
11.4428
 30
0.00000
  70
    32
  0
VERTEX
  8
0
  5
5F7
 10
51.3194
 20
11.5407
 30
0.00000
  70
    32
  0
VERTEX
  8
0
  5
5F8
 10
51.4176
 20
11.6385
 30
0.00000
  70
    32
  0
VERTEX
  8
0
  5
5F9
 10
51.5159
 20
11.7364
 30
0.00000
  70
    32
  0
VERTEX
  8
0
  5
5FA
 10
51.6142
 20
11.8341
 30
0.00000
  70
    32
  0
VERTEX
  8
0
  5
5FB
 10
51.7125
 20
11.9319
 30
0.00000
  70
    32
  0
VERTEX
  8
0
  5
5FC
 10
51.8109
 20
12.0295
 30
0.00000
  70
    32
  0
VERTEX
  8
0
  5
5FD
 10
51.9093
 20
12.1272
 30
0.00000
  70
    32
  0
VERTEX
  8
0
  5
5FE
 10
52.0078
 20
12.2248
 30
0.00000
  70
    32
  0
VERTEX
  8
0
  5
5FF
 10
52.1063
 20
12.3224
 30
0.00000
  70
    32
  0
VERTEX
  8
0
  5
600
 10
52.2048
 20
12.4199
 30
0.00000
  70
    32
  0
VERTEX
  8
0
  5
601
 10
52.3034
 20
12.5174
 30
0.00000
  70
    32
  0
VERTEX
  8
0
  5
602
 10
52.4021
 20
12.6149
 30
0.00000
  70
    32
  0
VERTEX
  8
0
  5
603
 10
52.5007
 20
12.7123
 30
0.00000
  70
    32
  0
VERTEX
  8
0
  5
604
 10
52.5994
 20
12.8096
 30
0.00000
  70
    32
  0
VERTEX
  8
0
  5
605
 10
52.6982
 20
12.9069
 30
0.00000
  70
    32
  0
VERTEX
  8
0
  5
606
 10
52.7970
 20
13.0042
 30
0.00000
  70
    32
  0
VERTEX
  8
0
  5
607
 10
52.8959
 20
13.1014
 30
0.00000
  70
    32
  0
VERTEX
  8
0
  5
608
 10
52.9947
 20
13.1986
 30
0.00000
  70
    32
  0
VERTEX
  8
0
  5
609
 10
53.0937
 20
13.2957
 30
0.00000
  70
    32
  0
VERTEX
  8
0
  5
60A
 10
53.1927
 20
13.3928
 30
0.00000
  70
    32
  0
VERTEX
  8
0
  5
60B
 10
53.2917
 20
13.4898
 30
0.00000
  70
    32
  0
VERTEX
  8
0
  5
60C
 10
53.3908
 20
13.5868
 30
0.00000
  70
    32
  0
VERTEX
  8
0
  5
60D
 10
53.4899
 20
13.6837
 30
0.00000
  70
    32
  0
VERTEX
  8
0
  5
60E
 10
53.5891
 20
13.7806
 30
0.00000
  70
    32
  0
VERTEX
  8
0
  5
60F
 10
53.6884
 20
13.8774
 30
0.00000
  70
    32
  0
VERTEX
  8
0
  5
610
 10
53.7876
 20
13.9742
 30
0.00000
  70
    32
  0
VERTEX
  8
0
  5
611
 10
53.8870
 20
14.0709
 30
0.00000
  70
    32
  0
VERTEX
  8
0
  5
612
 10
53.9864
 20
14.1676
 30
0.00000
  70
    32
  0
VERTEX
  8
0
  5
613
 10
54.0858
 20
14.2642
 30
0.00000
  70
    32
  0
VERTEX
  8
0
  5
614
 10
54.1853
 20
14.3608
 30
0.00000
  70
    32
  0
VERTEX
  8
0
  5
615
 10
54.2849
 20
14.4573
 30
0.00000
  70
    32
  0
VERTEX
  8
0
  5
616
 10
54.3845
 20
14.5537
 30
0.00000
  70
    32
  0
VERTEX
  8
0
  5
617
 10
54.4841
 20
14.6501
 30
0.00000
  70
    32
  0
VERTEX
  8
0
  5
618
 10
54.5839
 20
14.7464
 30
0.00000
  70
    32
  0
VERTEX
  8
0
  5
619
 10
54.6836
 20
14.8427
 30
0.00000
  70
    32
  0
VERTEX
  8
0
  5
61A
 10
54.7834
 20
14.9389
 30
0.00000
  70
    32
  0
VERTEX
  8
0
  5
61B
 10
54.8833
 20
15.0351
 30
0.00000
  70
    32
  0
VERTEX
  8
0
  5
61C
 10
54.9832
 20
15.1312
 30
0.00000
  70
    32
  0
VERTEX
  8
0
  5
61D
 10
55.0832
 20
15.2273
 30
0.00000
  70
    32
  0
VERTEX
  8
0
  5
61E
 10
55.1833
 20
15.3233
 30
0.00000
  70
    32
  0
VERTEX
  8
0
  5
61F
 10
55.2833
 20
15.4193
 30
0.00000
  70
    32
  0
VERTEX
  8
0
  5
620
 10
55.3835
 20
15.5152
 30
0.00000
  70
    32
  0
VERTEX
  8
0
  5
621
 10
55.4837
 20
15.6110
 30
0.00000
  70
    32
  0
VERTEX
  8
0
  5
622
 10
55.5839
 20
15.7068
 30
0.00000
  70
    32
  0
VERTEX
  8
0
  5
623
 10
55.6842
 20
15.8025
 30
0.00000
  70
    32
  0
VERTEX
  8
0
  5
624
 10
55.7846
 20
15.8982
 30
0.00000
  70
    32
  0
VERTEX
  8
0
  5
625
 10
55.8850
 20
15.9939
 30
0.00000
  70
    32
  0
VERTEX
  8
0
  5
626
 10
55.9854
 20
16.0894
 30
0.00000
  70
    32
  0
VERTEX
  8
0
  5
627
 10
56.0859
 20
16.1849
 30
0.00000
  70
    32
  0
VERTEX
  8
0
  5
628
 10
56.1865
 20
16.2804
 30
0.00000
  70
    32
  0
VERTEX
  8
0
  5
629
 10
56.2871
 20
16.3758
 30
0.00000
  70
    32
  0
VERTEX
  8
0
  5
62A
 10
56.3878
 20
16.4712
 30
0.00000
  70
    32
  0
VERTEX
  8
0
  5
62B
 10
56.4885
 20
16.5665
 30
0.00000
  70
    32
  0
VERTEX
  8
0
  5
62C
 10
56.5892
 20
16.6617
 30
0.00000
  70
    32
  0
VERTEX
  8
0
  5
62D
 10
56.6901
 20
16.7569
 30
0.00000
  70
    32
  0
VERTEX
  8
0
  5
62E
 10
56.7909
 20
16.8521
 30
0.00000
  70
    32
  0
VERTEX
  8
0
  5
62F
 10
56.8918
 20
16.9472
 30
0.00000
  70
    32
  0
VERTEX
  8
0
  5
630
 10
56.9928
 20
17.0422
 30
0.00000
  70
    32
  0
VERTEX
  8
0
  5
631
 10
57.0938
 20
17.1372
 30
0.00000
  70
    32
  0
VERTEX
  8
0
  5
632
 10
57.1949
 20
17.2321
 30
0.00000
  70
    32
  0
VERTEX
  8
0
  5
633
 10
57.2960
 20
17.3270
 30
0.00000
  70
    32
  0
VERTEX
  8
0
  5
634
 10
57.3972
 20
17.4218
 30
0.00000
  70
    32
  0
VERTEX
  8
0
  5
635
 10
57.4984
 20
17.5166
 30
0.00000
  70
    32
  0
VERTEX
  8
0
  5
636
 10
57.5997
 20
17.6113
 30
0.00000
  70
    32
  0
VERTEX
  8
0
  5
637
 10
57.7010
 20
17.7060
 30
0.00000
  70
    32
  0
VERTEX
  8
0
  5
638
 10
57.8024
 20
17.8006
 30
0.00000
  70
    32
  0
VERTEX
  8
0
  5
639
 10
57.9038
 20
17.8952
 30
0.00000
  70
    32
  0
VERTEX
  8
0
  5
63A
 10
58.0053
 20
17.9897
 30
0.00000
  70
    32
  0
VERTEX
  8
0
  5
63B
 10
58.1068
 20
18.0841
 30
0.00000
  70
    32
  0
VERTEX
  8
0
  5
63C
 10
58.2084
 20
18.1785
 30
0.00000
  70
    32
  0
VERTEX
  8
0
  5
63D
 10
58.3100
 20
18.2729
 30
0.00000
  70
    32
  0
VERTEX
  8
0
  5
63E
 10
58.4117
 20
18.3671
 30
0.00000
  70
    32
  0
VERTEX
  8
0
  5
63F
 10
58.5134
 20
18.4614
 30
0.00000
  70
    32
  0
VERTEX
  8
0
  5
640
 10
58.6152
 20
18.5556
 30
0.00000
  70
    32
  0
VERTEX
  8
0
  5
641
 10
58.7170
 20
18.6497
 30
0.00000
  70
    32
  0
VERTEX
  8
0
  5
642
 10
58.8189
 20
18.7438
 30
0.00000
  70
    32
  0
VERTEX
  8
0
  5
643
 10
58.9208
 20
18.8378
 30
0.00000
  70
    32
  0
VERTEX
  8
0
  5
644
 10
59.0228
 20
18.9318
 30
0.00000
  70
    32
  0
VERTEX
  8
0
  5
645
 10
59.1248
 20
19.0257
 30
0.00000
  70
    32
  0
VERTEX
  8
0
  5
646
 10
59.2269
 20
19.1196
 30
0.00000
  70
    32
  0
VERTEX
  8
0
  5
647
 10
59.3290
 20
19.2134
 30
0.00000
  70
    32
  0
VERTEX
  8
0
  5
648
 10
59.4311
 20
19.3072
 30
0.00000
  70
    32
  0
VERTEX
  8
0
  5
649
 10
59.5333
 20
19.4009
 30
0.00000
  70
    32
  0
VERTEX
  8
0
  5
64A
 10
59.6356
 20
19.4946
 30
0.00000
  70
    32
  0
VERTEX
  8
0
  5
64B
 10
59.7379
 20
19.5882
 30
0.00000
  70
    32
  0
VERTEX
  8
0
  5
64C
 10
59.8403
 20
19.6817
 30
0.00000
  70
    32
  0
VERTEX
  8
0
  5
64D
 10
59.9427
 20
19.7752
 30
0.00000
  70
    32
  0
VERTEX
  8
0
  5
64E
 10
60.0451
 20
19.8687
 30
0.00000
  70
    32
  0
VERTEX
  8
0
  5
64F
 10
60.1476
 20
19.9621
 30
0.00000
  70
    32
  0
VERTEX
  8
0
  5
650
 10
60.2502
 20
20.0555
 30
0.00000
  70
    32
  0
VERTEX
  8
0
  5
651
 10
60.3528
 20
20.1488
 30
0.00000
  70
    32
  0
VERTEX
  8
0
  5
652
 10
60.4554
 20
20.2420
 30
0.00000
  70
    32
  0
VERTEX
  8
0
  5
653
 10
60.5581
 20
20.3352
 30
0.00000
  70
    32
  0
VERTEX
  8
0
  5
654
 10
60.6608
 20
20.4284
 30
0.00000
  70
    32
  0
VERTEX
  8
0
  5
655
 10
60.7636
 20
20.5214
 30
0.00000
  70
    32
  0
VERTEX
  8
0
  5
656
 10
60.8664
 20
20.6145
 30
0.00000
  70
    32
  0
VERTEX
  8
0
  5
657
 10
60.9693
 20
20.7075
 30
0.00000
  70
    32
  0
VERTEX
  8
0
  5
658
 10
61.0722
 20
20.8004
 30
0.00000
  70
    32
  0
VERTEX
  8
0
  5
659
 10
61.1752
 20
20.8933
 30
0.00000
  70
    32
  0
VERTEX
  8
0
  5
65A
 10
61.2782
 20
20.9861
 30
0.00000
  70
    32
  0
VERTEX
  8
0
  5
65B
 10
61.3813
 20
21.0789
 30
0.00000
  70
    32
  0
VERTEX
  8
0
  5
65C
 10
61.4844
 20
21.1717
 30
0.00000
  70
    32
  0
VERTEX
  8
0
  5
65D
 10
61.5875
 20
21.2644
 30
0.00000
  70
    32
  0
VERTEX
  8
0
  5
65E
 10
61.6907
 20
21.3570
 30
0.00000
  70
    32
  0
VERTEX
  8
0
  5
65F
 10
61.7940
 20
21.4496
 30
0.00000
  70
    32
  0
VERTEX
  8
0
  5
660
 10
61.8973
 20
21.5421
 30
0.00000
  70
    32
  0
VERTEX
  8
0
  5
661
 10
62.0006
 20
21.6346
 30
0.00000
  70
    32
  0
VERTEX
  8
0
  5
662
 10
62.1040
 20
21.7270
 30
0.00000
  70
    32
  0
VERTEX
  8
0
  5
663
 10
62.2074
 20
21.8194
 30
0.00000
  70
    32
  0
VERTEX
  8
0
  5
664
 10
62.3109
 20
21.9117
 30
0.00000
  70
    32
  0
VERTEX
  8
0
  5
665
 10
62.4144
 20
22.0040
 30
0.00000
  70
    32
  0
VERTEX
  8
0
  5
666
 10
62.5180
 20
22.0962
 30
0.00000
  70
    32
  0
VERTEX
  8
0
  5
667
 10
62.6216
 20
22.1884
 30
0.00000
  70
    32
  0
VERTEX
  8
0
  5
668
 10
62.7253
 20
22.2805
 30
0.00000
  70
    32
  0
VERTEX
  8
0
  5
669
 10
62.8290
 20
22.3726
 30
0.00000
  70
    32
  0
VERTEX
  8
0
  5
66A
 10
62.9327
 20
22.4646
 30
0.00000
  70
    32
  0
VERTEX
  8
0
  5
66B
 10
63.0365
 20
22.5566
 30
0.00000
  70
    32
  0
VERTEX
  8
0
  5
66C
 10
63.1403
 20
22.6485
 30
0.00000
  70
    32
  0
VERTEX
  8
0
  5
66D
 10
63.2442
 20
22.7404
 30
0.00000
  70
    32
  0
VERTEX
  8
0
  5
66E
 10
63.3482
 20
22.8322
 30
0.00000
  70
    32
  0
VERTEX
  8
0
  5
66F
 10
63.4521
 20
22.9240
 30
0.00000
  70
    32
  0
VERTEX
  8
0
  5
670
 10
63.5561
 20
23.0157
 30
0.00000
  70
    32
  0
VERTEX
  8
0
  5
671
 10
63.6602
 20
23.1074
 30
0.00000
  70
    32
  0
VERTEX
  8
0
  5
672
 10
63.7643
 20
23.1990
 30
0.00000
  70
    32
  0
VERTEX
  8
0
  5
673
 10
63.8684
 20
23.2906
 30
0.00000
  70
    32
  0
VERTEX
  8
0
  5
674
 10
63.9726
 20
23.3821
 30
0.00000
  70
    32
  0
VERTEX
  8
0
  5
675
 10
64.0769
 20
23.4736
 30
0.00000
  70
    32
  0
VERTEX
  8
0
  5
676
 10
64.1811
 20
23.5650
 30
0.00000
  70
    32
  0
VERTEX
  8
0
  5
677
 10
64.2854
 20
23.6564
 30
0.00000
  70
    32
  0
VERTEX
  8
0
  5
678
 10
64.3898
 20
23.7477
 30
0.00000
  70
    32
  0
VERTEX
  8
0
  5
679
 10
64.4942
 20
23.8390
 30
0.00000
  70
    32
  0
VERTEX
  8
0
  5
67A
 10
64.5987
 20
23.9302
 30
0.00000
  70
    32
  0
VERTEX
  8
0
  5
67B
 10
64.7032
 20
24.0214
 30
0.00000
  70
    32
  0
VERTEX
  8
0
  5
67C
 10
64.8077
 20
24.1125
 30
0.00000
  70
    32
  0
VERTEX
  8
0
  5
67D
 10
64.9123
 20
24.2036
 30
0.00000
  70
    32
  0
VERTEX
  8
0
  5
67E
 10
65.0169
 20
24.2946
 30
0.00000
  70
    32
  0
VERTEX
  8
0
  5
67F
 10
65.1216
 20
24.3856
 30
0.00000
  70
    32
  0
VERTEX
  8
0
  5
680
 10
65.2263
 20
24.4765
 30
0.00000
  70
    32
  0
VERTEX
  8
0
  5
681
 10
65.3310
 20
24.5674
 30
0.00000
  70
    32
  0
VERTEX
  8
0
  5
682
 10
65.4358
 20
24.6582
 30
0.00000
  70
    32
  0
VERTEX
  8
0
  5
683
 10
65.5406
 20
24.7490
 30
0.00000
  70
    32
  0
VERTEX
  8
0
  5
684
 10
65.6455
 20
24.8397
 30
0.00000
  70
    32
  0
VERTEX
  8
0
  5
685
 10
65.7505
 20
24.9304
 30
0.00000
  70
    32
  0
VERTEX
  8
0
  5
686
 10
65.8554
 20
25.0210
 30
0.00000
  70
    32
  0
VERTEX
  8
0
  5
687
 10
65.9604
 20
25.1116
 30
0.00000
  70
    32
  0
VERTEX
  8
0
  5
688
 10
66.0655
 20
25.2021
 30
0.00000
  70
    32
  0
VERTEX
  8
0
  5
689
 10
66.1706
 20
25.2926
 30
0.00000
  70
    32
  0
VERTEX
  8
0
  5
68A
 10
66.2757
 20
25.3830
 30
0.00000
  70
    32
  0
VERTEX
  8
0
  5
68B
 10
66.3809
 20
25.4733
 30
0.00000
  70
    32
  0
VERTEX
  8
0
  5
68C
 10
66.4862
 20
25.5637
 30
0.00000
  70
    32
  0
VERTEX
  8
0
  5
68D
 10
66.5914
 20
25.6539
 30
0.00000
  70
    32
  0
VERTEX
  8
0
  5
68E
 10
66.6968
 20
25.7441
 30
0.00000
  70
    32
  0
VERTEX
  8
0
  5
68F
 10
66.8021
 20
25.8343
 30
0.00000
  70
    32
  0
VERTEX
  8
0
  5
690
 10
66.9075
 20
25.9244
 30
0.00000
  70
    32
  0
VERTEX
  8
0
  5
691
 10
67.0130
 20
26.0145
 30
0.00000
  70
    32
  0
VERTEX
  8
0
  5
692
 10
67.1185
 20
26.1045
 30
0.00000
  70
    32
  0
VERTEX
  8
0
  5
693
 10
67.2240
 20
26.1944
 30
0.00000
  70
    32
  0
VERTEX
  8
0
  5
694
 10
67.3296
 20
26.2843
 30
0.00000
  70
    32
  0
VERTEX
  8
0
  5
695
 10
67.4352
 20
26.3742
 30
0.00000
  70
    32
  0
VERTEX
  8
0
  5
696
 10
67.5409
 20
26.4640
 30
0.00000
  70
    32
  0
VERTEX
  8
0
  5
697
 10
67.6466
 20
26.5537
 30
0.00000
  70
    32
  0
VERTEX
  8
0
  5
698
 10
67.7524
 20
26.6434
 30
0.00000
  70
    32
  0
VERTEX
  8
0
  5
699
 10
67.8582
 20
26.7331
 30
0.00000
  70
    32
  0
VERTEX
  8
0
  5
69A
 10
67.9640
 20
26.8226
 30
0.00000
  70
    32
  0
VERTEX
  8
0
  5
69B
 10
68.0699
 20
26.9122
 30
0.00000
  70
    32
  0
VERTEX
  8
0
  5
69C
 10
68.1759
 20
27.0017
 30
0.00000
  70
    32
  0
VERTEX
  8
0
  5
69D
 10
68.2818
 20
27.0911
 30
0.00000
  70
    32
  0
VERTEX
  8
0
  5
69E
 10
68.3879
 20
27.1805
 30
0.00000
  70
    32
  0
VERTEX
  8
0
  5
69F
 10
68.4939
 20
27.2698
 30
0.00000
  70
    32
  0
VERTEX
  8
0
  5
6A0
 10
68.6001
 20
27.3591
 30
0.00000
  70
    32
  0
VERTEX
  8
0
  5
6A1
 10
68.7062
 20
27.4483
 30
0.00000
  70
    32
  0
VERTEX
  8
0
  5
6A2
 10
68.8124
 20
27.5374
 30
0.00000
  70
    32
  0
VERTEX
  8
0
  5
6A3
 10
68.9187
 20
27.6266
 30
0.00000
  70
    32
  0
VERTEX
  8
0
  5
6A4
 10
69.0250
 20
27.7156
 30
0.00000
  70
    32
  0
VERTEX
  8
0
  5
6A5
 10
69.1313
 20
27.8046
 30
0.00000
  70
    32
  0
VERTEX
  8
0
  5
6A6
 10
69.2377
 20
27.8936
 30
0.00000
  70
    32
  0
VERTEX
  8
0
  5
6A7
 10
69.3441
 20
27.9825
 30
0.00000
  70
    32
  0
VERTEX
  8
0
  5
6A8
 10
69.4506
 20
28.0713
 30
0.00000
  70
    32
  0
VERTEX
  8
0
  5
6A9
 10
69.5571
 20
28.1601
 30
0.00000
  70
    32
  0
VERTEX
  8
0
  5
6AA
 10
69.6636
 20
28.2488
 30
0.00000
  70
    32
  0
VERTEX
  8
0
  5
6AB
 10
69.7703
 20
28.3375
 30
0.00000
  70
    32
  0
VERTEX
  8
0
  5
6AC
 10
69.8769
 20
28.4261
 30
0.00000
  70
    32
  0
VERTEX
  8
0
  5
6AD
 10
69.9836
 20
28.5147
 30
0.00000
  70
    32
  0
VERTEX
  8
0
  5
6AE
 10
70.0903
 20
28.6032
 30
0.00000
  70
    32
  0
VERTEX
  8
0
  5
6AF
 10
70.1971
 20
28.6917
 30
0.00000
  70
    32
  0
VERTEX
  8
0
  5
6B0
 10
70.3040
 20
28.7801
 30
0.00000
  70
    32
  0
VERTEX
  8
0
  5
6B1
 10
70.4108
 20
28.8685
 30
0.00000
  70
    32
  0
VERTEX
  8
0
  5
6B2
 10
70.5178
 20
28.9568
 30
0.00000
  70
    32
  0
VERTEX
  8
0
  5
6B3
 10
70.6247
 20
29.0450
 30
0.00000
  70
    32
  0
VERTEX
  8
0
  5
6B4
 10
70.7317
 20
29.1332
 30
0.00000
  70
    32
  0
VERTEX
  8
0
  5
6B5
 10
70.8388
 20
29.2213
 30
0.00000
  70
    32
  0
VERTEX
  8
0
  5
6B6
 10
70.9459
 20
29.3094
 30
0.00000
  70
    32
  0
VERTEX
  8
0
  5
6B7
 10
71.0530
 20
29.3975
 30
0.00000
  70
    32
  0
VERTEX
  8
0
  5
6B8
 10
71.1602
 20
29.4854
 30
0.00000
  70
    32
  0
VERTEX
  8
0
  5
6B9
 10
71.2675
 20
29.5733
 30
0.00000
  70
    32
  0
VERTEX
  8
0
  5
6BA
 10
71.3747
 20
29.6612
 30
0.00000
  70
    32
  0
VERTEX
  8
0
  5
6BB
 10
71.4821
 20
29.7490
 30
0.00000
  70
    32
  0
VERTEX
  8
0
  5
6BC
 10
71.5894
 20
29.8368
 30
0.00000
  70
    32
  0
VERTEX
  8
0
  5
6BD
 10
71.6969
 20
29.9245
 30
0.00000
  70
    32
  0
VERTEX
  8
0
  5
6BE
 10
71.8043
 20
30.0121
 30
0.00000
  70
    32
  0
VERTEX
  8
0
  5
6BF
 10
71.9118
 20
30.0997
 30
0.00000
  70
    32
  0
VERTEX
  8
0
  5
6C0
 10
72.0194
 20
30.1872
 30
0.00000
  70
    32
  0
VERTEX
  8
0
  5
6C1
 10
72.1270
 20
30.2747
 30
0.00000
  70
    32
  0
VERTEX
  8
0
  5
6C2
 10
72.2346
 20
30.3621
 30
0.00000
  70
    32
  0
VERTEX
  8
0
  5
6C3
 10
72.3423
 20
30.4494
 30
0.00000
  70
    32
  0
VERTEX
  8
0
  5
6C4
 10
72.4500
 20
30.5367
 30
0.00000
  70
    32
  0
VERTEX
  8
0
  5
6C5
 10
72.5578
 20
30.6240
 30
0.00000
  70
    32
  0
VERTEX
  8
0
  5
6C6
 10
72.6657
 20
30.7112
 30
0.00000
  70
    32
  0
VERTEX
  8
0
  5
6C7
 10
72.7735
 20
30.7983
 30
0.00000
  70
    32
  0
VERTEX
  8
0
  5
6C8
 10
72.8814
 20
30.8854
 30
0.00000
  70
    32
  0
VERTEX
  8
0
  5
6C9
 10
72.9894
 20
30.9724
 30
0.00000
  70
    32
  0
VERTEX
  8
0
  5
6CA
 10
73.0974
 20
31.0594
 30
0.00000
  70
    32
  0
VERTEX
  8
0
  5
6CB
 10
73.2055
 20
31.1463
 30
0.00000
  70
    32
  0
VERTEX
  8
0
  5
6CC
 10
73.3136
 20
31.2331
 30
0.00000
  70
    32
  0
VERTEX
  8
0
  5
6CD
 10
73.4217
 20
31.3199
 30
0.00000
  70
    32
  0
VERTEX
  8
0
  5
6CE
 10
73.5299
 20
31.4067
 30
0.00000
  70
    32
  0
VERTEX
  8
0
  5
6CF
 10
73.6382
 20
31.4933
 30
0.00000
  70
    32
  0
VERTEX
  8
0
  5
6D0
 10
73.7464
 20
31.5800
 30
0.00000
  70
    32
  0
VERTEX
  8
0
  5
6D1
 10
73.8548
 20
31.6665
 30
0.00000
  70
    32
  0
VERTEX
  8
0
  5
6D2
 10
73.9631
 20
31.7530
 30
0.00000
  70
    32
  0
VERTEX
  8
0
  5
6D3
 10
74.0716
 20
31.8395
 30
0.00000
  70
    32
  0
VERTEX
  8
0
  5
6D4
 10
74.1800
 20
31.9259
 30
0.00000
  70
    32
  0
VERTEX
  8
0
  5
6D5
 10
74.2886
 20
32.0122
 30
0.00000
  70
    32
  0
VERTEX
  8
0
  5
6D6
 10
74.3971
 20
32.0985
 30
0.00000
  70
    32
  0
VERTEX
  8
0
  5
6D7
 10
74.5057
 20
32.1847
 30
0.00000
  70
    32
  0
VERTEX
  8
0
  5
6D8
 10
74.6144
 20
32.2708
 30
0.00000
  70
    32
  0
VERTEX
  8
0
  5
6D9
 10
74.7231
 20
32.3569
 30
0.00000
  70
    32
  0
VERTEX
  8
0
  5
6DA
 10
74.8318
 20
32.4430
 30
0.00000
  70
    32
  0
VERTEX
  8
0
  5
6DB
 10
74.9406
 20
32.5290
 30
0.00000
  70
    32
  0
VERTEX
  8
0
  5
6DC
 10
75.0495
 20
32.6149
 30
0.00000
  70
    32
  0
VERTEX
  8
0
  5
6DD
 10
75.1583
 20
32.7008
 30
0.00000
  70
    32
  0
VERTEX
  8
0
  5
6DE
 10
75.2673
 20
32.7866
 30
0.00000
  70
    32
  0
VERTEX
  8
0
  5
6DF
 10
75.3763
 20
32.8723
 30
0.00000
  70
    32
  0
VERTEX
  8
0
  5
6E0
 10
75.4853
 20
32.9580
 30
0.00000
  70
    32
  0
VERTEX
  8
0
  5
6E1
 10
75.5943
 20
33.0437
 30
0.00000
  70
    32
  0
VERTEX
  8
0
  5
6E2
 10
75.7035
 20
33.1292
 30
0.00000
  70
    32
  0
VERTEX
  8
0
  5
6E3
 10
75.8126
 20
33.2147
 30
0.00000
  70
    32
  0
VERTEX
  8
0
  5
6E4
 10
75.9218
 20
33.3002
 30
0.00000
  70
    32
  0
VERTEX
  8
0
  5
6E5
 10
76.0311
 20
33.3856
 30
0.00000
  70
    32
  0
VERTEX
  8
0
  5
6E6
 10
76.1404
 20
33.4709
 30
0.00000
  70
    32
  0
VERTEX
  8
0
  5
6E7
 10
76.2498
 20
33.5562
 30
0.00000
  70
    32
  0
VERTEX
  8
0
  5
6E8
 10
76.3592
 20
33.6414
 30
0.00000
  70
    32
  0
VERTEX
  8
0
  5
6E9
 10
76.4686
 20
33.7266
 30
0.00000
  70
    32
  0
VERTEX
  8
0
  5
6EA
 10
76.5781
 20
33.8117
 30
0.00000
  70
    32
  0
VERTEX
  8
0
  5
6EB
 10
76.6876
 20
33.8967
 30
0.00000
  70
    32
  0
VERTEX
  8
0
  5
6EC
 10
76.7972
 20
33.9817
 30
0.00000
  70
    32
  0
VERTEX
  8
0
  5
6ED
 10
76.9068
 20
34.0666
 30
0.00000
  70
    32
  0
VERTEX
  8
0
  5
6EE
 10
77.0165
 20
34.1515
 30
0.00000
  70
    32
  0
VERTEX
  8
0
  5
6EF
 10
77.1262
 20
34.2363
 30
0.00000
  70
    32
  0
VERTEX
  8
0
  5
6F0
 10
77.2360
 20
34.3210
 30
0.00000
  70
    32
  0
VERTEX
  8
0
  5
6F1
 10
77.3458
 20
34.4057
 30
0.00000
  70
    32
  0
VERTEX
  8
0
  5
6F2
 10
77.4557
 20
34.4903
 30
0.00000
  70
    32
  0
VERTEX
  8
0
  5
6F3
 10
77.5656
 20
34.5749
 30
0.00000
  70
    32
  0
VERTEX
  8
0
  5
6F4
 10
77.6756
 20
34.6594
 30
0.00000
  70
    32
  0
VERTEX
  8
0
  5
6F5
 10
77.7856
 20
34.7438
 30
0.00000
  70
    32
  0
VERTEX
  8
0
  5
6F6
 10
77.8956
 20
34.8282
 30
0.00000
  70
    32
  0
VERTEX
  8
0
  5
6F7
 10
78.0057
 20
34.9125
 30
0.00000
  70
    32
  0
VERTEX
  8
0
  5
6F8
 10
78.1158
 20
34.9968
 30
0.00000
  70
    32
  0
VERTEX
  8
0
  5
6F9
 10
78.2260
 20
35.0810
 30
0.00000
  70
    32
  0
VERTEX
  8
0
  5
6FA
 10
78.3363
 20
35.1652
 30
0.00000
  70
    32
  0
VERTEX
  8
0
  5
6FB
 10
78.4465
 20
35.2492
 30
0.00000
  70
    32
  0
VERTEX
  8
0
  5
6FC
 10
78.5569
 20
35.3333
 30
0.00000
  70
    32
  0
VERTEX
  8
0
  5
6FD
 10
78.6672
 20
35.4172
 30
0.00000
  70
    32
  0
VERTEX
  8
0
  5
6FE
 10
78.7777
 20
35.5011
 30
0.00000
  70
    32
  0
VERTEX
  8
0
  5
6FF
 10
78.8881
 20
35.5850
 30
0.00000
  70
    32
  0
VERTEX
  8
0
  5
700
 10
78.9986
 20
35.6688
 30
0.00000
  70
    32
  0
VERTEX
  8
0
  5
701
 10
79.1092
 20
35.7525
 30
0.00000
  70
    32
  0
VERTEX
  8
0
  5
702
 10
79.2198
 20
35.8361
 30
0.00000
  70
    32
  0
VERTEX
  8
0
  5
703
 10
79.3304
 20
35.9197
 30
0.00000
  70
    32
  0
VERTEX
  8
0
  5
704
 10
79.4411
 20
36.0033
 30
0.00000
  70
    32
  0
VERTEX
  8
0
  5
705
 10
79.5519
 20
36.0868
 30
0.00000
  70
    32
  0
VERTEX
  8
0
  5
706
 10
79.6626
 20
36.1702
 30
0.00000
  70
    32
  0
VERTEX
  8
0
  5
707
 10
79.7735
 20
36.2535
 30
0.00000
  70
    32
  0
VERTEX
  8
0
  5
708
 10
79.8844
 20
36.3368
 30
0.00000
  70
    32
  0
VERTEX
  8
0
  5
709
 10
79.9953
 20
36.4201
 30
0.00000
  70
    32
  0
VERTEX
  8
0
  5
70A
 10
80.1062
 20
36.5032
 30
0.00000
  70
    32
  0
VERTEX
  8
0
  5
70B
 10
80.2173
 20
36.5864
 30
0.00000
  70
    32
  0
VERTEX
  8
0
  5
70C
 10
80.3283
 20
36.6694
 30
0.00000
  70
    32
  0
VERTEX
  8
0
  5
70D
 10
80.4394
 20
36.7524
 30
0.00000
  70
    32
  0
VERTEX
  8
0
  5
70E
 10
80.5506
 20
36.8353
 30
0.00000
  70
    32
  0
VERTEX
  8
0
  5
70F
 10
80.6618
 20
36.9182
 30
0.00000
  70
    32
  0
VERTEX
  8
0
  5
710
 10
80.7730
 20
37.0010
 30
0.00000
  70
    32
  0
VERTEX
  8
0
  5
711
 10
80.8843
 20
37.0838
 30
0.00000
  70
    32
  0
VERTEX
  8
0
  5
712
 10
80.9956
 20
37.1665
 30
0.00000
  70
    32
  0
VERTEX
  8
0
  5
713
 10
81.1070
 20
37.2491
 30
0.00000
  70
    32
  0
VERTEX
  8
0
  5
714
 10
81.2184
 20
37.3317
 30
0.00000
  70
    32
  0
VERTEX
  8
0
  5
715
 10
81.3299
 20
37.4142
 30
0.00000
  70
    32
  0
VERTEX
  8
0
  5
716
 10
81.4414
 20
37.4966
 30
0.00000
  70
    32
  0
VERTEX
  8
0
  5
717
 10
81.5530
 20
37.5790
 30
0.00000
  70
    32
  0
VERTEX
  8
0
  5
718
 10
81.6646
 20
37.6613
 30
0.00000
  70
    32
  0
VERTEX
  8
0
  5
719
 10
81.7762
 20
37.7436
 30
0.00000
  70
    32
  0
VERTEX
  8
0
  5
71A
 10
81.8879
 20
37.8258
 30
0.00000
  70
    32
  0
VERTEX
  8
0
  5
71B
 10
81.9996
 20
37.9079
 30
0.00000
  70
    32
  0
VERTEX
  8
0
  5
71C
 10
82.1114
 20
37.9900
 30
0.00000
  70
    32
  0
VERTEX
  8
0
  5
71D
 10
82.2233
 20
38.0720
 30
0.00000
  70
    32
  0
VERTEX
  8
0
  5
71E
 10
82.3351
 20
38.1540
 30
0.00000
  70
    32
  0
VERTEX
  8
0
  5
71F
 10
82.4470
 20
38.2359
 30
0.00000
  70
    32
  0
VERTEX
  8
0
  5
720
 10
82.5590
 20
38.3177
 30
0.00000
  70
    32
  0
VERTEX
  8
0
  5
721
 10
82.6710
 20
38.3995
 30
0.00000
  70
    32
  0
VERTEX
  8
0
  5
722
 10
82.7831
 20
38.4812
 30
0.00000
  70
    32
  0
VERTEX
  8
0
  5
723
 10
82.8952
 20
38.5628
 30
0.00000
  70
    32
  0
VERTEX
  8
0
  5
724
 10
83.0073
 20
38.6444
 30
0.00000
  70
    32
  0
VERTEX
  8
0
  5
725
 10
83.1195
 20
38.7260
 30
0.00000
  70
    32
  0
VERTEX
  8
0
  5
726
 10
83.2317
 20
38.8074
 30
0.00000
  70
    32
  0
VERTEX
  8
0
  5
727
 10
83.3440
 20
38.8888
 30
0.00000
  70
    32
  0
VERTEX
  8
0
  5
728
 10
83.4563
 20
38.9702
 30
0.00000
  70
    32
  0
VERTEX
  8
0
  5
729
 10
83.5687
 20
39.0514
 30
0.00000
  70
    32
  0
VERTEX
  8
0
  5
72A
 10
83.6811
 20
39.1327
 30
0.00000
  70
    32
  0
VERTEX
  8
0
  5
72B
 10
83.7936
 20
39.2138
 30
0.00000
  70
    32
  0
VERTEX
  8
0
  5
72C
 10
83.9061
 20
39.2949
 30
0.00000
  70
    32
  0
VERTEX
  8
0
  5
72D
 10
84.0186
 20
39.3759
 30
0.00000
  70
    32
  0
VERTEX
  8
0
  5
72E
 10
84.1312
 20
39.4569
 30
0.00000
  70
    32
  0
VERTEX
  8
0
  5
72F
 10
84.2438
 20
39.5378
 30
0.00000
  70
    32
  0
VERTEX
  8
0
  5
730
 10
84.3565
 20
39.6187
 30
0.00000
  70
    32
  0
VERTEX
  8
0
  5
731
 10
84.4692
 20
39.6995
 30
0.00000
  70
    32
  0
VERTEX
  8
0
  5
732
 10
84.5820
 20
39.7802
 30
0.00000
  70
    32
  0
VERTEX
  8
0
  5
733
 10
84.6948
 20
39.8608
 30
0.00000
  70
    32
  0
VERTEX
  8
0
  5
734
 10
84.8077
 20
39.9414
 30
0.00000
  70
    32
  0
VERTEX
  8
0
  5
735
 10
84.9206
 20
40.0220
 30
0.00000
  70
    32
  0
VERTEX
  8
0
  5
736
 10
85.0335
 20
40.1024
 30
0.00000
  70
    32
  0
VERTEX
  8
0
  5
737
 10
85.1465
 20
40.1829
 30
0.00000
  70
    32
  0
VERTEX
  8
0
  5
738
 10
85.2595
 20
40.2632
 30
0.00000
  70
    32
  0
VERTEX
  8
0
  5
739
 10
85.3726
 20
40.3435
 30
0.00000
  70
    32
  0
VERTEX
  8
0
  5
73A
 10
85.4857
 20
40.4237
 30
0.00000
  70
    32
  0
VERTEX
  8
0
  5
73B
 10
85.5989
 20
40.5039
 30
0.00000
  70
    32
  0
VERTEX
  8
0
  5
73C
 10
85.7121
 20
40.5840
 30
0.00000
  70
    32
  0
VERTEX
  8
0
  5
73D
 10
85.8254
 20
40.6640
 30
0.00000
  70
    32
  0
VERTEX
  8
0
  5
73E
 10
85.9387
 20
40.7440
 30
0.00000
  70
    32
  0
VERTEX
  8
0
  5
73F
 10
86.0520
 20
40.8239
 30
0.00000
  70
    32
  0
VERTEX
  8
0
  5
740
 10
86.1654
 20
40.9037
 30
0.00000
  70
    32
  0
VERTEX
  8
0
  5
741
 10
86.2788
 20
40.9835
 30
0.00000
  70
    32
  0
VERTEX
  8
0
  5
742
 10
86.3923
 20
41.0633
 30
0.00000
  70
    32
  0
VERTEX
  8
0
  5
743
 10
86.5058
 20
41.1429
 30
0.00000
  70
    32
  0
VERTEX
  8
0
  5
744
 10
86.6194
 20
41.2225
 30
0.00000
  70
    32
  0
VERTEX
  8
0
  5
745
 10
86.7330
 20
41.3020
 30
0.00000
  70
    32
  0
VERTEX
  8
0
  5
746
 10
86.8466
 20
41.3815
 30
0.00000
  70
    32
  0
VERTEX
  8
0
  5
747
 10
86.9603
 20
41.4609
 30
0.00000
  70
    32
  0
VERTEX
  8
0
  5
748
 10
87.0741
 20
41.5403
 30
0.00000
  70
    32
  0
VERTEX
  8
0
  5
749
 10
87.1878
 20
41.6196
 30
0.00000
  70
    32
  0
VERTEX
  8
0
  5
74A
 10
87.3017
 20
41.6988
 30
0.00000
  70
    32
  0
VERTEX
  8
0
  5
74B
 10
87.4155
 20
41.7779
 30
0.00000
  70
    32
  0
VERTEX
  8
0
  5
74C
 10
87.5294
 20
41.8570
 30
0.00000
  70
    32
  0
VERTEX
  8
0
  5
74D
 10
87.6434
 20
41.9361
 30
0.00000
  70
    32
  0
VERTEX
  8
0
  5
74E
 10
87.7574
 20
42.0150
 30
0.00000
  70
    32
  0
VERTEX
  8
0
  5
74F
 10
87.8714
 20
42.0939
 30
0.00000
  70
    32
  0
VERTEX
  8
0
  5
750
 10
87.9855
 20
42.1728
 30
0.00000
  70
    32
  0
VERTEX
  8
0
  5
751
 10
88.0996
 20
42.2516
 30
0.00000
  70
    32
  0
VERTEX
  8
0
  5
752
 10
88.2138
 20
42.3303
 30
0.00000
  70
    32
  0
VERTEX
  8
0
  5
753
 10
88.3280
 20
42.4089
 30
0.00000
  70
    32
  0
VERTEX
  8
0
  5
754
 10
88.4423
 20
42.4875
 30
0.00000
  70
    32
  0
VERTEX
  8
0
  5
755
 10
88.5566
 20
42.5661
 30
0.00000
  70
    32
  0
VERTEX
  8
0
  5
756
 10
88.6709
 20
42.6445
 30
0.00000
  70
    32
  0
VERTEX
  8
0
  5
757
 10
88.7853
 20
42.7229
 30
0.00000
  70
    32
  0
VERTEX
  8
0
  5
758
 10
88.8997
 20
42.8013
 30
0.00000
  70
    32
  0
VERTEX
  8
0
  5
759
 10
89.0142
 20
42.8795
 30
0.00000
  70
    32
  0
VERTEX
  8
0
  5
75A
 10
89.1287
 20
42.9577
 30
0.00000
  70
    32
  0
VERTEX
  8
0
  5
75B
 10
89.2433
 20
43.0359
 30
0.00000
  70
    32
  0
VERTEX
  8
0
  5
75C
 10
89.3579
 20
43.1140
 30
0.00000
  70
    32
  0
VERTEX
  8
0
  5
75D
 10
89.4725
 20
43.1920
 30
0.00000
  70
    32
  0
VERTEX
  8
0
  5
75E
 10
89.5872
 20
43.2699
 30
0.00000
  70
    32
  0
VERTEX
  8
0
  5
75F
 10
89.7020
 20
43.3478
 30
0.00000
  70
    32
  0
VERTEX
  8
0
  5
760
 10
89.8167
 20
43.4257
 30
0.00000
  70
    32
  0
VERTEX
  8
0
  5
761
 10
89.9316
 20
43.5034
 30
0.00000
  70
    32
  0
VERTEX
  8
0
  5
762
 10
90.0464
 20
43.5811
 30
0.00000
  70
    32
  0
VERTEX
  8
0
  5
763
 10
90.1613
 20
43.6588
 30
0.00000
  70
    32
  0
VERTEX
  8
0
  5
764
 10
90.2763
 20
43.7363
 30
0.00000
  70
    32
  0
VERTEX
  8
0
  5
765
 10
90.3913
 20
43.8138
 30
0.00000
  70
    32
  0
VERTEX
  8
0
  5
766
 10
90.5063
 20
43.8913
 30
0.00000
  70
    32
  0
VERTEX
  8
0
  5
767
 10
90.6214
 20
43.9687
 30
0.00000
  70
    32
  0
VERTEX
  8
0
  5
768
 10
90.7365
 20
44.0460
 30
0.00000
  70
    32
  0
VERTEX
  8
0
  5
769
 10
90.8516
 20
44.1232
 30
0.00000
  70
    32
  0
VERTEX
  8
0
  5
76A
 10
90.9668
 20
44.2004
 30
0.00000
  70
    32
  0
VERTEX
  8
0
  5
76B
 10
91.0821
 20
44.2775
 30
0.00000
  70
    32
  0
VERTEX
  8
0
  5
76C
 10
91.1974
 20
44.3546
 30
0.00000
  70
    32
  0
VERTEX
  8
0
  5
76D
 10
91.3127
 20
44.4316
 30
0.00000
  70
    32
  0
VERTEX
  8
0
  5
76E
 10
91.4281
 20
44.5085
 30
0.00000
  70
    32
  0
VERTEX
  8
0
  5
76F
 10
91.5435
 20
44.5854
 30
0.00000
  70
    32
  0
VERTEX
  8
0
  5
770
 10
91.7449
 20
44.0240
 30
0.00000
  70
    32
  0
VERTEX
  8
0
  5
771
 10
92.0048
 20
43.0285
 30
0.00000
  70
    32
  0
VERTEX
  8
0
  5
772
 10
92.2648
 20
42.0329
 30
0.00000
  70
    32
  0
VERTEX
  8
0
  5
773
 10
92.5247
 20
41.0374
 30
0.00000
  70
    32
  0
VERTEX
  8
0
  5
774
 10
92.7846
 20
40.0418
 30
0.00000
  70
    32
  0
VERTEX
  8
0
  5
775
 10
93.0445
 20
39.0462
 30
0.00000
  70
    32
  0
VERTEX
  8
0
  5
776
 10
93.3045
 20
38.0507
 30
0.00000
  70
    32
  0
VERTEX
  8
0
  5
777
 10
93.4796
 20
37.3853
 30
0.00000
  70
    32
  0
VERTEX
  8
0
  5
778
 10
93.5308
 20
37.2564
 30
0.00000
  70
    32
  0
VERTEX
  8
0
  5
779
 10
93.7980
 20
36.7874
 30
0.00000
  70
    32
  0
VERTEX
  8
0
  5
77A
 10
94.3122
 20
35.8962
 30
0.00000
  70
    32
  0
VERTEX
  8
0
  5
77B
 10
94.8263
 20
35.0050
 30
0.00000
  70
    32
  0
VERTEX
  8
0
  5
77C
 10
95.3405
 20
34.1137
 30
0.00000
  70
    32
  0
VERTEX
  8
0
  5
77D
 10
95.8547
 20
33.2225
 30
0.00000
  70
    32
  0
VERTEX
  8
0
  5
77E
 10
96.3689
 20
32.3312
 30
0.00000
  70
    32
  0
VERTEX
  8
0
  5
77F
 10
96.8831
 20
31.4400
 30
0.00000
  70
    32
  0
VERTEX
  8
0
  5
780
 10
97.2434
 20
30.7504
 30
0.00000
  70
    32
  0
VERTEX
  8
0
  5
781
 10
97.1123
 20
30.7051
 30
0.00000
  70
    32
  0
VERTEX
  8
0
  5
782
 10
96.9812
 20
30.6597
 30
0.00000
  70
    32
  0
VERTEX
  8
0
  5
783
 10
96.8502
 20
30.6141
 30
0.00000
  70
    32
  0
VERTEX
  8
0
  5
784
 10
96.7193
 20
30.5684
 30
0.00000
  70
    32
  0
VERTEX
  8
0
  5
785
 10
96.5884
 20
30.5225
 30
0.00000
  70
    32
  0
VERTEX
  8
0
  5
786
 10
96.4575
 20
30.4766
 30
0.00000
  70
    32
  0
VERTEX
  8
0
  5
787
 10
96.3267
 20
30.4305
 30
0.00000
  70
    32
  0
VERTEX
  8
0
  5
788
 10
96.1959
 20
30.3842
 30
0.00000
  70
    32
  0
VERTEX
  8
0
  5
789
 10
96.0652
 20
30.3378
 30
0.00000
  70
    32
  0
VERTEX
  8
0
  5
78A
 10
95.9345
 20
30.2913
 30
0.00000
  70
    32
  0
VERTEX
  8
0
  5
78B
 10
95.8039
 20
30.2447
 30
0.00000
  70
    32
  0
VERTEX
  8
0
  5
78C
 10
95.6733
 20
30.1979
 30
0.00000
  70
    32
  0
VERTEX
  8
0
  5
78D
 10
95.5427
 20
30.1510
 30
0.00000
  70
    32
  0
VERTEX
  8
0
  5
78E
 10
95.4122
 20
30.1040
 30
0.00000
  70
    32
  0
VERTEX
  8
0
  5
78F
 10
95.2818
 20
30.0569
 30
0.00000
  70
    32
  0
VERTEX
  8
0
  5
790
 10
95.1514
 20
30.0096
 30
0.00000
  70
    32
  0
VERTEX
  8
0
  5
791
 10
95.0210
 20
29.9621
 30
0.00000
  70
    32
  0
VERTEX
  8
0
  5
792
 10
94.8907
 20
29.9146
 30
0.00000
  70
    32
  0
VERTEX
  8
0
  5
793
 10
94.7604
 20
29.8669
 30
0.00000
  70
    32
  0
VERTEX
  8
0
  5
794
 10
94.6302
 20
29.8191
 30
0.00000
  70
    32
  0
VERTEX
  8
0
  5
795
 10
94.5000
 20
29.7712
 30
0.00000
  70
    32
  0
VERTEX
  8
0
  5
796
 10
94.3699
 20
29.7231
 30
0.00000
  70
    32
  0
VERTEX
  8
0
  5
797
 10
94.2398
 20
29.6749
 30
0.00000
  70
    32
  0
VERTEX
  8
0
  5
798
 10
94.1098
 20
29.6266
 30
0.00000
  70
    32
  0
VERTEX
  8
0
  5
799
 10
93.9798
 20
29.5781
 30
0.00000
  70
    32
  0
VERTEX
  8
0
  5
79A
 10
93.8498
 20
29.5295
 30
0.00000
  70
    32
  0
VERTEX
  8
0
  5
79B
 10
93.7200
 20
29.4808
 30
0.00000
  70
    32
  0
VERTEX
  8
0
  5
79C
 10
93.5901
 20
29.4320
 30
0.00000
  70
    32
  0
VERTEX
  8
0
  5
79D
 10
93.4603
 20
29.3830
 30
0.00000
  70
    32
  0
VERTEX
  8
0
  5
79E
 10
93.3306
 20
29.3339
 30
0.00000
  70
    32
  0
VERTEX
  8
0
  5
79F
 10
93.2008
 20
29.2847
 30
0.00000
  70
    32
  0
VERTEX
  8
0
  5
7A0
 10
93.0712
 20
29.2353
 30
0.00000
  70
    32
  0
VERTEX
  8
0
  5
7A1
 10
92.9416
 20
29.1859
 30
0.00000
  70
    32
  0
VERTEX
  8
0
  5
7A2
 10
92.8120
 20
29.1363
 30
0.00000
  70
    32
  0
VERTEX
  8
0
  5
7A3
 10
92.6825
 20
29.0865
 30
0.00000
  70
    32
  0
VERTEX
  8
0
  5
7A4
 10
92.5530
 20
29.0367
 30
0.00000
  70
    32
  0
VERTEX
  8
0
  5
7A5
 10
92.4236
 20
28.9867
 30
0.00000
  70
    32
  0
VERTEX
  8
0
  5
7A6
 10
92.2943
 20
28.9366
 30
0.00000
  70
    32
  0
VERTEX
  8
0
  5
7A7
 10
92.1649
 20
28.8864
 30
0.00000
  70
    32
  0
VERTEX
  8
0
  5
7A8
 10
92.0357
 20
28.8360
 30
0.00000
  70
    32
  0
VERTEX
  8
0
  5
7A9
 10
91.9064
 20
28.7855
 30
0.00000
  70
    32
  0
VERTEX
  8
0
  5
7AA
 10
91.7773
 20
28.7349
 30
0.00000
  70
    32
  0
VERTEX
  8
0
  5
7AB
 10
91.6481
 20
28.6842
 30
0.00000
  70
    32
  0
VERTEX
  8
0
  5
7AC
 10
91.5191
 20
28.6333
 30
0.00000
  70
    32
  0
VERTEX
  8
0
  5
7AD
 10
91.3900
 20
28.5823
 30
0.00000
  70
    32
  0
VERTEX
  8
0
  5
7AE
 10
91.2610
 20
28.5312
 30
0.00000
  70
    32
  0
VERTEX
  8
0
  5
7AF
 10
91.1321
 20
28.4800
 30
0.00000
  70
    32
  0
VERTEX
  8
0
  5
7B0
 10
91.0032
 20
28.4286
 30
0.00000
  70
    32
  0
VERTEX
  8
0
  5
7B1
 10
90.8744
 20
28.3772
 30
0.00000
  70
    32
  0
VERTEX
  8
0
  5
7B2
 10
90.7456
 20
28.3256
 30
0.00000
  70
    32
  0
VERTEX
  8
0
  5
7B3
 10
90.6169
 20
28.2738
 30
0.00000
  70
    32
  0
VERTEX
  8
0
  5
7B4
 10
90.4882
 20
28.2220
 30
0.00000
  70
    32
  0
VERTEX
  8
0
  5
7B5
 10
90.3596
 20
28.1700
 30
0.00000
  70
    32
  0
VERTEX
  8
0
  5
7B6
 10
90.2310
 20
28.1179
 30
0.00000
  70
    32
  0
VERTEX
  8
0
  5
7B7
 10
90.1025
 20
28.0657
 30
0.00000
  70
    32
  0
VERTEX
  8
0
  5
7B8
 10
89.9740
 20
28.0134
 30
0.00000
  70
    32
  0
VERTEX
  8
0
  5
7B9
 10
89.8455
 20
27.9609
 30
0.00000
  70
    32
  0
VERTEX
  8
0
  5
7BA
 10
89.7171
 20
27.9083
 30
0.00000
  70
    32
  0
VERTEX
  8
0
  5
7BB
 10
89.5888
 20
27.8556
 30
0.00000
  70
    32
  0
VERTEX
  8
0
  5
7BC
 10
89.4605
 20
27.8028
 30
0.00000
  70
    32
  0
VERTEX
  8
0
  5
7BD
 10
89.3323
 20
27.7498
 30
0.00000
  70
    32
  0
VERTEX
  8
0
  5
7BE
 10
89.2041
 20
27.6968
 30
0.00000
  70
    32
  0
VERTEX
  8
0
  5
7BF
 10
89.0760
 20
27.6436
 30
0.00000
  70
    32
  0
VERTEX
  8
0
  5
7C0
 10
88.9479
 20
27.5902
 30
0.00000
  70
    32
  0
VERTEX
  8
0
  5
7C1
 10
88.8199
 20
27.5368
 30
0.00000
  70
    32
  0
VERTEX
  8
0
  5
7C2
 10
88.6919
 20
27.4832
 30
0.00000
  70
    32
  0
VERTEX
  8
0
  5
7C3
 10
88.5640
 20
27.4295
 30
0.00000
  70
    32
  0
VERTEX
  8
0
  5
7C4
 10
88.4361
 20
27.3757
 30
0.00000
  70
    32
  0
VERTEX
  8
0
  5
7C5
 10
88.3083
 20
27.3218
 30
0.00000
  70
    32
  0
VERTEX
  8
0
  5
7C6
 10
88.1805
 20
27.2678
 30
0.00000
  70
    32
  0
VERTEX
  8
0
  5
7C7
 10
88.0528
 20
27.2136
 30
0.00000
  70
    32
  0
VERTEX
  8
0
  5
7C8
 10
87.9251
 20
27.1593
 30
0.00000
  70
    32
  0
VERTEX
  8
0
  5
7C9
 10
87.7975
 20
27.1049
 30
0.00000
  70
    32
  0
VERTEX
  8
0
  5
7CA
 10
87.6699
 20
27.0503
 30
0.00000
  70
    32
  0
VERTEX
  8
0
  5
7CB
 10
87.5424
 20
26.9957
 30
0.00000
  70
    32
  0
VERTEX
  8
0
  5
7CC
 10
87.4150
 20
26.9409
 30
0.00000
  70
    32
  0
VERTEX
  8
0
  5
7CD
 10
87.2875
 20
26.8860
 30
0.00000
  70
    32
  0
VERTEX
  8
0
  5
7CE
 10
87.1602
 20
26.8310
 30
0.00000
  70
    32
  0
VERTEX
  8
0
  5
7CF
 10
87.0329
 20
26.7758
 30
0.00000
  70
    32
  0
VERTEX
  8
0
  5
7D0
 10
86.9056
 20
26.7206
 30
0.00000
  70
    32
  0
VERTEX
  8
0
  5
7D1
 10
86.7784
 20
26.6652
 30
0.00000
  70
    32
  0
VERTEX
  8
0
  5
7D2
 10
86.6513
 20
26.6097
 30
0.00000
  70
    32
  0
VERTEX
  8
0
  5
7D3
 10
86.5242
 20
26.5541
 30
0.00000
  70
    32
  0
VERTEX
  8
0
  5
7D4
 10
86.3971
 20
26.4983
 30
0.00000
  70
    32
  0
VERTEX
  8
0
  5
7D5
 10
86.2702
 20
26.4425
 30
0.00000
  70
    32
  0
VERTEX
  8
0
  5
7D6
 10
86.1432
 20
26.3865
 30
0.00000
  70
    32
  0
VERTEX
  8
0
  5
7D7
 10
86.0163
 20
26.3304
 30
0.00000
  70
    32
  0
VERTEX
  8
0
  5
7D8
 10
85.8895
 20
26.2741
 30
0.00000
  70
    32
  0
VERTEX
  8
0
  5
7D9
 10
85.7627
 20
26.2178
 30
0.00000
  70
    32
  0
VERTEX
  8
0
  5
7DA
 10
85.6360
 20
26.1613
 30
0.00000
  70
    32
  0
VERTEX
  8
0
  5
7DB
 10
85.5094
 20
26.1047
 30
0.00000
  70
    32
  0
VERTEX
  8
0
  5
7DC
 10
85.3827
 20
26.0480
 30
0.00000
  70
    32
  0
VERTEX
  8
0
  5
7DD
 10
85.2562
 20
25.9912
 30
0.00000
  70
    32
  0
VERTEX
  8
0
  5
7DE
 10
85.1297
 20
25.9343
 30
0.00000
  70
    32
  0
VERTEX
  8
0
  5
7DF
 10
85.0032
 20
25.8772
 30
0.00000
  70
    32
  0
VERTEX
  8
0
  5
7E0
 10
84.8768
 20
25.8200
 30
0.00000
  70
    32
  0
VERTEX
  8
0
  5
7E1
 10
84.7505
 20
25.7627
 30
0.00000
  70
    32
  0
VERTEX
  8
0
  5
7E2
 10
84.6242
 20
25.7053
 30
0.00000
  70
    32
  0
VERTEX
  8
0
  5
7E3
 10
84.4980
 20
25.6477
 30
0.00000
  70
    32
  0
VERTEX
  8
0
  5
7E4
 10
84.3718
 20
25.5901
 30
0.00000
  70
    32
  0
VERTEX
  8
0
  5
7E5
 10
84.2457
 20
25.5323
 30
0.00000
  70
    32
  0
VERTEX
  8
0
  5
7E6
 10
84.1196
 20
25.4744
 30
0.00000
  70
    32
  0
VERTEX
  8
0
  5
7E7
 10
83.9936
 20
25.4164
 30
0.00000
  70
    32
  0
VERTEX
  8
0
  5
7E8
 10
83.8676
 20
25.3582
 30
0.00000
  70
    32
  0
VERTEX
  8
0
  5
7E9
 10
83.7417
 20
25.3000
 30
0.00000
  70
    32
  0
VERTEX
  8
0
  5
7EA
 10
83.6159
 20
25.2416
 30
0.00000
  70
    32
  0
VERTEX
  8
0
  5
7EB
 10
83.4901
 20
25.1831
 30
0.00000
  70
    32
  0
VERTEX
  8
0
  5
7EC
 10
83.3643
 20
25.1245
 30
0.00000
  70
    32
  0
VERTEX
  8
0
  5
7ED
 10
83.2387
 20
25.0658
 30
0.00000
  70
    32
  0
VERTEX
  8
0
  5
7EE
 10
83.1130
 20
25.0069
 30
0.00000
  70
    32
  0
VERTEX
  8
0
  5
7EF
 10
82.9875
 20
24.9479
 30
0.00000
  70
    32
  0
VERTEX
  8
0
  5
7F0
 10
82.8620
 20
24.8889
 30
0.00000
  70
    32
  0
VERTEX
  8
0
  5
7F1
 10
82.7365
 20
24.8297
 30
0.00000
  70
    32
  0
VERTEX
  8
0
  5
7F2
 10
82.6111
 20
24.7703
 30
0.00000
  70
    32
  0
VERTEX
  8
0
  5
7F3
 10
82.4857
 20
24.7109
 30
0.00000
  70
    32
  0
VERTEX
  8
0
  5
7F4
 10
82.3605
 20
24.6513
 30
0.00000
  70
    32
  0
VERTEX
  8
0
  5
7F5
 10
82.2352
 20
24.5917
 30
0.00000
  70
    32
  0
VERTEX
  8
0
  5
7F6
 10
82.1100
 20
24.5319
 30
0.00000
  70
    32
  0
VERTEX
  8
0
  5
7F7
 10
81.9849
 20
24.4719
 30
0.00000
  70
    32
  0
VERTEX
  8
0
  5
7F8
 10
81.8599
 20
24.4119
 30
0.00000
  70
    32
  0
VERTEX
  8
0
  5
7F9
 10
81.7349
 20
24.3518
 30
0.00000
  70
    32
  0
VERTEX
  8
0
  5
7FA
 10
81.6099
 20
24.2915
 30
0.00000
  70
    32
  0
VERTEX
  8
0
  5
7FB
 10
81.4850
 20
24.2311
 30
0.00000
  70
    32
  0
VERTEX
  8
0
  5
7FC
 10
81.3602
 20
24.1706
 30
0.00000
  70
    32
  0
VERTEX
  8
0
  5
7FD
 10
81.2354
 20
24.1100
 30
0.00000
  70
    32
  0
VERTEX
  8
0
  5
7FE
 10
81.1107
 20
24.0493
 30
0.00000
  70
    32
  0
VERTEX
  8
0
  5
7FF
 10
80.9860
 20
23.9884
 30
0.00000
  70
    32
  0
VERTEX
  8
0
  5
800
 10
80.8614
 20
23.9274
 30
0.00000
  70
    32
  0
VERTEX
  8
0
  5
801
 10
80.7369
 20
23.8663
 30
0.00000
  70
    32
  0
VERTEX
  8
0
  5
802
 10
80.6124
 20
23.8051
 30
0.00000
  70
    32
  0
VERTEX
  8
0
  5
803
 10
80.4880
 20
23.7438
 30
0.00000
  70
    32
  0
VERTEX
  8
0
  5
804
 10
80.3636
 20
23.6824
 30
0.00000
  70
    32
  0
VERTEX
  8
0
  5
805
 10
80.2393
 20
23.6208
 30
0.00000
  70
    32
  0
VERTEX
  8
0
  5
806
 10
80.1150
 20
23.5592
 30
0.00000
  70
    32
  0
VERTEX
  8
0
  5
807
 10
79.9908
 20
23.4974
 30
0.00000
  70
    32
  0
VERTEX
  8
0
  5
808
 10
79.8667
 20
23.4355
 30
0.00000
  70
    32
  0
VERTEX
  8
0
  5
809
 10
79.7426
 20
23.3735
 30
0.00000
  70
    32
  0
VERTEX
  8
0
  5
80A
 10
79.6186
 20
23.3113
 30
0.00000
  70
    32
  0
VERTEX
  8
0
  5
80B
 10
79.4946
 20
23.2491
 30
0.00000
  70
    32
  0
VERTEX
  8
0
  5
80C
 10
79.3707
 20
23.1867
 30
0.00000
  70
    32
  0
VERTEX
  8
0
  5
80D
 10
79.2468
 20
23.1242
 30
0.00000
  70
    32
  0
VERTEX
  8
0
  5
80E
 10
79.1231
 20
23.0616
 30
0.00000
  70
    32
  0
VERTEX
  8
0
  5
80F
 10
78.9993
 20
22.9989
 30
0.00000
  70
    32
  0
VERTEX
  8
0
  5
810
 10
78.8757
 20
22.9361
 30
0.00000
  70
    32
  0
VERTEX
  8
0
  5
811
 10
78.7521
 20
22.8731
 30
0.00000
  70
    32
  0
VERTEX
  8
0
  5
812
 10
78.6285
 20
22.8101
 30
0.00000
  70
    32
  0
VERTEX
  8
0
  5
813
 10
78.5050
 20
22.7469
 30
0.00000
  70
    32
  0
VERTEX
  8
0
  5
814
 10
78.3816
 20
22.6836
 30
0.00000
  70
    32
  0
VERTEX
  8
0
  5
815
 10
78.2582
 20
22.6202
 30
0.00000
  70
    32
  0
VERTEX
  8
0
  5
816
 10
78.1349
 20
22.5567
 30
0.00000
  70
    32
  0
VERTEX
  8
0
  5
817
 10
78.0117
 20
22.4930
 30
0.00000
  70
    32
  0
VERTEX
  8
0
  5
818
 10
77.8885
 20
22.4293
 30
0.00000
  70
    32
  0
VERTEX
  8
0
  5
819
 10
77.7653
 20
22.3654
 30
0.00000
  70
    32
  0
VERTEX
  8
0
  5
81A
 10
77.6423
 20
22.3014
 30
0.00000
  70
    32
  0
VERTEX
  8
0
  5
81B
 10
77.5193
 20
22.2373
 30
0.00000
  70
    32
  0
VERTEX
  8
0
  5
81C
 10
77.3963
 20
22.1731
 30
0.00000
  70
    32
  0
VERTEX
  8
0
  5
81D
 10
77.2734
 20
22.1088
 30
0.00000
  70
    32
  0
VERTEX
  8
0
  5
81E
 10
77.1506
 20
22.0443
 30
0.00000
  70
    32
  0
VERTEX
  8
0
  5
81F
 10
77.0278
 20
21.9798
 30
0.00000
  70
    32
  0
VERTEX
  8
0
  5
820
 10
76.9051
 20
21.9151
 30
0.00000
  70
    32
  0
VERTEX
  8
0
  5
821
 10
76.7825
 20
21.8503
 30
0.00000
  70
    32
  0
VERTEX
  8
0
  5
822
 10
76.6599
 20
21.7854
 30
0.00000
  70
    32
  0
VERTEX
  8
0
  5
823
 10
76.5374
 20
21.7204
 30
0.00000
  70
    32
  0
VERTEX
  8
0
  5
824
 10
76.4149
 20
21.6553
 30
0.00000
  70
    32
  0
VERTEX
  8
0
  5
825
 10
76.2925
 20
21.5900
 30
0.00000
  70
    32
  0
VERTEX
  8
0
  5
826
 10
76.1702
 20
21.5246
 30
0.00000
  70
    32
  0
VERTEX
  8
0
  5
827
 10
76.0479
 20
21.4592
 30
0.00000
  70
    32
  0
VERTEX
  8
0
  5
828
 10
75.9257
 20
21.3936
 30
0.00000
  70
    32
  0
VERTEX
  8
0
  5
829
 10
75.8035
 20
21.3279
 30
0.00000
  70
    32
  0
VERTEX
  8
0
  5
82A
 10
75.6814
 20
21.2621
 30
0.00000
  70
    32
  0
VERTEX
  8
0
  5
82B
 10
75.5594
 20
21.1961
 30
0.00000
  70
    32
  0
VERTEX
  8
0
  5
82C
 10
75.4374
 20
21.1301
 30
0.00000
  70
    32
  0
VERTEX
  8
0
  5
82D
 10
75.3155
 20
21.0640
 30
0.00000
  70
    32
  0
VERTEX
  8
0
  5
82E
 10
75.1937
 20
20.9977
 30
0.00000
  70
    32
  0
VERTEX
  8
0
  5
82F
 10
75.0719
 20
20.9313
 30
0.00000
  70
    32
  0
VERTEX
  8
0
  5
830
 10
74.9502
 20
20.8648
 30
0.00000
  70
    32
  0
VERTEX
  8
0
  5
831
 10
74.8286
 20
20.7982
 30
0.00000
  70
    32
  0
VERTEX
  8
0
  5
832
 10
74.7070
 20
20.7315
 30
0.00000
  70
    32
  0
VERTEX
  8
0
  5
833
 10
74.5854
 20
20.6647
 30
0.00000
  70
    32
  0
VERTEX
  8
0
  5
834
 10
74.4640
 20
20.5977
 30
0.00000
  70
    32
  0
VERTEX
  8
0
  5
835
 10
74.3425
 20
20.5307
 30
0.00000
  70
    32
  0
VERTEX
  8
0
  5
836
 10
74.2212
 20
20.4635
 30
0.00000
  70
    32
  0
VERTEX
  8
0
  5
837
 10
74.0999
 20
20.3962
 30
0.00000
  70
    32
  0
VERTEX
  8
0
  5
838
 10
73.9787
 20
20.3289
 30
0.00000
  70
    32
  0
VERTEX
  8
0
  5
839
 10
73.8575
 20
20.2614
 30
0.00000
  70
    32
  0
VERTEX
  8
0
  5
83A
 10
73.7364
 20
20.1937
 30
0.00000
  70
    32
  0
VERTEX
  8
0
  5
83B
 10
73.6154
 20
20.1260
 30
0.00000
  70
    32
  0
VERTEX
  8
0
  5
83C
 10
73.4944
 20
20.0582
 30
0.00000
  70
    32
  0
VERTEX
  8
0
  5
83D
 10
73.3735
 20
19.9903
 30
0.00000
  70
    32
  0
VERTEX
  8
0
  5
83E
 10
73.2527
 20
19.9222
 30
0.00000
  70
    32
  0
VERTEX
  8
0
  5
83F
 10
73.1319
 20
19.8540
 30
0.00000
  70
    32
  0
VERTEX
  8
0
  5
840
 10
73.0112
 20
19.7858
 30
0.00000
  70
    32
  0
VERTEX
  8
0
  5
841
 10
72.8905
 20
19.7174
 30
0.00000
  70
    32
  0
VERTEX
  8
0
  5
842
 10
72.7699
 20
19.6489
 30
0.00000
  70
    32
  0
VERTEX
  8
0
  5
843
 10
72.6494
 20
19.5803
 30
0.00000
  70
    32
  0
VERTEX
  8
0
  5
844
 10
72.5289
 20
19.5116
 30
0.00000
  70
    32
  0
VERTEX
  8
0
  5
845
 10
72.4085
 20
19.4428
 30
0.00000
  70
    32
  0
VERTEX
  8
0
  5
846
 10
72.2881
 20
19.3739
 30
0.00000
  70
    32
  0
VERTEX
  8
0
  5
847
 10
72.1679
 20
19.3048
 30
0.00000
  70
    32
  0
VERTEX
  8
0
  5
848
 10
72.0476
 20
19.2357
 30
0.00000
  70
    32
  0
VERTEX
  8
0
  5
849
 10
71.9275
 20
19.1664
 30
0.00000
  70
    32
  0
VERTEX
  8
0
  5
84A
 10
71.8074
 20
19.0971
 30
0.00000
  70
    32
  0
VERTEX
  8
0
  5
84B
 10
71.6873
 20
19.0276
 30
0.00000
  70
    32
  0
VERTEX
  8
0
  5
84C
 10
71.5674
 20
18.9580
 30
0.00000
  70
    32
  0
VERTEX
  8
0
  5
84D
 10
71.4474
 20
18.8883
 30
0.00000
  70
    32
  0
VERTEX
  8
0
  5
84E
 10
71.3276
 20
18.8185
 30
0.00000
  70
    32
  0
VERTEX
  8
0
  5
84F
 10
71.2078
 20
18.7486
 30
0.00000
  70
    32
  0
VERTEX
  8
0
  5
850
 10
71.0881
 20
18.6786
 30
0.00000
  70
    32
  0
VERTEX
  8
0
  5
851
 10
70.9684
 20
18.6085
 30
0.00000
  70
    32
  0
VERTEX
  8
0
  5
852
 10
70.8488
 20
18.5383
 30
0.00000
  70
    32
  0
VERTEX
  8
0
  5
853
 10
70.7293
 20
18.4680
 30
0.00000
  70
    32
  0
VERTEX
  8
0
  5
854
 10
70.6098
 20
18.3975
 30
0.00000
  70
    32
  0
VERTEX
  8
0
  5
855
 10
70.4904
 20
18.3270
 30
0.00000
  70
    32
  0
VERTEX
  8
0
  5
856
 10
70.3710
 20
18.2564
 30
0.00000
  70
    32
  0
VERTEX
  8
0
  5
857
 10
70.2518
 20
18.1856
 30
0.00000
  70
    32
  0
VERTEX
  8
0
  5
858
 10
70.1325
 20
18.1147
 30
0.00000
  70
    32
  0
VERTEX
  8
0
  5
859
 10
70.0134
 20
18.0438
 30
0.00000
  70
    32
  0
VERTEX
  8
0
  5
85A
 10
69.8943
 20
17.9727
 30
0.00000
  70
    32
  0
VERTEX
  8
0
  5
85B
 10
69.7752
 20
17.9015
 30
0.00000
  70
    32
  0
VERTEX
  8
0
  5
85C
 10
69.6563
 20
17.8303
 30
0.00000
  70
    32
  0
VERTEX
  8
0
  5
85D
 10
69.5374
 20
17.7589
 30
0.00000
  70
    32
  0
VERTEX
  8
0
  5
85E
 10
69.4185
 20
17.6874
 30
0.00000
  70
    32
  0
VERTEX
  8
0
  5
85F
 10
69.2997
 20
17.6158
 30
0.00000
  70
    32
  0
VERTEX
  8
0
  5
860
 10
69.1810
 20
17.5441
 30
0.00000
  70
    32
  0
VERTEX
  8
0
  5
861
 10
69.0623
 20
17.4723
 30
0.00000
  70
    32
  0
VERTEX
  8
0
  5
862
 10
68.9437
 20
17.4004
 30
0.00000
  70
    32
  0
VERTEX
  8
0
  5
863
 10
68.8252
 20
17.3284
 30
0.00000
  70
    32
  0
VERTEX
  8
0
  5
864
 10
68.7067
 20
17.2563
 30
0.00000
  70
    32
  0
VERTEX
  8
0
  5
865
 10
68.5883
 20
17.1840
 30
0.00000
  70
    32
  0
VERTEX
  8
0
  5
866
 10
68.4700
 20
17.1117
 30
0.00000
  70
    32
  0
VERTEX
  8
0
  5
867
 10
68.3517
 20
17.0393
 30
0.00000
  70
    32
  0
VERTEX
  8
0
  5
868
 10
68.2335
 20
16.9668
 30
0.00000
  70
    32
  0
VERTEX
  8
0
  5
869
 10
68.1153
 20
16.8941
 30
0.00000
  70
    32
  0
VERTEX
  8
0
  5
86A
 10
67.9972
 20
16.8214
 30
0.00000
  70
    32
  0
VERTEX
  8
0
  5
86B
 10
67.8792
 20
16.7486
 30
0.00000
  70
    32
  0
VERTEX
  8
0
  5
86C
 10
67.7612
 20
16.6756
 30
0.00000
  70
    32
  0
VERTEX
  8
0
  5
86D
 10
67.6433
 20
16.6026
 30
0.00000
  70
    32
  0
VERTEX
  8
0
  5
86E
 10
67.5254
 20
16.5294
 30
0.00000
  70
    32
  0
VERTEX
  8
0
  5
86F
 10
67.4077
 20
16.4562
 30
0.00000
  70
    32
  0
VERTEX
  8
0
  5
870
 10
67.2899
 20
16.3828
 30
0.00000
  70
    32
  0
VERTEX
  8
0
  5
871
 10
67.1723
 20
16.3094
 30
0.00000
  70
    32
  0
VERTEX
  8
0
  5
872
 10
67.0547
 20
16.2358
 30
0.00000
  70
    32
  0
VERTEX
  8
0
  5
873
 10
66.9372
 20
16.1622
 30
0.00000
  70
    32
  0
VERTEX
  8
0
  5
874
 10
66.8197
 20
16.0884
 30
0.00000
  70
    32
  0
VERTEX
  8
0
  5
875
 10
66.7023
 20
16.0146
 30
0.00000
  70
    32
  0
VERTEX
  8
0
  5
876
 10
66.5849
 20
15.9406
 30
0.00000
  70
    32
  0
VERTEX
  8
0
  5
877
 10
66.4677
 20
15.8666
 30
0.00000
  70
    32
  0
VERTEX
  8
0
  5
878
 10
66.3505
 20
15.7924
 30
0.00000
  70
    32
  0
VERTEX
  8
0
  5
879
 10
66.2333
 20
15.7181
 30
0.00000
  70
    32
  0
VERTEX
  8
0
  5
87A
 10
66.1162
 20
15.6438
 30
0.00000
  70
    32
  0
VERTEX
  8
0
  5
87B
 10
65.9992
 20
15.5693
 30
0.00000
  70
    32
  0
VERTEX
  8
0
  5
87C
 10
65.8822
 20
15.4948
 30
0.00000
  70
    32
  0
VERTEX
  8
0
  5
87D
 10
65.7653
 20
15.4201
 30
0.00000
  70
    32
  0
VERTEX
  8
0
  5
87E
 10
65.6485
 20
15.3454
 30
0.00000
  70
    32
  0
VERTEX
  8
0
  5
87F
 10
65.5317
 20
15.2705
 30
0.00000
  70
    32
  0
VERTEX
  8
0
  5
880
 10
65.4150
 20
15.1955
 30
0.00000
  70
    32
  0
VERTEX
  8
0
  5
881
 10
65.2983
 20
15.1205
 30
0.00000
  70
    32
  0
VERTEX
  8
0
  5
882
 10
65.1818
 20
15.0453
 30
0.00000
  70
    32
  0
VERTEX
  8
0
  5
883
 10
65.0652
 20
14.9701
 30
0.00000
  70
    32
  0
VERTEX
  8
0
  5
884
 10
64.9488
 20
14.8947
 30
0.00000
  70
    32
  0
VERTEX
  8
0
  5
885
 10
64.8324
 20
14.8193
 30
0.00000
  70
    32
  0
VERTEX
  8
0
  5
886
 10
64.7161
 20
14.7438
 30
0.00000
  70
    32
  0
VERTEX
  8
0
  5
887
 10
64.5998
 20
14.6681
 30
0.00000
  70
    32
  0
VERTEX
  8
0
  5
888
 10
64.4836
 20
14.5924
 30
0.00000
  70
    32
  0
VERTEX
  8
0
  5
889
 10
64.3674
 20
14.5165
 30
0.00000
  70
    32
  0
VERTEX
  8
0
  5
88A
 10
64.2514
 20
14.4406
 30
0.00000
  70
    32
  0
VERTEX
  8
0
  5
88B
 10
64.1353
 20
14.3646
 30
0.00000
  70
    32
  0
VERTEX
  8
0
  5
88C
 10
64.0194
 20
14.2884
 30
0.00000
  70
    32
  0
VERTEX
  8
0
  5
88D
 10
63.9035
 20
14.2122
 30
0.00000
  70
    32
  0
VERTEX
  8
0
  5
88E
 10
63.7877
 20
14.1359
 30
0.00000
  70
    32
  0
VERTEX
  8
0
  5
88F
 10
63.6719
 20
14.0595
 30
0.00000
  70
    32
  0
VERTEX
  8
0
  5
890
 10
63.5562
 20
13.9829
 30
0.00000
  70
    32
  0
VERTEX
  8
0
  5
891
 10
63.4406
 20
13.9063
 30
0.00000
  70
    32
  0
VERTEX
  8
0
  5
892
 10
63.3250
 20
13.8296
 30
0.00000
  70
    32
  0
VERTEX
  8
0
  5
893
 10
63.2095
 20
13.7528
 30
0.00000
  70
    32
  0
VERTEX
  8
0
  5
894
 10
63.0941
 20
13.6759
 30
0.00000
  70
    32
  0
VERTEX
  8
0
  5
895
 10
62.9787
 20
13.5989
 30
0.00000
  70
    32
  0
VERTEX
  8
0
  5
896
 10
62.8634
 20
13.5218
 30
0.00000
  70
    32
  0
VERTEX
  8
0
  5
897
 10
62.7481
 20
13.4445
 30
0.00000
  70
    32
  0
VERTEX
  8
0
  5
898
 10
62.6330
 20
13.3672
 30
0.00000
  70
    32
  0
VERTEX
  8
0
  5
899
 10
62.5179
 20
13.2898
 30
0.00000
  70
    32
  0
VERTEX
  8
0
  5
89A
 10
62.4028
 20
13.2123
 30
0.00000
  70
    32
  0
VERTEX
  8
0
  5
89B
 10
62.2878
 20
13.1347
 30
0.00000
  70
    32
  0
VERTEX
  8
0
  5
89C
 10
62.1729
 20
13.0570
 30
0.00000
  70
    32
  0
VERTEX
  8
0
  5
89D
 10
62.0581
 20
12.9792
 30
0.00000
  70
    32
  0
VERTEX
  8
0
  5
89E
 10
61.9433
 20
12.9013
 30
0.00000
  70
    32
  0
VERTEX
  8
0
  5
89F
 10
61.8286
 20
12.8233
 30
0.00000
  70
    32
  0
VERTEX
  8
0
  5
8A0
 10
61.7140
 20
12.7452
 30
0.00000
  70
    32
  0
VERTEX
  8
0
  5
8A1
 10
61.5994
 20
12.6670
 30
0.00000
  70
    32
  0
VERTEX
  8
0
  5
8A2
 10
61.4849
 20
12.5887
 30
0.00000
  70
    32
  0
VERTEX
  8
0
  5
8A3
 10
61.3705
 20
12.5103
 30
0.00000
  70
    32
  0
VERTEX
  8
0
  5
8A4
 10
61.2561
 20
12.4318
 30
0.00000
  70
    32
  0
VERTEX
  8
0
  5
8A5
 10
61.1418
 20
12.3532
 30
0.00000
  70
    32
  0
VERTEX
  8
0
  5
8A6
 10
61.0276
 20
12.2745
 30
0.00000
  70
    32
  0
VERTEX
  8
0
  5
8A7
 10
60.9135
 20
12.1957
 30
0.00000
  70
    32
  0
VERTEX
  8
0
  5
8A8
 10
60.7994
 20
12.1168
 30
0.00000
  70
    32
  0
VERTEX
  8
0
  5
8A9
 10
60.6854
 20
12.0378
 30
0.00000
  70
    32
  0
VERTEX
  8
0
  5
8AA
 10
60.5715
 20
11.9587
 30
0.00000
  70
    32
  0
VERTEX
  8
0
  5
8AB
 10
60.4576
 20
11.8795
 30
0.00000
  70
    32
  0
VERTEX
  8
0
  5
8AC
 10
60.3438
 20
11.8002
 30
0.00000
  70
    32
  0
VERTEX
  8
0
  5
8AD
 10
60.2301
 20
11.7208
 30
0.00000
  70
    32
  0
VERTEX
  8
0
  5
8AE
 10
60.1164
 20
11.6412
 30
0.00000
  70
    32
  0
VERTEX
  8
0
  5
8AF
 10
60.0029
 20
11.5616
 30
0.00000
  70
    32
  0
VERTEX
  8
0
  5
8B0
 10
59.8894
 20
11.4819
 30
0.00000
  70
    32
  0
VERTEX
  8
0
  5
8B1
 10
59.7759
 20
11.4021
 30
0.00000
  70
    32
  0
VERTEX
  8
0
  5
8B2
 10
59.6626
 20
11.3222
 30
0.00000
  70
    32
  0
VERTEX
  8
0
  5
8B3
 10
59.5493
 20
11.2421
 30
0.00000
  70
    32
  0
VERTEX
  8
0
  5
8B4
 10
59.4361
 20
11.1620
 30
0.00000
  70
    32
  0
VERTEX
  8
0
  5
8B5
 10
59.3230
 20
11.0818
 30
0.00000
  70
    32
  0
VERTEX
  8
0
  5
8B6
 10
59.2099
 20
11.0014
 30
0.00000
  70
    32
  0
VERTEX
  8
0
  5
8B7
 10
59.0969
 20
10.9210
 30
0.00000
  70
    32
  0
VERTEX
  8
0
  5
8B8
 10
58.9840
 20
10.8404
 30
0.00000
  70
    32
  0
VERTEX
  8
0
  5
8B9
 10
58.8712
 20
10.7598
 30
0.00000
  70
    32
  0
VERTEX
  8
0
  5
8BA
 10
58.7584
 20
10.6791
 30
0.00000
  70
    32
  0
VERTEX
  8
0
  5
8BB
 10
58.6457
 20
10.5982
 30
0.00000
  70
    32
  0
VERTEX
  8
0
  5
8BC
 10
58.5331
 20
10.5172
 30
0.00000
  70
    32
  0
VERTEX
  8
0
  5
8BD
 10
58.4206
 20
10.4362
 30
0.00000
  70
    32
  0
VERTEX
  8
0
  5
8BE
 10
58.3081
 20
10.3550
 30
0.00000
  70
    32
  0
VERTEX
  8
0
  5
8BF
 10
58.1958
 20
10.2737
 30
0.00000
  70
    32
  0
VERTEX
  8
0
  5
8C0
 10
58.0835
 20
10.1924
 30
0.00000
  70
    32
  0
VERTEX
  8
0
  5
8C1
 10
57.9712
 20
10.1109
 30
0.00000
  70
    32
  0
VERTEX
  8
0
  5
8C2
 10
57.8591
 20
10.0293
 30
0.00000
  70
    32
  0
VERTEX
  8
0
  5
8C3
 10
57.7470
 20
9.94760
 30
0.00000
  70
    32
  0
VERTEX
  8
0
  5
8C4
 10
57.6350
 20
9.86581
 30
0.00000
  70
    32
  0
VERTEX
  8
0
  5
8C5
 10
57.5231
 20
9.78390
 30
0.00000
  70
    32
  0
VERTEX
  8
0
  5
8C6
 10
57.4113
 20
9.70190
 30
0.00000
  70
    32
  0
VERTEX
  8
0
  5
8C7
 10
57.2995
 20
9.61978
 30
0.00000
  70
    32
  0
VERTEX
  8
0
  5
8C8
 10
57.1879
 20
9.53757
 30
0.00000
  70
    32
  0
VERTEX
  8
0
  5
8C9
 10
57.0763
 20
9.45524
 30
0.00000
  70
    32
  0
VERTEX
  8
0
  5
8CA
 10
56.9648
 20
9.37281
 30
0.00000
  70
    32
  0
VERTEX
  8
0
  5
8CB
 10
56.8533
 20
9.29027
 30
0.00000
  70
    32
  0
VERTEX
  8
0
  5
8CC
 10
56.7420
 20
9.20763
 30
0.00000
  70
    32
  0
VERTEX
  8
0
  5
8CD
 10
56.6307
 20
9.12488
 30
0.00000
  70
    32
  0
VERTEX
  8
0
  5
8CE
 10
56.5195
 20
9.04202
 30
0.00000
  70
    32
  0
VERTEX
  8
0
  5
8CF
 10
56.4084
 20
8.95906
 30
0.00000
  70
    32
  0
VERTEX
  8
0
  5
8D0
 10
56.2974
 20
8.87599
 30
0.00000
  70
    32
  0
VERTEX
  8
0
  5
8D1
 10
56.1864
 20
8.79281
 30
0.00000
  70
    32
  0
VERTEX
  8
0
  5
8D2
 10
56.0756
 20
8.70953
 30
0.00000
  70
    32
  0
VERTEX
  8
0
  5
8D3
 10
55.9648
 20
8.62613
 30
0.00000
  70
    32
  0
VERTEX
  8
0
  5
8D4
 10
55.8541
 20
8.54263
 30
0.00000
  70
    32
  0
VERTEX
  8
0
  5
8D5
 10
55.7435
 20
8.45902
 30
0.00000
  70
    32
  0
VERTEX
  8
0
  5
8D6
 10
55.6329
 20
8.37531
 30
0.00000
  70
    32
  0
VERTEX
  8
0
  5
8D7
 10
55.5225
 20
8.29148
 30
0.00000
  70
    32
  0
VERTEX
  8
0
  5
8D8
 10
55.4121
 20
8.20755
 30
0.00000
  70
    32
  0
VERTEX
  8
0
  5
8D9
 10
55.3018
 20
8.12351
 30
0.00000
  70
    32
  0
VERTEX
  8
0
  5
8DA
 10
55.1916
 20
8.03936
 30
0.00000
  70
    32
  0
VERTEX
  8
0
  5
8DB
 10
55.0815
 20
7.95510
 30
0.00000
  70
    32
  0
VERTEX
  8
0
  5
8DC
 10
54.9715
 20
7.87074
 30
0.00000
  70
    32
  0
VERTEX
  8
0
  5
8DD
 10
54.8615
 20
7.78626
 30
0.00000
  70
    32
  0
VERTEX
  8
0
  5
8DE
 10
54.7517
 20
7.70168
 30
0.00000
  70
    32
  0
VERTEX
  8
0
  5
8DF
 10
54.6419
 20
7.61698
 30
0.00000
  70
    32
  0
VERTEX
  8
0
  5
8E0
 10
54.5322
 20
7.53218
 30
0.00000
  70
    32
  0
VERTEX
  8
0
  5
8E1
 10
54.4226
 20
7.44727
 30
0.00000
  70
    32
  0
VERTEX
  8
0
  5
8E2
 10
54.3131
 20
7.36224
 30
0.00000
  70
    32
  0
VERTEX
  8
0
  5
8E3
 10
54.2036
 20
7.27711
 30
0.00000
  70
    32
  0
VERTEX
  8
0
  5
8E4
 10
54.0943
 20
7.19187
 30
0.00000
  70
    32
  0
VERTEX
  8
0
  5
8E5
 10
53.9850
 20
7.10653
 30
0.00000
  70
    32
  0
VERTEX
  8
0
  5
8E6
 10
53.8759
 20
7.02108
 30
0.00000
  70
    32
  0
VERTEX
  8
0
  5
8E7
 10
53.7668
 20
6.93553
 30
0.00000
  70
    32
  0
VERTEX
  8
0
  5
8E8
 10
53.6577
 20
6.84988
 30
0.00000
  70
    32
  0
VERTEX
  8
0
  5
8E9
 10
53.5488
 20
6.76413
 30
0.00000
  70
    32
  0
VERTEX
  8
0
  5
8EA
 10
53.4399
 20
6.67829
 30
0.00000
  70
    32
  0
VERTEX
  8
0
  5
8EB
 10
53.3311
 20
6.59235
 30
0.00000
  70
    32
  0
VERTEX
  8
0
  5
8EC
 10
53.2224
 20
6.50633
 30
0.00000
  70
    32
  0
VERTEX
  8
0
  5
8ED
 10
53.1137
 20
6.42021
 30
0.00000
  70
    32
  0
VERTEX
  8
0
  5
8EE
 10
53.0051
 20
6.33401
 30
0.00000
  70
    32
  0
VERTEX
  8
0
  5
8EF
 10
52.8966
 20
6.24772
 30
0.00000
  70
    32
  0
VERTEX
  8
0
  5
8F0
 10
52.7882
 20
6.16134
 30
0.00000
  70
    32
  0
VERTEX
  8
0
  5
8F1
 10
52.6798
 20
6.07489
 30
0.00000
  70
    32
  0
VERTEX
  8
0
  5
8F2
 10
52.5715
 20
5.98835
 30
0.00000
  70
    32
  0
VERTEX
  8
0
  5
8F3
 10
52.4632
 20
5.90174
 30
0.00000
  70
    32
  0
VERTEX
  8
0
  5
8F4
 10
52.3550
 20
5.81505
 30
0.00000
  70
    32
  0
VERTEX
  8
0
  5
8F5
 10
52.2468
 20
5.72829
 30
0.00000
  70
    32
  0
VERTEX
  8
0
  5
8F6
 10
52.1388
 20
5.64146
 30
0.00000
  70
    32
  0
VERTEX
  8
0
  5
8F7
 10
52.0307
 20
5.55456
 30
0.00000
  70
    32
  0
VERTEX
  8
0
  5
8F8
 10
51.9227
 20
5.46759
 30
0.00000
  70
    32
  0
VERTEX
  8
0
  5
8F9
 10
51.8148
 20
5.38055
 30
0.00000
  70
    32
  0
VERTEX
  8
0
  5
8FA
 10
51.7069
 20
5.29345
 30
0.00000
  70
    32
  0
VERTEX
  8
0
  5
8FB
 10
51.5991
 20
5.20629
 30
0.00000
  70
    32
  0
VERTEX
  8
0
  5
8FC
 10
51.4913
 20
5.11907
 30
0.00000
  70
    32
  0
VERTEX
  8
0
  5
8FD
 10
51.3836
 20
5.03180
 30
0.00000
  70
    32
  0
VERTEX
  8
0
  5
8FE
 10
51.2759
 20
4.94446
 30
0.00000
  70
    32
  0
VERTEX
  8
0
  5
8FF
 10
51.1682
 20
4.85708
 30
0.00000
  70
    32
  0
VERTEX
  8
0
  5
900
 10
51.0606
 20
4.76964
 30
0.00000
  70
    32
  0
VERTEX
  8
0
  5
901
 10
50.9530
 20
4.68215
 30
0.00000
  70
    32
  0
VERTEX
  8
0
  5
902
 10
50.8455
 20
4.59462
 30
0.00000
  70
    32
  0
VERTEX
  8
0
  5
903
 10
50.7380
 20
4.50704
 30
0.00000
  70
    32
  0
VERTEX
  8
0
  5
904
 10
50.6305
 20
4.41941
 30
0.00000
  70
    32
  0
VERTEX
  8
0
  5
905
 10
50.5231
 20
4.33175
 30
0.00000
  70
    32
  0
VERTEX
  8
0
  5
906
 10
50.4157
 20
4.24404
 30
0.00000
  70
    32
  0
VERTEX
  8
0
  5
907
 10
50.3083
 20
4.15630
 30
0.00000
  70
    32
  0
VERTEX
  8
0
  5
908
 10
50.2010
 20
4.06852
 30
0.00000
  70
    32
  0
VERTEX
  8
0
  5
909
 10
50.0936
 20
3.98071
 30
0.00000
  70
    32
  0
VERTEX
  8
0
  5
90A
 10
49.9863
 20
3.89286
 30
0.00000
  70
    32
  0
VERTEX
  8
0
  5
90B
 10
49.8791
 20
3.80499
 30
0.00000
  70
    32
  0
VERTEX
  8
0
  5
90C
 10
49.7718
 20
3.71709
 30
0.00000
  70
    32
  0
VERTEX
  8
0
  5
90D
 10
49.6646
 20
3.62916
 30
0.00000
  70
    32
  0
VERTEX
  8
0
  5
90E
 10
49.5574
 20
3.54121
 30
0.00000
  70
    32
  0
VERTEX
  8
0
  5
90F
 10
49.4502
 20
3.45324
 30
0.00000
  70
    32
  0
VERTEX
  8
0
  5
910
 10
49.3430
 20
3.36525
 30
0.00000
  70
    32
  0
VERTEX
  8
0
  5
911
 10
49.2358
 20
3.27724
 30
0.00000
  70
    32
  0
VERTEX
  8
0
  5
912
 10
49.1287
 20
3.18922
 30
0.00000
  70
    32
  0
VERTEX
  8
0
  5
913
 10
49.0215
 20
3.10118
 30
0.00000
  70
    32
  0
VERTEX
  8
0
  5
914
 10
48.9144
 20
3.01313
 30
0.00000
  70
    32
  0
VERTEX
  8
0
  5
915
 10
48.8073
 20
2.92508
 30
0.00000
  70
    32
  0
VERTEX
  8
0
  5
916
 10
48.7002
 20
2.83701
 30
0.00000
  70
    32
  0
VERTEX
  8
0
  5
917
 10
48.5931
 20
2.74894
 30
0.00000
  70
    32
  0
VERTEX
  8
0
  5
918
 10
48.4859
 20
2.66086
 30
0.00000
  70
    32
  0
VERTEX
  8
0
  5
919
 10
48.3324
 20
2.69830
 30
0.00000
  70
    32
  0
VERTEX
  8
0
  5
91A
 10
48.0064
 20
3.20152
 30
0.00000
  70
    32
  0
VERTEX
  8
0
  5
91B
 10
47.6804
 20
3.70473
 30
0.00000
  70
    32
  0
VERTEX
  8
0
  5
91C
 10
47.3543
 20
4.20794
 30
0.00000
  70
    32
  0
VERTEX
  8
0
  5
91D
 10
47.0283
 20
4.71116
 30
0.00000
  70
    32
  0
VERTEX
  8
0
  5
91E
 10
46.7023
 20
5.21437
 30
0.00000
  70
    32
  0
VERTEX
  8
0
  5
91F
 10
46.3763
 20
5.71758
 30
0.00000
  70
    32
  0
VERTEX
  8
0
  5
920
 10
46.0503
 20
6.22080
 30
0.00000
  70
    32
  0
SEQEND
  8
0
  5
921
  0
INSERT
  5
1FB
  8
0
  2
*U6
 10
0.0
 20
0.0
 30
0.0
  0
CIRCLE
  5
1FC
  8
DRILLING
 10
86.5013966910277645
 20
33.434610777540513
 30
0.0
 40
0.3224999999999999
  0
CIRCLE
  5
1FD
  8
DRILLING
 10
91.7887574723478679
 20
36.2707729675712969
 30
0.0
 40
0.3224999999999999
  0
POLYLINE
  8
0
  5
922
  66
     1
 10
0.00000
 20
0.00000
 30
0.00000
  70
     8
  0
VERTEX
  8
0
  5
923
 10
5.77325
 20
8.70733
 30
0.00000
  70
    32
  0
VERTEX
  8
0
  5
924
 10
5.87051
 20
8.80617
 30
0.00000
  70
    32
  0
VERTEX
  8
0
  5
925
 10
5.96776
 20
8.90501
 30
0.00000
  70
    32
  0
VERTEX
  8
0
  5
926
 10
6.06502
 20
9.00385
 30
0.00000
  70
    32
  0
VERTEX
  8
0
  5
927
 10
6.16228
 20
9.10269
 30
0.00000
  70
    32
  0
VERTEX
  8
0
  5
928
 10
6.25954
 20
9.20153
 30
0.00000
  70
    32
  0
VERTEX
  8
0
  5
929
 10
6.35680
 20
9.30036
 30
0.00000
  70
    32
  0
VERTEX
  8
0
  5
92A
 10
6.45407
 20
9.39919
 30
0.00000
  70
    32
  0
VERTEX
  8
0
  5
92B
 10
6.55135
 20
9.49802
 30
0.00000
  70
    32
  0
VERTEX
  8
0
  5
92C
 10
6.64862
 20
9.59683
 30
0.00000
  70
    32
  0
VERTEX
  8
0
  5
92D
 10
6.74591
 20
9.69565
 30
0.00000
  70
    32
  0
VERTEX
  8
0
  5
92E
 10
6.84320
 20
9.79445
 30
0.00000
  70
    32
  0
VERTEX
  8
0
  5
92F
 10
6.94050
 20
9.89325
 30
0.00000
  70
    32
  0
VERTEX
  8
0
  5
930
 10
7.03780
 20
9.99204
 30
0.00000
  70
    32
  0
VERTEX
  8
0
  5
931
 10
7.13512
 20
10.0908
 30
0.00000
  70
    32
  0
VERTEX
  8
0
  5
932
 10
7.23244
 20
10.1896
 30
0.00000
  70
    32
  0
VERTEX
  8
0
  5
933
 10
7.32977
 20
10.2884
 30
0.00000
  70
    32
  0
VERTEX
  8
0
  5
934
 10
7.42712
 20
10.3871
 30
0.00000
  70
    32
  0
VERTEX
  8
0
  5
935
 10
7.52447
 20
10.4859
 30
0.00000
  70
    32
  0
VERTEX
  8
0
  5
936
 10
7.62184
 20
10.5846
 30
0.00000
  70
    32
  0
VERTEX
  8
0
  5
937
 10
7.71922
 20
10.6833
 30
0.00000
  70
    32
  0
VERTEX
  8
0
  5
938
 10
7.81661
 20
10.7820
 30
0.00000
  70
    32
  0
VERTEX
  8
0
  5
939
 10
7.91402
 20
10.8807
 30
0.00000
  70
    32
  0
VERTEX
  8
0
  5
93A
 10
8.01144
 20
10.9794
 30
0.00000
  70
    32
  0
VERTEX
  8
0
  5
93B
 10
8.10888
 20
11.0780
 30
0.00000
  70
    32
  0
VERTEX
  8
0
  5
93C
 10
8.20633
 20
11.1767
 30
0.00000
  70
    32
  0
VERTEX
  8
0
  5
93D
 10
8.30380
 20
11.2753
 30
0.00000
  70
    32
  0
VERTEX
  8
0
  5
93E
 10
8.40129
 20
11.3739
 30
0.00000
  70
    32
  0
VERTEX
  8
0
  5
93F
 10
8.49879
 20
11.4725
 30
0.00000
  70
    32
  0
VERTEX
  8
0
  5
940
 10
8.59631
 20
11.5710
 30
0.00000
  70
    32
  0
VERTEX
  8
0
  5
941
 10
8.69385
 20
11.6696
 30
0.00000
  70
    32
  0
VERTEX
  8
0
  5
942
 10
8.79142
 20
11.7681
 30
0.00000
  70
    32
  0
VERTEX
  8
0
  5
943
 10
8.88900
 20
11.8666
 30
0.00000
  70
    32
  0
VERTEX
  8
0
  5
944
 10
8.98660
 20
11.9651
 30
0.00000
  70
    32
  0
VERTEX
  8
0
  5
945
 10
9.08423
 20
12.0636
 30
0.00000
  70
    32
  0
VERTEX
  8
0
  5
946
 10
9.18187
 20
12.1620
 30
0.00000
  70
    32
  0
VERTEX
  8
0
  5
947
 10
9.27954
 20
12.2605
 30
0.00000
  70
    32
  0
VERTEX
  8
0
  5
948
 10
9.37724
 20
12.3589
 30
0.00000
  70
    32
  0
VERTEX
  8
0
  5
949
 10
9.47496
 20
12.4572
 30
0.00000
  70
    32
  0
VERTEX
  8
0
  5
94A
 10
9.57270
 20
12.5556
 30
0.00000
  70
    32
  0
VERTEX
  8
0
  5
94B
 10
9.67047
 20
12.6539
 30
0.00000
  70
    32
  0
VERTEX
  8
0
  5
94C
 10
9.76826
 20
12.7522
 30
0.00000
  70
    32
  0
VERTEX
  8
0
  5
94D
 10
9.86609
 20
12.8504
 30
0.00000
  70
    32
  0
VERTEX
  8
0
  5
94E
 10
9.96394
 20
12.9487
 30
0.00000
  70
    32
  0
VERTEX
  8
0
  5
94F
 10
10.0618
 20
13.0469
 30
0.00000
  70
    32
  0
VERTEX
  8
0
  5
950
 10
10.1597
 20
13.1451
 30
0.00000
  70
    32
  0
VERTEX
  8
0
  5
951
 10
10.2577
 20
13.2432
 30
0.00000
  70
    32
  0
VERTEX
  8
0
  5
952
 10
10.3556
 20
13.3413
 30
0.00000
  70
    32
  0
VERTEX
  8
0
  5
953
 10
10.4536
 20
13.4394
 30
0.00000
  70
    32
  0
VERTEX
  8
0
  5
954
 10
10.5517
 20
13.5375
 30
0.00000
  70
    32
  0
VERTEX
  8
0
  5
955
 10
10.6497
 20
13.6355
 30
0.00000
  70
    32
  0
VERTEX
  8
0
  5
956
 10
10.7478
 20
13.7335
 30
0.00000
  70
    32
  0
VERTEX
  8
0
  5
957
 10
10.8459
 20
13.8314
 30
0.00000
  70
    32
  0
VERTEX
  8
0
  5
958
 10
10.9441
 20
13.9293
 30
0.00000
  70
    32
  0
VERTEX
  8
0
  5
959
 10
11.0423
 20
14.0272
 30
0.00000
  70
    32
  0
VERTEX
  8
0
  5
95A
 10
11.1405
 20
14.1251
 30
0.00000
  70
    32
  0
VERTEX
  8
0
  5
95B
 10
11.2388
 20
14.2229
 30
0.00000
  70
    32
  0
VERTEX
  8
0
  5
95C
 10
11.3371
 20
14.3207
 30
0.00000
  70
    32
  0
VERTEX
  8
0
  5
95D
 10
11.4355
 20
14.4184
 30
0.00000
  70
    32
  0
VERTEX
  8
0
  5
95E
 10
11.5338
 20
14.5161
 30
0.00000
  70
    32
  0
VERTEX
  8
0
  5
95F
 10
11.6323
 20
14.6137
 30
0.00000
  70
    32
  0
VERTEX
  8
0
  5
960
 10
11.7307
 20
14.7113
 30
0.00000
  70
    32
  0
VERTEX
  8
0
  5
961
 10
11.8292
 20
14.8089
 30
0.00000
  70
    32
  0
VERTEX
  8
0
  5
962
 10
11.9278
 20
14.9064
 30
0.00000
  70
    32
  0
VERTEX
  8
0
  5
963
 10
12.0264
 20
15.0039
 30
0.00000
  70
    32
  0
VERTEX
  8
0
  5
964
 10
12.1250
 20
15.1014
 30
0.00000
  70
    32
  0
VERTEX
  8
0
  5
965
 10
12.2237
 20
15.1988
 30
0.00000
  70
    32
  0
VERTEX
  8
0
  5
966
 10
12.3224
 20
15.2961
 30
0.00000
  70
    32
  0
VERTEX
  8
0
  5
967
 10
12.4211
 20
15.3935
 30
0.00000
  70
    32
  0
VERTEX
  8
0
  5
968
 10
12.5199
 20
15.4907
 30
0.00000
  70
    32
  0
VERTEX
  8
0
  5
969
 10
12.6188
 20
15.5879
 30
0.00000
  70
    32
  0
VERTEX
  8
0
  5
96A
 10
12.7177
 20
15.6851
 30
0.00000
  70
    32
  0
VERTEX
  8
0
  5
96B
 10
12.8166
 20
15.7822
 30
0.00000
  70
    32
  0
VERTEX
  8
0
  5
96C
 10
12.9156
 20
15.8793
 30
0.00000
  70
    32
  0
VERTEX
  8
0
  5
96D
 10
13.0146
 20
15.9763
 30
0.00000
  70
    32
  0
VERTEX
  8
0
  5
96E
 10
13.1137
 20
16.0733
 30
0.00000
  70
    32
  0
VERTEX
  8
0
  5
96F
 10
13.2129
 20
16.1703
 30
0.00000
  70
    32
  0
VERTEX
  8
0
  5
970
 10
13.3120
 20
16.2671
 30
0.00000
  70
    32
  0
VERTEX
  8
0
  5
971
 10
13.4113
 20
16.3640
 30
0.00000
  70
    32
  0
VERTEX
  8
0
  5
972
 10
13.5106
 20
16.4607
 30
0.00000
  70
    32
  0
VERTEX
  8
0
  5
973
 10
13.6099
 20
16.5575
 30
0.00000
  70
    32
  0
VERTEX
  8
0
  5
974
 10
13.7093
 20
16.6541
 30
0.00000
  70
    32
  0
VERTEX
  8
0
  5
975
 10
13.8087
 20
16.7507
 30
0.00000
  70
    32
  0
VERTEX
  8
0
  5
976
 10
13.9082
 20
16.8473
 30
0.00000
  70
    32
  0
VERTEX
  8
0
  5
977
 10
14.0078
 20
16.9438
 30
0.00000
  70
    32
  0
VERTEX
  8
0
  5
978
 10
14.1074
 20
17.0402
 30
0.00000
  70
    32
  0
VERTEX
  8
0
  5
979
 10
14.2071
 20
17.1366
 30
0.00000
  70
    32
  0
VERTEX
  8
0
  5
97A
 10
14.3068
 20
17.2330
 30
0.00000
  70
    32
  0
VERTEX
  8
0
  5
97B
 10
14.4065
 20
17.3292
 30
0.00000
  70
    32
  0
VERTEX
  8
0
  5
97C
 10
14.5064
 20
17.4255
 30
0.00000
  70
    32
  0
VERTEX
  8
0
  5
97D
 10
14.6062
 20
17.5216
 30
0.00000
  70
    32
  0
VERTEX
  8
0
  5
97E
 10
14.7062
 20
17.6178
 30
0.00000
  70
    32
  0
VERTEX
  8
0
  5
97F
 10
14.8062
 20
17.7138
 30
0.00000
  70
    32
  0
VERTEX
  8
0
  5
980
 10
14.9062
 20
17.8098
 30
0.00000
  70
    32
  0
VERTEX
  8
0
  5
981
 10
15.0063
 20
17.9058
 30
0.00000
  70
    32
  0
VERTEX
  8
0
  5
982
 10
15.1064
 20
18.0017
 30
0.00000
  70
    32
  0
VERTEX
  8
0
  5
983
 10
15.2066
 20
18.0975
 30
0.00000
  70
    32
  0
VERTEX
  8
0
  5
984
 10
15.3069
 20
18.1933
 30
0.00000
  70
    32
  0
VERTEX
  8
0
  5
985
 10
15.4072
 20
18.2891
 30
0.00000
  70
    32
  0
VERTEX
  8
0
  5
986
 10
15.5075
 20
18.3848
 30
0.00000
  70
    32
  0
VERTEX
  8
0
  5
987
 10
15.6079
 20
18.4804
 30
0.00000
  70
    32
  0
VERTEX
  8
0
  5
988
 10
15.7084
 20
18.5760
 30
0.00000
  70
    32
  0
VERTEX
  8
0
  5
989
 10
15.8089
 20
18.6715
 30
0.00000
  70
    32
  0
VERTEX
  8
0
  5
98A
 10
15.9094
 20
18.7669
 30
0.00000
  70
    32
  0
VERTEX
  8
0
  5
98B
 10
16.0100
 20
18.8624
 30
0.00000
  70
    32
  0
VERTEX
  8
0
  5
98C
 10
16.1107
 20
18.9577
 30
0.00000
  70
    32
  0
VERTEX
  8
0
  5
98D
 10
16.2114
 20
19.0530
 30
0.00000
  70
    32
  0
VERTEX
  8
0
  5
98E
 10
16.3122
 20
19.1483
 30
0.00000
  70
    32
  0
VERTEX
  8
0
  5
98F
 10
16.4130
 20
19.2435
 30
0.00000
  70
    32
  0
VERTEX
  8
0
  5
990
 10
16.5139
 20
19.3386
 30
0.00000
  70
    32
  0
VERTEX
  8
0
  5
991
 10
16.6148
 20
19.4337
 30
0.00000
  70
    32
  0
VERTEX
  8
0
  5
992
 10
16.7157
 20
19.5287
 30
0.00000
  70
    32
  0
VERTEX
  8
0
  5
993
 10
16.8168
 20
19.6237
 30
0.00000
  70
    32
  0
VERTEX
  8
0
  5
994
 10
16.9178
 20
19.7187
 30
0.00000
  70
    32
  0
VERTEX
  8
0
  5
995
 10
17.0190
 20
19.8135
 30
0.00000
  70
    32
  0
VERTEX
  8
0
  5
996
 10
17.1201
 20
19.9084
 30
0.00000
  70
    32
  0
VERTEX
  8
0
  5
997
 10
17.2214
 20
20.0031
 30
0.00000
  70
    32
  0
VERTEX
  8
0
  5
998
 10
17.3226
 20
20.0978
 30
0.00000
  70
    32
  0
VERTEX
  8
0
  5
999
 10
17.4240
 20
20.1925
 30
0.00000
  70
    32
  0
VERTEX
  8
0
  5
99A
 10
17.5253
 20
20.2871
 30
0.00000
  70
    32
  0
VERTEX
  8
0
  5
99B
 10
17.6268
 20
20.3817
 30
0.00000
  70
    32
  0
VERTEX
  8
0
  5
99C
 10
17.7282
 20
20.4762
 30
0.00000
  70
    32
  0
VERTEX
  8
0
  5
99D
 10
17.8298
 20
20.5706
 30
0.00000
  70
    32
  0
VERTEX
  8
0
  5
99E
 10
17.9313
 20
20.6650
 30
0.00000
  70
    32
  0
VERTEX
  8
0
  5
99F
 10
18.0330
 20
20.7594
 30
0.00000
  70
    32
  0
VERTEX
  8
0
  5
9A0
 10
18.1346
 20
20.8537
 30
0.00000
  70
    32
  0
VERTEX
  8
0
  5
9A1
 10
18.2363
 20
20.9479
 30
0.00000
  70
    32
  0
VERTEX
  8
0
  5
9A2
 10
18.3381
 20
21.0421
 30
0.00000
  70
    32
  0
VERTEX
  8
0
  5
9A3
 10
18.4399
 20
21.1362
 30
0.00000
  70
    32
  0
VERTEX
  8
0
  5
9A4
 10
18.5418
 20
21.2303
 30
0.00000
  70
    32
  0
VERTEX
  8
0
  5
9A5
 10
18.6437
 20
21.3244
 30
0.00000
  70
    32
  0
VERTEX
  8
0
  5
9A6
 10
18.7457
 20
21.4183
 30
0.00000
  70
    32
  0
VERTEX
  8
0
  5
9A7
 10
18.8477
 20
21.5123
 30
0.00000
  70
    32
  0
VERTEX
  8
0
  5
9A8
 10
18.9498
 20
21.6061
 30
0.00000
  70
    32
  0
VERTEX
  8
0
  5
9A9
 10
19.0519
 20
21.6999
 30
0.00000
  70
    32
  0
VERTEX
  8
0
  5
9AA
 10
19.1541
 20
21.7937
 30
0.00000
  70
    32
  0
VERTEX
  8
0
  5
9AB
 10
19.2563
 20
21.8874
 30
0.00000
  70
    32
  0
VERTEX
  8
0
  5
9AC
 10
19.3585
 20
21.9811
 30
0.00000
  70
    32
  0
VERTEX
  8
0
  5
9AD
 10
19.4608
 20
22.0747
 30
0.00000
  70
    32
  0
VERTEX
  8
0
  5
9AE
 10
19.5632
 20
22.1683
 30
0.00000
  70
    32
  0
VERTEX
  8
0
  5
9AF
 10
19.6656
 20
22.2618
 30
0.00000
  70
    32
  0
VERTEX
  8
0
  5
9B0
 10
19.7680
 20
22.3552
 30
0.00000
  70
    32
  0
VERTEX
  8
0
  5
9B1
 10
19.8705
 20
22.4486
 30
0.00000
  70
    32
  0
VERTEX
  8
0
  5
9B2
 10
19.9731
 20
22.5420
 30
0.00000
  70
    32
  0
VERTEX
  8
0
  5
9B3
 10
20.0757
 20
22.6353
 30
0.00000
  70
    32
  0
VERTEX
  8
0
  5
9B4
 10
20.1783
 20
22.7285
 30
0.00000
  70
    32
  0
VERTEX
  8
0
  5
9B5
 10
20.2810
 20
22.8217
 30
0.00000
  70
    32
  0
VERTEX
  8
0
  5
9B6
 10
20.3837
 20
22.9149
 30
0.00000
  70
    32
  0
VERTEX
  8
0
  5
9B7
 10
20.4865
 20
23.0080
 30
0.00000
  70
    32
  0
VERTEX
  8
0
  5
9B8
 10
20.5894
 20
23.1010
 30
0.00000
  70
    32
  0
VERTEX
  8
0
  5
9B9
 10
20.6922
 20
23.1940
 30
0.00000
  70
    32
  0
VERTEX
  8
0
  5
9BA
 10
20.7952
 20
23.2870
 30
0.00000
  70
    32
  0
VERTEX
  8
0
  5
9BB
 10
20.8981
 20
23.3798
 30
0.00000
  70
    32
  0
VERTEX
  8
0
  5
9BC
 10
21.0011
 20
23.4727
 30
0.00000
  70
    32
  0
VERTEX
  8
0
  5
9BD
 10
21.1042
 20
23.5655
 30
0.00000
  70
    32
  0
VERTEX
  8
0
  5
9BE
 10
21.2073
 20
23.6582
 30
0.00000
  70
    32
  0
VERTEX
  8
0
  5
9BF
 10
21.3105
 20
23.7509
 30
0.00000
  70
    32
  0
VERTEX
  8
0
  5
9C0
 10
21.4137
 20
23.8435
 30
0.00000
  70
    32
  0
VERTEX
  8
0
  5
9C1
 10
21.5169
 20
23.9361
 30
0.00000
  70
    32
  0
VERTEX
  8
0
  5
9C2
 10
21.6202
 20
24.0286
 30
0.00000
  70
    32
  0
VERTEX
  8
0
  5
9C3
 10
21.7236
 20
24.1211
 30
0.00000
  70
    32
  0
VERTEX
  8
0
  5
9C4
 10
21.8269
 20
24.2135
 30
0.00000
  70
    32
  0
VERTEX
  8
0
  5
9C5
 10
21.9304
 20
24.3059
 30
0.00000
  70
    32
  0
VERTEX
  8
0
  5
9C6
 10
22.0338
 20
24.3982
 30
0.00000
  70
    32
  0
VERTEX
  8
0
  5
9C7
 10
22.1374
 20
24.4905
 30
0.00000
  70
    32
  0
VERTEX
  8
0
  5
9C8
 10
22.2409
 20
24.5827
 30
0.00000
  70
    32
  0
VERTEX
  8
0
  5
9C9
 10
22.3445
 20
24.6749
 30
0.00000
  70
    32
  0
VERTEX
  8
0
  5
9CA
 10
22.4482
 20
24.7670
 30
0.00000
  70
    32
  0
VERTEX
  8
0
  5
9CB
 10
22.5519
 20
24.8591
 30
0.00000
  70
    32
  0
VERTEX
  8
0
  5
9CC
 10
22.6556
 20
24.9511
 30
0.00000
  70
    32
  0
VERTEX
  8
0
  5
9CD
 10
22.7594
 20
25.0431
 30
0.00000
  70
    32
  0
VERTEX
  8
0
  5
9CE
 10
22.8633
 20
25.1350
 30
0.00000
  70
    32
  0
VERTEX
  8
0
  5
9CF
 10
22.9672
 20
25.2269
 30
0.00000
  70
    32
  0
VERTEX
  8
0
  5
9D0
 10
23.0711
 20
25.3187
 30
0.00000
  70
    32
  0
VERTEX
  8
0
  5
9D1
 10
23.1750
 20
25.4105
 30
0.00000
  70
    32
  0
VERTEX
  8
0
  5
9D2
 10
23.2791
 20
25.5022
 30
0.00000
  70
    32
  0
VERTEX
  8
0
  5
9D3
 10
23.3831
 20
25.5939
 30
0.00000
  70
    32
  0
VERTEX
  8
0
  5
9D4
 10
23.4872
 20
25.6855
 30
0.00000
  70
    32
  0
VERTEX
  8
0
  5
9D5
 10
23.5914
 20
25.7771
 30
0.00000
  70
    32
  0
VERTEX
  8
0
  5
9D6
 10
23.6955
 20
25.8686
 30
0.00000
  70
    32
  0
VERTEX
  8
0
  5
9D7
 10
23.7998
 20
25.9601
 30
0.00000
  70
    32
  0
VERTEX
  8
0
  5
9D8
 10
23.9041
 20
26.0515
 30
0.00000
  70
    32
  0
VERTEX
  8
0
  5
9D9
 10
24.0084
 20
26.1429
 30
0.00000
  70
    32
  0
VERTEX
  8
0
  5
9DA
 10
24.1127
 20
26.2342
 30
0.00000
  70
    32
  0
VERTEX
  8
0
  5
9DB
 10
24.2171
 20
26.3255
 30
0.00000
  70
    32
  0
VERTEX
  8
0
  5
9DC
 10
24.3216
 20
26.4167
 30
0.00000
  70
    32
  0
VERTEX
  8
0
  5
9DD
 10
24.4261
 20
26.5079
 30
0.00000
  70
    32
  0
VERTEX
  8
0
  5
9DE
 10
24.5306
 20
26.5990
 30
0.00000
  70
    32
  0
VERTEX
  8
0
  5
9DF
 10
24.6352
 20
26.6901
 30
0.00000
  70
    32
  0
VERTEX
  8
0
  5
9E0
 10
24.7398
 20
26.7811
 30
0.00000
  70
    32
  0
VERTEX
  8
0
  5
9E1
 10
24.8445
 20
26.8721
 30
0.00000
  70
    32
  0
VERTEX
  8
0
  5
9E2
 10
24.9492
 20
26.9630
 30
0.00000
  70
    32
  0
VERTEX
  8
0
  5
9E3
 10
25.0539
 20
27.0539
 30
0.00000
  70
    32
  0
VERTEX
  8
0
  5
9E4
 10
25.1587
 20
27.1447
 30
0.00000
  70
    32
  0
VERTEX
  8
0
  5
9E5
 10
25.2636
 20
27.2355
 30
0.00000
  70
    32
  0
VERTEX
  8
0
  5
9E6
 10
25.3685
 20
27.3262
 30
0.00000
  70
    32
  0
VERTEX
  8
0
  5
9E7
 10
25.4734
 20
27.4169
 30
0.00000
  70
    32
  0
VERTEX
  8
0
  5
9E8
 10
25.5784
 20
27.5075
 30
0.00000
  70
    32
  0
VERTEX
  8
0
  5
9E9
 10
25.6834
 20
27.5981
 30
0.00000
  70
    32
  0
VERTEX
  8
0
  5
9EA
 10
25.7884
 20
27.6886
 30
0.00000
  70
    32
  0
VERTEX
  8
0
  5
9EB
 10
25.8935
 20
27.7791
 30
0.00000
  70
    32
  0
VERTEX
  8
0
  5
9EC
 10
25.9987
 20
27.8695
 30
0.00000
  70
    32
  0
VERTEX
  8
0
  5
9ED
 10
26.1039
 20
27.9599
 30
0.00000
  70
    32
  0
VERTEX
  8
0
  5
9EE
 10
26.2091
 20
28.0502
 30
0.00000
  70
    32
  0
VERTEX
  8
0
  5
9EF
 10
26.3144
 20
28.1405
 30
0.00000
  70
    32
  0
VERTEX
  8
0
  5
9F0
 10
26.4197
 20
28.2307
 30
0.00000
  70
    32
  0
VERTEX
  8
0
  5
9F1
 10
26.5250
 20
28.3208
 30
0.00000
  70
    32
  0
VERTEX
  8
0
  5
9F2
 10
26.6305
 20
28.4109
 30
0.00000
  70
    32
  0
VERTEX
  8
0
  5
9F3
 10
26.7359
 20
28.5010
 30
0.00000
  70
    32
  0
VERTEX
  8
0
  5
9F4
 10
26.8414
 20
28.5910
 30
0.00000
  70
    32
  0
VERTEX
  8
0
  5
9F5
 10
26.9469
 20
28.6810
 30
0.00000
  70
    32
  0
VERTEX
  8
0
  5
9F6
 10
27.0525
 20
28.7709
 30
0.00000
  70
    32
  0
VERTEX
  8
0
  5
9F7
 10
27.1582
 20
28.8607
 30
0.00000
  70
    32
  0
VERTEX
  8
0
  5
9F8
 10
27.2638
 20
28.9505
 30
0.00000
  70
    32
  0
VERTEX
  8
0
  5
9F9
 10
27.3695
 20
29.0402
 30
0.00000
  70
    32
  0
VERTEX
  8
0
  5
9FA
 10
27.4753
 20
29.1299
 30
0.00000
  70
    32
  0
VERTEX
  8
0
  5
9FB
 10
27.5811
 20
29.2196
 30
0.00000
  70
    32
  0
VERTEX
  8
0
  5
9FC
 10
27.6870
 20
29.3092
 30
0.00000
  70
    32
  0
VERTEX
  8
0
  5
9FD
 10
27.7928
 20
29.3987
 30
0.00000
  70
    32
  0
VERTEX
  8
0
  5
9FE
 10
27.8988
 20
29.4882
 30
0.00000
  70
    32
  0
VERTEX
  8
0
  5
9FF
 10
28.0048
 20
29.5776
 30
0.00000
  70
    32
  0
VERTEX
  8
0
  5
A00
 10
28.1108
 20
29.6670
 30
0.00000
  70
    32
  0
VERTEX
  8
0
  5
A01
 10
28.2169
 20
29.7563
 30
0.00000
  70
    32
  0
VERTEX
  8
0
  5
A02
 10
28.3230
 20
29.8456
 30
0.00000
  70
    32
  0
VERTEX
  8
0
  5
A03
 10
28.4291
 20
29.9348
 30
0.00000
  70
    32
  0
VERTEX
  8
0
  5
A04
 10
28.5353
 20
30.0240
 30
0.00000
  70
    32
  0
VERTEX
  8
0
  5
A05
 10
28.6416
 20
30.1131
 30
0.00000
  70
    32
  0
VERTEX
  8
0
  5
A06
 10
28.7479
 20
30.2021
 30
0.00000
  70
    32
  0
VERTEX
  8
0
  5
A07
 10
28.8542
 20
30.2912
 30
0.00000
  70
    32
  0
VERTEX
  8
0
  5
A08
 10
28.9606
 20
30.3801
 30
0.00000
  70
    32
  0
VERTEX
  8
0
  5
A09
 10
29.0670
 20
30.4690
 30
0.00000
  70
    32
  0
VERTEX
  8
0
  5
A0A
 10
29.1735
 20
30.5578
 30
0.00000
  70
    32
  0
VERTEX
  8
0
  5
A0B
 10
29.2800
 20
30.6466
 30
0.00000
  70
    32
  0
VERTEX
  8
0
  5
A0C
 10
29.3866
 20
30.7354
 30
0.00000
  70
    32
  0
VERTEX
  8
0
  5
A0D
 10
29.4932
 20
30.8240
 30
0.00000
  70
    32
  0
VERTEX
  8
0
  5
A0E
 10
29.5998
 20
30.9127
 30
0.00000
  70
    32
  0
VERTEX
  8
0
  5
A0F
 10
29.7065
 20
31.0013
 30
0.00000
  70
    32
  0
VERTEX
  8
0
  5
A10
 10
29.8133
 20
31.0898
 30
0.00000
  70
    32
  0
VERTEX
  8
0
  5
A11
 10
29.9201
 20
31.1782
 30
0.00000
  70
    32
  0
VERTEX
  8
0
  5
A12
 10
30.0269
 20
31.2666
 30
0.00000
  70
    32
  0
VERTEX
  8
0
  5
A13
 10
30.1338
 20
31.3550
 30
0.00000
  70
    32
  0
VERTEX
  8
0
  5
A14
 10
30.2407
 20
31.4433
 30
0.00000
  70
    32
  0
VERTEX
  8
0
  5
A15
 10
30.3476
 20
31.5315
 30
0.00000
  70
    32
  0
VERTEX
  8
0
  5
A16
 10
30.4547
 20
31.6197
 30
0.00000
  70
    32
  0
VERTEX
  8
0
  5
A17
 10
30.5617
 20
31.7079
 30
0.00000
  70
    32
  0
VERTEX
  8
0
  5
A18
 10
30.6688
 20
31.7960
 30
0.00000
  70
    32
  0
VERTEX
  8
0
  5
A19
 10
30.7760
 20
31.8840
 30
0.00000
  70
    32
  0
VERTEX
  8
0
  5
A1A
 10
30.8831
 20
31.9720
 30
0.00000
  70
    32
  0
VERTEX
  8
0
  5
A1B
 10
30.9904
 20
32.0599
 30
0.00000
  70
    32
  0
VERTEX
  8
0
  5
A1C
 10
31.0977
 20
32.1477
 30
0.00000
  70
    32
  0
VERTEX
  8
0
  5
A1D
 10
31.2050
 20
32.2355
 30
0.00000
  70
    32
  0
VERTEX
  8
0
  5
A1E
 10
31.3124
 20
32.3233
 30
0.00000
  70
    32
  0
VERTEX
  8
0
  5
A1F
 10
31.4198
 20
32.4110
 30
0.00000
  70
    32
  0
VERTEX
  8
0
  5
A20
 10
31.5272
 20
32.4986
 30
0.00000
  70
    32
  0
VERTEX
  8
0
  5
A21
 10
31.6348
 20
32.5862
 30
0.00000
  70
    32
  0
VERTEX
  8
0
  5
A22
 10
31.7423
 20
32.6737
 30
0.00000
  70
    32
  0
VERTEX
  8
0
  5
A23
 10
31.8499
 20
32.7612
 30
0.00000
  70
    32
  0
VERTEX
  8
0
  5
A24
 10
31.9575
 20
32.8486
 30
0.00000
  70
    32
  0
VERTEX
  8
0
  5
A25
 10
32.0652
 20
32.9360
 30
0.00000
  70
    32
  0
VERTEX
  8
0
  5
A26
 10
32.1730
 20
33.0233
 30
0.00000
  70
    32
  0
VERTEX
  8
0
  5
A27
 10
32.2808
 20
33.1105
 30
0.00000
  70
    32
  0
VERTEX
  8
0
  5
A28
 10
32.3886
 20
33.1977
 30
0.00000
  70
    32
  0
VERTEX
  8
0
  5
A29
 10
32.4965
 20
33.2848
 30
0.00000
  70
    32
  0
VERTEX
  8
0
  5
A2A
 10
32.6044
 20
33.3719
 30
0.00000
  70
    32
  0
VERTEX
  8
0
  5
A2B
 10
32.7123
 20
33.4589
 30
0.00000
  70
    32
  0
VERTEX
  8
0
  5
A2C
 10
32.8203
 20
33.5459
 30
0.00000
  70
    32
  0
VERTEX
  8
0
  5
A2D
 10
32.9284
 20
33.6328
 30
0.00000
  70
    32
  0
VERTEX
  8
0
  5
A2E
 10
33.0365
 20
33.7197
 30
0.00000
  70
    32
  0
VERTEX
  8
0
  5
A2F
 10
33.1447
 20
33.8065
 30
0.00000
  70
    32
  0
VERTEX
  8
0
  5
A30
 10
33.2528
 20
33.8932
 30
0.00000
  70
    32
  0
VERTEX
  8
0
  5
A31
 10
33.3611
 20
33.9799
 30
0.00000
  70
    32
  0
VERTEX
  8
0
  5
A32
 10
33.4694
 20
34.0665
 30
0.00000
  70
    32
  0
VERTEX
  8
0
  5
A33
 10
33.5777
 20
34.1530
 30
0.00000
  70
    32
  0
VERTEX
  8
0
  5
A34
 10
33.6861
 20
34.2396
 30
0.00000
  70
    32
  0
VERTEX
  8
0
  5
A35
 10
33.7945
 20
34.3260
 30
0.00000
  70
    32
  0
VERTEX
  8
0
  5
A36
 10
33.9030
 20
34.4124
 30
0.00000
  70
    32
  0
VERTEX
  8
0
  5
A37
 10
34.0115
 20
34.4987
 30
0.00000
  70
    32
  0
VERTEX
  8
0
  5
A38
 10
34.1200
 20
34.5850
 30
0.00000
  70
    32
  0
VERTEX
  8
0
  5
A39
 10
34.2287
 20
34.6712
 30
0.00000
  70
    32
  0
VERTEX
  8
0
  5
A3A
 10
34.3373
 20
34.7574
 30
0.00000
  70
    32
  0
VERTEX
  8
0
  5
A3B
 10
34.4460
 20
34.8435
 30
0.00000
  70
    32
  0
VERTEX
  8
0
  5
A3C
 10
34.5548
 20
34.9295
 30
0.00000
  70
    32
  0
VERTEX
  8
0
  5
A3D
 10
34.6635
 20
35.0155
 30
0.00000
  70
    32
  0
VERTEX
  8
0
  5
A3E
 10
34.7724
 20
35.1014
 30
0.00000
  70
    32
  0
VERTEX
  8
0
  5
A3F
 10
34.8813
 20
35.1873
 30
0.00000
  70
    32
  0
VERTEX
  8
0
  5
A40
 10
34.9902
 20
35.2731
 30
0.00000
  70
    32
  0
VERTEX
  8
0
  5
A41
 10
35.0992
 20
35.3589
 30
0.00000
  70
    32
  0
VERTEX
  8
0
  5
A42
 10
35.2082
 20
35.4445
 30
0.00000
  70
    32
  0
VERTEX
  8
0
  5
A43
 10
35.3173
 20
35.5302
 30
0.00000
  70
    32
  0
VERTEX
  8
0
  5
A44
 10
35.4264
 20
35.6158
 30
0.00000
  70
    32
  0
VERTEX
  8
0
  5
A45
 10
35.5356
 20
35.7013
 30
0.00000
  70
    32
  0
VERTEX
  8
0
  5
A46
 10
35.6448
 20
35.7867
 30
0.00000
  70
    32
  0
VERTEX
  8
0
  5
A47
 10
35.7540
 20
35.8721
 30
0.00000
  70
    32
  0
VERTEX
  8
0
  5
A48
 10
35.8633
 20
35.9575
 30
0.00000
  70
    32
  0
VERTEX
  8
0
  5
A49
 10
35.9727
 20
36.0427
 30
0.00000
  70
    32
  0
VERTEX
  8
0
  5
A4A
 10
36.0821
 20
36.1280
 30
0.00000
  70
    32
  0
VERTEX
  8
0
  5
A4B
 10
36.1915
 20
36.2131
 30
0.00000
  70
    32
  0
VERTEX
  8
0
  5
A4C
 10
36.3010
 20
36.2982
 30
0.00000
  70
    32
  0
VERTEX
  8
0
  5
A4D
 10
36.4106
 20
36.3833
 30
0.00000
  70
    32
  0
VERTEX
  8
0
  5
A4E
 10
36.5201
 20
36.4682
 30
0.00000
  70
    32
  0
VERTEX
  8
0
  5
A4F
 10
36.6298
 20
36.5532
 30
0.00000
  70
    32
  0
VERTEX
  8
0
  5
A50
 10
36.7394
 20
36.6380
 30
0.00000
  70
    32
  0
VERTEX
  8
0
  5
A51
 10
36.8492
 20
36.7228
 30
0.00000
  70
    32
  0
VERTEX
  8
0
  5
A52
 10
36.9589
 20
36.8076
 30
0.00000
  70
    32
  0
VERTEX
  8
0
  5
A53
 10
37.0688
 20
36.8922
 30
0.00000
  70
    32
  0
VERTEX
  8
0
  5
A54
 10
37.1786
 20
36.9769
 30
0.00000
  70
    32
  0
VERTEX
  8
0
  5
A55
 10
37.2885
 20
37.0614
 30
0.00000
  70
    32
  0
VERTEX
  8
0
  5
A56
 10
37.3985
 20
37.1459
 30
0.00000
  70
    32
  0
VERTEX
  8
0
  5
A57
 10
37.5085
 20
37.2304
 30
0.00000
  70
    32
  0
VERTEX
  8
0
  5
A58
 10
37.6185
 20
37.3148
 30
0.00000
  70
    32
  0
VERTEX
  8
0
  5
A59
 10
37.7286
 20
37.3991
 30
0.00000
  70
    32
  0
VERTEX
  8
0
  5
A5A
 10
37.8388
 20
37.4833
 30
0.00000
  70
    32
  0
VERTEX
  8
0
  5
A5B
 10
37.9490
 20
37.5675
 30
0.00000
  70
    32
  0
VERTEX
  8
0
  5
A5C
 10
38.0592
 20
37.6517
 30
0.00000
  70
    32
  0
VERTEX
  8
0
  5
A5D
 10
38.1695
 20
37.7358
 30
0.00000
  70
    32
  0
VERTEX
  8
0
  5
A5E
 10
38.2798
 20
37.8198
 30
0.00000
  70
    32
  0
VERTEX
  8
0
  5
A5F
 10
38.3902
 20
37.9038
 30
0.00000
  70
    32
  0
VERTEX
  8
0
  5
A60
 10
38.5006
 20
37.9877
 30
0.00000
  70
    32
  0
VERTEX
  8
0
  5
A61
 10
38.6110
 20
38.0715
 30
0.00000
  70
    32
  0
VERTEX
  8
0
  5
A62
 10
38.7216
 20
38.1553
 30
0.00000
  70
    32
  0
VERTEX
  8
0
  5
A63
 10
38.8321
 20
38.2390
 30
0.00000
  70
    32
  0
VERTEX
  8
0
  5
A64
 10
38.9427
 20
38.3227
 30
0.00000
  70
    32
  0
VERTEX
  8
0
  5
A65
 10
39.0534
 20
38.4063
 30
0.00000
  70
    32
  0
VERTEX
  8
0
  5
A66
 10
39.1641
 20
38.4898
 30
0.00000
  70
    32
  0
VERTEX
  8
0
  5
A67
 10
39.2748
 20
38.5733
 30
0.00000
  70
    32
  0
VERTEX
  8
0
  5
A68
 10
39.3856
 20
38.6567
 30
0.00000
  70
    32
  0
VERTEX
  8
0
  5
A69
 10
39.4964
 20
38.7401
 30
0.00000
  70
    32
  0
VERTEX
  8
0
  5
A6A
 10
39.6073
 20
38.8234
 30
0.00000
  70
    32
  0
VERTEX
  8
0
  5
A6B
 10
39.7182
 20
38.9066
 30
0.00000
  70
    32
  0
VERTEX
  8
0
  5
A6C
 10
39.8292
 20
38.9898
 30
0.00000
  70
    32
  0
VERTEX
  8
0
  5
A6D
 10
39.9402
 20
39.0729
 30
0.00000
  70
    32
  0
VERTEX
  8
0
  5
A6E
 10
40.0512
 20
39.1559
 30
0.00000
  70
    32
  0
VERTEX
  8
0
  5
A6F
 10
40.1623
 20
39.2389
 30
0.00000
  70
    32
  0
VERTEX
  8
0
  5
A70
 10
40.2735
 20
39.3219
 30
0.00000
  70
    32
  0
VERTEX
  8
0
  5
A71
 10
40.3847
 20
39.4047
 30
0.00000
  70
    32
  0
VERTEX
  8
0
  5
A72
 10
40.4959
 20
39.4876
 30
0.00000
  70
    32
  0
VERTEX
  8
0
  5
A73
 10
40.6072
 20
39.5703
 30
0.00000
  70
    32
  0
VERTEX
  8
0
  5
A74
 10
40.7185
 20
39.6530
 30
0.00000
  70
    32
  0
VERTEX
  8
0
  5
A75
 10
40.8299
 20
39.7356
 30
0.00000
  70
    32
  0
VERTEX
  8
0
  5
A76
 10
40.9413
 20
39.8182
 30
0.00000
  70
    32
  0
VERTEX
  8
0
  5
A77
 10
41.0528
 20
39.9007
 30
0.00000
  70
    32
  0
VERTEX
  8
0
  5
A78
 10
41.1643
 20
39.9832
 30
0.00000
  70
    32
  0
VERTEX
  8
0
  5
A79
 10
41.2759
 20
40.0655
 30
0.00000
  70
    32
  0
VERTEX
  8
0
  5
A7A
 10
41.3875
 20
40.1479
 30
0.00000
  70
    32
  0
VERTEX
  8
0
  5
A7B
 10
41.4991
 20
40.2301
 30
0.00000
  70
    32
  0
VERTEX
  8
0
  5
A7C
 10
41.6108
 20
40.3123
 30
0.00000
  70
    32
  0
VERTEX
  8
0
  5
A7D
 10
41.7226
 20
40.3945
 30
0.00000
  70
    32
  0
VERTEX
  8
0
  5
A7E
 10
41.8344
 20
40.4765
 30
0.00000
  70
    32
  0
VERTEX
  8
0
  5
A7F
 10
41.9462
 20
40.5586
 30
0.00000
  70
    32
  0
VERTEX
  8
0
  5
A80
 10
42.0581
 20
40.6405
 30
0.00000
  70
    32
  0
VERTEX
  8
0
  5
A81
 10
42.1700
 20
40.7224
 30
0.00000
  70
    32
  0
VERTEX
  8
0
  5
A82
 10
42.2819
 20
40.8042
 30
0.00000
  70
    32
  0
VERTEX
  8
0
  5
A83
 10
42.3939
 20
40.8860
 30
0.00000
  70
    32
  0
VERTEX
  8
0
  5
A84
 10
42.5060
 20
40.9677
 30
0.00000
  70
    32
  0
VERTEX
  8
0
  5
A85
 10
42.6181
 20
41.0494
 30
0.00000
  70
    32
  0
VERTEX
  8
0
  5
A86
 10
42.7302
 20
41.1310
 30
0.00000
  70
    32
  0
VERTEX
  8
0
  5
A87
 10
42.8424
 20
41.2125
 30
0.00000
  70
    32
  0
VERTEX
  8
0
  5
A88
 10
42.9547
 20
41.2940
 30
0.00000
  70
    32
  0
VERTEX
  8
0
  5
A89
 10
43.0669
 20
41.3754
 30
0.00000
  70
    32
  0
VERTEX
  8
0
  5
A8A
 10
43.1793
 20
41.4567
 30
0.00000
  70
    32
  0
VERTEX
  8
0
  5
A8B
 10
43.2916
 20
41.5380
 30
0.00000
  70
    32
  0
VERTEX
  8
0
  5
A8C
 10
43.4040
 20
41.6192
 30
0.00000
  70
    32
  0
VERTEX
  8
0
  5
A8D
 10
43.5165
 20
41.7004
 30
0.00000
  70
    32
  0
VERTEX
  8
0
  5
A8E
 10
43.6290
 20
41.7814
 30
0.00000
  70
    32
  0
VERTEX
  8
0
  5
A8F
 10
43.7415
 20
41.8625
 30
0.00000
  70
    32
  0
VERTEX
  8
0
  5
A90
 10
43.8541
 20
41.9434
 30
0.00000
  70
    32
  0
VERTEX
  8
0
  5
A91
 10
43.9668
 20
42.0244
 30
0.00000
  70
    32
  0
VERTEX
  8
0
  5
A92
 10
44.0794
 20
42.1052
 30
0.00000
  70
    32
  0
VERTEX
  8
0
  5
A93
 10
44.1922
 20
42.1860
 30
0.00000
  70
    32
  0
VERTEX
  8
0
  5
A94
 10
44.3049
 20
42.2667
 30
0.00000
  70
    32
  0
VERTEX
  8
0
  5
A95
 10
44.4177
 20
42.3474
 30
0.00000
  70
    32
  0
VERTEX
  8
0
  5
A96
 10
44.5306
 20
42.4280
 30
0.00000
  70
    32
  0
VERTEX
  8
0
  5
A97
 10
44.6435
 20
42.5085
 30
0.00000
  70
    32
  0
VERTEX
  8
0
  5
A98
 10
44.7564
 20
42.5890
 30
0.00000
  70
    32
  0
VERTEX
  8
0
  5
A99
 10
44.8694
 20
42.6694
 30
0.00000
  70
    32
  0
VERTEX
  8
0
  5
A9A
 10
44.9825
 20
42.7497
 30
0.00000
  70
    32
  0
VERTEX
  8
0
  5
A9B
 10
45.0955
 20
42.8300
 30
0.00000
  70
    32
  0
VERTEX
  8
0
  5
A9C
 10
45.2087
 20
42.9102
 30
0.00000
  70
    32
  0
VERTEX
  8
0
  5
A9D
 10
45.3218
 20
42.9904
 30
0.00000
  70
    32
  0
VERTEX
  8
0
  5
A9E
 10
45.4350
 20
43.0705
 30
0.00000
  70
    32
  0
VERTEX
  8
0
  5
A9F
 10
45.5483
 20
43.1505
 30
0.00000
  70
    32
  0
VERTEX
  8
0
  5
AA0
 10
45.6616
 20
43.2305
 30
0.00000
  70
    32
  0
VERTEX
  8
0
  5
AA1
 10
45.7749
 20
43.3104
 30
0.00000
  70
    32
  0
VERTEX
  8
0
  5
AA2
 10
45.8883
 20
43.3903
 30
0.00000
  70
    32
  0
VERTEX
  8
0
  5
AA3
 10
46.0017
 20
43.4701
 30
0.00000
  70
    32
  0
VERTEX
  8
0
  5
AA4
 10
46.1152
 20
43.5498
 30
0.00000
  70
    32
  0
VERTEX
  8
0
  5
AA5
 10
46.2287
 20
43.6294
 30
0.00000
  70
    32
  0
VERTEX
  8
0
  5
AA6
 10
46.3423
 20
43.7090
 30
0.00000
  70
    32
  0
VERTEX
  8
0
  5
AA7
 10
46.4559
 20
43.7886
 30
0.00000
  70
    32
  0
VERTEX
  8
0
  5
AA8
 10
46.5696
 20
43.8680
 30
0.00000
  70
    32
  0
VERTEX
  8
0
  5
AA9
 10
46.6832
 20
43.9475
 30
0.00000
  70
    32
  0
VERTEX
  8
0
  5
AAA
 10
46.7970
 20
44.0268
 30
0.00000
  70
    32
  0
VERTEX
  8
0
  5
AAB
 10
46.9108
 20
44.1061
 30
0.00000
  70
    32
  0
VERTEX
  8
0
  5
AAC
 10
47.0246
 20
44.1853
 30
0.00000
  70
    32
  0
VERTEX
  8
0
  5
AAD
 10
47.1384
 20
44.2645
 30
0.00000
  70
    32
  0
VERTEX
  8
0
  5
AAE
 10
47.2524
 20
44.3436
 30
0.00000
  70
    32
  0
VERTEX
  8
0
  5
AAF
 10
47.3663
 20
44.4226
 30
0.00000
  70
    32
  0
VERTEX
  8
0
  5
AB0
 10
47.4803
 20
44.5016
 30
0.00000
  70
    32
  0
VERTEX
  8
0
  5
AB1
 10
47.5944
 20
44.5805
 30
0.00000
  70
    32
  0
VERTEX
  8
0
  5
AB2
 10
47.7084
 20
44.6593
 30
0.00000
  70
    32
  0
VERTEX
  8
0
  5
AB3
 10
47.8226
 20
44.7381
 30
0.00000
  70
    32
  0
VERTEX
  8
0
  5
AB4
 10
47.9367
 20
44.8168
 30
0.00000
  70
    32
  0
VERTEX
  8
0
  5
AB5
 10
48.0509
 20
44.8955
 30
0.00000
  70
    32
  0
VERTEX
  8
0
  5
AB6
 10
48.1652
 20
44.9741
 30
0.00000
  70
    32
  0
VERTEX
  8
0
  5
AB7
 10
48.2795
 20
45.0526
 30
0.00000
  70
    32
  0
VERTEX
  8
0
  5
AB8
 10
48.3939
 20
45.1310
 30
0.00000
  70
    32
  0
VERTEX
  8
0
  5
AB9
 10
48.5082
 20
45.2094
 30
0.00000
  70
    32
  0
VERTEX
  8
0
  5
ABA
 10
48.6227
 20
45.2878
 30
0.00000
  70
    32
  0
VERTEX
  8
0
  5
ABB
 10
48.7371
 20
45.3661
 30
0.00000
  70
    32
  0
VERTEX
  8
0
  5
ABC
 10
48.8517
 20
45.4443
 30
0.00000
  70
    32
  0
VERTEX
  8
0
  5
ABD
 10
48.9662
 20
45.5224
 30
0.00000
  70
    32
  0
VERTEX
  8
0
  5
ABE
 10
49.0808
 20
45.6005
 30
0.00000
  70
    32
  0
VERTEX
  8
0
  5
ABF
 10
49.1955
 20
45.6785
 30
0.00000
  70
    32
  0
VERTEX
  8
0
  5
AC0
 10
49.3102
 20
45.7565
 30
0.00000
  70
    32
  0
VERTEX
  8
0
  5
AC1
 10
49.4249
 20
45.8344
 30
0.00000
  70
    32
  0
VERTEX
  8
0
  5
AC2
 10
49.5397
 20
45.9122
 30
0.00000
  70
    32
  0
VERTEX
  8
0
  5
AC3
 10
49.6545
 20
45.9899
 30
0.00000
  70
    32
  0
VERTEX
  8
0
  5
AC4
 10
49.7693
 20
46.0676
 30
0.00000
  70
    32
  0
VERTEX
  8
0
  5
AC5
 10
49.8842
 20
46.1453
 30
0.00000
  70
    32
  0
VERTEX
  8
0
  5
AC6
 10
49.9992
 20
46.2229
 30
0.00000
  70
    32
  0
VERTEX
  8
0
  5
AC7
 10
50.1142
 20
46.3004
 30
0.00000
  70
    32
  0
VERTEX
  8
0
  5
AC8
 10
50.2292
 20
46.3778
 30
0.00000
  70
    32
  0
VERTEX
  8
0
  5
AC9
 10
50.3443
 20
46.4552
 30
0.00000
  70
    32
  0
VERTEX
  8
0
  5
ACA
 10
50.4594
 20
46.5325
 30
0.00000
  70
    32
  0
VERTEX
  8
0
  5
ACB
 10
50.5746
 20
46.6098
 30
0.00000
  70
    32
  0
VERTEX
  8
0
  5
ACC
 10
50.6898
 20
46.6869
 30
0.00000
  70
    32
  0
VERTEX
  8
0
  5
ACD
 10
50.8050
 20
46.7641
 30
0.00000
  70
    32
  0
VERTEX
  8
0
  5
ACE
 10
50.9203
 20
46.8411
 30
0.00000
  70
    32
  0
VERTEX
  8
0
  5
ACF
 10
51.0356
 20
46.9181
 30
0.00000
  70
    32
  0
VERTEX
  8
0
  5
AD0
 10
51.1510
 20
46.9951
 30
0.00000
  70
    32
  0
VERTEX
  8
0
  5
AD1
 10
51.2664
 20
47.0719
 30
0.00000
  70
    32
  0
VERTEX
  8
0
  5
AD2
 10
51.4678
 20
46.5106
 30
0.00000
  70
    32
  0
VERTEX
  8
0
  5
AD3
 10
51.7278
 20
45.5150
 30
0.00000
  70
    32
  0
VERTEX
  8
0
  5
AD4
 10
51.9877
 20
44.5194
 30
0.00000
  70
    32
  0
VERTEX
  8
0
  5
AD5
 10
52.2476
 20
43.5239
 30
0.00000
  70
    32
  0
VERTEX
  8
0
  5
AD6
 10
52.5075
 20
42.5283
 30
0.00000
  70
    32
  0
VERTEX
  8
0
  5
AD7
 10
52.7675
 20
41.5328
 30
0.00000
  70
    32
  0
VERTEX
  8
0
  5
AD8
 10
53.0274
 20
40.5372
 30
0.00000
  70
    32
  0
VERTEX
  8
0
  5
AD9
 10
53.2025
 20
39.8719
 30
0.00000
  70
    32
  0
VERTEX
  8
0
  5
ADA
 10
53.2537
 20
39.7430
 30
0.00000
  70
    32
  0
VERTEX
  8
0
  5
ADB
 10
53.5209
 20
39.2740
 30
0.00000
  70
    32
  0
VERTEX
  8
0
  5
ADC
 10
54.0351
 20
38.3827
 30
0.00000
  70
    32
  0
VERTEX
  8
0
  5
ADD
 10
54.5493
 20
37.4915
 30
0.00000
  70
    32
  0
VERTEX
  8
0
  5
ADE
 10
55.0635
 20
36.6002
 30
0.00000
  70
    32
  0
VERTEX
  8
0
  5
ADF
 10
55.5776
 20
35.7090
 30
0.00000
  70
    32
  0
VERTEX
  8
0
  5
AE0
 10
56.0918
 20
34.8177
 30
0.00000
  70
    32
  0
VERTEX
  8
0
  5
AE1
 10
56.6060
 20
33.9265
 30
0.00000
  70
    32
  0
VERTEX
  8
0
  5
AE2
 10
56.9663
 20
33.2370
 30
0.00000
  70
    32
  0
VERTEX
  8
0
  5
AE3
 10
56.8352
 20
33.1916
 30
0.00000
  70
    32
  0
VERTEX
  8
0
  5
AE4
 10
56.7042
 20
33.1462
 30
0.00000
  70
    32
  0
VERTEX
  8
0
  5
AE5
 10
56.5732
 20
33.1006
 30
0.00000
  70
    32
  0
VERTEX
  8
0
  5
AE6
 10
56.4422
 20
33.0549
 30
0.00000
  70
    32
  0
VERTEX
  8
0
  5
AE7
 10
56.3113
 20
33.0091
 30
0.00000
  70
    32
  0
VERTEX
  8
0
  5
AE8
 10
56.1804
 20
32.9631
 30
0.00000
  70
    32
  0
VERTEX
  8
0
  5
AE9
 10
56.0496
 20
32.9170
 30
0.00000
  70
    32
  0
VERTEX
  8
0
  5
AEA
 10
55.9188
 20
32.8707
 30
0.00000
  70
    32
  0
VERTEX
  8
0
  5
AEB
 10
55.7881
 20
32.8244
 30
0.00000
  70
    32
  0
VERTEX
  8
0
  5
AEC
 10
55.6574
 20
32.7779
 30
0.00000
  70
    32
  0
VERTEX
  8
0
  5
AED
 10
55.5268
 20
32.7312
 30
0.00000
  70
    32
  0
VERTEX
  8
0
  5
AEE
 10
55.3962
 20
32.6845
 30
0.00000
  70
    32
  0
VERTEX
  8
0
  5
AEF
 10
55.2657
 20
32.6376
 30
0.00000
  70
    32
  0
VERTEX
  8
0
  5
AF0
 10
55.1352
 20
32.5905
 30
0.00000
  70
    32
  0
VERTEX
  8
0
  5
AF1
 10
55.0047
 20
32.5434
 30
0.00000
  70
    32
  0
VERTEX
  8
0
  5
AF2
 10
54.8743
 20
32.4961
 30
0.00000
  70
    32
  0
VERTEX
  8
0
  5
AF3
 10
54.7439
 20
32.4487
 30
0.00000
  70
    32
  0
VERTEX
  8
0
  5
AF4
 10
54.6136
 20
32.4011
 30
0.00000
  70
    32
  0
VERTEX
  8
0
  5
AF5
 10
54.4834
 20
32.3534
 30
0.00000
  70
    32
  0
VERTEX
  8
0
  5
AF6
 10
54.3531
 20
32.3056
 30
0.00000
  70
    32
  0
VERTEX
  8
0
  5
AF7
 10
54.2230
 20
32.2577
 30
0.00000
  70
    32
  0
VERTEX
  8
0
  5
AF8
 10
54.0928
 20
32.2096
 30
0.00000
  70
    32
  0
VERTEX
  8
0
  5
AF9
 10
53.9627
 20
32.1614
 30
0.00000
  70
    32
  0
VERTEX
  8
0
  5
AFA
 10
53.8327
 20
32.1131
 30
0.00000
  70
    32
  0
VERTEX
  8
0
  5
AFB
 10
53.7027
 20
32.0646
 30
0.00000
  70
    32
  0
VERTEX
  8
0
  5
AFC
 10
53.5728
 20
32.0161
 30
0.00000
  70
    32
  0
VERTEX
  8
0
  5
AFD
 10
53.4429
 20
31.9674
 30
0.00000
  70
    32
  0
VERTEX
  8
0
  5
AFE
 10
53.3130
 20
31.9185
 30
0.00000
  70
    32
  0
VERTEX
  8
0
  5
AFF
 10
53.1832
 20
31.8695
 30
0.00000
  70
    32
  0
VERTEX
  8
0
  5
B00
 10
53.0535
 20
31.8205
 30
0.00000
  70
    32
  0
VERTEX
  8
0
  5
B01
 10
52.9238
 20
31.7712
 30
0.00000
  70
    32
  0
VERTEX
  8
0
  5
B02
 10
52.7941
 20
31.7219
 30
0.00000
  70
    32
  0
VERTEX
  8
0
  5
B03
 10
52.6645
 20
31.6724
 30
0.00000
  70
    32
  0
VERTEX
  8
0
  5
B04
 10
52.5349
 20
31.6228
 30
0.00000
  70
    32
  0
VERTEX
  8
0
  5
B05
 10
52.4054
 20
31.5731
 30
0.00000
  70
    32
  0
VERTEX
  8
0
  5
B06
 10
52.2760
 20
31.5232
 30
0.00000
  70
    32
  0
VERTEX
  8
0
  5
B07
 10
52.1466
 20
31.4732
 30
0.00000
  70
    32
  0
VERTEX
  8
0
  5
B08
 10
52.0172
 20
31.4231
 30
0.00000
  70
    32
  0
VERTEX
  8
0
  5
B09
 10
51.8879
 20
31.3729
 30
0.00000
  70
    32
  0
VERTEX
  8
0
  5
B0A
 10
51.7586
 20
31.3225
 30
0.00000
  70
    32
  0
VERTEX
  8
0
  5
B0B
 10
51.6294
 20
31.2720
 30
0.00000
  70
    32
  0
VERTEX
  8
0
  5
B0C
 10
51.5002
 20
31.2214
 30
0.00000
  70
    32
  0
VERTEX
  8
0
  5
B0D
 10
51.3711
 20
31.1707
 30
0.00000
  70
    32
  0
VERTEX
  8
0
  5
B0E
 10
51.2420
 20
31.1198
 30
0.00000
  70
    32
  0
VERTEX
  8
0
  5
B0F
 10
51.1130
 20
31.0689
 30
0.00000
  70
    32
  0
VERTEX
  8
0
  5
B10
 10
50.9840
 20
31.0178
 30
0.00000
  70
    32
  0
VERTEX
  8
0
  5
B11
 10
50.8550
 20
30.9665
 30
0.00000
  70
    32
  0
VERTEX
  8
0
  5
B12
 10
50.7262
 20
30.9152
 30
0.00000
  70
    32
  0
VERTEX
  8
0
  5
B13
 10
50.5973
 20
30.8637
 30
0.00000
  70
    32
  0
VERTEX
  8
0
  5
B14
 10
50.4685
 20
30.8121
 30
0.00000
  70
    32
  0
VERTEX
  8
0
  5
B15
 10
50.3398
 20
30.7604
 30
0.00000
  70
    32
  0
VERTEX
  8
0
  5
B16
 10
50.2111
 20
30.7085
 30
0.00000
  70
    32
  0
VERTEX
  8
0
  5
B17
 10
50.0825
 20
30.6565
 30
0.00000
  70
    32
  0
VERTEX
  8
0
  5
B18
 10
49.9539
 20
30.6045
 30
0.00000
  70
    32
  0
VERTEX
  8
0
  5
B19
 10
49.8254
 20
30.5522
 30
0.00000
  70
    32
  0
VERTEX
  8
0
  5
B1A
 10
49.6969
 20
30.4999
 30
0.00000
  70
    32
  0
VERTEX
  8
0
  5
B1B
 10
49.5685
 20
30.4474
 30
0.00000
  70
    32
  0
VERTEX
  8
0
  5
B1C
 10
49.4401
 20
30.3948
 30
0.00000
  70
    32
  0
VERTEX
  8
0
  5
B1D
 10
49.3117
 20
30.3421
 30
0.00000
  70
    32
  0
VERTEX
  8
0
  5
B1E
 10
49.1835
 20
30.2893
 30
0.00000
  70
    32
  0
VERTEX
  8
0
  5
B1F
 10
49.0552
 20
30.2364
 30
0.00000
  70
    32
  0
VERTEX
  8
0
  5
B20
 10
48.9270
 20
30.1833
 30
0.00000
  70
    32
  0
VERTEX
  8
0
  5
B21
 10
48.7989
 20
30.1301
 30
0.00000
  70
    32
  0
VERTEX
  8
0
  5
B22
 10
48.6708
 20
30.0768
 30
0.00000
  70
    32
  0
VERTEX
  8
0
  5
B23
 10
48.5428
 20
30.0233
 30
0.00000
  70
    32
  0
VERTEX
  8
0
  5
B24
 10
48.4148
 20
29.9698
 30
0.00000
  70
    32
  0
VERTEX
  8
0
  5
B25
 10
48.2869
 20
29.9161
 30
0.00000
  70
    32
  0
VERTEX
  8
0
  5
B26
 10
48.1590
 20
29.8623
 30
0.00000
  70
    32
  0
VERTEX
  8
0
  5
B27
 10
48.0312
 20
29.8083
 30
0.00000
  70
    32
  0
VERTEX
  8
0
  5
B28
 10
47.9034
 20
29.7543
 30
0.00000
  70
    32
  0
VERTEX
  8
0
  5
B29
 10
47.7757
 20
29.7001
 30
0.00000
  70
    32
  0
VERTEX
  8
0
  5
B2A
 10
47.6480
 20
29.6458
 30
0.00000
  70
    32
  0
VERTEX
  8
0
  5
B2B
 10
47.5204
 20
29.5914
 30
0.00000
  70
    32
  0
VERTEX
  8
0
  5
B2C
 10
47.3929
 20
29.5369
 30
0.00000
  70
    32
  0
VERTEX
  8
0
  5
B2D
 10
47.2653
 20
29.4822
 30
0.00000
  70
    32
  0
VERTEX
  8
0
  5
B2E
 10
47.1379
 20
29.4274
 30
0.00000
  70
    32
  0
VERTEX
  8
0
  5
B2F
 10
47.0105
 20
29.3725
 30
0.00000
  70
    32
  0
VERTEX
  8
0
  5
B30
 10
46.8831
 20
29.3175
 30
0.00000
  70
    32
  0
VERTEX
  8
0
  5
B31
 10
46.7558
 20
29.2624
 30
0.00000
  70
    32
  0
VERTEX
  8
0
  5
B32
 10
46.6286
 20
29.2071
 30
0.00000
  70
    32
  0
VERTEX
  8
0
  5
B33
 10
46.5014
 20
29.1517
 30
0.00000
  70
    32
  0
VERTEX
  8
0
  5
B34
 10
46.3742
 20
29.0962
 30
0.00000
  70
    32
  0
VERTEX
  8
0
  5
B35
 10
46.2471
 20
29.0406
 30
0.00000
  70
    32
  0
VERTEX
  8
0
  5
B36
 10
46.1201
 20
28.9849
 30
0.00000
  70
    32
  0
VERTEX
  8
0
  5
B37
 10
45.9931
 20
28.9290
 30
0.00000
  70
    32
  0
VERTEX
  8
0
  5
B38
 10
45.8662
 20
28.8730
 30
0.00000
  70
    32
  0
VERTEX
  8
0
  5
B39
 10
45.7393
 20
28.8169
 30
0.00000
  70
    32
  0
VERTEX
  8
0
  5
B3A
 10
45.6124
 20
28.7607
 30
0.00000
  70
    32
  0
VERTEX
  8
0
  5
B3B
 10
45.4857
 20
28.7043
 30
0.00000
  70
    32
  0
VERTEX
  8
0
  5
B3C
 10
45.3590
 20
28.6479
 30
0.00000
  70
    32
  0
VERTEX
  8
0
  5
B3D
 10
45.2323
 20
28.5913
 30
0.00000
  70
    32
  0
VERTEX
  8
0
  5
B3E
 10
45.1057
 20
28.5346
 30
0.00000
  70
    32
  0
VERTEX
  8
0
  5
B3F
 10
44.9791
 20
28.4777
 30
0.00000
  70
    32
  0
VERTEX
  8
0
  5
B40
 10
44.8526
 20
28.4208
 30
0.00000
  70
    32
  0
VERTEX
  8
0
  5
B41
 10
44.7262
 20
28.3637
 30
0.00000
  70
    32
  0
VERTEX
  8
0
  5
B42
 10
44.5998
 20
28.3065
 30
0.00000
  70
    32
  0
VERTEX
  8
0
  5
B43
 10
44.4734
 20
28.2492
 30
0.00000
  70
    32
  0
VERTEX
  8
0
  5
B44
 10
44.3471
 20
28.1918
 30
0.00000
  70
    32
  0
VERTEX
  8
0
  5
B45
 10
44.2209
 20
28.1343
 30
0.00000
  70
    32
  0
VERTEX
  8
0
  5
B46
 10
44.0947
 20
28.0766
 30
0.00000
  70
    32
  0
VERTEX
  8
0
  5
B47
 10
43.9686
 20
28.0188
 30
0.00000
  70
    32
  0
VERTEX
  8
0
  5
B48
 10
43.8425
 20
27.9609
 30
0.00000
  70
    32
  0
VERTEX
  8
0
  5
B49
 10
43.7165
 20
27.9029
 30
0.00000
  70
    32
  0
VERTEX
  8
0
  5
B4A
 10
43.5906
 20
27.8448
 30
0.00000
  70
    32
  0
VERTEX
  8
0
  5
B4B
 10
43.4647
 20
27.7865
 30
0.00000
  70
    32
  0
VERTEX
  8
0
  5
B4C
 10
43.3388
 20
27.7281
 30
0.00000
  70
    32
  0
VERTEX
  8
0
  5
B4D
 10
43.2130
 20
27.6696
 30
0.00000
  70
    32
  0
VERTEX
  8
0
  5
B4E
 10
43.0873
 20
27.6110
 30
0.00000
  70
    32
  0
VERTEX
  8
0
  5
B4F
 10
42.9616
 20
27.5523
 30
0.00000
  70
    32
  0
VERTEX
  8
0
  5
B50
 10
42.8360
 20
27.4934
 30
0.00000
  70
    32
  0
VERTEX
  8
0
  5
B51
 10
42.7104
 20
27.4345
 30
0.00000
  70
    32
  0
VERTEX
  8
0
  5
B52
 10
42.5849
 20
27.3754
 30
0.00000
  70
    32
  0
VERTEX
  8
0
  5
B53
 10
42.4594
 20
27.3162
 30
0.00000
  70
    32
  0
VERTEX
  8
0
  5
B54
 10
42.3340
 20
27.2569
 30
0.00000
  70
    32
  0
VERTEX
  8
0
  5
B55
 10
42.2087
 20
27.1974
 30
0.00000
  70
    32
  0
VERTEX
  8
0
  5
B56
 10
42.0834
 20
27.1379
 30
0.00000
  70
    32
  0
VERTEX
  8
0
  5
B57
 10
41.9582
 20
27.0782
 30
0.00000
  70
    32
  0
VERTEX
  8
0
  5
B58
 10
41.8330
 20
27.0184
 30
0.00000
  70
    32
  0
VERTEX
  8
0
  5
B59
 10
41.7079
 20
26.9585
 30
0.00000
  70
    32
  0
VERTEX
  8
0
  5
B5A
 10
41.5828
 20
26.8984
 30
0.00000
  70
    32
  0
VERTEX
  8
0
  5
B5B
 10
41.4578
 20
26.8383
 30
0.00000
  70
    32
  0
VERTEX
  8
0
  5
B5C
 10
41.3328
 20
26.7780
 30
0.00000
  70
    32
  0
VERTEX
  8
0
  5
B5D
 10
41.2079
 20
26.7176
 30
0.00000
  70
    32
  0
VERTEX
  8
0
  5
B5E
 10
41.0831
 20
26.6571
 30
0.00000
  70
    32
  0
VERTEX
  8
0
  5
B5F
 10
40.9583
 20
26.5965
 30
0.00000
  70
    32
  0
VERTEX
  8
0
  5
B60
 10
40.8336
 20
26.5358
 30
0.00000
  70
    32
  0
VERTEX
  8
0
  5
B61
 10
40.7090
 20
26.4749
 30
0.00000
  70
    32
  0
VERTEX
  8
0
  5
B62
 10
40.5843
 20
26.4140
 30
0.00000
  70
    32
  0
VERTEX
  8
0
  5
B63
 10
40.4598
 20
26.3529
 30
0.00000
  70
    32
  0
VERTEX
  8
0
  5
B64
 10
40.3353
 20
26.2917
 30
0.00000
  70
    32
  0
VERTEX
  8
0
  5
B65
 10
40.2109
 20
26.2304
 30
0.00000
  70
    32
  0
VERTEX
  8
0
  5
B66
 10
40.0865
 20
26.1689
 30
0.00000
  70
    32
  0
VERTEX
  8
0
  5
B67
 10
39.9622
 20
26.1074
 30
0.00000
  70
    32
  0
VERTEX
  8
0
  5
B68
 10
39.8379
 20
26.0457
 30
0.00000
  70
    32
  0
VERTEX
  8
0
  5
B69
 10
39.7137
 20
25.9839
 30
0.00000
  70
    32
  0
VERTEX
  8
0
  5
B6A
 10
39.5896
 20
25.9220
 30
0.00000
  70
    32
  0
VERTEX
  8
0
  5
B6B
 10
39.4655
 20
25.8600
 30
0.00000
  70
    32
  0
VERTEX
  8
0
  5
B6C
 10
39.3415
 20
25.7978
 30
0.00000
  70
    32
  0
VERTEX
  8
0
  5
B6D
 10
39.2175
 20
25.7356
 30
0.00000
  70
    32
  0
VERTEX
  8
0
  5
B6E
 10
39.0936
 20
25.6732
 30
0.00000
  70
    32
  0
VERTEX
  8
0
  5
B6F
 10
38.9698
 20
25.6107
 30
0.00000
  70
    32
  0
VERTEX
  8
0
  5
B70
 10
38.8460
 20
25.5481
 30
0.00000
  70
    32
  0
VERTEX
  8
0
  5
B71
 10
38.7223
 20
25.4854
 30
0.00000
  70
    32
  0
VERTEX
  8
0
  5
B72
 10
38.5986
 20
25.4226
 30
0.00000
  70
    32
  0
VERTEX
  8
0
  5
B73
 10
38.4750
 20
25.3597
 30
0.00000
  70
    32
  0
VERTEX
  8
0
  5
B74
 10
38.3514
 20
25.2966
 30
0.00000
  70
    32
  0
VERTEX
  8
0
  5
B75
 10
38.2279
 20
25.2334
 30
0.00000
  70
    32
  0
VERTEX
  8
0
  5
B76
 10
38.1045
 20
25.1701
 30
0.00000
  70
    32
  0
VERTEX
  8
0
  5
B77
 10
37.9811
 20
25.1067
 30
0.00000
  70
    32
  0
VERTEX
  8
0
  5
B78
 10
37.8578
 20
25.0432
 30
0.00000
  70
    32
  0
VERTEX
  8
0
  5
B79
 10
37.7346
 20
24.9795
 30
0.00000
  70
    32
  0
VERTEX
  8
0
  5
B7A
 10
37.6114
 20
24.9158
 30
0.00000
  70
    32
  0
VERTEX
  8
0
  5
B7B
 10
37.4883
 20
24.8519
 30
0.00000
  70
    32
  0
VERTEX
  8
0
  5
B7C
 10
37.3652
 20
24.7879
 30
0.00000
  70
    32
  0
VERTEX
  8
0
  5
B7D
 10
37.2422
 20
24.7238
 30
0.00000
  70
    32
  0
VERTEX
  8
0
  5
B7E
 10
37.1192
 20
24.6596
 30
0.00000
  70
    32
  0
VERTEX
  8
0
  5
B7F
 10
36.9963
 20
24.5953
 30
0.00000
  70
    32
  0
VERTEX
  8
0
  5
B80
 10
36.8735
 20
24.5308
 30
0.00000
  70
    32
  0
VERTEX
  8
0
  5
B81
 10
36.7508
 20
24.4663
 30
0.00000
  70
    32
  0
VERTEX
  8
0
  5
B82
 10
36.6280
 20
24.4016
 30
0.00000
  70
    32
  0
VERTEX
  8
0
  5
B83
 10
36.5054
 20
24.3368
 30
0.00000
  70
    32
  0
VERTEX
  8
0
  5
B84
 10
36.3828
 20
24.2719
 30
0.00000
  70
    32
  0
VERTEX
  8
0
  5
B85
 10
36.2603
 20
24.2069
 30
0.00000
  70
    32
  0
VERTEX
  8
0
  5
B86
 10
36.1378
 20
24.1418
 30
0.00000
  70
    32
  0
VERTEX
  8
0
  5
B87
 10
36.0154
 20
24.0765
 30
0.00000
  70
    32
  0
VERTEX
  8
0
  5
B88
 10
35.8931
 20
24.0112
 30
0.00000
  70
    32
  0
VERTEX
  8
0
  5
B89
 10
35.7708
 20
23.9457
 30
0.00000
  70
    32
  0
VERTEX
  8
0
  5
B8A
 10
35.6486
 20
23.8801
 30
0.00000
  70
    32
  0
VERTEX
  8
0
  5
B8B
 10
35.5265
 20
23.8144
 30
0.00000
  70
    32
  0
VERTEX
  8
0
  5
B8C
 10
35.4044
 20
23.7486
 30
0.00000
  70
    32
  0
VERTEX
  8
0
  5
B8D
 10
35.2823
 20
23.6827
 30
0.00000
  70
    32
  0
VERTEX
  8
0
  5
B8E
 10
35.1604
 20
23.6166
 30
0.00000
  70
    32
  0
VERTEX
  8
0
  5
B8F
 10
35.0385
 20
23.5505
 30
0.00000
  70
    32
  0
VERTEX
  8
0
  5
B90
 10
34.9166
 20
23.4842
 30
0.00000
  70
    32
  0
VERTEX
  8
0
  5
B91
 10
34.7949
 20
23.4178
 30
0.00000
  70
    32
  0
VERTEX
  8
0
  5
B92
 10
34.6731
 20
23.3513
 30
0.00000
  70
    32
  0
VERTEX
  8
0
  5
B93
 10
34.5515
 20
23.2847
 30
0.00000
  70
    32
  0
VERTEX
  8
0
  5
B94
 10
34.4299
 20
23.2180
 30
0.00000
  70
    32
  0
VERTEX
  8
0
  5
B95
 10
34.3084
 20
23.1512
 30
0.00000
  70
    32
  0
VERTEX
  8
0
  5
B96
 10
34.1869
 20
23.0843
 30
0.00000
  70
    32
  0
VERTEX
  8
0
  5
B97
 10
34.0655
 20
23.0172
 30
0.00000
  70
    32
  0
VERTEX
  8
0
  5
B98
 10
33.9441
 20
22.9500
 30
0.00000
  70
    32
  0
VERTEX
  8
0
  5
B99
 10
33.8229
 20
22.8828
 30
0.00000
  70
    32
  0
VERTEX
  8
0
  5
B9A
 10
33.7016
 20
22.8154
 30
0.00000
  70
    32
  0
VERTEX
  8
0
  5
B9B
 10
33.5805
 20
22.7479
 30
0.00000
  70
    32
  0
VERTEX
  8
0
  5
B9C
 10
33.4594
 20
22.6803
 30
0.00000
  70
    32
  0
VERTEX
  8
0
  5
B9D
 10
33.3383
 20
22.6126
 30
0.00000
  70
    32
  0
VERTEX
  8
0
  5
B9E
 10
33.2174
 20
22.5447
 30
0.00000
  70
    32
  0
VERTEX
  8
0
  5
B9F
 10
33.0965
 20
22.4768
 30
0.00000
  70
    32
  0
VERTEX
  8
0
  5
BA0
 10
32.9756
 20
22.4087
 30
0.00000
  70
    32
  0
VERTEX
  8
0
  5
BA1
 10
32.8548
 20
22.3406
 30
0.00000
  70
    32
  0
VERTEX
  8
0
  5
BA2
 10
32.7341
 20
22.2723
 30
0.00000
  70
    32
  0
VERTEX
  8
0
  5
BA3
 10
32.6134
 20
22.2039
 30
0.00000
  70
    32
  0
VERTEX
  8
0
  5
BA4
 10
32.4928
 20
22.1354
 30
0.00000
  70
    32
  0
VERTEX
  8
0
  5
BA5
 10
32.3723
 20
22.0668
 30
0.00000
  70
    32
  0
VERTEX
  8
0
  5
BA6
 10
32.2518
 20
21.9981
 30
0.00000
  70
    32
  0
VERTEX
  8
0
  5
BA7
 10
32.1314
 20
21.9293
 30
0.00000
  70
    32
  0
VERTEX
  8
0
  5
BA8
 10
32.0111
 20
21.8604
 30
0.00000
  70
    32
  0
VERTEX
  8
0
  5
BA9
 10
31.8908
 20
21.7913
 30
0.00000
  70
    32
  0
VERTEX
  8
0
  5
BAA
 10
31.7706
 20
21.7222
 30
0.00000
  70
    32
  0
VERTEX
  8
0
  5
BAB
 10
31.6504
 20
21.6530
 30
0.00000
  70
    32
  0
VERTEX
  8
0
  5
BAC
 10
31.5303
 20
21.5836
 30
0.00000
  70
    32
  0
VERTEX
  8
0
  5
BAD
 10
31.4103
 20
21.5141
 30
0.00000
  70
    32
  0
VERTEX
  8
0
  5
BAE
 10
31.2903
 20
21.4445
 30
0.00000
  70
    32
  0
VERTEX
  8
0
  5
BAF
 10
31.1704
 20
21.3749
 30
0.00000
  70
    32
  0
VERTEX
  8
0
  5
BB0
 10
31.0505
 20
21.3051
 30
0.00000
  70
    32
  0
VERTEX
  8
0
  5
BB1
 10
30.9307
 20
21.2352
 30
0.00000
  70
    32
  0
VERTEX
  8
0
  5
BB2
 10
30.8110
 20
21.1652
 30
0.00000
  70
    32
  0
VERTEX
  8
0
  5
BB3
 10
30.6914
 20
21.0951
 30
0.00000
  70
    32
  0
VERTEX
  8
0
  5
BB4
 10
30.5718
 20
21.0248
 30
0.00000
  70
    32
  0
VERTEX
  8
0
  5
BB5
 10
30.4522
 20
20.9545
 30
0.00000
  70
    32
  0
VERTEX
  8
0
  5
BB6
 10
30.3327
 20
20.8841
 30
0.00000
  70
    32
  0
VERTEX
  8
0
  5
BB7
 10
30.2133
 20
20.8135
 30
0.00000
  70
    32
  0
VERTEX
  8
0
  5
BB8
 10
30.0940
 20
20.7429
 30
0.00000
  70
    32
  0
VERTEX
  8
0
  5
BB9
 10
29.9747
 20
20.6721
 30
0.00000
  70
    32
  0
VERTEX
  8
0
  5
BBA
 10
29.8555
 20
20.6013
 30
0.00000
  70
    32
  0
VERTEX
  8
0
  5
BBB
 10
29.7363
 20
20.5303
 30
0.00000
  70
    32
  0
VERTEX
  8
0
  5
BBC
 10
29.6172
 20
20.4592
 30
0.00000
  70
    32
  0
VERTEX
  8
0
  5
BBD
 10
29.4982
 20
20.3881
 30
0.00000
  70
    32
  0
VERTEX
  8
0
  5
BBE
 10
29.3792
 20
20.3168
 30
0.00000
  70
    32
  0
VERTEX
  8
0
  5
BBF
 10
29.2603
 20
20.2454
 30
0.00000
  70
    32
  0
VERTEX
  8
0
  5
BC0
 10
29.1414
 20
20.1739
 30
0.00000
  70
    32
  0
VERTEX
  8
0
  5
BC1
 10
29.0226
 20
20.1023
 30
0.00000
  70
    32
  0
VERTEX
  8
0
  5
BC2
 10
28.9039
 20
20.0306
 30
0.00000
  70
    32
  0
VERTEX
  8
0
  5
BC3
 10
28.7853
 20
19.9588
 30
0.00000
  70
    32
  0
VERTEX
  8
0
  5
BC4
 10
28.6667
 20
19.8869
 30
0.00000
  70
    32
  0
VERTEX
  8
0
  5
BC5
 10
28.5481
 20
19.8149
 30
0.00000
  70
    32
  0
VERTEX
  8
0
  5
BC6
 10
28.4297
 20
19.7428
 30
0.00000
  70
    32
  0
VERTEX
  8
0
  5
BC7
 10
28.3112
 20
19.6706
 30
0.00000
  70
    32
  0
VERTEX
  8
0
  5
BC8
 10
28.1929
 20
19.5982
 30
0.00000
  70
    32
  0
VERTEX
  8
0
  5
BC9
 10
28.0746
 20
19.5258
 30
0.00000
  70
    32
  0
VERTEX
  8
0
  5
BCA
 10
27.9564
 20
19.4533
 30
0.00000
  70
    32
  0
VERTEX
  8
0
  5
BCB
 10
27.8382
 20
19.3807
 30
0.00000
  70
    32
  0
VERTEX
  8
0
  5
BCC
 10
27.7201
 20
19.3079
 30
0.00000
  70
    32
  0
VERTEX
  8
0
  5
BCD
 10
27.6021
 20
19.2351
 30
0.00000
  70
    32
  0
VERTEX
  8
0
  5
BCE
 10
27.4841
 20
19.1621
 30
0.00000
  70
    32
  0
VERTEX
  8
0
  5
BCF
 10
27.3662
 20
19.0891
 30
0.00000
  70
    32
  0
VERTEX
  8
0
  5
BD0
 10
27.2484
 20
19.0160
 30
0.00000
  70
    32
  0
VERTEX
  8
0
  5
BD1
 10
27.1306
 20
18.9427
 30
0.00000
  70
    32
  0
VERTEX
  8
0
  5
BD2
 10
27.0129
 20
18.8694
 30
0.00000
  70
    32
  0
VERTEX
  8
0
  5
BD3
 10
26.8952
 20
18.7959
 30
0.00000
  70
    32
  0
VERTEX
  8
0
  5
BD4
 10
26.7776
 20
18.7224
 30
0.00000
  70
    32
  0
VERTEX
  8
0
  5
BD5
 10
26.6601
 20
18.6487
 30
0.00000
  70
    32
  0
VERTEX
  8
0
  5
BD6
 10
26.5426
 20
18.5750
 30
0.00000
  70
    32
  0
VERTEX
  8
0
  5
BD7
 10
26.4252
 20
18.5011
 30
0.00000
  70
    32
  0
VERTEX
  8
0
  5
BD8
 10
26.3079
 20
18.4271
 30
0.00000
  70
    32
  0
VERTEX
  8
0
  5
BD9
 10
26.1906
 20
18.3531
 30
0.00000
  70
    32
  0
VERTEX
  8
0
  5
BDA
 10
26.0734
 20
18.2789
 30
0.00000
  70
    32
  0
VERTEX
  8
0
  5
BDB
 10
25.9562
 20
18.2047
 30
0.00000
  70
    32
  0
VERTEX
  8
0
  5
BDC
 10
25.8391
 20
18.1303
 30
0.00000
  70
    32
  0
VERTEX
  8
0
  5
BDD
 10
25.7221
 20
18.0559
 30
0.00000
  70
    32
  0
VERTEX
  8
0
  5
BDE
 10
25.6051
 20
17.9813
 30
0.00000
  70
    32
  0
VERTEX
  8
0
  5
BDF
 10
25.4882
 20
17.9066
 30
0.00000
  70
    32
  0
VERTEX
  8
0
  5
BE0
 10
25.3714
 20
17.8319
 30
0.00000
  70
    32
  0
VERTEX
  8
0
  5
BE1
 10
25.2546
 20
17.7570
 30
0.00000
  70
    32
  0
VERTEX
  8
0
  5
BE2
 10
25.1379
 20
17.6821
 30
0.00000
  70
    32
  0
VERTEX
  8
0
  5
BE3
 10
25.0213
 20
17.6070
 30
0.00000
  70
    32
  0
VERTEX
  8
0
  5
BE4
 10
24.9047
 20
17.5319
 30
0.00000
  70
    32
  0
VERTEX
  8
0
  5
BE5
 10
24.7882
 20
17.4566
 30
0.00000
  70
    32
  0
VERTEX
  8
0
  5
BE6
 10
24.6717
 20
17.3813
 30
0.00000
  70
    32
  0
VERTEX
  8
0
  5
BE7
 10
24.5553
 20
17.3058
 30
0.00000
  70
    32
  0
VERTEX
  8
0
  5
BE8
 10
24.4390
 20
17.2303
 30
0.00000
  70
    32
  0
VERTEX
  8
0
  5
BE9
 10
24.3227
 20
17.1546
 30
0.00000
  70
    32
  0
VERTEX
  8
0
  5
BEA
 10
24.2065
 20
17.0789
 30
0.00000
  70
    32
  0
VERTEX
  8
0
  5
BEB
 10
24.0904
 20
17.0031
 30
0.00000
  70
    32
  0
VERTEX
  8
0
  5
BEC
 10
23.9743
 20
16.9271
 30
0.00000
  70
    32
  0
VERTEX
  8
0
  5
BED
 10
23.8583
 20
16.8511
 30
0.00000
  70
    32
  0
VERTEX
  8
0
  5
BEE
 10
23.7423
 20
16.7750
 30
0.00000
  70
    32
  0
VERTEX
  8
0
  5
BEF
 10
23.6264
 20
16.6987
 30
0.00000
  70
    32
  0
VERTEX
  8
0
  5
BF0
 10
23.5106
 20
16.6224
 30
0.00000
  70
    32
  0
VERTEX
  8
0
  5
BF1
 10
23.3948
 20
16.5460
 30
0.00000
  70
    32
  0
VERTEX
  8
0
  5
BF2
 10
23.2791
 20
16.4695
 30
0.00000
  70
    32
  0
VERTEX
  8
0
  5
BF3
 10
23.1635
 20
16.3928
 30
0.00000
  70
    32
  0
VERTEX
  8
0
  5
BF4
 10
23.0479
 20
16.3161
 30
0.00000
  70
    32
  0
VERTEX
  8
0
  5
BF5
 10
22.9324
 20
16.2393
 30
0.00000
  70
    32
  0
VERTEX
  8
0
  5
BF6
 10
22.8170
 20
16.1624
 30
0.00000
  70
    32
  0
VERTEX
  8
0
  5
BF7
 10
22.7016
 20
16.0854
 30
0.00000
  70
    32
  0
VERTEX
  8
0
  5
BF8
 10
22.5863
 20
16.0083
 30
0.00000
  70
    32
  0
VERTEX
  8
0
  5
BF9
 10
22.4711
 20
15.9311
 30
0.00000
  70
    32
  0
VERTEX
  8
0
  5
BFA
 10
22.3559
 20
15.8538
 30
0.00000
  70
    32
  0
VERTEX
  8
0
  5
BFB
 10
22.2408
 20
15.7764
 30
0.00000
  70
    32
  0
VERTEX
  8
0
  5
BFC
 10
22.1257
 20
15.6989
 30
0.00000
  70
    32
  0
VERTEX
  8
0
  5
BFD
 10
22.0108
 20
15.6213
 30
0.00000
  70
    32
  0
VERTEX
  8
0
  5
BFE
 10
21.8959
 20
15.5436
 30
0.00000
  70
    32
  0
VERTEX
  8
0
  5
BFF
 10
21.7810
 20
15.4658
 30
0.00000
  70
    32
  0
VERTEX
  8
0
  5
C00
 10
21.6662
 20
15.3879
 30
0.00000
  70
    32
  0
VERTEX
  8
0
  5
C01
 10
21.5515
 20
15.3099
 30
0.00000
  70
    32
  0
VERTEX
  8
0
  5
C02
 10
21.4369
 20
15.2318
 30
0.00000
  70
    32
  0
VERTEX
  8
0
  5
C03
 10
21.3223
 20
15.1536
 30
0.00000
  70
    32
  0
VERTEX
  8
0
  5
C04
 10
21.2078
 20
15.0753
 30
0.00000
  70
    32
  0
VERTEX
  8
0
  5
C05
 10
21.0934
 20
14.9969
 30
0.00000
  70
    32
  0
VERTEX
  8
0
  5
C06
 10
20.9791
 20
14.9183
 30
0.00000
  70
    32
  0
VERTEX
  8
0
  5
C07
 10
20.8648
 20
14.8397
 30
0.00000
  70
    32
  0
VERTEX
  8
0
  5
C08
 10
20.7506
 20
14.7610
 30
0.00000
  70
    32
  0
VERTEX
  8
0
  5
C09
 10
20.6364
 20
14.6822
 30
0.00000
  70
    32
  0
VERTEX
  8
0
  5
C0A
 10
20.5223
 20
14.6033
 30
0.00000
  70
    32
  0
VERTEX
  8
0
  5
C0B
 10
20.4083
 20
14.5243
 30
0.00000
  70
    32
  0
VERTEX
  8
0
  5
C0C
 10
20.2944
 20
14.4452
 30
0.00000
  70
    32
  0
VERTEX
  8
0
  5
C0D
 10
20.1805
 20
14.3660
 30
0.00000
  70
    32
  0
VERTEX
  8
0
  5
C0E
 10
20.0667
 20
14.2867
 30
0.00000
  70
    32
  0
VERTEX
  8
0
  5
C0F
 10
19.9530
 20
14.2073
 30
0.00000
  70
    32
  0
VERTEX
  8
0
  5
C10
 10
19.8394
 20
14.1278
 30
0.00000
  70
    32
  0
VERTEX
  8
0
  5
C11
 10
19.7258
 20
14.0482
 30
0.00000
  70
    32
  0
VERTEX
  8
0
  5
C12
 10
19.6123
 20
13.9684
 30
0.00000
  70
    32
  0
VERTEX
  8
0
  5
C13
 10
19.4989
 20
13.8886
 30
0.00000
  70
    32
  0
VERTEX
  8
0
  5
C14
 10
19.3855
 20
13.8087
 30
0.00000
  70
    32
  0
VERTEX
  8
0
  5
C15
 10
19.2722
 20
13.7287
 30
0.00000
  70
    32
  0
VERTEX
  8
0
  5
C16
 10
19.1590
 20
13.6485
 30
0.00000
  70
    32
  0
VERTEX
  8
0
  5
C17
 10
19.0459
 20
13.5683
 30
0.00000
  70
    32
  0
VERTEX
  8
0
  5
C18
 10
18.9328
 20
13.4880
 30
0.00000
  70
    32
  0
VERTEX
  8
0
  5
C19
 10
18.8198
 20
13.4075
 30
0.00000
  70
    32
  0
VERTEX
  8
0
  5
C1A
 10
18.7069
 20
13.3270
 30
0.00000
  70
    32
  0
VERTEX
  8
0
  5
C1B
 10
18.5941
 20
13.2463
 30
0.00000
  70
    32
  0
VERTEX
  8
0
  5
C1C
 10
18.4813
 20
13.1656
 30
0.00000
  70
    32
  0
VERTEX
  8
0
  5
C1D
 10
18.3687
 20
13.0847
 30
0.00000
  70
    32
  0
VERTEX
  8
0
  5
C1E
 10
18.2560
 20
13.0038
 30
0.00000
  70
    32
  0
VERTEX
  8
0
  5
C1F
 10
18.1435
 20
12.9227
 30
0.00000
  70
    32
  0
VERTEX
  8
0
  5
C20
 10
18.0311
 20
12.8415
 30
0.00000
  70
    32
  0
VERTEX
  8
0
  5
C21
 10
17.9187
 20
12.7603
 30
0.00000
  70
    32
  0
VERTEX
  8
0
  5
C22
 10
17.8064
 20
12.6789
 30
0.00000
  70
    32
  0
VERTEX
  8
0
  5
C23
 10
17.6942
 20
12.5974
 30
0.00000
  70
    32
  0
VERTEX
  8
0
  5
C24
 10
17.5820
 20
12.5158
 30
0.00000
  70
    32
  0
VERTEX
  8
0
  5
C25
 10
17.4700
 20
12.4341
 30
0.00000
  70
    32
  0
VERTEX
  8
0
  5
C26
 10
17.3580
 20
12.3523
 30
0.00000
  70
    32
  0
VERTEX
  8
0
  5
C27
 10
17.2461
 20
12.2704
 30
0.00000
  70
    32
  0
VERTEX
  8
0
  5
C28
 10
17.1342
 20
12.1884
 30
0.00000
  70
    32
  0
VERTEX
  8
0
  5
C29
 10
17.0225
 20
12.1063
 30
0.00000
  70
    32
  0
VERTEX
  8
0
  5
C2A
 10
16.9108
 20
12.0241
 30
0.00000
  70
    32
  0
VERTEX
  8
0
  5
C2B
 10
16.7992
 20
11.9418
 30
0.00000
  70
    32
  0
VERTEX
  8
0
  5
C2C
 10
16.6877
 20
11.8593
 30
0.00000
  70
    32
  0
VERTEX
  8
0
  5
C2D
 10
16.5763
 20
11.7768
 30
0.00000
  70
    32
  0
VERTEX
  8
0
  5
C2E
 10
16.4649
 20
11.6942
 30
0.00000
  70
    32
  0
VERTEX
  8
0
  5
C2F
 10
16.3536
 20
11.6114
 30
0.00000
  70
    32
  0
VERTEX
  8
0
  5
C30
 10
16.2424
 20
11.5286
 30
0.00000
  70
    32
  0
VERTEX
  8
0
  5
C31
 10
16.1313
 20
11.4456
 30
0.00000
  70
    32
  0
VERTEX
  8
0
  5
C32
 10
16.0203
 20
11.3625
 30
0.00000
  70
    32
  0
VERTEX
  8
0
  5
C33
 10
15.9093
 20
11.2793
 30
0.00000
  70
    32
  0
VERTEX
  8
0
  5
C34
 10
15.7985
 20
11.1961
 30
0.00000
  70
    32
  0
VERTEX
  8
0
  5
C35
 10
15.6877
 20
11.1127
 30
0.00000
  70
    32
  0
VERTEX
  8
0
  5
C36
 10
15.5770
 20
11.0292
 30
0.00000
  70
    32
  0
VERTEX
  8
0
  5
C37
 10
15.4664
 20
10.9456
 30
0.00000
  70
    32
  0
VERTEX
  8
0
  5
C38
 10
15.3558
 20
10.8618
 30
0.00000
  70
    32
  0
VERTEX
  8
0
  5
C39
 10
15.2454
 20
10.7780
 30
0.00000
  70
    32
  0
VERTEX
  8
0
  5
C3A
 10
15.1350
 20
10.6941
 30
0.00000
  70
    32
  0
VERTEX
  8
0
  5
C3B
 10
15.0247
 20
10.6100
 30
0.00000
  70
    32
  0
VERTEX
  8
0
  5
C3C
 10
14.9145
 20
10.5259
 30
0.00000
  70
    32
  0
VERTEX
  8
0
  5
C3D
 10
14.8044
 20
10.4416
 30
0.00000
  70
    32
  0
VERTEX
  8
0
  5
C3E
 10
14.6944
 20
10.3573
 30
0.00000
  70
    32
  0
VERTEX
  8
0
  5
C3F
 10
14.5845
 20
10.2728
 30
0.00000
  70
    32
  0
VERTEX
  8
0
  5
C40
 10
14.4746
 20
10.1882
 30
0.00000
  70
    32
  0
VERTEX
  8
0
  5
C41
 10
14.3648
 20
10.1035
 30
0.00000
  70
    32
  0
VERTEX
  8
0
  5
C42
 10
14.2551
 20
10.0187
 30
0.00000
  70
    32
  0
VERTEX
  8
0
  5
C43
 10
14.1455
 20
9.93380
 30
0.00000
  70
    32
  0
VERTEX
  8
0
  5
C44
 10
14.0360
 20
9.84877
 30
0.00000
  70
    32
  0
VERTEX
  8
0
  5
C45
 10
13.9266
 20
9.76364
 30
0.00000
  70
    32
  0
VERTEX
  8
0
  5
C46
 10
13.8172
 20
9.67840
 30
0.00000
  70
    32
  0
VERTEX
  8
0
  5
C47
 10
13.7080
 20
9.59306
 30
0.00000
  70
    32
  0
VERTEX
  8
0
  5
C48
 10
13.5988
 20
9.50761
 30
0.00000
  70
    32
  0
VERTEX
  8
0
  5
C49
 10
13.4897
 20
9.42206
 30
0.00000
  70
    32
  0
VERTEX
  8
0
  5
C4A
 10
13.3807
 20
9.33641
 30
0.00000
  70
    32
  0
VERTEX
  8
0
  5
C4B
 10
13.2717
 20
9.25066
 30
0.00000
  70
    32
  0
VERTEX
  8
0
  5
C4C
 10
13.1628
 20
9.16482
 30
0.00000
  70
    32
  0
VERTEX
  8
0
  5
C4D
 10
13.0540
 20
9.07888
 30
0.00000
  70
    32
  0
VERTEX
  8
0
  5
C4E
 10
12.9453
 20
8.99286
 30
0.00000
  70
    32
  0
VERTEX
  8
0
  5
C4F
 10
12.8367
 20
8.90674
 30
0.00000
  70
    32
  0
VERTEX
  8
0
  5
C50
 10
12.7281
 20
8.82054
 30
0.00000
  70
    32
  0
VERTEX
  8
0
  5
C51
 10
12.6196
 20
8.73425
 30
0.00000
  70
    32
  0
VERTEX
  8
0
  5
C52
 10
12.5111
 20
8.64787
 30
0.00000
  70
    32
  0
VERTEX
  8
0
  5
C53
 10
12.4027
 20
8.56142
 30
0.00000
  70
    32
  0
VERTEX
  8
0
  5
C54
 10
12.2944
 20
8.47488
 30
0.00000
  70
    32
  0
VERTEX
  8
0
  5
C55
 10
12.1861
 20
8.38827
 30
0.00000
  70
    32
  0
VERTEX
  8
0
  5
C56
 10
12.0779
 20
8.30158
 30
0.00000
  70
    32
  0
VERTEX
  8
0
  5
C57
 10
11.9698
 20
8.21482
 30
0.00000
  70
    32
  0
VERTEX
  8
0
  5
C58
 10
11.8617
 20
8.12799
 30
0.00000
  70
    32
  0
VERTEX
  8
0
  5
C59
 10
11.7536
 20
8.04109
 30
0.00000
  70
    32
  0
VERTEX
  8
0
  5
C5A
 10
11.6457
 20
7.95412
 30
0.00000
  70
    32
  0
VERTEX
  8
0
  5
C5B
 10
11.5377
 20
7.86708
 30
0.00000
  70
    32
  0
VERTEX
  8
0
  5
C5C
 10
11.4298
 20
7.77998
 30
0.00000
  70
    32
  0
VERTEX
  8
0
  5
C5D
 10
11.3220
 20
7.69282
 30
0.00000
  70
    32
  0
VERTEX
  8
0
  5
C5E
 10
11.2142
 20
7.60560
 30
0.00000
  70
    32
  0
VERTEX
  8
0
  5
C5F
 10
11.1065
 20
7.51833
 30
0.00000
  70
    32
  0
VERTEX
  8
0
  5
C60
 10
10.9988
 20
7.43099
 30
0.00000
  70
    32
  0
VERTEX
  8
0
  5
C61
 10
10.8911
 20
7.34361
 30
0.00000
  70
    32
  0
VERTEX
  8
0
  5
C62
 10
10.7835
 20
7.25617
 30
0.00000
  70
    32
  0
VERTEX
  8
0
  5
C63
 10
10.6759
 20
7.16868
 30
0.00000
  70
    32
  0
VERTEX
  8
0
  5
C64
 10
10.5684
 20
7.08115
 30
0.00000
  70
    32
  0
VERTEX
  8
0
  5
C65
 10
10.4609
 20
6.99357
 30
0.00000
  70
    32
  0
VERTEX
  8
0
  5
C66
 10
10.3534
 20
6.90594
 30
0.00000
  70
    32
  0
VERTEX
  8
0
  5
C67
 10
10.2460
 20
6.81828
 30
0.00000
  70
    32
  0
VERTEX
  8
0
  5
C68
 10
10.1386
 20
6.73057
 30
0.00000
  70
    32
  0
VERTEX
  8
0
  5
C69
 10
10.0312
 20
6.64283
 30
0.00000
  70
    32
  0
VERTEX
  8
0
  5
C6A
 10
9.92388
 20
6.55505
 30
0.00000
  70
    32
  0
VERTEX
  8
0
  5
C6B
 10
9.81656
 20
6.46724
 30
0.00000
  70
    32
  0
VERTEX
  8
0
  5
C6C
 10
9.70927
 20
6.37939
 30
0.00000
  70
    32
  0
VERTEX
  8
0
  5
C6D
 10
9.60199
 20
6.29152
 30
0.00000
  70
    32
  0
VERTEX
  8
0
  5
C6E
 10
9.49474
 20
6.20362
 30
0.00000
  70
    32
  0
VERTEX
  8
0
  5
C6F
 10
9.38751
 20
6.11569
 30
0.00000
  70
    32
  0
VERTEX
  8
0
  5
C70
 10
9.28030
 20
6.02774
 30
0.00000
  70
    32
  0
VERTEX
  8
0
  5
C71
 10
9.17311
 20
5.93977
 30
0.00000
  70
    32
  0
VERTEX
  8
0
  5
C72
 10
9.06593
 20
5.85178
 30
0.00000
  70
    32
  0
VERTEX
  8
0
  5
C73
 10
8.95877
 20
5.76377
 30
0.00000
  70
    32
  0
VERTEX
  8
0
  5
C74
 10
8.85161
 20
5.67575
 30
0.00000
  70
    32
  0
VERTEX
  8
0
  5
C75
 10
8.74447
 20
5.58771
 30
0.00000
  70
    32
  0
VERTEX
  8
0
  5
C76
 10
8.63734
 20
5.49966
 30
0.00000
  70
    32
  0
VERTEX
  8
0
  5
C77
 10
8.53021
 20
5.41160
 30
0.00000
  70
    32
  0
VERTEX
  8
0
  5
C78
 10
8.42309
 20
5.32354
 30
0.00000
  70
    32
  0
VERTEX
  8
0
  5
C79
 10
8.31598
 20
5.23547
 30
0.00000
  70
    32
  0
VERTEX
  8
0
  5
C7A
 10
8.20887
 20
5.14739
 30
0.00000
  70
    32
  0
VERTEX
  8
0
  5
C7B
 10
8.05529
 20
5.18483
 30
0.00000
  70
    32
  0
VERTEX
  8
0
  5
C7C
 10
7.72928
 20
5.68805
 30
0.00000
  70
    32
  0
VERTEX
  8
0
  5
C7D
 10
7.40328
 20
6.19126
 30
0.00000
  70
    32
  0
VERTEX
  8
0
  5
C7E
 10
7.07727
 20
6.69447
 30
0.00000
  70
    32
  0
VERTEX
  8
0
  5
C7F
 10
6.75127
 20
7.19769
 30
0.00000
  70
    32
  0
VERTEX
  8
0
  5
C80
 10
6.42526
 20
7.70090
 30
0.00000
  70
    32
  0
VERTEX
  8
0
  5
C81
 10
6.09926
 20
8.20411
 30
0.00000
  70
    32
  0
VERTEX
  8
0
  5
C82
 10
5.77325
 20
8.70733
 30
0.00000
  70
    32
  0
SEQEND
  8
0
  5
C83
  0
INSERT
  5
1FF
  8
0
  2
*U7
 10
0.0
 20
0.0
 30
0.0
  0
CIRCLE
  5
200
  8
DRILLING
 10
46.2243245869344079
 20
35.9211401337020604
 30
0.0
 40
0.3224999999999999
  0
CIRCLE
  5
201
  8
DRILLING
 10
51.5116853682545113
 20
38.7573023237328513
 30
0.0
 40
0.3224999999999999
  0
ENDSEC
  0
EOF
