  0
SECTION
  2
HEADER
  9
$ACADVER
  1
AC1009
  9
$INSBASE
 10
0.0
 20
0.0
 30
0.0
  9
$EXTMIN
 10
8.592484263989931
 20
6.0590985227198351
 30
0.0
  9
$EXTMAX
 10
102.5924842639899026
 20
52.0590985227198288
 30
0.0
  9
$LIMMIN
 10
0.0
 20
0.0
  9
$LIMMAX
 10
12.0
 20
9.0
  9
$ORTHOMODE
 70
     0
  9
$REGENMODE
 70
     1
  9
$FILLMODE
 70
     1
  9
$QTEXTMODE
 70
     0
  9
$MIRRTEXT
 70
     0
  9
$DRAGMODE
 70
     2
  9
$LTSCALE
 40
1.0
  9
$OSMODE
 70
   303
  9
$ATTMODE
 70
     1
  9
$TEXTSIZE
 40
0.2
  9
$TRACEWID
 40
0.05
  9
$TEXTSTYLE
  7
STANDARD
  9
$CLAYER
  8
0
  9
$CELTYPE
  6
BYLAYER
  9
$CECOLOR
 62
   256
  9
$DIMSCALE
 40
1.0
  9
$DIMASZ
 40
0.18
  9
$DIMEXO
 40
0.0625
  9
$DIMDLI
 40
0.38
  9
$DIMRND
 40
0.0
  9
$DIMDLE
 40
0.0
  9
$DIMEXE
 40
0.18
  9
$DIMTP
 40
0.0
  9
$DIMTM
 40
0.0
  9
$DIMTXT
 40
0.18
  9
$DIMCEN
 40
0.09
  9
$DIMTSZ
 40
0.0
  9
$DIMTOL
 70
     0
  9
$DIMLIM
 70
     0
  9
$DIMTIH
 70
     1
  9
$DIMTOH
 70
     1
  9
$DIMSE1
 70
     0
  9
$DIMSE2
 70
     0
  9
$DIMTAD
 70
     0
  9
$DIMZIN
 70
     0
  9
$DIMBLK
  1

  9
$DIMASO
 70
     1
  9
$DIMSHO
 70
     1
  9
$DIMPOST
  1

  9
$DIMAPOST
  1

  9
$DIMALT
 70
     0
  9
$DIMALTD
 70
     2
  9
$DIMALTF
 40
25.3999999999999986
  9
$DIMLFAC
 40
1.0
  9
$DIMTOFL
 70
     0
  9
$DIMTVP
 40
0.0
  9
$DIMTIX
 70
     0
  9
$DIMSOXD
 70
     0
  9
$DIMSAH
 70
     0
  9
$DIMBLK1
  1

  9
$DIMBLK2
  1

  9
$DIMSTYLE
  2
STANDARD
  9
$DIMCLRD
 70
     0
  9
$DIMCLRE
 70
     0
  9
$DIMCLRT
 70
     0
  9
$DIMTFAC
 40
1.0
  9
$DIMGAP
 40
0.09
  9
$LUNITS
 70
     2
  9
$LUPREC
 70
     4
  9
$SKETCHINC
 40
0.1
  9
$FILLETRAD
 40
0.0
  9
$AUNITS
 70
     0
  9
$AUPREC
 70
     0
  9
$MENU
  1
.
  9
$ELEVATION
 40
0.0
  9
$PELEVATION
 40
0.0
  9
$THICKNESS
 40
0.0
  9
$LIMCHECK
 70
     0
  9
$BLIPMODE
 70
     0
  9
$CHAMFERA
 40
0.0
  9
$CHAMFERB
 40
0.0
  9
$SKPOLY
 70
     0
  9
$TDCREATE
 40
2457228.586544584017247
  9
$TDUPDATE
 40
2457228.5869358098134398
  9
$TDINDWG
 40
0.0003954977
  9
$TDUSRTIMER
 40
0.0003953125
  9
$USRTIMER
 70
     1
  9
$ANGBASE
 50
0.0
  9
$ANGDIR
 70
     0
  9
$PDMODE
 70
     0
  9
$PDSIZE
 40
0.0
  9
$PLINEWID
 40
0.0
  9
$COORDS
 70
     1
  9
$SPLFRAME
 70
     0
  9
$SPLINETYPE
 70
     6
  9
$SPLINESEGS
 70
     8
  9
$ATTDIA
 70
     1
  9
$ATTREQ
 70
     1
  9
$HANDLING
 70
     1
  9
$HANDSEED
  5
8BA
  9
$SURFTAB1
 70
     6
  9
$SURFTAB2
 70
     6
  9
$SURFTYPE
 70
     6
  9
$SURFU
 70
     6
  9
$SURFV
 70
     6
  9
$UCSNAME
  2

  9
$UCSORG
 10
0.0
 20
0.0
 30
0.0
  9
$UCSXDIR
 10
1.0
 20
0.0
 30
0.0
  9
$UCSYDIR
 10
0.0
 20
1.0
 30
0.0
  9
$PUCSNAME
  2

  9
$PUCSORG
 10
0.0
 20
0.0
 30
0.0
  9
$PUCSXDIR
 10
1.0
 20
0.0
 30
0.0
  9
$PUCSYDIR
 10
0.0
 20
1.0
 30
0.0
  9
$USERI1
 70
     0
  9
$USERI2
 70
     0
  9
$USERI3
 70
     0
  9
$USERI4
 70
     0
  9
$USERI5
 70
     0
  9
$USERR1
 40
0.0
  9
$USERR2
 40
0.0
  9
$USERR3
 40
0.0
  9
$USERR4
 40
0.0
  9
$USERR5
 40
0.0
  9
$WORLDVIEW
 70
     1
  9
$SHADEDGE
 70
     3
  9
$SHADEDIF
 70
    70
  9
$TILEMODE
 70
     1
  9
$MAXACTVP
 70
    64
  9
$PLIMCHECK
 70
     0
  9
$PEXTMIN
 10
0.0
 20
0.0
 30
0.0
  9
$PEXTMAX
 10
0.0
 20
0.0
 30
0.0
  9
$PLIMMIN
 10
0.0
 20
0.0
  9
$PLIMMAX
 10
12.0
 20
9.0
  9
$UNITMODE
 70
     0
  9
$VISRETAIN
 70
     1
  9
$PLINEGEN
 70
     0
  9
$PSLTSCALE
 70
     1
  0
ENDSEC
  0
SECTION
  2
TABLES
  0
TABLE
  2
VPORT
 70
     1
  0
VPORT
  2
*ACTIVE
 70
     0
 10
0.0
 20
0.0
 11
1.0
 21
1.0
 12
23.4518101673001098
 22
13.1348712842764801
 13
0.0
 23
0.0
 14
0.5
 24
0.5
 15
0.5
 25
0.5
 16
0.0
 26
0.0
 36
1.0
 17
0.0
 27
0.0
 37
0.0
 40
29.2260236050612683
 41
1.6803278688524581
 42
50.0
 43
0.0
 44
0.0
 50
0.0
 51
0.0
 71
     0
 72
  1000
 73
     1
 74
     3
 75
     0
 76
     1
 77
     0
 78
     0
  0
ENDTAB
  0
TABLE
  2
LTYPE
 70
     1
  0
LTYPE
  2
CONTINUOUS
 70
     0
  3
Solid line
 72
    65
 73
     0
 40
0.0
  0
ENDTAB
  0
TABLE
  2
LAYER
 70
     4
  0
LAYER
  2
0
 70
     0
 62
     7
  6
CONTINUOUS
  0
LAYER
  2
DRILLING
 70
     0
 62
     3
  6
CONTINUOUS
  0
LAYER
  2
CUT_SHEET
 70
     0
 62
     1
  6
CONTINUOUS
  0
LAYER
  2
ANNOTATION
 70
     0
 62
     7
  6
CONTINUOUS
  0
ENDTAB
  0
TABLE
  2
STYLE
 70
     3
  0
STYLE
  2
STANDARD
 70
     0
 40
0.0
 41
1.0
 50
0.0
 71
     0
 42
0.2
  3
txt
  4

  0
STYLE
  2
ANNOTATIVE
 70
     0
 40
0.0
 41
1.0
 50
0.0
 71
     0
 42
0.2
  3
txt
  4

  0
STYLE
  2
TW_CEN_MT
 70
     0
 40
0.0
 41
1.0
 50
0.0
 71
     0
 42
0.0
  3
txt
  4

  0
ENDTAB
  0
TABLE
  2
VIEW
 70
     1
  0
ENDTAB
  0
TABLE
  2
UCS
 70
     0
  0
ENDTAB
  0
TABLE
  2
APPID
 70
     9
  0
APPID
  2
ACAD
 70
     0
  0
APPID
  2
ACADANNOPO
 70
     0
  0
APPID
  2
ACADANNOTATIVE
 70
     0
  0
APPID
  2
ACAD_DSTYLE_DIMJAG
 70
     0
  0
APPID
  2
ACAD_DSTYLE_DIMTALN
 70
     0
  0
APPID
  2
ACAD_MLEADERVER
 70
     0
  0
APPID
  2
ACAD_NAV_VCDISPLAY
 70
     0
  0
APPID
  2
ACAECLAYERSTANDARD
 70
     0
  0
APPID
  2
ACCMTRANSPARENCY
 70
     0
  0
ENDTAB
  0
TABLE
  2
DIMSTYLE
 70
     2
  0
DIMSTYLE
  2
STANDARD
 70
     0
  3

  4

  5

  6

  7

 40
1.0
 41
0.18
 42
0.0625
 43
0.38
 44
0.18
 45
0.0
 46
0.0
 47
0.0
 48
0.0
140
0.18
141
0.09
142
0.0
143
25.3999999999999986
144
1.0
145
0.0
146
1.0
147
0.09
 71
     0
 72
     0
 73
     1
 74
     1
 75
     0
 76
     0
 77
     0
 78
     0
170
     0
171
     2
172
     0
173
     0
174
     0
175
     0
176
     0
177
     0
178
     0
  0
DIMSTYLE
  2
ANNOTATIVE
 70
     0
  3

  4

  5

  6

  7

 40
0.0
 41
0.18
 42
0.0625
 43
0.38
 44
0.18
 45
0.0
 46
0.0
 47
0.0
 48
0.0
140
0.18
141
0.09
142
0.0
143
25.3999999999999986
144
1.0
145
0.0
146
1.0
147
0.09
 71
     0
 72
     0
 73
     1
 74
     1
 75
     0
 76
     0
 77
     0
 78
     0
170
     0
171
     2
172
     0
173
     0
174
     0
175
     0
176
     0
177
     0
178
     0
  0
ENDTAB
  0
ENDSEC
  0
SECTION
  2
BLOCKS
  0
BLOCK
  8
0
  2
$MODEL_SPACE
 70
     0
 10
0.0
 20
0.0
 30
0.0
  3
$MODEL_SPACE
  1

  0
ENDBLK
  5
21
  8
0
  0
BLOCK
 67
     1
  8
0
  2
$PAPER_SPACE
 70
     0
 10
0.0
 20
0.0
 30
0.0
  3
$PAPER_SPACE
  1

  0
ENDBLK
  5
5B
 67
     1
  8
0
  0
BLOCK
  8
0
  2
*U2
 70
     1
 10
0.0
 20
0.0
 30
0.0
  3
*U2
  1

  0
TEXT
  5
262
  8
ANNOTATION
 62
     7
 10
70.0301670655026101
 20
20.84329433615585
 30
0.0
 40
4.1481300000000001
  1
G.9
 50
69.2098843172059048
  7
TW_CEN_MT
  0
ENDBLK
  5
264
  8
0
  0
BLOCK
  8
0
  2
*U3
 70
     1
 10
0.0
 20
0.0
 30
0.0
  3
*U3
  1

  0
TEXT
  5
266
  8
ANNOTATION
 62
     7
 10
18.5208545100174398
 20
12.8822289973497792
 30
0.0
 40
4.1481300000000001
  1
G.9
  7
TW_CEN_MT
  0
ENDBLK
  5
268
  8
0
  0
BLOCK
  8
0
  2
*U4
 70
     1
 10
0.0
 20
0.0
 30
0.0
  3
*U4
  1

  0
TEXT
  5
26F
  8
ANNOTATION
 62
     7
 10
78.6226515641173904
 20
26.9023914945697413
 30
0.0
 40
4.1481300000000001
  1
G.9
 50
69.2098843172059048
  7
TW_CEN_MT
  0
ENDBLK
  5
271
  8
0
  0
BLOCK
  8
0
  2
*U5
 70
     1
 10
0.0
 20
0.0
 30
0.0
  3
*U5
  1

  0
TEXT
  5
273
  8
ANNOTATION
 62
     7
 10
27.1133390086322201
 20
18.9413261557636687
 30
0.0
 40
4.1481300000000001
  1
G.9
  7
TW_CEN_MT
  0
ENDBLK
  5
275
  8
0
  0
ENDSEC
  0
SECTION
  2
ENTITIES
  0
POLYLINE
  5
1F5
  8
CUT_SHEET
 66
     1
 10
0.0
 20
0.0
 30
0.0
 70
     1
  0
VERTEX
  5
269
  8
CUT_SHEET
 10
8.592484263989931
 20
52.0590985227198288
 30
0.0
  0
VERTEX
  5
26A
  8
CUT_SHEET
 10
8.592484263989931
 20
6.0590985227198351
 30
0.0
  0
VERTEX
  5
26B
  8
CUT_SHEET
 10
102.5924842639899026
 20
6.0590985227198351
 30
0.0
  0
VERTEX
  5
26C
  8
CUT_SHEET
 10
102.5924842639899026
 20
52.0590985227198288
 30
0.0
  0
SEQEND
  5
26D
  8
CUT_SHEET
  0
POLYLINE
  8
0
  5
276
  66
     1
 10
0.00000
 20
0.00000
 30
0.00000
  70
     8
  0
VERTEX
  8
0
  5
277
 10
48.0692
 20
34.5736
 30
0.00000
  70
    32
  0
VERTEX
  8
0
  5
278
 10
48.1777
 20
34.6209
 30
0.00000
  70
    32
  0
VERTEX
  8
0
  5
279
 10
48.2863
 20
34.6682
 30
0.00000
  70
    32
  0
VERTEX
  8
0
  5
27A
 10
48.3949
 20
34.7155
 30
0.00000
  70
    32
  0
VERTEX
  8
0
  5
27B
 10
48.5035
 20
34.7627
 30
0.00000
  70
    32
  0
VERTEX
  8
0
  5
27C
 10
48.6121
 20
34.8098
 30
0.00000
  70
    32
  0
VERTEX
  8
0
  5
27D
 10
48.7208
 20
34.8569
 30
0.00000
  70
    32
  0
VERTEX
  8
0
  5
27E
 10
48.8295
 20
34.9040
 30
0.00000
  70
    32
  0
VERTEX
  8
0
  5
27F
 10
48.9382
 20
34.9510
 30
0.00000
  70
    32
  0
VERTEX
  8
0
  5
280
 10
49.0469
 20
34.9979
 30
0.00000
  70
    32
  0
VERTEX
  8
0
  5
281
 10
49.1557
 20
35.0448
 30
0.00000
  70
    32
  0
VERTEX
  8
0
  5
282
 10
49.2644
 20
35.0916
 30
0.00000
  70
    32
  0
VERTEX
  8
0
  5
283
 10
49.3732
 20
35.1384
 30
0.00000
  70
    32
  0
VERTEX
  8
0
  5
284
 10
49.4820
 20
35.1851
 30
0.00000
  70
    32
  0
VERTEX
  8
0
  5
285
 10
49.5909
 20
35.2318
 30
0.00000
  70
    32
  0
VERTEX
  8
0
  5
286
 10
49.6998
 20
35.2784
 30
0.00000
  70
    32
  0
VERTEX
  8
0
  5
287
 10
49.8086
 20
35.3250
 30
0.00000
  70
    32
  0
VERTEX
  8
0
  5
288
 10
49.9176
 20
35.3715
 30
0.00000
  70
    32
  0
VERTEX
  8
0
  5
289
 10
50.0265
 20
35.4179
 30
0.00000
  70
    32
  0
VERTEX
  8
0
  5
28A
 10
50.1355
 20
35.4643
 30
0.00000
  70
    32
  0
VERTEX
  8
0
  5
28B
 10
50.2444
 20
35.5107
 30
0.00000
  70
    32
  0
VERTEX
  8
0
  5
28C
 10
50.3534
 20
35.5570
 30
0.00000
  70
    32
  0
VERTEX
  8
0
  5
28D
 10
50.4625
 20
35.6032
 30
0.00000
  70
    32
  0
VERTEX
  8
0
  5
28E
 10
50.5715
 20
35.6494
 30
0.00000
  70
    32
  0
VERTEX
  8
0
  5
28F
 10
50.6806
 20
35.6956
 30
0.00000
  70
    32
  0
VERTEX
  8
0
  5
290
 10
50.7897
 20
35.7416
 30
0.00000
  70
    32
  0
VERTEX
  8
0
  5
291
 10
50.8988
 20
35.7877
 30
0.00000
  70
    32
  0
VERTEX
  8
0
  5
292
 10
51.0079
 20
35.8337
 30
0.00000
  70
    32
  0
VERTEX
  8
0
  5
293
 10
51.1171
 20
35.8796
 30
0.00000
  70
    32
  0
VERTEX
  8
0
  5
294
 10
51.2263
 20
35.9254
 30
0.00000
  70
    32
  0
VERTEX
  8
0
  5
295
 10
51.3355
 20
35.9713
 30
0.00000
  70
    32
  0
VERTEX
  8
0
  5
296
 10
51.4447
 20
36.0170
 30
0.00000
  70
    32
  0
VERTEX
  8
0
  5
297
 10
51.5540
 20
36.0627
 30
0.00000
  70
    32
  0
VERTEX
  8
0
  5
298
 10
51.6632
 20
36.1084
 30
0.00000
  70
    32
  0
VERTEX
  8
0
  5
299
 10
51.7725
 20
36.1540
 30
0.00000
  70
    32
  0
VERTEX
  8
0
  5
29A
 10
51.8819
 20
36.1995
 30
0.00000
  70
    32
  0
VERTEX
  8
0
  5
29B
 10
51.9912
 20
36.2450
 30
0.00000
  70
    32
  0
VERTEX
  8
0
  5
29C
 10
52.1006
 20
36.2905
 30
0.00000
  70
    32
  0
VERTEX
  8
0
  5
29D
 10
52.2100
 20
36.3359
 30
0.00000
  70
    32
  0
VERTEX
  8
0
  5
29E
 10
52.3194
 20
36.3812
 30
0.00000
  70
    32
  0
VERTEX
  8
0
  5
29F
 10
52.4288
 20
36.4265
 30
0.00000
  70
    32
  0
VERTEX
  8
0
  5
2A0
 10
52.5383
 20
36.4717
 30
0.00000
  70
    32
  0
VERTEX
  8
0
  5
2A1
 10
52.6477
 20
36.5169
 30
0.00000
  70
    32
  0
VERTEX
  8
0
  5
2A2
 10
52.7572
 20
36.5620
 30
0.00000
  70
    32
  0
VERTEX
  8
0
  5
2A3
 10
52.8667
 20
36.6070
 30
0.00000
  70
    32
  0
VERTEX
  8
0
  5
2A4
 10
52.9763
 20
36.6521
 30
0.00000
  70
    32
  0
VERTEX
  8
0
  5
2A5
 10
53.0859
 20
36.6970
 30
0.00000
  70
    32
  0
VERTEX
  8
0
  5
2A6
 10
53.1954
 20
36.7419
 30
0.00000
  70
    32
  0
VERTEX
  8
0
  5
2A7
 10
53.3050
 20
36.7868
 30
0.00000
  70
    32
  0
VERTEX
  8
0
  5
2A8
 10
53.4147
 20
36.8316
 30
0.00000
  70
    32
  0
VERTEX
  8
0
  5
2A9
 10
53.5243
 20
36.8763
 30
0.00000
  70
    32
  0
VERTEX
  8
0
  5
2AA
 10
53.6340
 20
36.9210
 30
0.00000
  70
    32
  0
VERTEX
  8
0
  5
2AB
 10
53.7437
 20
36.9656
 30
0.00000
  70
    32
  0
VERTEX
  8
0
  5
2AC
 10
53.8534
 20
37.0102
 30
0.00000
  70
    32
  0
VERTEX
  8
0
  5
2AD
 10
53.9632
 20
37.0547
 30
0.00000
  70
    32
  0
VERTEX
  8
0
  5
2AE
 10
54.0729
 20
37.0992
 30
0.00000
  70
    32
  0
VERTEX
  8
0
  5
2AF
 10
54.1827
 20
37.1436
 30
0.00000
  70
    32
  0
VERTEX
  8
0
  5
2B0
 10
54.2925
 20
37.1880
 30
0.00000
  70
    32
  0
VERTEX
  8
0
  5
2B1
 10
54.4023
 20
37.2323
 30
0.00000
  70
    32
  0
VERTEX
  8
0
  5
2B2
 10
54.5122
 20
37.2765
 30
0.00000
  70
    32
  0
VERTEX
  8
0
  5
2B3
 10
54.6221
 20
37.3207
 30
0.00000
  70
    32
  0
VERTEX
  8
0
  5
2B4
 10
54.7319
 20
37.3649
 30
0.00000
  70
    32
  0
VERTEX
  8
0
  5
2B5
 10
54.8419
 20
37.4090
 30
0.00000
  70
    32
  0
VERTEX
  8
0
  5
2B6
 10
54.9518
 20
37.4530
 30
0.00000
  70
    32
  0
VERTEX
  8
0
  5
2B7
 10
55.0618
 20
37.4970
 30
0.00000
  70
    32
  0
VERTEX
  8
0
  5
2B8
 10
55.1717
 20
37.5409
 30
0.00000
  70
    32
  0
VERTEX
  8
0
  5
2B9
 10
55.2817
 20
37.5848
 30
0.00000
  70
    32
  0
VERTEX
  8
0
  5
2BA
 10
55.3918
 20
37.6286
 30
0.00000
  70
    32
  0
VERTEX
  8
0
  5
2BB
 10
55.5018
 20
37.6724
 30
0.00000
  70
    32
  0
VERTEX
  8
0
  5
2BC
 10
55.6119
 20
37.7161
 30
0.00000
  70
    32
  0
VERTEX
  8
0
  5
2BD
 10
55.7220
 20
37.7598
 30
0.00000
  70
    32
  0
VERTEX
  8
0
  5
2BE
 10
55.8321
 20
37.8034
 30
0.00000
  70
    32
  0
VERTEX
  8
0
  5
2BF
 10
55.9422
 20
37.8470
 30
0.00000
  70
    32
  0
VERTEX
  8
0
  5
2C0
 10
56.0523
 20
37.8905
 30
0.00000
  70
    32
  0
VERTEX
  8
0
  5
2C1
 10
56.1625
 20
37.9339
 30
0.00000
  70
    32
  0
VERTEX
  8
0
  5
2C2
 10
56.2727
 20
37.9773
 30
0.00000
  70
    32
  0
VERTEX
  8
0
  5
2C3
 10
56.3829
 20
38.0206
 30
0.00000
  70
    32
  0
VERTEX
  8
0
  5
2C4
 10
56.4932
 20
38.0639
 30
0.00000
  70
    32
  0
VERTEX
  8
0
  5
2C5
 10
56.6034
 20
38.1072
 30
0.00000
  70
    32
  0
VERTEX
  8
0
  5
2C6
 10
56.7137
 20
38.1503
 30
0.00000
  70
    32
  0
VERTEX
  8
0
  5
2C7
 10
56.8240
 20
38.1935
 30
0.00000
  70
    32
  0
VERTEX
  8
0
  5
2C8
 10
56.9343
 20
38.2365
 30
0.00000
  70
    32
  0
VERTEX
  8
0
  5
2C9
 10
57.0447
 20
38.2796
 30
0.00000
  70
    32
  0
VERTEX
  8
0
  5
2CA
 10
57.1550
 20
38.3225
 30
0.00000
  70
    32
  0
VERTEX
  8
0
  5
2CB
 10
57.2654
 20
38.3654
 30
0.00000
  70
    32
  0
VERTEX
  8
0
  5
2CC
 10
57.3758
 20
38.4083
 30
0.00000
  70
    32
  0
VERTEX
  8
0
  5
2CD
 10
57.4862
 20
38.4511
 30
0.00000
  70
    32
  0
VERTEX
  8
0
  5
2CE
 10
57.5967
 20
38.4938
 30
0.00000
  70
    32
  0
VERTEX
  8
0
  5
2CF
 10
57.7071
 20
38.5365
 30
0.00000
  70
    32
  0
VERTEX
  8
0
  5
2D0
 10
57.8176
 20
38.5792
 30
0.00000
  70
    32
  0
VERTEX
  8
0
  5
2D1
 10
57.9281
 20
38.6218
 30
0.00000
  70
    32
  0
VERTEX
  8
0
  5
2D2
 10
58.0387
 20
38.6643
 30
0.00000
  70
    32
  0
VERTEX
  8
0
  5
2D3
 10
58.1492
 20
38.7068
 30
0.00000
  70
    32
  0
VERTEX
  8
0
  5
2D4
 10
58.2598
 20
38.7492
 30
0.00000
  70
    32
  0
VERTEX
  8
0
  5
2D5
 10
58.3704
 20
38.7916
 30
0.00000
  70
    32
  0
VERTEX
  8
0
  5
2D6
 10
58.4810
 20
38.8339
 30
0.00000
  70
    32
  0
VERTEX
  8
0
  5
2D7
 10
58.5916
 20
38.8762
 30
0.00000
  70
    32
  0
VERTEX
  8
0
  5
2D8
 10
58.7023
 20
38.9184
 30
0.00000
  70
    32
  0
VERTEX
  8
0
  5
2D9
 10
58.8129
 20
38.9606
 30
0.00000
  70
    32
  0
VERTEX
  8
0
  5
2DA
 10
58.9236
 20
39.0027
 30
0.00000
  70
    32
  0
VERTEX
  8
0
  5
2DB
 10
59.0343
 20
39.0447
 30
0.00000
  70
    32
  0
VERTEX
  8
0
  5
2DC
 10
59.1451
 20
39.0867
 30
0.00000
  70
    32
  0
VERTEX
  8
0
  5
2DD
 10
59.2558
 20
39.1287
 30
0.00000
  70
    32
  0
VERTEX
  8
0
  5
2DE
 10
59.3666
 20
39.1706
 30
0.00000
  70
    32
  0
VERTEX
  8
0
  5
2DF
 10
59.4774
 20
39.2124
 30
0.00000
  70
    32
  0
VERTEX
  8
0
  5
2E0
 10
59.5882
 20
39.2542
 30
0.00000
  70
    32
  0
VERTEX
  8
0
  5
2E1
 10
59.6990
 20
39.2960
 30
0.00000
  70
    32
  0
VERTEX
  8
0
  5
2E2
 10
59.8099
 20
39.3376
 30
0.00000
  70
    32
  0
VERTEX
  8
0
  5
2E3
 10
59.9208
 20
39.3793
 30
0.00000
  70
    32
  0
VERTEX
  8
0
  5
2E4
 10
60.0317
 20
39.4208
 30
0.00000
  70
    32
  0
VERTEX
  8
0
  5
2E5
 10
60.1426
 20
39.4624
 30
0.00000
  70
    32
  0
VERTEX
  8
0
  5
2E6
 10
60.2535
 20
39.5038
 30
0.00000
  70
    32
  0
VERTEX
  8
0
  5
2E7
 10
60.3645
 20
39.5453
 30
0.00000
  70
    32
  0
VERTEX
  8
0
  5
2E8
 10
60.4754
 20
39.5866
 30
0.00000
  70
    32
  0
VERTEX
  8
0
  5
2E9
 10
60.5864
 20
39.6279
 30
0.00000
  70
    32
  0
VERTEX
  8
0
  5
2EA
 10
60.6975
 20
39.6692
 30
0.00000
  70
    32
  0
VERTEX
  8
0
  5
2EB
 10
60.8085
 20
39.7104
 30
0.00000
  70
    32
  0
VERTEX
  8
0
  5
2EC
 10
60.9195
 20
39.7515
 30
0.00000
  70
    32
  0
VERTEX
  8
0
  5
2ED
 10
61.0306
 20
39.7926
 30
0.00000
  70
    32
  0
VERTEX
  8
0
  5
2EE
 10
61.1417
 20
39.8337
 30
0.00000
  70
    32
  0
VERTEX
  8
0
  5
2EF
 10
61.2528
 20
39.8747
 30
0.00000
  70
    32
  0
VERTEX
  8
0
  5
2F0
 10
61.3640
 20
39.9156
 30
0.00000
  70
    32
  0
VERTEX
  8
0
  5
2F1
 10
61.4751
 20
39.9565
 30
0.00000
  70
    32
  0
VERTEX
  8
0
  5
2F2
 10
61.5863
 20
39.9973
 30
0.00000
  70
    32
  0
VERTEX
  8
0
  5
2F3
 10
61.6975
 20
40.0381
 30
0.00000
  70
    32
  0
VERTEX
  8
0
  5
2F4
 10
61.8087
 20
40.0788
 30
0.00000
  70
    32
  0
VERTEX
  8
0
  5
2F5
 10
61.9199
 20
40.1195
 30
0.00000
  70
    32
  0
VERTEX
  8
0
  5
2F6
 10
62.0312
 20
40.1601
 30
0.00000
  70
    32
  0
VERTEX
  8
0
  5
2F7
 10
62.1424
 20
40.2007
 30
0.00000
  70
    32
  0
VERTEX
  8
0
  5
2F8
 10
62.2537
 20
40.2412
 30
0.00000
  70
    32
  0
VERTEX
  8
0
  5
2F9
 10
62.3650
 20
40.2817
 30
0.00000
  70
    32
  0
VERTEX
  8
0
  5
2FA
 10
62.4764
 20
40.3221
 30
0.00000
  70
    32
  0
VERTEX
  8
0
  5
2FB
 10
62.5877
 20
40.3624
 30
0.00000
  70
    32
  0
VERTEX
  8
0
  5
2FC
 10
62.6991
 20
40.4027
 30
0.00000
  70
    32
  0
VERTEX
  8
0
  5
2FD
 10
62.8105
 20
40.4430
 30
0.00000
  70
    32
  0
VERTEX
  8
0
  5
2FE
 10
62.9219
 20
40.4832
 30
0.00000
  70
    32
  0
VERTEX
  8
0
  5
2FF
 10
63.0333
 20
40.5233
 30
0.00000
  70
    32
  0
VERTEX
  8
0
  5
300
 10
63.1447
 20
40.5634
 30
0.00000
  70
    32
  0
VERTEX
  8
0
  5
301
 10
63.2562
 20
40.6035
 30
0.00000
  70
    32
  0
VERTEX
  8
0
  5
302
 10
63.3677
 20
40.6435
 30
0.00000
  70
    32
  0
VERTEX
  8
0
  5
303
 10
63.4792
 20
40.6834
 30
0.00000
  70
    32
  0
VERTEX
  8
0
  5
304
 10
63.5907
 20
40.7233
 30
0.00000
  70
    32
  0
VERTEX
  8
0
  5
305
 10
63.7022
 20
40.7631
 30
0.00000
  70
    32
  0
VERTEX
  8
0
  5
306
 10
63.8138
 20
40.8029
 30
0.00000
  70
    32
  0
VERTEX
  8
0
  5
307
 10
63.9254
 20
40.8426
 30
0.00000
  70
    32
  0
VERTEX
  8
0
  5
308
 10
64.0370
 20
40.8823
 30
0.00000
  70
    32
  0
VERTEX
  8
0
  5
309
 10
64.1486
 20
40.9219
 30
0.00000
  70
    32
  0
VERTEX
  8
0
  5
30A
 10
64.2602
 20
40.9614
 30
0.00000
  70
    32
  0
VERTEX
  8
0
  5
30B
 10
64.3719
 20
41.0010
 30
0.00000
  70
    32
  0
VERTEX
  8
0
  5
30C
 10
64.4835
 20
41.0404
 30
0.00000
  70
    32
  0
VERTEX
  8
0
  5
30D
 10
64.5952
 20
41.0798
 30
0.00000
  70
    32
  0
VERTEX
  8
0
  5
30E
 10
64.7069
 20
41.1192
 30
0.00000
  70
    32
  0
VERTEX
  8
0
  5
30F
 10
64.8187
 20
41.1585
 30
0.00000
  70
    32
  0
VERTEX
  8
0
  5
310
 10
64.9304
 20
41.1977
 30
0.00000
  70
    32
  0
VERTEX
  8
0
  5
311
 10
65.0422
 20
41.2369
 30
0.00000
  70
    32
  0
VERTEX
  8
0
  5
312
 10
65.1540
 20
41.2761
 30
0.00000
  70
    32
  0
VERTEX
  8
0
  5
313
 10
65.2658
 20
41.3152
 30
0.00000
  70
    32
  0
VERTEX
  8
0
  5
314
 10
65.3776
 20
41.3542
 30
0.00000
  70
    32
  0
VERTEX
  8
0
  5
315
 10
65.4894
 20
41.3932
 30
0.00000
  70
    32
  0
VERTEX
  8
0
  5
316
 10
65.6013
 20
41.4321
 30
0.00000
  70
    32
  0
VERTEX
  8
0
  5
317
 10
65.7132
 20
41.4710
 30
0.00000
  70
    32
  0
VERTEX
  8
0
  5
318
 10
65.8250
 20
41.5098
 30
0.00000
  70
    32
  0
VERTEX
  8
0
  5
319
 10
65.9370
 20
41.5486
 30
0.00000
  70
    32
  0
VERTEX
  8
0
  5
31A
 10
66.0489
 20
41.5873
 30
0.00000
  70
    32
  0
VERTEX
  8
0
  5
31B
 10
66.1608
 20
41.6260
 30
0.00000
  70
    32
  0
VERTEX
  8
0
  5
31C
 10
66.2728
 20
41.6646
 30
0.00000
  70
    32
  0
VERTEX
  8
0
  5
31D
 10
66.3848
 20
41.7032
 30
0.00000
  70
    32
  0
VERTEX
  8
0
  5
31E
 10
66.4968
 20
41.7417
 30
0.00000
  70
    32
  0
VERTEX
  8
0
  5
31F
 10
66.6088
 20
41.7801
 30
0.00000
  70
    32
  0
VERTEX
  8
0
  5
320
 10
66.7209
 20
41.8186
 30
0.00000
  70
    32
  0
VERTEX
  8
0
  5
321
 10
66.8329
 20
41.8569
 30
0.00000
  70
    32
  0
VERTEX
  8
0
  5
322
 10
66.9450
 20
41.8952
 30
0.00000
  70
    32
  0
VERTEX
  8
0
  5
323
 10
67.0571
 20
41.9335
 30
0.00000
  70
    32
  0
VERTEX
  8
0
  5
324
 10
67.1692
 20
41.9717
 30
0.00000
  70
    32
  0
VERTEX
  8
0
  5
325
 10
67.2813
 20
42.0098
 30
0.00000
  70
    32
  0
VERTEX
  8
0
  5
326
 10
67.3935
 20
42.0479
 30
0.00000
  70
    32
  0
VERTEX
  8
0
  5
327
 10
67.5056
 20
42.0859
 30
0.00000
  70
    32
  0
VERTEX
  8
0
  5
328
 10
67.6178
 20
42.1239
 30
0.00000
  70
    32
  0
VERTEX
  8
0
  5
329
 10
67.7300
 20
42.1619
 30
0.00000
  70
    32
  0
VERTEX
  8
0
  5
32A
 10
67.8422
 20
42.1998
 30
0.00000
  70
    32
  0
VERTEX
  8
0
  5
32B
 10
67.9545
 20
42.2376
 30
0.00000
  70
    32
  0
VERTEX
  8
0
  5
32C
 10
68.0667
 20
42.2754
 30
0.00000
  70
    32
  0
VERTEX
  8
0
  5
32D
 10
68.1790
 20
42.3131
 30
0.00000
  70
    32
  0
VERTEX
  8
0
  5
32E
 10
68.2913
 20
42.3508
 30
0.00000
  70
    32
  0
VERTEX
  8
0
  5
32F
 10
68.4036
 20
42.3884
 30
0.00000
  70
    32
  0
VERTEX
  8
0
  5
330
 10
68.5159
 20
42.4260
 30
0.00000
  70
    32
  0
VERTEX
  8
0
  5
331
 10
68.6283
 20
42.4635
 30
0.00000
  70
    32
  0
VERTEX
  8
0
  5
332
 10
68.7406
 20
42.5010
 30
0.00000
  70
    32
  0
VERTEX
  8
0
  5
333
 10
68.8530
 20
42.5384
 30
0.00000
  70
    32
  0
VERTEX
  8
0
  5
334
 10
68.9654
 20
42.5757
 30
0.00000
  70
    32
  0
VERTEX
  8
0
  5
335
 10
69.0778
 20
42.6131
 30
0.00000
  70
    32
  0
VERTEX
  8
0
  5
336
 10
69.1902
 20
42.6503
 30
0.00000
  70
    32
  0
VERTEX
  8
0
  5
337
 10
69.3027
 20
42.6875
 30
0.00000
  70
    32
  0
VERTEX
  8
0
  5
338
 10
69.4151
 20
42.7247
 30
0.00000
  70
    32
  0
VERTEX
  8
0
  5
339
 10
69.5276
 20
42.7618
 30
0.00000
  70
    32
  0
VERTEX
  8
0
  5
33A
 10
69.6401
 20
42.7988
 30
0.00000
  70
    32
  0
VERTEX
  8
0
  5
33B
 10
69.7526
 20
42.8358
 30
0.00000
  70
    32
  0
VERTEX
  8
0
  5
33C
 10
69.8652
 20
42.8728
 30
0.00000
  70
    32
  0
VERTEX
  8
0
  5
33D
 10
69.9777
 20
42.9097
 30
0.00000
  70
    32
  0
VERTEX
  8
0
  5
33E
 10
70.0903
 20
42.9465
 30
0.00000
  70
    32
  0
VERTEX
  8
0
  5
33F
 10
70.2029
 20
42.9833
 30
0.00000
  70
    32
  0
VERTEX
  8
0
  5
340
 10
70.3155
 20
43.0200
 30
0.00000
  70
    32
  0
VERTEX
  8
0
  5
341
 10
70.4281
 20
43.0567
 30
0.00000
  70
    32
  0
VERTEX
  8
0
  5
342
 10
70.5407
 20
43.0934
 30
0.00000
  70
    32
  0
VERTEX
  8
0
  5
343
 10
70.6534
 20
43.1299
 30
0.00000
  70
    32
  0
VERTEX
  8
0
  5
344
 10
70.7660
 20
43.1665
 30
0.00000
  70
    32
  0
VERTEX
  8
0
  5
345
 10
70.8787
 20
43.2030
 30
0.00000
  70
    32
  0
VERTEX
  8
0
  5
346
 10
70.9914
 20
43.2394
 30
0.00000
  70
    32
  0
VERTEX
  8
0
  5
347
 10
71.1041
 20
43.2758
 30
0.00000
  70
    32
  0
VERTEX
  8
0
  5
348
 10
71.2169
 20
43.3121
 30
0.00000
  70
    32
  0
VERTEX
  8
0
  5
349
 10
71.3296
 20
43.3484
 30
0.00000
  70
    32
  0
VERTEX
  8
0
  5
34A
 10
71.4424
 20
43.3846
 30
0.00000
  70
    32
  0
VERTEX
  8
0
  5
34B
 10
71.5552
 20
43.4207
 30
0.00000
  70
    32
  0
VERTEX
  8
0
  5
34C
 10
71.6680
 20
43.4569
 30
0.00000
  70
    32
  0
VERTEX
  8
0
  5
34D
 10
71.7808
 20
43.4929
 30
0.00000
  70
    32
  0
VERTEX
  8
0
  5
34E
 10
71.8936
 20
43.5289
 30
0.00000
  70
    32
  0
VERTEX
  8
0
  5
34F
 10
72.0065
 20
43.5649
 30
0.00000
  70
    32
  0
VERTEX
  8
0
  5
350
 10
72.1193
 20
43.6008
 30
0.00000
  70
    32
  0
VERTEX
  8
0
  5
351
 10
72.2322
 20
43.6367
 30
0.00000
  70
    32
  0
VERTEX
  8
0
  5
352
 10
72.3451
 20
43.6725
 30
0.00000
  70
    32
  0
VERTEX
  8
0
  5
353
 10
72.4580
 20
43.7082
 30
0.00000
  70
    32
  0
VERTEX
  8
0
  5
354
 10
72.5710
 20
43.7439
 30
0.00000
  70
    32
  0
VERTEX
  8
0
  5
355
 10
72.6839
 20
43.7796
 30
0.00000
  70
    32
  0
VERTEX
  8
0
  5
356
 10
72.7969
 20
43.8152
 30
0.00000
  70
    32
  0
VERTEX
  8
0
  5
357
 10
72.9099
 20
43.8507
 30
0.00000
  70
    32
  0
VERTEX
  8
0
  5
358
 10
73.0229
 20
43.8862
 30
0.00000
  70
    32
  0
VERTEX
  8
0
  5
359
 10
73.1359
 20
43.9217
 30
0.00000
  70
    32
  0
VERTEX
  8
0
  5
35A
 10
73.2489
 20
43.9571
 30
0.00000
  70
    32
  0
VERTEX
  8
0
  5
35B
 10
73.3620
 20
43.9924
 30
0.00000
  70
    32
  0
VERTEX
  8
0
  5
35C
 10
73.4750
 20
44.0277
 30
0.00000
  70
    32
  0
VERTEX
  8
0
  5
35D
 10
73.5881
 20
44.0629
 30
0.00000
  70
    32
  0
VERTEX
  8
0
  5
35E
 10
73.7012
 20
44.0981
 30
0.00000
  70
    32
  0
VERTEX
  8
0
  5
35F
 10
73.8143
 20
44.1333
 30
0.00000
  70
    32
  0
VERTEX
  8
0
  5
360
 10
73.9274
 20
44.1683
 30
0.00000
  70
    32
  0
VERTEX
  8
0
  5
361
 10
74.0406
 20
44.2034
 30
0.00000
  70
    32
  0
VERTEX
  8
0
  5
362
 10
74.1538
 20
44.2384
 30
0.00000
  70
    32
  0
VERTEX
  8
0
  5
363
 10
74.2669
 20
44.2733
 30
0.00000
  70
    32
  0
VERTEX
  8
0
  5
364
 10
74.3801
 20
44.3082
 30
0.00000
  70
    32
  0
VERTEX
  8
0
  5
365
 10
74.4933
 20
44.3430
 30
0.00000
  70
    32
  0
VERTEX
  8
0
  5
366
 10
74.6065
 20
44.3778
 30
0.00000
  70
    32
  0
VERTEX
  8
0
  5
367
 10
74.7198
 20
44.4125
 30
0.00000
  70
    32
  0
VERTEX
  8
0
  5
368
 10
74.8330
 20
44.4472
 30
0.00000
  70
    32
  0
VERTEX
  8
0
  5
369
 10
74.9463
 20
44.4818
 30
0.00000
  70
    32
  0
VERTEX
  8
0
  5
36A
 10
75.0596
 20
44.5164
 30
0.00000
  70
    32
  0
VERTEX
  8
0
  5
36B
 10
75.1729
 20
44.5509
 30
0.00000
  70
    32
  0
VERTEX
  8
0
  5
36C
 10
75.2862
 20
44.5853
 30
0.00000
  70
    32
  0
VERTEX
  8
0
  5
36D
 10
75.3995
 20
44.6198
 30
0.00000
  70
    32
  0
VERTEX
  8
0
  5
36E
 10
75.5129
 20
44.6541
 30
0.00000
  70
    32
  0
VERTEX
  8
0
  5
36F
 10
75.6262
 20
44.6884
 30
0.00000
  70
    32
  0
VERTEX
  8
0
  5
370
 10
75.7396
 20
44.7227
 30
0.00000
  70
    32
  0
VERTEX
  8
0
  5
371
 10
75.8530
 20
44.7569
 30
0.00000
  70
    32
  0
VERTEX
  8
0
  5
372
 10
75.9664
 20
44.7911
 30
0.00000
  70
    32
  0
VERTEX
  8
0
  5
373
 10
76.0799
 20
44.8252
 30
0.00000
  70
    32
  0
VERTEX
  8
0
  5
374
 10
76.1933
 20
44.8592
 30
0.00000
  70
    32
  0
VERTEX
  8
0
  5
375
 10
76.3067
 20
44.8932
 30
0.00000
  70
    32
  0
VERTEX
  8
0
  5
376
 10
76.4202
 20
44.9272
 30
0.00000
  70
    32
  0
VERTEX
  8
0
  5
377
 10
76.5337
 20
44.9611
 30
0.00000
  70
    32
  0
VERTEX
  8
0
  5
378
 10
76.6472
 20
44.9949
 30
0.00000
  70
    32
  0
VERTEX
  8
0
  5
379
 10
76.7607
 20
45.0287
 30
0.00000
  70
    32
  0
VERTEX
  8
0
  5
37A
 10
76.8742
 20
45.0625
 30
0.00000
  70
    32
  0
VERTEX
  8
0
  5
37B
 10
76.9878
 20
45.0962
 30
0.00000
  70
    32
  0
VERTEX
  8
0
  5
37C
 10
77.1014
 20
45.1298
 30
0.00000
  70
    32
  0
VERTEX
  8
0
  5
37D
 10
77.2149
 20
45.1634
 30
0.00000
  70
    32
  0
VERTEX
  8
0
  5
37E
 10
77.3285
 20
45.1969
 30
0.00000
  70
    32
  0
VERTEX
  8
0
  5
37F
 10
77.4421
 20
45.2304
 30
0.00000
  70
    32
  0
VERTEX
  8
0
  5
380
 10
77.5558
 20
45.2639
 30
0.00000
  70
    32
  0
VERTEX
  8
0
  5
381
 10
77.6694
 20
45.2972
 30
0.00000
  70
    32
  0
VERTEX
  8
0
  5
382
 10
77.7830
 20
45.3306
 30
0.00000
  70
    32
  0
VERTEX
  8
0
  5
383
 10
77.8967
 20
45.3638
 30
0.00000
  70
    32
  0
VERTEX
  8
0
  5
384
 10
78.0104
 20
45.3971
 30
0.00000
  70
    32
  0
VERTEX
  8
0
  5
385
 10
78.1241
 20
45.4302
 30
0.00000
  70
    32
  0
VERTEX
  8
0
  5
386
 10
78.2378
 20
45.4633
 30
0.00000
  70
    32
  0
VERTEX
  8
0
  5
387
 10
78.3515
 20
45.4964
 30
0.00000
  70
    32
  0
VERTEX
  8
0
  5
388
 10
78.4653
 20
45.5294
 30
0.00000
  70
    32
  0
VERTEX
  8
0
  5
389
 10
78.5790
 20
45.5624
 30
0.00000
  70
    32
  0
VERTEX
  8
0
  5
38A
 10
78.6928
 20
45.5953
 30
0.00000
  70
    32
  0
VERTEX
  8
0
  5
38B
 10
78.8066
 20
45.6281
 30
0.00000
  70
    32
  0
VERTEX
  8
0
  5
38C
 10
78.9204
 20
45.6609
 30
0.00000
  70
    32
  0
VERTEX
  8
0
  5
38D
 10
79.0342
 20
45.6937
 30
0.00000
  70
    32
  0
VERTEX
  8
0
  5
38E
 10
79.1481
 20
45.7264
 30
0.00000
  70
    32
  0
VERTEX
  8
0
  5
38F
 10
79.2619
 20
45.7590
 30
0.00000
  70
    32
  0
VERTEX
  8
0
  5
390
 10
79.3758
 20
45.7916
 30
0.00000
  70
    32
  0
VERTEX
  8
0
  5
391
 10
79.4897
 20
45.8241
 30
0.00000
  70
    32
  0
VERTEX
  8
0
  5
392
 10
79.6035
 20
45.8566
 30
0.00000
  70
    32
  0
VERTEX
  8
0
  5
393
 10
79.7175
 20
45.8891
 30
0.00000
  70
    32
  0
VERTEX
  8
0
  5
394
 10
79.8314
 20
45.9214
 30
0.00000
  70
    32
  0
VERTEX
  8
0
  5
395
 10
79.9453
 20
45.9538
 30
0.00000
  70
    32
  0
VERTEX
  8
0
  5
396
 10
80.0593
 20
45.9860
 30
0.00000
  70
    32
  0
VERTEX
  8
0
  5
397
 10
80.1732
 20
46.0182
 30
0.00000
  70
    32
  0
VERTEX
  8
0
  5
398
 10
80.2872
 20
46.0504
 30
0.00000
  70
    32
  0
VERTEX
  8
0
  5
399
 10
80.4012
 20
46.0825
 30
0.00000
  70
    32
  0
VERTEX
  8
0
  5
39A
 10
80.5152
 20
46.1146
 30
0.00000
  70
    32
  0
VERTEX
  8
0
  5
39B
 10
80.6293
 20
46.1466
 30
0.00000
  70
    32
  0
VERTEX
  8
0
  5
39C
 10
80.7433
 20
46.1785
 30
0.00000
  70
    32
  0
VERTEX
  8
0
  5
39D
 10
80.8574
 20
46.2104
 30
0.00000
  70
    32
  0
VERTEX
  8
0
  5
39E
 10
80.9714
 20
46.2422
 30
0.00000
  70
    32
  0
VERTEX
  8
0
  5
39F
 10
81.0855
 20
46.2740
 30
0.00000
  70
    32
  0
VERTEX
  8
0
  5
3A0
 10
81.1996
 20
46.3058
 30
0.00000
  70
    32
  0
VERTEX
  8
0
  5
3A1
 10
81.3137
 20
46.3374
 30
0.00000
  70
    32
  0
VERTEX
  8
0
  5
3A2
 10
81.4279
 20
46.3691
 30
0.00000
  70
    32
  0
VERTEX
  8
0
  5
3A3
 10
81.5420
 20
46.4006
 30
0.00000
  70
    32
  0
VERTEX
  8
0
  5
3A4
 10
81.6562
 20
46.4321
 30
0.00000
  70
    32
  0
VERTEX
  8
0
  5
3A5
 10
81.7703
 20
46.4636
 30
0.00000
  70
    32
  0
VERTEX
  8
0
  5
3A6
 10
81.8845
 20
46.4950
 30
0.00000
  70
    32
  0
VERTEX
  8
0
  5
3A7
 10
81.9987
 20
46.5264
 30
0.00000
  70
    32
  0
VERTEX
  8
0
  5
3A8
 10
82.1129
 20
46.5577
 30
0.00000
  70
    32
  0
VERTEX
  8
0
  5
3A9
 10
82.2272
 20
46.5889
 30
0.00000
  70
    32
  0
VERTEX
  8
0
  5
3AA
 10
82.3414
 20
46.6201
 30
0.00000
  70
    32
  0
VERTEX
  8
0
  5
3AB
 10
82.4557
 20
46.6512
 30
0.00000
  70
    32
  0
VERTEX
  8
0
  5
3AC
 10
82.5700
 20
46.6823
 30
0.00000
  70
    32
  0
VERTEX
  8
0
  5
3AD
 10
82.6842
 20
46.7133
 30
0.00000
  70
    32
  0
VERTEX
  8
0
  5
3AE
 10
82.7986
 20
46.7443
 30
0.00000
  70
    32
  0
VERTEX
  8
0
  5
3AF
 10
82.9129
 20
46.7752
 30
0.00000
  70
    32
  0
VERTEX
  8
0
  5
3B0
 10
83.0272
 20
46.8061
 30
0.00000
  70
    32
  0
VERTEX
  8
0
  5
3B1
 10
83.1416
 20
46.8369
 30
0.00000
  70
    32
  0
VERTEX
  8
0
  5
3B2
 10
83.2559
 20
46.8676
 30
0.00000
  70
    32
  0
VERTEX
  8
0
  5
3B3
 10
83.3703
 20
46.8983
 30
0.00000
  70
    32
  0
VERTEX
  8
0
  5
3B4
 10
83.4847
 20
46.9290
 30
0.00000
  70
    32
  0
VERTEX
  8
0
  5
3B5
 10
83.5991
 20
46.9595
 30
0.00000
  70
    32
  0
VERTEX
  8
0
  5
3B6
 10
83.7135
 20
46.9901
 30
0.00000
  70
    32
  0
VERTEX
  8
0
  5
3B7
 10
83.8279
 20
47.0205
 30
0.00000
  70
    32
  0
VERTEX
  8
0
  5
3B8
 10
83.9424
 20
47.0510
 30
0.00000
  70
    32
  0
VERTEX
  8
0
  5
3B9
 10
84.0569
 20
47.0813
 30
0.00000
  70
    32
  0
VERTEX
  8
0
  5
3BA
 10
84.1713
 20
47.1116
 30
0.00000
  70
    32
  0
VERTEX
  8
0
  5
3BB
 10
84.2858
 20
47.1419
 30
0.00000
  70
    32
  0
VERTEX
  8
0
  5
3BC
 10
84.4003
 20
47.1721
 30
0.00000
  70
    32
  0
VERTEX
  8
0
  5
3BD
 10
84.5148
 20
47.2022
 30
0.00000
  70
    32
  0
VERTEX
  8
0
  5
3BE
 10
84.6294
 20
47.2323
 30
0.00000
  70
    32
  0
VERTEX
  8
0
  5
3BF
 10
84.7439
 20
47.2623
 30
0.00000
  70
    32
  0
VERTEX
  8
0
  5
3C0
 10
84.8585
 20
47.2923
 30
0.00000
  70
    32
  0
VERTEX
  8
0
  5
3C1
 10
84.9731
 20
47.3222
 30
0.00000
  70
    32
  0
VERTEX
  8
0
  5
3C2
 10
85.0877
 20
47.3521
 30
0.00000
  70
    32
  0
VERTEX
  8
0
  5
3C3
 10
85.2023
 20
47.3819
 30
0.00000
  70
    32
  0
VERTEX
  8
0
  5
3C4
 10
85.3169
 20
47.4117
 30
0.00000
  70
    32
  0
VERTEX
  8
0
  5
3C5
 10
85.4315
 20
47.4414
 30
0.00000
  70
    32
  0
VERTEX
  8
0
  5
3C6
 10
85.5462
 20
47.4710
 30
0.00000
  70
    32
  0
VERTEX
  8
0
  5
3C7
 10
85.6608
 20
47.5006
 30
0.00000
  70
    32
  0
VERTEX
  8
0
  5
3C8
 10
85.7755
 20
47.5301
 30
0.00000
  70
    32
  0
VERTEX
  8
0
  5
3C9
 10
85.8902
 20
47.5596
 30
0.00000
  70
    32
  0
VERTEX
  8
0
  5
3CA
 10
86.0049
 20
47.5890
 30
0.00000
  70
    32
  0
VERTEX
  8
0
  5
3CB
 10
86.1196
 20
47.6183
 30
0.00000
  70
    32
  0
VERTEX
  8
0
  5
3CC
 10
86.2343
 20
47.6476
 30
0.00000
  70
    32
  0
VERTEX
  8
0
  5
3CD
 10
86.3491
 20
47.6769
 30
0.00000
  70
    32
  0
VERTEX
  8
0
  5
3CE
 10
86.4638
 20
47.7061
 30
0.00000
  70
    32
  0
VERTEX
  8
0
  5
3CF
 10
86.5786
 20
47.7352
 30
0.00000
  70
    32
  0
VERTEX
  8
0
  5
3D0
 10
86.6934
 20
47.7643
 30
0.00000
  70
    32
  0
VERTEX
  8
0
  5
3D1
 10
86.8082
 20
47.7933
 30
0.00000
  70
    32
  0
VERTEX
  8
0
  5
3D2
 10
86.9230
 20
47.8223
 30
0.00000
  70
    32
  0
VERTEX
  8
0
  5
3D3
 10
87.0378
 20
47.8512
 30
0.00000
  70
    32
  0
VERTEX
  8
0
  5
3D4
 10
87.1527
 20
47.8800
 30
0.00000
  70
    32
  0
VERTEX
  8
0
  5
3D5
 10
87.2675
 20
47.9088
 30
0.00000
  70
    32
  0
VERTEX
  8
0
  5
3D6
 10
87.3824
 20
47.9376
 30
0.00000
  70
    32
  0
VERTEX
  8
0
  5
3D7
 10
87.4973
 20
47.9662
 30
0.00000
  70
    32
  0
VERTEX
  8
0
  5
3D8
 10
87.6122
 20
47.9949
 30
0.00000
  70
    32
  0
VERTEX
  8
0
  5
3D9
 10
87.7271
 20
48.0234
 30
0.00000
  70
    32
  0
VERTEX
  8
0
  5
3DA
 10
87.8420
 20
48.0519
 30
0.00000
  70
    32
  0
VERTEX
  8
0
  5
3DB
 10
87.9570
 20
48.0804
 30
0.00000
  70
    32
  0
VERTEX
  8
0
  5
3DC
 10
88.0719
 20
48.1088
 30
0.00000
  70
    32
  0
VERTEX
  8
0
  5
3DD
 10
88.1869
 20
48.1371
 30
0.00000
  70
    32
  0
VERTEX
  8
0
  5
3DE
 10
88.3019
 20
48.1654
 30
0.00000
  70
    32
  0
VERTEX
  8
0
  5
3DF
 10
88.4169
 20
48.1936
 30
0.00000
  70
    32
  0
VERTEX
  8
0
  5
3E0
 10
88.5319
 20
48.2218
 30
0.00000
  70
    32
  0
VERTEX
  8
0
  5
3E1
 10
88.6469
 20
48.2499
 30
0.00000
  70
    32
  0
VERTEX
  8
0
  5
3E2
 10
88.7619
 20
48.2779
 30
0.00000
  70
    32
  0
VERTEX
  8
0
  5
3E3
 10
88.8770
 20
48.3059
 30
0.00000
  70
    32
  0
VERTEX
  8
0
  5
3E4
 10
88.9920
 20
48.3338
 30
0.00000
  70
    32
  0
VERTEX
  8
0
  5
3E5
 10
89.1071
 20
48.3617
 30
0.00000
  70
    32
  0
VERTEX
  8
0
  5
3E6
 10
89.2222
 20
48.3895
 30
0.00000
  70
    32
  0
VERTEX
  8
0
  5
3E7
 10
89.3373
 20
48.4173
 30
0.00000
  70
    32
  0
VERTEX
  8
0
  5
3E8
 10
89.4524
 20
48.4450
 30
0.00000
  70
    32
  0
VERTEX
  8
0
  5
3E9
 10
89.5676
 20
48.4726
 30
0.00000
  70
    32
  0
VERTEX
  8
0
  5
3EA
 10
89.6827
 20
48.5002
 30
0.00000
  70
    32
  0
VERTEX
  8
0
  5
3EB
 10
89.7979
 20
48.5278
 30
0.00000
  70
    32
  0
VERTEX
  8
0
  5
3EC
 10
89.9130
 20
48.5552
 30
0.00000
  70
    32
  0
VERTEX
  8
0
  5
3ED
 10
90.0282
 20
48.5826
 30
0.00000
  70
    32
  0
VERTEX
  8
0
  5
3EE
 10
90.1434
 20
48.6100
 30
0.00000
  70
    32
  0
VERTEX
  8
0
  5
3EF
 10
90.2586
 20
48.6373
 30
0.00000
  70
    32
  0
VERTEX
  8
0
  5
3F0
 10
90.3739
 20
48.6645
 30
0.00000
  70
    32
  0
VERTEX
  8
0
  5
3F1
 10
90.4891
 20
48.6917
 30
0.00000
  70
    32
  0
VERTEX
  8
0
  5
3F2
 10
90.6043
 20
48.7188
 30
0.00000
  70
    32
  0
VERTEX
  8
0
  5
3F3
 10
90.7196
 20
48.7459
 30
0.00000
  70
    32
  0
VERTEX
  8
0
  5
3F4
 10
90.8349
 20
48.7729
 30
0.00000
  70
    32
  0
VERTEX
  8
0
  5
3F5
 10
90.9502
 20
48.7998
 30
0.00000
  70
    32
  0
VERTEX
  8
0
  5
3F6
 10
91.0655
 20
48.8267
 30
0.00000
  70
    32
  0
VERTEX
  8
0
  5
3F7
 10
91.1808
 20
48.8535
 30
0.00000
  70
    32
  0
VERTEX
  8
0
  5
3F8
 10
91.2961
 20
48.8803
 30
0.00000
  70
    32
  0
VERTEX
  8
0
  5
3F9
 10
91.4115
 20
48.9070
 30
0.00000
  70
    32
  0
VERTEX
  8
0
  5
3FA
 10
91.5268
 20
48.9337
 30
0.00000
  70
    32
  0
VERTEX
  8
0
  5
3FB
 10
91.6422
 20
48.9603
 30
0.00000
  70
    32
  0
VERTEX
  8
0
  5
3FC
 10
91.7576
 20
48.9868
 30
0.00000
  70
    32
  0
VERTEX
  8
0
  5
3FD
 10
91.8730
 20
49.0133
 30
0.00000
  70
    32
  0
VERTEX
  8
0
  5
3FE
 10
91.9884
 20
49.0397
 30
0.00000
  70
    32
  0
VERTEX
  8
0
  5
3FF
 10
92.1038
 20
49.0660
 30
0.00000
  70
    32
  0
VERTEX
  8
0
  5
400
 10
92.2193
 20
49.0923
 30
0.00000
  70
    32
  0
VERTEX
  8
0
  5
401
 10
92.3347
 20
49.1186
 30
0.00000
  70
    32
  0
VERTEX
  8
0
  5
402
 10
92.4502
 20
49.1447
 30
0.00000
  70
    32
  0
VERTEX
  8
0
  5
403
 10
92.5656
 20
49.1709
 30
0.00000
  70
    32
  0
VERTEX
  8
0
  5
404
 10
92.6811
 20
49.1969
 30
0.00000
  70
    32
  0
VERTEX
  8
0
  5
405
 10
92.7966
 20
49.2229
 30
0.00000
  70
    32
  0
VERTEX
  8
0
  5
406
 10
92.9122
 20
49.2489
 30
0.00000
  70
    32
  0
VERTEX
  8
0
  5
407
 10
93.0277
 20
49.2748
 30
0.00000
  70
    32
  0
VERTEX
  8
0
  5
408
 10
93.1432
 20
49.3006
 30
0.00000
  70
    32
  0
VERTEX
  8
0
  5
409
 10
93.2588
 20
49.3264
 30
0.00000
  70
    32
  0
VERTEX
  8
0
  5
40A
 10
93.3743
 20
49.3521
 30
0.00000
  70
    32
  0
VERTEX
  8
0
  5
40B
 10
93.4899
 20
49.3778
 30
0.00000
  70
    32
  0
VERTEX
  8
0
  5
40C
 10
93.6055
 20
49.4035
 30
0.00000
  70
    32
  0
VERTEX
  8
0
  5
40D
 10
93.7211
 20
49.4290
 30
0.00000
  70
    32
  0
VERTEX
  8
0
  5
40E
 10
93.8367
 20
49.4546
 30
0.00000
  70
    32
  0
VERTEX
  8
0
  5
40F
 10
93.9523
 20
49.4801
 30
0.00000
  70
    32
  0
VERTEX
  8
0
  5
410
 10
94.0679
 20
49.5055
 30
0.00000
  70
    32
  0
VERTEX
  8
0
  5
411
 10
94.1836
 20
49.5309
 30
0.00000
  70
    32
  0
VERTEX
  8
0
  5
412
 10
94.2992
 20
49.5562
 30
0.00000
  70
    32
  0
VERTEX
  8
0
  5
413
 10
94.4149
 20
49.5815
 30
0.00000
  70
    32
  0
VERTEX
  8
0
  5
414
 10
94.5305
 20
49.6068
 30
0.00000
  70
    32
  0
VERTEX
  8
0
  5
415
 10
94.6462
 20
49.6320
 30
0.00000
  70
    32
  0
VERTEX
  8
0
  5
416
 10
94.7619
 20
49.6572
 30
0.00000
  70
    32
  0
VERTEX
  8
0
  5
417
 10
94.8776
 20
49.6823
 30
0.00000
  70
    32
  0
VERTEX
  8
0
  5
418
 10
94.9933
 20
49.7074
 30
0.00000
  70
    32
  0
VERTEX
  8
0
  5
419
 10
95.1090
 20
49.7324
 30
0.00000
  70
    32
  0
VERTEX
  8
0
  5
41A
 10
95.2247
 20
49.7575
 30
0.00000
  70
    32
  0
VERTEX
  8
0
  5
41B
 10
95.3405
 20
49.7824
 30
0.00000
  70
    32
  0
VERTEX
  8
0
  5
41C
 10
95.4562
 20
49.8074
 30
0.00000
  70
    32
  0
VERTEX
  8
0
  5
41D
 10
95.5720
 20
49.8323
 30
0.00000
  70
    32
  0
VERTEX
  8
0
  5
41E
 10
95.6877
 20
49.8571
 30
0.00000
  70
    32
  0
VERTEX
  8
0
  5
41F
 10
95.8035
 20
49.8819
 30
0.00000
  70
    32
  0
VERTEX
  8
0
  5
420
 10
95.9193
 20
49.9067
 30
0.00000
  70
    32
  0
VERTEX
  8
0
  5
421
 10
96.0350
 20
49.9315
 30
0.00000
  70
    32
  0
VERTEX
  8
0
  5
422
 10
96.1508
 20
49.9562
 30
0.00000
  70
    32
  0
VERTEX
  8
0
  5
423
 10
96.2666
 20
49.9809
 30
0.00000
  70
    32
  0
VERTEX
  8
0
  5
424
 10
96.3824
 20
50.0056
 30
0.00000
  70
    32
  0
VERTEX
  8
0
  5
425
 10
96.4982
 20
50.0302
 30
0.00000
  70
    32
  0
VERTEX
  8
0
  5
426
 10
96.6140
 20
50.0548
 30
0.00000
  70
    32
  0
VERTEX
  8
0
  5
427
 10
96.7299
 20
50.0794
 30
0.00000
  70
    32
  0
VERTEX
  8
0
  5
428
 10
96.8457
 20
50.1039
 30
0.00000
  70
    32
  0
VERTEX
  8
0
  5
429
 10
96.9615
 20
50.1284
 30
0.00000
  70
    32
  0
VERTEX
  8
0
  5
42A
 10
97.0773
 20
50.1529
 30
0.00000
  70
    32
  0
VERTEX
  8
0
  5
42B
 10
97.1932
 20
50.1774
 30
0.00000
  70
    32
  0
VERTEX
  8
0
  5
42C
 10
97.3090
 20
50.2019
 30
0.00000
  70
    32
  0
VERTEX
  8
0
  5
42D
 10
97.4249
 20
50.2263
 30
0.00000
  70
    32
  0
VERTEX
  8
0
  5
42E
 10
97.5408
 20
50.2507
 30
0.00000
  70
    32
  0
VERTEX
  8
0
  5
42F
 10
97.6566
 20
50.2751
 30
0.00000
  70
    32
  0
VERTEX
  8
0
  5
430
 10
97.7725
 20
50.2994
 30
0.00000
  70
    32
  0
VERTEX
  8
0
  5
431
 10
97.8884
 20
50.3237
 30
0.00000
  70
    32
  0
VERTEX
  8
0
  5
432
 10
98.0042
 20
50.3481
 30
0.00000
  70
    32
  0
VERTEX
  8
0
  5
433
 10
98.1201
 20
50.3724
 30
0.00000
  70
    32
  0
VERTEX
  8
0
  5
434
 10
98.2360
 20
50.3966
 30
0.00000
  70
    32
  0
VERTEX
  8
0
  5
435
 10
98.3519
 20
50.4209
 30
0.00000
  70
    32
  0
VERTEX
  8
0
  5
436
 10
98.4678
 20
50.4451
 30
0.00000
  70
    32
  0
VERTEX
  8
0
  5
437
 10
98.5837
 20
50.4694
 30
0.00000
  70
    32
  0
VERTEX
  8
0
  5
438
 10
98.6996
 20
50.4936
 30
0.00000
  70
    32
  0
VERTEX
  8
0
  5
439
 10
98.8155
 20
50.5178
 30
0.00000
  70
    32
  0
VERTEX
  8
0
  5
43A
 10
98.9314
 20
50.5420
 30
0.00000
  70
    32
  0
VERTEX
  8
0
  5
43B
 10
99.0473
 20
50.5662
 30
0.00000
  70
    32
  0
VERTEX
  8
0
  5
43C
 10
99.1632
 20
50.5903
 30
0.00000
  70
    32
  0
VERTEX
  8
0
  5
43D
 10
99.2791
 20
50.6145
 30
0.00000
  70
    32
  0
VERTEX
  8
0
  5
43E
 10
99.3950
 20
50.6386
 30
0.00000
  70
    32
  0
VERTEX
  8
0
  5
43F
 10
99.5109
 20
50.6628
 30
0.00000
  70
    32
  0
VERTEX
  8
0
  5
440
 10
99.6269
 20
50.6869
 30
0.00000
  70
    32
  0
VERTEX
  8
0
  5
441
 10
99.7428
 20
50.7110
 30
0.00000
  70
    32
  0
VERTEX
  8
0
  5
442
 10
99.8587
 20
50.7351
 30
0.00000
  70
    32
  0
VERTEX
  8
0
  5
443
 10
99.7856
 20
50.2964
 30
0.00000
  70
    32
  0
VERTEX
  8
0
  5
444
 10
98.3858
 20
46.6096
 30
0.00000
  70
    32
  0
VERTEX
  8
0
  5
445
 10
96.9860
 20
42.9227
 30
0.00000
  70
    32
  0
VERTEX
  8
0
  5
446
 10
95.5862
 20
39.2358
 30
0.00000
  70
    32
  0
VERTEX
  8
0
  5
447
 10
94.1865
 20
35.5490
 30
0.00000
  70
    32
  0
VERTEX
  8
0
  5
448
 10
92.7867
 20
31.8621
 30
0.00000
  70
    32
  0
VERTEX
  8
0
  5
449
 10
91.3869
 20
28.1752
 30
0.00000
  70
    32
  0
VERTEX
  8
0
  5
44A
 10
89.9871
 20
24.4884
 30
0.00000
  70
    32
  0
VERTEX
  8
0
  5
44B
 10
88.5873
 20
20.8015
 30
0.00000
  70
    32
  0
VERTEX
  8
0
  5
44C
 10
88.0580
 20
19.6295
 30
0.00000
  70
    32
  0
VERTEX
  8
0
  5
44D
 10
87.9411
 20
19.6494
 30
0.00000
  70
    32
  0
VERTEX
  8
0
  5
44E
 10
87.8243
 20
19.6693
 30
0.00000
  70
    32
  0
VERTEX
  8
0
  5
44F
 10
87.7074
 20
19.6891
 30
0.00000
  70
    32
  0
VERTEX
  8
0
  5
450
 10
87.5905
 20
19.7089
 30
0.00000
  70
    32
  0
VERTEX
  8
0
  5
451
 10
87.4737
 20
19.7287
 30
0.00000
  70
    32
  0
VERTEX
  8
0
  5
452
 10
87.3568
 20
19.7485
 30
0.00000
  70
    32
  0
VERTEX
  8
0
  5
453
 10
87.2399
 20
19.7682
 30
0.00000
  70
    32
  0
VERTEX
  8
0
  5
454
 10
87.1231
 20
19.7879
 30
0.00000
  70
    32
  0
VERTEX
  8
0
  5
455
 10
87.0062
 20
19.8075
 30
0.00000
  70
    32
  0
VERTEX
  8
0
  5
456
 10
86.8893
 20
19.8272
 30
0.00000
  70
    32
  0
VERTEX
  8
0
  5
457
 10
86.7724
 20
19.8467
 30
0.00000
  70
    32
  0
VERTEX
  8
0
  5
458
 10
86.6555
 20
19.8663
 30
0.00000
  70
    32
  0
VERTEX
  8
0
  5
459
 10
86.5386
 20
19.8858
 30
0.00000
  70
    32
  0
VERTEX
  8
0
  5
45A
 10
86.4217
 20
19.9052
 30
0.00000
  70
    32
  0
VERTEX
  8
0
  5
45B
 10
86.3048
 20
19.9246
 30
0.00000
  70
    32
  0
VERTEX
  8
0
  5
45C
 10
86.1879
 20
19.9439
 30
0.00000
  70
    32
  0
VERTEX
  8
0
  5
45D
 10
86.0710
 20
19.9632
 30
0.00000
  70
    32
  0
VERTEX
  8
0
  5
45E
 10
85.9541
 20
19.9824
 30
0.00000
  70
    32
  0
VERTEX
  8
0
  5
45F
 10
85.8371
 20
20.0015
 30
0.00000
  70
    32
  0
VERTEX
  8
0
  5
460
 10
85.7202
 20
20.0206
 30
0.00000
  70
    32
  0
VERTEX
  8
0
  5
461
 10
85.6032
 20
20.0396
 30
0.00000
  70
    32
  0
VERTEX
  8
0
  5
462
 10
85.4863
 20
20.0585
 30
0.00000
  70
    32
  0
VERTEX
  8
0
  5
463
 10
85.3693
 20
20.0774
 30
0.00000
  70
    32
  0
VERTEX
  8
0
  5
464
 10
85.2523
 20
20.0962
 30
0.00000
  70
    32
  0
VERTEX
  8
0
  5
465
 10
85.1354
 20
20.1149
 30
0.00000
  70
    32
  0
VERTEX
  8
0
  5
466
 10
85.0184
 20
20.1335
 30
0.00000
  70
    32
  0
VERTEX
  8
0
  5
467
 10
84.9014
 20
20.1521
 30
0.00000
  70
    32
  0
VERTEX
  8
0
  5
468
 10
84.7844
 20
20.1705
 30
0.00000
  70
    32
  0
VERTEX
  8
0
  5
469
 10
84.6674
 20
20.1889
 30
0.00000
  70
    32
  0
VERTEX
  8
0
  5
46A
 10
84.5503
 20
20.2071
 30
0.00000
  70
    32
  0
VERTEX
  8
0
  5
46B
 10
84.4333
 20
20.2253
 30
0.00000
  70
    32
  0
VERTEX
  8
0
  5
46C
 10
84.3162
 20
20.2434
 30
0.00000
  70
    32
  0
VERTEX
  8
0
  5
46D
 10
84.1992
 20
20.2614
 30
0.00000
  70
    32
  0
VERTEX
  8
0
  5
46E
 10
84.0821
 20
20.2792
 30
0.00000
  70
    32
  0
VERTEX
  8
0
  5
46F
 10
83.9650
 20
20.2970
 30
0.00000
  70
    32
  0
VERTEX
  8
0
  5
470
 10
83.8479
 20
20.3147
 30
0.00000
  70
    32
  0
VERTEX
  8
0
  5
471
 10
83.7308
 20
20.3322
 30
0.00000
  70
    32
  0
VERTEX
  8
0
  5
472
 10
83.6137
 20
20.3496
 30
0.00000
  70
    32
  0
VERTEX
  8
0
  5
473
 10
83.4966
 20
20.3669
 30
0.00000
  70
    32
  0
VERTEX
  8
0
  5
474
 10
83.3794
 20
20.3841
 30
0.00000
  70
    32
  0
VERTEX
  8
0
  5
475
 10
83.2623
 20
20.4012
 30
0.00000
  70
    32
  0
VERTEX
  8
0
  5
476
 10
83.1451
 20
20.4181
 30
0.00000
  70
    32
  0
VERTEX
  8
0
  5
477
 10
83.0279
 20
20.4350
 30
0.00000
  70
    32
  0
VERTEX
  8
0
  5
478
 10
82.9107
 20
20.4516
 30
0.00000
  70
    32
  0
VERTEX
  8
0
  5
479
 10
82.7935
 20
20.4682
 30
0.00000
  70
    32
  0
VERTEX
  8
0
  5
47A
 10
82.6763
 20
20.4846
 30
0.00000
  70
    32
  0
VERTEX
  8
0
  5
47B
 10
82.5591
 20
20.5009
 30
0.00000
  70
    32
  0
VERTEX
  8
0
  5
47C
 10
82.4418
 20
20.5170
 30
0.00000
  70
    32
  0
VERTEX
  8
0
  5
47D
 10
82.3245
 20
20.5330
 30
0.00000
  70
    32
  0
VERTEX
  8
0
  5
47E
 10
82.2072
 20
20.5489
 30
0.00000
  70
    32
  0
VERTEX
  8
0
  5
47F
 10
82.0899
 20
20.5646
 30
0.00000
  70
    32
  0
VERTEX
  8
0
  5
480
 10
81.9726
 20
20.5801
 30
0.00000
  70
    32
  0
VERTEX
  8
0
  5
481
 10
81.8553
 20
20.5955
 30
0.00000
  70
    32
  0
VERTEX
  8
0
  5
482
 10
81.7379
 20
20.6107
 30
0.00000
  70
    32
  0
VERTEX
  8
0
  5
483
 10
81.6206
 20
20.6258
 30
0.00000
  70
    32
  0
VERTEX
  8
0
  5
484
 10
81.5032
 20
20.6407
 30
0.00000
  70
    32
  0
VERTEX
  8
0
  5
485
 10
81.3858
 20
20.6554
 30
0.00000
  70
    32
  0
VERTEX
  8
0
  5
486
 10
81.2683
 20
20.6700
 30
0.00000
  70
    32
  0
VERTEX
  8
0
  5
487
 10
81.1509
 20
20.6844
 30
0.00000
  70
    32
  0
VERTEX
  8
0
  5
488
 10
81.0334
 20
20.6986
 30
0.00000
  70
    32
  0
VERTEX
  8
0
  5
489
 10
80.9160
 20
20.7127
 30
0.00000
  70
    32
  0
VERTEX
  8
0
  5
48A
 10
80.7985
 20
20.7266
 30
0.00000
  70
    32
  0
VERTEX
  8
0
  5
48B
 10
80.6810
 20
20.7403
 30
0.00000
  70
    32
  0
VERTEX
  8
0
  5
48C
 10
80.5634
 20
20.7538
 30
0.00000
  70
    32
  0
VERTEX
  8
0
  5
48D
 10
80.4459
 20
20.7671
 30
0.00000
  70
    32
  0
VERTEX
  8
0
  5
48E
 10
80.3283
 20
20.7802
 30
0.00000
  70
    32
  0
VERTEX
  8
0
  5
48F
 10
80.2107
 20
20.7932
 30
0.00000
  70
    32
  0
VERTEX
  8
0
  5
490
 10
80.0931
 20
20.8059
 30
0.00000
  70
    32
  0
VERTEX
  8
0
  5
491
 10
79.9754
 20
20.8185
 30
0.00000
  70
    32
  0
VERTEX
  8
0
  5
492
 10
79.8578
 20
20.8308
 30
0.00000
  70
    32
  0
VERTEX
  8
0
  5
493
 10
79.7401
 20
20.8430
 30
0.00000
  70
    32
  0
VERTEX
  8
0
  5
494
 10
79.6224
 20
20.8549
 30
0.00000
  70
    32
  0
VERTEX
  8
0
  5
495
 10
79.5046
 20
20.8666
 30
0.00000
  70
    32
  0
VERTEX
  8
0
  5
496
 10
79.3869
 20
20.8781
 30
0.00000
  70
    32
  0
VERTEX
  8
0
  5
497
 10
79.2691
 20
20.8895
 30
0.00000
  70
    32
  0
VERTEX
  8
0
  5
498
 10
79.1513
 20
20.9006
 30
0.00000
  70
    32
  0
VERTEX
  8
0
  5
499
 10
79.0335
 20
20.9114
 30
0.00000
  70
    32
  0
VERTEX
  8
0
  5
49A
 10
78.9157
 20
20.9221
 30
0.00000
  70
    32
  0
VERTEX
  8
0
  5
49B
 10
78.7978
 20
20.9326
 30
0.00000
  70
    32
  0
VERTEX
  8
0
  5
49C
 10
78.6799
 20
20.9429
 30
0.00000
  70
    32
  0
VERTEX
  8
0
  5
49D
 10
78.5620
 20
20.9530
 30
0.00000
  70
    32
  0
VERTEX
  8
0
  5
49E
 10
78.4441
 20
20.9628
 30
0.00000
  70
    32
  0
VERTEX
  8
0
  5
49F
 10
78.3262
 20
20.9725
 30
0.00000
  70
    32
  0
VERTEX
  8
0
  5
4A0
 10
78.2082
 20
20.9820
 30
0.00000
  70
    32
  0
VERTEX
  8
0
  5
4A1
 10
78.0902
 20
20.9912
 30
0.00000
  70
    32
  0
VERTEX
  8
0
  5
4A2
 10
77.9722
 20
21.0003
 30
0.00000
  70
    32
  0
VERTEX
  8
0
  5
4A3
 10
77.8542
 20
21.0092
 30
0.00000
  70
    32
  0
VERTEX
  8
0
  5
4A4
 10
77.7362
 20
21.0179
 30
0.00000
  70
    32
  0
VERTEX
  8
0
  5
4A5
 10
77.6181
 20
21.0264
 30
0.00000
  70
    32
  0
VERTEX
  8
0
  5
4A6
 10
77.5001
 20
21.0347
 30
0.00000
  70
    32
  0
VERTEX
  8
0
  5
4A7
 10
77.3820
 20
21.0428
 30
0.00000
  70
    32
  0
VERTEX
  8
0
  5
4A8
 10
77.2639
 20
21.0508
 30
0.00000
  70
    32
  0
VERTEX
  8
0
  5
4A9
 10
77.1458
 20
21.0585
 30
0.00000
  70
    32
  0
VERTEX
  8
0
  5
4AA
 10
77.0276
 20
21.0661
 30
0.00000
  70
    32
  0
VERTEX
  8
0
  5
4AB
 10
76.9095
 20
21.0734
 30
0.00000
  70
    32
  0
VERTEX
  8
0
  5
4AC
 10
76.7913
 20
21.0806
 30
0.00000
  70
    32
  0
VERTEX
  8
0
  5
4AD
 10
76.6731
 20
21.0877
 30
0.00000
  70
    32
  0
VERTEX
  8
0
  5
4AE
 10
76.5549
 20
21.0945
 30
0.00000
  70
    32
  0
VERTEX
  8
0
  5
4AF
 10
76.4367
 20
21.1011
 30
0.00000
  70
    32
  0
VERTEX
  8
0
  5
4B0
 10
76.3185
 20
21.1076
 30
0.00000
  70
    32
  0
VERTEX
  8
0
  5
4B1
 10
76.2002
 20
21.1139
 30
0.00000
  70
    32
  0
VERTEX
  8
0
  5
4B2
 10
76.0820
 20
21.1200
 30
0.00000
  70
    32
  0
VERTEX
  8
0
  5
4B3
 10
75.9637
 20
21.1260
 30
0.00000
  70
    32
  0
VERTEX
  8
0
  5
4B4
 10
75.8454
 20
21.1318
 30
0.00000
  70
    32
  0
VERTEX
  8
0
  5
4B5
 10
75.7271
 20
21.1374
 30
0.00000
  70
    32
  0
VERTEX
  8
0
  5
4B6
 10
75.6088
 20
21.1428
 30
0.00000
  70
    32
  0
VERTEX
  8
0
  5
4B7
 10
75.4905
 20
21.1481
 30
0.00000
  70
    32
  0
VERTEX
  8
0
  5
4B8
 10
75.3722
 20
21.1532
 30
0.00000
  70
    32
  0
VERTEX
  8
0
  5
4B9
 10
75.2538
 20
21.1581
 30
0.00000
  70
    32
  0
VERTEX
  8
0
  5
4BA
 10
75.1355
 20
21.1629
 30
0.00000
  70
    32
  0
VERTEX
  8
0
  5
4BB
 10
75.0171
 20
21.1675
 30
0.00000
  70
    32
  0
VERTEX
  8
0
  5
4BC
 10
74.8987
 20
21.1719
 30
0.00000
  70
    32
  0
VERTEX
  8
0
  5
4BD
 10
74.7803
 20
21.1762
 30
0.00000
  70
    32
  0
VERTEX
  8
0
  5
4BE
 10
74.6619
 20
21.1804
 30
0.00000
  70
    32
  0
VERTEX
  8
0
  5
4BF
 10
74.5435
 20
21.1843
 30
0.00000
  70
    32
  0
VERTEX
  8
0
  5
4C0
 10
74.4251
 20
21.1882
 30
0.00000
  70
    32
  0
VERTEX
  8
0
  5
4C1
 10
74.3067
 20
21.1918
 30
0.00000
  70
    32
  0
VERTEX
  8
0
  5
4C2
 10
74.1883
 20
21.1953
 30
0.00000
  70
    32
  0
VERTEX
  8
0
  5
4C3
 10
74.0698
 20
21.1987
 30
0.00000
  70
    32
  0
VERTEX
  8
0
  5
4C4
 10
73.9514
 20
21.2019
 30
0.00000
  70
    32
  0
VERTEX
  8
0
  5
4C5
 10
73.8329
 20
21.2049
 30
0.00000
  70
    32
  0
VERTEX
  8
0
  5
4C6
 10
73.7144
 20
21.2078
 30
0.00000
  70
    32
  0
VERTEX
  8
0
  5
4C7
 10
73.5960
 20
21.2106
 30
0.00000
  70
    32
  0
VERTEX
  8
0
  5
4C8
 10
73.4775
 20
21.2132
 30
0.00000
  70
    32
  0
VERTEX
  8
0
  5
4C9
 10
73.3590
 20
21.2157
 30
0.00000
  70
    32
  0
VERTEX
  8
0
  5
4CA
 10
73.2405
 20
21.2180
 30
0.00000
  70
    32
  0
VERTEX
  8
0
  5
4CB
 10
73.1220
 20
21.2202
 30
0.00000
  70
    32
  0
VERTEX
  8
0
  5
4CC
 10
73.0035
 20
21.2222
 30
0.00000
  70
    32
  0
VERTEX
  8
0
  5
4CD
 10
72.8850
 20
21.2241
 30
0.00000
  70
    32
  0
VERTEX
  8
0
  5
4CE
 10
72.7665
 20
21.2259
 30
0.00000
  70
    32
  0
VERTEX
  8
0
  5
4CF
 10
72.6480
 20
21.2275
 30
0.00000
  70
    32
  0
VERTEX
  8
0
  5
4D0
 10
72.5294
 20
21.2290
 30
0.00000
  70
    32
  0
VERTEX
  8
0
  5
4D1
 10
72.4109
 20
21.2304
 30
0.00000
  70
    32
  0
VERTEX
  8
0
  5
4D2
 10
72.2924
 20
21.2316
 30
0.00000
  70
    32
  0
VERTEX
  8
0
  5
4D3
 10
72.1739
 20
21.2327
 30
0.00000
  70
    32
  0
VERTEX
  8
0
  5
4D4
 10
72.0553
 20
21.2337
 30
0.00000
  70
    32
  0
VERTEX
  8
0
  5
4D5
 10
71.9368
 20
21.2345
 30
0.00000
  70
    32
  0
VERTEX
  8
0
  5
4D6
 10
71.8182
 20
21.2352
 30
0.00000
  70
    32
  0
VERTEX
  8
0
  5
4D7
 10
71.6997
 20
21.2358
 30
0.00000
  70
    32
  0
VERTEX
  8
0
  5
4D8
 10
71.5812
 20
21.2362
 30
0.00000
  70
    32
  0
VERTEX
  8
0
  5
4D9
 10
71.4626
 20
21.2366
 30
0.00000
  70
    32
  0
VERTEX
  8
0
  5
4DA
 10
71.3441
 20
21.2368
 30
0.00000
  70
    32
  0
VERTEX
  8
0
  5
4DB
 10
71.2255
 20
21.2369
 30
0.00000
  70
    32
  0
VERTEX
  8
0
  5
4DC
 10
71.1070
 20
21.2369
 30
0.00000
  70
    32
  0
VERTEX
  8
0
  5
4DD
 10
70.9884
 20
21.2367
 30
0.00000
  70
    32
  0
VERTEX
  8
0
  5
4DE
 10
70.8699
 20
21.2365
 30
0.00000
  70
    32
  0
VERTEX
  8
0
  5
4DF
 10
70.7513
 20
21.2361
 30
0.00000
  70
    32
  0
VERTEX
  8
0
  5
4E0
 10
70.6328
 20
21.2356
 30
0.00000
  70
    32
  0
VERTEX
  8
0
  5
4E1
 10
70.5142
 20
21.2350
 30
0.00000
  70
    32
  0
VERTEX
  8
0
  5
4E2
 10
70.3957
 20
21.2343
 30
0.00000
  70
    32
  0
VERTEX
  8
0
  5
4E3
 10
70.2772
 20
21.2334
 30
0.00000
  70
    32
  0
VERTEX
  8
0
  5
4E4
 10
70.1586
 20
21.2325
 30
0.00000
  70
    32
  0
VERTEX
  8
0
  5
4E5
 10
70.0401
 20
21.2315
 30
0.00000
  70
    32
  0
VERTEX
  8
0
  5
4E6
 10
69.9215
 20
21.2303
 30
0.00000
  70
    32
  0
VERTEX
  8
0
  5
4E7
 10
69.8030
 20
21.2291
 30
0.00000
  70
    32
  0
VERTEX
  8
0
  5
4E8
 10
69.6845
 20
21.2277
 30
0.00000
  70
    32
  0
VERTEX
  8
0
  5
4E9
 10
69.5660
 20
21.2263
 30
0.00000
  70
    32
  0
VERTEX
  8
0
  5
4EA
 10
69.4474
 20
21.2247
 30
0.00000
  70
    32
  0
VERTEX
  8
0
  5
4EB
 10
69.3289
 20
21.2230
 30
0.00000
  70
    32
  0
VERTEX
  8
0
  5
4EC
 10
69.2104
 20
21.2213
 30
0.00000
  70
    32
  0
VERTEX
  8
0
  5
4ED
 10
69.0919
 20
21.2194
 30
0.00000
  70
    32
  0
VERTEX
  8
0
  5
4EE
 10
68.9734
 20
21.2174
 30
0.00000
  70
    32
  0
VERTEX
  8
0
  5
4EF
 10
68.8549
 20
21.2154
 30
0.00000
  70
    32
  0
VERTEX
  8
0
  5
4F0
 10
68.7364
 20
21.2132
 30
0.00000
  70
    32
  0
VERTEX
  8
0
  5
4F1
 10
68.6179
 20
21.2109
 30
0.00000
  70
    32
  0
VERTEX
  8
0
  5
4F2
 10
68.4994
 20
21.2086
 30
0.00000
  70
    32
  0
VERTEX
  8
0
  5
4F3
 10
68.3810
 20
21.2061
 30
0.00000
  70
    32
  0
VERTEX
  8
0
  5
4F4
 10
68.2625
 20
21.2035
 30
0.00000
  70
    32
  0
VERTEX
  8
0
  5
4F5
 10
68.1440
 20
21.2008
 30
0.00000
  70
    32
  0
VERTEX
  8
0
  5
4F6
 10
68.0255
 20
21.1981
 30
0.00000
  70
    32
  0
VERTEX
  8
0
  5
4F7
 10
67.9071
 20
21.1952
 30
0.00000
  70
    32
  0
VERTEX
  8
0
  5
4F8
 10
67.7886
 20
21.1922
 30
0.00000
  70
    32
  0
VERTEX
  8
0
  5
4F9
 10
67.6702
 20
21.1891
 30
0.00000
  70
    32
  0
VERTEX
  8
0
  5
4FA
 10
67.5517
 20
21.1859
 30
0.00000
  70
    32
  0
VERTEX
  8
0
  5
4FB
 10
67.4333
 20
21.1826
 30
0.00000
  70
    32
  0
VERTEX
  8
0
  5
4FC
 10
67.3148
 20
21.1793
 30
0.00000
  70
    32
  0
VERTEX
  8
0
  5
4FD
 10
67.1964
 20
21.1758
 30
0.00000
  70
    32
  0
VERTEX
  8
0
  5
4FE
 10
67.0780
 20
21.1722
 30
0.00000
  70
    32
  0
VERTEX
  8
0
  5
4FF
 10
66.9596
 20
21.1685
 30
0.00000
  70
    32
  0
VERTEX
  8
0
  5
500
 10
66.8412
 20
21.1647
 30
0.00000
  70
    32
  0
VERTEX
  8
0
  5
501
 10
66.7227
 20
21.1608
 30
0.00000
  70
    32
  0
VERTEX
  8
0
  5
502
 10
66.6043
 20
21.1567
 30
0.00000
  70
    32
  0
VERTEX
  8
0
  5
503
 10
66.4859
 20
21.1526
 30
0.00000
  70
    32
  0
VERTEX
  8
0
  5
504
 10
66.3676
 20
21.1484
 30
0.00000
  70
    32
  0
VERTEX
  8
0
  5
505
 10
66.2492
 20
21.1441
 30
0.00000
  70
    32
  0
VERTEX
  8
0
  5
506
 10
66.1308
 20
21.1397
 30
0.00000
  70
    32
  0
VERTEX
  8
0
  5
507
 10
66.0124
 20
21.1352
 30
0.00000
  70
    32
  0
VERTEX
  8
0
  5
508
 10
65.8940
 20
21.1305
 30
0.00000
  70
    32
  0
VERTEX
  8
0
  5
509
 10
65.7757
 20
21.1258
 30
0.00000
  70
    32
  0
VERTEX
  8
0
  5
50A
 10
65.6573
 20
21.1210
 30
0.00000
  70
    32
  0
VERTEX
  8
0
  5
50B
 10
65.5390
 20
21.1160
 30
0.00000
  70
    32
  0
VERTEX
  8
0
  5
50C
 10
65.4206
 20
21.1110
 30
0.00000
  70
    32
  0
VERTEX
  8
0
  5
50D
 10
65.3023
 20
21.1058
 30
0.00000
  70
    32
  0
VERTEX
  8
0
  5
50E
 10
65.1839
 20
21.1006
 30
0.00000
  70
    32
  0
VERTEX
  8
0
  5
50F
 10
65.0656
 20
21.0952
 30
0.00000
  70
    32
  0
VERTEX
  8
0
  5
510
 10
64.9473
 20
21.0898
 30
0.00000
  70
    32
  0
VERTEX
  8
0
  5
511
 10
64.8290
 20
21.0842
 30
0.00000
  70
    32
  0
VERTEX
  8
0
  5
512
 10
64.7107
 20
21.0785
 30
0.00000
  70
    32
  0
VERTEX
  8
0
  5
513
 10
64.5924
 20
21.0728
 30
0.00000
  70
    32
  0
VERTEX
  8
0
  5
514
 10
64.4741
 20
21.0669
 30
0.00000
  70
    32
  0
VERTEX
  8
0
  5
515
 10
64.3558
 20
21.0609
 30
0.00000
  70
    32
  0
VERTEX
  8
0
  5
516
 10
64.2375
 20
21.0548
 30
0.00000
  70
    32
  0
VERTEX
  8
0
  5
517
 10
64.1193
 20
21.0486
 30
0.00000
  70
    32
  0
VERTEX
  8
0
  5
518
 10
64.0010
 20
21.0423
 30
0.00000
  70
    32
  0
VERTEX
  8
0
  5
519
 10
63.8827
 20
21.0360
 30
0.00000
  70
    32
  0
VERTEX
  8
0
  5
51A
 10
63.7645
 20
21.0294
 30
0.00000
  70
    32
  0
VERTEX
  8
0
  5
51B
 10
63.6462
 20
21.0228
 30
0.00000
  70
    32
  0
VERTEX
  8
0
  5
51C
 10
63.5280
 20
21.0161
 30
0.00000
  70
    32
  0
VERTEX
  8
0
  5
51D
 10
63.4098
 20
21.0093
 30
0.00000
  70
    32
  0
VERTEX
  8
0
  5
51E
 10
63.2915
 20
21.0024
 30
0.00000
  70
    32
  0
VERTEX
  8
0
  5
51F
 10
63.1733
 20
20.9954
 30
0.00000
  70
    32
  0
VERTEX
  8
0
  5
520
 10
63.0551
 20
20.9882
 30
0.00000
  70
    32
  0
VERTEX
  8
0
  5
521
 10
62.9369
 20
20.9810
 30
0.00000
  70
    32
  0
VERTEX
  8
0
  5
522
 10
62.8187
 20
20.9737
 30
0.00000
  70
    32
  0
VERTEX
  8
0
  5
523
 10
62.7005
 20
20.9662
 30
0.00000
  70
    32
  0
VERTEX
  8
0
  5
524
 10
62.5824
 20
20.9587
 30
0.00000
  70
    32
  0
VERTEX
  8
0
  5
525
 10
62.4642
 20
20.9510
 30
0.00000
  70
    32
  0
VERTEX
  8
0
  5
526
 10
62.3460
 20
20.9432
 30
0.00000
  70
    32
  0
VERTEX
  8
0
  5
527
 10
62.2279
 20
20.9354
 30
0.00000
  70
    32
  0
VERTEX
  8
0
  5
528
 10
62.1097
 20
20.9274
 30
0.00000
  70
    32
  0
VERTEX
  8
0
  5
529
 10
61.9916
 20
20.9193
 30
0.00000
  70
    32
  0
VERTEX
  8
0
  5
52A
 10
61.8735
 20
20.9111
 30
0.00000
  70
    32
  0
VERTEX
  8
0
  5
52B
 10
61.7553
 20
20.9028
 30
0.00000
  70
    32
  0
VERTEX
  8
0
  5
52C
 10
61.6372
 20
20.8944
 30
0.00000
  70
    32
  0
VERTEX
  8
0
  5
52D
 10
61.5191
 20
20.8859
 30
0.00000
  70
    32
  0
VERTEX
  8
0
  5
52E
 10
61.4010
 20
20.8773
 30
0.00000
  70
    32
  0
VERTEX
  8
0
  5
52F
 10
61.2829
 20
20.8686
 30
0.00000
  70
    32
  0
VERTEX
  8
0
  5
530
 10
61.1649
 20
20.8597
 30
0.00000
  70
    32
  0
VERTEX
  8
0
  5
531
 10
61.0468
 20
20.8508
 30
0.00000
  70
    32
  0
VERTEX
  8
0
  5
532
 10
60.9287
 20
20.8418
 30
0.00000
  70
    32
  0
VERTEX
  8
0
  5
533
 10
60.8107
 20
20.8326
 30
0.00000
  70
    32
  0
VERTEX
  8
0
  5
534
 10
60.6926
 20
20.8234
 30
0.00000
  70
    32
  0
VERTEX
  8
0
  5
535
 10
60.5746
 20
20.8140
 30
0.00000
  70
    32
  0
VERTEX
  8
0
  5
536
 10
60.4566
 20
20.8046
 30
0.00000
  70
    32
  0
VERTEX
  8
0
  5
537
 10
60.3385
 20
20.7950
 30
0.00000
  70
    32
  0
VERTEX
  8
0
  5
538
 10
60.2205
 20
20.7853
 30
0.00000
  70
    32
  0
VERTEX
  8
0
  5
539
 10
60.1025
 20
20.7755
 30
0.00000
  70
    32
  0
VERTEX
  8
0
  5
53A
 10
59.9845
 20
20.7656
 30
0.00000
  70
    32
  0
VERTEX
  8
0
  5
53B
 10
59.8665
 20
20.7556
 30
0.00000
  70
    32
  0
VERTEX
  8
0
  5
53C
 10
59.7486
 20
20.7455
 30
0.00000
  70
    32
  0
VERTEX
  8
0
  5
53D
 10
59.6306
 20
20.7353
 30
0.00000
  70
    32
  0
VERTEX
  8
0
  5
53E
 10
59.5127
 20
20.7250
 30
0.00000
  70
    32
  0
VERTEX
  8
0
  5
53F
 10
59.3947
 20
20.7145
 30
0.00000
  70
    32
  0
VERTEX
  8
0
  5
540
 10
59.2768
 20
20.7040
 30
0.00000
  70
    32
  0
VERTEX
  8
0
  5
541
 10
59.1588
 20
20.6934
 30
0.00000
  70
    32
  0
VERTEX
  8
0
  5
542
 10
59.0409
 20
20.6826
 30
0.00000
  70
    32
  0
VERTEX
  8
0
  5
543
 10
58.9230
 20
20.6717
 30
0.00000
  70
    32
  0
VERTEX
  8
0
  5
544
 10
58.8051
 20
20.6608
 30
0.00000
  70
    32
  0
VERTEX
  8
0
  5
545
 10
58.6872
 20
20.6497
 30
0.00000
  70
    32
  0
VERTEX
  8
0
  5
546
 10
58.5694
 20
20.6385
 30
0.00000
  70
    32
  0
VERTEX
  8
0
  5
547
 10
58.4515
 20
20.6272
 30
0.00000
  70
    32
  0
VERTEX
  8
0
  5
548
 10
58.3336
 20
20.6158
 30
0.00000
  70
    32
  0
VERTEX
  8
0
  5
549
 10
58.2158
 20
20.6043
 30
0.00000
  70
    32
  0
VERTEX
  8
0
  5
54A
 10
58.0980
 20
20.5927
 30
0.00000
  70
    32
  0
VERTEX
  8
0
  5
54B
 10
57.9801
 20
20.5810
 30
0.00000
  70
    32
  0
VERTEX
  8
0
  5
54C
 10
57.8623
 20
20.5691
 30
0.00000
  70
    32
  0
VERTEX
  8
0
  5
54D
 10
57.7445
 20
20.5572
 30
0.00000
  70
    32
  0
VERTEX
  8
0
  5
54E
 10
57.6267
 20
20.5451
 30
0.00000
  70
    32
  0
VERTEX
  8
0
  5
54F
 10
57.5089
 20
20.5330
 30
0.00000
  70
    32
  0
VERTEX
  8
0
  5
550
 10
57.3911
 20
20.5207
 30
0.00000
  70
    32
  0
VERTEX
  8
0
  5
551
 10
57.2734
 20
20.5083
 30
0.00000
  70
    32
  0
VERTEX
  8
0
  5
552
 10
57.1556
 20
20.4958
 30
0.00000
  70
    32
  0
VERTEX
  8
0
  5
553
 10
57.0379
 20
20.4832
 30
0.00000
  70
    32
  0
VERTEX
  8
0
  5
554
 10
56.9202
 20
20.4705
 30
0.00000
  70
    32
  0
VERTEX
  8
0
  5
555
 10
56.8024
 20
20.4577
 30
0.00000
  70
    32
  0
VERTEX
  8
0
  5
556
 10
56.6847
 20
20.4448
 30
0.00000
  70
    32
  0
VERTEX
  8
0
  5
557
 10
56.5670
 20
20.4318
 30
0.00000
  70
    32
  0
VERTEX
  8
0
  5
558
 10
56.4493
 20
20.4186
 30
0.00000
  70
    32
  0
VERTEX
  8
0
  5
559
 10
56.3317
 20
20.4054
 30
0.00000
  70
    32
  0
VERTEX
  8
0
  5
55A
 10
56.2140
 20
20.3920
 30
0.00000
  70
    32
  0
VERTEX
  8
0
  5
55B
 10
56.0963
 20
20.3785
 30
0.00000
  70
    32
  0
VERTEX
  8
0
  5
55C
 10
55.9787
 20
20.3650
 30
0.00000
  70
    32
  0
VERTEX
  8
0
  5
55D
 10
55.8611
 20
20.3513
 30
0.00000
  70
    32
  0
VERTEX
  8
0
  5
55E
 10
55.7434
 20
20.3375
 30
0.00000
  70
    32
  0
VERTEX
  8
0
  5
55F
 10
55.6258
 20
20.3236
 30
0.00000
  70
    32
  0
VERTEX
  8
0
  5
560
 10
55.5082
 20
20.3096
 30
0.00000
  70
    32
  0
VERTEX
  8
0
  5
561
 10
55.3906
 20
20.2954
 30
0.00000
  70
    32
  0
VERTEX
  8
0
  5
562
 10
55.2731
 20
20.2812
 30
0.00000
  70
    32
  0
VERTEX
  8
0
  5
563
 10
55.1555
 20
20.2669
 30
0.00000
  70
    32
  0
VERTEX
  8
0
  5
564
 10
55.0380
 20
20.2524
 30
0.00000
  70
    32
  0
VERTEX
  8
0
  5
565
 10
54.9204
 20
20.2379
 30
0.00000
  70
    32
  0
VERTEX
  8
0
  5
566
 10
54.8029
 20
20.2232
 30
0.00000
  70
    32
  0
VERTEX
  8
0
  5
567
 10
54.6854
 20
20.2085
 30
0.00000
  70
    32
  0
VERTEX
  8
0
  5
568
 10
54.5679
 20
20.1936
 30
0.00000
  70
    32
  0
VERTEX
  8
0
  5
569
 10
54.4504
 20
20.1786
 30
0.00000
  70
    32
  0
VERTEX
  8
0
  5
56A
 10
54.3329
 20
20.1635
 30
0.00000
  70
    32
  0
VERTEX
  8
0
  5
56B
 10
54.2155
 20
20.1483
 30
0.00000
  70
    32
  0
VERTEX
  8
0
  5
56C
 10
54.0980
 20
20.1330
 30
0.00000
  70
    32
  0
VERTEX
  8
0
  5
56D
 10
53.9806
 20
20.1176
 30
0.00000
  70
    32
  0
VERTEX
  8
0
  5
56E
 10
53.8632
 20
20.1021
 30
0.00000
  70
    32
  0
VERTEX
  8
0
  5
56F
 10
53.7458
 20
20.0865
 30
0.00000
  70
    32
  0
VERTEX
  8
0
  5
570
 10
53.6284
 20
20.0708
 30
0.00000
  70
    32
  0
VERTEX
  8
0
  5
571
 10
53.5110
 20
20.0549
 30
0.00000
  70
    32
  0
VERTEX
  8
0
  5
572
 10
53.3936
 20
20.0390
 30
0.00000
  70
    32
  0
VERTEX
  8
0
  5
573
 10
53.2763
 20
20.0229
 30
0.00000
  70
    32
  0
VERTEX
  8
0
  5
574
 10
53.1589
 20
20.0068
 30
0.00000
  70
    32
  0
VERTEX
  8
0
  5
575
 10
53.0416
 20
19.9905
 30
0.00000
  70
    32
  0
VERTEX
  8
0
  5
576
 10
52.9243
 20
19.9742
 30
0.00000
  70
    32
  0
VERTEX
  8
0
  5
577
 10
52.8070
 20
19.9577
 30
0.00000
  70
    32
  0
VERTEX
  8
0
  5
578
 10
52.6897
 20
19.9411
 30
0.00000
  70
    32
  0
VERTEX
  8
0
  5
579
 10
52.5724
 20
19.9244
 30
0.00000
  70
    32
  0
VERTEX
  8
0
  5
57A
 10
52.4551
 20
19.9077
 30
0.00000
  70
    32
  0
VERTEX
  8
0
  5
57B
 10
52.3379
 20
19.8908
 30
0.00000
  70
    32
  0
VERTEX
  8
0
  5
57C
 10
52.2207
 20
19.8738
 30
0.00000
  70
    32
  0
VERTEX
  8
0
  5
57D
 10
52.1035
 20
19.8567
 30
0.00000
  70
    32
  0
VERTEX
  8
0
  5
57E
 10
51.9863
 20
19.8395
 30
0.00000
  70
    32
  0
VERTEX
  8
0
  5
57F
 10
51.8691
 20
19.8221
 30
0.00000
  70
    32
  0
VERTEX
  8
0
  5
580
 10
51.7519
 20
19.8047
 30
0.00000
  70
    32
  0
VERTEX
  8
0
  5
581
 10
51.6347
 20
19.7872
 30
0.00000
  70
    32
  0
VERTEX
  8
0
  5
582
 10
51.5176
 20
19.7696
 30
0.00000
  70
    32
  0
VERTEX
  8
0
  5
583
 10
51.3769
 20
19.8567
 30
0.00000
  70
    32
  0
VERTEX
  8
0
  5
584
 10
51.0678
 20
20.6929
 30
0.00000
  70
    32
  0
VERTEX
  8
0
  5
585
 10
50.7587
 20
21.5292
 30
0.00000
  70
    32
  0
VERTEX
  8
0
  5
586
 10
50.4496
 20
22.3654
 30
0.00000
  70
    32
  0
VERTEX
  8
0
  5
587
 10
50.1405
 20
23.2016
 30
0.00000
  70
    32
  0
VERTEX
  8
0
  5
588
 10
49.8313
 20
24.0379
 30
0.00000
  70
    32
  0
VERTEX
  8
0
  5
589
 10
49.5222
 20
24.8741
 30
0.00000
  70
    32
  0
VERTEX
  8
0
  5
58A
 10
49.2131
 20
25.7103
 30
0.00000
  70
    32
  0
VERTEX
  8
0
  5
58B
 10
48.9040
 20
26.5466
 30
0.00000
  70
    32
  0
VERTEX
  8
0
  5
58C
 10
48.7793
 20
26.8932
 30
0.00000
  70
    32
  0
VERTEX
  8
0
  5
58D
 10
48.7541
 20
27.0089
 30
0.00000
  70
    32
  0
VERTEX
  8
0
  5
58E
 10
48.7103
 20
27.4701
 30
0.00000
  70
    32
  0
VERTEX
  8
0
  5
58F
 10
48.6301
 20
28.3581
 30
0.00000
  70
    32
  0
VERTEX
  8
0
  5
590
 10
48.5500
 20
29.2460
 30
0.00000
  70
    32
  0
VERTEX
  8
0
  5
591
 10
48.4699
 20
30.1339
 30
0.00000
  70
    32
  0
VERTEX
  8
0
  5
592
 10
48.3897
 20
31.0218
 30
0.00000
  70
    32
  0
VERTEX
  8
0
  5
593
 10
48.3096
 20
31.9098
 30
0.00000
  70
    32
  0
VERTEX
  8
0
  5
594
 10
48.2294
 20
32.7977
 30
0.00000
  70
    32
  0
VERTEX
  8
0
  5
595
 10
48.1493
 20
33.6856
 30
0.00000
  70
    32
  0
VERTEX
  8
0
  5
596
 10
48.0692
 20
34.5736
 30
0.00000
  70
    32
  0
SEQEND
  8
0
  5
597
  0
CIRCLE
  5
1F7
  8
DRILLING
 10
91.3478256130149333
 20
33.0026295094538398
 30
0.0
 40
0.3225
  0
CIRCLE
  5
1F8
  8
DRILLING
 10
93.477499733338604
 20
38.6119510496424425
 30
0.0
 40
0.3225
  0
INSERT
  5
1F9
  8
0
  2
*U4
 10
0.0
 20
0.0
 30
0.0
  0
CIRCLE
  5
1FA
  8
DRILLING
 10
52.5826469134308212
 20
28.1285389120551805
 30
0.0
 40
0.3224999999999999
  0
CIRCLE
  5
1FB
  8
DRILLING
 10
58.2639362804088634
 20
30.0580339570507
 30
0.0
 40
0.3224999999999999
  0
POLYLINE
  8
0
  5
598
  66
     1
 10
0.00000
 20
0.00000
 30
0.00000
  70
     8
  0
VERTEX
  8
0
  5
599
 10
23.4402
 20
50.2282
 30
0.00000
  70
    32
  0
VERTEX
  8
0
  5
59A
 10
23.5230
 20
50.1436
 30
0.00000
  70
    32
  0
VERTEX
  8
0
  5
59B
 10
23.6058
 20
50.0589
 30
0.00000
  70
    32
  0
VERTEX
  8
0
  5
59C
 10
23.6885
 20
49.9741
 30
0.00000
  70
    32
  0
VERTEX
  8
0
  5
59D
 10
23.7712
 20
49.8893
 30
0.00000
  70
    32
  0
VERTEX
  8
0
  5
59E
 10
23.8538
 20
49.8045
 30
0.00000
  70
    32
  0
VERTEX
  8
0
  5
59F
 10
23.9364
 20
49.7196
 30
0.00000
  70
    32
  0
VERTEX
  8
0
  5
5A0
 10
24.0190
 20
49.6347
 30
0.00000
  70
    32
  0
VERTEX
  8
0
  5
5A1
 10
24.1015
 20
49.5498
 30
0.00000
  70
    32
  0
VERTEX
  8
0
  5
5A2
 10
24.1839
 20
49.4648
 30
0.00000
  70
    32
  0
VERTEX
  8
0
  5
5A3
 10
24.2664
 20
49.3797
 30
0.00000
  70
    32
  0
VERTEX
  8
0
  5
5A4
 10
24.3488
 20
49.2947
 30
0.00000
  70
    32
  0
VERTEX
  8
0
  5
5A5
 10
24.4311
 20
49.2096
 30
0.00000
  70
    32
  0
VERTEX
  8
0
  5
5A6
 10
24.5134
 20
49.1244
 30
0.00000
  70
    32
  0
VERTEX
  8
0
  5
5A7
 10
24.5957
 20
49.0392
 30
0.00000
  70
    32
  0
VERTEX
  8
0
  5
5A8
 10
24.6779
 20
48.9540
 30
0.00000
  70
    32
  0
VERTEX
  8
0
  5
5A9
 10
24.7601
 20
48.8687
 30
0.00000
  70
    32
  0
VERTEX
  8
0
  5
5AA
 10
24.8422
 20
48.7834
 30
0.00000
  70
    32
  0
VERTEX
  8
0
  5
5AB
 10
24.9243
 20
48.6981
 30
0.00000
  70
    32
  0
VERTEX
  8
0
  5
5AC
 10
25.0064
 20
48.6127
 30
0.00000
  70
    32
  0
VERTEX
  8
0
  5
5AD
 10
25.0884
 20
48.5272
 30
0.00000
  70
    32
  0
VERTEX
  8
0
  5
5AE
 10
25.1704
 20
48.4418
 30
0.00000
  70
    32
  0
VERTEX
  8
0
  5
5AF
 10
25.2523
 20
48.3562
 30
0.00000
  70
    32
  0
VERTEX
  8
0
  5
5B0
 10
25.3342
 20
48.2707
 30
0.00000
  70
    32
  0
VERTEX
  8
0
  5
5B1
 10
25.4160
 20
48.1851
 30
0.00000
  70
    32
  0
VERTEX
  8
0
  5
5B2
 10
25.4978
 20
48.0995
 30
0.00000
  70
    32
  0
VERTEX
  8
0
  5
5B3
 10
25.5796
 20
48.0138
 30
0.00000
  70
    32
  0
VERTEX
  8
0
  5
5B4
 10
25.6613
 20
47.9281
 30
0.00000
  70
    32
  0
VERTEX
  8
0
  5
5B5
 10
25.7430
 20
47.8423
 30
0.00000
  70
    32
  0
VERTEX
  8
0
  5
5B6
 10
25.8247
 20
47.7565
 30
0.00000
  70
    32
  0
VERTEX
  8
0
  5
5B7
 10
25.9062
 20
47.6707
 30
0.00000
  70
    32
  0
VERTEX
  8
0
  5
5B8
 10
25.9878
 20
47.5848
 30
0.00000
  70
    32
  0
VERTEX
  8
0
  5
5B9
 10
26.0693
 20
47.4989
 30
0.00000
  70
    32
  0
VERTEX
  8
0
  5
5BA
 10
26.1508
 20
47.4129
 30
0.00000
  70
    32
  0
VERTEX
  8
0
  5
5BB
 10
26.2322
 20
47.3270
 30
0.00000
  70
    32
  0
VERTEX
  8
0
  5
5BC
 10
26.3136
 20
47.2409
 30
0.00000
  70
    32
  0
VERTEX
  8
0
  5
5BD
 10
26.3949
 20
47.1548
 30
0.00000
  70
    32
  0
VERTEX
  8
0
  5
5BE
 10
26.4762
 20
47.0687
 30
0.00000
  70
    32
  0
VERTEX
  8
0
  5
5BF
 10
26.5575
 20
46.9826
 30
0.00000
  70
    32
  0
VERTEX
  8
0
  5
5C0
 10
26.6387
 20
46.8964
 30
0.00000
  70
    32
  0
VERTEX
  8
0
  5
5C1
 10
26.7199
 20
46.8101
 30
0.00000
  70
    32
  0
VERTEX
  8
0
  5
5C2
 10
26.8010
 20
46.7239
 30
0.00000
  70
    32
  0
VERTEX
  8
0
  5
5C3
 10
26.8821
 20
46.6376
 30
0.00000
  70
    32
  0
VERTEX
  8
0
  5
5C4
 10
26.9631
 20
46.5512
 30
0.00000
  70
    32
  0
VERTEX
  8
0
  5
5C5
 10
27.0441
 20
46.4648
 30
0.00000
  70
    32
  0
VERTEX
  8
0
  5
5C6
 10
27.1251
 20
46.3784
 30
0.00000
  70
    32
  0
VERTEX
  8
0
  5
5C7
 10
27.2060
 20
46.2919
 30
0.00000
  70
    32
  0
VERTEX
  8
0
  5
5C8
 10
27.2869
 20
46.2054
 30
0.00000
  70
    32
  0
VERTEX
  8
0
  5
5C9
 10
27.3677
 20
46.1188
 30
0.00000
  70
    32
  0
VERTEX
  8
0
  5
5CA
 10
27.4485
 20
46.0322
 30
0.00000
  70
    32
  0
VERTEX
  8
0
  5
5CB
 10
27.5293
 20
45.9456
 30
0.00000
  70
    32
  0
VERTEX
  8
0
  5
5CC
 10
27.6100
 20
45.8589
 30
0.00000
  70
    32
  0
VERTEX
  8
0
  5
5CD
 10
27.6906
 20
45.7722
 30
0.00000
  70
    32
  0
VERTEX
  8
0
  5
5CE
 10
27.7713
 20
45.6855
 30
0.00000
  70
    32
  0
VERTEX
  8
0
  5
5CF
 10
27.8518
 20
45.5987
 30
0.00000
  70
    32
  0
VERTEX
  8
0
  5
5D0
 10
27.9324
 20
45.5119
 30
0.00000
  70
    32
  0
VERTEX
  8
0
  5
5D1
 10
28.0129
 20
45.4250
 30
0.00000
  70
    32
  0
VERTEX
  8
0
  5
5D2
 10
28.0933
 20
45.3381
 30
0.00000
  70
    32
  0
VERTEX
  8
0
  5
5D3
 10
28.1737
 20
45.2511
 30
0.00000
  70
    32
  0
VERTEX
  8
0
  5
5D4
 10
28.2541
 20
45.1641
 30
0.00000
  70
    32
  0
VERTEX
  8
0
  5
5D5
 10
28.3344
 20
45.0771
 30
0.00000
  70
    32
  0
VERTEX
  8
0
  5
5D6
 10
28.4147
 20
44.9900
 30
0.00000
  70
    32
  0
VERTEX
  8
0
  5
5D7
 10
28.4949
 20
44.9029
 30
0.00000
  70
    32
  0
VERTEX
  8
0
  5
5D8
 10
28.5751
 20
44.8158
 30
0.00000
  70
    32
  0
VERTEX
  8
0
  5
5D9
 10
28.6553
 20
44.7286
 30
0.00000
  70
    32
  0
VERTEX
  8
0
  5
5DA
 10
28.7354
 20
44.6414
 30
0.00000
  70
    32
  0
VERTEX
  8
0
  5
5DB
 10
28.8154
 20
44.5541
 30
0.00000
  70
    32
  0
VERTEX
  8
0
  5
5DC
 10
28.8955
 20
44.4668
 30
0.00000
  70
    32
  0
VERTEX
  8
0
  5
5DD
 10
28.9754
 20
44.3795
 30
0.00000
  70
    32
  0
VERTEX
  8
0
  5
5DE
 10
29.0554
 20
44.2921
 30
0.00000
  70
    32
  0
VERTEX
  8
0
  5
5DF
 10
29.1353
 20
44.2047
 30
0.00000
  70
    32
  0
VERTEX
  8
0
  5
5E0
 10
29.2151
 20
44.1172
 30
0.00000
  70
    32
  0
VERTEX
  8
0
  5
5E1
 10
29.2949
 20
44.0297
 30
0.00000
  70
    32
  0
VERTEX
  8
0
  5
5E2
 10
29.3747
 20
43.9422
 30
0.00000
  70
    32
  0
VERTEX
  8
0
  5
5E3
 10
29.4544
 20
43.8546
 30
0.00000
  70
    32
  0
VERTEX
  8
0
  5
5E4
 10
29.5341
 20
43.7670
 30
0.00000
  70
    32
  0
VERTEX
  8
0
  5
5E5
 10
29.6137
 20
43.6793
 30
0.00000
  70
    32
  0
VERTEX
  8
0
  5
5E6
 10
29.6933
 20
43.5916
 30
0.00000
  70
    32
  0
VERTEX
  8
0
  5
5E7
 10
29.7729
 20
43.5039
 30
0.00000
  70
    32
  0
VERTEX
  8
0
  5
5E8
 10
29.8524
 20
43.4161
 30
0.00000
  70
    32
  0
VERTEX
  8
0
  5
5E9
 10
29.9319
 20
43.3283
 30
0.00000
  70
    32
  0
VERTEX
  8
0
  5
5EA
 10
30.0113
 20
43.2405
 30
0.00000
  70
    32
  0
VERTEX
  8
0
  5
5EB
 10
30.0907
 20
43.1526
 30
0.00000
  70
    32
  0
VERTEX
  8
0
  5
5EC
 10
30.1700
 20
43.0647
 30
0.00000
  70
    32
  0
VERTEX
  8
0
  5
5ED
 10
30.2493
 20
42.9767
 30
0.00000
  70
    32
  0
VERTEX
  8
0
  5
5EE
 10
30.3286
 20
42.8887
 30
0.00000
  70
    32
  0
VERTEX
  8
0
  5
5EF
 10
30.4078
 20
42.8007
 30
0.00000
  70
    32
  0
VERTEX
  8
0
  5
5F0
 10
30.4870
 20
42.7126
 30
0.00000
  70
    32
  0
VERTEX
  8
0
  5
5F1
 10
30.5661
 20
42.6245
 30
0.00000
  70
    32
  0
VERTEX
  8
0
  5
5F2
 10
30.6452
 20
42.5363
 30
0.00000
  70
    32
  0
VERTEX
  8
0
  5
5F3
 10
30.7242
 20
42.4481
 30
0.00000
  70
    32
  0
VERTEX
  8
0
  5
5F4
 10
30.8032
 20
42.3599
 30
0.00000
  70
    32
  0
VERTEX
  8
0
  5
5F5
 10
30.8822
 20
42.2716
 30
0.00000
  70
    32
  0
VERTEX
  8
0
  5
5F6
 10
30.9611
 20
42.1833
 30
0.00000
  70
    32
  0
VERTEX
  8
0
  5
5F7
 10
31.0399
 20
42.0949
 30
0.00000
  70
    32
  0
VERTEX
  8
0
  5
5F8
 10
31.1188
 20
42.0066
 30
0.00000
  70
    32
  0
VERTEX
  8
0
  5
5F9
 10
31.1976
 20
41.9181
 30
0.00000
  70
    32
  0
VERTEX
  8
0
  5
5FA
 10
31.2763
 20
41.8297
 30
0.00000
  70
    32
  0
VERTEX
  8
0
  5
5FB
 10
31.3550
 20
41.7412
 30
0.00000
  70
    32
  0
VERTEX
  8
0
  5
5FC
 10
31.4337
 20
41.6526
 30
0.00000
  70
    32
  0
VERTEX
  8
0
  5
5FD
 10
31.5123
 20
41.5641
 30
0.00000
  70
    32
  0
VERTEX
  8
0
  5
5FE
 10
31.5908
 20
41.4754
 30
0.00000
  70
    32
  0
VERTEX
  8
0
  5
5FF
 10
31.6694
 20
41.3868
 30
0.00000
  70
    32
  0
VERTEX
  8
0
  5
600
 10
31.7479
 20
41.2981
 30
0.00000
  70
    32
  0
VERTEX
  8
0
  5
601
 10
31.8263
 20
41.2094
 30
0.00000
  70
    32
  0
VERTEX
  8
0
  5
602
 10
31.9047
 20
41.1206
 30
0.00000
  70
    32
  0
VERTEX
  8
0
  5
603
 10
31.9831
 20
41.0318
 30
0.00000
  70
    32
  0
VERTEX
  8
0
  5
604
 10
32.0614
 20
40.9430
 30
0.00000
  70
    32
  0
VERTEX
  8
0
  5
605
 10
32.1397
 20
40.8541
 30
0.00000
  70
    32
  0
VERTEX
  8
0
  5
606
 10
32.2179
 20
40.7652
 30
0.00000
  70
    32
  0
VERTEX
  8
0
  5
607
 10
32.2961
 20
40.6762
 30
0.00000
  70
    32
  0
VERTEX
  8
0
  5
608
 10
32.3742
 20
40.5872
 30
0.00000
  70
    32
  0
VERTEX
  8
0
  5
609
 10
32.4523
 20
40.4982
 30
0.00000
  70
    32
  0
VERTEX
  8
0
  5
60A
 10
32.5304
 20
40.4091
 30
0.00000
  70
    32
  0
VERTEX
  8
0
  5
60B
 10
32.6084
 20
40.3200
 30
0.00000
  70
    32
  0
VERTEX
  8
0
  5
60C
 10
32.6864
 20
40.2309
 30
0.00000
  70
    32
  0
VERTEX
  8
0
  5
60D
 10
32.7643
 20
40.1417
 30
0.00000
  70
    32
  0
VERTEX
  8
0
  5
60E
 10
32.8422
 20
40.0525
 30
0.00000
  70
    32
  0
VERTEX
  8
0
  5
60F
 10
32.9200
 20
39.9632
 30
0.00000
  70
    32
  0
VERTEX
  8
0
  5
610
 10
32.9978
 20
39.8739
 30
0.00000
  70
    32
  0
VERTEX
  8
0
  5
611
 10
33.0756
 20
39.7846
 30
0.00000
  70
    32
  0
VERTEX
  8
0
  5
612
 10
33.1533
 20
39.6952
 30
0.00000
  70
    32
  0
VERTEX
  8
0
  5
613
 10
33.2310
 20
39.6058
 30
0.00000
  70
    32
  0
VERTEX
  8
0
  5
614
 10
33.3086
 20
39.5164
 30
0.00000
  70
    32
  0
VERTEX
  8
0
  5
615
 10
33.3862
 20
39.4269
 30
0.00000
  70
    32
  0
VERTEX
  8
0
  5
616
 10
33.4638
 20
39.3374
 30
0.00000
  70
    32
  0
VERTEX
  8
0
  5
617
 10
33.5413
 20
39.2479
 30
0.00000
  70
    32
  0
VERTEX
  8
0
  5
618
 10
33.6188
 20
39.1583
 30
0.00000
  70
    32
  0
VERTEX
  8
0
  5
619
 10
33.6962
 20
39.0686
 30
0.00000
  70
    32
  0
VERTEX
  8
0
  5
61A
 10
33.7736
 20
38.9790
 30
0.00000
  70
    32
  0
VERTEX
  8
0
  5
61B
 10
33.8509
 20
38.8893
 30
0.00000
  70
    32
  0
VERTEX
  8
0
  5
61C
 10
33.9282
 20
38.7995
 30
0.00000
  70
    32
  0
VERTEX
  8
0
  5
61D
 10
34.0054
 20
38.7098
 30
0.00000
  70
    32
  0
VERTEX
  8
0
  5
61E
 10
34.0826
 20
38.6200
 30
0.00000
  70
    32
  0
VERTEX
  8
0
  5
61F
 10
34.1598
 20
38.5301
 30
0.00000
  70
    32
  0
VERTEX
  8
0
  5
620
 10
34.2369
 20
38.4402
 30
0.00000
  70
    32
  0
VERTEX
  8
0
  5
621
 10
34.3140
 20
38.3503
 30
0.00000
  70
    32
  0
VERTEX
  8
0
  5
622
 10
34.3910
 20
38.2604
 30
0.00000
  70
    32
  0
VERTEX
  8
0
  5
623
 10
34.4680
 20
38.1704
 30
0.00000
  70
    32
  0
VERTEX
  8
0
  5
624
 10
34.5450
 20
38.0803
 30
0.00000
  70
    32
  0
VERTEX
  8
0
  5
625
 10
34.6219
 20
37.9903
 30
0.00000
  70
    32
  0
VERTEX
  8
0
  5
626
 10
34.6988
 20
37.9002
 30
0.00000
  70
    32
  0
VERTEX
  8
0
  5
627
 10
34.7756
 20
37.8100
 30
0.00000
  70
    32
  0
VERTEX
  8
0
  5
628
 10
34.8524
 20
37.7198
 30
0.00000
  70
    32
  0
VERTEX
  8
0
  5
629
 10
34.9291
 20
37.6296
 30
0.00000
  70
    32
  0
VERTEX
  8
0
  5
62A
 10
35.0058
 20
37.5394
 30
0.00000
  70
    32
  0
VERTEX
  8
0
  5
62B
 10
35.0825
 20
37.4491
 30
0.00000
  70
    32
  0
VERTEX
  8
0
  5
62C
 10
35.1591
 20
37.3588
 30
0.00000
  70
    32
  0
VERTEX
  8
0
  5
62D
 10
35.2357
 20
37.2684
 30
0.00000
  70
    32
  0
VERTEX
  8
0
  5
62E
 10
35.3122
 20
37.1780
 30
0.00000
  70
    32
  0
VERTEX
  8
0
  5
62F
 10
35.3887
 20
37.0876
 30
0.00000
  70
    32
  0
VERTEX
  8
0
  5
630
 10
35.4651
 20
36.9971
 30
0.00000
  70
    32
  0
VERTEX
  8
0
  5
631
 10
35.5415
 20
36.9066
 30
0.00000
  70
    32
  0
VERTEX
  8
0
  5
632
 10
35.6179
 20
36.8161
 30
0.00000
  70
    32
  0
VERTEX
  8
0
  5
633
 10
35.6942
 20
36.7255
 30
0.00000
  70
    32
  0
VERTEX
  8
0
  5
634
 10
35.7704
 20
36.6349
 30
0.00000
  70
    32
  0
VERTEX
  8
0
  5
635
 10
35.8467
 20
36.5443
 30
0.00000
  70
    32
  0
VERTEX
  8
0
  5
636
 10
35.9229
 20
36.4536
 30
0.00000
  70
    32
  0
VERTEX
  8
0
  5
637
 10
35.9990
 20
36.3629
 30
0.00000
  70
    32
  0
VERTEX
  8
0
  5
638
 10
36.0751
 20
36.2721
 30
0.00000
  70
    32
  0
VERTEX
  8
0
  5
639
 10
36.1512
 20
36.1813
 30
0.00000
  70
    32
  0
VERTEX
  8
0
  5
63A
 10
36.2272
 20
36.0905
 30
0.00000
  70
    32
  0
VERTEX
  8
0
  5
63B
 10
36.3032
 20
35.9996
 30
0.00000
  70
    32
  0
VERTEX
  8
0
  5
63C
 10
36.3791
 20
35.9087
 30
0.00000
  70
    32
  0
VERTEX
  8
0
  5
63D
 10
36.4550
 20
35.8178
 30
0.00000
  70
    32
  0
VERTEX
  8
0
  5
63E
 10
36.5308
 20
35.7268
 30
0.00000
  70
    32
  0
VERTEX
  8
0
  5
63F
 10
36.6066
 20
35.6358
 30
0.00000
  70
    32
  0
VERTEX
  8
0
  5
640
 10
36.6824
 20
35.5448
 30
0.00000
  70
    32
  0
VERTEX
  8
0
  5
641
 10
36.7581
 20
35.4537
 30
0.00000
  70
    32
  0
VERTEX
  8
0
  5
642
 10
36.8338
 20
35.3626
 30
0.00000
  70
    32
  0
VERTEX
  8
0
  5
643
 10
36.9094
 20
35.2714
 30
0.00000
  70
    32
  0
VERTEX
  8
0
  5
644
 10
36.9850
 20
35.1803
 30
0.00000
  70
    32
  0
VERTEX
  8
0
  5
645
 10
37.0605
 20
35.0890
 30
0.00000
  70
    32
  0
VERTEX
  8
0
  5
646
 10
37.1360
 20
34.9978
 30
0.00000
  70
    32
  0
VERTEX
  8
0
  5
647
 10
37.2115
 20
34.9065
 30
0.00000
  70
    32
  0
VERTEX
  8
0
  5
648
 10
37.2869
 20
34.8152
 30
0.00000
  70
    32
  0
VERTEX
  8
0
  5
649
 10
37.3623
 20
34.7238
 30
0.00000
  70
    32
  0
VERTEX
  8
0
  5
64A
 10
37.4376
 20
34.6324
 30
0.00000
  70
    32
  0
VERTEX
  8
0
  5
64B
 10
37.5129
 20
34.5410
 30
0.00000
  70
    32
  0
VERTEX
  8
0
  5
64C
 10
37.5882
 20
34.4495
 30
0.00000
  70
    32
  0
VERTEX
  8
0
  5
64D
 10
37.6634
 20
34.3580
 30
0.00000
  70
    32
  0
VERTEX
  8
0
  5
64E
 10
37.7386
 20
34.2665
 30
0.00000
  70
    32
  0
VERTEX
  8
0
  5
64F
 10
37.8137
 20
34.1749
 30
0.00000
  70
    32
  0
VERTEX
  8
0
  5
650
 10
37.8888
 20
34.0833
 30
0.00000
  70
    32
  0
VERTEX
  8
0
  5
651
 10
37.9638
 20
33.9917
 30
0.00000
  70
    32
  0
VERTEX
  8
0
  5
652
 10
38.0388
 20
33.9000
 30
0.00000
  70
    32
  0
VERTEX
  8
0
  5
653
 10
38.1137
 20
33.8083
 30
0.00000
  70
    32
  0
VERTEX
  8
0
  5
654
 10
38.1887
 20
33.7166
 30
0.00000
  70
    32
  0
VERTEX
  8
0
  5
655
 10
38.2635
 20
33.6248
 30
0.00000
  70
    32
  0
VERTEX
  8
0
  5
656
 10
38.3383
 20
33.5330
 30
0.00000
  70
    32
  0
VERTEX
  8
0
  5
657
 10
38.4131
 20
33.4411
 30
0.00000
  70
    32
  0
VERTEX
  8
0
  5
658
 10
38.4879
 20
33.3492
 30
0.00000
  70
    32
  0
VERTEX
  8
0
  5
659
 10
38.5626
 20
33.2573
 30
0.00000
  70
    32
  0
VERTEX
  8
0
  5
65A
 10
38.6372
 20
33.1654
 30
0.00000
  70
    32
  0
VERTEX
  8
0
  5
65B
 10
38.7118
 20
33.0734
 30
0.00000
  70
    32
  0
VERTEX
  8
0
  5
65C
 10
38.7864
 20
32.9814
 30
0.00000
  70
    32
  0
VERTEX
  8
0
  5
65D
 10
38.8609
 20
32.8893
 30
0.00000
  70
    32
  0
VERTEX
  8
0
  5
65E
 10
38.9354
 20
32.7972
 30
0.00000
  70
    32
  0
VERTEX
  8
0
  5
65F
 10
39.0098
 20
32.7051
 30
0.00000
  70
    32
  0
VERTEX
  8
0
  5
660
 10
39.0842
 20
32.6129
 30
0.00000
  70
    32
  0
VERTEX
  8
0
  5
661
 10
39.1586
 20
32.5207
 30
0.00000
  70
    32
  0
VERTEX
  8
0
  5
662
 10
39.2329
 20
32.4285
 30
0.00000
  70
    32
  0
VERTEX
  8
0
  5
663
 10
39.3072
 20
32.3362
 30
0.00000
  70
    32
  0
VERTEX
  8
0
  5
664
 10
39.3814
 20
32.2439
 30
0.00000
  70
    32
  0
VERTEX
  8
0
  5
665
 10
39.4556
 20
32.1516
 30
0.00000
  70
    32
  0
VERTEX
  8
0
  5
666
 10
39.5297
 20
32.0592
 30
0.00000
  70
    32
  0
VERTEX
  8
0
  5
667
 10
39.6038
 20
31.9668
 30
0.00000
  70
    32
  0
VERTEX
  8
0
  5
668
 10
39.6779
 20
31.8744
 30
0.00000
  70
    32
  0
VERTEX
  8
0
  5
669
 10
39.7519
 20
31.7819
 30
0.00000
  70
    32
  0
VERTEX
  8
0
  5
66A
 10
39.8259
 20
31.6894
 30
0.00000
  70
    32
  0
VERTEX
  8
0
  5
66B
 10
39.8998
 20
31.5969
 30
0.00000
  70
    32
  0
VERTEX
  8
0
  5
66C
 10
39.9737
 20
31.5043
 30
0.00000
  70
    32
  0
VERTEX
  8
0
  5
66D
 10
40.0476
 20
31.4117
 30
0.00000
  70
    32
  0
VERTEX
  8
0
  5
66E
 10
40.1214
 20
31.3191
 30
0.00000
  70
    32
  0
VERTEX
  8
0
  5
66F
 10
40.1951
 20
31.2264
 30
0.00000
  70
    32
  0
VERTEX
  8
0
  5
670
 10
40.2688
 20
31.1337
 30
0.00000
  70
    32
  0
VERTEX
  8
0
  5
671
 10
40.3425
 20
31.0410
 30
0.00000
  70
    32
  0
VERTEX
  8
0
  5
672
 10
40.4162
 20
30.9482
 30
0.00000
  70
    32
  0
VERTEX
  8
0
  5
673
 10
40.4897
 20
30.8554
 30
0.00000
  70
    32
  0
VERTEX
  8
0
  5
674
 10
40.5633
 20
30.7626
 30
0.00000
  70
    32
  0
VERTEX
  8
0
  5
675
 10
40.6368
 20
30.6697
 30
0.00000
  70
    32
  0
VERTEX
  8
0
  5
676
 10
40.7103
 20
30.5768
 30
0.00000
  70
    32
  0
VERTEX
  8
0
  5
677
 10
40.7837
 20
30.4838
 30
0.00000
  70
    32
  0
VERTEX
  8
0
  5
678
 10
40.8571
 20
30.3909
 30
0.00000
  70
    32
  0
VERTEX
  8
0
  5
679
 10
40.9304
 20
30.2979
 30
0.00000
  70
    32
  0
VERTEX
  8
0
  5
67A
 10
41.0037
 20
30.2048
 30
0.00000
  70
    32
  0
VERTEX
  8
0
  5
67B
 10
41.0769
 20
30.1117
 30
0.00000
  70
    32
  0
VERTEX
  8
0
  5
67C
 10
41.1502
 20
30.0186
 30
0.00000
  70
    32
  0
VERTEX
  8
0
  5
67D
 10
41.2233
 20
29.9255
 30
0.00000
  70
    32
  0
VERTEX
  8
0
  5
67E
 10
41.2964
 20
29.8323
 30
0.00000
  70
    32
  0
VERTEX
  8
0
  5
67F
 10
41.3695
 20
29.7391
 30
0.00000
  70
    32
  0
VERTEX
  8
0
  5
680
 10
41.4426
 20
29.6459
 30
0.00000
  70
    32
  0
VERTEX
  8
0
  5
681
 10
41.5156
 20
29.5526
 30
0.00000
  70
    32
  0
VERTEX
  8
0
  5
682
 10
41.5885
 20
29.4593
 30
0.00000
  70
    32
  0
VERTEX
  8
0
  5
683
 10
41.6614
 20
29.3659
 30
0.00000
  70
    32
  0
VERTEX
  8
0
  5
684
 10
41.7343
 20
29.2726
 30
0.00000
  70
    32
  0
VERTEX
  8
0
  5
685
 10
41.8071
 20
29.1792
 30
0.00000
  70
    32
  0
VERTEX
  8
0
  5
686
 10
41.8799
 20
29.0857
 30
0.00000
  70
    32
  0
VERTEX
  8
0
  5
687
 10
41.9526
 20
28.9922
 30
0.00000
  70
    32
  0
VERTEX
  8
0
  5
688
 10
42.0253
 20
28.8987
 30
0.00000
  70
    32
  0
VERTEX
  8
0
  5
689
 10
42.0980
 20
28.8052
 30
0.00000
  70
    32
  0
VERTEX
  8
0
  5
68A
 10
42.1706
 20
28.7116
 30
0.00000
  70
    32
  0
VERTEX
  8
0
  5
68B
 10
42.2432
 20
28.6180
 30
0.00000
  70
    32
  0
VERTEX
  8
0
  5
68C
 10
42.3157
 20
28.5244
 30
0.00000
  70
    32
  0
VERTEX
  8
0
  5
68D
 10
42.3882
 20
28.4307
 30
0.00000
  70
    32
  0
VERTEX
  8
0
  5
68E
 10
42.4606
 20
28.3370
 30
0.00000
  70
    32
  0
VERTEX
  8
0
  5
68F
 10
42.5330
 20
28.2433
 30
0.00000
  70
    32
  0
VERTEX
  8
0
  5
690
 10
42.6054
 20
28.1495
 30
0.00000
  70
    32
  0
VERTEX
  8
0
  5
691
 10
42.6777
 20
28.0557
 30
0.00000
  70
    32
  0
VERTEX
  8
0
  5
692
 10
42.7500
 20
27.9619
 30
0.00000
  70
    32
  0
VERTEX
  8
0
  5
693
 10
42.8222
 20
27.8680
 30
0.00000
  70
    32
  0
VERTEX
  8
0
  5
694
 10
42.8944
 20
27.7741
 30
0.00000
  70
    32
  0
VERTEX
  8
0
  5
695
 10
42.9666
 20
27.6802
 30
0.00000
  70
    32
  0
VERTEX
  8
0
  5
696
 10
43.0387
 20
27.5862
 30
0.00000
  70
    32
  0
VERTEX
  8
0
  5
697
 10
43.1107
 20
27.4922
 30
0.00000
  70
    32
  0
VERTEX
  8
0
  5
698
 10
43.1827
 20
27.3982
 30
0.00000
  70
    32
  0
VERTEX
  8
0
  5
699
 10
43.2547
 20
27.3041
 30
0.00000
  70
    32
  0
VERTEX
  8
0
  5
69A
 10
43.3266
 20
27.2100
 30
0.00000
  70
    32
  0
VERTEX
  8
0
  5
69B
 10
43.3985
 20
27.1159
 30
0.00000
  70
    32
  0
VERTEX
  8
0
  5
69C
 10
43.4704
 20
27.0217
 30
0.00000
  70
    32
  0
VERTEX
  8
0
  5
69D
 10
43.5422
 20
26.9275
 30
0.00000
  70
    32
  0
VERTEX
  8
0
  5
69E
 10
43.6139
 20
26.8333
 30
0.00000
  70
    32
  0
VERTEX
  8
0
  5
69F
 10
43.6857
 20
26.7390
 30
0.00000
  70
    32
  0
VERTEX
  8
0
  5
6A0
 10
43.7573
 20
26.6448
 30
0.00000
  70
    32
  0
VERTEX
  8
0
  5
6A1
 10
43.8290
 20
26.5504
 30
0.00000
  70
    32
  0
VERTEX
  8
0
  5
6A2
 10
43.9005
 20
26.4561
 30
0.00000
  70
    32
  0
VERTEX
  8
0
  5
6A3
 10
43.9721
 20
26.3617
 30
0.00000
  70
    32
  0
VERTEX
  8
0
  5
6A4
 10
44.0436
 20
26.2673
 30
0.00000
  70
    32
  0
VERTEX
  8
0
  5
6A5
 10
44.1150
 20
26.1728
 30
0.00000
  70
    32
  0
VERTEX
  8
0
  5
6A6
 10
44.1864
 20
26.0783
 30
0.00000
  70
    32
  0
VERTEX
  8
0
  5
6A7
 10
44.2578
 20
25.9838
 30
0.00000
  70
    32
  0
VERTEX
  8
0
  5
6A8
 10
44.3291
 20
25.8892
 30
0.00000
  70
    32
  0
VERTEX
  8
0
  5
6A9
 10
44.4004
 20
25.7946
 30
0.00000
  70
    32
  0
VERTEX
  8
0
  5
6AA
 10
44.4716
 20
25.7000
 30
0.00000
  70
    32
  0
VERTEX
  8
0
  5
6AB
 10
44.5428
 20
25.6054
 30
0.00000
  70
    32
  0
VERTEX
  8
0
  5
6AC
 10
44.6140
 20
25.5107
 30
0.00000
  70
    32
  0
VERTEX
  8
0
  5
6AD
 10
44.6851
 20
25.4160
 30
0.00000
  70
    32
  0
VERTEX
  8
0
  5
6AE
 10
44.7561
 20
25.3212
 30
0.00000
  70
    32
  0
VERTEX
  8
0
  5
6AF
 10
44.8272
 20
25.2264
 30
0.00000
  70
    32
  0
VERTEX
  8
0
  5
6B0
 10
44.8981
 20
25.1316
 30
0.00000
  70
    32
  0
VERTEX
  8
0
  5
6B1
 10
44.9691
 20
25.0368
 30
0.00000
  70
    32
  0
VERTEX
  8
0
  5
6B2
 10
45.0399
 20
24.9419
 30
0.00000
  70
    32
  0
VERTEX
  8
0
  5
6B3
 10
45.1108
 20
24.8470
 30
0.00000
  70
    32
  0
VERTEX
  8
0
  5
6B4
 10
45.1816
 20
24.7520
 30
0.00000
  70
    32
  0
VERTEX
  8
0
  5
6B5
 10
45.2523
 20
24.6570
 30
0.00000
  70
    32
  0
VERTEX
  8
0
  5
6B6
 10
45.3230
 20
24.5620
 30
0.00000
  70
    32
  0
VERTEX
  8
0
  5
6B7
 10
45.3937
 20
24.4670
 30
0.00000
  70
    32
  0
VERTEX
  8
0
  5
6B8
 10
45.4643
 20
24.3719
 30
0.00000
  70
    32
  0
VERTEX
  8
0
  5
6B9
 10
45.5349
 20
24.2768
 30
0.00000
  70
    32
  0
VERTEX
  8
0
  5
6BA
 10
45.6054
 20
24.1816
 30
0.00000
  70
    32
  0
VERTEX
  8
0
  5
6BB
 10
45.6759
 20
24.0865
 30
0.00000
  70
    32
  0
VERTEX
  8
0
  5
6BC
 10
45.7463
 20
23.9913
 30
0.00000
  70
    32
  0
VERTEX
  8
0
  5
6BD
 10
45.8167
 20
23.8960
 30
0.00000
  70
    32
  0
VERTEX
  8
0
  5
6BE
 10
45.8870
 20
23.8007
 30
0.00000
  70
    32
  0
VERTEX
  8
0
  5
6BF
 10
45.9573
 20
23.7054
 30
0.00000
  70
    32
  0
VERTEX
  8
0
  5
6C0
 10
46.0276
 20
23.6101
 30
0.00000
  70
    32
  0
VERTEX
  8
0
  5
6C1
 10
46.0978
 20
23.5147
 30
0.00000
  70
    32
  0
VERTEX
  8
0
  5
6C2
 10
46.1680
 20
23.4193
 30
0.00000
  70
    32
  0
VERTEX
  8
0
  5
6C3
 10
46.2381
 20
23.3239
 30
0.00000
  70
    32
  0
VERTEX
  8
0
  5
6C4
 10
46.3082
 20
23.2284
 30
0.00000
  70
    32
  0
VERTEX
  8
0
  5
6C5
 10
46.3782
 20
23.1329
 30
0.00000
  70
    32
  0
VERTEX
  8
0
  5
6C6
 10
46.4482
 20
23.0373
 30
0.00000
  70
    32
  0
VERTEX
  8
0
  5
6C7
 10
46.5181
 20
22.9418
 30
0.00000
  70
    32
  0
VERTEX
  8
0
  5
6C8
 10
46.5880
 20
22.8462
 30
0.00000
  70
    32
  0
VERTEX
  8
0
  5
6C9
 10
46.6579
 20
22.7505
 30
0.00000
  70
    32
  0
VERTEX
  8
0
  5
6CA
 10
46.7277
 20
22.6548
 30
0.00000
  70
    32
  0
VERTEX
  8
0
  5
6CB
 10
46.7974
 20
22.5591
 30
0.00000
  70
    32
  0
VERTEX
  8
0
  5
6CC
 10
46.8671
 20
22.4634
 30
0.00000
  70
    32
  0
VERTEX
  8
0
  5
6CD
 10
46.9368
 20
22.3676
 30
0.00000
  70
    32
  0
VERTEX
  8
0
  5
6CE
 10
47.0064
 20
22.2718
 30
0.00000
  70
    32
  0
VERTEX
  8
0
  5
6CF
 10
47.0760
 20
22.1760
 30
0.00000
  70
    32
  0
VERTEX
  8
0
  5
6D0
 10
47.1455
 20
22.0801
 30
0.00000
  70
    32
  0
VERTEX
  8
0
  5
6D1
 10
47.2150
 20
21.9842
 30
0.00000
  70
    32
  0
VERTEX
  8
0
  5
6D2
 10
47.2844
 20
21.8883
 30
0.00000
  70
    32
  0
VERTEX
  8
0
  5
6D3
 10
47.3538
 20
21.7923
 30
0.00000
  70
    32
  0
VERTEX
  8
0
  5
6D4
 10
47.4231
 20
21.6963
 30
0.00000
  70
    32
  0
VERTEX
  8
0
  5
6D5
 10
47.4924
 20
21.6003
 30
0.00000
  70
    32
  0
VERTEX
  8
0
  5
6D6
 10
47.5617
 20
21.5042
 30
0.00000
  70
    32
  0
VERTEX
  8
0
  5
6D7
 10
47.6309
 20
21.4081
 30
0.00000
  70
    32
  0
VERTEX
  8
0
  5
6D8
 10
47.7000
 20
21.3120
 30
0.00000
  70
    32
  0
VERTEX
  8
0
  5
6D9
 10
47.7691
 20
21.2158
 30
0.00000
  70
    32
  0
VERTEX
  8
0
  5
6DA
 10
47.8382
 20
21.1196
 30
0.00000
  70
    32
  0
VERTEX
  8
0
  5
6DB
 10
47.9072
 20
21.0234
 30
0.00000
  70
    32
  0
VERTEX
  8
0
  5
6DC
 10
47.9762
 20
20.9271
 30
0.00000
  70
    32
  0
VERTEX
  8
0
  5
6DD
 10
48.0451
 20
20.8308
 30
0.00000
  70
    32
  0
VERTEX
  8
0
  5
6DE
 10
48.1140
 20
20.7345
 30
0.00000
  70
    32
  0
VERTEX
  8
0
  5
6DF
 10
48.1828
 20
20.6381
 30
0.00000
  70
    32
  0
VERTEX
  8
0
  5
6E0
 10
48.2516
 20
20.5417
 30
0.00000
  70
    32
  0
VERTEX
  8
0
  5
6E1
 10
48.3203
 20
20.4453
 30
0.00000
  70
    32
  0
VERTEX
  8
0
  5
6E2
 10
48.3890
 20
20.3488
 30
0.00000
  70
    32
  0
VERTEX
  8
0
  5
6E3
 10
48.4576
 20
20.2523
 30
0.00000
  70
    32
  0
VERTEX
  8
0
  5
6E4
 10
48.5262
 20
20.1558
 30
0.00000
  70
    32
  0
VERTEX
  8
0
  5
6E5
 10
48.5948
 20
20.0593
 30
0.00000
  70
    32
  0
VERTEX
  8
0
  5
6E6
 10
48.6633
 20
19.9627
 30
0.00000
  70
    32
  0
VERTEX
  8
0
  5
6E7
 10
48.7317
 20
19.8660
 30
0.00000
  70
    32
  0
VERTEX
  8
0
  5
6E8
 10
48.8001
 20
19.7694
 30
0.00000
  70
    32
  0
VERTEX
  8
0
  5
6E9
 10
48.8685
 20
19.6727
 30
0.00000
  70
    32
  0
VERTEX
  8
0
  5
6EA
 10
48.9368
 20
19.5759
 30
0.00000
  70
    32
  0
VERTEX
  8
0
  5
6EB
 10
49.0051
 20
19.4792
 30
0.00000
  70
    32
  0
VERTEX
  8
0
  5
6EC
 10
49.0733
 20
19.3824
 30
0.00000
  70
    32
  0
VERTEX
  8
0
  5
6ED
 10
49.1414
 20
19.2856
 30
0.00000
  70
    32
  0
VERTEX
  8
0
  5
6EE
 10
49.2095
 20
19.1887
 30
0.00000
  70
    32
  0
VERTEX
  8
0
  5
6EF
 10
49.2776
 20
19.0918
 30
0.00000
  70
    32
  0
VERTEX
  8
0
  5
6F0
 10
49.3456
 20
18.9949
 30
0.00000
  70
    32
  0
VERTEX
  8
0
  5
6F1
 10
49.4136
 20
18.8979
 30
0.00000
  70
    32
  0
VERTEX
  8
0
  5
6F2
 10
49.4815
 20
18.8009
 30
0.00000
  70
    32
  0
VERTEX
  8
0
  5
6F3
 10
49.5494
 20
18.7039
 30
0.00000
  70
    32
  0
VERTEX
  8
0
  5
6F4
 10
49.6172
 20
18.6068
 30
0.00000
  70
    32
  0
VERTEX
  8
0
  5
6F5
 10
49.6850
 20
18.5098
 30
0.00000
  70
    32
  0
VERTEX
  8
0
  5
6F6
 10
49.7528
 20
18.4126
 30
0.00000
  70
    32
  0
VERTEX
  8
0
  5
6F7
 10
49.8204
 20
18.3155
 30
0.00000
  70
    32
  0
VERTEX
  8
0
  5
6F8
 10
49.8881
 20
18.2183
 30
0.00000
  70
    32
  0
VERTEX
  8
0
  5
6F9
 10
49.9557
 20
18.1211
 30
0.00000
  70
    32
  0
VERTEX
  8
0
  5
6FA
 10
50.0232
 20
18.0238
 30
0.00000
  70
    32
  0
VERTEX
  8
0
  5
6FB
 10
50.0907
 20
17.9265
 30
0.00000
  70
    32
  0
VERTEX
  8
0
  5
6FC
 10
50.1581
 20
17.8292
 30
0.00000
  70
    32
  0
VERTEX
  8
0
  5
6FD
 10
50.2255
 20
17.7318
 30
0.00000
  70
    32
  0
VERTEX
  8
0
  5
6FE
 10
50.2929
 20
17.6344
 30
0.00000
  70
    32
  0
VERTEX
  8
0
  5
6FF
 10
50.3602
 20
17.5370
 30
0.00000
  70
    32
  0
VERTEX
  8
0
  5
700
 10
50.4274
 20
17.4396
 30
0.00000
  70
    32
  0
VERTEX
  8
0
  5
701
 10
50.4946
 20
17.3421
 30
0.00000
  70
    32
  0
VERTEX
  8
0
  5
702
 10
50.5618
 20
17.2445
 30
0.00000
  70
    32
  0
VERTEX
  8
0
  5
703
 10
50.6289
 20
17.1470
 30
0.00000
  70
    32
  0
VERTEX
  8
0
  5
704
 10
50.6959
 20
17.0494
 30
0.00000
  70
    32
  0
VERTEX
  8
0
  5
705
 10
50.7629
 20
16.9518
 30
0.00000
  70
    32
  0
VERTEX
  8
0
  5
706
 10
50.8299
 20
16.8541
 30
0.00000
  70
    32
  0
VERTEX
  8
0
  5
707
 10
50.8968
 20
16.7564
 30
0.00000
  70
    32
  0
VERTEX
  8
0
  5
708
 10
50.9637
 20
16.6587
 30
0.00000
  70
    32
  0
VERTEX
  8
0
  5
709
 10
51.0305
 20
16.5609
 30
0.00000
  70
    32
  0
VERTEX
  8
0
  5
70A
 10
51.0972
 20
16.4632
 30
0.00000
  70
    32
  0
VERTEX
  8
0
  5
70B
 10
51.1639
 20
16.3653
 30
0.00000
  70
    32
  0
VERTEX
  8
0
  5
70C
 10
51.2306
 20
16.2675
 30
0.00000
  70
    32
  0
VERTEX
  8
0
  5
70D
 10
51.2972
 20
16.1696
 30
0.00000
  70
    32
  0
VERTEX
  8
0
  5
70E
 10
51.3638
 20
16.0717
 30
0.00000
  70
    32
  0
VERTEX
  8
0
  5
70F
 10
51.4303
 20
15.9737
 30
0.00000
  70
    32
  0
VERTEX
  8
0
  5
710
 10
51.4967
 20
15.8757
 30
0.00000
  70
    32
  0
VERTEX
  8
0
  5
711
 10
51.5631
 20
15.7777
 30
0.00000
  70
    32
  0
VERTEX
  8
0
  5
712
 10
51.6295
 20
15.6797
 30
0.00000
  70
    32
  0
VERTEX
  8
0
  5
713
 10
51.6958
 20
15.5816
 30
0.00000
  70
    32
  0
VERTEX
  8
0
  5
714
 10
51.7621
 20
15.4834
 30
0.00000
  70
    32
  0
VERTEX
  8
0
  5
715
 10
51.8283
 20
15.3853
 30
0.00000
  70
    32
  0
VERTEX
  8
0
  5
716
 10
51.8944
 20
15.2871
 30
0.00000
  70
    32
  0
VERTEX
  8
0
  5
717
 10
51.9606
 20
15.1889
 30
0.00000
  70
    32
  0
VERTEX
  8
0
  5
718
 10
52.0266
 20
15.0906
 30
0.00000
  70
    32
  0
VERTEX
  8
0
  5
719
 10
52.0926
 20
14.9923
 30
0.00000
  70
    32
  0
VERTEX
  8
0
  5
71A
 10
52.1586
 20
14.8940
 30
0.00000
  70
    32
  0
VERTEX
  8
0
  5
71B
 10
52.2245
 20
14.7957
 30
0.00000
  70
    32
  0
VERTEX
  8
0
  5
71C
 10
52.2904
 20
14.6973
 30
0.00000
  70
    32
  0
VERTEX
  8
0
  5
71D
 10
52.3562
 20
14.5989
 30
0.00000
  70
    32
  0
VERTEX
  8
0
  5
71E
 10
52.4219
 20
14.5004
 30
0.00000
  70
    32
  0
VERTEX
  8
0
  5
71F
 10
52.4876
 20
14.4019
 30
0.00000
  70
    32
  0
VERTEX
  8
0
  5
720
 10
52.5533
 20
14.3034
 30
0.00000
  70
    32
  0
VERTEX
  8
0
  5
721
 10
52.6189
 20
14.2048
 30
0.00000
  70
    32
  0
VERTEX
  8
0
  5
722
 10
52.6845
 20
14.1063
 30
0.00000
  70
    32
  0
VERTEX
  8
0
  5
723
 10
52.7500
 20
14.0076
 30
0.00000
  70
    32
  0
VERTEX
  8
0
  5
724
 10
52.8154
 20
13.9090
 30
0.00000
  70
    32
  0
VERTEX
  8
0
  5
725
 10
52.8808
 20
13.8103
 30
0.00000
  70
    32
  0
VERTEX
  8
0
  5
726
 10
52.9462
 20
13.7116
 30
0.00000
  70
    32
  0
VERTEX
  8
0
  5
727
 10
53.0115
 20
13.6128
 30
0.00000
  70
    32
  0
VERTEX
  8
0
  5
728
 10
53.0768
 20
13.5140
 30
0.00000
  70
    32
  0
VERTEX
  8
0
  5
729
 10
53.1420
 20
13.4152
 30
0.00000
  70
    32
  0
VERTEX
  8
0
  5
72A
 10
53.2072
 20
13.3164
 30
0.00000
  70
    32
  0
VERTEX
  8
0
  5
72B
 10
53.2723
 20
13.2175
 30
0.00000
  70
    32
  0
VERTEX
  8
0
  5
72C
 10
53.3374
 20
13.1186
 30
0.00000
  70
    32
  0
VERTEX
  8
0
  5
72D
 10
53.4024
 20
13.0197
 30
0.00000
  70
    32
  0
VERTEX
  8
0
  5
72E
 10
53.4674
 20
12.9207
 30
0.00000
  70
    32
  0
VERTEX
  8
0
  5
72F
 10
53.5323
 20
12.8217
 30
0.00000
  70
    32
  0
VERTEX
  8
0
  5
730
 10
53.5972
 20
12.7227
 30
0.00000
  70
    32
  0
VERTEX
  8
0
  5
731
 10
53.6621
 20
12.6237
 30
0.00000
  70
    32
  0
VERTEX
  8
0
  5
732
 10
53.7269
 20
12.5246
 30
0.00000
  70
    32
  0
VERTEX
  8
0
  5
733
 10
53.7917
 20
12.4255
 30
0.00000
  70
    32
  0
VERTEX
  8
0
  5
734
 10
53.8564
 20
12.3264
 30
0.00000
  70
    32
  0
VERTEX
  8
0
  5
735
 10
53.9212
 20
12.2272
 30
0.00000
  70
    32
  0
VERTEX
  8
0
  5
736
 10
53.9858
 20
12.1281
 30
0.00000
  70
    32
  0
VERTEX
  8
0
  5
737
 10
54.0505
 20
12.0289
 30
0.00000
  70
    32
  0
VERTEX
  8
0
  5
738
 10
54.1150
 20
11.9297
 30
0.00000
  70
    32
  0
VERTEX
  8
0
  5
739
 10
54.1796
 20
11.8304
 30
0.00000
  70
    32
  0
VERTEX
  8
0
  5
73A
 10
54.2441
 20
11.7311
 30
0.00000
  70
    32
  0
VERTEX
  8
0
  5
73B
 10
54.3086
 20
11.6319
 30
0.00000
  70
    32
  0
VERTEX
  8
0
  5
73C
 10
54.3731
 20
11.5325
 30
0.00000
  70
    32
  0
VERTEX
  8
0
  5
73D
 10
54.4375
 20
11.4332
 30
0.00000
  70
    32
  0
VERTEX
  8
0
  5
73E
 10
54.5019
 20
11.3339
 30
0.00000
  70
    32
  0
VERTEX
  8
0
  5
73F
 10
54.5663
 20
11.2345
 30
0.00000
  70
    32
  0
VERTEX
  8
0
  5
740
 10
54.6306
 20
11.1351
 30
0.00000
  70
    32
  0
VERTEX
  8
0
  5
741
 10
54.6949
 20
11.0357
 30
0.00000
  70
    32
  0
VERTEX
  8
0
  5
742
 10
54.7592
 20
10.9362
 30
0.00000
  70
    32
  0
VERTEX
  8
0
  5
743
 10
54.8234
 20
10.8368
 30
0.00000
  70
    32
  0
VERTEX
  8
0
  5
744
 10
54.8876
 20
10.7373
 30
0.00000
  70
    32
  0
VERTEX
  8
0
  5
745
 10
54.9518
 20
10.6378
 30
0.00000
  70
    32
  0
VERTEX
  8
0
  5
746
 10
55.0160
 20
10.5383
 30
0.00000
  70
    32
  0
VERTEX
  8
0
  5
747
 10
55.0801
 20
10.4388
 30
0.00000
  70
    32
  0
VERTEX
  8
0
  5
748
 10
55.1442
 20
10.3393
 30
0.00000
  70
    32
  0
VERTEX
  8
0
  5
749
 10
55.2083
 20
10.2397
 30
0.00000
  70
    32
  0
VERTEX
  8
0
  5
74A
 10
55.2723
 20
10.1401
 30
0.00000
  70
    32
  0
VERTEX
  8
0
  5
74B
 10
55.3364
 20
10.0406
 30
0.00000
  70
    32
  0
VERTEX
  8
0
  5
74C
 10
55.4004
 20
9.94095
 30
0.00000
  70
    32
  0
VERTEX
  8
0
  5
74D
 10
55.4644
 20
9.84134
 30
0.00000
  70
    32
  0
VERTEX
  8
0
  5
74E
 10
55.5284
 20
9.74171
 30
0.00000
  70
    32
  0
VERTEX
  8
0
  5
74F
 10
55.5923
 20
9.64207
 30
0.00000
  70
    32
  0
VERTEX
  8
0
  5
750
 10
55.6562
 20
9.54241
 30
0.00000
  70
    32
  0
VERTEX
  8
0
  5
751
 10
55.7202
 20
9.44275
 30
0.00000
  70
    32
  0
VERTEX
  8
0
  5
752
 10
55.7841
 20
9.34307
 30
0.00000
  70
    32
  0
VERTEX
  8
0
  5
753
 10
55.8479
 20
9.24338
 30
0.00000
  70
    32
  0
VERTEX
  8
0
  5
754
 10
55.9118
 20
9.14368
 30
0.00000
  70
    32
  0
VERTEX
  8
0
  5
755
 10
55.9756
 20
9.04397
 30
0.00000
  70
    32
  0
VERTEX
  8
0
  5
756
 10
56.0395
 20
8.94424
 30
0.00000
  70
    32
  0
VERTEX
  8
0
  5
757
 10
56.1033
 20
8.84451
 30
0.00000
  70
    32
  0
VERTEX
  8
0
  5
758
 10
56.1671
 20
8.74477
 30
0.00000
  70
    32
  0
VERTEX
  8
0
  5
759
 10
56.2309
 20
8.64502
 30
0.00000
  70
    32
  0
VERTEX
  8
0
  5
75A
 10
56.2947
 20
8.54527
 30
0.00000
  70
    32
  0
VERTEX
  8
0
  5
75B
 10
56.3584
 20
8.44550
 30
0.00000
  70
    32
  0
VERTEX
  8
0
  5
75C
 10
56.4222
 20
8.34573
 30
0.00000
  70
    32
  0
VERTEX
  8
0
  5
75D
 10
56.4859
 20
8.24595
 30
0.00000
  70
    32
  0
VERTEX
  8
0
  5
75E
 10
56.5497
 20
8.14617
 30
0.00000
  70
    32
  0
VERTEX
  8
0
  5
75F
 10
56.6134
 20
8.04637
 30
0.00000
  70
    32
  0
VERTEX
  8
0
  5
760
 10
56.6771
 20
7.94658
 30
0.00000
  70
    32
  0
VERTEX
  8
0
  5
761
 10
56.7408
 20
7.84678
 30
0.00000
  70
    32
  0
VERTEX
  8
0
  5
762
 10
56.8045
 20
7.74697
 30
0.00000
  70
    32
  0
VERTEX
  8
0
  5
763
 10
56.8682
 20
7.64716
 30
0.00000
  70
    32
  0
VERTEX
  8
0
  5
764
 10
56.9319
 20
7.54735
 30
0.00000
  70
    32
  0
VERTEX
  8
0
  5
765
 10
56.4958
 20
7.45998
 30
0.00000
  70
    32
  0
VERTEX
  8
0
  5
766
 10
52.5522
 20
7.45998
 30
0.00000
  70
    32
  0
VERTEX
  8
0
  5
767
 10
48.6085
 20
7.45998
 30
0.00000
  70
    32
  0
VERTEX
  8
0
  5
768
 10
44.6649
 20
7.45998
 30
0.00000
  70
    32
  0
VERTEX
  8
0
  5
769
 10
40.7212
 20
7.45998
 30
0.00000
  70
    32
  0
VERTEX
  8
0
  5
76A
 10
36.7776
 20
7.45998
 30
0.00000
  70
    32
  0
VERTEX
  8
0
  5
76B
 10
32.8339
 20
7.45998
 30
0.00000
  70
    32
  0
VERTEX
  8
0
  5
76C
 10
28.8903
 20
7.45998
 30
0.00000
  70
    32
  0
VERTEX
  8
0
  5
76D
 10
24.9466
 20
7.45998
 30
0.00000
  70
    32
  0
VERTEX
  8
0
  5
76E
 10
23.6631
 20
7.53889
 30
0.00000
  70
    32
  0
VERTEX
  8
0
  5
76F
 10
23.6402
 20
7.65519
 30
0.00000
  70
    32
  0
VERTEX
  8
0
  5
770
 10
23.6173
 20
7.77149
 30
0.00000
  70
    32
  0
VERTEX
  8
0
  5
771
 10
23.5943
 20
7.88778
 30
0.00000
  70
    32
  0
VERTEX
  8
0
  5
772
 10
23.5714
 20
8.00406
 30
0.00000
  70
    32
  0
VERTEX
  8
0
  5
773
 10
23.5484
 20
8.12034
 30
0.00000
  70
    32
  0
VERTEX
  8
0
  5
774
 10
23.5254
 20
8.23662
 30
0.00000
  70
    32
  0
VERTEX
  8
0
  5
775
 10
23.5023
 20
8.35288
 30
0.00000
  70
    32
  0
VERTEX
  8
0
  5
776
 10
23.4793
 20
8.46913
 30
0.00000
  70
    32
  0
VERTEX
  8
0
  5
777
 10
23.4562
 20
8.58538
 30
0.00000
  70
    32
  0
VERTEX
  8
0
  5
778
 10
23.4330
 20
8.70162
 30
0.00000
  70
    32
  0
VERTEX
  8
0
  5
779
 10
23.4098
 20
8.81784
 30
0.00000
  70
    32
  0
VERTEX
  8
0
  5
77A
 10
23.3866
 20
8.93405
 30
0.00000
  70
    32
  0
VERTEX
  8
0
  5
77B
 10
23.3633
 20
9.05026
 30
0.00000
  70
    32
  0
VERTEX
  8
0
  5
77C
 10
23.3400
 20
9.16645
 30
0.00000
  70
    32
  0
VERTEX
  8
0
  5
77D
 10
23.3166
 20
9.28262
 30
0.00000
  70
    32
  0
VERTEX
  8
0
  5
77E
 10
23.2932
 20
9.39878
 30
0.00000
  70
    32
  0
VERTEX
  8
0
  5
77F
 10
23.2697
 20
9.51493
 30
0.00000
  70
    32
  0
VERTEX
  8
0
  5
780
 10
23.2462
 20
9.63106
 30
0.00000
  70
    32
  0
VERTEX
  8
0
  5
781
 10
23.2226
 20
9.74717
 30
0.00000
  70
    32
  0
VERTEX
  8
0
  5
782
 10
23.1989
 20
9.86327
 30
0.00000
  70
    32
  0
VERTEX
  8
0
  5
783
 10
23.1751
 20
9.97935
 30
0.00000
  70
    32
  0
VERTEX
  8
0
  5
784
 10
23.1513
 20
10.0954
 30
0.00000
  70
    32
  0
VERTEX
  8
0
  5
785
 10
23.1275
 20
10.2115
 30
0.00000
  70
    32
  0
VERTEX
  8
0
  5
786
 10
23.1035
 20
10.3275
 30
0.00000
  70
    32
  0
VERTEX
  8
0
  5
787
 10
23.0795
 20
10.4435
 30
0.00000
  70
    32
  0
VERTEX
  8
0
  5
788
 10
23.0554
 20
10.5595
 30
0.00000
  70
    32
  0
VERTEX
  8
0
  5
789
 10
23.0312
 20
10.6754
 30
0.00000
  70
    32
  0
VERTEX
  8
0
  5
78A
 10
23.0069
 20
10.7914
 30
0.00000
  70
    32
  0
VERTEX
  8
0
  5
78B
 10
22.9825
 20
10.9073
 30
0.00000
  70
    32
  0
VERTEX
  8
0
  5
78C
 10
22.9580
 20
11.0232
 30
0.00000
  70
    32
  0
VERTEX
  8
0
  5
78D
 10
22.9335
 20
11.1390
 30
0.00000
  70
    32
  0
VERTEX
  8
0
  5
78E
 10
22.9088
 20
11.2549
 30
0.00000
  70
    32
  0
VERTEX
  8
0
  5
78F
 10
22.8841
 20
11.3707
 30
0.00000
  70
    32
  0
VERTEX
  8
0
  5
790
 10
22.8593
 20
11.4865
 30
0.00000
  70
    32
  0
VERTEX
  8
0
  5
791
 10
22.8343
 20
11.6023
 30
0.00000
  70
    32
  0
VERTEX
  8
0
  5
792
 10
22.8092
 20
11.7180
 30
0.00000
  70
    32
  0
VERTEX
  8
0
  5
793
 10
22.7841
 20
11.8337
 30
0.00000
  70
    32
  0
VERTEX
  8
0
  5
794
 10
22.7588
 20
11.9494
 30
0.00000
  70
    32
  0
VERTEX
  8
0
  5
795
 10
22.7334
 20
12.0650
 30
0.00000
  70
    32
  0
VERTEX
  8
0
  5
796
 10
22.7079
 20
12.1806
 30
0.00000
  70
    32
  0
VERTEX
  8
0
  5
797
 10
22.6823
 20
12.2962
 30
0.00000
  70
    32
  0
VERTEX
  8
0
  5
798
 10
22.6565
 20
12.4118
 30
0.00000
  70
    32
  0
VERTEX
  8
0
  5
799
 10
22.6307
 20
12.5273
 30
0.00000
  70
    32
  0
VERTEX
  8
0
  5
79A
 10
22.6047
 20
12.6428
 30
0.00000
  70
    32
  0
VERTEX
  8
0
  5
79B
 10
22.5785
 20
12.7582
 30
0.00000
  70
    32
  0
VERTEX
  8
0
  5
79C
 10
22.5523
 20
12.8737
 30
0.00000
  70
    32
  0
VERTEX
  8
0
  5
79D
 10
22.5259
 20
12.9890
 30
0.00000
  70
    32
  0
VERTEX
  8
0
  5
79E
 10
22.4993
 20
13.1044
 30
0.00000
  70
    32
  0
VERTEX
  8
0
  5
79F
 10
22.4727
 20
13.2197
 30
0.00000
  70
    32
  0
VERTEX
  8
0
  5
7A0
 10
22.4458
 20
13.3350
 30
0.00000
  70
    32
  0
VERTEX
  8
0
  5
7A1
 10
22.4189
 20
13.4502
 30
0.00000
  70
    32
  0
VERTEX
  8
0
  5
7A2
 10
22.3918
 20
13.5654
 30
0.00000
  70
    32
  0
VERTEX
  8
0
  5
7A3
 10
22.3645
 20
13.6806
 30
0.00000
  70
    32
  0
VERTEX
  8
0
  5
7A4
 10
22.3371
 20
13.7957
 30
0.00000
  70
    32
  0
VERTEX
  8
0
  5
7A5
 10
22.3095
 20
13.9108
 30
0.00000
  70
    32
  0
VERTEX
  8
0
  5
7A6
 10
22.2818
 20
14.0258
 30
0.00000
  70
    32
  0
VERTEX
  8
0
  5
7A7
 10
22.2539
 20
14.1408
 30
0.00000
  70
    32
  0
VERTEX
  8
0
  5
7A8
 10
22.2258
 20
14.2557
 30
0.00000
  70
    32
  0
VERTEX
  8
0
  5
7A9
 10
22.1976
 20
14.3707
 30
0.00000
  70
    32
  0
VERTEX
  8
0
  5
7AA
 10
22.1692
 20
14.4855
 30
0.00000
  70
    32
  0
VERTEX
  8
0
  5
7AB
 10
22.1407
 20
14.6003
 30
0.00000
  70
    32
  0
VERTEX
  8
0
  5
7AC
 10
22.1119
 20
14.7151
 30
0.00000
  70
    32
  0
VERTEX
  8
0
  5
7AD
 10
22.0830
 20
14.8298
 30
0.00000
  70
    32
  0
VERTEX
  8
0
  5
7AE
 10
22.0539
 20
14.9445
 30
0.00000
  70
    32
  0
VERTEX
  8
0
  5
7AF
 10
22.0247
 20
15.0591
 30
0.00000
  70
    32
  0
VERTEX
  8
0
  5
7B0
 10
21.9952
 20
15.1737
 30
0.00000
  70
    32
  0
VERTEX
  8
0
  5
7B1
 10
21.9656
 20
15.2883
 30
0.00000
  70
    32
  0
VERTEX
  8
0
  5
7B2
 10
21.9357
 20
15.4027
 30
0.00000
  70
    32
  0
VERTEX
  8
0
  5
7B3
 10
21.9057
 20
15.5172
 30
0.00000
  70
    32
  0
VERTEX
  8
0
  5
7B4
 10
21.8755
 20
15.6316
 30
0.00000
  70
    32
  0
VERTEX
  8
0
  5
7B5
 10
21.8451
 20
15.7459
 30
0.00000
  70
    32
  0
VERTEX
  8
0
  5
7B6
 10
21.8145
 20
15.8602
 30
0.00000
  70
    32
  0
VERTEX
  8
0
  5
7B7
 10
21.7836
 20
15.9744
 30
0.00000
  70
    32
  0
VERTEX
  8
0
  5
7B8
 10
21.7526
 20
16.0886
 30
0.00000
  70
    32
  0
VERTEX
  8
0
  5
7B9
 10
21.7214
 20
16.2027
 30
0.00000
  70
    32
  0
VERTEX
  8
0
  5
7BA
 10
21.6899
 20
16.3167
 30
0.00000
  70
    32
  0
VERTEX
  8
0
  5
7BB
 10
21.6583
 20
16.4308
 30
0.00000
  70
    32
  0
VERTEX
  8
0
  5
7BC
 10
21.6265
 20
16.5447
 30
0.00000
  70
    32
  0
VERTEX
  8
0
  5
7BD
 10
21.5944
 20
16.6586
 30
0.00000
  70
    32
  0
VERTEX
  8
0
  5
7BE
 10
21.5622
 20
16.7725
 30
0.00000
  70
    32
  0
VERTEX
  8
0
  5
7BF
 10
21.5298
 20
16.8863
 30
0.00000
  70
    32
  0
VERTEX
  8
0
  5
7C0
 10
21.4971
 20
17.0000
 30
0.00000
  70
    32
  0
VERTEX
  8
0
  5
7C1
 10
21.4643
 20
17.1137
 30
0.00000
  70
    32
  0
VERTEX
  8
0
  5
7C2
 10
21.4313
 20
17.2273
 30
0.00000
  70
    32
  0
VERTEX
  8
0
  5
7C3
 10
21.3981
 20
17.3409
 30
0.00000
  70
    32
  0
VERTEX
  8
0
  5
7C4
 10
21.3647
 20
17.4545
 30
0.00000
  70
    32
  0
VERTEX
  8
0
  5
7C5
 10
21.3311
 20
17.5680
 30
0.00000
  70
    32
  0
VERTEX
  8
0
  5
7C6
 10
21.2974
 20
17.6814
 30
0.00000
  70
    32
  0
VERTEX
  8
0
  5
7C7
 10
21.2634
 20
17.7948
 30
0.00000
  70
    32
  0
VERTEX
  8
0
  5
7C8
 10
21.2293
 20
17.9081
 30
0.00000
  70
    32
  0
VERTEX
  8
0
  5
7C9
 10
21.1949
 20
18.0214
 30
0.00000
  70
    32
  0
VERTEX
  8
0
  5
7CA
 10
21.1604
 20
18.1346
 30
0.00000
  70
    32
  0
VERTEX
  8
0
  5
7CB
 10
21.1258
 20
18.2478
 30
0.00000
  70
    32
  0
VERTEX
  8
0
  5
7CC
 10
21.0909
 20
18.3609
 30
0.00000
  70
    32
  0
VERTEX
  8
0
  5
7CD
 10
21.0558
 20
18.4740
 30
0.00000
  70
    32
  0
VERTEX
  8
0
  5
7CE
 10
21.0206
 20
18.5870
 30
0.00000
  70
    32
  0
VERTEX
  8
0
  5
7CF
 10
20.9852
 20
18.7000
 30
0.00000
  70
    32
  0
VERTEX
  8
0
  5
7D0
 10
20.9497
 20
18.8129
 30
0.00000
  70
    32
  0
VERTEX
  8
0
  5
7D1
 10
20.9139
 20
18.9258
 30
0.00000
  70
    32
  0
VERTEX
  8
0
  5
7D2
 10
20.8780
 20
19.0386
 30
0.00000
  70
    32
  0
VERTEX
  8
0
  5
7D3
 10
20.8419
 20
19.1514
 30
0.00000
  70
    32
  0
VERTEX
  8
0
  5
7D4
 10
20.8057
 20
19.2642
 30
0.00000
  70
    32
  0
VERTEX
  8
0
  5
7D5
 10
20.7693
 20
19.3768
 30
0.00000
  70
    32
  0
VERTEX
  8
0
  5
7D6
 10
20.7327
 20
19.4895
 30
0.00000
  70
    32
  0
VERTEX
  8
0
  5
7D7
 10
20.6959
 20
19.6021
 30
0.00000
  70
    32
  0
VERTEX
  8
0
  5
7D8
 10
20.6590
 20
19.7146
 30
0.00000
  70
    32
  0
VERTEX
  8
0
  5
7D9
 10
20.6220
 20
19.8271
 30
0.00000
  70
    32
  0
VERTEX
  8
0
  5
7DA
 10
20.5847
 20
19.9395
 30
0.00000
  70
    32
  0
VERTEX
  8
0
  5
7DB
 10
20.5473
 20
20.0519
 30
0.00000
  70
    32
  0
VERTEX
  8
0
  5
7DC
 10
20.5098
 20
20.1642
 30
0.00000
  70
    32
  0
VERTEX
  8
0
  5
7DD
 10
20.4721
 20
20.2765
 30
0.00000
  70
    32
  0
VERTEX
  8
0
  5
7DE
 10
20.4342
 20
20.3888
 30
0.00000
  70
    32
  0
VERTEX
  8
0
  5
7DF
 10
20.3962
 20
20.5010
 30
0.00000
  70
    32
  0
VERTEX
  8
0
  5
7E0
 10
20.3581
 20
20.6131
 30
0.00000
  70
    32
  0
VERTEX
  8
0
  5
7E1
 10
20.3197
 20
20.7252
 30
0.00000
  70
    32
  0
VERTEX
  8
0
  5
7E2
 10
20.2813
 20
20.8373
 30
0.00000
  70
    32
  0
VERTEX
  8
0
  5
7E3
 10
20.2427
 20
20.9493
 30
0.00000
  70
    32
  0
VERTEX
  8
0
  5
7E4
 10
20.2039
 20
21.0613
 30
0.00000
  70
    32
  0
VERTEX
  8
0
  5
7E5
 10
20.1650
 20
21.1732
 30
0.00000
  70
    32
  0
VERTEX
  8
0
  5
7E6
 10
20.1259
 20
21.2851
 30
0.00000
  70
    32
  0
VERTEX
  8
0
  5
7E7
 10
20.0868
 20
21.3969
 30
0.00000
  70
    32
  0
VERTEX
  8
0
  5
7E8
 10
20.0474
 20
21.5087
 30
0.00000
  70
    32
  0
VERTEX
  8
0
  5
7E9
 10
20.0079
 20
21.6204
 30
0.00000
  70
    32
  0
VERTEX
  8
0
  5
7EA
 10
19.9683
 20
21.7321
 30
0.00000
  70
    32
  0
VERTEX
  8
0
  5
7EB
 10
19.9286
 20
21.8438
 30
0.00000
  70
    32
  0
VERTEX
  8
0
  5
7EC
 10
19.8887
 20
21.9554
 30
0.00000
  70
    32
  0
VERTEX
  8
0
  5
7ED
 10
19.8487
 20
22.0669
 30
0.00000
  70
    32
  0
VERTEX
  8
0
  5
7EE
 10
19.8085
 20
22.1784
 30
0.00000
  70
    32
  0
VERTEX
  8
0
  5
7EF
 10
19.7682
 20
22.2899
 30
0.00000
  70
    32
  0
VERTEX
  8
0
  5
7F0
 10
19.7278
 20
22.4013
 30
0.00000
  70
    32
  0
VERTEX
  8
0
  5
7F1
 10
19.6873
 20
22.5127
 30
0.00000
  70
    32
  0
VERTEX
  8
0
  5
7F2
 10
19.6466
 20
22.6240
 30
0.00000
  70
    32
  0
VERTEX
  8
0
  5
7F3
 10
19.6058
 20
22.7353
 30
0.00000
  70
    32
  0
VERTEX
  8
0
  5
7F4
 10
19.5649
 20
22.8466
 30
0.00000
  70
    32
  0
VERTEX
  8
0
  5
7F5
 10
19.5238
 20
22.9578
 30
0.00000
  70
    32
  0
VERTEX
  8
0
  5
7F6
 10
19.4827
 20
23.0689
 30
0.00000
  70
    32
  0
VERTEX
  8
0
  5
7F7
 10
19.4414
 20
23.1801
 30
0.00000
  70
    32
  0
VERTEX
  8
0
  5
7F8
 10
19.4000
 20
23.2911
 30
0.00000
  70
    32
  0
VERTEX
  8
0
  5
7F9
 10
19.3584
 20
23.4022
 30
0.00000
  70
    32
  0
VERTEX
  8
0
  5
7FA
 10
19.3168
 20
23.5132
 30
0.00000
  70
    32
  0
VERTEX
  8
0
  5
7FB
 10
19.2750
 20
23.6241
 30
0.00000
  70
    32
  0
VERTEX
  8
0
  5
7FC
 10
19.2331
 20
23.7350
 30
0.00000
  70
    32
  0
VERTEX
  8
0
  5
7FD
 10
19.1911
 20
23.8459
 30
0.00000
  70
    32
  0
VERTEX
  8
0
  5
7FE
 10
19.1490
 20
23.9567
 30
0.00000
  70
    32
  0
VERTEX
  8
0
  5
7FF
 10
19.1068
 20
24.0675
 30
0.00000
  70
    32
  0
VERTEX
  8
0
  5
800
 10
19.0645
 20
24.1782
 30
0.00000
  70
    32
  0
VERTEX
  8
0
  5
801
 10
19.0221
 20
24.2889
 30
0.00000
  70
    32
  0
VERTEX
  8
0
  5
802
 10
18.9795
 20
24.3995
 30
0.00000
  70
    32
  0
VERTEX
  8
0
  5
803
 10
18.9369
 20
24.5102
 30
0.00000
  70
    32
  0
VERTEX
  8
0
  5
804
 10
18.8942
 20
24.6207
 30
0.00000
  70
    32
  0
VERTEX
  8
0
  5
805
 10
18.8513
 20
24.7313
 30
0.00000
  70
    32
  0
VERTEX
  8
0
  5
806
 10
18.8084
 20
24.8417
 30
0.00000
  70
    32
  0
VERTEX
  8
0
  5
807
 10
18.7653
 20
24.9522
 30
0.00000
  70
    32
  0
VERTEX
  8
0
  5
808
 10
18.7222
 20
25.0626
 30
0.00000
  70
    32
  0
VERTEX
  8
0
  5
809
 10
18.6789
 20
25.1730
 30
0.00000
  70
    32
  0
VERTEX
  8
0
  5
80A
 10
18.6356
 20
25.2833
 30
0.00000
  70
    32
  0
VERTEX
  8
0
  5
80B
 10
18.5922
 20
25.3936
 30
0.00000
  70
    32
  0
VERTEX
  8
0
  5
80C
 10
18.5486
 20
25.5038
 30
0.00000
  70
    32
  0
VERTEX
  8
0
  5
80D
 10
18.5050
 20
25.6140
 30
0.00000
  70
    32
  0
VERTEX
  8
0
  5
80E
 10
18.4613
 20
25.7242
 30
0.00000
  70
    32
  0
VERTEX
  8
0
  5
80F
 10
18.4175
 20
25.8343
 30
0.00000
  70
    32
  0
VERTEX
  8
0
  5
810
 10
18.3736
 20
25.9444
 30
0.00000
  70
    32
  0
VERTEX
  8
0
  5
811
 10
18.3296
 20
26.0545
 30
0.00000
  70
    32
  0
VERTEX
  8
0
  5
812
 10
18.2855
 20
26.1645
 30
0.00000
  70
    32
  0
VERTEX
  8
0
  5
813
 10
18.2413
 20
26.2745
 30
0.00000
  70
    32
  0
VERTEX
  8
0
  5
814
 10
18.1971
 20
26.3844
 30
0.00000
  70
    32
  0
VERTEX
  8
0
  5
815
 10
18.1527
 20
26.4943
 30
0.00000
  70
    32
  0
VERTEX
  8
0
  5
816
 10
18.1082
 20
26.6041
 30
0.00000
  70
    32
  0
VERTEX
  8
0
  5
817
 10
18.0637
 20
26.7139
 30
0.00000
  70
    32
  0
VERTEX
  8
0
  5
818
 10
18.0190
 20
26.8237
 30
0.00000
  70
    32
  0
VERTEX
  8
0
  5
819
 10
17.9743
 20
26.9334
 30
0.00000
  70
    32
  0
VERTEX
  8
0
  5
81A
 10
17.9295
 20
27.0431
 30
0.00000
  70
    32
  0
VERTEX
  8
0
  5
81B
 10
17.8845
 20
27.1528
 30
0.00000
  70
    32
  0
VERTEX
  8
0
  5
81C
 10
17.8395
 20
27.2624
 30
0.00000
  70
    32
  0
VERTEX
  8
0
  5
81D
 10
17.7944
 20
27.3719
 30
0.00000
  70
    32
  0
VERTEX
  8
0
  5
81E
 10
17.7492
 20
27.4814
 30
0.00000
  70
    32
  0
VERTEX
  8
0
  5
81F
 10
17.7039
 20
27.5909
 30
0.00000
  70
    32
  0
VERTEX
  8
0
  5
820
 10
17.6585
 20
27.7004
 30
0.00000
  70
    32
  0
VERTEX
  8
0
  5
821
 10
17.6130
 20
27.8098
 30
0.00000
  70
    32
  0
VERTEX
  8
0
  5
822
 10
17.5674
 20
27.9191
 30
0.00000
  70
    32
  0
VERTEX
  8
0
  5
823
 10
17.5217
 20
28.0284
 30
0.00000
  70
    32
  0
VERTEX
  8
0
  5
824
 10
17.4760
 20
28.1377
 30
0.00000
  70
    32
  0
VERTEX
  8
0
  5
825
 10
17.4301
 20
28.2469
 30
0.00000
  70
    32
  0
VERTEX
  8
0
  5
826
 10
17.3841
 20
28.3561
 30
0.00000
  70
    32
  0
VERTEX
  8
0
  5
827
 10
17.3381
 20
28.4653
 30
0.00000
  70
    32
  0
VERTEX
  8
0
  5
828
 10
17.2919
 20
28.5744
 30
0.00000
  70
    32
  0
VERTEX
  8
0
  5
829
 10
17.2457
 20
28.6834
 30
0.00000
  70
    32
  0
VERTEX
  8
0
  5
82A
 10
17.1993
 20
28.7924
 30
0.00000
  70
    32
  0
VERTEX
  8
0
  5
82B
 10
17.1529
 20
28.9014
 30
0.00000
  70
    32
  0
VERTEX
  8
0
  5
82C
 10
17.1064
 20
29.0104
 30
0.00000
  70
    32
  0
VERTEX
  8
0
  5
82D
 10
17.0597
 20
29.1192
 30
0.00000
  70
    32
  0
VERTEX
  8
0
  5
82E
 10
17.0130
 20
29.2281
 30
0.00000
  70
    32
  0
VERTEX
  8
0
  5
82F
 10
16.9662
 20
29.3369
 30
0.00000
  70
    32
  0
VERTEX
  8
0
  5
830
 10
16.9193
 20
29.4457
 30
0.00000
  70
    32
  0
VERTEX
  8
0
  5
831
 10
16.8723
 20
29.5544
 30
0.00000
  70
    32
  0
VERTEX
  8
0
  5
832
 10
16.8252
 20
29.6631
 30
0.00000
  70
    32
  0
VERTEX
  8
0
  5
833
 10
16.7780
 20
29.7717
 30
0.00000
  70
    32
  0
VERTEX
  8
0
  5
834
 10
16.7307
 20
29.8803
 30
0.00000
  70
    32
  0
VERTEX
  8
0
  5
835
 10
16.6833
 20
29.9888
 30
0.00000
  70
    32
  0
VERTEX
  8
0
  5
836
 10
16.6358
 20
30.0973
 30
0.00000
  70
    32
  0
VERTEX
  8
0
  5
837
 10
16.5883
 20
30.2058
 30
0.00000
  70
    32
  0
VERTEX
  8
0
  5
838
 10
16.5406
 20
30.3142
 30
0.00000
  70
    32
  0
VERTEX
  8
0
  5
839
 10
16.4928
 20
30.4226
 30
0.00000
  70
    32
  0
VERTEX
  8
0
  5
83A
 10
16.4450
 20
30.5309
 30
0.00000
  70
    32
  0
VERTEX
  8
0
  5
83B
 10
16.3970
 20
30.6392
 30
0.00000
  70
    32
  0
VERTEX
  8
0
  5
83C
 10
16.3490
 20
30.7475
 30
0.00000
  70
    32
  0
VERTEX
  8
0
  5
83D
 10
16.3008
 20
30.8557
 30
0.00000
  70
    32
  0
VERTEX
  8
0
  5
83E
 10
16.2526
 20
30.9638
 30
0.00000
  70
    32
  0
VERTEX
  8
0
  5
83F
 10
16.2042
 20
31.0719
 30
0.00000
  70
    32
  0
VERTEX
  8
0
  5
840
 10
16.1558
 20
31.1800
 30
0.00000
  70
    32
  0
VERTEX
  8
0
  5
841
 10
16.1073
 20
31.2880
 30
0.00000
  70
    32
  0
VERTEX
  8
0
  5
842
 10
16.0586
 20
31.3960
 30
0.00000
  70
    32
  0
VERTEX
  8
0
  5
843
 10
16.0099
 20
31.5039
 30
0.00000
  70
    32
  0
VERTEX
  8
0
  5
844
 10
15.9611
 20
31.6118
 30
0.00000
  70
    32
  0
VERTEX
  8
0
  5
845
 10
15.9122
 20
31.7197
 30
0.00000
  70
    32
  0
VERTEX
  8
0
  5
846
 10
15.8632
 20
31.8275
 30
0.00000
  70
    32
  0
VERTEX
  8
0
  5
847
 10
15.8141
 20
31.9352
 30
0.00000
  70
    32
  0
VERTEX
  8
0
  5
848
 10
15.7649
 20
32.0429
 30
0.00000
  70
    32
  0
VERTEX
  8
0
  5
849
 10
15.7156
 20
32.1506
 30
0.00000
  70
    32
  0
VERTEX
  8
0
  5
84A
 10
15.6662
 20
32.2582
 30
0.00000
  70
    32
  0
VERTEX
  8
0
  5
84B
 10
15.6167
 20
32.3658
 30
0.00000
  70
    32
  0
VERTEX
  8
0
  5
84C
 10
15.5671
 20
32.4733
 30
0.00000
  70
    32
  0
VERTEX
  8
0
  5
84D
 10
15.5174
 20
32.5808
 30
0.00000
  70
    32
  0
VERTEX
  8
0
  5
84E
 10
15.4677
 20
32.6883
 30
0.00000
  70
    32
  0
VERTEX
  8
0
  5
84F
 10
15.4178
 20
32.7957
 30
0.00000
  70
    32
  0
VERTEX
  8
0
  5
850
 10
15.3678
 20
32.9030
 30
0.00000
  70
    32
  0
VERTEX
  8
0
  5
851
 10
15.3177
 20
33.0103
 30
0.00000
  70
    32
  0
VERTEX
  8
0
  5
852
 10
15.2676
 20
33.1176
 30
0.00000
  70
    32
  0
VERTEX
  8
0
  5
853
 10
15.2173
 20
33.2248
 30
0.00000
  70
    32
  0
VERTEX
  8
0
  5
854
 10
15.1670
 20
33.3320
 30
0.00000
  70
    32
  0
VERTEX
  8
0
  5
855
 10
15.1165
 20
33.4391
 30
0.00000
  70
    32
  0
VERTEX
  8
0
  5
856
 10
15.0660
 20
33.5462
 30
0.00000
  70
    32
  0
VERTEX
  8
0
  5
857
 10
15.0153
 20
33.6532
 30
0.00000
  70
    32
  0
VERTEX
  8
0
  5
858
 10
14.9646
 20
33.7602
 30
0.00000
  70
    32
  0
VERTEX
  8
0
  5
859
 10
14.9137
 20
33.8671
 30
0.00000
  70
    32
  0
VERTEX
  8
0
  5
85A
 10
14.8628
 20
33.9740
 30
0.00000
  70
    32
  0
VERTEX
  8
0
  5
85B
 10
14.8118
 20
34.0808
 30
0.00000
  70
    32
  0
VERTEX
  8
0
  5
85C
 10
14.7606
 20
34.1876
 30
0.00000
  70
    32
  0
VERTEX
  8
0
  5
85D
 10
14.7094
 20
34.2944
 30
0.00000
  70
    32
  0
VERTEX
  8
0
  5
85E
 10
14.6581
 20
34.4011
 30
0.00000
  70
    32
  0
VERTEX
  8
0
  5
85F
 10
14.6067
 20
34.5078
 30
0.00000
  70
    32
  0
VERTEX
  8
0
  5
860
 10
14.5551
 20
34.6144
 30
0.00000
  70
    32
  0
VERTEX
  8
0
  5
861
 10
14.5035
 20
34.7209
 30
0.00000
  70
    32
  0
VERTEX
  8
0
  5
862
 10
14.4518
 20
34.8274
 30
0.00000
  70
    32
  0
VERTEX
  8
0
  5
863
 10
14.4000
 20
34.9339
 30
0.00000
  70
    32
  0
VERTEX
  8
0
  5
864
 10
14.3481
 20
35.0403
 30
0.00000
  70
    32
  0
VERTEX
  8
0
  5
865
 10
14.2961
 20
35.1467
 30
0.00000
  70
    32
  0
VERTEX
  8
0
  5
866
 10
14.2440
 20
35.2530
 30
0.00000
  70
    32
  0
VERTEX
  8
0
  5
867
 10
14.1918
 20
35.3593
 30
0.00000
  70
    32
  0
VERTEX
  8
0
  5
868
 10
14.1395
 20
35.4655
 30
0.00000
  70
    32
  0
VERTEX
  8
0
  5
869
 10
14.0871
 20
35.5717
 30
0.00000
  70
    32
  0
VERTEX
  8
0
  5
86A
 10
14.0346
 20
35.6779
 30
0.00000
  70
    32
  0
VERTEX
  8
0
  5
86B
 10
13.9820
 20
35.7840
 30
0.00000
  70
    32
  0
VERTEX
  8
0
  5
86C
 10
13.9293
 20
35.8900
 30
0.00000
  70
    32
  0
VERTEX
  8
0
  5
86D
 10
13.8765
 20
35.9960
 30
0.00000
  70
    32
  0
VERTEX
  8
0
  5
86E
 10
13.8237
 20
36.1019
 30
0.00000
  70
    32
  0
VERTEX
  8
0
  5
86F
 10
13.7707
 20
36.2078
 30
0.00000
  70
    32
  0
VERTEX
  8
0
  5
870
 10
13.7176
 20
36.3137
 30
0.00000
  70
    32
  0
VERTEX
  8
0
  5
871
 10
13.6644
 20
36.4195
 30
0.00000
  70
    32
  0
VERTEX
  8
0
  5
872
 10
13.6111
 20
36.5252
 30
0.00000
  70
    32
  0
VERTEX
  8
0
  5
873
 10
13.5578
 20
36.6309
 30
0.00000
  70
    32
  0
VERTEX
  8
0
  5
874
 10
13.5043
 20
36.7366
 30
0.00000
  70
    32
  0
VERTEX
  8
0
  5
875
 10
13.4507
 20
36.8422
 30
0.00000
  70
    32
  0
VERTEX
  8
0
  5
876
 10
13.3971
 20
36.9477
 30
0.00000
  70
    32
  0
VERTEX
  8
0
  5
877
 10
13.3433
 20
37.0533
 30
0.00000
  70
    32
  0
VERTEX
  8
0
  5
878
 10
13.2894
 20
37.1587
 30
0.00000
  70
    32
  0
VERTEX
  8
0
  5
879
 10
13.2355
 20
37.2641
 30
0.00000
  70
    32
  0
VERTEX
  8
0
  5
87A
 10
13.1814
 20
37.3695
 30
0.00000
  70
    32
  0
VERTEX
  8
0
  5
87B
 10
13.1273
 20
37.4748
 30
0.00000
  70
    32
  0
VERTEX
  8
0
  5
87C
 10
13.0730
 20
37.5801
 30
0.00000
  70
    32
  0
VERTEX
  8
0
  5
87D
 10
13.0186
 20
37.6853
 30
0.00000
  70
    32
  0
VERTEX
  8
0
  5
87E
 10
12.9642
 20
37.7904
 30
0.00000
  70
    32
  0
VERTEX
  8
0
  5
87F
 10
12.9096
 20
37.8955
 30
0.00000
  70
    32
  0
VERTEX
  8
0
  5
880
 10
12.8550
 20
38.0006
 30
0.00000
  70
    32
  0
VERTEX
  8
0
  5
881
 10
12.8003
 20
38.1056
 30
0.00000
  70
    32
  0
VERTEX
  8
0
  5
882
 10
12.7454
 20
38.2106
 30
0.00000
  70
    32
  0
VERTEX
  8
0
  5
883
 10
12.6905
 20
38.3155
 30
0.00000
  70
    32
  0
VERTEX
  8
0
  5
884
 10
12.6355
 20
38.4204
 30
0.00000
  70
    32
  0
VERTEX
  8
0
  5
885
 10
12.5803
 20
38.5252
 30
0.00000
  70
    32
  0
VERTEX
  8
0
  5
886
 10
12.5251
 20
38.6300
 30
0.00000
  70
    32
  0
VERTEX
  8
0
  5
887
 10
12.4698
 20
38.7347
 30
0.00000
  70
    32
  0
VERTEX
  8
0
  5
888
 10
12.4144
 20
38.8394
 30
0.00000
  70
    32
  0
VERTEX
  8
0
  5
889
 10
12.3589
 20
38.9440
 30
0.00000
  70
    32
  0
VERTEX
  8
0
  5
88A
 10
12.3032
 20
39.0485
 30
0.00000
  70
    32
  0
VERTEX
  8
0
  5
88B
 10
12.2475
 20
39.1531
 30
0.00000
  70
    32
  0
VERTEX
  8
0
  5
88C
 10
12.1917
 20
39.2575
 30
0.00000
  70
    32
  0
VERTEX
  8
0
  5
88D
 10
12.1358
 20
39.3620
 30
0.00000
  70
    32
  0
VERTEX
  8
0
  5
88E
 10
12.0798
 20
39.4663
 30
0.00000
  70
    32
  0
VERTEX
  8
0
  5
88F
 10
12.0238
 20
39.5706
 30
0.00000
  70
    32
  0
VERTEX
  8
0
  5
890
 10
11.9676
 20
39.6749
 30
0.00000
  70
    32
  0
VERTEX
  8
0
  5
891
 10
11.9113
 20
39.7791
 30
0.00000
  70
    32
  0
VERTEX
  8
0
  5
892
 10
11.8549
 20
39.8833
 30
0.00000
  70
    32
  0
VERTEX
  8
0
  5
893
 10
11.7985
 20
39.9874
 30
0.00000
  70
    32
  0
VERTEX
  8
0
  5
894
 10
11.7419
 20
40.0915
 30
0.00000
  70
    32
  0
VERTEX
  8
0
  5
895
 10
11.6852
 20
40.1955
 30
0.00000
  70
    32
  0
VERTEX
  8
0
  5
896
 10
11.6285
 20
40.2995
 30
0.00000
  70
    32
  0
VERTEX
  8
0
  5
897
 10
11.5716
 20
40.4034
 30
0.00000
  70
    32
  0
VERTEX
  8
0
  5
898
 10
11.5147
 20
40.5073
 30
0.00000
  70
    32
  0
VERTEX
  8
0
  5
899
 10
11.4577
 20
40.6111
 30
0.00000
  70
    32
  0
VERTEX
  8
0
  5
89A
 10
11.4005
 20
40.7149
 30
0.00000
  70
    32
  0
VERTEX
  8
0
  5
89B
 10
11.3433
 20
40.8186
 30
0.00000
  70
    32
  0
VERTEX
  8
0
  5
89C
 10
11.2860
 20
40.9222
 30
0.00000
  70
    32
  0
VERTEX
  8
0
  5
89D
 10
11.2286
 20
41.0259
 30
0.00000
  70
    32
  0
VERTEX
  8
0
  5
89E
 10
11.1711
 20
41.1294
 30
0.00000
  70
    32
  0
VERTEX
  8
0
  5
89F
 10
11.1135
 20
41.2329
 30
0.00000
  70
    32
  0
VERTEX
  8
0
  5
8A0
 10
11.0558
 20
41.3364
 30
0.00000
  70
    32
  0
VERTEX
  8
0
  5
8A1
 10
10.9980
 20
41.4398
 30
0.00000
  70
    32
  0
VERTEX
  8
0
  5
8A2
 10
10.9402
 20
41.5432
 30
0.00000
  70
    32
  0
VERTEX
  8
0
  5
8A3
 10
10.8822
 20
41.6465
 30
0.00000
  70
    32
  0
VERTEX
  8
0
  5
8A4
 10
10.8241
 20
41.7497
 30
0.00000
  70
    32
  0
VERTEX
  8
0
  5
8A5
 10
10.8556
 20
41.9122
 30
0.00000
  70
    32
  0
VERTEX
  8
0
  5
8A6
 10
11.5277
 20
42.4980
 30
0.00000
  70
    32
  0
VERTEX
  8
0
  5
8A7
 10
12.1998
 20
43.0838
 30
0.00000
  70
    32
  0
VERTEX
  8
0
  5
8A8
 10
12.8718
 20
43.6696
 30
0.00000
  70
    32
  0
VERTEX
  8
0
  5
8A9
 10
13.5439
 20
44.2554
 30
0.00000
  70
    32
  0
VERTEX
  8
0
  5
8AA
 10
14.2160
 20
44.8412
 30
0.00000
  70
    32
  0
VERTEX
  8
0
  5
8AB
 10
14.8880
 20
45.4270
 30
0.00000
  70
    32
  0
VERTEX
  8
0
  5
8AC
 10
15.5601
 20
46.0128
 30
0.00000
  70
    32
  0
VERTEX
  8
0
  5
8AD
 10
16.2322
 20
46.5986
 30
0.00000
  70
    32
  0
VERTEX
  8
0
  5
8AE
 10
16.5120
 20
46.8382
 30
0.00000
  70
    32
  0
VERTEX
  8
0
  5
8AF
 10
16.6112
 20
46.9029
 30
0.00000
  70
    32
  0
VERTEX
  8
0
  5
8B0
 10
17.0269
 20
47.1075
 30
0.00000
  70
    32
  0
VERTEX
  8
0
  5
8B1
 10
17.8285
 20
47.4976
 30
0.00000
  70
    32
  0
VERTEX
  8
0
  5
8B2
 10
18.6302
 20
47.8877
 30
0.00000
  70
    32
  0
VERTEX
  8
0
  5
8B3
 10
19.4319
 20
48.2778
 30
0.00000
  70
    32
  0
VERTEX
  8
0
  5
8B4
 10
20.2335
 20
48.6679
 30
0.00000
  70
    32
  0
VERTEX
  8
0
  5
8B5
 10
21.0352
 20
49.0580
 30
0.00000
  70
    32
  0
VERTEX
  8
0
  5
8B6
 10
21.8368
 20
49.4481
 30
0.00000
  70
    32
  0
VERTEX
  8
0
  5
8B7
 10
22.6385
 20
49.8381
 30
0.00000
  70
    32
  0
VERTEX
  8
0
  5
8B8
 10
23.4402
 20
50.2282
 30
0.00000
  70
    32
  0
SEQEND
  8
0
  5
8B9
  0
CIRCLE
  5
1FD
  8
DRILLING
 10
37.3331173995852481
 20
9.2099805112610227
 30
0.0
 40
0.3225
  0
CIRCLE
  5
1FE
  8
DRILLING
 10
43.333117399585241
 20
9.2099805112610227
 30
0.0
 40
0.3225
  0
INSERT
  5
1FF
  8
0
  2
*U5
 10
0.0
 20
0.0
 30
0.0
  0
CIRCLE
  5
200
  8
DRILLING
 10
19.0168608624107804
 20
43.7210017251682928
 30
0.0
 40
0.3224999999999999
  0
CIRCLE
  5
201
  8
DRILLING
 10
22.8372697044944601
 20
39.094504531899112
 30
0.0
 40
0.3224999999999999
  0
ENDSEC
  0
EOF
