  0
SECTION
  2
HEADER
  9
$ACADVER
  1
AC1009
  9
$INSBASE
 10
0.0
 20
0.0
 30
0.0
  9
$EXTMIN
 10
7.327133157822046
 20
4.1448794276404319
 30
0.0
  9
$EXTMAX
 10
101.3271331578220043
 20
50.1448794276404328
 30
0.0
  9
$LIMMIN
 10
0.0
 20
0.0
  9
$LIMMAX
 10
12.0
 20
9.0
  9
$ORTHOMODE
 70
     0
  9
$REGENMODE
 70
     1
  9
$FILLMODE
 70
     1
  9
$QTEXTMODE
 70
     0
  9
$MIRRTEXT
 70
     0
  9
$DRAGMODE
 70
     2
  9
$LTSCALE
 40
1.0
  9
$OSMODE
 70
   303
  9
$ATTMODE
 70
     1
  9
$TEXTSIZE
 40
0.2
  9
$TRACEWID
 40
0.05
  9
$TEXTSTYLE
  7
STANDARD
  9
$CLAYER
  8
0
  9
$CELTYPE
  6
BYLAYER
  9
$CECOLOR
 62
   256
  9
$DIMSCALE
 40
1.0
  9
$DIMASZ
 40
0.18
  9
$DIMEXO
 40
0.0625
  9
$DIMDLI
 40
0.38
  9
$DIMRND
 40
0.0
  9
$DIMDLE
 40
0.0
  9
$DIMEXE
 40
0.18
  9
$DIMTP
 40
0.0
  9
$DIMTM
 40
0.0
  9
$DIMTXT
 40
0.18
  9
$DIMCEN
 40
0.09
  9
$DIMTSZ
 40
0.0
  9
$DIMTOL
 70
     0
  9
$DIMLIM
 70
     0
  9
$DIMTIH
 70
     1
  9
$DIMTOH
 70
     1
  9
$DIMSE1
 70
     0
  9
$DIMSE2
 70
     0
  9
$DIMTAD
 70
     0
  9
$DIMZIN
 70
     0
  9
$DIMBLK
  1

  9
$DIMASO
 70
     1
  9
$DIMSHO
 70
     1
  9
$DIMPOST
  1

  9
$DIMAPOST
  1

  9
$DIMALT
 70
     0
  9
$DIMALTD
 70
     2
  9
$DIMALTF
 40
25.3999999999999986
  9
$DIMLFAC
 40
1.0
  9
$DIMTOFL
 70
     0
  9
$DIMTVP
 40
0.0
  9
$DIMTIX
 70
     0
  9
$DIMSOXD
 70
     0
  9
$DIMSAH
 70
     0
  9
$DIMBLK1
  1

  9
$DIMBLK2
  1

  9
$DIMSTYLE
  2
STANDARD
  9
$DIMCLRD
 70
     0
  9
$DIMCLRE
 70
     0
  9
$DIMCLRT
 70
     0
  9
$DIMTFAC
 40
1.0
  9
$DIMGAP
 40
0.09
  9
$LUNITS
 70
     2
  9
$LUPREC
 70
     4
  9
$SKETCHINC
 40
0.1
  9
$FILLETRAD
 40
0.0
  9
$AUNITS
 70
     0
  9
$AUPREC
 70
     0
  9
$MENU
  1
.
  9
$ELEVATION
 40
0.0
  9
$PELEVATION
 40
0.0
  9
$THICKNESS
 40
0.0
  9
$LIMCHECK
 70
     0
  9
$BLIPMODE
 70
     0
  9
$CHAMFERA
 40
0.0
  9
$CHAMFERB
 40
0.0
  9
$SKPOLY
 70
     0
  9
$TDCREATE
 40
2457228.6051307981833816
  9
$TDUPDATE
 40
2457228.6053406139835715
  9
$TDINDWG
 40
0.0002151736
  9
$TDUSRTIMER
 40
0.0002150116
  9
$USRTIMER
 70
     1
  9
$ANGBASE
 50
0.0
  9
$ANGDIR
 70
     0
  9
$PDMODE
 70
     0
  9
$PDSIZE
 40
0.0
  9
$PLINEWID
 40
0.0
  9
$COORDS
 70
     1
  9
$SPLFRAME
 70
     0
  9
$SPLINETYPE
 70
     6
  9
$SPLINESEGS
 70
     8
  9
$ATTDIA
 70
     1
  9
$ATTREQ
 70
     1
  9
$HANDLING
 70
     1
  9
$HANDSEED
  5
8BA
  9
$SURFTAB1
 70
     6
  9
$SURFTAB2
 70
     6
  9
$SURFTYPE
 70
     6
  9
$SURFU
 70
     6
  9
$SURFV
 70
     6
  9
$UCSNAME
  2

  9
$UCSORG
 10
0.0
 20
0.0
 30
0.0
  9
$UCSXDIR
 10
1.0
 20
0.0
 30
0.0
  9
$UCSYDIR
 10
0.0
 20
1.0
 30
0.0
  9
$PUCSNAME
  2

  9
$PUCSORG
 10
0.0
 20
0.0
 30
0.0
  9
$PUCSXDIR
 10
1.0
 20
0.0
 30
0.0
  9
$PUCSYDIR
 10
0.0
 20
1.0
 30
0.0
  9
$USERI1
 70
     0
  9
$USERI2
 70
     0
  9
$USERI3
 70
     0
  9
$USERI4
 70
     0
  9
$USERI5
 70
     0
  9
$USERR1
 40
0.0
  9
$USERR2
 40
0.0
  9
$USERR3
 40
0.0
  9
$USERR4
 40
0.0
  9
$USERR5
 40
0.0
  9
$WORLDVIEW
 70
     1
  9
$SHADEDGE
 70
     3
  9
$SHADEDIF
 70
    70
  9
$TILEMODE
 70
     1
  9
$MAXACTVP
 70
    64
  9
$PLIMCHECK
 70
     0
  9
$PEXTMIN
 10
0.0
 20
0.0
 30
0.0
  9
$PEXTMAX
 10
0.0
 20
0.0
 30
0.0
  9
$PLIMMIN
 10
0.0
 20
0.0
  9
$PLIMMAX
 10
12.0
 20
9.0
  9
$UNITMODE
 70
     0
  9
$VISRETAIN
 70
     1
  9
$PLINEGEN
 70
     0
  9
$PSLTSCALE
 70
     1
  0
ENDSEC
  0
SECTION
  2
TABLES
  0
TABLE
  2
VPORT
 70
     1
  0
VPORT
  2
*ACTIVE
 70
     0
 10
0.0
 20
0.0
 11
1.0
 21
1.0
 12
23.4518101673001098
 22
13.1348712842764801
 13
0.0
 23
0.0
 14
0.5
 24
0.5
 15
0.5
 25
0.5
 16
0.0
 26
0.0
 36
1.0
 17
0.0
 27
0.0
 37
0.0
 40
29.2260236050612683
 41
1.6803278688524581
 42
50.0
 43
0.0
 44
0.0
 50
0.0
 51
0.0
 71
     0
 72
  1000
 73
     1
 74
     3
 75
     0
 76
     1
 77
     0
 78
     0
  0
ENDTAB
  0
TABLE
  2
LTYPE
 70
     1
  0
LTYPE
  2
CONTINUOUS
 70
     0
  3
Solid line
 72
    65
 73
     0
 40
0.0
  0
ENDTAB
  0
TABLE
  2
LAYER
 70
     4
  0
LAYER
  2
0
 70
     0
 62
     7
  6
CONTINUOUS
  0
LAYER
  2
DRILLING
 70
     0
 62
     3
  6
CONTINUOUS
  0
LAYER
  2
CUT_SHEET
 70
     0
 62
     1
  6
CONTINUOUS
  0
LAYER
  2
ANNOTATION
 70
     0
 62
     7
  6
CONTINUOUS
  0
ENDTAB
  0
TABLE
  2
STYLE
 70
     3
  0
STYLE
  2
STANDARD
 70
     0
 40
0.0
 41
1.0
 50
0.0
 71
     0
 42
0.2
  3
txt
  4

  0
STYLE
  2
ANNOTATIVE
 70
     0
 40
0.0
 41
1.0
 50
0.0
 71
     0
 42
0.2
  3
txt
  4

  0
STYLE
  2
TW_CEN_MT
 70
     0
 40
0.0
 41
1.0
 50
0.0
 71
     0
 42
0.0
  3
txt
  4

  0
ENDTAB
  0
TABLE
  2
VIEW
 70
     1
  0
ENDTAB
  0
TABLE
  2
UCS
 70
     0
  0
ENDTAB
  0
TABLE
  2
APPID
 70
     9
  0
APPID
  2
ACAD
 70
     0
  0
APPID
  2
ACADANNOPO
 70
     0
  0
APPID
  2
ACADANNOTATIVE
 70
     0
  0
APPID
  2
ACAD_DSTYLE_DIMJAG
 70
     0
  0
APPID
  2
ACAD_DSTYLE_DIMTALN
 70
     0
  0
APPID
  2
ACAD_MLEADERVER
 70
     0
  0
APPID
  2
ACAD_NAV_VCDISPLAY
 70
     0
  0
APPID
  2
ACAECLAYERSTANDARD
 70
     0
  0
APPID
  2
ACCMTRANSPARENCY
 70
     0
  0
ENDTAB
  0
TABLE
  2
DIMSTYLE
 70
     2
  0
DIMSTYLE
  2
STANDARD
 70
     0
  3

  4

  5

  6

  7

 40
1.0
 41
0.18
 42
0.0625
 43
0.38
 44
0.18
 45
0.0
 46
0.0
 47
0.0
 48
0.0
140
0.18
141
0.09
142
0.0
143
25.3999999999999986
144
1.0
145
0.0
146
1.0
147
0.09
 71
     0
 72
     0
 73
     1
 74
     1
 75
     0
 76
     0
 77
     0
 78
     0
170
     0
171
     2
172
     0
173
     0
174
     0
175
     0
176
     0
177
     0
178
     0
  0
DIMSTYLE
  2
ANNOTATIVE
 70
     0
  3

  4

  5

  6

  7

 40
0.0
 41
0.18
 42
0.0625
 43
0.38
 44
0.18
 45
0.0
 46
0.0
 47
0.0
 48
0.0
140
0.18
141
0.09
142
0.0
143
25.3999999999999986
144
1.0
145
0.0
146
1.0
147
0.09
 71
     0
 72
     0
 73
     1
 74
     1
 75
     0
 76
     0
 77
     0
 78
     0
170
     0
171
     2
172
     0
173
     0
174
     0
175
     0
176
     0
177
     0
178
     0
  0
ENDTAB
  0
ENDSEC
  0
SECTION
  2
BLOCKS
  0
BLOCK
  8
0
  2
$MODEL_SPACE
 70
     0
 10
0.0
 20
0.0
 30
0.0
  3
$MODEL_SPACE
  1

  0
ENDBLK
  5
21
  8
0
  0
BLOCK
 67
     1
  8
0
  2
$PAPER_SPACE
 70
     0
 10
0.0
 20
0.0
 30
0.0
  3
$PAPER_SPACE
  1

  0
ENDBLK
  5
5B
 67
     1
  8
0
  0
BLOCK
  8
0
  2
*U2
 70
     1
 10
0.0
 20
0.0
 30
0.0
  3
*U2
  1

  0
TEXT
  5
262
  8
ANNOTATION
 62
     7
 10
62.4026634553922506
 20
14.8772182031756302
 30
0.0
 40
4.1481299999999992
  1
G.10
 50
8.5973726967421431
  7
TW_CEN_MT
  0
ENDBLK
  5
264
  8
0
  0
BLOCK
  8
0
  2
*U3
 70
     1
 10
0.0
 20
0.0
 30
0.0
  3
*U3
  1

  0
TEXT
  5
266
  8
ANNOTATION
 62
     7
 10
24.1653611401573016
 20
14.6248511968436805
 30
0.0
 40
4.1481299999999992
  1
G.10
 50
8.5973726967421431
  7
TW_CEN_MT
  0
ENDBLK
  5
268
  8
0
  0
BLOCK
  8
0
  2
*U4
 70
     1
 10
0.0
 20
0.0
 30
0.0
  3
*U4
  1

  0
TEXT
  5
26F
  8
ANNOTATION
 62
     7
 10
69.7297968478391539
 20
19.0220962665101183
 30
0.0
 40
4.1481299999999992
  1
G.10
 50
8.5973726967421431
  7
TW_CEN_MT
  0
ENDBLK
  5
271
  8
0
  0
BLOCK
  8
0
  2
*U5
 70
     1
 10
0.0
 20
0.0
 30
0.0
  3
*U5
  1

  0
TEXT
  5
273
  8
ANNOTATION
 62
     7
 10
31.4924945326042014
 20
18.7697292601781704
 30
0.0
 40
4.1481299999999992
  1
G.10
 50
8.5973726967421431
  7
TW_CEN_MT
  0
ENDBLK
  5
275
  8
0
  0
ENDSEC
  0
SECTION
  2
ENTITIES
  0
POLYLINE
  5
1F5
  8
CUT_SHEET
 66
     1
 10
0.0
 20
0.0
 30
0.0
 70
     1
  0
VERTEX
  5
269
  8
CUT_SHEET
 10
7.327133157822046
 20
50.1448794276404328
 30
0.0
  0
VERTEX
  5
26A
  8
CUT_SHEET
 10
7.327133157822046
 20
4.1448794276404319
 30
0.0
  0
VERTEX
  5
26B
  8
CUT_SHEET
 10
101.3271331578220043
 20
4.1448794276404319
 30
0.0
  0
VERTEX
  5
26C
  8
CUT_SHEET
 10
101.3271331578220043
 20
50.1448794276404328
 30
0.0
  0
SEQEND
  5
26D
  8
CUT_SHEET
  0
POLYLINE
  8
0
  5
276
  66
     1
 10
0.00000
 20
0.00000
 30
0.00000
  70
     8
  0
VERTEX
  8
0
  5
277
 10
58.2244
 20
49.5400
 30
0.00000
  70
    32
  0
VERTEX
  8
0
  5
278
 10
58.3252
 20
49.4652
 30
0.00000
  70
    32
  0
VERTEX
  8
0
  5
279
 10
58.4259
 20
49.3904
 30
0.00000
  70
    32
  0
VERTEX
  8
0
  5
27A
 10
58.5266
 20
49.3155
 30
0.00000
  70
    32
  0
VERTEX
  8
0
  5
27B
 10
58.6273
 20
49.2406
 30
0.00000
  70
    32
  0
VERTEX
  8
0
  5
27C
 10
58.7279
 20
49.1656
 30
0.00000
  70
    32
  0
VERTEX
  8
0
  5
27D
 10
58.8284
 20
49.0906
 30
0.00000
  70
    32
  0
VERTEX
  8
0
  5
27E
 10
58.9290
 20
49.0155
 30
0.00000
  70
    32
  0
VERTEX
  8
0
  5
27F
 10
59.0295
 20
48.9404
 30
0.00000
  70
    32
  0
VERTEX
  8
0
  5
280
 10
59.1300
 20
48.8652
 30
0.00000
  70
    32
  0
VERTEX
  8
0
  5
281
 10
59.2304
 20
48.7899
 30
0.00000
  70
    32
  0
VERTEX
  8
0
  5
282
 10
59.3308
 20
48.7147
 30
0.00000
  70
    32
  0
VERTEX
  8
0
  5
283
 10
59.4311
 20
48.6393
 30
0.00000
  70
    32
  0
VERTEX
  8
0
  5
284
 10
59.5314
 20
48.5640
 30
0.00000
  70
    32
  0
VERTEX
  8
0
  5
285
 10
59.6317
 20
48.4885
 30
0.00000
  70
    32
  0
VERTEX
  8
0
  5
286
 10
59.7319
 20
48.4130
 30
0.00000
  70
    32
  0
VERTEX
  8
0
  5
287
 10
59.8321
 20
48.3375
 30
0.00000
  70
    32
  0
VERTEX
  8
0
  5
288
 10
59.9323
 20
48.2619
 30
0.00000
  70
    32
  0
VERTEX
  8
0
  5
289
 10
60.0324
 20
48.1863
 30
0.00000
  70
    32
  0
VERTEX
  8
0
  5
28A
 10
60.1325
 20
48.1106
 30
0.00000
  70
    32
  0
VERTEX
  8
0
  5
28B
 10
60.2326
 20
48.0349
 30
0.00000
  70
    32
  0
VERTEX
  8
0
  5
28C
 10
60.3326
 20
47.9591
 30
0.00000
  70
    32
  0
VERTEX
  8
0
  5
28D
 10
60.4325
 20
47.8832
 30
0.00000
  70
    32
  0
VERTEX
  8
0
  5
28E
 10
60.5325
 20
47.8074
 30
0.00000
  70
    32
  0
VERTEX
  8
0
  5
28F
 10
60.6324
 20
47.7314
 30
0.00000
  70
    32
  0
VERTEX
  8
0
  5
290
 10
60.7322
 20
47.6554
 30
0.00000
  70
    32
  0
VERTEX
  8
0
  5
291
 10
60.8320
 20
47.5794
 30
0.00000
  70
    32
  0
VERTEX
  8
0
  5
292
 10
60.9318
 20
47.5033
 30
0.00000
  70
    32
  0
VERTEX
  8
0
  5
293
 10
61.0315
 20
47.4272
 30
0.00000
  70
    32
  0
VERTEX
  8
0
  5
294
 10
61.1312
 20
47.3510
 30
0.00000
  70
    32
  0
VERTEX
  8
0
  5
295
 10
61.2309
 20
47.2747
 30
0.00000
  70
    32
  0
VERTEX
  8
0
  5
296
 10
61.3305
 20
47.1984
 30
0.00000
  70
    32
  0
VERTEX
  8
0
  5
297
 10
61.4301
 20
47.1221
 30
0.00000
  70
    32
  0
VERTEX
  8
0
  5
298
 10
61.5296
 20
47.0457
 30
0.00000
  70
    32
  0
VERTEX
  8
0
  5
299
 10
61.6291
 20
46.9693
 30
0.00000
  70
    32
  0
VERTEX
  8
0
  5
29A
 10
61.7286
 20
46.8928
 30
0.00000
  70
    32
  0
VERTEX
  8
0
  5
29B
 10
61.8280
 20
46.8162
 30
0.00000
  70
    32
  0
VERTEX
  8
0
  5
29C
 10
61.9274
 20
46.7396
 30
0.00000
  70
    32
  0
VERTEX
  8
0
  5
29D
 10
62.0268
 20
46.6630
 30
0.00000
  70
    32
  0
VERTEX
  8
0
  5
29E
 10
62.1261
 20
46.5863
 30
0.00000
  70
    32
  0
VERTEX
  8
0
  5
29F
 10
62.2254
 20
46.5096
 30
0.00000
  70
    32
  0
VERTEX
  8
0
  5
2A0
 10
62.3246
 20
46.4328
 30
0.00000
  70
    32
  0
VERTEX
  8
0
  5
2A1
 10
62.4238
 20
46.3559
 30
0.00000
  70
    32
  0
VERTEX
  8
0
  5
2A2
 10
62.5229
 20
46.2790
 30
0.00000
  70
    32
  0
VERTEX
  8
0
  5
2A3
 10
62.6221
 20
46.2021
 30
0.00000
  70
    32
  0
VERTEX
  8
0
  5
2A4
 10
62.7211
 20
46.1251
 30
0.00000
  70
    32
  0
VERTEX
  8
0
  5
2A5
 10
62.8202
 20
46.0480
 30
0.00000
  70
    32
  0
VERTEX
  8
0
  5
2A6
 10
62.9192
 20
45.9709
 30
0.00000
  70
    32
  0
VERTEX
  8
0
  5
2A7
 10
63.0181
 20
45.8938
 30
0.00000
  70
    32
  0
VERTEX
  8
0
  5
2A8
 10
63.1170
 20
45.8166
 30
0.00000
  70
    32
  0
VERTEX
  8
0
  5
2A9
 10
63.2159
 20
45.7393
 30
0.00000
  70
    32
  0
VERTEX
  8
0
  5
2AA
 10
63.3148
 20
45.6621
 30
0.00000
  70
    32
  0
VERTEX
  8
0
  5
2AB
 10
63.4136
 20
45.5847
 30
0.00000
  70
    32
  0
VERTEX
  8
0
  5
2AC
 10
63.5123
 20
45.5073
 30
0.00000
  70
    32
  0
VERTEX
  8
0
  5
2AD
 10
63.6111
 20
45.4299
 30
0.00000
  70
    32
  0
VERTEX
  8
0
  5
2AE
 10
63.7097
 20
45.3524
 30
0.00000
  70
    32
  0
VERTEX
  8
0
  5
2AF
 10
63.8084
 20
45.2748
 30
0.00000
  70
    32
  0
VERTEX
  8
0
  5
2B0
 10
63.9070
 20
45.1972
 30
0.00000
  70
    32
  0
VERTEX
  8
0
  5
2B1
 10
64.0056
 20
45.1196
 30
0.00000
  70
    32
  0
VERTEX
  8
0
  5
2B2
 10
64.1041
 20
45.0418
 30
0.00000
  70
    32
  0
VERTEX
  8
0
  5
2B3
 10
64.2026
 20
44.9641
 30
0.00000
  70
    32
  0
VERTEX
  8
0
  5
2B4
 10
64.3010
 20
44.8863
 30
0.00000
  70
    32
  0
VERTEX
  8
0
  5
2B5
 10
64.3994
 20
44.8084
 30
0.00000
  70
    32
  0
VERTEX
  8
0
  5
2B6
 10
64.4978
 20
44.7305
 30
0.00000
  70
    32
  0
VERTEX
  8
0
  5
2B7
 10
64.5961
 20
44.6526
 30
0.00000
  70
    32
  0
VERTEX
  8
0
  5
2B8
 10
64.6944
 20
44.5746
 30
0.00000
  70
    32
  0
VERTEX
  8
0
  5
2B9
 10
64.7926
 20
44.4965
 30
0.00000
  70
    32
  0
VERTEX
  8
0
  5
2BA
 10
64.8909
 20
44.4184
 30
0.00000
  70
    32
  0
VERTEX
  8
0
  5
2BB
 10
64.9890
 20
44.3403
 30
0.00000
  70
    32
  0
VERTEX
  8
0
  5
2BC
 10
65.0872
 20
44.2621
 30
0.00000
  70
    32
  0
VERTEX
  8
0
  5
2BD
 10
65.1852
 20
44.1838
 30
0.00000
  70
    32
  0
VERTEX
  8
0
  5
2BE
 10
65.2833
 20
44.1055
 30
0.00000
  70
    32
  0
VERTEX
  8
0
  5
2BF
 10
65.3813
 20
44.0272
 30
0.00000
  70
    32
  0
VERTEX
  8
0
  5
2C0
 10
65.4793
 20
43.9488
 30
0.00000
  70
    32
  0
VERTEX
  8
0
  5
2C1
 10
65.5772
 20
43.8703
 30
0.00000
  70
    32
  0
VERTEX
  8
0
  5
2C2
 10
65.6751
 20
43.7918
 30
0.00000
  70
    32
  0
VERTEX
  8
0
  5
2C3
 10
65.7729
 20
43.7132
 30
0.00000
  70
    32
  0
VERTEX
  8
0
  5
2C4
 10
65.8707
 20
43.6346
 30
0.00000
  70
    32
  0
VERTEX
  8
0
  5
2C5
 10
65.9685
 20
43.5560
 30
0.00000
  70
    32
  0
VERTEX
  8
0
  5
2C6
 10
66.0662
 20
43.4773
 30
0.00000
  70
    32
  0
VERTEX
  8
0
  5
2C7
 10
66.1639
 20
43.3985
 30
0.00000
  70
    32
  0
VERTEX
  8
0
  5
2C8
 10
66.2616
 20
43.3197
 30
0.00000
  70
    32
  0
VERTEX
  8
0
  5
2C9
 10
66.3592
 20
43.2408
 30
0.00000
  70
    32
  0
VERTEX
  8
0
  5
2CA
 10
66.4567
 20
43.1619
 30
0.00000
  70
    32
  0
VERTEX
  8
0
  5
2CB
 10
66.5543
 20
43.0830
 30
0.00000
  70
    32
  0
VERTEX
  8
0
  5
2CC
 10
66.6518
 20
43.0040
 30
0.00000
  70
    32
  0
VERTEX
  8
0
  5
2CD
 10
66.7492
 20
42.9249
 30
0.00000
  70
    32
  0
VERTEX
  8
0
  5
2CE
 10
66.8466
 20
42.8458
 30
0.00000
  70
    32
  0
VERTEX
  8
0
  5
2CF
 10
66.9440
 20
42.7667
 30
0.00000
  70
    32
  0
VERTEX
  8
0
  5
2D0
 10
67.0413
 20
42.6874
 30
0.00000
  70
    32
  0
VERTEX
  8
0
  5
2D1
 10
67.1386
 20
42.6082
 30
0.00000
  70
    32
  0
VERTEX
  8
0
  5
2D2
 10
67.2358
 20
42.5289
 30
0.00000
  70
    32
  0
VERTEX
  8
0
  5
2D3
 10
67.3330
 20
42.4495
 30
0.00000
  70
    32
  0
VERTEX
  8
0
  5
2D4
 10
67.4302
 20
42.3701
 30
0.00000
  70
    32
  0
VERTEX
  8
0
  5
2D5
 10
67.5273
 20
42.2907
 30
0.00000
  70
    32
  0
VERTEX
  8
0
  5
2D6
 10
67.6244
 20
42.2111
 30
0.00000
  70
    32
  0
VERTEX
  8
0
  5
2D7
 10
67.7214
 20
42.1316
 30
0.00000
  70
    32
  0
VERTEX
  8
0
  5
2D8
 10
67.8184
 20
42.0520
 30
0.00000
  70
    32
  0
VERTEX
  8
0
  5
2D9
 10
67.9154
 20
41.9723
 30
0.00000
  70
    32
  0
VERTEX
  8
0
  5
2DA
 10
68.0123
 20
41.8926
 30
0.00000
  70
    32
  0
VERTEX
  8
0
  5
2DB
 10
68.1092
 20
41.8129
 30
0.00000
  70
    32
  0
VERTEX
  8
0
  5
2DC
 10
68.2060
 20
41.7331
 30
0.00000
  70
    32
  0
VERTEX
  8
0
  5
2DD
 10
68.3028
 20
41.6532
 30
0.00000
  70
    32
  0
VERTEX
  8
0
  5
2DE
 10
68.3996
 20
41.5733
 30
0.00000
  70
    32
  0
VERTEX
  8
0
  5
2DF
 10
68.4963
 20
41.4933
 30
0.00000
  70
    32
  0
VERTEX
  8
0
  5
2E0
 10
68.5930
 20
41.4133
 30
0.00000
  70
    32
  0
VERTEX
  8
0
  5
2E1
 10
68.6896
 20
41.3333
 30
0.00000
  70
    32
  0
VERTEX
  8
0
  5
2E2
 10
68.7862
 20
41.2532
 30
0.00000
  70
    32
  0
VERTEX
  8
0
  5
2E3
 10
68.8828
 20
41.1730
 30
0.00000
  70
    32
  0
VERTEX
  8
0
  5
2E4
 10
68.9793
 20
41.0928
 30
0.00000
  70
    32
  0
VERTEX
  8
0
  5
2E5
 10
69.0758
 20
41.0126
 30
0.00000
  70
    32
  0
VERTEX
  8
0
  5
2E6
 10
69.1722
 20
40.9323
 30
0.00000
  70
    32
  0
VERTEX
  8
0
  5
2E7
 10
69.2686
 20
40.8519
 30
0.00000
  70
    32
  0
VERTEX
  8
0
  5
2E8
 10
69.3649
 20
40.7715
 30
0.00000
  70
    32
  0
VERTEX
  8
0
  5
2E9
 10
69.4612
 20
40.6911
 30
0.00000
  70
    32
  0
VERTEX
  8
0
  5
2EA
 10
69.5575
 20
40.6106
 30
0.00000
  70
    32
  0
VERTEX
  8
0
  5
2EB
 10
69.6537
 20
40.5300
 30
0.00000
  70
    32
  0
VERTEX
  8
0
  5
2EC
 10
69.7499
 20
40.4494
 30
0.00000
  70
    32
  0
VERTEX
  8
0
  5
2ED
 10
69.8461
 20
40.3688
 30
0.00000
  70
    32
  0
VERTEX
  8
0
  5
2EE
 10
69.9422
 20
40.2881
 30
0.00000
  70
    32
  0
VERTEX
  8
0
  5
2EF
 10
70.0383
 20
40.2074
 30
0.00000
  70
    32
  0
VERTEX
  8
0
  5
2F0
 10
70.1343
 20
40.1266
 30
0.00000
  70
    32
  0
VERTEX
  8
0
  5
2F1
 10
70.2303
 20
40.0457
 30
0.00000
  70
    32
  0
VERTEX
  8
0
  5
2F2
 10
70.3262
 20
39.9649
 30
0.00000
  70
    32
  0
VERTEX
  8
0
  5
2F3
 10
70.4221
 20
39.8839
 30
0.00000
  70
    32
  0
VERTEX
  8
0
  5
2F4
 10
70.5180
 20
39.8029
 30
0.00000
  70
    32
  0
VERTEX
  8
0
  5
2F5
 10
70.6138
 20
39.7219
 30
0.00000
  70
    32
  0
VERTEX
  8
0
  5
2F6
 10
70.7096
 20
39.6408
 30
0.00000
  70
    32
  0
VERTEX
  8
0
  5
2F7
 10
70.8053
 20
39.5597
 30
0.00000
  70
    32
  0
VERTEX
  8
0
  5
2F8
 10
70.9011
 20
39.4785
 30
0.00000
  70
    32
  0
VERTEX
  8
0
  5
2F9
 10
70.9967
 20
39.3973
 30
0.00000
  70
    32
  0
VERTEX
  8
0
  5
2FA
 10
71.0923
 20
39.3160
 30
0.00000
  70
    32
  0
VERTEX
  8
0
  5
2FB
 10
71.1879
 20
39.2347
 30
0.00000
  70
    32
  0
VERTEX
  8
0
  5
2FC
 10
71.2835
 20
39.1533
 30
0.00000
  70
    32
  0
VERTEX
  8
0
  5
2FD
 10
71.3790
 20
39.0719
 30
0.00000
  70
    32
  0
VERTEX
  8
0
  5
2FE
 10
71.4744
 20
38.9905
 30
0.00000
  70
    32
  0
VERTEX
  8
0
  5
2FF
 10
71.5698
 20
38.9089
 30
0.00000
  70
    32
  0
VERTEX
  8
0
  5
300
 10
71.6652
 20
38.8274
 30
0.00000
  70
    32
  0
VERTEX
  8
0
  5
301
 10
71.7606
 20
38.7458
 30
0.00000
  70
    32
  0
VERTEX
  8
0
  5
302
 10
71.8559
 20
38.6641
 30
0.00000
  70
    32
  0
VERTEX
  8
0
  5
303
 10
71.9511
 20
38.5824
 30
0.00000
  70
    32
  0
VERTEX
  8
0
  5
304
 10
72.0463
 20
38.5007
 30
0.00000
  70
    32
  0
VERTEX
  8
0
  5
305
 10
72.1415
 20
38.4189
 30
0.00000
  70
    32
  0
VERTEX
  8
0
  5
306
 10
72.2366
 20
38.3370
 30
0.00000
  70
    32
  0
VERTEX
  8
0
  5
307
 10
72.3317
 20
38.2551
 30
0.00000
  70
    32
  0
VERTEX
  8
0
  5
308
 10
72.4268
 20
38.1732
 30
0.00000
  70
    32
  0
VERTEX
  8
0
  5
309
 10
72.5218
 20
38.0912
 30
0.00000
  70
    32
  0
VERTEX
  8
0
  5
30A
 10
72.6168
 20
38.0092
 30
0.00000
  70
    32
  0
VERTEX
  8
0
  5
30B
 10
72.7117
 20
37.9271
 30
0.00000
  70
    32
  0
VERTEX
  8
0
  5
30C
 10
72.8066
 20
37.8449
 30
0.00000
  70
    32
  0
VERTEX
  8
0
  5
30D
 10
72.9014
 20
37.7628
 30
0.00000
  70
    32
  0
VERTEX
  8
0
  5
30E
 10
72.9963
 20
37.6805
 30
0.00000
  70
    32
  0
VERTEX
  8
0
  5
30F
 10
73.0910
 20
37.5983
 30
0.00000
  70
    32
  0
VERTEX
  8
0
  5
310
 10
73.1858
 20
37.5159
 30
0.00000
  70
    32
  0
VERTEX
  8
0
  5
311
 10
73.2804
 20
37.4336
 30
0.00000
  70
    32
  0
VERTEX
  8
0
  5
312
 10
73.3751
 20
37.3512
 30
0.00000
  70
    32
  0
VERTEX
  8
0
  5
313
 10
73.4697
 20
37.2687
 30
0.00000
  70
    32
  0
VERTEX
  8
0
  5
314
 10
73.5643
 20
37.1862
 30
0.00000
  70
    32
  0
VERTEX
  8
0
  5
315
 10
73.6588
 20
37.1036
 30
0.00000
  70
    32
  0
VERTEX
  8
0
  5
316
 10
73.7533
 20
37.0210
 30
0.00000
  70
    32
  0
VERTEX
  8
0
  5
317
 10
73.8477
 20
36.9384
 30
0.00000
  70
    32
  0
VERTEX
  8
0
  5
318
 10
73.9421
 20
36.8557
 30
0.00000
  70
    32
  0
VERTEX
  8
0
  5
319
 10
74.0365
 20
36.7729
 30
0.00000
  70
    32
  0
VERTEX
  8
0
  5
31A
 10
74.1308
 20
36.6902
 30
0.00000
  70
    32
  0
VERTEX
  8
0
  5
31B
 10
74.2251
 20
36.6073
 30
0.00000
  70
    32
  0
VERTEX
  8
0
  5
31C
 10
74.3193
 20
36.5244
 30
0.00000
  70
    32
  0
VERTEX
  8
0
  5
31D
 10
74.4135
 20
36.4415
 30
0.00000
  70
    32
  0
VERTEX
  8
0
  5
31E
 10
74.5077
 20
36.3585
 30
0.00000
  70
    32
  0
VERTEX
  8
0
  5
31F
 10
74.6018
 20
36.2755
 30
0.00000
  70
    32
  0
VERTEX
  8
0
  5
320
 10
74.6959
 20
36.1924
 30
0.00000
  70
    32
  0
VERTEX
  8
0
  5
321
 10
74.7899
 20
36.1093
 30
0.00000
  70
    32
  0
VERTEX
  8
0
  5
322
 10
74.8839
 20
36.0262
 30
0.00000
  70
    32
  0
VERTEX
  8
0
  5
323
 10
74.9779
 20
35.9430
 30
0.00000
  70
    32
  0
VERTEX
  8
0
  5
324
 10
75.0718
 20
35.8597
 30
0.00000
  70
    32
  0
VERTEX
  8
0
  5
325
 10
75.1657
 20
35.7764
 30
0.00000
  70
    32
  0
VERTEX
  8
0
  5
326
 10
75.2595
 20
35.6931
 30
0.00000
  70
    32
  0
VERTEX
  8
0
  5
327
 10
75.3533
 20
35.6097
 30
0.00000
  70
    32
  0
VERTEX
  8
0
  5
328
 10
75.4471
 20
35.5262
 30
0.00000
  70
    32
  0
VERTEX
  8
0
  5
329
 10
75.5408
 20
35.4428
 30
0.00000
  70
    32
  0
VERTEX
  8
0
  5
32A
 10
75.6345
 20
35.3592
 30
0.00000
  70
    32
  0
VERTEX
  8
0
  5
32B
 10
75.7281
 20
35.2757
 30
0.00000
  70
    32
  0
VERTEX
  8
0
  5
32C
 10
75.8217
 20
35.1920
 30
0.00000
  70
    32
  0
VERTEX
  8
0
  5
32D
 10
75.9153
 20
35.1084
 30
0.00000
  70
    32
  0
VERTEX
  8
0
  5
32E
 10
76.0088
 20
35.0247
 30
0.00000
  70
    32
  0
VERTEX
  8
0
  5
32F
 10
76.1022
 20
34.9409
 30
0.00000
  70
    32
  0
VERTEX
  8
0
  5
330
 10
76.1957
 20
34.8571
 30
0.00000
  70
    32
  0
VERTEX
  8
0
  5
331
 10
76.2891
 20
34.7732
 30
0.00000
  70
    32
  0
VERTEX
  8
0
  5
332
 10
76.3824
 20
34.6894
 30
0.00000
  70
    32
  0
VERTEX
  8
0
  5
333
 10
76.4757
 20
34.6054
 30
0.00000
  70
    32
  0
VERTEX
  8
0
  5
334
 10
76.5690
 20
34.5214
 30
0.00000
  70
    32
  0
VERTEX
  8
0
  5
335
 10
76.6622
 20
34.4374
 30
0.00000
  70
    32
  0
VERTEX
  8
0
  5
336
 10
76.7554
 20
34.3533
 30
0.00000
  70
    32
  0
VERTEX
  8
0
  5
337
 10
76.8485
 20
34.2692
 30
0.00000
  70
    32
  0
VERTEX
  8
0
  5
338
 10
76.9416
 20
34.1850
 30
0.00000
  70
    32
  0
VERTEX
  8
0
  5
339
 10
77.0347
 20
34.1008
 30
0.00000
  70
    32
  0
VERTEX
  8
0
  5
33A
 10
77.1277
 20
34.0166
 30
0.00000
  70
    32
  0
VERTEX
  8
0
  5
33B
 10
77.2207
 20
33.9323
 30
0.00000
  70
    32
  0
VERTEX
  8
0
  5
33C
 10
77.3137
 20
33.8479
 30
0.00000
  70
    32
  0
VERTEX
  8
0
  5
33D
 10
77.4066
 20
33.7635
 30
0.00000
  70
    32
  0
VERTEX
  8
0
  5
33E
 10
77.4994
 20
33.6791
 30
0.00000
  70
    32
  0
VERTEX
  8
0
  5
33F
 10
77.5922
 20
33.5946
 30
0.00000
  70
    32
  0
VERTEX
  8
0
  5
340
 10
77.6850
 20
33.5101
 30
0.00000
  70
    32
  0
VERTEX
  8
0
  5
341
 10
77.7778
 20
33.4255
 30
0.00000
  70
    32
  0
VERTEX
  8
0
  5
342
 10
77.8705
 20
33.3409
 30
0.00000
  70
    32
  0
VERTEX
  8
0
  5
343
 10
77.9631
 20
33.2562
 30
0.00000
  70
    32
  0
VERTEX
  8
0
  5
344
 10
78.0557
 20
33.1715
 30
0.00000
  70
    32
  0
VERTEX
  8
0
  5
345
 10
78.1483
 20
33.0868
 30
0.00000
  70
    32
  0
VERTEX
  8
0
  5
346
 10
78.2408
 20
33.0020
 30
0.00000
  70
    32
  0
VERTEX
  8
0
  5
347
 10
78.3333
 20
32.9171
 30
0.00000
  70
    32
  0
VERTEX
  8
0
  5
348
 10
78.4258
 20
32.8323
 30
0.00000
  70
    32
  0
VERTEX
  8
0
  5
349
 10
78.5182
 20
32.7473
 30
0.00000
  70
    32
  0
VERTEX
  8
0
  5
34A
 10
78.6106
 20
32.6624
 30
0.00000
  70
    32
  0
VERTEX
  8
0
  5
34B
 10
78.7029
 20
32.5773
 30
0.00000
  70
    32
  0
VERTEX
  8
0
  5
34C
 10
78.7952
 20
32.4923
 30
0.00000
  70
    32
  0
VERTEX
  8
0
  5
34D
 10
78.8875
 20
32.4072
 30
0.00000
  70
    32
  0
VERTEX
  8
0
  5
34E
 10
78.9797
 20
32.3220
 30
0.00000
  70
    32
  0
VERTEX
  8
0
  5
34F
 10
79.0718
 20
32.2368
 30
0.00000
  70
    32
  0
VERTEX
  8
0
  5
350
 10
79.1640
 20
32.1516
 30
0.00000
  70
    32
  0
VERTEX
  8
0
  5
351
 10
79.2560
 20
32.0663
 30
0.00000
  70
    32
  0
VERTEX
  8
0
  5
352
 10
79.3481
 20
31.9810
 30
0.00000
  70
    32
  0
VERTEX
  8
0
  5
353
 10
79.4401
 20
31.8956
 30
0.00000
  70
    32
  0
VERTEX
  8
0
  5
354
 10
79.5321
 20
31.8102
 30
0.00000
  70
    32
  0
VERTEX
  8
0
  5
355
 10
79.6240
 20
31.7247
 30
0.00000
  70
    32
  0
VERTEX
  8
0
  5
356
 10
79.7159
 20
31.6392
 30
0.00000
  70
    32
  0
VERTEX
  8
0
  5
357
 10
79.8077
 20
31.5537
 30
0.00000
  70
    32
  0
VERTEX
  8
0
  5
358
 10
79.8995
 20
31.4681
 30
0.00000
  70
    32
  0
VERTEX
  8
0
  5
359
 10
79.9913
 20
31.3825
 30
0.00000
  70
    32
  0
VERTEX
  8
0
  5
35A
 10
80.0830
 20
31.2968
 30
0.00000
  70
    32
  0
VERTEX
  8
0
  5
35B
 10
80.1747
 20
31.2111
 30
0.00000
  70
    32
  0
VERTEX
  8
0
  5
35C
 10
80.2663
 20
31.1253
 30
0.00000
  70
    32
  0
VERTEX
  8
0
  5
35D
 10
80.3579
 20
31.0395
 30
0.00000
  70
    32
  0
VERTEX
  8
0
  5
35E
 10
80.4495
 20
30.9537
 30
0.00000
  70
    32
  0
VERTEX
  8
0
  5
35F
 10
80.5410
 20
30.8678
 30
0.00000
  70
    32
  0
VERTEX
  8
0
  5
360
 10
80.6325
 20
30.7818
 30
0.00000
  70
    32
  0
VERTEX
  8
0
  5
361
 10
80.7239
 20
30.6959
 30
0.00000
  70
    32
  0
VERTEX
  8
0
  5
362
 10
80.8153
 20
30.6098
 30
0.00000
  70
    32
  0
VERTEX
  8
0
  5
363
 10
80.9067
 20
30.5238
 30
0.00000
  70
    32
  0
VERTEX
  8
0
  5
364
 10
80.9980
 20
30.4377
 30
0.00000
  70
    32
  0
VERTEX
  8
0
  5
365
 10
81.0893
 20
30.3515
 30
0.00000
  70
    32
  0
VERTEX
  8
0
  5
366
 10
81.1805
 20
30.2653
 30
0.00000
  70
    32
  0
VERTEX
  8
0
  5
367
 10
81.2717
 20
30.1791
 30
0.00000
  70
    32
  0
VERTEX
  8
0
  5
368
 10
81.3629
 20
30.0928
 30
0.00000
  70
    32
  0
VERTEX
  8
0
  5
369
 10
81.4540
 20
30.0065
 30
0.00000
  70
    32
  0
VERTEX
  8
0
  5
36A
 10
81.5450
 20
29.9201
 30
0.00000
  70
    32
  0
VERTEX
  8
0
  5
36B
 10
81.6361
 20
29.8337
 30
0.00000
  70
    32
  0
VERTEX
  8
0
  5
36C
 10
81.7271
 20
29.7472
 30
0.00000
  70
    32
  0
VERTEX
  8
0
  5
36D
 10
81.8180
 20
29.6607
 30
0.00000
  70
    32
  0
VERTEX
  8
0
  5
36E
 10
81.9089
 20
29.5742
 30
0.00000
  70
    32
  0
VERTEX
  8
0
  5
36F
 10
81.9998
 20
29.4876
 30
0.00000
  70
    32
  0
VERTEX
  8
0
  5
370
 10
82.0906
 20
29.4010
 30
0.00000
  70
    32
  0
VERTEX
  8
0
  5
371
 10
82.1814
 20
29.3143
 30
0.00000
  70
    32
  0
VERTEX
  8
0
  5
372
 10
82.2721
 20
29.2276
 30
0.00000
  70
    32
  0
VERTEX
  8
0
  5
373
 10
82.3629
 20
29.1409
 30
0.00000
  70
    32
  0
VERTEX
  8
0
  5
374
 10
82.4535
 20
29.0541
 30
0.00000
  70
    32
  0
VERTEX
  8
0
  5
375
 10
82.5441
 20
28.9673
 30
0.00000
  70
    32
  0
VERTEX
  8
0
  5
376
 10
82.6347
 20
28.8804
 30
0.00000
  70
    32
  0
VERTEX
  8
0
  5
377
 10
82.7253
 20
28.7935
 30
0.00000
  70
    32
  0
VERTEX
  8
0
  5
378
 10
82.8158
 20
28.7065
 30
0.00000
  70
    32
  0
VERTEX
  8
0
  5
379
 10
82.9062
 20
28.6195
 30
0.00000
  70
    32
  0
VERTEX
  8
0
  5
37A
 10
82.9966
 20
28.5324
 30
0.00000
  70
    32
  0
VERTEX
  8
0
  5
37B
 10
83.0870
 20
28.4454
 30
0.00000
  70
    32
  0
VERTEX
  8
0
  5
37C
 10
83.1774
 20
28.3582
 30
0.00000
  70
    32
  0
VERTEX
  8
0
  5
37D
 10
83.2677
 20
28.2711
 30
0.00000
  70
    32
  0
VERTEX
  8
0
  5
37E
 10
83.3579
 20
28.1838
 30
0.00000
  70
    32
  0
VERTEX
  8
0
  5
37F
 10
83.4481
 20
28.0966
 30
0.00000
  70
    32
  0
VERTEX
  8
0
  5
380
 10
83.5383
 20
28.0093
 30
0.00000
  70
    32
  0
VERTEX
  8
0
  5
381
 10
83.6284
 20
27.9220
 30
0.00000
  70
    32
  0
VERTEX
  8
0
  5
382
 10
83.7185
 20
27.8346
 30
0.00000
  70
    32
  0
VERTEX
  8
0
  5
383
 10
83.8086
 20
27.7471
 30
0.00000
  70
    32
  0
VERTEX
  8
0
  5
384
 10
83.8986
 20
27.6597
 30
0.00000
  70
    32
  0
VERTEX
  8
0
  5
385
 10
83.9886
 20
27.5722
 30
0.00000
  70
    32
  0
VERTEX
  8
0
  5
386
 10
84.0785
 20
27.4846
 30
0.00000
  70
    32
  0
VERTEX
  8
0
  5
387
 10
84.1684
 20
27.3970
 30
0.00000
  70
    32
  0
VERTEX
  8
0
  5
388
 10
84.2582
 20
27.3094
 30
0.00000
  70
    32
  0
VERTEX
  8
0
  5
389
 10
84.3480
 20
27.2217
 30
0.00000
  70
    32
  0
VERTEX
  8
0
  5
38A
 10
84.4378
 20
27.1340
 30
0.00000
  70
    32
  0
VERTEX
  8
0
  5
38B
 10
84.5275
 20
27.0462
 30
0.00000
  70
    32
  0
VERTEX
  8
0
  5
38C
 10
84.6172
 20
26.9584
 30
0.00000
  70
    32
  0
VERTEX
  8
0
  5
38D
 10
84.7068
 20
26.8706
 30
0.00000
  70
    32
  0
VERTEX
  8
0
  5
38E
 10
84.7964
 20
26.7827
 30
0.00000
  70
    32
  0
VERTEX
  8
0
  5
38F
 10
84.8860
 20
26.6948
 30
0.00000
  70
    32
  0
VERTEX
  8
0
  5
390
 10
84.9755
 20
26.6068
 30
0.00000
  70
    32
  0
VERTEX
  8
0
  5
391
 10
85.0650
 20
26.5188
 30
0.00000
  70
    32
  0
VERTEX
  8
0
  5
392
 10
85.1544
 20
26.4307
 30
0.00000
  70
    32
  0
VERTEX
  8
0
  5
393
 10
85.2438
 20
26.3426
 30
0.00000
  70
    32
  0
VERTEX
  8
0
  5
394
 10
85.3331
 20
26.2545
 30
0.00000
  70
    32
  0
VERTEX
  8
0
  5
395
 10
85.4224
 20
26.1663
 30
0.00000
  70
    32
  0
VERTEX
  8
0
  5
396
 10
85.5117
 20
26.0781
 30
0.00000
  70
    32
  0
VERTEX
  8
0
  5
397
 10
85.6009
 20
25.9898
 30
0.00000
  70
    32
  0
VERTEX
  8
0
  5
398
 10
85.6900
 20
25.9015
 30
0.00000
  70
    32
  0
VERTEX
  8
0
  5
399
 10
85.7792
 20
25.8131
 30
0.00000
  70
    32
  0
VERTEX
  8
0
  5
39A
 10
85.8683
 20
25.7247
 30
0.00000
  70
    32
  0
VERTEX
  8
0
  5
39B
 10
85.9573
 20
25.6363
 30
0.00000
  70
    32
  0
VERTEX
  8
0
  5
39C
 10
86.0463
 20
25.5478
 30
0.00000
  70
    32
  0
VERTEX
  8
0
  5
39D
 10
86.1352
 20
25.4593
 30
0.00000
  70
    32
  0
VERTEX
  8
0
  5
39E
 10
86.2242
 20
25.3707
 30
0.00000
  70
    32
  0
VERTEX
  8
0
  5
39F
 10
86.3130
 20
25.2821
 30
0.00000
  70
    32
  0
VERTEX
  8
0
  5
3A0
 10
86.4018
 20
25.1934
 30
0.00000
  70
    32
  0
VERTEX
  8
0
  5
3A1
 10
86.4906
 20
25.1047
 30
0.00000
  70
    32
  0
VERTEX
  8
0
  5
3A2
 10
86.5794
 20
25.0160
 30
0.00000
  70
    32
  0
VERTEX
  8
0
  5
3A3
 10
86.6681
 20
24.9272
 30
0.00000
  70
    32
  0
VERTEX
  8
0
  5
3A4
 10
86.7567
 20
24.8383
 30
0.00000
  70
    32
  0
VERTEX
  8
0
  5
3A5
 10
86.8453
 20
24.7495
 30
0.00000
  70
    32
  0
VERTEX
  8
0
  5
3A6
 10
86.9339
 20
24.6606
 30
0.00000
  70
    32
  0
VERTEX
  8
0
  5
3A7
 10
87.0224
 20
24.5716
 30
0.00000
  70
    32
  0
VERTEX
  8
0
  5
3A8
 10
87.1109
 20
24.4826
 30
0.00000
  70
    32
  0
VERTEX
  8
0
  5
3A9
 10
87.1993
 20
24.3935
 30
0.00000
  70
    32
  0
VERTEX
  8
0
  5
3AA
 10
87.2877
 20
24.3045
 30
0.00000
  70
    32
  0
VERTEX
  8
0
  5
3AB
 10
87.3760
 20
24.2153
 30
0.00000
  70
    32
  0
VERTEX
  8
0
  5
3AC
 10
87.4643
 20
24.1261
 30
0.00000
  70
    32
  0
VERTEX
  8
0
  5
3AD
 10
87.5526
 20
24.0369
 30
0.00000
  70
    32
  0
VERTEX
  8
0
  5
3AE
 10
87.6408
 20
23.9477
 30
0.00000
  70
    32
  0
VERTEX
  8
0
  5
3AF
 10
87.7289
 20
23.8584
 30
0.00000
  70
    32
  0
VERTEX
  8
0
  5
3B0
 10
87.8170
 20
23.7690
 30
0.00000
  70
    32
  0
VERTEX
  8
0
  5
3B1
 10
87.9051
 20
23.6796
 30
0.00000
  70
    32
  0
VERTEX
  8
0
  5
3B2
 10
87.9931
 20
23.5902
 30
0.00000
  70
    32
  0
VERTEX
  8
0
  5
3B3
 10
88.0811
 20
23.5007
 30
0.00000
  70
    32
  0
VERTEX
  8
0
  5
3B4
 10
88.1690
 20
23.4112
 30
0.00000
  70
    32
  0
VERTEX
  8
0
  5
3B5
 10
88.2569
 20
23.3216
 30
0.00000
  70
    32
  0
VERTEX
  8
0
  5
3B6
 10
88.3448
 20
23.2320
 30
0.00000
  70
    32
  0
VERTEX
  8
0
  5
3B7
 10
88.4326
 20
23.1423
 30
0.00000
  70
    32
  0
VERTEX
  8
0
  5
3B8
 10
88.5203
 20
23.0526
 30
0.00000
  70
    32
  0
VERTEX
  8
0
  5
3B9
 10
88.6080
 20
22.9629
 30
0.00000
  70
    32
  0
VERTEX
  8
0
  5
3BA
 10
88.6957
 20
22.8731
 30
0.00000
  70
    32
  0
VERTEX
  8
0
  5
3BB
 10
88.7833
 20
22.7832
 30
0.00000
  70
    32
  0
VERTEX
  8
0
  5
3BC
 10
88.8709
 20
22.6934
 30
0.00000
  70
    32
  0
VERTEX
  8
0
  5
3BD
 10
88.9584
 20
22.6034
 30
0.00000
  70
    32
  0
VERTEX
  8
0
  5
3BE
 10
89.0459
 20
22.5135
 30
0.00000
  70
    32
  0
VERTEX
  8
0
  5
3BF
 10
89.1333
 20
22.4235
 30
0.00000
  70
    32
  0
VERTEX
  8
0
  5
3C0
 10
89.2207
 20
22.3334
 30
0.00000
  70
    32
  0
VERTEX
  8
0
  5
3C1
 10
89.3081
 20
22.2433
 30
0.00000
  70
    32
  0
VERTEX
  8
0
  5
3C2
 10
89.3954
 20
22.1532
 30
0.00000
  70
    32
  0
VERTEX
  8
0
  5
3C3
 10
89.4826
 20
22.0630
 30
0.00000
  70
    32
  0
VERTEX
  8
0
  5
3C4
 10
89.5698
 20
21.9728
 30
0.00000
  70
    32
  0
VERTEX
  8
0
  5
3C5
 10
89.6570
 20
21.8825
 30
0.00000
  70
    32
  0
VERTEX
  8
0
  5
3C6
 10
89.7441
 20
21.7922
 30
0.00000
  70
    32
  0
VERTEX
  8
0
  5
3C7
 10
89.8311
 20
21.7018
 30
0.00000
  70
    32
  0
VERTEX
  8
0
  5
3C8
 10
89.9182
 20
21.6114
 30
0.00000
  70
    32
  0
VERTEX
  8
0
  5
3C9
 10
90.0051
 20
21.5209
 30
0.00000
  70
    32
  0
VERTEX
  8
0
  5
3CA
 10
90.0920
 20
21.4304
 30
0.00000
  70
    32
  0
VERTEX
  8
0
  5
3CB
 10
90.1789
 20
21.3399
 30
0.00000
  70
    32
  0
VERTEX
  8
0
  5
3CC
 10
90.2657
 20
21.2493
 30
0.00000
  70
    32
  0
VERTEX
  8
0
  5
3CD
 10
90.3525
 20
21.1587
 30
0.00000
  70
    32
  0
VERTEX
  8
0
  5
3CE
 10
90.4393
 20
21.0680
 30
0.00000
  70
    32
  0
VERTEX
  8
0
  5
3CF
 10
90.5259
 20
20.9773
 30
0.00000
  70
    32
  0
VERTEX
  8
0
  5
3D0
 10
90.6126
 20
20.8865
 30
0.00000
  70
    32
  0
VERTEX
  8
0
  5
3D1
 10
90.6992
 20
20.7957
 30
0.00000
  70
    32
  0
VERTEX
  8
0
  5
3D2
 10
90.7857
 20
20.7049
 30
0.00000
  70
    32
  0
VERTEX
  8
0
  5
3D3
 10
90.8722
 20
20.6140
 30
0.00000
  70
    32
  0
VERTEX
  8
0
  5
3D4
 10
90.9587
 20
20.5230
 30
0.00000
  70
    32
  0
VERTEX
  8
0
  5
3D5
 10
91.0450
 20
20.4320
 30
0.00000
  70
    32
  0
VERTEX
  8
0
  5
3D6
 10
91.1314
 20
20.3410
 30
0.00000
  70
    32
  0
VERTEX
  8
0
  5
3D7
 10
91.2177
 20
20.2499
 30
0.00000
  70
    32
  0
VERTEX
  8
0
  5
3D8
 10
91.3040
 20
20.1588
 30
0.00000
  70
    32
  0
VERTEX
  8
0
  5
3D9
 10
91.3902
 20
20.0676
 30
0.00000
  70
    32
  0
VERTEX
  8
0
  5
3DA
 10
91.4763
 20
19.9764
 30
0.00000
  70
    32
  0
VERTEX
  8
0
  5
3DB
 10
91.5624
 20
19.8852
 30
0.00000
  70
    32
  0
VERTEX
  8
0
  5
3DC
 10
91.6485
 20
19.7939
 30
0.00000
  70
    32
  0
VERTEX
  8
0
  5
3DD
 10
91.7345
 20
19.7025
 30
0.00000
  70
    32
  0
VERTEX
  8
0
  5
3DE
 10
91.8205
 20
19.6111
 30
0.00000
  70
    32
  0
VERTEX
  8
0
  5
3DF
 10
91.9064
 20
19.5197
 30
0.00000
  70
    32
  0
VERTEX
  8
0
  5
3E0
 10
91.9923
 20
19.4282
 30
0.00000
  70
    32
  0
VERTEX
  8
0
  5
3E1
 10
92.0781
 20
19.3367
 30
0.00000
  70
    32
  0
VERTEX
  8
0
  5
3E2
 10
92.1638
 20
19.2451
 30
0.00000
  70
    32
  0
VERTEX
  8
0
  5
3E3
 10
92.2496
 20
19.1535
 30
0.00000
  70
    32
  0
VERTEX
  8
0
  5
3E4
 10
92.3352
 20
19.0618
 30
0.00000
  70
    32
  0
VERTEX
  8
0
  5
3E5
 10
92.4208
 20
18.9701
 30
0.00000
  70
    32
  0
VERTEX
  8
0
  5
3E6
 10
92.5064
 20
18.8783
 30
0.00000
  70
    32
  0
VERTEX
  8
0
  5
3E7
 10
92.5919
 20
18.7865
 30
0.00000
  70
    32
  0
VERTEX
  8
0
  5
3E8
 10
92.6774
 20
18.6947
 30
0.00000
  70
    32
  0
VERTEX
  8
0
  5
3E9
 10
92.7628
 20
18.6028
 30
0.00000
  70
    32
  0
VERTEX
  8
0
  5
3EA
 10
92.8482
 20
18.5108
 30
0.00000
  70
    32
  0
VERTEX
  8
0
  5
3EB
 10
92.9335
 20
18.4189
 30
0.00000
  70
    32
  0
VERTEX
  8
0
  5
3EC
 10
93.0188
 20
18.3268
 30
0.00000
  70
    32
  0
VERTEX
  8
0
  5
3ED
 10
93.1040
 20
18.2348
 30
0.00000
  70
    32
  0
VERTEX
  8
0
  5
3EE
 10
93.1892
 20
18.1426
 30
0.00000
  70
    32
  0
VERTEX
  8
0
  5
3EF
 10
93.2743
 20
18.0505
 30
0.00000
  70
    32
  0
VERTEX
  8
0
  5
3F0
 10
93.3594
 20
17.9582
 30
0.00000
  70
    32
  0
VERTEX
  8
0
  5
3F1
 10
93.4444
 20
17.8660
 30
0.00000
  70
    32
  0
VERTEX
  8
0
  5
3F2
 10
93.5294
 20
17.7737
 30
0.00000
  70
    32
  0
VERTEX
  8
0
  5
3F3
 10
93.6143
 20
17.6813
 30
0.00000
  70
    32
  0
VERTEX
  8
0
  5
3F4
 10
93.6992
 20
17.5889
 30
0.00000
  70
    32
  0
VERTEX
  8
0
  5
3F5
 10
93.7840
 20
17.4965
 30
0.00000
  70
    32
  0
VERTEX
  8
0
  5
3F6
 10
93.8688
 20
17.4040
 30
0.00000
  70
    32
  0
VERTEX
  8
0
  5
3F7
 10
93.9535
 20
17.3115
 30
0.00000
  70
    32
  0
VERTEX
  8
0
  5
3F8
 10
94.0382
 20
17.2189
 30
0.00000
  70
    32
  0
VERTEX
  8
0
  5
3F9
 10
94.1228
 20
17.1263
 30
0.00000
  70
    32
  0
VERTEX
  8
0
  5
3FA
 10
94.2074
 20
17.0336
 30
0.00000
  70
    32
  0
VERTEX
  8
0
  5
3FB
 10
94.2919
 20
16.9409
 30
0.00000
  70
    32
  0
VERTEX
  8
0
  5
3FC
 10
94.3764
 20
16.8481
 30
0.00000
  70
    32
  0
VERTEX
  8
0
  5
3FD
 10
94.4608
 20
16.7553
 30
0.00000
  70
    32
  0
VERTEX
  8
0
  5
3FE
 10
94.5452
 20
16.6625
 30
0.00000
  70
    32
  0
VERTEX
  8
0
  5
3FF
 10
94.6295
 20
16.5696
 30
0.00000
  70
    32
  0
VERTEX
  8
0
  5
400
 10
94.7138
 20
16.4766
 30
0.00000
  70
    32
  0
VERTEX
  8
0
  5
401
 10
94.7980
 20
16.3836
 30
0.00000
  70
    32
  0
VERTEX
  8
0
  5
402
 10
94.8822
 20
16.2906
 30
0.00000
  70
    32
  0
VERTEX
  8
0
  5
403
 10
94.9663
 20
16.1976
 30
0.00000
  70
    32
  0
VERTEX
  8
0
  5
404
 10
95.0504
 20
16.1045
 30
0.00000
  70
    32
  0
VERTEX
  8
0
  5
405
 10
95.1345
 20
16.0113
 30
0.00000
  70
    32
  0
VERTEX
  8
0
  5
406
 10
95.2185
 20
15.9181
 30
0.00000
  70
    32
  0
VERTEX
  8
0
  5
407
 10
95.3024
 20
15.8249
 30
0.00000
  70
    32
  0
VERTEX
  8
0
  5
408
 10
95.3863
 20
15.7317
 30
0.00000
  70
    32
  0
VERTEX
  8
0
  5
409
 10
95.4702
 20
15.6384
 30
0.00000
  70
    32
  0
VERTEX
  8
0
  5
40A
 10
95.5541
 20
15.5450
 30
0.00000
  70
    32
  0
VERTEX
  8
0
  5
40B
 10
95.6379
 20
15.4517
 30
0.00000
  70
    32
  0
VERTEX
  8
0
  5
40C
 10
95.7216
 20
15.3583
 30
0.00000
  70
    32
  0
VERTEX
  8
0
  5
40D
 10
95.8054
 20
15.2648
 30
0.00000
  70
    32
  0
VERTEX
  8
0
  5
40E
 10
95.8890
 20
15.1714
 30
0.00000
  70
    32
  0
VERTEX
  8
0
  5
40F
 10
95.9727
 20
15.0778
 30
0.00000
  70
    32
  0
VERTEX
  8
0
  5
410
 10
96.0563
 20
14.9843
 30
0.00000
  70
    32
  0
VERTEX
  8
0
  5
411
 10
96.1399
 20
14.8907
 30
0.00000
  70
    32
  0
VERTEX
  8
0
  5
412
 10
96.2234
 20
14.7971
 30
0.00000
  70
    32
  0
VERTEX
  8
0
  5
413
 10
96.3069
 20
14.7035
 30
0.00000
  70
    32
  0
VERTEX
  8
0
  5
414
 10
96.3904
 20
14.6098
 30
0.00000
  70
    32
  0
VERTEX
  8
0
  5
415
 10
96.4739
 20
14.5161
 30
0.00000
  70
    32
  0
VERTEX
  8
0
  5
416
 10
96.5573
 20
14.4224
 30
0.00000
  70
    32
  0
VERTEX
  8
0
  5
417
 10
96.6406
 20
14.3287
 30
0.00000
  70
    32
  0
VERTEX
  8
0
  5
418
 10
96.7240
 20
14.2349
 30
0.00000
  70
    32
  0
VERTEX
  8
0
  5
419
 10
96.8073
 20
14.1411
 30
0.00000
  70
    32
  0
VERTEX
  8
0
  5
41A
 10
96.8906
 20
14.0472
 30
0.00000
  70
    32
  0
VERTEX
  8
0
  5
41B
 10
96.9738
 20
13.9534
 30
0.00000
  70
    32
  0
VERTEX
  8
0
  5
41C
 10
97.0571
 20
13.8595
 30
0.00000
  70
    32
  0
VERTEX
  8
0
  5
41D
 10
97.1403
 20
13.7656
 30
0.00000
  70
    32
  0
VERTEX
  8
0
  5
41E
 10
97.2234
 20
13.6716
 30
0.00000
  70
    32
  0
VERTEX
  8
0
  5
41F
 10
97.3066
 20
13.5777
 30
0.00000
  70
    32
  0
VERTEX
  8
0
  5
420
 10
97.3897
 20
13.4837
 30
0.00000
  70
    32
  0
VERTEX
  8
0
  5
421
 10
97.4728
 20
13.3897
 30
0.00000
  70
    32
  0
VERTEX
  8
0
  5
422
 10
97.5559
 20
13.2956
 30
0.00000
  70
    32
  0
VERTEX
  8
0
  5
423
 10
97.6389
 20
13.2016
 30
0.00000
  70
    32
  0
VERTEX
  8
0
  5
424
 10
97.7219
 20
13.1075
 30
0.00000
  70
    32
  0
VERTEX
  8
0
  5
425
 10
97.8049
 20
13.0134
 30
0.00000
  70
    32
  0
VERTEX
  8
0
  5
426
 10
97.8879
 20
12.9193
 30
0.00000
  70
    32
  0
VERTEX
  8
0
  5
427
 10
97.9708
 20
12.8252
 30
0.00000
  70
    32
  0
VERTEX
  8
0
  5
428
 10
98.0538
 20
12.7310
 30
0.00000
  70
    32
  0
VERTEX
  8
0
  5
429
 10
98.1367
 20
12.6369
 30
0.00000
  70
    32
  0
VERTEX
  8
0
  5
42A
 10
98.2196
 20
12.5427
 30
0.00000
  70
    32
  0
VERTEX
  8
0
  5
42B
 10
98.3025
 20
12.4485
 30
0.00000
  70
    32
  0
VERTEX
  8
0
  5
42C
 10
98.3853
 20
12.3542
 30
0.00000
  70
    32
  0
VERTEX
  8
0
  5
42D
 10
98.4682
 20
12.2600
 30
0.00000
  70
    32
  0
VERTEX
  8
0
  5
42E
 10
98.5510
 20
12.1657
 30
0.00000
  70
    32
  0
VERTEX
  8
0
  5
42F
 10
98.6338
 20
12.0715
 30
0.00000
  70
    32
  0
VERTEX
  8
0
  5
430
 10
98.7166
 20
11.9772
 30
0.00000
  70
    32
  0
VERTEX
  8
0
  5
431
 10
98.7994
 20
11.8829
 30
0.00000
  70
    32
  0
VERTEX
  8
0
  5
432
 10
98.8821
 20
11.7886
 30
0.00000
  70
    32
  0
VERTEX
  8
0
  5
433
 10
98.9649
 20
11.6943
 30
0.00000
  70
    32
  0
VERTEX
  8
0
  5
434
 10
99.0476
 20
11.5999
 30
0.00000
  70
    32
  0
VERTEX
  8
0
  5
435
 10
99.1303
 20
11.5056
 30
0.00000
  70
    32
  0
VERTEX
  8
0
  5
436
 10
99.2131
 20
11.4113
 30
0.00000
  70
    32
  0
VERTEX
  8
0
  5
437
 10
99.2958
 20
11.3169
 30
0.00000
  70
    32
  0
VERTEX
  8
0
  5
438
 10
99.3785
 20
11.2225
 30
0.00000
  70
    32
  0
VERTEX
  8
0
  5
439
 10
99.4611
 20
11.1281
 30
0.00000
  70
    32
  0
VERTEX
  8
0
  5
43A
 10
99.5438
 20
11.0338
 30
0.00000
  70
    32
  0
VERTEX
  8
0
  5
43B
 10
99.6265
 20
10.9394
 30
0.00000
  70
    32
  0
VERTEX
  8
0
  5
43C
 10
99.7091
 20
10.8450
 30
0.00000
  70
    32
  0
VERTEX
  8
0
  5
43D
 10
99.7918
 20
10.7505
 30
0.00000
  70
    32
  0
VERTEX
  8
0
  5
43E
 10
99.8744
 20
10.6561
 30
0.00000
  70
    32
  0
VERTEX
  8
0
  5
43F
 10
99.9571
 20
10.5617
 30
0.00000
  70
    32
  0
VERTEX
  8
0
  5
440
 10
100.040
 20
10.4673
 30
0.00000
  70
    32
  0
VERTEX
  8
0
  5
441
 10
99.8396
 20
10.3372
 30
0.00000
  70
    32
  0
VERTEX
  8
0
  5
442
 10
95.6293
 20
9.70061
 30
0.00000
  70
    32
  0
VERTEX
  8
0
  5
443
 10
91.4190
 20
9.06406
 30
0.00000
  70
    32
  0
VERTEX
  8
0
  5
444
 10
87.2087
 20
8.42751
 30
0.00000
  70
    32
  0
VERTEX
  8
0
  5
445
 10
82.9984
 20
7.79096
 30
0.00000
  70
    32
  0
VERTEX
  8
0
  5
446
 10
78.7881
 20
7.15441
 30
0.00000
  70
    32
  0
VERTEX
  8
0
  5
447
 10
74.5778
 20
6.51786
 30
0.00000
  70
    32
  0
VERTEX
  8
0
  5
448
 10
70.3675
 20
5.88131
 30
0.00000
  70
    32
  0
VERTEX
  8
0
  5
449
 10
66.5554
 20
5.31687
 30
0.00000
  70
    32
  0
VERTEX
  8
0
  5
44A
 10
66.5137
 20
5.43534
 30
0.00000
  70
    32
  0
VERTEX
  8
0
  5
44B
 10
66.4721
 20
5.55380
 30
0.00000
  70
    32
  0
VERTEX
  8
0
  5
44C
 10
66.4304
 20
5.67226
 30
0.00000
  70
    32
  0
VERTEX
  8
0
  5
44D
 10
66.3887
 20
5.79070
 30
0.00000
  70
    32
  0
VERTEX
  8
0
  5
44E
 10
66.3470
 20
5.90913
 30
0.00000
  70
    32
  0
VERTEX
  8
0
  5
44F
 10
66.3053
 20
6.02755
 30
0.00000
  70
    32
  0
VERTEX
  8
0
  5
450
 10
66.2635
 20
6.14595
 30
0.00000
  70
    32
  0
VERTEX
  8
0
  5
451
 10
66.2217
 20
6.26434
 30
0.00000
  70
    32
  0
VERTEX
  8
0
  5
452
 10
66.1798
 20
6.38271
 30
0.00000
  70
    32
  0
VERTEX
  8
0
  5
453
 10
66.1379
 20
6.50106
 30
0.00000
  70
    32
  0
VERTEX
  8
0
  5
454
 10
66.0959
 20
6.61939
 30
0.00000
  70
    32
  0
VERTEX
  8
0
  5
455
 10
66.0539
 20
6.73769
 30
0.00000
  70
    32
  0
VERTEX
  8
0
  5
456
 10
66.0118
 20
6.85598
 30
0.00000
  70
    32
  0
VERTEX
  8
0
  5
457
 10
65.9697
 20
6.97423
 30
0.00000
  70
    32
  0
VERTEX
  8
0
  5
458
 10
65.9274
 20
7.09247
 30
0.00000
  70
    32
  0
VERTEX
  8
0
  5
459
 10
65.8852
 20
7.21067
 30
0.00000
  70
    32
  0
VERTEX
  8
0
  5
45A
 10
65.8428
 20
7.32885
 30
0.00000
  70
    32
  0
VERTEX
  8
0
  5
45B
 10
65.8004
 20
7.44699
 30
0.00000
  70
    32
  0
VERTEX
  8
0
  5
45C
 10
65.7579
 20
7.56511
 30
0.00000
  70
    32
  0
VERTEX
  8
0
  5
45D
 10
65.7154
 20
7.68319
 30
0.00000
  70
    32
  0
VERTEX
  8
0
  5
45E
 10
65.6727
 20
7.80123
 30
0.00000
  70
    32
  0
VERTEX
  8
0
  5
45F
 10
65.6300
 20
7.91924
 30
0.00000
  70
    32
  0
VERTEX
  8
0
  5
460
 10
65.5872
 20
8.03722
 30
0.00000
  70
    32
  0
VERTEX
  8
0
  5
461
 10
65.5442
 20
8.15515
 30
0.00000
  70
    32
  0
VERTEX
  8
0
  5
462
 10
65.5012
 20
8.27304
 30
0.00000
  70
    32
  0
VERTEX
  8
0
  5
463
 10
65.4581
 20
8.39090
 30
0.00000
  70
    32
  0
VERTEX
  8
0
  5
464
 10
65.4149
 20
8.50871
 30
0.00000
  70
    32
  0
VERTEX
  8
0
  5
465
 10
65.3715
 20
8.62647
 30
0.00000
  70
    32
  0
VERTEX
  8
0
  5
466
 10
65.3281
 20
8.74419
 30
0.00000
  70
    32
  0
VERTEX
  8
0
  5
467
 10
65.2845
 20
8.86186
 30
0.00000
  70
    32
  0
VERTEX
  8
0
  5
468
 10
65.2409
 20
8.97949
 30
0.00000
  70
    32
  0
VERTEX
  8
0
  5
469
 10
65.1971
 20
9.09706
 30
0.00000
  70
    32
  0
VERTEX
  8
0
  5
46A
 10
65.1532
 20
9.21459
 30
0.00000
  70
    32
  0
VERTEX
  8
0
  5
46B
 10
65.1091
 20
9.33206
 30
0.00000
  70
    32
  0
VERTEX
  8
0
  5
46C
 10
65.0649
 20
9.44947
 30
0.00000
  70
    32
  0
VERTEX
  8
0
  5
46D
 10
65.0206
 20
9.56683
 30
0.00000
  70
    32
  0
VERTEX
  8
0
  5
46E
 10
64.9762
 20
9.68414
 30
0.00000
  70
    32
  0
VERTEX
  8
0
  5
46F
 10
64.9316
 20
9.80138
 30
0.00000
  70
    32
  0
VERTEX
  8
0
  5
470
 10
64.8869
 20
9.91857
 30
0.00000
  70
    32
  0
VERTEX
  8
0
  5
471
 10
64.8420
 20
10.0357
 30
0.00000
  70
    32
  0
VERTEX
  8
0
  5
472
 10
64.7970
 20
10.1528
 30
0.00000
  70
    32
  0
VERTEX
  8
0
  5
473
 10
64.7518
 20
10.2698
 30
0.00000
  70
    32
  0
VERTEX
  8
0
  5
474
 10
64.7065
 20
10.3867
 30
0.00000
  70
    32
  0
VERTEX
  8
0
  5
475
 10
64.6610
 20
10.5036
 30
0.00000
  70
    32
  0
VERTEX
  8
0
  5
476
 10
64.6153
 20
10.6204
 30
0.00000
  70
    32
  0
VERTEX
  8
0
  5
477
 10
64.5695
 20
10.7371
 30
0.00000
  70
    32
  0
VERTEX
  8
0
  5
478
 10
64.5235
 20
10.8537
 30
0.00000
  70
    32
  0
VERTEX
  8
0
  5
479
 10
64.4773
 20
10.9703
 30
0.00000
  70
    32
  0
VERTEX
  8
0
  5
47A
 10
64.4309
 20
11.0868
 30
0.00000
  70
    32
  0
VERTEX
  8
0
  5
47B
 10
64.3844
 20
11.2033
 30
0.00000
  70
    32
  0
VERTEX
  8
0
  5
47C
 10
64.3377
 20
11.3196
 30
0.00000
  70
    32
  0
VERTEX
  8
0
  5
47D
 10
64.2907
 20
11.4359
 30
0.00000
  70
    32
  0
VERTEX
  8
0
  5
47E
 10
64.2436
 20
11.5521
 30
0.00000
  70
    32
  0
VERTEX
  8
0
  5
47F
 10
64.1964
 20
11.6683
 30
0.00000
  70
    32
  0
VERTEX
  8
0
  5
480
 10
64.1489
 20
11.7843
 30
0.00000
  70
    32
  0
VERTEX
  8
0
  5
481
 10
64.1012
 20
11.9003
 30
0.00000
  70
    32
  0
VERTEX
  8
0
  5
482
 10
64.0533
 20
12.0161
 30
0.00000
  70
    32
  0
VERTEX
  8
0
  5
483
 10
64.0052
 20
12.1319
 30
0.00000
  70
    32
  0
VERTEX
  8
0
  5
484
 10
63.9568
 20
12.2476
 30
0.00000
  70
    32
  0
VERTEX
  8
0
  5
485
 10
63.9083
 20
12.3632
 30
0.00000
  70
    32
  0
VERTEX
  8
0
  5
486
 10
63.8596
 20
12.4788
 30
0.00000
  70
    32
  0
VERTEX
  8
0
  5
487
 10
63.8106
 20
12.5942
 30
0.00000
  70
    32
  0
VERTEX
  8
0
  5
488
 10
63.7615
 20
12.7096
 30
0.00000
  70
    32
  0
VERTEX
  8
0
  5
489
 10
63.7121
 20
12.8248
 30
0.00000
  70
    32
  0
VERTEX
  8
0
  5
48A
 10
63.6625
 20
12.9400
 30
0.00000
  70
    32
  0
VERTEX
  8
0
  5
48B
 10
63.6128
 20
13.0551
 30
0.00000
  70
    32
  0
VERTEX
  8
0
  5
48C
 10
63.5628
 20
13.1701
 30
0.00000
  70
    32
  0
VERTEX
  8
0
  5
48D
 10
63.5126
 20
13.2850
 30
0.00000
  70
    32
  0
VERTEX
  8
0
  5
48E
 10
63.4622
 20
13.3999
 30
0.00000
  70
    32
  0
VERTEX
  8
0
  5
48F
 10
63.4117
 20
13.5146
 30
0.00000
  70
    32
  0
VERTEX
  8
0
  5
490
 10
63.3609
 20
13.6293
 30
0.00000
  70
    32
  0
VERTEX
  8
0
  5
491
 10
63.3099
 20
13.7439
 30
0.00000
  70
    32
  0
VERTEX
  8
0
  5
492
 10
63.2587
 20
13.8584
 30
0.00000
  70
    32
  0
VERTEX
  8
0
  5
493
 10
63.2074
 20
13.9728
 30
0.00000
  70
    32
  0
VERTEX
  8
0
  5
494
 10
63.1558
 20
14.0871
 30
0.00000
  70
    32
  0
VERTEX
  8
0
  5
495
 10
63.1041
 20
14.2014
 30
0.00000
  70
    32
  0
VERTEX
  8
0
  5
496
 10
63.0521
 20
14.3155
 30
0.00000
  70
    32
  0
VERTEX
  8
0
  5
497
 10
63.0000
 20
14.4296
 30
0.00000
  70
    32
  0
VERTEX
  8
0
  5
498
 10
62.9476
 20
14.5436
 30
0.00000
  70
    32
  0
VERTEX
  8
0
  5
499
 10
62.8951
 20
14.6575
 30
0.00000
  70
    32
  0
VERTEX
  8
0
  5
49A
 10
62.8424
 20
14.7714
 30
0.00000
  70
    32
  0
VERTEX
  8
0
  5
49B
 10
62.7895
 20
14.8851
 30
0.00000
  70
    32
  0
VERTEX
  8
0
  5
49C
 10
62.7364
 20
14.9988
 30
0.00000
  70
    32
  0
VERTEX
  8
0
  5
49D
 10
62.6832
 20
15.1124
 30
0.00000
  70
    32
  0
VERTEX
  8
0
  5
49E
 10
62.6297
 20
15.2259
 30
0.00000
  70
    32
  0
VERTEX
  8
0
  5
49F
 10
62.5761
 20
15.3393
 30
0.00000
  70
    32
  0
VERTEX
  8
0
  5
4A0
 10
62.5223
 20
15.4527
 30
0.00000
  70
    32
  0
VERTEX
  8
0
  5
4A1
 10
62.4683
 20
15.5659
 30
0.00000
  70
    32
  0
VERTEX
  8
0
  5
4A2
 10
62.4141
 20
15.6791
 30
0.00000
  70
    32
  0
VERTEX
  8
0
  5
4A3
 10
62.3598
 20
15.7922
 30
0.00000
  70
    32
  0
VERTEX
  8
0
  5
4A4
 10
62.3052
 20
15.9053
 30
0.00000
  70
    32
  0
VERTEX
  8
0
  5
4A5
 10
62.2505
 20
16.0182
 30
0.00000
  70
    32
  0
VERTEX
  8
0
  5
4A6
 10
62.1957
 20
16.1311
 30
0.00000
  70
    32
  0
VERTEX
  8
0
  5
4A7
 10
62.1406
 20
16.2439
 30
0.00000
  70
    32
  0
VERTEX
  8
0
  5
4A8
 10
62.0854
 20
16.3566
 30
0.00000
  70
    32
  0
VERTEX
  8
0
  5
4A9
 10
62.0300
 20
16.4692
 30
0.00000
  70
    32
  0
VERTEX
  8
0
  5
4AA
 10
61.9744
 20
16.5817
 30
0.00000
  70
    32
  0
VERTEX
  8
0
  5
4AB
 10
61.9187
 20
16.6942
 30
0.00000
  70
    32
  0
VERTEX
  8
0
  5
4AC
 10
61.8628
 20
16.8066
 30
0.00000
  70
    32
  0
VERTEX
  8
0
  5
4AD
 10
61.8067
 20
16.9189
 30
0.00000
  70
    32
  0
VERTEX
  8
0
  5
4AE
 10
61.7504
 20
17.0312
 30
0.00000
  70
    32
  0
VERTEX
  8
0
  5
4AF
 10
61.6940
 20
17.1433
 30
0.00000
  70
    32
  0
VERTEX
  8
0
  5
4B0
 10
61.6375
 20
17.2554
 30
0.00000
  70
    32
  0
VERTEX
  8
0
  5
4B1
 10
61.5807
 20
17.3674
 30
0.00000
  70
    32
  0
VERTEX
  8
0
  5
4B2
 10
61.5238
 20
17.4794
 30
0.00000
  70
    32
  0
VERTEX
  8
0
  5
4B3
 10
61.4668
 20
17.5912
 30
0.00000
  70
    32
  0
VERTEX
  8
0
  5
4B4
 10
61.4095
 20
17.7030
 30
0.00000
  70
    32
  0
VERTEX
  8
0
  5
4B5
 10
61.3522
 20
17.8147
 30
0.00000
  70
    32
  0
VERTEX
  8
0
  5
4B6
 10
61.2946
 20
17.9263
 30
0.00000
  70
    32
  0
VERTEX
  8
0
  5
4B7
 10
61.2369
 20
18.0379
 30
0.00000
  70
    32
  0
VERTEX
  8
0
  5
4B8
 10
61.1791
 20
18.1494
 30
0.00000
  70
    32
  0
VERTEX
  8
0
  5
4B9
 10
61.1211
 20
18.2608
 30
0.00000
  70
    32
  0
VERTEX
  8
0
  5
4BA
 10
61.0629
 20
18.3721
 30
0.00000
  70
    32
  0
VERTEX
  8
0
  5
4BB
 10
61.0046
 20
18.4834
 30
0.00000
  70
    32
  0
VERTEX
  8
0
  5
4BC
 10
60.9461
 20
18.5946
 30
0.00000
  70
    32
  0
VERTEX
  8
0
  5
4BD
 10
60.8875
 20
18.7057
 30
0.00000
  70
    32
  0
VERTEX
  8
0
  5
4BE
 10
60.8288
 20
18.8167
 30
0.00000
  70
    32
  0
VERTEX
  8
0
  5
4BF
 10
60.7699
 20
18.9277
 30
0.00000
  70
    32
  0
VERTEX
  8
0
  5
4C0
 10
60.7108
 20
19.0385
 30
0.00000
  70
    32
  0
VERTEX
  8
0
  5
4C1
 10
60.6516
 20
19.1494
 30
0.00000
  70
    32
  0
VERTEX
  8
0
  5
4C2
 10
60.5922
 20
19.2601
 30
0.00000
  70
    32
  0
VERTEX
  8
0
  5
4C3
 10
60.5327
 20
19.3708
 30
0.00000
  70
    32
  0
VERTEX
  8
0
  5
4C4
 10
60.4731
 20
19.4814
 30
0.00000
  70
    32
  0
VERTEX
  8
0
  5
4C5
 10
60.4133
 20
19.5919
 30
0.00000
  70
    32
  0
VERTEX
  8
0
  5
4C6
 10
60.3534
 20
19.7024
 30
0.00000
  70
    32
  0
VERTEX
  8
0
  5
4C7
 10
60.2933
 20
19.8127
 30
0.00000
  70
    32
  0
VERTEX
  8
0
  5
4C8
 10
60.2331
 20
19.9231
 30
0.00000
  70
    32
  0
VERTEX
  8
0
  5
4C9
 10
60.1728
 20
20.0333
 30
0.00000
  70
    32
  0
VERTEX
  8
0
  5
4CA
 10
60.1123
 20
20.1435
 30
0.00000
  70
    32
  0
VERTEX
  8
0
  5
4CB
 10
60.0517
 20
20.2536
 30
0.00000
  70
    32
  0
VERTEX
  8
0
  5
4CC
 10
59.9910
 20
20.3636
 30
0.00000
  70
    32
  0
VERTEX
  8
0
  5
4CD
 10
59.9301
 20
20.4736
 30
0.00000
  70
    32
  0
VERTEX
  8
0
  5
4CE
 10
59.8691
 20
20.5835
 30
0.00000
  70
    32
  0
VERTEX
  8
0
  5
4CF
 10
59.8080
 20
20.6933
 30
0.00000
  70
    32
  0
VERTEX
  8
0
  5
4D0
 10
59.7467
 20
20.8030
 30
0.00000
  70
    32
  0
VERTEX
  8
0
  5
4D1
 10
59.6853
 20
20.9127
 30
0.00000
  70
    32
  0
VERTEX
  8
0
  5
4D2
 10
59.6238
 20
21.0223
 30
0.00000
  70
    32
  0
VERTEX
  8
0
  5
4D3
 10
59.5621
 20
21.1319
 30
0.00000
  70
    32
  0
VERTEX
  8
0
  5
4D4
 10
59.5003
 20
21.2414
 30
0.00000
  70
    32
  0
VERTEX
  8
0
  5
4D5
 10
59.4384
 20
21.3508
 30
0.00000
  70
    32
  0
VERTEX
  8
0
  5
4D6
 10
59.3764
 20
21.4601
 30
0.00000
  70
    32
  0
VERTEX
  8
0
  5
4D7
 10
59.3143
 20
21.5694
 30
0.00000
  70
    32
  0
VERTEX
  8
0
  5
4D8
 10
59.2520
 20
21.6786
 30
0.00000
  70
    32
  0
VERTEX
  8
0
  5
4D9
 10
59.1896
 20
21.7877
 30
0.00000
  70
    32
  0
VERTEX
  8
0
  5
4DA
 10
59.1271
 20
21.8968
 30
0.00000
  70
    32
  0
VERTEX
  8
0
  5
4DB
 10
59.0645
 20
22.0058
 30
0.00000
  70
    32
  0
VERTEX
  8
0
  5
4DC
 10
59.0017
 20
22.1148
 30
0.00000
  70
    32
  0
VERTEX
  8
0
  5
4DD
 10
58.9388
 20
22.2237
 30
0.00000
  70
    32
  0
VERTEX
  8
0
  5
4DE
 10
58.8759
 20
22.3325
 30
0.00000
  70
    32
  0
VERTEX
  8
0
  5
4DF
 10
58.8128
 20
22.4412
 30
0.00000
  70
    32
  0
VERTEX
  8
0
  5
4E0
 10
58.7496
 20
22.5499
 30
0.00000
  70
    32
  0
VERTEX
  8
0
  5
4E1
 10
58.6863
 20
22.6585
 30
0.00000
  70
    32
  0
VERTEX
  8
0
  5
4E2
 10
58.6228
 20
22.7671
 30
0.00000
  70
    32
  0
VERTEX
  8
0
  5
4E3
 10
58.5593
 20
22.8755
 30
0.00000
  70
    32
  0
VERTEX
  8
0
  5
4E4
 10
58.4956
 20
22.9840
 30
0.00000
  70
    32
  0
VERTEX
  8
0
  5
4E5
 10
58.4319
 20
23.0923
 30
0.00000
  70
    32
  0
VERTEX
  8
0
  5
4E6
 10
58.3680
 20
23.2006
 30
0.00000
  70
    32
  0
VERTEX
  8
0
  5
4E7
 10
58.3041
 20
23.3088
 30
0.00000
  70
    32
  0
VERTEX
  8
0
  5
4E8
 10
58.2400
 20
23.4170
 30
0.00000
  70
    32
  0
VERTEX
  8
0
  5
4E9
 10
58.1758
 20
23.5251
 30
0.00000
  70
    32
  0
VERTEX
  8
0
  5
4EA
 10
58.1115
 20
23.6332
 30
0.00000
  70
    32
  0
VERTEX
  8
0
  5
4EB
 10
58.0472
 20
23.7411
 30
0.00000
  70
    32
  0
VERTEX
  8
0
  5
4EC
 10
57.9827
 20
23.8491
 30
0.00000
  70
    32
  0
VERTEX
  8
0
  5
4ED
 10
57.9181
 20
23.9569
 30
0.00000
  70
    32
  0
VERTEX
  8
0
  5
4EE
 10
57.8534
 20
24.0647
 30
0.00000
  70
    32
  0
VERTEX
  8
0
  5
4EF
 10
57.7887
 20
24.1724
 30
0.00000
  70
    32
  0
VERTEX
  8
0
  5
4F0
 10
57.7238
 20
24.2801
 30
0.00000
  70
    32
  0
VERTEX
  8
0
  5
4F1
 10
57.6589
 20
24.3877
 30
0.00000
  70
    32
  0
VERTEX
  8
0
  5
4F2
 10
57.5938
 20
24.4953
 30
0.00000
  70
    32
  0
VERTEX
  8
0
  5
4F3
 10
57.5287
 20
24.6027
 30
0.00000
  70
    32
  0
VERTEX
  8
0
  5
4F4
 10
57.4634
 20
24.7102
 30
0.00000
  70
    32
  0
VERTEX
  8
0
  5
4F5
 10
57.3981
 20
24.8175
 30
0.00000
  70
    32
  0
VERTEX
  8
0
  5
4F6
 10
57.3327
 20
24.9248
 30
0.00000
  70
    32
  0
VERTEX
  8
0
  5
4F7
 10
57.2672
 20
25.0321
 30
0.00000
  70
    32
  0
VERTEX
  8
0
  5
4F8
 10
57.2016
 20
25.1393
 30
0.00000
  70
    32
  0
VERTEX
  8
0
  5
4F9
 10
57.1359
 20
25.2464
 30
0.00000
  70
    32
  0
VERTEX
  8
0
  5
4FA
 10
57.0701
 20
25.3535
 30
0.00000
  70
    32
  0
VERTEX
  8
0
  5
4FB
 10
57.0043
 20
25.4605
 30
0.00000
  70
    32
  0
VERTEX
  8
0
  5
4FC
 10
56.9383
 20
25.5674
 30
0.00000
  70
    32
  0
VERTEX
  8
0
  5
4FD
 10
56.8723
 20
25.6743
 30
0.00000
  70
    32
  0
VERTEX
  8
0
  5
4FE
 10
56.8062
 20
25.7811
 30
0.00000
  70
    32
  0
VERTEX
  8
0
  5
4FF
 10
56.7400
 20
25.8879
 30
0.00000
  70
    32
  0
VERTEX
  8
0
  5
500
 10
56.6737
 20
25.9946
 30
0.00000
  70
    32
  0
VERTEX
  8
0
  5
501
 10
56.6073
 20
26.1013
 30
0.00000
  70
    32
  0
VERTEX
  8
0
  5
502
 10
56.5408
 20
26.2078
 30
0.00000
  70
    32
  0
VERTEX
  8
0
  5
503
 10
56.4743
 20
26.3144
 30
0.00000
  70
    32
  0
VERTEX
  8
0
  5
504
 10
56.4076
 20
26.4208
 30
0.00000
  70
    32
  0
VERTEX
  8
0
  5
505
 10
56.3409
 20
26.5272
 30
0.00000
  70
    32
  0
VERTEX
  8
0
  5
506
 10
56.2740
 20
26.6336
 30
0.00000
  70
    32
  0
VERTEX
  8
0
  5
507
 10
56.2071
 20
26.7399
 30
0.00000
  70
    32
  0
VERTEX
  8
0
  5
508
 10
56.1401
 20
26.8461
 30
0.00000
  70
    32
  0
VERTEX
  8
0
  5
509
 10
56.0730
 20
26.9522
 30
0.00000
  70
    32
  0
VERTEX
  8
0
  5
50A
 10
56.0058
 20
27.0583
 30
0.00000
  70
    32
  0
VERTEX
  8
0
  5
50B
 10
55.9385
 20
27.1644
 30
0.00000
  70
    32
  0
VERTEX
  8
0
  5
50C
 10
55.8712
 20
27.2703
 30
0.00000
  70
    32
  0
VERTEX
  8
0
  5
50D
 10
55.8037
 20
27.3762
 30
0.00000
  70
    32
  0
VERTEX
  8
0
  5
50E
 10
55.7362
 20
27.4821
 30
0.00000
  70
    32
  0
VERTEX
  8
0
  5
50F
 10
55.6685
 20
27.5879
 30
0.00000
  70
    32
  0
VERTEX
  8
0
  5
510
 10
55.6008
 20
27.6936
 30
0.00000
  70
    32
  0
VERTEX
  8
0
  5
511
 10
55.5330
 20
27.7993
 30
0.00000
  70
    32
  0
VERTEX
  8
0
  5
512
 10
55.4651
 20
27.9049
 30
0.00000
  70
    32
  0
VERTEX
  8
0
  5
513
 10
55.3971
 20
28.0104
 30
0.00000
  70
    32
  0
VERTEX
  8
0
  5
514
 10
55.3290
 20
28.1159
 30
0.00000
  70
    32
  0
VERTEX
  8
0
  5
515
 10
55.2608
 20
28.2213
 30
0.00000
  70
    32
  0
VERTEX
  8
0
  5
516
 10
55.1925
 20
28.3266
 30
0.00000
  70
    32
  0
VERTEX
  8
0
  5
517
 10
55.1242
 20
28.4319
 30
0.00000
  70
    32
  0
VERTEX
  8
0
  5
518
 10
55.0557
 20
28.5371
 30
0.00000
  70
    32
  0
VERTEX
  8
0
  5
519
 10
54.9872
 20
28.6423
 30
0.00000
  70
    32
  0
VERTEX
  8
0
  5
51A
 10
54.9186
 20
28.7474
 30
0.00000
  70
    32
  0
VERTEX
  8
0
  5
51B
 10
54.8498
 20
28.8524
 30
0.00000
  70
    32
  0
VERTEX
  8
0
  5
51C
 10
54.7810
 20
28.9574
 30
0.00000
  70
    32
  0
VERTEX
  8
0
  5
51D
 10
54.7121
 20
29.0623
 30
0.00000
  70
    32
  0
VERTEX
  8
0
  5
51E
 10
54.6431
 20
29.1671
 30
0.00000
  70
    32
  0
VERTEX
  8
0
  5
51F
 10
54.5740
 20
29.2719
 30
0.00000
  70
    32
  0
VERTEX
  8
0
  5
520
 10
54.5048
 20
29.3766
 30
0.00000
  70
    32
  0
VERTEX
  8
0
  5
521
 10
54.4355
 20
29.4812
 30
0.00000
  70
    32
  0
VERTEX
  8
0
  5
522
 10
54.3662
 20
29.5858
 30
0.00000
  70
    32
  0
VERTEX
  8
0
  5
523
 10
54.2967
 20
29.6903
 30
0.00000
  70
    32
  0
VERTEX
  8
0
  5
524
 10
54.2272
 20
29.7948
 30
0.00000
  70
    32
  0
VERTEX
  8
0
  5
525
 10
54.1575
 20
29.8992
 30
0.00000
  70
    32
  0
VERTEX
  8
0
  5
526
 10
54.0878
 20
30.0035
 30
0.00000
  70
    32
  0
VERTEX
  8
0
  5
527
 10
54.0180
 20
30.1078
 30
0.00000
  70
    32
  0
VERTEX
  8
0
  5
528
 10
53.9480
 20
30.2120
 30
0.00000
  70
    32
  0
VERTEX
  8
0
  5
529
 10
53.8780
 20
30.3161
 30
0.00000
  70
    32
  0
VERTEX
  8
0
  5
52A
 10
53.8079
 20
30.4201
 30
0.00000
  70
    32
  0
VERTEX
  8
0
  5
52B
 10
53.7377
 20
30.5241
 30
0.00000
  70
    32
  0
VERTEX
  8
0
  5
52C
 10
53.6674
 20
30.6281
 30
0.00000
  70
    32
  0
VERTEX
  8
0
  5
52D
 10
53.5970
 20
30.7319
 30
0.00000
  70
    32
  0
VERTEX
  8
0
  5
52E
 10
53.5265
 20
30.8357
 30
0.00000
  70
    32
  0
VERTEX
  8
0
  5
52F
 10
53.4560
 20
30.9395
 30
0.00000
  70
    32
  0
VERTEX
  8
0
  5
530
 10
53.3853
 20
31.0431
 30
0.00000
  70
    32
  0
VERTEX
  8
0
  5
531
 10
53.3145
 20
31.1467
 30
0.00000
  70
    32
  0
VERTEX
  8
0
  5
532
 10
53.2437
 20
31.2503
 30
0.00000
  70
    32
  0
VERTEX
  8
0
  5
533
 10
53.1727
 20
31.3537
 30
0.00000
  70
    32
  0
VERTEX
  8
0
  5
534
 10
53.1017
 20
31.4571
 30
0.00000
  70
    32
  0
VERTEX
  8
0
  5
535
 10
53.0306
 20
31.5605
 30
0.00000
  70
    32
  0
VERTEX
  8
0
  5
536
 10
52.9593
 20
31.6638
 30
0.00000
  70
    32
  0
VERTEX
  8
0
  5
537
 10
52.8880
 20
31.7670
 30
0.00000
  70
    32
  0
VERTEX
  8
0
  5
538
 10
52.8166
 20
31.8701
 30
0.00000
  70
    32
  0
VERTEX
  8
0
  5
539
 10
52.7451
 20
31.9732
 30
0.00000
  70
    32
  0
VERTEX
  8
0
  5
53A
 10
52.6735
 20
32.0762
 30
0.00000
  70
    32
  0
VERTEX
  8
0
  5
53B
 10
52.6018
 20
32.1791
 30
0.00000
  70
    32
  0
VERTEX
  8
0
  5
53C
 10
52.5300
 20
32.2820
 30
0.00000
  70
    32
  0
VERTEX
  8
0
  5
53D
 10
52.4581
 20
32.3848
 30
0.00000
  70
    32
  0
VERTEX
  8
0
  5
53E
 10
52.3861
 20
32.4875
 30
0.00000
  70
    32
  0
VERTEX
  8
0
  5
53F
 10
52.3140
 20
32.5902
 30
0.00000
  70
    32
  0
VERTEX
  8
0
  5
540
 10
52.2418
 20
32.6928
 30
0.00000
  70
    32
  0
VERTEX
  8
0
  5
541
 10
52.1695
 20
32.7953
 30
0.00000
  70
    32
  0
VERTEX
  8
0
  5
542
 10
52.0972
 20
32.8977
 30
0.00000
  70
    32
  0
VERTEX
  8
0
  5
543
 10
52.0247
 20
33.0001
 30
0.00000
  70
    32
  0
VERTEX
  8
0
  5
544
 10
51.9521
 20
33.1025
 30
0.00000
  70
    32
  0
VERTEX
  8
0
  5
545
 10
51.8795
 20
33.2047
 30
0.00000
  70
    32
  0
VERTEX
  8
0
  5
546
 10
51.8067
 20
33.3069
 30
0.00000
  70
    32
  0
VERTEX
  8
0
  5
547
 10
51.7339
 20
33.4090
 30
0.00000
  70
    32
  0
VERTEX
  8
0
  5
548
 10
51.6609
 20
33.5111
 30
0.00000
  70
    32
  0
VERTEX
  8
0
  5
549
 10
51.5879
 20
33.6131
 30
0.00000
  70
    32
  0
VERTEX
  8
0
  5
54A
 10
51.5148
 20
33.7150
 30
0.00000
  70
    32
  0
VERTEX
  8
0
  5
54B
 10
51.4415
 20
33.8168
 30
0.00000
  70
    32
  0
VERTEX
  8
0
  5
54C
 10
51.3682
 20
33.9186
 30
0.00000
  70
    32
  0
VERTEX
  8
0
  5
54D
 10
51.2948
 20
34.0203
 30
0.00000
  70
    32
  0
VERTEX
  8
0
  5
54E
 10
51.2213
 20
34.1219
 30
0.00000
  70
    32
  0
VERTEX
  8
0
  5
54F
 10
51.1476
 20
34.2235
 30
0.00000
  70
    32
  0
VERTEX
  8
0
  5
550
 10
51.0739
 20
34.3250
 30
0.00000
  70
    32
  0
VERTEX
  8
0
  5
551
 10
51.0001
 20
34.4264
 30
0.00000
  70
    32
  0
VERTEX
  8
0
  5
552
 10
50.9262
 20
34.5278
 30
0.00000
  70
    32
  0
VERTEX
  8
0
  5
553
 10
50.8522
 20
34.6291
 30
0.00000
  70
    32
  0
VERTEX
  8
0
  5
554
 10
50.7781
 20
34.7303
 30
0.00000
  70
    32
  0
VERTEX
  8
0
  5
555
 10
50.7039
 20
34.8314
 30
0.00000
  70
    32
  0
VERTEX
  8
0
  5
556
 10
50.6296
 20
34.9325
 30
0.00000
  70
    32
  0
VERTEX
  8
0
  5
557
 10
50.5552
 20
35.0335
 30
0.00000
  70
    32
  0
VERTEX
  8
0
  5
558
 10
50.4807
 20
35.1344
 30
0.00000
  70
    32
  0
VERTEX
  8
0
  5
559
 10
50.4061
 20
35.2353
 30
0.00000
  70
    32
  0
VERTEX
  8
0
  5
55A
 10
50.3314
 20
35.3361
 30
0.00000
  70
    32
  0
VERTEX
  8
0
  5
55B
 10
50.2566
 20
35.4368
 30
0.00000
  70
    32
  0
VERTEX
  8
0
  5
55C
 10
50.1817
 20
35.5375
 30
0.00000
  70
    32
  0
VERTEX
  8
0
  5
55D
 10
50.1068
 20
35.6380
 30
0.00000
  70
    32
  0
VERTEX
  8
0
  5
55E
 10
50.0317
 20
35.7385
 30
0.00000
  70
    32
  0
VERTEX
  8
0
  5
55F
 10
49.9565
 20
35.8390
 30
0.00000
  70
    32
  0
VERTEX
  8
0
  5
560
 10
49.8812
 20
35.9394
 30
0.00000
  70
    32
  0
VERTEX
  8
0
  5
561
 10
49.8058
 20
36.0397
 30
0.00000
  70
    32
  0
VERTEX
  8
0
  5
562
 10
49.7304
 20
36.1399
 30
0.00000
  70
    32
  0
VERTEX
  8
0
  5
563
 10
49.6548
 20
36.2400
 30
0.00000
  70
    32
  0
VERTEX
  8
0
  5
564
 10
49.5792
 20
36.3401
 30
0.00000
  70
    32
  0
VERTEX
  8
0
  5
565
 10
49.5034
 20
36.4401
 30
0.00000
  70
    32
  0
VERTEX
  8
0
  5
566
 10
49.4275
 20
36.5401
 30
0.00000
  70
    32
  0
VERTEX
  8
0
  5
567
 10
49.3516
 20
36.6399
 30
0.00000
  70
    32
  0
VERTEX
  8
0
  5
568
 10
49.2756
 20
36.7397
 30
0.00000
  70
    32
  0
VERTEX
  8
0
  5
569
 10
49.1994
 20
36.8395
 30
0.00000
  70
    32
  0
VERTEX
  8
0
  5
56A
 10
49.1232
 20
36.9391
 30
0.00000
  70
    32
  0
VERTEX
  8
0
  5
56B
 10
49.0468
 20
37.0387
 30
0.00000
  70
    32
  0
VERTEX
  8
0
  5
56C
 10
48.9704
 20
37.1382
 30
0.00000
  70
    32
  0
VERTEX
  8
0
  5
56D
 10
48.8939
 20
37.2377
 30
0.00000
  70
    32
  0
VERTEX
  8
0
  5
56E
 10
48.8173
 20
37.3370
 30
0.00000
  70
    32
  0
VERTEX
  8
0
  5
56F
 10
48.7406
 20
37.4363
 30
0.00000
  70
    32
  0
VERTEX
  8
0
  5
570
 10
48.6638
 20
37.5356
 30
0.00000
  70
    32
  0
VERTEX
  8
0
  5
571
 10
48.5869
 20
37.6347
 30
0.00000
  70
    32
  0
VERTEX
  8
0
  5
572
 10
48.5099
 20
37.7338
 30
0.00000
  70
    32
  0
VERTEX
  8
0
  5
573
 10
48.4328
 20
37.8328
 30
0.00000
  70
    32
  0
VERTEX
  8
0
  5
574
 10
48.3556
 20
37.9318
 30
0.00000
  70
    32
  0
VERTEX
  8
0
  5
575
 10
48.2784
 20
38.0307
 30
0.00000
  70
    32
  0
VERTEX
  8
0
  5
576
 10
48.2010
 20
38.1295
 30
0.00000
  70
    32
  0
VERTEX
  8
0
  5
577
 10
48.1235
 20
38.2282
 30
0.00000
  70
    32
  0
VERTEX
  8
0
  5
578
 10
48.0460
 20
38.3269
 30
0.00000
  70
    32
  0
VERTEX
  8
0
  5
579
 10
47.9683
 20
38.4255
 30
0.00000
  70
    32
  0
VERTEX
  8
0
  5
57A
 10
47.8906
 20
38.5240
 30
0.00000
  70
    32
  0
VERTEX
  8
0
  5
57B
 10
47.8128
 20
38.6224
 30
0.00000
  70
    32
  0
VERTEX
  8
0
  5
57C
 10
47.7349
 20
38.7208
 30
0.00000
  70
    32
  0
VERTEX
  8
0
  5
57D
 10
47.6569
 20
38.8191
 30
0.00000
  70
    32
  0
VERTEX
  8
0
  5
57E
 10
47.5788
 20
38.9173
 30
0.00000
  70
    32
  0
VERTEX
  8
0
  5
57F
 10
47.5006
 20
39.0155
 30
0.00000
  70
    32
  0
VERTEX
  8
0
  5
580
 10
47.4223
 20
39.1136
 30
0.00000
  70
    32
  0
VERTEX
  8
0
  5
581
 10
47.3439
 20
39.2116
 30
0.00000
  70
    32
  0
VERTEX
  8
0
  5
582
 10
47.2654
 20
39.3096
 30
0.00000
  70
    32
  0
VERTEX
  8
0
  5
583
 10
47.1869
 20
39.4074
 30
0.00000
  70
    32
  0
VERTEX
  8
0
  5
584
 10
47.1598
 20
39.5518
 30
0.00000
  70
    32
  0
VERTEX
  8
0
  5
585
 10
47.7610
 20
40.2628
 30
0.00000
  70
    32
  0
VERTEX
  8
0
  5
586
 10
48.3622
 20
40.9737
 30
0.00000
  70
    32
  0
VERTEX
  8
0
  5
587
 10
48.9633
 20
41.6847
 30
0.00000
  70
    32
  0
VERTEX
  8
0
  5
588
 10
49.5645
 20
42.3957
 30
0.00000
  70
    32
  0
VERTEX
  8
0
  5
589
 10
50.1657
 20
43.1067
 30
0.00000
  70
    32
  0
VERTEX
  8
0
  5
58A
 10
50.7668
 20
43.8177
 30
0.00000
  70
    32
  0
VERTEX
  8
0
  5
58B
 10
51.3680
 20
44.5286
 30
0.00000
  70
    32
  0
VERTEX
  8
0
  5
58C
 10
51.9143
 20
45.1746
 30
0.00000
  70
    32
  0
VERTEX
  8
0
  5
58D
 10
52.0023
 20
45.2639
 30
0.00000
  70
    32
  0
VERTEX
  8
0
  5
58E
 10
52.1008
 20
45.3416
 30
0.00000
  70
    32
  0
VERTEX
  8
0
  5
58F
 10
52.8490
 20
45.8545
 30
0.00000
  70
    32
  0
VERTEX
  8
0
  5
590
 10
53.6169
 20
46.3810
 30
0.00000
  70
    32
  0
VERTEX
  8
0
  5
591
 10
54.3848
 20
46.9075
 30
0.00000
  70
    32
  0
VERTEX
  8
0
  5
592
 10
55.1527
 20
47.4340
 30
0.00000
  70
    32
  0
VERTEX
  8
0
  5
593
 10
55.9207
 20
47.9605
 30
0.00000
  70
    32
  0
VERTEX
  8
0
  5
594
 10
56.6886
 20
48.4870
 30
0.00000
  70
    32
  0
VERTEX
  8
0
  5
595
 10
57.4565
 20
49.0135
 30
0.00000
  70
    32
  0
VERTEX
  8
0
  5
596
 10
58.2244
 20
49.5400
 30
0.00000
  70
    32
  0
SEQEND
  8
0
  5
597
  0
CIRCLE
  5
1F7
  8
DRILLING
 10
80.1102209073080047
 20
9.1241830134626412
 30
0.0
 40
0.3224999999999999
  0
CIRCLE
  5
1F8
  8
DRILLING
 10
86.0428003290948453
 20
10.0211230360910708
 30
0.0
 40
0.3224999999999999
  0
INSERT
  5
1F9
  8
0
  2
*U4
 10
0.0
 20
0.0
 30
0.0
  0
CIRCLE
  5
1FA
  8
DRILLING
 10
54.8991456725618008
 20
42.5119585893444807
 30
0.0
 40
0.3224999999999999
  0
CIRCLE
  5
1FB
  8
DRILLING
 10
59.3588422734321028
 20
38.4980943380045915
 30
0.0
 40
0.3224999999999999
  0
POLYLINE
  8
0
  5
598
  66
     1
 10
0.00000
 20
0.00000
 30
0.00000
  70
     8
  0
VERTEX
  8
0
  5
599
 10
19.9871
 20
49.2876
 30
0.00000
  70
    32
  0
VERTEX
  8
0
  5
59A
 10
20.0879
 20
49.2128
 30
0.00000
  70
    32
  0
VERTEX
  8
0
  5
59B
 10
20.1886
 20
49.1380
 30
0.00000
  70
    32
  0
VERTEX
  8
0
  5
59C
 10
20.2893
 20
49.0631
 30
0.00000
  70
    32
  0
VERTEX
  8
0
  5
59D
 10
20.3899
 20
48.9882
 30
0.00000
  70
    32
  0
VERTEX
  8
0
  5
59E
 10
20.4906
 20
48.9132
 30
0.00000
  70
    32
  0
VERTEX
  8
0
  5
59F
 10
20.5911
 20
48.8382
 30
0.00000
  70
    32
  0
VERTEX
  8
0
  5
5A0
 10
20.6917
 20
48.7631
 30
0.00000
  70
    32
  0
VERTEX
  8
0
  5
5A1
 10
20.7922
 20
48.6880
 30
0.00000
  70
    32
  0
VERTEX
  8
0
  5
5A2
 10
20.8927
 20
48.6128
 30
0.00000
  70
    32
  0
VERTEX
  8
0
  5
5A3
 10
20.9931
 20
48.5376
 30
0.00000
  70
    32
  0
VERTEX
  8
0
  5
5A4
 10
21.0935
 20
48.4623
 30
0.00000
  70
    32
  0
VERTEX
  8
0
  5
5A5
 10
21.1938
 20
48.3870
 30
0.00000
  70
    32
  0
VERTEX
  8
0
  5
5A6
 10
21.2941
 20
48.3116
 30
0.00000
  70
    32
  0
VERTEX
  8
0
  5
5A7
 10
21.3944
 20
48.2362
 30
0.00000
  70
    32
  0
VERTEX
  8
0
  5
5A8
 10
21.4946
 20
48.1607
 30
0.00000
  70
    32
  0
VERTEX
  8
0
  5
5A9
 10
21.5948
 20
48.0851
 30
0.00000
  70
    32
  0
VERTEX
  8
0
  5
5AA
 10
21.6950
 20
48.0096
 30
0.00000
  70
    32
  0
VERTEX
  8
0
  5
5AB
 10
21.7951
 20
47.9339
 30
0.00000
  70
    32
  0
VERTEX
  8
0
  5
5AC
 10
21.8952
 20
47.8582
 30
0.00000
  70
    32
  0
VERTEX
  8
0
  5
5AD
 10
21.9953
 20
47.7825
 30
0.00000
  70
    32
  0
VERTEX
  8
0
  5
5AE
 10
22.0953
 20
47.7067
 30
0.00000
  70
    32
  0
VERTEX
  8
0
  5
5AF
 10
22.1952
 20
47.6309
 30
0.00000
  70
    32
  0
VERTEX
  8
0
  5
5B0
 10
22.2952
 20
47.5550
 30
0.00000
  70
    32
  0
VERTEX
  8
0
  5
5B1
 10
22.3951
 20
47.4791
 30
0.00000
  70
    32
  0
VERTEX
  8
0
  5
5B2
 10
22.4949
 20
47.4031
 30
0.00000
  70
    32
  0
VERTEX
  8
0
  5
5B3
 10
22.5947
 20
47.3270
 30
0.00000
  70
    32
  0
VERTEX
  8
0
  5
5B4
 10
22.6945
 20
47.2509
 30
0.00000
  70
    32
  0
VERTEX
  8
0
  5
5B5
 10
22.7942
 20
47.1748
 30
0.00000
  70
    32
  0
VERTEX
  8
0
  5
5B6
 10
22.8939
 20
47.0986
 30
0.00000
  70
    32
  0
VERTEX
  8
0
  5
5B7
 10
22.9936
 20
47.0224
 30
0.00000
  70
    32
  0
VERTEX
  8
0
  5
5B8
 10
23.0932
 20
46.9461
 30
0.00000
  70
    32
  0
VERTEX
  8
0
  5
5B9
 10
23.1928
 20
46.8697
 30
0.00000
  70
    32
  0
VERTEX
  8
0
  5
5BA
 10
23.2923
 20
46.7934
 30
0.00000
  70
    32
  0
VERTEX
  8
0
  5
5BB
 10
23.3918
 20
46.7169
 30
0.00000
  70
    32
  0
VERTEX
  8
0
  5
5BC
 10
23.4913
 20
46.6404
 30
0.00000
  70
    32
  0
VERTEX
  8
0
  5
5BD
 10
23.5907
 20
46.5639
 30
0.00000
  70
    32
  0
VERTEX
  8
0
  5
5BE
 10
23.6901
 20
46.4873
 30
0.00000
  70
    32
  0
VERTEX
  8
0
  5
5BF
 10
23.7895
 20
46.4106
 30
0.00000
  70
    32
  0
VERTEX
  8
0
  5
5C0
 10
23.8888
 20
46.3339
 30
0.00000
  70
    32
  0
VERTEX
  8
0
  5
5C1
 10
23.9881
 20
46.2572
 30
0.00000
  70
    32
  0
VERTEX
  8
0
  5
5C2
 10
24.0873
 20
46.1804
 30
0.00000
  70
    32
  0
VERTEX
  8
0
  5
5C3
 10
24.1865
 20
46.1036
 30
0.00000
  70
    32
  0
VERTEX
  8
0
  5
5C4
 10
24.2856
 20
46.0267
 30
0.00000
  70
    32
  0
VERTEX
  8
0
  5
5C5
 10
24.3848
 20
45.9497
 30
0.00000
  70
    32
  0
VERTEX
  8
0
  5
5C6
 10
24.4838
 20
45.8727
 30
0.00000
  70
    32
  0
VERTEX
  8
0
  5
5C7
 10
24.5829
 20
45.7957
 30
0.00000
  70
    32
  0
VERTEX
  8
0
  5
5C8
 10
24.6819
 20
45.7186
 30
0.00000
  70
    32
  0
VERTEX
  8
0
  5
5C9
 10
24.7808
 20
45.6414
 30
0.00000
  70
    32
  0
VERTEX
  8
0
  5
5CA
 10
24.8797
 20
45.5642
 30
0.00000
  70
    32
  0
VERTEX
  8
0
  5
5CB
 10
24.9786
 20
45.4870
 30
0.00000
  70
    32
  0
VERTEX
  8
0
  5
5CC
 10
25.0775
 20
45.4097
 30
0.00000
  70
    32
  0
VERTEX
  8
0
  5
5CD
 10
25.1763
 20
45.3323
 30
0.00000
  70
    32
  0
VERTEX
  8
0
  5
5CE
 10
25.2750
 20
45.2549
 30
0.00000
  70
    32
  0
VERTEX
  8
0
  5
5CF
 10
25.3738
 20
45.1775
 30
0.00000
  70
    32
  0
VERTEX
  8
0
  5
5D0
 10
25.4724
 20
45.1000
 30
0.00000
  70
    32
  0
VERTEX
  8
0
  5
5D1
 10
25.5711
 20
45.0224
 30
0.00000
  70
    32
  0
VERTEX
  8
0
  5
5D2
 10
25.6697
 20
44.9448
 30
0.00000
  70
    32
  0
VERTEX
  8
0
  5
5D3
 10
25.7683
 20
44.8672
 30
0.00000
  70
    32
  0
VERTEX
  8
0
  5
5D4
 10
25.8668
 20
44.7895
 30
0.00000
  70
    32
  0
VERTEX
  8
0
  5
5D5
 10
25.9653
 20
44.7117
 30
0.00000
  70
    32
  0
VERTEX
  8
0
  5
5D6
 10
26.0637
 20
44.6339
 30
0.00000
  70
    32
  0
VERTEX
  8
0
  5
5D7
 10
26.1621
 20
44.5561
 30
0.00000
  70
    32
  0
VERTEX
  8
0
  5
5D8
 10
26.2605
 20
44.4782
 30
0.00000
  70
    32
  0
VERTEX
  8
0
  5
5D9
 10
26.3588
 20
44.4002
 30
0.00000
  70
    32
  0
VERTEX
  8
0
  5
5DA
 10
26.4571
 20
44.3222
 30
0.00000
  70
    32
  0
VERTEX
  8
0
  5
5DB
 10
26.5553
 20
44.2442
 30
0.00000
  70
    32
  0
VERTEX
  8
0
  5
5DC
 10
26.6536
 20
44.1661
 30
0.00000
  70
    32
  0
VERTEX
  8
0
  5
5DD
 10
26.7517
 20
44.0879
 30
0.00000
  70
    32
  0
VERTEX
  8
0
  5
5DE
 10
26.8499
 20
44.0097
 30
0.00000
  70
    32
  0
VERTEX
  8
0
  5
5DF
 10
26.9479
 20
43.9315
 30
0.00000
  70
    32
  0
VERTEX
  8
0
  5
5E0
 10
27.0460
 20
43.8531
 30
0.00000
  70
    32
  0
VERTEX
  8
0
  5
5E1
 10
27.1440
 20
43.7748
 30
0.00000
  70
    32
  0
VERTEX
  8
0
  5
5E2
 10
27.2420
 20
43.6964
 30
0.00000
  70
    32
  0
VERTEX
  8
0
  5
5E3
 10
27.3399
 20
43.6179
 30
0.00000
  70
    32
  0
VERTEX
  8
0
  5
5E4
 10
27.4378
 20
43.5394
 30
0.00000
  70
    32
  0
VERTEX
  8
0
  5
5E5
 10
27.5356
 20
43.4609
 30
0.00000
  70
    32
  0
VERTEX
  8
0
  5
5E6
 10
27.6334
 20
43.3823
 30
0.00000
  70
    32
  0
VERTEX
  8
0
  5
5E7
 10
27.7312
 20
43.3036
 30
0.00000
  70
    32
  0
VERTEX
  8
0
  5
5E8
 10
27.8289
 20
43.2249
 30
0.00000
  70
    32
  0
VERTEX
  8
0
  5
5E9
 10
27.9266
 20
43.1461
 30
0.00000
  70
    32
  0
VERTEX
  8
0
  5
5EA
 10
28.0243
 20
43.0673
 30
0.00000
  70
    32
  0
VERTEX
  8
0
  5
5EB
 10
28.1219
 20
42.9885
 30
0.00000
  70
    32
  0
VERTEX
  8
0
  5
5EC
 10
28.2194
 20
42.9096
 30
0.00000
  70
    32
  0
VERTEX
  8
0
  5
5ED
 10
28.3170
 20
42.8306
 30
0.00000
  70
    32
  0
VERTEX
  8
0
  5
5EE
 10
28.4145
 20
42.7516
 30
0.00000
  70
    32
  0
VERTEX
  8
0
  5
5EF
 10
28.5119
 20
42.6726
 30
0.00000
  70
    32
  0
VERTEX
  8
0
  5
5F0
 10
28.6093
 20
42.5934
 30
0.00000
  70
    32
  0
VERTEX
  8
0
  5
5F1
 10
28.7067
 20
42.5143
 30
0.00000
  70
    32
  0
VERTEX
  8
0
  5
5F2
 10
28.8040
 20
42.4351
 30
0.00000
  70
    32
  0
VERTEX
  8
0
  5
5F3
 10
28.9013
 20
42.3558
 30
0.00000
  70
    32
  0
VERTEX
  8
0
  5
5F4
 10
28.9985
 20
42.2765
 30
0.00000
  70
    32
  0
VERTEX
  8
0
  5
5F5
 10
29.0957
 20
42.1972
 30
0.00000
  70
    32
  0
VERTEX
  8
0
  5
5F6
 10
29.1929
 20
42.1177
 30
0.00000
  70
    32
  0
VERTEX
  8
0
  5
5F7
 10
29.2900
 20
42.0383
 30
0.00000
  70
    32
  0
VERTEX
  8
0
  5
5F8
 10
29.3871
 20
41.9588
 30
0.00000
  70
    32
  0
VERTEX
  8
0
  5
5F9
 10
29.4841
 20
41.8792
 30
0.00000
  70
    32
  0
VERTEX
  8
0
  5
5FA
 10
29.5811
 20
41.7996
 30
0.00000
  70
    32
  0
VERTEX
  8
0
  5
5FB
 10
29.6781
 20
41.7200
 30
0.00000
  70
    32
  0
VERTEX
  8
0
  5
5FC
 10
29.7750
 20
41.6402
 30
0.00000
  70
    32
  0
VERTEX
  8
0
  5
5FD
 10
29.8719
 20
41.5605
 30
0.00000
  70
    32
  0
VERTEX
  8
0
  5
5FE
 10
29.9687
 20
41.4807
 30
0.00000
  70
    32
  0
VERTEX
  8
0
  5
5FF
 10
30.0655
 20
41.4008
 30
0.00000
  70
    32
  0
VERTEX
  8
0
  5
600
 10
30.1623
 20
41.3209
 30
0.00000
  70
    32
  0
VERTEX
  8
0
  5
601
 10
30.2590
 20
41.2410
 30
0.00000
  70
    32
  0
VERTEX
  8
0
  5
602
 10
30.3557
 20
41.1610
 30
0.00000
  70
    32
  0
VERTEX
  8
0
  5
603
 10
30.4523
 20
41.0809
 30
0.00000
  70
    32
  0
VERTEX
  8
0
  5
604
 10
30.5489
 20
41.0008
 30
0.00000
  70
    32
  0
VERTEX
  8
0
  5
605
 10
30.6455
 20
40.9207
 30
0.00000
  70
    32
  0
VERTEX
  8
0
  5
606
 10
30.7420
 20
40.8405
 30
0.00000
  70
    32
  0
VERTEX
  8
0
  5
607
 10
30.8385
 20
40.7602
 30
0.00000
  70
    32
  0
VERTEX
  8
0
  5
608
 10
30.9349
 20
40.6799
 30
0.00000
  70
    32
  0
VERTEX
  8
0
  5
609
 10
31.0313
 20
40.5996
 30
0.00000
  70
    32
  0
VERTEX
  8
0
  5
60A
 10
31.1276
 20
40.5192
 30
0.00000
  70
    32
  0
VERTEX
  8
0
  5
60B
 10
31.2239
 20
40.4387
 30
0.00000
  70
    32
  0
VERTEX
  8
0
  5
60C
 10
31.3202
 20
40.3582
 30
0.00000
  70
    32
  0
VERTEX
  8
0
  5
60D
 10
31.4164
 20
40.2777
 30
0.00000
  70
    32
  0
VERTEX
  8
0
  5
60E
 10
31.5126
 20
40.1971
 30
0.00000
  70
    32
  0
VERTEX
  8
0
  5
60F
 10
31.6088
 20
40.1164
 30
0.00000
  70
    32
  0
VERTEX
  8
0
  5
610
 10
31.7049
 20
40.0357
 30
0.00000
  70
    32
  0
VERTEX
  8
0
  5
611
 10
31.8010
 20
39.9550
 30
0.00000
  70
    32
  0
VERTEX
  8
0
  5
612
 10
31.8970
 20
39.8742
 30
0.00000
  70
    32
  0
VERTEX
  8
0
  5
613
 10
31.9930
 20
39.7934
 30
0.00000
  70
    32
  0
VERTEX
  8
0
  5
614
 10
32.0889
 20
39.7125
 30
0.00000
  70
    32
  0
VERTEX
  8
0
  5
615
 10
32.1848
 20
39.6316
 30
0.00000
  70
    32
  0
VERTEX
  8
0
  5
616
 10
32.2807
 20
39.5506
 30
0.00000
  70
    32
  0
VERTEX
  8
0
  5
617
 10
32.3765
 20
39.4695
 30
0.00000
  70
    32
  0
VERTEX
  8
0
  5
618
 10
32.4723
 20
39.3885
 30
0.00000
  70
    32
  0
VERTEX
  8
0
  5
619
 10
32.5680
 20
39.3073
 30
0.00000
  70
    32
  0
VERTEX
  8
0
  5
61A
 10
32.6638
 20
39.2262
 30
0.00000
  70
    32
  0
VERTEX
  8
0
  5
61B
 10
32.7594
 20
39.1449
 30
0.00000
  70
    32
  0
VERTEX
  8
0
  5
61C
 10
32.8550
 20
39.0637
 30
0.00000
  70
    32
  0
VERTEX
  8
0
  5
61D
 10
32.9506
 20
38.9823
 30
0.00000
  70
    32
  0
VERTEX
  8
0
  5
61E
 10
33.0462
 20
38.9010
 30
0.00000
  70
    32
  0
VERTEX
  8
0
  5
61F
 10
33.1417
 20
38.8196
 30
0.00000
  70
    32
  0
VERTEX
  8
0
  5
620
 10
33.2371
 20
38.7381
 30
0.00000
  70
    32
  0
VERTEX
  8
0
  5
621
 10
33.3325
 20
38.6566
 30
0.00000
  70
    32
  0
VERTEX
  8
0
  5
622
 10
33.4279
 20
38.5750
 30
0.00000
  70
    32
  0
VERTEX
  8
0
  5
623
 10
33.5233
 20
38.4934
 30
0.00000
  70
    32
  0
VERTEX
  8
0
  5
624
 10
33.6186
 20
38.4118
 30
0.00000
  70
    32
  0
VERTEX
  8
0
  5
625
 10
33.7138
 20
38.3301
 30
0.00000
  70
    32
  0
VERTEX
  8
0
  5
626
 10
33.8090
 20
38.2483
 30
0.00000
  70
    32
  0
VERTEX
  8
0
  5
627
 10
33.9042
 20
38.1665
 30
0.00000
  70
    32
  0
VERTEX
  8
0
  5
628
 10
33.9993
 20
38.0847
 30
0.00000
  70
    32
  0
VERTEX
  8
0
  5
629
 10
34.0944
 20
38.0028
 30
0.00000
  70
    32
  0
VERTEX
  8
0
  5
62A
 10
34.1895
 20
37.9208
 30
0.00000
  70
    32
  0
VERTEX
  8
0
  5
62B
 10
34.2845
 20
37.8388
 30
0.00000
  70
    32
  0
VERTEX
  8
0
  5
62C
 10
34.3795
 20
37.7568
 30
0.00000
  70
    32
  0
VERTEX
  8
0
  5
62D
 10
34.4744
 20
37.6747
 30
0.00000
  70
    32
  0
VERTEX
  8
0
  5
62E
 10
34.5693
 20
37.5926
 30
0.00000
  70
    32
  0
VERTEX
  8
0
  5
62F
 10
34.6641
 20
37.5104
 30
0.00000
  70
    32
  0
VERTEX
  8
0
  5
630
 10
34.7590
 20
37.4282
 30
0.00000
  70
    32
  0
VERTEX
  8
0
  5
631
 10
34.8537
 20
37.3459
 30
0.00000
  70
    32
  0
VERTEX
  8
0
  5
632
 10
34.9485
 20
37.2636
 30
0.00000
  70
    32
  0
VERTEX
  8
0
  5
633
 10
35.0431
 20
37.1812
 30
0.00000
  70
    32
  0
VERTEX
  8
0
  5
634
 10
35.1378
 20
37.0988
 30
0.00000
  70
    32
  0
VERTEX
  8
0
  5
635
 10
35.2324
 20
37.0163
 30
0.00000
  70
    32
  0
VERTEX
  8
0
  5
636
 10
35.3270
 20
36.9338
 30
0.00000
  70
    32
  0
VERTEX
  8
0
  5
637
 10
35.4215
 20
36.8513
 30
0.00000
  70
    32
  0
VERTEX
  8
0
  5
638
 10
35.5160
 20
36.7687
 30
0.00000
  70
    32
  0
VERTEX
  8
0
  5
639
 10
35.6104
 20
36.6860
 30
0.00000
  70
    32
  0
VERTEX
  8
0
  5
63A
 10
35.7048
 20
36.6033
 30
0.00000
  70
    32
  0
VERTEX
  8
0
  5
63B
 10
35.7992
 20
36.5206
 30
0.00000
  70
    32
  0
VERTEX
  8
0
  5
63C
 10
35.8935
 20
36.4378
 30
0.00000
  70
    32
  0
VERTEX
  8
0
  5
63D
 10
35.9878
 20
36.3550
 30
0.00000
  70
    32
  0
VERTEX
  8
0
  5
63E
 10
36.0820
 20
36.2721
 30
0.00000
  70
    32
  0
VERTEX
  8
0
  5
63F
 10
36.1762
 20
36.1891
 30
0.00000
  70
    32
  0
VERTEX
  8
0
  5
640
 10
36.2704
 20
36.1062
 30
0.00000
  70
    32
  0
VERTEX
  8
0
  5
641
 10
36.3645
 20
36.0231
 30
0.00000
  70
    32
  0
VERTEX
  8
0
  5
642
 10
36.4586
 20
35.9401
 30
0.00000
  70
    32
  0
VERTEX
  8
0
  5
643
 10
36.5526
 20
35.8570
 30
0.00000
  70
    32
  0
VERTEX
  8
0
  5
644
 10
36.6466
 20
35.7738
 30
0.00000
  70
    32
  0
VERTEX
  8
0
  5
645
 10
36.7406
 20
35.6906
 30
0.00000
  70
    32
  0
VERTEX
  8
0
  5
646
 10
36.8345
 20
35.6073
 30
0.00000
  70
    32
  0
VERTEX
  8
0
  5
647
 10
36.9284
 20
35.5240
 30
0.00000
  70
    32
  0
VERTEX
  8
0
  5
648
 10
37.0222
 20
35.4407
 30
0.00000
  70
    32
  0
VERTEX
  8
0
  5
649
 10
37.1160
 20
35.3573
 30
0.00000
  70
    32
  0
VERTEX
  8
0
  5
64A
 10
37.2098
 20
35.2739
 30
0.00000
  70
    32
  0
VERTEX
  8
0
  5
64B
 10
37.3035
 20
35.1904
 30
0.00000
  70
    32
  0
VERTEX
  8
0
  5
64C
 10
37.3972
 20
35.1069
 30
0.00000
  70
    32
  0
VERTEX
  8
0
  5
64D
 10
37.4908
 20
35.0233
 30
0.00000
  70
    32
  0
VERTEX
  8
0
  5
64E
 10
37.5844
 20
34.9397
 30
0.00000
  70
    32
  0
VERTEX
  8
0
  5
64F
 10
37.6779
 20
34.8560
 30
0.00000
  70
    32
  0
VERTEX
  8
0
  5
650
 10
37.7715
 20
34.7723
 30
0.00000
  70
    32
  0
VERTEX
  8
0
  5
651
 10
37.8649
 20
34.6885
 30
0.00000
  70
    32
  0
VERTEX
  8
0
  5
652
 10
37.9584
 20
34.6047
 30
0.00000
  70
    32
  0
VERTEX
  8
0
  5
653
 10
38.0517
 20
34.5209
 30
0.00000
  70
    32
  0
VERTEX
  8
0
  5
654
 10
38.1451
 20
34.4370
 30
0.00000
  70
    32
  0
VERTEX
  8
0
  5
655
 10
38.2384
 20
34.3530
 30
0.00000
  70
    32
  0
VERTEX
  8
0
  5
656
 10
38.3317
 20
34.2691
 30
0.00000
  70
    32
  0
VERTEX
  8
0
  5
657
 10
38.4249
 20
34.1850
 30
0.00000
  70
    32
  0
VERTEX
  8
0
  5
658
 10
38.5181
 20
34.1010
 30
0.00000
  70
    32
  0
VERTEX
  8
0
  5
659
 10
38.6112
 20
34.0168
 30
0.00000
  70
    32
  0
VERTEX
  8
0
  5
65A
 10
38.7043
 20
33.9327
 30
0.00000
  70
    32
  0
VERTEX
  8
0
  5
65B
 10
38.7974
 20
33.8485
 30
0.00000
  70
    32
  0
VERTEX
  8
0
  5
65C
 10
38.8904
 20
33.7642
 30
0.00000
  70
    32
  0
VERTEX
  8
0
  5
65D
 10
38.9834
 20
33.6799
 30
0.00000
  70
    32
  0
VERTEX
  8
0
  5
65E
 10
39.0763
 20
33.5955
 30
0.00000
  70
    32
  0
VERTEX
  8
0
  5
65F
 10
39.1693
 20
33.5112
 30
0.00000
  70
    32
  0
VERTEX
  8
0
  5
660
 10
39.2621
 20
33.4267
 30
0.00000
  70
    32
  0
VERTEX
  8
0
  5
661
 10
39.3549
 20
33.3422
 30
0.00000
  70
    32
  0
VERTEX
  8
0
  5
662
 10
39.4477
 20
33.2577
 30
0.00000
  70
    32
  0
VERTEX
  8
0
  5
663
 10
39.5405
 20
33.1731
 30
0.00000
  70
    32
  0
VERTEX
  8
0
  5
664
 10
39.6332
 20
33.0885
 30
0.00000
  70
    32
  0
VERTEX
  8
0
  5
665
 10
39.7258
 20
33.0039
 30
0.00000
  70
    32
  0
VERTEX
  8
0
  5
666
 10
39.8184
 20
32.9192
 30
0.00000
  70
    32
  0
VERTEX
  8
0
  5
667
 10
39.9110
 20
32.8344
 30
0.00000
  70
    32
  0
VERTEX
  8
0
  5
668
 10
40.0035
 20
32.7496
 30
0.00000
  70
    32
  0
VERTEX
  8
0
  5
669
 10
40.0960
 20
32.6648
 30
0.00000
  70
    32
  0
VERTEX
  8
0
  5
66A
 10
40.1885
 20
32.5799
 30
0.00000
  70
    32
  0
VERTEX
  8
0
  5
66B
 10
40.2809
 20
32.4950
 30
0.00000
  70
    32
  0
VERTEX
  8
0
  5
66C
 10
40.3733
 20
32.4100
 30
0.00000
  70
    32
  0
VERTEX
  8
0
  5
66D
 10
40.4656
 20
32.3250
 30
0.00000
  70
    32
  0
VERTEX
  8
0
  5
66E
 10
40.5579
 20
32.2399
 30
0.00000
  70
    32
  0
VERTEX
  8
0
  5
66F
 10
40.6501
 20
32.1548
 30
0.00000
  70
    32
  0
VERTEX
  8
0
  5
670
 10
40.7424
 20
32.0697
 30
0.00000
  70
    32
  0
VERTEX
  8
0
  5
671
 10
40.8345
 20
31.9845
 30
0.00000
  70
    32
  0
VERTEX
  8
0
  5
672
 10
40.9267
 20
31.8992
 30
0.00000
  70
    32
  0
VERTEX
  8
0
  5
673
 10
41.0187
 20
31.8139
 30
0.00000
  70
    32
  0
VERTEX
  8
0
  5
674
 10
41.1108
 20
31.7286
 30
0.00000
  70
    32
  0
VERTEX
  8
0
  5
675
 10
41.2028
 20
31.6433
 30
0.00000
  70
    32
  0
VERTEX
  8
0
  5
676
 10
41.2948
 20
31.5578
 30
0.00000
  70
    32
  0
VERTEX
  8
0
  5
677
 10
41.3867
 20
31.4724
 30
0.00000
  70
    32
  0
VERTEX
  8
0
  5
678
 10
41.4786
 20
31.3869
 30
0.00000
  70
    32
  0
VERTEX
  8
0
  5
679
 10
41.5704
 20
31.3013
 30
0.00000
  70
    32
  0
VERTEX
  8
0
  5
67A
 10
41.6622
 20
31.2157
 30
0.00000
  70
    32
  0
VERTEX
  8
0
  5
67B
 10
41.7540
 20
31.1301
 30
0.00000
  70
    32
  0
VERTEX
  8
0
  5
67C
 10
41.8457
 20
31.0444
 30
0.00000
  70
    32
  0
VERTEX
  8
0
  5
67D
 10
41.9374
 20
30.9587
 30
0.00000
  70
    32
  0
VERTEX
  8
0
  5
67E
 10
42.0290
 20
30.8730
 30
0.00000
  70
    32
  0
VERTEX
  8
0
  5
67F
 10
42.1206
 20
30.7872
 30
0.00000
  70
    32
  0
VERTEX
  8
0
  5
680
 10
42.2122
 20
30.7013
 30
0.00000
  70
    32
  0
VERTEX
  8
0
  5
681
 10
42.3037
 20
30.6154
 30
0.00000
  70
    32
  0
VERTEX
  8
0
  5
682
 10
42.3952
 20
30.5295
 30
0.00000
  70
    32
  0
VERTEX
  8
0
  5
683
 10
42.4866
 20
30.4435
 30
0.00000
  70
    32
  0
VERTEX
  8
0
  5
684
 10
42.5780
 20
30.3575
 30
0.00000
  70
    32
  0
VERTEX
  8
0
  5
685
 10
42.6694
 20
30.2714
 30
0.00000
  70
    32
  0
VERTEX
  8
0
  5
686
 10
42.7607
 20
30.1853
 30
0.00000
  70
    32
  0
VERTEX
  8
0
  5
687
 10
42.8520
 20
30.0991
 30
0.00000
  70
    32
  0
VERTEX
  8
0
  5
688
 10
42.9432
 20
30.0129
 30
0.00000
  70
    32
  0
VERTEX
  8
0
  5
689
 10
43.0344
 20
29.9267
 30
0.00000
  70
    32
  0
VERTEX
  8
0
  5
68A
 10
43.1256
 20
29.8404
 30
0.00000
  70
    32
  0
VERTEX
  8
0
  5
68B
 10
43.2167
 20
29.7541
 30
0.00000
  70
    32
  0
VERTEX
  8
0
  5
68C
 10
43.3077
 20
29.6677
 30
0.00000
  70
    32
  0
VERTEX
  8
0
  5
68D
 10
43.3988
 20
29.5813
 30
0.00000
  70
    32
  0
VERTEX
  8
0
  5
68E
 10
43.4898
 20
29.4949
 30
0.00000
  70
    32
  0
VERTEX
  8
0
  5
68F
 10
43.5807
 20
29.4084
 30
0.00000
  70
    32
  0
VERTEX
  8
0
  5
690
 10
43.6716
 20
29.3218
 30
0.00000
  70
    32
  0
VERTEX
  8
0
  5
691
 10
43.7625
 20
29.2353
 30
0.00000
  70
    32
  0
VERTEX
  8
0
  5
692
 10
43.8533
 20
29.1486
 30
0.00000
  70
    32
  0
VERTEX
  8
0
  5
693
 10
43.9441
 20
29.0620
 30
0.00000
  70
    32
  0
VERTEX
  8
0
  5
694
 10
44.0348
 20
28.9753
 30
0.00000
  70
    32
  0
VERTEX
  8
0
  5
695
 10
44.1255
 20
28.8885
 30
0.00000
  70
    32
  0
VERTEX
  8
0
  5
696
 10
44.2162
 20
28.8017
 30
0.00000
  70
    32
  0
VERTEX
  8
0
  5
697
 10
44.3068
 20
28.7149
 30
0.00000
  70
    32
  0
VERTEX
  8
0
  5
698
 10
44.3974
 20
28.6280
 30
0.00000
  70
    32
  0
VERTEX
  8
0
  5
699
 10
44.4880
 20
28.5411
 30
0.00000
  70
    32
  0
VERTEX
  8
0
  5
69A
 10
44.5785
 20
28.4541
 30
0.00000
  70
    32
  0
VERTEX
  8
0
  5
69B
 10
44.6689
 20
28.3671
 30
0.00000
  70
    32
  0
VERTEX
  8
0
  5
69C
 10
44.7593
 20
28.2801
 30
0.00000
  70
    32
  0
VERTEX
  8
0
  5
69D
 10
44.8497
 20
28.1930
 30
0.00000
  70
    32
  0
VERTEX
  8
0
  5
69E
 10
44.9401
 20
28.1059
 30
0.00000
  70
    32
  0
VERTEX
  8
0
  5
69F
 10
45.0304
 20
28.0187
 30
0.00000
  70
    32
  0
VERTEX
  8
0
  5
6A0
 10
45.1206
 20
27.9315
 30
0.00000
  70
    32
  0
VERTEX
  8
0
  5
6A1
 10
45.2108
 20
27.8442
 30
0.00000
  70
    32
  0
VERTEX
  8
0
  5
6A2
 10
45.3010
 20
27.7569
 30
0.00000
  70
    32
  0
VERTEX
  8
0
  5
6A3
 10
45.3911
 20
27.6696
 30
0.00000
  70
    32
  0
VERTEX
  8
0
  5
6A4
 10
45.4812
 20
27.5822
 30
0.00000
  70
    32
  0
VERTEX
  8
0
  5
6A5
 10
45.5713
 20
27.4948
 30
0.00000
  70
    32
  0
VERTEX
  8
0
  5
6A6
 10
45.6613
 20
27.4073
 30
0.00000
  70
    32
  0
VERTEX
  8
0
  5
6A7
 10
45.7513
 20
27.3198
 30
0.00000
  70
    32
  0
VERTEX
  8
0
  5
6A8
 10
45.8412
 20
27.2323
 30
0.00000
  70
    32
  0
VERTEX
  8
0
  5
6A9
 10
45.9311
 20
27.1447
 30
0.00000
  70
    32
  0
VERTEX
  8
0
  5
6AA
 10
46.0209
 20
27.0570
 30
0.00000
  70
    32
  0
VERTEX
  8
0
  5
6AB
 10
46.1107
 20
26.9694
 30
0.00000
  70
    32
  0
VERTEX
  8
0
  5
6AC
 10
46.2005
 20
26.8816
 30
0.00000
  70
    32
  0
VERTEX
  8
0
  5
6AD
 10
46.2902
 20
26.7939
 30
0.00000
  70
    32
  0
VERTEX
  8
0
  5
6AE
 10
46.3799
 20
26.7061
 30
0.00000
  70
    32
  0
VERTEX
  8
0
  5
6AF
 10
46.4695
 20
26.6182
 30
0.00000
  70
    32
  0
VERTEX
  8
0
  5
6B0
 10
46.5591
 20
26.5303
 30
0.00000
  70
    32
  0
VERTEX
  8
0
  5
6B1
 10
46.6487
 20
26.4424
 30
0.00000
  70
    32
  0
VERTEX
  8
0
  5
6B2
 10
46.7382
 20
26.3544
 30
0.00000
  70
    32
  0
VERTEX
  8
0
  5
6B3
 10
46.8277
 20
26.2664
 30
0.00000
  70
    32
  0
VERTEX
  8
0
  5
6B4
 10
46.9171
 20
26.1784
 30
0.00000
  70
    32
  0
VERTEX
  8
0
  5
6B5
 10
47.0065
 20
26.0903
 30
0.00000
  70
    32
  0
VERTEX
  8
0
  5
6B6
 10
47.0958
 20
26.0021
 30
0.00000
  70
    32
  0
VERTEX
  8
0
  5
6B7
 10
47.1851
 20
25.9139
 30
0.00000
  70
    32
  0
VERTEX
  8
0
  5
6B8
 10
47.2744
 20
25.8257
 30
0.00000
  70
    32
  0
VERTEX
  8
0
  5
6B9
 10
47.3636
 20
25.7374
 30
0.00000
  70
    32
  0
VERTEX
  8
0
  5
6BA
 10
47.4527
 20
25.6491
 30
0.00000
  70
    32
  0
VERTEX
  8
0
  5
6BB
 10
47.5419
 20
25.5607
 30
0.00000
  70
    32
  0
VERTEX
  8
0
  5
6BC
 10
47.6309
 20
25.4723
 30
0.00000
  70
    32
  0
VERTEX
  8
0
  5
6BD
 10
47.7200
 20
25.3839
 30
0.00000
  70
    32
  0
VERTEX
  8
0
  5
6BE
 10
47.8090
 20
25.2954
 30
0.00000
  70
    32
  0
VERTEX
  8
0
  5
6BF
 10
47.8979
 20
25.2069
 30
0.00000
  70
    32
  0
VERTEX
  8
0
  5
6C0
 10
47.9869
 20
25.1183
 30
0.00000
  70
    32
  0
VERTEX
  8
0
  5
6C1
 10
48.0757
 20
25.0297
 30
0.00000
  70
    32
  0
VERTEX
  8
0
  5
6C2
 10
48.1645
 20
24.9410
 30
0.00000
  70
    32
  0
VERTEX
  8
0
  5
6C3
 10
48.2533
 20
24.8523
 30
0.00000
  70
    32
  0
VERTEX
  8
0
  5
6C4
 10
48.3421
 20
24.7636
 30
0.00000
  70
    32
  0
VERTEX
  8
0
  5
6C5
 10
48.4308
 20
24.6748
 30
0.00000
  70
    32
  0
VERTEX
  8
0
  5
6C6
 10
48.5194
 20
24.5860
 30
0.00000
  70
    32
  0
VERTEX
  8
0
  5
6C7
 10
48.6080
 20
24.4971
 30
0.00000
  70
    32
  0
VERTEX
  8
0
  5
6C8
 10
48.6966
 20
24.4082
 30
0.00000
  70
    32
  0
VERTEX
  8
0
  5
6C9
 10
48.7851
 20
24.3192
 30
0.00000
  70
    32
  0
VERTEX
  8
0
  5
6CA
 10
48.8736
 20
24.2302
 30
0.00000
  70
    32
  0
VERTEX
  8
0
  5
6CB
 10
48.9620
 20
24.1412
 30
0.00000
  70
    32
  0
VERTEX
  8
0
  5
6CC
 10
49.0504
 20
24.0521
 30
0.00000
  70
    32
  0
VERTEX
  8
0
  5
6CD
 10
49.1387
 20
23.9630
 30
0.00000
  70
    32
  0
VERTEX
  8
0
  5
6CE
 10
49.2270
 20
23.8738
 30
0.00000
  70
    32
  0
VERTEX
  8
0
  5
6CF
 10
49.3153
 20
23.7846
 30
0.00000
  70
    32
  0
VERTEX
  8
0
  5
6D0
 10
49.4035
 20
23.6953
 30
0.00000
  70
    32
  0
VERTEX
  8
0
  5
6D1
 10
49.4916
 20
23.6060
 30
0.00000
  70
    32
  0
VERTEX
  8
0
  5
6D2
 10
49.5797
 20
23.5166
 30
0.00000
  70
    32
  0
VERTEX
  8
0
  5
6D3
 10
49.6678
 20
23.4272
 30
0.00000
  70
    32
  0
VERTEX
  8
0
  5
6D4
 10
49.7558
 20
23.3378
 30
0.00000
  70
    32
  0
VERTEX
  8
0
  5
6D5
 10
49.8438
 20
23.2483
 30
0.00000
  70
    32
  0
VERTEX
  8
0
  5
6D6
 10
49.9317
 20
23.1588
 30
0.00000
  70
    32
  0
VERTEX
  8
0
  5
6D7
 10
50.0196
 20
23.0692
 30
0.00000
  70
    32
  0
VERTEX
  8
0
  5
6D8
 10
50.1075
 20
22.9796
 30
0.00000
  70
    32
  0
VERTEX
  8
0
  5
6D9
 10
50.1953
 20
22.8899
 30
0.00000
  70
    32
  0
VERTEX
  8
0
  5
6DA
 10
50.2830
 20
22.8002
 30
0.00000
  70
    32
  0
VERTEX
  8
0
  5
6DB
 10
50.3707
 20
22.7105
 30
0.00000
  70
    32
  0
VERTEX
  8
0
  5
6DC
 10
50.4584
 20
22.6207
 30
0.00000
  70
    32
  0
VERTEX
  8
0
  5
6DD
 10
50.5460
 20
22.5309
 30
0.00000
  70
    32
  0
VERTEX
  8
0
  5
6DE
 10
50.6336
 20
22.4410
 30
0.00000
  70
    32
  0
VERTEX
  8
0
  5
6DF
 10
50.7211
 20
22.3511
 30
0.00000
  70
    32
  0
VERTEX
  8
0
  5
6E0
 10
50.8086
 20
22.2611
 30
0.00000
  70
    32
  0
VERTEX
  8
0
  5
6E1
 10
50.8960
 20
22.1711
 30
0.00000
  70
    32
  0
VERTEX
  8
0
  5
6E2
 10
50.9834
 20
22.0811
 30
0.00000
  70
    32
  0
VERTEX
  8
0
  5
6E3
 10
51.0708
 20
21.9910
 30
0.00000
  70
    32
  0
VERTEX
  8
0
  5
6E4
 10
51.1581
 20
21.9008
 30
0.00000
  70
    32
  0
VERTEX
  8
0
  5
6E5
 10
51.2453
 20
21.8106
 30
0.00000
  70
    32
  0
VERTEX
  8
0
  5
6E6
 10
51.3325
 20
21.7204
 30
0.00000
  70
    32
  0
VERTEX
  8
0
  5
6E7
 10
51.4197
 20
21.6301
 30
0.00000
  70
    32
  0
VERTEX
  8
0
  5
6E8
 10
51.5068
 20
21.5398
 30
0.00000
  70
    32
  0
VERTEX
  8
0
  5
6E9
 10
51.5938
 20
21.4494
 30
0.00000
  70
    32
  0
VERTEX
  8
0
  5
6EA
 10
51.6808
 20
21.3590
 30
0.00000
  70
    32
  0
VERTEX
  8
0
  5
6EB
 10
51.7678
 20
21.2686
 30
0.00000
  70
    32
  0
VERTEX
  8
0
  5
6EC
 10
51.8547
 20
21.1781
 30
0.00000
  70
    32
  0
VERTEX
  8
0
  5
6ED
 10
51.9416
 20
21.0875
 30
0.00000
  70
    32
  0
VERTEX
  8
0
  5
6EE
 10
52.0284
 20
20.9969
 30
0.00000
  70
    32
  0
VERTEX
  8
0
  5
6EF
 10
52.1152
 20
20.9063
 30
0.00000
  70
    32
  0
VERTEX
  8
0
  5
6F0
 10
52.2020
 20
20.8156
 30
0.00000
  70
    32
  0
VERTEX
  8
0
  5
6F1
 10
52.2886
 20
20.7249
 30
0.00000
  70
    32
  0
VERTEX
  8
0
  5
6F2
 10
52.3753
 20
20.6342
 30
0.00000
  70
    32
  0
VERTEX
  8
0
  5
6F3
 10
52.4619
 20
20.5433
 30
0.00000
  70
    32
  0
VERTEX
  8
0
  5
6F4
 10
52.5484
 20
20.4525
 30
0.00000
  70
    32
  0
VERTEX
  8
0
  5
6F5
 10
52.6349
 20
20.3616
 30
0.00000
  70
    32
  0
VERTEX
  8
0
  5
6F6
 10
52.7213
 20
20.2707
 30
0.00000
  70
    32
  0
VERTEX
  8
0
  5
6F7
 10
52.8077
 20
20.1797
 30
0.00000
  70
    32
  0
VERTEX
  8
0
  5
6F8
 10
52.8941
 20
20.0886
 30
0.00000
  70
    32
  0
VERTEX
  8
0
  5
6F9
 10
52.9804
 20
19.9976
 30
0.00000
  70
    32
  0
VERTEX
  8
0
  5
6FA
 10
53.0667
 20
19.9064
 30
0.00000
  70
    32
  0
VERTEX
  8
0
  5
6FB
 10
53.1529
 20
19.8153
 30
0.00000
  70
    32
  0
VERTEX
  8
0
  5
6FC
 10
53.2390
 20
19.7240
 30
0.00000
  70
    32
  0
VERTEX
  8
0
  5
6FD
 10
53.3251
 20
19.6328
 30
0.00000
  70
    32
  0
VERTEX
  8
0
  5
6FE
 10
53.4112
 20
19.5415
 30
0.00000
  70
    32
  0
VERTEX
  8
0
  5
6FF
 10
53.4972
 20
19.4501
 30
0.00000
  70
    32
  0
VERTEX
  8
0
  5
700
 10
53.5832
 20
19.3587
 30
0.00000
  70
    32
  0
VERTEX
  8
0
  5
701
 10
53.6691
 20
19.2673
 30
0.00000
  70
    32
  0
VERTEX
  8
0
  5
702
 10
53.7549
 20
19.1758
 30
0.00000
  70
    32
  0
VERTEX
  8
0
  5
703
 10
53.8408
 20
19.0843
 30
0.00000
  70
    32
  0
VERTEX
  8
0
  5
704
 10
53.9265
 20
18.9927
 30
0.00000
  70
    32
  0
VERTEX
  8
0
  5
705
 10
54.0123
 20
18.9011
 30
0.00000
  70
    32
  0
VERTEX
  8
0
  5
706
 10
54.0979
 20
18.8094
 30
0.00000
  70
    32
  0
VERTEX
  8
0
  5
707
 10
54.1835
 20
18.7177
 30
0.00000
  70
    32
  0
VERTEX
  8
0
  5
708
 10
54.2691
 20
18.6260
 30
0.00000
  70
    32
  0
VERTEX
  8
0
  5
709
 10
54.3546
 20
18.5342
 30
0.00000
  70
    32
  0
VERTEX
  8
0
  5
70A
 10
54.4401
 20
18.4423
 30
0.00000
  70
    32
  0
VERTEX
  8
0
  5
70B
 10
54.5255
 20
18.3504
 30
0.00000
  70
    32
  0
VERTEX
  8
0
  5
70C
 10
54.6109
 20
18.2585
 30
0.00000
  70
    32
  0
VERTEX
  8
0
  5
70D
 10
54.6962
 20
18.1665
 30
0.00000
  70
    32
  0
VERTEX
  8
0
  5
70E
 10
54.7815
 20
18.0745
 30
0.00000
  70
    32
  0
VERTEX
  8
0
  5
70F
 10
54.8667
 20
17.9824
 30
0.00000
  70
    32
  0
VERTEX
  8
0
  5
710
 10
54.9519
 20
17.8903
 30
0.00000
  70
    32
  0
VERTEX
  8
0
  5
711
 10
55.0370
 20
17.7981
 30
0.00000
  70
    32
  0
VERTEX
  8
0
  5
712
 10
55.1221
 20
17.7059
 30
0.00000
  70
    32
  0
VERTEX
  8
0
  5
713
 10
55.2071
 20
17.6136
 30
0.00000
  70
    32
  0
VERTEX
  8
0
  5
714
 10
55.2921
 20
17.5213
 30
0.00000
  70
    32
  0
VERTEX
  8
0
  5
715
 10
55.3770
 20
17.4290
 30
0.00000
  70
    32
  0
VERTEX
  8
0
  5
716
 10
55.4619
 20
17.3366
 30
0.00000
  70
    32
  0
VERTEX
  8
0
  5
717
 10
55.5467
 20
17.2441
 30
0.00000
  70
    32
  0
VERTEX
  8
0
  5
718
 10
55.6315
 20
17.1516
 30
0.00000
  70
    32
  0
VERTEX
  8
0
  5
719
 10
55.7162
 20
17.0591
 30
0.00000
  70
    32
  0
VERTEX
  8
0
  5
71A
 10
55.8009
 20
16.9665
 30
0.00000
  70
    32
  0
VERTEX
  8
0
  5
71B
 10
55.8855
 20
16.8739
 30
0.00000
  70
    32
  0
VERTEX
  8
0
  5
71C
 10
55.9701
 20
16.7812
 30
0.00000
  70
    32
  0
VERTEX
  8
0
  5
71D
 10
56.0546
 20
16.6885
 30
0.00000
  70
    32
  0
VERTEX
  8
0
  5
71E
 10
56.1391
 20
16.5957
 30
0.00000
  70
    32
  0
VERTEX
  8
0
  5
71F
 10
56.2235
 20
16.5029
 30
0.00000
  70
    32
  0
VERTEX
  8
0
  5
720
 10
56.3079
 20
16.4101
 30
0.00000
  70
    32
  0
VERTEX
  8
0
  5
721
 10
56.3922
 20
16.3172
 30
0.00000
  70
    32
  0
VERTEX
  8
0
  5
722
 10
56.4765
 20
16.2243
 30
0.00000
  70
    32
  0
VERTEX
  8
0
  5
723
 10
56.5607
 20
16.1313
 30
0.00000
  70
    32
  0
VERTEX
  8
0
  5
724
 10
56.6449
 20
16.0383
 30
0.00000
  70
    32
  0
VERTEX
  8
0
  5
725
 10
56.7290
 20
15.9452
 30
0.00000
  70
    32
  0
VERTEX
  8
0
  5
726
 10
56.8131
 20
15.8521
 30
0.00000
  70
    32
  0
VERTEX
  8
0
  5
727
 10
56.8972
 20
15.7589
 30
0.00000
  70
    32
  0
VERTEX
  8
0
  5
728
 10
56.9812
 20
15.6658
 30
0.00000
  70
    32
  0
VERTEX
  8
0
  5
729
 10
57.0651
 20
15.5725
 30
0.00000
  70
    32
  0
VERTEX
  8
0
  5
72A
 10
57.1490
 20
15.4793
 30
0.00000
  70
    32
  0
VERTEX
  8
0
  5
72B
 10
57.2329
 20
15.3860
 30
0.00000
  70
    32
  0
VERTEX
  8
0
  5
72C
 10
57.3168
 20
15.2927
 30
0.00000
  70
    32
  0
VERTEX
  8
0
  5
72D
 10
57.4006
 20
15.1993
 30
0.00000
  70
    32
  0
VERTEX
  8
0
  5
72E
 10
57.4843
 20
15.1059
 30
0.00000
  70
    32
  0
VERTEX
  8
0
  5
72F
 10
57.5681
 20
15.0125
 30
0.00000
  70
    32
  0
VERTEX
  8
0
  5
730
 10
57.6517
 20
14.9190
 30
0.00000
  70
    32
  0
VERTEX
  8
0
  5
731
 10
57.7354
 20
14.8255
 30
0.00000
  70
    32
  0
VERTEX
  8
0
  5
732
 10
57.8190
 20
14.7319
 30
0.00000
  70
    32
  0
VERTEX
  8
0
  5
733
 10
57.9026
 20
14.6384
 30
0.00000
  70
    32
  0
VERTEX
  8
0
  5
734
 10
57.9861
 20
14.5448
 30
0.00000
  70
    32
  0
VERTEX
  8
0
  5
735
 10
58.0696
 20
14.4511
 30
0.00000
  70
    32
  0
VERTEX
  8
0
  5
736
 10
58.1531
 20
14.3575
 30
0.00000
  70
    32
  0
VERTEX
  8
0
  5
737
 10
58.2365
 20
14.2638
 30
0.00000
  70
    32
  0
VERTEX
  8
0
  5
738
 10
58.3200
 20
14.1701
 30
0.00000
  70
    32
  0
VERTEX
  8
0
  5
739
 10
58.4033
 20
14.0763
 30
0.00000
  70
    32
  0
VERTEX
  8
0
  5
73A
 10
58.4867
 20
13.9825
 30
0.00000
  70
    32
  0
VERTEX
  8
0
  5
73B
 10
58.5700
 20
13.8887
 30
0.00000
  70
    32
  0
VERTEX
  8
0
  5
73C
 10
58.6533
 20
13.7949
 30
0.00000
  70
    32
  0
VERTEX
  8
0
  5
73D
 10
58.7365
 20
13.7010
 30
0.00000
  70
    32
  0
VERTEX
  8
0
  5
73E
 10
58.8198
 20
13.6071
 30
0.00000
  70
    32
  0
VERTEX
  8
0
  5
73F
 10
58.9030
 20
13.5132
 30
0.00000
  70
    32
  0
VERTEX
  8
0
  5
740
 10
58.9861
 20
13.4193
 30
0.00000
  70
    32
  0
VERTEX
  8
0
  5
741
 10
59.0693
 20
13.3253
 30
0.00000
  70
    32
  0
VERTEX
  8
0
  5
742
 10
59.1524
 20
13.2313
 30
0.00000
  70
    32
  0
VERTEX
  8
0
  5
743
 10
59.2355
 20
13.1373
 30
0.00000
  70
    32
  0
VERTEX
  8
0
  5
744
 10
59.3185
 20
13.0433
 30
0.00000
  70
    32
  0
VERTEX
  8
0
  5
745
 10
59.4016
 20
12.9492
 30
0.00000
  70
    32
  0
VERTEX
  8
0
  5
746
 10
59.4846
 20
12.8552
 30
0.00000
  70
    32
  0
VERTEX
  8
0
  5
747
 10
59.5676
 20
12.7611
 30
0.00000
  70
    32
  0
VERTEX
  8
0
  5
748
 10
59.6506
 20
12.6669
 30
0.00000
  70
    32
  0
VERTEX
  8
0
  5
749
 10
59.7335
 20
12.5728
 30
0.00000
  70
    32
  0
VERTEX
  8
0
  5
74A
 10
59.8165
 20
12.4787
 30
0.00000
  70
    32
  0
VERTEX
  8
0
  5
74B
 10
59.8994
 20
12.3845
 30
0.00000
  70
    32
  0
VERTEX
  8
0
  5
74C
 10
59.9823
 20
12.2903
 30
0.00000
  70
    32
  0
VERTEX
  8
0
  5
74D
 10
60.0652
 20
12.1961
 30
0.00000
  70
    32
  0
VERTEX
  8
0
  5
74E
 10
60.1480
 20
12.1019
 30
0.00000
  70
    32
  0
VERTEX
  8
0
  5
74F
 10
60.2309
 20
12.0076
 30
0.00000
  70
    32
  0
VERTEX
  8
0
  5
750
 10
60.3137
 20
11.9134
 30
0.00000
  70
    32
  0
VERTEX
  8
0
  5
751
 10
60.3965
 20
11.8191
 30
0.00000
  70
    32
  0
VERTEX
  8
0
  5
752
 10
60.4793
 20
11.7248
 30
0.00000
  70
    32
  0
VERTEX
  8
0
  5
753
 10
60.5621
 20
11.6305
 30
0.00000
  70
    32
  0
VERTEX
  8
0
  5
754
 10
60.6448
 20
11.5362
 30
0.00000
  70
    32
  0
VERTEX
  8
0
  5
755
 10
60.7276
 20
11.4419
 30
0.00000
  70
    32
  0
VERTEX
  8
0
  5
756
 10
60.8103
 20
11.3476
 30
0.00000
  70
    32
  0
VERTEX
  8
0
  5
757
 10
60.8930
 20
11.2532
 30
0.00000
  70
    32
  0
VERTEX
  8
0
  5
758
 10
60.9758
 20
11.1589
 30
0.00000
  70
    32
  0
VERTEX
  8
0
  5
759
 10
61.0585
 20
11.0645
 30
0.00000
  70
    32
  0
VERTEX
  8
0
  5
75A
 10
61.1411
 20
10.9702
 30
0.00000
  70
    32
  0
VERTEX
  8
0
  5
75B
 10
61.2238
 20
10.8758
 30
0.00000
  70
    32
  0
VERTEX
  8
0
  5
75C
 10
61.3065
 20
10.7814
 30
0.00000
  70
    32
  0
VERTEX
  8
0
  5
75D
 10
61.3892
 20
10.6870
 30
0.00000
  70
    32
  0
VERTEX
  8
0
  5
75E
 10
61.4718
 20
10.5926
 30
0.00000
  70
    32
  0
VERTEX
  8
0
  5
75F
 10
61.5545
 20
10.4982
 30
0.00000
  70
    32
  0
VERTEX
  8
0
  5
760
 10
61.6371
 20
10.4038
 30
0.00000
  70
    32
  0
VERTEX
  8
0
  5
761
 10
61.7198
 20
10.3093
 30
0.00000
  70
    32
  0
VERTEX
  8
0
  5
762
 10
61.8024
 20
10.2149
 30
0.00000
  70
    32
  0
VERTEX
  8
0
  5
763
 10
61.6023
 20
10.0848
 30
0.00000
  70
    32
  0
VERTEX
  8
0
  5
764
 10
57.3920
 20
9.44824
 30
0.00000
  70
    32
  0
VERTEX
  8
0
  5
765
 10
53.1817
 20
8.81169
 30
0.00000
  70
    32
  0
VERTEX
  8
0
  5
766
 10
48.9714
 20
8.17514
 30
0.00000
  70
    32
  0
VERTEX
  8
0
  5
767
 10
44.7611
 20
7.53859
 30
0.00000
  70
    32
  0
VERTEX
  8
0
  5
768
 10
40.5508
 20
6.90204
 30
0.00000
  70
    32
  0
VERTEX
  8
0
  5
769
 10
36.3405
 20
6.26549
 30
0.00000
  70
    32
  0
VERTEX
  8
0
  5
76A
 10
32.1302
 20
5.62894
 30
0.00000
  70
    32
  0
VERTEX
  8
0
  5
76B
 10
28.3181
 20
5.06450
 30
0.00000
  70
    32
  0
VERTEX
  8
0
  5
76C
 10
28.2764
 20
5.18297
 30
0.00000
  70
    32
  0
VERTEX
  8
0
  5
76D
 10
28.2348
 20
5.30144
 30
0.00000
  70
    32
  0
VERTEX
  8
0
  5
76E
 10
28.1931
 20
5.41989
 30
0.00000
  70
    32
  0
VERTEX
  8
0
  5
76F
 10
28.1514
 20
5.53833
 30
0.00000
  70
    32
  0
VERTEX
  8
0
  5
770
 10
28.1097
 20
5.65677
 30
0.00000
  70
    32
  0
VERTEX
  8
0
  5
771
 10
28.0680
 20
5.77518
 30
0.00000
  70
    32
  0
VERTEX
  8
0
  5
772
 10
28.0262
 20
5.89359
 30
0.00000
  70
    32
  0
VERTEX
  8
0
  5
773
 10
27.9843
 20
6.01197
 30
0.00000
  70
    32
  0
VERTEX
  8
0
  5
774
 10
27.9425
 20
6.13034
 30
0.00000
  70
    32
  0
VERTEX
  8
0
  5
775
 10
27.9006
 20
6.24869
 30
0.00000
  70
    32
  0
VERTEX
  8
0
  5
776
 10
27.8586
 20
6.36702
 30
0.00000
  70
    32
  0
VERTEX
  8
0
  5
777
 10
27.8166
 20
6.48533
 30
0.00000
  70
    32
  0
VERTEX
  8
0
  5
778
 10
27.7745
 20
6.60361
 30
0.00000
  70
    32
  0
VERTEX
  8
0
  5
779
 10
27.7323
 20
6.72187
 30
0.00000
  70
    32
  0
VERTEX
  8
0
  5
77A
 10
27.6901
 20
6.84010
 30
0.00000
  70
    32
  0
VERTEX
  8
0
  5
77B
 10
27.6479
 20
6.95830
 30
0.00000
  70
    32
  0
VERTEX
  8
0
  5
77C
 10
27.6055
 20
7.07648
 30
0.00000
  70
    32
  0
VERTEX
  8
0
  5
77D
 10
27.5631
 20
7.19463
 30
0.00000
  70
    32
  0
VERTEX
  8
0
  5
77E
 10
27.5206
 20
7.31274
 30
0.00000
  70
    32
  0
VERTEX
  8
0
  5
77F
 10
27.4781
 20
7.43082
 30
0.00000
  70
    32
  0
VERTEX
  8
0
  5
780
 10
27.4354
 20
7.54887
 30
0.00000
  70
    32
  0
VERTEX
  8
0
  5
781
 10
27.3927
 20
7.66688
 30
0.00000
  70
    32
  0
VERTEX
  8
0
  5
782
 10
27.3499
 20
7.78485
 30
0.00000
  70
    32
  0
VERTEX
  8
0
  5
783
 10
27.3069
 20
7.90278
 30
0.00000
  70
    32
  0
VERTEX
  8
0
  5
784
 10
27.2639
 20
8.02068
 30
0.00000
  70
    32
  0
VERTEX
  8
0
  5
785
 10
27.2208
 20
8.13853
 30
0.00000
  70
    32
  0
VERTEX
  8
0
  5
786
 10
27.1776
 20
8.25634
 30
0.00000
  70
    32
  0
VERTEX
  8
0
  5
787
 10
27.1342
 20
8.37411
 30
0.00000
  70
    32
  0
VERTEX
  8
0
  5
788
 10
27.0908
 20
8.49183
 30
0.00000
  70
    32
  0
VERTEX
  8
0
  5
789
 10
27.0472
 20
8.60950
 30
0.00000
  70
    32
  0
VERTEX
  8
0
  5
78A
 10
27.0036
 20
8.72712
 30
0.00000
  70
    32
  0
VERTEX
  8
0
  5
78B
 10
26.9598
 20
8.84470
 30
0.00000
  70
    32
  0
VERTEX
  8
0
  5
78C
 10
26.9159
 20
8.96222
 30
0.00000
  70
    32
  0
VERTEX
  8
0
  5
78D
 10
26.8718
 20
9.07969
 30
0.00000
  70
    32
  0
VERTEX
  8
0
  5
78E
 10
26.8276
 20
9.19711
 30
0.00000
  70
    32
  0
VERTEX
  8
0
  5
78F
 10
26.7833
 20
9.31447
 30
0.00000
  70
    32
  0
VERTEX
  8
0
  5
790
 10
26.7389
 20
9.43177
 30
0.00000
  70
    32
  0
VERTEX
  8
0
  5
791
 10
26.6943
 20
9.54902
 30
0.00000
  70
    32
  0
VERTEX
  8
0
  5
792
 10
26.6496
 20
9.66620
 30
0.00000
  70
    32
  0
VERTEX
  8
0
  5
793
 10
26.6047
 20
9.78333
 30
0.00000
  70
    32
  0
VERTEX
  8
0
  5
794
 10
26.5597
 20
9.90039
 30
0.00000
  70
    32
  0
VERTEX
  8
0
  5
795
 10
26.5145
 20
10.0174
 30
0.00000
  70
    32
  0
VERTEX
  8
0
  5
796
 10
26.4692
 20
10.1343
 30
0.00000
  70
    32
  0
VERTEX
  8
0
  5
797
 10
26.4236
 20
10.2512
 30
0.00000
  70
    32
  0
VERTEX
  8
0
  5
798
 10
26.3780
 20
10.3680
 30
0.00000
  70
    32
  0
VERTEX
  8
0
  5
799
 10
26.3322
 20
10.4847
 30
0.00000
  70
    32
  0
VERTEX
  8
0
  5
79A
 10
26.2861
 20
10.6014
 30
0.00000
  70
    32
  0
VERTEX
  8
0
  5
79B
 10
26.2400
 20
10.7180
 30
0.00000
  70
    32
  0
VERTEX
  8
0
  5
79C
 10
26.1936
 20
10.8345
 30
0.00000
  70
    32
  0
VERTEX
  8
0
  5
79D
 10
26.1471
 20
10.9509
 30
0.00000
  70
    32
  0
VERTEX
  8
0
  5
79E
 10
26.1004
 20
11.0673
 30
0.00000
  70
    32
  0
VERTEX
  8
0
  5
79F
 10
26.0534
 20
11.1836
 30
0.00000
  70
    32
  0
VERTEX
  8
0
  5
7A0
 10
26.0063
 20
11.2998
 30
0.00000
  70
    32
  0
VERTEX
  8
0
  5
7A1
 10
25.9590
 20
11.4159
 30
0.00000
  70
    32
  0
VERTEX
  8
0
  5
7A2
 10
25.9116
 20
11.5319
 30
0.00000
  70
    32
  0
VERTEX
  8
0
  5
7A3
 10
25.8639
 20
11.6479
 30
0.00000
  70
    32
  0
VERTEX
  8
0
  5
7A4
 10
25.8160
 20
11.7638
 30
0.00000
  70
    32
  0
VERTEX
  8
0
  5
7A5
 10
25.7679
 20
11.8796
 30
0.00000
  70
    32
  0
VERTEX
  8
0
  5
7A6
 10
25.7195
 20
11.9953
 30
0.00000
  70
    32
  0
VERTEX
  8
0
  5
7A7
 10
25.6710
 20
12.1109
 30
0.00000
  70
    32
  0
VERTEX
  8
0
  5
7A8
 10
25.6223
 20
12.2264
 30
0.00000
  70
    32
  0
VERTEX
  8
0
  5
7A9
 10
25.5733
 20
12.3418
 30
0.00000
  70
    32
  0
VERTEX
  8
0
  5
7AA
 10
25.5242
 20
12.4572
 30
0.00000
  70
    32
  0
VERTEX
  8
0
  5
7AB
 10
25.4748
 20
12.5725
 30
0.00000
  70
    32
  0
VERTEX
  8
0
  5
7AC
 10
25.4252
 20
12.6876
 30
0.00000
  70
    32
  0
VERTEX
  8
0
  5
7AD
 10
25.3755
 20
12.8027
 30
0.00000
  70
    32
  0
VERTEX
  8
0
  5
7AE
 10
25.3255
 20
12.9177
 30
0.00000
  70
    32
  0
VERTEX
  8
0
  5
7AF
 10
25.2753
 20
13.0327
 30
0.00000
  70
    32
  0
VERTEX
  8
0
  5
7B0
 10
25.2249
 20
13.1475
 30
0.00000
  70
    32
  0
VERTEX
  8
0
  5
7B1
 10
25.1744
 20
13.2623
 30
0.00000
  70
    32
  0
VERTEX
  8
0
  5
7B2
 10
25.1236
 20
13.3769
 30
0.00000
  70
    32
  0
VERTEX
  8
0
  5
7B3
 10
25.0726
 20
13.4915
 30
0.00000
  70
    32
  0
VERTEX
  8
0
  5
7B4
 10
25.0214
 20
13.6060
 30
0.00000
  70
    32
  0
VERTEX
  8
0
  5
7B5
 10
24.9701
 20
13.7204
 30
0.00000
  70
    32
  0
VERTEX
  8
0
  5
7B6
 10
24.9185
 20
13.8348
 30
0.00000
  70
    32
  0
VERTEX
  8
0
  5
7B7
 10
24.8668
 20
13.9490
 30
0.00000
  70
    32
  0
VERTEX
  8
0
  5
7B8
 10
24.8148
 20
14.0632
 30
0.00000
  70
    32
  0
VERTEX
  8
0
  5
7B9
 10
24.7627
 20
14.1773
 30
0.00000
  70
    32
  0
VERTEX
  8
0
  5
7BA
 10
24.7103
 20
14.2913
 30
0.00000
  70
    32
  0
VERTEX
  8
0
  5
7BB
 10
24.6578
 20
14.4052
 30
0.00000
  70
    32
  0
VERTEX
  8
0
  5
7BC
 10
24.6051
 20
14.5190
 30
0.00000
  70
    32
  0
VERTEX
  8
0
  5
7BD
 10
24.5522
 20
14.6328
 30
0.00000
  70
    32
  0
VERTEX
  8
0
  5
7BE
 10
24.4991
 20
14.7464
 30
0.00000
  70
    32
  0
VERTEX
  8
0
  5
7BF
 10
24.4459
 20
14.8600
 30
0.00000
  70
    32
  0
VERTEX
  8
0
  5
7C0
 10
24.3924
 20
14.9735
 30
0.00000
  70
    32
  0
VERTEX
  8
0
  5
7C1
 10
24.3388
 20
15.0870
 30
0.00000
  70
    32
  0
VERTEX
  8
0
  5
7C2
 10
24.2850
 20
15.2003
 30
0.00000
  70
    32
  0
VERTEX
  8
0
  5
7C3
 10
24.2310
 20
15.3136
 30
0.00000
  70
    32
  0
VERTEX
  8
0
  5
7C4
 10
24.1768
 20
15.4268
 30
0.00000
  70
    32
  0
VERTEX
  8
0
  5
7C5
 10
24.1225
 20
15.5399
 30
0.00000
  70
    32
  0
VERTEX
  8
0
  5
7C6
 10
24.0679
 20
15.6529
 30
0.00000
  70
    32
  0
VERTEX
  8
0
  5
7C7
 10
24.0132
 20
15.7658
 30
0.00000
  70
    32
  0
VERTEX
  8
0
  5
7C8
 10
23.9584
 20
15.8787
 30
0.00000
  70
    32
  0
VERTEX
  8
0
  5
7C9
 10
23.9033
 20
15.9915
 30
0.00000
  70
    32
  0
VERTEX
  8
0
  5
7CA
 10
23.8481
 20
16.1042
 30
0.00000
  70
    32
  0
VERTEX
  8
0
  5
7CB
 10
23.7927
 20
16.2168
 30
0.00000
  70
    32
  0
VERTEX
  8
0
  5
7CC
 10
23.7371
 20
16.3294
 30
0.00000
  70
    32
  0
VERTEX
  8
0
  5
7CD
 10
23.6814
 20
16.4419
 30
0.00000
  70
    32
  0
VERTEX
  8
0
  5
7CE
 10
23.6255
 20
16.5543
 30
0.00000
  70
    32
  0
VERTEX
  8
0
  5
7CF
 10
23.5694
 20
16.6666
 30
0.00000
  70
    32
  0
VERTEX
  8
0
  5
7D0
 10
23.5131
 20
16.7788
 30
0.00000
  70
    32
  0
VERTEX
  8
0
  5
7D1
 10
23.4567
 20
16.8910
 30
0.00000
  70
    32
  0
VERTEX
  8
0
  5
7D2
 10
23.4002
 20
17.0031
 30
0.00000
  70
    32
  0
VERTEX
  8
0
  5
7D3
 10
23.3434
 20
17.1151
 30
0.00000
  70
    32
  0
VERTEX
  8
0
  5
7D4
 10
23.2865
 20
17.2270
 30
0.00000
  70
    32
  0
VERTEX
  8
0
  5
7D5
 10
23.2295
 20
17.3389
 30
0.00000
  70
    32
  0
VERTEX
  8
0
  5
7D6
 10
23.1722
 20
17.4506
 30
0.00000
  70
    32
  0
VERTEX
  8
0
  5
7D7
 10
23.1149
 20
17.5623
 30
0.00000
  70
    32
  0
VERTEX
  8
0
  5
7D8
 10
23.0573
 20
17.6740
 30
0.00000
  70
    32
  0
VERTEX
  8
0
  5
7D9
 10
22.9996
 20
17.7855
 30
0.00000
  70
    32
  0
VERTEX
  8
0
  5
7DA
 10
22.9418
 20
17.8970
 30
0.00000
  70
    32
  0
VERTEX
  8
0
  5
7DB
 10
22.8838
 20
18.0084
 30
0.00000
  70
    32
  0
VERTEX
  8
0
  5
7DC
 10
22.8256
 20
18.1197
 30
0.00000
  70
    32
  0
VERTEX
  8
0
  5
7DD
 10
22.7673
 20
18.2310
 30
0.00000
  70
    32
  0
VERTEX
  8
0
  5
7DE
 10
22.7088
 20
18.3422
 30
0.00000
  70
    32
  0
VERTEX
  8
0
  5
7DF
 10
22.6502
 20
18.4533
 30
0.00000
  70
    32
  0
VERTEX
  8
0
  5
7E0
 10
22.5915
 20
18.5643
 30
0.00000
  70
    32
  0
VERTEX
  8
0
  5
7E1
 10
22.5326
 20
18.6753
 30
0.00000
  70
    32
  0
VERTEX
  8
0
  5
7E2
 10
22.4735
 20
18.7862
 30
0.00000
  70
    32
  0
VERTEX
  8
0
  5
7E3
 10
22.4143
 20
18.8970
 30
0.00000
  70
    32
  0
VERTEX
  8
0
  5
7E4
 10
22.3549
 20
19.0077
 30
0.00000
  70
    32
  0
VERTEX
  8
0
  5
7E5
 10
22.2954
 20
19.1184
 30
0.00000
  70
    32
  0
VERTEX
  8
0
  5
7E6
 10
22.2358
 20
19.2290
 30
0.00000
  70
    32
  0
VERTEX
  8
0
  5
7E7
 10
22.1760
 20
19.3395
 30
0.00000
  70
    32
  0
VERTEX
  8
0
  5
7E8
 10
22.1161
 20
19.4500
 30
0.00000
  70
    32
  0
VERTEX
  8
0
  5
7E9
 10
22.0560
 20
19.5604
 30
0.00000
  70
    32
  0
VERTEX
  8
0
  5
7EA
 10
21.9958
 20
19.6707
 30
0.00000
  70
    32
  0
VERTEX
  8
0
  5
7EB
 10
21.9355
 20
19.7809
 30
0.00000
  70
    32
  0
VERTEX
  8
0
  5
7EC
 10
21.8750
 20
19.8911
 30
0.00000
  70
    32
  0
VERTEX
  8
0
  5
7ED
 10
21.8144
 20
20.0012
 30
0.00000
  70
    32
  0
VERTEX
  8
0
  5
7EE
 10
21.7537
 20
20.1112
 30
0.00000
  70
    32
  0
VERTEX
  8
0
  5
7EF
 10
21.6928
 20
20.2212
 30
0.00000
  70
    32
  0
VERTEX
  8
0
  5
7F0
 10
21.6318
 20
20.3311
 30
0.00000
  70
    32
  0
VERTEX
  8
0
  5
7F1
 10
21.5707
 20
20.4409
 30
0.00000
  70
    32
  0
VERTEX
  8
0
  5
7F2
 10
21.5094
 20
20.5507
 30
0.00000
  70
    32
  0
VERTEX
  8
0
  5
7F3
 10
21.4480
 20
20.6604
 30
0.00000
  70
    32
  0
VERTEX
  8
0
  5
7F4
 10
21.3865
 20
20.7700
 30
0.00000
  70
    32
  0
VERTEX
  8
0
  5
7F5
 10
21.3248
 20
20.8795
 30
0.00000
  70
    32
  0
VERTEX
  8
0
  5
7F6
 10
21.2630
 20
20.9890
 30
0.00000
  70
    32
  0
VERTEX
  8
0
  5
7F7
 10
21.2011
 20
21.0984
 30
0.00000
  70
    32
  0
VERTEX
  8
0
  5
7F8
 10
21.1391
 20
21.2078
 30
0.00000
  70
    32
  0
VERTEX
  8
0
  5
7F9
 10
21.0770
 20
21.3170
 30
0.00000
  70
    32
  0
VERTEX
  8
0
  5
7FA
 10
21.0147
 20
21.4262
 30
0.00000
  70
    32
  0
VERTEX
  8
0
  5
7FB
 10
20.9523
 20
21.5354
 30
0.00000
  70
    32
  0
VERTEX
  8
0
  5
7FC
 10
20.8898
 20
21.6445
 30
0.00000
  70
    32
  0
VERTEX
  8
0
  5
7FD
 10
20.8271
 20
21.7535
 30
0.00000
  70
    32
  0
VERTEX
  8
0
  5
7FE
 10
20.7644
 20
21.8624
 30
0.00000
  70
    32
  0
VERTEX
  8
0
  5
7FF
 10
20.7015
 20
21.9713
 30
0.00000
  70
    32
  0
VERTEX
  8
0
  5
800
 10
20.6386
 20
22.0801
 30
0.00000
  70
    32
  0
VERTEX
  8
0
  5
801
 10
20.5755
 20
22.1888
 30
0.00000
  70
    32
  0
VERTEX
  8
0
  5
802
 10
20.5123
 20
22.2975
 30
0.00000
  70
    32
  0
VERTEX
  8
0
  5
803
 10
20.4489
 20
22.4061
 30
0.00000
  70
    32
  0
VERTEX
  8
0
  5
804
 10
20.3855
 20
22.5147
 30
0.00000
  70
    32
  0
VERTEX
  8
0
  5
805
 10
20.3220
 20
22.6232
 30
0.00000
  70
    32
  0
VERTEX
  8
0
  5
806
 10
20.2583
 20
22.7316
 30
0.00000
  70
    32
  0
VERTEX
  8
0
  5
807
 10
20.1946
 20
22.8400
 30
0.00000
  70
    32
  0
VERTEX
  8
0
  5
808
 10
20.1307
 20
22.9482
 30
0.00000
  70
    32
  0
VERTEX
  8
0
  5
809
 10
20.0668
 20
23.0565
 30
0.00000
  70
    32
  0
VERTEX
  8
0
  5
80A
 10
20.0027
 20
23.1646
 30
0.00000
  70
    32
  0
VERTEX
  8
0
  5
80B
 10
19.9385
 20
23.2727
 30
0.00000
  70
    32
  0
VERTEX
  8
0
  5
80C
 10
19.8742
 20
23.3808
 30
0.00000
  70
    32
  0
VERTEX
  8
0
  5
80D
 10
19.8099
 20
23.4888
 30
0.00000
  70
    32
  0
VERTEX
  8
0
  5
80E
 10
19.7454
 20
23.5967
 30
0.00000
  70
    32
  0
VERTEX
  8
0
  5
80F
 10
19.6808
 20
23.7045
 30
0.00000
  70
    32
  0
VERTEX
  8
0
  5
810
 10
19.6161
 20
23.8123
 30
0.00000
  70
    32
  0
VERTEX
  8
0
  5
811
 10
19.5514
 20
23.9201
 30
0.00000
  70
    32
  0
VERTEX
  8
0
  5
812
 10
19.4865
 20
24.0277
 30
0.00000
  70
    32
  0
VERTEX
  8
0
  5
813
 10
19.4216
 20
24.1353
 30
0.00000
  70
    32
  0
VERTEX
  8
0
  5
814
 10
19.3565
 20
24.2429
 30
0.00000
  70
    32
  0
VERTEX
  8
0
  5
815
 10
19.2914
 20
24.3504
 30
0.00000
  70
    32
  0
VERTEX
  8
0
  5
816
 10
19.2261
 20
24.4578
 30
0.00000
  70
    32
  0
VERTEX
  8
0
  5
817
 10
19.1608
 20
24.5652
 30
0.00000
  70
    32
  0
VERTEX
  8
0
  5
818
 10
19.0954
 20
24.6725
 30
0.00000
  70
    32
  0
VERTEX
  8
0
  5
819
 10
19.0299
 20
24.7797
 30
0.00000
  70
    32
  0
VERTEX
  8
0
  5
81A
 10
18.9643
 20
24.8869
 30
0.00000
  70
    32
  0
VERTEX
  8
0
  5
81B
 10
18.8986
 20
24.9940
 30
0.00000
  70
    32
  0
VERTEX
  8
0
  5
81C
 10
18.8328
 20
25.1011
 30
0.00000
  70
    32
  0
VERTEX
  8
0
  5
81D
 10
18.7670
 20
25.2081
 30
0.00000
  70
    32
  0
VERTEX
  8
0
  5
81E
 10
18.7010
 20
25.3151
 30
0.00000
  70
    32
  0
VERTEX
  8
0
  5
81F
 10
18.6350
 20
25.4219
 30
0.00000
  70
    32
  0
VERTEX
  8
0
  5
820
 10
18.5689
 20
25.5288
 30
0.00000
  70
    32
  0
VERTEX
  8
0
  5
821
 10
18.5027
 20
25.6355
 30
0.00000
  70
    32
  0
VERTEX
  8
0
  5
822
 10
18.4364
 20
25.7422
 30
0.00000
  70
    32
  0
VERTEX
  8
0
  5
823
 10
18.3700
 20
25.8489
 30
0.00000
  70
    32
  0
VERTEX
  8
0
  5
824
 10
18.3035
 20
25.9555
 30
0.00000
  70
    32
  0
VERTEX
  8
0
  5
825
 10
18.2369
 20
26.0620
 30
0.00000
  70
    32
  0
VERTEX
  8
0
  5
826
 10
18.1703
 20
26.1685
 30
0.00000
  70
    32
  0
VERTEX
  8
0
  5
827
 10
18.1036
 20
26.2749
 30
0.00000
  70
    32
  0
VERTEX
  8
0
  5
828
 10
18.0367
 20
26.3812
 30
0.00000
  70
    32
  0
VERTEX
  8
0
  5
829
 10
17.9698
 20
26.4875
 30
0.00000
  70
    32
  0
VERTEX
  8
0
  5
82A
 10
17.9028
 20
26.5937
 30
0.00000
  70
    32
  0
VERTEX
  8
0
  5
82B
 10
17.8357
 20
26.6999
 30
0.00000
  70
    32
  0
VERTEX
  8
0
  5
82C
 10
17.7685
 20
26.8060
 30
0.00000
  70
    32
  0
VERTEX
  8
0
  5
82D
 10
17.7012
 20
26.9120
 30
0.00000
  70
    32
  0
VERTEX
  8
0
  5
82E
 10
17.6339
 20
27.0180
 30
0.00000
  70
    32
  0
VERTEX
  8
0
  5
82F
 10
17.5664
 20
27.1239
 30
0.00000
  70
    32
  0
VERTEX
  8
0
  5
830
 10
17.4989
 20
27.2297
 30
0.00000
  70
    32
  0
VERTEX
  8
0
  5
831
 10
17.4312
 20
27.3355
 30
0.00000
  70
    32
  0
VERTEX
  8
0
  5
832
 10
17.3635
 20
27.4412
 30
0.00000
  70
    32
  0
VERTEX
  8
0
  5
833
 10
17.2957
 20
27.5469
 30
0.00000
  70
    32
  0
VERTEX
  8
0
  5
834
 10
17.2278
 20
27.6525
 30
0.00000
  70
    32
  0
VERTEX
  8
0
  5
835
 10
17.1598
 20
27.7580
 30
0.00000
  70
    32
  0
VERTEX
  8
0
  5
836
 10
17.0917
 20
27.8635
 30
0.00000
  70
    32
  0
VERTEX
  8
0
  5
837
 10
17.0235
 20
27.9689
 30
0.00000
  70
    32
  0
VERTEX
  8
0
  5
838
 10
16.9552
 20
28.0743
 30
0.00000
  70
    32
  0
VERTEX
  8
0
  5
839
 10
16.8869
 20
28.1795
 30
0.00000
  70
    32
  0
VERTEX
  8
0
  5
83A
 10
16.8184
 20
28.2848
 30
0.00000
  70
    32
  0
VERTEX
  8
0
  5
83B
 10
16.7499
 20
28.3899
 30
0.00000
  70
    32
  0
VERTEX
  8
0
  5
83C
 10
16.6812
 20
28.4950
 30
0.00000
  70
    32
  0
VERTEX
  8
0
  5
83D
 10
16.6125
 20
28.6000
 30
0.00000
  70
    32
  0
VERTEX
  8
0
  5
83E
 10
16.5437
 20
28.7050
 30
0.00000
  70
    32
  0
VERTEX
  8
0
  5
83F
 10
16.4748
 20
28.8099
 30
0.00000
  70
    32
  0
VERTEX
  8
0
  5
840
 10
16.4058
 20
28.9147
 30
0.00000
  70
    32
  0
VERTEX
  8
0
  5
841
 10
16.3367
 20
29.0195
 30
0.00000
  70
    32
  0
VERTEX
  8
0
  5
842
 10
16.2675
 20
29.1242
 30
0.00000
  70
    32
  0
VERTEX
  8
0
  5
843
 10
16.1982
 20
29.2289
 30
0.00000
  70
    32
  0
VERTEX
  8
0
  5
844
 10
16.1289
 20
29.3335
 30
0.00000
  70
    32
  0
VERTEX
  8
0
  5
845
 10
16.0594
 20
29.4380
 30
0.00000
  70
    32
  0
VERTEX
  8
0
  5
846
 10
15.9899
 20
29.5424
 30
0.00000
  70
    32
  0
VERTEX
  8
0
  5
847
 10
15.9202
 20
29.6468
 30
0.00000
  70
    32
  0
VERTEX
  8
0
  5
848
 10
15.8505
 20
29.7511
 30
0.00000
  70
    32
  0
VERTEX
  8
0
  5
849
 10
15.7807
 20
29.8554
 30
0.00000
  70
    32
  0
VERTEX
  8
0
  5
84A
 10
15.7107
 20
29.9596
 30
0.00000
  70
    32
  0
VERTEX
  8
0
  5
84B
 10
15.6407
 20
30.0637
 30
0.00000
  70
    32
  0
VERTEX
  8
0
  5
84C
 10
15.5706
 20
30.1678
 30
0.00000
  70
    32
  0
VERTEX
  8
0
  5
84D
 10
15.5004
 20
30.2718
 30
0.00000
  70
    32
  0
VERTEX
  8
0
  5
84E
 10
15.4301
 20
30.3757
 30
0.00000
  70
    32
  0
VERTEX
  8
0
  5
84F
 10
15.3597
 20
30.4796
 30
0.00000
  70
    32
  0
VERTEX
  8
0
  5
850
 10
15.2892
 20
30.5834
 30
0.00000
  70
    32
  0
VERTEX
  8
0
  5
851
 10
15.2187
 20
30.6871
 30
0.00000
  70
    32
  0
VERTEX
  8
0
  5
852
 10
15.1480
 20
30.7908
 30
0.00000
  70
    32
  0
VERTEX
  8
0
  5
853
 10
15.0772
 20
30.8944
 30
0.00000
  70
    32
  0
VERTEX
  8
0
  5
854
 10
15.0064
 20
30.9979
 30
0.00000
  70
    32
  0
VERTEX
  8
0
  5
855
 10
14.9354
 20
31.1014
 30
0.00000
  70
    32
  0
VERTEX
  8
0
  5
856
 10
14.8644
 20
31.2048
 30
0.00000
  70
    32
  0
VERTEX
  8
0
  5
857
 10
14.7933
 20
31.3081
 30
0.00000
  70
    32
  0
VERTEX
  8
0
  5
858
 10
14.7220
 20
31.4114
 30
0.00000
  70
    32
  0
VERTEX
  8
0
  5
859
 10
14.6507
 20
31.5146
 30
0.00000
  70
    32
  0
VERTEX
  8
0
  5
85A
 10
14.5793
 20
31.6177
 30
0.00000
  70
    32
  0
VERTEX
  8
0
  5
85B
 10
14.5078
 20
31.7208
 30
0.00000
  70
    32
  0
VERTEX
  8
0
  5
85C
 10
14.4362
 20
31.8238
 30
0.00000
  70
    32
  0
VERTEX
  8
0
  5
85D
 10
14.3645
 20
31.9267
 30
0.00000
  70
    32
  0
VERTEX
  8
0
  5
85E
 10
14.2927
 20
32.0296
 30
0.00000
  70
    32
  0
VERTEX
  8
0
  5
85F
 10
14.2208
 20
32.1324
 30
0.00000
  70
    32
  0
VERTEX
  8
0
  5
860
 10
14.1488
 20
32.2351
 30
0.00000
  70
    32
  0
VERTEX
  8
0
  5
861
 10
14.0767
 20
32.3378
 30
0.00000
  70
    32
  0
VERTEX
  8
0
  5
862
 10
14.0045
 20
32.4404
 30
0.00000
  70
    32
  0
VERTEX
  8
0
  5
863
 10
13.9322
 20
32.5429
 30
0.00000
  70
    32
  0
VERTEX
  8
0
  5
864
 10
13.8599
 20
32.6454
 30
0.00000
  70
    32
  0
VERTEX
  8
0
  5
865
 10
13.7874
 20
32.7478
 30
0.00000
  70
    32
  0
VERTEX
  8
0
  5
866
 10
13.7148
 20
32.8501
 30
0.00000
  70
    32
  0
VERTEX
  8
0
  5
867
 10
13.6422
 20
32.9524
 30
0.00000
  70
    32
  0
VERTEX
  8
0
  5
868
 10
13.5694
 20
33.0545
 30
0.00000
  70
    32
  0
VERTEX
  8
0
  5
869
 10
13.4966
 20
33.1567
 30
0.00000
  70
    32
  0
VERTEX
  8
0
  5
86A
 10
13.4236
 20
33.2587
 30
0.00000
  70
    32
  0
VERTEX
  8
0
  5
86B
 10
13.3506
 20
33.3607
 30
0.00000
  70
    32
  0
VERTEX
  8
0
  5
86C
 10
13.2775
 20
33.4626
 30
0.00000
  70
    32
  0
VERTEX
  8
0
  5
86D
 10
13.2042
 20
33.5644
 30
0.00000
  70
    32
  0
VERTEX
  8
0
  5
86E
 10
13.1309
 20
33.6662
 30
0.00000
  70
    32
  0
VERTEX
  8
0
  5
86F
 10
13.0575
 20
33.7679
 30
0.00000
  70
    32
  0
VERTEX
  8
0
  5
870
 10
12.9840
 20
33.8696
 30
0.00000
  70
    32
  0
VERTEX
  8
0
  5
871
 10
12.9103
 20
33.9711
 30
0.00000
  70
    32
  0
VERTEX
  8
0
  5
872
 10
12.8366
 20
34.0726
 30
0.00000
  70
    32
  0
VERTEX
  8
0
  5
873
 10
12.7628
 20
34.1740
 30
0.00000
  70
    32
  0
VERTEX
  8
0
  5
874
 10
12.6889
 20
34.2754
 30
0.00000
  70
    32
  0
VERTEX
  8
0
  5
875
 10
12.6149
 20
34.3767
 30
0.00000
  70
    32
  0
VERTEX
  8
0
  5
876
 10
12.5408
 20
34.4779
 30
0.00000
  70
    32
  0
VERTEX
  8
0
  5
877
 10
12.4666
 20
34.5790
 30
0.00000
  70
    32
  0
VERTEX
  8
0
  5
878
 10
12.3923
 20
34.6801
 30
0.00000
  70
    32
  0
VERTEX
  8
0
  5
879
 10
12.3179
 20
34.7811
 30
0.00000
  70
    32
  0
VERTEX
  8
0
  5
87A
 10
12.2434
 20
34.8821
 30
0.00000
  70
    32
  0
VERTEX
  8
0
  5
87B
 10
12.1688
 20
34.9829
 30
0.00000
  70
    32
  0
VERTEX
  8
0
  5
87C
 10
12.0941
 20
35.0837
 30
0.00000
  70
    32
  0
VERTEX
  8
0
  5
87D
 10
12.0193
 20
35.1844
 30
0.00000
  70
    32
  0
VERTEX
  8
0
  5
87E
 10
11.9444
 20
35.2851
 30
0.00000
  70
    32
  0
VERTEX
  8
0
  5
87F
 10
11.8695
 20
35.3857
 30
0.00000
  70
    32
  0
VERTEX
  8
0
  5
880
 10
11.7944
 20
35.4862
 30
0.00000
  70
    32
  0
VERTEX
  8
0
  5
881
 10
11.7192
 20
35.5866
 30
0.00000
  70
    32
  0
VERTEX
  8
0
  5
882
 10
11.6439
 20
35.6870
 30
0.00000
  70
    32
  0
VERTEX
  8
0
  5
883
 10
11.5685
 20
35.7873
 30
0.00000
  70
    32
  0
VERTEX
  8
0
  5
884
 10
11.4931
 20
35.8875
 30
0.00000
  70
    32
  0
VERTEX
  8
0
  5
885
 10
11.4175
 20
35.9877
 30
0.00000
  70
    32
  0
VERTEX
  8
0
  5
886
 10
11.3419
 20
36.0877
 30
0.00000
  70
    32
  0
VERTEX
  8
0
  5
887
 10
11.2661
 20
36.1878
 30
0.00000
  70
    32
  0
VERTEX
  8
0
  5
888
 10
11.1902
 20
36.2877
 30
0.00000
  70
    32
  0
VERTEX
  8
0
  5
889
 10
11.1143
 20
36.3876
 30
0.00000
  70
    32
  0
VERTEX
  8
0
  5
88A
 10
11.0382
 20
36.4874
 30
0.00000
  70
    32
  0
VERTEX
  8
0
  5
88B
 10
10.9621
 20
36.5871
 30
0.00000
  70
    32
  0
VERTEX
  8
0
  5
88C
 10
10.8859
 20
36.6868
 30
0.00000
  70
    32
  0
VERTEX
  8
0
  5
88D
 10
10.8095
 20
36.7863
 30
0.00000
  70
    32
  0
VERTEX
  8
0
  5
88E
 10
10.7331
 20
36.8859
 30
0.00000
  70
    32
  0
VERTEX
  8
0
  5
88F
 10
10.6566
 20
36.9853
 30
0.00000
  70
    32
  0
VERTEX
  8
0
  5
890
 10
10.5800
 20
37.0847
 30
0.00000
  70
    32
  0
VERTEX
  8
0
  5
891
 10
10.5033
 20
37.1840
 30
0.00000
  70
    32
  0
VERTEX
  8
0
  5
892
 10
10.4265
 20
37.2832
 30
0.00000
  70
    32
  0
VERTEX
  8
0
  5
893
 10
10.3496
 20
37.3824
 30
0.00000
  70
    32
  0
VERTEX
  8
0
  5
894
 10
10.2726
 20
37.4815
 30
0.00000
  70
    32
  0
VERTEX
  8
0
  5
895
 10
10.1955
 20
37.5805
 30
0.00000
  70
    32
  0
VERTEX
  8
0
  5
896
 10
10.1183
 20
37.6794
 30
0.00000
  70
    32
  0
VERTEX
  8
0
  5
897
 10
10.0411
 20
37.7783
 30
0.00000
  70
    32
  0
VERTEX
  8
0
  5
898
 10
9.96369
 20
37.8771
 30
0.00000
  70
    32
  0
VERTEX
  8
0
  5
899
 10
9.88624
 20
37.9758
 30
0.00000
  70
    32
  0
VERTEX
  8
0
  5
89A
 10
9.80869
 20
38.0745
 30
0.00000
  70
    32
  0
VERTEX
  8
0
  5
89B
 10
9.73105
 20
38.1731
 30
0.00000
  70
    32
  0
VERTEX
  8
0
  5
89C
 10
9.65331
 20
38.2716
 30
0.00000
  70
    32
  0
VERTEX
  8
0
  5
89D
 10
9.57548
 20
38.3701
 30
0.00000
  70
    32
  0
VERTEX
  8
0
  5
89E
 10
9.49756
 20
38.4684
 30
0.00000
  70
    32
  0
VERTEX
  8
0
  5
89F
 10
9.41955
 20
38.5667
 30
0.00000
  70
    32
  0
VERTEX
  8
0
  5
8A0
 10
9.34145
 20
38.6650
 30
0.00000
  70
    32
  0
VERTEX
  8
0
  5
8A1
 10
9.26325
 20
38.7631
 30
0.00000
  70
    32
  0
VERTEX
  8
0
  5
8A2
 10
9.18497
 20
38.8612
 30
0.00000
  70
    32
  0
VERTEX
  8
0
  5
8A3
 10
9.10659
 20
38.9592
 30
0.00000
  70
    32
  0
VERTEX
  8
0
  5
8A4
 10
9.02812
 20
39.0572
 30
0.00000
  70
    32
  0
VERTEX
  8
0
  5
8A5
 10
8.94956
 20
39.1551
 30
0.00000
  70
    32
  0
VERTEX
  8
0
  5
8A6
 10
8.92253
 20
39.2994
 30
0.00000
  70
    32
  0
VERTEX
  8
0
  5
8A7
 10
9.52369
 20
40.0104
 30
0.00000
  70
    32
  0
VERTEX
  8
0
  5
8A8
 10
10.1249
 20
40.7214
 30
0.00000
  70
    32
  0
VERTEX
  8
0
  5
8A9
 10
10.7260
 20
41.4324
 30
0.00000
  70
    32
  0
VERTEX
  8
0
  5
8AA
 10
11.3272
 20
42.1433
 30
0.00000
  70
    32
  0
VERTEX
  8
0
  5
8AB
 10
11.9283
 20
42.8543
 30
0.00000
  70
    32
  0
VERTEX
  8
0
  5
8AC
 10
12.5295
 20
43.5653
 30
0.00000
  70
    32
  0
VERTEX
  8
0
  5
8AD
 10
13.1307
 20
44.2763
 30
0.00000
  70
    32
  0
VERTEX
  8
0
  5
8AE
 10
13.6770
 20
44.9222
 30
0.00000
  70
    32
  0
VERTEX
  8
0
  5
8AF
 10
13.7650
 20
45.0116
 30
0.00000
  70
    32
  0
VERTEX
  8
0
  5
8B0
 10
13.8635
 20
45.0892
 30
0.00000
  70
    32
  0
VERTEX
  8
0
  5
8B1
 10
14.6117
 20
45.6022
 30
0.00000
  70
    32
  0
VERTEX
  8
0
  5
8B2
 10
15.3796
 20
46.1287
 30
0.00000
  70
    32
  0
VERTEX
  8
0
  5
8B3
 10
16.1475
 20
46.6552
 30
0.00000
  70
    32
  0
VERTEX
  8
0
  5
8B4
 10
16.9154
 20
47.1816
 30
0.00000
  70
    32
  0
VERTEX
  8
0
  5
8B5
 10
17.6834
 20
47.7081
 30
0.00000
  70
    32
  0
VERTEX
  8
0
  5
8B6
 10
18.4513
 20
48.2346
 30
0.00000
  70
    32
  0
VERTEX
  8
0
  5
8B7
 10
19.2192
 20
48.7611
 30
0.00000
  70
    32
  0
VERTEX
  8
0
  5
8B8
 10
19.9871
 20
49.2876
 30
0.00000
  70
    32
  0
SEQEND
  8
0
  5
8B9
  0
CIRCLE
  5
1FD
  8
DRILLING
 10
41.8729185920730487
 20
8.8718160071306897
 30
0.0
 40
0.3224999999999999
  0
CIRCLE
  5
1FE
  8
DRILLING
 10
47.8054980138598893
 20
9.7687560297591176
 30
0.0
 40
0.3224999999999999
  0
INSERT
  5
1FF
  8
0
  2
*U5
 10
0.0
 20
0.0
 30
0.0
  0
CIRCLE
  5
200
  8
DRILLING
 10
16.6618433573268412
 20
42.2595915830125293
 30
0.0
 40
0.3224999999999999
  0
CIRCLE
  5
201
  8
DRILLING
 10
21.1215399581971504
 20
38.24572733167264
 30
0.0
 40
0.3224999999999999
  0
ENDSEC
  0
EOF
