  0
SECTION
  2
HEADER
  9
$ACADVER
  1
AC1009
  9
$INSBASE
 10
0.0
 20
0.0
 30
0.0
  9
$EXTMIN
 10
6.5063648016630253
 20
4.8968940818569271
 30
0.0
  9
$EXTMAX
 10
100.5063648016629969
 20
50.896894081856928
 30
0.0
  9
$LIMMIN
 10
0.0
 20
0.0
  9
$LIMMAX
 10
12.0
 20
9.0
  9
$ORTHOMODE
 70
     0
  9
$REGENMODE
 70
     1
  9
$FILLMODE
 70
     1
  9
$QTEXTMODE
 70
     0
  9
$MIRRTEXT
 70
     0
  9
$DRAGMODE
 70
     2
  9
$LTSCALE
 40
1.0
  9
$OSMODE
 70
   303
  9
$ATTMODE
 70
     1
  9
$TEXTSIZE
 40
0.2
  9
$TRACEWID
 40
0.05
  9
$TEXTSTYLE
  7
STANDARD
  9
$CLAYER
  8
0
  9
$CELTYPE
  6
BYLAYER
  9
$CECOLOR
 62
   256
  9
$DIMSCALE
 40
1.0
  9
$DIMASZ
 40
0.18
  9
$DIMEXO
 40
0.0625
  9
$DIMDLI
 40
0.38
  9
$DIMRND
 40
0.0
  9
$DIMDLE
 40
0.0
  9
$DIMEXE
 40
0.18
  9
$DIMTP
 40
0.0
  9
$DIMTM
 40
0.0
  9
$DIMTXT
 40
0.18
  9
$DIMCEN
 40
0.09
  9
$DIMTSZ
 40
0.0
  9
$DIMTOL
 70
     0
  9
$DIMLIM
 70
     0
  9
$DIMTIH
 70
     1
  9
$DIMTOH
 70
     1
  9
$DIMSE1
 70
     0
  9
$DIMSE2
 70
     0
  9
$DIMTAD
 70
     0
  9
$DIMZIN
 70
     0
  9
$DIMBLK
  1

  9
$DIMASO
 70
     1
  9
$DIMSHO
 70
     1
  9
$DIMPOST
  1

  9
$DIMAPOST
  1

  9
$DIMALT
 70
     0
  9
$DIMALTD
 70
     2
  9
$DIMALTF
 40
25.3999999999999986
  9
$DIMLFAC
 40
1.0
  9
$DIMTOFL
 70
     0
  9
$DIMTVP
 40
0.0
  9
$DIMTIX
 70
     0
  9
$DIMSOXD
 70
     0
  9
$DIMSAH
 70
     0
  9
$DIMBLK1
  1

  9
$DIMBLK2
  1

  9
$DIMSTYLE
  2
STANDARD
  9
$DIMCLRD
 70
     0
  9
$DIMCLRE
 70
     0
  9
$DIMCLRT
 70
     0
  9
$DIMTFAC
 40
1.0
  9
$DIMGAP
 40
0.09
  9
$LUNITS
 70
     2
  9
$LUPREC
 70
     4
  9
$SKETCHINC
 40
0.1
  9
$FILLETRAD
 40
0.0
  9
$AUNITS
 70
     0
  9
$AUPREC
 70
     0
  9
$MENU
  1
.
  9
$ELEVATION
 40
0.0
  9
$PELEVATION
 40
0.0
  9
$THICKNESS
 40
0.0
  9
$LIMCHECK
 70
     0
  9
$BLIPMODE
 70
     0
  9
$CHAMFERA
 40
0.0
  9
$CHAMFERB
 40
0.0
  9
$SKPOLY
 70
     0
  9
$TDCREATE
 40
2457228.6065524648874998
  9
$TDUPDATE
 40
2457228.6067672111093998
  9
$TDINDWG
 40
0.0002208681
  9
$TDUSRTIMER
 40
0.0002206829
  9
$USRTIMER
 70
     1
  9
$ANGBASE
 50
0.0
  9
$ANGDIR
 70
     0
  9
$PDMODE
 70
     0
  9
$PDSIZE
 40
0.0
  9
$PLINEWID
 40
0.0
  9
$COORDS
 70
     1
  9
$SPLFRAME
 70
     0
  9
$SPLINETYPE
 70
     6
  9
$SPLINESEGS
 70
     8
  9
$ATTDIA
 70
     1
  9
$ATTREQ
 70
     1
  9
$HANDLING
 70
     1
  9
$HANDSEED
  5
8F2
  9
$SURFTAB1
 70
     6
  9
$SURFTAB2
 70
     6
  9
$SURFTYPE
 70
     6
  9
$SURFU
 70
     6
  9
$SURFV
 70
     6
  9
$UCSNAME
  2

  9
$UCSORG
 10
0.0
 20
0.0
 30
0.0
  9
$UCSXDIR
 10
1.0
 20
0.0
 30
0.0
  9
$UCSYDIR
 10
0.0
 20
1.0
 30
0.0
  9
$PUCSNAME
  2

  9
$PUCSORG
 10
0.0
 20
0.0
 30
0.0
  9
$PUCSXDIR
 10
1.0
 20
0.0
 30
0.0
  9
$PUCSYDIR
 10
0.0
 20
1.0
 30
0.0
  9
$USERI1
 70
     0
  9
$USERI2
 70
     0
  9
$USERI3
 70
     0
  9
$USERI4
 70
     0
  9
$USERI5
 70
     0
  9
$USERR1
 40
0.0
  9
$USERR2
 40
0.0
  9
$USERR3
 40
0.0
  9
$USERR4
 40
0.0
  9
$USERR5
 40
0.0
  9
$WORLDVIEW
 70
     1
  9
$SHADEDGE
 70
     3
  9
$SHADEDIF
 70
    70
  9
$TILEMODE
 70
     1
  9
$MAXACTVP
 70
    64
  9
$PLIMCHECK
 70
     0
  9
$PEXTMIN
 10
0.0
 20
0.0
 30
0.0
  9
$PEXTMAX
 10
0.0
 20
0.0
 30
0.0
  9
$PLIMMIN
 10
0.0
 20
0.0
  9
$PLIMMAX
 10
12.0
 20
9.0
  9
$UNITMODE
 70
     0
  9
$VISRETAIN
 70
     1
  9
$PLINEGEN
 70
     0
  9
$PSLTSCALE
 70
     1
  0
ENDSEC
  0
SECTION
  2
TABLES
  0
TABLE
  2
VPORT
 70
     1
  0
VPORT
  2
*ACTIVE
 70
     0
 10
0.0
 20
0.0
 11
1.0
 21
1.0
 12
23.4518101673001098
 22
13.1348712842764801
 13
0.0
 23
0.0
 14
0.5
 24
0.5
 15
0.5
 25
0.5
 16
0.0
 26
0.0
 36
1.0
 17
0.0
 27
0.0
 37
0.0
 40
29.2260236050612683
 41
1.6803278688524581
 42
50.0
 43
0.0
 44
0.0
 50
0.0
 51
0.0
 71
     0
 72
  1000
 73
     1
 74
     3
 75
     0
 76
     1
 77
     0
 78
     0
  0
ENDTAB
  0
TABLE
  2
LTYPE
 70
     1
  0
LTYPE
  2
CONTINUOUS
 70
     0
  3
Solid line
 72
    65
 73
     0
 40
0.0
  0
ENDTAB
  0
TABLE
  2
LAYER
 70
     4
  0
LAYER
  2
0
 70
     0
 62
     7
  6
CONTINUOUS
  0
LAYER
  2
DRILLING
 70
     0
 62
     3
  6
CONTINUOUS
  0
LAYER
  2
CUT_SHEET
 70
     0
 62
     1
  6
CONTINUOUS
  0
LAYER
  2
ANNOTATION
 70
     0
 62
     7
  6
CONTINUOUS
  0
ENDTAB
  0
TABLE
  2
STYLE
 70
     3
  0
STYLE
  2
STANDARD
 70
     0
 40
0.0
 41
1.0
 50
0.0
 71
     0
 42
0.2
  3
txt
  4

  0
STYLE
  2
ANNOTATIVE
 70
     0
 40
0.0
 41
1.0
 50
0.0
 71
     0
 42
0.2
  3
txt
  4

  0
STYLE
  2
TW_CEN_MT
 70
     0
 40
0.0
 41
1.0
 50
0.0
 71
     0
 42
0.0
  3
txt
  4

  0
ENDTAB
  0
TABLE
  2
VIEW
 70
     1
  0
ENDTAB
  0
TABLE
  2
UCS
 70
     0
  0
ENDTAB
  0
TABLE
  2
APPID
 70
     9
  0
APPID
  2
ACAD
 70
     0
  0
APPID
  2
ACADANNOPO
 70
     0
  0
APPID
  2
ACADANNOTATIVE
 70
     0
  0
APPID
  2
ACAD_DSTYLE_DIMJAG
 70
     0
  0
APPID
  2
ACAD_DSTYLE_DIMTALN
 70
     0
  0
APPID
  2
ACAD_MLEADERVER
 70
     0
  0
APPID
  2
ACAD_NAV_VCDISPLAY
 70
     0
  0
APPID
  2
ACAECLAYERSTANDARD
 70
     0
  0
APPID
  2
ACCMTRANSPARENCY
 70
     0
  0
ENDTAB
  0
TABLE
  2
DIMSTYLE
 70
     2
  0
DIMSTYLE
  2
STANDARD
 70
     0
  3

  4

  5

  6

  7

 40
1.0
 41
0.18
 42
0.0625
 43
0.38
 44
0.18
 45
0.0
 46
0.0
 47
0.0
 48
0.0
140
0.18
141
0.09
142
0.0
143
25.3999999999999986
144
1.0
145
0.0
146
1.0
147
0.09
 71
     0
 72
     0
 73
     1
 74
     1
 75
     0
 76
     0
 77
     0
 78
     0
170
     0
171
     2
172
     0
173
     0
174
     0
175
     0
176
     0
177
     0
178
     0
  0
DIMSTYLE
  2
ANNOTATIVE
 70
     0
  3

  4

  5

  6

  7

 40
0.0
 41
0.18
 42
0.0625
 43
0.38
 44
0.18
 45
0.0
 46
0.0
 47
0.0
 48
0.0
140
0.18
141
0.09
142
0.0
143
25.3999999999999986
144
1.0
145
0.0
146
1.0
147
0.09
 71
     0
 72
     0
 73
     1
 74
     1
 75
     0
 76
     0
 77
     0
 78
     0
170
     0
171
     2
172
     0
173
     0
174
     0
175
     0
176
     0
177
     0
178
     0
  0
ENDTAB
  0
ENDSEC
  0
SECTION
  2
BLOCKS
  0
BLOCK
  8
0
  2
$MODEL_SPACE
 70
     0
 10
0.0
 20
0.0
 30
0.0
  3
$MODEL_SPACE
  1

  0
ENDBLK
  5
21
  8
0
  0
BLOCK
 67
     1
  8
0
  2
$PAPER_SPACE
 70
     0
 10
0.0
 20
0.0
 30
0.0
  3
$PAPER_SPACE
  1

  0
ENDBLK
  5
5B
 67
     1
  8
0
  0
BLOCK
  8
0
  2
*U2
 70
     1
 10
0.0
 20
0.0
 30
0.0
  3
*U2
  1

  0
TEXT
  5
25A
  8
ANNOTATION
 62
     7
 10
40.0997883330469378
 20
17.9061308470657004
 30
0.0
 40
2.3703599999999989
  1
G.11
 50
218.646568712987488
  7
TW_CEN_MT
  0
ENDBLK
  5
25C
  8
0
  0
BLOCK
  8
0
  2
*U3
 70
     1
 10
0.0
 20
0.0
 30
0.0
  3
*U3
  1

  0
TEXT
  5
25E
  8
ANNOTATION
 62
     7
 10
51.7053675275938076
 20
28.03125543235479
 30
0.0
 40
2.3703599999999989
  1
G.11
 50
43.2149882868894082
  7
TW_CEN_MT
  0
ENDBLK
  5
260
  8
0
  0
BLOCK
  8
0
  2
*U4
 70
     1
 10
0.0
 20
0.0
 30
0.0
  3
*U4
  1

  0
TEXT
  5
267
  8
ANNOTATION
 62
     7
 10
46.6061533693348125
 20
22.8030235646166801
 30
0.0
 40
2.3703599999999989
  1
G.11
 50
218.646568712987488
  7
TW_CEN_MT
  0
ENDBLK
  5
269
  8
0
  0
BLOCK
  8
0
  2
*U5
 70
     1
 10
0.0
 20
0.0
 30
0.0
  3
*U5
  1

  0
TEXT
  5
26B
  8
ANNOTATION
 62
     7
 10
58.2117325638816823
 20
32.9281481499057733
 30
0.0
 40
2.3703599999999989
  1
G.11
 50
43.2149882868894082
  7
TW_CEN_MT
  0
ENDBLK
  5
26D
  8
0
  0
ENDSEC
  0
SECTION
  2
ENTITIES
  0
POLYLINE
  5
1F1
  8
CUT_SHEET
 66
     1
 10
0.0
 20
0.0
 30
0.0
 70
     1
  0
VERTEX
  5
261
  8
CUT_SHEET
 10
6.5063648016630253
 20
50.896894081856928
 30
0.0
  0
VERTEX
  5
262
  8
CUT_SHEET
 10
6.5063648016630253
 20
4.8968940818569271
 30
0.0
  0
VERTEX
  5
263
  8
CUT_SHEET
 10
100.5063648016629969
 20
4.8968940818569271
 30
0.0
  0
VERTEX
  5
264
  8
CUT_SHEET
 10
100.5063648016629969
 20
50.896894081856928
 30
0.0
  0
SEQEND
  5
265
  8
CUT_SHEET
  0
POLYLINE
  8
0
  5
26E
  66
     1
 10
0.00000
 20
0.00000
 30
0.00000
  70
     8
  0
VERTEX
  8
0
  5
26F
 10
78.7852
 20
14.7226
 30
0.00000
  70
    32
  0
VERTEX
  8
0
  5
270
 10
78.6380
 20
14.7083
 30
0.00000
  70
    32
  0
VERTEX
  8
0
  5
271
 10
78.4908
 20
14.6940
 30
0.00000
  70
    32
  0
VERTEX
  8
0
  5
272
 10
78.3435
 20
14.6797
 30
0.00000
  70
    32
  0
VERTEX
  8
0
  5
273
 10
78.1963
 20
14.6653
 30
0.00000
  70
    32
  0
VERTEX
  8
0
  5
274
 10
78.0491
 20
14.6510
 30
0.00000
  70
    32
  0
VERTEX
  8
0
  5
275
 10
77.9018
 20
14.6368
 30
0.00000
  70
    32
  0
VERTEX
  8
0
  5
276
 10
77.7546
 20
14.6225
 30
0.00000
  70
    32
  0
VERTEX
  8
0
  5
277
 10
77.6074
 20
14.6082
 30
0.00000
  70
    32
  0
VERTEX
  8
0
  5
278
 10
77.4601
 20
14.5939
 30
0.00000
  70
    32
  0
VERTEX
  8
0
  5
279
 10
77.3129
 20
14.5797
 30
0.00000
  70
    32
  0
VERTEX
  8
0
  5
27A
 10
77.1656
 20
14.5655
 30
0.00000
  70
    32
  0
VERTEX
  8
0
  5
27B
 10
77.0184
 20
14.5513
 30
0.00000
  70
    32
  0
VERTEX
  8
0
  5
27C
 10
76.8712
 20
14.5371
 30
0.00000
  70
    32
  0
VERTEX
  8
0
  5
27D
 10
76.7239
 20
14.5230
 30
0.00000
  70
    32
  0
VERTEX
  8
0
  5
27E
 10
76.5767
 20
14.5088
 30
0.00000
  70
    32
  0
VERTEX
  8
0
  5
27F
 10
76.4294
 20
14.4947
 30
0.00000
  70
    32
  0
VERTEX
  8
0
  5
280
 10
76.2821
 20
14.4806
 30
0.00000
  70
    32
  0
VERTEX
  8
0
  5
281
 10
76.1349
 20
14.4666
 30
0.00000
  70
    32
  0
VERTEX
  8
0
  5
282
 10
75.9876
 20
14.4526
 30
0.00000
  70
    32
  0
VERTEX
  8
0
  5
283
 10
75.8404
 20
14.4386
 30
0.00000
  70
    32
  0
VERTEX
  8
0
  5
284
 10
75.6931
 20
14.4247
 30
0.00000
  70
    32
  0
VERTEX
  8
0
  5
285
 10
75.5458
 20
14.4108
 30
0.00000
  70
    32
  0
VERTEX
  8
0
  5
286
 10
75.3985
 20
14.3969
 30
0.00000
  70
    32
  0
VERTEX
  8
0
  5
287
 10
75.2513
 20
14.3831
 30
0.00000
  70
    32
  0
VERTEX
  8
0
  5
288
 10
75.1040
 20
14.3693
 30
0.00000
  70
    32
  0
VERTEX
  8
0
  5
289
 10
74.9567
 20
14.3556
 30
0.00000
  70
    32
  0
VERTEX
  8
0
  5
28A
 10
74.8094
 20
14.3419
 30
0.00000
  70
    32
  0
VERTEX
  8
0
  5
28B
 10
74.6621
 20
14.3282
 30
0.00000
  70
    32
  0
VERTEX
  8
0
  5
28C
 10
74.5148
 20
14.3147
 30
0.00000
  70
    32
  0
VERTEX
  8
0
  5
28D
 10
74.3675
 20
14.3011
 30
0.00000
  70
    32
  0
VERTEX
  8
0
  5
28E
 10
74.2202
 20
14.2876
 30
0.00000
  70
    32
  0
VERTEX
  8
0
  5
28F
 10
74.0729
 20
14.2742
 30
0.00000
  70
    32
  0
VERTEX
  8
0
  5
290
 10
73.9256
 20
14.2609
 30
0.00000
  70
    32
  0
VERTEX
  8
0
  5
291
 10
73.7782
 20
14.2475
 30
0.00000
  70
    32
  0
VERTEX
  8
0
  5
292
 10
73.6309
 20
14.2343
 30
0.00000
  70
    32
  0
VERTEX
  8
0
  5
293
 10
73.4836
 20
14.2211
 30
0.00000
  70
    32
  0
VERTEX
  8
0
  5
294
 10
73.3362
 20
14.2080
 30
0.00000
  70
    32
  0
VERTEX
  8
0
  5
295
 10
73.1889
 20
14.1949
 30
0.00000
  70
    32
  0
VERTEX
  8
0
  5
296
 10
73.0415
 20
14.1820
 30
0.00000
  70
    32
  0
VERTEX
  8
0
  5
297
 10
72.8942
 20
14.1690
 30
0.00000
  70
    32
  0
VERTEX
  8
0
  5
298
 10
72.7468
 20
14.1562
 30
0.00000
  70
    32
  0
VERTEX
  8
0
  5
299
 10
72.5994
 20
14.1434
 30
0.00000
  70
    32
  0
VERTEX
  8
0
  5
29A
 10
72.4520
 20
14.1307
 30
0.00000
  70
    32
  0
VERTEX
  8
0
  5
29B
 10
72.3046
 20
14.1181
 30
0.00000
  70
    32
  0
VERTEX
  8
0
  5
29C
 10
72.1573
 20
14.1056
 30
0.00000
  70
    32
  0
VERTEX
  8
0
  5
29D
 10
72.0099
 20
14.0931
 30
0.00000
  70
    32
  0
VERTEX
  8
0
  5
29E
 10
71.8624
 20
14.0807
 30
0.00000
  70
    32
  0
VERTEX
  8
0
  5
29F
 10
71.7150
 20
14.0684
 30
0.00000
  70
    32
  0
VERTEX
  8
0
  5
2A0
 10
71.5676
 20
14.0562
 30
0.00000
  70
    32
  0
VERTEX
  8
0
  5
2A1
 10
71.4202
 20
14.0440
 30
0.00000
  70
    32
  0
VERTEX
  8
0
  5
2A2
 10
71.2727
 20
14.0319
 30
0.00000
  70
    32
  0
VERTEX
  8
0
  5
2A3
 10
71.1253
 20
14.0199
 30
0.00000
  70
    32
  0
VERTEX
  8
0
  5
2A4
 10
70.9779
 20
14.0079
 30
0.00000
  70
    32
  0
VERTEX
  8
0
  5
2A5
 10
70.8304
 20
13.9961
 30
0.00000
  70
    32
  0
VERTEX
  8
0
  5
2A6
 10
70.6829
 20
13.9843
 30
0.00000
  70
    32
  0
VERTEX
  8
0
  5
2A7
 10
70.5355
 20
13.9725
 30
0.00000
  70
    32
  0
VERTEX
  8
0
  5
2A8
 10
70.3880
 20
13.9609
 30
0.00000
  70
    32
  0
VERTEX
  8
0
  5
2A9
 10
70.2405
 20
13.9493
 30
0.00000
  70
    32
  0
VERTEX
  8
0
  5
2AA
 10
70.0930
 20
13.9378
 30
0.00000
  70
    32
  0
VERTEX
  8
0
  5
2AB
 10
69.9456
 20
13.9264
 30
0.00000
  70
    32
  0
VERTEX
  8
0
  5
2AC
 10
69.7981
 20
13.9150
 30
0.00000
  70
    32
  0
VERTEX
  8
0
  5
2AD
 10
69.6506
 20
13.9038
 30
0.00000
  70
    32
  0
VERTEX
  8
0
  5
2AE
 10
69.5030
 20
13.8926
 30
0.00000
  70
    32
  0
VERTEX
  8
0
  5
2AF
 10
69.3555
 20
13.8814
 30
0.00000
  70
    32
  0
VERTEX
  8
0
  5
2B0
 10
69.2080
 20
13.8704
 30
0.00000
  70
    32
  0
VERTEX
  8
0
  5
2B1
 10
69.0605
 20
13.8594
 30
0.00000
  70
    32
  0
VERTEX
  8
0
  5
2B2
 10
68.9129
 20
13.8485
 30
0.00000
  70
    32
  0
VERTEX
  8
0
  5
2B3
 10
68.7654
 20
13.8377
 30
0.00000
  70
    32
  0
VERTEX
  8
0
  5
2B4
 10
68.6179
 20
13.8269
 30
0.00000
  70
    32
  0
VERTEX
  8
0
  5
2B5
 10
68.4703
 20
13.8162
 30
0.00000
  70
    32
  0
VERTEX
  8
0
  5
2B6
 10
68.3228
 20
13.8056
 30
0.00000
  70
    32
  0
VERTEX
  8
0
  5
2B7
 10
68.1752
 20
13.7951
 30
0.00000
  70
    32
  0
VERTEX
  8
0
  5
2B8
 10
68.0276
 20
13.7846
 30
0.00000
  70
    32
  0
VERTEX
  8
0
  5
2B9
 10
67.8801
 20
13.7742
 30
0.00000
  70
    32
  0
VERTEX
  8
0
  5
2BA
 10
67.7325
 20
13.7639
 30
0.00000
  70
    32
  0
VERTEX
  8
0
  5
2BB
 10
67.5849
 20
13.7537
 30
0.00000
  70
    32
  0
VERTEX
  8
0
  5
2BC
 10
67.4373
 20
13.7435
 30
0.00000
  70
    32
  0
VERTEX
  8
0
  5
2BD
 10
67.2897
 20
13.7334
 30
0.00000
  70
    32
  0
VERTEX
  8
0
  5
2BE
 10
67.1421
 20
13.7234
 30
0.00000
  70
    32
  0
VERTEX
  8
0
  5
2BF
 10
66.9945
 20
13.7134
 30
0.00000
  70
    32
  0
VERTEX
  8
0
  5
2C0
 10
66.8469
 20
13.7035
 30
0.00000
  70
    32
  0
VERTEX
  8
0
  5
2C1
 10
66.6993
 20
13.6937
 30
0.00000
  70
    32
  0
VERTEX
  8
0
  5
2C2
 10
66.5517
 20
13.6840
 30
0.00000
  70
    32
  0
VERTEX
  8
0
  5
2C3
 10
66.4041
 20
13.6744
 30
0.00000
  70
    32
  0
VERTEX
  8
0
  5
2C4
 10
66.2564
 20
13.6648
 30
0.00000
  70
    32
  0
VERTEX
  8
0
  5
2C5
 10
66.1088
 20
13.6553
 30
0.00000
  70
    32
  0
VERTEX
  8
0
  5
2C6
 10
65.9611
 20
13.6458
 30
0.00000
  70
    32
  0
VERTEX
  8
0
  5
2C7
 10
65.8135
 20
13.6365
 30
0.00000
  70
    32
  0
VERTEX
  8
0
  5
2C8
 10
65.6659
 20
13.6272
 30
0.00000
  70
    32
  0
VERTEX
  8
0
  5
2C9
 10
65.5182
 20
13.6180
 30
0.00000
  70
    32
  0
VERTEX
  8
0
  5
2CA
 10
65.3705
 20
13.6088
 30
0.00000
  70
    32
  0
VERTEX
  8
0
  5
2CB
 10
65.2229
 20
13.5998
 30
0.00000
  70
    32
  0
VERTEX
  8
0
  5
2CC
 10
65.0752
 20
13.5908
 30
0.00000
  70
    32
  0
VERTEX
  8
0
  5
2CD
 10
64.9275
 20
13.5818
 30
0.00000
  70
    32
  0
VERTEX
  8
0
  5
2CE
 10
64.7799
 20
13.5730
 30
0.00000
  70
    32
  0
VERTEX
  8
0
  5
2CF
 10
64.6322
 20
13.5642
 30
0.00000
  70
    32
  0
VERTEX
  8
0
  5
2D0
 10
64.4845
 20
13.5555
 30
0.00000
  70
    32
  0
VERTEX
  8
0
  5
2D1
 10
64.3368
 20
13.5469
 30
0.00000
  70
    32
  0
VERTEX
  8
0
  5
2D2
 10
64.1891
 20
13.5383
 30
0.00000
  70
    32
  0
VERTEX
  8
0
  5
2D3
 10
64.0414
 20
13.5298
 30
0.00000
  70
    32
  0
VERTEX
  8
0
  5
2D4
 10
63.8937
 20
13.5214
 30
0.00000
  70
    32
  0
VERTEX
  8
0
  5
2D5
 10
63.7460
 20
13.5131
 30
0.00000
  70
    32
  0
VERTEX
  8
0
  5
2D6
 10
63.5983
 20
13.5048
 30
0.00000
  70
    32
  0
VERTEX
  8
0
  5
2D7
 10
63.4505
 20
13.4966
 30
0.00000
  70
    32
  0
VERTEX
  8
0
  5
2D8
 10
63.3028
 20
13.4885
 30
0.00000
  70
    32
  0
VERTEX
  8
0
  5
2D9
 10
63.1551
 20
13.4804
 30
0.00000
  70
    32
  0
VERTEX
  8
0
  5
2DA
 10
63.0074
 20
13.4725
 30
0.00000
  70
    32
  0
VERTEX
  8
0
  5
2DB
 10
62.8596
 20
13.4646
 30
0.00000
  70
    32
  0
VERTEX
  8
0
  5
2DC
 10
62.7119
 20
13.4567
 30
0.00000
  70
    32
  0
VERTEX
  8
0
  5
2DD
 10
62.5641
 20
13.4490
 30
0.00000
  70
    32
  0
VERTEX
  8
0
  5
2DE
 10
62.4164
 20
13.4413
 30
0.00000
  70
    32
  0
VERTEX
  8
0
  5
2DF
 10
62.2686
 20
13.4337
 30
0.00000
  70
    32
  0
VERTEX
  8
0
  5
2E0
 10
62.1209
 20
13.4261
 30
0.00000
  70
    32
  0
VERTEX
  8
0
  5
2E1
 10
61.9731
 20
13.4187
 30
0.00000
  70
    32
  0
VERTEX
  8
0
  5
2E2
 10
61.8254
 20
13.4113
 30
0.00000
  70
    32
  0
VERTEX
  8
0
  5
2E3
 10
61.6776
 20
13.4039
 30
0.00000
  70
    32
  0
VERTEX
  8
0
  5
2E4
 10
61.5298
 20
13.3967
 30
0.00000
  70
    32
  0
VERTEX
  8
0
  5
2E5
 10
61.3821
 20
13.3895
 30
0.00000
  70
    32
  0
VERTEX
  8
0
  5
2E6
 10
61.2343
 20
13.3824
 30
0.00000
  70
    32
  0
VERTEX
  8
0
  5
2E7
 10
61.0865
 20
13.3753
 30
0.00000
  70
    32
  0
VERTEX
  8
0
  5
2E8
 10
60.9387
 20
13.3684
 30
0.00000
  70
    32
  0
VERTEX
  8
0
  5
2E9
 10
60.7909
 20
13.3615
 30
0.00000
  70
    32
  0
VERTEX
  8
0
  5
2EA
 10
60.6431
 20
13.3546
 30
0.00000
  70
    32
  0
VERTEX
  8
0
  5
2EB
 10
60.4953
 20
13.3479
 30
0.00000
  70
    32
  0
VERTEX
  8
0
  5
2EC
 10
60.3475
 20
13.3412
 30
0.00000
  70
    32
  0
VERTEX
  8
0
  5
2ED
 10
60.1997
 20
13.3346
 30
0.00000
  70
    32
  0
VERTEX
  8
0
  5
2EE
 10
60.0519
 20
13.3281
 30
0.00000
  70
    32
  0
VERTEX
  8
0
  5
2EF
 10
59.9041
 20
13.3216
 30
0.00000
  70
    32
  0
VERTEX
  8
0
  5
2F0
 10
59.7563
 20
13.3152
 30
0.00000
  70
    32
  0
VERTEX
  8
0
  5
2F1
 10
59.6085
 20
13.3089
 30
0.00000
  70
    32
  0
VERTEX
  8
0
  5
2F2
 10
59.4607
 20
13.3026
 30
0.00000
  70
    32
  0
VERTEX
  8
0
  5
2F3
 10
59.3128
 20
13.2965
 30
0.00000
  70
    32
  0
VERTEX
  8
0
  5
2F4
 10
59.1650
 20
13.2904
 30
0.00000
  70
    32
  0
VERTEX
  8
0
  5
2F5
 10
59.0172
 20
13.2843
 30
0.00000
  70
    32
  0
VERTEX
  8
0
  5
2F6
 10
58.8694
 20
13.2784
 30
0.00000
  70
    32
  0
VERTEX
  8
0
  5
2F7
 10
58.7215
 20
13.2725
 30
0.00000
  70
    32
  0
VERTEX
  8
0
  5
2F8
 10
58.5737
 20
13.2666
 30
0.00000
  70
    32
  0
VERTEX
  8
0
  5
2F9
 10
58.4259
 20
13.2609
 30
0.00000
  70
    32
  0
VERTEX
  8
0
  5
2FA
 10
58.2780
 20
13.2552
 30
0.00000
  70
    32
  0
VERTEX
  8
0
  5
2FB
 10
58.1302
 20
13.2496
 30
0.00000
  70
    32
  0
VERTEX
  8
0
  5
2FC
 10
57.9823
 20
13.2441
 30
0.00000
  70
    32
  0
VERTEX
  8
0
  5
2FD
 10
57.8345
 20
13.2386
 30
0.00000
  70
    32
  0
VERTEX
  8
0
  5
2FE
 10
57.6866
 20
13.2332
 30
0.00000
  70
    32
  0
VERTEX
  8
0
  5
2FF
 10
57.5388
 20
13.2279
 30
0.00000
  70
    32
  0
VERTEX
  8
0
  5
300
 10
57.3909
 20
13.2226
 30
0.00000
  70
    32
  0
VERTEX
  8
0
  5
301
 10
57.2430
 20
13.2174
 30
0.00000
  70
    32
  0
VERTEX
  8
0
  5
302
 10
57.0952
 20
13.2123
 30
0.00000
  70
    32
  0
VERTEX
  8
0
  5
303
 10
56.9473
 20
13.2073
 30
0.00000
  70
    32
  0
VERTEX
  8
0
  5
304
 10
56.7994
 20
13.2023
 30
0.00000
  70
    32
  0
VERTEX
  8
0
  5
305
 10
56.6516
 20
13.1974
 30
0.00000
  70
    32
  0
VERTEX
  8
0
  5
306
 10
56.5037
 20
13.1926
 30
0.00000
  70
    32
  0
VERTEX
  8
0
  5
307
 10
56.3558
 20
13.1879
 30
0.00000
  70
    32
  0
VERTEX
  8
0
  5
308
 10
56.2079
 20
13.1832
 30
0.00000
  70
    32
  0
VERTEX
  8
0
  5
309
 10
56.0600
 20
13.1786
 30
0.00000
  70
    32
  0
VERTEX
  8
0
  5
30A
 10
55.9122
 20
13.1740
 30
0.00000
  70
    32
  0
VERTEX
  8
0
  5
30B
 10
55.7643
 20
13.1696
 30
0.00000
  70
    32
  0
VERTEX
  8
0
  5
30C
 10
55.6164
 20
13.1652
 30
0.00000
  70
    32
  0
VERTEX
  8
0
  5
30D
 10
55.4685
 20
13.1608
 30
0.00000
  70
    32
  0
VERTEX
  8
0
  5
30E
 10
55.3206
 20
13.1566
 30
0.00000
  70
    32
  0
VERTEX
  8
0
  5
30F
 10
55.1727
 20
13.1524
 30
0.00000
  70
    32
  0
VERTEX
  8
0
  5
310
 10
55.0248
 20
13.1483
 30
0.00000
  70
    32
  0
VERTEX
  8
0
  5
311
 10
54.8769
 20
13.1443
 30
0.00000
  70
    32
  0
VERTEX
  8
0
  5
312
 10
54.7290
 20
13.1403
 30
0.00000
  70
    32
  0
VERTEX
  8
0
  5
313
 10
54.5811
 20
13.1364
 30
0.00000
  70
    32
  0
VERTEX
  8
0
  5
314
 10
54.4332
 20
13.1326
 30
0.00000
  70
    32
  0
VERTEX
  8
0
  5
315
 10
54.2853
 20
13.1289
 30
0.00000
  70
    32
  0
VERTEX
  8
0
  5
316
 10
54.1374
 20
13.1252
 30
0.00000
  70
    32
  0
VERTEX
  8
0
  5
317
 10
53.9895
 20
13.1216
 30
0.00000
  70
    32
  0
VERTEX
  8
0
  5
318
 10
53.8416
 20
13.1181
 30
0.00000
  70
    32
  0
VERTEX
  8
0
  5
319
 10
53.6937
 20
13.1146
 30
0.00000
  70
    32
  0
VERTEX
  8
0
  5
31A
 10
53.5458
 20
13.1112
 30
0.00000
  70
    32
  0
VERTEX
  8
0
  5
31B
 10
53.3978
 20
13.1079
 30
0.00000
  70
    32
  0
VERTEX
  8
0
  5
31C
 10
53.2499
 20
13.1047
 30
0.00000
  70
    32
  0
VERTEX
  8
0
  5
31D
 10
53.1020
 20
13.1015
 30
0.00000
  70
    32
  0
VERTEX
  8
0
  5
31E
 10
52.9541
 20
13.0984
 30
0.00000
  70
    32
  0
VERTEX
  8
0
  5
31F
 10
52.8062
 20
13.0954
 30
0.00000
  70
    32
  0
VERTEX
  8
0
  5
320
 10
52.6582
 20
13.0925
 30
0.00000
  70
    32
  0
VERTEX
  8
0
  5
321
 10
52.5103
 20
13.0896
 30
0.00000
  70
    32
  0
VERTEX
  8
0
  5
322
 10
52.3624
 20
13.0868
 30
0.00000
  70
    32
  0
VERTEX
  8
0
  5
323
 10
52.2145
 20
13.0841
 30
0.00000
  70
    32
  0
VERTEX
  8
0
  5
324
 10
52.0665
 20
13.0815
 30
0.00000
  70
    32
  0
VERTEX
  8
0
  5
325
 10
51.9186
 20
13.0789
 30
0.00000
  70
    32
  0
VERTEX
  8
0
  5
326
 10
51.7707
 20
13.0764
 30
0.00000
  70
    32
  0
VERTEX
  8
0
  5
327
 10
51.6227
 20
13.0740
 30
0.00000
  70
    32
  0
VERTEX
  8
0
  5
328
 10
51.4748
 20
13.0716
 30
0.00000
  70
    32
  0
VERTEX
  8
0
  5
329
 10
51.3269
 20
13.0694
 30
0.00000
  70
    32
  0
VERTEX
  8
0
  5
32A
 10
51.1789
 20
13.0672
 30
0.00000
  70
    32
  0
VERTEX
  8
0
  5
32B
 10
51.0310
 20
13.0650
 30
0.00000
  70
    32
  0
VERTEX
  8
0
  5
32C
 10
50.8831
 20
13.0630
 30
0.00000
  70
    32
  0
VERTEX
  8
0
  5
32D
 10
50.7351
 20
13.0610
 30
0.00000
  70
    32
  0
VERTEX
  8
0
  5
32E
 10
50.5872
 20
13.0591
 30
0.00000
  70
    32
  0
VERTEX
  8
0
  5
32F
 10
50.4393
 20
13.0573
 30
0.00000
  70
    32
  0
VERTEX
  8
0
  5
330
 10
50.2913
 20
13.0556
 30
0.00000
  70
    32
  0
VERTEX
  8
0
  5
331
 10
50.1434
 20
13.0539
 30
0.00000
  70
    32
  0
VERTEX
  8
0
  5
332
 10
49.9954
 20
13.0523
 30
0.00000
  70
    32
  0
VERTEX
  8
0
  5
333
 10
49.8475
 20
13.0508
 30
0.00000
  70
    32
  0
VERTEX
  8
0
  5
334
 10
49.6995
 20
13.0493
 30
0.00000
  70
    32
  0
VERTEX
  8
0
  5
335
 10
49.5516
 20
13.0479
 30
0.00000
  70
    32
  0
VERTEX
  8
0
  5
336
 10
49.4037
 20
13.0466
 30
0.00000
  70
    32
  0
VERTEX
  8
0
  5
337
 10
49.2557
 20
13.0454
 30
0.00000
  70
    32
  0
VERTEX
  8
0
  5
338
 10
49.1078
 20
13.0443
 30
0.00000
  70
    32
  0
VERTEX
  8
0
  5
339
 10
48.9598
 20
13.0432
 30
0.00000
  70
    32
  0
VERTEX
  8
0
  5
33A
 10
48.8119
 20
13.0422
 30
0.00000
  70
    32
  0
VERTEX
  8
0
  5
33B
 10
48.6639
 20
13.0413
 30
0.00000
  70
    32
  0
VERTEX
  8
0
  5
33C
 10
48.5160
 20
13.0404
 30
0.00000
  70
    32
  0
VERTEX
  8
0
  5
33D
 10
48.3680
 20
13.0397
 30
0.00000
  70
    32
  0
VERTEX
  8
0
  5
33E
 10
48.2201
 20
13.0390
 30
0.00000
  70
    32
  0
VERTEX
  8
0
  5
33F
 10
48.0722
 20
13.0384
 30
0.00000
  70
    32
  0
VERTEX
  8
0
  5
340
 10
47.9242
 20
13.0378
 30
0.00000
  70
    32
  0
VERTEX
  8
0
  5
341
 10
47.7763
 20
13.0374
 30
0.00000
  70
    32
  0
VERTEX
  8
0
  5
342
 10
47.6283
 20
13.0370
 30
0.00000
  70
    32
  0
VERTEX
  8
0
  5
343
 10
47.4804
 20
13.0367
 30
0.00000
  70
    32
  0
VERTEX
  8
0
  5
344
 10
47.3324
 20
13.0364
 30
0.00000
  70
    32
  0
VERTEX
  8
0
  5
345
 10
47.1845
 20
13.0363
 30
0.00000
  70
    32
  0
VERTEX
  8
0
  5
346
 10
47.0365
 20
13.0362
 30
0.00000
  70
    32
  0
VERTEX
  8
0
  5
347
 10
46.8886
 20
13.0362
 30
0.00000
  70
    32
  0
VERTEX
  8
0
  5
348
 10
46.7406
 20
13.0363
 30
0.00000
  70
    32
  0
VERTEX
  8
0
  5
349
 10
46.5927
 20
13.0364
 30
0.00000
  70
    32
  0
VERTEX
  8
0
  5
34A
 10
46.4447
 20
13.0366
 30
0.00000
  70
    32
  0
VERTEX
  8
0
  5
34B
 10
46.2968
 20
13.0370
 30
0.00000
  70
    32
  0
VERTEX
  8
0
  5
34C
 10
46.1488
 20
13.0373
 30
0.00000
  70
    32
  0
VERTEX
  8
0
  5
34D
 10
46.0009
 20
13.0378
 30
0.00000
  70
    32
  0
VERTEX
  8
0
  5
34E
 10
45.8530
 20
13.0383
 30
0.00000
  70
    32
  0
VERTEX
  8
0
  5
34F
 10
45.7050
 20
13.0390
 30
0.00000
  70
    32
  0
VERTEX
  8
0
  5
350
 10
45.5571
 20
13.0396
 30
0.00000
  70
    32
  0
VERTEX
  8
0
  5
351
 10
45.4091
 20
13.0404
 30
0.00000
  70
    32
  0
VERTEX
  8
0
  5
352
 10
45.2612
 20
13.0413
 30
0.00000
  70
    32
  0
VERTEX
  8
0
  5
353
 10
45.1132
 20
13.0422
 30
0.00000
  70
    32
  0
VERTEX
  8
0
  5
354
 10
44.9653
 20
13.0432
 30
0.00000
  70
    32
  0
VERTEX
  8
0
  5
355
 10
44.8174
 20
13.0443
 30
0.00000
  70
    32
  0
VERTEX
  8
0
  5
356
 10
44.6694
 20
13.0454
 30
0.00000
  70
    32
  0
VERTEX
  8
0
  5
357
 10
44.5215
 20
13.0467
 30
0.00000
  70
    32
  0
VERTEX
  8
0
  5
358
 10
44.3735
 20
13.0480
 30
0.00000
  70
    32
  0
VERTEX
  8
0
  5
359
 10
44.2256
 20
13.0494
 30
0.00000
  70
    32
  0
VERTEX
  8
0
  5
35A
 10
44.0777
 20
13.0509
 30
0.00000
  70
    32
  0
VERTEX
  8
0
  5
35B
 10
43.9297
 20
13.0524
 30
0.00000
  70
    32
  0
VERTEX
  8
0
  5
35C
 10
43.7818
 20
13.0541
 30
0.00000
  70
    32
  0
VERTEX
  8
0
  5
35D
 10
43.6339
 20
13.0558
 30
0.00000
  70
    32
  0
VERTEX
  8
0
  5
35E
 10
43.4859
 20
13.0576
 30
0.00000
  70
    32
  0
VERTEX
  8
0
  5
35F
 10
43.3380
 20
13.0594
 30
0.00000
  70
    32
  0
VERTEX
  8
0
  5
360
 10
43.1901
 20
13.0614
 30
0.00000
  70
    32
  0
VERTEX
  8
0
  5
361
 10
43.0421
 20
13.0634
 30
0.00000
  70
    32
  0
VERTEX
  8
0
  5
362
 10
42.8942
 20
13.0655
 30
0.00000
  70
    32
  0
VERTEX
  8
0
  5
363
 10
42.7463
 20
13.0677
 30
0.00000
  70
    32
  0
VERTEX
  8
0
  5
364
 10
42.5984
 20
13.0700
 30
0.00000
  70
    32
  0
VERTEX
  8
0
  5
365
 10
42.4504
 20
13.0723
 30
0.00000
  70
    32
  0
VERTEX
  8
0
  5
366
 10
42.3025
 20
13.0747
 30
0.00000
  70
    32
  0
VERTEX
  8
0
  5
367
 10
42.1546
 20
13.0772
 30
0.00000
  70
    32
  0
VERTEX
  8
0
  5
368
 10
42.0067
 20
13.0798
 30
0.00000
  70
    32
  0
VERTEX
  8
0
  5
369
 10
41.8587
 20
13.0825
 30
0.00000
  70
    32
  0
VERTEX
  8
0
  5
36A
 10
41.7108
 20
13.0852
 30
0.00000
  70
    32
  0
VERTEX
  8
0
  5
36B
 10
41.5629
 20
13.0880
 30
0.00000
  70
    32
  0
VERTEX
  8
0
  5
36C
 10
41.4150
 20
13.0909
 30
0.00000
  70
    32
  0
VERTEX
  8
0
  5
36D
 10
41.2671
 20
13.0939
 30
0.00000
  70
    32
  0
VERTEX
  8
0
  5
36E
 10
41.1192
 20
13.0970
 30
0.00000
  70
    32
  0
VERTEX
  8
0
  5
36F
 10
40.9713
 20
13.1001
 30
0.00000
  70
    32
  0
VERTEX
  8
0
  5
370
 10
40.8233
 20
13.1033
 30
0.00000
  70
    32
  0
VERTEX
  8
0
  5
371
 10
40.6754
 20
13.1066
 30
0.00000
  70
    32
  0
VERTEX
  8
0
  5
372
 10
40.5275
 20
13.1100
 30
0.00000
  70
    32
  0
VERTEX
  8
0
  5
373
 10
40.3796
 20
13.1135
 30
0.00000
  70
    32
  0
VERTEX
  8
0
  5
374
 10
40.2317
 20
13.1170
 30
0.00000
  70
    32
  0
VERTEX
  8
0
  5
375
 10
40.0838
 20
13.1207
 30
0.00000
  70
    32
  0
VERTEX
  8
0
  5
376
 10
39.9359
 20
13.1244
 30
0.00000
  70
    32
  0
VERTEX
  8
0
  5
377
 10
39.7880
 20
13.1282
 30
0.00000
  70
    32
  0
VERTEX
  8
0
  5
378
 10
39.6401
 20
13.1320
 30
0.00000
  70
    32
  0
VERTEX
  8
0
  5
379
 10
39.4923
 20
13.1360
 30
0.00000
  70
    32
  0
VERTEX
  8
0
  5
37A
 10
39.3444
 20
13.1400
 30
0.00000
  70
    32
  0
VERTEX
  8
0
  5
37B
 10
39.1965
 20
13.1441
 30
0.00000
  70
    32
  0
VERTEX
  8
0
  5
37C
 10
39.0486
 20
13.1483
 30
0.00000
  70
    32
  0
VERTEX
  8
0
  5
37D
 10
38.9007
 20
13.1526
 30
0.00000
  70
    32
  0
VERTEX
  8
0
  5
37E
 10
38.7528
 20
13.1569
 30
0.00000
  70
    32
  0
VERTEX
  8
0
  5
37F
 10
38.6050
 20
13.1614
 30
0.00000
  70
    32
  0
VERTEX
  8
0
  5
380
 10
38.4571
 20
13.1659
 30
0.00000
  70
    32
  0
VERTEX
  8
0
  5
381
 10
38.3092
 20
13.1705
 30
0.00000
  70
    32
  0
VERTEX
  8
0
  5
382
 10
38.1613
 20
13.1752
 30
0.00000
  70
    32
  0
VERTEX
  8
0
  5
383
 10
38.0135
 20
13.1799
 30
0.00000
  70
    32
  0
VERTEX
  8
0
  5
384
 10
37.8656
 20
13.1848
 30
0.00000
  70
    32
  0
VERTEX
  8
0
  5
385
 10
37.7177
 20
13.1897
 30
0.00000
  70
    32
  0
VERTEX
  8
0
  5
386
 10
37.5699
 20
13.1947
 30
0.00000
  70
    32
  0
VERTEX
  8
0
  5
387
 10
37.4220
 20
13.1998
 30
0.00000
  70
    32
  0
VERTEX
  8
0
  5
388
 10
37.2742
 20
13.2049
 30
0.00000
  70
    32
  0
VERTEX
  8
0
  5
389
 10
37.1263
 20
13.2102
 30
0.00000
  70
    32
  0
VERTEX
  8
0
  5
38A
 10
36.9785
 20
13.2155
 30
0.00000
  70
    32
  0
VERTEX
  8
0
  5
38B
 10
36.8306
 20
13.2209
 30
0.00000
  70
    32
  0
VERTEX
  8
0
  5
38C
 10
36.6828
 20
13.2264
 30
0.00000
  70
    32
  0
VERTEX
  8
0
  5
38D
 10
36.5349
 20
13.2320
 30
0.00000
  70
    32
  0
VERTEX
  8
0
  5
38E
 10
36.3871
 20
13.2376
 30
0.00000
  70
    32
  0
VERTEX
  8
0
  5
38F
 10
36.2393
 20
13.2434
 30
0.00000
  70
    32
  0
VERTEX
  8
0
  5
390
 10
36.0914
 20
13.2492
 30
0.00000
  70
    32
  0
VERTEX
  8
0
  5
391
 10
35.9436
 20
13.2551
 30
0.00000
  70
    32
  0
VERTEX
  8
0
  5
392
 10
35.7958
 20
13.2611
 30
0.00000
  70
    32
  0
VERTEX
  8
0
  5
393
 10
35.6479
 20
13.2671
 30
0.00000
  70
    32
  0
VERTEX
  8
0
  5
394
 10
35.5001
 20
13.2733
 30
0.00000
  70
    32
  0
VERTEX
  8
0
  5
395
 10
35.3523
 20
13.2795
 30
0.00000
  70
    32
  0
VERTEX
  8
0
  5
396
 10
35.2045
 20
13.2858
 30
0.00000
  70
    32
  0
VERTEX
  8
0
  5
397
 10
35.0567
 20
13.2922
 30
0.00000
  70
    32
  0
VERTEX
  8
0
  5
398
 10
34.9089
 20
13.2987
 30
0.00000
  70
    32
  0
VERTEX
  8
0
  5
399
 10
34.7611
 20
13.3052
 30
0.00000
  70
    32
  0
VERTEX
  8
0
  5
39A
 10
34.6133
 20
13.3119
 30
0.00000
  70
    32
  0
VERTEX
  8
0
  5
39B
 10
34.4655
 20
13.3186
 30
0.00000
  70
    32
  0
VERTEX
  8
0
  5
39C
 10
34.3177
 20
13.3254
 30
0.00000
  70
    32
  0
VERTEX
  8
0
  5
39D
 10
34.1699
 20
13.3322
 30
0.00000
  70
    32
  0
VERTEX
  8
0
  5
39E
 10
34.0221
 20
13.3392
 30
0.00000
  70
    32
  0
VERTEX
  8
0
  5
39F
 10
33.8744
 20
13.3462
 30
0.00000
  70
    32
  0
VERTEX
  8
0
  5
3A0
 10
33.7266
 20
13.3534
 30
0.00000
  70
    32
  0
VERTEX
  8
0
  5
3A1
 10
33.5788
 20
13.3606
 30
0.00000
  70
    32
  0
VERTEX
  8
0
  5
3A2
 10
33.4310
 20
13.3679
 30
0.00000
  70
    32
  0
VERTEX
  8
0
  5
3A3
 10
33.2833
 20
13.3752
 30
0.00000
  70
    32
  0
VERTEX
  8
0
  5
3A4
 10
33.1355
 20
13.3827
 30
0.00000
  70
    32
  0
VERTEX
  8
0
  5
3A5
 10
32.9878
 20
13.3902
 30
0.00000
  70
    32
  0
VERTEX
  8
0
  5
3A6
 10
32.8400
 20
13.3978
 30
0.00000
  70
    32
  0
VERTEX
  8
0
  5
3A7
 10
32.6923
 20
13.4055
 30
0.00000
  70
    32
  0
VERTEX
  8
0
  5
3A8
 10
32.5445
 20
13.4133
 30
0.00000
  70
    32
  0
VERTEX
  8
0
  5
3A9
 10
32.3968
 20
13.4211
 30
0.00000
  70
    32
  0
VERTEX
  8
0
  5
3AA
 10
32.2490
 20
13.4291
 30
0.00000
  70
    32
  0
VERTEX
  8
0
  5
3AB
 10
32.1013
 20
13.4371
 30
0.00000
  70
    32
  0
VERTEX
  8
0
  5
3AC
 10
31.9536
 20
13.4452
 30
0.00000
  70
    32
  0
VERTEX
  8
0
  5
3AD
 10
31.8059
 20
13.4534
 30
0.00000
  70
    32
  0
VERTEX
  8
0
  5
3AE
 10
31.6581
 20
13.4617
 30
0.00000
  70
    32
  0
VERTEX
  8
0
  5
3AF
 10
31.5104
 20
13.4700
 30
0.00000
  70
    32
  0
VERTEX
  8
0
  5
3B0
 10
31.3627
 20
13.4785
 30
0.00000
  70
    32
  0
VERTEX
  8
0
  5
3B1
 10
31.2150
 20
13.4870
 30
0.00000
  70
    32
  0
VERTEX
  8
0
  5
3B2
 10
31.0673
 20
13.4956
 30
0.00000
  70
    32
  0
VERTEX
  8
0
  5
3B3
 10
30.9196
 20
13.5042
 30
0.00000
  70
    32
  0
VERTEX
  8
0
  5
3B4
 10
30.7719
 20
13.5130
 30
0.00000
  70
    32
  0
VERTEX
  8
0
  5
3B5
 10
30.6242
 20
13.5218
 30
0.00000
  70
    32
  0
VERTEX
  8
0
  5
3B6
 10
30.4766
 20
13.5308
 30
0.00000
  70
    32
  0
VERTEX
  8
0
  5
3B7
 10
30.3289
 20
13.5398
 30
0.00000
  70
    32
  0
VERTEX
  8
0
  5
3B8
 10
30.1812
 20
13.5489
 30
0.00000
  70
    32
  0
VERTEX
  8
0
  5
3B9
 10
30.0336
 20
13.5580
 30
0.00000
  70
    32
  0
VERTEX
  8
0
  5
3BA
 10
29.8859
 20
13.5673
 30
0.00000
  70
    32
  0
VERTEX
  8
0
  5
3BB
 10
29.7382
 20
13.5766
 30
0.00000
  70
    32
  0
VERTEX
  8
0
  5
3BC
 10
29.5906
 20
13.5861
 30
0.00000
  70
    32
  0
VERTEX
  8
0
  5
3BD
 10
29.4429
 20
13.5956
 30
0.00000
  70
    32
  0
VERTEX
  8
0
  5
3BE
 10
29.2953
 20
13.6051
 30
0.00000
  70
    32
  0
VERTEX
  8
0
  5
3BF
 10
29.1477
 20
13.6148
 30
0.00000
  70
    32
  0
VERTEX
  8
0
  5
3C0
 10
29.0000
 20
13.6246
 30
0.00000
  70
    32
  0
VERTEX
  8
0
  5
3C1
 10
28.8524
 20
13.6344
 30
0.00000
  70
    32
  0
VERTEX
  8
0
  5
3C2
 10
28.7048
 20
13.6443
 30
0.00000
  70
    32
  0
VERTEX
  8
0
  5
3C3
 10
28.5572
 20
13.6543
 30
0.00000
  70
    32
  0
VERTEX
  8
0
  5
3C4
 10
28.4096
 20
13.6644
 30
0.00000
  70
    32
  0
VERTEX
  8
0
  5
3C5
 10
28.2620
 20
13.6745
 30
0.00000
  70
    32
  0
VERTEX
  8
0
  5
3C6
 10
28.1144
 20
13.6848
 30
0.00000
  70
    32
  0
VERTEX
  8
0
  5
3C7
 10
27.9668
 20
13.6951
 30
0.00000
  70
    32
  0
VERTEX
  8
0
  5
3C8
 10
27.8192
 20
13.7055
 30
0.00000
  70
    32
  0
VERTEX
  8
0
  5
3C9
 10
27.6716
 20
13.7160
 30
0.00000
  70
    32
  0
VERTEX
  8
0
  5
3CA
 10
27.5240
 20
13.7266
 30
0.00000
  70
    32
  0
VERTEX
  8
0
  5
3CB
 10
27.3765
 20
13.7372
 30
0.00000
  70
    32
  0
VERTEX
  8
0
  5
3CC
 10
27.2289
 20
13.7480
 30
0.00000
  70
    32
  0
VERTEX
  8
0
  5
3CD
 10
27.0813
 20
13.7588
 30
0.00000
  70
    32
  0
VERTEX
  8
0
  5
3CE
 10
26.9338
 20
13.7697
 30
0.00000
  70
    32
  0
VERTEX
  8
0
  5
3CF
 10
26.7862
 20
13.7807
 30
0.00000
  70
    32
  0
VERTEX
  8
0
  5
3D0
 10
26.6387
 20
13.7918
 30
0.00000
  70
    32
  0
VERTEX
  8
0
  5
3D1
 10
26.4912
 20
13.8029
 30
0.00000
  70
    32
  0
VERTEX
  8
0
  5
3D2
 10
26.3436
 20
13.8142
 30
0.00000
  70
    32
  0
VERTEX
  8
0
  5
3D3
 10
26.1961
 20
13.8255
 30
0.00000
  70
    32
  0
VERTEX
  8
0
  5
3D4
 10
26.0486
 20
13.8369
 30
0.00000
  70
    32
  0
VERTEX
  8
0
  5
3D5
 10
25.9011
 20
13.8484
 30
0.00000
  70
    32
  0
VERTEX
  8
0
  5
3D6
 10
25.7536
 20
13.8599
 30
0.00000
  70
    32
  0
VERTEX
  8
0
  5
3D7
 10
25.6061
 20
13.8716
 30
0.00000
  70
    32
  0
VERTEX
  8
0
  5
3D8
 10
25.4586
 20
13.8833
 30
0.00000
  70
    32
  0
VERTEX
  8
0
  5
3D9
 10
25.3111
 20
13.8951
 30
0.00000
  70
    32
  0
VERTEX
  8
0
  5
3DA
 10
25.1636
 20
13.9070
 30
0.00000
  70
    32
  0
VERTEX
  8
0
  5
3DB
 10
25.0162
 20
13.9190
 30
0.00000
  70
    32
  0
VERTEX
  8
0
  5
3DC
 10
24.8687
 20
13.9311
 30
0.00000
  70
    32
  0
VERTEX
  8
0
  5
3DD
 10
24.7212
 20
13.9432
 30
0.00000
  70
    32
  0
VERTEX
  8
0
  5
3DE
 10
24.5738
 20
13.9554
 30
0.00000
  70
    32
  0
VERTEX
  8
0
  5
3DF
 10
24.4263
 20
13.9678
 30
0.00000
  70
    32
  0
VERTEX
  8
0
  5
3E0
 10
24.2789
 20
13.9802
 30
0.00000
  70
    32
  0
VERTEX
  8
0
  5
3E1
 10
24.1315
 20
13.9926
 30
0.00000
  70
    32
  0
VERTEX
  8
0
  5
3E2
 10
23.9841
 20
14.0052
 30
0.00000
  70
    32
  0
VERTEX
  8
0
  5
3E3
 10
23.8366
 20
14.0178
 30
0.00000
  70
    32
  0
VERTEX
  8
0
  5
3E4
 10
23.6892
 20
14.0306
 30
0.00000
  70
    32
  0
VERTEX
  8
0
  5
3E5
 10
23.5418
 20
14.0434
 30
0.00000
  70
    32
  0
VERTEX
  8
0
  5
3E6
 10
23.3944
 20
14.0563
 30
0.00000
  70
    32
  0
VERTEX
  8
0
  5
3E7
 10
23.2470
 20
14.0693
 30
0.00000
  70
    32
  0
VERTEX
  8
0
  5
3E8
 10
23.0996
 20
14.0823
 30
0.00000
  70
    32
  0
VERTEX
  8
0
  5
3E9
 10
22.9523
 20
14.0955
 30
0.00000
  70
    32
  0
VERTEX
  8
0
  5
3EA
 10
22.8049
 20
14.1087
 30
0.00000
  70
    32
  0
VERTEX
  8
0
  5
3EB
 10
22.6575
 20
14.1220
 30
0.00000
  70
    32
  0
VERTEX
  8
0
  5
3EC
 10
22.5102
 20
14.1354
 30
0.00000
  70
    32
  0
VERTEX
  8
0
  5
3ED
 10
22.3628
 20
14.1489
 30
0.00000
  70
    32
  0
VERTEX
  8
0
  5
3EE
 10
22.2155
 20
14.1624
 30
0.00000
  70
    32
  0
VERTEX
  8
0
  5
3EF
 10
22.0682
 20
14.1761
 30
0.00000
  70
    32
  0
VERTEX
  8
0
  5
3F0
 10
21.9208
 20
14.1898
 30
0.00000
  70
    32
  0
VERTEX
  8
0
  5
3F1
 10
21.7735
 20
14.2036
 30
0.00000
  70
    32
  0
VERTEX
  8
0
  5
3F2
 10
21.6262
 20
14.2175
 30
0.00000
  70
    32
  0
VERTEX
  8
0
  5
3F3
 10
21.4789
 20
14.2315
 30
0.00000
  70
    32
  0
VERTEX
  8
0
  5
3F4
 10
21.3316
 20
14.2455
 30
0.00000
  70
    32
  0
VERTEX
  8
0
  5
3F5
 10
21.1843
 20
14.2597
 30
0.00000
  70
    32
  0
VERTEX
  8
0
  5
3F6
 10
21.0371
 20
14.2739
 30
0.00000
  70
    32
  0
VERTEX
  8
0
  5
3F7
 10
20.8898
 20
14.2882
 30
0.00000
  70
    32
  0
VERTEX
  8
0
  5
3F8
 10
20.7425
 20
14.3026
 30
0.00000
  70
    32
  0
VERTEX
  8
0
  5
3F9
 10
20.5953
 20
14.3171
 30
0.00000
  70
    32
  0
VERTEX
  8
0
  5
3FA
 10
20.4480
 20
14.3317
 30
0.00000
  70
    32
  0
VERTEX
  8
0
  5
3FB
 10
20.3008
 20
14.3463
 30
0.00000
  70
    32
  0
VERTEX
  8
0
  5
3FC
 10
20.1535
 20
14.3610
 30
0.00000
  70
    32
  0
VERTEX
  8
0
  5
3FD
 10
20.0063
 20
14.3758
 30
0.00000
  70
    32
  0
VERTEX
  8
0
  5
3FE
 10
19.8591
 20
14.3907
 30
0.00000
  70
    32
  0
VERTEX
  8
0
  5
3FF
 10
19.7119
 20
14.4057
 30
0.00000
  70
    32
  0
VERTEX
  8
0
  5
400
 10
19.5647
 20
14.4208
 30
0.00000
  70
    32
  0
VERTEX
  8
0
  5
401
 10
19.4175
 20
14.4359
 30
0.00000
  70
    32
  0
VERTEX
  8
0
  5
402
 10
19.2703
 20
14.4512
 30
0.00000
  70
    32
  0
VERTEX
  8
0
  5
403
 10
19.1232
 20
14.4665
 30
0.00000
  70
    32
  0
VERTEX
  8
0
  5
404
 10
18.9760
 20
14.4819
 30
0.00000
  70
    32
  0
VERTEX
  8
0
  5
405
 10
18.8288
 20
14.4973
 30
0.00000
  70
    32
  0
VERTEX
  8
0
  5
406
 10
18.6817
 20
14.5129
 30
0.00000
  70
    32
  0
VERTEX
  8
0
  5
407
 10
18.5346
 20
14.5285
 30
0.00000
  70
    32
  0
VERTEX
  8
0
  5
408
 10
18.3874
 20
14.5443
 30
0.00000
  70
    32
  0
VERTEX
  8
0
  5
409
 10
18.2403
 20
14.5601
 30
0.00000
  70
    32
  0
VERTEX
  8
0
  5
40A
 10
18.0932
 20
14.5760
 30
0.00000
  70
    32
  0
VERTEX
  8
0
  5
40B
 10
17.9461
 20
14.5920
 30
0.00000
  70
    32
  0
VERTEX
  8
0
  5
40C
 10
17.7990
 20
14.6080
 30
0.00000
  70
    32
  0
VERTEX
  8
0
  5
40D
 10
17.6519
 20
14.6242
 30
0.00000
  70
    32
  0
VERTEX
  8
0
  5
40E
 10
17.5049
 20
14.6404
 30
0.00000
  70
    32
  0
VERTEX
  8
0
  5
40F
 10
17.3812
 20
14.6941
 30
0.00000
  70
    32
  0
VERTEX
  8
0
  5
410
 10
17.8650
 20
15.7184
 30
0.00000
  70
    32
  0
VERTEX
  8
0
  5
411
 10
18.3487
 20
16.7426
 30
0.00000
  70
    32
  0
VERTEX
  8
0
  5
412
 10
18.8325
 20
17.7669
 30
0.00000
  70
    32
  0
VERTEX
  8
0
  5
413
 10
19.3162
 20
18.7911
 30
0.00000
  70
    32
  0
VERTEX
  8
0
  5
414
 10
19.8000
 20
19.8154
 30
0.00000
  70
    32
  0
VERTEX
  8
0
  5
415
 10
20.2838
 20
20.8397
 30
0.00000
  70
    32
  0
VERTEX
  8
0
  5
416
 10
20.6503
 20
21.6176
 30
0.00000
  70
    32
  0
VERTEX
  8
0
  5
417
 10
20.6977
 20
21.7577
 30
0.00000
  70
    32
  0
VERTEX
  8
0
  5
418
 10
20.8195
 20
22.4075
 30
0.00000
  70
    32
  0
VERTEX
  8
0
  5
419
 10
21.0240
 20
23.5217
 30
0.00000
  70
    32
  0
VERTEX
  8
0
  5
41A
 10
21.2285
 20
24.6358
 30
0.00000
  70
    32
  0
VERTEX
  8
0
  5
41B
 10
21.4330
 20
25.7500
 30
0.00000
  70
    32
  0
VERTEX
  8
0
  5
41C
 10
21.6375
 20
26.8641
 30
0.00000
  70
    32
  0
VERTEX
  8
0
  5
41D
 10
21.8420
 20
27.9782
 30
0.00000
  70
    32
  0
VERTEX
  8
0
  5
41E
 10
22.0466
 20
29.0924
 30
0.00000
  70
    32
  0
VERTEX
  8
0
  5
41F
 10
22.2007
 20
29.3184
 30
0.00000
  70
    32
  0
VERTEX
  8
0
  5
420
 10
22.3391
 20
29.2659
 30
0.00000
  70
    32
  0
VERTEX
  8
0
  5
421
 10
22.4775
 20
29.2136
 30
0.00000
  70
    32
  0
VERTEX
  8
0
  5
422
 10
22.6161
 20
29.1614
 30
0.00000
  70
    32
  0
VERTEX
  8
0
  5
423
 10
22.7546
 20
29.1093
 30
0.00000
  70
    32
  0
VERTEX
  8
0
  5
424
 10
22.8932
 20
29.0574
 30
0.00000
  70
    32
  0
VERTEX
  8
0
  5
425
 10
23.0319
 20
29.0056
 30
0.00000
  70
    32
  0
VERTEX
  8
0
  5
426
 10
23.1706
 20
28.9540
 30
0.00000
  70
    32
  0
VERTEX
  8
0
  5
427
 10
23.3094
 20
28.9025
 30
0.00000
  70
    32
  0
VERTEX
  8
0
  5
428
 10
23.4482
 20
28.8512
 30
0.00000
  70
    32
  0
VERTEX
  8
0
  5
429
 10
23.5871
 20
28.7999
 30
0.00000
  70
    32
  0
VERTEX
  8
0
  5
42A
 10
23.7261
 20
28.7489
 30
0.00000
  70
    32
  0
VERTEX
  8
0
  5
42B
 10
23.8650
 20
28.6980
 30
0.00000
  70
    32
  0
VERTEX
  8
0
  5
42C
 10
24.0041
 20
28.6472
 30
0.00000
  70
    32
  0
VERTEX
  8
0
  5
42D
 10
24.1432
 20
28.5965
 30
0.00000
  70
    32
  0
VERTEX
  8
0
  5
42E
 10
24.2823
 20
28.5461
 30
0.00000
  70
    32
  0
VERTEX
  8
0
  5
42F
 10
24.4215
 20
28.4957
 30
0.00000
  70
    32
  0
VERTEX
  8
0
  5
430
 10
24.5608
 20
28.4455
 30
0.00000
  70
    32
  0
VERTEX
  8
0
  5
431
 10
24.7001
 20
28.3954
 30
0.00000
  70
    32
  0
VERTEX
  8
0
  5
432
 10
24.8395
 20
28.3455
 30
0.00000
  70
    32
  0
VERTEX
  8
0
  5
433
 10
24.9789
 20
28.2957
 30
0.00000
  70
    32
  0
VERTEX
  8
0
  5
434
 10
25.1183
 20
28.2461
 30
0.00000
  70
    32
  0
VERTEX
  8
0
  5
435
 10
25.2579
 20
28.1966
 30
0.00000
  70
    32
  0
VERTEX
  8
0
  5
436
 10
25.3974
 20
28.1472
 30
0.00000
  70
    32
  0
VERTEX
  8
0
  5
437
 10
25.5370
 20
28.0980
 30
0.00000
  70
    32
  0
VERTEX
  8
0
  5
438
 10
25.6767
 20
28.0489
 30
0.00000
  70
    32
  0
VERTEX
  8
0
  5
439
 10
25.8164
 20
28.0000
 30
0.00000
  70
    32
  0
VERTEX
  8
0
  5
43A
 10
25.9562
 20
27.9512
 30
0.00000
  70
    32
  0
VERTEX
  8
0
  5
43B
 10
26.0960
 20
27.9025
 30
0.00000
  70
    32
  0
VERTEX
  8
0
  5
43C
 10
26.2359
 20
27.8540
 30
0.00000
  70
    32
  0
VERTEX
  8
0
  5
43D
 10
26.3758
 20
27.8057
 30
0.00000
  70
    32
  0
VERTEX
  8
0
  5
43E
 10
26.5157
 20
27.7575
 30
0.00000
  70
    32
  0
VERTEX
  8
0
  5
43F
 10
26.6558
 20
27.7094
 30
0.00000
  70
    32
  0
VERTEX
  8
0
  5
440
 10
26.7958
 20
27.6614
 30
0.00000
  70
    32
  0
VERTEX
  8
0
  5
441
 10
26.9359
 20
27.6136
 30
0.00000
  70
    32
  0
VERTEX
  8
0
  5
442
 10
27.0761
 20
27.5660
 30
0.00000
  70
    32
  0
VERTEX
  8
0
  5
443
 10
27.2163
 20
27.5185
 30
0.00000
  70
    32
  0
VERTEX
  8
0
  5
444
 10
27.3565
 20
27.4711
 30
0.00000
  70
    32
  0
VERTEX
  8
0
  5
445
 10
27.4969
 20
27.4238
 30
0.00000
  70
    32
  0
VERTEX
  8
0
  5
446
 10
27.6372
 20
27.3768
 30
0.00000
  70
    32
  0
VERTEX
  8
0
  5
447
 10
27.7776
 20
27.3298
 30
0.00000
  70
    32
  0
VERTEX
  8
0
  5
448
 10
27.9181
 20
27.2830
 30
0.00000
  70
    32
  0
VERTEX
  8
0
  5
449
 10
28.0585
 20
27.2363
 30
0.00000
  70
    32
  0
VERTEX
  8
0
  5
44A
 10
28.1991
 20
27.1898
 30
0.00000
  70
    32
  0
VERTEX
  8
0
  5
44B
 10
28.3397
 20
27.1434
 30
0.00000
  70
    32
  0
VERTEX
  8
0
  5
44C
 10
28.4803
 20
27.0972
 30
0.00000
  70
    32
  0
VERTEX
  8
0
  5
44D
 10
28.6210
 20
27.0510
 30
0.00000
  70
    32
  0
VERTEX
  8
0
  5
44E
 10
28.7617
 20
27.0051
 30
0.00000
  70
    32
  0
VERTEX
  8
0
  5
44F
 10
28.9025
 20
26.9593
 30
0.00000
  70
    32
  0
VERTEX
  8
0
  5
450
 10
29.0433
 20
26.9136
 30
0.00000
  70
    32
  0
VERTEX
  8
0
  5
451
 10
29.1842
 20
26.8680
 30
0.00000
  70
    32
  0
VERTEX
  8
0
  5
452
 10
29.3251
 20
26.8226
 30
0.00000
  70
    32
  0
VERTEX
  8
0
  5
453
 10
29.4660
 20
26.7774
 30
0.00000
  70
    32
  0
VERTEX
  8
0
  5
454
 10
29.6070
 20
26.7322
 30
0.00000
  70
    32
  0
VERTEX
  8
0
  5
455
 10
29.7481
 20
26.6873
 30
0.00000
  70
    32
  0
VERTEX
  8
0
  5
456
 10
29.8892
 20
26.6424
 30
0.00000
  70
    32
  0
VERTEX
  8
0
  5
457
 10
30.0303
 20
26.5977
 30
0.00000
  70
    32
  0
VERTEX
  8
0
  5
458
 10
30.1715
 20
26.5532
 30
0.00000
  70
    32
  0
VERTEX
  8
0
  5
459
 10
30.3127
 20
26.5087
 30
0.00000
  70
    32
  0
VERTEX
  8
0
  5
45A
 10
30.4540
 20
26.4645
 30
0.00000
  70
    32
  0
VERTEX
  8
0
  5
45B
 10
30.5953
 20
26.4203
 30
0.00000
  70
    32
  0
VERTEX
  8
0
  5
45C
 10
30.7366
 20
26.3763
 30
0.00000
  70
    32
  0
VERTEX
  8
0
  5
45D
 10
30.8780
 20
26.3325
 30
0.00000
  70
    32
  0
VERTEX
  8
0
  5
45E
 10
31.0194
 20
26.2887
 30
0.00000
  70
    32
  0
VERTEX
  8
0
  5
45F
 10
31.1609
 20
26.2452
 30
0.00000
  70
    32
  0
VERTEX
  8
0
  5
460
 10
31.3024
 20
26.2017
 30
0.00000
  70
    32
  0
VERTEX
  8
0
  5
461
 10
31.4440
 20
26.1584
 30
0.00000
  70
    32
  0
VERTEX
  8
0
  5
462
 10
31.5856
 20
26.1153
 30
0.00000
  70
    32
  0
VERTEX
  8
0
  5
463
 10
31.7273
 20
26.0722
 30
0.00000
  70
    32
  0
VERTEX
  8
0
  5
464
 10
31.8689
 20
26.0294
 30
0.00000
  70
    32
  0
VERTEX
  8
0
  5
465
 10
32.0107
 20
25.9866
 30
0.00000
  70
    32
  0
VERTEX
  8
0
  5
466
 10
32.1524
 20
25.9440
 30
0.00000
  70
    32
  0
VERTEX
  8
0
  5
467
 10
32.2943
 20
25.9016
 30
0.00000
  70
    32
  0
VERTEX
  8
0
  5
468
 10
32.4361
 20
25.8592
 30
0.00000
  70
    32
  0
VERTEX
  8
0
  5
469
 10
32.5780
 20
25.8171
 30
0.00000
  70
    32
  0
VERTEX
  8
0
  5
46A
 10
32.7199
 20
25.7750
 30
0.00000
  70
    32
  0
VERTEX
  8
0
  5
46B
 10
32.8619
 20
25.7331
 30
0.00000
  70
    32
  0
VERTEX
  8
0
  5
46C
 10
33.0039
 20
25.6913
 30
0.00000
  70
    32
  0
VERTEX
  8
0
  5
46D
 10
33.1460
 20
25.6497
 30
0.00000
  70
    32
  0
VERTEX
  8
0
  5
46E
 10
33.2881
 20
25.6082
 30
0.00000
  70
    32
  0
VERTEX
  8
0
  5
46F
 10
33.4302
 20
25.5669
 30
0.00000
  70
    32
  0
VERTEX
  8
0
  5
470
 10
33.5724
 20
25.5257
 30
0.00000
  70
    32
  0
VERTEX
  8
0
  5
471
 10
33.7146
 20
25.4846
 30
0.00000
  70
    32
  0
VERTEX
  8
0
  5
472
 10
33.8569
 20
25.4437
 30
0.00000
  70
    32
  0
VERTEX
  8
0
  5
473
 10
33.9991
 20
25.4029
 30
0.00000
  70
    32
  0
VERTEX
  8
0
  5
474
 10
34.1415
 20
25.3622
 30
0.00000
  70
    32
  0
VERTEX
  8
0
  5
475
 10
34.2838
 20
25.3217
 30
0.00000
  70
    32
  0
VERTEX
  8
0
  5
476
 10
34.4263
 20
25.2813
 30
0.00000
  70
    32
  0
VERTEX
  8
0
  5
477
 10
34.5687
 20
25.2411
 30
0.00000
  70
    32
  0
VERTEX
  8
0
  5
478
 10
34.7112
 20
25.2010
 30
0.00000
  70
    32
  0
VERTEX
  8
0
  5
479
 10
34.8537
 20
25.1610
 30
0.00000
  70
    32
  0
VERTEX
  8
0
  5
47A
 10
34.9963
 20
25.1212
 30
0.00000
  70
    32
  0
VERTEX
  8
0
  5
47B
 10
35.1389
 20
25.0815
 30
0.00000
  70
    32
  0
VERTEX
  8
0
  5
47C
 10
35.2815
 20
25.0420
 30
0.00000
  70
    32
  0
VERTEX
  8
0
  5
47D
 10
35.4242
 20
25.0026
 30
0.00000
  70
    32
  0
VERTEX
  8
0
  5
47E
 10
35.5669
 20
24.9633
 30
0.00000
  70
    32
  0
VERTEX
  8
0
  5
47F
 10
35.7096
 20
24.9242
 30
0.00000
  70
    32
  0
VERTEX
  8
0
  5
480
 10
35.8524
 20
24.8852
 30
0.00000
  70
    32
  0
VERTEX
  8
0
  5
481
 10
35.9952
 20
24.8463
 30
0.00000
  70
    32
  0
VERTEX
  8
0
  5
482
 10
36.1381
 20
24.8076
 30
0.00000
  70
    32
  0
VERTEX
  8
0
  5
483
 10
36.2810
 20
24.7690
 30
0.00000
  70
    32
  0
VERTEX
  8
0
  5
484
 10
36.4239
 20
24.7306
 30
0.00000
  70
    32
  0
VERTEX
  8
0
  5
485
 10
36.5669
 20
24.6923
 30
0.00000
  70
    32
  0
VERTEX
  8
0
  5
486
 10
36.7099
 20
24.6541
 30
0.00000
  70
    32
  0
VERTEX
  8
0
  5
487
 10
36.8530
 20
24.6161
 30
0.00000
  70
    32
  0
VERTEX
  8
0
  5
488
 10
36.9960
 20
24.5782
 30
0.00000
  70
    32
  0
VERTEX
  8
0
  5
489
 10
37.1391
 20
24.5404
 30
0.00000
  70
    32
  0
VERTEX
  8
0
  5
48A
 10
37.2823
 20
24.5028
 30
0.00000
  70
    32
  0
VERTEX
  8
0
  5
48B
 10
37.4255
 20
24.4653
 30
0.00000
  70
    32
  0
VERTEX
  8
0
  5
48C
 10
37.5687
 20
24.4280
 30
0.00000
  70
    32
  0
VERTEX
  8
0
  5
48D
 10
37.7120
 20
24.3907
 30
0.00000
  70
    32
  0
VERTEX
  8
0
  5
48E
 10
37.8553
 20
24.3537
 30
0.00000
  70
    32
  0
VERTEX
  8
0
  5
48F
 10
37.9986
 20
24.3167
 30
0.00000
  70
    32
  0
VERTEX
  8
0
  5
490
 10
38.1419
 20
24.2799
 30
0.00000
  70
    32
  0
VERTEX
  8
0
  5
491
 10
38.2853
 20
24.2433
 30
0.00000
  70
    32
  0
VERTEX
  8
0
  5
492
 10
38.4288
 20
24.2067
 30
0.00000
  70
    32
  0
VERTEX
  8
0
  5
493
 10
38.5722
 20
24.1703
 30
0.00000
  70
    32
  0
VERTEX
  8
0
  5
494
 10
38.7157
 20
24.1341
 30
0.00000
  70
    32
  0
VERTEX
  8
0
  5
495
 10
38.8593
 20
24.0980
 30
0.00000
  70
    32
  0
VERTEX
  8
0
  5
496
 10
39.0028
 20
24.0620
 30
0.00000
  70
    32
  0
VERTEX
  8
0
  5
497
 10
39.1465
 20
24.0261
 30
0.00000
  70
    32
  0
VERTEX
  8
0
  5
498
 10
39.2901
 20
23.9904
 30
0.00000
  70
    32
  0
VERTEX
  8
0
  5
499
 10
39.4338
 20
23.9548
 30
0.00000
  70
    32
  0
VERTEX
  8
0
  5
49A
 10
39.5775
 20
23.9194
 30
0.00000
  70
    32
  0
VERTEX
  8
0
  5
49B
 10
39.7212
 20
23.8841
 30
0.00000
  70
    32
  0
VERTEX
  8
0
  5
49C
 10
39.8650
 20
23.8489
 30
0.00000
  70
    32
  0
VERTEX
  8
0
  5
49D
 10
40.0088
 20
23.8139
 30
0.00000
  70
    32
  0
VERTEX
  8
0
  5
49E
 10
40.1526
 20
23.7790
 30
0.00000
  70
    32
  0
VERTEX
  8
0
  5
49F
 10
40.2965
 20
23.7442
 30
0.00000
  70
    32
  0
VERTEX
  8
0
  5
4A0
 10
40.4404
 20
23.7096
 30
0.00000
  70
    32
  0
VERTEX
  8
0
  5
4A1
 10
40.5843
 20
23.6751
 30
0.00000
  70
    32
  0
VERTEX
  8
0
  5
4A2
 10
40.7283
 20
23.6407
 30
0.00000
  70
    32
  0
VERTEX
  8
0
  5
4A3
 10
40.8723
 20
23.6065
 30
0.00000
  70
    32
  0
VERTEX
  8
0
  5
4A4
 10
41.0163
 20
23.5724
 30
0.00000
  70
    32
  0
VERTEX
  8
0
  5
4A5
 10
41.1604
 20
23.5384
 30
0.00000
  70
    32
  0
VERTEX
  8
0
  5
4A6
 10
41.3045
 20
23.5046
 30
0.00000
  70
    32
  0
VERTEX
  8
0
  5
4A7
 10
41.4486
 20
23.4709
 30
0.00000
  70
    32
  0
VERTEX
  8
0
  5
4A8
 10
41.5928
 20
23.4374
 30
0.00000
  70
    32
  0
VERTEX
  8
0
  5
4A9
 10
41.7370
 20
23.4039
 30
0.00000
  70
    32
  0
VERTEX
  8
0
  5
4AA
 10
41.8812
 20
23.3707
 30
0.00000
  70
    32
  0
VERTEX
  8
0
  5
4AB
 10
42.0254
 20
23.3375
 30
0.00000
  70
    32
  0
VERTEX
  8
0
  5
4AC
 10
42.1697
 20
23.3045
 30
0.00000
  70
    32
  0
VERTEX
  8
0
  5
4AD
 10
42.3140
 20
23.2716
 30
0.00000
  70
    32
  0
VERTEX
  8
0
  5
4AE
 10
42.4584
 20
23.2389
 30
0.00000
  70
    32
  0
VERTEX
  8
0
  5
4AF
 10
42.6028
 20
23.2062
 30
0.00000
  70
    32
  0
VERTEX
  8
0
  5
4B0
 10
42.7472
 20
23.1738
 30
0.00000
  70
    32
  0
VERTEX
  8
0
  5
4B1
 10
42.8916
 20
23.1414
 30
0.00000
  70
    32
  0
VERTEX
  8
0
  5
4B2
 10
43.0361
 20
23.1092
 30
0.00000
  70
    32
  0
VERTEX
  8
0
  5
4B3
 10
43.1806
 20
23.0771
 30
0.00000
  70
    32
  0
VERTEX
  8
0
  5
4B4
 10
43.3251
 20
23.0452
 30
0.00000
  70
    32
  0
VERTEX
  8
0
  5
4B5
 10
43.4697
 20
23.0133
 30
0.00000
  70
    32
  0
VERTEX
  8
0
  5
4B6
 10
43.6143
 20
22.9817
 30
0.00000
  70
    32
  0
VERTEX
  8
0
  5
4B7
 10
43.7589
 20
22.9501
 30
0.00000
  70
    32
  0
VERTEX
  8
0
  5
4B8
 10
43.9035
 20
22.9187
 30
0.00000
  70
    32
  0
VERTEX
  8
0
  5
4B9
 10
44.0482
 20
22.8874
 30
0.00000
  70
    32
  0
VERTEX
  8
0
  5
4BA
 10
44.1929
 20
22.8563
 30
0.00000
  70
    32
  0
VERTEX
  8
0
  5
4BB
 10
44.3376
 20
22.8253
 30
0.00000
  70
    32
  0
VERTEX
  8
0
  5
4BC
 10
44.4824
 20
22.7944
 30
0.00000
  70
    32
  0
VERTEX
  8
0
  5
4BD
 10
44.6272
 20
22.7636
 30
0.00000
  70
    32
  0
VERTEX
  8
0
  5
4BE
 10
44.7720
 20
22.7330
 30
0.00000
  70
    32
  0
VERTEX
  8
0
  5
4BF
 10
44.9169
 20
22.7025
 30
0.00000
  70
    32
  0
VERTEX
  8
0
  5
4C0
 10
45.0617
 20
22.6722
 30
0.00000
  70
    32
  0
VERTEX
  8
0
  5
4C1
 10
45.2066
 20
22.6419
 30
0.00000
  70
    32
  0
VERTEX
  8
0
  5
4C2
 10
45.3516
 20
22.6119
 30
0.00000
  70
    32
  0
VERTEX
  8
0
  5
4C3
 10
45.4965
 20
22.5819
 30
0.00000
  70
    32
  0
VERTEX
  8
0
  5
4C4
 10
45.6415
 20
22.5521
 30
0.00000
  70
    32
  0
VERTEX
  8
0
  5
4C5
 10
45.7865
 20
22.5224
 30
0.00000
  70
    32
  0
VERTEX
  8
0
  5
4C6
 10
45.9316
 20
22.4928
 30
0.00000
  70
    32
  0
VERTEX
  8
0
  5
4C7
 10
46.0767
 20
22.4634
 30
0.00000
  70
    32
  0
VERTEX
  8
0
  5
4C8
 10
46.2218
 20
22.4341
 30
0.00000
  70
    32
  0
VERTEX
  8
0
  5
4C9
 10
46.3669
 20
22.4049
 30
0.00000
  70
    32
  0
VERTEX
  8
0
  5
4CA
 10
46.5120
 20
22.3759
 30
0.00000
  70
    32
  0
VERTEX
  8
0
  5
4CB
 10
46.6572
 20
22.3470
 30
0.00000
  70
    32
  0
VERTEX
  8
0
  5
4CC
 10
46.8024
 20
22.3182
 30
0.00000
  70
    32
  0
VERTEX
  8
0
  5
4CD
 10
46.9476
 20
22.2896
 30
0.00000
  70
    32
  0
VERTEX
  8
0
  5
4CE
 10
47.0929
 20
22.2611
 30
0.00000
  70
    32
  0
VERTEX
  8
0
  5
4CF
 10
47.2382
 20
22.2327
 30
0.00000
  70
    32
  0
VERTEX
  8
0
  5
4D0
 10
47.3835
 20
22.2045
 30
0.00000
  70
    32
  0
VERTEX
  8
0
  5
4D1
 10
47.5288
 20
22.1763
 30
0.00000
  70
    32
  0
VERTEX
  8
0
  5
4D2
 10
47.6742
 20
22.1484
 30
0.00000
  70
    32
  0
VERTEX
  8
0
  5
4D3
 10
47.8196
 20
22.1205
 30
0.00000
  70
    32
  0
VERTEX
  8
0
  5
4D4
 10
47.9650
 20
22.0928
 30
0.00000
  70
    32
  0
VERTEX
  8
0
  5
4D5
 10
48.1104
 20
22.0652
 30
0.00000
  70
    32
  0
VERTEX
  8
0
  5
4D6
 10
48.2559
 20
22.0377
 30
0.00000
  70
    32
  0
VERTEX
  8
0
  5
4D7
 10
48.4014
 20
22.0104
 30
0.00000
  70
    32
  0
VERTEX
  8
0
  5
4D8
 10
48.5469
 20
21.9832
 30
0.00000
  70
    32
  0
VERTEX
  8
0
  5
4D9
 10
48.6924
 20
21.9561
 30
0.00000
  70
    32
  0
VERTEX
  8
0
  5
4DA
 10
48.8380
 20
21.9292
 30
0.00000
  70
    32
  0
VERTEX
  8
0
  5
4DB
 10
48.9836
 20
21.9024
 30
0.00000
  70
    32
  0
VERTEX
  8
0
  5
4DC
 10
49.1292
 20
21.8757
 30
0.00000
  70
    32
  0
VERTEX
  8
0
  5
4DD
 10
49.2748
 20
21.8492
 30
0.00000
  70
    32
  0
VERTEX
  8
0
  5
4DE
 10
49.4205
 20
21.8227
 30
0.00000
  70
    32
  0
VERTEX
  8
0
  5
4DF
 10
49.5662
 20
21.7964
 30
0.00000
  70
    32
  0
VERTEX
  8
0
  5
4E0
 10
49.7119
 20
21.7703
 30
0.00000
  70
    32
  0
VERTEX
  8
0
  5
4E1
 10
49.8576
 20
21.7443
 30
0.00000
  70
    32
  0
VERTEX
  8
0
  5
4E2
 10
50.0034
 20
21.7184
 30
0.00000
  70
    32
  0
VERTEX
  8
0
  5
4E3
 10
50.1491
 20
21.6926
 30
0.00000
  70
    32
  0
VERTEX
  8
0
  5
4E4
 10
50.2949
 20
21.6670
 30
0.00000
  70
    32
  0
VERTEX
  8
0
  5
4E5
 10
50.4408
 20
21.6414
 30
0.00000
  70
    32
  0
VERTEX
  8
0
  5
4E6
 10
50.5866
 20
21.6161
 30
0.00000
  70
    32
  0
VERTEX
  8
0
  5
4E7
 10
50.7325
 20
21.5908
 30
0.00000
  70
    32
  0
VERTEX
  8
0
  5
4E8
 10
50.8784
 20
21.5657
 30
0.00000
  70
    32
  0
VERTEX
  8
0
  5
4E9
 10
51.0243
 20
21.5407
 30
0.00000
  70
    32
  0
VERTEX
  8
0
  5
4EA
 10
51.1702
 20
21.5158
 30
0.00000
  70
    32
  0
VERTEX
  8
0
  5
4EB
 10
51.3162
 20
21.4911
 30
0.00000
  70
    32
  0
VERTEX
  8
0
  5
4EC
 10
51.4622
 20
21.4665
 30
0.00000
  70
    32
  0
VERTEX
  8
0
  5
4ED
 10
51.6082
 20
21.4420
 30
0.00000
  70
    32
  0
VERTEX
  8
0
  5
4EE
 10
51.7542
 20
21.4176
 30
0.00000
  70
    32
  0
VERTEX
  8
0
  5
4EF
 10
51.9002
 20
21.3934
 30
0.00000
  70
    32
  0
VERTEX
  8
0
  5
4F0
 10
52.0463
 20
21.3693
 30
0.00000
  70
    32
  0
VERTEX
  8
0
  5
4F1
 10
52.1924
 20
21.3454
 30
0.00000
  70
    32
  0
VERTEX
  8
0
  5
4F2
 10
52.3385
 20
21.3215
 30
0.00000
  70
    32
  0
VERTEX
  8
0
  5
4F3
 10
52.4846
 20
21.2978
 30
0.00000
  70
    32
  0
VERTEX
  8
0
  5
4F4
 10
52.6308
 20
21.2742
 30
0.00000
  70
    32
  0
VERTEX
  8
0
  5
4F5
 10
52.7770
 20
21.2508
 30
0.00000
  70
    32
  0
VERTEX
  8
0
  5
4F6
 10
52.9232
 20
21.2275
 30
0.00000
  70
    32
  0
VERTEX
  8
0
  5
4F7
 10
53.0694
 20
21.2043
 30
0.00000
  70
    32
  0
VERTEX
  8
0
  5
4F8
 10
53.2156
 20
21.1812
 30
0.00000
  70
    32
  0
VERTEX
  8
0
  5
4F9
 10
53.3619
 20
21.1583
 30
0.00000
  70
    32
  0
VERTEX
  8
0
  5
4FA
 10
53.5082
 20
21.1355
 30
0.00000
  70
    32
  0
VERTEX
  8
0
  5
4FB
 10
53.6544
 20
21.1128
 30
0.00000
  70
    32
  0
VERTEX
  8
0
  5
4FC
 10
53.8008
 20
21.0903
 30
0.00000
  70
    32
  0
VERTEX
  8
0
  5
4FD
 10
53.9471
 20
21.0679
 30
0.00000
  70
    32
  0
VERTEX
  8
0
  5
4FE
 10
54.0935
 20
21.0456
 30
0.00000
  70
    32
  0
VERTEX
  8
0
  5
4FF
 10
54.2398
 20
21.0234
 30
0.00000
  70
    32
  0
VERTEX
  8
0
  5
500
 10
54.3862
 20
21.0014
 30
0.00000
  70
    32
  0
VERTEX
  8
0
  5
501
 10
54.5326
 20
20.9795
 30
0.00000
  70
    32
  0
VERTEX
  8
0
  5
502
 10
54.6791
 20
20.9578
 30
0.00000
  70
    32
  0
VERTEX
  8
0
  5
503
 10
54.8255
 20
20.9361
 30
0.00000
  70
    32
  0
VERTEX
  8
0
  5
504
 10
54.9720
 20
20.9147
 30
0.00000
  70
    32
  0
VERTEX
  8
0
  5
505
 10
55.1185
 20
20.8933
 30
0.00000
  70
    32
  0
VERTEX
  8
0
  5
506
 10
55.2650
 20
20.8721
 30
0.00000
  70
    32
  0
VERTEX
  8
0
  5
507
 10
55.4115
 20
20.8510
 30
0.00000
  70
    32
  0
VERTEX
  8
0
  5
508
 10
55.5581
 20
20.8300
 30
0.00000
  70
    32
  0
VERTEX
  8
0
  5
509
 10
55.7046
 20
20.8092
 30
0.00000
  70
    32
  0
VERTEX
  8
0
  5
50A
 10
55.8512
 20
20.7885
 30
0.00000
  70
    32
  0
VERTEX
  8
0
  5
50B
 10
55.9978
 20
20.7680
 30
0.00000
  70
    32
  0
VERTEX
  8
0
  5
50C
 10
56.1444
 20
20.7475
 30
0.00000
  70
    32
  0
VERTEX
  8
0
  5
50D
 10
56.2911
 20
20.7273
 30
0.00000
  70
    32
  0
VERTEX
  8
0
  5
50E
 10
56.4377
 20
20.7071
 30
0.00000
  70
    32
  0
VERTEX
  8
0
  5
50F
 10
56.5844
 20
20.6871
 30
0.00000
  70
    32
  0
VERTEX
  8
0
  5
510
 10
56.7311
 20
20.6672
 30
0.00000
  70
    32
  0
VERTEX
  8
0
  5
511
 10
56.8778
 20
20.6475
 30
0.00000
  70
    32
  0
VERTEX
  8
0
  5
512
 10
57.0245
 20
20.6279
 30
0.00000
  70
    32
  0
VERTEX
  8
0
  5
513
 10
57.1713
 20
20.6084
 30
0.00000
  70
    32
  0
VERTEX
  8
0
  5
514
 10
57.3180
 20
20.5890
 30
0.00000
  70
    32
  0
VERTEX
  8
0
  5
515
 10
57.4648
 20
20.5698
 30
0.00000
  70
    32
  0
VERTEX
  8
0
  5
516
 10
57.6116
 20
20.5508
 30
0.00000
  70
    32
  0
VERTEX
  8
0
  5
517
 10
57.7584
 20
20.5319
 30
0.00000
  70
    32
  0
VERTEX
  8
0
  5
518
 10
57.9052
 20
20.5131
 30
0.00000
  70
    32
  0
VERTEX
  8
0
  5
519
 10
58.0521
 20
20.4944
 30
0.00000
  70
    32
  0
VERTEX
  8
0
  5
51A
 10
58.1989
 20
20.4759
 30
0.00000
  70
    32
  0
VERTEX
  8
0
  5
51B
 10
58.3458
 20
20.4575
 30
0.00000
  70
    32
  0
VERTEX
  8
0
  5
51C
 10
58.4927
 20
20.4393
 30
0.00000
  70
    32
  0
VERTEX
  8
0
  5
51D
 10
58.6396
 20
20.4212
 30
0.00000
  70
    32
  0
VERTEX
  8
0
  5
51E
 10
58.7865
 20
20.4032
 30
0.00000
  70
    32
  0
VERTEX
  8
0
  5
51F
 10
58.9335
 20
20.3854
 30
0.00000
  70
    32
  0
VERTEX
  8
0
  5
520
 10
59.0804
 20
20.3677
 30
0.00000
  70
    32
  0
VERTEX
  8
0
  5
521
 10
59.2274
 20
20.3502
 30
0.00000
  70
    32
  0
VERTEX
  8
0
  5
522
 10
59.3744
 20
20.3328
 30
0.00000
  70
    32
  0
VERTEX
  8
0
  5
523
 10
59.5214
 20
20.3155
 30
0.00000
  70
    32
  0
VERTEX
  8
0
  5
524
 10
59.6684
 20
20.2984
 30
0.00000
  70
    32
  0
VERTEX
  8
0
  5
525
 10
59.8154
 20
20.2814
 30
0.00000
  70
    32
  0
VERTEX
  8
0
  5
526
 10
59.9624
 20
20.2646
 30
0.00000
  70
    32
  0
VERTEX
  8
0
  5
527
 10
60.1095
 20
20.2479
 30
0.00000
  70
    32
  0
VERTEX
  8
0
  5
528
 10
60.2566
 20
20.2313
 30
0.00000
  70
    32
  0
VERTEX
  8
0
  5
529
 10
60.4037
 20
20.2149
 30
0.00000
  70
    32
  0
VERTEX
  8
0
  5
52A
 10
60.5508
 20
20.1986
 30
0.00000
  70
    32
  0
VERTEX
  8
0
  5
52B
 10
60.6979
 20
20.1825
 30
0.00000
  70
    32
  0
VERTEX
  8
0
  5
52C
 10
60.8450
 20
20.1665
 30
0.00000
  70
    32
  0
VERTEX
  8
0
  5
52D
 10
60.9921
 20
20.1507
 30
0.00000
  70
    32
  0
VERTEX
  8
0
  5
52E
 10
61.1393
 20
20.1350
 30
0.00000
  70
    32
  0
VERTEX
  8
0
  5
52F
 10
61.2865
 20
20.1194
 30
0.00000
  70
    32
  0
VERTEX
  8
0
  5
530
 10
61.4337
 20
20.1040
 30
0.00000
  70
    32
  0
VERTEX
  8
0
  5
531
 10
61.5808
 20
20.0887
 30
0.00000
  70
    32
  0
VERTEX
  8
0
  5
532
 10
61.7281
 20
20.0736
 30
0.00000
  70
    32
  0
VERTEX
  8
0
  5
533
 10
61.8753
 20
20.0586
 30
0.00000
  70
    32
  0
VERTEX
  8
0
  5
534
 10
62.0225
 20
20.0438
 30
0.00000
  70
    32
  0
VERTEX
  8
0
  5
535
 10
62.1698
 20
20.0291
 30
0.00000
  70
    32
  0
VERTEX
  8
0
  5
536
 10
62.3170
 20
20.0145
 30
0.00000
  70
    32
  0
VERTEX
  8
0
  5
537
 10
62.4643
 20
20.0001
 30
0.00000
  70
    32
  0
VERTEX
  8
0
  5
538
 10
62.6116
 20
19.9858
 30
0.00000
  70
    32
  0
VERTEX
  8
0
  5
539
 10
62.7589
 20
19.9717
 30
0.00000
  70
    32
  0
VERTEX
  8
0
  5
53A
 10
62.9062
 20
19.9577
 30
0.00000
  70
    32
  0
VERTEX
  8
0
  5
53B
 10
63.0535
 20
19.9439
 30
0.00000
  70
    32
  0
VERTEX
  8
0
  5
53C
 10
63.2008
 20
19.9302
 30
0.00000
  70
    32
  0
VERTEX
  8
0
  5
53D
 10
63.3482
 20
19.9167
 30
0.00000
  70
    32
  0
VERTEX
  8
0
  5
53E
 10
63.4955
 20
19.9033
 30
0.00000
  70
    32
  0
VERTEX
  8
0
  5
53F
 10
63.6429
 20
19.8901
 30
0.00000
  70
    32
  0
VERTEX
  8
0
  5
540
 10
63.7903
 20
19.8770
 30
0.00000
  70
    32
  0
VERTEX
  8
0
  5
541
 10
63.9377
 20
19.8640
 30
0.00000
  70
    32
  0
VERTEX
  8
0
  5
542
 10
64.0851
 20
19.8512
 30
0.00000
  70
    32
  0
VERTEX
  8
0
  5
543
 10
64.2325
 20
19.8386
 30
0.00000
  70
    32
  0
VERTEX
  8
0
  5
544
 10
64.3799
 20
19.8261
 30
0.00000
  70
    32
  0
VERTEX
  8
0
  5
545
 10
64.5274
 20
19.8137
 30
0.00000
  70
    32
  0
VERTEX
  8
0
  5
546
 10
64.6748
 20
19.8015
 30
0.00000
  70
    32
  0
VERTEX
  8
0
  5
547
 10
64.8223
 20
19.7895
 30
0.00000
  70
    32
  0
VERTEX
  8
0
  5
548
 10
64.9697
 20
19.7776
 30
0.00000
  70
    32
  0
VERTEX
  8
0
  5
549
 10
65.1172
 20
19.7658
 30
0.00000
  70
    32
  0
VERTEX
  8
0
  5
54A
 10
65.2647
 20
19.7542
 30
0.00000
  70
    32
  0
VERTEX
  8
0
  5
54B
 10
65.4122
 20
19.7428
 30
0.00000
  70
    32
  0
VERTEX
  8
0
  5
54C
 10
65.5597
 20
19.7314
 30
0.00000
  70
    32
  0
VERTEX
  8
0
  5
54D
 10
65.7072
 20
19.7203
 30
0.00000
  70
    32
  0
VERTEX
  8
0
  5
54E
 10
65.8547
 20
19.7093
 30
0.00000
  70
    32
  0
VERTEX
  8
0
  5
54F
 10
66.0023
 20
19.6984
 30
0.00000
  70
    32
  0
VERTEX
  8
0
  5
550
 10
66.1498
 20
19.6877
 30
0.00000
  70
    32
  0
VERTEX
  8
0
  5
551
 10
66.2974
 20
19.6772
 30
0.00000
  70
    32
  0
VERTEX
  8
0
  5
552
 10
66.4449
 20
19.6668
 30
0.00000
  70
    32
  0
VERTEX
  8
0
  5
553
 10
66.5925
 20
19.6565
 30
0.00000
  70
    32
  0
VERTEX
  8
0
  5
554
 10
66.7401
 20
19.6464
 30
0.00000
  70
    32
  0
VERTEX
  8
0
  5
555
 10
66.8877
 20
19.6365
 30
0.00000
  70
    32
  0
VERTEX
  8
0
  5
556
 10
67.0353
 20
19.6267
 30
0.00000
  70
    32
  0
VERTEX
  8
0
  5
557
 10
67.1829
 20
19.6170
 30
0.00000
  70
    32
  0
VERTEX
  8
0
  5
558
 10
67.3305
 20
19.6076
 30
0.00000
  70
    32
  0
VERTEX
  8
0
  5
559
 10
67.4781
 20
19.5982
 30
0.00000
  70
    32
  0
VERTEX
  8
0
  5
55A
 10
67.6258
 20
19.5890
 30
0.00000
  70
    32
  0
VERTEX
  8
0
  5
55B
 10
67.7734
 20
19.5800
 30
0.00000
  70
    32
  0
VERTEX
  8
0
  5
55C
 10
67.9210
 20
19.5711
 30
0.00000
  70
    32
  0
VERTEX
  8
0
  5
55D
 10
68.0687
 20
19.5624
 30
0.00000
  70
    32
  0
VERTEX
  8
0
  5
55E
 10
68.2164
 20
19.5539
 30
0.00000
  70
    32
  0
VERTEX
  8
0
  5
55F
 10
68.3640
 20
19.5455
 30
0.00000
  70
    32
  0
VERTEX
  8
0
  5
560
 10
68.5117
 20
19.5372
 30
0.00000
  70
    32
  0
VERTEX
  8
0
  5
561
 10
68.6594
 20
19.5291
 30
0.00000
  70
    32
  0
VERTEX
  8
0
  5
562
 10
68.8071
 20
19.5211
 30
0.00000
  70
    32
  0
VERTEX
  8
0
  5
563
 10
68.9548
 20
19.5133
 30
0.00000
  70
    32
  0
VERTEX
  8
0
  5
564
 10
69.1025
 20
19.5056
 30
0.00000
  70
    32
  0
VERTEX
  8
0
  5
565
 10
69.2502
 20
19.4981
 30
0.00000
  70
    32
  0
VERTEX
  8
0
  5
566
 10
69.3979
 20
19.4907
 30
0.00000
  70
    32
  0
VERTEX
  8
0
  5
567
 10
69.5457
 20
19.4835
 30
0.00000
  70
    32
  0
VERTEX
  8
0
  5
568
 10
69.6934
 20
19.4764
 30
0.00000
  70
    32
  0
VERTEX
  8
0
  5
569
 10
69.8411
 20
19.4694
 30
0.00000
  70
    32
  0
VERTEX
  8
0
  5
56A
 10
69.9889
 20
19.4625
 30
0.00000
  70
    32
  0
VERTEX
  8
0
  5
56B
 10
70.1366
 20
19.4558
 30
0.00000
  70
    32
  0
VERTEX
  8
0
  5
56C
 10
70.2844
 20
19.4492
 30
0.00000
  70
    32
  0
VERTEX
  8
0
  5
56D
 10
70.4322
 20
19.4427
 30
0.00000
  70
    32
  0
VERTEX
  8
0
  5
56E
 10
70.5799
 20
19.4364
 30
0.00000
  70
    32
  0
VERTEX
  8
0
  5
56F
 10
70.7277
 20
19.4302
 30
0.00000
  70
    32
  0
VERTEX
  8
0
  5
570
 10
70.8755
 20
19.4240
 30
0.00000
  70
    32
  0
VERTEX
  8
0
  5
571
 10
71.0233
 20
19.4181
 30
0.00000
  70
    32
  0
VERTEX
  8
0
  5
572
 10
71.1711
 20
19.4122
 30
0.00000
  70
    32
  0
VERTEX
  8
0
  5
573
 10
71.3189
 20
19.4064
 30
0.00000
  70
    32
  0
VERTEX
  8
0
  5
574
 10
71.4667
 20
19.4008
 30
0.00000
  70
    32
  0
VERTEX
  8
0
  5
575
 10
71.6145
 20
19.3952
 30
0.00000
  70
    32
  0
VERTEX
  8
0
  5
576
 10
71.7623
 20
19.3898
 30
0.00000
  70
    32
  0
VERTEX
  8
0
  5
577
 10
71.9101
 20
19.3844
 30
0.00000
  70
    32
  0
VERTEX
  8
0
  5
578
 10
72.0580
 20
19.3792
 30
0.00000
  70
    32
  0
VERTEX
  8
0
  5
579
 10
72.2058
 20
19.3740
 30
0.00000
  70
    32
  0
VERTEX
  8
0
  5
57A
 10
72.3536
 20
19.3690
 30
0.00000
  70
    32
  0
VERTEX
  8
0
  5
57B
 10
72.5015
 20
19.3641
 30
0.00000
  70
    32
  0
VERTEX
  8
0
  5
57C
 10
72.6493
 20
19.3592
 30
0.00000
  70
    32
  0
VERTEX
  8
0
  5
57D
 10
72.7972
 20
19.3544
 30
0.00000
  70
    32
  0
VERTEX
  8
0
  5
57E
 10
72.9450
 20
19.3498
 30
0.00000
  70
    32
  0
VERTEX
  8
0
  5
57F
 10
73.0929
 20
19.3452
 30
0.00000
  70
    32
  0
VERTEX
  8
0
  5
580
 10
73.2407
 20
19.3407
 30
0.00000
  70
    32
  0
VERTEX
  8
0
  5
581
 10
73.3886
 20
19.3363
 30
0.00000
  70
    32
  0
VERTEX
  8
0
  5
582
 10
73.5365
 20
19.3319
 30
0.00000
  70
    32
  0
VERTEX
  8
0
  5
583
 10
73.6843
 20
19.3277
 30
0.00000
  70
    32
  0
VERTEX
  8
0
  5
584
 10
73.8322
 20
19.3235
 30
0.00000
  70
    32
  0
VERTEX
  8
0
  5
585
 10
73.9801
 20
19.3194
 30
0.00000
  70
    32
  0
VERTEX
  8
0
  5
586
 10
74.1280
 20
19.3153
 30
0.00000
  70
    32
  0
VERTEX
  8
0
  5
587
 10
74.2759
 20
19.3114
 30
0.00000
  70
    32
  0
VERTEX
  8
0
  5
588
 10
74.4238
 20
19.3075
 30
0.00000
  70
    32
  0
VERTEX
  8
0
  5
589
 10
74.5716
 20
19.3036
 30
0.00000
  70
    32
  0
VERTEX
  8
0
  5
58A
 10
74.7195
 20
19.2999
 30
0.00000
  70
    32
  0
VERTEX
  8
0
  5
58B
 10
74.8674
 20
19.2962
 30
0.00000
  70
    32
  0
VERTEX
  8
0
  5
58C
 10
75.0153
 20
19.2925
 30
0.00000
  70
    32
  0
VERTEX
  8
0
  5
58D
 10
75.1633
 20
19.2889
 30
0.00000
  70
    32
  0
VERTEX
  8
0
  5
58E
 10
75.3112
 20
19.2854
 30
0.00000
  70
    32
  0
VERTEX
  8
0
  5
58F
 10
75.4591
 20
19.2819
 30
0.00000
  70
    32
  0
VERTEX
  8
0
  5
590
 10
75.6070
 20
19.2785
 30
0.00000
  70
    32
  0
VERTEX
  8
0
  5
591
 10
75.7549
 20
19.2751
 30
0.00000
  70
    32
  0
VERTEX
  8
0
  5
592
 10
75.9028
 20
19.2717
 30
0.00000
  70
    32
  0
VERTEX
  8
0
  5
593
 10
76.0507
 20
19.2684
 30
0.00000
  70
    32
  0
VERTEX
  8
0
  5
594
 10
76.1987
 20
19.2652
 30
0.00000
  70
    32
  0
VERTEX
  8
0
  5
595
 10
76.3466
 20
19.2620
 30
0.00000
  70
    32
  0
VERTEX
  8
0
  5
596
 10
76.4945
 20
19.2588
 30
0.00000
  70
    32
  0
VERTEX
  8
0
  5
597
 10
76.6424
 20
19.2557
 30
0.00000
  70
    32
  0
VERTEX
  8
0
  5
598
 10
76.7904
 20
19.2526
 30
0.00000
  70
    32
  0
VERTEX
  8
0
  5
599
 10
76.9383
 20
19.2495
 30
0.00000
  70
    32
  0
VERTEX
  8
0
  5
59A
 10
77.0862
 20
19.2465
 30
0.00000
  70
    32
  0
VERTEX
  8
0
  5
59B
 10
77.2342
 20
19.2435
 30
0.00000
  70
    32
  0
VERTEX
  8
0
  5
59C
 10
77.3821
 20
19.2405
 30
0.00000
  70
    32
  0
VERTEX
  8
0
  5
59D
 10
77.5300
 20
19.2375
 30
0.00000
  70
    32
  0
VERTEX
  8
0
  5
59E
 10
77.6780
 20
19.2346
 30
0.00000
  70
    32
  0
VERTEX
  8
0
  5
59F
 10
77.8259
 20
19.2317
 30
0.00000
  70
    32
  0
VERTEX
  8
0
  5
5A0
 10
77.9739
 20
19.2288
 30
0.00000
  70
    32
  0
VERTEX
  8
0
  5
5A1
 10
78.1218
 20
19.2259
 30
0.00000
  70
    32
  0
VERTEX
  8
0
  5
5A2
 10
78.2697
 20
19.2230
 30
0.00000
  70
    32
  0
VERTEX
  8
0
  5
5A3
 10
78.4177
 20
19.2201
 30
0.00000
  70
    32
  0
VERTEX
  8
0
  5
5A4
 10
78.5656
 20
19.2173
 30
0.00000
  70
    32
  0
VERTEX
  8
0
  5
5A5
 10
78.7136
 20
19.2144
 30
0.00000
  70
    32
  0
VERTEX
  8
0
  5
5A6
 10
78.8615
 20
19.2116
 30
0.00000
  70
    32
  0
VERTEX
  8
0
  5
5A7
 10
79.0094
 20
19.2088
 30
0.00000
  70
    32
  0
VERTEX
  8
0
  5
5A8
 10
79.0157
 20
18.7037
 30
0.00000
  70
    32
  0
VERTEX
  8
0
  5
5A9
 10
78.9773
 20
18.0402
 30
0.00000
  70
    32
  0
VERTEX
  8
0
  5
5AA
 10
78.9389
 20
17.3767
 30
0.00000
  70
    32
  0
VERTEX
  8
0
  5
5AB
 10
78.9005
 20
16.7132
 30
0.00000
  70
    32
  0
VERTEX
  8
0
  5
5AC
 10
78.8621
 20
16.0496
 30
0.00000
  70
    32
  0
VERTEX
  8
0
  5
5AD
 10
78.8237
 20
15.3861
 30
0.00000
  70
    32
  0
VERTEX
  8
0
  5
5AE
 10
78.7852
 20
14.7226
 30
0.00000
  70
    32
  0
SEQEND
  8
0
  5
5AF
  0
INSERT
  5
1F3
  8
0
  2
*U4
 10
0.0
 20
0.0
 30
0.0
  0
CIRCLE
  5
1F4
  8
DRILLING
 10
28.5387886796161006
 20
20.1651948326674884
 30
0.0
 40
0.3224999999999999
  0
CIRCLE
  5
1F5
  8
DRILLING
 10
22.665812652983039
 20
21.3932634751276289
 30
0.0
 40
0.3224999999999999
  0
POLYLINE
  8
0
  5
5B0
  66
     1
 10
0.00000
 20
0.00000
 30
0.00000
  70
     8
  0
VERTEX
  8
0
  5
5B1
 10
25.4913
 20
38.4198
 30
0.00000
  70
    32
  0
VERTEX
  8
0
  5
5B2
 10
25.6369
 20
38.4458
 30
0.00000
  70
    32
  0
VERTEX
  8
0
  5
5B3
 10
25.7825
 20
38.4718
 30
0.00000
  70
    32
  0
VERTEX
  8
0
  5
5B4
 10
25.9282
 20
38.4978
 30
0.00000
  70
    32
  0
VERTEX
  8
0
  5
5B5
 10
26.0738
 20
38.5238
 30
0.00000
  70
    32
  0
VERTEX
  8
0
  5
5B6
 10
26.2194
 20
38.5498
 30
0.00000
  70
    32
  0
VERTEX
  8
0
  5
5B7
 10
26.3650
 20
38.5758
 30
0.00000
  70
    32
  0
VERTEX
  8
0
  5
5B8
 10
26.5107
 20
38.6018
 30
0.00000
  70
    32
  0
VERTEX
  8
0
  5
5B9
 10
26.6563
 20
38.6277
 30
0.00000
  70
    32
  0
VERTEX
  8
0
  5
5BA
 10
26.8019
 20
38.6536
 30
0.00000
  70
    32
  0
VERTEX
  8
0
  5
5BB
 10
26.9476
 20
38.6796
 30
0.00000
  70
    32
  0
VERTEX
  8
0
  5
5BC
 10
27.0932
 20
38.7055
 30
0.00000
  70
    32
  0
VERTEX
  8
0
  5
5BD
 10
27.2389
 20
38.7313
 30
0.00000
  70
    32
  0
VERTEX
  8
0
  5
5BE
 10
27.3845
 20
38.7572
 30
0.00000
  70
    32
  0
VERTEX
  8
0
  5
5BF
 10
27.5302
 20
38.7830
 30
0.00000
  70
    32
  0
VERTEX
  8
0
  5
5C0
 10
27.6758
 20
38.8089
 30
0.00000
  70
    32
  0
VERTEX
  8
0
  5
5C1
 10
27.8215
 20
38.8346
 30
0.00000
  70
    32
  0
VERTEX
  8
0
  5
5C2
 10
27.9672
 20
38.8604
 30
0.00000
  70
    32
  0
VERTEX
  8
0
  5
5C3
 10
28.1128
 20
38.8861
 30
0.00000
  70
    32
  0
VERTEX
  8
0
  5
5C4
 10
28.2585
 20
38.9118
 30
0.00000
  70
    32
  0
VERTEX
  8
0
  5
5C5
 10
28.4042
 20
38.9375
 30
0.00000
  70
    32
  0
VERTEX
  8
0
  5
5C6
 10
28.5499
 20
38.9631
 30
0.00000
  70
    32
  0
VERTEX
  8
0
  5
5C7
 10
28.6956
 20
38.9887
 30
0.00000
  70
    32
  0
VERTEX
  8
0
  5
5C8
 10
28.8413
 20
39.0143
 30
0.00000
  70
    32
  0
VERTEX
  8
0
  5
5C9
 10
28.9870
 20
39.0398
 30
0.00000
  70
    32
  0
VERTEX
  8
0
  5
5CA
 10
29.1327
 20
39.0652
 30
0.00000
  70
    32
  0
VERTEX
  8
0
  5
5CB
 10
29.2784
 20
39.0907
 30
0.00000
  70
    32
  0
VERTEX
  8
0
  5
5CC
 10
29.4242
 20
39.1160
 30
0.00000
  70
    32
  0
VERTEX
  8
0
  5
5CD
 10
29.5699
 20
39.1414
 30
0.00000
  70
    32
  0
VERTEX
  8
0
  5
5CE
 10
29.7157
 20
39.1666
 30
0.00000
  70
    32
  0
VERTEX
  8
0
  5
5CF
 10
29.8614
 20
39.1919
 30
0.00000
  70
    32
  0
VERTEX
  8
0
  5
5D0
 10
30.0072
 20
39.2170
 30
0.00000
  70
    32
  0
VERTEX
  8
0
  5
5D1
 10
30.1530
 20
39.2421
 30
0.00000
  70
    32
  0
VERTEX
  8
0
  5
5D2
 10
30.2987
 20
39.2672
 30
0.00000
  70
    32
  0
VERTEX
  8
0
  5
5D3
 10
30.4445
 20
39.2922
 30
0.00000
  70
    32
  0
VERTEX
  8
0
  5
5D4
 10
30.5903
 20
39.3171
 30
0.00000
  70
    32
  0
VERTEX
  8
0
  5
5D5
 10
30.7362
 20
39.3420
 30
0.00000
  70
    32
  0
VERTEX
  8
0
  5
5D6
 10
30.8820
 20
39.3668
 30
0.00000
  70
    32
  0
VERTEX
  8
0
  5
5D7
 10
31.0278
 20
39.3916
 30
0.00000
  70
    32
  0
VERTEX
  8
0
  5
5D8
 10
31.1737
 20
39.4163
 30
0.00000
  70
    32
  0
VERTEX
  8
0
  5
5D9
 10
31.3196
 20
39.4409
 30
0.00000
  70
    32
  0
VERTEX
  8
0
  5
5DA
 10
31.4654
 20
39.4654
 30
0.00000
  70
    32
  0
VERTEX
  8
0
  5
5DB
 10
31.6113
 20
39.4899
 30
0.00000
  70
    32
  0
VERTEX
  8
0
  5
5DC
 10
31.7572
 20
39.5143
 30
0.00000
  70
    32
  0
VERTEX
  8
0
  5
5DD
 10
31.9031
 20
39.5386
 30
0.00000
  70
    32
  0
VERTEX
  8
0
  5
5DE
 10
32.0491
 20
39.5628
 30
0.00000
  70
    32
  0
VERTEX
  8
0
  5
5DF
 10
32.1950
 20
39.5870
 30
0.00000
  70
    32
  0
VERTEX
  8
0
  5
5E0
 10
32.3410
 20
39.6111
 30
0.00000
  70
    32
  0
VERTEX
  8
0
  5
5E1
 10
32.4869
 20
39.6351
 30
0.00000
  70
    32
  0
VERTEX
  8
0
  5
5E2
 10
32.6329
 20
39.6591
 30
0.00000
  70
    32
  0
VERTEX
  8
0
  5
5E3
 10
32.7789
 20
39.6829
 30
0.00000
  70
    32
  0
VERTEX
  8
0
  5
5E4
 10
32.9249
 20
39.7067
 30
0.00000
  70
    32
  0
VERTEX
  8
0
  5
5E5
 10
33.0709
 20
39.7305
 30
0.00000
  70
    32
  0
VERTEX
  8
0
  5
5E6
 10
33.2169
 20
39.7541
 30
0.00000
  70
    32
  0
VERTEX
  8
0
  5
5E7
 10
33.3630
 20
39.7777
 30
0.00000
  70
    32
  0
VERTEX
  8
0
  5
5E8
 10
33.5090
 20
39.8012
 30
0.00000
  70
    32
  0
VERTEX
  8
0
  5
5E9
 10
33.6551
 20
39.8246
 30
0.00000
  70
    32
  0
VERTEX
  8
0
  5
5EA
 10
33.8012
 20
39.8480
 30
0.00000
  70
    32
  0
VERTEX
  8
0
  5
5EB
 10
33.9473
 20
39.8713
 30
0.00000
  70
    32
  0
VERTEX
  8
0
  5
5EC
 10
34.0934
 20
39.8945
 30
0.00000
  70
    32
  0
VERTEX
  8
0
  5
5ED
 10
34.2395
 20
39.9176
 30
0.00000
  70
    32
  0
VERTEX
  8
0
  5
5EE
 10
34.3856
 20
39.9407
 30
0.00000
  70
    32
  0
VERTEX
  8
0
  5
5EF
 10
34.5317
 20
39.9637
 30
0.00000
  70
    32
  0
VERTEX
  8
0
  5
5F0
 10
34.6779
 20
39.9866
 30
0.00000
  70
    32
  0
VERTEX
  8
0
  5
5F1
 10
34.8240
 20
40.0094
 30
0.00000
  70
    32
  0
VERTEX
  8
0
  5
5F2
 10
34.9702
 20
40.0322
 30
0.00000
  70
    32
  0
VERTEX
  8
0
  5
5F3
 10
35.1164
 20
40.0549
 30
0.00000
  70
    32
  0
VERTEX
  8
0
  5
5F4
 10
35.2626
 20
40.0775
 30
0.00000
  70
    32
  0
VERTEX
  8
0
  5
5F5
 10
35.4088
 20
40.1001
 30
0.00000
  70
    32
  0
VERTEX
  8
0
  5
5F6
 10
35.5550
 20
40.1225
 30
0.00000
  70
    32
  0
VERTEX
  8
0
  5
5F7
 10
35.7012
 20
40.1449
 30
0.00000
  70
    32
  0
VERTEX
  8
0
  5
5F8
 10
35.8475
 20
40.1673
 30
0.00000
  70
    32
  0
VERTEX
  8
0
  5
5F9
 10
35.9937
 20
40.1895
 30
0.00000
  70
    32
  0
VERTEX
  8
0
  5
5FA
 10
36.1400
 20
40.2117
 30
0.00000
  70
    32
  0
VERTEX
  8
0
  5
5FB
 10
36.2863
 20
40.2338
 30
0.00000
  70
    32
  0
VERTEX
  8
0
  5
5FC
 10
36.4326
 20
40.2559
 30
0.00000
  70
    32
  0
VERTEX
  8
0
  5
5FD
 10
36.5789
 20
40.2778
 30
0.00000
  70
    32
  0
VERTEX
  8
0
  5
5FE
 10
36.7252
 20
40.2997
 30
0.00000
  70
    32
  0
VERTEX
  8
0
  5
5FF
 10
36.8715
 20
40.3215
 30
0.00000
  70
    32
  0
VERTEX
  8
0
  5
600
 10
37.0178
 20
40.3433
 30
0.00000
  70
    32
  0
VERTEX
  8
0
  5
601
 10
37.1642
 20
40.3649
 30
0.00000
  70
    32
  0
VERTEX
  8
0
  5
602
 10
37.3105
 20
40.3865
 30
0.00000
  70
    32
  0
VERTEX
  8
0
  5
603
 10
37.4569
 20
40.4081
 30
0.00000
  70
    32
  0
VERTEX
  8
0
  5
604
 10
37.6033
 20
40.4295
 30
0.00000
  70
    32
  0
VERTEX
  8
0
  5
605
 10
37.7496
 20
40.4509
 30
0.00000
  70
    32
  0
VERTEX
  8
0
  5
606
 10
37.8960
 20
40.4722
 30
0.00000
  70
    32
  0
VERTEX
  8
0
  5
607
 10
38.0424
 20
40.4935
 30
0.00000
  70
    32
  0
VERTEX
  8
0
  5
608
 10
38.1889
 20
40.5146
 30
0.00000
  70
    32
  0
VERTEX
  8
0
  5
609
 10
38.3353
 20
40.5357
 30
0.00000
  70
    32
  0
VERTEX
  8
0
  5
60A
 10
38.4817
 20
40.5567
 30
0.00000
  70
    32
  0
VERTEX
  8
0
  5
60B
 10
38.6282
 20
40.5777
 30
0.00000
  70
    32
  0
VERTEX
  8
0
  5
60C
 10
38.7747
 20
40.5986
 30
0.00000
  70
    32
  0
VERTEX
  8
0
  5
60D
 10
38.9211
 20
40.6194
 30
0.00000
  70
    32
  0
VERTEX
  8
0
  5
60E
 10
39.0676
 20
40.6401
 30
0.00000
  70
    32
  0
VERTEX
  8
0
  5
60F
 10
39.2141
 20
40.6607
 30
0.00000
  70
    32
  0
VERTEX
  8
0
  5
610
 10
39.3606
 20
40.6813
 30
0.00000
  70
    32
  0
VERTEX
  8
0
  5
611
 10
39.5071
 20
40.7018
 30
0.00000
  70
    32
  0
VERTEX
  8
0
  5
612
 10
39.6536
 20
40.7223
 30
0.00000
  70
    32
  0
VERTEX
  8
0
  5
613
 10
39.8002
 20
40.7426
 30
0.00000
  70
    32
  0
VERTEX
  8
0
  5
614
 10
39.9467
 20
40.7629
 30
0.00000
  70
    32
  0
VERTEX
  8
0
  5
615
 10
40.0933
 20
40.7832
 30
0.00000
  70
    32
  0
VERTEX
  8
0
  5
616
 10
40.2398
 20
40.8033
 30
0.00000
  70
    32
  0
VERTEX
  8
0
  5
617
 10
40.3864
 20
40.8234
 30
0.00000
  70
    32
  0
VERTEX
  8
0
  5
618
 10
40.5330
 20
40.8434
 30
0.00000
  70
    32
  0
VERTEX
  8
0
  5
619
 10
40.6796
 20
40.8633
 30
0.00000
  70
    32
  0
VERTEX
  8
0
  5
61A
 10
40.8262
 20
40.8832
 30
0.00000
  70
    32
  0
VERTEX
  8
0
  5
61B
 10
40.9728
 20
40.9030
 30
0.00000
  70
    32
  0
VERTEX
  8
0
  5
61C
 10
41.1195
 20
40.9227
 30
0.00000
  70
    32
  0
VERTEX
  8
0
  5
61D
 10
41.2661
 20
40.9424
 30
0.00000
  70
    32
  0
VERTEX
  8
0
  5
61E
 10
41.4127
 20
40.9619
 30
0.00000
  70
    32
  0
VERTEX
  8
0
  5
61F
 10
41.5594
 20
40.9814
 30
0.00000
  70
    32
  0
VERTEX
  8
0
  5
620
 10
41.7061
 20
41.0009
 30
0.00000
  70
    32
  0
VERTEX
  8
0
  5
621
 10
41.8527
 20
41.0202
 30
0.00000
  70
    32
  0
VERTEX
  8
0
  5
622
 10
41.9994
 20
41.0395
 30
0.00000
  70
    32
  0
VERTEX
  8
0
  5
623
 10
42.1461
 20
41.0587
 30
0.00000
  70
    32
  0
VERTEX
  8
0
  5
624
 10
42.2928
 20
41.0779
 30
0.00000
  70
    32
  0
VERTEX
  8
0
  5
625
 10
42.4395
 20
41.0970
 30
0.00000
  70
    32
  0
VERTEX
  8
0
  5
626
 10
42.5863
 20
41.1160
 30
0.00000
  70
    32
  0
VERTEX
  8
0
  5
627
 10
42.7330
 20
41.1349
 30
0.00000
  70
    32
  0
VERTEX
  8
0
  5
628
 10
42.8797
 20
41.1537
 30
0.00000
  70
    32
  0
VERTEX
  8
0
  5
629
 10
43.0265
 20
41.1725
 30
0.00000
  70
    32
  0
VERTEX
  8
0
  5
62A
 10
43.1732
 20
41.1912
 30
0.00000
  70
    32
  0
VERTEX
  8
0
  5
62B
 10
43.3200
 20
41.2099
 30
0.00000
  70
    32
  0
VERTEX
  8
0
  5
62C
 10
43.4668
 20
41.2285
 30
0.00000
  70
    32
  0
VERTEX
  8
0
  5
62D
 10
43.6136
 20
41.2470
 30
0.00000
  70
    32
  0
VERTEX
  8
0
  5
62E
 10
43.7604
 20
41.2654
 30
0.00000
  70
    32
  0
VERTEX
  8
0
  5
62F
 10
43.9072
 20
41.2838
 30
0.00000
  70
    32
  0
VERTEX
  8
0
  5
630
 10
44.0540
 20
41.3021
 30
0.00000
  70
    32
  0
VERTEX
  8
0
  5
631
 10
44.2008
 20
41.3203
 30
0.00000
  70
    32
  0
VERTEX
  8
0
  5
632
 10
44.3477
 20
41.3384
 30
0.00000
  70
    32
  0
VERTEX
  8
0
  5
633
 10
44.4945
 20
41.3565
 30
0.00000
  70
    32
  0
VERTEX
  8
0
  5
634
 10
44.6414
 20
41.3745
 30
0.00000
  70
    32
  0
VERTEX
  8
0
  5
635
 10
44.7882
 20
41.3924
 30
0.00000
  70
    32
  0
VERTEX
  8
0
  5
636
 10
44.9351
 20
41.4103
 30
0.00000
  70
    32
  0
VERTEX
  8
0
  5
637
 10
45.0820
 20
41.4281
 30
0.00000
  70
    32
  0
VERTEX
  8
0
  5
638
 10
45.2288
 20
41.4458
 30
0.00000
  70
    32
  0
VERTEX
  8
0
  5
639
 10
45.3757
 20
41.4634
 30
0.00000
  70
    32
  0
VERTEX
  8
0
  5
63A
 10
45.5226
 20
41.4810
 30
0.00000
  70
    32
  0
VERTEX
  8
0
  5
63B
 10
45.6696
 20
41.4985
 30
0.00000
  70
    32
  0
VERTEX
  8
0
  5
63C
 10
45.8165
 20
41.5160
 30
0.00000
  70
    32
  0
VERTEX
  8
0
  5
63D
 10
45.9634
 20
41.5333
 30
0.00000
  70
    32
  0
VERTEX
  8
0
  5
63E
 10
46.1103
 20
41.5506
 30
0.00000
  70
    32
  0
VERTEX
  8
0
  5
63F
 10
46.2573
 20
41.5679
 30
0.00000
  70
    32
  0
VERTEX
  8
0
  5
640
 10
46.4043
 20
41.5850
 30
0.00000
  70
    32
  0
VERTEX
  8
0
  5
641
 10
46.5512
 20
41.6021
 30
0.00000
  70
    32
  0
VERTEX
  8
0
  5
642
 10
46.6982
 20
41.6191
 30
0.00000
  70
    32
  0
VERTEX
  8
0
  5
643
 10
46.8452
 20
41.6361
 30
0.00000
  70
    32
  0
VERTEX
  8
0
  5
644
 10
46.9922
 20
41.6529
 30
0.00000
  70
    32
  0
VERTEX
  8
0
  5
645
 10
47.1391
 20
41.6697
 30
0.00000
  70
    32
  0
VERTEX
  8
0
  5
646
 10
47.2862
 20
41.6865
 30
0.00000
  70
    32
  0
VERTEX
  8
0
  5
647
 10
47.4332
 20
41.7031
 30
0.00000
  70
    32
  0
VERTEX
  8
0
  5
648
 10
47.5802
 20
41.7197
 30
0.00000
  70
    32
  0
VERTEX
  8
0
  5
649
 10
47.7272
 20
41.7362
 30
0.00000
  70
    32
  0
VERTEX
  8
0
  5
64A
 10
47.8742
 20
41.7527
 30
0.00000
  70
    32
  0
VERTEX
  8
0
  5
64B
 10
48.0213
 20
41.7690
 30
0.00000
  70
    32
  0
VERTEX
  8
0
  5
64C
 10
48.1683
 20
41.7853
 30
0.00000
  70
    32
  0
VERTEX
  8
0
  5
64D
 10
48.3154
 20
41.8016
 30
0.00000
  70
    32
  0
VERTEX
  8
0
  5
64E
 10
48.4625
 20
41.8177
 30
0.00000
  70
    32
  0
VERTEX
  8
0
  5
64F
 10
48.6095
 20
41.8338
 30
0.00000
  70
    32
  0
VERTEX
  8
0
  5
650
 10
48.7566
 20
41.8498
 30
0.00000
  70
    32
  0
VERTEX
  8
0
  5
651
 10
48.9037
 20
41.8658
 30
0.00000
  70
    32
  0
VERTEX
  8
0
  5
652
 10
49.0508
 20
41.8817
 30
0.00000
  70
    32
  0
VERTEX
  8
0
  5
653
 10
49.1979
 20
41.8975
 30
0.00000
  70
    32
  0
VERTEX
  8
0
  5
654
 10
49.3450
 20
41.9132
 30
0.00000
  70
    32
  0
VERTEX
  8
0
  5
655
 10
49.4922
 20
41.9288
 30
0.00000
  70
    32
  0
VERTEX
  8
0
  5
656
 10
49.6393
 20
41.9444
 30
0.00000
  70
    32
  0
VERTEX
  8
0
  5
657
 10
49.7864
 20
41.9599
 30
0.00000
  70
    32
  0
VERTEX
  8
0
  5
658
 10
49.9336
 20
41.9754
 30
0.00000
  70
    32
  0
VERTEX
  8
0
  5
659
 10
50.0807
 20
41.9907
 30
0.00000
  70
    32
  0
VERTEX
  8
0
  5
65A
 10
50.2279
 20
42.0060
 30
0.00000
  70
    32
  0
VERTEX
  8
0
  5
65B
 10
50.3751
 20
42.0213
 30
0.00000
  70
    32
  0
VERTEX
  8
0
  5
65C
 10
50.5222
 20
42.0364
 30
0.00000
  70
    32
  0
VERTEX
  8
0
  5
65D
 10
50.6694
 20
42.0515
 30
0.00000
  70
    32
  0
VERTEX
  8
0
  5
65E
 10
50.8166
 20
42.0665
 30
0.00000
  70
    32
  0
VERTEX
  8
0
  5
65F
 10
50.9638
 20
42.0814
 30
0.00000
  70
    32
  0
VERTEX
  8
0
  5
660
 10
51.1110
 20
42.0963
 30
0.00000
  70
    32
  0
VERTEX
  8
0
  5
661
 10
51.2582
 20
42.1111
 30
0.00000
  70
    32
  0
VERTEX
  8
0
  5
662
 10
51.4054
 20
42.1258
 30
0.00000
  70
    32
  0
VERTEX
  8
0
  5
663
 10
51.5527
 20
42.1404
 30
0.00000
  70
    32
  0
VERTEX
  8
0
  5
664
 10
51.6999
 20
42.1550
 30
0.00000
  70
    32
  0
VERTEX
  8
0
  5
665
 10
51.8471
 20
42.1695
 30
0.00000
  70
    32
  0
VERTEX
  8
0
  5
666
 10
51.9944
 20
42.1839
 30
0.00000
  70
    32
  0
VERTEX
  8
0
  5
667
 10
52.1416
 20
42.1982
 30
0.00000
  70
    32
  0
VERTEX
  8
0
  5
668
 10
52.2889
 20
42.2125
 30
0.00000
  70
    32
  0
VERTEX
  8
0
  5
669
 10
52.4362
 20
42.2267
 30
0.00000
  70
    32
  0
VERTEX
  8
0
  5
66A
 10
52.5834
 20
42.2408
 30
0.00000
  70
    32
  0
VERTEX
  8
0
  5
66B
 10
52.7307
 20
42.2549
 30
0.00000
  70
    32
  0
VERTEX
  8
0
  5
66C
 10
52.8780
 20
42.2688
 30
0.00000
  70
    32
  0
VERTEX
  8
0
  5
66D
 10
53.0253
 20
42.2827
 30
0.00000
  70
    32
  0
VERTEX
  8
0
  5
66E
 10
53.1726
 20
42.2966
 30
0.00000
  70
    32
  0
VERTEX
  8
0
  5
66F
 10
53.3199
 20
42.3103
 30
0.00000
  70
    32
  0
VERTEX
  8
0
  5
670
 10
53.4672
 20
42.3240
 30
0.00000
  70
    32
  0
VERTEX
  8
0
  5
671
 10
53.6146
 20
42.3376
 30
0.00000
  70
    32
  0
VERTEX
  8
0
  5
672
 10
53.7619
 20
42.3511
 30
0.00000
  70
    32
  0
VERTEX
  8
0
  5
673
 10
53.9092
 20
42.3646
 30
0.00000
  70
    32
  0
VERTEX
  8
0
  5
674
 10
54.0566
 20
42.3780
 30
0.00000
  70
    32
  0
VERTEX
  8
0
  5
675
 10
54.2039
 20
42.3913
 30
0.00000
  70
    32
  0
VERTEX
  8
0
  5
676
 10
54.3513
 20
42.4045
 30
0.00000
  70
    32
  0
VERTEX
  8
0
  5
677
 10
54.4986
 20
42.4176
 30
0.00000
  70
    32
  0
VERTEX
  8
0
  5
678
 10
54.6460
 20
42.4307
 30
0.00000
  70
    32
  0
VERTEX
  8
0
  5
679
 10
54.7934
 20
42.4437
 30
0.00000
  70
    32
  0
VERTEX
  8
0
  5
67A
 10
54.9408
 20
42.4567
 30
0.00000
  70
    32
  0
VERTEX
  8
0
  5
67B
 10
55.0882
 20
42.4695
 30
0.00000
  70
    32
  0
VERTEX
  8
0
  5
67C
 10
55.2356
 20
42.4823
 30
0.00000
  70
    32
  0
VERTEX
  8
0
  5
67D
 10
55.3830
 20
42.4950
 30
0.00000
  70
    32
  0
VERTEX
  8
0
  5
67E
 10
55.5304
 20
42.5076
 30
0.00000
  70
    32
  0
VERTEX
  8
0
  5
67F
 10
55.6778
 20
42.5202
 30
0.00000
  70
    32
  0
VERTEX
  8
0
  5
680
 10
55.8252
 20
42.5326
 30
0.00000
  70
    32
  0
VERTEX
  8
0
  5
681
 10
55.9726
 20
42.5450
 30
0.00000
  70
    32
  0
VERTEX
  8
0
  5
682
 10
56.1201
 20
42.5573
 30
0.00000
  70
    32
  0
VERTEX
  8
0
  5
683
 10
56.2675
 20
42.5696
 30
0.00000
  70
    32
  0
VERTEX
  8
0
  5
684
 10
56.4150
 20
42.5818
 30
0.00000
  70
    32
  0
VERTEX
  8
0
  5
685
 10
56.5624
 20
42.5938
 30
0.00000
  70
    32
  0
VERTEX
  8
0
  5
686
 10
56.7099
 20
42.6059
 30
0.00000
  70
    32
  0
VERTEX
  8
0
  5
687
 10
56.8573
 20
42.6178
 30
0.00000
  70
    32
  0
VERTEX
  8
0
  5
688
 10
57.0048
 20
42.6297
 30
0.00000
  70
    32
  0
VERTEX
  8
0
  5
689
 10
57.1523
 20
42.6415
 30
0.00000
  70
    32
  0
VERTEX
  8
0
  5
68A
 10
57.2998
 20
42.6532
 30
0.00000
  70
    32
  0
VERTEX
  8
0
  5
68B
 10
57.4473
 20
42.6648
 30
0.00000
  70
    32
  0
VERTEX
  8
0
  5
68C
 10
57.5947
 20
42.6764
 30
0.00000
  70
    32
  0
VERTEX
  8
0
  5
68D
 10
57.7422
 20
42.6878
 30
0.00000
  70
    32
  0
VERTEX
  8
0
  5
68E
 10
57.8898
 20
42.6992
 30
0.00000
  70
    32
  0
VERTEX
  8
0
  5
68F
 10
58.0373
 20
42.7106
 30
0.00000
  70
    32
  0
VERTEX
  8
0
  5
690
 10
58.1848
 20
42.7218
 30
0.00000
  70
    32
  0
VERTEX
  8
0
  5
691
 10
58.3323
 20
42.7330
 30
0.00000
  70
    32
  0
VERTEX
  8
0
  5
692
 10
58.4798
 20
42.7441
 30
0.00000
  70
    32
  0
VERTEX
  8
0
  5
693
 10
58.6274
 20
42.7551
 30
0.00000
  70
    32
  0
VERTEX
  8
0
  5
694
 10
58.7749
 20
42.7660
 30
0.00000
  70
    32
  0
VERTEX
  8
0
  5
695
 10
58.9225
 20
42.7769
 30
0.00000
  70
    32
  0
VERTEX
  8
0
  5
696
 10
59.0700
 20
42.7877
 30
0.00000
  70
    32
  0
VERTEX
  8
0
  5
697
 10
59.2176
 20
42.7984
 30
0.00000
  70
    32
  0
VERTEX
  8
0
  5
698
 10
59.3651
 20
42.8090
 30
0.00000
  70
    32
  0
VERTEX
  8
0
  5
699
 10
59.5127
 20
42.8195
 30
0.00000
  70
    32
  0
VERTEX
  8
0
  5
69A
 10
59.6603
 20
42.8300
 30
0.00000
  70
    32
  0
VERTEX
  8
0
  5
69B
 10
59.8078
 20
42.8404
 30
0.00000
  70
    32
  0
VERTEX
  8
0
  5
69C
 10
59.9554
 20
42.8507
 30
0.00000
  70
    32
  0
VERTEX
  8
0
  5
69D
 10
60.1030
 20
42.8609
 30
0.00000
  70
    32
  0
VERTEX
  8
0
  5
69E
 10
60.2506
 20
42.8711
 30
0.00000
  70
    32
  0
VERTEX
  8
0
  5
69F
 10
60.3982
 20
42.8812
 30
0.00000
  70
    32
  0
VERTEX
  8
0
  5
6A0
 10
60.5458
 20
42.8912
 30
0.00000
  70
    32
  0
VERTEX
  8
0
  5
6A1
 10
60.6934
 20
42.9011
 30
0.00000
  70
    32
  0
VERTEX
  8
0
  5
6A2
 10
60.8411
 20
42.9109
 30
0.00000
  70
    32
  0
VERTEX
  8
0
  5
6A3
 10
60.9887
 20
42.9207
 30
0.00000
  70
    32
  0
VERTEX
  8
0
  5
6A4
 10
61.1363
 20
42.9304
 30
0.00000
  70
    32
  0
VERTEX
  8
0
  5
6A5
 10
61.2839
 20
42.9400
 30
0.00000
  70
    32
  0
VERTEX
  8
0
  5
6A6
 10
61.4316
 20
42.9495
 30
0.00000
  70
    32
  0
VERTEX
  8
0
  5
6A7
 10
61.5792
 20
42.9590
 30
0.00000
  70
    32
  0
VERTEX
  8
0
  5
6A8
 10
61.7269
 20
42.9683
 30
0.00000
  70
    32
  0
VERTEX
  8
0
  5
6A9
 10
61.8745
 20
42.9776
 30
0.00000
  70
    32
  0
VERTEX
  8
0
  5
6AA
 10
62.0222
 20
42.9868
 30
0.00000
  70
    32
  0
VERTEX
  8
0
  5
6AB
 10
62.1698
 20
42.9959
 30
0.00000
  70
    32
  0
VERTEX
  8
0
  5
6AC
 10
62.3175
 20
43.0050
 30
0.00000
  70
    32
  0
VERTEX
  8
0
  5
6AD
 10
62.4652
 20
43.0140
 30
0.00000
  70
    32
  0
VERTEX
  8
0
  5
6AE
 10
62.6128
 20
43.0229
 30
0.00000
  70
    32
  0
VERTEX
  8
0
  5
6AF
 10
62.7605
 20
43.0317
 30
0.00000
  70
    32
  0
VERTEX
  8
0
  5
6B0
 10
62.9082
 20
43.0404
 30
0.00000
  70
    32
  0
VERTEX
  8
0
  5
6B1
 10
63.0559
 20
43.0490
 30
0.00000
  70
    32
  0
VERTEX
  8
0
  5
6B2
 10
63.2036
 20
43.0576
 30
0.00000
  70
    32
  0
VERTEX
  8
0
  5
6B3
 10
63.3513
 20
43.0661
 30
0.00000
  70
    32
  0
VERTEX
  8
0
  5
6B4
 10
63.4990
 20
43.0745
 30
0.00000
  70
    32
  0
VERTEX
  8
0
  5
6B5
 10
63.6467
 20
43.0828
 30
0.00000
  70
    32
  0
VERTEX
  8
0
  5
6B6
 10
63.7944
 20
43.0911
 30
0.00000
  70
    32
  0
VERTEX
  8
0
  5
6B7
 10
63.9421
 20
43.0992
 30
0.00000
  70
    32
  0
VERTEX
  8
0
  5
6B8
 10
64.0899
 20
43.1073
 30
0.00000
  70
    32
  0
VERTEX
  8
0
  5
6B9
 10
64.2376
 20
43.1153
 30
0.00000
  70
    32
  0
VERTEX
  8
0
  5
6BA
 10
64.3853
 20
43.1233
 30
0.00000
  70
    32
  0
VERTEX
  8
0
  5
6BB
 10
64.5331
 20
43.1311
 30
0.00000
  70
    32
  0
VERTEX
  8
0
  5
6BC
 10
64.6808
 20
43.1389
 30
0.00000
  70
    32
  0
VERTEX
  8
0
  5
6BD
 10
64.8285
 20
43.1465
 30
0.00000
  70
    32
  0
VERTEX
  8
0
  5
6BE
 10
64.9763
 20
43.1541
 30
0.00000
  70
    32
  0
VERTEX
  8
0
  5
6BF
 10
65.1240
 20
43.1617
 30
0.00000
  70
    32
  0
VERTEX
  8
0
  5
6C0
 10
65.2718
 20
43.1691
 30
0.00000
  70
    32
  0
VERTEX
  8
0
  5
6C1
 10
65.4196
 20
43.1765
 30
0.00000
  70
    32
  0
VERTEX
  8
0
  5
6C2
 10
65.5673
 20
43.1837
 30
0.00000
  70
    32
  0
VERTEX
  8
0
  5
6C3
 10
65.7151
 20
43.1909
 30
0.00000
  70
    32
  0
VERTEX
  8
0
  5
6C4
 10
65.8629
 20
43.1980
 30
0.00000
  70
    32
  0
VERTEX
  8
0
  5
6C5
 10
66.0106
 20
43.2051
 30
0.00000
  70
    32
  0
VERTEX
  8
0
  5
6C6
 10
66.1584
 20
43.2120
 30
0.00000
  70
    32
  0
VERTEX
  8
0
  5
6C7
 10
66.3062
 20
43.2189
 30
0.00000
  70
    32
  0
VERTEX
  8
0
  5
6C8
 10
66.4540
 20
43.2257
 30
0.00000
  70
    32
  0
VERTEX
  8
0
  5
6C9
 10
66.6018
 20
43.2324
 30
0.00000
  70
    32
  0
VERTEX
  8
0
  5
6CA
 10
66.7496
 20
43.2390
 30
0.00000
  70
    32
  0
VERTEX
  8
0
  5
6CB
 10
66.8974
 20
43.2456
 30
0.00000
  70
    32
  0
VERTEX
  8
0
  5
6CC
 10
67.0452
 20
43.2520
 30
0.00000
  70
    32
  0
VERTEX
  8
0
  5
6CD
 10
67.1930
 20
43.2584
 30
0.00000
  70
    32
  0
VERTEX
  8
0
  5
6CE
 10
67.3408
 20
43.2647
 30
0.00000
  70
    32
  0
VERTEX
  8
0
  5
6CF
 10
67.4886
 20
43.2709
 30
0.00000
  70
    32
  0
VERTEX
  8
0
  5
6D0
 10
67.6365
 20
43.2771
 30
0.00000
  70
    32
  0
VERTEX
  8
0
  5
6D1
 10
67.7843
 20
43.2831
 30
0.00000
  70
    32
  0
VERTEX
  8
0
  5
6D2
 10
67.9321
 20
43.2891
 30
0.00000
  70
    32
  0
VERTEX
  8
0
  5
6D3
 10
68.0799
 20
43.2950
 30
0.00000
  70
    32
  0
VERTEX
  8
0
  5
6D4
 10
68.2278
 20
43.3008
 30
0.00000
  70
    32
  0
VERTEX
  8
0
  5
6D5
 10
68.3756
 20
43.3065
 30
0.00000
  70
    32
  0
VERTEX
  8
0
  5
6D6
 10
68.5234
 20
43.3122
 30
0.00000
  70
    32
  0
VERTEX
  8
0
  5
6D7
 10
68.6713
 20
43.3178
 30
0.00000
  70
    32
  0
VERTEX
  8
0
  5
6D8
 10
68.8191
 20
43.3233
 30
0.00000
  70
    32
  0
VERTEX
  8
0
  5
6D9
 10
68.9670
 20
43.3287
 30
0.00000
  70
    32
  0
VERTEX
  8
0
  5
6DA
 10
69.1148
 20
43.3340
 30
0.00000
  70
    32
  0
VERTEX
  8
0
  5
6DB
 10
69.2627
 20
43.3392
 30
0.00000
  70
    32
  0
VERTEX
  8
0
  5
6DC
 10
69.4105
 20
43.3444
 30
0.00000
  70
    32
  0
VERTEX
  8
0
  5
6DD
 10
69.5584
 20
43.3495
 30
0.00000
  70
    32
  0
VERTEX
  8
0
  5
6DE
 10
69.7063
 20
43.3545
 30
0.00000
  70
    32
  0
VERTEX
  8
0
  5
6DF
 10
69.8541
 20
43.3594
 30
0.00000
  70
    32
  0
VERTEX
  8
0
  5
6E0
 10
70.0020
 20
43.3642
 30
0.00000
  70
    32
  0
VERTEX
  8
0
  5
6E1
 10
70.1499
 20
43.3690
 30
0.00000
  70
    32
  0
VERTEX
  8
0
  5
6E2
 10
70.2977
 20
43.3736
 30
0.00000
  70
    32
  0
VERTEX
  8
0
  5
6E3
 10
70.4456
 20
43.3782
 30
0.00000
  70
    32
  0
VERTEX
  8
0
  5
6E4
 10
70.5935
 20
43.3827
 30
0.00000
  70
    32
  0
VERTEX
  8
0
  5
6E5
 10
70.7414
 20
43.3872
 30
0.00000
  70
    32
  0
VERTEX
  8
0
  5
6E6
 10
70.8893
 20
43.3915
 30
0.00000
  70
    32
  0
VERTEX
  8
0
  5
6E7
 10
71.0371
 20
43.3958
 30
0.00000
  70
    32
  0
VERTEX
  8
0
  5
6E8
 10
71.1850
 20
43.3999
 30
0.00000
  70
    32
  0
VERTEX
  8
0
  5
6E9
 10
71.3329
 20
43.4040
 30
0.00000
  70
    32
  0
VERTEX
  8
0
  5
6EA
 10
71.4808
 20
43.4081
 30
0.00000
  70
    32
  0
VERTEX
  8
0
  5
6EB
 10
71.6287
 20
43.4120
 30
0.00000
  70
    32
  0
VERTEX
  8
0
  5
6EC
 10
71.7766
 20
43.4158
 30
0.00000
  70
    32
  0
VERTEX
  8
0
  5
6ED
 10
71.9245
 20
43.4196
 30
0.00000
  70
    32
  0
VERTEX
  8
0
  5
6EE
 10
72.0724
 20
43.4233
 30
0.00000
  70
    32
  0
VERTEX
  8
0
  5
6EF
 10
72.2203
 20
43.4269
 30
0.00000
  70
    32
  0
VERTEX
  8
0
  5
6F0
 10
72.3682
 20
43.4304
 30
0.00000
  70
    32
  0
VERTEX
  8
0
  5
6F1
 10
72.5161
 20
43.4339
 30
0.00000
  70
    32
  0
VERTEX
  8
0
  5
6F2
 10
72.6640
 20
43.4372
 30
0.00000
  70
    32
  0
VERTEX
  8
0
  5
6F3
 10
72.8120
 20
43.4405
 30
0.00000
  70
    32
  0
VERTEX
  8
0
  5
6F4
 10
72.9599
 20
43.4437
 30
0.00000
  70
    32
  0
VERTEX
  8
0
  5
6F5
 10
73.1078
 20
43.4468
 30
0.00000
  70
    32
  0
VERTEX
  8
0
  5
6F6
 10
73.2557
 20
43.4498
 30
0.00000
  70
    32
  0
VERTEX
  8
0
  5
6F7
 10
73.4036
 20
43.4528
 30
0.00000
  70
    32
  0
VERTEX
  8
0
  5
6F8
 10
73.5515
 20
43.4557
 30
0.00000
  70
    32
  0
VERTEX
  8
0
  5
6F9
 10
73.6995
 20
43.4584
 30
0.00000
  70
    32
  0
VERTEX
  8
0
  5
6FA
 10
73.8474
 20
43.4611
 30
0.00000
  70
    32
  0
VERTEX
  8
0
  5
6FB
 10
73.9953
 20
43.4638
 30
0.00000
  70
    32
  0
VERTEX
  8
0
  5
6FC
 10
74.1433
 20
43.4663
 30
0.00000
  70
    32
  0
VERTEX
  8
0
  5
6FD
 10
74.2912
 20
43.4687
 30
0.00000
  70
    32
  0
VERTEX
  8
0
  5
6FE
 10
74.4391
 20
43.4711
 30
0.00000
  70
    32
  0
VERTEX
  8
0
  5
6FF
 10
74.5871
 20
43.4734
 30
0.00000
  70
    32
  0
VERTEX
  8
0
  5
700
 10
74.7350
 20
43.4756
 30
0.00000
  70
    32
  0
VERTEX
  8
0
  5
701
 10
74.8829
 20
43.4777
 30
0.00000
  70
    32
  0
VERTEX
  8
0
  5
702
 10
75.0309
 20
43.4798
 30
0.00000
  70
    32
  0
VERTEX
  8
0
  5
703
 10
75.1788
 20
43.4817
 30
0.00000
  70
    32
  0
VERTEX
  8
0
  5
704
 10
75.3267
 20
43.4836
 30
0.00000
  70
    32
  0
VERTEX
  8
0
  5
705
 10
75.4747
 20
43.4854
 30
0.00000
  70
    32
  0
VERTEX
  8
0
  5
706
 10
75.6226
 20
43.4871
 30
0.00000
  70
    32
  0
VERTEX
  8
0
  5
707
 10
75.7706
 20
43.4887
 30
0.00000
  70
    32
  0
VERTEX
  8
0
  5
708
 10
75.9185
 20
43.4903
 30
0.00000
  70
    32
  0
VERTEX
  8
0
  5
709
 10
76.0665
 20
43.4917
 30
0.00000
  70
    32
  0
VERTEX
  8
0
  5
70A
 10
76.2144
 20
43.4931
 30
0.00000
  70
    32
  0
VERTEX
  8
0
  5
70B
 10
76.3624
 20
43.4944
 30
0.00000
  70
    32
  0
VERTEX
  8
0
  5
70C
 10
76.5103
 20
43.4956
 30
0.00000
  70
    32
  0
VERTEX
  8
0
  5
70D
 10
76.6582
 20
43.4968
 30
0.00000
  70
    32
  0
VERTEX
  8
0
  5
70E
 10
76.8062
 20
43.4978
 30
0.00000
  70
    32
  0
VERTEX
  8
0
  5
70F
 10
76.9541
 20
43.4988
 30
0.00000
  70
    32
  0
VERTEX
  8
0
  5
710
 10
77.1021
 20
43.4997
 30
0.00000
  70
    32
  0
VERTEX
  8
0
  5
711
 10
77.2501
 20
43.5005
 30
0.00000
  70
    32
  0
VERTEX
  8
0
  5
712
 10
77.3980
 20
43.5012
 30
0.00000
  70
    32
  0
VERTEX
  8
0
  5
713
 10
77.5460
 20
43.5018
 30
0.00000
  70
    32
  0
VERTEX
  8
0
  5
714
 10
77.6939
 20
43.5024
 30
0.00000
  70
    32
  0
VERTEX
  8
0
  5
715
 10
77.8419
 20
43.5028
 30
0.00000
  70
    32
  0
VERTEX
  8
0
  5
716
 10
77.9898
 20
43.5032
 30
0.00000
  70
    32
  0
VERTEX
  8
0
  5
717
 10
78.1378
 20
43.5035
 30
0.00000
  70
    32
  0
VERTEX
  8
0
  5
718
 10
78.2857
 20
43.5037
 30
0.00000
  70
    32
  0
VERTEX
  8
0
  5
719
 10
78.4337
 20
43.5039
 30
0.00000
  70
    32
  0
VERTEX
  8
0
  5
71A
 10
78.5816
 20
43.5039
 30
0.00000
  70
    32
  0
VERTEX
  8
0
  5
71B
 10
78.7296
 20
43.5039
 30
0.00000
  70
    32
  0
VERTEX
  8
0
  5
71C
 10
78.8776
 20
43.5038
 30
0.00000
  70
    32
  0
VERTEX
  8
0
  5
71D
 10
79.0255
 20
43.5036
 30
0.00000
  70
    32
  0
VERTEX
  8
0
  5
71E
 10
79.1735
 20
43.5033
 30
0.00000
  70
    32
  0
VERTEX
  8
0
  5
71F
 10
79.3214
 20
43.5029
 30
0.00000
  70
    32
  0
VERTEX
  8
0
  5
720
 10
79.4694
 20
43.5025
 30
0.00000
  70
    32
  0
VERTEX
  8
0
  5
721
 10
79.6173
 20
43.5020
 30
0.00000
  70
    32
  0
VERTEX
  8
0
  5
722
 10
79.7653
 20
43.5013
 30
0.00000
  70
    32
  0
VERTEX
  8
0
  5
723
 10
79.9133
 20
43.5006
 30
0.00000
  70
    32
  0
VERTEX
  8
0
  5
724
 10
80.0612
 20
43.4999
 30
0.00000
  70
    32
  0
VERTEX
  8
0
  5
725
 10
80.2092
 20
43.4990
 30
0.00000
  70
    32
  0
VERTEX
  8
0
  5
726
 10
80.3571
 20
43.4981
 30
0.00000
  70
    32
  0
VERTEX
  8
0
  5
727
 10
80.5051
 20
43.4970
 30
0.00000
  70
    32
  0
VERTEX
  8
0
  5
728
 10
80.6530
 20
43.4959
 30
0.00000
  70
    32
  0
VERTEX
  8
0
  5
729
 10
80.8010
 20
43.4947
 30
0.00000
  70
    32
  0
VERTEX
  8
0
  5
72A
 10
80.9490
 20
43.4934
 30
0.00000
  70
    32
  0
VERTEX
  8
0
  5
72B
 10
81.0969
 20
43.4921
 30
0.00000
  70
    32
  0
VERTEX
  8
0
  5
72C
 10
81.2449
 20
43.4906
 30
0.00000
  70
    32
  0
VERTEX
  8
0
  5
72D
 10
81.3928
 20
43.4891
 30
0.00000
  70
    32
  0
VERTEX
  8
0
  5
72E
 10
81.5408
 20
43.4875
 30
0.00000
  70
    32
  0
VERTEX
  8
0
  5
72F
 10
81.6887
 20
43.4858
 30
0.00000
  70
    32
  0
VERTEX
  8
0
  5
730
 10
81.8367
 20
43.4840
 30
0.00000
  70
    32
  0
VERTEX
  8
0
  5
731
 10
81.9846
 20
43.4821
 30
0.00000
  70
    32
  0
VERTEX
  8
0
  5
732
 10
82.1326
 20
43.4802
 30
0.00000
  70
    32
  0
VERTEX
  8
0
  5
733
 10
82.2805
 20
43.4781
 30
0.00000
  70
    32
  0
VERTEX
  8
0
  5
734
 10
82.4285
 20
43.4760
 30
0.00000
  70
    32
  0
VERTEX
  8
0
  5
735
 10
82.5764
 20
43.4738
 30
0.00000
  70
    32
  0
VERTEX
  8
0
  5
736
 10
82.7244
 20
43.4715
 30
0.00000
  70
    32
  0
VERTEX
  8
0
  5
737
 10
82.8723
 20
43.4692
 30
0.00000
  70
    32
  0
VERTEX
  8
0
  5
738
 10
83.0203
 20
43.4667
 30
0.00000
  70
    32
  0
VERTEX
  8
0
  5
739
 10
83.1682
 20
43.4642
 30
0.00000
  70
    32
  0
VERTEX
  8
0
  5
73A
 10
83.3161
 20
43.4616
 30
0.00000
  70
    32
  0
VERTEX
  8
0
  5
73B
 10
83.4641
 20
43.4589
 30
0.00000
  70
    32
  0
VERTEX
  8
0
  5
73C
 10
83.6120
 20
43.4561
 30
0.00000
  70
    32
  0
VERTEX
  8
0
  5
73D
 10
83.7600
 20
43.4532
 30
0.00000
  70
    32
  0
VERTEX
  8
0
  5
73E
 10
83.9079
 20
43.4503
 30
0.00000
  70
    32
  0
VERTEX
  8
0
  5
73F
 10
84.0558
 20
43.4472
 30
0.00000
  70
    32
  0
VERTEX
  8
0
  5
740
 10
84.2038
 20
43.4441
 30
0.00000
  70
    32
  0
VERTEX
  8
0
  5
741
 10
84.3517
 20
43.4409
 30
0.00000
  70
    32
  0
VERTEX
  8
0
  5
742
 10
84.4996
 20
43.4376
 30
0.00000
  70
    32
  0
VERTEX
  8
0
  5
743
 10
84.6476
 20
43.4342
 30
0.00000
  70
    32
  0
VERTEX
  8
0
  5
744
 10
84.7955
 20
43.4308
 30
0.00000
  70
    32
  0
VERTEX
  8
0
  5
745
 10
84.9434
 20
43.4272
 30
0.00000
  70
    32
  0
VERTEX
  8
0
  5
746
 10
85.0913
 20
43.4236
 30
0.00000
  70
    32
  0
VERTEX
  8
0
  5
747
 10
85.2392
 20
43.4199
 30
0.00000
  70
    32
  0
VERTEX
  8
0
  5
748
 10
85.3872
 20
43.4161
 30
0.00000
  70
    32
  0
VERTEX
  8
0
  5
749
 10
85.5351
 20
43.4122
 30
0.00000
  70
    32
  0
VERTEX
  8
0
  5
74A
 10
85.6830
 20
43.4083
 30
0.00000
  70
    32
  0
VERTEX
  8
0
  5
74B
 10
85.8309
 20
43.4042
 30
0.00000
  70
    32
  0
VERTEX
  8
0
  5
74C
 10
85.9788
 20
43.4001
 30
0.00000
  70
    32
  0
VERTEX
  8
0
  5
74D
 10
86.1267
 20
43.3959
 30
0.00000
  70
    32
  0
VERTEX
  8
0
  5
74E
 10
86.2746
 20
43.3916
 30
0.00000
  70
    32
  0
VERTEX
  8
0
  5
74F
 10
86.4225
 20
43.3872
 30
0.00000
  70
    32
  0
VERTEX
  8
0
  5
750
 10
86.5704
 20
43.3827
 30
0.00000
  70
    32
  0
VERTEX
  8
0
  5
751
 10
86.6980
 20
43.3390
 30
0.00000
  70
    32
  0
VERTEX
  8
0
  5
752
 10
86.2973
 20
42.2795
 30
0.00000
  70
    32
  0
VERTEX
  8
0
  5
753
 10
85.8967
 20
41.2200
 30
0.00000
  70
    32
  0
VERTEX
  8
0
  5
754
 10
85.4960
 20
40.1604
 30
0.00000
  70
    32
  0
VERTEX
  8
0
  5
755
 10
85.0954
 20
39.1009
 30
0.00000
  70
    32
  0
VERTEX
  8
0
  5
756
 10
84.6948
 20
38.0414
 30
0.00000
  70
    32
  0
VERTEX
  8
0
  5
757
 10
84.2941
 20
36.9818
 30
0.00000
  70
    32
  0
VERTEX
  8
0
  5
758
 10
83.9907
 20
36.1772
 30
0.00000
  70
    32
  0
VERTEX
  8
0
  5
759
 10
83.9546
 20
36.0338
 30
0.00000
  70
    32
  0
VERTEX
  8
0
  5
75A
 10
83.8850
 20
35.3763
 30
0.00000
  70
    32
  0
VERTEX
  8
0
  5
75B
 10
83.7698
 20
34.2494
 30
0.00000
  70
    32
  0
VERTEX
  8
0
  5
75C
 10
83.6547
 20
33.1225
 30
0.00000
  70
    32
  0
VERTEX
  8
0
  5
75D
 10
83.5396
 20
31.9956
 30
0.00000
  70
    32
  0
VERTEX
  8
0
  5
75E
 10
83.4245
 20
30.8687
 30
0.00000
  70
    32
  0
VERTEX
  8
0
  5
75F
 10
83.3094
 20
29.7418
 30
0.00000
  70
    32
  0
VERTEX
  8
0
  5
760
 10
83.1943
 20
28.6149
 30
0.00000
  70
    32
  0
VERTEX
  8
0
  5
761
 10
83.0586
 20
28.3773
 30
0.00000
  70
    32
  0
VERTEX
  8
0
  5
762
 10
82.9165
 20
28.4186
 30
0.00000
  70
    32
  0
VERTEX
  8
0
  5
763
 10
82.7743
 20
28.4598
 30
0.00000
  70
    32
  0
VERTEX
  8
0
  5
764
 10
82.6321
 20
28.5008
 30
0.00000
  70
    32
  0
VERTEX
  8
0
  5
765
 10
82.4898
 20
28.5416
 30
0.00000
  70
    32
  0
VERTEX
  8
0
  5
766
 10
82.3475
 20
28.5824
 30
0.00000
  70
    32
  0
VERTEX
  8
0
  5
767
 10
82.2051
 20
28.6229
 30
0.00000
  70
    32
  0
VERTEX
  8
0
  5
768
 10
82.0627
 20
28.6633
 30
0.00000
  70
    32
  0
VERTEX
  8
0
  5
769
 10
81.9203
 20
28.7036
 30
0.00000
  70
    32
  0
VERTEX
  8
0
  5
76A
 10
81.7778
 20
28.7437
 30
0.00000
  70
    32
  0
VERTEX
  8
0
  5
76B
 10
81.6353
 20
28.7837
 30
0.00000
  70
    32
  0
VERTEX
  8
0
  5
76C
 10
81.4927
 20
28.8236
 30
0.00000
  70
    32
  0
VERTEX
  8
0
  5
76D
 10
81.3501
 20
28.8633
 30
0.00000
  70
    32
  0
VERTEX
  8
0
  5
76E
 10
81.2075
 20
28.9028
 30
0.00000
  70
    32
  0
VERTEX
  8
0
  5
76F
 10
81.0648
 20
28.9422
 30
0.00000
  70
    32
  0
VERTEX
  8
0
  5
770
 10
80.9220
 20
28.9814
 30
0.00000
  70
    32
  0
VERTEX
  8
0
  5
771
 10
80.7793
 20
29.0206
 30
0.00000
  70
    32
  0
VERTEX
  8
0
  5
772
 10
80.6365
 20
29.0595
 30
0.00000
  70
    32
  0
VERTEX
  8
0
  5
773
 10
80.4936
 20
29.0983
 30
0.00000
  70
    32
  0
VERTEX
  8
0
  5
774
 10
80.3507
 20
29.1370
 30
0.00000
  70
    32
  0
VERTEX
  8
0
  5
775
 10
80.2078
 20
29.1755
 30
0.00000
  70
    32
  0
VERTEX
  8
0
  5
776
 10
80.0648
 20
29.2139
 30
0.00000
  70
    32
  0
VERTEX
  8
0
  5
777
 10
79.9218
 20
29.2521
 30
0.00000
  70
    32
  0
VERTEX
  8
0
  5
778
 10
79.7788
 20
29.2902
 30
0.00000
  70
    32
  0
VERTEX
  8
0
  5
779
 10
79.6357
 20
29.3281
 30
0.00000
  70
    32
  0
VERTEX
  8
0
  5
77A
 10
79.4925
 20
29.3659
 30
0.00000
  70
    32
  0
VERTEX
  8
0
  5
77B
 10
79.3494
 20
29.4036
 30
0.00000
  70
    32
  0
VERTEX
  8
0
  5
77C
 10
79.2062
 20
29.4411
 30
0.00000
  70
    32
  0
VERTEX
  8
0
  5
77D
 10
79.0629
 20
29.4784
 30
0.00000
  70
    32
  0
VERTEX
  8
0
  5
77E
 10
78.9196
 20
29.5157
 30
0.00000
  70
    32
  0
VERTEX
  8
0
  5
77F
 10
78.7763
 20
29.5527
 30
0.00000
  70
    32
  0
VERTEX
  8
0
  5
780
 10
78.6329
 20
29.5897
 30
0.00000
  70
    32
  0
VERTEX
  8
0
  5
781
 10
78.4895
 20
29.6264
 30
0.00000
  70
    32
  0
VERTEX
  8
0
  5
782
 10
78.3461
 20
29.6631
 30
0.00000
  70
    32
  0
VERTEX
  8
0
  5
783
 10
78.2026
 20
29.6995
 30
0.00000
  70
    32
  0
VERTEX
  8
0
  5
784
 10
78.0591
 20
29.7359
 30
0.00000
  70
    32
  0
VERTEX
  8
0
  5
785
 10
77.9156
 20
29.7721
 30
0.00000
  70
    32
  0
VERTEX
  8
0
  5
786
 10
77.7720
 20
29.8081
 30
0.00000
  70
    32
  0
VERTEX
  8
0
  5
787
 10
77.6284
 20
29.8441
 30
0.00000
  70
    32
  0
VERTEX
  8
0
  5
788
 10
77.4847
 20
29.8798
 30
0.00000
  70
    32
  0
VERTEX
  8
0
  5
789
 10
77.3410
 20
29.9154
 30
0.00000
  70
    32
  0
VERTEX
  8
0
  5
78A
 10
77.1973
 20
29.9509
 30
0.00000
  70
    32
  0
VERTEX
  8
0
  5
78B
 10
77.0535
 20
29.9862
 30
0.00000
  70
    32
  0
VERTEX
  8
0
  5
78C
 10
76.9097
 20
30.0214
 30
0.00000
  70
    32
  0
VERTEX
  8
0
  5
78D
 10
76.7659
 20
30.0565
 30
0.00000
  70
    32
  0
VERTEX
  8
0
  5
78E
 10
76.6220
 20
30.0914
 30
0.00000
  70
    32
  0
VERTEX
  8
0
  5
78F
 10
76.4781
 20
30.1261
 30
0.00000
  70
    32
  0
VERTEX
  8
0
  5
790
 10
76.3342
 20
30.1607
 30
0.00000
  70
    32
  0
VERTEX
  8
0
  5
791
 10
76.1902
 20
30.1952
 30
0.00000
  70
    32
  0
VERTEX
  8
0
  5
792
 10
76.0462
 20
30.2295
 30
0.00000
  70
    32
  0
VERTEX
  8
0
  5
793
 10
75.9021
 20
30.2637
 30
0.00000
  70
    32
  0
VERTEX
  8
0
  5
794
 10
75.7581
 20
30.2977
 30
0.00000
  70
    32
  0
VERTEX
  8
0
  5
795
 10
75.6140
 20
30.3316
 30
0.00000
  70
    32
  0
VERTEX
  8
0
  5
796
 10
75.4698
 20
30.3654
 30
0.00000
  70
    32
  0
VERTEX
  8
0
  5
797
 10
75.3256
 20
30.3990
 30
0.00000
  70
    32
  0
VERTEX
  8
0
  5
798
 10
75.1814
 20
30.4324
 30
0.00000
  70
    32
  0
VERTEX
  8
0
  5
799
 10
75.0372
 20
30.4658
 30
0.00000
  70
    32
  0
VERTEX
  8
0
  5
79A
 10
74.8929
 20
30.4989
 30
0.00000
  70
    32
  0
VERTEX
  8
0
  5
79B
 10
74.7486
 20
30.5320
 30
0.00000
  70
    32
  0
VERTEX
  8
0
  5
79C
 10
74.6042
 20
30.5649
 30
0.00000
  70
    32
  0
VERTEX
  8
0
  5
79D
 10
74.4599
 20
30.5976
 30
0.00000
  70
    32
  0
VERTEX
  8
0
  5
79E
 10
74.3155
 20
30.6302
 30
0.00000
  70
    32
  0
VERTEX
  8
0
  5
79F
 10
74.1710
 20
30.6627
 30
0.00000
  70
    32
  0
VERTEX
  8
0
  5
7A0
 10
74.0266
 20
30.6950
 30
0.00000
  70
    32
  0
VERTEX
  8
0
  5
7A1
 10
73.8821
 20
30.7272
 30
0.00000
  70
    32
  0
VERTEX
  8
0
  5
7A2
 10
73.7375
 20
30.7592
 30
0.00000
  70
    32
  0
VERTEX
  8
0
  5
7A3
 10
73.5930
 20
30.7911
 30
0.00000
  70
    32
  0
VERTEX
  8
0
  5
7A4
 10
73.4484
 20
30.8228
 30
0.00000
  70
    32
  0
VERTEX
  8
0
  5
7A5
 10
73.3037
 20
30.8544
 30
0.00000
  70
    32
  0
VERTEX
  8
0
  5
7A6
 10
73.1591
 20
30.8859
 30
0.00000
  70
    32
  0
VERTEX
  8
0
  5
7A7
 10
73.0144
 20
30.9172
 30
0.00000
  70
    32
  0
VERTEX
  8
0
  5
7A8
 10
72.8697
 20
30.9484
 30
0.00000
  70
    32
  0
VERTEX
  8
0
  5
7A9
 10
72.7250
 20
30.9794
 30
0.00000
  70
    32
  0
VERTEX
  8
0
  5
7AA
 10
72.5802
 20
31.0103
 30
0.00000
  70
    32
  0
VERTEX
  8
0
  5
7AB
 10
72.4354
 20
31.0410
 30
0.00000
  70
    32
  0
VERTEX
  8
0
  5
7AC
 10
72.2905
 20
31.0716
 30
0.00000
  70
    32
  0
VERTEX
  8
0
  5
7AD
 10
72.1457
 20
31.1021
 30
0.00000
  70
    32
  0
VERTEX
  8
0
  5
7AE
 10
72.0008
 20
31.1324
 30
0.00000
  70
    32
  0
VERTEX
  8
0
  5
7AF
 10
71.8559
 20
31.1626
 30
0.00000
  70
    32
  0
VERTEX
  8
0
  5
7B0
 10
71.7109
 20
31.1926
 30
0.00000
  70
    32
  0
VERTEX
  8
0
  5
7B1
 10
71.5659
 20
31.2225
 30
0.00000
  70
    32
  0
VERTEX
  8
0
  5
7B2
 10
71.4209
 20
31.2523
 30
0.00000
  70
    32
  0
VERTEX
  8
0
  5
7B3
 10
71.2759
 20
31.2819
 30
0.00000
  70
    32
  0
VERTEX
  8
0
  5
7B4
 10
71.1309
 20
31.3114
 30
0.00000
  70
    32
  0
VERTEX
  8
0
  5
7B5
 10
70.9858
 20
31.3407
 30
0.00000
  70
    32
  0
VERTEX
  8
0
  5
7B6
 10
70.8406
 20
31.3699
 30
0.00000
  70
    32
  0
VERTEX
  8
0
  5
7B7
 10
70.6955
 20
31.3989
 30
0.00000
  70
    32
  0
VERTEX
  8
0
  5
7B8
 10
70.5503
 20
31.4278
 30
0.00000
  70
    32
  0
VERTEX
  8
0
  5
7B9
 10
70.4051
 20
31.4566
 30
0.00000
  70
    32
  0
VERTEX
  8
0
  5
7BA
 10
70.2599
 20
31.4852
 30
0.00000
  70
    32
  0
VERTEX
  8
0
  5
7BB
 10
70.1147
 20
31.5137
 30
0.00000
  70
    32
  0
VERTEX
  8
0
  5
7BC
 10
69.9694
 20
31.5420
 30
0.00000
  70
    32
  0
VERTEX
  8
0
  5
7BD
 10
69.8241
 20
31.5702
 30
0.00000
  70
    32
  0
VERTEX
  8
0
  5
7BE
 10
69.6787
 20
31.5983
 30
0.00000
  70
    32
  0
VERTEX
  8
0
  5
7BF
 10
69.5334
 20
31.6262
 30
0.00000
  70
    32
  0
VERTEX
  8
0
  5
7C0
 10
69.3880
 20
31.6540
 30
0.00000
  70
    32
  0
VERTEX
  8
0
  5
7C1
 10
69.2426
 20
31.6816
 30
0.00000
  70
    32
  0
VERTEX
  8
0
  5
7C2
 10
69.0971
 20
31.7091
 30
0.00000
  70
    32
  0
VERTEX
  8
0
  5
7C3
 10
68.9517
 20
31.7365
 30
0.00000
  70
    32
  0
VERTEX
  8
0
  5
7C4
 10
68.8062
 20
31.7637
 30
0.00000
  70
    32
  0
VERTEX
  8
0
  5
7C5
 10
68.6607
 20
31.7908
 30
0.00000
  70
    32
  0
VERTEX
  8
0
  5
7C6
 10
68.5151
 20
31.8177
 30
0.00000
  70
    32
  0
VERTEX
  8
0
  5
7C7
 10
68.3696
 20
31.8445
 30
0.00000
  70
    32
  0
VERTEX
  8
0
  5
7C8
 10
68.2240
 20
31.8712
 30
0.00000
  70
    32
  0
VERTEX
  8
0
  5
7C9
 10
68.0784
 20
31.8977
 30
0.00000
  70
    32
  0
VERTEX
  8
0
  5
7CA
 10
67.9327
 20
31.9241
 30
0.00000
  70
    32
  0
VERTEX
  8
0
  5
7CB
 10
67.7870
 20
31.9503
 30
0.00000
  70
    32
  0
VERTEX
  8
0
  5
7CC
 10
67.6414
 20
31.9764
 30
0.00000
  70
    32
  0
VERTEX
  8
0
  5
7CD
 10
67.4956
 20
32.0024
 30
0.00000
  70
    32
  0
VERTEX
  8
0
  5
7CE
 10
67.3499
 20
32.0282
 30
0.00000
  70
    32
  0
VERTEX
  8
0
  5
7CF
 10
67.2041
 20
32.0539
 30
0.00000
  70
    32
  0
VERTEX
  8
0
  5
7D0
 10
67.0583
 20
32.0794
 30
0.00000
  70
    32
  0
VERTEX
  8
0
  5
7D1
 10
66.9125
 20
32.1048
 30
0.00000
  70
    32
  0
VERTEX
  8
0
  5
7D2
 10
66.7667
 20
32.1301
 30
0.00000
  70
    32
  0
VERTEX
  8
0
  5
7D3
 10
66.6208
 20
32.1552
 30
0.00000
  70
    32
  0
VERTEX
  8
0
  5
7D4
 10
66.4749
 20
32.1802
 30
0.00000
  70
    32
  0
VERTEX
  8
0
  5
7D5
 10
66.3290
 20
32.2051
 30
0.00000
  70
    32
  0
VERTEX
  8
0
  5
7D6
 10
66.1831
 20
32.2298
 30
0.00000
  70
    32
  0
VERTEX
  8
0
  5
7D7
 10
66.0371
 20
32.2544
 30
0.00000
  70
    32
  0
VERTEX
  8
0
  5
7D8
 10
65.8912
 20
32.2788
 30
0.00000
  70
    32
  0
VERTEX
  8
0
  5
7D9
 10
65.7452
 20
32.3031
 30
0.00000
  70
    32
  0
VERTEX
  8
0
  5
7DA
 10
65.5991
 20
32.3273
 30
0.00000
  70
    32
  0
VERTEX
  8
0
  5
7DB
 10
65.4531
 20
32.3513
 30
0.00000
  70
    32
  0
VERTEX
  8
0
  5
7DC
 10
65.3070
 20
32.3752
 30
0.00000
  70
    32
  0
VERTEX
  8
0
  5
7DD
 10
65.1609
 20
32.3989
 30
0.00000
  70
    32
  0
VERTEX
  8
0
  5
7DE
 10
65.0148
 20
32.4225
 30
0.00000
  70
    32
  0
VERTEX
  8
0
  5
7DF
 10
64.8687
 20
32.4460
 30
0.00000
  70
    32
  0
VERTEX
  8
0
  5
7E0
 10
64.7225
 20
32.4693
 30
0.00000
  70
    32
  0
VERTEX
  8
0
  5
7E1
 10
64.5763
 20
32.4925
 30
0.00000
  70
    32
  0
VERTEX
  8
0
  5
7E2
 10
64.4301
 20
32.5156
 30
0.00000
  70
    32
  0
VERTEX
  8
0
  5
7E3
 10
64.2839
 20
32.5385
 30
0.00000
  70
    32
  0
VERTEX
  8
0
  5
7E4
 10
64.1376
 20
32.5613
 30
0.00000
  70
    32
  0
VERTEX
  8
0
  5
7E5
 10
63.9914
 20
32.5839
 30
0.00000
  70
    32
  0
VERTEX
  8
0
  5
7E6
 10
63.8451
 20
32.6065
 30
0.00000
  70
    32
  0
VERTEX
  8
0
  5
7E7
 10
63.6988
 20
32.6288
 30
0.00000
  70
    32
  0
VERTEX
  8
0
  5
7E8
 10
63.5524
 20
32.6511
 30
0.00000
  70
    32
  0
VERTEX
  8
0
  5
7E9
 10
63.4061
 20
32.6732
 30
0.00000
  70
    32
  0
VERTEX
  8
0
  5
7EA
 10
63.2597
 20
32.6951
 30
0.00000
  70
    32
  0
VERTEX
  8
0
  5
7EB
 10
63.1133
 20
32.7170
 30
0.00000
  70
    32
  0
VERTEX
  8
0
  5
7EC
 10
62.9669
 20
32.7387
 30
0.00000
  70
    32
  0
VERTEX
  8
0
  5
7ED
 10
62.8205
 20
32.7602
 30
0.00000
  70
    32
  0
VERTEX
  8
0
  5
7EE
 10
62.6740
 20
32.7816
 30
0.00000
  70
    32
  0
VERTEX
  8
0
  5
7EF
 10
62.5275
 20
32.8029
 30
0.00000
  70
    32
  0
VERTEX
  8
0
  5
7F0
 10
62.3810
 20
32.8241
 30
0.00000
  70
    32
  0
VERTEX
  8
0
  5
7F1
 10
62.2345
 20
32.8451
 30
0.00000
  70
    32
  0
VERTEX
  8
0
  5
7F2
 10
62.0880
 20
32.8660
 30
0.00000
  70
    32
  0
VERTEX
  8
0
  5
7F3
 10
61.9414
 20
32.8867
 30
0.00000
  70
    32
  0
VERTEX
  8
0
  5
7F4
 10
61.7948
 20
32.9073
 30
0.00000
  70
    32
  0
VERTEX
  8
0
  5
7F5
 10
61.6483
 20
32.9278
 30
0.00000
  70
    32
  0
VERTEX
  8
0
  5
7F6
 10
61.5016
 20
32.9481
 30
0.00000
  70
    32
  0
VERTEX
  8
0
  5
7F7
 10
61.3550
 20
32.9683
 30
0.00000
  70
    32
  0
VERTEX
  8
0
  5
7F8
 10
61.2084
 20
32.9884
 30
0.00000
  70
    32
  0
VERTEX
  8
0
  5
7F9
 10
61.0617
 20
33.0083
 30
0.00000
  70
    32
  0
VERTEX
  8
0
  5
7FA
 10
60.9150
 20
33.0281
 30
0.00000
  70
    32
  0
VERTEX
  8
0
  5
7FB
 10
60.7683
 20
33.0478
 30
0.00000
  70
    32
  0
VERTEX
  8
0
  5
7FC
 10
60.6216
 20
33.0673
 30
0.00000
  70
    32
  0
VERTEX
  8
0
  5
7FD
 10
60.4748
 20
33.0867
 30
0.00000
  70
    32
  0
VERTEX
  8
0
  5
7FE
 10
60.3281
 20
33.1059
 30
0.00000
  70
    32
  0
VERTEX
  8
0
  5
7FF
 10
60.1813
 20
33.1251
 30
0.00000
  70
    32
  0
VERTEX
  8
0
  5
800
 10
60.0345
 20
33.1440
 30
0.00000
  70
    32
  0
VERTEX
  8
0
  5
801
 10
59.8877
 20
33.1629
 30
0.00000
  70
    32
  0
VERTEX
  8
0
  5
802
 10
59.7408
 20
33.1816
 30
0.00000
  70
    32
  0
VERTEX
  8
0
  5
803
 10
59.5940
 20
33.2002
 30
0.00000
  70
    32
  0
VERTEX
  8
0
  5
804
 10
59.4471
 20
33.2186
 30
0.00000
  70
    32
  0
VERTEX
  8
0
  5
805
 10
59.3002
 20
33.2370
 30
0.00000
  70
    32
  0
VERTEX
  8
0
  5
806
 10
59.1533
 20
33.2551
 30
0.00000
  70
    32
  0
VERTEX
  8
0
  5
807
 10
59.0064
 20
33.2732
 30
0.00000
  70
    32
  0
VERTEX
  8
0
  5
808
 10
58.8595
 20
33.2911
 30
0.00000
  70
    32
  0
VERTEX
  8
0
  5
809
 10
58.7125
 20
33.3089
 30
0.00000
  70
    32
  0
VERTEX
  8
0
  5
80A
 10
58.5655
 20
33.3265
 30
0.00000
  70
    32
  0
VERTEX
  8
0
  5
80B
 10
58.4185
 20
33.3440
 30
0.00000
  70
    32
  0
VERTEX
  8
0
  5
80C
 10
58.2715
 20
33.3614
 30
0.00000
  70
    32
  0
VERTEX
  8
0
  5
80D
 10
58.1245
 20
33.3787
 30
0.00000
  70
    32
  0
VERTEX
  8
0
  5
80E
 10
57.9775
 20
33.3958
 30
0.00000
  70
    32
  0
VERTEX
  8
0
  5
80F
 10
57.8304
 20
33.4128
 30
0.00000
  70
    32
  0
VERTEX
  8
0
  5
810
 10
57.6834
 20
33.4296
 30
0.00000
  70
    32
  0
VERTEX
  8
0
  5
811
 10
57.5363
 20
33.4463
 30
0.00000
  70
    32
  0
VERTEX
  8
0
  5
812
 10
57.3892
 20
33.4629
 30
0.00000
  70
    32
  0
VERTEX
  8
0
  5
813
 10
57.2421
 20
33.4794
 30
0.00000
  70
    32
  0
VERTEX
  8
0
  5
814
 10
57.0949
 20
33.4957
 30
0.00000
  70
    32
  0
VERTEX
  8
0
  5
815
 10
56.9478
 20
33.5119
 30
0.00000
  70
    32
  0
VERTEX
  8
0
  5
816
 10
56.8006
 20
33.5279
 30
0.00000
  70
    32
  0
VERTEX
  8
0
  5
817
 10
56.6535
 20
33.5438
 30
0.00000
  70
    32
  0
VERTEX
  8
0
  5
818
 10
56.5063
 20
33.5596
 30
0.00000
  70
    32
  0
VERTEX
  8
0
  5
819
 10
56.3591
 20
33.5753
 30
0.00000
  70
    32
  0
VERTEX
  8
0
  5
81A
 10
56.2119
 20
33.5908
 30
0.00000
  70
    32
  0
VERTEX
  8
0
  5
81B
 10
56.0646
 20
33.6062
 30
0.00000
  70
    32
  0
VERTEX
  8
0
  5
81C
 10
55.9174
 20
33.6214
 30
0.00000
  70
    32
  0
VERTEX
  8
0
  5
81D
 10
55.7701
 20
33.6366
 30
0.00000
  70
    32
  0
VERTEX
  8
0
  5
81E
 10
55.6228
 20
33.6516
 30
0.00000
  70
    32
  0
VERTEX
  8
0
  5
81F
 10
55.4756
 20
33.6664
 30
0.00000
  70
    32
  0
VERTEX
  8
0
  5
820
 10
55.3283
 20
33.6812
 30
0.00000
  70
    32
  0
VERTEX
  8
0
  5
821
 10
55.1809
 20
33.6958
 30
0.00000
  70
    32
  0
VERTEX
  8
0
  5
822
 10
55.0336
 20
33.7102
 30
0.00000
  70
    32
  0
VERTEX
  8
0
  5
823
 10
54.8863
 20
33.7246
 30
0.00000
  70
    32
  0
VERTEX
  8
0
  5
824
 10
54.7389
 20
33.7388
 30
0.00000
  70
    32
  0
VERTEX
  8
0
  5
825
 10
54.5916
 20
33.7529
 30
0.00000
  70
    32
  0
VERTEX
  8
0
  5
826
 10
54.4442
 20
33.7668
 30
0.00000
  70
    32
  0
VERTEX
  8
0
  5
827
 10
54.2968
 20
33.7806
 30
0.00000
  70
    32
  0
VERTEX
  8
0
  5
828
 10
54.1494
 20
33.7943
 30
0.00000
  70
    32
  0
VERTEX
  8
0
  5
829
 10
54.0020
 20
33.8079
 30
0.00000
  70
    32
  0
VERTEX
  8
0
  5
82A
 10
53.8545
 20
33.8213
 30
0.00000
  70
    32
  0
VERTEX
  8
0
  5
82B
 10
53.7071
 20
33.8346
 30
0.00000
  70
    32
  0
VERTEX
  8
0
  5
82C
 10
53.5596
 20
33.8477
 30
0.00000
  70
    32
  0
VERTEX
  8
0
  5
82D
 10
53.4122
 20
33.8608
 30
0.00000
  70
    32
  0
VERTEX
  8
0
  5
82E
 10
53.2647
 20
33.8737
 30
0.00000
  70
    32
  0
VERTEX
  8
0
  5
82F
 10
53.1172
 20
33.8864
 30
0.00000
  70
    32
  0
VERTEX
  8
0
  5
830
 10
52.9697
 20
33.8991
 30
0.00000
  70
    32
  0
VERTEX
  8
0
  5
831
 10
52.8222
 20
33.9116
 30
0.00000
  70
    32
  0
VERTEX
  8
0
  5
832
 10
52.6747
 20
33.9240
 30
0.00000
  70
    32
  0
VERTEX
  8
0
  5
833
 10
52.5271
 20
33.9362
 30
0.00000
  70
    32
  0
VERTEX
  8
0
  5
834
 10
52.3796
 20
33.9484
 30
0.00000
  70
    32
  0
VERTEX
  8
0
  5
835
 10
52.2320
 20
33.9603
 30
0.00000
  70
    32
  0
VERTEX
  8
0
  5
836
 10
52.0845
 20
33.9722
 30
0.00000
  70
    32
  0
VERTEX
  8
0
  5
837
 10
51.9369
 20
33.9839
 30
0.00000
  70
    32
  0
VERTEX
  8
0
  5
838
 10
51.7893
 20
33.9955
 30
0.00000
  70
    32
  0
VERTEX
  8
0
  5
839
 10
51.6417
 20
34.0070
 30
0.00000
  70
    32
  0
VERTEX
  8
0
  5
83A
 10
51.4941
 20
34.0184
 30
0.00000
  70
    32
  0
VERTEX
  8
0
  5
83B
 10
51.3465
 20
34.0296
 30
0.00000
  70
    32
  0
VERTEX
  8
0
  5
83C
 10
51.1988
 20
34.0407
 30
0.00000
  70
    32
  0
VERTEX
  8
0
  5
83D
 10
51.0512
 20
34.0516
 30
0.00000
  70
    32
  0
VERTEX
  8
0
  5
83E
 10
50.9036
 20
34.0624
 30
0.00000
  70
    32
  0
VERTEX
  8
0
  5
83F
 10
50.7559
 20
34.0731
 30
0.00000
  70
    32
  0
VERTEX
  8
0
  5
840
 10
50.6082
 20
34.0837
 30
0.00000
  70
    32
  0
VERTEX
  8
0
  5
841
 10
50.4606
 20
34.0941
 30
0.00000
  70
    32
  0
VERTEX
  8
0
  5
842
 10
50.3129
 20
34.1044
 30
0.00000
  70
    32
  0
VERTEX
  8
0
  5
843
 10
50.1652
 20
34.1145
 30
0.00000
  70
    32
  0
VERTEX
  8
0
  5
844
 10
50.0175
 20
34.1245
 30
0.00000
  70
    32
  0
VERTEX
  8
0
  5
845
 10
49.8698
 20
34.1344
 30
0.00000
  70
    32
  0
VERTEX
  8
0
  5
846
 10
49.7221
 20
34.1442
 30
0.00000
  70
    32
  0
VERTEX
  8
0
  5
847
 10
49.5743
 20
34.1538
 30
0.00000
  70
    32
  0
VERTEX
  8
0
  5
848
 10
49.4266
 20
34.1633
 30
0.00000
  70
    32
  0
VERTEX
  8
0
  5
849
 10
49.2788
 20
34.1726
 30
0.00000
  70
    32
  0
VERTEX
  8
0
  5
84A
 10
49.1311
 20
34.1819
 30
0.00000
  70
    32
  0
VERTEX
  8
0
  5
84B
 10
48.9833
 20
34.1909
 30
0.00000
  70
    32
  0
VERTEX
  8
0
  5
84C
 10
48.8356
 20
34.1999
 30
0.00000
  70
    32
  0
VERTEX
  8
0
  5
84D
 10
48.6878
 20
34.2087
 30
0.00000
  70
    32
  0
VERTEX
  8
0
  5
84E
 10
48.5400
 20
34.2174
 30
0.00000
  70
    32
  0
VERTEX
  8
0
  5
84F
 10
48.3922
 20
34.2259
 30
0.00000
  70
    32
  0
VERTEX
  8
0
  5
850
 10
48.2444
 20
34.2343
 30
0.00000
  70
    32
  0
VERTEX
  8
0
  5
851
 10
48.0966
 20
34.2426
 30
0.00000
  70
    32
  0
VERTEX
  8
0
  5
852
 10
47.9488
 20
34.2507
 30
0.00000
  70
    32
  0
VERTEX
  8
0
  5
853
 10
47.8010
 20
34.2587
 30
0.00000
  70
    32
  0
VERTEX
  8
0
  5
854
 10
47.6532
 20
34.2666
 30
0.00000
  70
    32
  0
VERTEX
  8
0
  5
855
 10
47.5054
 20
34.2743
 30
0.00000
  70
    32
  0
VERTEX
  8
0
  5
856
 10
47.3575
 20
34.2819
 30
0.00000
  70
    32
  0
VERTEX
  8
0
  5
857
 10
47.2097
 20
34.2893
 30
0.00000
  70
    32
  0
VERTEX
  8
0
  5
858
 10
47.0619
 20
34.2967
 30
0.00000
  70
    32
  0
VERTEX
  8
0
  5
859
 10
46.9140
 20
34.3038
 30
0.00000
  70
    32
  0
VERTEX
  8
0
  5
85A
 10
46.7662
 20
34.3109
 30
0.00000
  70
    32
  0
VERTEX
  8
0
  5
85B
 10
46.6183
 20
34.3178
 30
0.00000
  70
    32
  0
VERTEX
  8
0
  5
85C
 10
46.4704
 20
34.3245
 30
0.00000
  70
    32
  0
VERTEX
  8
0
  5
85D
 10
46.3226
 20
34.3311
 30
0.00000
  70
    32
  0
VERTEX
  8
0
  5
85E
 10
46.1747
 20
34.3376
 30
0.00000
  70
    32
  0
VERTEX
  8
0
  5
85F
 10
46.0268
 20
34.3439
 30
0.00000
  70
    32
  0
VERTEX
  8
0
  5
860
 10
45.8789
 20
34.3501
 30
0.00000
  70
    32
  0
VERTEX
  8
0
  5
861
 10
45.7310
 20
34.3562
 30
0.00000
  70
    32
  0
VERTEX
  8
0
  5
862
 10
45.5831
 20
34.3621
 30
0.00000
  70
    32
  0
VERTEX
  8
0
  5
863
 10
45.4352
 20
34.3679
 30
0.00000
  70
    32
  0
VERTEX
  8
0
  5
864
 10
45.2873
 20
34.3735
 30
0.00000
  70
    32
  0
VERTEX
  8
0
  5
865
 10
45.1394
 20
34.3790
 30
0.00000
  70
    32
  0
VERTEX
  8
0
  5
866
 10
44.9915
 20
34.3844
 30
0.00000
  70
    32
  0
VERTEX
  8
0
  5
867
 10
44.8436
 20
34.3896
 30
0.00000
  70
    32
  0
VERTEX
  8
0
  5
868
 10
44.6957
 20
34.3947
 30
0.00000
  70
    32
  0
VERTEX
  8
0
  5
869
 10
44.5478
 20
34.3996
 30
0.00000
  70
    32
  0
VERTEX
  8
0
  5
86A
 10
44.3998
 20
34.4044
 30
0.00000
  70
    32
  0
VERTEX
  8
0
  5
86B
 10
44.2519
 20
34.4091
 30
0.00000
  70
    32
  0
VERTEX
  8
0
  5
86C
 10
44.1040
 20
34.4136
 30
0.00000
  70
    32
  0
VERTEX
  8
0
  5
86D
 10
43.9561
 20
34.4179
 30
0.00000
  70
    32
  0
VERTEX
  8
0
  5
86E
 10
43.8081
 20
34.4222
 30
0.00000
  70
    32
  0
VERTEX
  8
0
  5
86F
 10
43.6602
 20
34.4262
 30
0.00000
  70
    32
  0
VERTEX
  8
0
  5
870
 10
43.5123
 20
34.4302
 30
0.00000
  70
    32
  0
VERTEX
  8
0
  5
871
 10
43.3643
 20
34.4340
 30
0.00000
  70
    32
  0
VERTEX
  8
0
  5
872
 10
43.2164
 20
34.4376
 30
0.00000
  70
    32
  0
VERTEX
  8
0
  5
873
 10
43.0684
 20
34.4411
 30
0.00000
  70
    32
  0
VERTEX
  8
0
  5
874
 10
42.9205
 20
34.4445
 30
0.00000
  70
    32
  0
VERTEX
  8
0
  5
875
 10
42.7725
 20
34.4477
 30
0.00000
  70
    32
  0
VERTEX
  8
0
  5
876
 10
42.6246
 20
34.4507
 30
0.00000
  70
    32
  0
VERTEX
  8
0
  5
877
 10
42.4766
 20
34.4537
 30
0.00000
  70
    32
  0
VERTEX
  8
0
  5
878
 10
42.3287
 20
34.4564
 30
0.00000
  70
    32
  0
VERTEX
  8
0
  5
879
 10
42.1807
 20
34.4591
 30
0.00000
  70
    32
  0
VERTEX
  8
0
  5
87A
 10
42.0328
 20
34.4616
 30
0.00000
  70
    32
  0
VERTEX
  8
0
  5
87B
 10
41.8848
 20
34.4639
 30
0.00000
  70
    32
  0
VERTEX
  8
0
  5
87C
 10
41.7369
 20
34.4661
 30
0.00000
  70
    32
  0
VERTEX
  8
0
  5
87D
 10
41.5889
 20
34.4681
 30
0.00000
  70
    32
  0
VERTEX
  8
0
  5
87E
 10
41.4410
 20
34.4700
 30
0.00000
  70
    32
  0
VERTEX
  8
0
  5
87F
 10
41.2930
 20
34.4718
 30
0.00000
  70
    32
  0
VERTEX
  8
0
  5
880
 10
41.1450
 20
34.4734
 30
0.00000
  70
    32
  0
VERTEX
  8
0
  5
881
 10
40.9971
 20
34.4749
 30
0.00000
  70
    32
  0
VERTEX
  8
0
  5
882
 10
40.8491
 20
34.4762
 30
0.00000
  70
    32
  0
VERTEX
  8
0
  5
883
 10
40.7012
 20
34.4773
 30
0.00000
  70
    32
  0
VERTEX
  8
0
  5
884
 10
40.5532
 20
34.4784
 30
0.00000
  70
    32
  0
VERTEX
  8
0
  5
885
 10
40.4053
 20
34.4792
 30
0.00000
  70
    32
  0
VERTEX
  8
0
  5
886
 10
40.2573
 20
34.4799
 30
0.00000
  70
    32
  0
VERTEX
  8
0
  5
887
 10
40.1094
 20
34.4805
 30
0.00000
  70
    32
  0
VERTEX
  8
0
  5
888
 10
39.9614
 20
34.4809
 30
0.00000
  70
    32
  0
VERTEX
  8
0
  5
889
 10
39.8135
 20
34.4812
 30
0.00000
  70
    32
  0
VERTEX
  8
0
  5
88A
 10
39.6655
 20
34.4813
 30
0.00000
  70
    32
  0
VERTEX
  8
0
  5
88B
 10
39.5176
 20
34.4813
 30
0.00000
  70
    32
  0
VERTEX
  8
0
  5
88C
 10
39.3696
 20
34.4811
 30
0.00000
  70
    32
  0
VERTEX
  8
0
  5
88D
 10
39.2217
 20
34.4808
 30
0.00000
  70
    32
  0
VERTEX
  8
0
  5
88E
 10
39.0738
 20
34.4803
 30
0.00000
  70
    32
  0
VERTEX
  8
0
  5
88F
 10
38.9258
 20
34.4797
 30
0.00000
  70
    32
  0
VERTEX
  8
0
  5
890
 10
38.7779
 20
34.4789
 30
0.00000
  70
    32
  0
VERTEX
  8
0
  5
891
 10
38.6300
 20
34.4780
 30
0.00000
  70
    32
  0
VERTEX
  8
0
  5
892
 10
38.4820
 20
34.4769
 30
0.00000
  70
    32
  0
VERTEX
  8
0
  5
893
 10
38.3341
 20
34.4757
 30
0.00000
  70
    32
  0
VERTEX
  8
0
  5
894
 10
38.1862
 20
34.4743
 30
0.00000
  70
    32
  0
VERTEX
  8
0
  5
895
 10
38.0383
 20
34.4728
 30
0.00000
  70
    32
  0
VERTEX
  8
0
  5
896
 10
37.8903
 20
34.4711
 30
0.00000
  70
    32
  0
VERTEX
  8
0
  5
897
 10
37.7424
 20
34.4692
 30
0.00000
  70
    32
  0
VERTEX
  8
0
  5
898
 10
37.5945
 20
34.4672
 30
0.00000
  70
    32
  0
VERTEX
  8
0
  5
899
 10
37.4466
 20
34.4651
 30
0.00000
  70
    32
  0
VERTEX
  8
0
  5
89A
 10
37.2987
 20
34.4628
 30
0.00000
  70
    32
  0
VERTEX
  8
0
  5
89B
 10
37.1508
 20
34.4603
 30
0.00000
  70
    32
  0
VERTEX
  8
0
  5
89C
 10
37.0029
 20
34.4577
 30
0.00000
  70
    32
  0
VERTEX
  8
0
  5
89D
 10
36.8550
 20
34.4550
 30
0.00000
  70
    32
  0
VERTEX
  8
0
  5
89E
 10
36.7071
 20
34.4520
 30
0.00000
  70
    32
  0
VERTEX
  8
0
  5
89F
 10
36.5593
 20
34.4490
 30
0.00000
  70
    32
  0
VERTEX
  8
0
  5
8A0
 10
36.4114
 20
34.4457
 30
0.00000
  70
    32
  0
VERTEX
  8
0
  5
8A1
 10
36.2635
 20
34.4424
 30
0.00000
  70
    32
  0
VERTEX
  8
0
  5
8A2
 10
36.1156
 20
34.4388
 30
0.00000
  70
    32
  0
VERTEX
  8
0
  5
8A3
 10
35.9678
 20
34.4352
 30
0.00000
  70
    32
  0
VERTEX
  8
0
  5
8A4
 10
35.8199
 20
34.4313
 30
0.00000
  70
    32
  0
VERTEX
  8
0
  5
8A5
 10
35.6721
 20
34.4273
 30
0.00000
  70
    32
  0
VERTEX
  8
0
  5
8A6
 10
35.5242
 20
34.4232
 30
0.00000
  70
    32
  0
VERTEX
  8
0
  5
8A7
 10
35.3764
 20
34.4190
 30
0.00000
  70
    32
  0
VERTEX
  8
0
  5
8A8
 10
35.2285
 20
34.4146
 30
0.00000
  70
    32
  0
VERTEX
  8
0
  5
8A9
 10
35.0807
 20
34.4100
 30
0.00000
  70
    32
  0
VERTEX
  8
0
  5
8AA
 10
34.9329
 20
34.4054
 30
0.00000
  70
    32
  0
VERTEX
  8
0
  5
8AB
 10
34.7850
 20
34.4005
 30
0.00000
  70
    32
  0
VERTEX
  8
0
  5
8AC
 10
34.6372
 20
34.3956
 30
0.00000
  70
    32
  0
VERTEX
  8
0
  5
8AD
 10
34.4894
 20
34.3905
 30
0.00000
  70
    32
  0
VERTEX
  8
0
  5
8AE
 10
34.3416
 20
34.3853
 30
0.00000
  70
    32
  0
VERTEX
  8
0
  5
8AF
 10
34.1938
 20
34.3800
 30
0.00000
  70
    32
  0
VERTEX
  8
0
  5
8B0
 10
34.0460
 20
34.3746
 30
0.00000
  70
    32
  0
VERTEX
  8
0
  5
8B1
 10
33.8982
 20
34.3690
 30
0.00000
  70
    32
  0
VERTEX
  8
0
  5
8B2
 10
33.7504
 20
34.3633
 30
0.00000
  70
    32
  0
VERTEX
  8
0
  5
8B3
 10
33.6026
 20
34.3576
 30
0.00000
  70
    32
  0
VERTEX
  8
0
  5
8B4
 10
33.4548
 20
34.3516
 30
0.00000
  70
    32
  0
VERTEX
  8
0
  5
8B5
 10
33.3070
 20
34.3456
 30
0.00000
  70
    32
  0
VERTEX
  8
0
  5
8B6
 10
33.1592
 20
34.3395
 30
0.00000
  70
    32
  0
VERTEX
  8
0
  5
8B7
 10
33.0114
 20
34.3332
 30
0.00000
  70
    32
  0
VERTEX
  8
0
  5
8B8
 10
32.8636
 20
34.3269
 30
0.00000
  70
    32
  0
VERTEX
  8
0
  5
8B9
 10
32.7159
 20
34.3204
 30
0.00000
  70
    32
  0
VERTEX
  8
0
  5
8BA
 10
32.5681
 20
34.3139
 30
0.00000
  70
    32
  0
VERTEX
  8
0
  5
8BB
 10
32.4203
 20
34.3072
 30
0.00000
  70
    32
  0
VERTEX
  8
0
  5
8BC
 10
32.2725
 20
34.3005
 30
0.00000
  70
    32
  0
VERTEX
  8
0
  5
8BD
 10
32.1248
 20
34.2936
 30
0.00000
  70
    32
  0
VERTEX
  8
0
  5
8BE
 10
31.9770
 20
34.2867
 30
0.00000
  70
    32
  0
VERTEX
  8
0
  5
8BF
 10
31.8293
 20
34.2797
 30
0.00000
  70
    32
  0
VERTEX
  8
0
  5
8C0
 10
31.6815
 20
34.2726
 30
0.00000
  70
    32
  0
VERTEX
  8
0
  5
8C1
 10
31.5338
 20
34.2654
 30
0.00000
  70
    32
  0
VERTEX
  8
0
  5
8C2
 10
31.3860
 20
34.2581
 30
0.00000
  70
    32
  0
VERTEX
  8
0
  5
8C3
 10
31.2383
 20
34.2507
 30
0.00000
  70
    32
  0
VERTEX
  8
0
  5
8C4
 10
31.0905
 20
34.2432
 30
0.00000
  70
    32
  0
VERTEX
  8
0
  5
8C5
 10
30.9428
 20
34.2357
 30
0.00000
  70
    32
  0
VERTEX
  8
0
  5
8C6
 10
30.7950
 20
34.2281
 30
0.00000
  70
    32
  0
VERTEX
  8
0
  5
8C7
 10
30.6473
 20
34.2204
 30
0.00000
  70
    32
  0
VERTEX
  8
0
  5
8C8
 10
30.4996
 20
34.2127
 30
0.00000
  70
    32
  0
VERTEX
  8
0
  5
8C9
 10
30.3518
 20
34.2048
 30
0.00000
  70
    32
  0
VERTEX
  8
0
  5
8CA
 10
30.2041
 20
34.1969
 30
0.00000
  70
    32
  0
VERTEX
  8
0
  5
8CB
 10
30.0564
 20
34.1890
 30
0.00000
  70
    32
  0
VERTEX
  8
0
  5
8CC
 10
29.9086
 20
34.1810
 30
0.00000
  70
    32
  0
VERTEX
  8
0
  5
8CD
 10
29.7609
 20
34.1729
 30
0.00000
  70
    32
  0
VERTEX
  8
0
  5
8CE
 10
29.6132
 20
34.1647
 30
0.00000
  70
    32
  0
VERTEX
  8
0
  5
8CF
 10
29.4655
 20
34.1565
 30
0.00000
  70
    32
  0
VERTEX
  8
0
  5
8D0
 10
29.3177
 20
34.1483
 30
0.00000
  70
    32
  0
VERTEX
  8
0
  5
8D1
 10
29.1700
 20
34.1400
 30
0.00000
  70
    32
  0
VERTEX
  8
0
  5
8D2
 10
29.0223
 20
34.1316
 30
0.00000
  70
    32
  0
VERTEX
  8
0
  5
8D3
 10
28.8746
 20
34.1232
 30
0.00000
  70
    32
  0
VERTEX
  8
0
  5
8D4
 10
28.7269
 20
34.1147
 30
0.00000
  70
    32
  0
VERTEX
  8
0
  5
8D5
 10
28.5792
 20
34.1062
 30
0.00000
  70
    32
  0
VERTEX
  8
0
  5
8D6
 10
28.4315
 20
34.0977
 30
0.00000
  70
    32
  0
VERTEX
  8
0
  5
8D7
 10
28.2837
 20
34.0891
 30
0.00000
  70
    32
  0
VERTEX
  8
0
  5
8D8
 10
28.1360
 20
34.0805
 30
0.00000
  70
    32
  0
VERTEX
  8
0
  5
8D9
 10
27.9883
 20
34.0718
 30
0.00000
  70
    32
  0
VERTEX
  8
0
  5
8DA
 10
27.8406
 20
34.0631
 30
0.00000
  70
    32
  0
VERTEX
  8
0
  5
8DB
 10
27.6929
 20
34.0544
 30
0.00000
  70
    32
  0
VERTEX
  8
0
  5
8DC
 10
27.5452
 20
34.0457
 30
0.00000
  70
    32
  0
VERTEX
  8
0
  5
8DD
 10
27.3975
 20
34.0369
 30
0.00000
  70
    32
  0
VERTEX
  8
0
  5
8DE
 10
27.2498
 20
34.0281
 30
0.00000
  70
    32
  0
VERTEX
  8
0
  5
8DF
 10
27.1021
 20
34.0192
 30
0.00000
  70
    32
  0
VERTEX
  8
0
  5
8E0
 10
26.9544
 20
34.0104
 30
0.00000
  70
    32
  0
VERTEX
  8
0
  5
8E1
 10
26.8067
 20
34.0015
 30
0.00000
  70
    32
  0
VERTEX
  8
0
  5
8E2
 10
26.6590
 20
33.9926
 30
0.00000
  70
    32
  0
VERTEX
  8
0
  5
8E3
 10
26.5113
 20
33.9837
 30
0.00000
  70
    32
  0
VERTEX
  8
0
  5
8E4
 10
26.3636
 20
33.9748
 30
0.00000
  70
    32
  0
VERTEX
  8
0
  5
8E5
 10
26.2159
 20
33.9659
 30
0.00000
  70
    32
  0
VERTEX
  8
0
  5
8E6
 10
26.0682
 20
33.9569
 30
0.00000
  70
    32
  0
VERTEX
  8
0
  5
8E7
 10
25.9205
 20
33.9480
 30
0.00000
  70
    32
  0
VERTEX
  8
0
  5
8E8
 10
25.7728
 20
33.9390
 30
0.00000
  70
    32
  0
VERTEX
  8
0
  5
8E9
 10
25.6251
 20
33.9301
 30
0.00000
  70
    32
  0
VERTEX
  8
0
  5
8EA
 10
25.5786
 20
34.4330
 30
0.00000
  70
    32
  0
VERTEX
  8
0
  5
8EB
 10
25.5641
 20
35.0975
 30
0.00000
  70
    32
  0
VERTEX
  8
0
  5
8EC
 10
25.5495
 20
35.7620
 30
0.00000
  70
    32
  0
VERTEX
  8
0
  5
8ED
 10
25.5349
 20
36.4264
 30
0.00000
  70
    32
  0
VERTEX
  8
0
  5
8EE
 10
25.5204
 20
37.0909
 30
0.00000
  70
    32
  0
VERTEX
  8
0
  5
8EF
 10
25.5058
 20
37.7554
 30
0.00000
  70
    32
  0
VERTEX
  8
0
  5
8F0
 10
25.4913
 20
38.4198
 30
0.00000
  70
    32
  0
SEQEND
  8
0
  5
8F1
  0
INSERT
  5
1F7
  8
0
  2
*U5
 10
0.0
 20
0.0
 30
0.0
  0
CIRCLE
  5
1F8
  8
DRILLING
 10
76.0115942411111831
 20
36.9966529762386216
 30
0.0
 40
0.3224999999999999
  0
CIRCLE
  5
1F9
  8
DRILLING
 10
81.9637264790166995
 20
36.2402656267362673
 30
0.0
 40
0.3224999999999999
  0
ENDSEC
  0
EOF
