  0
SECTION
  2
HEADER
  9
$ACADVER
  1
AC1009
  9
$INSBASE
 10
0.0
 20
0.0
 30
0.0
  9
$EXTMIN
 10
2.2671436743973881
 20
-1.8749262023020501
 30
0.0
  9
$EXTMAX
 10
36.855518728427441
 20
33.0139824118781675
 30
0.0
  9
$LIMMIN
 10
0.0
 20
0.0
  9
$LIMMAX
 10
12.0
 20
9.0
  9
$ORTHOMODE
 70
     0
  9
$REGENMODE
 70
     1
  9
$FILLMODE
 70
     1
  9
$QTEXTMODE
 70
     0
  9
$MIRRTEXT
 70
     0
  9
$DRAGMODE
 70
     2
  9
$LTSCALE
 40
1.0
  9
$OSMODE
 70
    39
  9
$ATTMODE
 70
     1
  9
$TEXTSIZE
 40
0.2
  9
$TRACEWID
 40
0.05
  9
$TEXTSTYLE
  7
STANDARD
  9
$CLAYER
  8
0
  9
$CELTYPE
  6
BYLAYER
  9
$CECOLOR
 62
   256
  9
$DIMSCALE
 40
1.0
  9
$DIMASZ
 40
0.18
  9
$DIMEXO
 40
0.0625
  9
$DIMDLI
 40
0.38
  9
$DIMRND
 40
0.0
  9
$DIMDLE
 40
0.0
  9
$DIMEXE
 40
0.18
  9
$DIMTP
 40
0.0
  9
$DIMTM
 40
0.0
  9
$DIMTXT
 40
0.5
  9
$DIMCEN
 40
0.09
  9
$DIMTSZ
 40
0.0
  9
$DIMTOL
 70
     0
  9
$DIMLIM
 70
     0
  9
$DIMTIH
 70
     1
  9
$DIMTOH
 70
     1
  9
$DIMSE1
 70
     0
  9
$DIMSE2
 70
     0
  9
$DIMTAD
 70
     0
  9
$DIMZIN
 70
     0
  9
$DIMBLK
  1

  9
$DIMASO
 70
     1
  9
$DIMSHO
 70
     1
  9
$DIMPOST
  1

  9
$DIMAPOST
  1

  9
$DIMALT
 70
     0
  9
$DIMALTD
 70
     2
  9
$DIMALTF
 40
25.3999999999999986
  9
$DIMLFAC
 40
1.0
  9
$DIMTOFL
 70
     0
  9
$DIMTVP
 40
0.0
  9
$DIMTIX
 70
     0
  9
$DIMSOXD
 70
     0
  9
$DIMSAH
 70
     0
  9
$DIMBLK1
  1

  9
$DIMBLK2
  1

  9
$DIMSTYLE
  2
STANDARD
  9
$DIMCLRD
 70
     0
  9
$DIMCLRE
 70
     0
  9
$DIMCLRT
 70
     0
  9
$DIMTFAC
 40
1.0
  9
$DIMGAP
 40
0.09
  9
$LUNITS
 70
     2
  9
$LUPREC
 70
     4
  9
$SKETCHINC
 40
0.1
  9
$FILLETRAD
 40
0.0
  9
$AUNITS
 70
     0
  9
$AUPREC
 70
     0
  9
$MENU
  1
.
  9
$ELEVATION
 40
0.0
  9
$PELEVATION
 40
0.0
  9
$THICKNESS
 40
0.0
  9
$LIMCHECK
 70
     0
  9
$BLIPMODE
 70
     0
  9
$CHAMFERA
 40
0.0
  9
$CHAMFERB
 40
0.0
  9
$SKPOLY
 70
     0
  9
$TDCREATE
 40
2457209.3731270260177553
  9
$TDUPDATE
 40
2457209.3756653349846601
  9
$TDINDWG
 40
0.0025462963
  9
$TDUSRTIMER
 40
0.0025460995
  9
$USRTIMER
 70
     1
  9
$ANGBASE
 50
0.0
  9
$ANGDIR
 70
     0
  9
$PDMODE
 70
     0
  9
$PDSIZE
 40
0.0
  9
$PLINEWID
 40
0.0
  9
$COORDS
 70
     1
  9
$SPLFRAME
 70
     0
  9
$SPLINETYPE
 70
     6
  9
$SPLINESEGS
 70
     8
  9
$ATTDIA
 70
     1
  9
$ATTREQ
 70
     1
  9
$HANDLING
 70
     1
  9
$HANDSEED
  5
46A
  9
$SURFTAB1
 70
     6
  9
$SURFTAB2
 70
     6
  9
$SURFTYPE
 70
     6
  9
$SURFU
 70
     6
  9
$SURFV
 70
     6
  9
$UCSNAME
  2

  9
$UCSORG
 10
0.0
 20
0.0
 30
0.0
  9
$UCSXDIR
 10
1.0
 20
0.0
 30
0.0
  9
$UCSYDIR
 10
0.0
 20
1.0
 30
0.0
  9
$PUCSNAME
  2

  9
$PUCSORG
 10
0.0
 20
0.0
 30
0.0
  9
$PUCSXDIR
 10
1.0
 20
0.0
 30
0.0
  9
$PUCSYDIR
 10
0.0
 20
1.0
 30
0.0
  9
$USERI1
 70
     0
  9
$USERI2
 70
     0
  9
$USERI3
 70
     0
  9
$USERI4
 70
     0
  9
$USERI5
 70
     0
  9
$USERR1
 40
0.0
  9
$USERR2
 40
0.0
  9
$USERR3
 40
0.0
  9
$USERR4
 40
0.0
  9
$USERR5
 40
0.0
  9
$WORLDVIEW
 70
     1
  9
$SHADEDGE
 70
     3
  9
$SHADEDIF
 70
    70
  9
$TILEMODE
 70
     1
  9
$MAXACTVP
 70
    64
  9
$PLIMCHECK
 70
     0
  9
$PEXTMIN
 10
0.0
 20
0.0
 30
0.0
  9
$PEXTMAX
 10
0.0
 20
0.0
 30
0.0
  9
$PLIMMIN
 10
0.0
 20
0.0
  9
$PLIMMAX
 10
12.0
 20
9.0
  9
$UNITMODE
 70
     0
  9
$VISRETAIN
 70
     1
  9
$PLINEGEN
 70
     0
  9
$PSLTSCALE
 70
     1
  0
ENDSEC
  0
SECTION
  2
TABLES
  0
TABLE
  2
VPORT
 70
     1
  0
VPORT
  2
*ACTIVE
 70
     0
 10
0.0
 20
0.0
 11
1.0
 21
1.0
 12
25.5361500184595016
 22
14.8074553292246307
 13
0.0
 23
0.0
 14
0.5
 24
0.5
 15
0.5
 25
0.5
 16
0.0
 26
0.0
 36
1.0
 17
0.0
 27
0.0
 37
0.0
 40
41.7083504156467271
 41
1.6803278688524581
 42
50.0
 43
0.0
 44
0.0
 50
0.0
 51
0.0
 71
     0
 72
  1000
 73
     1
 74
     3
 75
     0
 76
     1
 77
     0
 78
     0
  0
ENDTAB
  0
TABLE
  2
LTYPE
 70
     2
  0
LTYPE
  2
CONTINUOUS
 70
     0
  3
Solid line
 72
    65
 73
     0
 40
0.0
  0
ENDTAB
  0
TABLE
  2
LAYER
 70
     4
  0
LAYER
  2
0
 70
     0
 62
     7
  6
CONTINUOUS
  0
LAYER
  2
DRILLING
 70
     0
 62
     3
  6
CONTINUOUS
  0
LAYER
  2
ANNOTATION
 70
     0
 62
     7
  6
CONTINUOUS
  0
LAYER
  2
DEFPOINTS
 70
     0
 62
     7
  6
CONTINUOUS
  0
ENDTAB
  0
TABLE
  2
STYLE
 70
     2
  0
STYLE
  2
STANDARD
 70
     0
 40
0.0
 41
1.0
 50
0.0
 71
     0
 42
0.2
  3
txt
  4

  0
STYLE
  2
ANNOTATIVE
 70
     0
 40
0.0
 41
1.0
 50
0.0
 71
     0
 42
0.2
  3
txt
  4

  0
ENDTAB
  0
TABLE
  2
VIEW
 70
     1
  0
ENDTAB
  0
TABLE
  2
UCS
 70
     0
  0
ENDTAB
  0
TABLE
  2
APPID
 70
    12
  0
APPID
  2
ACAD
 70
     0
  0
APPID
  2
ACADANNOPO
 70
     0
  0
APPID
  2
ACADANNOTATIVE
 70
     0
  0
APPID
  2
ACAD_DSTYLE_DIMJAG
 70
     0
  0
APPID
  2
ACAD_DSTYLE_DIMTALN
 70
     0
  0
APPID
  2
ACAD_MLEADERVER
 70
     0
  0
APPID
  2
ACAD_NAV_VCDISPLAY
 70
     0
  0
APPID
  2
ACAECLAYERSTANDARD
 70
     0
  0
APPID
  2
ACCMTRANSPARENCY
 70
     0
  0
APPID
  2
ACAD_DSTYLE_DIMBREAK
 70
     0
  0
APPID
  2
ACAD_EXEMPT_FROM_CAD_STANDARDS
 70
     0
  0
APPID
  2
ACDBDYNAMICBLOCKTRUENAME2
 70
     0
  0
ENDTAB
  0
TABLE
  2
DIMSTYLE
 70
     2
  0
DIMSTYLE
  2
STANDARD
 70
     0
  3

  4

  5

  6

  7

 40
1.0
 41
0.18
 42
0.0625
 43
0.38
 44
0.18
 45
0.0
 46
0.0
 47
0.0
 48
0.0
140
0.5
141
0.09
142
0.0
143
25.3999999999999986
144
1.0
145
0.0
146
1.0
147
0.09
 71
     0
 72
     0
 73
     1
 74
     1
 75
     0
 76
     0
 77
     0
 78
     0
170
     0
171
     2
172
     0
173
     0
174
     0
175
     0
176
     0
177
     0
178
     0
  0
DIMSTYLE
  2
ANNOTATIVE
 70
     0
  3

  4

  5

  6

  7

 40
0.0
 41
0.18
 42
0.0625
 43
0.38
 44
0.18
 45
0.0
 46
0.0
 47
0.0
 48
0.0
140
0.18
141
0.09
142
0.0
143
25.3999999999999986
144
1.0
145
0.0
146
1.0
147
0.09
 71
     0
 72
     0
 73
     1
 74
     1
 75
     0
 76
     0
 77
     0
 78
     0
170
     0
171
     2
172
     0
173
     0
174
     0
175
     0
176
     0
177
     0
178
     0
  0
ENDTAB
  0
ENDSEC
  0
SECTION
  2
BLOCKS
  0
BLOCK
  8
0
  2
$MODEL_SPACE
 70
     0
 10
0.0
 20
0.0
 30
0.0
  3
$MODEL_SPACE
  1

  0
ENDBLK
  5
21
  8
0
  0
BLOCK
 67
     1
  8
0
  2
$PAPER_SPACE
 70
     0
 10
0.0
 20
0.0
 30
0.0
  3
$PAPER_SPACE
  1

  0
ENDBLK
  5
5B
 67
     1
  8
0
  0
BLOCK
  8
0
  2
*U1
 70
     1
 10
0.0
 20
0.0
 30
0.0
  3
*U1
  1

  0
CIRCLE
  5
1DE
  8
DRILLING
 10
0.0
 20
0.0
 30
0.0
 40
0.3325
  0
ENDBLK
  5
1DF
  8
0
  0
BLOCK
  8
0
  2
*U2
 70
     1
 10
0.0
 20
0.0
 30
0.0
  3
*U2
  1

  0
INSERT
  5
1E2
  8
DRILLING
  6
BYBLOCK
 62
     0
  2
*U1
 10
-6.0
 20
0.0
 30
0.0
  0
INSERT
  5
1E3
  8
DRILLING
  6
BYBLOCK
 62
     0
  2
*U1
 10
-12.0
 20
0.0
 30
0.0
  0
INSERT
  5
1E4
  8
DRILLING
  6
BYBLOCK
 62
     0
  2
*U1
 10
-18.0
 20
0.0
 30
0.0
  0
INSERT
  5
1E5
  8
DRILLING
  6
BYBLOCK
 62
     0
  2
*U1
 10
0.0
 20
0.0
 30
0.0
  0
ENDBLK
  5
1E6
  8
0
  0
BLOCK
  8
0
  2
*U3
 70
     1
 10
0.0
 20
0.0
 30
0.0
  3
*U3
  1

  0
CIRCLE
  5
1E9
  8
DRILLING
 10
0.0
 20
0.0
 30
0.0
 40
0.3325
  0
ENDBLK
  5
1EA
  8
0
  0
BLOCK
  8
0
  2
*U4
 70
     1
 10
0.0
 20
0.0
 30
0.0
  3
*U4
  1

  0
INSERT
  5
1ED
  8
DRILLING
  6
BYBLOCK
 62
     0
  2
*U3
 10
-6.0
 20
0.0
 30
0.0
  0
INSERT
  5
1EE
  8
DRILLING
  6
BYBLOCK
 62
     0
  2
*U3
 10
-12.0
 20
0.0
 30
0.0
  0
INSERT
  5
1EF
  8
DRILLING
  6
BYBLOCK
 62
     0
  2
*U3
 10
-18.0
 20
0.0
 30
0.0
  0
INSERT
  5
1F0
  8
DRILLING
  6
BYBLOCK
 62
     0
  2
*U3
 10
0.0
 20
0.0
 30
0.0
  0
ENDBLK
  5
1F1
  8
0
  0
BLOCK
  8
0
  2
*U7
 70
     1
 10
0.0
 20
0.0
 30
0.0
  3
*U7
  1

  0
CIRCLE
  5
222
  8
DRILLING
 10
0.0
 20
0.0
 30
0.0
 40
0.3325
  0
ENDBLK
  5
223
  8
0
  0
BLOCK
  8
0
  2
*U9
 70
     1
 10
0.0
 20
0.0
 30
0.0
  3
*U9
  1

  0
INSERT
  5
228
  8
DRILLING
  6
BYBLOCK
 62
     0
  2
*U7
 10
-6.0
 20
0.0
 30
0.0
  0
INSERT
  5
229
  8
DRILLING
  6
BYBLOCK
 62
     0
  2
*U7
 10
-12.0
 20
0.0
 30
0.0
  0
INSERT
  5
22A
  8
DRILLING
  6
BYBLOCK
 62
     0
  2
*U7
 10
-18.0
 20
0.0
 30
0.0
  0
INSERT
  5
22B
  8
DRILLING
  6
BYBLOCK
 62
     0
  2
*U7
 10
0.0
 20
0.0
 30
0.0
  0
ENDBLK
  5
22C
  8
0
  0
BLOCK
  8
0
  2
*U10
 70
     1
 10
0.0
 20
0.0
 30
0.0
  3
*U10
  1

  0
CIRCLE
  5
22F
  8
DRILLING
 10
0.0
 20
0.0
 30
0.0
 40
0.3325
  0
ENDBLK
  5
230
  8
0
  0
BLOCK
  8
0
  2
*U11
 70
     1
 10
0.0
 20
0.0
 30
0.0
  3
*U11
  1

  0
INSERT
  5
233
  8
DRILLING
  6
BYBLOCK
 62
     0
  2
*U10
 10
-6.0
 20
0.0
 30
0.0
  0
INSERT
  5
234
  8
DRILLING
  6
BYBLOCK
 62
     0
  2
*U10
 10
-12.0
 20
0.0
 30
0.0
  0
INSERT
  5
235
  8
DRILLING
  6
BYBLOCK
 62
     0
  2
*U10
 10
-18.0
 20
0.0
 30
0.0
  0
INSERT
  5
236
  8
DRILLING
  6
BYBLOCK
 62
     0
  2
*U10
 10
0.0
 20
0.0
 30
0.0
  0
ENDBLK
  5
237
  8
0
  0
BLOCK
  8
0
  2
*D12
 70
     1
 10
0.0
 20
0.0
 30
0.0
  3
*D12
  1

  0
LINE
  5
26A
  8
0
 62
     0
 10
24.267147251940731
 20
29.7495905619736085
 30
0.0
 11
24.267147251940731
 21
32.8082967630836322
 31
0.0
  0
LINE
  5
26B
  8
0
 62
     0
 10
2.267147251940727
 20
29.7495905619736689
 30
0.0
 11
2.267147251940727
 21
32.8082967630836322
 31
0.0
  0
LINE
  5
26C
  8
0
 62
     0
 10
24.0871472519407313
 20
32.6282967630836325
 30
0.0
 11
14.5952100077388192
 21
32.6282967630836325
 31
0.0
  0
LINE
  5
26D
  8
0
 62
     0
 10
2.4471472519407271
 20
32.6282967630836325
 30
0.0
 11
11.9390844961426392
 21
32.6282967630836325
 31
0.0
  0
SOLID
  5
26E
  8
0
 62
     0
 10
24.0871472519407313
 20
32.6582967630836265
 30
0.0
 11
24.0871472519407313
 21
32.5982967630836171
 31
0.0
 12
24.267147251940731
 22
32.6282967630836325
 32
0.0
 13
24.267147251940731
 23
32.6282967630836325
 33
0.0
  0
SOLID
  5
26F
  8
0
 62
     0
 10
2.4471472519407271
 20
32.6582967630836265
 30
0.0
 11
2.4471472519407271
 21
32.5982967630836171
 31
0.0
 12
2.267147251940727
 22
32.6282967630836325
 32
0.0
 13
2.267147251940727
 23
32.6282967630836325
 33
0.0
  0
INSERT
  5
270
  8
0
  2
*U18
 10
0.0
 20
0.0
 30
0.0
  0
POINT
  5
271
  8
DEFPOINTS
 62
     0
 10
24.267147251940731
 20
29.6870905619736085
 30
0.0
  0
POINT
  5
272
  8
DEFPOINTS
 62
     0
 10
2.267147251940727
 20
29.6870905619736689
 30
0.0
  0
POINT
  5
273
  8
DEFPOINTS
 62
     0
 10
2.267147251940727
 20
32.6282967630836325
 30
0.0
  0
ENDBLK
  5
252
  8
0
  0
BLOCK
  8
0
  2
*D13
 70
     1
 10
0.0
 20
0.0
 30
0.0
  3
*D13
  1

  0
LINE
  5
283
  8
0
 62
     0
 10
24.329647251940731
 20
29.6870905619736085
 30
0.0
 11
27.8568313598376314
 21
29.6870905619736085
 31
0.0
  0
LINE
  5
284
  8
0
 62
     0
 10
24.329647251940731
 20
25.6870905619737293
 30
0.0
 11
27.8568313598376314
 21
25.6870905619737293
 31
0.0
  0
LINE
  5
285
  8
0
 62
     0
 10
27.6768313598376317
 20
29.5070905619736088
 30
0.0
 11
27.6768313598376317
 21
28.0305012031742216
 31
0.0
  0
LINE
  5
286
  8
0
 62
     0
 10
27.6768313598376317
 20
25.867090561973729
 30
0.0
 11
27.6768313598376317
 21
27.3436799207731198
 31
0.0
  0
SOLID
  5
287
  8
0
 62
     0
 10
27.6468313598376305
 20
29.5070905619736088
 30
0.0
 11
27.7068313598376292
 21
29.5070905619736088
 31
0.0
 12
27.6768313598376317
 22
29.6870905619736085
 32
0.0
 13
27.6768313598376317
 23
29.6870905619736085
 33
0.0
  0
SOLID
  5
288
  8
0
 62
     0
 10
27.6468313598376305
 20
25.867090561973729
 30
0.0
 11
27.7068313598376292
 21
25.867090561973729
 31
0.0
 12
27.6768313598376317
 22
25.6870905619737293
 32
0.0
 13
27.6768313598376317
 23
25.6870905619737293
 33
0.0
  0
INSERT
  5
289
  8
0
  2
*U19
 10
0.0
 20
0.0
 30
0.0
  0
POINT
  5
28A
  8
DEFPOINTS
 62
     0
 10
24.267147251940731
 20
29.6870905619736085
 30
0.0
  0
POINT
  5
28B
  8
DEFPOINTS
 62
     0
 10
24.267147251940731
 20
25.6870905619737293
 30
0.0
  0
POINT
  5
28C
  8
DEFPOINTS
 62
     0
 10
27.6768313598376317
 20
25.6870905619737293
 30
0.0
  0
ENDBLK
  5
277
  8
0
  0
BLOCK
  8
0
  2
*D14
 70
     1
 10
0.0
 20
0.0
 30
0.0
  3
*D14
  1

  0
LINE
  5
29D
  8
0
 62
     0
 10
24.329647251940731
 20
22.417408874223959
 30
0.0
 11
27.9881345111692283
 21
22.417408874223959
 31
0.0
  0
LINE
  5
29E
  8
0
 62
     0
 10
24.329647251940731
 20
16.9674088742240308
 30
0.0
 11
27.9881345111692283
 21
16.9674088742240308
 31
0.0
  0
LINE
  5
29F
  8
0
 62
     0
 10
27.8081345111692286
 20
22.2374088742239593
 30
0.0
 11
27.8081345111692286
 21
20.0358195154245387
 31
0.0
  0
LINE
  5
2A0
  8
0
 62
     0
 10
27.8081345111692286
 20
17.1474088742240305
 30
0.0
 11
27.8081345111692286
 21
19.3489982330234511
 31
0.0
  0
SOLID
  5
2A1
  8
0
 62
     0
 10
27.778134511169231
 20
22.2374088742239593
 30
0.0
 11
27.8381345111692298
 21
22.2374088742239593
 31
0.0
 12
27.8081345111692286
 22
22.417408874223959
 32
0.0
 13
27.8081345111692286
 23
22.417408874223959
 33
0.0
  0
SOLID
  5
2A2
  8
0
 62
     0
 10
27.778134511169231
 20
17.1474088742240305
 30
0.0
 11
27.8381345111692298
 21
17.1474088742240305
 31
0.0
 12
27.8081345111692286
 22
16.9674088742240308
 32
0.0
 13
27.8081345111692286
 23
16.9674088742240308
 33
0.0
  0
INSERT
  5
2A3
  8
0
  2
*U20
 10
0.0
 20
0.0
 30
0.0
  0
POINT
  5
2A4
  8
DEFPOINTS
 62
     0
 10
24.267147251940731
 20
22.417408874223959
 30
0.0
  0
POINT
  5
2A5
  8
DEFPOINTS
 62
     0
 10
24.267147251940731
 20
16.9674088742240308
 30
0.0
  0
POINT
  5
2A6
  8
DEFPOINTS
 62
     0
 10
27.8081345111692286
 20
16.9674088742240308
 30
0.0
  0
ENDBLK
  5
291
  8
0
  0
BLOCK
  8
0
  2
*D15
 70
     1
 10
0.0
 20
0.0
 30
0.0
  3
*D15
  1

  0
LINE
  5
2B7
  8
0
 62
     0
 10
9.2671436743978433
 20
1.587168437975329
 30
0.0
 11
9.2671436743978433
 21
-1.660328567202022
 31
0.0
  0
LINE
  5
2B8
  8
0
 62
     0
 10
17.2671436743973885
 20
1.587168437975329
 30
0.0
 11
17.2671436743973885
 21
-1.660328567202022
 31
0.0
  0
LINE
  5
2B9
  8
0
 62
     0
 10
9.4471436743978412
 20
-1.4803285672020221
 30
0.0
 11
12.1437193906322705
 21
-1.4803285672020221
 31
0.0
  0
LINE
  5
2BA
  8
0
 62
     0
 10
17.0871436743973888
 20
-1.4803285672020221
 30
0.0
 11
14.3905679581629595
 21
-1.4803285672020221
 31
0.0
  0
SOLID
  5
2BB
  8
0
 62
     0
 10
9.4471436743978412
 20
-1.4503285672020221
 30
0.0
 11
9.4471436743978412
 21
-1.5103285672020219
 31
0.0
 12
9.2671436743978433
 22
-1.4803285672020221
 32
0.0
 13
9.2671436743978433
 23
-1.4803285672020221
 33
0.0
  0
SOLID
  5
2BC
  8
0
 62
     0
 10
17.0871436743973888
 20
-1.4503285672020221
 30
0.0
 11
17.0871436743973888
 21
-1.5103285672020219
 31
0.0
 12
17.2671436743973885
 22
-1.4803285672020221
 32
0.0
 13
17.2671436743973885
 23
-1.4803285672020221
 33
0.0
  0
INSERT
  5
2BD
  8
0
  2
*U21
 10
0.0
 20
0.0
 30
0.0
  0
POINT
  5
2BE
  8
DEFPOINTS
 62
     0
 10
9.2671436743978433
 20
1.649668437975329
 30
0.0
  0
POINT
  5
2BF
  8
DEFPOINTS
 62
     0
 10
17.2671436743973885
 20
1.649668437975329
 30
0.0
  0
POINT
  5
2C0
  8
DEFPOINTS
 62
     0
 10
17.2671436743973885
 20
-1.4803285672020221
 30
0.0
  0
ENDBLK
  5
2AB
  8
0
  0
BLOCK
  8
0
  2
*D16
 70
     1
 10
0.0
 20
0.0
 30
0.0
  3
*D16
  1

  0
LINE
  5
2D1
  8
0
 62
     0
 10
8.9671436743976614
 20
9.5568501257251413
 30
0.0
 11
8.9671436743976614
 21
8.2380560222752521
 31
0.0
  0
LINE
  5
2D2
  8
0
 62
     0
 10
17.5671436743971086
 20
9.5568501257250276
 30
0.0
 11
17.5671436743971086
 21
8.2380560222752521
 31
0.0
  0
LINE
  5
2D3
  8
0
 62
     0
 10
9.1471436743976611
 20
8.4180560222752518
 30
0.0
 11
12.1437193906320395
 21
8.4180560222752518
 31
0.0
  0
LINE
  5
2D4
  8
0
 62
     0
 10
17.3871436743971088
 20
8.4180560222752518
 30
0.0
 11
14.3905679581627393
 21
8.4180560222752518
 31
0.0
  0
SOLID
  5
2D5
  8
0
 62
     0
 10
9.1471436743976611
 20
8.4480560222752512
 30
0.0
 11
9.1471436743976611
 21
8.3880560222752525
 31
0.0
 12
8.9671436743976614
 22
8.4180560222752518
 32
0.0
 13
8.9671436743976614
 23
8.4180560222752518
 33
0.0
  0
SOLID
  5
2D6
  8
0
 62
     0
 10
17.3871436743971088
 20
8.4480560222752512
 30
0.0
 11
17.3871436743971088
 21
8.3880560222752525
 31
0.0
 12
17.5671436743971086
 22
8.4180560222752518
 32
0.0
 13
17.5671436743971086
 23
8.4180560222752518
 33
0.0
  0
INSERT
  5
2D7
  8
0
  2
*U22
 10
0.0
 20
0.0
 30
0.0
  0
POINT
  5
2D8
  8
DEFPOINTS
 62
     0
 10
8.9671436743976614
 20
9.6193501257251413
 30
0.0
  0
POINT
  5
2D9
  8
DEFPOINTS
 62
     0
 10
17.5671436743971086
 20
9.6193501257250276
 30
0.0
  0
POINT
  5
2DA
  8
DEFPOINTS
 62
     0
 10
17.5671436743971086
 20
8.4180560222752518
 30
0.0
  0
ENDBLK
  5
2C5
  8
0
  0
BLOCK
  8
0
  2
*U18
 70
     1
 10
0.0
 20
0.0
 30
0.0
  3
*U18
  1

  0
TEXT
  5
439
  8
0
 62
     0
 10
12.0154419313404492
 20
32.381707404284171
 30
0.0
 40
0.5
  1
22.0000
  0
ENDBLK
  5
43B
  8
0
  0
BLOCK
  8
0
  2
*U19
 70
     1
 10
0.0
 20
0.0
 30
0.0
  3
*U19
  1

  0
TEXT
  5
43D
  8
0
 62
     0
 10
26.6229432288690013
 20
27.4405012031742217
 30
0.0
 40
0.5
  1
4.0000
  0
ENDBLK
  5
43F
  8
0
  0
BLOCK
  8
0
  2
*U20
 70
     1
 10
0.0
 20
0.0
 30
0.0
  3
*U20
  1

  0
TEXT
  5
441
  8
0
 62
     0
 10
26.7406038153984191
 20
19.4458195154245388
 30
0.0
 40
0.5
  1
5.4500
  0
ENDBLK
  5
443
  8
0
  0
BLOCK
  8
0
  2
*U21
 70
     1
 10
0.0
 20
0.0
 30
0.0
  3
*U21
  1

  0
TEXT
  5
445
  8
0
 62
     0
 10
12.1996129786268099
 20
-1.726917926001476
 30
0.0
 40
0.5
  1
8.0000
  0
ENDBLK
  5
447
  8
0
  0
BLOCK
  8
0
  2
*U22
 70
     1
 10
0.0
 20
0.0
 30
0.0
  3
*U22
  1

  0
TEXT
  5
449
  8
0
 62
     0
 10
12.1996129786265808
 20
8.1714666634757975
 30
0.0
 40
0.5
  1
8.6000
  0
ENDBLK
  5
44B
  8
0
  0
BLOCK
  8
0
  2
*U23
 70
     1
 10
0.0
 20
0.0
 30
0.0
  3
*U23
  1

  0
TEXT
  5
44D
  8
0
 10
27.4353277325202107
 20
13.0408481263997107
 30
0.0
 40
0.5
  1
0.665" Diameter Through Hole
  0
LINE
  5
44E
  8
0
  6
BYBLOCK
 10
27.0194341445256612
 20
13.2192246611882496
 30
0.0
 11
27.3794341445256606
 21
13.2192246611882496
 31
0.0
  0
POLYLINE
  5
44F
  8
0
  6
BYBLOCK
 66
     1
 10
0.0
 20
0.0
 30
0.0
  0
VERTEX
  5
450
  8
0
  6
BYBLOCK
 10
22.4443325588920217
 20
12.4010376502661703
 30
0.0
  0
VERTEX
  5
451
  8
0
  6
BYBLOCK
 10
27.0194341445256612
 20
13.2192246611882496
 30
0.0
  0
SEQEND
  5
452
  8
0
  6
BYBLOCK
  0
SOLID
  5
453
  8
0
 10
22.4496138129822214
 20
12.3715061695170707
 30
0.0
 11
22.2671436743973885
 21
12.3693501257249707
 31
0.0
 12
22.4390513048018185
 22
12.4305691310152806
 32
0.0
 13
22.4390513048018185
 23
12.4305691310152806
 33
0.0
  0
ENDBLK
  5
455
  8
0
  0
BLOCK
  8
0
  2
*U24
 70
     1
 10
0.0
 20
0.0
 30
0.0
  3
*U24
  1

  0
TEXT
  5
457
  8
0
 10
5.1681841036608018
 20
0.6714980028295657
 30
0.0
 40
0.5
  1
0.665" Diameter Through Hole
  0
LINE
  5
458
  8
0
  6
BYBLOCK
 10
4.7522905156662603
 20
0.8498745376181062
 30
0.0
 11
5.1122905156662597
 21
0.8498745376181062
 31
0.0
  0
POLYLINE
  5
459
  8
0
  6
BYBLOCK
 66
     1
 10
0.0
 20
0.0
 30
0.0
  0
VERTEX
  5
45A
  8
0
  6
BYBLOCK
 10
0.1771889300326152
 20
0.0316875266960333
 30
0.0
  0
VERTEX
  5
45B
  8
0
  6
BYBLOCK
 10
4.7522905156662603
 20
0.8498745376181062
 30
0.0
  0
SEQEND
  5
45C
  8
0
  6
BYBLOCK
  0
SOLID
  5
45D
  8
0
 10
0.1824701841228162
 20
0.0021560459469287
 30
0.0
 11
0.0000000455379876
 21
0.0000000021548274
 31
0.0
 12
0.1719076759424142
 22
0.0612190074451379
 32
0.0
 13
0.1719076759424142
 23
0.0612190074451379
 33
0.0
  0
ENDBLK
  5
45F
  8
0
  0
BLOCK
  8
0
  2
*U25
 70
     1
 10
0.0
 20
0.0
 30
0.0
  3
*U25
  1

  0
TEXT
  5
461
  8
0
 10
25.9853277780583802
 20
7.2029536167940238
 30
0.0
 40
0.5
  1
0.250" Radius
  0
LINE
  5
462
  8
0
  6
BYBLOCK
 10
25.5694341900638413
 20
7.4495429755934781
 30
0.0
 11
25.9294341900638301
 21
7.4495429755934781
 31
0.0
  0
POLYLINE
  5
463
  8
0
  6
BYBLOCK
 66
     1
 10
0.0
 20
0.0
 30
0.0
  0
VERTEX
  5
464
  8
0
  6
BYBLOCK
 10
20.9943326044301912
 20
6.6313559646714051
 30
0.0
  0
VERTEX
  5
465
  8
0
  6
BYBLOCK
 10
25.5694341900638413
 20
7.4495429755934781
 30
0.0
  0
SEQEND
  5
466
  8
0
  6
BYBLOCK
  0
SOLID
  5
467
  8
0
 10
20.9996138585203909
 20
6.601824483922301
 30
0.0
 11
20.8171437199355616
 21
6.5996684401302002
 31
0.0
 12
20.9890513503399916
 22
6.66088744542051
 32
0.0
 13
20.9890513503399916
 23
6.66088744542051
 33
0.0
  0
ENDBLK
  5
469
  8
0
  0
ENDSEC
  0
SECTION
  2
ENTITIES
  0
INSERT
  5
21A
  8
DRILLING
  2
*U9
 10
22.267147251940731
 20
27.6870905619736085
 30
0.0
 41
-1.0
 50
180.0
  0
POLYLINE
  5
21B
  8
0
 66
     1
 10
0.0
 20
0.0
 30
0.0
 70
     1
  0
VERTEX
  5
3BD
  8
0
 10
2.267147251940727
 20
25.6870905619736689
 30
0.0
  0
VERTEX
  5
3BE
  8
0
 10
2.267147251940727
 20
29.6870905619736689
 30
0.0
  0
VERTEX
  5
3BF
  8
0
 10
5.5171472519407274
 20
29.6870905619736689
 30
0.0
 42
0.4142135623730951
  0
VERTEX
  5
3C0
  8
0
 10
5.7671472519407274
 20
29.9370905619736689
 30
0.0
  0
VERTEX
  5
3C1
  8
0
 10
5.7671472519407274
 20
30.4370905619736689
 30
0.0
  0
VERTEX
  5
3C2
  8
0
 10
8.9671472519410003
 20
30.4370905619736689
 30
0.0
  0
VERTEX
  5
3C3
  8
0
 10
8.9671472519410003
 20
29.9370905619735588
 30
0.0
 42
0.4142135623730951
  0
VERTEX
  5
3C4
  8
0
 10
9.2171472519410003
 20
29.6870905619735588
 30
0.0
  0
VERTEX
  5
3C5
  8
0
 10
17.317147251940451
 20
29.6870905619735588
 30
0.0
 42
0.4142135623730951
  0
VERTEX
  5
3C6
  8
0
 10
17.567147251940451
 20
29.9370905619735588
 30
0.0
  0
VERTEX
  5
3C7
  8
0
 10
17.567147251940451
 20
30.4370905619736689
 30
0.0
  0
VERTEX
  5
3C8
  8
0
 10
20.767147251940731
 20
30.4370905619736689
 30
0.0
  0
VERTEX
  5
3C9
  8
0
 10
20.767147251940731
 20
29.9370905619736689
 30
0.0
 42
0.4142135623730951
  0
VERTEX
  5
3CA
  8
0
 10
21.017147251940731
 20
29.6870905619736689
 30
0.0
  0
VERTEX
  5
3CB
  8
0
 10
24.267147251940731
 20
29.6870905619736085
 30
0.0
  0
VERTEX
  5
3CC
  8
0
 10
24.267147251940731
 20
25.6870905619737293
 30
0.0
  0
VERTEX
  5
3CD
  8
0
 10
21.017147251940731
 20
25.6870905619736689
 30
0.0
 42
0.4142135623730951
  0
VERTEX
  5
3CE
  8
0
 10
20.767147251940731
 20
25.4370905619736689
 30
0.0
  0
VERTEX
  5
3CF
  8
0
 10
20.767147251940731
 20
24.9370905619736689
 30
0.0
  0
VERTEX
  5
3D0
  8
0
 10
17.567147251940451
 20
24.9370905619736689
 30
0.0
  0
VERTEX
  5
3D1
  8
0
 10
17.567147251940451
 20
25.437090561973779
 30
0.0
 42
0.4142135623730951
  0
VERTEX
  5
3D2
  8
0
 10
17.317147251940451
 20
25.687090561973779
 30
0.0
  0
VERTEX
  5
3D3
  8
0
 10
9.2171472519410003
 20
25.687090561973779
 30
0.0
 42
0.4142135623730951
  0
VERTEX
  5
3D4
  8
0
 10
8.9671472519410003
 20
25.437090561973779
 30
0.0
  0
VERTEX
  5
3D5
  8
0
 10
8.9671472519410003
 20
24.937090561973779
 30
0.0
  0
VERTEX
  5
3D6
  8
0
 10
5.7671472519407274
 20
24.9370905619736689
 30
0.0
  0
VERTEX
  5
3D7
  8
0
 10
5.7671472519407274
 20
25.4370905619736689
 30
0.0
 42
0.4142135623730951
  0
VERTEX
  5
3D8
  8
0
 10
5.5171472519407274
 20
25.6870905619736689
 30
0.0
  0
SEQEND
  5
3D9
  8
0
  0
POLYLINE
  5
21C
  8
0
 66
     1
 10
0.0
 20
0.0
 30
0.0
 70
     1
  0
VERTEX
  5
3DA
  8
0
 10
5.4671472519405446
 20
22.4174088742240194
 30
0.0
  0
VERTEX
  5
3DB
  8
0
 10
5.4671472519405446
 20
21.9174088742240194
 30
0.0
 42
0.4142135623730951
  0
VERTEX
  5
3DC
  8
0
 10
5.7171472519405446
 20
21.6674088742240194
 30
0.0
  0
VERTEX
  5
3DD
  8
0
 10
9.0171472519407274
 20
21.6674088742240194
 30
0.0
 42
0.4142135623730951
  0
VERTEX
  5
3DE
  8
0
 10
9.2671472519407274
 20
21.9174088742240194
 30
0.0
  0
VERTEX
  5
3DF
  8
0
 10
9.2671472519411822
 20
22.4174088742240194
 30
0.0
  0
VERTEX
  5
3E0
  8
0
 10
17.267147251940731
 20
22.4174088742240194
 30
0.0
  0
VERTEX
  5
3E1
  8
0
 10
17.267147251940731
 20
21.9174088742240194
 30
0.0
 42
0.4142135623730951
  0
VERTEX
  5
3E2
  8
0
 10
17.517147251940731
 20
21.6674088742240194
 30
0.0
  0
VERTEX
  5
3E3
  8
0
 10
20.8171472519409093
 20
21.6674088742240194
 30
0.0
 42
0.4142135623730951
  0
VERTEX
  5
3E4
  8
0
 10
21.0671472519409093
 20
21.9174088742240194
 30
0.0
  0
VERTEX
  5
3E5
  8
0
 10
21.0671472519409093
 20
22.417408874223959
 30
0.0
  0
VERTEX
  5
3E6
  8
0
 10
24.267147251940731
 20
22.417408874223959
 30
0.0
  0
VERTEX
  5
3E7
  8
0
 10
24.267147251940731
 20
16.9674088742240308
 30
0.0
  0
VERTEX
  5
3E8
  8
0
 10
21.0671472519409093
 20
16.9674088742239704
 30
0.0
  0
VERTEX
  5
3E9
  8
0
 10
21.0671472519409093
 20
17.4674088742239704
 30
0.0
 42
0.4142135623730951
  0
VERTEX
  5
3EA
  8
0
 10
20.8171472519409093
 20
17.7174088742239704
 30
0.0
  0
VERTEX
  5
3EB
  8
0
 10
17.517147251940731
 20
17.7174088742239704
 30
0.0
 42
0.414213562373095
  0
VERTEX
  5
3EC
  8
0
 10
17.267147251940731
 20
17.4674088742239704
 30
0.0
  0
VERTEX
  5
3ED
  8
0
 10
17.267147251940731
 20
16.9674088742239704
 30
0.0
  0
VERTEX
  5
3EE
  8
0
 10
9.2671472519411822
 20
16.9674088742239704
 30
0.0
  0
VERTEX
  5
3EF
  8
0
 10
9.2671472519407274
 20
17.4674088742239704
 30
0.0
 42
0.4142135623730951
  0
VERTEX
  5
3F0
  8
0
 10
9.0171472519407274
 20
17.7174088742239704
 30
0.0
  0
VERTEX
  5
3F1
  8
0
 10
5.7171472519405446
 20
17.7174088742239704
 30
0.0
 42
0.414213562373095
  0
VERTEX
  5
3F2
  8
0
 10
5.4671472519405446
 20
17.4674088742239704
 30
0.0
  0
VERTEX
  5
3F3
  8
0
 10
5.4671472519405446
 20
16.9674088742239704
 30
0.0
  0
VERTEX
  5
3F4
  8
0
 10
2.267147251940727
 20
16.9674088742239704
 30
0.0
  0
VERTEX
  5
3F5
  8
0
 10
2.267147251940727
 20
22.4174088742240194
 30
0.0
  0
SEQEND
  5
3F6
  8
0
  0
INSERT
  5
21D
  8
DRILLING
  2
*U11
 10
22.2671436743973885
 20
12.3693501257249707
 30
0.0
 41
-1.0
 50
180.0
  0
POLYLINE
  5
21E
  8
0
 66
     1
 10
0.0
 20
0.0
 30
0.0
 70
     1
  0
VERTEX
  5
3F7
  8
0
 10
2.2671436743973881
 20
10.3693501257250205
 30
0.0
  0
VERTEX
  5
3F8
  8
0
 10
2.2671436743973881
 20
14.3693501257250293
 30
0.0
  0
VERTEX
  5
3F9
  8
0
 10
5.5171436743973876
 20
14.3693501257250293
 30
0.0
 42
0.4142135623730951
  0
VERTEX
  5
3FA
  8
0
 10
5.7671436743973876
 20
14.6193501257250293
 30
0.0
  0
VERTEX
  5
3FB
  8
0
 10
5.7671436743973876
 20
15.1193501257250293
 30
0.0
  0
VERTEX
  5
3FC
  8
0
 10
8.9671436743976614
 20
15.1193501257250293
 30
0.0
  0
VERTEX
  5
3FD
  8
0
 10
8.9671436743976614
 20
14.6193501257249103
 30
0.0
 42
0.4142135623730951
  0
VERTEX
  5
3FE
  8
0
 10
9.2171436743976614
 20
14.3693501257249103
 30
0.0
  0
VERTEX
  5
3FF
  8
0
 10
17.3171436743971086
 20
14.3693501257249103
 30
0.0
 42
0.4142135623730951
  0
VERTEX
  5
400
  8
0
 10
17.5671436743971086
 20
14.6193501257249103
 30
0.0
  0
VERTEX
  5
401
  8
0
 10
17.5671436743971086
 20
15.1193501257250293
 30
0.0
  0
VERTEX
  5
402
  8
0
 10
20.7671436743973885
 20
15.1193501257250293
 30
0.0
  0
VERTEX
  5
403
  8
0
 10
20.7671436743973885
 20
14.6193501257250293
 30
0.0
 42
0.4142135623730951
  0
VERTEX
  5
404
  8
0
 10
21.0171436743973885
 20
14.3693501257250293
 30
0.0
  0
VERTEX
  5
405
  8
0
 10
24.2671436743973885
 20
14.3693501257249707
 30
0.0
  0
VERTEX
  5
406
  8
0
 10
24.2671436743973885
 20
10.3693501257250809
 30
0.0
  0
VERTEX
  5
407
  8
0
 10
21.0171436743973885
 20
10.3693501257250205
 30
0.0
 42
0.4142135623730951
  0
VERTEX
  5
408
  8
0
 10
20.7671436743973885
 20
10.1193501257250293
 30
0.0
  0
VERTEX
  5
409
  8
0
 10
20.7671436743973885
 20
9.6193501257250276
 30
0.0
  0
VERTEX
  5
40A
  8
0
 10
17.5671436743971086
 20
9.6193501257250276
 30
0.0
  0
VERTEX
  5
40B
  8
0
 10
17.5671436743971086
 20
10.1193501257251395
 30
0.0
 42
0.4142135623730951
  0
VERTEX
  5
40C
  8
0
 10
17.3171436743971086
 20
10.3693501257251395
 30
0.0
  0
VERTEX
  5
40D
  8
0
 10
9.2171436743976614
 20
10.3693501257251395
 30
0.0
 42
0.4142135623730951
  0
VERTEX
  5
40E
  8
0
 10
8.9671436743976614
 20
10.1193501257251395
 30
0.0
  0
VERTEX
  5
40F
  8
0
 10
8.9671436743976614
 20
9.6193501257251413
 30
0.0
  0
VERTEX
  5
410
  8
0
 10
5.7671436743973876
 20
9.6193501257250276
 30
0.0
  0
VERTEX
  5
411
  8
0
 10
5.7671436743973876
 20
10.1193501257250293
 30
0.0
 42
0.4142135623730951
  0
VERTEX
  5
412
  8
0
 10
5.5171436743973876
 20
10.3693501257250205
 30
0.0
  0
SEQEND
  5
413
  8
0
  0
POLYLINE
  5
21F
  8
0
 66
     1
 10
0.0
 20
0.0
 30
0.0
 70
     1
  0
VERTEX
  5
414
  8
0
 10
5.4671436743972057
 20
7.0996684379753736
 30
0.0
  0
VERTEX
  5
415
  8
0
 10
5.4671436743972057
 20
6.5996684379753736
 30
0.0
 42
0.4142135623730951
  0
VERTEX
  5
416
  8
0
 10
5.7171436743972057
 20
6.3496684379753736
 30
0.0
  0
VERTEX
  5
417
  8
0
 10
9.0171436743973885
 20
6.3496684379753736
 30
0.0
 42
0.4142135623730951
  0
VERTEX
  5
418
  8
0
 10
9.2671436743973885
 20
6.5996684379753736
 30
0.0
  0
VERTEX
  5
419
  8
0
 10
9.2671436743978433
 20
7.0996684379753736
 30
0.0
  0
VERTEX
  5
41A
  8
0
 10
17.2671436743973885
 20
7.0996684379753736
 30
0.0
  0
VERTEX
  5
41B
  8
0
 10
17.2671436743973885
 20
6.5996684379753736
 30
0.0
 42
0.4142135623730951
  0
VERTEX
  5
41C
  8
0
 10
17.5171436743973885
 20
6.3496684379753736
 30
0.0
  0
VERTEX
  5
41D
  8
0
 10
20.8171436743975704
 20
6.3496684379753736
 30
0.0
 42
0.4142135623730951
  0
VERTEX
  5
41E
  8
0
 10
21.0671436743975704
 20
6.5996684379753736
 30
0.0
  0
VERTEX
  5
41F
  8
0
 10
21.0671436743975704
 20
7.0996684379753168
 30
0.0
  0
VERTEX
  5
420
  8
0
 10
24.2671436743973885
 20
7.0996684379753168
 30
0.0
  0
VERTEX
  5
421
  8
0
 10
24.2671436743973885
 20
1.649668437975385
 30
0.0
  0
VERTEX
  5
422
  8
0
 10
21.0671436743975704
 20
1.649668437975329
 30
0.0
  0
VERTEX
  5
423
  8
0
 10
21.0671436743975704
 20
2.149668437975329
 30
0.0
 42
0.4142135623730951
  0
VERTEX
  5
424
  8
0
 10
20.8171436743975704
 20
2.399668437975329
 30
0.0
  0
VERTEX
  5
425
  8
0
 10
17.5171436743973885
 20
2.399668437975329
 30
0.0
 42
0.414213562373095
  0
VERTEX
  5
426
  8
0
 10
17.2671436743973885
 20
2.149668437975329
 30
0.0
  0
VERTEX
  5
427
  8
0
 10
17.2671436743973885
 20
1.649668437975329
 30
0.0
  0
VERTEX
  5
428
  8
0
 10
9.2671436743978433
 20
1.649668437975329
 30
0.0
  0
VERTEX
  5
429
  8
0
 10
9.2671436743973885
 20
2.149668437975329
 30
0.0
 42
0.4142135623730951
  0
VERTEX
  5
42A
  8
0
 10
9.0171436743973885
 20
2.399668437975329
 30
0.0
  0
VERTEX
  5
42B
  8
0
 10
5.7171436743972057
 20
2.399668437975329
 30
0.0
 42
0.414213562373095
  0
VERTEX
  5
42C
  8
0
 10
5.4671436743972057
 20
2.149668437975329
 30
0.0
  0
VERTEX
  5
42D
  8
0
 10
5.4671436743972057
 20
1.649668437975329
 30
0.0
  0
VERTEX
  5
42E
  8
0
 10
2.2671436743973881
 20
1.649668437975329
 30
0.0
  0
VERTEX
  5
42F
  8
0
 10
2.2671436743973881
 20
7.0996684379753736
 30
0.0
  0
SEQEND
  5
430
  8
0
  0
DIMENSION
  5
24E
  8
0
  2
*D12
 10
2.267147251940727
 20
32.6282967630836325
 30
0.0
 11
13.2671472519407203
 21
32.6282967630836325
 31
0.0
 70
     0
 13
24.267147251940731
 23
29.6870905619736085
 33
0.0
 14
2.267147251940727
 24
29.6870905619736689
 34
0.0
  0
DIMENSION
  5
274
  8
0
  2
*D13
 10
27.6768313598376317
 20
25.6870905619737293
 30
0.0
 11
27.676831359837621
 21
27.6870905619736796
 31
0.0
 70
     0
 13
24.267147251940731
 23
29.6870905619736085
 33
0.0
 14
24.267147251940731
 24
25.6870905619737293
 34
0.0
 50
90.0
  0
DIMENSION
  5
28E
  8
0
  2
*D14
 10
27.8081345111692286
 20
16.9674088742240308
 30
0.0
 11
27.8081345111692286
 21
19.6924088742240002
 31
0.0
 70
     0
 13
24.267147251940731
 23
22.417408874223959
 33
0.0
 14
24.267147251940731
 24
16.9674088742240308
 34
0.0
 50
90.0
  0
DIMENSION
  5
2A8
  8
0
  2
*D15
 10
17.2671436743973885
 20
-1.4803285672020221
 30
0.0
 11
13.2671436743976106
 21
-1.4803285672020221
 31
0.0
 70
     0
 13
9.2671436743978433
 23
1.649668437975329
 33
0.0
 14
17.2671436743973885
 24
1.649668437975329
 34
0.0
  0
DIMENSION
  5
2C2
  8
0
  2
*D16
 10
17.5671436743971086
 20
8.4180560222752518
 30
0.0
 11
13.2671436743973903
 21
8.4180560222752518
 31
0.0
 70
     0
 13
8.9671436743976614
 23
9.6193501257251413
 33
0.0
 14
17.5671436743971086
 24
9.6193501257250276
 34
0.0
  0
INSERT
  5
2DC
  8
0
  2
*U23
 10
0.0
 20
0.0
 30
0.0
1001
ACAD_MLEADERVER
1070
     2
  0
INSERT
  5
2E7
  8
0
  2
*U25
 10
0.0
 20
0.0
 30
0.0
1001
ACAD_MLEADERVER
1070
     2
  0
ENDSEC
  0
EOF
