  0
SECTION
  2
HEADER
  9
$ACADVER
  1
AC1009
  9
$DWGCODEPAGE
  3
ansi_1252
  9
$INSBASE
 10
0.0
 20
0.0
 30
0.0
  9
$EXTMIN
 10
55.73692186212641
 20
-48.28010507546982
 30
0.0
  9
$EXTMAX
 10
178.8029391470543
 20
42.51850418289216
 30
0.0
  9
$LIMMIN
 10
0.0
 20
0.0
  9
$LIMMAX
 10
12.0
 20
9.0
  9
$ORTHOMODE
 70
     0
  9
$REGENMODE
 70
     1
  9
$FILLMODE
 70
     1
  9
$QTEXTMODE
 70
     0
  9
$MIRRTEXT
 70
     1
  9
$DRAGMODE
 70
     2
  9
$LTSCALE
 40
1.0
  9
$OSMODE
 70
    37
  9
$ATTMODE
 70
     1
  9
$TEXTSIZE
 40
0.2
  9
$TRACEWID
 40
0.05
  9
$TEXTSTYLE
  7
STANDARD
  9
$CLAYER
  8
DIMS
  9
$CELTYPE
  6
BYLAYER
  9
$CECOLOR
 62
   256
  9
$DIMSCALE
 40
1.0
  9
$DIMASZ
 40
0.18
  9
$DIMEXO
 40
0.0625
  9
$DIMDLI
 40
0.38
  9
$DIMRND
 40
0.0
  9
$DIMDLE
 40
0.0
  9
$DIMEXE
 40
0.18
  9
$DIMTP
 40
0.0
  9
$DIMTM
 40
0.0
  9
$DIMTXT
 40
0.18
  9
$DIMCEN
 40
0.09
  9
$DIMTSZ
 40
0.0
  9
$DIMTOL
 70
     0
  9
$DIMLIM
 70
     0
  9
$DIMTIH
 70
     1
  9
$DIMTOH
 70
     1
  9
$DIMSE1
 70
     0
  9
$DIMSE2
 70
     0
  9
$DIMTAD
 70
     0
  9
$DIMZIN
 70
     0
  9
$DIMBLK
  1

  9
$DIMASO
 70
     1
  9
$DIMSHO
 70
     1
  9
$DIMPOST
  1

  9
$DIMAPOST
  1

  9
$DIMALT
 70
     0
  9
$DIMALTD
 70
     2
  9
$DIMALTF
 40
25.4
  9
$DIMLFAC
 40
1.0
  9
$DIMTOFL
 70
     0
  9
$DIMTVP
 40
0.0
  9
$DIMTIX
 70
     0
  9
$DIMSOXD
 70
     0
  9
$DIMSAH
 70
     0
  9
$DIMBLK1
  1

  9
$DIMBLK2
  1

  9
$DIMSTYLE
  2
STANDARD
  9
$DIMCLRD
 70
     0
  9
$DIMCLRE
 70
     0
  9
$DIMCLRT
 70
     0
  9
$DIMTFAC
 40
1.0
  9
$DIMGAP
 40
0.09
  9
$LUNITS
 70
     2
  9
$LUPREC
 70
     3
  9
$SKETCHINC
 40
0.1
  9
$FILLETRAD
 40
0.5
  9
$AUNITS
 70
     0
  9
$AUPREC
 70
     0
  9
$MENU
  1
.
  9
$ELEVATION
 40
0.0
  9
$PELEVATION
 40
0.0
  9
$THICKNESS
 40
0.0
  9
$LIMCHECK
 70
     0
  9
$CHAMFERA
 40
0.0
  9
$CHAMFERB
 40
0.0
  9
$SKPOLY
 70
     0
  9
$TDCREATE
 40
2457238.402956991
  9
$TDUPDATE
 40
2457238.402975035
  9
$TDINDWG
 40
0.0000000116
  9
$TDUSRTIMER
 40
0.0000000116
  9
$USRTIMER
 70
     1
  9
$ANGBASE
 50
0.0
  9
$ANGDIR
 70
     0
  9
$PDMODE
 70
     0
  9
$PDSIZE
 40
0.0
  9
$PLINEWID
 40
0.0
  9
$COORDS
 70
     1
  9
$SPLFRAME
 70
     0
  9
$SPLINETYPE
 70
     6
  9
$SPLINESEGS
 70
     8
  9
$ATTDIA
 70
     0
  9
$ATTREQ
 70
     1
  9
$HANDLING
 70
     1
  9
$HANDSEED
  5
455
  9
$SURFTAB1
 70
     6
  9
$SURFTAB2
 70
     6
  9
$SURFTYPE
 70
     6
  9
$SURFU
 70
     6
  9
$SURFV
 70
     6
  9
$UCSNAME
  2

  9
$UCSORG
 10
0.0
 20
0.0
 30
0.0
  9
$UCSXDIR
 10
1.0
 20
0.0
 30
0.0
  9
$UCSYDIR
 10
0.0
 20
1.0
 30
0.0
  9
$PUCSNAME
  2

  9
$PUCSORG
 10
0.0
 20
0.0
 30
0.0
  9
$PUCSXDIR
 10
1.0
 20
0.0
 30
0.0
  9
$PUCSYDIR
 10
0.0
 20
1.0
 30
0.0
  9
$USERI1
 70
     0
  9
$USERI2
 70
     0
  9
$USERI3
 70
     0
  9
$USERI4
 70
     0
  9
$USERI5
 70
     0
  9
$USERR1
 40
0.0
  9
$USERR2
 40
0.0
  9
$USERR3
 40
0.0
  9
$USERR4
 40
0.0
  9
$USERR5
 40
0.0
  9
$WORLDVIEW
 70
     1
  9
$SHADEDGE
 70
     3
  9
$SHADEDIF
 70
    70
  9
$TILEMODE
 70
     1
  9
$MAXACTVP
 70
    64
  9
$PLIMCHECK
 70
     0
  9
$PEXTMIN
 10
1.000000000000000E+20
 20
1.000000000000000E+20
 30
1.000000000000000E+20
  9
$PEXTMAX
 10
-1.000000000000000E+20
 20
-1.000000000000000E+20
 30
-1.000000000000000E+20
  9
$PLIMMIN
 10
0.0
 20
0.0
  9
$PLIMMAX
 10
12.0
 20
9.0
  9
$UNITMODE
 70
     0
  9
$VISRETAIN
 70
     1
  9
$PLINEGEN
 70
     0
  9
$PSLTSCALE
 70
     1
  0
ENDSEC
  0
SECTION
  2
TABLES
  0
TABLE
  2
VPORT
 70
     1
  0
VPORT
  2
*ACTIVE
 70
     0
 10
0.0
 20
0.0
 11
1.0
 21
1.0
 12
116.811736980494
 22
-2.985770265276173
 13
0.0
 23
0.0
 14
0.5
 24
0.5
 15
0.5
 25
0.5
 16
0.0
 26
0.0
 36
1.0
 17
0.0
 27
0.0
 37
0.0
 40
92.40044301279504
 41
1.348398544195476
 42
50.0
 43
0.0
 44
0.0
 50
0.0
 51
0.0
 71
     0
 72
   100
 73
     1
 74
     3
 75
     0
 76
     0
 77
     0
 78
     0
  0
ENDTAB
  0
TABLE
  2
LTYPE
 70
     1
  0
LTYPE
  2
CONTINUOUS
 70
     0
  3
Solid line
 72
    65
 73
     0
 40
0.0
  0
ENDTAB
  0
TABLE
  2
LAYER
 70
     8
  0
LAYER
  2
0
 70
     0
 62
     7
  6
CONTINUOUS
  0
LAYER
  2
DIMS
 70
     0
 62
     7
  6
CONTINUOUS
  0
LAYER
  2
DEFPOINTS
 70
     0
 62
     7
  6
CONTINUOUS
  0
LAYER
  2
SCAFFOLD
 70
     0
 62
    12
  6
CONTINUOUS
  0
LAYER
  2
SREW_HOLD_DOWNS
 70
     0
 62
     4
  6
CONTINUOUS
  0
LAYER
  2
CUT_OUTS
 70
     0
 62
   192
  6
CONTINUOUS
  0
LAYER
  2
DRILL_HOLES
 70
     0
 62
    96
  6
CONTINUOUS
  0
LAYER
  2
PLYWOOD
 70
     0
 62
     6
  6
CONTINUOUS
  0
ENDTAB
  0
TABLE
  2
STYLE
 70
     2
  0
STYLE
  2
STANDARD
 70
     0
 40
0.0
 41
1.0
 50
0.0
 71
     0
 42
0.2
  3
txt
  4

  0
STYLE
  2
ARIAL
 70
     0
 40
0.0
 41
1.0
 50
0.0
 71
     0
 42
0.2
  3
arial.ttf
  4

  0
ENDTAB
  0
TABLE
  2
VIEW
 70
     0
  0
ENDTAB
  0
TABLE
  2
UCS
 70
     0
  0
ENDTAB
  0
TABLE
  2
APPID
 70
     1
  0
APPID
  2
ACAD
 70
     0
  0
ENDTAB
  0
TABLE
  2
DIMSTYLE
 70
     5
  0
DIMSTYLE
  2
STANDARD
 70
     0
  3

  4

  5

  6

  7

 40
1.0
 41
0.18
 42
0.0625
 43
0.38
 44
0.18
 45
0.0
 46
0.0
 47
0.0
 48
0.0
140
0.18
141
0.09
142
0.0
143
25.4
144
1.0
145
0.0
146
1.0
147
0.09
 71
     0
 72
     0
 73
     1
 74
     1
 75
     0
 76
     0
 77
     0
 78
     0
170
     0
171
     2
172
     0
173
     0
174
     0
175
     0
176
     0
177
     0
178
     0
  0
DIMSTYLE
  2
INCH_DECIMAL
 70
     0
  3

  4

  5

  6

  7

 40
5.0
 41
0.125
 42
0.0625
 43
0.38
 44
0.125
 45
0.0
 46
0.0
 47
0.0
 48
0.0
140
0.125
141
0.25
142
0.0
143
25.4
144
1.0
145
0.0
146
1.0
147
0.0625
 71
     0
 72
     0
 73
     0
 74
     1
 75
     0
 76
     0
 77
     1
 78
     1
170
     0
171
     2
172
     1
173
     0
174
     1
175
     0
176
     0
177
     0
178
     0
  0
DIMSTYLE
  2
INCH_DECIMAL_03
 70
     0
  3

  4

  5

  6

  7

 40
9.0
 41
0.125
 42
0.0625
 43
0.38
 44
0.125
 45
0.0
 46
0.0
 47
0.0
 48
0.0
140
0.125
141
0.25
142
0.0
143
25.4
144
1.0
145
0.0
146
1.0
147
0.0625
 71
     0
 72
     0
 73
     0
 74
     1
 75
     0
 76
     0
 77
     1
 78
     1
170
     0
171
     2
172
     1
173
     0
174
     1
175
     0
176
     0
177
     0
178
     0
  0
DIMSTYLE
  2
INCH_DECIMAL_02
 70
     0
  3

  4

  5

  6

  7

 40
9.0
 41
0.125
 42
0.0625
 43
0.38
 44
0.125
 45
0.0
 46
0.0
 47
0.0
 48
0.0
140
0.125
141
0.25
142
0.0
143
25.4
144
1.0
145
0.0
146
1.0
147
0.0625
 71
     0
 72
     0
 73
     0
 74
     1
 75
     0
 76
     0
 77
     1
 78
     1
170
     0
171
     2
172
     1
173
     0
174
     1
175
     0
176
     0
177
     0
178
     0
  0
DIMSTYLE
  2
INCH_DECIMAL_01
 70
     0
  3

  4

  5

  6

  7

 40
9.0
 41
0.125
 42
0.0625
 43
0.38
 44
0.125
 45
0.0
 46
0.0
 47
0.0
 48
0.0
140
0.125
141
0.25
142
0.0
143
25.4
144
1.0
145
0.0
146
1.0
147
0.0625
 71
     0
 72
     0
 73
     0
 74
     1
 75
     0
 76
     0
 77
     1
 78
     1
170
     0
171
     2
172
     1
173
     0
174
     1
175
     0
176
     0
177
     0
178
     0
  0
ENDTAB
  0
ENDSEC
  0
SECTION
  2
BLOCKS
  0
BLOCK
  8
0
  2
$MODEL_SPACE
 70
     0
 10
0.0
 20
0.0
 30
0.0
  3
$MODEL_SPACE
  1

  0
ENDBLK
  5
21
  8
0
  0
BLOCK
 67
     1
  8
0
  2
$PAPER_SPACE
 70
     0
 10
0.0
 20
0.0
 30
0.0
  3
$PAPER_SPACE
  1

  0
ENDBLK
  5
1D
 67
     1
  8
0
  0
BLOCK
  8
0
  2
*D1
 70
     1
 10
0.0
 20
0.0
 30
0.0
  3
*D1
  1

  0
LINE
  5
77
  8
DIMS
 62
     0
 10
56.17073587858862
 20
-32.82849686932458
 30
0.0
 11
56.17073587858862
 21
-36.2421055853119
 31
0.0
  0
LINE
  5
78
  8
DIMS
 62
     0
 10
68.17073587858862
 20
-32.82849686932458
 30
0.0
 11
68.17073587858862
 21
-36.2421055853119
 31
0.0
  0
LINE
  5
79
  8
DIMS
 62
     0
 10
56.79573587858862
 20
-35.6171055853119
 30
0.0
 11
67.54573587858862
 21
-35.6171055853119
 31
0.0
  0
SOLID
  5
7A
  8
DIMS
 62
     0
 10
56.79573587858862
 20
-35.51293891864523
 30
0.0
 11
56.79573587858862
 21
-35.72127225197856
 31
0.0
 12
56.17073587858862
 22
-35.6171055853119
 32
0.0
 13
56.17073587858862
 23
-35.6171055853119
 33
0.0
  0
SOLID
  5
7B
  8
DIMS
 62
     0
 10
67.54573587858862
 20
-35.72127225197856
 30
0.0
 11
67.54573587858862
 21
-35.51293891864523
 31
0.0
 12
68.17073587858862
 22
-35.6171055853119
 32
0.0
 13
68.17073587858862
 23
-35.6171055853119
 33
0.0
  0
TEXT
  5
7C
  8
DIMS
  6
CONTINUOUS
 62
     0
 10
60.56792337858862
 20
-35.29273058531189
 30
0.0
 40
0.625
  1
12.0000
  7
ARIAL
  0
POINT
  5
7D
  8
DEFPOINTS
 62
     0
 10
56.17073587858862
 20
-32.51599686932458
 30
0.0
  0
POINT
  5
7E
  8
DEFPOINTS
 62
     0
 10
68.17073587858862
 20
-32.51599686932458
 30
0.0
  0
POINT
  5
7F
  8
DEFPOINTS
 62
     0
 10
68.17073587858862
 20
-35.6171055853119
 30
0.0
  0
ENDBLK
  5
76
  8
0
  0
BLOCK
  8
0
  2
*D2
 70
     1
 10
0.0
 20
0.0
 30
0.0
  3
*D2
  1

  0
LINE
  5
84
  8
DIMS
 62
     0
 10
68.48323587858862
 20
-20.51599686932458
 30
0.0
 11
72.690483939067
 21
-20.51599686932458
 31
0.0
  0
LINE
  5
85
  8
DIMS
 62
     0
 10
68.48323587858862
 20
-32.51599686932458
 30
0.0
 11
72.690483939067
 21
-32.51599686932458
 31
0.0
  0
LINE
  5
86
  8
DIMS
 62
     0
 10
72.065483939067
 20
-21.14099686932458
 30
0.0
 11
72.065483939067
 21
-31.89099686932458
 31
0.0
  0
SOLID
  5
87
  8
DIMS
 62
     0
 10
72.16965060573366
 20
-21.14099686932458
 30
0.0
 11
71.96131727240032
 21
-21.14099686932458
 31
0.0
 12
72.065483939067
 22
-20.51599686932458
 32
0.0
 13
72.065483939067
 23
-20.51599686932458
 33
0.0
  0
SOLID
  5
88
  8
DIMS
 62
     0
 10
71.96131727240032
 20
-31.89099686932458
 30
0.0
 11
72.16965060573366
 21
-31.89099686932458
 31
0.0
 12
72.065483939067
 22
-32.51599686932458
 32
0.0
 13
72.065483939067
 23
-32.51599686932458
 33
0.0
  0
TEXT
  5
89
  8
DIMS
  6
CONTINUOUS
 62
     0
 10
71.74110893906699
 20
-28.11880936932458
 30
0.0
 40
0.625
  1
12.0000
 50
90.0
  7
ARIAL
  0
POINT
  5
8A
  8
DEFPOINTS
 62
     0
 10
68.17073587858862
 20
-20.51599686932458
 30
0.0
  0
POINT
  5
8B
  8
DEFPOINTS
 62
     0
 10
68.17073587858862
 20
-32.51599686932458
 30
0.0
  0
POINT
  5
8C
  8
DEFPOINTS
 62
     0
 10
72.065483939067
 20
-32.51599686932458
 30
0.0
  0
ENDBLK
  5
83
  8
0
  0
BLOCK
  8
0
  2
*D3
 70
     1
 10
0.0
 20
0.0
 30
0.0
  3
*D3
  1

  0
LINE
  5
A1
  8
DIMS
 62
     0
 10
97.98567300016508
 20
-35.860009451694
 30
0.0
 11
100.0278484337104
 21
-35.860009451694
 31
0.0
  0
LINE
  5
A2
  8
DIMS
 62
     0
 10
97.98567300016508
 20
-37.35999729704412
 30
0.0
 11
100.0278484337104
 21
-37.35999729704412
 31
0.0
  0
LINE
  5
A3
  8
DIMS
 62
     0
 10
99.40284843371037
 20
-35.860009451694
 30
0.0
 11
99.40284843371037
 21
-37.35999729704412
 31
0.0
  0
LINE
  5
A4
  8
DIMS
 62
     0
 10
99.40284843371037
 20
-35.235009451694
 30
0.0
 11
99.40284843371037
 21
-34.610009451694
 31
0.0
  0
LINE
  5
A5
  8
DIMS
 62
     0
 10
99.40284843371037
 20
-37.98499729704412
 30
0.0
 11
99.40284843371037
 21
-38.60999729704412
 31
0.0
  0
SOLID
  5
A6
  8
DIMS
 62
     0
 10
99.2986817670437
 20
-35.235009451694
 30
0.0
 11
99.50701510037705
 21
-35.235009451694
 31
0.0
 12
99.40284843371037
 22
-35.860009451694
 32
0.0
 13
99.40284843371037
 23
-35.860009451694
 33
0.0
  0
SOLID
  5
A7
  8
DIMS
 62
     0
 10
99.50701510037705
 20
-37.98499729704412
 30
0.0
 11
99.2986817670437
 21
-37.98499729704412
 31
0.0
 12
99.40284843371037
 22
-37.35999729704412
 32
0.0
 13
99.40284843371037
 23
-37.35999729704412
 33
0.0
  0
TEXT
  5
A8
  8
DIMS
  6
CONTINUOUS
 62
     0
 10
99.07847343371037
 20
-37.97031587436905
 30
0.0
 40
0.625
  1
1.5000
 50
90.0
  7
ARIAL
  0
POINT
  5
A9
  8
DEFPOINTS
 62
     0
 10
97.67317300016508
 20
-35.860009451694
 30
0.0
  0
POINT
  5
AA
  8
DEFPOINTS
 62
     0
 10
97.67317300016508
 20
-37.35999729704412
 30
0.0
  0
POINT
  5
AB
  8
DEFPOINTS
 62
     0
 10
99.40284843371037
 20
-37.35999729704412
 30
0.0
  0
ENDBLK
  5
A0
  8
0
  0
BLOCK
  8
0
  2
*D4
 70
     1
 10
0.0
 20
0.0
 30
0.0
  3
*D4
  1

  0
LINE
  5
B5
  8
DIMS
 62
     0
 10
95.29818292203471
 20
-35.547509451694
 30
0.0
 11
95.29818292203471
 21
-34.61603677049368
 31
0.0
  0
LINE
  5
B6
  8
DIMS
 62
     0
 10
97.67317300016508
 20
-35.547509451694
 30
0.0
 11
97.67317300016508
 21
-34.61603677049368
 31
0.0
  0
LINE
  5
B7
  8
DIMS
 62
     0
 10
95.29818292203471
 20
-35.24103677049368
 30
0.0
 11
97.67317300016508
 21
-35.24103677049368
 31
0.0
  0
LINE
  5
B8
  8
DIMS
 62
     0
 10
94.67318292203471
 20
-35.24103677049368
 30
0.0
 11
94.04818292203471
 21
-35.24103677049368
 31
0.0
  0
LINE
  5
B9
  8
DIMS
 62
     0
 10
98.29817300016508
 20
-35.24103677049368
 30
0.0
 11
98.92317300016508
 21
-35.24103677049368
 31
0.0
  0
SOLID
  5
BA
  8
DIMS
 62
     0
 10
94.67318292203471
 20
-35.34520343716034
 30
0.0
 11
94.67318292203471
 21
-35.13687010382701
 31
0.0
 12
95.29818292203471
 22
-35.24103677049368
 32
0.0
 13
95.29818292203471
 23
-35.24103677049368
 33
0.0
  0
SOLID
  5
BB
  8
DIMS
 62
     0
 10
98.29817300016508
 20
-35.13687010382701
 30
0.0
 11
98.29817300016508
 21
-35.34520343716034
 31
0.0
 12
97.67317300016508
 22
-35.24103677049368
 32
0.0
 13
97.67317300016508
 23
-35.24103677049368
 33
0.0
  0
TEXT
  5
BC
  8
DIMS
  6
CONTINUOUS
 62
     0
 10
95.1600529610999
 20
-34.91666177049368
 30
0.0
 40
0.625
  1
2.3750
  7
ARIAL
  0
POINT
  5
BD
  8
DEFPOINTS
 62
     0
 10
95.29818292203471
 20
-35.860009451694
 30
0.0
  0
POINT
  5
BE
  8
DEFPOINTS
 62
     0
 10
97.67317300016508
 20
-35.860009451694
 30
0.0
  0
POINT
  5
BF
  8
DEFPOINTS
 62
     0
 10
97.67317300016508
 20
-35.24103677049368
 30
0.0
  0
ENDBLK
  5
B4
  8
0
  0
BLOCK
  8
0
  2
*D5
 70
     1
 10
0.0
 20
0.0
 30
0.0
  3
*D5
  1

  0
LINE
  5
C4
  8
DIMS
 62
     0
 10
86.46622085812541
 20
-35.85324362990505
 30
0.0
 11
84.88362349053469
 21
-35.85324362990505
 31
0.0
  0
LINE
  5
C5
  8
DIMS
 62
     0
 10
86.46622085812541
 20
-37.35324362990505
 30
0.0
 11
84.88362349053469
 21
-37.35324362990505
 31
0.0
  0
LINE
  5
C6
  8
DIMS
 62
     0
 10
85.50862349053469
 20
-35.85324362990505
 30
0.0
 11
85.50862349053469
 21
-37.35324362990505
 31
0.0
  0
LINE
  5
C7
  8
DIMS
 62
     0
 10
85.50862349053469
 20
-35.22824362990505
 30
0.0
 11
85.50862349053469
 21
-34.60324362990505
 31
0.0
  0
LINE
  5
C8
  8
DIMS
 62
     0
 10
85.50862349053469
 20
-37.97824362990505
 30
0.0
 11
85.50862349053469
 21
-38.60324362990505
 31
0.0
  0
SOLID
  5
C9
  8
DIMS
 62
     0
 10
85.40445682386802
 20
-35.22824362990505
 30
0.0
 11
85.61279015720136
 21
-35.22824362990505
 31
0.0
 12
85.50862349053469
 22
-35.85324362990505
 32
0.0
 13
85.50862349053469
 23
-35.85324362990505
 33
0.0
  0
SOLID
  5
CA
  8
DIMS
 62
     0
 10
85.61279015720136
 20
-37.97824362990505
 30
0.0
 11
85.40445682386802
 21
-37.97824362990505
 31
0.0
 12
85.50862349053469
 22
-37.35324362990505
 32
0.0
 13
85.50862349053469
 23
-37.35324362990505
 33
0.0
  0
TEXT
  5
CB
  8
DIMS
  6
CONTINUOUS
 62
     0
 10
85.18424849053469
 20
-37.96355612990504
 30
0.0
 40
0.625
  1
1.5000
 50
90.0
  7
ARIAL
  0
POINT
  5
CC
  8
DEFPOINTS
 62
     0
 10
86.77872085812541
 20
-35.85324362990505
 30
0.0
  0
POINT
  5
CD
  8
DEFPOINTS
 62
     0
 10
86.77872085812541
 20
-37.35324362990505
 30
0.0
  0
POINT
  5
CE
  8
DEFPOINTS
 62
     0
 10
85.50862349053469
 20
-37.35324362990505
 30
0.0
  0
ENDBLK
  5
C3
  8
0
  0
BLOCK
  8
0
  2
*D6
 70
     1
 10
0.0
 20
0.0
 30
0.0
  3
*D6
  1

  0
LINE
  5
D3
  8
DIMS
 62
     0
 10
86.77872085812541
 20
-35.54074362990505
 30
0.0
 11
86.77872085812541
 21
-34.47183729851579
 31
0.0
  0
LINE
  5
D4
  8
DIMS
 62
     0
 10
90.02872085812541
 20
-35.54074362990505
 30
0.0
 11
90.02872085812541
 21
-34.47183729851579
 31
0.0
  0
LINE
  5
D5
  8
DIMS
 62
     0
 10
87.40372085812541
 20
-35.09683729851579
 30
0.0
 11
89.40372085812541
 21
-35.09683729851579
 31
0.0
  0
SOLID
  5
D6
  8
DIMS
 62
     0
 10
87.40372085812541
 20
-34.99267063184913
 30
0.0
 11
87.40372085812541
 21
-35.20100396518246
 31
0.0
 12
86.77872085812541
 22
-35.09683729851579
 32
0.0
 13
86.77872085812541
 23
-35.09683729851579
 33
0.0
  0
SOLID
  5
D7
  8
DIMS
 62
     0
 10
89.40372085812541
 20
-35.20100396518246
 30
0.0
 11
89.40372085812541
 21
-34.99267063184913
 31
0.0
 12
90.02872085812541
 22
-35.09683729851579
 32
0.0
 13
90.02872085812541
 23
-35.09683729851579
 33
0.0
  0
TEXT
  5
D8
  8
DIMS
  6
CONTINUOUS
 62
     0
 10
87.07247085812541
 20
-34.77246229851579
 30
0.0
 40
0.625
  1
3.2500
  7
ARIAL
  0
POINT
  5
D9
  8
DEFPOINTS
 62
     0
 10
86.77872085812541
 20
-35.85324362990505
 30
0.0
  0
POINT
  5
DA
  8
DEFPOINTS
 62
     0
 10
90.02872085812541
 20
-35.85324362990505
 30
0.0
  0
POINT
  5
DB
  8
DEFPOINTS
 62
     0
 10
90.02872085812541
 20
-35.09683729851579
 30
0.0
  0
ENDBLK
  5
D2
  8
0
  0
BLOCK
  8
0
  2
*X7
 70
     1
 10
0.0
 20
0.0
 30
0.0
  3
*X7
  1

  0
TEXT
  5
429
  8
DIMS
  6
CONTINUOUS
 10
59.62952312797248
 20
-24.49686796443419
 30
0.0
 40
1.0
  1
Verification
  0
TEXT
  5
42A
  8
DIMS
  6
CONTINUOUS
 10
59.53352312797248
 20
-26.10329366724543
 30
0.0
 40
1.0
  1
Block
  0
ENDBLK
  5
446
  8
0
  0
BLOCK
  8
0
  2
*X8
 70
     1
 10
0.0
 20
0.0
 30
0.0
  3
*X8
  1

  0
SOLID
  5
42C
  8
DIMS
 10
-151.0283642639624
 20
35.84295068602228
 30
0.0
 11
-150.3619218621264
 21
34.91740448240245
 31
0.0
 12
-151.2925174974696
 22
35.57677767982575
 32
0.0
 13
-151.2925174974696
 23
35.57677767982575
 33
0.0
210
0.0
220
0.0
230
-1.0
  0
LINE
  5
42D
  8
DIMS
 10
151.160440880716
 20
35.70986418292402
 30
0.0
 11
156.94342135381
 21
41.4489622721902
 31
0.0
  0
LINE
  5
42E
  8
DIMS
 10
156.94342135381
 20
41.4489622721902
 30
0.0
 11
158.9576772199029
 21
41.4489622721902
 31
0.0
  0
ENDBLK
  5
448
  8
0
  0
BLOCK
  8
0
  2
*X9
 70
     1
 10
0.0
 20
0.0
 30
0.0
  3
*X9
  1

  0
TEXT
  5
430
  8
DIMS
  6
CONTINUOUS
 10
159.4481772199029
 20
40.8864622721902
 30
0.0
 40
1.125
  1
Suggested screw hold
  0
TEXT
  5
431
  8
DIMS
  6
CONTINUOUS
 10
159.4673022199029
 20
39.07923335652755
 30
0.0
 40
1.125
  1
down locations, typ.
  0
ENDBLK
  5
44A
  8
0
  0
BLOCK
  8
0
  2
*X10
 70
     1
 10
0.0
 20
0.0
 30
0.0
  3
*X10
  1

  0
SOLID
  5
433
  8
DIMS
 10
-146.6717416295783
 20
3.394171724773683
 30
0.0
 11
-145.7533574357179
 21
2.717893880639075
 31
0.0
 12
-146.8414325955755
 22
3.059761832487353
 32
0.0
 13
-146.8414325955755
 23
3.059761832487353
 33
0.0
210
0.0
220
0.0
230
-1.0
  0
LINE
  5
434
  8
DIMS
 10
146.7565871125769
 20
3.226966778630518
 30
0.0
 11
158.3363810612024
 21
9.102948519947288
 31
0.0
  0
LINE
  5
435
  8
DIMS
 10
158.3363810612024
 20
9.102948519947288
 30
0.0
 11
162.0499270988616
 21
9.102948519947288
 31
0.0
  0
ENDBLK
  5
44C
  8
0
  0
BLOCK
  8
0
  2
*X11
 70
     1
 10
0.0
 20
0.0
 30
0.0
  3
*X11
  1

  0
TEXT
  5
437
  8
DIMS
  6
CONTINUOUS
 10
162.6124270988616
 20
8.540448519947288
 30
0.0
 40
1.125
  1
All these holes should
  0
TEXT
  5
438
  8
DIMS
  6
CONTINUOUS
 10
162.5100520988616
 20
6.733219604284638
 30
0.0
 40
1.125
  1
be 3/8" deep.
  0
ENDBLK
  5
44E
  8
0
  0
BLOCK
  8
0
  2
*X12
 70
     1
 10
0.0
 20
0.0
 30
0.0
  3
*X12
  1

  0
SOLID
  5
43A
  8
DIMS
 10
-152.3494459015758
 20
22.3161454954675
 30
0.0
 11
-151.7369218621264
 21
21.35406672993086
 31
0.0
 12
-152.6283620396175
 22
22.06548479264407
 32
0.0
 13
-152.6283620396175
 23
22.06548479264407
 33
0.0
210
0.0
220
0.0
230
-1.0
  0
LINE
  5
43B
  8
DIMS
 10
152.4889039705967
 20
22.19081514405578
 30
0.0
 11
154.0496660536828
 21
23.92751231163239
 31
0.0
  0
LINE
  5
43C
  8
DIMS
 10
154.0496660536828
 20
23.92751231163239
 30
0.0
 11
157.6460733427778
 21
23.92751231163239
 31
0.0
  0
ENDBLK
  5
450
  8
0
  0
BLOCK
  8
0
  2
*X13
 70
     1
 10
0.0
 20
0.0
 30
0.0
  3
*X13
  1

  0
TEXT
  5
43E
  8
DIMS
  6
CONTINUOUS
 10
158.0870733427778
 20
23.36501231163239
 30
0.0
 40
1.125
  1
Do run these
  0
TEXT
  5
43F
  8
DIMS
  6
CONTINUOUS
 10
158.1815733427778
 20
21.55778339596974
 30
0.0
 40
1.125
  1
to the edge if
  0
TEXT
  5
440
  8
DIMS
  6
CONTINUOUS
 10
158.1838233427777
 20
19.75055448030709
 30
0.0
 40
1.125
  1
you can.
  0
ENDBLK
  5
452
  8
0
  0
BLOCK
  8
0
  2
*X14
 70
     1
 10
0.0
 20
0.0
 30
0.0
  3
*X14
  1

  0
SOLID
  5
442
  8
DIMS
 10
-132.1728569538641
 20
32.08598649608218
 30
0.0
 11
-131.6305442794603
 21
31.75830882271178
 31
0.0
 12
-132.2498165952597
 22
31.89238899771498
 32
0.0
 13
-132.2498165952597
 23
31.89238899771498
 33
0.0
210
0.0
220
0.0
230
-1.0
  0
LINE
  5
443
  8
DIMS
 10
132.2113367745619
 20
31.98918774689858
 30
0.0
 11
156.0642902035962
 21
41.47130790654309
 31
0.0
  0
LINE
  5
444
  8
DIMS
 10
156.0642902035962
 20
41.47130790654309
 30
0.0
 11
156.6892902035962
 21
41.47130790654309
 31
0.0
  0
ENDBLK
  5
454
  8
0
  0
ENDSEC
  0
SECTION
  2
ENTITIES
  0
INSERT
  5
6F
  8
DIMS
  2
*X7
 10
0.0
 20
0.0
 30
0.0
  0
DIMENSION
  5
72
  8
DIMS
  2
*D1
 10
68.17073587858862
 20
-35.6171055853119
 30
0.0
 11
62.17073587858862
 21
-34.9855430853119
 31
0.0
 70
    32
  1
<>
  3
INCH_DECIMAL
 13
56.17073587858862
 23
-32.51599686932458
 33
0.0
 14
68.17073587858862
 24
-32.51599686932458
 34
0.0
  0
DIMENSION
  5
80
  8
DIMS
  2
*D2
 10
72.065483939067
 20
-32.51599686932458
 30
0.0
 11
71.43392143906699
 21
-26.51599686932458
 31
0.0
 70
    32
  1
<>
  3
INCH_DECIMAL
 13
68.17073587858862
 23
-20.51599686932458
 33
0.0
 14
68.17073587858862
 24
-32.51599686932458
 34
0.0
 50
90.0
  0
LINE
  5
8D
  8
DIMS
 10
96.58791611735332
 20
-41.65510507546982
 30
0.0
 11
93.27541611735332
 21
-41.65510507546982
 31
0.0
  0
LINE
  5
8E
  8
DIMS
 10
93.27541611735332
 20
-41.65510507546982
 30
0.0
 11
93.27541611735332
 21
-48.28010507546982
 31
0.0
  0
LINE
  5
8F
  8
DIMS
 10
93.27541611735332
 20
-48.28010507546982
 30
0.0
 11
96.58791611735332
 21
-48.28010507546982
 31
0.0
  0
ARC
  5
90
  8
DIMS
 10
88.71291611735326
 20
-46.28010507546982
 30
0.0
 40
8.125000000000057
 50
345.7499673021965
 51
0.0
  0
LINE
  5
91
  8
DIMS
 10
96.83791611735332
 20
-46.28010507546982
 30
0.0
 11
95.27541611735332
 21
-46.28010507546982
 31
0.0
  0
LINE
  5
92
  8
DIMS
 10
95.27541611735332
 20
-46.28010507546982
 30
0.0
 11
95.27541611735332
 21
-43.65510507546982
 31
0.0
  0
LINE
  5
93
  8
DIMS
 10
95.27541611735332
 20
-43.65510507546982
 30
0.0
 11
96.83791611735332
 21
-43.65510507546982
 31
0.0
  0
ARC
  5
94
  8
DIMS
 10
88.71291611735332
 20
-43.65510507546982
 30
0.0
 40
8.125
 50
0.0
 51
14.2500326978036
  0
LINE
  5
95
  8
DIMS
 10
92.77541611735332
 20
-46.28010507546982
 30
0.0
 11
92.77541611735332
 21
-48.28010507546982
 31
0.0
  0
LINE
  5
96
  8
DIMS
 10
92.77541611735332
 20
-48.28010507546982
 30
0.0
 11
89.21291611735332
 21
-48.28010507546982
 31
0.0
  0
LINE
  5
97
  8
DIMS
 10
89.21291611735332
 20
-48.28010507546982
 30
0.0
 11
89.21291611735332
 21
-41.65510507546982
 31
0.0
  0
LINE
  5
98
  8
DIMS
 10
89.21291611735332
 20
-41.65510507546982
 30
0.0
 11
92.77541611735332
 21
-41.65510507546982
 31
0.0
  0
LINE
  5
99
  8
DIMS
 10
92.77541611735332
 20
-41.65510507546982
 30
0.0
 11
92.77541611735332
 21
-43.65510507546982
 31
0.0
  0
LINE
  5
9A
  8
DIMS
 10
92.77541611735332
 20
-43.65510507546982
 30
0.0
 11
91.21291611735332
 21
-43.65510507546982
 31
0.0
  0
LINE
  5
9B
  8
DIMS
 10
91.21291611735332
 20
-43.65510507546982
 30
0.0
 11
91.21291611735332
 21
-46.28010507546982
 31
0.0
  0
LINE
  5
9C
  8
DIMS
 10
91.21291611735332
 20
-46.28010507546982
 30
0.0
 11
92.77541611735332
 21
-46.28010507546982
 31
0.0
  0
DIMENSION
  5
9D
  8
DIMS
  2
*D3
 10
99.40284843371037
 20
-37.35999729704412
 30
0.0
 11
98.77128593371037
 21
-36.61000337436906
 31
0.0
 70
    32
  1
<>
  3
INCH_DECIMAL
 13
97.67317300016508
 23
-35.860009451694
 33
0.0
 14
97.67317300016508
 24
-37.35999729704412
 34
0.0
 50
90.0
  0
LINE
  5
AD
  8
SCAFFOLD
 10
95.29818292203471
 20
-37.35999729704412
 30
0.0
 11
97.67317300016508
 21
-37.35999729704412
 31
0.0
  0
LINE
  5
AE
  8
SCAFFOLD
 10
97.67317300016508
 20
-37.35999729704412
 30
0.0
 11
97.67317300016508
 21
-35.860009451694
 31
0.0
  0
LINE
  5
AF
  8
SCAFFOLD
 10
97.67317300016508
 20
-35.860009451694
 30
0.0
 11
95.29818292203471
 21
-35.860009451694
 31
0.0
  0
LINE
  5
B0
  8
SCAFFOLD
 10
95.29818292203471
 20
-35.860009451694
 30
0.0
 11
95.29818292203471
 21
-37.35999729704412
 31
0.0
  0
DIMENSION
  5
B1
  8
DIMS
  2
*D4
 10
97.67317300016508
 20
-35.24103677049368
 30
0.0
 11
96.4856779610999
 21
-34.60947427049368
 31
0.0
 70
    32
  1
<>
  3
INCH_DECIMAL
 13
95.29818292203471
 23
-35.860009451694
 33
0.0
 14
97.67317300016508
 24
-35.860009451694
 34
0.0
  0
DIMENSION
  5
C0
  8
DIMS
  2
*D5
 10
85.50862349053469
 20
-37.35324362990505
 30
0.0
 11
84.87706099053469
 21
-36.60324362990505
 31
0.0
 70
    32
  1
<>
  3
INCH_DECIMAL
 13
86.77872085812541
 23
-35.85324362990505
 33
0.0
 14
86.77872085812541
 24
-37.35324362990505
 34
0.0
 50
90.0
  0
DIMENSION
  5
CF
  8
DIMS
  2
*D6
 10
90.02872085812541
 20
-35.09683729851579
 30
0.0
 11
88.40372085812541
 21
-34.46527479851579
 31
0.0
 70
    32
  1
<>
  3
INCH_DECIMAL
 13
86.77872085812541
 23
-35.85324362990505
 33
0.0
 14
90.02872085812541
 24
-35.85324362990505
 34
0.0
  0
LINE
  5
DC
  8
SCAFFOLD
 10
86.77872085812541
 20
-37.35324362990505
 30
0.0
 11
90.02872085812541
 21
-37.35324362990505
 31
0.0
  0
LINE
  5
DD
  8
SCAFFOLD
 10
90.02872085812541
 20
-37.35324362990505
 30
0.0
 11
90.02872085812541
 21
-35.85324362990505
 31
0.0
  0
LINE
  5
DE
  8
SCAFFOLD
 10
90.02872085812541
 20
-35.85324362990505
 30
0.0
 11
86.77872085812541
 21
-35.85324362990505
 31
0.0
  0
LINE
  5
DF
  8
SCAFFOLD
 10
86.77872085812541
 20
-35.85324362990505
 30
0.0
 11
86.77872085812541
 21
-37.35324362990505
 31
0.0
  0
LINE
  5
E0
  8
DIMS
 10
56.17073587858862
 20
-32.51599686932458
 30
0.0
 11
68.17073587858862
 21
-32.51599686932458
 31
0.0
  0
LINE
  5
E1
  8
DIMS
 10
68.17073587858862
 20
-32.51599686932458
 30
0.0
 11
68.17073587858862
 21
-20.51599686932458
 31
0.0
  0
LINE
  5
E2
  8
DIMS
 10
68.17073587858862
 20
-20.51599686932458
 30
0.0
 11
56.17073587858862
 21
-20.51599686932458
 31
0.0
  0
LINE
  5
E3
  8
DIMS
 10
56.17073587858862
 20
-20.51599686932458
 30
0.0
 11
56.17073587858862
 21
-32.51599686932458
 31
0.0
  0
INSERT
  5
E5
  8
DIMS
  2
*X8
 10
0.0
 20
0.0
 30
0.0
  0
INSERT
  5
E6
  8
DIMS
  2
*X9
 10
0.0
 20
0.0
 30
0.0
  0
INSERT
  5
E8
  8
DIMS
  2
*X10
 10
0.0
 20
0.0
 30
0.0
  0
INSERT
  5
E9
  8
DIMS
  2
*X11
 10
0.0
 20
0.0
 30
0.0
  0
INSERT
  5
EB
  8
DIMS
  2
*X12
 10
0.0
 20
0.0
 30
0.0
  0
INSERT
  5
EC
  8
DIMS
  2
*X13
 10
0.0
 20
0.0
 30
0.0
  0
CIRCLE
  5
EE
  8
SREW_HOLD_DOWNS
 10
149.7198094701792
 20
18.00091834969319
 30
0.0
 40
0.125
  0
CIRCLE
  5
EF
  8
SREW_HOLD_DOWNS
 10
105.9697649213081
 20
27.20153702989262
 30
0.0
 40
0.125
  0
CIRCLE
  5
F0
  8
SREW_HOLD_DOWNS
 10
57.7329169011916
 20
18.00219432796096
 30
0.0
 40
0.125
  0
LINE
  5
F1
  8
DIMS
 10
151.7369218621264
 20
21.35406672993086
 30
0.0
 11
151.7369218621264
 21
13.35406672993088
 31
0.0
  0
LINE
  5
F2
  8
DIMS
 10
55.73692186212642
 20
21.36842893856638
 30
0.0
 11
55.73692186212641
 21
13.36842893856635
 31
0.0
  0
LINE
  5
F4
  8
CUT_OUTS
 10
56.54542186212642
 20
17.2522004052859
 30
0.0
 11
58.92041194025678
 21
17.2522004052859
 31
0.0
  0
LINE
  5
F5
  8
CUT_OUTS
 10
58.92041194025678
 20
17.2522004052859
 30
0.0
 11
58.92041194025678
 21
18.75218825063602
 31
0.0
  0
LINE
  5
F6
  8
CUT_OUTS
 10
58.92041194025678
 20
18.75218825063602
 30
0.0
 11
56.54542186212642
 21
18.75218825063602
 31
0.0
  0
LINE
  5
F7
  8
CUT_OUTS
 10
56.54542186212642
 20
18.75218825063602
 30
0.0
 11
56.54542186212642
 21
17.2522004052859
 31
0.0
  0
LINE
  5
F8
  8
CUT_OUTS
 10
64.50412825646806
 20
20.4724644103262
 30
0.0
 11
66.87911833459843
 21
20.4724644103262
 31
0.0
  0
LINE
  5
F9
  8
CUT_OUTS
 10
66.87911833459843
 20
20.4724644103262
 30
0.0
 11
66.87911833459843
 21
21.97245225567632
 31
0.0
  0
LINE
  5
FA
  8
CUT_OUTS
 10
66.87911833459843
 20
21.97245225567632
 30
0.0
 11
64.50412825646806
 21
21.97245225567632
 31
0.0
  0
LINE
  5
FB
  8
CUT_OUTS
 10
64.50412825646806
 20
21.97245225567632
 30
0.0
 11
64.50412825646806
 21
20.4724644103262
 31
0.0
  0
LINE
  5
FC
  8
CUT_OUTS
 10
72.47462915086628
 20
22.74512333944824
 30
0.0
 11
74.84961922899662
 21
22.74512333944824
 31
0.0
  0
LINE
  5
FD
  8
CUT_OUTS
 10
74.84961922899662
 20
22.74512333944824
 30
0.0
 11
74.84961922899662
 21
24.24511118479838
 31
0.0
  0
LINE
  5
FE
  8
CUT_OUTS
 10
74.84961922899662
 20
24.24511118479838
 30
0.0
 11
72.47462915086628
 21
24.24511118479838
 31
0.0
  0
LINE
  5
FF
  8
CUT_OUTS
 10
72.47462915086628
 20
24.24511118479838
 30
0.0
 11
72.47462915086628
 21
22.74512333944824
 31
0.0
  0
LINE
  5
100
  8
CUT_OUTS
 10
80.4263996497259
 20
24.55304697215276
 30
0.0
 11
82.80138972785623
 21
24.55304697215276
 31
0.0
  0
LINE
  5
101
  8
CUT_OUTS
 10
82.80138972785623
 20
24.55304697215276
 30
0.0
 11
82.80138972785623
 21
26.05303481750288
 31
0.0
  0
LINE
  5
102
  8
CUT_OUTS
 10
82.80138972785623
 20
26.05303481750288
 30
0.0
 11
80.4263996497259
 21
26.05303481750288
 31
0.0
  0
LINE
  5
103
  8
CUT_OUTS
 10
80.4263996497259
 20
26.05303481750288
 30
0.0
 11
80.4263996497259
 21
24.55304697215276
 31
0.0
  0
LINE
  5
104
  8
CUT_OUTS
 10
88.38021555253526
 20
25.61498689307935
 30
0.0
 11
90.75520563066563
 21
25.61498689307935
 31
0.0
  0
LINE
  5
105
  8
CUT_OUTS
 10
90.75520563066563
 20
25.61498689307935
 30
0.0
 11
90.75520563066563
 21
27.11497473842947
 31
0.0
  0
LINE
  5
106
  8
CUT_OUTS
 10
90.75520563066563
 20
27.11497473842947
 30
0.0
 11
88.38021555253526
 21
27.11497473842947
 31
0.0
  0
LINE
  5
107
  8
CUT_OUTS
 10
88.38021555253526
 20
27.11497473842947
 30
0.0
 11
88.38021555253526
 21
25.61498689307935
 31
0.0
  0
LINE
  5
108
  8
CUT_OUTS
 10
96.34524997166444
 20
26.3278609022635
 30
0.0
 11
98.72024004979478
 21
26.3278609022635
 31
0.0
  0
LINE
  5
109
  8
CUT_OUTS
 10
98.72024004979478
 20
26.3278609022635
 30
0.0
 11
98.72024004979478
 21
27.82784874761363
 31
0.0
  0
LINE
  5
10A
  8
CUT_OUTS
 10
98.72024004979478
 20
27.82784874761363
 30
0.0
 11
96.34524997166444
 21
27.82784874761363
 31
0.0
  0
LINE
  5
10B
  8
CUT_OUTS
 10
96.34524997166444
 20
27.82784874761363
 30
0.0
 11
96.34524997166444
 21
26.3278609022635
 31
0.0
  0
LINE
  5
10C
  8
CUT_OUTS
 10
108.741406430121
 20
26.3278609022635
 30
0.0
 11
111.1163965082514
 21
26.3278609022635
 31
0.0
  0
LINE
  5
10D
  8
CUT_OUTS
 10
111.1163965082514
 20
26.3278609022635
 30
0.0
 11
111.1163965082514
 21
27.82784874761363
 31
0.0
  0
LINE
  5
10E
  8
CUT_OUTS
 10
111.1163965082514
 20
27.82784874761363
 30
0.0
 11
108.741406430121
 21
27.82784874761363
 31
0.0
  0
LINE
  5
10F
  8
CUT_OUTS
 10
108.741406430121
 20
27.82784874761363
 30
0.0
 11
108.741406430121
 21
26.3278609022635
 31
0.0
  0
LINE
  5
110
  8
CUT_OUTS
 10
116.6946205314326
 20
25.59571207486171
 30
0.0
 11
119.069610609563
 21
25.59571207486171
 31
0.0
  0
LINE
  5
111
  8
CUT_OUTS
 10
119.069610609563
 20
25.59571207486171
 30
0.0
 11
119.069610609563
 21
27.09569992021183
 31
0.0
  0
LINE
  5
112
  8
CUT_OUTS
 10
119.069610609563
 20
27.09569992021183
 30
0.0
 11
116.6946205314326
 21
27.09569992021183
 31
0.0
  0
LINE
  5
113
  8
CUT_OUTS
 10
116.6946205314326
 20
27.09569992021183
 30
0.0
 11
116.6946205314326
 21
25.59571207486171
 31
0.0
  0
LINE
  5
114
  8
CUT_OUTS
 10
124.6587535789686
 20
24.53601598320385
 30
0.0
 11
127.033743657099
 21
24.53601598320385
 31
0.0
  0
LINE
  5
115
  8
CUT_OUTS
 10
127.033743657099
 20
24.53601598320385
 30
0.0
 11
127.033743657099
 21
26.03600382855397
 31
0.0
  0
LINE
  5
116
  8
CUT_OUTS
 10
127.033743657099
 20
26.03600382855397
 30
0.0
 11
124.6587535789686
 21
26.03600382855397
 31
0.0
  0
LINE
  5
117
  8
CUT_OUTS
 10
124.6587535789686
 20
26.03600382855397
 30
0.0
 11
124.6587535789686
 21
24.53601598320385
 31
0.0
  0
LINE
  5
118
  8
CUT_OUTS
 10
132.616419462835
 20
22.72138860162927
 30
0.0
 11
134.9914095409653
 21
22.72138860162927
 31
0.0
  0
LINE
  5
119
  8
CUT_OUTS
 10
134.9914095409653
 20
22.72138860162927
 30
0.0
 11
134.9914095409653
 21
24.22137644697941
 31
0.0
  0
LINE
  5
11A
  8
CUT_OUTS
 10
134.9914095409653
 20
24.22137644697941
 30
0.0
 11
132.616419462835
 21
24.22137644697941
 31
0.0
  0
LINE
  5
11B
  8
CUT_OUTS
 10
132.616419462835
 20
24.22137644697941
 30
0.0
 11
132.616419462835
 21
22.72138860162927
 31
0.0
  0
LINE
  5
11C
  8
CUT_OUTS
 10
140.5748194643119
 20
20.47662639896534
 30
0.0
 11
142.9498095424423
 21
20.47662639896534
 31
0.0
  0
LINE
  5
11D
  8
CUT_OUTS
 10
142.9498095424423
 20
20.47662639896534
 30
0.0
 11
142.9498095424423
 21
21.97661424431547
 31
0.0
  0
LINE
  5
11E
  8
CUT_OUTS
 10
142.9498095424423
 20
21.97661424431547
 30
0.0
 11
140.5748194643119
 21
21.97661424431547
 31
0.0
  0
LINE
  5
11F
  8
CUT_OUTS
 10
140.5748194643119
 20
21.97661424431547
 30
0.0
 11
140.5748194643119
 21
20.47662639896534
 31
0.0
  0
LINE
  5
120
  8
CUT_OUTS
 10
148.532314431114
 20
17.25092442701813
 30
0.0
 11
150.9073045092444
 21
17.25092442701813
 31
0.0
  0
LINE
  5
121
  8
CUT_OUTS
 10
150.9073045092444
 20
17.25092442701813
 30
0.0
 11
150.9073045092444
 21
18.75091227236825
 31
0.0
  0
LINE
  5
122
  8
CUT_OUTS
 10
150.9073045092444
 20
18.75091227236825
 30
0.0
 11
148.532314431114
 21
18.75091227236825
 31
0.0
  0
LINE
  5
123
  8
CUT_OUTS
 10
148.532314431114
 20
18.75091227236825
 30
0.0
 11
148.532314431114
 21
17.25092442701813
 31
0.0
  0
LINE
  5
124
  8
CUT_OUTS
 10
60.12945044783751
 20
18.93387500228631
 30
0.0
 11
63.37941467393868
 21
18.93387500228631
 31
0.0
  0
LINE
  5
125
  8
CUT_OUTS
 10
63.37941467393868
 20
18.93387500228631
 30
0.0
 11
63.37941467393868
 21
20.43395250997139
 31
0.0
  0
LINE
  5
126
  8
CUT_OUTS
 10
63.37941467393868
 20
20.43395250997139
 30
0.0
 11
60.12945044783751
 21
20.43395250997139
 31
0.0
  0
LINE
  5
127
  8
CUT_OUTS
 10
60.12945044783751
 20
20.43395250997139
 30
0.0
 11
60.12945044783751
 21
18.93387500228631
 31
0.0
  0
LINE
  5
128
  8
CUT_OUTS
 10
76.0451678402619
 20
23.72004540734838
 30
0.0
 11
79.29513206636308
 21
23.72004540734838
 31
0.0
  0
LINE
  5
129
  8
CUT_OUTS
 10
79.29513206636308
 20
23.72004540734838
 30
0.0
 11
79.29513206636308
 21
25.22012291503344
 31
0.0
  0
LINE
  5
12A
  8
CUT_OUTS
 10
79.29513206636308
 20
25.22012291503344
 30
0.0
 11
76.0451678402619
 21
25.22012291503344
 31
0.0
  0
LINE
  5
12B
  8
CUT_OUTS
 10
76.0451678402619
 20
25.22012291503344
 30
0.0
 11
76.0451678402619
 21
23.72004540734838
 31
0.0
  0
LINE
  5
12C
  8
CUT_OUTS
 10
83.9931119930567
 20
25.13910867195119
 30
0.0
 11
87.24307621915786
 21
25.13910867195119
 31
0.0
  0
LINE
  5
12D
  8
CUT_OUTS
 10
87.24307621915786
 20
25.13910867195119
 30
0.0
 11
87.24307621915786
 21
26.63918617963625
 31
0.0
  0
LINE
  5
12E
  8
CUT_OUTS
 10
87.24307621915786
 20
26.63918617963625
 30
0.0
 11
83.9931119930567
 21
26.63918617963625
 31
0.0
  0
LINE
  5
12F
  8
CUT_OUTS
 10
83.9931119930567
 20
26.63918617963625
 30
0.0
 11
83.9931119930567
 21
25.13910867195119
 31
0.0
  0
LINE
  5
130
  8
CUT_OUTS
 10
91.9450292986805
 20
25.96662526960961
 30
0.0
 11
95.19499352478168
 21
25.96662526960961
 31
0.0
  0
LINE
  5
131
  8
CUT_OUTS
 10
95.19499352478168
 20
25.96662526960961
 30
0.0
 11
95.19499352478168
 21
27.46670277729467
 31
0.0
  0
LINE
  5
132
  8
CUT_OUTS
 10
95.19499352478168
 20
27.46670277729467
 30
0.0
 11
91.9450292986805
 21
27.46670277729467
 31
0.0
  0
LINE
  5
133
  8
CUT_OUTS
 10
91.9450292986805
 20
27.46670277729467
 30
0.0
 11
91.9450292986805
 21
25.96662526960961
 31
0.0
  0
LINE
  5
134
  8
CUT_OUTS
 10
99.91634152456193
 20
26.45149827605007
 30
0.0
 11
103.1663057506631
 21
26.45149827605007
 31
0.0
  0
LINE
  5
135
  8
CUT_OUTS
 10
103.1663057506631
 20
26.45149827605007
 30
0.0
 11
103.1663057506631
 21
27.95157578373515
 31
0.0
  0
LINE
  5
136
  8
CUT_OUTS
 10
103.1663057506631
 20
27.95157578373515
 30
0.0
 11
99.91634152456193
 21
27.95157578373515
 31
0.0
  0
LINE
  5
137
  8
CUT_OUTS
 10
99.91634152456193
 20
27.95157578373515
 30
0.0
 11
99.91634152456193
 21
26.45149827605007
 31
0.0
  0
LINE
  5
138
  8
CUT_OUTS
 10
104.3447828082576
 20
26.45149827605007
 30
0.0
 11
107.5947470343587
 21
26.45149827605007
 31
0.0
  0
LINE
  5
139
  8
CUT_OUTS
 10
107.5947470343587
 20
26.45149827605007
 30
0.0
 11
107.5947470343587
 21
27.95157578373515
 31
0.0
  0
LINE
  5
13A
  8
CUT_OUTS
 10
107.5947470343587
 20
27.95157578373515
 30
0.0
 11
104.3447828082576
 21
27.95157578373515
 31
0.0
  0
LINE
  5
13B
  8
CUT_OUTS
 10
104.3447828082576
 20
27.95157578373515
 30
0.0
 11
104.3447828082576
 21
26.45149827605007
 31
0.0
  0
LINE
  5
13C
  8
CUT_OUTS
 10
112.311399410209
 20
25.98016671904246
 30
0.0
 11
115.5613636363102
 21
25.98016671904246
 31
0.0
  0
LINE
  5
13D
  8
CUT_OUTS
 10
115.5613636363102
 20
25.98016671904246
 30
0.0
 11
115.5613636363102
 21
27.48024422672754
 31
0.0
  0
LINE
  5
13E
  8
CUT_OUTS
 10
115.5613636363102
 20
27.48024422672754
 30
0.0
 11
112.311399410209
 21
27.48024422672754
 31
0.0
  0
LINE
  5
13F
  8
CUT_OUTS
 10
112.311399410209
 20
27.48024422672754
 30
0.0
 11
112.311399410209
 21
25.98016671904246
 31
0.0
  0
LINE
  5
140
  8
CUT_OUTS
 10
120.2502565240717
 20
25.13474455985786
 30
0.0
 11
123.5002207501728
 21
25.13474455985786
 31
0.0
  0
LINE
  5
141
  8
CUT_OUTS
 10
123.5002207501728
 20
25.13474455985786
 30
0.0
 11
123.5002207501728
 21
26.63482206754293
 31
0.0
  0
LINE
  5
142
  8
CUT_OUTS
 10
123.5002207501728
 20
26.63482206754293
 30
0.0
 11
120.2502565240717
 21
26.63482206754293
 31
0.0
  0
LINE
  5
143
  8
CUT_OUTS
 10
120.2502565240717
 20
26.63482206754293
 30
0.0
 11
120.2502565240717
 21
25.13474455985786
 31
0.0
  0
LINE
  5
144
  8
CUT_OUTS
 10
128.2215955421228
 20
23.70570241248151
 30
0.0
 11
131.471559768224
 21
23.70570241248151
 31
0.0
  0
LINE
  5
145
  8
CUT_OUTS
 10
131.471559768224
 20
23.70570241248151
 30
0.0
 11
131.471559768224
 21
25.20577992016658
 31
0.0
  0
LINE
  5
146
  8
CUT_OUTS
 10
131.471559768224
 20
25.20577992016658
 30
0.0
 11
128.2215955421228
 21
25.20577992016658
 31
0.0
  0
LINE
  5
147
  8
CUT_OUTS
 10
128.2215955421228
 20
25.20577992016658
 30
0.0
 11
128.2215955421228
 21
23.70570241248151
 31
0.0
  0
LINE
  5
148
  8
CUT_OUTS
 10
136.177281114719
 20
21.66848968057263
 30
0.0
 11
139.4272453408201
 21
21.66848968057263
 31
0.0
  0
LINE
  5
149
  8
CUT_OUTS
 10
139.4272453408201
 20
21.66848968057263
 30
0.0
 11
139.4272453408201
 21
23.1685671882577
 31
0.0
  0
LINE
  5
14A
  8
CUT_OUTS
 10
139.4272453408201
 20
23.1685671882577
 30
0.0
 11
136.177281114719
 21
23.1685671882577
 31
0.0
  0
LINE
  5
14B
  8
CUT_OUTS
 10
136.177281114719
 20
23.1685671882577
 30
0.0
 11
136.177281114719
 21
21.66848968057263
 31
0.0
  0
LINE
  5
14C
  8
CUT_OUTS
 10
144.1283753226673
 20
18.91791089830494
 30
0.0
 11
147.3783395487685
 21
18.91791089830494
 31
0.0
  0
LINE
  5
14D
  8
CUT_OUTS
 10
147.3783395487685
 20
18.91791089830494
 30
0.0
 11
147.3783395487685
 21
20.41798840599002
 31
0.0
  0
LINE
  5
14E
  8
CUT_OUTS
 10
147.3783395487685
 20
20.41798840599002
 30
0.0
 11
144.1283753226673
 21
20.41798840599002
 31
0.0
  0
LINE
  5
14F
  8
CUT_OUTS
 10
144.1283753226673
 20
20.41798840599002
 30
0.0
 11
144.1283753226673
 21
18.91791089830494
 31
0.0
  0
LINE
  5
150
  8
CUT_OUTS
 10
68.07238188463627
 20
21.67358686004867
 30
0.0
 11
71.32234611073746
 21
21.67358686004867
 31
0.0
  0
LINE
  5
151
  8
CUT_OUTS
 10
71.32234611073746
 20
21.67358686004867
 30
0.0
 11
71.32234611073746
 21
23.17366436773375
 31
0.0
  0
LINE
  5
152
  8
CUT_OUTS
 10
71.32234611073746
 20
23.17366436773375
 30
0.0
 11
68.07238188463627
 21
23.17366436773375
 31
0.0
  0
LINE
  5
153
  8
CUT_OUTS
 10
68.07238188463627
 20
23.17366436773375
 30
0.0
 11
68.07238188463627
 21
21.67358686004867
 31
0.0
  0
LINE
  5
154
  8
DIMS
 10
103.7555442794603
 20
30.95157578373515
 30
0.0
 11
99.8628203034292
 21
30.93095461104823
 31
0.0
  0
LINE
  5
155
  8
DIMS
 10
99.8628203034292
 20
30.93095461104823
 30
0.0
 11
98.10683207213646
 21
30.88218839129274
 31
0.0
  0
LINE
  5
156
  8
DIMS
 10
98.10683207213646
 20
30.88218839129274
 30
0.0
 11
96.20706178498335
 21
30.78827892524739
 31
0.0
  0
LINE
  5
157
  8
DIMS
 10
96.20706178498335
 20
30.78827892524739
 30
0.0
 11
92.08426378648694
 21
30.46827243253696
 31
0.0
  0
LINE
  5
158
  8
DIMS
 10
92.08426378648694
 20
30.46827243253696
 30
0.0
 11
88.24316725031304
 21
30.09429798510813
 31
0.0
  0
LINE
  5
159
  8
DIMS
 10
88.24316725031304
 20
30.09429798510813
 30
0.0
 11
84.12984386241466
 21
29.62079237907956
 31
0.0
  0
LINE
  5
15A
  8
DIMS
 10
84.12984386241466
 20
29.62079237907956
 30
0.0
 11
82.2098781495166
 21
29.33867042890964
 31
0.0
  0
LINE
  5
15B
  8
DIMS
 10
82.2098781495166
 20
29.33867042890964
 30
0.0
 11
80.29064640537035
 21
29.0119080607802
 31
0.0
  0
LINE
  5
15C
  8
DIMS
 10
80.29064640537035
 20
29.0119080607802
 30
0.0
 11
78.23570402945087
 21
28.62847760859938
 31
0.0
  0
LINE
  5
15D
  8
DIMS
 10
78.23570402945087
 20
28.62847760859938
 30
0.0
 11
76.18028336027331
 21
28.19643961040584
 31
0.0
  0
LINE
  5
15E
  8
DIMS
 10
76.18028336027331
 20
28.19643961040584
 30
0.0
 11
72.33601105472721
 21
27.22903867032678
 31
0.0
  0
LINE
  5
15F
  8
DIMS
 10
72.33601105472721
 20
27.22903867032678
 30
0.0
 11
68.21138082431324
 21
26.15203681856828
 31
0.0
  0
LINE
  5
160
  8
DIMS
 10
68.21138082431324
 20
26.15203681856828
 30
0.0
 11
67.23116239705297
 21
25.86135560971789
 31
0.0
  0
LINE
  5
161
  8
DIMS
 10
67.23116239705297
 20
25.86135560971789
 30
0.0
 11
64.00516773055051
 21
24.78802936304772
 31
0.0
  0
LINE
  5
162
  8
DIMS
 10
64.00516773055051
 20
24.78802936304772
 30
0.0
 11
62.63130213000595
 21
24.30345355165321
 31
0.0
  0
LINE
  5
163
  8
DIMS
 10
62.63130213000595
 20
24.30345355165321
 30
0.0
 11
60.98616413963761
 21
23.68146053287201
 31
0.0
  0
LINE
  5
164
  8
DIMS
 10
60.98616413963761
 20
23.68146053287201
 30
0.0
 11
58.98559147761969
 21
22.85379165107573
 31
0.0
  0
LINE
  5
165
  8
DIMS
 10
58.98559147761969
 20
22.85379165107573
 30
0.0
 11
56.54542186212642
 21
21.75218825063603
 31
0.0
  0
ARC
  5
166
  8
DIMS
 10
99.44907718024777
 20
-69.6803215307363
 30
0.0
 40
100.998155847406
 50
115.137778324493
 51
115.6454834396706
  0
LINE
  5
167
  8
DIMS
 10
103.7555442794603
 20
22.95157578373515
 30
0.0
 11
99.8628203034292
 21
22.93095461104823
 31
0.0
  0
LINE
  5
168
  8
DIMS
 10
99.8628203034292
 20
22.93095461104823
 30
0.0
 11
98.10683207213646
 21
22.88218839129274
 31
0.0
  0
LINE
  5
169
  8
DIMS
 10
98.10683207213646
 20
22.88218839129274
 30
0.0
 11
96.20706178498335
 21
22.78827892524739
 31
0.0
  0
LINE
  5
16A
  8
DIMS
 10
96.20706178498335
 20
22.78827892524739
 30
0.0
 11
92.08426378648694
 21
22.46827243253696
 31
0.0
  0
LINE
  5
16B
  8
DIMS
 10
92.08426378648694
 20
22.46827243253696
 30
0.0
 11
88.24316725031304
 21
22.09429798510813
 31
0.0
  0
LINE
  5
16C
  8
DIMS
 10
88.24316725031304
 20
22.09429798510813
 30
0.0
 11
84.12984386241466
 21
21.62079237907956
 31
0.0
  0
LINE
  5
16D
  8
DIMS
 10
84.12984386241466
 20
21.62079237907956
 30
0.0
 11
82.2098781495166
 21
21.33867042890964
 31
0.0
  0
LINE
  5
16E
  8
DIMS
 10
82.2098781495166
 20
21.33867042890964
 30
0.0
 11
80.29064640537035
 21
21.0119080607802
 31
0.0
  0
LINE
  5
16F
  8
DIMS
 10
80.29064640537035
 20
21.0119080607802
 30
0.0
 11
78.23570402945087
 21
20.62847760859938
 31
0.0
  0
LINE
  5
170
  8
DIMS
 10
78.23570402945087
 20
20.62847760859938
 30
0.0
 11
76.1802833602733
 21
20.19643961040583
 31
0.0
  0
LINE
  5
171
  8
DIMS
 10
76.1802833602733
 20
20.19643961040583
 30
0.0
 11
72.33601105472721
 21
19.22903867032678
 31
0.0
  0
LINE
  5
172
  8
DIMS
 10
72.33601105472721
 20
19.22903867032678
 30
0.0
 11
68.21138082431324
 21
18.15203681856828
 31
0.0
  0
LINE
  5
173
  8
DIMS
 10
68.21138082431324
 20
18.15203681856828
 30
0.0
 11
67.23116239723717
 21
17.86135560932536
 31
0.0
  0
LINE
  5
174
  8
DIMS
 10
67.23116239723717
 20
17.86135560932536
 30
0.0
 11
64.00516774233846
 21
16.78802933792632
 31
0.0
  0
LINE
  5
175
  8
DIMS
 10
64.00516774233846
 20
16.78802933792632
 30
0.0
 11
62.63130183506136
 21
16.30345339532239
 31
0.0
  0
LINE
  5
176
  8
DIMS
 10
62.63130183506136
 20
16.30345339532239
 30
0.0
 11
60.98616362555446
 21
15.68146028336851
 31
0.0
  0
LINE
  5
177
  8
DIMS
 10
60.98616362555446
 20
15.68146028336851
 30
0.0
 11
58.98559100438655
 21
14.85379142687096
 31
0.0
  0
LINE
  5
178
  8
DIMS
 10
58.98559100438655
 20
14.85379142687096
 30
0.0
 11
56.54542186212642
 21
13.75218825063602
 31
0.0
  0
ARC
  5
179
  8
DIMS
 10
99.44907718024767
 20
-77.68032153073547
 30
0.0
 40
100.9981558474052
 50
115.1377783244932
 51
115.6454834396707
  0
ARC
  5
17A
  8
DIMS
 10
110.4355744554627
 20
-63.92202993414412
 30
0.0
 40
94.75132695570328
 50
64.15793184522434
 51
64.71404143302576
  0
LINE
  5
17B
  8
DIMS
 10
150.9073045092444
 20
21.75091227236825
 30
0.0
 11
148.4946704451127
 21
22.84565073204332
 31
0.0
  0
LINE
  5
17C
  8
DIMS
 10
148.4946704451127
 20
22.84565073204332
 30
0.0
 11
146.5005493503483
 21
23.67279975931513
 31
0.0
  0
LINE
  5
17D
  8
DIMS
 10
146.5005493503483
 20
23.67279975931513
 30
0.0
 11
144.8504417103258
 21
24.29768112720255
 31
0.0
  0
LINE
  5
17E
  8
DIMS
 10
144.8504417103258
 20
24.29768112720255
 30
0.0
 11
141.2345057584986
 21
25.54581718506228
 31
0.0
  0
LINE
  5
17F
  8
DIMS
 10
141.2345057584986
 20
25.54581718506228
 30
0.0
 11
140.2517975830371
 21
25.85781107384896
 31
0.0
  0
LINE
  5
180
  8
DIMS
 10
140.2517975830371
 20
25.85781107384896
 30
0.0
 11
139.2750334077813
 21
26.14537657405428
 31
0.0
  0
LINE
  5
181
  8
DIMS
 10
139.2750334077813
 20
26.14537657405428
 30
0.0
 11
135.1440738788176
 21
27.20997548272365
 31
0.0
  0
LINE
  5
182
  8
DIMS
 10
135.1440738788176
 20
27.20997548272365
 30
0.0
 11
131.3185653784934
 21
28.18008332603328
 31
0.0
  0
LINE
  5
183
  8
DIMS
 10
131.3185653784934
 20
28.18008332603328
 30
0.0
 11
129.2523668556993
 21
28.61285884864781
 31
0.0
  0
LINE
  5
184
  8
DIMS
 10
129.2523668556993
 20
28.61285884864781
 30
0.0
 11
125.2671323280216
 21
29.32771823855431
 31
0.0
  0
LINE
  5
185
  8
DIMS
 10
125.2671323280216
 20
29.32771823855431
 30
0.0
 11
123.3507062112256
 21
29.61183200315625
 31
0.0
  0
LINE
  5
186
  8
DIMS
 10
123.3507062112256
 20
29.61183200315625
 30
0.0
 11
119.2233378041225
 21
30.08297766251963
 31
0.0
  0
LINE
  5
187
  8
DIMS
 10
119.2233378041225
 20
30.08297766251963
 30
0.0
 11
113.3019170048311
 21
30.6499016173303
 31
0.0
  0
LINE
  5
188
  8
DIMS
 10
113.3019170048311
 20
30.6499016173303
 30
0.0
 11
110.9768119944547
 21
30.80084641982966
 31
0.0
  0
LINE
  5
189
  8
DIMS
 10
110.9768119944547
 20
30.80084641982966
 30
0.0
 11
108.2715693622731
 21
30.9095357749669
 31
0.0
  0
LINE
  5
18A
  8
DIMS
 10
108.2715693622731
 20
30.9095357749669
 30
0.0
 11
104.3447828082576
 21
30.95157578373515
 31
0.0
  0
LINE
  5
18B
  8
DIMS
 10
104.3447828082576
 20
30.95157578373515
 30
0.0
 11
103.7555442794603
 21
30.95157578373515
 31
0.0
  0
ARC
  5
18C
  8
DIMS
 10
110.4355744554629
 20
-71.92202993414375
 30
0.0
 40
94.75132695570288
 50
64.15793184522434
 51
64.71404143302577
  0
LINE
  5
18D
  8
DIMS
 10
150.9073045092444
 20
13.75091227236825
 30
0.0
 11
148.4946704451127
 21
14.84565073204332
 31
0.0
  0
LINE
  5
18E
  8
DIMS
 10
148.4946704451127
 20
14.84565073204332
 30
0.0
 11
146.5005493503483
 21
15.67279975931513
 31
0.0
  0
LINE
  5
18F
  8
DIMS
 10
146.5005493503483
 20
15.67279975931513
 30
0.0
 11
144.8504417103258
 21
16.29768112720255
 31
0.0
  0
LINE
  5
190
  8
DIMS
 10
144.8504417103258
 20
16.29768112720255
 30
0.0
 11
141.2345057584986
 21
17.54581718506228
 31
0.0
  0
LINE
  5
191
  8
DIMS
 10
141.2345057584986
 20
17.54581718506228
 30
0.0
 11
140.2517975830371
 21
17.85781107384896
 31
0.0
  0
LINE
  5
192
  8
DIMS
 10
140.2517975830371
 20
17.85781107384896
 30
0.0
 11
139.2750334077813
 21
18.14537657405428
 31
0.0
  0
LINE
  5
193
  8
DIMS
 10
139.2750334077813
 20
18.14537657405428
 30
0.0
 11
135.1440738788176
 21
19.20997548272365
 31
0.0
  0
LINE
  5
194
  8
DIMS
 10
135.1440738788176
 20
19.20997548272365
 30
0.0
 11
131.3185653784934
 21
20.18008332603328
 31
0.0
  0
LINE
  5
195
  8
DIMS
 10
131.3185653784934
 20
20.18008332603328
 30
0.0
 11
129.2523668556993
 21
20.61285884864781
 31
0.0
  0
LINE
  5
196
  8
DIMS
 10
129.2523668556993
 20
20.61285884864781
 30
0.0
 11
125.2671323280216
 21
21.32771823855431
 31
0.0
  0
LINE
  5
197
  8
DIMS
 10
125.2671323280216
 20
21.32771823855431
 30
0.0
 11
123.3507062112256
 21
21.61183200315625
 31
0.0
  0
LINE
  5
198
  8
DIMS
 10
123.3507062112256
 20
21.61183200315625
 30
0.0
 11
119.2233378041225
 21
22.08297766251963
 31
0.0
  0
LINE
  5
199
  8
DIMS
 10
119.2233378041225
 20
22.08297766251963
 30
0.0
 11
113.3019170048311
 21
22.64990161733031
 31
0.0
  0
LINE
  5
19A
  8
DIMS
 10
113.3019170048311
 20
22.64990161733031
 30
0.0
 11
110.9768119944547
 21
22.80084641982967
 31
0.0
  0
LINE
  5
19B
  8
DIMS
 10
110.9768119944547
 20
22.80084641982967
 30
0.0
 11
108.2715693622731
 21
22.9095357749669
 31
0.0
  0
LINE
  5
19C
  8
DIMS
 10
108.2715693622731
 20
22.9095357749669
 30
0.0
 11
104.3447828082576
 21
22.95157578373515
 31
0.0
  0
LINE
  5
19D
  8
DIMS
 10
104.3447828082576
 20
22.95157578373515
 30
0.0
 11
103.7555442794603
 21
22.95157578373515
 31
0.0
  0
CIRCLE
  5
19F
  8
DRILL_HOLES
 10
149.2369218621265
 20
15.84442467938224
 30
0.0
 40
0.3125
  0
CIRCLE
  5
1A0
  8
DRILL_HOLES
 10
149.2369218621265
 20
20.66915741548914
 30
0.0
 40
0.3125
  0
CIRCLE
  5
1A1
  8
DRILL_HOLES
 10
58.23696046694833
 20
20.66915741548914
 30
0.0
 40
0.3125
  0
CIRCLE
  5
1A2
  8
DRILL_HOLES
 10
58.23696046694833
 20
15.84442467938224
 30
0.0
 40
0.3125
  0
CIRCLE
  5
1A3
  8
SREW_HOLD_DOWNS
 10
149.7198094701792
 20
9.500918349693194
 30
0.0
 40
0.125
  0
CIRCLE
  5
1A4
  8
SREW_HOLD_DOWNS
 10
105.9697649213081
 20
18.70153702989262
 30
0.0
 40
0.125
  0
CIRCLE
  5
1A5
  8
SREW_HOLD_DOWNS
 10
57.7329169011916
 20
9.502194327960964
 30
0.0
 40
0.125
  0
LINE
  5
1A6
  8
DIMS
 10
151.7369218621264
 20
12.85406672993086
 30
0.0
 11
151.7369218621264
 21
4.854066729930878
 31
0.0
  0
LINE
  5
1A7
  8
DIMS
 10
55.73692186212642
 20
12.86842893856638
 30
0.0
 11
55.73692186212641
 21
4.868428938566353
 31
0.0
  0
LINE
  5
1A8
  8
CUT_OUTS
 10
56.54542186212642
 20
8.752200405285905
 30
0.0
 11
58.92041194025678
 21
8.752200405285905
 31
0.0
  0
LINE
  5
1A9
  8
CUT_OUTS
 10
58.92041194025678
 20
8.752200405285905
 30
0.0
 11
58.92041194025678
 21
10.25218825063602
 31
0.0
  0
LINE
  5
1AA
  8
CUT_OUTS
 10
58.92041194025678
 20
10.25218825063602
 30
0.0
 11
56.54542186212642
 21
10.25218825063602
 31
0.0
  0
LINE
  5
1AB
  8
CUT_OUTS
 10
56.54542186212642
 20
10.25218825063602
 30
0.0
 11
56.54542186212642
 21
8.752200405285905
 31
0.0
  0
LINE
  5
1AC
  8
CUT_OUTS
 10
64.50412825646806
 20
11.9724644103262
 30
0.0
 11
66.87911833459843
 21
11.9724644103262
 31
0.0
  0
LINE
  5
1AD
  8
CUT_OUTS
 10
66.87911833459843
 20
11.9724644103262
 30
0.0
 11
66.87911833459843
 21
13.47245225567632
 31
0.0
  0
LINE
  5
1AE
  8
CUT_OUTS
 10
66.87911833459843
 20
13.47245225567632
 30
0.0
 11
64.50412825646806
 21
13.47245225567632
 31
0.0
  0
LINE
  5
1AF
  8
CUT_OUTS
 10
64.50412825646806
 20
13.47245225567632
 30
0.0
 11
64.50412825646806
 21
11.9724644103262
 31
0.0
  0
LINE
  5
1B0
  8
CUT_OUTS
 10
72.47462915086628
 20
14.24512333944824
 30
0.0
 11
74.84961922899662
 21
14.24512333944824
 31
0.0
  0
LINE
  5
1B1
  8
CUT_OUTS
 10
74.84961922899662
 20
14.24512333944824
 30
0.0
 11
74.84961922899662
 21
15.74511118479838
 31
0.0
  0
LINE
  5
1B2
  8
CUT_OUTS
 10
74.84961922899662
 20
15.74511118479838
 30
0.0
 11
72.47462915086628
 21
15.74511118479838
 31
0.0
  0
LINE
  5
1B3
  8
CUT_OUTS
 10
72.47462915086628
 20
15.74511118479838
 30
0.0
 11
72.47462915086628
 21
14.24512333944824
 31
0.0
  0
LINE
  5
1B4
  8
CUT_OUTS
 10
80.4263996497259
 20
16.05304697215276
 30
0.0
 11
82.80138972785623
 21
16.05304697215276
 31
0.0
  0
LINE
  5
1B5
  8
CUT_OUTS
 10
82.80138972785623
 20
16.05304697215276
 30
0.0
 11
82.80138972785623
 21
17.55303481750288
 31
0.0
  0
LINE
  5
1B6
  8
CUT_OUTS
 10
82.80138972785623
 20
17.55303481750288
 30
0.0
 11
80.4263996497259
 21
17.55303481750288
 31
0.0
  0
LINE
  5
1B7
  8
CUT_OUTS
 10
80.4263996497259
 20
17.55303481750288
 30
0.0
 11
80.4263996497259
 21
16.05304697215276
 31
0.0
  0
LINE
  5
1B8
  8
CUT_OUTS
 10
88.38021555253526
 20
17.11498689307935
 30
0.0
 11
90.75520563066563
 21
17.11498689307935
 31
0.0
  0
LINE
  5
1B9
  8
CUT_OUTS
 10
90.75520563066563
 20
17.11498689307935
 30
0.0
 11
90.75520563066563
 21
18.61497473842947
 31
0.0
  0
LINE
  5
1BA
  8
CUT_OUTS
 10
90.75520563066563
 20
18.61497473842947
 30
0.0
 11
88.38021555253526
 21
18.61497473842947
 31
0.0
  0
LINE
  5
1BB
  8
CUT_OUTS
 10
88.38021555253526
 20
18.61497473842947
 30
0.0
 11
88.38021555253526
 21
17.11498689307935
 31
0.0
  0
LINE
  5
1BC
  8
CUT_OUTS
 10
96.34524997166444
 20
17.8278609022635
 30
0.0
 11
98.72024004979478
 21
17.8278609022635
 31
0.0
  0
LINE
  5
1BD
  8
CUT_OUTS
 10
98.72024004979478
 20
17.8278609022635
 30
0.0
 11
98.72024004979478
 21
19.32784874761363
 31
0.0
  0
LINE
  5
1BE
  8
CUT_OUTS
 10
98.72024004979478
 20
19.32784874761363
 30
0.0
 11
96.34524997166444
 21
19.32784874761363
 31
0.0
  0
LINE
  5
1BF
  8
CUT_OUTS
 10
96.34524997166444
 20
19.32784874761363
 30
0.0
 11
96.34524997166444
 21
17.8278609022635
 31
0.0
  0
LINE
  5
1C0
  8
CUT_OUTS
 10
108.741406430121
 20
17.8278609022635
 30
0.0
 11
111.1163965082514
 21
17.8278609022635
 31
0.0
  0
LINE
  5
1C1
  8
CUT_OUTS
 10
111.1163965082514
 20
17.8278609022635
 30
0.0
 11
111.1163965082514
 21
19.32784874761363
 31
0.0
  0
LINE
  5
1C2
  8
CUT_OUTS
 10
111.1163965082514
 20
19.32784874761363
 30
0.0
 11
108.741406430121
 21
19.32784874761363
 31
0.0
  0
LINE
  5
1C3
  8
CUT_OUTS
 10
108.741406430121
 20
19.32784874761363
 30
0.0
 11
108.741406430121
 21
17.8278609022635
 31
0.0
  0
LINE
  5
1C4
  8
CUT_OUTS
 10
116.6946205314326
 20
17.09571207486171
 30
0.0
 11
119.069610609563
 21
17.09571207486171
 31
0.0
  0
LINE
  5
1C5
  8
CUT_OUTS
 10
119.069610609563
 20
17.09571207486171
 30
0.0
 11
119.069610609563
 21
18.59569992021183
 31
0.0
  0
LINE
  5
1C6
  8
CUT_OUTS
 10
119.069610609563
 20
18.59569992021183
 30
0.0
 11
116.6946205314326
 21
18.59569992021183
 31
0.0
  0
LINE
  5
1C7
  8
CUT_OUTS
 10
116.6946205314326
 20
18.59569992021183
 30
0.0
 11
116.6946205314326
 21
17.09571207486171
 31
0.0
  0
LINE
  5
1C8
  8
CUT_OUTS
 10
124.6587535789686
 20
16.03601598320385
 30
0.0
 11
127.033743657099
 21
16.03601598320385
 31
0.0
  0
LINE
  5
1C9
  8
CUT_OUTS
 10
127.033743657099
 20
16.03601598320385
 30
0.0
 11
127.033743657099
 21
17.53600382855397
 31
0.0
  0
LINE
  5
1CA
  8
CUT_OUTS
 10
127.033743657099
 20
17.53600382855397
 30
0.0
 11
124.6587535789686
 21
17.53600382855397
 31
0.0
  0
LINE
  5
1CB
  8
CUT_OUTS
 10
124.6587535789686
 20
17.53600382855397
 30
0.0
 11
124.6587535789686
 21
16.03601598320385
 31
0.0
  0
LINE
  5
1CC
  8
CUT_OUTS
 10
132.616419462835
 20
14.22138860162927
 30
0.0
 11
134.9914095409653
 21
14.22138860162927
 31
0.0
  0
LINE
  5
1CD
  8
CUT_OUTS
 10
134.9914095409653
 20
14.22138860162927
 30
0.0
 11
134.9914095409653
 21
15.72137644697941
 31
0.0
  0
LINE
  5
1CE
  8
CUT_OUTS
 10
134.9914095409653
 20
15.72137644697941
 30
0.0
 11
132.616419462835
 21
15.72137644697941
 31
0.0
  0
LINE
  5
1CF
  8
CUT_OUTS
 10
132.616419462835
 20
15.72137644697941
 30
0.0
 11
132.616419462835
 21
14.22138860162927
 31
0.0
  0
LINE
  5
1D0
  8
CUT_OUTS
 10
140.5748194643119
 20
11.97662639896534
 30
0.0
 11
142.9498095424423
 21
11.97662639896534
 31
0.0
  0
LINE
  5
1D1
  8
CUT_OUTS
 10
142.9498095424423
 20
11.97662639896534
 30
0.0
 11
142.9498095424423
 21
13.47661424431547
 31
0.0
  0
LINE
  5
1D2
  8
CUT_OUTS
 10
142.9498095424423
 20
13.47661424431547
 30
0.0
 11
140.5748194643119
 21
13.47661424431547
 31
0.0
  0
LINE
  5
1D3
  8
CUT_OUTS
 10
140.5748194643119
 20
13.47661424431547
 30
0.0
 11
140.5748194643119
 21
11.97662639896534
 31
0.0
  0
LINE
  5
1D4
  8
CUT_OUTS
 10
148.532314431114
 20
8.750924427018134
 30
0.0
 11
150.9073045092444
 21
8.750924427018134
 31
0.0
  0
LINE
  5
1D5
  8
CUT_OUTS
 10
150.9073045092444
 20
8.750924427018134
 30
0.0
 11
150.9073045092444
 21
10.25091227236825
 31
0.0
  0
LINE
  5
1D6
  8
CUT_OUTS
 10
150.9073045092444
 20
10.25091227236825
 30
0.0
 11
148.532314431114
 21
10.25091227236825
 31
0.0
  0
LINE
  5
1D7
  8
CUT_OUTS
 10
148.532314431114
 20
10.25091227236825
 30
0.0
 11
148.532314431114
 21
8.750924427018134
 31
0.0
  0
LINE
  5
1D8
  8
CUT_OUTS
 10
60.12945044783751
 20
10.43387500228631
 30
0.0
 11
63.37941467393868
 21
10.43387500228631
 31
0.0
  0
LINE
  5
1D9
  8
CUT_OUTS
 10
63.37941467393868
 20
10.43387500228631
 30
0.0
 11
63.37941467393868
 21
11.93395250997139
 31
0.0
  0
LINE
  5
1DA
  8
CUT_OUTS
 10
63.37941467393868
 20
11.93395250997139
 30
0.0
 11
60.12945044783751
 21
11.93395250997139
 31
0.0
  0
LINE
  5
1DB
  8
CUT_OUTS
 10
60.12945044783751
 20
11.93395250997139
 30
0.0
 11
60.12945044783751
 21
10.43387500228631
 31
0.0
  0
LINE
  5
1DC
  8
CUT_OUTS
 10
76.0451678402619
 20
15.22004540734838
 30
0.0
 11
79.29513206636308
 21
15.22004540734838
 31
0.0
  0
LINE
  5
1DD
  8
CUT_OUTS
 10
79.29513206636308
 20
15.22004540734838
 30
0.0
 11
79.29513206636308
 21
16.72012291503344
 31
0.0
  0
LINE
  5
1DE
  8
CUT_OUTS
 10
79.29513206636308
 20
16.72012291503344
 30
0.0
 11
76.0451678402619
 21
16.72012291503344
 31
0.0
  0
LINE
  5
1DF
  8
CUT_OUTS
 10
76.0451678402619
 20
16.72012291503344
 30
0.0
 11
76.0451678402619
 21
15.22004540734838
 31
0.0
  0
LINE
  5
1E0
  8
CUT_OUTS
 10
83.9931119930567
 20
16.63910867195119
 30
0.0
 11
87.24307621915786
 21
16.63910867195119
 31
0.0
  0
LINE
  5
1E1
  8
CUT_OUTS
 10
87.24307621915786
 20
16.63910867195119
 30
0.0
 11
87.24307621915786
 21
18.13918617963625
 31
0.0
  0
LINE
  5
1E2
  8
CUT_OUTS
 10
87.24307621915786
 20
18.13918617963625
 30
0.0
 11
83.9931119930567
 21
18.13918617963625
 31
0.0
  0
LINE
  5
1E3
  8
CUT_OUTS
 10
83.9931119930567
 20
18.13918617963625
 30
0.0
 11
83.9931119930567
 21
16.63910867195119
 31
0.0
  0
LINE
  5
1E4
  8
CUT_OUTS
 10
91.9450292986805
 20
17.46662526960961
 30
0.0
 11
95.19499352478168
 21
17.46662526960961
 31
0.0
  0
LINE
  5
1E5
  8
CUT_OUTS
 10
95.19499352478168
 20
17.46662526960961
 30
0.0
 11
95.19499352478168
 21
18.96670277729467
 31
0.0
  0
LINE
  5
1E6
  8
CUT_OUTS
 10
95.19499352478168
 20
18.96670277729467
 30
0.0
 11
91.9450292986805
 21
18.96670277729467
 31
0.0
  0
LINE
  5
1E7
  8
CUT_OUTS
 10
91.9450292986805
 20
18.96670277729467
 30
0.0
 11
91.9450292986805
 21
17.46662526960961
 31
0.0
  0
LINE
  5
1E8
  8
CUT_OUTS
 10
99.91634152456193
 20
17.95149827605007
 30
0.0
 11
103.1663057506631
 21
17.95149827605007
 31
0.0
  0
LINE
  5
1E9
  8
CUT_OUTS
 10
103.1663057506631
 20
17.95149827605007
 30
0.0
 11
103.1663057506631
 21
19.45157578373515
 31
0.0
  0
LINE
  5
1EA
  8
CUT_OUTS
 10
103.1663057506631
 20
19.45157578373515
 30
0.0
 11
99.91634152456193
 21
19.45157578373515
 31
0.0
  0
LINE
  5
1EB
  8
CUT_OUTS
 10
99.91634152456193
 20
19.45157578373515
 30
0.0
 11
99.91634152456193
 21
17.95149827605007
 31
0.0
  0
LINE
  5
1EC
  8
CUT_OUTS
 10
104.3447828082576
 20
17.95149827605007
 30
0.0
 11
107.5947470343587
 21
17.95149827605007
 31
0.0
  0
LINE
  5
1ED
  8
CUT_OUTS
 10
107.5947470343587
 20
17.95149827605007
 30
0.0
 11
107.5947470343587
 21
19.45157578373515
 31
0.0
  0
LINE
  5
1EE
  8
CUT_OUTS
 10
107.5947470343587
 20
19.45157578373515
 30
0.0
 11
104.3447828082576
 21
19.45157578373515
 31
0.0
  0
LINE
  5
1EF
  8
CUT_OUTS
 10
104.3447828082576
 20
19.45157578373515
 30
0.0
 11
104.3447828082576
 21
17.95149827605007
 31
0.0
  0
LINE
  5
1F0
  8
CUT_OUTS
 10
112.311399410209
 20
17.48016671904246
 30
0.0
 11
115.5613636363102
 21
17.48016671904246
 31
0.0
  0
LINE
  5
1F1
  8
CUT_OUTS
 10
115.5613636363102
 20
17.48016671904246
 30
0.0
 11
115.5613636363102
 21
18.98024422672754
 31
0.0
  0
LINE
  5
1F2
  8
CUT_OUTS
 10
115.5613636363102
 20
18.98024422672754
 30
0.0
 11
112.311399410209
 21
18.98024422672754
 31
0.0
  0
LINE
  5
1F3
  8
CUT_OUTS
 10
112.311399410209
 20
18.98024422672754
 30
0.0
 11
112.311399410209
 21
17.48016671904246
 31
0.0
  0
LINE
  5
1F4
  8
CUT_OUTS
 10
120.2502565240717
 20
16.63474455985786
 30
0.0
 11
123.5002207501728
 21
16.63474455985786
 31
0.0
  0
LINE
  5
1F5
  8
CUT_OUTS
 10
123.5002207501728
 20
16.63474455985786
 30
0.0
 11
123.5002207501728
 21
18.13482206754293
 31
0.0
  0
LINE
  5
1F6
  8
CUT_OUTS
 10
123.5002207501728
 20
18.13482206754293
 30
0.0
 11
120.2502565240717
 21
18.13482206754293
 31
0.0
  0
LINE
  5
1F7
  8
CUT_OUTS
 10
120.2502565240717
 20
18.13482206754293
 30
0.0
 11
120.2502565240717
 21
16.63474455985786
 31
0.0
  0
LINE
  5
1F8
  8
CUT_OUTS
 10
128.2215955421228
 20
15.20570241248151
 30
0.0
 11
131.471559768224
 21
15.20570241248151
 31
0.0
  0
LINE
  5
1F9
  8
CUT_OUTS
 10
131.471559768224
 20
15.20570241248151
 30
0.0
 11
131.471559768224
 21
16.70577992016658
 31
0.0
  0
LINE
  5
1FA
  8
CUT_OUTS
 10
131.471559768224
 20
16.70577992016658
 30
0.0
 11
128.2215955421228
 21
16.70577992016658
 31
0.0
  0
LINE
  5
1FB
  8
CUT_OUTS
 10
128.2215955421228
 20
16.70577992016658
 30
0.0
 11
128.2215955421228
 21
15.20570241248151
 31
0.0
  0
LINE
  5
1FC
  8
CUT_OUTS
 10
136.177281114719
 20
13.16848968057263
 30
0.0
 11
139.4272453408201
 21
13.16848968057263
 31
0.0
  0
LINE
  5
1FD
  8
CUT_OUTS
 10
139.4272453408201
 20
13.16848968057263
 30
0.0
 11
139.4272453408201
 21
14.6685671882577
 31
0.0
  0
LINE
  5
1FE
  8
CUT_OUTS
 10
139.4272453408201
 20
14.6685671882577
 30
0.0
 11
136.177281114719
 21
14.6685671882577
 31
0.0
  0
LINE
  5
1FF
  8
CUT_OUTS
 10
136.177281114719
 20
14.6685671882577
 30
0.0
 11
136.177281114719
 21
13.16848968057263
 31
0.0
  0
LINE
  5
200
  8
CUT_OUTS
 10
144.1283753226673
 20
10.41791089830494
 30
0.0
 11
147.3783395487685
 21
10.41791089830494
 31
0.0
  0
LINE
  5
201
  8
CUT_OUTS
 10
147.3783395487685
 20
10.41791089830494
 30
0.0
 11
147.3783395487685
 21
11.91798840599002
 31
0.0
  0
LINE
  5
202
  8
CUT_OUTS
 10
147.3783395487685
 20
11.91798840599002
 30
0.0
 11
144.1283753226673
 21
11.91798840599002
 31
0.0
  0
LINE
  5
203
  8
CUT_OUTS
 10
144.1283753226673
 20
11.91798840599002
 30
0.0
 11
144.1283753226673
 21
10.41791089830494
 31
0.0
  0
LINE
  5
204
  8
CUT_OUTS
 10
68.07238188463627
 20
13.17358686004867
 30
0.0
 11
71.32234611073746
 21
13.17358686004867
 31
0.0
  0
LINE
  5
205
  8
CUT_OUTS
 10
71.32234611073746
 20
13.17358686004867
 30
0.0
 11
71.32234611073746
 21
14.67366436773375
 31
0.0
  0
LINE
  5
206
  8
CUT_OUTS
 10
71.32234611073746
 20
14.67366436773375
 30
0.0
 11
68.07238188463627
 21
14.67366436773375
 31
0.0
  0
LINE
  5
207
  8
CUT_OUTS
 10
68.07238188463627
 20
14.67366436773375
 30
0.0
 11
68.07238188463627
 21
13.17358686004867
 31
0.0
  0
LINE
  5
208
  8
DIMS
 10
103.7555442794603
 20
22.45157578373515
 30
0.0
 11
99.8628203034292
 21
22.43095461104823
 31
0.0
  0
LINE
  5
209
  8
DIMS
 10
99.8628203034292
 20
22.43095461104823
 30
0.0
 11
98.10683207213646
 21
22.38218839129274
 31
0.0
  0
LINE
  5
20A
  8
DIMS
 10
98.10683207213646
 20
22.38218839129274
 30
0.0
 11
96.20706178498335
 21
22.28827892524739
 31
0.0
  0
LINE
  5
20B
  8
DIMS
 10
96.20706178498335
 20
22.28827892524739
 30
0.0
 11
92.08426378648694
 21
21.96827243253696
 31
0.0
  0
LINE
  5
20C
  8
DIMS
 10
92.08426378648694
 20
21.96827243253696
 30
0.0
 11
88.24316725031304
 21
21.59429798510813
 31
0.0
  0
LINE
  5
20D
  8
DIMS
 10
88.24316725031304
 20
21.59429798510813
 30
0.0
 11
84.12984386241466
 21
21.12079237907956
 31
0.0
  0
LINE
  5
20E
  8
DIMS
 10
84.12984386241466
 20
21.12079237907956
 30
0.0
 11
82.2098781495166
 21
20.83867042890964
 31
0.0
  0
LINE
  5
20F
  8
DIMS
 10
82.2098781495166
 20
20.83867042890964
 30
0.0
 11
80.29064640537035
 21
20.5119080607802
 31
0.0
  0
LINE
  5
210
  8
DIMS
 10
80.29064640537035
 20
20.5119080607802
 30
0.0
 11
78.23570402945087
 21
20.12847760859938
 31
0.0
  0
LINE
  5
211
  8
DIMS
 10
78.23570402945087
 20
20.12847760859938
 30
0.0
 11
76.18028336027331
 21
19.69643961040584
 31
0.0
  0
LINE
  5
212
  8
DIMS
 10
76.18028336027331
 20
19.69643961040584
 30
0.0
 11
72.33601105472721
 21
18.72903867032678
 31
0.0
  0
LINE
  5
213
  8
DIMS
 10
72.33601105472721
 20
18.72903867032678
 30
0.0
 11
68.21138082431324
 21
17.65203681856828
 31
0.0
  0
LINE
  5
214
  8
DIMS
 10
68.21138082431324
 20
17.65203681856828
 30
0.0
 11
67.23116239705297
 21
17.36135560971789
 31
0.0
  0
LINE
  5
215
  8
DIMS
 10
67.23116239705297
 20
17.36135560971789
 30
0.0
 11
64.00516773055051
 21
16.28802936304771
 31
0.0
  0
LINE
  5
216
  8
DIMS
 10
64.00516773055051
 20
16.28802936304771
 30
0.0
 11
62.63130213000595
 21
15.80345355165322
 31
0.0
  0
LINE
  5
217
  8
DIMS
 10
62.63130213000595
 20
15.80345355165322
 30
0.0
 11
60.98616413963761
 21
15.18146053287201
 31
0.0
  0
LINE
  5
218
  8
DIMS
 10
60.98616413963761
 20
15.18146053287201
 30
0.0
 11
58.98559147761969
 21
14.35379165107573
 31
0.0
  0
LINE
  5
219
  8
DIMS
 10
58.98559147761969
 20
14.35379165107573
 30
0.0
 11
56.54542186212642
 21
13.25218825063604
 31
0.0
  0
ARC
  5
21A
  8
DIMS
 10
99.44907718024777
 20
-78.1803215307363
 30
0.0
 40
100.998155847406
 50
115.137778324493
 51
115.6454834396706
  0
LINE
  5
21B
  8
DIMS
 10
103.7555442794603
 20
14.45157578373515
 30
0.0
 11
99.8628203034292
 21
14.43095461104823
 31
0.0
  0
LINE
  5
21C
  8
DIMS
 10
99.8628203034292
 20
14.43095461104823
 30
0.0
 11
98.10683207213646
 21
14.38218839129275
 31
0.0
  0
LINE
  5
21D
  8
DIMS
 10
98.10683207213646
 20
14.38218839129275
 30
0.0
 11
96.20706178498335
 21
14.28827892524739
 31
0.0
  0
LINE
  5
21E
  8
DIMS
 10
96.20706178498335
 20
14.28827892524739
 30
0.0
 11
92.08426378648694
 21
13.96827243253696
 31
0.0
  0
LINE
  5
21F
  8
DIMS
 10
92.08426378648694
 20
13.96827243253696
 30
0.0
 11
88.24316725031304
 21
13.59429798510813
 31
0.0
  0
LINE
  5
220
  8
DIMS
 10
88.24316725031304
 20
13.59429798510813
 30
0.0
 11
84.12984386241466
 21
13.12079237907956
 31
0.0
  0
LINE
  5
221
  8
DIMS
 10
84.12984386241466
 20
13.12079237907956
 30
0.0
 11
82.2098781495166
 21
12.83867042890964
 31
0.0
  0
LINE
  5
222
  8
DIMS
 10
82.2098781495166
 20
12.83867042890964
 30
0.0
 11
80.29064640537035
 21
12.5119080607802
 31
0.0
  0
LINE
  5
223
  8
DIMS
 10
80.29064640537035
 20
12.5119080607802
 30
0.0
 11
78.23570402945087
 21
12.12847760859937
 31
0.0
  0
LINE
  5
224
  8
DIMS
 10
78.23570402945087
 20
12.12847760859937
 30
0.0
 11
76.1802833602733
 21
11.69643961040584
 31
0.0
  0
LINE
  5
225
  8
DIMS
 10
76.1802833602733
 20
11.69643961040584
 30
0.0
 11
72.33601105472721
 21
10.72903867032678
 31
0.0
  0
LINE
  5
226
  8
DIMS
 10
72.33601105472721
 20
10.72903867032678
 30
0.0
 11
68.21138082431324
 21
9.652036818568282
 31
0.0
  0
LINE
  5
227
  8
DIMS
 10
68.21138082431324
 20
9.652036818568282
 30
0.0
 11
67.23116239723717
 21
9.361355609325365
 31
0.0
  0
LINE
  5
228
  8
DIMS
 10
67.23116239723717
 20
9.361355609325365
 30
0.0
 11
64.00516774233846
 21
8.288029337926321
 31
0.0
  0
LINE
  5
229
  8
DIMS
 10
64.00516774233846
 20
8.288029337926321
 30
0.0
 11
62.63130183506136
 21
7.803453395322394
 31
0.0
  0
LINE
  5
22A
  8
DIMS
 10
62.63130183506136
 20
7.803453395322394
 30
0.0
 11
60.98616362555446
 21
7.18146028336851
 31
0.0
  0
LINE
  5
22B
  8
DIMS
 10
60.98616362555446
 20
7.18146028336851
 30
0.0
 11
58.98559100438655
 21
6.353791426870957
 31
0.0
  0
LINE
  5
22C
  8
DIMS
 10
58.98559100438655
 20
6.353791426870957
 30
0.0
 11
56.54542186212642
 21
5.252188250636024
 31
0.0
  0
ARC
  5
22D
  8
DIMS
 10
99.44907718024767
 20
-86.18032153073547
 30
0.0
 40
100.9981558474052
 50
115.1377783244932
 51
115.6454834396707
  0
ARC
  5
22E
  8
DIMS
 10
110.4355744554627
 20
-72.42202993414412
 30
0.0
 40
94.75132695570328
 50
64.15793184522434
 51
64.71404143302576
  0
LINE
  5
22F
  8
DIMS
 10
150.9073045092444
 20
13.25091227236825
 30
0.0
 11
148.4946704451127
 21
14.34565073204332
 31
0.0
  0
LINE
  5
230
  8
DIMS
 10
148.4946704451127
 20
14.34565073204332
 30
0.0
 11
146.5005493503483
 21
15.17279975931513
 31
0.0
  0
LINE
  5
231
  8
DIMS
 10
146.5005493503483
 20
15.17279975931513
 30
0.0
 11
144.8504417103258
 21
15.79768112720256
 31
0.0
  0
LINE
  5
232
  8
DIMS
 10
144.8504417103258
 20
15.79768112720256
 30
0.0
 11
141.2345057584986
 21
17.04581718506228
 31
0.0
  0
LINE
  5
233
  8
DIMS
 10
141.2345057584986
 20
17.04581718506228
 30
0.0
 11
140.2517975830371
 21
17.35781107384896
 31
0.0
  0
LINE
  5
234
  8
DIMS
 10
140.2517975830371
 20
17.35781107384896
 30
0.0
 11
139.2750334077813
 21
17.64537657405428
 31
0.0
  0
LINE
  5
235
  8
DIMS
 10
139.2750334077813
 20
17.64537657405428
 30
0.0
 11
135.1440738788176
 21
18.70997548272365
 31
0.0
  0
LINE
  5
236
  8
DIMS
 10
135.1440738788176
 20
18.70997548272365
 30
0.0
 11
131.3185653784934
 21
19.68008332603328
 31
0.0
  0
LINE
  5
237
  8
DIMS
 10
131.3185653784934
 20
19.68008332603328
 30
0.0
 11
129.2523668556993
 21
20.11285884864781
 31
0.0
  0
LINE
  5
238
  8
DIMS
 10
129.2523668556993
 20
20.11285884864781
 30
0.0
 11
125.2671323280216
 21
20.82771823855431
 31
0.0
  0
LINE
  5
239
  8
DIMS
 10
125.2671323280216
 20
20.82771823855431
 30
0.0
 11
123.3507062112256
 21
21.11183200315625
 31
0.0
  0
LINE
  5
23A
  8
DIMS
 10
123.3507062112256
 20
21.11183200315625
 30
0.0
 11
119.2233378041225
 21
21.58297766251963
 31
0.0
  0
LINE
  5
23B
  8
DIMS
 10
119.2233378041225
 20
21.58297766251963
 30
0.0
 11
113.3019170048311
 21
22.1499016173303
 31
0.0
  0
LINE
  5
23C
  8
DIMS
 10
113.3019170048311
 20
22.1499016173303
 30
0.0
 11
110.9768119944547
 21
22.30084641982967
 31
0.0
  0
LINE
  5
23D
  8
DIMS
 10
110.9768119944547
 20
22.30084641982967
 30
0.0
 11
108.2715693622731
 21
22.4095357749669
 31
0.0
  0
LINE
  5
23E
  8
DIMS
 10
108.2715693622731
 20
22.4095357749669
 30
0.0
 11
104.3447828082576
 21
22.45157578373515
 31
0.0
  0
LINE
  5
23F
  8
DIMS
 10
104.3447828082576
 20
22.45157578373515
 30
0.0
 11
103.7555442794603
 21
22.45157578373515
 31
0.0
  0
ARC
  5
240
  8
DIMS
 10
110.4355744554629
 20
-80.42202993414375
 30
0.0
 40
94.75132695570288
 50
64.15793184522434
 51
64.71404143302577
  0
LINE
  5
241
  8
DIMS
 10
150.9073045092444
 20
5.250912272368254
 30
0.0
 11
148.4946704451127
 21
6.345650732043319
 31
0.0
  0
LINE
  5
242
  8
DIMS
 10
148.4946704451127
 20
6.345650732043319
 30
0.0
 11
146.5005493503483
 21
7.172799759315126
 31
0.0
  0
LINE
  5
243
  8
DIMS
 10
146.5005493503483
 20
7.172799759315126
 30
0.0
 11
144.8504417103258
 21
7.797681127202553
 31
0.0
  0
LINE
  5
244
  8
DIMS
 10
144.8504417103258
 20
7.797681127202553
 30
0.0
 11
141.2345057584986
 21
9.045817185062283
 31
0.0
  0
LINE
  5
245
  8
DIMS
 10
141.2345057584986
 20
9.045817185062283
 30
0.0
 11
140.2517975830371
 21
9.357811073848964
 31
0.0
  0
LINE
  5
246
  8
DIMS
 10
140.2517975830371
 20
9.357811073848964
 30
0.0
 11
139.2750334077813
 21
9.645376574054279
 31
0.0
  0
LINE
  5
247
  8
DIMS
 10
139.2750334077813
 20
9.645376574054279
 30
0.0
 11
135.1440738788176
 21
10.70997548272365
 31
0.0
  0
LINE
  5
248
  8
DIMS
 10
135.1440738788176
 20
10.70997548272365
 30
0.0
 11
131.3185653784934
 21
11.68008332603328
 31
0.0
  0
LINE
  5
249
  8
DIMS
 10
131.3185653784934
 20
11.68008332603328
 30
0.0
 11
129.2523668556993
 21
12.11285884864781
 31
0.0
  0
LINE
  5
24A
  8
DIMS
 10
129.2523668556993
 20
12.11285884864781
 30
0.0
 11
125.2671323280216
 21
12.82771823855431
 31
0.0
  0
LINE
  5
24B
  8
DIMS
 10
125.2671323280216
 20
12.82771823855431
 30
0.0
 11
123.3507062112256
 21
13.11183200315625
 31
0.0
  0
LINE
  5
24C
  8
DIMS
 10
123.3507062112256
 20
13.11183200315625
 30
0.0
 11
119.2233378041225
 21
13.58297766251963
 31
0.0
  0
LINE
  5
24D
  8
DIMS
 10
119.2233378041225
 20
13.58297766251963
 30
0.0
 11
113.3019170048311
 21
14.1499016173303
 31
0.0
  0
LINE
  5
24E
  8
DIMS
 10
113.3019170048311
 20
14.1499016173303
 30
0.0
 11
110.9768119944547
 21
14.30084641982966
 31
0.0
  0
LINE
  5
24F
  8
DIMS
 10
110.9768119944547
 20
14.30084641982966
 30
0.0
 11
108.2715693622731
 21
14.4095357749669
 31
0.0
  0
LINE
  5
250
  8
DIMS
 10
108.2715693622731
 20
14.4095357749669
 30
0.0
 11
104.3447828082576
 21
14.45157578373515
 31
0.0
  0
LINE
  5
251
  8
DIMS
 10
104.3447828082576
 20
14.45157578373515
 30
0.0
 11
103.7555442794603
 21
14.45157578373515
 31
0.0
  0
CIRCLE
  5
252
  8
DRILL_HOLES
 10
149.2369218621265
 20
7.344424679382243
 30
0.0
 40
0.3125
  0
CIRCLE
  5
253
  8
DRILL_HOLES
 10
149.2369218621265
 20
12.16915741548914
 30
0.0
 40
0.3125
  0
CIRCLE
  5
254
  8
DRILL_HOLES
 10
58.23696046694833
 20
12.16915741548914
 30
0.0
 40
0.3125
  0
CIRCLE
  5
255
  8
DRILL_HOLES
 10
58.23696046694833
 20
7.344424679382243
 30
0.0
 40
0.3125
  0
CIRCLE
  5
256
  8
SREW_HOLD_DOWNS
 10
149.7198094701792
 20
1.000918349693194
 30
0.0
 40
0.125
  0
CIRCLE
  5
257
  8
SREW_HOLD_DOWNS
 10
105.9697649213081
 20
10.20153702989262
 30
0.0
 40
0.125
  0
CIRCLE
  5
258
  8
SREW_HOLD_DOWNS
 10
57.7329169011916
 20
1.002194327960964
 30
0.0
 40
0.125
  0
LINE
  5
259
  8
DIMS
 10
151.7369218621264
 20
4.354066729930864
 30
0.0
 11
151.7369218621264
 21
-3.645933270069122
 31
0.0
  0
LINE
  5
25A
  8
DIMS
 10
55.73692186212642
 20
4.368428938566382
 30
0.0
 11
55.73692186212641
 21
-3.631571061433647
 31
0.0
  0
LINE
  5
25B
  8
CUT_OUTS
 10
56.54542186212642
 20
0.2522004052859046
 30
0.0
 11
58.92041194025678
 21
0.2522004052859046
 31
0.0
  0
LINE
  5
25C
  8
CUT_OUTS
 10
58.92041194025678
 20
0.2522004052859046
 30
0.0
 11
58.92041194025678
 21
1.752188250636024
 31
0.0
  0
LINE
  5
25D
  8
CUT_OUTS
 10
58.92041194025678
 20
1.752188250636024
 30
0.0
 11
56.54542186212642
 21
1.752188250636024
 31
0.0
  0
LINE
  5
25E
  8
CUT_OUTS
 10
56.54542186212642
 20
1.752188250636024
 30
0.0
 11
56.54542186212642
 21
0.2522004052859046
 31
0.0
  0
LINE
  5
25F
  8
CUT_OUTS
 10
64.50412825646806
 20
3.472464410326197
 30
0.0
 11
66.87911833459843
 21
3.472464410326197
 31
0.0
  0
LINE
  5
260
  8
CUT_OUTS
 10
66.87911833459843
 20
3.472464410326197
 30
0.0
 11
66.87911833459843
 21
4.972452255676316
 31
0.0
  0
LINE
  5
261
  8
CUT_OUTS
 10
66.87911833459843
 20
4.972452255676316
 30
0.0
 11
64.50412825646806
 21
4.972452255676316
 31
0.0
  0
LINE
  5
262
  8
CUT_OUTS
 10
64.50412825646806
 20
4.972452255676316
 30
0.0
 11
64.50412825646806
 21
3.472464410326197
 31
0.0
  0
LINE
  5
263
  8
CUT_OUTS
 10
72.47462915086628
 20
5.745123339448241
 30
0.0
 11
74.84961922899662
 21
5.745123339448241
 31
0.0
  0
LINE
  5
264
  8
CUT_OUTS
 10
74.84961922899662
 20
5.745123339448241
 30
0.0
 11
74.84961922899662
 21
7.245111184798375
 31
0.0
  0
LINE
  5
265
  8
CUT_OUTS
 10
74.84961922899662
 20
7.245111184798375
 30
0.0
 11
72.47462915086628
 21
7.245111184798375
 31
0.0
  0
LINE
  5
266
  8
CUT_OUTS
 10
72.47462915086628
 20
7.245111184798375
 30
0.0
 11
72.47462915086628
 21
5.745123339448241
 31
0.0
  0
LINE
  5
267
  8
CUT_OUTS
 10
80.4263996497259
 20
7.553046972152757
 30
0.0
 11
82.80138972785623
 21
7.553046972152757
 31
0.0
  0
LINE
  5
268
  8
CUT_OUTS
 10
82.80138972785623
 20
7.553046972152757
 30
0.0
 11
82.80138972785623
 21
9.053034817502876
 31
0.0
  0
LINE
  5
269
  8
CUT_OUTS
 10
82.80138972785623
 20
9.053034817502876
 30
0.0
 11
80.4263996497259
 21
9.053034817502876
 31
0.0
  0
LINE
  5
26A
  8
CUT_OUTS
 10
80.4263996497259
 20
9.053034817502876
 30
0.0
 11
80.4263996497259
 21
7.553046972152757
 31
0.0
  0
LINE
  5
26B
  8
CUT_OUTS
 10
88.38021555253526
 20
8.614986893079347
 30
0.0
 11
90.75520563066563
 21
8.614986893079347
 31
0.0
  0
LINE
  5
26C
  8
CUT_OUTS
 10
90.75520563066563
 20
8.614986893079347
 30
0.0
 11
90.75520563066563
 21
10.11497473842947
 31
0.0
  0
LINE
  5
26D
  8
CUT_OUTS
 10
90.75520563066563
 20
10.11497473842947
 30
0.0
 11
88.38021555253526
 21
10.11497473842947
 31
0.0
  0
LINE
  5
26E
  8
CUT_OUTS
 10
88.38021555253526
 20
10.11497473842947
 30
0.0
 11
88.38021555253526
 21
8.614986893079347
 31
0.0
  0
LINE
  5
26F
  8
CUT_OUTS
 10
96.34524997166444
 20
9.327860902263495
 30
0.0
 11
98.72024004979478
 21
9.327860902263495
 31
0.0
  0
LINE
  5
270
  8
CUT_OUTS
 10
98.72024004979478
 20
9.327860902263495
 30
0.0
 11
98.72024004979478
 21
10.82784874761363
 31
0.0
  0
LINE
  5
271
  8
CUT_OUTS
 10
98.72024004979478
 20
10.82784874761363
 30
0.0
 11
96.34524997166444
 21
10.82784874761363
 31
0.0
  0
LINE
  5
272
  8
CUT_OUTS
 10
96.34524997166444
 20
10.82784874761363
 30
0.0
 11
96.34524997166444
 21
9.327860902263495
 31
0.0
  0
LINE
  5
273
  8
CUT_OUTS
 10
108.741406430121
 20
9.327860902263495
 30
0.0
 11
111.1163965082514
 21
9.327860902263495
 31
0.0
  0
LINE
  5
274
  8
CUT_OUTS
 10
111.1163965082514
 20
9.327860902263495
 30
0.0
 11
111.1163965082514
 21
10.82784874761363
 31
0.0
  0
LINE
  5
275
  8
CUT_OUTS
 10
111.1163965082514
 20
10.82784874761363
 30
0.0
 11
108.741406430121
 21
10.82784874761363
 31
0.0
  0
LINE
  5
276
  8
CUT_OUTS
 10
108.741406430121
 20
10.82784874761363
 30
0.0
 11
108.741406430121
 21
9.327860902263495
 31
0.0
  0
LINE
  5
277
  8
CUT_OUTS
 10
116.6946205314326
 20
8.595712074861709
 30
0.0
 11
119.069610609563
 21
8.595712074861709
 31
0.0
  0
LINE
  5
278
  8
CUT_OUTS
 10
119.069610609563
 20
8.595712074861709
 30
0.0
 11
119.069610609563
 21
10.09569992021183
 31
0.0
  0
LINE
  5
279
  8
CUT_OUTS
 10
119.069610609563
 20
10.09569992021183
 30
0.0
 11
116.6946205314326
 21
10.09569992021183
 31
0.0
  0
LINE
  5
27A
  8
CUT_OUTS
 10
116.6946205314326
 20
10.09569992021183
 30
0.0
 11
116.6946205314326
 21
8.595712074861709
 31
0.0
  0
LINE
  5
27B
  8
CUT_OUTS
 10
124.6587535789686
 20
7.536015983203853
 30
0.0
 11
127.033743657099
 21
7.536015983203853
 31
0.0
  0
LINE
  5
27C
  8
CUT_OUTS
 10
127.033743657099
 20
7.536015983203853
 30
0.0
 11
127.033743657099
 21
9.036003828553973
 31
0.0
  0
LINE
  5
27D
  8
CUT_OUTS
 10
127.033743657099
 20
9.036003828553973
 30
0.0
 11
124.6587535789686
 21
9.036003828553973
 31
0.0
  0
LINE
  5
27E
  8
CUT_OUTS
 10
124.6587535789686
 20
9.036003828553973
 30
0.0
 11
124.6587535789686
 21
7.536015983203853
 31
0.0
  0
LINE
  5
27F
  8
CUT_OUTS
 10
132.616419462835
 20
5.721388601629272
 30
0.0
 11
134.9914095409653
 21
5.721388601629272
 31
0.0
  0
LINE
  5
280
  8
CUT_OUTS
 10
134.9914095409653
 20
5.721388601629272
 30
0.0
 11
134.9914095409653
 21
7.221376446979406
 31
0.0
  0
LINE
  5
281
  8
CUT_OUTS
 10
134.9914095409653
 20
7.221376446979406
 30
0.0
 11
132.616419462835
 21
7.221376446979406
 31
0.0
  0
LINE
  5
282
  8
CUT_OUTS
 10
132.616419462835
 20
7.221376446979406
 30
0.0
 11
132.616419462835
 21
5.721388601629272
 31
0.0
  0
LINE
  5
283
  8
CUT_OUTS
 10
140.5748194643119
 20
3.476626398965337
 30
0.0
 11
142.9498095424423
 21
3.476626398965337
 31
0.0
  0
LINE
  5
284
  8
CUT_OUTS
 10
142.9498095424423
 20
3.476626398965337
 30
0.0
 11
142.9498095424423
 21
4.976614244315471
 31
0.0
  0
LINE
  5
285
  8
CUT_OUTS
 10
142.9498095424423
 20
4.976614244315471
 30
0.0
 11
140.5748194643119
 21
4.976614244315471
 31
0.0
  0
LINE
  5
286
  8
CUT_OUTS
 10
140.5748194643119
 20
4.976614244315471
 30
0.0
 11
140.5748194643119
 21
3.476626398965337
 31
0.0
  0
LINE
  5
287
  8
CUT_OUTS
 10
148.532314431114
 20
0.2509244270181341
 30
0.0
 11
150.9073045092444
 21
0.2509244270181341
 31
0.0
  0
LINE
  5
288
  8
CUT_OUTS
 10
150.9073045092444
 20
0.2509244270181341
 30
0.0
 11
150.9073045092444
 21
1.750912272368254
 31
0.0
  0
LINE
  5
289
  8
CUT_OUTS
 10
150.9073045092444
 20
1.750912272368254
 30
0.0
 11
148.532314431114
 21
1.750912272368254
 31
0.0
  0
LINE
  5
28A
  8
CUT_OUTS
 10
148.532314431114
 20
1.750912272368254
 30
0.0
 11
148.532314431114
 21
0.2509244270181341
 31
0.0
  0
LINE
  5
28B
  8
CUT_OUTS
 10
60.12945044783751
 20
1.933875002286314
 30
0.0
 11
63.37941467393868
 21
1.933875002286314
 31
0.0
  0
LINE
  5
28C
  8
CUT_OUTS
 10
63.37941467393868
 20
1.933875002286314
 30
0.0
 11
63.37941467393868
 21
3.433952509971391
 31
0.0
  0
LINE
  5
28D
  8
CUT_OUTS
 10
63.37941467393868
 20
3.433952509971391
 30
0.0
 11
60.12945044783751
 21
3.433952509971391
 31
0.0
  0
LINE
  5
28E
  8
CUT_OUTS
 10
60.12945044783751
 20
3.433952509971391
 30
0.0
 11
60.12945044783751
 21
1.933875002286314
 31
0.0
  0
LINE
  5
28F
  8
CUT_OUTS
 10
76.0451678402619
 20
6.72004540734838
 30
0.0
 11
79.29513206636308
 21
6.72004540734838
 31
0.0
  0
LINE
  5
290
  8
CUT_OUTS
 10
79.29513206636308
 20
6.72004540734838
 30
0.0
 11
79.29513206636308
 21
8.220122915033443
 31
0.0
  0
LINE
  5
291
  8
CUT_OUTS
 10
79.29513206636308
 20
8.220122915033443
 30
0.0
 11
76.0451678402619
 21
8.220122915033443
 31
0.0
  0
LINE
  5
292
  8
CUT_OUTS
 10
76.0451678402619
 20
8.220122915033443
 30
0.0
 11
76.0451678402619
 21
6.72004540734838
 31
0.0
  0
LINE
  5
293
  8
CUT_OUTS
 10
83.9931119930567
 20
8.139108671951192
 30
0.0
 11
87.24307621915786
 21
8.139108671951192
 31
0.0
  0
LINE
  5
294
  8
CUT_OUTS
 10
87.24307621915786
 20
8.139108671951192
 30
0.0
 11
87.24307621915786
 21
9.639186179636255
 31
0.0
  0
LINE
  5
295
  8
CUT_OUTS
 10
87.24307621915786
 20
9.639186179636255
 30
0.0
 11
83.9931119930567
 21
9.639186179636255
 31
0.0
  0
LINE
  5
296
  8
CUT_OUTS
 10
83.9931119930567
 20
9.639186179636255
 30
0.0
 11
83.9931119930567
 21
8.139108671951192
 31
0.0
  0
LINE
  5
297
  8
CUT_OUTS
 10
91.9450292986805
 20
8.966625269609608
 30
0.0
 11
95.19499352478168
 21
8.966625269609608
 31
0.0
  0
LINE
  5
298
  8
CUT_OUTS
 10
95.19499352478168
 20
8.966625269609608
 30
0.0
 11
95.19499352478168
 21
10.46670277729467
 31
0.0
  0
LINE
  5
299
  8
CUT_OUTS
 10
95.19499352478168
 20
10.46670277729467
 30
0.0
 11
91.9450292986805
 21
10.46670277729467
 31
0.0
  0
LINE
  5
29A
  8
CUT_OUTS
 10
91.9450292986805
 20
10.46670277729467
 30
0.0
 11
91.9450292986805
 21
8.966625269609608
 31
0.0
  0
LINE
  5
29B
  8
CUT_OUTS
 10
99.91634152456193
 20
9.451498276050074
 30
0.0
 11
103.1663057506631
 21
9.451498276050074
 31
0.0
  0
LINE
  5
29C
  8
CUT_OUTS
 10
103.1663057506631
 20
9.451498276050074
 30
0.0
 11
103.1663057506631
 21
10.95157578373515
 31
0.0
  0
LINE
  5
29D
  8
CUT_OUTS
 10
103.1663057506631
 20
10.95157578373515
 30
0.0
 11
99.91634152456193
 21
10.95157578373515
 31
0.0
  0
LINE
  5
29E
  8
CUT_OUTS
 10
99.91634152456193
 20
10.95157578373515
 30
0.0
 11
99.91634152456193
 21
9.451498276050074
 31
0.0
  0
LINE
  5
29F
  8
CUT_OUTS
 10
104.3447828082576
 20
9.451498276050074
 30
0.0
 11
107.5947470343587
 21
9.451498276050074
 31
0.0
  0
LINE
  5
2A0
  8
CUT_OUTS
 10
107.5947470343587
 20
9.451498276050074
 30
0.0
 11
107.5947470343587
 21
10.95157578373515
 31
0.0
  0
LINE
  5
2A1
  8
CUT_OUTS
 10
107.5947470343587
 20
10.95157578373515
 30
0.0
 11
104.3447828082576
 21
10.95157578373515
 31
0.0
  0
LINE
  5
2A2
  8
CUT_OUTS
 10
104.3447828082576
 20
10.95157578373515
 30
0.0
 11
104.3447828082576
 21
9.451498276050074
 31
0.0
  0
LINE
  5
2A3
  8
CUT_OUTS
 10
112.311399410209
 20
8.980166719042458
 30
0.0
 11
115.5613636363102
 21
8.980166719042458
 31
0.0
  0
LINE
  5
2A4
  8
CUT_OUTS
 10
115.5613636363102
 20
8.980166719042458
 30
0.0
 11
115.5613636363102
 21
10.48024422672754
 31
0.0
  0
LINE
  5
2A5
  8
CUT_OUTS
 10
115.5613636363102
 20
10.48024422672754
 30
0.0
 11
112.311399410209
 21
10.48024422672754
 31
0.0
  0
LINE
  5
2A6
  8
CUT_OUTS
 10
112.311399410209
 20
10.48024422672754
 30
0.0
 11
112.311399410209
 21
8.980166719042458
 31
0.0
  0
LINE
  5
2A7
  8
CUT_OUTS
 10
120.2502565240717
 20
8.134744559857864
 30
0.0
 11
123.5002207501728
 21
8.134744559857864
 31
0.0
  0
LINE
  5
2A8
  8
CUT_OUTS
 10
123.5002207501728
 20
8.134744559857864
 30
0.0
 11
123.5002207501728
 21
9.634822067542927
 31
0.0
  0
LINE
  5
2A9
  8
CUT_OUTS
 10
123.5002207501728
 20
9.634822067542927
 30
0.0
 11
120.2502565240717
 21
9.634822067542927
 31
0.0
  0
LINE
  5
2AA
  8
CUT_OUTS
 10
120.2502565240717
 20
9.634822067542927
 30
0.0
 11
120.2502565240717
 21
8.134744559857864
 31
0.0
  0
LINE
  5
2AB
  8
CUT_OUTS
 10
128.2215955421228
 20
6.705702412481514
 30
0.0
 11
131.471559768224
 21
6.705702412481514
 31
0.0
  0
LINE
  5
2AC
  8
CUT_OUTS
 10
131.471559768224
 20
6.705702412481514
 30
0.0
 11
131.471559768224
 21
8.205779920166577
 31
0.0
  0
LINE
  5
2AD
  8
CUT_OUTS
 10
131.471559768224
 20
8.205779920166577
 30
0.0
 11
128.2215955421228
 21
8.205779920166577
 31
0.0
  0
LINE
  5
2AE
  8
CUT_OUTS
 10
128.2215955421228
 20
8.205779920166577
 30
0.0
 11
128.2215955421228
 21
6.705702412481514
 31
0.0
  0
LINE
  5
2AF
  8
CUT_OUTS
 10
136.177281114719
 20
4.668489680572634
 30
0.0
 11
139.4272453408201
 21
4.668489680572634
 31
0.0
  0
LINE
  5
2B0
  8
CUT_OUTS
 10
139.4272453408201
 20
4.668489680572634
 30
0.0
 11
139.4272453408201
 21
6.168567188257697
 31
0.0
  0
LINE
  5
2B1
  8
CUT_OUTS
 10
139.4272453408201
 20
6.168567188257697
 30
0.0
 11
136.177281114719
 21
6.168567188257697
 31
0.0
  0
LINE
  5
2B2
  8
CUT_OUTS
 10
136.177281114719
 20
6.168567188257697
 30
0.0
 11
136.177281114719
 21
4.668489680572634
 31
0.0
  0
LINE
  5
2B3
  8
CUT_OUTS
 10
144.1283753226673
 20
1.917910898304939
 30
0.0
 11
147.3783395487685
 21
1.917910898304939
 31
0.0
  0
LINE
  5
2B4
  8
CUT_OUTS
 10
147.3783395487685
 20
1.917910898304939
 30
0.0
 11
147.3783395487685
 21
3.417988405990016
 31
0.0
  0
LINE
  5
2B5
  8
CUT_OUTS
 10
147.3783395487685
 20
3.417988405990016
 30
0.0
 11
144.1283753226673
 21
3.417988405990016
 31
0.0
  0
LINE
  5
2B6
  8
CUT_OUTS
 10
144.1283753226673
 20
3.417988405990016
 30
0.0
 11
144.1283753226673
 21
1.917910898304939
 31
0.0
  0
LINE
  5
2B7
  8
CUT_OUTS
 10
68.07238188463627
 20
4.673586860048673
 30
0.0
 11
71.32234611073746
 21
4.673586860048673
 31
0.0
  0
LINE
  5
2B8
  8
CUT_OUTS
 10
71.32234611073746
 20
4.673586860048673
 30
0.0
 11
71.32234611073746
 21
6.17366436773375
 31
0.0
  0
LINE
  5
2B9
  8
CUT_OUTS
 10
71.32234611073746
 20
6.17366436773375
 30
0.0
 11
68.07238188463627
 21
6.17366436773375
 31
0.0
  0
LINE
  5
2BA
  8
CUT_OUTS
 10
68.07238188463627
 20
6.17366436773375
 30
0.0
 11
68.07238188463627
 21
4.673586860048673
 31
0.0
  0
LINE
  5
2BB
  8
DIMS
 10
103.7555442794603
 20
13.95157578373515
 30
0.0
 11
99.8628203034292
 21
13.93095461104823
 31
0.0
  0
LINE
  5
2BC
  8
DIMS
 10
99.8628203034292
 20
13.93095461104823
 30
0.0
 11
98.10683207213646
 21
13.88218839129274
 31
0.0
  0
LINE
  5
2BD
  8
DIMS
 10
98.10683207213646
 20
13.88218839129274
 30
0.0
 11
96.20706178498335
 21
13.78827892524739
 31
0.0
  0
LINE
  5
2BE
  8
DIMS
 10
96.20706178498335
 20
13.78827892524739
 30
0.0
 11
92.08426378648694
 21
13.46827243253696
 31
0.0
  0
LINE
  5
2BF
  8
DIMS
 10
92.08426378648694
 20
13.46827243253696
 30
0.0
 11
88.24316725031304
 21
13.09429798510813
 31
0.0
  0
LINE
  5
2C0
  8
DIMS
 10
88.24316725031304
 20
13.09429798510813
 30
0.0
 11
84.12984386241466
 21
12.62079237907956
 31
0.0
  0
LINE
  5
2C1
  8
DIMS
 10
84.12984386241466
 20
12.62079237907956
 30
0.0
 11
82.2098781495166
 21
12.33867042890964
 31
0.0
  0
LINE
  5
2C2
  8
DIMS
 10
82.2098781495166
 20
12.33867042890964
 30
0.0
 11
80.29064640537035
 21
12.0119080607802
 31
0.0
  0
LINE
  5
2C3
  8
DIMS
 10
80.29064640537035
 20
12.0119080607802
 30
0.0
 11
78.23570402945087
 21
11.62847760859937
 31
0.0
  0
LINE
  5
2C4
  8
DIMS
 10
78.23570402945087
 20
11.62847760859937
 30
0.0
 11
76.18028336027331
 21
11.19643961040584
 31
0.0
  0
LINE
  5
2C5
  8
DIMS
 10
76.18028336027331
 20
11.19643961040584
 30
0.0
 11
72.33601105472721
 21
10.22903867032678
 31
0.0
  0
LINE
  5
2C6
  8
DIMS
 10
72.33601105472721
 20
10.22903867032678
 30
0.0
 11
68.21138082431324
 21
9.15203681856828
 31
0.0
  0
LINE
  5
2C7
  8
DIMS
 10
68.21138082431324
 20
9.15203681856828
 30
0.0
 11
67.23116239705297
 21
8.861355609717886
 31
0.0
  0
LINE
  5
2C8
  8
DIMS
 10
67.23116239705297
 20
8.861355609717886
 30
0.0
 11
64.00516773055051
 21
7.788029363047714
 31
0.0
  0
LINE
  5
2C9
  8
DIMS
 10
64.00516773055051
 20
7.788029363047714
 30
0.0
 11
62.63130213000595
 21
7.303453551653213
 31
0.0
  0
LINE
  5
2CA
  8
DIMS
 10
62.63130213000595
 20
7.303453551653213
 30
0.0
 11
60.98616413963761
 21
6.681460532872007
 31
0.0
  0
LINE
  5
2CB
  8
DIMS
 10
60.98616413963761
 20
6.681460532872007
 30
0.0
 11
58.98559147761969
 21
5.853791651075737
 31
0.0
  0
LINE
  5
2CC
  8
DIMS
 10
58.98559147761969
 20
5.853791651075737
 30
0.0
 11
56.54542186212642
 21
4.752188250636038
 31
0.0
  0
ARC
  5
2CD
  8
DIMS
 10
99.44907718024777
 20
-86.6803215307363
 30
0.0
 40
100.998155847406
 50
115.137778324493
 51
115.6454834396706
  0
LINE
  5
2CE
  8
DIMS
 10
103.7555442794603
 20
5.951575783735152
 30
0.0
 11
99.8628203034292
 21
5.930954611048231
 31
0.0
  0
LINE
  5
2CF
  8
DIMS
 10
99.8628203034292
 20
5.930954611048231
 30
0.0
 11
98.10683207213646
 21
5.882188391292745
 31
0.0
  0
LINE
  5
2D0
  8
DIMS
 10
98.10683207213646
 20
5.882188391292745
 30
0.0
 11
96.20706178498335
 21
5.78827892524739
 31
0.0
  0
LINE
  5
2D1
  8
DIMS
 10
96.20706178498335
 20
5.78827892524739
 30
0.0
 11
92.08426378648694
 21
5.468272432536963
 31
0.0
  0
LINE
  5
2D2
  8
DIMS
 10
92.08426378648694
 20
5.468272432536963
 30
0.0
 11
88.24316725031304
 21
5.094297985108132
 31
0.0
  0
LINE
  5
2D3
  8
DIMS
 10
88.24316725031304
 20
5.094297985108132
 30
0.0
 11
84.12984386241466
 21
4.62079237907956
 31
0.0
  0
LINE
  5
2D4
  8
DIMS
 10
84.12984386241466
 20
4.62079237907956
 30
0.0
 11
82.2098781495166
 21
4.338670428909644
 31
0.0
  0
LINE
  5
2D5
  8
DIMS
 10
82.2098781495166
 20
4.338670428909644
 30
0.0
 11
80.29064640537035
 21
4.0119080607802
 31
0.0
  0
LINE
  5
2D6
  8
DIMS
 10
80.29064640537035
 20
4.0119080607802
 30
0.0
 11
78.23570402945087
 21
3.628477608599374
 31
0.0
  0
LINE
  5
2D7
  8
DIMS
 10
78.23570402945087
 20
3.628477608599374
 30
0.0
 11
76.1802833602733
 21
3.196439610405835
 31
0.0
  0
LINE
  5
2D8
  8
DIMS
 10
76.1802833602733
 20
3.196439610405835
 30
0.0
 11
72.33601105472721
 21
2.229038670326783
 31
0.0
  0
LINE
  5
2D9
  8
DIMS
 10
72.33601105472721
 20
2.229038670326783
 30
0.0
 11
68.21138082431324
 21
1.152036818568283
 31
0.0
  0
LINE
  5
2DA
  8
DIMS
 10
68.21138082431324
 20
1.152036818568283
 30
0.0
 11
67.23116239723717
 21
0.8613556093253665
 31
0.0
  0
LINE
  5
2DB
  8
DIMS
 10
67.23116239723717
 20
0.8613556093253665
 30
0.0
 11
64.00516774233846
 21
-0.2119706620736784
 31
0.0
  0
LINE
  5
2DC
  8
DIMS
 10
64.00516774233846
 20
-0.2119706620736784
 30
0.0
 11
62.63130183506136
 21
-0.6965466046776057
 31
0.0
  0
LINE
  5
2DD
  8
DIMS
 10
62.63130183506136
 20
-0.6965466046776057
 30
0.0
 11
60.98616362555446
 21
-1.31853971663149
 31
0.0
  0
LINE
  5
2DE
  8
DIMS
 10
60.98616362555446
 20
-1.31853971663149
 30
0.0
 11
58.98559100438655
 21
-2.146208573129043
 31
0.0
  0
LINE
  5
2DF
  8
DIMS
 10
58.98559100438655
 20
-2.146208573129043
 30
0.0
 11
56.54542186212642
 21
-3.247811749363976
 31
0.0
  0
ARC
  5
2E0
  8
DIMS
 10
99.44907718024767
 20
-94.68032153073547
 30
0.0
 40
100.9981558474052
 50
115.1377783244932
 51
115.6454834396707
  0
ARC
  5
2E1
  8
DIMS
 10
110.4355744554627
 20
-80.92202993414412
 30
0.0
 40
94.75132695570328
 50
64.15793184522434
 51
64.71404143302576
  0
LINE
  5
2E2
  8
DIMS
 10
150.9073045092444
 20
4.750912272368254
 30
0.0
 11
148.4946704451127
 21
5.845650732043319
 31
0.0
  0
LINE
  5
2E3
  8
DIMS
 10
148.4946704451127
 20
5.845650732043319
 30
0.0
 11
146.5005493503483
 21
6.672799759315126
 31
0.0
  0
LINE
  5
2E4
  8
DIMS
 10
146.5005493503483
 20
6.672799759315126
 30
0.0
 11
144.8504417103258
 21
7.297681127202552
 31
0.0
  0
LINE
  5
2E5
  8
DIMS
 10
144.8504417103258
 20
7.297681127202552
 30
0.0
 11
141.2345057584986
 21
8.545817185062283
 31
0.0
  0
LINE
  5
2E6
  8
DIMS
 10
141.2345057584986
 20
8.545817185062283
 30
0.0
 11
140.2517975830371
 21
8.857811073848964
 31
0.0
  0
LINE
  5
2E7
  8
DIMS
 10
140.2517975830371
 20
8.857811073848964
 30
0.0
 11
139.2750334077813
 21
9.145376574054279
 31
0.0
  0
LINE
  5
2E8
  8
DIMS
 10
139.2750334077813
 20
9.145376574054279
 30
0.0
 11
135.1440738788176
 21
10.20997548272365
 31
0.0
  0
LINE
  5
2E9
  8
DIMS
 10
135.1440738788176
 20
10.20997548272365
 30
0.0
 11
131.3185653784934
 21
11.18008332603328
 31
0.0
  0
LINE
  5
2EA
  8
DIMS
 10
131.3185653784934
 20
11.18008332603328
 30
0.0
 11
129.2523668556993
 21
11.61285884864781
 31
0.0
  0
LINE
  5
2EB
  8
DIMS
 10
129.2523668556993
 20
11.61285884864781
 30
0.0
 11
125.2671323280216
 21
12.32771823855431
 31
0.0
  0
LINE
  5
2EC
  8
DIMS
 10
125.2671323280216
 20
12.32771823855431
 30
0.0
 11
123.3507062112256
 21
12.61183200315625
 31
0.0
  0
LINE
  5
2ED
  8
DIMS
 10
123.3507062112256
 20
12.61183200315625
 30
0.0
 11
119.2233378041225
 21
13.08297766251963
 31
0.0
  0
LINE
  5
2EE
  8
DIMS
 10
119.2233378041225
 20
13.08297766251963
 30
0.0
 11
113.3019170048311
 21
13.64990161733031
 31
0.0
  0
LINE
  5
2EF
  8
DIMS
 10
113.3019170048311
 20
13.64990161733031
 30
0.0
 11
110.9768119944547
 21
13.80084641982966
 31
0.0
  0
LINE
  5
2F0
  8
DIMS
 10
110.9768119944547
 20
13.80084641982966
 30
0.0
 11
108.2715693622731
 21
13.9095357749669
 31
0.0
  0
LINE
  5
2F1
  8
DIMS
 10
108.2715693622731
 20
13.9095357749669
 30
0.0
 11
104.3447828082576
 21
13.95157578373515
 31
0.0
  0
LINE
  5
2F2
  8
DIMS
 10
104.3447828082576
 20
13.95157578373515
 30
0.0
 11
103.7555442794603
 21
13.95157578373515
 31
0.0
  0
ARC
  5
2F3
  8
DIMS
 10
110.4355744554629
 20
-88.92202993414375
 30
0.0
 40
94.75132695570288
 50
64.15793184522434
 51
64.71404143302577
  0
LINE
  5
2F4
  8
DIMS
 10
150.9073045092444
 20
-3.249087727631746
 30
0.0
 11
148.4946704451127
 21
-2.154349267956681
 31
0.0
  0
LINE
  5
2F5
  8
DIMS
 10
148.4946704451127
 20
-2.154349267956681
 30
0.0
 11
146.5005493503483
 21
-1.327200240684874
 31
0.0
  0
LINE
  5
2F6
  8
DIMS
 10
146.5005493503483
 20
-1.327200240684874
 30
0.0
 11
144.8504417103258
 21
-0.7023188727974472
 31
0.0
  0
LINE
  5
2F7
  8
DIMS
 10
144.8504417103258
 20
-0.7023188727974472
 30
0.0
 11
141.2345057584986
 21
0.5458171850622822
 31
0.0
  0
LINE
  5
2F8
  8
DIMS
 10
141.2345057584986
 20
0.5458171850622822
 30
0.0
 11
140.2517975830371
 21
0.8578110738489634
 31
0.0
  0
LINE
  5
2F9
  8
DIMS
 10
140.2517975830371
 20
0.8578110738489634
 30
0.0
 11
139.2750334077813
 21
1.145376574054277
 31
0.0
  0
LINE
  5
2FA
  8
DIMS
 10
139.2750334077813
 20
1.145376574054277
 30
0.0
 11
135.1440738788176
 21
2.20997548272365
 31
0.0
  0
LINE
  5
2FB
  8
DIMS
 10
135.1440738788176
 20
2.20997548272365
 30
0.0
 11
131.3185653784934
 21
3.180083326033281
 31
0.0
  0
LINE
  5
2FC
  8
DIMS
 10
131.3185653784934
 20
3.180083326033281
 30
0.0
 11
129.2523668556993
 21
3.612858848647812
 31
0.0
  0
LINE
  5
2FD
  8
DIMS
 10
129.2523668556993
 20
3.612858848647812
 30
0.0
 11
125.2671323280216
 21
4.327718238554315
 31
0.0
  0
LINE
  5
2FE
  8
DIMS
 10
125.2671323280216
 20
4.327718238554315
 30
0.0
 11
123.3507062112256
 21
4.611832003156252
 31
0.0
  0
LINE
  5
2FF
  8
DIMS
 10
123.3507062112256
 20
4.611832003156252
 30
0.0
 11
119.2233378041225
 21
5.08297766251963
 31
0.0
  0
LINE
  5
300
  8
DIMS
 10
119.2233378041225
 20
5.08297766251963
 30
0.0
 11
113.3019170048311
 21
5.649901617330306
 31
0.0
  0
LINE
  5
301
  8
DIMS
 10
113.3019170048311
 20
5.649901617330306
 30
0.0
 11
110.9768119944547
 21
5.800846419829665
 31
0.0
  0
LINE
  5
302
  8
DIMS
 10
110.9768119944547
 20
5.800846419829665
 30
0.0
 11
108.2715693622731
 21
5.909535774966899
 31
0.0
  0
LINE
  5
303
  8
DIMS
 10
108.2715693622731
 20
5.909535774966899
 30
0.0
 11
104.3447828082576
 21
5.951575783735152
 31
0.0
  0
LINE
  5
304
  8
DIMS
 10
104.3447828082576
 20
5.951575783735152
 30
0.0
 11
103.7555442794603
 21
5.951575783735152
 31
0.0
  0
CIRCLE
  5
305
  8
DRILL_HOLES
 10
149.2369218621265
 20
-1.155575320617757
 30
0.0
 40
0.3125
  0
CIRCLE
  5
306
  8
DRILL_HOLES
 10
149.2369218621265
 20
3.669157415489138
 30
0.0
 40
0.3125
  0
CIRCLE
  5
307
  8
DRILL_HOLES
 10
58.23696046694833
 20
3.669157415489138
 30
0.0
 40
0.3125
  0
CIRCLE
  5
308
  8
DRILL_HOLES
 10
58.23696046694833
 20
-1.155575320617757
 30
0.0
 40
0.3125
  0
CIRCLE
  5
309
  8
DRILL_HOLES
 10
58.23696046694833
 20
-9.655575320617757
 30
0.0
 40
0.3125
  0
CIRCLE
  5
30A
  8
DRILL_HOLES
 10
58.23696046694833
 20
-4.830842584510862
 30
0.0
 40
0.3125
  0
CIRCLE
  5
30B
  8
DRILL_HOLES
 10
149.2369218621265
 20
-4.830842584510862
 30
0.0
 40
0.3125
  0
CIRCLE
  5
30C
  8
DRILL_HOLES
 10
149.2369218621265
 20
-9.655575320617757
 30
0.0
 40
0.3125
  0
ARC
  5
30D
  8
DIMS
 10
110.4355744554629
 20
-97.42202993414375
 30
0.0
 40
94.75132695570288
 50
64.15793184522434
 51
64.71404143302577
  0
LINE
  5
30E
  8
DIMS
 10
150.9073045092444
 20
-11.74908772763175
 30
0.0
 11
148.4946704451127
 21
-10.65434926795668
 31
0.0
  0
LINE
  5
30F
  8
DIMS
 10
148.4946704451127
 20
-10.65434926795668
 30
0.0
 11
146.5005493503483
 21
-9.827200240684874
 31
0.0
  0
LINE
  5
310
  8
DIMS
 10
146.5005493503483
 20
-9.827200240684874
 30
0.0
 11
144.8504417103258
 21
-9.202318872797445
 31
0.0
  0
LINE
  5
311
  8
DIMS
 10
144.8504417103258
 20
-9.202318872797445
 30
0.0
 11
141.2345057584986
 21
-7.954182814937718
 31
0.0
  0
LINE
  5
312
  8
DIMS
 10
141.2345057584986
 20
-7.954182814937718
 30
0.0
 11
140.2517975830371
 21
-7.642188926151037
 31
0.0
  0
LINE
  5
313
  8
DIMS
 10
140.2517975830371
 20
-7.642188926151037
 30
0.0
 11
139.2750334077813
 21
-7.354623425945723
 31
0.0
  0
LINE
  5
314
  8
DIMS
 10
139.2750334077813
 20
-7.354623425945723
 30
0.0
 11
135.1440738788176
 21
-6.29002451727635
 31
0.0
  0
LINE
  5
315
  8
DIMS
 10
135.1440738788176
 20
-6.29002451727635
 30
0.0
 11
131.3185653784934
 21
-5.319916673966718
 31
0.0
  0
LINE
  5
316
  8
DIMS
 10
131.3185653784934
 20
-5.319916673966718
 30
0.0
 11
129.2523668556993
 21
-4.887141151352187
 31
0.0
  0
LINE
  5
317
  8
DIMS
 10
129.2523668556993
 20
-4.887141151352187
 30
0.0
 11
125.2671323280216
 21
-4.172281761445685
 31
0.0
  0
LINE
  5
318
  8
DIMS
 10
125.2671323280216
 20
-4.172281761445685
 30
0.0
 11
123.3507062112256
 21
-3.888167996843749
 31
0.0
  0
LINE
  5
319
  8
DIMS
 10
123.3507062112256
 20
-3.888167996843749
 30
0.0
 11
119.2233378041225
 21
-3.417022337480371
 31
0.0
  0
LINE
  5
31A
  8
DIMS
 10
119.2233378041225
 20
-3.417022337480371
 30
0.0
 11
113.3019170048311
 21
-2.850098382669695
 31
0.0
  0
LINE
  5
31B
  8
DIMS
 10
113.3019170048311
 20
-2.850098382669695
 30
0.0
 11
110.9768119944547
 21
-2.699153580170335
 31
0.0
  0
LINE
  5
31C
  8
DIMS
 10
110.9768119944547
 20
-2.699153580170335
 30
0.0
 11
108.2715693622731
 21
-2.590464225033101
 31
0.0
  0
LINE
  5
31D
  8
DIMS
 10
108.2715693622731
 20
-2.590464225033101
 30
0.0
 11
104.3447828082576
 21
-2.548424216264848
 31
0.0
  0
LINE
  5
31E
  8
DIMS
 10
104.3447828082576
 20
-2.548424216264848
 30
0.0
 11
103.7555442794603
 21
-2.548424216264848
 31
0.0
  0
ARC
  5
31F
  8
DIMS
 10
110.4355744554627
 20
-89.42202993414412
 30
0.0
 40
94.75132695570328
 50
64.15793184522434
 51
64.71404143302576
  0
LINE
  5
320
  8
DIMS
 10
150.9073045092444
 20
-3.749087727631746
 30
0.0
 11
148.4946704451127
 21
-2.654349267956681
 31
0.0
  0
LINE
  5
321
  8
DIMS
 10
148.4946704451127
 20
-2.654349267956681
 30
0.0
 11
146.5005493503483
 21
-1.827200240684874
 31
0.0
  0
LINE
  5
322
  8
DIMS
 10
146.5005493503483
 20
-1.827200240684874
 30
0.0
 11
144.8504417103258
 21
-1.202318872797447
 31
0.0
  0
LINE
  5
323
  8
DIMS
 10
144.8504417103258
 20
-1.202318872797447
 30
0.0
 11
141.2345057584986
 21
0.0458171850622822
 31
0.0
  0
LINE
  5
324
  8
DIMS
 10
141.2345057584986
 20
0.0458171850622822
 30
0.0
 11
140.2517975830371
 21
0.3578110738489634
 31
0.0
  0
LINE
  5
325
  8
DIMS
 10
140.2517975830371
 20
0.3578110738489634
 30
0.0
 11
139.2750334077813
 21
0.6453765740542773
 31
0.0
  0
LINE
  5
326
  8
DIMS
 10
139.2750334077813
 20
0.6453765740542773
 30
0.0
 11
135.1440738788176
 21
1.70997548272365
 31
0.0
  0
LINE
  5
327
  8
DIMS
 10
135.1440738788176
 20
1.70997548272365
 30
0.0
 11
131.3185653784934
 21
2.680083326033281
 31
0.0
  0
LINE
  5
328
  8
DIMS
 10
131.3185653784934
 20
2.680083326033281
 30
0.0
 11
129.2523668556993
 21
3.112858848647813
 31
0.0
  0
LINE
  5
329
  8
DIMS
 10
129.2523668556993
 20
3.112858848647813
 30
0.0
 11
125.2671323280216
 21
3.827718238554315
 31
0.0
  0
LINE
  5
32A
  8
DIMS
 10
125.2671323280216
 20
3.827718238554315
 30
0.0
 11
123.3507062112256
 21
4.111832003156252
 31
0.0
  0
LINE
  5
32B
  8
DIMS
 10
123.3507062112256
 20
4.111832003156252
 30
0.0
 11
119.2233378041225
 21
4.58297766251963
 31
0.0
  0
LINE
  5
32C
  8
DIMS
 10
119.2233378041225
 20
4.58297766251963
 30
0.0
 11
113.3019170048311
 21
5.149901617330306
 31
0.0
  0
LINE
  5
32D
  8
DIMS
 10
113.3019170048311
 20
5.149901617330306
 30
0.0
 11
110.9768119944547
 21
5.300846419829664
 31
0.0
  0
LINE
  5
32E
  8
DIMS
 10
110.9768119944547
 20
5.300846419829664
 30
0.0
 11
108.2715693622731
 21
5.409535774966899
 31
0.0
  0
LINE
  5
32F
  8
DIMS
 10
108.2715693622731
 20
5.409535774966899
 30
0.0
 11
104.3447828082576
 21
5.451575783735152
 31
0.0
  0
LINE
  5
330
  8
DIMS
 10
104.3447828082576
 20
5.451575783735152
 30
0.0
 11
103.7555442794603
 21
5.451575783735152
 31
0.0
  0
LINE
  5
331
  8
DIMS
 10
103.7555442794603
 20
-2.548424216264848
 30
0.0
 11
99.8628203034292
 21
-2.569045388951769
 31
0.0
  0
LINE
  5
332
  8
DIMS
 10
99.8628203034292
 20
-2.569045388951769
 30
0.0
 11
98.10683207213646
 21
-2.617811608707254
 31
0.0
  0
LINE
  5
333
  8
DIMS
 10
98.10683207213646
 20
-2.617811608707254
 30
0.0
 11
96.20706178498335
 21
-2.71172107475261
 31
0.0
  0
LINE
  5
334
  8
DIMS
 10
96.20706178498335
 20
-2.71172107475261
 30
0.0
 11
92.08426378648694
 21
-3.031727567463037
 31
0.0
  0
LINE
  5
335
  8
DIMS
 10
92.08426378648694
 20
-3.031727567463037
 30
0.0
 11
88.24316725031304
 21
-3.405702014891868
 31
0.0
  0
LINE
  5
336
  8
DIMS
 10
88.24316725031304
 20
-3.405702014891868
 30
0.0
 11
84.12984386241466
 21
-3.87920762092044
 31
0.0
  0
LINE
  5
337
  8
DIMS
 10
84.12984386241466
 20
-3.87920762092044
 30
0.0
 11
82.2098781495166
 21
-4.161329571090356
 31
0.0
  0
LINE
  5
338
  8
DIMS
 10
82.2098781495166
 20
-4.161329571090356
 30
0.0
 11
80.29064640537035
 21
-4.4880919392198
 31
0.0
  0
LINE
  5
339
  8
DIMS
 10
80.29064640537035
 20
-4.4880919392198
 30
0.0
 11
78.23570402945087
 21
-4.871522391400626
 31
0.0
  0
LINE
  5
33A
  8
DIMS
 10
78.23570402945087
 20
-4.871522391400626
 30
0.0
 11
76.1802833602733
 21
-5.303560389594164
 31
0.0
  0
LINE
  5
33B
  8
DIMS
 10
76.1802833602733
 20
-5.303560389594164
 30
0.0
 11
72.33601105472721
 21
-6.270961329673218
 31
0.0
  0
LINE
  5
33C
  8
DIMS
 10
72.33601105472721
 20
-6.270961329673218
 30
0.0
 11
68.21138082431324
 21
-7.347963181431716
 31
0.0
  0
LINE
  5
33D
  8
DIMS
 10
68.21138082431324
 20
-7.347963181431716
 30
0.0
 11
67.23116239723717
 21
-7.638644390674633
 31
0.0
  0
LINE
  5
33E
  8
DIMS
 10
67.23116239723717
 20
-7.638644390674633
 30
0.0
 11
64.00516774233846
 21
-8.711970662073679
 31
0.0
  0
LINE
  5
33F
  8
DIMS
 10
64.00516774233846
 20
-8.711970662073679
 30
0.0
 11
62.63130183506136
 21
-9.196546604677604
 31
0.0
  0
LINE
  5
340
  8
DIMS
 10
62.63130183506136
 20
-9.196546604677604
 30
0.0
 11
60.98616362555446
 21
-9.81853971663149
 31
0.0
  0
LINE
  5
341
  8
DIMS
 10
60.98616362555446
 20
-9.81853971663149
 30
0.0
 11
58.98559100438655
 21
-10.64620857312904
 31
0.0
  0
LINE
  5
342
  8
DIMS
 10
58.98559100438655
 20
-10.64620857312904
 30
0.0
 11
56.54542186212642
 21
-11.74781174936398
 31
0.0
  0
ARC
  5
343
  8
DIMS
 10
99.44907718024767
 20
-103.1803215307355
 30
0.0
 40
100.9981558474052
 50
115.1377783244932
 51
115.6454834396707
  0
LINE
  5
344
  8
DIMS
 10
103.7555442794603
 20
5.451575783735152
 30
0.0
 11
99.8628203034292
 21
5.430954611048231
 31
0.0
  0
LINE
  5
345
  8
DIMS
 10
99.8628203034292
 20
5.430954611048231
 30
0.0
 11
98.10683207213646
 21
5.382188391292745
 31
0.0
  0
LINE
  5
346
  8
DIMS
 10
98.10683207213646
 20
5.382188391292745
 30
0.0
 11
96.20706178498335
 21
5.28827892524739
 31
0.0
  0
LINE
  5
347
  8
DIMS
 10
96.20706178498335
 20
5.28827892524739
 30
0.0
 11
92.08426378648694
 21
4.968272432536963
 31
0.0
  0
LINE
  5
348
  8
DIMS
 10
92.08426378648694
 20
4.968272432536963
 30
0.0
 11
88.24316725031304
 21
4.594297985108131
 31
0.0
  0
LINE
  5
349
  8
DIMS
 10
88.24316725031304
 20
4.594297985108131
 30
0.0
 11
84.12984386241466
 21
4.120792379079561
 31
0.0
  0
LINE
  5
34A
  8
DIMS
 10
84.12984386241466
 20
4.120792379079561
 30
0.0
 11
82.2098781495166
 21
3.838670428909645
 31
0.0
  0
LINE
  5
34B
  8
DIMS
 10
82.2098781495166
 20
3.838670428909645
 30
0.0
 11
80.29064640537035
 21
3.5119080607802
 31
0.0
  0
LINE
  5
34C
  8
DIMS
 10
80.29064640537035
 20
3.5119080607802
 30
0.0
 11
78.23570402945087
 21
3.128477608599374
 31
0.0
  0
LINE
  5
34D
  8
DIMS
 10
78.23570402945087
 20
3.128477608599374
 30
0.0
 11
76.18028336027331
 21
2.696439610405836
 31
0.0
  0
LINE
  5
34E
  8
DIMS
 10
76.18028336027331
 20
2.696439610405836
 30
0.0
 11
72.33601105472721
 21
1.729038670326783
 31
0.0
  0
LINE
  5
34F
  8
DIMS
 10
72.33601105472721
 20
1.729038670326783
 30
0.0
 11
68.21138082431324
 21
0.6520368185682817
 31
0.0
  0
LINE
  5
350
  8
DIMS
 10
68.21138082431324
 20
0.6520368185682817
 30
0.0
 11
67.23116239705297
 21
0.3613556097178873
 31
0.0
  0
LINE
  5
351
  8
DIMS
 10
67.23116239705297
 20
0.3613556097178873
 30
0.0
 11
64.00516773055051
 21
-0.7119706369522842
 31
0.0
  0
LINE
  5
352
  8
DIMS
 10
64.00516773055051
 20
-0.7119706369522842
 30
0.0
 11
62.63130213000595
 21
-1.196546448346785
 31
0.0
  0
LINE
  5
353
  8
DIMS
 10
62.63130213000595
 20
-1.196546448346785
 30
0.0
 11
60.98616413963761
 21
-1.818539467127992
 31
0.0
  0
LINE
  5
354
  8
DIMS
 10
60.98616413963761
 20
-1.818539467127992
 30
0.0
 11
58.98559147761969
 21
-2.646208348924264
 31
0.0
  0
LINE
  5
355
  8
DIMS
 10
58.98559147761969
 20
-2.646208348924264
 30
0.0
 11
56.54542186212642
 21
-3.747811749363961
 31
0.0
  0
ARC
  5
356
  8
DIMS
 10
99.44907718024777
 20
-95.1803215307363
 30
0.0
 40
100.998155847406
 50
115.137778324493
 51
115.6454834396706
  0
LINE
  5
357
  8
CUT_OUTS
 10
68.07238188463627
 20
-3.826413139951327
 30
0.0
 11
71.32234611073746
 21
-3.826413139951327
 31
0.0
  0
LINE
  5
358
  8
CUT_OUTS
 10
71.32234611073746
 20
-3.826413139951327
 30
0.0
 11
71.32234611073746
 21
-2.32633563226625
 31
0.0
  0
LINE
  5
359
  8
CUT_OUTS
 10
71.32234611073746
 20
-2.32633563226625
 30
0.0
 11
68.07238188463627
 21
-2.32633563226625
 31
0.0
  0
LINE
  5
35A
  8
CUT_OUTS
 10
68.07238188463627
 20
-2.32633563226625
 30
0.0
 11
68.07238188463627
 21
-3.826413139951327
 31
0.0
  0
LINE
  5
35B
  8
CUT_OUTS
 10
144.1283753226673
 20
-6.582089101695061
 30
0.0
 11
147.3783395487685
 21
-6.582089101695061
 31
0.0
  0
LINE
  5
35C
  8
CUT_OUTS
 10
147.3783395487685
 20
-6.582089101695061
 30
0.0
 11
147.3783395487685
 21
-5.082011594009984
 31
0.0
  0
LINE
  5
35D
  8
CUT_OUTS
 10
147.3783395487685
 20
-5.082011594009984
 30
0.0
 11
144.1283753226673
 21
-5.082011594009984
 31
0.0
  0
LINE
  5
35E
  8
CUT_OUTS
 10
144.1283753226673
 20
-5.082011594009984
 30
0.0
 11
144.1283753226673
 21
-6.582089101695061
 31
0.0
  0
LINE
  5
35F
  8
CUT_OUTS
 10
136.177281114719
 20
-3.831510319427366
 30
0.0
 11
139.4272453408201
 21
-3.831510319427366
 31
0.0
  0
LINE
  5
360
  8
CUT_OUTS
 10
139.4272453408201
 20
-3.831510319427366
 30
0.0
 11
139.4272453408201
 21
-2.331432811742303
 31
0.0
  0
LINE
  5
361
  8
CUT_OUTS
 10
139.4272453408201
 20
-2.331432811742303
 30
0.0
 11
136.177281114719
 21
-2.331432811742303
 31
0.0
  0
LINE
  5
362
  8
CUT_OUTS
 10
136.177281114719
 20
-2.331432811742303
 30
0.0
 11
136.177281114719
 21
-3.831510319427366
 31
0.0
  0
LINE
  5
363
  8
CUT_OUTS
 10
128.2215955421228
 20
-1.794297587518486
 30
0.0
 11
131.471559768224
 21
-1.794297587518486
 31
0.0
  0
LINE
  5
364
  8
CUT_OUTS
 10
131.471559768224
 20
-1.794297587518486
 30
0.0
 11
131.471559768224
 21
-0.2942200798334227
 31
0.0
  0
LINE
  5
365
  8
CUT_OUTS
 10
131.471559768224
 20
-0.2942200798334227
 30
0.0
 11
128.2215955421228
 21
-0.2942200798334227
 31
0.0
  0
LINE
  5
366
  8
CUT_OUTS
 10
128.2215955421228
 20
-0.2942200798334227
 30
0.0
 11
128.2215955421228
 21
-1.794297587518486
 31
0.0
  0
LINE
  5
367
  8
CUT_OUTS
 10
120.2502565240717
 20
-0.3652554401421355
 30
0.0
 11
123.5002207501728
 21
-0.3652554401421355
 31
0.0
  0
LINE
  5
368
  8
CUT_OUTS
 10
123.5002207501728
 20
-0.3652554401421355
 30
0.0
 11
123.5002207501728
 21
1.134822067542927
 31
0.0
  0
LINE
  5
369
  8
CUT_OUTS
 10
123.5002207501728
 20
1.134822067542927
 30
0.0
 11
120.2502565240717
 21
1.134822067542927
 31
0.0
  0
LINE
  5
36A
  8
CUT_OUTS
 10
120.2502565240717
 20
1.134822067542927
 30
0.0
 11
120.2502565240717
 21
-0.3652554401421355
 31
0.0
  0
LINE
  5
36B
  8
CUT_OUTS
 10
112.311399410209
 20
0.4801667190424581
 30
0.0
 11
115.5613636363102
 21
0.4801667190424581
 31
0.0
  0
LINE
  5
36C
  8
CUT_OUTS
 10
115.5613636363102
 20
0.4801667190424581
 30
0.0
 11
115.5613636363102
 21
1.980244226727535
 31
0.0
  0
LINE
  5
36D
  8
CUT_OUTS
 10
115.5613636363102
 20
1.980244226727535
 30
0.0
 11
112.311399410209
 21
1.980244226727535
 31
0.0
  0
LINE
  5
36E
  8
CUT_OUTS
 10
112.311399410209
 20
1.980244226727535
 30
0.0
 11
112.311399410209
 21
0.4801667190424581
 31
0.0
  0
LINE
  5
36F
  8
CUT_OUTS
 10
104.3447828082576
 20
0.9514982760500743
 30
0.0
 11
107.5947470343587
 21
0.9514982760500743
 31
0.0
  0
LINE
  5
370
  8
CUT_OUTS
 10
107.5947470343587
 20
0.9514982760500743
 30
0.0
 11
107.5947470343587
 21
2.451575783735152
 31
0.0
  0
LINE
  5
371
  8
CUT_OUTS
 10
107.5947470343587
 20
2.451575783735152
 30
0.0
 11
104.3447828082576
 21
2.451575783735152
 31
0.0
  0
LINE
  5
372
  8
CUT_OUTS
 10
104.3447828082576
 20
2.451575783735152
 30
0.0
 11
104.3447828082576
 21
0.9514982760500743
 31
0.0
  0
LINE
  5
373
  8
CUT_OUTS
 10
99.91634152456193
 20
0.9514982760500743
 30
0.0
 11
103.1663057506631
 21
0.9514982760500743
 31
0.0
  0
LINE
  5
374
  8
CUT_OUTS
 10
103.1663057506631
 20
0.9514982760500743
 30
0.0
 11
103.1663057506631
 21
2.451575783735152
 31
0.0
  0
LINE
  5
375
  8
CUT_OUTS
 10
103.1663057506631
 20
2.451575783735152
 30
0.0
 11
99.91634152456193
 21
2.451575783735152
 31
0.0
  0
LINE
  5
376
  8
CUT_OUTS
 10
99.91634152456193
 20
2.451575783735152
 30
0.0
 11
99.91634152456193
 21
0.9514982760500743
 31
0.0
  0
LINE
  5
377
  8
CUT_OUTS
 10
91.9450292986805
 20
0.466625269609608
 30
0.0
 11
95.19499352478168
 21
0.466625269609608
 31
0.0
  0
LINE
  5
378
  8
CUT_OUTS
 10
95.19499352478168
 20
0.466625269609608
 30
0.0
 11
95.19499352478168
 21
1.966702777294671
 31
0.0
  0
LINE
  5
379
  8
CUT_OUTS
 10
95.19499352478168
 20
1.966702777294671
 30
0.0
 11
91.9450292986805
 21
1.966702777294671
 31
0.0
  0
LINE
  5
37A
  8
CUT_OUTS
 10
91.9450292986805
 20
1.966702777294671
 30
0.0
 11
91.9450292986805
 21
0.466625269609608
 31
0.0
  0
LINE
  5
37B
  8
CUT_OUTS
 10
83.9931119930567
 20
-0.3608913280488082
 30
0.0
 11
87.24307621915786
 21
-0.3608913280488082
 31
0.0
  0
LINE
  5
37C
  8
CUT_OUTS
 10
87.24307621915786
 20
-0.3608913280488082
 30
0.0
 11
87.24307621915786
 21
1.139186179636255
 31
0.0
  0
LINE
  5
37D
  8
CUT_OUTS
 10
87.24307621915786
 20
1.139186179636255
 30
0.0
 11
83.9931119930567
 21
1.139186179636255
 31
0.0
  0
LINE
  5
37E
  8
CUT_OUTS
 10
83.9931119930567
 20
1.139186179636255
 30
0.0
 11
83.9931119930567
 21
-0.3608913280488082
 31
0.0
  0
LINE
  5
37F
  8
CUT_OUTS
 10
76.0451678402619
 20
-1.77995459265162
 30
0.0
 11
79.29513206636308
 21
-1.77995459265162
 31
0.0
  0
LINE
  5
380
  8
CUT_OUTS
 10
79.29513206636308
 20
-1.77995459265162
 30
0.0
 11
79.29513206636308
 21
-0.2798770849665573
 31
0.0
  0
LINE
  5
381
  8
CUT_OUTS
 10
79.29513206636308
 20
-0.2798770849665573
 30
0.0
 11
76.0451678402619
 21
-0.2798770849665573
 31
0.0
  0
LINE
  5
382
  8
CUT_OUTS
 10
76.0451678402619
 20
-0.2798770849665573
 30
0.0
 11
76.0451678402619
 21
-1.77995459265162
 31
0.0
  0
LINE
  5
383
  8
CUT_OUTS
 10
60.12945044783751
 20
-6.566124997713686
 30
0.0
 11
63.37941467393868
 21
-6.566124997713686
 31
0.0
  0
LINE
  5
384
  8
CUT_OUTS
 10
63.37941467393868
 20
-6.566124997713686
 30
0.0
 11
63.37941467393868
 21
-5.066047490028609
 31
0.0
  0
LINE
  5
385
  8
CUT_OUTS
 10
63.37941467393868
 20
-5.066047490028609
 30
0.0
 11
60.12945044783751
 21
-5.066047490028609
 31
0.0
  0
LINE
  5
386
  8
CUT_OUTS
 10
60.12945044783751
 20
-5.066047490028609
 30
0.0
 11
60.12945044783751
 21
-6.566124997713686
 31
0.0
  0
LINE
  5
387
  8
CUT_OUTS
 10
148.532314431114
 20
-8.249075572981866
 30
0.0
 11
150.9073045092444
 21
-8.249075572981866
 31
0.0
  0
LINE
  5
388
  8
CUT_OUTS
 10
150.9073045092444
 20
-8.249075572981866
 30
0.0
 11
150.9073045092444
 21
-6.749087727631746
 31
0.0
  0
LINE
  5
389
  8
CUT_OUTS
 10
150.9073045092444
 20
-6.749087727631746
 30
0.0
 11
148.532314431114
 21
-6.749087727631746
 31
0.0
  0
LINE
  5
38A
  8
CUT_OUTS
 10
148.532314431114
 20
-6.749087727631746
 30
0.0
 11
148.532314431114
 21
-8.249075572981866
 31
0.0
  0
LINE
  5
38B
  8
CUT_OUTS
 10
140.5748194643119
 20
-5.023373601034663
 30
0.0
 11
142.9498095424423
 21
-5.023373601034663
 31
0.0
  0
LINE
  5
38C
  8
CUT_OUTS
 10
142.9498095424423
 20
-5.023373601034663
 30
0.0
 11
142.9498095424423
 21
-3.523385755684529
 31
0.0
  0
LINE
  5
38D
  8
CUT_OUTS
 10
142.9498095424423
 20
-3.523385755684529
 30
0.0
 11
140.5748194643119
 21
-3.523385755684529
 31
0.0
  0
LINE
  5
38E
  8
CUT_OUTS
 10
140.5748194643119
 20
-3.523385755684529
 30
0.0
 11
140.5748194643119
 21
-5.023373601034663
 31
0.0
  0
LINE
  5
38F
  8
CUT_OUTS
 10
132.616419462835
 20
-2.778611398370728
 30
0.0
 11
134.9914095409653
 21
-2.778611398370728
 31
0.0
  0
LINE
  5
390
  8
CUT_OUTS
 10
134.9914095409653
 20
-2.778611398370728
 30
0.0
 11
134.9914095409653
 21
-1.278623553020594
 31
0.0
  0
LINE
  5
391
  8
CUT_OUTS
 10
134.9914095409653
 20
-1.278623553020594
 30
0.0
 11
132.616419462835
 21
-1.278623553020594
 31
0.0
  0
LINE
  5
392
  8
CUT_OUTS
 10
132.616419462835
 20
-1.278623553020594
 30
0.0
 11
132.616419462835
 21
-2.778611398370728
 31
0.0
  0
LINE
  5
393
  8
CUT_OUTS
 10
124.6587535789686
 20
-0.9639840167961466
 30
0.0
 11
127.033743657099
 21
-0.9639840167961466
 31
0.0
  0
LINE
  5
394
  8
CUT_OUTS
 10
127.033743657099
 20
-0.9639840167961466
 30
0.0
 11
127.033743657099
 21
0.536003828553973
 31
0.0
  0
LINE
  5
395
  8
CUT_OUTS
 10
127.033743657099
 20
0.536003828553973
 30
0.0
 11
124.6587535789686
 21
0.536003828553973
 31
0.0
  0
LINE
  5
396
  8
CUT_OUTS
 10
124.6587535789686
 20
0.536003828553973
 30
0.0
 11
124.6587535789686
 21
-0.9639840167961466
 31
0.0
  0
LINE
  5
397
  8
CUT_OUTS
 10
116.6946205314326
 20
0.0957120748617086
 30
0.0
 11
119.069610609563
 21
0.0957120748617086
 31
0.0
  0
LINE
  5
398
  8
CUT_OUTS
 10
119.069610609563
 20
0.0957120748617086
 30
0.0
 11
119.069610609563
 21
1.595699920211828
 31
0.0
  0
LINE
  5
399
  8
CUT_OUTS
 10
119.069610609563
 20
1.595699920211828
 30
0.0
 11
116.6946205314326
 21
1.595699920211828
 31
0.0
  0
LINE
  5
39A
  8
CUT_OUTS
 10
116.6946205314326
 20
1.595699920211828
 30
0.0
 11
116.6946205314326
 21
0.0957120748617086
 31
0.0
  0
LINE
  5
39B
  8
CUT_OUTS
 10
108.741406430121
 20
0.8278609022634953
 30
0.0
 11
111.1163965082514
 21
0.8278609022634953
 31
0.0
  0
LINE
  5
39C
  8
CUT_OUTS
 10
111.1163965082514
 20
0.8278609022634953
 30
0.0
 11
111.1163965082514
 21
2.327848747613629
 31
0.0
  0
LINE
  5
39D
  8
CUT_OUTS
 10
111.1163965082514
 20
2.327848747613629
 30
0.0
 11
108.741406430121
 21
2.327848747613629
 31
0.0
  0
LINE
  5
39E
  8
CUT_OUTS
 10
108.741406430121
 20
2.327848747613629
 30
0.0
 11
108.741406430121
 21
0.8278609022634953
 31
0.0
  0
LINE
  5
39F
  8
CUT_OUTS
 10
96.34524997166444
 20
0.8278609022634953
 30
0.0
 11
98.72024004979478
 21
0.8278609022634953
 31
0.0
  0
LINE
  5
3A0
  8
CUT_OUTS
 10
98.72024004979478
 20
0.8278609022634953
 30
0.0
 11
98.72024004979478
 21
2.327848747613629
 31
0.0
  0
LINE
  5
3A1
  8
CUT_OUTS
 10
98.72024004979478
 20
2.327848747613629
 30
0.0
 11
96.34524997166444
 21
2.327848747613629
 31
0.0
  0
LINE
  5
3A2
  8
CUT_OUTS
 10
96.34524997166444
 20
2.327848747613629
 30
0.0
 11
96.34524997166444
 21
0.8278609022634953
 31
0.0
  0
LINE
  5
3A3
  8
CUT_OUTS
 10
88.38021555253526
 20
0.1149868930793474
 30
0.0
 11
90.75520563066563
 21
0.1149868930793474
 31
0.0
  0
LINE
  5
3A4
  8
CUT_OUTS
 10
90.75520563066563
 20
0.1149868930793474
 30
0.0
 11
90.75520563066563
 21
1.614974738429467
 31
0.0
  0
LINE
  5
3A5
  8
CUT_OUTS
 10
90.75520563066563
 20
1.614974738429467
 30
0.0
 11
88.38021555253526
 21
1.614974738429467
 31
0.0
  0
LINE
  5
3A6
  8
CUT_OUTS
 10
88.38021555253526
 20
1.614974738429467
 30
0.0
 11
88.38021555253526
 21
0.1149868930793474
 31
0.0
  0
LINE
  5
3A7
  8
CUT_OUTS
 10
80.4263996497259
 20
-0.9469530278472433
 30
0.0
 11
82.80138972785623
 21
-0.9469530278472433
 31
0.0
  0
LINE
  5
3A8
  8
CUT_OUTS
 10
82.80138972785623
 20
-0.9469530278472433
 30
0.0
 11
82.80138972785623
 21
0.5530348175028763
 31
0.0
  0
LINE
  5
3A9
  8
CUT_OUTS
 10
82.80138972785623
 20
0.5530348175028763
 30
0.0
 11
80.4263996497259
 21
0.5530348175028763
 31
0.0
  0
LINE
  5
3AA
  8
CUT_OUTS
 10
80.4263996497259
 20
0.5530348175028763
 30
0.0
 11
80.4263996497259
 21
-0.9469530278472433
 31
0.0
  0
LINE
  5
3AB
  8
CUT_OUTS
 10
72.47462915086628
 20
-2.754876660551759
 30
0.0
 11
74.84961922899662
 21
-2.754876660551759
 31
0.0
  0
LINE
  5
3AC
  8
CUT_OUTS
 10
74.84961922899662
 20
-2.754876660551759
 30
0.0
 11
74.84961922899662
 21
-1.254888815201625
 31
0.0
  0
LINE
  5
3AD
  8
CUT_OUTS
 10
74.84961922899662
 20
-1.254888815201625
 30
0.0
 11
72.47462915086628
 21
-1.254888815201625
 31
0.0
  0
LINE
  5
3AE
  8
CUT_OUTS
 10
72.47462915086628
 20
-1.254888815201625
 30
0.0
 11
72.47462915086628
 21
-2.754876660551759
 31
0.0
  0
LINE
  5
3AF
  8
CUT_OUTS
 10
64.50412825646806
 20
-5.027535589673803
 30
0.0
 11
66.87911833459843
 21
-5.027535589673803
 31
0.0
  0
LINE
  5
3B0
  8
CUT_OUTS
 10
66.87911833459843
 20
-5.027535589673803
 30
0.0
 11
66.87911833459843
 21
-3.527547744323684
 31
0.0
  0
LINE
  5
3B1
  8
CUT_OUTS
 10
66.87911833459843
 20
-3.527547744323684
 30
0.0
 11
64.50412825646806
 21
-3.527547744323684
 31
0.0
  0
LINE
  5
3B2
  8
CUT_OUTS
 10
64.50412825646806
 20
-3.527547744323684
 30
0.0
 11
64.50412825646806
 21
-5.027535589673803
 31
0.0
  0
LINE
  5
3B3
  8
CUT_OUTS
 10
56.54542186212642
 20
-8.247799594714095
 30
0.0
 11
58.92041194025678
 21
-8.247799594714095
 31
0.0
  0
LINE
  5
3B4
  8
CUT_OUTS
 10
58.92041194025678
 20
-8.247799594714095
 30
0.0
 11
58.92041194025678
 21
-6.747811749363976
 31
0.0
  0
LINE
  5
3B5
  8
CUT_OUTS
 10
58.92041194025678
 20
-6.747811749363976
 30
0.0
 11
56.54542186212642
 21
-6.747811749363976
 31
0.0
  0
LINE
  5
3B6
  8
CUT_OUTS
 10
56.54542186212642
 20
-6.747811749363976
 30
0.0
 11
56.54542186212642
 21
-8.247799594714095
 31
0.0
  0
LINE
  5
3B7
  8
DIMS
 10
55.73692186212642
 20
-4.131571061433618
 30
0.0
 11
55.73692186212641
 21
-12.13157106143365
 31
0.0
  0
LINE
  5
3B8
  8
DIMS
 10
151.7369218621264
 20
-4.145933270069136
 30
0.0
 11
151.7369218621264
 21
-12.14593327006912
 31
0.0
  0
CIRCLE
  5
3B9
  8
SREW_HOLD_DOWNS
 10
57.7329169011916
 20
-7.497805672039036
 30
0.0
 40
0.125
  0
CIRCLE
  5
3BA
  8
SREW_HOLD_DOWNS
 10
105.9697649213081
 20
1.70153702989262
 30
0.0
 40
0.125
  0
CIRCLE
  5
3BB
  8
SREW_HOLD_DOWNS
 10
149.7198094701792
 20
-7.499081650306806
 30
0.0
 40
0.125
  0
INSERT
  5
3BC
  8
DIMS
  2
*X14
 10
0.0
 20
0.0
 30
0.0
  0
CIRCLE
  5
3BE
  8
SREW_HOLD_DOWNS
 10
131.5055442794603
 20
-9.596865250609639
 30
0.0
 40
0.125
  0
CIRCLE
  5
3BF
  8
SREW_HOLD_DOWNS
 10
73.44769621588371
 20
-9.596865250609646
 30
0.0
 40
0.125
  0
TEXT
  5
3C0
  8
SCAFFOLD
  6
CONTINUOUS
 10
104.1297871690422
 20
36.71049213469938
 30
0.0
 40
1.0
  1
cntr line
 50
90.0
  0
CIRCLE
  5
3C1
  8
SREW_HOLD_DOWNS
 10
73.44769621588371
 20
31.75830882271178
 30
0.0
 40
0.125
  0
CIRCLE
  5
3C2
  8
SREW_HOLD_DOWNS
 10
131.5055442794603
 20
31.75830882271178
 30
0.0
 40
0.125
  0
CIRCLE
  5
3C3
  8
SREW_HOLD_DOWNS
 10
57.23692186212642
 20
34.91740448240245
 30
0.0
 40
0.125
  0
CIRCLE
  5
3C4
  8
SREW_HOLD_DOWNS
 10
150.2369218621264
 20
34.91740448240245
 30
0.0
 40
0.125
  0
CIRCLE
  5
3C5
  8
SREW_HOLD_DOWNS
 10
150.2369218621264
 20
-12.58259551759756
 30
0.0
 40
0.125
  0
CIRCLE
  5
3C6
  8
SREW_HOLD_DOWNS
 10
57.23692186212644
 20
-12.58259551759756
 30
0.0
 40
0.125
  0
CIRCLE
  5
3C7
  8
SREW_HOLD_DOWNS
 10
117.5993442794603
 20
-11.83259551759756
 30
0.0
 40
0.125
  0
CIRCLE
  5
3C8
  8
SREW_HOLD_DOWNS
 10
99.29149621588371
 20
-11.83259551759757
 30
0.0
 40
0.125
  0
CIRCLE
  5
3C9
  8
SREW_HOLD_DOWNS
 10
117.5993442794603
 20
-6.207595517597561
 30
0.0
 40
0.125
  0
CIRCLE
  5
3CA
  8
SREW_HOLD_DOWNS
 10
99.29149621588371
 20
-6.207595517597568
 30
0.0
 40
0.125
  0
CIRCLE
  5
3CB
  8
SREW_HOLD_DOWNS
 10
113.5368442794603
 20
-11.83259551759756
 30
0.0
 40
0.125
  0
CIRCLE
  5
3CC
  8
SREW_HOLD_DOWNS
 10
95.22899621588371
 20
-11.83259551759757
 30
0.0
 40
0.125
  0
CIRCLE
  5
3CD
  8
SREW_HOLD_DOWNS
 10
113.5368442794603
 20
-6.207595517597561
 30
0.0
 40
0.125
  0
CIRCLE
  5
3CE
  8
SREW_HOLD_DOWNS
 10
95.22899621588371
 20
-6.207595517597568
 30
0.0
 40
0.125
  0
CIRCLE
  5
3CF
  8
SREW_HOLD_DOWNS
 10
109.4743442794603
 20
-11.83259551759756
 30
0.0
 40
0.125
  0
CIRCLE
  5
3D0
  8
SREW_HOLD_DOWNS
 10
91.16649621588371
 20
-11.83259551759757
 30
0.0
 40
0.125
  0
CIRCLE
  5
3D1
  8
SREW_HOLD_DOWNS
 10
109.4743442794603
 20
-6.207595517597561
 30
0.0
 40
0.125
  0
CIRCLE
  5
3D2
  8
SREW_HOLD_DOWNS
 10
91.16649621588371
 20
-6.207595517597568
 30
0.0
 40
0.125
  0
CIRCLE
  5
3D3
  8
SREW_HOLD_DOWNS
 10
87.10399621588371
 20
-6.207595517597568
 30
0.0
 40
0.125
  0
CIRCLE
  5
3D4
  8
SREW_HOLD_DOWNS
 10
105.4118442794603
 20
-6.207595517597561
 30
0.0
 40
0.125
  0
CIRCLE
  5
3D5
  8
SREW_HOLD_DOWNS
 10
87.10399621588371
 20
-11.83259551759757
 30
0.0
 40
0.125
  0
CIRCLE
  5
3D6
  8
SREW_HOLD_DOWNS
 10
105.4118442794603
 20
-11.83259551759756
 30
0.0
 40
0.125
  0
LINE
  5
3D7
  8
DIMS
 10
100.9476962158837
 20
-5.707595517597568
 30
0.0
 11
97.63519621588371
 21
-5.707595517597568
 31
0.0
  0
LINE
  5
3D8
  8
DIMS
 10
97.63519621588371
 20
-5.707595517597568
 30
0.0
 11
97.63519621588371
 21
-12.33259551759757
 31
0.0
  0
LINE
  5
3D9
  8
DIMS
 10
97.63519621588371
 20
-12.33259551759757
 30
0.0
 11
100.9476962158837
 21
-12.33259551759757
 31
0.0
  0
ARC
  5
3DA
  8
DIMS
 10
93.07269621588365
 20
-10.33259551759757
 30
0.0
 40
8.125000000000057
 50
345.7499673021965
 51
0.0
  0
LINE
  5
3DB
  8
DIMS
 10
101.1976962158837
 20
-10.33259551759757
 30
0.0
 11
99.63519621588371
 21
-10.33259551759757
 31
0.0
  0
LINE
  5
3DC
  8
DIMS
 10
99.63519621588371
 20
-10.33259551759757
 30
0.0
 11
99.63519621588371
 21
-7.707595517597568
 31
0.0
  0
LINE
  5
3DD
  8
DIMS
 10
99.63519621588371
 20
-7.707595517597568
 30
0.0
 11
101.1976962158837
 21
-7.707595517597568
 31
0.0
  0
ARC
  5
3DE
  8
DIMS
 10
93.07269621588371
 20
-7.707595517597568
 30
0.0
 40
8.125
 50
0.0
 51
14.2500326978036
  0
LINE
  5
3DF
  8
DIMS
 10
96.88519621588371
 20
-5.707595517597568
 30
0.0
 11
93.57269621588371
 21
-5.707595517597568
 31
0.0
  0
LINE
  5
3E0
  8
DIMS
 10
93.57269621588371
 20
-5.707595517597568
 30
0.0
 11
93.57269621588371
 21
-12.33259551759757
 31
0.0
  0
LINE
  5
3E1
  8
DIMS
 10
93.57269621588371
 20
-12.33259551759757
 30
0.0
 11
96.88519621588371
 21
-12.33259551759757
 31
0.0
  0
ARC
  5
3E2
  8
DIMS
 10
89.01019621588365
 20
-10.33259551759757
 30
0.0
 40
8.125000000000057
 50
345.7499673021965
 51
0.0
  0
LINE
  5
3E3
  8
DIMS
 10
97.13519621588371
 20
-10.33259551759757
 30
0.0
 11
95.57269621588371
 21
-10.33259551759757
 31
0.0
  0
LINE
  5
3E4
  8
DIMS
 10
95.57269621588371
 20
-10.33259551759757
 30
0.0
 11
95.57269621588371
 21
-7.707595517597568
 31
0.0
  0
LINE
  5
3E5
  8
DIMS
 10
95.57269621588371
 20
-7.707595517597568
 30
0.0
 11
97.13519621588371
 21
-7.707595517597568
 31
0.0
  0
ARC
  5
3E6
  8
DIMS
 10
89.01019621588371
 20
-7.707595517597568
 30
0.0
 40
8.125
 50
0.0
 51
14.2500326978036
  0
LINE
  5
3E7
  8
DIMS
 10
92.82269621588371
 20
-5.707595517597568
 30
0.0
 11
89.51019621588371
 21
-5.707595517597568
 31
0.0
  0
LINE
  5
3E8
  8
DIMS
 10
89.51019621588371
 20
-5.707595517597568
 30
0.0
 11
89.51019621588371
 21
-12.33259551759757
 31
0.0
  0
LINE
  5
3E9
  8
DIMS
 10
89.51019621588371
 20
-12.33259551759757
 30
0.0
 11
92.82269621588371
 21
-12.33259551759757
 31
0.0
  0
ARC
  5
3EA
  8
DIMS
 10
84.94769621588365
 20
-10.33259551759757
 30
0.0
 40
8.125000000000057
 50
345.7499673021965
 51
0.0
  0
LINE
  5
3EB
  8
DIMS
 10
93.07269621588371
 20
-10.33259551759757
 30
0.0
 11
91.51019621588371
 21
-10.33259551759757
 31
0.0
  0
LINE
  5
3EC
  8
DIMS
 10
91.51019621588371
 20
-10.33259551759757
 30
0.0
 11
91.51019621588371
 21
-7.707595517597568
 31
0.0
  0
LINE
  5
3ED
  8
DIMS
 10
91.51019621588371
 20
-7.707595517597568
 30
0.0
 11
93.07269621588371
 21
-7.707595517597568
 31
0.0
  0
ARC
  5
3EE
  8
DIMS
 10
84.94769621588371
 20
-7.707595517597568
 30
0.0
 40
8.125
 50
0.0
 51
14.2500326978036
  0
LINE
  5
3EF
  8
DIMS
 10
119.5055442794603
 20
-10.33259551759756
 30
0.0
 11
119.5055442794603
 21
-12.33259551759756
 31
0.0
  0
LINE
  5
3F0
  8
DIMS
 10
119.5055442794603
 20
-12.33259551759756
 30
0.0
 11
115.9430442794603
 21
-12.33259551759756
 31
0.0
  0
LINE
  5
3F1
  8
DIMS
 10
115.9430442794603
 20
-12.33259551759756
 30
0.0
 11
115.9430442794603
 21
-5.707595517597561
 31
0.0
  0
LINE
  5
3F2
  8
DIMS
 10
115.9430442794603
 20
-5.707595517597561
 30
0.0
 11
119.5055442794603
 21
-5.707595517597561
 31
0.0
  0
LINE
  5
3F3
  8
DIMS
 10
119.5055442794603
 20
-5.707595517597561
 30
0.0
 11
119.5055442794603
 21
-7.707595517597561
 31
0.0
  0
LINE
  5
3F4
  8
DIMS
 10
119.5055442794603
 20
-7.707595517597561
 30
0.0
 11
117.9430442794603
 21
-7.707595517597561
 31
0.0
  0
LINE
  5
3F5
  8
DIMS
 10
117.9430442794603
 20
-7.707595517597561
 30
0.0
 11
117.9430442794603
 21
-10.33259551759756
 31
0.0
  0
LINE
  5
3F6
  8
DIMS
 10
117.9430442794603
 20
-10.33259551759756
 30
0.0
 11
119.5055442794603
 21
-10.33259551759756
 31
0.0
  0
LINE
  5
3F7
  8
DIMS
 10
115.4430442794603
 20
-10.33259551759756
 30
0.0
 11
115.4430442794603
 21
-12.33259551759756
 31
0.0
  0
LINE
  5
3F8
  8
DIMS
 10
115.4430442794603
 20
-12.33259551759756
 30
0.0
 11
111.8805442794603
 21
-12.33259551759756
 31
0.0
  0
LINE
  5
3F9
  8
DIMS
 10
111.8805442794603
 20
-12.33259551759756
 30
0.0
 11
111.8805442794603
 21
-5.707595517597561
 31
0.0
  0
LINE
  5
3FA
  8
DIMS
 10
111.8805442794603
 20
-5.707595517597561
 30
0.0
 11
115.4430442794603
 21
-5.707595517597561
 31
0.0
  0
LINE
  5
3FB
  8
DIMS
 10
115.4430442794603
 20
-5.707595517597561
 30
0.0
 11
115.4430442794603
 21
-7.707595517597561
 31
0.0
  0
LINE
  5
3FC
  8
DIMS
 10
115.4430442794603
 20
-7.707595517597561
 30
0.0
 11
113.8805442794603
 21
-7.707595517597561
 31
0.0
  0
LINE
  5
3FD
  8
DIMS
 10
113.8805442794603
 20
-7.707595517597561
 30
0.0
 11
113.8805442794603
 21
-10.33259551759756
 31
0.0
  0
LINE
  5
3FE
  8
DIMS
 10
113.8805442794603
 20
-10.33259551759756
 30
0.0
 11
115.4430442794603
 21
-10.33259551759756
 31
0.0
  0
LINE
  5
3FF
  8
DIMS
 10
111.3805442794603
 20
-10.33259551759756
 30
0.0
 11
111.3805442794603
 21
-12.33259551759756
 31
0.0
  0
LINE
  5
400
  8
DIMS
 10
111.3805442794603
 20
-12.33259551759756
 30
0.0
 11
107.8180442794603
 21
-12.33259551759756
 31
0.0
  0
LINE
  5
401
  8
DIMS
 10
107.8180442794603
 20
-12.33259551759756
 30
0.0
 11
107.8180442794603
 21
-5.707595517597561
 31
0.0
  0
LINE
  5
402
  8
DIMS
 10
107.8180442794603
 20
-5.707595517597561
 30
0.0
 11
111.3805442794603
 21
-5.707595517597561
 31
0.0
  0
LINE
  5
403
  8
DIMS
 10
111.3805442794603
 20
-5.707595517597561
 30
0.0
 11
111.3805442794603
 21
-7.707595517597561
 31
0.0
  0
LINE
  5
404
  8
DIMS
 10
111.3805442794603
 20
-7.707595517597561
 30
0.0
 11
109.8180442794603
 21
-7.707595517597561
 31
0.0
  0
LINE
  5
405
  8
DIMS
 10
109.8180442794603
 20
-7.707595517597561
 30
0.0
 11
109.8180442794603
 21
-10.33259551759756
 31
0.0
  0
LINE
  5
406
  8
DIMS
 10
109.8180442794603
 20
-10.33259551759756
 30
0.0
 11
111.3805442794603
 21
-10.33259551759756
 31
0.0
  0
LINE
  5
407
  8
DIMS
 10
107.3180442794603
 20
-10.33259551759756
 30
0.0
 11
107.3180442794603
 21
-12.33259551759756
 31
0.0
  0
LINE
  5
408
  8
DIMS
 10
107.3180442794603
 20
-12.33259551759756
 30
0.0
 11
103.7555442794603
 21
-12.33259551759756
 31
0.0
  0
LINE
  5
409
  8
DIMS
 10
103.7555442794603
 20
-12.33259551759756
 30
0.0
 11
103.7555442794603
 21
-5.707595517597561
 31
0.0
  0
LINE
  5
40A
  8
DIMS
 10
103.7555442794603
 20
-5.707595517597561
 30
0.0
 11
107.3180442794603
 21
-5.707595517597561
 31
0.0
  0
LINE
  5
40B
  8
DIMS
 10
107.3180442794603
 20
-5.707595517597561
 30
0.0
 11
107.3180442794603
 21
-7.707595517597561
 31
0.0
  0
LINE
  5
40C
  8
DIMS
 10
107.3180442794603
 20
-7.707595517597561
 30
0.0
 11
105.7555442794603
 21
-7.707595517597561
 31
0.0
  0
LINE
  5
40D
  8
DIMS
 10
105.7555442794603
 20
-7.707595517597561
 30
0.0
 11
105.7555442794603
 21
-10.33259551759756
 31
0.0
  0
LINE
  5
40E
  8
DIMS
 10
105.7555442794603
 20
-10.33259551759756
 30
0.0
 11
107.3180442794603
 21
-10.33259551759756
 31
0.0
  0
LINE
  5
40F
  8
DIMS
 10
88.76019621588371
 20
-5.707595517597568
 30
0.0
 11
85.44769621588371
 21
-5.707595517597568
 31
0.0
  0
LINE
  5
410
  8
DIMS
 10
85.44769621588371
 20
-5.707595517597568
 30
0.0
 11
85.44769621588371
 21
-12.33259551759757
 31
0.0
  0
LINE
  5
411
  8
DIMS
 10
85.44769621588371
 20
-12.33259551759757
 30
0.0
 11
88.76019621588371
 21
-12.33259551759757
 31
0.0
  0
ARC
  5
412
  8
DIMS
 10
80.88519621588365
 20
-10.33259551759757
 30
0.0
 40
8.125000000000057
 50
345.7499673021965
 51
0.0
  0
LINE
  5
413
  8
DIMS
 10
89.01019621588371
 20
-10.33259551759757
 30
0.0
 11
87.44769621588371
 21
-10.33259551759757
 31
0.0
  0
LINE
  5
414
  8
DIMS
 10
87.44769621588371
 20
-10.33259551759757
 30
0.0
 11
87.44769621588371
 21
-7.707595517597568
 31
0.0
  0
LINE
  5
415
  8
DIMS
 10
87.44769621588371
 20
-7.707595517597568
 30
0.0
 11
89.01019621588371
 21
-7.707595517597568
 31
0.0
  0
ARC
  5
416
  8
DIMS
 10
80.88519621588371
 20
-7.707595517597568
 30
0.0
 40
8.125
 50
0.0
 51
14.2500326978036
  0
LINE
  5
417
  8
SCAFFOLD
 10
103.7555442794603
 20
37.88711069647053
 30
0.0
 11
103.7555442794603
 21
-12.91978038144179
 31
0.0
  0
LINE
  5
419
  8
PLYWOOD
 10
56.23692186212644
 20
-12.33259551759756
 30
0.0
 11
151.2369218621264
 21
-12.33259551759756
 31
0.0
  0
LINE
  5
41A
  8
PLYWOOD
 10
151.2369218621264
 20
-12.33259551759756
 30
0.0
 11
151.2369218621264
 21
34.66740448240245
 31
0.0
  0
LINE
  5
41B
  8
PLYWOOD
 10
151.2369218621264
 20
34.66740448240245
 30
0.0
 11
56.23692186212643
 21
34.66740448240245
 31
0.0
  0
LINE
  5
41C
  8
PLYWOOD
 10
56.23692186212643
 20
34.66740448240245
 30
0.0
 11
56.23692186212643
 21
-12.33259551759756
 31
0.0
  0
LINE
  5
41D
  8
PLYWOOD
 10
55.73692186212643
 20
-12.83259551759756
 30
0.0
 11
151.7369218621264
 21
-12.83259551759756
 31
0.0
  0
LINE
  5
41E
  8
PLYWOOD
 10
151.7369218621264
 20
-12.83259551759756
 30
0.0
 11
151.7369218621264
 21
35.16740448240245
 31
0.0
  0
LINE
  5
41F
  8
PLYWOOD
 10
151.7369218621264
 20
35.16740448240245
 30
0.0
 11
55.73692186212643
 21
35.16740448240245
 31
0.0
  0
LINE
  5
420
  8
PLYWOOD
 10
55.73692186212643
 20
35.16740448240245
 30
0.0
 11
55.73692186212643
 21
-12.83259551759756
 31
0.0
  0
ENDSEC
  0
EOF
