  0
SECTION
  2
HEADER
  9
$ACADVER
  1
AC1015
  9
$ACADMAINTVER
 70
     6
  9
$DWGCODEPAGE
  3
ANSI_1252
  9
$INSBASE
 10
0.0
 20
0.0
 30
0.0
  9
$EXTMIN
 10
0.0
 20
0.0
 30
0.0
  9
$EXTMAX
 10
11.0
 20
8.5
 30
0.0
  9
$LIMMIN
 10
0.0
 20
0.0
  9
$LIMMAX
 10
11.0
 20
8.5
  9
$ORTHOMODE
 70
     0
  9
$REGENMODE
 70
     1
  9
$FILLMODE
 70
     1
  9
$QTEXTMODE
 70
     0
  9
$MIRRTEXT
 70
     1
  9
$LTSCALE
 40
1.0
  9
$ATTMODE
 70
     1
  9
$TEXTSIZE
 40
0.1377952756
  9
$TRACEWID
 40
0.05
  9
$TEXTSTYLE
  7
Standard
  9
$CLAYER
  8
0
  9
$CELTYPE
  6
ByLayer
  9
$CECOLOR
 62
   256
  9
$CELTSCALE
 40
1.0
  9
$DISPSILH
 70
     0
  9
$DIMSCALE
 40
1.0
  9
$DIMASZ
 40
0.13
  9
$DIMEXO
 40
0.0393700787
  9
$DIMDLI
 40
0.38
  9
$DIMRND
 40
0.0
  9
$DIMDLE
 40
0.0
  9
$DIMEXE
 40
0.0393700787
  9
$DIMTP
 40
0.0
  9
$DIMTM
 40
0.0
  9
$DIMTXT
 40
0.1377952756
  9
$DIMCEN
 40
0.09
  9
$DIMTSZ
 40
0.0
  9
$DIMTOL
 70
     0
  9
$DIMLIM
 70
     0
  9
$DIMTIH
 70
     1
  9
$DIMTOH
 70
     1
  9
$DIMSE1
 70
     0
  9
$DIMSE2
 70
     0
  9
$DIMTAD
 70
     1
  9
$DIMZIN
 70
     0
  9
$DIMBLK
  1

  9
$DIMASO
 70
     1
  9
$DIMSHO
 70
     1
  9
$DIMPOST
  1

  9
$DIMAPOST
  1

  9
$DIMALT
 70
     0
  9
$DIMALTD
 70
     2
  9
$DIMALTF
 40
25.4
  9
$DIMLFAC
 40
20.0
  9
$DIMTOFL
 70
     0
  9
$DIMTVP
 40
0.0
  9
$DIMTIX
 70
     0
  9
$DIMSOXD
 70
     0
  9
$DIMSAH
 70
     0
  9
$DIMBLK1
  1

  9
$DIMBLK2
  1

  9
$DIMSTYLE
  2
Standard
  9
$DIMCLRD
 70
     0
  9
$DIMCLRE
 70
     0
  9
$DIMCLRT
 70
     0
  9
$DIMTFAC
 40
1.0
  9
$DIMGAP
 40
0.06
  9
$DIMJUST
 70
     0
  9
$DIMSD1
 70
     0
  9
$DIMSD2
 70
     0
  9
$DIMTOLJ
 70
     1
  9
$DIMTZIN
 70
     0
  9
$DIMALTZ
 70
     0
  9
$DIMALTTZ
 70
     0
  9
$DIMUPT
 70
     0
  9
$DIMDEC
 70
     2
  9
$DIMTDEC
 70
     2
  9
$DIMALTU
 70
     2
  9
$DIMALTTD
 70
     2
  9
$DIMTXSTY
  7
Standard
  9
$DIMAUNIT
 70
     0
  9
$DIMADEC
 70
     2
  9
$DIMALTRND
 40
0.0
  9
$DIMAZIN
 70
     0
  9
$DIMDSEP
 70
    46
  9
$DIMATFIT
 70
     3
  9
$DIMFRAC
 70
     0
  9
$DIMLDRBLK
  1

  9
$DIMLUNIT
 70
     2
  9
$DIMLWD
 70
    -2
  9
$DIMLWE
 70
    -2
  9
$DIMTMOVE
 70
     0
  9
$LUNITS
 70
     2
  9
$LUPREC
 70
     2
  9
$SKETCHINC
 40
0.1
  9
$FILLETRAD
 40
0.5
  9
$AUNITS
 70
     0
  9
$AUPREC
 70
     2
  9
$MENU
  1
.
  9
$ELEVATION
 40
0.0
  9
$PELEVATION
 40
0.0
  9
$THICKNESS
 40
0.0
  9
$LIMCHECK
 70
     0
  9
$CHAMFERA
 40
0.0
  9
$CHAMFERB
 40
0.0
  9
$CHAMFERC
 40
0.0
  9
$CHAMFERD
 40
0.0
  9
$SKPOLY
 70
     0
  9
$TDCREATE
 40
2457223.766113241
  9
$TDUCREATE
 40
2457224.057779907
  9
$TDUPDATE
 40
2457223.766113785
  9
$TDUUPDATE
 40
2457224.057780452
  9
$TDINDWG
 40
0.0000000116
  9
$TDUSRTIMER
 40
0.0000000116
  9
$USRTIMER
 70
     1
  9
$ANGBASE
 50
0.0
  9
$ANGDIR
 70
     0
  9
$PDMODE
 70
     0
  9
$PDSIZE
 40
-1.0
  9
$PLINEWID
 40
0.0
  9
$SPLFRAME
 70
     0
  9
$SPLINETYPE
 70
     6
  9
$SPLINESEGS
 70
     8
  9
$HANDSEED
  5
160
  9
$SURFTAB1
 70
     6
  9
$SURFTAB2
 70
     6
  9
$SURFTYPE
 70
     6
  9
$SURFU
 70
     6
  9
$SURFV
 70
     6
  9
$UCSBASE
  2

  9
$UCSNAME
  2

  9
$UCSORG
 10
0.0
 20
0.0
 30
0.0
  9
$UCSXDIR
 10
1.0
 20
0.0
 30
0.0
  9
$UCSYDIR
 10
0.0
 20
1.0
 30
0.0
  9
$UCSORTHOREF
  2

  9
$UCSORTHOVIEW
 70
     0
  9
$UCSORGTOP
 10
0.0
 20
0.0
 30
0.0
  9
$UCSORGBOTTOM
 10
0.0
 20
0.0
 30
0.0
  9
$UCSORGLEFT
 10
0.0
 20
0.0
 30
0.0
  9
$UCSORGRIGHT
 10
0.0
 20
0.0
 30
0.0
  9
$UCSORGFRONT
 10
0.0
 20
0.0
 30
0.0
  9
$UCSORGBACK
 10
0.0
 20
0.0
 30
0.0
  9
$PUCSBASE
  2

  9
$PUCSNAME
  2

  9
$PUCSORG
 10
0.0
 20
0.0
 30
0.0
  9
$PUCSXDIR
 10
1.0
 20
0.0
 30
0.0
  9
$PUCSYDIR
 10
0.0
 20
1.0
 30
0.0
  9
$PUCSORTHOREF
  2

  9
$PUCSORTHOVIEW
 70
     0
  9
$PUCSORGTOP
 10
0.0
 20
0.0
 30
0.0
  9
$PUCSORGBOTTOM
 10
0.0
 20
0.0
 30
0.0
  9
$PUCSORGLEFT
 10
0.0
 20
0.0
 30
0.0
  9
$PUCSORGRIGHT
 10
0.0
 20
0.0
 30
0.0
  9
$PUCSORGFRONT
 10
0.0
 20
0.0
 30
0.0
  9
$PUCSORGBACK
 10
0.0
 20
0.0
 30
0.0
  9
$USERI1
 70
     0
  9
$USERI2
 70
     0
  9
$USERI3
 70
     0
  9
$USERI4
 70
     0
  9
$USERI5
 70
     0
  9
$USERR1
 40
0.0
  9
$USERR2
 40
0.0
  9
$USERR3
 40
0.0
  9
$USERR4
 40
0.0
  9
$USERR5
 40
0.0
  9
$WORLDVIEW
 70
     1
  9
$SHADEDGE
 70
     3
  9
$SHADEDIF
 70
    70
  9
$TILEMODE
 70
     1
  9
$MAXACTVP
 70
    64
  9
$PINSBASE
 10
0.0
 20
0.0
 30
0.0
  9
$PLIMCHECK
 70
     0
  9
$PEXTMIN
 10
1.0000000000E+20
 20
1.0000000000E+20
 30
1.0000000000E+20
  9
$PEXTMAX
 10
-1.0000000000E+20
 20
-1.0000000000E+20
 30
-1.0000000000E+20
  9
$PLIMMIN
 10
0.0
 20
0.0
  9
$PLIMMAX
 10
12.0
 20
9.0
  9
$UNITMODE
 70
     0
  9
$VISRETAIN
 70
     1
  9
$PLINEGEN
 70
     0
  9
$PSLTSCALE
 70
     1
  9
$TREEDEPTH
 70
  3020
  9
$CMLSTYLE
  2
Standard
  9
$CMLJUST
 70
     0
  9
$CMLSCALE
 40
1.0
  9
$PROXYGRAPHICS
 70
     1
  9
$MEASUREMENT
 70
     0
  9
$CELWEIGHT
370
    -1
  9
$ENDCAPS
280
     0
  9
$JOINSTYLE
280
     0
  9
$LWDISPLAY
290
     1
  9
$INSUNITS
 70
     1
  9
$HYPERLINKBASE
  1

  9
$STYLESHEET
  1

  9
$XEDIT
290
     1
  9
$CEPSNTYPE
380
     0
  9
$PSTYLEMODE
290
     1
  9
$FINGERPRINTGUID
  2
{72729C60-7C6D-4CF7-905C-DEE78648869E}
  9
$VERSIONGUID
  2
{FAEB1C32-E019-11D5-929B-00C0DF256EC4}
  9
$EXTNAMES
290
     1
  9
$PSVPSCALE
 40
0.0
  9
$OLESTARTUP
290
     0
  0
ENDSEC
  0
SECTION
  2
CLASSES
  0
CLASS
  1
ACDBDICTIONARYWDFLT
  2
AcDbDictionaryWithDefault
  3
ObjectDBX Classes
 90
        0
280
     0
281
     0
  0
CLASS
  1
VISUALSTYLE
  2
AcDbVisualStyle
  3
ObjectDBX Classes
 90
     4095
280
     0
281
     0
  0
CLASS
  1
MATERIAL
  2
AcDbMaterial
  3
ObjectDBX Classes
 90
     1153
280
     0
281
     0
  0
CLASS
  1
SCALE
  2
AcDbScale
  3
ObjectDBX Classes
 90
     1153
280
     0
281
     0
  0
CLASS
  1
SUN
  2
AcDbSun
  3
SCENEOE
 90
     1153
280
     0
281
     0
  0
CLASS
  1
ACDBPLACEHOLDER
  2
AcDbPlaceHolder
  3
ObjectDBX Classes
 90
        0
280
     0
281
     0
  0
CLASS
  1
LAYOUT
  2
AcDbLayout
  3
ObjectDBX Classes
 90
        0
280
     0
281
     0
  0
ENDSEC
  0
SECTION
  2
TABLES
  0
TABLE
  2
VPORT
  5
8
330
0
100
AcDbSymbolTable
 70
     1
  0
VPORT
  5
29
330
8
100
AcDbSymbolTableRecord
100
AcDbViewportTableRecord
  2
*Active
 70
     0
 10
0.0
 20
0.0
 11
1.0
 21
1.0
 12
5.5
 22
4.25
 13
0.0
 23
0.0
 14
0.5
 24
0.5
 15
0.5
 25
0.5
 16
0.0
 26
0.0
 36
1.0
 17
0.0
 27
0.0
 37
0.0
 40
8.5
 41
1.2941176471
 42
50.0
 43
0.0
 44
0.0
 50
0.0
 51
0.0
 71
     0
 72
  2000
 73
     1
 74
     3
 75
     0
 76
     0
 77
     0
 78
     0
281
     0
 65
     1
110
0.0
120
0.0
130
0.0
111
1.0
121
0.0
131
0.0
112
0.0
122
1.0
132
0.0
 79
     0
146
0.0
  0
ENDTAB
  0
TABLE
  2
LTYPE
  5
5
330
0
100
AcDbSymbolTable
 70
     6
  0
LTYPE
  5
14
330
5
100
AcDbSymbolTableRecord
100
AcDbLinetypeTableRecord
  2
ByBlock
 70
     0
  3

 72
    65
 73
     0
 40
0.0
  0
LTYPE
  5
15
330
5
100
AcDbSymbolTableRecord
100
AcDbLinetypeTableRecord
  2
ByLayer
 70
     0
  3

 72
    65
 73
     0
 40
0.0
  0
LTYPE
  5
16
330
5
100
AcDbSymbolTableRecord
100
AcDbLinetypeTableRecord
  2
Continuous
 70
     0
  3
Solid line
 72
    65
 73
     0
 40
0.0
  0
LTYPE
  5
6A
330
5
100
AcDbSymbolTableRecord
100
AcDbLinetypeTableRecord
  2
HIDDEN
 70
     0
  3
Hidden __ __ __ __ __ __ __ __ __ __ __ __ __ __
 72
    65
 73
     2
 40
0.075
 49
0.05
 74
     0
 49
-0.025
 74
     0
  0
LTYPE
  5
6B
330
5
100
AcDbSymbolTableRecord
100
AcDbLinetypeTableRecord
  2
PHANTOM
 70
     0
  3
Phantom ______  __  __  ______  __  __  ______
 72
    65
 73
     6
 40
0.5
 49
0.25
 74
     0
 49
-0.05
 74
     0
 49
0.05
 74
     0
 49
-0.05
 74
     0
 49
0.05
 74
     0
 49
-0.05
 74
     0
  0
LTYPE
  5
6C
330
5
100
AcDbSymbolTableRecord
100
AcDbLinetypeTableRecord
  2
CENTER
 70
     0
  3
Center ____ _ ____ _ ____ _ ____ _ ____ _ ____
 72
    65
 73
     4
 40
0.4
 49
0.25
 74
     0
 49
-0.05
 74
     0
 49
0.05
 74
     0
 49
-0.05
 74
     0
  0
LTYPE
  5
6D
330
5
100
AcDbSymbolTableRecord
100
AcDbLinetypeTableRecord
  2
CENTERX2
 70
     0
  3
Center (2x) ________  __  ________  __  _____
 72
    65
 73
     4
 40
0.8
 49
0.5
 74
     0
 49
-0.1
 74
     0
 49
0.1
 74
     0
 49
-0.1
 74
     0
  0
LTYPE
  5
6E
330
5
100
AcDbSymbolTableRecord
100
AcDbLinetypeTableRecord
  2
DOT2
 70
     0
  3
Dot (.5x) ........................................
 72
    65
 73
     2
 40
0.025
 49
0.0
 74
     0
 49
-0.025
 74
     0
  0
ENDTAB
  0
TABLE
  2
LAYER
  5
2
330
0
100
AcDbSymbolTable
 70
     1
  0
LAYER
  5
10
330
2
100
AcDbSymbolTableRecord
100
AcDbLayerTableRecord
  2
0
 70
     0
 62
     7
  6
Continuous
370
    -3
390
F
  0
ENDTAB
  0
TABLE
  2
STYLE
  5
3
330
0
100
AcDbSymbolTable
 70
     1
  0
STYLE
  5
11
330
3
100
AcDbSymbolTableRecord
100
AcDbTextStyleTableRecord
  2
Standard
 70
     0
 40
0.0
 41
1.0
 50
0.0
 71
     0
 42
0.1377952756
  3
txt
  4

  0
ENDTAB
  0
TABLE
  2
VIEW
  5
6
330
0
100
AcDbSymbolTable
 70
     0
  0
ENDTAB
  0
TABLE
  2
UCS
  5
7
330
0
100
AcDbSymbolTable
 70
     0
  0
ENDTAB
  0
TABLE
  2
APPID
  5
9
330
0
100
AcDbSymbolTable
 70
     1
  0
APPID
  5
12
330
9
100
AcDbSymbolTableRecord
100
AcDbRegAppTableRecord
  2
ACAD
 70
     0
  0
ENDTAB
  0
TABLE
  2
DIMSTYLE
  5
A
330
0
100
AcDbSymbolTable
 70
     1
100
AcDbDimStyleTable
  0
DIMSTYLE
105
27
330
A
100
AcDbSymbolTableRecord
100
AcDbDimStyleTableRecord
  2
Standard
 70
     0
178
     0
340
11
  0
ENDTAB
  0
TABLE
  2
BLOCK_RECORD
  5
1
330
0
100
AcDbSymbolTable
 70
     4
  0
BLOCK_RECORD
  5
1F
330
1
100
AcDbSymbolTableRecord
100
AcDbBlockTableRecord
  2
*Model_Space
340
22
  0
BLOCK_RECORD
  5
1B
330
1
100
AcDbSymbolTableRecord
100
AcDbBlockTableRecord
  2
*Paper_Space
340
1E
  0
BLOCK_RECORD
  5
23
330
1
100
AcDbSymbolTableRecord
100
AcDbBlockTableRecord
  2
*Paper_Space0
340
26
  0
BLOCK_RECORD
  5
13C
330
1
100
AcDbSymbolTableRecord
100
AcDbBlockTableRecord
  2
SW_CENTERMARKSYMBOL_0
340
0
102
{BLKREFS
331
147
102
}
  0
BLOCK_RECORD
  5
148
330
1
100
AcDbSymbolTableRecord
100
AcDbBlockTableRecord
  2
SW_CENTERMARKSYMBOL_1
340
0
102
{BLKREFS
331
153
102
}
  0
BLOCK_RECORD
  5
154
330
1
100
AcDbSymbolTableRecord
100
AcDbBlockTableRecord
  2
SW_CENTERMARKSYMBOL_2
340
0
102
{BLKREFS
331
15F
102
}
  0
ENDTAB
  0
ENDSEC
  0
SECTION
  2
BLOCKS
  0
BLOCK
  5
20
330
1F
100
AcDbEntity
  8
0
100
AcDbBlockBegin
  2
*Model_Space
 70
     0
 10
0.0
 20
0.0
 30
0.0
  3
*Model_Space
  1
*Model_Space
  0
ENDBLK
  5
21
330
1F
100
AcDbEntity
  8
0
100
AcDbBlockEnd
  0
BLOCK
  5
1C
330
1B
100
AcDbEntity
 67
     1
  8
0
100
AcDbBlockBegin
  2
*Paper_Space
 70
     0
 10
0.0
 20
0.0
 30
0.0
  3
*Paper_Space
  1
*Paper_Space
  0
ENDBLK
  5
1D
330
1B
100
AcDbEntity
 67
     1
  8
0
100
AcDbBlockEnd
  0
BLOCK
  5
24
330
23
100
AcDbEntity
  8
0
100
AcDbBlockBegin
  2
*Paper_Space0
 70
     0
 10
0.0
 20
0.0
 30
0.0
  3
*Paper_Space0
  1
*Paper_Space0
  0
ENDBLK
  5
25
330
23
100
AcDbEntity
  8
0
100
AcDbBlockEnd
  0
BLOCK
  5
13D
330
13C
100
AcDbEntity
  8
0
100
AcDbBlockBegin
  2
SW_CENTERMARKSYMBOL_0
 70
     0
 10
0.0
 20
0.0
 30
0.0
  3
SW_CENTERMARKSYMBOL_0
  1
SW_CENTERMARKSYMBOL_0
  0
LINE
  5
13F
330
13C
100
AcDbEntity
  8
0
  6
Continuous
 62
     0
370
     0
100
AcDbLine
 10
0.0
 20
0.0
 30
0.0
 11
0.0
 21
0.0984251969
 31
0.0
  0
LINE
  5
140
330
13C
100
AcDbEntity
  8
0
  6
Continuous
 62
     0
370
     0
100
AcDbLine
 10
0.0
 20
0.0
 30
0.0
 11
-0.0984251969
 21
0.0
 31
0.0
  0
LINE
  5
141
330
13C
100
AcDbEntity
  8
0
  6
Continuous
 62
     0
370
     0
100
AcDbLine
 10
0.0
 20
0.0
 30
0.0
 11
0.0
 21
-0.0984251969
 31
0.0
  0
LINE
  5
142
330
13C
100
AcDbEntity
  8
0
  6
Continuous
 62
     0
370
     0
100
AcDbLine
 10
0.0
 20
0.0
 30
0.0
 11
0.0984251969
 21
0.0
 31
0.0
  0
LINE
  5
143
330
13C
100
AcDbEntity
  8
0
  6
Continuous
 62
     0
370
     0
100
AcDbLine
 10
0.0
 20
0.0984251969
 30
0.0
 11
0.0
 21
0.1924251969
 31
0.0
  0
LINE
  5
144
330
13C
100
AcDbEntity
  8
0
  6
Continuous
 62
     0
370
     0
100
AcDbLine
 10
-0.0984251969
 20
0.0
 30
0.0
 11
-0.1924251969
 21
0.0
 31
0.0
  0
LINE
  5
145
330
13C
100
AcDbEntity
  8
0
  6
Continuous
 62
     0
370
     0
100
AcDbLine
 10
0.0
 20
-0.0984251969
 30
0.0
 11
0.0
 21
-0.1924251969
 31
0.0
  0
LINE
  5
146
330
13C
100
AcDbEntity
  8
0
  6
Continuous
 62
     0
370
     0
100
AcDbLine
 10
0.0984251969
 20
0.0
 30
0.0
 11
0.1924251969
 21
0.0
 31
0.0
  0
ENDBLK
  5
13E
330
13C
100
AcDbEntity
  8
0
100
AcDbBlockEnd
  0
BLOCK
  5
149
330
148
100
AcDbEntity
  8
0
100
AcDbBlockBegin
  2
SW_CENTERMARKSYMBOL_1
 70
     0
 10
0.0
 20
0.0
 30
0.0
  3
SW_CENTERMARKSYMBOL_1
  1
SW_CENTERMARKSYMBOL_1
  0
LINE
  5
14B
330
148
100
AcDbEntity
  8
0
  6
Continuous
 62
     0
370
     0
100
AcDbLine
 10
0.0
 20
0.0
 30
0.0
 11
0.0
 21
0.0984251969
 31
0.0
  0
LINE
  5
14C
330
148
100
AcDbEntity
  8
0
  6
Continuous
 62
     0
370
     0
100
AcDbLine
 10
0.0
 20
0.0
 30
0.0
 11
-0.0984251969
 21
0.0
 31
0.0
  0
LINE
  5
14D
330
148
100
AcDbEntity
  8
0
  6
Continuous
 62
     0
370
     0
100
AcDbLine
 10
0.0
 20
0.0
 30
0.0
 11
0.0
 21
-0.0984251969
 31
0.0
  0
LINE
  5
14E
330
148
100
AcDbEntity
  8
0
  6
Continuous
 62
     0
370
     0
100
AcDbLine
 10
0.0
 20
0.0
 30
0.0
 11
0.0984251969
 21
0.0
 31
0.0
  0
LINE
  5
14F
330
148
100
AcDbEntity
  8
0
  6
Continuous
 62
     0
370
     0
100
AcDbLine
 10
0.0
 20
0.0984251969
 30
0.0
 11
0.0
 21
0.1924251969
 31
0.0
  0
LINE
  5
150
330
148
100
AcDbEntity
  8
0
  6
Continuous
 62
     0
370
     0
100
AcDbLine
 10
-0.0984251969
 20
0.0
 30
0.0
 11
-0.1924251969
 21
0.0
 31
0.0
  0
LINE
  5
151
330
148
100
AcDbEntity
  8
0
  6
Continuous
 62
     0
370
     0
100
AcDbLine
 10
0.0
 20
-0.0984251969
 30
0.0
 11
0.0
 21
-0.1924251969
 31
0.0
  0
LINE
  5
152
330
148
100
AcDbEntity
  8
0
  6
Continuous
 62
     0
370
     0
100
AcDbLine
 10
0.0984251969
 20
0.0
 30
0.0
 11
0.1924251969
 21
0.0
 31
0.0
  0
ENDBLK
  5
14A
330
148
100
AcDbEntity
  8
0
100
AcDbBlockEnd
  0
BLOCK
  5
155
330
154
100
AcDbEntity
  8
0
100
AcDbBlockBegin
  2
SW_CENTERMARKSYMBOL_2
 70
     0
 10
0.0
 20
0.0
 30
0.0
  3
SW_CENTERMARKSYMBOL_2
  1
SW_CENTERMARKSYMBOL_2
  0
LINE
  5
157
330
154
100
AcDbEntity
  8
0
  6
Continuous
 62
     0
370
     0
100
AcDbLine
 10
0.0
 20
0.0
 30
0.0
 11
0.0
 21
0.0984251969
 31
0.0
  0
LINE
  5
158
330
154
100
AcDbEntity
  8
0
  6
Continuous
 62
     0
370
     0
100
AcDbLine
 10
0.0
 20
0.0
 30
0.0
 11
-0.0984251969
 21
0.0
 31
0.0
  0
LINE
  5
159
330
154
100
AcDbEntity
  8
0
  6
Continuous
 62
     0
370
     0
100
AcDbLine
 10
0.0
 20
0.0
 30
0.0
 11
0.0
 21
-0.0984251969
 31
0.0
  0
LINE
  5
15A
330
154
100
AcDbEntity
  8
0
  6
Continuous
 62
     0
370
     0
100
AcDbLine
 10
0.0
 20
0.0
 30
0.0
 11
0.0984251969
 21
0.0
 31
0.0
  0
LINE
  5
15B
330
154
100
AcDbEntity
  8
0
  6
Continuous
 62
     0
370
     0
100
AcDbLine
 10
0.0
 20
0.0984251969
 30
0.0
 11
0.0
 21
0.1924251969
 31
0.0
  0
LINE
  5
15C
330
154
100
AcDbEntity
  8
0
  6
Continuous
 62
     0
370
     0
100
AcDbLine
 10
-0.0984251969
 20
0.0
 30
0.0
 11
-0.1924251969
 21
0.0
 31
0.0
  0
LINE
  5
15D
330
154
100
AcDbEntity
  8
0
  6
Continuous
 62
     0
370
     0
100
AcDbLine
 10
0.0
 20
-0.0984251969
 30
0.0
 11
0.0
 21
-0.1924251969
 31
0.0
  0
LINE
  5
15E
330
154
100
AcDbEntity
  8
0
  6
Continuous
 62
     0
370
     0
100
AcDbLine
 10
0.0984251969
 20
0.0
 30
0.0
 11
0.1924251969
 21
0.0
 31
0.0
  0
ENDBLK
  5
156
330
154
100
AcDbEntity
  8
0
100
AcDbBlockEnd
  0
ENDSEC
  0
SECTION
  2
ENTITIES
  0
SPLINE
  5
6F
330
1F
100
AcDbEntity
  8
0
  6
Continuous
 62
     7
370
    15
100
AcDbSpline
210
0.0
220
0.0
230
1.0
 70
     8
 71
     3
 72
    14
 73
    10
 74
     0
 42
0.000000001
 43
0.00000001
 40
0.0
 40
0.0
 40
0.0
 40
0.0
 40
0.1669357869574424
 40
0.3338013661053761
 40
0.5002401520256748
 40
0.6251784245202668
 40
0.7501512767658136
 40
0.875063392150642
 40
1.0
 40
1.0
 40
1.0
 40
1.0
 10
-13.64458679396101
 20
31.37040809047999
 30
0.0
 10
-13.61353267058705
 20
31.37091450714625
 30
0.0
 10
-13.55143748420215
 20
31.37192712749627
 30
0.0
 10
-13.45863839725764
 20
31.38082080939686
 30
0.0
 10
-13.375741618679
 20
31.40466505400805
 30
0.0
 10
-13.30974715532879
 20
31.44737052006069
 30
0.0
 10
-13.26473615177132
 20
31.50165388395265
 30
0.0
 10
-13.23479939270699
 20
31.56613977314545
 30
0.0
 10
-13.23129727325932
 20
31.61280923093684
 30
0.0
 10
-13.22954604188053
 20
31.6361462473168
 30
0.0
  0
LINE
  5
70
330
1F
100
AcDbEntity
  8
0
  6
Continuous
 62
     7
370
    15
100
AcDbLine
 10
-13.9306656225
 20
31.3725998518
 30
0.0
 11
-13.644586794
 21
31.3704080905
 31
0.0
  0
SPLINE
  5
71
330
1F
100
AcDbEntity
  8
0
  6
Continuous
 62
     7
370
    15
100
AcDbSpline
210
0.0
220
0.0
230
1.0
 70
     8
 71
     3
 72
    23
 73
    19
 74
     0
 42
0.000000001
 43
0.00000001
 40
0.0000026432125215
 40
0.0000026432125215
 40
0.0000026432125215
 40
0.0000026432125215
 40
0.0688142958243171
 40
0.1363648245522215
 40
0.2040193535112551
 40
0.2730637386246169
 40
0.3429133195614926
 40
0.4109654441389622
 40
0.4791687665134507
 40
0.5493080065097871
 40
0.5876515764176491
 40
0.6306466687627954
 40
0.6788787856966442
 40
0.7319342992295861
 40
0.7911114229480488
 40
0.8552831895130807
 40
0.9250859386773854
 40
0.9999968511809015
 40
0.9999968511809015
 40
0.9999968511809015
 40
0.9999968511809015
 10
-13.22954580158778
 20
31.63614625757953
 30
0.0
 10
-13.23008244217618
 20
31.64871120963162
 30
0.0
 10
-13.23114598011046
 20
31.67361082316868
 30
0.0
 10
-13.23982835357222
 20
31.71006388226622
 30
0.0
 10
-13.25451111310636
 20
31.74446877071746
 30
0.0
 10
-13.27429782646563
 20
31.7766850586602
 30
0.0
 10
-13.2984045920739
 20
31.80592869073804
 30
0.0
 10
-13.32667147274114
 20
31.83094974121013
 30
0.0
 10
-13.35832557771885
 20
31.8515968236557
 30
0.0
 10
-13.38791093412596
 20
31.86479074352709
 30
0.0
 10
-13.41435477898862
 20
31.87287996372619
 30
0.0
 10
-13.43731444864975
 20
31.87857244757037
 30
0.0
 10
-13.46325707263162
 20
31.88314587119983
 30
0.0
 10
-13.49230861665479
 20
31.88681018409052
 30
0.0
 10
-13.52434505896947
 20
31.88995971277303
 30
0.0
 10
-13.5595283853496
 20
31.89208104253112
 30
0.0
 10
-13.5976245879752
 20
31.89333721292817
 30
0.0
 10
-13.62402889318756
 20
31.89339932241191
 30
0.0
 10
-13.63769706102794
 20
31.89343146423481
 30
0.0
  0
LINE
  5
72
330
1F
100
AcDbEntity
  8
0
  6
Continuous
 62
     7
370
    15
100
AcDbLine
 10
-13.9306656225
 20
31.8934318085
 30
0.0
 11
-13.9306656225
 21
31.3725998518
 31
0.0
  0
LINE
  5
73
330
1F
100
AcDbEntity
  8
0
  6
Continuous
 62
     7
370
    15
100
AcDbLine
 10
-13.6376970602
 20
31.8934318085
 30
0.0
 11
-13.9306656225
 21
31.8934318085
 31
0.0
  0
LINE
  5
74
330
1F
100
AcDbEntity
  8
0
  6
Continuous
 62
     7
370
    15
100
AcDbLine
 10
5.7408078243
 20
32.0937503477
 30
0.0
 11
5.7408078243
 21
30.491187954
 31
0.0
  0
LINE
  5
75
330
1F
100
AcDbEntity
  8
0
  6
Continuous
 62
     7
370
    15
100
AcDbLine
 10
5.6005820309
 20
32.0937503477
 30
0.0
 11
5.7408078243
 21
32.0937503477
 31
0.0
  0
LINE
  5
76
330
1F
100
AcDbEntity
  8
0
  6
Continuous
 62
     7
370
    15
100
AcDbLine
 10
5.6005820309
 20
30.491187954
 30
0.0
 11
5.6005820309
 21
32.0937503477
 31
0.0
  0
LINE
  5
77
330
1F
100
AcDbEntity
  8
0
  6
Continuous
 62
     7
370
    15
100
AcDbLine
 10
5.7408078243
 20
30.491187954
 30
0.0
 11
5.6005820309
 21
30.491187954
 31
0.0
  0
LINE
  5
78
330
1F
100
AcDbEntity
  8
0
  6
Continuous
 62
     7
370
    15
100
AcDbLine
 10
3.0364793849
 20
30.9040369447
 30
0.0
 11
3.0364793849
 21
30.491187954
 31
0.0
  0
SPLINE
  5
79
330
1F
100
AcDbEntity
  8
0
  6
Continuous
 62
     7
370
    15
100
AcDbSpline
210
0.0
220
0.0
230
1.0
 70
     8
 71
     3
 72
    10
 73
     6
 74
     0
 42
0.000000001
 43
0.00000001
 40
0.0
 40
0.0
 40
0.0
 40
0.0
 40
0.2798744871408607
 40
0.5599234877568399
 40
1.0
 40
1.0
 40
1.0
 40
1.0
 10
3.058077855431671
 20
31.21046583147995
 30
0.0
 10
3.052984196145994
 20
31.18218559646198
 30
0.0
 10
3.042793701464549
 20
31.12560749251401
 30
0.0
 10
3.037843300484353
 20
31.02298669286933
 30
0.0
 10
3.03699673207617
 20
30.94915580260427
 30
0.0
 10
3.036479384939045
 20
30.90403694470593
 30
0.0
  0
SPLINE
  5
7A
330
1F
100
AcDbEntity
  8
0
  6
Continuous
 62
     7
370
    15
100
AcDbSpline
210
0.0
220
0.0
230
1.0
 70
     8
 71
     3
 72
    12
 73
     8
 74
     0
 42
0.000000001
 43
0.00000001
 40
0.0
 40
0.0
 40
0.0
 40
0.0
 40
0.1866981134154078
 40
0.3734042573719256
 40
0.5602157477031942
 40
0.780128139959125
 40
1.0
 40
1.0
 40
1.0
 40
1.0
 10
3.446510061563012
 20
31.51282095198113
 30
0.0
 10
3.413595049157992
 20
31.51062697192065
 30
0.0
 10
3.347763608557762
 20
31.50623891742892
 30
0.0
 10
3.255156270747827
 20
31.46772665057425
 30
0.0
 10
3.171238649566652
 20
31.40519738917372
 30
0.0
 10
3.097262584552033
 20
31.32053805960215
 30
0.0
 10
3.071138629243588
 20
31.24715431974441
 30
0.0
 10
3.058077855431671
 20
31.21046583147995
 30
0.0
  0
SPLINE
  5
7B
330
1F
100
AcDbEntity
  8
0
  6
Continuous
 62
     7
370
    15
100
AcDbSpline
210
0.0
220
0.0
230
1.0
 70
     8
 71
     3
 72
    12
 73
     8
 74
     0
 42
0.000000001
 43
0.00000001
 40
0.0
 40
0.0
 40
0.0
 40
0.0
 40
0.1868243635029014
 40
0.3735405222315627
 40
0.5600870792918703
 40
0.7798907642316778
 40
1.0
 40
1.0
 40
1.0
 40
1.0
 10
3.741043832417092
 20
31.28808797478232
 30
0.0
 10
3.734209624464339
 20
31.31245033734084
 30
0.0
 10
3.720545166789523
 20
31.36116095228563
 30
0.0
 10
3.678957769121166
 20
31.42587867235749
 30
0.0
 10
3.616650643112163
 20
31.47791741224797
 30
0.0
 10
3.535783367416086
 20
31.50850016805737
 30
0.0
 10
3.47628160624983
 20
31.51138002391827
 30
0.0
 10
3.446510061563008
 20
31.51282095198113
 30
0.0
  0
SPLINE
  5
7C
330
1F
100
AcDbEntity
  8
0
  6
Continuous
 62
     7
370
    15
100
AcDbSpline
210
0.0
220
0.0
230
1.0
 70
     8
 71
     3
 72
     9
 73
     5
 74
     0
 42
0.000000001
 43
0.00000001
 40
0.0
 40
0.0
 40
0.0
 40
0.0
 40
0.5602551129394301
 40
1.0
 40
1.0
 40
1.0
 40
1.0
 10
3.757634574092761
 20
31.02829620258571
 30
0.0
 10
3.757937239834675
 20
31.07705000611722
 30
0.0
 10
3.758477468267984
 20
31.16407072650957
 30
0.0
 10
3.746368631481979
 20
31.25020907600979
 30
0.0
 10
3.741043832417087
 20
31.28808797478233
 30
0.0
  0
LINE
  5
7D
330
1F
100
AcDbEntity
  8
0
  6
Continuous
 62
     7
370
    15
100
AcDbLine
 10
3.7576345741
 20
30.491187954
 30
0.0
 11
3.7576345741
 21
31.0282962026
 31
0.0
  0
LINE
  5
7E
330
1F
100
AcDbEntity
  8
0
  6
Continuous
 62
     7
370
    15
100
AcDbLine
 10
3.8978580209
 20
30.491187954
 30
0.0
 11
3.7576345741
 21
30.491187954
 31
0.0
  0
LINE
  5
7F
330
1F
100
AcDbEntity
  8
0
  6
Continuous
 62
     7
370
    15
100
AcDbLine
 10
3.8978580209
 20
31.074309111
 30
0.0
 11
3.8978580209
 21
30.491187954
 31
0.0
  0
SPLINE
  5
80
330
1F
100
AcDbEntity
  8
0
  6
Continuous
 62
     7
370
    15
100
AcDbSpline
210
0.0
220
0.0
230
1.0
 70
     8
 71
     3
 72
    14
 73
    10
 74
     0
 42
0.000000001
 43
0.00000001
 40
0.0
 40
0.0
 40
0.0
 40
0.0
 40
0.1400168336798603
 40
0.2799279613427834
 40
0.4198475489096166
 40
0.559715073188522
 40
0.7062451271932311
 40
0.8530954586585143
 40
0.9999999999999999
 40
0.9999999999999999
 40
0.9999999999999999
 40
0.9999999999999999
 10
3.470924499525342
 20
31.65304674541413
 30
0.0
 10
3.509311505800396
 20
31.65072110374695
 30
0.0
 10
3.586056537995589
 20
31.6460715761609
 30
0.0
 10
3.693201487954187
 20
31.59955584648812
 30
0.0
 10
3.783772706685851
 20
31.52740852492925
 30
0.0
 10
3.850161424978733
 20
31.42926701180273
 30
0.0
 10
3.88282513756841
 20
31.31426176430153
 30
0.0
 10
3.895682027887067
 20
31.19459382203341
 30
0.0
 10
3.897132600656352
 20
31.11440894717587
 30
0.0
 10
3.897858020886205
 20
31.07430911104067
 30
0.0
  0
SPLINE
  5
81
330
1F
100
AcDbEntity
  8
0
  6
Continuous
 62
     7
370
    15
100
AcDbSpline
210
0.0
220
0.0
230
1.0
 70
     8
 71
     3
 72
    11
 73
     7
 74
     0
 42
0.000000001
 43
0.00000001
 40
0.0
 40
0.0
 40
0.0
 40
0.0
 40
0.2801035247465307
 40
0.5597826614421708
 40
0.7798701250061983
 40
1.0
 40
1.0
 40
1.0
 40
1.0
 10
3.036479384939045
 20
31.42706066269131
 30
0.0
 10
3.06697763941205
 20
31.46373129080154
 30
0.0
 10
3.12792794010422
 20
31.53701698693435
 30
0.0
 10
3.24178060450733
 20
31.60839761079955
 30
0.0
 10
3.358776050636042
 20
31.64702998911003
 30
0.0
 10
3.43353928228186
 20
31.6510410311688
 30
0.0
 10
3.470924499525342
 20
31.65304674541413
 30
0.0
  0
LINE
  5
82
330
1F
100
AcDbEntity
  8
0
  6
Continuous
 62
     7
370
    15
100
AcDbLine
 10
3.0364793849
 20
31.6330158301
 30
0.0
 11
3.0364793849
 21
31.4270606627
 31
0.0
  0
LINE
  5
83
330
1F
100
AcDbEntity
  8
0
  6
Continuous
 62
     7
370
    15
100
AcDbLine
 10
2.8962559381
 20
31.6330158301
 30
0.0
 11
3.0364793849
 21
31.6330158301
 31
0.0
  0
LINE
  5
84
330
1F
100
AcDbEntity
  8
0
  6
Continuous
 62
     7
370
    15
100
AcDbLine
 10
2.8962559381
 20
30.491187954
 30
0.0
 11
2.8962559381
 21
31.6330158301
 31
0.0
  0
LINE
  5
85
330
1F
100
AcDbEntity
  8
0
  6
Continuous
 62
     7
370
    15
100
AcDbLine
 10
3.0364793849
 20
30.491187954
 30
0.0
 11
2.8962559381
 21
30.491187954
 31
0.0
  0
LINE
  5
86
330
1F
100
AcDbEntity
  8
0
  6
Continuous
 62
     7
370
    15
100
AcDbLine
 10
0.0717373139
 20
30.6980817773
 30
0.0
 11
0.0717373139
 21
30.070515267
 31
0.0
  0
SPLINE
  5
87
330
1F
100
AcDbEntity
  8
0
  6
Continuous
 62
     7
370
    15
100
AcDbSpline
210
0.0
220
0.0
230
1.0
 70
     8
 71
     3
 72
    11
 73
     7
 74
     0
 42
0.000000001
 43
0.00000001
 40
0.0
 40
0.0
 40
0.0
 40
0.0
 40
0.2798921280207079
 40
0.5596099869347672
 40
0.779759061546074
 40
1.0
 40
1.0
 40
1.0
 40
1.0
 10
0.5374819069044923
 20
30.47115703870487
 30
0.0
 10
0.4873653212064065
 20
30.47444529786306
 30
0.0
 10
0.3871633538768973
 20
30.48101976881211
 30
0.0
 10
0.2566297115541681
 20
30.53577524510861
 30
0.0
 10
0.1510576767619618
 20
30.61047045608985
 30
0.0
 10
0.098181111472194
 20
30.6688739426084
 30
0.0
 10
0.0717373138924409
 20
30.69808177725093
 30
0.0
  0
SPLINE
  5
88
330
1F
100
AcDbEntity
  8
0
  6
Continuous
 62
     7
370
    15
100
AcDbSpline
210
0.0
220
0.0
230
1.0
 70
     8
 71
     3
 72
    14
 73
    10
 74
     0
 42
0.000000001
 43
0.00000001
 40
0.0
 40
0.0
 40
0.0
 40
0.0
 40
0.1400521046995152
 40
0.2800143473979925
 40
0.4200057768498751
 40
0.5600768253386302
 40
0.7067222210561653
 40
0.8533091940829213
 40
1.0
 40
1.0
 40
1.0
 40
1.0
 10
1.133434489076075
 20
31.06523230922999
 30
0.0
 10
1.131043469246095
 20
31.02150188225133
 30
0.0
 10
1.126262963742488
 20
30.93406908716311
 30
0.0
 10
1.083293985561972
 20
30.80858136065024
 30
0.0
 10
1.012738110718133
 20
30.69722812829326
 30
0.0
 10
0.9189942652037638
 20
30.60160067571905
 30
0.0
 10
0.8057229875873986
 20
30.52631918757918
 30
0.0
 10
0.6748837435804266
 20
30.47915930210315
 30
0.0
 10
0.5832933281059558
 20
30.47382508935089
 30
0.0
 10
0.5374819069044878
 20
30.47115703870488
 30
0.0
  0
SPLINE
  5
89
330
1F
100
AcDbEntity
  8
0
  6
Continuous
 62
     7
370
    15
100
AcDbSpline
210
0.0
220
0.0
230
1.0
 70
     8
 71
     3
 72
    14
 73
    10
 74
     0
 42
0.000000001
 43
0.00000001
 40
0.0
 40
0.0
 40
0.0
 40
0.0
 40
0.140065473032693
 40
0.280058099850927
 40
0.4200471992188076
 40
0.5601066170190112
 40
0.7067526055863025
 40
0.8533369076272344
 40
1.0
 40
1.0
 40
1.0
 40
1.0
 10
0.5330983842099871
 20
31.65304674541413
 30
0.0
 10
0.5767395694962387
 20
31.65080591473256
 30
0.0
 10
0.6639992428609759
 20
31.64632541879603
 30
0.0
 10
0.7892909974722568
 20
31.60393110028339
 30
0.0
 10
0.9013201588876383
 20
31.53523763814383
 30
0.0
 10
0.9985467768049883
 20
31.44362666925506
 30
0.0
 10
1.075814262290694
 20
31.33214168839116
 30
0.0
 10
1.125357819817348
 20
31.20237188839737
 30
0.0
 10
1.130741783798207
 20
31.11095368976428
 30
0.0
 10
1.133434489076075
 20
31.06523230922999
 30
0.0
  0
SPLINE
  5
8A
330
1F
100
AcDbEntity
  8
0
  6
Continuous
 62
     7
370
    15
100
AcDbSpline
210
0.0
220
0.0
230
1.0
 70
     8
 71
     3
 72
    11
 73
     7
 74
     0
 42
0.000000001
 43
0.00000001
 40
0.0
 40
0.0
 40
0.0
 40
0.0
 40
0.2800139165010007
 40
0.5595865601335116
 40
0.7797643736059257
 40
1.0
 40
1.0
 40
1.0
 40
1.0
 10
0.0717373138924409
 20
31.42173848417357
 30
0.0
 10
0.1037695499365179
 20
31.46062960370629
 30
0.0
 10
0.1677835425454356
 20
31.53835055440403
 30
0.0
 10
0.2904063401473624
 20
31.61027763830711
 30
0.0
 10
0.4146998530426929
 20
31.64772826993201
 30
0.0
 10
0.4936287534976345
 20
31.65127376511478
 30
0.0
 10
0.5330983842099871
 20
31.65304674541413
 30
0.0
  0
LINE
  5
8B
330
1F
100
AcDbEntity
  8
0
  6
Continuous
 62
     7
370
    15
100
AcDbLine
 10
0.0717373139
 20
31.6330158301
 30
0.0
 11
0.0717373139
 21
31.4217384842
 31
0.0
  0
LINE
  5
8C
330
1F
100
AcDbEntity
  8
0
  6
Continuous
 62
     7
370
    15
100
AcDbLine
 10
-0.0684884795
 20
31.6330158301
 30
0.0
 11
0.0717373139
 21
31.6330158301
 31
0.0
  0
LINE
  5
8D
330
1F
100
AcDbEntity
  8
0
  6
Continuous
 62
     7
370
    15
100
AcDbLine
 10
-0.0684884795
 20
30.070515267
 30
0.0
 11
-0.0684884795
 21
31.6330158301
 31
0.0
  0
LINE
  5
8E
330
1F
100
AcDbEntity
  8
0
  6
Continuous
 62
     7
370
    15
100
AcDbLine
 10
0.0717373139
 20
30.070515267
 30
0.0
 11
-0.0684884795
 21
30.070515267
 31
0.0
  0
SPLINE
  5
8F
330
1F
100
AcDbEntity
  8
0
  6
Continuous
 62
     7
370
    15
100
AcDbSpline
210
0.0
220
0.0
230
1.0
 70
     8
 71
     3
 72
    14
 73
    10
 74
     0
 42
0.000000001
 43
0.00000001
 40
0.0
 40
0.0
 40
0.0
 40
0.0
 40
0.1400913274244049
 40
0.280122895726495
 40
0.4201208372878819
 40
0.5601733507081821
 40
0.7068059046836448
 40
0.8533582044619177
 40
1.0
 40
1.0
 40
1.0
 40
1.0
 10
-2.886434166391522
 20
30.47115703870487
 30
0.0
 10
-2.931002231067404
 20
30.47318447016759
 30
0.0
 10
-3.02011934890375
 20
30.47723846824629
 30
0.0
 10
-3.149737970193083
 20
30.5143056116791
 30
0.0
 10
-3.267969214860069
 20
30.5783893678904
 30
0.0
 10
-3.370499594570198
 20
30.66873781808696
 30
0.0
 10
-3.452502390353695
 20
30.78056992662545
 30
0.0
 10
-3.505233352269219
 20
30.91256153591598
 30
0.0
 10
-3.511077640571377
 20
31.0059847667082
 30
0.0
 10
-3.514000676689642
 20
31.05271064054804
 30
0.0
  0
SPLINE
  5
90
330
1F
100
AcDbEntity
  8
0
  6
Continuous
 62
     7
370
    15
100
AcDbSpline
210
0.0
220
0.0
230
1.0
 70
     8
 71
     3
 72
    12
 73
     8
 74
     0
 42
0.000000001
 43
0.00000001
 40
0.0
 40
0.0
 40
0.0
 40
0.0
 40
0.1866250019621732
 40
0.3732553383473682
 40
0.5599477396545411
 40
0.7799103520436422
 40
1.0
 40
1.0
 40
1.0
 40
1.0
 10
-2.352141885248213
 20
30.73470343419443
 30
0.0
 10
-2.375259201117578
 20
30.70357631584806
 30
0.0
 10
-2.421494493633467
 20
30.6413211894288
 30
0.0
 10
-2.51409436044798
 20
30.56949620658046
 30
0.0
 10
-2.623469618363417
 20
30.51279711211411
 30
0.0
 10
-2.749631776423485
 20
30.47706983547958
 30
0.0
 10
-2.840824594466135
 20
30.47312835024292
 30
0.0
 10
-2.886434166391522
 20
30.47115703870487
 30
0.0
  0
LINE
  5
91
330
1F
100
AcDbEntity
  8
0
  6
Continuous
 62
     7
370
    15
100
AcDbLine
 10
-2.4695161027
 20
30.8117013714
 30
0.0
 11
-2.3521418852
 21
30.7347034342
 31
0.0
  0
SPLINE
  5
92
330
1F
100
AcDbEntity
  8
0
  6
Continuous
 62
     7
370
    15
100
AcDbSpline
210
0.0
220
0.0
230
1.0
 70
     8
 71
     3
 72
    11
 73
     7
 74
     0
 42
0.000000001
 43
0.00000001
 40
0.0
 40
0.0
 40
0.0
 40
0.0
 40
0.2799507872256757
 40
0.5597168857503603
 40
0.7798358423620962
 40
1.0
 40
1.0
 40
1.0
 40
1.0
 10
-2.884242405044269
 20
30.61137813885876
 30
0.0
 10
-2.839613965222096
 20
30.61407024674839
 30
0.0
 10
-2.75038652778315
 20
30.61945268649442
 30
0.0
 10
-2.633453766966467
 20
30.66645201064478
 30
0.0
 10
-2.539112590736315
 20
30.7327571375455
 30
0.0
 10
-2.49271651975022
 20
30.78538482578302
 30
0.0
 10
-2.469516102664571
 20
30.81170137137435
 30
0.0
  0
SPLINE
  5
93
330
1F
100
AcDbEntity
  8
0
  6
Continuous
 62
     7
370
    15
100
AcDbSpline
210
0.0
220
0.0
230
1.0
 70
     8
 71
     3
 72
    13
 73
     9
 74
     0
 42
0.000000001
 43
0.00000001
 40
0.0
 40
0.0
 40
0.0
 40
0.0
 40
0.1864649145673176
 40
0.3729889941104576
 40
0.5594748544267505
 40
0.7062854709668142
 40
0.8531164320209663
 40
1.0
 40
1.0
 40
1.0
 40
1.0
 10
-3.373777229896199
 20
31.06523230922999
 30
0.0
 10
-3.369497702918316
 20
31.01889206477837
 30
0.0
 10
-3.360937291076473
 20
30.92619687220045
 30
0.0
 10
-3.294352688204582
 20
30.80107798641555
 30
0.0
 10
-3.203427717204832
 20
30.70754034814824
 30
0.0
 10
-3.098663000746983
 20
30.64932398548468
 30
0.0
 10
-2.993520877101026
 20
30.61653740427815
 30
0.0
 10
-2.920672911639374
 20
30.61309809933542
 30
0.0
 10
-2.884242405044269
 20
30.61137813885876
 30
0.0
  0
SPLINE
  5
94
330
1F
100
AcDbEntity
  8
0
  6
Continuous
 62
     7
370
    15
100
AcDbSpline
210
0.0
220
0.0
230
1.0
 70
     8
 71
     3
 72
    13
 73
     9
 74
     0
 42
0.000000001
 43
0.00000001
 40
0.0
 40
0.0
 40
0.0
 40
0.0
 40
0.1867519304203606
 40
0.373265571452487
 40
0.5598302796815795
 40
0.7065794732970355
 40
0.8532337140647425
 40
1.0
 40
1.0
 40
1.0
 40
1.0
 10
-2.885183407507061
 20
31.51282095198113
 30
0.0
 10
-2.931233842049115
 20
31.51009824331245
 30
0.0
 10
-3.023275952276756
 20
31.50465630006277
 30
0.0
 10
-3.153069374216199
 20
31.45159710825838
 30
0.0
 10
-3.254053554811915
 20
31.37077400965243
 30
0.0
 10
-3.325465073711686
 20
31.27574270194393
 30
0.0
 10
-3.366929933307549
 20
31.17374226389681
 30
0.0
 10
-3.371494216729604
 20
31.10141150082821
 30
0.0
 10
-3.373777229896199
 20
31.06523230922999
 30
0.0
  0
SPLINE
  5
95
330
1F
100
AcDbEntity
  8
0
  6
Continuous
 62
     7
370
    15
100
AcDbSpline
210
0.0
220
0.0
230
1.0
 70
     8
 71
     3
 72
    11
 73
     7
 74
     0
 42
0.000000001
 43
0.00000001
 40
0.0
 40
0.0
 40
0.0
 40
0.0
 40
0.2799085390280203
 40
0.5596112668860137
 40
0.7797754053838568
 40
1.0
 40
1.0
 40
1.0
 40
1.0
 10
-2.469516102664571
 20
31.31250241274465
 30
0.0
 10
-2.498986251486224
 20
31.3463955974847
 30
0.0
 10
-2.557904880316475
 20
31.41415704598156
 30
0.0
 10
-2.668282132530583
 20
31.47645365978512
 30
0.0
 10
-2.779595711473973
 20
31.50822780042768
 30
0.0
 10
-2.849984287871919
 20
31.51128976134901
 30
0.0
 10
-2.885183407507061
 20
31.51282095198113
 30
0.0
  0
LINE
  5
96
330
1F
100
AcDbEntity
  8
0
  6
Continuous
 62
     7
370
    15
100
AcDbLine
 10
-2.3521418852
 20
31.3854312769
 30
0.0
 11
-2.4695161027
 21
31.3125024127
 31
0.0
  0
SPLINE
  5
97
330
1F
100
AcDbEntity
  8
0
  6
Continuous
 62
     7
370
    15
100
AcDbSpline
210
0.0
220
0.0
230
1.0
 70
     8
 71
     3
 72
    19
 73
    15
 74
     0
 42
0.000000001
 43
0.00000001
 40
0.0
 40
0.0
 40
0.0
 40
0.0
 40
0.091268804434327
 40
0.1820814045527786
 40
0.2719096545271985
 40
0.3620494585053495
 40
0.4500663484251113
 40
0.533976473970716
 40
0.613602453741323
 40
0.6901976142648807
 40
0.7654128769004124
 40
0.8414365506928764
 40
0.9197327486057661
 40
0.9999999999999999
 40
0.9999999999999999
 40
0.9999999999999999
 40
0.9999999999999999
 10
-2.874853231734189
 20
31.65304685290337
 30
0.0
 10
-2.856156754928021
 20
31.65263529439279
 30
0.0
 10
-2.818857255080783
 20
31.65181423453419
 30
0.0
 10
-2.763526582465417
 20
31.64490412193545
 30
0.0
 10
-2.709010870920675
 20
31.63448607889504
 30
0.0
 10
-2.656266628289455
 20
31.61905177988999
 30
0.0
 10
-2.605933362915571
 20
31.60036264787155
 30
0.0
 10
-2.558819322650688
 20
31.57937482895244
 30
0.0
 10
-2.516033561994346
 20
31.55500223814155
 30
0.0
 10
-2.476780173985908
 20
31.5283414727855
 30
0.0
 10
-2.440985746596758
 20
31.49826963987356
 30
0.0
 10
-2.408282848125627
 20
31.46442724817428
 30
0.0
 10
-2.378000861871392
 20
31.4269904271593
 30
0.0
 10
-2.360832687119665
 20
31.39939858283543
 30
0.0
 10
-2.352141893593165
 20
31.38543116780721
 30
0.0
  0
SPLINE
  5
98
330
1F
100
AcDbEntity
  8
0
  6
Continuous
 62
     7
370
    15
100
AcDbSpline
210
0.0
220
0.0
230
1.0
 70
     8
 71
     3
 72
    14
 73
    10
 74
     0
 42
0.000000001
 43
0.00000001
 40
0.0
 40
0.0
 40
0.0
 40
0.0
 40
0.139978460807497
 40
0.2799607213087426
 40
0.4199431951277756
 40
0.5599008704793169
 40
0.7065719560724812
 40
0.8532573137128846
 40
1.0
 40
1.0
 40
1.0
 40
1.0
 10
-3.514000676689642
 20
31.05271064054804
 30
0.0
 10
-3.511175824310862
 20
31.09841033031431
 30
0.0
 10
-3.505526042873099
 20
31.18981095035786
 30
0.0
 10
-3.456167215069419
 20
31.31928705457625
 30
0.0
 10
-3.381725024837168
 20
31.43499889058315
 30
0.0
 10
-3.279781254958007
 20
31.53144815147808
 30
0.0
 10
-3.156490184129701
 20
31.60207955386101
 30
0.0
 10
-3.01842815925297
 20
31.64593509773908
 30
0.0
 10
-2.922717953008596
 20
31.65067588744442
 30
0.0
 10
-2.874853500172366
 20
31.65304674541413
 30
0.0
  0
LINE
  5
99
330
1F
100
AcDbEntity
  8
0
  6
Continuous
 62
     7
370
    15
100
AcDbLine
 10
-5.5572690193
 20
31.6330158301
 30
0.0
 11
-5.5572690193
 21
31.8154952155
 31
0.0
  0
LINE
  5
9A
330
1F
100
AcDbEntity
  8
0
  6
Continuous
 62
     7
370
    15
100
AcDbLine
 10
-5.717525728
 20
31.6330158301
 30
0.0
 11
-5.5572690193
 21
31.6330158301
 31
0.0
  0
LINE
  5
9B
330
1F
100
AcDbEntity
  8
0
  6
Continuous
 62
     7
370
    15
100
AcDbLine
 10
-5.717525728
 20
31.4927900367
 30
0.0
 11
-5.717525728
 21
31.6330158301
 31
0.0
  0
LINE
  5
9C
330
1F
100
AcDbEntity
  8
0
  6
Continuous
 62
     7
370
    15
100
AcDbLine
 10
-5.5572690193
 20
31.4927900367
 30
0.0
 11
-5.717525728
 21
31.4927900367
 31
0.0
  0
LINE
  5
9D
330
1F
100
AcDbEntity
  8
0
  6
Continuous
 62
     7
370
    15
100
AcDbLine
 10
-5.5572690193
 20
30.491187954
 30
0.0
 11
-5.5572690193
 21
31.4927900367
 31
0.0
  0
LINE
  5
9E
330
1F
100
AcDbEntity
  8
0
  6
Continuous
 62
     7
370
    15
100
AcDbLine
 10
-5.4170455726
 20
30.491187954
 30
0.0
 11
-5.5572690193
 21
30.491187954
 31
0.0
  0
LINE
  5
9F
330
1F
100
AcDbEntity
  8
0
  6
Continuous
 62
     7
370
    15
100
AcDbLine
 10
-5.4164190198
 20
31.4927900367
 30
0.0
 11
-5.4170455726
 21
30.491187954
 31
0.0
  0
LINE
  5
A0
330
1F
100
AcDbEntity
  8
0
  6
Continuous
 62
     7
370
    15
100
AcDbLine
 10
-5.1766605095
 20
31.4927900367
 30
0.0
 11
-5.4164190198
 21
31.4927900367
 31
0.0
  0
LINE
  5
A1
330
1F
100
AcDbEntity
  8
0
  6
Continuous
 62
     7
370
    15
100
AcDbLine
 10
-5.1766605095
 20
31.6330158301
 30
0.0
 11
-5.1766605095
 21
31.4927900367
 31
0.0
  0
LINE
  5
A2
330
1F
100
AcDbEntity
  8
0
  6
Continuous
 62
     7
370
    15
100
AcDbLine
 10
-5.4161069167
 20
31.6330158301
 30
0.0
 11
-5.1766605095
 21
31.6330158301
 31
0.0
  0
LINE
  5
A3
330
1F
100
AcDbEntity
  8
0
  6
Continuous
 62
     7
370
    15
100
AcDbLine
 10
-5.4161069167
 20
31.7913952272
 30
0.0
 11
-5.4161069167
 21
31.6330158301
 31
0.0
  0
SPLINE
  5
A4
330
1F
100
AcDbEntity
  8
0
  6
Continuous
 62
     7
370
    15
100
AcDbSpline
210
0.0
220
0.0
230
1.0
 70
     8
 71
     3
 72
    12
 73
     8
 74
     0
 42
0.000000001
 43
0.00000001
 40
0.0
 40
0.0
 40
0.0
 40
0.0
 40
0.2493057065772311
 40
0.3745187614202357
 40
0.4988656501515286
 40
0.7489795429458342
 40
1.0
 40
1.0
 40
1.0
 40
1.0
 10
-5.298730352673462
 20
31.97356016281578
 30
0.0
 10
-5.320308098821328
 20
31.97172241167535
 30
0.0
 10
-5.352723204245471
 20
31.96896165545214
 30
0.0
 10
-5.389005318966377
 20
31.94543009845222
 30
0.0
 10
-5.416373687859371
 20
31.91090068378777
 30
0.0
 10
-5.414546769820169
 20
31.85460349942125
 30
0.0
 10
-5.415586240950097
 20
31.81249004602892
 30
0.0
 10
-5.416106916729378
 20
31.79139522720066
 30
0.0
  0
SPLINE
  5
A5
330
1F
100
AcDbEntity
  8
0
  6
Continuous
 62
     7
370
    15
100
AcDbSpline
210
0.0
220
0.0
230
1.0
 70
     8
 71
     3
 72
     9
 73
     5
 74
     0
 42
0.000000001
 43
0.00000001
 40
0.0
 40
0.0
 40
0.0
 40
0.0
 40
0.5602431802213081
 40
1.0
 40
1.0
 40
1.0
 40
1.0
 10
-5.156629594233549
 20
31.93850136781797
 30
0.0
 10
-5.182284946587568
 20
31.94881307733912
 30
0.0
 10
-5.2280781900571
 20
31.96721885162639
 30
0.0
 10
-5.277150478964345
 20
31.97162328375151
 30
0.0
 10
-5.298730352673462
 20
31.97356016281578
 30
0.0
  0
LINE
  5
A6
330
1F
100
AcDbEntity
  8
0
  6
Continuous
 62
     7
370
    15
100
AcDbLine
 10
-5.1566295942
 20
32.0843637895
 30
0.0
 11
-5.1566295942
 21
31.9385013678
 31
0.0
  0
SPLINE
  5
A7
330
1F
100
AcDbEntity
  8
0
  6
Continuous
 62
     7
370
    15
100
AcDbSpline
210
0.0
220
0.0
230
1.0
 70
     8
 71
     3
 72
     9
 73
     5
 74
     0
 42
0.000000001
 43
0.00000001
 40
0.0
 40
0.0
 40
0.0
 40
0.0
 40
0.5597261384352569
 40
1.0
 40
1.0
 40
1.0
 40
1.0
 10
-5.327528313330296
 20
32.11378595624878
 30
0.0
 10
-5.295068579375675
 20
32.11147441755236
 30
0.0
 10
-5.2370764083376
 20
32.10734465026494
 30
0.0
 10
-5.181221187847339
 20
32.09138875367561
 30
0.0
 10
-5.156629594233549
 20
32.0843637894695
 30
0.0
  0
SPLINE
  5
A8
330
1F
100
AcDbEntity
  8
0
  6
Continuous
 62
     7
370
    15
100
AcDbSpline
210
0.0
220
0.0
230
1.0
 70
     8
 71
     3
 72
    12
 73
     8
 74
     0
 42
0.000000001
 43
0.00000001
 40
0.0
 40
0.0
 40
0.0
 40
0.0
 40
0.1874889673098214
 40
0.3747373012553915
 40
0.5607135279991192
 40
0.7799333776269498
 40
1.0
 40
1.0
 40
1.0
 40
1.0
 10
-5.557269019346056
 20
31.81549521546221
 30
0.0
 10
-5.556724175548073
 20
31.84252015737318
 30
0.0
 10
-5.555635187233781
 20
31.89653535593985
 30
0.0
 10
-5.54634060838131
 20
31.97787180810473
 30
0.0
 10
-5.503474681271838
 20
32.05507968718813
 30
0.0
 10
-5.423425480200566
 20
32.10636887106518
 30
0.0
 10
-5.35953508752815
 20
32.11131041939586
 30
0.0
 10
-5.327528313330296
 20
32.11378595624878
 30
0.0
  0
LINE
  5
A9
330
1F
100
AcDbEntity
  8
0
  6
Continuous
 62
     7
370
    15
100
AcDbLine
 10
-6.5588734487
 20
31.0320555192
 30
0.0
 11
-7.5805064467
 21
31.0320555192
 31
0.0
  0
SPLINE
  5
AA
330
1F
100
AcDbEntity
  8
0
  6
Continuous
 62
     7
370
    15
100
AcDbSpline
210
0.0
220
0.0
230
1.0
 70
     8
 71
     3
 72
    11
 73
     7
 74
     0
 42
0.000000001
 43
0.00000001
 40
0.0
 40
0.0
 40
0.0
 40
0.0
 40
0.2798447420498993
 40
0.55974433096525
 40
0.7798462568326578
 40
1.0
 40
1.0
 40
1.0
 40
1.0
 10
-6.683135053245558
 20
31.42831376821533
 30
0.0
 10
-6.660975321298861
 20
31.39554602470065
 30
0.0
 10
-6.616651514312124
 20
31.33000411551016
 30
0.0
 10
-6.581262075695911
 20
31.22491741893048
 30
0.0
 10
-6.562189093513322
 20
31.12510665555432
 30
0.0
 10
-6.559978750373062
 20
31.06307499829478
 30
0.0
 10
-6.558873448726222
 20
31.03205551915777
 30
0.0
  0
SPLINE
  5
AB
330
1F
100
AcDbEntity
  8
0
  6
Continuous
 62
     7
370
    15
100
AcDbSpline
210
0.0
220
0.0
230
1.0
 70
     8
 71
     3
 72
    11
 73
     7
 74
     0
 42
0.000000001
 43
0.00000001
 40
0.0
 40
0.0
 40
0.0
 40
0.0
 40
0.2799860067329283
 40
0.559732812996699
 40
0.7798367718501324
 40
1.0
 40
1.0
 40
1.0
 40
1.0
 10
-7.142933261617419
 20
31.65304674541413
 30
0.0
 10
-7.093241635159353
 20
31.65013016506657
 30
0.0
 10
-6.993900835294724
 20
31.64429949609379
 30
0.0
 10
-6.863387848174512
 20
31.59259447171263
 30
0.0
 10
-6.758842510038585
 20
31.51779376962867
 30
0.0
 10
-6.708373136925742
 20
31.45814311210079
 30
0.0
 10
-6.683135053245558
 20
31.42831376821533
 30
0.0
  0
SPLINE
  5
AC
330
1F
100
AcDbEntity
  8
0
  6
Continuous
 62
     7
370
    15
100
AcDbSpline
210
0.0
220
0.0
230
1.0
 70
     8
 71
     3
 72
    15
 73
    11
 74
     0
 42
0.000000001
 43
0.00000001
 40
0.0
 40
0.0
 40
0.0
 40
0.0
 40
0.1288352544875517
 40
0.2535893349864814
 40
0.3746432573141691
 40
0.4953400422377913
 40
0.6163247746357896
 40
0.7397593354405175
 40
0.8668423203805462
 40
0.9999978448293371
 40
0.9999978448293371
 40
0.9999978448293371
 40
0.9999978448293371
 10
-7.589271300644444
 20
31.44020630803157
 30
0.0
 10
-7.575116085119523
 20
31.4571120536066
 30
0.0
 10
-7.547254055383689
 20
31.49038801362912
 30
0.0
 10
-7.50013068245785
 20
31.53411048049592
 30
0.0
 10
-7.449103809090729
 20
31.57073716584284
 30
0.0
 10
-7.394812904581712
 20
31.60109749447595
 30
0.0
 10
-7.336626978661822
 20
31.62416608688346
 30
0.0
 10
-7.275328188020029
 20
31.64135697180857
 30
0.0
 10
-7.210218917043901
 20
31.65098995833796
 30
0.0
 10
-7.165708029244681
 20
31.65235062992173
 30
0.0
 10
-7.14293326386986
 20
31.65304681909915
 30
0.0
  0
SPLINE
  5
AD
330
1F
100
AcDbEntity
  8
0
  6
Continuous
 62
     7
370
    15
100
AcDbSpline
210
0.0
220
0.0
230
1.0
 70
     8
 71
     3
 72
    11
 73
     7
 74
     0
 42
0.000000001
 43
0.00000001
 40
0.0
 40
0.0
 40
0.0
 40
0.0
 40
0.2799706440012245
 40
0.5598656268168408
 40
0.7799148461914517
 40
1.0
 40
1.0
 40
1.0
 40
1.0
 10
-7.720732240167651
 20
31.05897147488902
 30
0.0
 10
-7.718932911807834
 20
31.09737252159257
 30
0.0
 10
-7.715334741351038
 20
31.17416423723762
 30
0.0
 10
-7.684874535887535
 20
31.27746722620957
 30
0.0
 10
-7.64248206218815
 20
31.36692913403656
 30
0.0
 10
-7.60700908310685
 20
31.41577940689495
 30
0.0
 10
-7.589271145484097
 20
31.4402065374957
 30
0.0
  0
SPLINE
  5
AE
330
1F
100
AcDbEntity
  8
0
  6
Continuous
 62
     7
370
    15
100
AcDbSpline
210
0.0
220
0.0
230
1.0
 70
     8
 71
     3
 72
    14
 73
    10
 74
     0
 42
0.000000001
 43
0.00000001
 40
0.0
 40
0.0
 40
0.0
 40
0.0
 40
0.1400846043362683
 40
0.2800557951842359
 40
0.4199731343576413
 40
0.55994975272213
 40
0.7066277146951947
 40
0.8532984963383563
 40
1.0
 40
1.0
 40
1.0
 40
1.0
 10
-7.146375781849132
 20
30.47115703870487
 30
0.0
 10
-7.189305608335981
 20
30.47311386483799
 30
0.0
 10
-7.275130505017953
 20
30.4770259328439
 30
0.0
 10
-7.39934008166006
 20
30.51561194838553
 30
0.0
 10
-7.509719231562425
 20
30.58427892780666
 30
0.0
 10
-7.598261601254365
 20
30.6818391598147
 30
0.0
 10
-7.667445980280672
 20
30.79553470342659
 30
0.0
 10
-7.713176475032824
 20
30.92401143607719
 30
0.0
 10
-7.718213475964048
 20
31.01398165471721
 30
0.0
 10
-7.720732240167647
 20
31.05897147488901
 30
0.0
  0
SPLINE
  5
AF
330
1F
100
AcDbEntity
  8
0
  6
Continuous
 62
     7
370
    15
100
AcDbSpline
210
0.0
220
0.0
230
1.0
 70
     8
 71
     3
 72
    12
 73
     8
 74
     0
 42
0.000000001
 43
0.00000001
 40
0.0
 40
0.0
 40
0.0
 40
0.0
 40
0.1868317287677254
 40
0.3734604364531131
 40
0.5601305404121806
 40
0.7799356526497698
 40
1.0
 40
1.0
 40
1.0
 40
1.0
 10
-6.618968541169248
 20
30.78634827758879
 30
0.0
 10
-6.639494923160295
 20
30.75148819681155
 30
0.0
 10
-6.680525382107176
 20
30.68180591603558
 30
0.0
 10
-6.765670440374202
 20
30.59394376502576
 30
0.0
 10
-6.873876326045542
 20
30.52389237079865
 30
0.0
 10
-7.003400921462769
 20
30.47787420968646
 30
0.0
 10
-7.098698773931626
 20
30.47339697524481
 30
0.0
 10
-7.146375781849132
 20
30.47115703870487
 30
0.0
  0
LINE
  5
B0
330
1F
100
AcDbEntity
  8
0
  6
Continuous
 62
     7
370
    15
100
AcDbLine
 10
-6.7435422487
 20
30.8517632019
 30
0.0
 11
-6.6189685412
 21
30.7863482776
 31
0.0
  0
SPLINE
  5
B1
330
1F
100
AcDbEntity
  8
0
  6
Continuous
 62
     7
370
    15
100
AcDbSpline
210
0.0
220
0.0
230
1.0
 70
     8
 71
     3
 72
    11
 73
     7
 74
     0
 42
0.000000001
 43
0.00000001
 40
0.0
 40
0.0
 40
0.0
 40
0.0
 40
0.2799014687167493
 40
0.5596981652293156
 40
0.7795383416171651
 40
1.0
 40
1.0
 40
1.0
 40
1.0
 10
-7.163902832708477
 20
30.61137813885876
 30
0.0
 10
-7.116587132979515
 20
30.61532020376192
 30
0.0
 10
-7.021973444647503
 20
30.62320285798172
 30
0.0
 10
-6.898241011936511
 20
30.67697295796538
 30
0.0
 10
-6.80699968508796
 20
30.75965485212695
 30
0.0
 10
-6.76471462252166
 20
30.82103154110477
 30
0.0
 10
-6.743542248749819
 20
30.85176320191001
 30
0.0
  0
SPLINE
  5
B2
330
1F
100
AcDbEntity
  8
0
  6
Continuous
 62
     7
370
    15
100
AcDbSpline
210
0.0
220
0.0
230
1.0
 70
     8
 71
     3
 72
    13
 73
     9
 74
     0
 42
0.000000001
 43
0.00000001
 40
0.0
 40
0.0
 40
0.0
 40
0.0
 40
0.1867239064448748
 40
0.3732504530917176
 40
0.5597741256939401
 40
0.7064872232238701
 40
0.8531850855941894
 40
1.0
 40
1.0
 40
1.0
 40
1.0
 10
-7.58050644673465
 20
31.03205551915777
 30
0.0
 10
-7.577180629493813
 20
30.99095638043737
 30
0.0
 10
-7.570532510269659
 20
30.90880154316377
 30
0.0
 10
-7.518822157899954
 20
30.79436826360104
 30
0.0
 10
-7.441766260559376
 20
30.70813137339308
 30
0.0
 10
-7.353463253246395
 20
30.64900075068238
 30
0.0
 10
-7.260773685791416
 20
30.61687455777426
 30
0.0
 10
-7.196201700775612
 20
30.6132107655338
 30
0.0
 10
-7.163902832708477
 20
30.61137813885876
 30
0.0
  0
LINE
  5
B3
330
1F
100
AcDbEntity
  8
0
  6
Continuous
 62
     7
370
    15
100
AcDbLine
 10
-9.5837129589
 20
30.9040369447
 30
0.0
 11
-9.5837129589
 21
30.491187954
 31
0.0
  0
SPLINE
  5
B4
330
1F
100
AcDbEntity
  8
0
  6
Continuous
 62
     7
370
    15
100
AcDbSpline
210
0.0
220
0.0
230
1.0
 70
     8
 71
     3
 72
    10
 73
     6
 74
     0
 42
0.000000001
 43
0.00000001
 40
0.0
 40
0.0
 40
0.0
 40
0.0
 40
0.2798744871408607
 40
0.5599234877568399
 40
1.0
 40
1.0
 40
1.0
 40
1.0
 10
-9.562114488362784
 20
31.21046583147995
 30
0.0
 10
-9.567208147648465
 20
31.18218559646198
 30
0.0
 10
-9.57739864232991
 20
31.12560749251401
 30
0.0
 10
-9.582349043310103
 20
31.02298669286933
 30
0.0
 10
-9.583195611718285
 20
30.94915580260427
 30
0.0
 10
-9.58371295885541
 20
30.90403694470593
 30
0.0
  0
SPLINE
  5
B5
330
1F
100
AcDbEntity
  8
0
  6
Continuous
 62
     7
370
    15
100
AcDbSpline
210
0.0
220
0.0
230
1.0
 70
     8
 71
     3
 72
    12
 73
     8
 74
     0
 42
0.000000001
 43
0.00000001
 40
0.0
 40
0.0
 40
0.0
 40
0.0
 40
0.1867065151387052
 40
0.3734039622172327
 40
0.5602150182883924
 40
0.7801268993381909
 40
0.9999999999999999
 40
0.9999999999999999
 40
0.9999999999999999
 40
0.9999999999999999
 10
-9.173679935591885
 20
31.51282095198113
 30
0.0
 10
-9.20659662935617
 20
31.51062737214502
 30
0.0
 10
-9.272428418169449
 20
31.50624031901174
 30
0.0
 10
-9.365034689962556
 20
31.4677252930803
 30
0.0
 10
-9.448951528743956
 20
31.40519759509363
 30
0.0
 10
-9.52292704255677
 20
31.32053753876063
 30
0.0
 10
-9.54905277435272
 20
31.2471542435856
 30
0.0
 10
-9.562114488362784
 20
31.21046583147995
 30
0.0
  0
SPLINE
  5
B6
330
1F
100
AcDbEntity
  8
0
  6
Continuous
 62
     7
370
    15
100
AcDbSpline
210
0.0
220
0.0
230
1.0
 70
     8
 71
     3
 72
    12
 73
     8
 74
     0
 42
0.000000001
 43
0.00000001
 40
0.0
 40
0.0
 40
0.0
 40
0.0
 40
0.1868229335928148
 40
0.3735395039929928
 40
0.5600864723508796
 40
0.7798960472275119
 40
1.0
 40
1.0
 40
1.0
 40
1.0
 10
-8.879148511377364
 20
31.28808797478232
 30
0.0
 10
-8.885981764393108
 20
31.31245039742631
 30
0.0
 10
-8.899644380074541
 20
31.3611613725485
 30
0.0
 10
-8.941232398119483
 20
31.42587857647121
 30
0.0
 10
-9.003539812270521
 20
31.47791807889708
 30
0.0
 10
-9.084407633185704
 20
31.5084995081894
 30
0.0
 10
-9.143909229185518
 20
31.51137982824053
 30
0.0
 10
-9.173679935591885
 20
31.51282095198113
 30
0.0
  0
SPLINE
  5
B7
330
1F
100
AcDbEntity
  8
0
  6
Continuous
 62
     7
370
    15
100
AcDbSpline
210
0.0
220
0.0
230
1.0
 70
     8
 71
     3
 72
     9
 73
     5
 74
     0
 42
0.000000001
 43
0.00000001
 40
0.0
 40
0.0
 40
0.0
 40
0.0
 40
0.5602557914095225
 40
0.9999999999999999
 40
0.9999999999999999
 40
0.9999999999999999
 40
0.9999999999999999
 10
-8.862557769701693
 20
31.02829620258571
 30
0.0
 10
-8.862256378427219
 20
31.07704996894391
 30
0.0
 10
-8.861718425443783
 20
31.16407051760359
 30
0.0
 10
-8.873824802277664
 20
31.25020905279531
 30
0.0
 10
-8.879148511377364
 20
31.28808797478232
 30
0.0
  0
LINE
  5
B8
330
1F
100
AcDbEntity
  8
0
  6
Continuous
 62
     7
370
    15
100
AcDbLine
 10
-8.8625577697
 20
30.491187954
 30
0.0
 11
-8.8625577697
 21
31.0282962026
 31
0.0
  0
LINE
  5
B9
330
1F
100
AcDbEntity
  8
0
  6
Continuous
 62
     7
370
    15
100
AcDbLine
 10
-8.7223319763
 20
30.491187954
 30
0.0
 11
-8.8625577697
 21
30.491187954
 31
0.0
  0
LINE
  5
BA
330
1F
100
AcDbEntity
  8
0
  6
Continuous
 62
     7
370
    15
100
AcDbLine
 10
-8.7223319763
 20
31.074309111
 30
0.0
 11
-8.7223319763
 21
30.491187954
 31
0.0
  0
SPLINE
  5
BB
330
1F
100
AcDbEntity
  8
0
  6
Continuous
 62
     7
370
    15
100
AcDbSpline
210
0.0
220
0.0
230
1.0
 70
     8
 71
     3
 72
    14
 73
    10
 74
     0
 42
0.000000001
 43
0.00000001
 40
0.0
 40
0.0
 40
0.0
 40
0.0
 40
0.1400145357511844
 40
0.2799235667770449
 40
0.4198459320840035
 40
0.5597124006401936
 40
0.7062438830659831
 40
0.8530947893080286
 40
1.0
 40
1.0
 40
1.0
 40
1.0
 10
-9.149265497629555
 20
31.65304674541413
 30
0.0
 10
-9.110879194878953
 20
31.65072118018711
 30
0.0
 10
-9.034135514491183
 20
31.64607180210913
 30
0.0
 10
-8.926992749134321
 20
31.5995543144165
 30
0.0
 10
-8.836419175336362
 20
31.52741024132159
 30
0.0
 10
-8.770034488233803
 20
31.42926562636476
 30
0.0
 10
-8.737366109086873
 20
31.31426238642384
 30
0.0
 10
-8.724511180503429
 20
31.19459367948771
 30
0.0
 10
-8.723058467197612
 20
31.11440890823846
 30
0.0
 10
-8.722331976268693
 20
31.07430911104067
 30
0.0
  0
SPLINE
  5
BC
330
1F
100
AcDbEntity
  8
0
  6
Continuous
 62
     7
370
    15
100
AcDbSpline
210
0.0
220
0.0
230
1.0
 70
     8
 71
     3
 72
    11
 73
     7
 74
     0
 42
0.000000001
 43
0.00000001
 40
0.0
 40
0.0
 40
0.0
 40
0.0
 40
0.2801020971192381
 40
0.5597759144011719
 40
0.7798666520865105
 40
0.9999999999999999
 40
0.9999999999999999
 40
0.9999999999999999
 40
0.9999999999999999
 10
-9.58371295885541
 20
31.42706066269131
 30
0.0
 10
-9.55321463038597
 20
31.46373115853818
 30
0.0
 10
-9.492264605797546
 20
31.53701608055535
 30
0.0
 10
-9.378413098592851
 20
31.60839880360888
 30
0.0
 10
-9.261416159039504
 20
31.64702984626993
 30
0.0
 10
-9.186651463644314
 20
31.65104098295057
 30
0.0
 10
-9.149265497629555
 20
31.65304674541413
 30
0.0
  0
LINE
  5
BD
330
1F
100
AcDbEntity
  8
0
  6
Continuous
 62
     7
370
    15
100
AcDbLine
 10
-9.5837129589
 20
31.6330158301
 30
0.0
 11
-9.5837129589
 21
31.4270606627
 31
0.0
  0
LINE
  5
BE
330
1F
100
AcDbEntity
  8
0
  6
Continuous
 62
     7
370
    15
100
AcDbLine
 10
-9.7239387523
 20
31.6330158301
 30
0.0
 11
-9.5837129589
 21
31.6330158301
 31
0.0
  0
LINE
  5
BF
330
1F
100
AcDbEntity
  8
0
  6
Continuous
 62
     7
370
    15
100
AcDbLine
 10
-9.7239387523
 20
30.491187954
 30
0.0
 11
-9.7239387523
 21
31.6330158301
 31
0.0
  0
LINE
  5
C0
330
1F
100
AcDbEntity
  8
0
  6
Continuous
 62
     7
370
    15
100
AcDbLine
 10
-9.5837129589
 20
30.491187954
 30
0.0
 11
-9.7239387523
 21
30.491187954
 31
0.0
  0
SPLINE
  5
C1
330
1F
100
AcDbEntity
  8
0
  6
Continuous
 62
     7
370
    15
100
AcDbSpline
210
0.0
220
0.0
230
1.0
 70
     8
 71
     3
 72
    12
 73
     8
 74
     0
 42
0.000000001
 43
0.00000001
 40
0.0
 40
0.0
 40
0.0
 40
0.0
 40
0.2801568838792418
 40
0.5602290951228827
 40
0.7068676560574947
 40
0.8534624554545827
 40
1.0
 40
1.0
 40
1.0
 40
1.0
 10
-11.56187848025184
 20
31.13784672371541
 30
0.0
 10
-11.52486007236456
 20
31.17698444641027
 30
0.0
 10
-11.45083444477184
 20
31.25524806309141
 30
0.0
 10
-11.36182794879
 20
31.35853641581856
 30
0.0
 10
-11.30241458804558
 20
31.4517664999857
 30
0.0
 10
-11.27178840461255
 20
31.53193338353493
 30
0.0
 10
-11.26819837242481
 20
31.58847450117853
 30
0.0
 10
-11.26640370693497
 20
31.61673953817142
 30
0.0
  0
LINE
  5
C2
330
1F
100
AcDbEntity
  8
0
  6
Continuous
 62
     7
370
    15
100
AcDbLine
 10
-12.1678465201
 20
30.491187954
 30
0.0
 11
-11.5618784803
 21
31.1378467237
 31
0.0
  0
LINE
  5
C3
330
1F
100
AcDbEntity
  8
0
  6
Continuous
 62
     7
370
    15
100
AcDbLine
 10
-11.1061469982
 20
30.491187954
 30
0.0
 11
-12.1678465201
 21
30.491187954
 31
0.0
  0
LINE
  5
C4
330
1F
100
AcDbEntity
  8
0
  6
Continuous
 62
     7
370
    15
100
AcDbLine
 10
-11.1061469982
 20
30.6514446627
 30
0.0
 11
-11.1061469982
 21
30.491187954
 31
0.0
  0
LINE
  5
C5
330
1F
100
AcDbEntity
  8
0
  6
Continuous
 62
     7
370
    15
100
AcDbLine
 10
-11.833248572
 20
30.6514446627
 30
0.0
 11
-11.1061469982
 21
30.6514446627
 31
0.0
  0
LINE
  5
C6
330
1F
100
AcDbEntity
  8
0
  6
Continuous
 62
     7
370
    15
100
AcDbLine
 10
-11.4423125015
 20
31.0686724828
 30
0.0
 11
-11.833248572
 21
30.6514446627
 31
0.0
  0
SPLINE
  5
C7
330
1F
100
AcDbEntity
  8
0
  6
Continuous
 62
     7
370
    15
100
AcDbSpline
210
0.0
220
0.0
230
1.0
 70
     8
 71
     3
 72
    12
 73
     8
 74
     0
 42
0.000000001
 43
0.00000001
 40
0.0
 40
0.0
 40
0.0
 40
0.0
 40
0.1864769015969881
 40
0.3729604919617265
 40
0.5596575719378993
 40
0.7798138250510307
 40
1.0
 40
1.0
 40
1.0
 40
1.0
 10
-11.12618260678108
 20
31.62925651357425
 30
0.0
 10
-11.12897572670093
 20
31.58809654904515
 30
0.0
 10
-11.13456206672746
 20
31.50577514361404
 30
0.0
 10
-11.1814160856833
 20
31.38968079678232
 30
0.0
 10
-11.25544911561389
 20
31.28175391751138
 30
0.0
 10
-11.34332738574583
 20
31.17517882385683
 30
0.0
 10
-11.40931596823768
 20
31.10417620474021
 30
0.0
 10
-11.44231250148823
 20
31.06867248282214
 30
0.0
  0
SPLINE
  5
C8
330
1F
100
AcDbEntity
  8
0
  6
Continuous
 62
     7
370
    15
100
AcDbSpline
210
0.0
220
0.0
230
1.0
 70
     8
 71
     3
 72
    13
 73
     9
 74
     0
 42
0.000000001
 43
0.00000001
 40
0.0
 40
0.0
 40
0.0
 40
0.0
 40
0.1867369146842104
 40
0.3731208170163964
 40
0.5596157082045636
 40
0.706438597605646
 40
0.8531755755159409
 40
1.0
 40
1.0
 40
1.0
 40
1.0
 10
-11.59818568749455
 20
32.09375034770184
 30
0.0
 10
-11.55207878370426
 20
32.09092591312552
 30
0.0
 10
-11.45995213782165
 20
32.08528238335791
 30
0.0
 10
-11.33142006596417
 20
32.02762100496602
 30
0.0
 10
-11.23591889431677
 20
31.94005789507909
 30
0.0
 10
-11.17056363421763
 20
31.84087695656516
 30
0.0
 10
-11.13256864915464
 20
31.73780835565331
 30
0.0
 10
-11.12831171026036
 20
31.66544764591136
 30
0.0
 10
-11.12618260678108
 20
31.62925651357425
 30
0.0
  0
SPLINE
  5
C9
330
1F
100
AcDbEntity
  8
0
  6
Continuous
 62
     7
370
    15
100
AcDbSpline
210
0.0
220
0.0
230
1.0
 70
     8
 71
     3
 72
    13
 73
     9
 74
     0
 42
0.000000001
 43
0.00000001
 40
0.0
 40
0.0
 40
0.0
 40
0.0
 40
0.1867424492778693
 40
0.3732725218613699
 40
0.5598238300298589
 40
0.7065450565946753
 40
0.8532303706491294
 40
1.0
 40
1.0
 40
1.0
 40
1.0
 10
-12.10774908097474
 20
31.57291839106372
 30
0.0
 10
-12.1033919317443
 20
31.62341237628284
 30
0.0
 10
-12.09468258854106
 20
31.72434292139704
 30
0.0
 10
-12.03184614090873
 20
31.86504694276818
 30
0.0
 10
-11.93889820286226
 20
31.97272770952392
 30
0.0
 10
-11.83063393260697
 20
32.04580050216151
 30
0.0
 10
-11.71734437142149
 20
32.08718073677233
 30
0.0
 10
-11.63791285620846
 20
32.0915600579707
 30
0.0
 10
-11.59818568749455
 20
32.09375034770184
 30
0.0
  0
LINE
  5
CA
330
1F
100
AcDbEntity
  8
0
  6
Continuous
 62
     7
370
    15
100
AcDbLine
 10
-11.9675279808
 20
31.5729183911
 30
0.0
 11
-12.107749081
 21
31.5729183911
 31
0.0
  0
SPLINE
  5
CB
330
1F
100
AcDbEntity
  8
0
  6
Continuous
 62
     7
370
    15
100
AcDbSpline
210
0.0
220
0.0
230
1.0
 70
     8
 71
     3
 72
    12
 73
     8
 74
     0
 42
0.000000001
 43
0.00000001
 40
0.0
 40
0.0
 40
0.0
 40
0.0
 40
0.1867929290874066
 40
0.3733475849320946
 40
0.5599818570077336
 40
0.7797432988789066
 40
1.0
 40
1.0
 40
1.0
 40
1.0
 10
-11.60538517765876
 20
31.93349363900101
 30
0.0
 10
-11.64083213576977
 20
31.93113078306095
 30
0.0
 10
-11.71168083581747
 20
31.9264080852422
 30
0.0
 10
-11.81018144249082
 20
31.88137041839848
 30
0.0
 10
-11.89400774672001
 20
31.80472254419264
 30
0.0
 10
-11.95099084972934
 20
31.69725981060242
 30
0.0
 10
-11.96201146906412
 20
31.6143966195991
 30
0.0
 10
-11.96752798082086
 20
31.57291839106372
 30
0.0
  0
SPLINE
  5
CC
330
1F
100
AcDbEntity
  8
0
  6
Continuous
 62
     7
370
    15
100
AcDbSpline
210
0.0
220
0.0
230
1.0
 70
     8
 71
     3
 72
    12
 73
     8
 74
     0
 42
0.000000001
 43
0.00000001
 40
0.0
 40
0.0
 40
0.0
 40
0.0
 40
0.1866961872676152
 40
0.3732945808555313
 40
0.5601454298568841
 40
0.7799308163534577
 40
1.0
 40
1.0
 40
1.0
 40
1.0
 10
-11.26640370693497
 20
31.61673953817142
 30
0.0
 10
-11.26904733254699
 20
31.64893302228466
 30
0.0
 10
-11.27433319900856
 20
31.71330312718191
 30
0.0
 10
-11.32261581089442
 20
31.79929412029506
 30
0.0
 10
-11.39460881885451
 20
31.87173797189444
 30
0.0
 10
-11.49162456219611
 20
31.92484591489375
 30
0.0
 10
-11.56744866509617
 20
31.93060982466072
 30
0.0
 10
-11.60538517765876
 20
31.93349363900101
 30
0.0
  0
LINE
  5
CD
330
1F
100
AcDbEntity
  8
0
  6
Continuous
 62
     7
370
    15
100
AcDbLine
 10
-13.9306656225
 20
31.2123431431
 30
0.0
 11
-13.9306656225
 21
30.491187954
 31
0.0
  0
LINE
  5
CE
330
1F
100
AcDbEntity
  8
0
  6
Continuous
 62
     7
370
    15
100
AcDbLine
 10
-13.8167362719
 20
31.2123431431
 30
0.0
 11
-13.9306656225
 21
31.2123431431
 31
0.0
  0
LINE
  5
CF
330
1F
100
AcDbEntity
  8
0
  6
Continuous
 62
     7
370
    15
100
AcDbLine
 10
-13.2426919167
 20
30.491187954
 30
0.0
 11
-13.8167362719
 21
31.2123431431
 31
0.0
  0
LINE
  5
D0
330
1F
100
AcDbEntity
  8
0
  6
Continuous
 62
     7
370
    15
100
AcDbLine
 10
-13.0692893332
 20
30.491187954
 30
0.0
 11
-13.2426919167
 21
30.491187954
 31
0.0
  0
LINE
  5
D1
330
1F
100
AcDbEntity
  8
0
  6
Continuous
 62
     7
370
    15
100
AcDbLine
 10
-13.6433336884
 20
31.2123431431
 30
0.0
 11
-13.0692893332
 21
30.491187954
 31
0.0
  0
SPLINE
  5
D2
330
1F
100
AcDbEntity
  8
0
  6
Continuous
 62
     7
370
    15
100
AcDbSpline
210
0.0
220
0.0
230
1.0
 70
     8
 71
     3
 72
    14
 73
    10
 74
     0
 42
0.000000001
 43
0.00000001
 40
0.0
 40
0.0
 40
0.0
 40
0.0
 40
0.1399931803757844
 40
0.279915862414072
 40
0.4197692164089497
 40
0.5597038417148089
 40
0.7063032798149732
 40
0.8531216141931787
 40
1.0
 40
1.0
 40
1.0
 40
1.0
 10
-13.08932024844752
 20
31.63583179761601
 30
0.0
 10
-13.09148516243802
 20
31.59879205106181
 30
0.0
 10
-13.09581390020279
 20
31.52473121058027
 30
0.0
 10
-13.13866484751735
 20
31.42048410726322
 30
0.0
 10
-13.20815570456654
 20
31.33251987439385
 30
0.0
 10
-13.30278430834446
 20
31.26875494325284
 30
0.0
 10
-13.41194130808118
 20
31.23201080142753
 30
0.0
 10
-13.52718284295362
 20
31.21514457597038
 30
0.0
 10
-13.60461146273092
 20
31.21327708135505
 30
0.0
 10
-13.64333368843699
 20
31.21234314312641
 30
0.0
  0
SPLINE
  5
D3
330
1F
100
AcDbEntity
  8
0
  6
Continuous
 62
     7
370
    15
100
AcDbSpline
210
0.0
220
0.0
230
1.0
 70
     8
 71
     3
 72
    12
 73
     8
 74
     0
 42
0.000000001
 43
0.00000001
 40
0.0
 40
0.0
 40
0.0
 40
0.0
 40
0.1868210729514746
 40
0.3735308384320426
 40
0.5602896663634476
 40
0.7800193592691042
 40
0.9999999999999999
 40
0.9999999999999999
 40
0.9999999999999999
 40
0.9999999999999999
 10
-13.40420173090977
 20
32.03240449637435
 30
0.0
 10
-13.37126788084012
 20
32.02276202536856
 30
0.0
 10
-13.30541980259628
 20
32.00348282831411
 30
0.0
 10
-13.21964254839885
 20
31.94458078771139
 30
0.0
 10
-13.14661971931044
 20
31.86341543055725
 30
0.0
 10
-13.09709798961068
 20
31.75691150893019
 30
0.0
 10
-13.09191381505824
 20
31.67620705437914
 30
0.0
 10
-13.08932024844752
 20
31.63583179761601
 30
0.0
  0
SPLINE
  5
D4
330
1F
100
AcDbEntity
  8
0
  6
Continuous
 62
     7
370
    15
100
AcDbSpline
210
0.0
220
0.0
230
1.0
 70
     8
 71
     3
 72
     9
 73
     5
 74
     0
 42
0.000000001
 43
0.00000001
 40
0.0
 40
0.0
 40
0.0
 40
0.0
 40
0.5602421585638596
 40
1.0
 40
1.0
 40
1.0
 40
1.0
 10
-13.75820638808443
 20
32.05368851716619
 30
0.0
 10
-13.69182278259665
 20
32.05390272216737
 30
0.0
 10
-13.57333186849273
 20
32.05428506576273
 30
0.0
 10
-13.45586062943057
 20
32.03908767022949
 30
0.0
 10
-13.40420173090977
 20
32.03240449637435
 30
0.0
  0
LINE
  5
D5
330
1F
100
AcDbEntity
  8
0
  6
Continuous
 62
     7
370
    15
100
AcDbLine
 10
-14.0708914159
 20
32.0536885172
 30
0.0
 11
-13.7582063881
 21
32.0536885172
 31
0.0
  0
LINE
  5
D6
330
1F
100
AcDbEntity
  8
0
  6
Continuous
 62
     7
370
    15
100
AcDbLine
 10
-14.0708914159
 20
30.491187954
 30
0.0
 11
-14.0708914159
 21
32.0536885172
 31
0.0
  0
LINE
  5
D7
330
1F
100
AcDbEntity
  8
0
  6
Continuous
 62
     7
370
    15
100
AcDbLine
 10
-13.9306656225
 20
30.491187954
 30
0.0
 11
-14.0708914159
 21
30.491187954
 31
0.0
  0
CIRCLE
  5
D8
330
1F
100
AcDbEntity
  8
0
  6
Continuous
 62
     7
370
    15
100
AcDbCircle
 10
8.6927160882
 20
4.4211184211
 30
0.0
 40
0.0940000000000012
  0
LINE
  5
D9
330
1F
100
AcDbEntity
  8
0
  6
Continuous
 62
     7
370
    15
100
AcDbLine
 10
-20.9811629479
 20
43.7811182676
 30
0.0
 11
-3.2408471388
 21
-34.9388815789
 31
0.0
  0
LINE
  5
DA
330
1F
100
AcDbEntity
  8
0
  6
Continuous
 62
     7
370
    15
100
AcDbLine
 10
13.8225570232
 20
43.7811182676
 30
0.0
 11
-20.9811629479
 21
43.7811182676
 31
0.0
  0
LINE
  5
DB
330
1F
100
AcDbEntity
  8
0
  6
Continuous
 62
     7
370
    15
100
AcDbLine
 10
31.5628751789
 20
-34.9388815789
 30
0.0
 11
13.8225570232
 21
43.7811182676
 31
0.0
  0
LINE
  5
DC
330
1F
100
AcDbEntity
  8
0
  6
Continuous
 62
     7
370
    15
100
AcDbLine
 10
-3.2408471388
 20
-34.9388815789
 30
0.0
 11
31.5628751789
 21
-34.9388815789
 31
0.0
  0
CIRCLE
  5
DD
330
1F
100
AcDbEntity
  8
0
  6
Continuous
 62
     7
370
    15
100
AcDbCircle
 10
20.6927160882
 20
4.4211184211
 30
0.0
 40
0.0939999999999976
  0
CIRCLE
  5
DE
330
1F
100
AcDbEntity
  8
0
  6
Continuous
 62
     7
370
    15
100
AcDbCircle
 10
-3.3072839118
 20
4.4211184211
 30
0.0
 40
0.0940000000000016
  0
LINE
  5
DF
330
1F
100
AcDbEntity
  8
0
  6
Continuous
 62
     7
370
    15
100
AcDbLine
 10
-12.2880413982
 20
31.1722766193
 30
0.0
 11
-12.2880413982
 21
31.0120199106
 31
0.0
  0
LINE
  5
E0
330
1F
100
AcDbEntity
  8
0
  6
Continuous
 62
     7
370
    15
100
AcDbLine
 10
-12.8890017092
 20
31.1722766193
 30
0.0
 11
-12.2880413982
 21
31.1722766193
 31
0.0
  0
LINE
  5
E1
330
1F
100
AcDbEntity
  8
0
  6
Continuous
 62
     7
370
    15
100
AcDbLine
 10
-12.8890017092
 20
31.0120199106
 30
0.0
 11
-12.8890017092
 21
31.1722766193
 31
0.0
  0
LINE
  5
E2
330
1F
100
AcDbEntity
  8
0
  6
Continuous
 62
     7
370
    15
100
AcDbLine
 10
-12.2880413982
 20
31.0120199106
 30
0.0
 11
-12.8890017092
 21
31.0120199106
 31
0.0
  0
LINE
  5
E3
330
1F
100
AcDbEntity
  8
0
  6
Continuous
 62
     7
370
    15
100
AcDbLine
 10
-10.0845140002
 20
32.0536885172
 30
0.0
 11
-10.0845140002
 21
30.491187954
 31
0.0
  0
LINE
  5
E4
330
1F
100
AcDbEntity
  8
0
  6
Continuous
 62
     7
370
    15
100
AcDbLine
 10
-10.2247397937
 20
32.0536885172
 30
0.0
 11
-10.0845140002
 21
32.0536885172
 31
0.0
  0
LINE
  5
E5
330
1F
100
AcDbEntity
  8
0
  6
Continuous
 62
     7
370
    15
100
AcDbLine
 10
-10.2247397937
 20
30.491187954
 30
0.0
 11
-10.2247397937
 21
32.0536885172
 31
0.0
  0
LINE
  5
E6
330
1F
100
AcDbEntity
  8
0
  6
Continuous
 62
     7
370
    15
100
AcDbLine
 10
-10.0845140002
 20
30.491187954
 30
0.0
 11
-10.2247397937
 21
30.491187954
 31
0.0
  0
LINE
  5
E7
330
1F
100
AcDbEntity
  8
0
  6
Continuous
 62
     7
370
    15
100
AcDbLine
 10
-8.4619159979
 20
31.4927900367
 30
0.0
 11
-8.4619159979
 21
31.6330158301
 31
0.0
  0
LINE
  5
E8
330
1F
100
AcDbEntity
  8
0
  6
Continuous
 62
     7
370
    15
100
AcDbLine
 10
-8.2615974587
 20
31.4927900367
 30
0.0
 11
-8.4619159979
 21
31.4927900367
 31
0.0
  0
LINE
  5
E9
330
1F
100
AcDbEntity
  8
0
  6
Continuous
 62
     7
370
    15
100
AcDbLine
 10
-8.2615974587
 20
30.491187954
 30
0.0
 11
-8.2615974587
 21
31.4927900367
 31
0.0
  0
LINE
  5
EA
330
1F
100
AcDbEntity
  8
0
  6
Continuous
 62
     7
370
    15
100
AcDbLine
 10
-8.1213716653
 20
30.491187954
 30
0.0
 11
-8.2615974587
 21
30.491187954
 31
0.0
  0
LINE
  5
EB
330
1F
100
AcDbEntity
  8
0
  6
Continuous
 62
     7
370
    15
100
AcDbLine
 10
-8.1213716653
 20
31.4927900367
 30
0.0
 11
-8.1213716653
 21
30.491187954
 31
0.0
  0
LINE
  5
EC
330
1F
100
AcDbEntity
  8
0
  6
Continuous
 62
     7
370
    15
100
AcDbLine
 10
-7.921053126
 20
31.4927900367
 30
0.0
 11
-8.1213716653
 21
31.4927900367
 31
0.0
  0
LINE
  5
ED
330
1F
100
AcDbEntity
  8
0
  6
Continuous
 62
     7
370
    15
100
AcDbLine
 10
-7.921053126
 20
31.6330158301
 30
0.0
 11
-7.921053126
 21
31.4927900367
 31
0.0
  0
LINE
  5
EE
330
1F
100
AcDbEntity
  8
0
  6
Continuous
 62
     7
370
    15
100
AcDbLine
 10
-8.1213716653
 20
31.6330158301
 30
0.0
 11
-7.921053126
 21
31.6330158301
 31
0.0
  0
LINE
  5
EF
330
1F
100
AcDbEntity
  8
0
  6
Continuous
 62
     7
370
    15
100
AcDbLine
 10
-8.1213716653
 20
32.0937503477
 30
0.0
 11
-8.1213716653
 21
31.6330158301
 31
0.0
  0
LINE
  5
F0
330
1F
100
AcDbEntity
  8
0
  6
Continuous
 62
     7
370
    15
100
AcDbLine
 10
-8.2615974587
 20
32.0937503477
 30
0.0
 11
-8.1213716653
 21
32.0937503477
 31
0.0
  0
LINE
  5
F1
330
1F
100
AcDbEntity
  8
0
  6
Continuous
 62
     7
370
    15
100
AcDbLine
 10
-8.2615974587
 20
31.6330158301
 30
0.0
 11
-8.2615974587
 21
32.0937503477
 31
0.0
  0
LINE
  5
F2
330
1F
100
AcDbEntity
  8
0
  6
Continuous
 62
     7
370
    15
100
AcDbLine
 10
-8.4619159979
 20
31.6330158301
 30
0.0
 11
-8.2615974587
 21
31.6330158301
 31
0.0
  0
LINE
  5
F3
330
1F
100
AcDbEntity
  8
0
  6
Continuous
 62
     7
370
    15
100
AcDbLine
 10
-6.1782625922
 20
30.8749245343
 30
0.0
 11
-6.1782625922
 21
30.491187954
 31
0.0
  0
SPLINE
  5
F4
330
1F
100
AcDbEntity
  8
0
  6
Continuous
 62
     7
370
    15
100
AcDbSpline
210
0.0
220
0.0
230
1.0
 70
     8
 71
     3
 72
    10
 73
     6
 74
     0
 42
0.000000001
 43
0.00000001
 40
0.0
 40
0.0
 40
0.0
 40
0.0
 40
0.2798063394008913
 40
0.5598847274979455
 40
1.0
 40
1.0
 40
1.0
 40
1.0
 10
-6.153223948157197
 20
31.26680395399048
 30
0.0
 10
-6.159361666672377
 20
31.23060342076782
 30
0.0
 10
-6.171643071252724
 20
31.15816715745067
 30
0.0
 10
-6.176887722462954
 20
31.02697137085227
 30
0.0
 10
-6.177741092174031
 20
30.93259722217479
 30
0.0
 10
-6.178262592241981
 20
30.87492453434832
 30
0.0
  0
SPLINE
  5
F5
330
1F
100
AcDbEntity
  8
0
  6
Continuous
 62
     7
370
    15
100
AcDbSpline
210
0.0
220
0.0
230
1.0
 70
     8
 71
     3
 72
    11
 73
     7
 74
     0
 42
0.000000001
 43
0.00000001
 40
0.0
 40
0.0
 40
0.0
 40
0.0
 40
0.2779191987448238
 40
0.5579280446234226
 40
0.7788629695818311
 40
1.0
 40
1.0
 40
1.0
 40
1.0
 10
-5.926299209611141
 20
31.51282095198113
 30
0.0
 10
-5.959367502117201
 20
31.50566225653802
 30
0.0
 10
-6.025752724369824
 20
31.49129104012455
 30
0.0
 10
-6.091383822072673
 20
31.41920998568546
 30
0.0
 10
-6.130689734287933
 20
31.34271878061506
 30
0.0
 10
-6.145710254518245
 20
31.29211660759445
 30
0.0
 10
-6.153223948157197
 20
31.26680395399048
 30
0.0
  0
SPLINE
  5
F6
330
1F
100
AcDbEntity
  8
0
  6
Continuous
 62
     7
370
    15
100
AcDbSpline
210
0.0
220
0.0
230
1.0
 70
     8
 71
     3
 72
     9
 73
     5
 74
     0
 42
0.000000001
 43
0.00000001
 40
0.0
 40
0.0
 40
0.0
 40
0.0
 40
0.5603984849705117
 40
1.0
 40
1.0
 40
1.0
 40
1.0
 10
-5.854621104309397
 20
31.49247558701252
 30
0.0
 10
-5.867432425361334
 20
31.49842185780827
 30
0.0
 10
-5.890293516880187
 20
31.5090326480856
 30
0.0
 10
-5.915304391316663
 20
31.5116641428819
 30
0.0
 10
-5.926299209611141
 20
31.51282095198113
 30
0.0
  0
LINE
  5
F7
330
1F
100
AcDbEntity
  8
0
  6
Continuous
 62
     7
370
    15
100
AcDbLine
 10
-5.7776231671
 20
31.6139235707
 30
0.0
 11
-5.8546211043
 21
31.492475587
 31
0.0
  0
SPLINE
  5
F8
330
1F
100
AcDbEntity
  8
0
  6
Continuous
 62
     7
370
    15
100
AcDbSpline
210
0.0
220
0.0
230
1.0
 70
     8
 71
     3
 72
     9
 73
     5
 74
     0
 42
0.000000001
 43
0.00000001
 40
0.0
 40
0.0
 40
0.0
 40
0.0
 40
0.5592546828430651
 40
1.0
 40
1.0
 40
1.0
 40
1.0
 10
-5.899693010301559
 20
31.65304674541413
 30
0.0
 10
-5.875448646306597
 20
31.65015387243839
 30
0.0
 10
-5.832097442036465
 20
31.64498114333219
 30
0.0
 10
-5.794287654103591
 20
31.62342454185612
 30
0.0
 10
-5.77762316712947
 20
31.61392357070171
 30
0.0
  0
SPLINE
  5
F9
330
1F
100
AcDbEntity
  8
0
  6
Continuous
 62
     7
370
    15
100
AcDbSpline
210
0.0
220
0.0
230
1.0
 70
     8
 71
     3
 72
    15
 73
    11
 74
     0
 42
0.000000001
 43
0.00000001
 40
0.0000065902888378
 40
0.0000065902888378
 40
0.0000065902888378
 40
0.0000065902888378
 40
0.1600594124854867
 40
0.3061123827401267
 40
0.4383665141302066
 40
0.560541455255208
 40
0.6753172249526983
 40
0.7861136344281632
 40
0.8928417881050884
 40
1.0
 40
1.0
 40
1.0
 40
1.0
 10
-6.178262409749351
 20
31.46493530444345
 30
0.0
 10
-6.167910711543877
 20
31.48058458343196
 30
0.0
 10
-6.148112711736847
 20
31.51051424662384
 30
0.0
 10
-6.11520564871336
 20
31.55009816089194
 30
0.0
 10
-6.081498804392634
 20
31.58287273527199
 30
0.0
 10
-6.046831310061147
 20
31.60899037758002
 30
0.0
 10
-6.010948229744126
 20
31.62854980562637
 30
0.0
 10
-5.974637090584309
 20
31.64287705340832
 30
0.0
 10
-5.93732661296936
 20
31.65134906913928
 30
0.0
 10
-5.912254325367623
 20
31.65248016688805
 30
0.0
 10
-5.899692975323948
 20
31.65304685290337
 30
0.0
  0
LINE
  5
FA
330
1F
100
AcDbEntity
  8
0
  6
Continuous
 62
     7
370
    15
100
AcDbLine
 10
-6.1782625922
 20
31.6330158301
 30
0.0
 11
-6.1782625922
 21
31.4649354252
 31
0.0
  0
LINE
  5
FB
330
1F
100
AcDbEntity
  8
0
  6
Continuous
 62
     7
370
    15
100
AcDbLine
 10
-6.3184883857
 20
31.6330158301
 30
0.0
 11
-6.1782625922
 21
31.6330158301
 31
0.0
  0
LINE
  5
FC
330
1F
100
AcDbEntity
  8
0
  6
Continuous
 62
     7
370
    15
100
AcDbLine
 10
-6.3184883857
 20
30.491187954
 30
0.0
 11
-6.3184883857
 21
31.6330158301
 31
0.0
  0
LINE
  5
FD
330
1F
100
AcDbEntity
  8
0
  6
Continuous
 62
     7
370
    15
100
AcDbLine
 10
-6.1782625922
 20
30.491187954
 30
0.0
 11
-6.3184883857
 21
30.491187954
 31
0.0
  0
SPLINE
  5
FE
330
1F
100
AcDbEntity
  8
0
  6
Continuous
 62
     7
370
    15
100
AcDbSpline
210
0.0
220
0.0
230
1.0
 70
     8
 71
     3
 72
    11
 73
     7
 74
     0
 42
0.000000001
 43
0.00000001
 40
0.0
 40
0.0
 40
0.0
 40
0.0
 40
0.2799796387714862
 40
0.5597510164342304
 40
0.779810820433635
 40
1.0
 40
1.0
 40
1.0
 40
1.0
 10
-4.396663333428645
 20
31.65304674541413
 30
0.0
 10
-4.346372956447973
 20
31.65007154004463
 30
0.0
 10
-4.245829610669984
 20
31.64412334239359
 30
0.0
 10
-4.113656740991013
 20
31.59174286986875
 30
0.0
 10
-4.008694246824234
 20
31.51451955896486
 30
0.0
 10
-3.9593518248186
 20
31.45267156750825
 30
0.0
 10
-3.934673363709531
 20
31.42173848417357
 30
0.0
  0
SPLINE
  5
FF
330
1F
100
AcDbEntity
  8
0
  6
Continuous
 62
     7
370
    15
100
AcDbSpline
210
0.0
220
0.0
230
1.0
 70
     8
 71
     3
 72
    23
 73
    19
 74
     0
 42
0.000000001
 43
0.00000001
 40
0.0000010217924242
 40
0.0000010217924242
 40
0.0000010217924242
 40
0.0000010217924242
 40
0.0637745323056319
 40
0.1260788099895052
 40
0.1869040927472019
 40
0.2475739349176182
 40
0.3080033561644458
 40
0.369131898460977
 40
0.4320332277442072
 40
0.4967907944370895
 40
0.5616108232295631
 40
0.6249138657484582
 40
0.6867263492419252
 40
0.7480788332577664
 40
0.8095822911398961
 40
0.8716307425688256
 40
0.9348858208285517
 40
1.0
 40
1.0
 40
1.0
 40
1.0
 10
-4.996372635937725
 20
31.0652323021965
 30
0.0
 10
-4.9958132826741
 20
31.08508185182777
 30
0.0
 10
-4.994707426617417
 20
31.12432364883089
 30
0.0
 10
-4.986469427082746
 20
31.18203703777186
 30
0.0
 10
-4.972616298217015
 20
31.23762554702775
 30
0.0
 10
-4.953175294794753
 20
31.29090989668122
 30
0.0
 10
-4.928245850614787
 20
31.34195456192612
 30
0.0
 10
-4.897920811766202
 20
31.39079564452208
 30
0.0
 10
-4.862197988239904
 20
31.43756769696046
 30
0.0
 10
-4.821013877964757
 20
31.48117092321886
 30
0.0
 10
-4.776400141285009
 20
31.52144798316056
 30
0.0
 10
-4.728673029269215
 20
31.55645202130452
 30
0.0
 10
-4.679019778679564
 20
31.58668275738311
 30
0.0
 10
-4.626670220410649
 20
31.61063520216273
 30
0.0
 10
-4.572399191475819
 20
31.63001426669149
 30
0.0
 10
-4.515723546052949
 20
31.64342184173638
 30
0.0
 10
-4.456879091287065
 20
31.65132243157565
 30
0.0
 10
-4.416927978758221
 20
31.65246652271455
 30
0.0
 10
-4.396663127567529
 20
31.65304685290337
 30
0.0
  0
SPLINE
  5
100
330
1F
100
AcDbEntity
  8
0
  6
Continuous
 62
     7
370
    15
100
AcDbSpline
210
0.0
220
0.0
230
1.0
 70
     8
 71
     3
 72
    14
 73
    10
 74
     0
 42
0.000000001
 43
0.00000001
 40
0.0
 40
0.0
 40
0.0
 40
0.0
 40
0.1400481218345942
 40
0.2800130344867882
 40
0.4200267716261043
 40
0.5600985195729424
 40
0.7067223536929741
 40
0.8533023371872691
 40
1.0
 40
1.0
 40
1.0
 40
1.0
 10
-4.401044509483592
 20
30.47115703870487
 30
0.0
 10
-4.444743330389471
 20
30.47361747905491
 30
0.0
 10
-4.53211500867449
 20
30.47853689789157
 30
0.0
 10
-4.657579650226099
 20
30.52124339540288
 30
0.0
 10
-4.769217411265215
 20
30.59117290734666
 30
0.0
 10
-4.865484476127988
 20
30.68419119672453
 30
0.0
 10
-4.941034586173581
 20
30.79721211935288
 30
0.0
 10
-4.988564440590175
 20
30.92786463319912
 30
0.0
 10
-4.993769374382145
 20
31.01943083673359
 30
0.0
 10
-4.996372885532724
 20
31.06523230922999
 30
0.0
  0
SPLINE
  5
101
330
1F
100
AcDbEntity
  8
0
  6
Continuous
 62
     7
370
    15
100
AcDbSpline
210
0.0
220
0.0
230
1.0
 70
     8
 71
     3
 72
    11
 73
     7
 74
     0
 42
0.000000001
 43
0.00000001
 40
0.0
 40
0.0
 40
0.0
 40
0.0
 40
0.2799943029135641
 40
0.5597241319586094
 40
0.7798675584668173
 40
1.0
 40
1.0
 40
1.0
 40
1.0
 10
-3.934673363709531
 20
30.68869052573947
 30
0.0
 10
-3.968649815193842
 20
30.65212696159267
 30
0.0
 10
-4.036570625068192
 20
30.57903437009913
 30
0.0
 10
-4.160063973912945
 20
30.51184150866219
 30
0.0
 10
-4.283725954762483
 20
30.47653595595551
 30
0.0
 10
-4.361938975053632
 20
30.47294998129815
 30
0.0
 10
-4.401044509483592
 20
30.47115703870487
 30
0.0
  0
LINE
  5
102
330
1F
100
AcDbEntity
  8
0
  6
Continuous
 62
     7
370
    15
100
AcDbLine
 10
-3.9346733637
 20
30.491187954
 30
0.0
 11
-3.9346733637
 21
30.6886905257
 31
0.0
  0
LINE
  5
103
330
1F
100
AcDbEntity
  8
0
  6
Continuous
 62
     7
370
    15
100
AcDbLine
 10
-3.7944499169
 20
30.491187954
 30
0.0
 11
-3.9346733637
 21
30.491187954
 31
0.0
  0
LINE
  5
104
330
1F
100
AcDbEntity
  8
0
  6
Continuous
 62
     7
370
    15
100
AcDbLine
 10
-3.7944499169
 20
31.6330158301
 30
0.0
 11
-3.7944499169
 21
30.491187954
 31
0.0
  0
LINE
  5
105
330
1F
100
AcDbEntity
  8
0
  6
Continuous
 62
     7
370
    15
100
AcDbLine
 10
-3.9346733637
 20
31.6330158301
 30
0.0
 11
-3.7944499169
 21
31.6330158301
 31
0.0
  0
LINE
  5
106
330
1F
100
AcDbEntity
  8
0
  6
Continuous
 62
     7
370
    15
100
AcDbLine
 10
-3.9346733637
 20
31.4217384842
 30
0.0
 11
-3.9346733637
 21
31.6330158301
 31
0.0
  0
LINE
  5
107
330
1F
100
AcDbEntity
  8
0
  6
Continuous
 62
     7
370
    15
100
AcDbLine
 10
-0.9498980308
 20
31.0320555192
 30
0.0
 11
-1.9715333754
 21
31.0320555192
 31
0.0
  0
SPLINE
  5
108
330
1F
100
AcDbEntity
  8
0
  6
Continuous
 62
     7
370
    15
100
AcDbSpline
210
0.0
220
0.0
230
1.0
 70
     8
 71
     3
 72
    11
 73
     7
 74
     0
 42
0.000000001
 43
0.00000001
 40
0.0
 40
0.0
 40
0.0
 40
0.0
 40
0.2798449828984581
 40
0.5597429384194791
 40
0.779846067357196
 40
1.0
 40
1.0
 40
1.0
 40
1.0
 10
-1.074159635274886
 20
31.42831376821533
 30
0.0
 10
-1.051999558434355
 20
31.39554613224152
 30
0.0
 10
-1.007675210011714
 20
31.33000465761845
 30
0.0
 10
-0.9722905283117456
 20
31.22491662453572
 30
0.0
 10
-0.953212815161124
 20
31.12510698125766
 30
0.0
 10
-0.9510030438900042
 20
31.0630750592603
 30
0.0
 10
-0.9498980307555449
 20
31.03205551915777
 30
0.0
  0
SPLINE
  5
109
330
1F
100
AcDbEntity
  8
0
  6
Continuous
 62
     7
370
    15
100
AcDbSpline
210
0.0
220
0.0
230
1.0
 70
     8
 71
     3
 72
    11
 73
     7
 74
     0
 42
0.000000001
 43
0.00000001
 40
0.0
 40
0.0
 40
0.0
 40
0.0
 40
0.2799818394435736
 40
0.5597288725058039
 40
0.7798365933577246
 40
1.0
 40
1.0
 40
1.0
 40
1.0
 10
-1.533957843646747
 20
31.65304674541413
 30
0.0
 10
-1.48426697570869
 20
31.65013013357824
 30
0.0
 10
-1.384926913010059
 20
31.64429935591892
 30
0.0
 10
-1.254414583598096
 20
31.59259367022833
 30
0.0
 10
-1.149867268463683
 20
31.51779458639465
 30
0.0
 10
-1.099397640815378
 20
31.4581432225234
 30
0.0
 10
-1.074159635274886
 20
31.42831376821533
 30
0.0
  0
SPLINE
  5
10A
330
1F
100
AcDbEntity
  8
0
  6
Continuous
 62
     7
370
    15
100
AcDbSpline
210
0.0
220
0.0
230
1.0
 70
     8
 71
     3
 72
    11
 73
     7
 74
     0
 42
0.000000001
 43
0.00000001
 40
0.0
 40
0.0
 40
0.0
 40
0.0
 40
0.2799340814763896
 40
0.5596436023691603
 40
0.779766946175698
 40
0.9999999999999999
 40
0.9999999999999999
 40
0.9999999999999999
 40
0.9999999999999999
 10
-1.980298074152983
 20
31.4402065374957
 30
0.0
 10
-1.948384473200258
 20
31.47618098541636
 30
0.0
 10
-1.884582872096323
 20
31.54810102288151
 30
0.0
 10
-1.765970981564662
 20
31.61367109612255
 30
0.0
 10
-1.647027711512651
 20
31.64833829753851
 30
0.0
 10
-1.571654059111232
 20
31.65147700213086
 30
0.0
 10
-1.533957843646747
 20
31.65304674541413
 30
0.0
  0
SPLINE
  5
10B
330
1F
100
AcDbEntity
  8
0
  6
Continuous
 62
     7
370
    15
100
AcDbSpline
210
0.0
220
0.0
230
1.0
 70
     8
 71
     3
 72
    11
 73
     7
 74
     0
 42
0.000000001
 43
0.00000001
 40
0.0
 40
0.0
 40
0.0
 40
0.0
 40
0.2799715435631817
 40
0.5598674256976516
 40
0.7799173521031985
 40
1.0
 40
1.0
 40
1.0
 40
1.0
 10
-2.111756822196974
 20
31.05897147488901
 30
0.0
 10
-2.109957480823075
 20
31.09737251270202
 30
0.0
 10
-2.106359284341615
 20
31.17416421056838
 30
0.0
 10
-2.075899260115556
 20
31.27746732335225
 30
0.0
 10
-2.033506425612146
 20
31.3669284562514
 30
0.0
 10
-1.998035070340909
 20
31.41577929981506
 30
0.0
 10
-1.980298074152987
 20
31.44020653749572
 30
0.0
  0
SPLINE
  5
10C
330
1F
100
AcDbEntity
  8
0
  6
Continuous
 62
     7
370
    15
100
AcDbSpline
210
0.0
220
0.0
230
1.0
 70
     8
 71
     3
 72
    14
 73
    10
 74
     0
 42
0.000000001
 43
0.00000001
 40
0.0
 40
0.0
 40
0.0
 40
0.0
 40
0.1400844755521905
 40
0.2800555377203449
 40
0.4199749150852963
 40
0.5599496573412315
 40
0.7066288100843624
 40
0.8532986312055529
 40
1.0
 40
1.0
 40
1.0
 40
1.0
 10
-1.537400363878459
 20
30.47115703870487
 30
0.0
 10
-1.580330228157842
 20
30.47311381596676
 30
0.0
 10
-1.666155200394289
 20
30.47702578626981
 30
0.0
 10
-1.790364851650438
 20
30.51561273312008
 30
0.0
 10
-1.900746155842053
 20
30.58427723271786
 30
0.0
 10
-1.989285412796515
 20
30.68184088700512
 30
0.0
 10
-2.05847415725265
 20
30.79553332420036
 30
0.0
 10
-2.104200189721433
 20
30.92401205644112
 30
0.0
 10
-2.109237764133264
 20
31.01398177710817
 30
0.0
 10
-2.111756822196974
 20
31.05897147488901
 30
0.0
  0
SPLINE
  5
10D
330
1F
100
AcDbEntity
  8
0
  6
Continuous
 62
     7
370
    15
100
AcDbSpline
210
0.0
220
0.0
230
1.0
 70
     8
 71
     3
 72
    12
 73
     8
 74
     0
 42
0.000000001
 43
0.00000001
 40
0.0
 40
0.0
 40
0.0
 40
0.0
 40
0.1868323050582312
 40
0.3734590724116049
 40
0.5601327883838205
 40
0.7799385786197355
 40
1.0
 40
1.0
 40
1.0
 40
1.0
 10
-1.009995469838134
 20
30.78634827758879
 30
0.0
 10
-1.030521997859949
 20
30.7514883503906
 30
0.0
 10
-1.071552472287111
 20
30.6818068460506
 30
0.0
 10
-1.156695263006597
 20
30.59394220059803
 30
0.0
 10
-1.264903104995809
 20
30.52389324902934
 30
0.0
 10
-1.394426973666919
 20
30.47787429841074
 30
0.0
 10
-1.489724106331271
 20
30.4733969926101
 30
0.0
 10
-1.537400363878459
 20
30.47115703870487
 30
0.0
  0
LINE
  5
10E
330
1F
100
AcDbEntity
  8
0
  6
Continuous
 62
     7
370
    15
100
AcDbLine
 10
-1.1345691774
 20
30.8517632019
 30
0.0
 11
-1.0099954698
 21
30.7863482776
 31
0.0
  0
SPLINE
  5
10F
330
1F
100
AcDbEntity
  8
0
  6
Continuous
 62
     7
370
    15
100
AcDbSpline
210
0.0
220
0.0
230
1.0
 70
     8
 71
     3
 72
    11
 73
     7
 74
     0
 42
0.000000001
 43
0.00000001
 40
0.0
 40
0.0
 40
0.0
 40
0.0
 40
0.2799057403575099
 40
0.5597021222248216
 40
0.7795385895372281
 40
1.0
 40
1.0
 40
1.0
 40
1.0
 10
-1.554929761377368
 20
30.61137813885877
 30
0.0
 10
-1.507613311638871
 20
30.61532016802823
 30
0.0
 10
-1.412998898583393
 20
30.62320268622592
 30
0.0
 10
-1.28926562211522
 20
30.67697212969275
 30
0.0
 10
-1.198026590711854
 20
30.75965568814237
 30
0.0
 10
-1.155741654428042
 20
30.82103165903062
 30
0.0
 10
-1.1345691774187
 20
30.85176320191
 30
0.0
  0
SPLINE
  5
110
330
1F
100
AcDbEntity
  8
0
  6
Continuous
 62
     7
370
    15
100
AcDbSpline
210
0.0
220
0.0
230
1.0
 70
     8
 71
     3
 72
    13
 73
     9
 74
     0
 42
0.000000001
 43
0.00000001
 40
0.0
 40
0.0
 40
0.0
 40
0.0
 40
0.1867249671507897
 40
0.3732520832041657
 40
0.559776325204148
 40
0.7064898706027474
 40
0.8531881807952278
 40
1.0
 40
1.0
 40
1.0
 40
1.0
 10
-1.971533375403531
 20
31.03205551915777
 30
0.0
 10
-1.968206579049324
 20
30.99095640720178
 30
0.0
 10
-1.961556511366602
 20
30.90880173131942
 30
0.0
 10
-1.90984690892871
 20
30.79436823971448
 30
0.0
 10
-1.832790808143588
 20
30.70813137888607
 30
0.0
 10
-1.744487842949007
 20
30.64900074770838
 30
0.0
 10
-1.651799014129821
 20
30.616874823465
 30
0.0
 10
-1.587227836153666
 20
30.61321083938437
 30
0.0
 10
-1.554929761377363
 20
30.61137813885876
 30
0.0
  0
SPLINE
  5
111
330
1F
100
AcDbEntity
  8
0
  6
Continuous
 62
     7
370
    15
100
AcDbSpline
210
0.0
220
0.0
230
1.0
 70
     8
 71
     3
 72
    11
 73
     7
 74
     0
 42
0.000000001
 43
0.00000001
 40
0.0
 40
0.0
 40
0.0
 40
0.0
 40
0.2799796387714862
 40
0.5597510164342304
 40
0.779810820433635
 40
1.0
 40
1.0
 40
1.0
 40
1.0
 10
1.973529104231393
 20
31.65304674541413
 30
0.0
 10
2.023819481212068
 20
31.65007154004463
 30
0.0
 10
2.124362826990053
 20
31.64412334239359
 30
0.0
 10
2.256535696669029
 20
31.59174286986875
 30
0.0
 10
2.361498190835807
 20
31.51451955896486
 30
0.0
 10
2.410840612841441
 20
31.45267156750825
 30
0.0
 10
2.435519073950506
 20
31.42173848417357
 30
0.0
  0
SPLINE
  5
112
330
1F
100
AcDbEntity
  8
0
  6
Continuous
 62
     7
370
    15
100
AcDbSpline
210
0.0
220
0.0
230
1.0
 70
     8
 71
     3
 72
    23
 73
    19
 74
     0
 42
0.000000001
 43
0.00000001
 40
0.0000010257115997
 40
0.0000010257115997
 40
0.0000010257115997
 40
0.0000010257115997
 40
0.0637745323056319
 40
0.1260788099895052
 40
0.1869040927472019
 40
0.2475739349176182
 40
0.3080033561644458
 40
0.369131898460977
 40
0.4320332277442072
 40
0.4967907944370895
 40
0.5616108232295631
 40
0.6249138657484582
 40
0.6867263492419252
 40
0.7480788332577664
 40
0.8095822911398961
 40
0.8716307425688256
 40
0.9348858208285517
 40
1.0
 40
1.0
 40
1.0
 40
1.0
 10
1.373819671857725
 20
31.06523230585603
 30
0.0
 10
1.374379025086967
 20
31.08508185426745
 30
0.0
 10
1.375484881247644
 20
31.12432365004108
 30
0.0
 10
1.383722880609567
 20
31.18203703777186
 30
0.0
 10
1.397576009475292
 20
31.23762554702775
 30
0.0
 10
1.417017012897559
 20
31.29090989668122
 30
0.0
 10
1.44194645707753
 20
31.34195456192612
 30
0.0
 10
1.472271495926119
 20
31.39079564452208
 30
0.0
 10
1.507994319452399
 20
31.43756769696046
 30
0.0
 10
1.549178429727555
 20
31.48117092321886
 30
0.0
 10
1.593792166407316
 20
31.52144798316056
 30
0.0
 10
1.641519278423089
 20
31.55645202130452
 30
0.0
 10
1.691172529012753
 20
31.58668275738311
 30
0.0
 10
1.743522087281667
 20
31.61063520216273
 30
0.0
 10
1.797793116216493
 20
31.63001426669149
 30
0.0
 10
1.854468761639368
 20
31.64342184173638
 30
0.0
 10
1.913313216405243
 20
31.65132243157565
 30
0.0
 10
1.953264328934095
 20
31.65246652271455
 30
0.0
 10
1.973529180124783
 20
31.65304685290337
 30
0.0
  0
SPLINE
  5
113
330
1F
100
AcDbEntity
  8
0
  6
Continuous
 62
     7
370
    15
100
AcDbSpline
210
0.0
220
0.0
230
1.0
 70
     8
 71
     3
 72
    14
 73
    10
 74
     0
 42
0.000000001
 43
0.00000001
 40
0.0
 40
0.0
 40
0.0
 40
0.0
 40
0.1400481218345942
 40
0.2800130344867882
 40
0.4200267716261043
 40
0.5600985195729424
 40
0.7067223536929741
 40
0.8533023371872691
 40
1.0
 40
1.0
 40
1.0
 40
1.0
 10
1.969147928176446
 20
30.47115703870487
 30
0.0
 10
1.925449107270562
 20
30.47361747905491
 30
0.0
 10
1.838077428985543
 20
30.47853689789157
 30
0.0
 10
1.712612787433934
 20
30.52124339540288
 30
0.0
 10
1.600975026394827
 20
30.59117290734666
 30
0.0
 10
1.504707961532045
 20
30.68419119672453
 30
0.0
 10
1.42915785148646
 20
30.79721211935288
 30
0.0
 10
1.381627997069853
 20
30.92786463319912
 30
0.0
 10
1.376423063277892
 20
31.01943083673359
 30
0.0
 10
1.373819552127314
 20
31.06523230922999
 30
0.0
  0
SPLINE
  5
114
330
1F
100
AcDbEntity
  8
0
  6
Continuous
 62
     7
370
    15
100
AcDbSpline
210
0.0
220
0.0
230
1.0
 70
     8
 71
     3
 72
    11
 73
     7
 74
     0
 42
0.000000001
 43
0.00000001
 40
0.0
 40
0.0
 40
0.0
 40
0.0
 40
0.2799943029135641
 40
0.5597241319586094
 40
0.7798675584668173
 40
1.0
 40
1.0
 40
1.0
 40
1.0
 10
2.435519073950506
 20
30.68869052573947
 30
0.0
 10
2.401542622466195
 20
30.65212696159267
 30
0.0
 10
2.33362181259184
 20
30.57903437009913
 30
0.0
 10
2.210128463747092
 20
30.51184150866219
 30
0.0
 10
2.086466482897546
 20
30.47653595595551
 30
0.0
 10
2.008253462606409
 20
30.47294998129815
 30
0.0
 10
1.969147928176446
 20
30.47115703870487
 30
0.0
  0
LINE
  5
115
330
1F
100
AcDbEntity
  8
0
  6
Continuous
 62
     7
370
    15
100
AcDbLine
 10
2.435519074
 20
30.491187954
 30
0.0
 11
2.435519074
 21
30.6886905257
 31
0.0
  0
LINE
  5
116
330
1F
100
AcDbEntity
  8
0
  6
Continuous
 62
     7
370
    15
100
AcDbLine
 10
2.5757425207
 20
30.491187954
 30
0.0
 11
2.435519074
 21
30.491187954
 31
0.0
  0
LINE
  5
117
330
1F
100
AcDbEntity
  8
0
  6
Continuous
 62
     7
370
    15
100
AcDbLine
 10
2.5757425207
 20
31.6330158301
 30
0.0
 11
2.5757425207
 21
30.491187954
 31
0.0
  0
LINE
  5
118
330
1F
100
AcDbEntity
  8
0
  6
Continuous
 62
     7
370
    15
100
AcDbLine
 10
2.435519074
 20
31.6330158301
 30
0.0
 11
2.5757425207
 21
31.6330158301
 31
0.0
  0
LINE
  5
119
330
1F
100
AcDbEntity
  8
0
  6
Continuous
 62
     7
370
    15
100
AcDbLine
 10
2.435519074
 20
31.4217384842
 30
0.0
 11
2.435519074
 21
31.6330158301
 31
0.0
  0
LINE
  5
11A
330
1F
100
AcDbEntity
  8
0
  6
Continuous
 62
     7
370
    15
100
AcDbLine
 10
5.3401660526
 20
31.0320555192
 30
0.0
 11
4.3185307079
 21
31.0320555192
 31
0.0
  0
SPLINE
  5
11B
330
1F
100
AcDbEntity
  8
0
  6
Continuous
 62
     7
370
    15
100
AcDbSpline
210
0.0
220
0.0
230
1.0
 70
     8
 71
     3
 72
    11
 73
     7
 74
     0
 42
0.000000001
 43
0.00000001
 40
0.0
 40
0.0
 40
0.0
 40
0.0
 40
0.2798449828984581
 40
0.5597429384194791
 40
0.779846067357196
 40
1.0
 40
1.0
 40
1.0
 40
1.0
 10
5.215904448034738
 20
31.42831376821533
 30
0.0
 10
5.238064524875269
 20
31.39554613224152
 30
0.0
 10
5.282388873297906
 20
31.33000465761845
 30
0.0
 10
5.317773554997879
 20
31.22491662453572
 30
0.0
 10
5.336851268148505
 20
31.12510698125766
 30
0.0
 10
5.339061039419624
 20
31.0630750592603
 30
0.0
 10
5.340166052554079
 20
31.03205551915777
 30
0.0
  0
SPLINE
  5
11C
330
1F
100
AcDbEntity
  8
0
  6
Continuous
 62
     7
370
    15
100
AcDbSpline
210
0.0
220
0.0
230
1.0
 70
     8
 71
     3
 72
    11
 73
     7
 74
     0
 42
0.000000001
 43
0.00000001
 40
0.0
 40
0.0
 40
0.0
 40
0.0
 40
0.2799818394435736
 40
0.5597288725058039
 40
0.7798365933577246
 40
1.0
 40
1.0
 40
1.0
 40
1.0
 10
4.756106239662878
 20
31.65304674541413
 30
0.0
 10
4.805797107600934
 20
31.65013013357824
 30
0.0
 10
4.905137170299565
 20
31.64429935591892
 30
0.0
 10
5.035649499711528
 20
31.59259367022833
 30
0.0
 10
5.140196814845941
 20
31.51779458639465
 30
0.0
 10
5.190666442494241
 20
31.4581432225234
 30
0.0
 10
5.215904448034738
 20
31.42831376821533
 30
0.0
  0
SPLINE
  5
11D
330
1F
100
AcDbEntity
  8
0
  6
Continuous
 62
     7
370
    15
100
AcDbSpline
210
0.0
220
0.0
230
1.0
 70
     8
 71
     3
 72
    11
 73
     7
 74
     0
 42
0.000000001
 43
0.00000001
 40
0.0
 40
0.0
 40
0.0
 40
0.0
 40
0.2799340814763896
 40
0.5596436023691603
 40
0.779766946175698
 40
0.9999999999999999
 40
0.9999999999999999
 40
0.9999999999999999
 40
0.9999999999999999
 10
4.309766009156641
 20
31.4402065374957
 30
0.0
 10
4.341679610109361
 20
31.47618098541636
 30
0.0
 10
4.405481211213297
 20
31.54810102288151
 30
0.0
 10
4.524093101744958
 20
31.61367109612255
 30
0.0
 10
4.643036371796978
 20
31.64833829753851
 30
0.0
 10
4.718410024198392
 20
31.65147700213086
 30
0.0
 10
4.756106239662878
 20
31.65304674541413
 30
0.0
  0
SPLINE
  5
11E
330
1F
100
AcDbEntity
  8
0
  6
Continuous
 62
     7
370
    15
100
AcDbSpline
210
0.0
220
0.0
230
1.0
 70
     8
 71
     3
 72
    11
 73
     7
 74
     0
 42
0.000000001
 43
0.00000001
 40
0.0
 40
0.0
 40
0.0
 40
0.0
 40
0.2799715435631817
 40
0.5598674256976516
 40
0.7799173521031985
 40
1.0
 40
1.0
 40
1.0
 40
1.0
 10
4.17830726111265
 20
31.05897147488901
 30
0.0
 10
4.180106602486545
 20
31.09737251270202
 30
0.0
 10
4.183704798968005
 20
31.17416421056838
 30
0.0
 10
4.214164823194072
 20
31.27746732335225
 30
0.0
 10
4.256557657697473
 20
31.3669284562514
 30
0.0
 10
4.292029012968715
 20
31.41577929981506
 30
0.0
 10
4.309766009156637
 20
31.44020653749572
 30
0.0
  0
SPLINE
  5
11F
330
1F
100
AcDbEntity
  8
0
  6
Continuous
 62
     7
370
    15
100
AcDbSpline
210
0.0
220
0.0
230
1.0
 70
     8
 71
     3
 72
    14
 73
    10
 74
     0
 42
0.000000001
 43
0.00000001
 40
0.0
 40
0.0
 40
0.0
 40
0.0
 40
0.1400844755521905
 40
0.2800555377203449
 40
0.4199749150852963
 40
0.5599496573412315
 40
0.7066288100843624
 40
0.8532986312055529
 40
1.0
 40
1.0
 40
1.0
 40
1.0
 10
4.752663719431165
 20
30.47115703870487
 30
0.0
 10
4.709733855151787
 20
30.47311381596676
 30
0.0
 10
4.623908882915339
 20
30.47702578626981
 30
0.0
 10
4.499699231659181
 20
30.51561273312008
 30
0.0
 10
4.389317927467567
 20
30.58427723271786
 30
0.0
 10
4.300778670513101
 20
30.68184088700512
 30
0.0
 10
4.231589926056978
 20
30.79553332420036
 30
0.0
 10
4.185863893588191
 20
30.92401205644112
 30
0.0
 10
4.180826319176364
 20
31.01398177710817
 30
0.0
 10
4.17830726111265
 20
31.05897147488901
 30
0.0
  0
SPLINE
  5
120
330
1F
100
AcDbEntity
  8
0
  6
Continuous
 62
     7
370
    15
100
AcDbSpline
210
0.0
220
0.0
230
1.0
 70
     8
 71
     3
 72
    12
 73
     8
 74
     0
 42
0.000000001
 43
0.00000001
 40
0.0
 40
0.0
 40
0.0
 40
0.0
 40
0.1868323050582312
 40
0.3734590724116049
 40
0.5601327883838205
 40
0.7799385786197355
 40
1.0
 40
1.0
 40
1.0
 40
1.0
 10
5.28006861347149
 20
30.78634827758879
 30
0.0
 10
5.259542085449675
 20
30.7514883503906
 30
0.0
 10
5.218511611022508
 20
30.6818068460506
 30
0.0
 10
5.133368820303028
 20
30.59394220059803
 30
0.0
 10
5.025160978313811
 20
30.52389324902934
 30
0.0
 10
4.895637109642705
 20
30.47787429841074
 30
0.0
 10
4.800339976978358
 20
30.4733969926101
 30
0.0
 10
4.752663719431165
 20
30.47115703870487
 30
0.0
  0
LINE
  5
121
330
1F
100
AcDbEntity
  8
0
  6
Continuous
 62
     7
370
    15
100
AcDbLine
 10
5.1554949059
 20
30.8517632019
 30
0.0
 11
5.2800686135
 21
30.7863482776
 31
0.0
  0
SPLINE
  5
122
330
1F
100
AcDbEntity
  8
0
  6
Continuous
 62
     7
370
    15
100
AcDbSpline
210
0.0
220
0.0
230
1.0
 70
     8
 71
     3
 72
    11
 73
     7
 74
     0
 42
0.000000001
 43
0.00000001
 40
0.0
 40
0.0
 40
0.0
 40
0.0
 40
0.2799057403575099
 40
0.5597021222248216
 40
0.7795385895372281
 40
1.0
 40
1.0
 40
1.0
 40
1.0
 10
4.735134321932256
 20
30.61137813885877
 30
0.0
 10
4.782450771670757
 20
30.61532016802823
 30
0.0
 10
4.877065184726236
 20
30.62320268622592
 30
0.0
 10
5.000798461194409
 20
30.67697212969275
 30
0.0
 10
5.092037492597766
 20
30.75965568814237
 30
0.0
 10
5.134322428881582
 20
30.82103165903062
 30
0.0
 10
5.155494905890924
 20
30.85176320191
 30
0.0
  0
SPLINE
  5
123
330
1F
100
AcDbEntity
  8
0
  6
Continuous
 62
     7
370
    15
100
AcDbSpline
210
0.0
220
0.0
230
1.0
 70
     8
 71
     3
 72
    13
 73
     9
 74
     0
 42
0.000000001
 43
0.00000001
 40
0.0
 40
0.0
 40
0.0
 40
0.0
 40
0.1867249671507897
 40
0.3732520832041657
 40
0.559776325204148
 40
0.7064898706027474
 40
0.8531881807952278
 40
1.0
 40
1.0
 40
1.0
 40
1.0
 10
4.318530707906094
 20
31.03205551915777
 30
0.0
 10
4.321857504260295
 20
30.99095640720178
 30
0.0
 10
4.328507571943017
 20
30.90880173131942
 30
0.0
 10
4.380217174380914
 20
30.79436823971448
 30
0.0
 10
4.457273275166045
 20
30.70813137888607
 30
0.0
 10
4.545576240360613
 20
30.64900074770838
 30
0.0
 10
4.638265069179804
 20
30.616874823465
 30
0.0
 10
4.702836247155962
 20
30.61321083938437
 30
0.0
 10
4.735134321932261
 20
30.61137813885876
 30
0.0
  0
SPLINE
  5
124
330
1F
100
AcDbEntity
  8
0
  6
Continuous
 62
     7
370
    15
100
AcDbSpline
210
0.0
220
0.0
230
1.0
 70
     8
 71
     3
 72
    11
 73
     7
 74
     0
 42
0.000000001
 43
0.00000001
 40
0.0
 40
0.0
 40
0.0
 40
0.0
 40
0.2799616169457748
 40
0.5598116300305045
 40
0.7798826579081682
 40
1.0
 40
1.0
 40
1.0
 40
1.0
 10
-7.135733771453211
 20
31.51282095198113
 30
0.0
 10
-7.165651620513172
 20
31.51147794160382
 30
0.0
 10
-7.225475392185789
 20
31.50879245622664
 30
0.0
 10
-7.305775258168924
 20
31.48435847950669
 30
0.0
 10
-7.374880290411753
 20
31.44992591095966
 30
0.0
 10
-7.411594204262478
 20
31.42049409713773
 30
0.0
 10
-7.429953092606506
 20
31.40577664189946
 30
0.0
  0
SPLINE
  5
125
330
1F
100
AcDbEntity
  8
0
  6
Continuous
 62
     7
370
    15
100
AcDbSpline
210
0.0
220
0.0
230
1.0
 70
     8
 71
     3
 72
    12
 73
     8
 74
     0
 42
0.000000001
 43
0.00000001
 40
0.0
 40
0.0
 40
0.0
 40
0.0
 40
0.1869042091966898
 40
0.3734762394778302
 40
0.5600587594034386
 40
0.7800311866604017
 40
1.0
 40
1.0
 40
1.0
 40
1.0
 10
-6.699096895519665
 20
31.17227661931166
 30
0.0
 10
-6.709894308935772
 20
31.20812663162094
 30
0.0
 10
-6.731469945868014
 20
31.2797629411511
 30
0.0
 10
-6.793237613884445
 20
31.3757288779637
 30
0.0
 10
-6.887229152666565
 20
31.4500167218815
 30
0.0
 10
-7.003440347038604
 20
31.50255446883008
 30
0.0
 10
-7.091636204811308
 20
31.50939880967183
 30
0.0
 10
-7.135733771453211
 20
31.51282095198113
 30
0.0
  0
LINE
  5
126
330
1F
100
AcDbEntity
  8
0
  6
Continuous
 62
     7
370
    15
100
AcDbLine
 10
-7.5657953633
 20
31.1722766193
 30
0.0
 11
-6.6990968955
 21
31.1722766193
 31
0.0
  0
SPLINE
  5
127
330
1F
100
AcDbEntity
  8
0
  6
Continuous
 62
     7
370
    15
100
AcDbSpline
210
0.0
220
0.0
230
1.0
 70
     8
 71
     3
 72
    10
 73
     6
 74
     0
 42
0.000000001
 43
0.00000001
 40
0.0
 40
0.0
 40
0.0
 40
0.0
 40
0.2799246310530756
 40
0.5599727006229279
 40
1.0
 40
1.0
 40
1.0
 40
1.0
 10
-7.429953092606506
 20
31.40577664189946
 30
0.0
 10
-7.448105554307562
 20
31.3877288424708
 30
0.0
 10
-7.484418482410603
 20
31.35162528506554
 30
0.0
 10
-7.531380364338309
 20
31.27243987935114
 30
0.0
 10
-7.552741743622834
 20
31.21026857469235
 30
0.0
 10
-7.565795363345007
 20
31.17227661931166
 30
0.0
  0
SPLINE
  5
128
330
1F
100
AcDbEntity
  8
0
  6
Continuous
 62
     7
370
    15
100
AcDbSpline
210
0.0
220
0.0
230
1.0
 70
     8
 71
     3
 72
    13
 73
     9
 74
     0
 42
0.000000001
 43
0.00000001
 40
0.0
 40
0.0
 40
0.0
 40
0.0
 40
0.186628484924016
 40
0.3730671298539974
 40
0.5595105811612476
 40
0.7063467706958939
 40
0.8531779167664052
 40
1.0
 40
1.0
 40
1.0
 40
1.0
 10
0.0717373138924409
 20
31.05959568101147
 30
0.0
 10
0.0749634801617525
 20
31.01481389114261
 30
0.0
 10
0.0814125310181314
 20
30.92529586380127
 30
0.0
 10
0.1409330476532848
 20
30.8019831848349
 30
0.0
 10
0.2284713383995197
 20
30.71115861453623
 30
0.0
 10
0.3282448359600159
 20
30.65316989627513
 30
0.0
 10
0.4285572051349991
 20
30.61766494018307
 30
0.0
 10
0.4988793829300606
 20
30.61347369618295
 30
0.0
 10
0.5340393866727797
 20
30.61137813885876
 30
0.0
  0
SPLINE
  5
129
330
1F
100
AcDbEntity
  8
0
  6
Continuous
 62
     7
370
    15
100
AcDbSpline
210
0.0
220
0.0
230
1.0
 70
     8
 71
     3
 72
    13
 73
     9
 74
     0
 42
0.000000001
 43
0.00000001
 40
0.0
 40
0.0
 40
0.0
 40
0.0
 40
0.1864870643031604
 40
0.3730790549504169
 40
0.5595869916272472
 40
0.7063576483384342
 40
0.853169861459931
 40
1.0
 40
1.0
 40
1.0
 40
1.0
 10
0.9932110422826315
 20
31.06366475400518
 30
0.0
 10
0.9891892485210709
 20
31.10821150428685
 30
0.0
 10
0.9811433981486848
 20
31.19733006893522
 30
0.0
 10
0.9189617296556281
 20
31.31821463991239
 30
0.0
 10
0.8351604870854618
 20
31.41132868670913
 30
0.0
 10
0.736772047819483
 20
31.47118602586057
 30
0.0
 10
0.6369317810371207
 20
31.50689235733463
 30
0.0
 10
0.5668771027270323
 20
31.51084467334247
 30
0.0
 10
0.5318476253255271
 20
31.51282095198113
 30
0.0
  0
SPLINE
  5
12A
330
1F
100
AcDbEntity
  8
0
  6
Continuous
 62
     7
370
    15
100
AcDbSpline
210
0.0
220
0.0
230
1.0
 70
     8
 71
     3
 72
    13
 73
     9
 74
     0
 42
0.000000001
 43
0.00000001
 40
0.0
 40
0.0
 40
0.0
 40
0.0
 40
0.1865761434368577
 40
0.3731205801014116
 40
0.5596100479217577
 40
0.706422191541726
 40
0.8532211341931435
 40
1.0
 40
1.0
 40
1.0
 40
1.0
 10
0.5340393866727797
 20
30.61137813885876
 30
0.0
 10
0.5785341695063225
 20
30.61506888286294
 30
0.0
 10
0.6675161737246533
 20
30.62244974366581
 30
0.0
 10
0.7896386790190468
 20
30.68154107920857
 30
0.0
 10
0.8838275324563596
 20
30.76400231806484
 30
0.0
 10
0.9458338922833243
 20
30.86057037382594
 30
0.0
 10
0.9861227966799208
 20
30.95866427155854
 30
0.0
 10
0.9908484014713707
 20
31.02866618892517
 30
0.0
 10
0.9932110422826315
 20
31.06366475400518
 30
0.0
  0
SPLINE
  5
12B
330
1F
100
AcDbEntity
  8
0
  6
Continuous
 62
     7
370
    15
100
AcDbSpline
210
0.0
220
0.0
230
1.0
 70
     8
 71
     3
 72
    13
 73
     9
 74
     0
 42
0.000000001
 43
0.00000001
 40
0.0
 40
0.0
 40
0.0
 40
0.0
 40
0.1866518894918097
 40
0.3731418578334659
 40
0.5597306986709937
 40
0.7064677099216001
 40
0.8531679054750558
 40
1.0
 40
1.0
 40
1.0
 40
1.0
 10
0.5318476253255271
 20
31.51282095198113
 30
0.0
 10
0.4868965008145023
 20
31.50984793736668
 30
0.0
 10
0.3970332470461323
 20
31.50390448723811
 30
0.0
 10
0.2725542535000858
 20
31.44623994777904
 30
0.0
 10
0.1780748793635475
 20
31.36270339463801
 30
0.0
 10
0.1133658237564227
 20
31.26636925994252
 30
0.0
 10
0.077733588116915
 20
31.16537542071274
 30
0.0
 10
0.0737366706399649
 20
31.09486615537698
 30
0.0
 10
0.0717373138924409
 20
31.05959568101147
 30
0.0
  0
SPLINE
  5
12C
330
1F
100
AcDbEntity
  8
0
  6
Continuous
 62
     7
370
    15
100
AcDbSpline
210
0.0
220
0.0
230
1.0
 70
     8
 71
     3
 72
    11
 73
     7
 74
     0
 42
0.000000001
 43
0.00000001
 40
0.0
 40
0.0
 40
0.0
 40
0.0
 40
0.2799670226227391
 40
0.5598080920906036
 40
0.7798841546731453
 40
1.0
 40
1.0
 40
1.0
 40
1.0
 10
4.763305729827087
 20
31.51282095198113
 30
0.0
 10
4.733387042709427
 20
31.51147814186877
 30
0.0
 10
4.673563128463061
 20
31.50879312575508
 30
0.0
 10
4.593263179517068
 20
31.48435731565929
 30
0.0
 10
4.524157262292353
 20
31.44992665601415
 30
0.0
 10
4.48744290148486
 20
31.42049419993269
 30
0.0
 10
4.469084062034232
 20
31.40577664189946
 30
0.0
  0
LINE
  5
12D
330
1F
100
AcDbEntity
  8
0
  6
Continuous
 62
     7
370
    15
100
AcDbLine
 10
4.3332417913
 20
31.1722766193
 30
0.0
 11
5.1999426058
 21
31.1722766193
 31
0.0
  0
SPLINE
  5
12E
330
1F
100
AcDbEntity
  8
0
  6
Continuous
 62
     7
370
    15
100
AcDbSpline
210
0.0
220
0.0
230
1.0
 70
     8
 71
     3
 72
    10
 73
     6
 74
     0
 42
0.000000001
 43
0.00000001
 40
0.0
 40
0.0
 40
0.0
 40
0.0
 40
0.2799195611002601
 40
0.5599683869360332
 40
0.9999999999999999
 40
0.9999999999999999
 40
0.9999999999999999
 40
0.9999999999999999
 10
4.469084062034232
 20
31.40577664189946
 30
0.0
 10
4.450932496192888
 20
31.3877287278968
 30
0.0
 10
4.41462098225443
 20
31.35162456550133
 30
0.0
 10
4.367659199788422
 20
31.27243961955521
 30
0.0
 10
4.346296347319772
 20
31.21026854129186
 30
0.0
 10
4.333241791295737
 20
31.17227661931165
 30
0.0
  0
SPLINE
  5
12F
330
1F
100
AcDbEntity
  8
0
  6
Continuous
 62
     7
370
    15
100
AcDbSpline
210
0.0
220
0.0
230
1.0
 70
     8
 71
     3
 72
    12
 73
     8
 74
     0
 42
0.000000001
 43
0.00000001
 40
0.0
 40
0.0
 40
0.0
 40
0.0
 40
0.186904373987568
 40
0.373478715838113
 40
0.5600583715132796
 40
0.7800309927169153
 40
1.0
 40
1.0
 40
1.0
 40
1.0
 10
5.199942605760635
 20
31.17227661931165
 30
0.0
 10
5.189145391927285
 20
31.20812677869474
 30
0.0
 10
5.167570029772419
 20
31.27976379394129
 30
0.0
 10
5.105799302825075
 20
31.37572731260621
 30
0.0
 10
5.01181042851775
 20
31.45001765287552
 30
0.0
 10
4.895598982988965
 20
31.50255428815127
 30
0.0
 10
4.807403239385058
 20
31.50939874944589
 30
0.0
 10
4.763305729827082
 20
31.51282095198113
 30
0.0
  0
SPLINE
  5
130
330
1F
100
AcDbEntity
  8
0
  6
Continuous
 62
     7
370
    15
100
AcDbSpline
210
0.0
220
0.0
230
1.0
 70
     8
 71
     3
 72
    11
 73
     7
 74
     0
 42
0.000000001
 43
0.00000001
 40
0.0
 40
0.0
 40
0.0
 40
0.0
 40
0.2799670226227391
 40
0.5598080920906036
 40
0.7798841546731453
 40
1.0
 40
1.0
 40
1.0
 40
1.0
 10
-1.526758353482538
 20
31.51282095198113
 30
0.0
 10
-1.556677040600194
 20
31.51147814186877
 30
0.0
 10
-1.61650095484655
 20
31.50879312575508
 30
0.0
 10
-1.696800903792565
 20
31.48435731565929
 30
0.0
 10
-1.765906821017271
 20
31.44992665601415
 30
0.0
 10
-1.80262118182476
 20
31.42049419993269
 30
0.0
 10
-1.820980021275391
 20
31.40577664189946
 30
0.0
  0
LINE
  5
131
330
1F
100
AcDbEntity
  8
0
  6
Continuous
 62
     7
370
    15
100
AcDbLine
 10
-1.956822292
 20
31.1722766193
 30
0.0
 11
-1.0901238242
 21
31.1722766193
 31
0.0
  0
SPLINE
  5
132
330
1F
100
AcDbEntity
  8
0
  6
Continuous
 62
     7
370
    15
100
AcDbSpline
210
0.0
220
0.0
230
1.0
 70
     8
 71
     3
 72
    10
 73
     6
 74
     0
 42
0.000000001
 43
0.00000001
 40
0.0
 40
0.0
 40
0.0
 40
0.0
 40
0.2799195611002601
 40
0.5599683869360332
 40
0.9999999999999999
 40
0.9999999999999999
 40
0.9999999999999999
 40
0.9999999999999999
 10
-1.820980021275391
 20
31.40577664189946
 30
0.0
 10
-1.839131587116732
 20
31.3877287278968
 30
0.0
 10
-1.875443101055199
 20
31.35162456550133
 30
0.0
 10
-1.922404883521207
 20
31.27243961955521
 30
0.0
 10
-1.943767735989852
 20
31.21026854129186
 30
0.0
 10
-1.956822292013888
 20
31.17227661931165
 30
0.0
  0
SPLINE
  5
133
330
1F
100
AcDbEntity
  8
0
  6
Continuous
 62
     7
370
    15
100
AcDbSpline
210
0.0
220
0.0
230
1.0
 70
     8
 71
     3
 72
    12
 73
     8
 74
     0
 42
0.000000001
 43
0.00000001
 40
0.0
 40
0.0
 40
0.0
 40
0.0
 40
0.186903314024218
 40
0.3734778990958038
 40
0.5600577979989384
 40
0.7800307059621002
 40
0.9999999999999999
 40
0.9999999999999999
 40
0.9999999999999999
 40
0.9999999999999999
 10
-1.090123824188551
 20
31.17227661931166
 30
0.0
 10
-1.100920086100888
 20
31.20812683801357
 30
0.0
 10
-1.122493621263492
 20
31.27976422139987
 30
0.0
 10
-1.184264933830542
 20
31.37572725827718
 30
0.0
 10
-1.27825360565127
 20
31.45001767028554
 30
0.0
 10
-1.3944651134351
 20
31.50255428350496
 30
0.0
 10
-1.482660848296013
 20
31.50939874789712
 30
0.0
 10
-1.526758353482538
 20
31.51282095198113
 30
0.0
  0
SPLINE
  5
134
330
1F
100
AcDbEntity
  8
0
  6
Continuous
 62
     7
370
    15
100
AcDbSpline
210
0.0
220
0.0
230
1.0
 70
     8
 71
     3
 72
    13
 73
     9
 74
     0
 42
0.000000001
 43
0.00000001
 40
0.0
 40
0.0
 40
0.0
 40
0.0
 40
0.1865000950755345
 40
0.3730891936022905
 40
0.5596330586416003
 40
0.706447836500436
 40
0.8532289589721029
 40
1.0
 40
1.0
 40
1.0
 40
1.0
 10
1.514042998920753
 20
31.0636647540052
 30
0.0
 10
1.518112106329832
 20
31.01911283674395
 30
0.0
 10
1.526252263048371
 20
30.92998774070739
 30
0.0
 10
1.588694460650541
 20
30.80923501055756
 30
0.0
 10
1.672022235845393
 20
30.71583872536974
 30
0.0
 10
1.769610355930397
 20
30.65470029288879
 30
0.0
 10
1.869140586810851
 20
30.61802928688934
 30
0.0
 10
1.939151435058622
 20
30.61359513744171
 30
0.0
 10
1.974155656993402
 20
30.61137813885876
 30
0.0
  0
SPLINE
  5
135
330
1F
100
AcDbEntity
  8
0
  6
Continuous
 62
     7
370
    15
100
AcDbSpline
210
0.0
220
0.0
230
1.0
 70
     8
 71
     3
 72
    13
 73
     9
 74
     0
 42
0.000000001
 43
0.00000001
 40
0.0
 40
0.0
 40
0.0
 40
0.0
 40
0.1866181131147577
 40
0.3732105116632297
 40
0.5597147551511934
 40
0.7065158237984647
 40
0.8532925711413286
 40
1.0
 40
1.0
 40
1.0
 40
1.0
 10
1.975406415877862
 20
31.51282095198113
 30
0.0
 10
1.930838176083385
 20
31.50945426640202
 30
0.0
 10
1.841707837661223
 20
31.50272135914761
 30
0.0
 10
1.718341038507464
 20
31.44569730017281
 30
0.0
 10
1.623562830700199
 20
31.36354920340478
 30
0.0
 10
1.560466661056632
 20
31.26739990516504
 30
0.0
 10
1.521282841974626
 20
31.16869459767821
 30
0.0
 10
1.51645589991106
 20
31.09866918875943
 30
0.0
 10
1.514042998920757
 20
31.06366475400518
 30
0.0
  0
SPLINE
  5
136
330
1F
100
AcDbEntity
  8
0
  6
Continuous
 62
     7
370
    15
100
AcDbSpline
210
0.0
220
0.0
230
1.0
 70
     8
 71
     3
 72
    13
 73
     9
 74
     0
 42
0.000000001
 43
0.00000001
 40
0.0
 40
0.0
 40
0.0
 40
0.0
 40
0.1866594832230185
 40
0.3730897831266037
 40
0.5596905434938555
 40
0.7064195056478416
 40
0.8531579501361081
 40
1.0
 40
1.0
 40
1.0
 40
1.0
 10
2.435519073950506
 20
31.05959568101147
 30
0.0
 10
2.432358544931785
 20
31.10454599279134
 30
0.0
 10
2.426041367439381
 20
31.19439142568262
 30
0.0
 10
2.366250781160208
 20
31.3180969431741
 30
0.0
 10
2.280084856146808
 20
31.41017284184212
 30
0.0
 10
2.182442844467083
 20
31.47268461570692
 30
0.0
 10
2.081189202443904
 20
31.50723486682932
 30
0.0
 10
2.010675639544242
 20
31.51095848557205
 30
0.0
 10
1.975406415877862
 20
31.51282095198113
 30
0.0
  0
SPLINE
  5
137
330
1F
100
AcDbEntity
  8
0
  6
Continuous
 62
     7
370
    15
100
AcDbSpline
210
0.0
220
0.0
230
1.0
 70
     8
 71
     3
 72
    13
 73
     9
 74
     0
 42
0.000000001
 43
0.00000001
 40
0.0
 40
0.0
 40
0.0
 40
0.0
 40
0.1866289471938517
 40
0.373254567009422
 40
0.5596851610119811
 40
0.7064255317227085
 40
0.8531859696381413
 40
1.0
 40
1.0
 40
1.0
 40
1.0
 10
1.974155656993402
 20
30.61137813885876
 30
0.0
 10
2.018853343277005
 20
30.61483977755272
 30
0.0
 10
2.108247918936153
 20
30.62176299322361
 30
0.0
 10
2.231911381211107
 20
30.67826055012494
 30
0.0
 10
2.329532242031588
 20
30.7575705035495
 30
0.0
 10
2.393215001737383
 20
30.85414650485277
 30
0.0
 10
2.429820202663357
 20
30.95418792452663
 30
0.0
 10
2.433619219016136
 20
31.02445548636795
 30
0.0
 10
2.435519073950506
 20
31.05959568101147
 30
0.0
  0
SPLINE
  5
138
330
1F
100
AcDbEntity
  8
0
  6
Continuous
 62
     7
370
    15
100
AcDbSpline
210
0.0
220
0.0
230
1.0
 70
     8
 71
     3
 72
    13
 73
     9
 74
     0
 42
0.000000001
 43
0.00000001
 40
0.0
 40
0.0
 40
0.0
 40
0.0
 40
0.1866181131147577
 40
0.3732105116632297
 40
0.5597147551511934
 40
0.7065158237984647
 40
0.8532925711413286
 40
1.0
 40
1.0
 40
1.0
 40
1.0
 10
-4.394786021782176
 20
31.51282095198113
 30
0.0
 10
-4.439354261576653
 20
31.50945426640202
 30
0.0
 10
-4.528484599998814
 20
31.50272135914761
 30
0.0
 10
-4.651851399152573
 20
31.44569730017281
 30
0.0
 10
-4.746629606959842
 20
31.36354920340478
 30
0.0
 10
-4.809725776603396
 20
31.26739990516504
 30
0.0
 10
-4.848909595685419
 20
31.16869459767821
 30
0.0
 10
-4.853736537748977
 20
31.09866918875943
 30
0.0
 10
-4.85614943873928
 20
31.06366475400518
 30
0.0
  0
SPLINE
  5
139
330
1F
100
AcDbEntity
  8
0
  6
Continuous
 62
     7
370
    15
100
AcDbSpline
210
0.0
220
0.0
230
1.0
 70
     8
 71
     3
 72
    13
 73
     9
 74
     0
 42
0.000000001
 43
0.00000001
 40
0.0
 40
0.0
 40
0.0
 40
0.0
 40
0.1865002379751785
 40
0.3730909270314321
 40
0.5596327212247258
 40
0.7064476115756195
 40
0.8532288465135569
 40
0.9999999999999999
 40
0.9999999999999999
 40
0.9999999999999999
 40
0.9999999999999999
 10
-4.85614943873928
 20
31.06366475400518
 30
0.0
 10
-4.852080571847544
 20
31.01911270090368
 30
0.0
 10
-4.843940864697087
 20
30.92998698732144
 30
0.0
 10
-4.781494948029354
 20
30.80923651136283
 30
0.0
 10
-4.698170286179561
 20
30.71583801250959
 30
0.0
 10
-4.600581953888272
 20
30.65470039600372
 30
0.0
 10
-4.501051882803909
 20
30.61802926111512
 30
0.0
 10
-4.431041013252742
 20
30.61359512885051
 30
0.0
 10
-4.396036780666636
 20
30.61137813885876
 30
0.0
  0
SPLINE
  5
13A
330
1F
100
AcDbEntity
  8
0
  6
Continuous
 62
     7
370
    15
100
AcDbSpline
210
0.0
220
0.0
230
1.0
 70
     8
 71
     3
 72
    13
 73
     9
 74
     0
 42
0.000000001
 43
0.00000001
 40
0.0
 40
0.0
 40
0.0
 40
0.0
 40
0.1866289471938517
 40
0.373254567009422
 40
0.5596851610119811
 40
0.7064255317227085
 40
0.8531859696381413
 40
1.0
 40
1.0
 40
1.0
 40
1.0
 10
-4.396036780666636
 20
30.61137813885876
 30
0.0
 10
-4.351339094383036
 20
30.61483977755272
 30
0.0
 10
-4.26194451872388
 20
30.62176299322361
 30
0.0
 10
-4.138281056448935
 20
30.67826055012494
 30
0.0
 10
-4.04066019562844
 20
30.7575705035495
 30
0.0
 10
-3.976977435922659
 20
30.85414650485277
 30
0.0
 10
-3.94037223499668
 20
30.95418792452663
 30
0.0
 10
-3.936573218643901
 20
31.02445548636795
 30
0.0
 10
-3.934673363709531
 20
31.05959568101147
 30
0.0
  0
SPLINE
  5
13B
330
1F
100
AcDbEntity
  8
0
  6
Continuous
 62
     7
370
    15
100
AcDbSpline
210
0.0
220
0.0
230
1.0
 70
     8
 71
     3
 72
    13
 73
     9
 74
     0
 42
0.000000001
 43
0.00000001
 40
0.0
 40
0.0
 40
0.0
 40
0.0
 40
0.1866594832230185
 40
0.3730897831266037
 40
0.5596905434938555
 40
0.7064195056478416
 40
0.8531579501361081
 40
1.0
 40
1.0
 40
1.0
 40
1.0
 10
-3.934673363709531
 20
31.05959568101147
 30
0.0
 10
-3.937833892728252
 20
31.10454599279134
 30
0.0
 10
-3.944151070220652
 20
31.19439142568262
 30
0.0
 10
-4.003941656499833
 20
31.3180969431741
 30
0.0
 10
-4.090107581513234
 20
31.41017284184212
 30
0.0
 10
-4.18774959319295
 20
31.47268461570692
 30
0.0
 10
-4.289003235216137
 20
31.50723486682932
 30
0.0
 10
-4.3595167981158
 20
31.51095848557205
 30
0.0
 10
-4.394786021782176
 20
31.51282095198113
 30
0.0
  0
INSERT
  5
147
330
1F
100
AcDbEntity
  8
0
  6
Continuous
 62
     7
370
     0
100
AcDbBlockReference
  2
SW_CENTERMARKSYMBOL_0
 10
20.6927160882
 20
4.4211184211
 30
0.0
  0
INSERT
  5
153
330
1F
100
AcDbEntity
  8
0
  6
Continuous
 62
     7
370
     0
100
AcDbBlockReference
  2
SW_CENTERMARKSYMBOL_1
 10
8.6927160882
 20
4.4211184211
 30
0.0
  0
INSERT
  5
15F
330
1F
100
AcDbEntity
  8
0
  6
Continuous
 62
     7
370
     0
100
AcDbBlockReference
  2
SW_CENTERMARKSYMBOL_2
 10
-3.3072839118
 20
4.4211184211
 30
0.0
  0
ENDSEC
  0
SECTION
  2
OBJECTS
  0
DICTIONARY
  5
C
330
0
100
AcDbDictionary
281
     1
  3
ACAD_GROUP
350
D
  3
ACAD_LAYOUT
350
1A
  3
ACAD_MLINESTYLE
350
17
  3
ACAD_PLOTSETTINGS
350
19
  3
ACAD_PLOTSTYLENAME
350
E
  3
ACAD_SCALELIST
350
47
  0
DICTIONARY
  5
D
102
{ACAD_REACTORS
330
C
102
}
330
C
100
AcDbDictionary
281
     1
  0
DICTIONARY
  5
1A
102
{ACAD_REACTORS
330
C
102
}
330
C
100
AcDbDictionary
281
     1
  3
Layout1
350
1E
  3
Layout2
350
26
  3
Model
350
22
  0
DICTIONARY
  5
17
102
{ACAD_REACTORS
330
C
102
}
330
C
100
AcDbDictionary
281
     1
  3
Standard
350
18
  0
DICTIONARY
  5
19
102
{ACAD_REACTORS
330
C
102
}
330
C
100
AcDbDictionary
281
     1
  0
ACDBDICTIONARYWDFLT
  5
E
102
{ACAD_REACTORS
330
C
102
}
330
C
100
AcDbDictionary
281
     1
  3
Normal
350
F
100
AcDbDictionaryWithDefault
340
F
  0
DICTIONARY
  5
47
102
{ACAD_REACTORS
330
C
102
}
330
C
100
AcDbDictionary
281
     1
  3
A0
350
48
  3
A1
350
49
  3
A2
350
4A
  3
A3
350
4B
  3
A4
350
4C
  3
A5
350
4D
  3
A6
350
4E
  3
A7
350
4F
  3
A8
350
50
  3
A9
350
51
  3
B0
350
52
  3
B1
350
53
  3
B2
350
54
  3
B3
350
55
  3
B4
350
56
  3
B5
350
57
  3
B6
350
58
  3
B7
350
59
  3
B8
350
5A
  3
B9
350
5B
  3
C0
350
5C
  3
C1
350
5D
  3
C2
350
5E
  3
C3
350
5F
  3
C4
350
60
  3
C5
350
61
  3
C6
350
62
  3
C7
350
63
  3
C8
350
64
  3
C9
350
65
  3
D0
350
66
  3
D1
350
67
  3
D2
350
68
  0
LAYOUT
  5
1E
102
{ACAD_REACTORS
330
1A
102
}
330
1A
100
AcDbPlotSettings
  1

  2
none_device
  4

  6

 40
0.0
 41
0.0
 42
0.0
 43
0.0
 44
0.0
 45
0.0
 46
0.0
 47
0.0
 48
0.0
 49
0.0
140
0.0
141
0.0
142
1.0
143
1.0
 70
   688
 72
     0
 73
     0
 74
     5
  7

 75
    16
147
1.0
148
0.0
149
0.0
100
AcDbLayout
  1
Layout1
 70
     1
 71
     1
 10
0.0
 20
0.0
 11
12.0
 21
9.0
 12
0.0
 22
0.0
 32
0.0
 14
1.0000000000E+20
 24
1.0000000000E+20
 34
1.0000000000E+20
 15
-1.0000000000E+20
 25
-1.0000000000E+20
 35
-1.0000000000E+20
146
0.0
 13
0.0
 23
0.0
 33
0.0
 16
1.0
 26
0.0
 36
0.0
 17
0.0
 27
1.0
 37
0.0
 76
     0
330
1B
  0
LAYOUT
  5
26
102
{ACAD_REACTORS
330
1A
102
}
330
1A
100
AcDbPlotSettings
  1

  2
none_device
  4

  6

 40
0.0
 41
0.0
 42
0.0
 43
0.0
 44
0.0
 45
0.0
 46
0.0
 47
0.0
 48
0.0
 49
0.0
140
0.0
141
0.0
142
1.0
143
1.0
 70
   688
 72
     0
 73
     0
 74
     5
  7

 75
    16
147
1.0
148
0.0
149
0.0
100
AcDbLayout
  1
Layout2
 70
     1
 71
     2
 10
0.0
 20
0.0
 11
0.0
 21
0.0
 12
0.0
 22
0.0
 32
0.0
 14
0.0
 24
0.0
 34
0.0
 15
0.0
 25
0.0
 35
0.0
146
0.0
 13
0.0
 23
0.0
 33
0.0
 16
1.0
 26
0.0
 36
0.0
 17
0.0
 27
1.0
 37
0.0
 76
     0
330
23
  0
LAYOUT
  5
22
102
{ACAD_REACTORS
330
1A
102
}
330
1A
100
AcDbPlotSettings
  1

  2
none_device
  4
Letter_(8.50_x_11.00_Inches)
  6

 40
6.35
 41
6.35
 42
6.35000508
 43
6.35000508
 44
215.9
 45
279.4
 46
0.0
 47
0.0
 48
0.0
 49
0.0
140
0.0
141
0.0
142
1.0
143
1.0
 70
  1712
 72
     0
 73
     0
 74
     0
  7

 75
     0
147
1.0
148
0.0
149
0.0
100
AcDbLayout
  1
Model
 70
     1
 71
     0
 10
0.0
 20
0.0
 11
11.0
 21
8.5
 12
0.0
 22
0.0
 32
0.0
 14
0.0
 24
0.0
 34
0.0
 15
11.0
 25
8.5
 35
0.0
146
0.0
 13
0.0
 23
0.0
 33
0.0
 16
1.0
 26
0.0
 36
0.0
 17
0.0
 27
1.0
 37
0.0
 76
     0
330
1F
331
29
  0
MLINESTYLE
  5
18
102
{ACAD_REACTORS
330
17
102
}
330
17
100
AcDbMlineStyle
  2
Standard
 70
     0
  3

 62
   256
 51
90.0
 52
90.0
 71
     2
 49
0.5
 62
   256
  6
BYLAYER
 49
-0.5
 62
   256
  6
BYLAYER
  0
ACDBPLACEHOLDER
  5
F
102
{ACAD_REACTORS
330
E
102
}
330
E
  0
SCALE
  5
48
102
{ACAD_REACTORS
330
47
102
}
330
47
100
AcDbScale
 70
     0
300
1:1
140
1.0
141
1.0
290
     1
  0
SCALE
  5
49
102
{ACAD_REACTORS
330
47
102
}
330
47
100
AcDbScale
 70
     0
300
1:2
140
1.0
141
2.0
290
     0
  0
SCALE
  5
4A
102
{ACAD_REACTORS
330
47
102
}
330
47
100
AcDbScale
 70
     0
300
1:4
140
1.0
141
4.0
290
     0
  0
SCALE
  5
4B
102
{ACAD_REACTORS
330
47
102
}
330
47
100
AcDbScale
 70
     0
300
1:5
140
1.0
141
5.0
290
     0
  0
SCALE
  5
4C
102
{ACAD_REACTORS
330
47
102
}
330
47
100
AcDbScale
 70
     0
300
1:8
140
1.0
141
8.0
290
     0
  0
SCALE
  5
4D
102
{ACAD_REACTORS
330
47
102
}
330
47
100
AcDbScale
 70
     0
300
1:10
140
1.0
141
10.0
290
     0
  0
SCALE
  5
4E
102
{ACAD_REACTORS
330
47
102
}
330
47
100
AcDbScale
 70
     0
300
1:16
140
1.0
141
16.0
290
     0
  0
SCALE
  5
4F
102
{ACAD_REACTORS
330
47
102
}
330
47
100
AcDbScale
 70
     0
300
1:20
140
1.0
141
20.0
290
     0
  0
SCALE
  5
50
102
{ACAD_REACTORS
330
47
102
}
330
47
100
AcDbScale
 70
     0
300
1:30
140
1.0
141
30.0
290
     0
  0
SCALE
  5
51
102
{ACAD_REACTORS
330
47
102
}
330
47
100
AcDbScale
 70
     0
300
1:40
140
1.0
141
40.0
290
     0
  0
SCALE
  5
52
102
{ACAD_REACTORS
330
47
102
}
330
47
100
AcDbScale
 70
     0
300
1:50
140
1.0
141
50.0
290
     0
  0
SCALE
  5
53
102
{ACAD_REACTORS
330
47
102
}
330
47
100
AcDbScale
 70
     0
300
1:100
140
1.0
141
100.0
290
     0
  0
SCALE
  5
54
102
{ACAD_REACTORS
330
47
102
}
330
47
100
AcDbScale
 70
     0
300
2:1
140
2.0
141
1.0
290
     0
  0
SCALE
  5
55
102
{ACAD_REACTORS
330
47
102
}
330
47
100
AcDbScale
 70
     0
300
4:1
140
4.0
141
1.0
290
     0
  0
SCALE
  5
56
102
{ACAD_REACTORS
330
47
102
}
330
47
100
AcDbScale
 70
     0
300
8:1
140
8.0
141
1.0
290
     0
  0
SCALE
  5
57
102
{ACAD_REACTORS
330
47
102
}
330
47
100
AcDbScale
 70
     0
300
10:1
140
10.0
141
1.0
290
     0
  0
SCALE
  5
58
102
{ACAD_REACTORS
330
47
102
}
330
47
100
AcDbScale
 70
     0
300
100:1
140
100.0
141
1.0
290
     0
  0
SCALE
  5
59
102
{ACAD_REACTORS
330
47
102
}
330
47
100
AcDbScale
 70
     0
300
1/128" = 1'-0"
140
0.0078125
141
12.0
290
     0
  0
SCALE
  5
5A
102
{ACAD_REACTORS
330
47
102
}
330
47
100
AcDbScale
 70
     0
300
1/64" = 1'-0"
140
0.015625
141
12.0
290
     0
  0
SCALE
  5
5B
102
{ACAD_REACTORS
330
47
102
}
330
47
100
AcDbScale
 70
     0
300
1/32" = 1'-0"
140
0.03125
141
12.0
290
     0
  0
SCALE
  5
5C
102
{ACAD_REACTORS
330
47
102
}
330
47
100
AcDbScale
 70
     0
300
1/16" = 1'-0"
140
0.0625
141
12.0
290
     0
  0
SCALE
  5
5D
102
{ACAD_REACTORS
330
47
102
}
330
47
100
AcDbScale
 70
     0
300
3/32" = 1'-0"
140
0.09375
141
12.0
290
     0
  0
SCALE
  5
5E
102
{ACAD_REACTORS
330
47
102
}
330
47
100
AcDbScale
 70
     0
300
1/8" = 1'-0"
140
0.125
141
12.0
290
     0
  0
SCALE
  5
5F
102
{ACAD_REACTORS
330
47
102
}
330
47
100
AcDbScale
 70
     0
300
3/16" = 1'-0"
140
0.1875
141
12.0
290
     0
  0
SCALE
  5
60
102
{ACAD_REACTORS
330
47
102
}
330
47
100
AcDbScale
 70
     0
300
1/4" = 1'-0"
140
0.25
141
12.0
290
     0
  0
SCALE
  5
61
102
{ACAD_REACTORS
330
47
102
}
330
47
100
AcDbScale
 70
     0
300
3/8" = 1'-0"
140
0.375
141
12.0
290
     0
  0
SCALE
  5
62
102
{ACAD_REACTORS
330
47
102
}
330
47
100
AcDbScale
 70
     0
300
1/2" = 1'-0"
140
0.5
141
12.0
290
     0
  0
SCALE
  5
63
102
{ACAD_REACTORS
330
47
102
}
330
47
100
AcDbScale
 70
     0
300
3/4" = 1'-0"
140
0.75
141
12.0
290
     0
  0
SCALE
  5
64
102
{ACAD_REACTORS
330
47
102
}
330
47
100
AcDbScale
 70
     0
300
1" = 1'-0"
140
1.0
141
12.0
290
     0
  0
SCALE
  5
65
102
{ACAD_REACTORS
330
47
102
}
330
47
100
AcDbScale
 70
     0
300
1-1/2" = 1'-0"
140
1.5
141
12.0
290
     0
  0
SCALE
  5
66
102
{ACAD_REACTORS
330
47
102
}
330
47
100
AcDbScale
 70
     0
300
3" = 1'-0"
140
3.0
141
12.0
290
     0
  0
SCALE
  5
67
102
{ACAD_REACTORS
330
47
102
}
330
47
100
AcDbScale
 70
     0
300
6" = 1'-0"
140
6.0
141
12.0
290
     0
  0
SCALE
  5
68
102
{ACAD_REACTORS
330
47
102
}
330
47
100
AcDbScale
 70
     0
300
1'-0" = 1'-0"
140
12.0
141
12.0
290
     0
  0
ENDSEC
  0
EOF
