  0
SECTION
  2
HEADER
  9
$ACADVER
  1
AC1015
  9
$ACADMAINTVER
 70
     6
  9
$DWGCODEPAGE
  3
ANSI_1252
  9
$INSBASE
 10
0.0
 20
0.0
 30
0.0
  9
$EXTMIN
 10
0.0
 20
0.0
 30
0.0
  9
$EXTMAX
 10
11.0
 20
8.5
 30
0.0
  9
$LIMMIN
 10
0.0
 20
0.0
  9
$LIMMAX
 10
11.0
 20
8.5
  9
$ORTHOMODE
 70
     0
  9
$REGENMODE
 70
     1
  9
$FILLMODE
 70
     1
  9
$QTEXTMODE
 70
     0
  9
$MIRRTEXT
 70
     1
  9
$LTSCALE
 40
1.0
  9
$ATTMODE
 70
     1
  9
$TEXTSIZE
 40
0.1377952756
  9
$TRACEWID
 40
0.05
  9
$TEXTSTYLE
  7
Standard
  9
$CLAYER
  8
0
  9
$CELTYPE
  6
ByLayer
  9
$CECOLOR
 62
   256
  9
$CELTSCALE
 40
1.0
  9
$DISPSILH
 70
     0
  9
$DIMSCALE
 40
1.0
  9
$DIMASZ
 40
0.13
  9
$DIMEXO
 40
0.0393700787
  9
$DIMDLI
 40
0.38
  9
$DIMRND
 40
0.0
  9
$DIMDLE
 40
0.0
  9
$DIMEXE
 40
0.0393700787
  9
$DIMTP
 40
0.0
  9
$DIMTM
 40
0.0
  9
$DIMTXT
 40
0.1377952756
  9
$DIMCEN
 40
0.09
  9
$DIMTSZ
 40
0.0
  9
$DIMTOL
 70
     0
  9
$DIMLIM
 70
     0
  9
$DIMTIH
 70
     1
  9
$DIMTOH
 70
     1
  9
$DIMSE1
 70
     0
  9
$DIMSE2
 70
     0
  9
$DIMTAD
 70
     1
  9
$DIMZIN
 70
     0
  9
$DIMBLK
  1

  9
$DIMASO
 70
     1
  9
$DIMSHO
 70
     1
  9
$DIMPOST
  1

  9
$DIMAPOST
  1

  9
$DIMALT
 70
     0
  9
$DIMALTD
 70
     2
  9
$DIMALTF
 40
25.4
  9
$DIMLFAC
 40
20.0
  9
$DIMTOFL
 70
     0
  9
$DIMTVP
 40
0.0
  9
$DIMTIX
 70
     0
  9
$DIMSOXD
 70
     0
  9
$DIMSAH
 70
     0
  9
$DIMBLK1
  1

  9
$DIMBLK2
  1

  9
$DIMSTYLE
  2
Standard
  9
$DIMCLRD
 70
     0
  9
$DIMCLRE
 70
     0
  9
$DIMCLRT
 70
     0
  9
$DIMTFAC
 40
1.0
  9
$DIMGAP
 40
0.06
  9
$DIMJUST
 70
     0
  9
$DIMSD1
 70
     0
  9
$DIMSD2
 70
     0
  9
$DIMTOLJ
 70
     1
  9
$DIMTZIN
 70
     0
  9
$DIMALTZ
 70
     0
  9
$DIMALTTZ
 70
     0
  9
$DIMUPT
 70
     0
  9
$DIMDEC
 70
     2
  9
$DIMTDEC
 70
     2
  9
$DIMALTU
 70
     2
  9
$DIMALTTD
 70
     2
  9
$DIMTXSTY
  7
Standard
  9
$DIMAUNIT
 70
     0
  9
$DIMADEC
 70
     2
  9
$DIMALTRND
 40
0.0
  9
$DIMAZIN
 70
     0
  9
$DIMDSEP
 70
    46
  9
$DIMATFIT
 70
     3
  9
$DIMFRAC
 70
     0
  9
$DIMLDRBLK
  1

  9
$DIMLUNIT
 70
     2
  9
$DIMLWD
 70
    -2
  9
$DIMLWE
 70
    -2
  9
$DIMTMOVE
 70
     0
  9
$LUNITS
 70
     2
  9
$LUPREC
 70
     2
  9
$SKETCHINC
 40
0.1
  9
$FILLETRAD
 40
0.5
  9
$AUNITS
 70
     0
  9
$AUPREC
 70
     2
  9
$MENU
  1
.
  9
$ELEVATION
 40
0.0
  9
$PELEVATION
 40
0.0
  9
$THICKNESS
 40
0.0
  9
$LIMCHECK
 70
     0
  9
$CHAMFERA
 40
0.0
  9
$CHAMFERB
 40
0.0
  9
$CHAMFERC
 40
0.0
  9
$CHAMFERD
 40
0.0
  9
$SKPOLY
 70
     0
  9
$TDCREATE
 40
2457223.76725838
  9
$TDUCREATE
 40
2457224.058925046
  9
$TDUPDATE
 40
2457223.767258739
  9
$TDUUPDATE
 40
2457224.058925405
  9
$TDINDWG
 40
0.0000000116
  9
$TDUSRTIMER
 40
0.0000000116
  9
$USRTIMER
 70
     1
  9
$ANGBASE
 50
0.0
  9
$ANGDIR
 70
     0
  9
$PDMODE
 70
     0
  9
$PDSIZE
 40
-1.0
  9
$PLINEWID
 40
0.0
  9
$SPLFRAME
 70
     0
  9
$SPLINETYPE
 70
     6
  9
$SPLINESEGS
 70
     8
  9
$HANDSEED
  5
172
  9
$SURFTAB1
 70
     6
  9
$SURFTAB2
 70
     6
  9
$SURFTYPE
 70
     6
  9
$SURFU
 70
     6
  9
$SURFV
 70
     6
  9
$UCSBASE
  2

  9
$UCSNAME
  2

  9
$UCSORG
 10
0.0
 20
0.0
 30
0.0
  9
$UCSXDIR
 10
1.0
 20
0.0
 30
0.0
  9
$UCSYDIR
 10
0.0
 20
1.0
 30
0.0
  9
$UCSORTHOREF
  2

  9
$UCSORTHOVIEW
 70
     0
  9
$UCSORGTOP
 10
0.0
 20
0.0
 30
0.0
  9
$UCSORGBOTTOM
 10
0.0
 20
0.0
 30
0.0
  9
$UCSORGLEFT
 10
0.0
 20
0.0
 30
0.0
  9
$UCSORGRIGHT
 10
0.0
 20
0.0
 30
0.0
  9
$UCSORGFRONT
 10
0.0
 20
0.0
 30
0.0
  9
$UCSORGBACK
 10
0.0
 20
0.0
 30
0.0
  9
$PUCSBASE
  2

  9
$PUCSNAME
  2

  9
$PUCSORG
 10
0.0
 20
0.0
 30
0.0
  9
$PUCSXDIR
 10
1.0
 20
0.0
 30
0.0
  9
$PUCSYDIR
 10
0.0
 20
1.0
 30
0.0
  9
$PUCSORTHOREF
  2

  9
$PUCSORTHOVIEW
 70
     0
  9
$PUCSORGTOP
 10
0.0
 20
0.0
 30
0.0
  9
$PUCSORGBOTTOM
 10
0.0
 20
0.0
 30
0.0
  9
$PUCSORGLEFT
 10
0.0
 20
0.0
 30
0.0
  9
$PUCSORGRIGHT
 10
0.0
 20
0.0
 30
0.0
  9
$PUCSORGFRONT
 10
0.0
 20
0.0
 30
0.0
  9
$PUCSORGBACK
 10
0.0
 20
0.0
 30
0.0
  9
$USERI1
 70
     0
  9
$USERI2
 70
     0
  9
$USERI3
 70
     0
  9
$USERI4
 70
     0
  9
$USERI5
 70
     0
  9
$USERR1
 40
0.0
  9
$USERR2
 40
0.0
  9
$USERR3
 40
0.0
  9
$USERR4
 40
0.0
  9
$USERR5
 40
0.0
  9
$WORLDVIEW
 70
     1
  9
$SHADEDGE
 70
     3
  9
$SHADEDIF
 70
    70
  9
$TILEMODE
 70
     1
  9
$MAXACTVP
 70
    64
  9
$PINSBASE
 10
0.0
 20
0.0
 30
0.0
  9
$PLIMCHECK
 70
     0
  9
$PEXTMIN
 10
1.0000000000E+20
 20
1.0000000000E+20
 30
1.0000000000E+20
  9
$PEXTMAX
 10
-1.0000000000E+20
 20
-1.0000000000E+20
 30
-1.0000000000E+20
  9
$PLIMMIN
 10
0.0
 20
0.0
  9
$PLIMMAX
 10
12.0
 20
9.0
  9
$UNITMODE
 70
     0
  9
$VISRETAIN
 70
     1
  9
$PLINEGEN
 70
     0
  9
$PSLTSCALE
 70
     1
  9
$TREEDEPTH
 70
  3020
  9
$CMLSTYLE
  2
Standard
  9
$CMLJUST
 70
     0
  9
$CMLSCALE
 40
1.0
  9
$PROXYGRAPHICS
 70
     1
  9
$MEASUREMENT
 70
     0
  9
$CELWEIGHT
370
    -1
  9
$ENDCAPS
280
     0
  9
$JOINSTYLE
280
     0
  9
$LWDISPLAY
290
     1
  9
$INSUNITS
 70
     1
  9
$HYPERLINKBASE
  1

  9
$STYLESHEET
  1

  9
$XEDIT
290
     1
  9
$CEPSNTYPE
380
     0
  9
$PSTYLEMODE
290
     1
  9
$FINGERPRINTGUID
  2
{7B6AEBE2-FE6E-4D2C-B137-DB92428AF840}
  9
$VERSIONGUID
  2
{FAEB1C32-E019-11D5-929B-00C0DF256EC4}
  9
$EXTNAMES
290
     1
  9
$PSVPSCALE
 40
0.0
  9
$OLESTARTUP
290
     0
  0
ENDSEC
  0
SECTION
  2
CLASSES
  0
CLASS
  1
ACDBDICTIONARYWDFLT
  2
AcDbDictionaryWithDefault
  3
ObjectDBX Classes
 90
        0
280
     0
281
     0
  0
CLASS
  1
VISUALSTYLE
  2
AcDbVisualStyle
  3
ObjectDBX Classes
 90
     4095
280
     0
281
     0
  0
CLASS
  1
MATERIAL
  2
AcDbMaterial
  3
ObjectDBX Classes
 90
     1153
280
     0
281
     0
  0
CLASS
  1
SCALE
  2
AcDbScale
  3
ObjectDBX Classes
 90
     1153
280
     0
281
     0
  0
CLASS
  1
SUN
  2
AcDbSun
  3
SCENEOE
 90
     1153
280
     0
281
     0
  0
CLASS
  1
ACDBPLACEHOLDER
  2
AcDbPlaceHolder
  3
ObjectDBX Classes
 90
        0
280
     0
281
     0
  0
CLASS
  1
LAYOUT
  2
AcDbLayout
  3
ObjectDBX Classes
 90
        0
280
     0
281
     0
  0
ENDSEC
  0
SECTION
  2
TABLES
  0
TABLE
  2
VPORT
  5
8
330
0
100
AcDbSymbolTable
 70
     1
  0
VPORT
  5
29
330
8
100
AcDbSymbolTableRecord
100
AcDbViewportTableRecord
  2
*Active
 70
     0
 10
0.0
 20
0.0
 11
1.0
 21
1.0
 12
5.5
 22
4.25
 13
0.0
 23
0.0
 14
0.5
 24
0.5
 15
0.5
 25
0.5
 16
0.0
 26
0.0
 36
1.0
 17
0.0
 27
0.0
 37
0.0
 40
8.5
 41
1.2941176471
 42
50.0
 43
0.0
 44
0.0
 50
0.0
 51
0.0
 71
     0
 72
  2000
 73
     1
 74
     3
 75
     0
 76
     0
 77
     0
 78
     0
281
     0
 65
     1
110
0.0
120
0.0
130
0.0
111
1.0
121
0.0
131
0.0
112
0.0
122
1.0
132
0.0
 79
     0
146
0.0
  0
ENDTAB
  0
TABLE
  2
LTYPE
  5
5
330
0
100
AcDbSymbolTable
 70
     6
  0
LTYPE
  5
14
330
5
100
AcDbSymbolTableRecord
100
AcDbLinetypeTableRecord
  2
ByBlock
 70
     0
  3

 72
    65
 73
     0
 40
0.0
  0
LTYPE
  5
15
330
5
100
AcDbSymbolTableRecord
100
AcDbLinetypeTableRecord
  2
ByLayer
 70
     0
  3

 72
    65
 73
     0
 40
0.0
  0
LTYPE
  5
16
330
5
100
AcDbSymbolTableRecord
100
AcDbLinetypeTableRecord
  2
Continuous
 70
     0
  3
Solid line
 72
    65
 73
     0
 40
0.0
  0
LTYPE
  5
6A
330
5
100
AcDbSymbolTableRecord
100
AcDbLinetypeTableRecord
  2
HIDDEN
 70
     0
  3
Hidden __ __ __ __ __ __ __ __ __ __ __ __ __ __
 72
    65
 73
     2
 40
0.075
 49
0.05
 74
     0
 49
-0.025
 74
     0
  0
LTYPE
  5
6B
330
5
100
AcDbSymbolTableRecord
100
AcDbLinetypeTableRecord
  2
PHANTOM
 70
     0
  3
Phantom ______  __  __  ______  __  __  ______
 72
    65
 73
     6
 40
0.5
 49
0.25
 74
     0
 49
-0.05
 74
     0
 49
0.05
 74
     0
 49
-0.05
 74
     0
 49
0.05
 74
     0
 49
-0.05
 74
     0
  0
LTYPE
  5
6C
330
5
100
AcDbSymbolTableRecord
100
AcDbLinetypeTableRecord
  2
CENTER
 70
     0
  3
Center ____ _ ____ _ ____ _ ____ _ ____ _ ____
 72
    65
 73
     4
 40
0.4
 49
0.25
 74
     0
 49
-0.05
 74
     0
 49
0.05
 74
     0
 49
-0.05
 74
     0
  0
LTYPE
  5
6D
330
5
100
AcDbSymbolTableRecord
100
AcDbLinetypeTableRecord
  2
CENTERX2
 70
     0
  3
Center (2x) ________  __  ________  __  _____
 72
    65
 73
     4
 40
0.8
 49
0.5
 74
     0
 49
-0.1
 74
     0
 49
0.1
 74
     0
 49
-0.1
 74
     0
  0
LTYPE
  5
6E
330
5
100
AcDbSymbolTableRecord
100
AcDbLinetypeTableRecord
  2
DOT2
 70
     0
  3
Dot (.5x) ........................................
 72
    65
 73
     2
 40
0.025
 49
0.0
 74
     0
 49
-0.025
 74
     0
  0
ENDTAB
  0
TABLE
  2
LAYER
  5
2
330
0
100
AcDbSymbolTable
 70
     1
  0
LAYER
  5
10
330
2
100
AcDbSymbolTableRecord
100
AcDbLayerTableRecord
  2
0
 70
     0
 62
     7
  6
Continuous
370
    -3
390
F
  0
ENDTAB
  0
TABLE
  2
STYLE
  5
3
330
0
100
AcDbSymbolTable
 70
     1
  0
STYLE
  5
11
330
3
100
AcDbSymbolTableRecord
100
AcDbTextStyleTableRecord
  2
Standard
 70
     0
 40
0.0
 41
1.0
 50
0.0
 71
     0
 42
0.1377952756
  3
txt
  4

  0
ENDTAB
  0
TABLE
  2
VIEW
  5
6
330
0
100
AcDbSymbolTable
 70
     0
  0
ENDTAB
  0
TABLE
  2
UCS
  5
7
330
0
100
AcDbSymbolTable
 70
     0
  0
ENDTAB
  0
TABLE
  2
APPID
  5
9
330
0
100
AcDbSymbolTable
 70
     1
  0
APPID
  5
12
330
9
100
AcDbSymbolTableRecord
100
AcDbRegAppTableRecord
  2
ACAD
 70
     0
  0
ENDTAB
  0
TABLE
  2
DIMSTYLE
  5
A
330
0
100
AcDbSymbolTable
 70
     1
100
AcDbDimStyleTable
  0
DIMSTYLE
105
27
330
A
100
AcDbSymbolTableRecord
100
AcDbDimStyleTableRecord
  2
Standard
 70
     0
178
     0
340
11
  0
ENDTAB
  0
TABLE
  2
BLOCK_RECORD
  5
1
330
0
100
AcDbSymbolTable
 70
     5
  0
BLOCK_RECORD
  5
1F
330
1
100
AcDbSymbolTableRecord
100
AcDbBlockTableRecord
  2
*Model_Space
340
22
  0
BLOCK_RECORD
  5
1B
330
1
100
AcDbSymbolTableRecord
100
AcDbBlockTableRecord
  2
*Paper_Space
340
1E
  0
BLOCK_RECORD
  5
23
330
1
100
AcDbSymbolTableRecord
100
AcDbBlockTableRecord
  2
*Paper_Space0
340
26
  0
BLOCK_RECORD
  5
142
330
1
100
AcDbSymbolTableRecord
100
AcDbBlockTableRecord
  2
SW_CENTERMARKSYMBOL_0
340
0
102
{BLKREFS
331
14D
102
}
  0
BLOCK_RECORD
  5
14E
330
1
100
AcDbSymbolTableRecord
100
AcDbBlockTableRecord
  2
SW_CENTERMARKSYMBOL_1
340
0
102
{BLKREFS
331
159
102
}
  0
BLOCK_RECORD
  5
15A
330
1
100
AcDbSymbolTableRecord
100
AcDbBlockTableRecord
  2
SW_CENTERMARKSYMBOL_2
340
0
102
{BLKREFS
331
165
102
}
  0
BLOCK_RECORD
  5
166
330
1
100
AcDbSymbolTableRecord
100
AcDbBlockTableRecord
  2
SW_CENTERMARKSYMBOL_3
340
0
102
{BLKREFS
331
171
102
}
  0
ENDTAB
  0
ENDSEC
  0
SECTION
  2
BLOCKS
  0
BLOCK
  5
20
330
1F
100
AcDbEntity
  8
0
100
AcDbBlockBegin
  2
*Model_Space
 70
     0
 10
0.0
 20
0.0
 30
0.0
  3
*Model_Space
  1
*Model_Space
  0
ENDBLK
  5
21
330
1F
100
AcDbEntity
  8
0
100
AcDbBlockEnd
  0
BLOCK
  5
1C
330
1B
100
AcDbEntity
 67
     1
  8
0
100
AcDbBlockBegin
  2
*Paper_Space
 70
     0
 10
0.0
 20
0.0
 30
0.0
  3
*Paper_Space
  1
*Paper_Space
  0
ENDBLK
  5
1D
330
1B
100
AcDbEntity
 67
     1
  8
0
100
AcDbBlockEnd
  0
BLOCK
  5
24
330
23
100
AcDbEntity
  8
0
100
AcDbBlockBegin
  2
*Paper_Space0
 70
     0
 10
0.0
 20
0.0
 30
0.0
  3
*Paper_Space0
  1
*Paper_Space0
  0
ENDBLK
  5
25
330
23
100
AcDbEntity
  8
0
100
AcDbBlockEnd
  0
BLOCK
  5
143
330
142
100
AcDbEntity
  8
0
100
AcDbBlockBegin
  2
SW_CENTERMARKSYMBOL_0
 70
     0
 10
0.0
 20
0.0
 30
0.0
  3
SW_CENTERMARKSYMBOL_0
  1
SW_CENTERMARKSYMBOL_0
  0
LINE
  5
145
330
142
100
AcDbEntity
  8
0
  6
Continuous
 62
     0
370
     0
100
AcDbLine
 10
0.0
 20
0.0
 30
0.0
 11
0.0
 21
0.0984251969
 31
0.0
  0
LINE
  5
146
330
142
100
AcDbEntity
  8
0
  6
Continuous
 62
     0
370
     0
100
AcDbLine
 10
0.0
 20
0.0
 30
0.0
 11
-0.0984251969
 21
0.0
 31
0.0
  0
LINE
  5
147
330
142
100
AcDbEntity
  8
0
  6
Continuous
 62
     0
370
     0
100
AcDbLine
 10
0.0
 20
0.0
 30
0.0
 11
0.0
 21
-0.0984251969
 31
0.0
  0
LINE
  5
148
330
142
100
AcDbEntity
  8
0
  6
Continuous
 62
     0
370
     0
100
AcDbLine
 10
0.0
 20
0.0
 30
0.0
 11
0.0984251969
 21
0.0
 31
0.0
  0
LINE
  5
149
330
142
100
AcDbEntity
  8
0
  6
Continuous
 62
     0
370
     0
100
AcDbLine
 10
0.0
 20
0.0984251969
 30
0.0
 11
0.0
 21
0.1924251969
 31
0.0
  0
LINE
  5
14A
330
142
100
AcDbEntity
  8
0
  6
Continuous
 62
     0
370
     0
100
AcDbLine
 10
-0.0984251969
 20
0.0
 30
0.0
 11
-0.1924251969
 21
0.0
 31
0.0
  0
LINE
  5
14B
330
142
100
AcDbEntity
  8
0
  6
Continuous
 62
     0
370
     0
100
AcDbLine
 10
0.0
 20
-0.0984251969
 30
0.0
 11
0.0
 21
-0.1924251969
 31
0.0
  0
LINE
  5
14C
330
142
100
AcDbEntity
  8
0
  6
Continuous
 62
     0
370
     0
100
AcDbLine
 10
0.0984251969
 20
0.0
 30
0.0
 11
0.1924251969
 21
0.0
 31
0.0
  0
ENDBLK
  5
144
330
142
100
AcDbEntity
  8
0
100
AcDbBlockEnd
  0
BLOCK
  5
14F
330
14E
100
AcDbEntity
  8
0
100
AcDbBlockBegin
  2
SW_CENTERMARKSYMBOL_1
 70
     0
 10
0.0
 20
0.0
 30
0.0
  3
SW_CENTERMARKSYMBOL_1
  1
SW_CENTERMARKSYMBOL_1
  0
LINE
  5
151
330
14E
100
AcDbEntity
  8
0
  6
Continuous
 62
     0
370
     0
100
AcDbLine
 10
0.0
 20
0.0
 30
0.0
 11
0.0
 21
0.0984251969
 31
0.0
  0
LINE
  5
152
330
14E
100
AcDbEntity
  8
0
  6
Continuous
 62
     0
370
     0
100
AcDbLine
 10
0.0
 20
0.0
 30
0.0
 11
-0.0984251969
 21
0.0
 31
0.0
  0
LINE
  5
153
330
14E
100
AcDbEntity
  8
0
  6
Continuous
 62
     0
370
     0
100
AcDbLine
 10
0.0
 20
0.0
 30
0.0
 11
0.0
 21
-0.0984251969
 31
0.0
  0
LINE
  5
154
330
14E
100
AcDbEntity
  8
0
  6
Continuous
 62
     0
370
     0
100
AcDbLine
 10
0.0
 20
0.0
 30
0.0
 11
0.0984251969
 21
0.0
 31
0.0
  0
LINE
  5
155
330
14E
100
AcDbEntity
  8
0
  6
Continuous
 62
     0
370
     0
100
AcDbLine
 10
0.0
 20
0.0984251969
 30
0.0
 11
0.0
 21
0.1924251969
 31
0.0
  0
LINE
  5
156
330
14E
100
AcDbEntity
  8
0
  6
Continuous
 62
     0
370
     0
100
AcDbLine
 10
-0.0984251969
 20
0.0
 30
0.0
 11
-0.1924251969
 21
0.0
 31
0.0
  0
LINE
  5
157
330
14E
100
AcDbEntity
  8
0
  6
Continuous
 62
     0
370
     0
100
AcDbLine
 10
0.0
 20
-0.0984251969
 30
0.0
 11
0.0
 21
-0.1924251969
 31
0.0
  0
LINE
  5
158
330
14E
100
AcDbEntity
  8
0
  6
Continuous
 62
     0
370
     0
100
AcDbLine
 10
0.0984251969
 20
0.0
 30
0.0
 11
0.1924251969
 21
0.0
 31
0.0
  0
ENDBLK
  5
150
330
14E
100
AcDbEntity
  8
0
100
AcDbBlockEnd
  0
BLOCK
  5
15B
330
15A
100
AcDbEntity
  8
0
100
AcDbBlockBegin
  2
SW_CENTERMARKSYMBOL_2
 70
     0
 10
0.0
 20
0.0
 30
0.0
  3
SW_CENTERMARKSYMBOL_2
  1
SW_CENTERMARKSYMBOL_2
  0
LINE
  5
15D
330
15A
100
AcDbEntity
  8
0
  6
Continuous
 62
     0
370
     0
100
AcDbLine
 10
0.0
 20
0.0
 30
0.0
 11
0.0
 21
0.0984251969
 31
0.0
  0
LINE
  5
15E
330
15A
100
AcDbEntity
  8
0
  6
Continuous
 62
     0
370
     0
100
AcDbLine
 10
0.0
 20
0.0
 30
0.0
 11
-0.0984251969
 21
0.0
 31
0.0
  0
LINE
  5
15F
330
15A
100
AcDbEntity
  8
0
  6
Continuous
 62
     0
370
     0
100
AcDbLine
 10
0.0
 20
0.0
 30
0.0
 11
0.0
 21
-0.0984251969
 31
0.0
  0
LINE
  5
160
330
15A
100
AcDbEntity
  8
0
  6
Continuous
 62
     0
370
     0
100
AcDbLine
 10
0.0
 20
0.0
 30
0.0
 11
0.0984251969
 21
0.0
 31
0.0
  0
LINE
  5
161
330
15A
100
AcDbEntity
  8
0
  6
Continuous
 62
     0
370
     0
100
AcDbLine
 10
0.0
 20
0.0984251969
 30
0.0
 11
0.0
 21
0.1924251969
 31
0.0
  0
LINE
  5
162
330
15A
100
AcDbEntity
  8
0
  6
Continuous
 62
     0
370
     0
100
AcDbLine
 10
-0.0984251969
 20
0.0
 30
0.0
 11
-0.1924251969
 21
0.0
 31
0.0
  0
LINE
  5
163
330
15A
100
AcDbEntity
  8
0
  6
Continuous
 62
     0
370
     0
100
AcDbLine
 10
0.0
 20
-0.0984251969
 30
0.0
 11
0.0
 21
-0.1924251969
 31
0.0
  0
LINE
  5
164
330
15A
100
AcDbEntity
  8
0
  6
Continuous
 62
     0
370
     0
100
AcDbLine
 10
0.0984251969
 20
0.0
 30
0.0
 11
0.1924251969
 21
0.0
 31
0.0
  0
ENDBLK
  5
15C
330
15A
100
AcDbEntity
  8
0
100
AcDbBlockEnd
  0
BLOCK
  5
167
330
166
100
AcDbEntity
  8
0
100
AcDbBlockBegin
  2
SW_CENTERMARKSYMBOL_3
 70
     0
 10
0.0
 20
0.0
 30
0.0
  3
SW_CENTERMARKSYMBOL_3
  1
SW_CENTERMARKSYMBOL_3
  0
LINE
  5
169
330
166
100
AcDbEntity
  8
0
  6
Continuous
 62
     0
370
     0
100
AcDbLine
 10
0.0
 20
0.0
 30
0.0
 11
0.0
 21
0.0984251969
 31
0.0
  0
LINE
  5
16A
330
166
100
AcDbEntity
  8
0
  6
Continuous
 62
     0
370
     0
100
AcDbLine
 10
0.0
 20
0.0
 30
0.0
 11
-0.0984251969
 21
0.0
 31
0.0
  0
LINE
  5
16B
330
166
100
AcDbEntity
  8
0
  6
Continuous
 62
     0
370
     0
100
AcDbLine
 10
0.0
 20
0.0
 30
0.0
 11
0.0
 21
-0.0984251969
 31
0.0
  0
LINE
  5
16C
330
166
100
AcDbEntity
  8
0
  6
Continuous
 62
     0
370
     0
100
AcDbLine
 10
0.0
 20
0.0
 30
0.0
 11
0.0984251969
 21
0.0
 31
0.0
  0
LINE
  5
16D
330
166
100
AcDbEntity
  8
0
  6
Continuous
 62
     0
370
     0
100
AcDbLine
 10
0.0
 20
0.0984251969
 30
0.0
 11
0.0
 21
0.1924251969
 31
0.0
  0
LINE
  5
16E
330
166
100
AcDbEntity
  8
0
  6
Continuous
 62
     0
370
     0
100
AcDbLine
 10
-0.0984251969
 20
0.0
 30
0.0
 11
-0.1924251969
 21
0.0
 31
0.0
  0
LINE
  5
16F
330
166
100
AcDbEntity
  8
0
  6
Continuous
 62
     0
370
     0
100
AcDbLine
 10
0.0
 20
-0.0984251969
 30
0.0
 11
0.0
 21
-0.1924251969
 31
0.0
  0
LINE
  5
170
330
166
100
AcDbEntity
  8
0
  6
Continuous
 62
     0
370
     0
100
AcDbLine
 10
0.0984251969
 20
0.0
 30
0.0
 11
0.1924251969
 21
0.0
 31
0.0
  0
ENDBLK
  5
168
330
166
100
AcDbEntity
  8
0
100
AcDbBlockEnd
  0
ENDSEC
  0
SECTION
  2
ENTITIES
  0
SPLINE
  5
6F
330
1F
100
AcDbEntity
  8
0
  6
Continuous
 62
     7
370
    15
100
AcDbSpline
210
0.0
220
0.0
230
1.0
 70
     8
 71
     3
 72
    14
 73
    10
 74
     0
 42
0.000000001
 43
0.00000001
 40
0.0
 40
0.0
 40
0.0
 40
0.0
 40
0.1669355233689716
 40
0.3337998880995952
 40
0.5002409411370841
 40
0.6251790163564915
 40
0.7501516712722528
 40
0.8750635894231983
 40
1.0
 40
1.0
 40
1.0
 40
1.0
 10
-17.31755043639855
 20
35.38855592111904
 30
0.0
 10
-17.2864964148809
 20
35.38906299523461
 30
0.0
 10
-17.22440160906342
 20
35.39007692731821
 30
0.0
 10
-17.13160070274012
 20
35.39896076819582
 30
0.0
 10
-17.04870607302616
 20
35.42281412879316
 30
0.0
 10
-16.98271070122208
 20
35.46551799740522
 30
0.0
 10
-16.93769981994288
 20
35.51980180876284
 30
0.0
 10
-16.90776302871085
 20
35.58428758024105
 30
0.0
 10
-16.90426091355215
 20
35.63095705372756
 30
0.0
 10
-16.90250968431807
 20
35.65429407795584
 30
0.0
  0
LINE
  5
70
330
1F
100
AcDbEntity
  8
0
  6
Continuous
 62
     7
370
    15
100
AcDbLine
 10
-17.6036292649
 20
35.3907476825
 30
0.0
 11
-17.3175504364
 21
35.3885559211
 31
0.0
  0
LINE
  5
71
330
1F
100
AcDbEntity
  8
0
  6
Continuous
 62
     7
370
    15
100
AcDbLine
 10
-17.6036292649
 20
35.9115796391
 30
0.0
 11
-17.6036292649
 21
35.3907476825
 31
0.0
  0
LINE
  5
72
330
1F
100
AcDbEntity
  8
0
  6
Continuous
 62
     7
370
    15
100
AcDbLine
 10
-17.3106607027
 20
35.9115796391
 30
0.0
 11
-17.6036292649
 21
35.9115796391
 31
0.0
  0
SPLINE
  5
73
330
1F
100
AcDbEntity
  8
0
  6
Continuous
 62
     7
370
    15
100
AcDbSpline
210
0.0
220
0.0
230
1.0
 70
     8
 71
     3
 72
    14
 73
    10
 74
     0
 42
0.000000001
 43
0.00000001
 40
0.0
 40
0.0
 40
0.0
 40
0.0
 40
0.12491645259356
 40
0.249841077025647
 40
0.3747932541091117
 40
0.499740329964155
 40
0.6661809828799622
 40
0.8330742540715615
 40
1.0
 40
1.0
 40
1.0
 40
1.0
 10
-16.90250968431808
 20
35.65429407795585
 30
0.0
 10
-16.90420139851078
 20
35.67717521294423
 30
0.0
 10
-16.90758493756546
 20
35.72293897976901
 30
0.0
 10
-16.93861753657749
 20
35.78536917740738
 30
0.0
 10
-16.98274906285563
 20
35.83810736078424
 30
0.0
 10
-17.0465999169733
 20
35.88135050678656
 30
0.0
 10
-17.12866489380696
 20
35.90234272532805
 30
0.0
 10
-17.21941193374514
 20
35.91061066021685
 30
0.0
 10
-17.28024247377076
 20
35.91125662519487
 30
0.0
 10
-17.31066070265601
 20
35.91157963910441
 30
0.0
  0
LINE
  5
74
330
1F
100
AcDbEntity
  8
0
  6
Continuous
 62
     7
370
    15
100
AcDbLine
 10
2.0678418352
 20
36.1118981783
 30
0.0
 11
2.0678418352
 21
34.5093357846
 31
0.0
  0
LINE
  5
75
330
1F
100
AcDbEntity
  8
0
  6
Continuous
 62
     7
370
    15
100
AcDbLine
 10
1.9276183884
 20
36.1118981783
 30
0.0
 11
2.0678418352
 21
36.1118981783
 31
0.0
  0
LINE
  5
76
330
1F
100
AcDbEntity
  8
0
  6
Continuous
 62
     7
370
    15
100
AcDbLine
 10
1.9276183884
 20
34.5093357846
 30
0.0
 11
1.9276183884
 21
36.1118981783
 31
0.0
  0
LINE
  5
77
330
1F
100
AcDbEntity
  8
0
  6
Continuous
 62
     7
370
    15
100
AcDbLine
 10
2.0678418352
 20
34.5093357846
 30
0.0
 11
1.9276183884
 21
34.5093357846
 31
0.0
  0
LINE
  5
78
330
1F
100
AcDbEntity
  8
0
  6
Continuous
 62
     7
370
    15
100
AcDbLine
 10
-0.6364842575
 20
34.9221847753
 30
0.0
 11
-0.6364842575
 21
34.5093357846
 31
0.0
  0
SPLINE
  5
79
330
1F
100
AcDbEntity
  8
0
  6
Continuous
 62
     7
370
    15
100
AcDbSpline
210
0.0
220
0.0
230
1.0
 70
     8
 71
     3
 72
    10
 73
     6
 74
     0
 42
0.000000001
 43
0.00000001
 40
0.0
 40
0.0
 40
0.0
 40
0.0
 40
0.2798744871408607
 40
0.5599234877568399
 40
1.0
 40
1.0
 40
1.0
 40
1.0
 10
-0.6148857870058753
 20
35.22861366211899
 30
0.0
 10
-0.6199794462915474
 20
35.20033342710103
 30
0.0
 10
-0.6301699409729885
 20
35.14375532315306
 30
0.0
 10
-0.635120341953193
 20
35.0411345235084
 30
0.0
 10
-0.6359669103613762
 20
34.96730363324331
 30
0.0
 10
-0.636484257498501
 20
34.92218477534497
 30
0.0
  0
SPLINE
  5
7A
330
1F
100
AcDbEntity
  8
0
  6
Continuous
 62
     7
370
    15
100
AcDbSpline
210
0.0
220
0.0
230
1.0
 70
     8
 71
     3
 72
    12
 73
     8
 74
     0
 42
0.000000001
 43
0.00000001
 40
0.0
 40
0.0
 40
0.0
 40
0.0
 40
0.1866981134154078
 40
0.3734042573719256
 40
0.5602157477031942
 40
0.780128139959125
 40
1.0
 40
1.0
 40
1.0
 40
1.0
 10
-0.2264535808745334
 20
35.53096878262017
 30
0.0
 10
-0.2593685932795539
 20
35.52877480255969
 30
0.0
 10
-0.3252000338797834
 20
35.52438674806795
 30
0.0
 10
-0.4178073716897231
 20
35.48587448121331
 30
0.0
 10
-0.5017249928708893
 20
35.42334521981276
 30
0.0
 10
-0.5757010578855171
 20
35.33868589024119
 30
0.0
 10
-0.6018250131939626
 20
35.26530215038344
 30
0.0
 10
-0.6148857870058753
 20
35.22861366211899
 30
0.0
  0
SPLINE
  5
7B
330
1F
100
AcDbEntity
  8
0
  6
Continuous
 62
     7
370
    15
100
AcDbSpline
210
0.0
220
0.0
230
1.0
 70
     8
 71
     3
 72
    12
 73
     8
 74
     0
 42
0.000000001
 43
0.00000001
 40
0.0
 40
0.0
 40
0.0
 40
0.0
 40
0.1868243635029014
 40
0.3735405222315627
 40
0.5600870792918703
 40
0.7798907642316778
 40
1.0
 40
1.0
 40
1.0
 40
1.0
 10
0.0680801899795456
 20
35.30623580542137
 30
0.0
 10
0.0612459820267884
 20
35.33059816797986
 30
0.0
 10
0.0475815243519728
 20
35.37930878292466
 30
0.0
 10
0.0059941266836205
 20
35.44402650299653
 30
0.0
 10
-0.0563129993253827
 20
35.49606524288702
 30
0.0
 10
-0.1371802750214595
 20
35.52664799869643
 30
0.0
 10
-0.1966820361877202
 20
35.52952785455732
 30
0.0
 10
-0.2264535808745377
 20
35.53096878262018
 30
0.0
  0
SPLINE
  5
7C
330
1F
100
AcDbEntity
  8
0
  6
Continuous
 62
     7
370
    15
100
AcDbSpline
210
0.0
220
0.0
230
1.0
 70
     8
 71
     3
 72
     9
 73
     5
 74
     0
 42
0.000000001
 43
0.00000001
 40
0.0
 40
0.0
 40
0.0
 40
0.0
 40
0.5602557914095225
 40
0.9999999999999999
 40
0.9999999999999999
 40
0.9999999999999999
 40
0.9999999999999999
 10
0.0846709316552153
 20
35.04644403322476
 30
0.0
 10
0.0849723229296901
 20
35.09519779958296
 30
0.0
 10
0.0855102759131136
 20
35.18221834824264
 30
0.0
 10
0.0734038990792543
 20
35.26835688343434
 30
0.0
 10
0.0680801899795456
 20
35.30623580542137
 30
0.0
  0
LINE
  5
7D
330
1F
100
AcDbEntity
  8
0
  6
Continuous
 62
     7
370
    15
100
AcDbLine
 10
0.0846709317
 20
34.5093357846
 30
0.0
 11
0.0846709317
 21
35.0464440332
 31
0.0
  0
LINE
  5
7E
330
1F
100
AcDbEntity
  8
0
  6
Continuous
 62
     7
370
    15
100
AcDbLine
 10
0.2248943784
 20
34.5093357846
 30
0.0
 11
0.0846709317
 21
34.5093357846
 31
0.0
  0
LINE
  5
7F
330
1F
100
AcDbEntity
  8
0
  6
Continuous
 62
     7
370
    15
100
AcDbLine
 10
0.2248943784
 20
35.0924569417
 30
0.0
 11
0.2248943784
 21
34.5093357846
 31
0.0
  0
SPLINE
  5
80
330
1F
100
AcDbEntity
  8
0
  6
Continuous
 62
     7
370
    15
100
AcDbSpline
210
0.0
220
0.0
230
1.0
 70
     8
 71
     3
 72
    23
 73
    19
 74
     0
 42
0.000000001
 43
0.00000001
 40
0.0
 40
0.0
 40
0.0
 40
0.0
 40
0.0772404236164758
 40
0.1511781404663799
 40
0.2234879838004007
 40
0.2955426441988638
 40
0.3669762546197829
 40
0.4371305254863837
 40
0.5070436156432699
 40
0.5785597335236764
 40
0.6166135446965532
 40
0.6587562369775286
 40
0.7044912261143988
 40
0.7548031149051471
 40
0.8093316253185673
 40
0.8682744554728182
 40
0.9320728834092954
 40
0.9999989174550802
 40
0.9999989174550802
 40
0.9999989174550802
 40
0.9999989174550802
 10
-0.202038830942808
 20
35.67119453482302
 30
0.0
 10
-0.1809090835693541
 20
35.67041542971534
 30
0.0
 10
-0.1395530711747995
 20
35.66889053308878
 30
0.0
 10
-0.0793396509149326
 20
35.65682951027135
 30
0.0
 10
-0.0231015287333561
 20
35.63622894994786
 30
0.0
 10
0.0289607729577645
 20
35.60800927566078
 30
0.0
 10
0.0758925646375093
 20
35.5729171000341
 30
0.0
 10
0.1171090161893871
 20
35.53203416174871
 30
0.0
 10
0.1511997516257941
 20
35.48500912458998
 30
0.0
 10
0.1740557172506687
 20
35.44138271555579
 30
0.0
 10
0.1891118099698507
 20
35.40268236096971
 30
0.0
 10
0.198590532074246
 20
35.36953649038988
 30
0.0
 10
0.2066400773686076
 20
35.33260874433226
 30
0.0
 10
0.2136185363050818
 20
35.2920107135044
 30
0.0
 10
0.2183404612458861
 20
35.24745794999889
 30
0.0
 10
0.2220646985366539
 20
35.19913308747525
 30
0.0
 10
0.2247337433328287
 20
35.14705207491684
 30
0.0
 10
0.2248396527223505
 20
35.11103155546177
 30
0.0
 10
0.2248942593950861
 20
35.09245694132971
 30
0.0
  0
SPLINE
  5
81
330
1F
100
AcDbEntity
  8
0
  6
Continuous
 62
     7
370
    15
100
AcDbSpline
210
0.0
220
0.0
230
1.0
 70
     8
 71
     3
 72
    11
 73
     7
 74
     0
 42
0.000000001
 43
0.00000001
 40
0.0
 40
0.0
 40
0.0
 40
0.0
 40
0.2801034689990481
 40
0.5597825500316693
 40
0.7798655739207324
 40
1.0
 40
1.0
 40
1.0
 40
1.0
 10
-0.636484257498501
 20
35.44520849333035
 30
0.0
 10
-0.6059860100621982
 20
35.4818791446012
 30
0.0
 10
-0.5450357234327736
 20
35.55516488702013
 30
0.0
 10
-0.4311836029107848
 20
35.62654478640967
 30
0.0
 10
-0.3141885262538535
 20
35.66517839324161
 30
0.0
 10
-0.2394251806180715
 20
35.66918902568155
 30
0.0
 10
-0.202039142912204
 20
35.67119457605317
 30
0.0
  0
LINE
  5
82
330
1F
100
AcDbEntity
  8
0
  6
Continuous
 62
     7
370
    15
100
AcDbLine
 10
-0.6364842575
 20
35.6511636608
 30
0.0
 11
-0.6364842575
 21
35.4452084933
 31
0.0
  0
LINE
  5
83
330
1F
100
AcDbEntity
  8
0
  6
Continuous
 62
     7
370
    15
100
AcDbLine
 10
-0.7767077043
 20
35.6511636608
 30
0.0
 11
-0.6364842575
 21
35.6511636608
 31
0.0
  0
LINE
  5
84
330
1F
100
AcDbEntity
  8
0
  6
Continuous
 62
     7
370
    15
100
AcDbLine
 10
-0.7767077043
 20
34.5093357846
 30
0.0
 11
-0.7767077043
 21
35.6511636608
 31
0.0
  0
LINE
  5
85
330
1F
100
AcDbEntity
  8
0
  6
Continuous
 62
     7
370
    15
100
AcDbLine
 10
-0.6364842575
 20
34.5093357846
 30
0.0
 11
-0.7767077043
 21
34.5093357846
 31
0.0
  0
LINE
  5
86
330
1F
100
AcDbEntity
  8
0
  6
Continuous
 62
     7
370
    15
100
AcDbLine
 10
-3.6012286752
 20
34.7162296079
 30
0.0
 11
-3.6012286752
 21
34.0886630976
 31
0.0
  0
SPLINE
  5
87
330
1F
100
AcDbEntity
  8
0
  6
Continuous
 62
     7
370
    15
100
AcDbSpline
210
0.0
220
0.0
230
1.0
 70
     8
 71
     3
 72
    11
 73
     7
 74
     0
 42
0.000000001
 43
0.00000001
 40
0.0
 40
0.0
 40
0.0
 40
0.0
 40
0.2798912717686409
 40
0.5596082749637611
 40
0.7797566760902453
 40
1.0
 40
1.0
 40
1.0
 40
1.0
 10
-3.135481735533054
 20
34.48930486934392
 30
0.0
 10
-3.185598310349306
 20
34.49259313918095
 30
0.0
 10
-3.285800255921919
 20
34.4991676314811
 30
0.0
 10
-3.416334049768039
 20
34.55392295908051
 30
0.0
 10
-3.521906072800641
 20
34.62861893906482
 30
0.0
 10
-3.574784008589836
 20
34.68702185552685
 30
0.0
 10
-3.601228675184663
 20
34.71622960788998
 30
0.0
  0
SPLINE
  5
88
330
1F
100
AcDbEntity
  8
0
  6
Continuous
 62
     7
370
    15
100
AcDbSpline
210
0.0
220
0.0
230
1.0
 70
     8
 71
     3
 72
    14
 73
    10
 74
     0
 42
0.000000001
 43
0.00000001
 40
0.0
 40
0.0
 40
0.0
 40
0.0
 40
0.1400521046995152
 40
0.2800143473979925
 40
0.4200057768498751
 40
0.5600768253386302
 40
0.7067222210561653
 40
0.8533091940829213
 40
1.0
 40
1.0
 40
1.0
 40
1.0
 10
-2.539529153361471
 20
35.08338013986904
 30
0.0
 10
-2.541920173191456
 20
35.03964971289036
 30
0.0
 10
-2.546700678695062
 20
34.95221691780215
 30
0.0
 10
-2.58966965687557
 20
34.82672919128929
 30
0.0
 10
-2.660225531719413
 20
34.71537595893231
 30
0.0
 10
-2.753969377233769
 20
34.61974850635809
 30
0.0
 10
-2.867240654850156
 20
34.54446701821824
 30
0.0
 10
-2.998079898857111
 20
34.49730713274219
 30
0.0
 10
-3.08967031433159
 20
34.49197291998993
 30
0.0
 10
-3.135481735533058
 20
34.48930486934393
 30
0.0
  0
SPLINE
  5
89
330
1F
100
AcDbEntity
  8
0
  6
Continuous
 62
     7
370
    15
100
AcDbSpline
210
0.0
220
0.0
230
1.0
 70
     8
 71
     3
 72
    14
 73
    10
 74
     0
 42
0.000000001
 43
0.00000001
 40
0.0
 40
0.0
 40
0.0
 40
0.0
 40
0.1400655067523658
 40
0.2800557769613357
 40
0.420047059599683
 40
0.5601065111181018
 40
0.7067525349892738
 40
0.8533368723192359
 40
1.0
 40
1.0
 40
1.0
 40
1.0
 10
-3.139865258227559
 20
35.67119457605317
 30
0.0
 10
-3.096224021769673
 20
35.66895387823296
 30
0.0
 10
-3.008964990855149
 20
35.66447368618909
 30
0.0
 10
-2.883674027435665
 20
35.62207770488553
 30
0.0
 10
-2.771643750743436
 20
35.55338632732334
 30
0.0
 10
-2.674416928403269
 20
35.46177438793976
 30
0.0
 10
-2.597149363092725
 20
35.35028954944698
 30
0.0
 10
-2.547605826885661
 20
35.22051971142878
 30
0.0
 10
-2.542221860061407
 20
35.12910151786698
 30
0.0
 10
-2.539529153361471
 20
35.08338013986904
 30
0.0
  0
SPLINE
  5
8A
330
1F
100
AcDbEntity
  8
0
  6
Continuous
 62
     7
370
    15
100
AcDbSpline
210
0.0
220
0.0
230
1.0
 70
     8
 71
     3
 72
    11
 73
     7
 74
     0
 42
0.000000001
 43
0.00000001
 40
0.0
 40
0.0
 40
0.0
 40
0.0
 40
0.280016058122311
 40
0.559587870157177
 40
0.7797650287037415
 40
0.9999999999999999
 40
0.9999999999999999
 40
0.9999999999999999
 40
0.9999999999999999
 10
-3.601228675184663
 20
35.43988631481261
 30
0.0
 10
-3.569195574311088
 20
35.47877736276186
 30
0.0
 10
-3.505180193148405
 20
35.55649775792791
 30
0.0
 10
-3.382557378724904
 20
35.62842554093749
 30
0.0
 10
-3.258263772211639
 20
35.66587608438675
 30
0.0
 10
-3.179334883211677
 20
35.66942159035859
 30
0.0
 10
-3.139865258227559
 20
35.67119457605317
 30
0.0
  0
LINE
  5
8B
330
1F
100
AcDbEntity
  8
0
  6
Continuous
 62
     7
370
    15
100
AcDbLine
 10
-3.6012286752
 20
35.6511636608
 30
0.0
 11
-3.6012286752
 21
35.4398863148
 31
0.0
  0
LINE
  5
8C
330
1F
100
AcDbEntity
  8
0
  6
Continuous
 62
     7
370
    15
100
AcDbLine
 10
-3.741452122
 20
35.6511636608
 30
0.0
 11
-3.6012286752
 21
35.6511636608
 31
0.0
  0
LINE
  5
8D
330
1F
100
AcDbEntity
  8
0
  6
Continuous
 62
     7
370
    15
100
AcDbLine
 10
-3.741452122
 20
34.0886630976
 30
0.0
 11
-3.741452122
 21
35.6511636608
 31
0.0
  0
LINE
  5
8E
330
1F
100
AcDbEntity
  8
0
  6
Continuous
 62
     7
370
    15
100
AcDbLine
 10
-3.6012286752
 20
34.0886630976
 30
0.0
 11
-3.741452122
 21
34.0886630976
 31
0.0
  0
SPLINE
  5
8F
330
1F
100
AcDbEntity
  8
0
  6
Continuous
 62
     7
370
    15
100
AcDbSpline
210
0.0
220
0.0
230
1.0
 70
     8
 71
     3
 72
    14
 73
    10
 74
     0
 42
0.000000001
 43
0.00000001
 40
0.0
 40
0.0
 40
0.0
 40
0.0
 40
0.1400867376678806
 40
0.2801209923589029
 40
0.420117087744543
 40
0.5601717700679131
 40
0.7068046563949242
 40
0.8533526963814082
 40
1.0
 40
1.0
 40
1.0
 40
1.0
 10
-6.559400155468626
 20
34.48930486934392
 30
0.0
 10
-6.603966591154459
 20
34.49133255465657
 30
0.0
 10
-6.69308276587623
 20
34.49538716561712
 30
0.0
 10
-6.822700648467461
 20
34.53245219178987
 30
0.0
 10
-6.940930955169815
 20
34.59653876891024
 30
0.0
 10
-7.04346337411082
 20
34.68688461395589
 30
0.0
 10
-7.125464760655397
 20
34.79871685736087
 30
0.0
 10
-7.178197784294317
 20
34.93070749506307
 30
0.0
 10
-7.184043045622595
 20
35.02413093606101
 30
0.0
 10
-7.186966665766747
 20
35.07085847118709
 30
0.0
  0
SPLINE
  5
90
330
1F
100
AcDbEntity
  8
0
  6
Continuous
 62
     7
370
    15
100
AcDbSpline
210
0.0
220
0.0
230
1.0
 70
     8
 71
     3
 72
    12
 73
     8
 74
     0
 42
0.000000001
 43
0.00000001
 40
0.0
 40
0.0
 40
0.0
 40
0.0
 40
0.1866198857477528
 40
0.373252835794431
 40
0.5599448985431611
 40
0.7799107511665201
 40
1.0
 40
1.0
 40
1.0
 40
1.0
 10
-6.025107874325317
 20
34.75285126483347
 30
0.0
 10
-6.048223328954789
 20
34.72172386469317
 30
0.0
 10
-6.094455856407866
 20
34.65946688534328
 30
0.0
 10
-6.187058032378456
 20
34.58764497227384
 30
0.0
 10
-6.296433714599011
 20
34.53094425592835
 30
0.0
 10
-6.422597128006406
 20
34.4952180126685
 30
0.0
 10
-6.513790622433815
 20
34.49127628555308
 30
0.0
 10
-6.559400155468626
 20
34.48930486934392
 30
0.0
  0
LINE
  5
91
330
1F
100
AcDbEntity
  8
0
  6
Continuous
 62
     7
370
    15
100
AcDbLine
 10
-6.1424820917
 20
34.829849202
 30
0.0
 11
-6.0251078743
 21
34.7528512648
 31
0.0
  0
SPLINE
  5
92
330
1F
100
AcDbEntity
  8
0
  6
Continuous
 62
     7
370
    15
100
AcDbSpline
210
0.0
220
0.0
230
1.0
 70
     8
 71
     3
 72
    11
 73
     7
 74
     0
 42
0.000000001
 43
0.00000001
 40
0.0
 40
0.0
 40
0.0
 40
0.0
 40
0.2799554211638787
 40
0.5597166753128211
 40
0.7798394435360754
 40
1.0
 40
1.0
 40
1.0
 40
1.0
 10
-6.557208394121373
 20
34.62952596949781
 30
0.0
 10
-6.512579069386881
 20
34.6322178176431
 30
0.0
 10
-6.423351373212977
 20
34.63759964696455
 30
0.0
 10
-6.306419133800255
 20
34.68460135772374
 30
0.0
 10
-6.212076507806675
 20
34.75090346935662
 30
0.0
 10
-6.165681557744674
 20
34.80353245213016
 30
0.0
 10
-6.142482091741675
 20
34.82984920201339
 30
0.0
  0
SPLINE
  5
93
330
1F
100
AcDbEntity
  8
0
  6
Continuous
 62
     7
370
    15
100
AcDbSpline
210
0.0
220
0.0
230
1.0
 70
     8
 71
     3
 72
    13
 73
     9
 74
     0
 42
0.000000001
 43
0.00000001
 40
0.0
 40
0.0
 40
0.0
 40
0.0
 40
0.1864660749549075
 40
0.3729893827173759
 40
0.5594736873763045
 40
0.706287575363019
 40
0.853119058267506
 40
1.0
 40
1.0
 40
1.0
 40
1.0
 10
-7.046740872333745
 20
35.08338013986904
 30
0.0
 10
-7.042460211076892
 20
35.03703998438963
 30
0.0
 10
-7.033897574682006
 20
34.94434545005424
 30
0.0
 10
-6.967316739234339
 20
34.819226196744
 30
0.0
 10
-6.876393156665044
 20
34.72568671203097
 30
0.0
 10
-6.77162703139857
 20
34.66747248592814
 30
0.0
 10
-6.666485340647182
 20
34.63468535585336
 30
0.0
 10
-6.593638131926149
 20
34.63124595800537
 30
0.0
 10
-6.557208394121382
 20
34.62952596949781
 30
0.0
  0
SPLINE
  5
94
330
1F
100
AcDbEntity
  8
0
  6
Continuous
 62
     7
370
    15
100
AcDbSpline
210
0.0
220
0.0
230
1.0
 70
     8
 71
     3
 72
    13
 73
     9
 74
     0
 42
0.000000001
 43
0.00000001
 40
0.0
 40
0.0
 40
0.0
 40
0.0
 40
0.1867486968738745
 40
0.3732681755108777
 40
0.5598328129118305
 40
0.7065819508148611
 40
0.853239721487532
 40
1.0
 40
1.0
 40
1.0
 40
1.0
 10
-6.558147049944608
 20
35.53096878262017
 30
0.0
 10
-6.604196584687934
 20
35.52824575312097
 30
0.0
 10
-6.696239132263884
 20
35.52280303641105
 30
0.0
 10
-6.826034604690997
 20
35.46974640051216
 30
0.0
 10
-6.927018767421301
 20
35.38892147256826
 30
0.0
 10
-6.998433722778979
 20
35.29389062485011
 30
0.0
 10
-7.039887972015336
 20
35.19188681440784
 30
0.0
 10
-7.044456040264427
 20
35.11955745432037
 30
0.0
 10
-7.046740872333745
 20
35.08338013986904
 30
0.0
  0
SPLINE
  5
95
330
1F
100
AcDbEntity
  8
0
  6
Continuous
 62
     7
370
    15
100
AcDbSpline
210
0.0
220
0.0
230
1.0
 70
     8
 71
     3
 72
    11
 73
     7
 74
     0
 42
0.000000001
 43
0.00000001
 40
0.0
 40
0.0
 40
0.0
 40
0.0
 40
0.2799060275078602
 40
0.559609666251901
 40
0.7797698007326277
 40
1.0
 40
1.0
 40
1.0
 40
1.0
 10
-6.142482091741675
 20
35.33065024338369
 30
0.0
 10
-6.171951374847094
 20
35.36454351949519
 30
0.0
 10
-6.230868633007394
 20
35.43230556485662
 30
0.0
 10
-6.341245238622502
 20
35.49460082134053
 30
0.0
 10
-6.452558437365397
 20
35.52637615134543
 30
0.0
 10
-6.52294711287554
 20
35.52943774316523
 30
0.0
 10
-6.558147049944608
 20
35.53096878262017
 30
0.0
  0
LINE
  5
96
330
1F
100
AcDbEntity
  8
0
  6
Continuous
 62
     7
370
    15
100
AcDbLine
 10
-6.0251078743
 20
35.4035791076
 30
0.0
 11
-6.1424820917
 21
35.3306502434
 31
0.0
  0
SPLINE
  5
97
330
1F
100
AcDbEntity
  8
0
  6
Continuous
 62
     7
370
    15
100
AcDbSpline
210
0.0
220
0.0
230
1.0
 70
     8
 71
     3
 72
    11
 73
     7
 74
     0
 42
0.000000001
 43
0.00000001
 40
0.0
 40
0.0
 40
0.0
 40
0.0
 40
0.2800626589338959
 40
0.5601315317215597
 40
0.7800681394367106
 40
1.0
 40
1.0
 40
1.0
 40
1.0
 10
-6.547817142609912
 20
35.67119457605317
 30
0.0
 10
-6.490441614352069
 20
35.66721228629764
 30
0.0
 10
-6.375689284824348
 20
35.65924761843009
 30
0.0
 10
-6.225477661560698
 20
35.59998416954495
 30
0.0
 10
-6.102121553749864
 20
35.51552777444864
 30
0.0
 10
-6.050778916100033
 20
35.44089506137891
 30
0.0
 10
-6.025107874325317
 20
35.4035791075699
 30
0.0
  0
SPLINE
  5
98
330
1F
100
AcDbEntity
  8
0
  6
Continuous
 62
     7
370
    15
100
AcDbSpline
210
0.0
220
0.0
230
1.0
 70
     8
 71
     3
 72
    14
 73
    10
 74
     0
 42
0.000000001
 43
0.00000001
 40
0.0
 40
0.0
 40
0.0
 40
0.0
 40
0.1399787555891364
 40
0.279961042057379
 40
0.4199448531189982
 40
0.5599025544329759
 40
0.7065695087537612
 40
0.8532548936045997
 40
1.0
 40
1.0
 40
1.0
 40
1.0
 10
-7.186966665766747
 20
35.07085847118709
 30
0.0
 10
-7.184140784763295
 20
35.11655811120973
 30
0.0
 10
-7.178488951475241
 20
35.20795854400065
 30
0.0
 10
-7.129131421615467
 20
35.33743564024566
 30
0.0
 10
-7.054686055873776
 20
35.45314617364662
 30
0.0
 10
-6.952743377653509
 20
35.54959453268057
 30
0.0
 10
-6.82945529297923
 20
35.62022859485782
 30
0.0
 10
-6.691393289077375
 20
35.66408297174493
 30
0.0
 10
-6.595682351408622
 20
35.66882371965757
 30
0.0
 10
-6.547817142609912
 20
35.67119457605317
 30
0.0
  0
LINE
  5
99
330
1F
100
AcDbEntity
  8
0
  6
Continuous
 62
     7
370
    15
100
AcDbLine
 10
-9.2302326618
 20
35.6511636608
 30
0.0
 11
-9.2302326618
 21
35.8336430461
 31
0.0
  0
LINE
  5
9A
330
1F
100
AcDbEntity
  8
0
  6
Continuous
 62
     7
370
    15
100
AcDbLine
 10
-9.3904893705
 20
35.6511636608
 30
0.0
 11
-9.2302326618
 21
35.6511636608
 31
0.0
  0
LINE
  5
9B
330
1F
100
AcDbEntity
  8
0
  6
Continuous
 62
     7
370
    15
100
AcDbLine
 10
-9.3904893705
 20
35.5109378674
 30
0.0
 11
-9.3904893705
 21
35.6511636608
 31
0.0
  0
LINE
  5
9C
330
1F
100
AcDbEntity
  8
0
  6
Continuous
 62
     7
370
    15
100
AcDbLine
 10
-9.2302326618
 20
35.5109378674
 30
0.0
 11
-9.3904893705
 21
35.5109378674
 31
0.0
  0
LINE
  5
9D
330
1F
100
AcDbEntity
  8
0
  6
Continuous
 62
     7
370
    15
100
AcDbLine
 10
-9.2302326618
 20
34.5093357846
 30
0.0
 11
-9.2302326618
 21
35.5109378674
 31
0.0
  0
LINE
  5
9E
330
1F
100
AcDbEntity
  8
0
  6
Continuous
 62
     7
370
    15
100
AcDbLine
 10
-9.0900115616
 20
34.5093357846
 30
0.0
 11
-9.2302326618
 21
34.5093357846
 31
0.0
  0
LINE
  5
9F
330
1F
100
AcDbEntity
  8
0
  6
Continuous
 62
     7
370
    15
100
AcDbLine
 10
-9.0893826622
 20
35.5109378674
 30
0.0
 11
-9.0900115616
 21
34.5093357846
 31
0.0
  0
LINE
  5
A0
330
1F
100
AcDbEntity
  8
0
  6
Continuous
 62
     7
370
    15
100
AcDbLine
 10
-8.8496264986
 20
35.5109378674
 30
0.0
 11
-9.0893826622
 21
35.5109378674
 31
0.0
  0
LINE
  5
A1
330
1F
100
AcDbEntity
  8
0
  6
Continuous
 62
     7
370
    15
100
AcDbLine
 10
-8.8496264986
 20
35.6511636608
 30
0.0
 11
-8.8496264986
 21
35.5109378674
 31
0.0
  0
LINE
  5
A2
330
1F
100
AcDbEntity
  8
0
  6
Continuous
 62
     7
370
    15
100
AcDbLine
 10
-9.0890729058
 20
35.6511636608
 30
0.0
 11
-8.8496264986
 21
35.6511636608
 31
0.0
  0
LINE
  5
A3
330
1F
100
AcDbEntity
  8
0
  6
Continuous
 62
     7
370
    15
100
AcDbLine
 10
-9.0890729058
 20
35.8095430578
 30
0.0
 11
-9.0890729058
 21
35.6511636608
 31
0.0
  0
SPLINE
  5
A4
330
1F
100
AcDbEntity
  8
0
  6
Continuous
 62
     7
370
    15
100
AcDbSpline
210
0.0
220
0.0
230
1.0
 70
     8
 71
     3
 72
    12
 73
     8
 74
     0
 42
0.000000001
 43
0.00000001
 40
0.0
 40
0.0
 40
0.0
 40
0.0
 40
0.2493059294918471
 40
0.3745190962930593
 40
0.4988660962080845
 40
0.7489790495450002
 40
0.9999999999999999
 40
0.9999999999999999
 40
0.9999999999999999
 40
0.9999999999999999
 10
-8.971693995111007
 20
35.99170799345482
 30
0.0
 10
-8.993271763984414
 20
35.9898702445775
 30
0.0
 10
-9.025686903547902
 20
35.987109491754
 30
0.0
 10
-9.061968858802397
 20
35.96357791887378
 30
0.0
 10
-9.089337822514501
 20
35.92904865016236
 30
0.0
 10
-9.087505933220928
 20
35.87275108040141
 30
0.0
 10
-9.088549951064469
 20
35.83063783348364
 30
0.0
 10
-9.089072905806482
 20
35.8095430578397
 30
0.0
  0
SPLINE
  5
A5
330
1F
100
AcDbEntity
  8
0
  6
Continuous
 62
     7
370
    15
100
AcDbSpline
210
0.0
220
0.0
230
1.0
 70
     8
 71
     3
 72
     9
 73
     5
 74
     0
 42
0.000000001
 43
0.00000001
 40
0.0
 40
0.0
 40
0.0
 40
0.0
 40
0.5602498234301465
 40
1.0
 40
1.0
 40
1.0
 40
1.0
 10
-8.829590890031538
 20
35.95664919845701
 30
0.0
 10
-8.855247034018815
 20
35.96696089802437
 30
0.0
 10
-8.901041147491611
 20
35.98536643629696
 30
0.0
 10
-8.950114138604368
 20
35.98977105958581
 30
0.0
 10
-8.971693995111007
 20
35.99170799345482
 30
0.0
  0
LINE
  5
A6
330
1F
100
AcDbEntity
  8
0
  6
Continuous
 62
     7
370
    15
100
AcDbLine
 10
-8.82959089
 20
36.1025116201
 30
0.0
 11
-8.82959089
 21
35.9566491985
 31
0.0
  0
SPLINE
  5
A7
330
1F
100
AcDbEntity
  8
0
  6
Continuous
 62
     7
370
    15
100
AcDbSpline
210
0.0
220
0.0
230
1.0
 70
     8
 71
     3
 72
     9
 73
     5
 74
     0
 42
0.000000001
 43
0.00000001
 40
0.0
 40
0.0
 40
0.0
 40
0.0
 40
0.5597188132364929
 40
1.0
 40
1.0
 40
1.0
 40
1.0
 10
-9.000491955767842
 20
36.13193378688783
 30
0.0
 10
-8.968032241496562
 20
36.12962216581634
 30
0.0
 10
-8.910039346664968
 20
36.12549219730925
 30
0.0
 10
-8.854183269828878
 20
36.10953657877315
 30
0.0
 10
-8.829590890031538
 20
36.10251162010854
 30
0.0
  0
SPLINE
  5
A8
330
1F
100
AcDbEntity
  8
0
  6
Continuous
 62
     7
370
    15
100
AcDbSpline
210
0.0
220
0.0
230
1.0
 70
     8
 71
     3
 72
    12
 73
     8
 74
     0
 42
0.000000001
 43
0.00000001
 40
0.0
 40
0.0
 40
0.0
 40
0.0
 40
0.1874889540915304
 40
0.3747353077286437
 40
0.5607140150397115
 40
0.7799336216166579
 40
1.0
 40
1.0
 40
1.0
 40
1.0
 10
-9.230232661783601
 20
35.83364304610125
 30
0.0
 10
-9.229686264003318
 20
35.86066786622009
 30
0.0
 10
-9.228594175451628
 20
35.91468253781834
 30
0.0
 10
-9.219308820280995
 20
35.99602088344169
 30
0.0
 10
-9.176437269165465
 20
36.07322673077841
 30
0.0
 10
-9.09638949751927
 20
36.12451685360053
 30
0.0
 10
-9.032498855086573
 20
36.12945830073205
 30
0.0
 10
-9.000491955767842
 20
36.13193378688783
 30
0.0
  0
LINE
  5
A9
330
1F
100
AcDbEntity
  8
0
  6
Continuous
 62
     7
370
    15
100
AcDbLine
 10
-10.2318347445
 20
35.0501986565
 30
0.0
 11
-11.2534724358
 21
35.0501986565
 31
0.0
  0
SPLINE
  5
AA
330
1F
100
AcDbEntity
  8
0
  6
Continuous
 62
     7
370
    15
100
AcDbSpline
210
0.0
220
0.0
230
1.0
 70
     8
 71
     3
 72
    11
 73
     7
 74
     0
 42
0.000000001
 43
0.00000001
 40
0.0
 40
0.0
 40
0.0
 40
0.0
 40
0.2798415952064586
 40
0.5597361623942145
 40
0.779837640613811
 40
1.0
 40
1.0
 40
1.0
 40
1.0
 10
-10.35609869568311
 20
35.44646159885437
 30
0.0
 10
-10.33393852165817
 20
35.4136939807658
 30
0.0
 10
-10.28961397884834
 20
35.34815254191655
 30
0.0
 10
-10.25423060542739
 20
35.24306412298976
 30
0.0
 10
-10.23514848803946
 20
35.14325355289679
 30
0.0
 10
-10.2329394275214
 20
35.08121981472215
 30
0.0
 10
-10.23183474452421
 20
35.05019865651769
 30
0.0
  0
SPLINE
  5
AB
330
1F
100
AcDbEntity
  8
0
  6
Continuous
 62
     7
370
    15
100
AcDbSpline
210
0.0
220
0.0
230
1.0
 70
     8
 71
     3
 72
    15
 73
    11
 74
     0
 42
0.000000001
 43
0.00000001
 40
0.0000027124788177
 40
0.0000027124788177
 40
0.0000027124788177
 40
0.0000027124788177
 40
0.1320402344259841
 40
0.2590328407793669
 40
0.3818798239250221
 40
0.5022584437149809
 40
0.6227521895274838
 40
0.744742631859005
 40
0.870108927341827
 40
0.9999965774866477
 40
0.9999965774866477
 40
0.9999965774866477
 40
0.9999965774866477
 10
-10.81589455944163
 20
35.67119449756948
 30
0.0
 10
-10.79248093092296
 20
35.67059002387388
 30
0.0
 10
-10.74654827165146
 20
35.66940410666315
 30
0.0
 10
-10.67957012193543
 20
35.65841028590913
 30
0.0
 10
-10.61619480205121
 20
35.64097610976473
 30
0.0
 10
-10.55644814834193
 20
35.61635388186272
 30
0.0
 10
-10.50032410336297
 20
35.58458622481346
 30
0.0
 10
-10.44818747408857
 20
35.54523718843801
 30
0.0
 10
-10.39914706518654
 20
35.49951524287764
 30
0.0
 10
-10.370616769796
 20
35.46435362391752
 30
0.0
 10
-10.35609897295689
 20
35.44646137387404
 30
0.0
  0
SPLINE
  5
AC
330
1F
100
AcDbEntity
  8
0
  6
Continuous
 62
     7
370
    15
100
AcDbSpline
210
0.0
220
0.0
230
1.0
 70
     8
 71
     3
 72
    11
 73
     7
 74
     0
 42
0.000000001
 43
0.00000001
 40
0.0
 40
0.0
 40
0.0
 40
0.0
 40
0.2799305985350891
 40
0.5596438426779042
 40
0.7797625796676159
 40
1.0
 40
1.0
 40
1.0
 40
1.0
 10
-11.26223478792164
 20
35.45835436813475
 30
0.0
 10
-11.2303221059623
 20
35.49432900885133
 30
0.0
 10
-11.16652152090533
 20
35.56625035748185
 30
0.0
 10
-11.04790871104825
 20
35.63181774955633
 30
0.0
 10
-10.92896538373891
 20
35.66648672320108
 30
0.0
 10
-10.85359160435426
 20
35.66962500982892
 30
0.0
 10
-10.81589455741541
 20
35.67119457605317
 30
0.0
  0
SPLINE
  5
AD
330
1F
100
AcDbEntity
  8
0
  6
Continuous
 62
     7
370
    15
100
AcDbSpline
210
0.0
220
0.0
230
1.0
 70
     8
 71
     3
 72
    11
 73
     7
 74
     0
 42
0.000000001
 43
0.00000001
 40
0.0
 40
0.0
 40
0.0
 40
0.0
 40
0.2799700271177464
 40
0.5598633306899825
 40
0.779914941815888
 40
1.0
 40
1.0
 40
1.0
 40
1.0
 10
-11.39369353596564
 20
35.07711930552806
 30
0.0
 10
-11.39189486763639
 20
35.11552026071828
 30
0.0
 10
-11.38829802388856
 20
35.19231164762427
 30
0.0
 10
-11.35784167643448
 20
35.29561615828342
 30
0.0
 10
-11.31544515690492
 20
35.38507634116149
 30
0.0
 10
-11.27997247613456
 20
35.43392712171369
 30
0.0
 10
-11.26223478792165
 20
35.45835436813476
 30
0.0
  0
SPLINE
  5
AE
330
1F
100
AcDbEntity
  8
0
  6
Continuous
 62
     7
370
    15
100
AcDbSpline
210
0.0
220
0.0
230
1.0
 70
     8
 71
     3
 72
    14
 73
    10
 74
     0
 42
0.000000001
 43
0.00000001
 40
0.0
 40
0.0
 40
0.0
 40
0.0
 40
0.1400821277076013
 40
0.2800533893171582
 40
0.4199729660498677
 40
0.5599479077524491
 40
0.7066272694951796
 40
0.8532989510110063
 40
1.0
 40
1.0
 40
1.0
 40
1.0
 10
-10.81933942428668
 20
34.48930486934392
 30
0.0
 10
-10.86226849527318
 20
34.49126171429732
 30
0.0
 10
-10.94809266161583
 20
34.49517385548573
 30
0.0
 10
-11.07230159828331
 20
34.53376055316375
 30
0.0
 10
-11.18268274414052
 20
34.60242510121463
 30
0.0
 10
-11.27122260529887
 20
34.69998857388819
 30
0.0
 10
-11.34040925235091
 20
34.81368215316103
 30
0.0
 10
-11.38614416002037
 20
34.94215861593239
 30
0.0
 10
-11.39117690938621
 20
35.03212940688256
 30
0.0
 10
-11.39369353596564
 20
35.07711930552806
 30
0.0
  0
SPLINE
  5
AF
330
1F
100
AcDbEntity
  8
0
  6
Continuous
 62
     7
370
    15
100
AcDbSpline
210
0.0
220
0.0
230
1.0
 70
     8
 71
     3
 72
    12
 73
     8
 74
     0
 42
0.000000001
 43
0.00000001
 40
0.0
 40
0.0
 40
0.0
 40
0.0
 40
0.1868316315735605
 40
0.3734577261831765
 40
0.5601307692423962
 40
0.7799357671323077
 40
1.0
 40
1.0
 40
1.0
 40
1.0
 10
-10.2919321836068
 20
34.80449610822784
 30
0.0
 10
-10.31245871161102
 20
34.76963618102466
 30
0.0
 10
-10.35348918600297
 20
34.69995467667464
 30
0.0
 10
-10.43863197698625
 20
34.61209003129709
 30
0.0
 10
-10.54683981791363
 20
34.54204107942631
 30
0.0
 10
-10.67636443645617
 20
34.49602186536696
 30
0.0
 10
-10.7716623738711
 20
34.49154474754143
 30
0.0
 10
-10.81933942428668
 20
34.48930486934392
 30
0.0
  0
LINE
  5
B0
330
1F
100
AcDbEntity
  8
0
  6
Continuous
 62
     7
370
    15
100
AcDbLine
 10
-10.4165058912
 20
34.8699110325
 30
0.0
 11
-10.2919321836
 21
34.8044961082
 31
0.0
  0
SPLINE
  5
B1
330
1F
100
AcDbEntity
  8
0
  6
Continuous
 62
     7
370
    15
100
AcDbSpline
210
0.0
220
0.0
230
1.0
 70
     8
 71
     3
 72
    11
 73
     7
 74
     0
 42
0.000000001
 43
0.00000001
 40
0.0
 40
0.0
 40
0.0
 40
0.0
 40
0.2798983171518759
 40
0.5597011194398114
 40
0.7795398208073336
 40
1.0
 40
1.0
 40
1.0
 40
1.0
 10
-10.83686882178559
 20
34.62952596949781
 30
0.0
 10
-10.78955292138019
 20
34.63346575700868
 30
0.0
 10
-10.69493726704654
 20
34.64134398758407
 30
0.0
 10
-10.57120613332274
 20
34.6951210719769
 30
0.0
 10
-10.47996322224393
 20
34.77780241248615
 30
0.0
 10
-10.43767822983232
 20
34.83917928156578
 30
0.0
 10
-10.41650589118736
 20
34.86991103254904
 30
0.0
  0
SPLINE
  5
B2
330
1F
100
AcDbEntity
  8
0
  6
Continuous
 62
     7
370
    15
100
AcDbSpline
210
0.0
220
0.0
230
1.0
 70
     8
 71
     3
 72
    13
 73
     9
 74
     0
 42
0.000000001
 43
0.00000001
 40
0.0
 40
0.0
 40
0.0
 40
0.0
 40
0.1867187792409487
 40
0.3732487014897772
 40
0.5597766636244303
 40
0.7064912771498875
 40
0.8531906553583082
 40
1.0
 40
1.0
 40
1.0
 40
1.0
 10
-11.25347243581175
 20
35.05019865651769
 30
0.0
 10
-11.2501466075081
 20
35.00910105514465
 30
0.0
 10
-11.24349831481487
 20
34.92694742062977
 30
0.0
 10
-11.19178552347544
 20
34.81251577553049
 30
0.0
 10
-11.11472774495285
 20
34.72627978313555
 30
0.0
 10
-11.0264246067628
 20
34.66714850908777
 30
0.0
 10
-10.93373646360527
 20
34.6350229363828
 30
0.0
 10
-10.86916609973635
 20
34.63135874940278
 30
0.0
 10
-10.83686882178558
 20
34.62952596949781
 30
0.0
  0
LINE
  5
B3
330
1F
100
AcDbEntity
  8
0
  6
Continuous
 62
     7
370
    15
100
AcDbLine
 10
-13.2566766013
 20
34.9221847753
 30
0.0
 11
-13.2566766013
 21
34.5093357846
 31
0.0
  0
SPLINE
  5
B4
330
1F
100
AcDbEntity
  8
0
  6
Continuous
 62
     7
370
    15
100
AcDbSpline
210
0.0
220
0.0
230
1.0
 70
     8
 71
     3
 72
    10
 73
     6
 74
     0
 42
0.000000001
 43
0.00000001
 40
0.0
 40
0.0
 40
0.0
 40
0.0
 40
0.2798744871408607
 40
0.5599234877568399
 40
1.0
 40
1.0
 40
1.0
 40
1.0
 10
-13.23507813080033
 20
35.22861366211899
 30
0.0
 10
-13.240171790086
 20
35.20033342710103
 30
0.0
 10
-13.25036228476746
 20
35.14375532315306
 30
0.0
 10
-13.25531268574765
 20
35.0411345235084
 30
0.0
 10
-13.25615925415582
 20
34.96730363324331
 30
0.0
 10
-13.25667660129296
 20
34.92218477534497
 30
0.0
  0
SPLINE
  5
B5
330
1F
100
AcDbEntity
  8
0
  6
Continuous
 62
     7
370
    15
100
AcDbSpline
210
0.0
220
0.0
230
1.0
 70
     8
 71
     3
 72
    12
 73
     8
 74
     0
 42
0.000000001
 43
0.00000001
 40
0.0
 40
0.0
 40
0.0
 40
0.0
 40
0.1867065151387052
 40
0.3734039622172327
 40
0.5602150182883924
 40
0.7801268993381909
 40
0.9999999999999999
 40
0.9999999999999999
 40
0.9999999999999999
 40
0.9999999999999999
 10
-12.84664357802943
 20
35.53096878262017
 30
0.0
 10
-12.87956027179371
 20
35.52877520278407
 30
0.0
 10
-12.94539206060699
 20
35.52438814965079
 30
0.0
 10
-13.03799833240011
 20
35.48587312371934
 30
0.0
 10
-13.1219151711815
 20
35.42334542573268
 30
0.0
 10
-13.19589068499431
 20
35.33868536939966
 30
0.0
 10
-13.22201641679029
 20
35.26530207422465
 30
0.0
 10
-13.23507813080033
 20
35.22861366211899
 30
0.0
  0
SPLINE
  5
B6
330
1F
100
AcDbEntity
  8
0
  6
Continuous
 62
     7
370
    15
100
AcDbSpline
210
0.0
220
0.0
230
1.0
 70
     8
 71
     3
 72
    12
 73
     8
 74
     0
 42
0.000000001
 43
0.00000001
 40
0.0
 40
0.0
 40
0.0
 40
0.0
 40
0.1868229335928148
 40
0.3735395039929928
 40
0.5600864723508796
 40
0.7798960472275119
 40
1.0
 40
1.0
 40
1.0
 40
1.0
 10
-12.55211215381491
 20
35.30623580542137
 30
0.0
 10
-12.55894540683065
 20
35.33059822806535
 30
0.0
 10
-12.57260802251209
 20
35.37930920318754
 30
0.0
 10
-12.61419604055704
 20
35.44402640711025
 30
0.0
 10
-12.67650345470808
 20
35.4960659095361
 30
0.0
 10
-12.75737127562325
 20
35.52664733882846
 30
0.0
 10
-12.81687287162307
 20
35.52952765887959
 30
0.0
 10
-12.84664357802943
 20
35.53096878262017
 30
0.0
  0
SPLINE
  5
B7
330
1F
100
AcDbEntity
  8
0
  6
Continuous
 62
     7
370
    15
100
AcDbSpline
210
0.0
220
0.0
230
1.0
 70
     8
 71
     3
 72
     9
 73
     5
 74
     0
 42
0.000000001
 43
0.00000001
 40
0.0
 40
0.0
 40
0.0
 40
0.0
 40
0.5602557914095225
 40
0.9999999999999999
 40
0.9999999999999999
 40
0.9999999999999999
 40
0.9999999999999999
 10
-12.53552141213924
 20
35.04644403322476
 30
0.0
 10
-12.53522002086477
 20
35.09519779958296
 30
0.0
 10
-12.53468206788133
 20
35.18221834824264
 30
0.0
 10
-12.54678844471521
 20
35.26835688343434
 30
0.0
 10
-12.55211215381491
 20
35.30623580542137
 30
0.0
  0
LINE
  5
B8
330
1F
100
AcDbEntity
  8
0
  6
Continuous
 62
     7
370
    15
100
AcDbLine
 10
-12.5355214121
 20
34.5093357846
 30
0.0
 11
-12.5355214121
 21
35.0464440332
 31
0.0
  0
LINE
  5
B9
330
1F
100
AcDbEntity
  8
0
  6
Continuous
 62
     7
370
    15
100
AcDbLine
 10
-12.395300312
 20
34.5093357846
 30
0.0
 11
-12.5355214121
 21
34.5093357846
 31
0.0
  0
LINE
  5
BA
330
1F
100
AcDbEntity
  8
0
  6
Continuous
 62
     7
370
    15
100
AcDbLine
 10
-12.395300312
 20
35.0924569417
 30
0.0
 11
-12.395300312
 21
34.5093357846
 31
0.0
  0
SPLINE
  5
BB
330
1F
100
AcDbEntity
  8
0
  6
Continuous
 62
     7
370
    15
100
AcDbSpline
210
0.0
220
0.0
230
1.0
 70
     8
 71
     3
 72
    14
 73
    10
 74
     0
 42
0.000000001
 43
0.00000001
 40
0.0
 40
0.0
 40
0.0
 40
0.0
 40
0.1400145621673442
 40
0.2799236195894592
 40
0.4198460112951881
 40
0.5597125062396024
 40
0.7062440163110862
 40
0.8530949502590909
 40
1.0
 40
1.0
 40
1.0
 40
1.0
 10
-12.8222291400671
 20
35.67119457605317
 30
0.0
 10
-12.78384283781635
 20
35.6688690108097
 30
0.0
 10
-12.70709915842787
 20
35.66421963269881
 30
0.0
 10
-12.59995638558038
 20
35.61770214525296
 30
0.0
 10
-12.50938284024121
 20
35.54555807122043
 30
0.0
 10
-12.44299804514243
 20
35.44741345982163
 30
0.0
 10
-12.41033008802671
 20
35.3324102059765
 30
0.0
 10
-12.39747357131066
 20
35.21274160282361
 30
0.0
 10
-12.3960248207235
 20
35.13255675261799
 30
0.0
 10
-12.39530031198536
 20
35.09245694167971
 30
0.0
  0
SPLINE
  5
BC
330
1F
100
AcDbEntity
  8
0
  6
Continuous
 62
     7
370
    15
100
AcDbSpline
210
0.0
220
0.0
230
1.0
 70
     8
 71
     3
 72
    11
 73
     7
 74
     0
 42
0.000000001
 43
0.00000001
 40
0.0
 40
0.0
 40
0.0
 40
0.0
 40
0.2801020971192381
 40
0.5597759144011719
 40
0.7798666520865105
 40
0.9999999999999999
 40
0.9999999999999999
 40
0.9999999999999999
 40
0.9999999999999999
 10
-13.25667660129296
 20
35.44520849333035
 30
0.0
 10
-13.22617827282353
 20
35.48187898917723
 30
0.0
 10
-13.1652282482351
 20
35.55516391119439
 30
0.0
 10
-13.05137674103039
 20
35.62654663424794
 30
0.0
 10
-12.93437980147706
 20
35.66517767690897
 30
0.0
 10
-12.85961510608185
 20
35.66918881358961
 30
0.0
 10
-12.8222291400671
 20
35.67119457605317
 30
0.0
  0
LINE
  5
BD
330
1F
100
AcDbEntity
  8
0
  6
Continuous
 62
     7
370
    15
100
AcDbLine
 10
-13.2566766013
 20
35.6511636608
 30
0.0
 11
-13.2566766013
 21
35.4452084933
 31
0.0
  0
LINE
  5
BE
330
1F
100
AcDbEntity
  8
0
  6
Continuous
 62
     7
370
    15
100
AcDbLine
 10
-13.3969023947
 20
35.6511636608
 30
0.0
 11
-13.2566766013
 21
35.6511636608
 31
0.0
  0
LINE
  5
BF
330
1F
100
AcDbEntity
  8
0
  6
Continuous
 62
     7
370
    15
100
AcDbLine
 10
-13.3969023947
 20
34.5093357846
 30
0.0
 11
-13.3969023947
 21
35.6511636608
 31
0.0
  0
LINE
  5
C0
330
1F
100
AcDbEntity
  8
0
  6
Continuous
 62
     7
370
    15
100
AcDbLine
 10
-13.2566766013
 20
34.5093357846
 30
0.0
 11
-13.3969023947
 21
34.5093357846
 31
0.0
  0
SPLINE
  5
C1
330
1F
100
AcDbEntity
  8
0
  6
Continuous
 62
     7
370
    15
100
AcDbSpline
210
0.0
220
0.0
230
1.0
 70
     8
 71
     3
 72
    13
 73
     9
 74
     0
 42
0.000000001
 43
0.00000001
 40
0.0
 40
0.0
 40
0.0
 40
0.0
 40
0.2501768058122769
 40
0.5001168834003912
 40
0.6252788726950803
 40
0.7502426592693581
 40
0.8751572571476004
 40
1.0
 40
1.0
 40
1.0
 40
1.0
 10
-15.40010656020717
 20
35.45084042826976
 30
0.0
 10
-15.35624708918296
 20
35.45309743130367
 30
0.0
 10
-15.26856964888232
 20
35.4576093016966
 30
0.0
 10
-15.16329932641732
 20
35.49261566275543
 30
0.0
 10
-15.0868703222026
 20
35.53620464382895
 30
0.0
 10
-15.0392149428611
 20
35.5822368527271
 30
0.0
 10
-15.00571979140673
 20
35.64066815464644
 30
0.0
 10
-15.00154938949833
 20
35.68460234981045
 30
0.0
 10
-14.9994647884551
 20
35.70656312747265
 30
0.0
  0
LINE
  5
C2
330
1F
100
AcDbEntity
  8
0
  6
Continuous
 62
     7
370
    15
100
AcDbLine
 10
-15.4001065602
 20
35.2905837196
 30
0.0
 11
-15.4001065602
 21
35.4508404283
 31
0.0
  0
SPLINE
  5
C3
330
1F
100
AcDbEntity
  8
0
  6
Continuous
 62
     7
370
    15
100
AcDbSpline
210
0.0
220
0.0
230
1.0
 70
     8
 71
     3
 72
    14
 73
    10
 74
     0
 42
0.000000001
 43
0.00000001
 40
0.0
 40
0.0
 40
0.0
 40
0.0
 40
0.1248960563347838
 40
0.2498068780551164
 40
0.3748375008963498
 40
0.499799362495882
 40
0.6662317663663035
 40
0.8330894720451302
 40
1.0
 40
1.0
 40
1.0
 40
1.0
 10
-14.91933643410469
 20
34.96005484453337
 30
0.0
 10
-14.92156990681461
 20
34.98730185217799
 30
0.0
 10
-14.92603711627867
 20
35.04179908864636
 30
0.0
 10
-14.96328877411578
 20
35.11597701904811
 30
0.0
 10
-15.01513559059694
 20
35.17939001555911
 30
0.0
 10
-15.08932008308712
 20
35.2329688288806
 30
0.0
 10
-15.18406356760471
 20
35.26696365323087
 30
0.0
 10
-15.29163656537107
 20
35.28349170162923
 30
0.0
 10
-15.36394608068551
 20
35.28821946418326
 30
0.0
 10
-15.40010656020717
 20
35.29058371956894
 30
0.0
  0
SPLINE
  5
C4
330
1F
100
AcDbEntity
  8
0
  6
Continuous
 62
     7
370
    15
100
AcDbSpline
210
0.0
220
0.0
230
1.0
 70
     8
 71
     3
 72
    13
 73
     9
 74
     0
 42
0.000000001
 43
0.00000001
 40
0.0
 40
0.0
 40
0.0
 40
0.0
 40
0.1869088688827298
 40
0.3735257522420072
 40
0.560079551863385
 40
0.7068533734045819
 40
0.8534094844499803
 40
0.9999999999999999
 40
0.9999999999999999
 40
0.9999999999999999
 40
0.9999999999999999
 10
-15.31716223838705
 20
34.62952596949781
 30
0.0
 10
-15.281270064894
 20
34.63120351347533
 30
0.0
 10
-15.20954178798699
 20
34.63455598080267
 30
0.0
 10
-15.1060002889937
 20
34.66888793541067
 30
0.0
 10
-15.02370815008854
 20
34.72756916926705
 30
0.0
 10
-14.96356707648053
 20
34.79789186937686
 30
0.0
 10
-14.92596467442943
 20
34.87541326266317
 30
0.0
 10
-14.92154602040812
 20
34.93183877649148
 30
0.0
 10
-14.91933643410469
 20
34.96005484453337
 30
0.0
  0
SPLINE
  5
C5
330
1F
100
AcDbEntity
  8
0
  6
Continuous
 62
     7
370
    15
100
AcDbSpline
210
0.0
220
0.0
230
1.0
 70
     8
 71
     3
 72
    10
 73
     6
 74
     0
 42
0.000000001
 43
0.00000001
 40
0.0
 40
0.0
 40
0.0
 40
0.0
 40
0.280126083732449
 40
0.5602678056688255
 40
1.0
 40
1.0
 40
1.0
 40
1.0
 10
-15.57820242282856
 20
34.71403784654272
 30
0.0
 10
-15.55693412600122
 20
34.69876334579811
 30
0.0
 10
-15.51439634503131
 20
34.66821349160086
 30
0.0
 10
-15.42546902714096
 20
34.63615901651569
 30
0.0
 10
-15.35823306532081
 20
34.63204127559494
 30
0.0
 10
-15.31716223838705
 20
34.62952596949781
 30
0.0
  0
SPLINE
  5
C6
330
1F
100
AcDbEntity
  8
0
  6
Continuous
 62
     7
370
    15
100
AcDbSpline
210
0.0
220
0.0
230
1.0
 70
     8
 71
     3
 72
    10
 73
     6
 74
     0
 42
0.000000001
 43
0.00000001
 40
0.0
 40
0.0
 40
0.0
 40
0.0
 40
0.5597245466189081
 40
0.7799086779938418
 40
1.0
 40
1.0
 40
1.0
 40
1.0
 10
-15.70058436906188
 20
34.93000847163163
 30
0.0
 10
-15.68552835129062
 20
34.88534375776315
 30
0.0
 10
-15.66454960560801
 20
34.82310886355211
 30
0.0
 10
-15.61833770962254
 20
34.75234505483662
 30
0.0
 10
-15.59157897152669
 20
34.72680512138151
 30
0.0
 10
-15.57820242282856
 20
34.71403784654272
 30
0.0
  0
LINE
  5
C7
330
1F
100
AcDbEntity
  8
0
  6
Continuous
 62
     7
370
    15
100
AcDbLine
 10
-15.8408101625
 20
34.9300084716
 30
0.0
 11
-15.7005843691
 21
34.9300084716
 31
0.0
  0
SPLINE
  5
C8
330
1F
100
AcDbEntity
  8
0
  6
Continuous
 62
     7
370
    15
100
AcDbSpline
210
0.0
220
0.0
230
1.0
 70
     8
 71
     3
 72
    13
 73
     9
 74
     0
 42
0.000000001
 43
0.00000001
 40
0.0
 40
0.0
 40
0.0
 40
0.0
 40
0.1866850303028953
 40
0.3731553106454045
 40
0.5595677335294662
 40
0.7062913818580221
 40
0.8531096690416188
 40
0.9999999999999999
 40
0.9999999999999999
 40
0.9999999999999999
 40
0.9999999999999999
 10
-15.31966375615597
 20
34.46926926079698
 30
0.0
 10
-15.36730050719995
 20
34.47203069501755
 30
0.0
 10
-15.46251921115879
 20
34.47755038688965
 30
0.0
 10
-15.59709493488531
 20
34.53151685151089
 30
0.0
 10
-15.70162472910111
 20
34.61577529208373
 30
0.0
 10
-15.77176997194055
 20
34.71691694264472
 30
0.0
 10
-15.8166173789166
 20
34.82040664862542
 30
0.0
 10
-15.8327445826884
 20
34.89346855684541
 30
0.0
 10
-15.84081016249488
 20
34.93000847163163
 30
0.0
  0
SPLINE
  5
C9
330
1F
100
AcDbEntity
  8
0
  6
Continuous
 62
     7
370
    15
100
AcDbSpline
210
0.0
220
0.0
230
1.0
 70
     8
 71
     3
 72
    13
 73
     9
 74
     0
 42
0.000000001
 43
0.00000001
 40
0.0
 40
0.0
 40
0.0
 40
0.0
 40
0.1864481404542688
 40
0.3730145637260424
 40
0.559476389830074
 40
0.7062904201913387
 40
0.853147588778941
 40
1.0
 40
1.0
 40
1.0
 40
1.0
 10
-14.77911064067169
 20
34.97351516903855
 30
0.0
 10
-14.78402236390129
 20
34.92227740033419
 30
0.0
 10
-14.79384892636081
 20
34.81976935765278
 30
0.0
 10
-14.86762509353554
 20
34.68156669268988
 30
0.0
 10
-14.96721740914957
 20
34.57729228210474
 30
0.0
 10
-15.08254201638891
 20
34.51176353629912
 30
0.0
 10
-15.19882847808615
 20
34.47534388895883
 30
0.0
 10
-15.27938576507544
 20
34.47129411498551
 30
0.0
 10
-15.31966375615597
 20
34.46926926079698
 30
0.0
  0
SPLINE
  5
CA
330
1F
100
AcDbEntity
  8
0
  6
Continuous
 62
     7
370
    15
100
AcDbSpline
210
0.0
220
0.0
230
1.0
 70
     8
 71
     3
 72
    10
 73
     6
 74
     0
 42
0.000000001
 43
0.00000001
 40
0.0
 40
0.0
 40
0.0
 40
0.0
 40
0.2802629052198627
 40
0.5603979367957049
 40
1.0
 40
1.0
 40
1.0
 40
1.0
 10
-14.8723848698265
 20
35.25114609515573
 30
0.0
 10
-14.85679584413292
 20
35.22809070419535
 30
0.0
 10
-14.82562490544416
 20
35.18199044160054
 30
0.0
 10
-14.78780536640342
 20
35.08895445212903
 30
0.0
 10
-14.78240753558319
 20
35.0172878188899
 30
0.0
 10
-14.77911064067169
 20
34.97351516903855
 30
0.0
  0
SPLINE
  5
CB
330
1F
100
AcDbEntity
  8
0
  6
Continuous
 62
     7
370
    15
100
AcDbSpline
210
0.0
220
0.0
230
1.0
 70
     8
 71
     3
 72
     9
 73
     5
 74
     0
 42
0.000000001
 43
0.00000001
 40
0.0
 40
0.0
 40
0.0
 40
0.0
 40
0.5597827329034949
 40
1.0
 40
1.0
 40
1.0
 40
1.0
 10
-15.041718380338
 20
35.38448684812531
 30
0.0
 10
-15.00533355906566
 20
35.36549467144395
 30
0.0
 10
-14.94033544616633
 20
35.33156690703636
 30
0.0
 10
-14.89315466456328
 20
35.27572754604692
 30
0.0
 10
-14.8723848698265
 20
35.25114609515573
 30
0.0
  0
SPLINE
  5
CC
330
1F
100
AcDbEntity
  8
0
  6
Continuous
 62
     7
370
    15
100
AcDbSpline
210
0.0
220
0.0
230
1.0
 70
     8
 71
     3
 72
    11
 73
     7
 74
     0
 42
0.000000001
 43
0.00000001
 40
0.0
 40
0.0
 40
0.0
 40
0.0
 40
0.2798733984080625
 40
0.5595168107150854
 40
0.7797222446857728
 40
1.0
 40
1.0
 40
1.0
 40
1.0
 10
-14.8592389950221
 20
35.7059389213502
 30
0.0
 10
-14.86170380875119
 20
35.66973174663478
 30
0.0
 10
-14.86663141074751
 20
35.59734715046733
 30
0.0
 10
-14.91170099980898
 20
35.50510234301417
 30
0.0
 10
-14.97218210328403
 20
35.43389912965856
 30
0.0
 10
-15.01853708436772
 20
35.4009594113875
 30
0.0
 10
-15.041718380338
 20
35.38448684812531
 30
0.0
  0
SPLINE
  5
CD
330
1F
100
AcDbEntity
  8
0
  6
Continuous
 62
     7
370
    15
100
AcDbSpline
210
0.0
220
0.0
230
1.0
 70
     8
 71
     3
 72
    13
 73
     9
 74
     0
 42
0.000000001
 43
0.00000001
 40
0.0
 40
0.0
 40
0.0
 40
0.0
 40
0.1866791278267556
 40
0.373365100493006
 40
0.559884094036017
 40
0.7066144067959804
 40
0.8533518495108988
 40
1.0
 40
1.0
 40
1.0
 40
1.0
 10
-15.31559468316225
 20
36.11189817834089
 30
0.0
 10
-15.27340316795275
 20
36.10897426416717
 30
0.0
 10
-15.18901859052551
 20
36.10312632861055
 30
0.0
 10
-15.07059560969279
 20
36.05438048407295
 30
0.0
 10
-14.97480173901149
 20
35.98422149804413
 30
0.0
 10
-14.90930506313072
 20
35.89710015662957
 30
0.0
 10
-14.86735815718837
 20
35.80541503934986
 30
0.0
 10
-14.86194483322716
 20
35.73909089874186
 30
0.0
 10
-14.8592389950221
 20
35.7059389213502
 30
0.0
  0
SPLINE
  5
CE
330
1F
100
AcDbEntity
  8
0
  6
Continuous
 62
     7
370
    15
100
AcDbSpline
210
0.0
220
0.0
230
1.0
 70
     8
 71
     3
 72
    12
 73
     8
 74
     0
 42
0.000000001
 43
0.00000001
 40
0.0
 40
0.0
 40
0.0
 40
0.0
 40
0.1869874035771772
 40
0.3737604035610833
 40
0.5604447960210764
 40
0.7801288967812675
 40
1.0
 40
1.0
 40
1.0
 40
1.0
 10
-15.78071272341229
 20
35.71125640658882
 30
0.0
 10
-15.76959756238836
 20
35.75136610268549
 30
0.0
 10
-15.74737998521218
 20
35.83153950427839
 30
0.0
 10
-15.6840059869321
 20
35.94069063418839
 30
0.0
 10
-15.58914424994979
 20
36.03366809709142
 30
0.0
 10
-15.46280982399346
 20
36.10050079744028
 30
0.0
 10
-15.36468031270381
 20
36.10809797400407
 30
0.0
 10
-15.31559468316226
 20
36.11189817834089
 30
0.0
  0
LINE
  5
CF
330
1F
100
AcDbEntity
  8
0
  6
Continuous
 62
     7
370
    15
100
AcDbLine
 10
-15.6404916233
 20
35.7112564066
 30
0.0
 11
-15.7807127234
 21
35.7112564066
 31
0.0
  0
SPLINE
  5
D0
330
1F
100
AcDbEntity
  8
0
  6
Continuous
 62
     7
370
    15
100
AcDbSpline
210
0.0
220
0.0
230
1.0
 70
     8
 71
     3
 72
    11
 73
     7
 74
     0
 42
0.000000001
 43
0.00000001
 40
0.0
 40
0.0
 40
0.0
 40
0.0
 40
0.2799852110416838
 40
0.5590725398691233
 40
0.7793499464086301
 40
0.9999999999999999
 40
0.9999999999999999
 40
0.9999999999999999
 40
0.9999999999999999
 10
-15.31371737151578
 20
35.95164146964006
 30
0.0
 10
-15.35442873102831
 20
35.94842235662801
 30
0.0
 10
-15.43572089313758
 20
35.9419944539503
 30
0.0
 10
-15.53552517982032
 20
35.88082796892255
 30
0.0
 10
-15.60007748635615
 20
35.7979681561597
 30
0.0
 10
-15.62701265626153
 20
35.740176603834
 30
0.0
 10
-15.6404916232584
 20
35.71125640658882
 30
0.0
  0
SPLINE
  5
D1
330
1F
100
AcDbEntity
  8
0
  6
Continuous
 62
     7
370
    15
100
AcDbSpline
210
0.0
220
0.0
230
1.0
 70
     8
 71
     3
 72
    12
 73
     8
 74
     0
 42
0.000000001
 43
0.00000001
 40
0.0
 40
0.0
 40
0.0
 40
0.0
 40
0.1861506052759336
 40
0.3725795885760113
 40
0.5595025256871069
 40
0.7795667117572594
 40
1.0
 40
1.0
 40
1.0
 40
1.0
 10
-14.9994647884551
 20
35.70656312747265
 30
0.0
 10
-15.00260280344166
 20
35.73417141173633
 30
0.0
 10
-15.00888352614411
 20
35.78942926693911
 30
0.0
 10
-15.05987941384731
 20
35.85768478989122
 30
0.0
 10
-15.1287459566564
 20
35.91171558110675
 30
0.0
 10
-15.21639213045737
 20
35.94623830625773
 30
0.0
 10
-15.28125750713822
 20
35.94983940936574
 30
0.0
 10
-15.31371737151578
 20
35.95164146964006
 30
0.0
  0
LINE
  5
D2
330
1F
100
AcDbEntity
  8
0
  6
Continuous
 62
     7
370
    15
100
AcDbLine
 10
-17.6036292649
 20
35.2304909738
 30
0.0
 11
-17.6036292649
 21
34.5093357846
 31
0.0
  0
LINE
  5
D3
330
1F
100
AcDbEntity
  8
0
  6
Continuous
 62
     7
370
    15
100
AcDbLine
 10
-17.4896999144
 20
35.2304909738
 30
0.0
 11
-17.6036292649
 21
35.2304909738
 31
0.0
  0
LINE
  5
D4
330
1F
100
AcDbEntity
  8
0
  6
Continuous
 62
     7
370
    15
100
AcDbLine
 10
-16.9156555591
 20
34.5093357846
 30
0.0
 11
-17.4896999144
 21
35.2304909738
 31
0.0
  0
LINE
  5
D5
330
1F
100
AcDbEntity
  8
0
  6
Continuous
 62
     7
370
    15
100
AcDbLine
 10
-16.7422529756
 20
34.5093357846
 30
0.0
 11
-16.9156555591
 21
34.5093357846
 31
0.0
  0
LINE
  5
D6
330
1F
100
AcDbEntity
  8
0
  6
Continuous
 62
     7
370
    15
100
AcDbLine
 10
-17.3162973309
 20
35.2304909738
 30
0.0
 11
-16.7422529756
 21
34.5093357846
 31
0.0
  0
SPLINE
  5
D7
330
1F
100
AcDbEntity
  8
0
  6
Continuous
 62
     7
370
    15
100
AcDbSpline
210
0.0
220
0.0
230
1.0
 70
     8
 71
     3
 72
    14
 73
    10
 74
     0
 42
0.000000001
 43
0.00000001
 40
0.0
 40
0.0
 40
0.0
 40
0.0
 40
0.1399931803757844
 40
0.279915862414072
 40
0.4197692164089497
 40
0.5597038417148089
 40
0.7063032798149732
 40
0.8531216141931787
 40
1.0
 40
1.0
 40
1.0
 40
1.0
 10
-16.76228389088507
 20
35.65397962825505
 30
0.0
 10
-16.76444880487557
 20
35.61693988170087
 30
0.0
 10
-16.76877754264035
 20
35.54287904121933
 30
0.0
 10
-16.8116284899549
 20
35.43863193790226
 30
0.0
 10
-16.88111934700409
 20
35.35066770503289
 30
0.0
 10
-16.97574795078202
 20
35.28690277389188
 30
0.0
 10
-17.08490495051872
 20
35.25015863206657
 30
0.0
 10
-17.20014648539117
 20
35.23329240660942
 30
0.0
 10
-17.27757510516846
 20
35.2314249119941
 30
0.0
 10
-17.31629733087453
 20
35.23049097376546
 30
0.0
  0
SPLINE
  5
D8
330
1F
100
AcDbEntity
  8
0
  6
Continuous
 62
     7
370
    15
100
AcDbSpline
210
0.0
220
0.0
230
1.0
 70
     8
 71
     3
 72
    12
 73
     8
 74
     0
 42
0.000000001
 43
0.00000001
 40
0.0
 40
0.0
 40
0.0
 40
0.0
 40
0.1868131743322985
 40
0.373530238018679
 40
0.5602892449413304
 40
0.7800191484377903
 40
0.9999999999999999
 40
0.9999999999999999
 40
0.9999999999999999
 40
0.9999999999999999
 10
-17.07716537334731
 20
36.05055232701339
 30
0.0
 10
-17.04423336047293
 20
36.04090934001736
 30
0.0
 10
-16.97838627741056
 20
36.02162832709784
 30
0.0
 10
-16.89260659236514
 20
35.96273035617713
 30
0.0
 10
-16.81958351357458
 20
35.88156301700825
 30
0.0
 10
-16.77006159150657
 20
35.77505940477383
 30
0.0
 10
-16.76487744397676
 20
35.69435490676133
 30
0.0
 10
-16.76228389088507
 20
35.65397962825505
 30
0.0
  0
SPLINE
  5
D9
330
1F
100
AcDbEntity
  8
0
  6
Continuous
 62
     7
370
    15
100
AcDbSpline
210
0.0
220
0.0
230
1.0
 70
     8
 71
     3
 72
     9
 73
     5
 74
     0
 42
0.000000001
 43
0.00000001
 40
0.0
 40
0.0
 40
0.0
 40
0.0
 40
0.5602421585638596
 40
1.0
 40
1.0
 40
1.0
 40
1.0
 10
-17.43117003052197
 20
36.07183634780524
 30
0.0
 10
-17.36478642503419
 20
36.07205055280642
 30
0.0
 10
-17.24629551093028
 20
36.07243289640176
 30
0.0
 10
-17.12882427186812
 20
36.05723550086853
 30
0.0
 10
-17.07716537334731
 20
36.05055232701339
 30
0.0
  0
LINE
  5
DA
330
1F
100
AcDbEntity
  8
0
  6
Continuous
 62
     7
370
    15
100
AcDbLine
 10
-17.7438550584
 20
36.0718363478
 30
0.0
 11
-17.4311700305
 21
36.0718363478
 31
0.0
  0
LINE
  5
DB
330
1F
100
AcDbEntity
  8
0
  6
Continuous
 62
     7
370
    15
100
AcDbLine
 10
-17.7438550584
 20
34.5093357846
 30
0.0
 11
-17.7438550584
 21
36.0718363478
 31
0.0
  0
LINE
  5
DC
330
1F
100
AcDbEntity
  8
0
  6
Continuous
 62
     7
370
    15
100
AcDbLine
 10
-17.6036292649
 20
34.5093357846
 30
0.0
 11
-17.7438550584
 21
34.5093357846
 31
0.0
  0
CIRCLE
  5
DD
330
1F
100
AcDbEntity
  8
0
  6
Continuous
 62
     7
370
    15
100
AcDbCircle
 10
1.1251778749
 20
4.791875
 30
0.0
 40
0.0940000000000019
  0
CIRCLE
  5
DE
330
1F
100
AcDbEntity
  8
0
  6
Continuous
 62
     7
370
    15
100
AcDbCircle
 10
21.1251778749
 20
4.791875
 30
0.0
 40
0.0939999999999976
  0
LINE
  5
DF
330
1F
100
AcDbEntity
  8
0
  6
Continuous
 62
     7
370
    15
100
AcDbLine
 10
34.3817443823
 20
-34.568125
 30
0.0
 11
11.8686124559
 21
44.1518748465
 31
0.0
  0
LINE
  5
E0
330
1F
100
AcDbEntity
  8
0
  6
Continuous
 62
     7
370
    15
100
AcDbLine
 10
-1.4390068267
 20
-34.568125
 30
0.0
 11
34.3817443823
 21
-34.568125
 31
0.0
  0
LINE
  5
E1
330
1F
100
AcDbEntity
  8
0
  6
Continuous
 62
     7
370
    15
100
AcDbLine
 10
-23.9521387531
 20
44.1518748465
 30
0.0
 11
-1.4390068267
 21
-34.568125
 31
0.0
  0
LINE
  5
E2
330
1F
100
AcDbEntity
  8
0
  6
Continuous
 62
     7
370
    15
100
AcDbLine
 10
11.8686124559
 20
44.1518748465
 30
0.0
 11
-23.9521387531
 21
44.1518748465
 31
0.0
  0
CIRCLE
  5
E3
330
1F
100
AcDbEntity
  8
0
  6
Continuous
 62
     7
370
    15
100
AcDbCircle
 10
11.1251778749
 20
4.791875
 30
0.0
 40
0.0940000000000012
  0
CIRCLE
  5
E4
330
1F
100
AcDbEntity
  8
0
  6
Continuous
 62
     7
370
    15
100
AcDbCircle
 10
-8.8748221251
 20
4.791875
 30
0.0
 40
0.0940000000000012
  0
LINE
  5
E5
330
1F
100
AcDbEntity
  8
0
  6
Continuous
 62
     7
370
    15
100
AcDbLine
 10
-15.9610050407
 20
35.19042445
 30
0.0
 11
-15.9610050407
 21
35.0301677412
 31
0.0
  0
LINE
  5
E6
330
1F
100
AcDbEntity
  8
0
  6
Continuous
 62
     7
370
    15
100
AcDbLine
 10
-16.5619653516
 20
35.19042445
 30
0.0
 11
-15.9610050407
 21
35.19042445
 31
0.0
  0
LINE
  5
E7
330
1F
100
AcDbEntity
  8
0
  6
Continuous
 62
     7
370
    15
100
AcDbLine
 10
-16.5619653516
 20
35.0301677412
 30
0.0
 11
-16.5619653516
 21
35.19042445
 31
0.0
  0
LINE
  5
E8
330
1F
100
AcDbEntity
  8
0
  6
Continuous
 62
     7
370
    15
100
AcDbLine
 10
-15.9610050407
 20
35.0301677412
 30
0.0
 11
-16.5619653516
 21
35.0301677412
 31
0.0
  0
LINE
  5
E9
330
1F
100
AcDbEntity
  8
0
  6
Continuous
 62
     7
370
    15
100
AcDbLine
 10
-13.7574776427
 20
36.0718363478
 30
0.0
 11
-13.7574776427
 21
34.5093357846
 31
0.0
  0
LINE
  5
EA
330
1F
100
AcDbEntity
  8
0
  6
Continuous
 62
     7
370
    15
100
AcDbLine
 10
-13.8977034361
 20
36.0718363478
 30
0.0
 11
-13.7574776427
 21
36.0718363478
 31
0.0
  0
LINE
  5
EB
330
1F
100
AcDbEntity
  8
0
  6
Continuous
 62
     7
370
    15
100
AcDbLine
 10
-13.8977034361
 20
34.5093357846
 30
0.0
 11
-13.8977034361
 21
36.0718363478
 31
0.0
  0
LINE
  5
EC
330
1F
100
AcDbEntity
  8
0
  6
Continuous
 62
     7
370
    15
100
AcDbLine
 10
-13.7574776427
 20
34.5093357846
 30
0.0
 11
-13.8977034361
 21
34.5093357846
 31
0.0
  0
LINE
  5
ED
330
1F
100
AcDbEntity
  8
0
  6
Continuous
 62
     7
370
    15
100
AcDbLine
 10
-12.1348796404
 20
35.5109378674
 30
0.0
 11
-12.1348796404
 21
35.6511636608
 31
0.0
  0
LINE
  5
EE
330
1F
100
AcDbEntity
  8
0
  6
Continuous
 62
     7
370
    15
100
AcDbLine
 10
-11.9345611012
 20
35.5109378674
 30
0.0
 11
-12.1348796404
 21
35.5109378674
 31
0.0
  0
LINE
  5
EF
330
1F
100
AcDbEntity
  8
0
  6
Continuous
 62
     7
370
    15
100
AcDbLine
 10
-11.9345611012
 20
34.5093357846
 30
0.0
 11
-11.9345611012
 21
35.5109378674
 31
0.0
  0
LINE
  5
F0
330
1F
100
AcDbEntity
  8
0
  6
Continuous
 62
     7
370
    15
100
AcDbLine
 10
-11.7943353077
 20
34.5093357846
 30
0.0
 11
-11.9345611012
 21
34.5093357846
 31
0.0
  0
LINE
  5
F1
330
1F
100
AcDbEntity
  8
0
  6
Continuous
 62
     7
370
    15
100
AcDbLine
 10
-11.7943353077
 20
35.5109378674
 30
0.0
 11
-11.7943353077
 21
34.5093357846
 31
0.0
  0
LINE
  5
F2
330
1F
100
AcDbEntity
  8
0
  6
Continuous
 62
     7
370
    15
100
AcDbLine
 10
-11.5940167685
 20
35.5109378674
 30
0.0
 11
-11.7943353077
 21
35.5109378674
 31
0.0
  0
LINE
  5
F3
330
1F
100
AcDbEntity
  8
0
  6
Continuous
 62
     7
370
    15
100
AcDbLine
 10
-11.5940167685
 20
35.6511636608
 30
0.0
 11
-11.5940167685
 21
35.5109378674
 31
0.0
  0
LINE
  5
F4
330
1F
100
AcDbEntity
  8
0
  6
Continuous
 62
     7
370
    15
100
AcDbLine
 10
-11.7943353077
 20
35.6511636608
 30
0.0
 11
-11.5940167685
 21
35.6511636608
 31
0.0
  0
LINE
  5
F5
330
1F
100
AcDbEntity
  8
0
  6
Continuous
 62
     7
370
    15
100
AcDbLine
 10
-11.7943353077
 20
36.1118981783
 30
0.0
 11
-11.7943353077
 21
35.6511636608
 31
0.0
  0
LINE
  5
F6
330
1F
100
AcDbEntity
  8
0
  6
Continuous
 62
     7
370
    15
100
AcDbLine
 10
-11.9345611012
 20
36.1118981783
 30
0.0
 11
-11.7943353077
 21
36.1118981783
 31
0.0
  0
LINE
  5
F7
330
1F
100
AcDbEntity
  8
0
  6
Continuous
 62
     7
370
    15
100
AcDbLine
 10
-11.9345611012
 20
35.6511636608
 30
0.0
 11
-11.9345611012
 21
36.1118981783
 31
0.0
  0
LINE
  5
F8
330
1F
100
AcDbEntity
  8
0
  6
Continuous
 62
     7
370
    15
100
AcDbLine
 10
-12.1348796404
 20
35.6511636608
 30
0.0
 11
-11.9345611012
 21
35.6511636608
 31
0.0
  0
LINE
  5
F9
330
1F
100
AcDbEntity
  8
0
  6
Continuous
 62
     7
370
    15
100
AcDbLine
 10
-9.8512285813
 20
34.893072365
 30
0.0
 11
-9.8512285813
 21
34.5093357846
 31
0.0
  0
SPLINE
  5
FA
330
1F
100
AcDbEntity
  8
0
  6
Continuous
 62
     7
370
    15
100
AcDbSpline
210
0.0
220
0.0
230
1.0
 70
     8
 71
     3
 72
    10
 73
     6
 74
     0
 42
0.000000001
 43
0.00000001
 40
0.0
 40
0.0
 40
0.0
 40
0.0
 40
0.2798062881051963
 40
0.5598846248566818
 40
1.0
 40
1.0
 40
1.0
 40
1.0
 10
-9.826185243955184
 20
35.28495178462953
 30
0.0
 10
-9.832323013264066
 20
35.24875125218667
 30
0.0
 10
-9.844604519481226
 20
35.17631499042994
 30
0.0
 10
-9.849848263464997
 20
35.04511916583683
 30
0.0
 10
-9.850705014696226
 20
34.9507450450885
 30
0.0
 10
-9.851228581319083
 20
34.89307236498735
 30
0.0
  0
SPLINE
  5
FB
330
1F
100
AcDbEntity
  8
0
  6
Continuous
 62
     7
370
    15
100
AcDbSpline
210
0.0
220
0.0
230
1.0
 70
     8
 71
     3
 72
    11
 73
     7
 74
     0
 42
0.000000001
 43
0.00000001
 40
0.0
 40
0.0
 40
0.0
 40
0.0
 40
0.2779240064627949
 40
0.5579314021784901
 40
0.7788682404037596
 40
0.9999999999999999
 40
0.9999999999999999
 40
0.9999999999999999
 40
0.9999999999999999
 10
-9.599260505409129
 20
35.53096878262017
 30
0.0
 10
-9.632329768419915
 20
35.52381030392173
 30
0.0
 10
-9.6987161900732
 20
35.50943968474233
 30
0.0
 10
-9.764346443498741
 20
35.43735692549521
 30
0.0
 10
-9.803657125353741
 20
35.36086809202158
 30
0.0
 10
-9.818673664006523
 20
35.31026465795339
 30
0.0
 10
-9.826185243955184
 20
35.28495178462953
 30
0.0
  0
SPLINE
  5
FC
330
1F
100
AcDbEntity
  8
0
  6
Continuous
 62
     7
370
    15
100
AcDbSpline
210
0.0
220
0.0
230
1.0
 70
     8
 71
     3
 72
     9
 73
     5
 74
     0
 42
0.000000001
 43
0.00000001
 40
0.0
 40
0.0
 40
0.0
 40
0.0
 40
0.5604158247830556
 40
0.9999999999999999
 40
0.9999999999999999
 40
0.9999999999999999
 40
0.9999999999999999
 10
-9.527584746746951
 20
35.51062341765157
 30
0.0
 10
-9.540396067301185
 20
35.51656967228305
 30
0.0
 10
-9.563256450587476
 20
35.52718010540886
 30
0.0
 10
-9.588266488514735
 20
35.52981189122352
 30
0.0
 10
-9.599260505409129
 20
35.53096878262017
 30
0.0
  0
LINE
  5
FD
330
1F
100
AcDbEntity
  8
0
  6
Continuous
 62
     7
370
    15
100
AcDbLine
 10
-9.4505868096
 20
35.6320714013
 30
0.0
 11
-9.5275847467
 21
35.5106234177
 31
0.0
  0
SPLINE
  5
FE
330
1F
100
AcDbEntity
  8
0
  6
Continuous
 62
     7
370
    15
100
AcDbSpline
210
0.0
220
0.0
230
1.0
 70
     8
 71
     3
 72
     9
 73
     5
 74
     0
 42
0.000000001
 43
0.00000001
 40
0.0
 40
0.0
 40
0.0
 40
0.0
 40
0.5592455916575089
 40
1.0
 40
1.0
 40
1.0
 40
1.0
 10
-9.572658999378662
 20
35.67119457605317
 30
0.0
 10
-9.548414699533149
 20
35.66830156486332
 30
0.0
 10
-9.505062905246017
 20
35.66312850452451
 30
0.0
 10
-9.467252092130636
 20
35.64157236490492
 30
0.0
 10
-9.450586809567016
 20
35.63207140134076
 30
0.0
  0
SPLINE
  5
FF
330
1F
100
AcDbEntity
  8
0
  6
Continuous
 62
     7
370
    15
100
AcDbSpline
210
0.0
220
0.0
230
1.0
 70
     8
 71
     3
 72
    11
 73
     7
 74
     0
 42
0.000000001
 43
0.00000001
 40
0.0
 40
0.0
 40
0.0
 40
0.0
 40
0.2803325961558339
 40
0.5602086638530456
 40
0.7801940104770375
 40
1.0
 40
1.0
 40
1.0
 40
1.0
 10
-9.851228581319083
 20
35.48308325579787
 30
0.0
 10
-9.832745144872824
 20
35.51026969587428
 30
0.0
 10
-9.795808372706604
 20
35.56459830224746
 30
0.0
 10
-9.726821879385472
 20
35.6258811505976
 30
0.0
 10
-9.650099053242936
 20
35.6643176060519
 30
0.0
 10
-9.598465331523904
 20
35.66890287604588
 30
0.0
 10
-9.572658999378671
 20
35.67119457605318
 30
0.0
  0
LINE
  5
100
330
1F
100
AcDbEntity
  8
0
  6
Continuous
 62
     7
370
    15
100
AcDbLine
 10
-9.8512285813
 20
35.6511636608
 30
0.0
 11
-9.8512285813
 21
35.4830832558
 31
0.0
  0
LINE
  5
101
330
1F
100
AcDbEntity
  8
0
  6
Continuous
 62
     7
370
    15
100
AcDbLine
 10
-9.9914496815
 20
35.6511636608
 30
0.0
 11
-9.8512285813
 21
35.6511636608
 31
0.0
  0
LINE
  5
102
330
1F
100
AcDbEntity
  8
0
  6
Continuous
 62
     7
370
    15
100
AcDbLine
 10
-9.9914496815
 20
34.5093357846
 30
0.0
 11
-9.9914496815
 21
35.6511636608
 31
0.0
  0
LINE
  5
103
330
1F
100
AcDbEntity
  8
0
  6
Continuous
 62
     7
370
    15
100
AcDbLine
 10
-9.8512285813
 20
34.5093357846
 30
0.0
 11
-9.9914496815
 21
34.5093357846
 31
0.0
  0
SPLINE
  5
104
330
1F
100
AcDbEntity
  8
0
  6
Continuous
 62
     7
370
    15
100
AcDbSpline
210
0.0
220
0.0
230
1.0
 70
     8
 71
     3
 72
    11
 73
     7
 74
     0
 42
0.000000001
 43
0.00000001
 40
0.0
 40
0.0
 40
0.0
 40
0.0
 40
0.2799806005727073
 40
0.5597488710212486
 40
0.7798129354173073
 40
1.0
 40
1.0
 40
1.0
 40
1.0
 10
-8.069626975866191
 20
35.67119457605317
 30
0.0
 10
-8.019336506620968
 20
35.6682195476258
 30
0.0
 10
-7.918793707135732
 20
35.66227174695654
 30
0.0
 10
-7.78662215993464
 20
35.60988916977188
 30
0.0
 10
-7.681658064642658
 20
35.53266889604971
 30
0.0
 10
-7.632316851826907
 20
35.47081960184261
 30
0.0
 10
-7.607639352786644
 20
35.43988631481262
 30
0.0
  0
SPLINE
  5
105
330
1F
100
AcDbEntity
  8
0
  6
Continuous
 62
     7
370
    15
100
AcDbSpline
210
0.0
220
0.0
230
1.0
 70
     8
 71
     3
 72
    14
 73
    10
 74
     0
 42
0.000000001
 43
0.00000001
 40
0.0
 40
0.0
 40
0.0
 40
0.0
 40
0.1400225935901734
 40
0.2799732851147993
 40
0.4199653068052408
 40
0.5600263503885977
 40
0.7066668552711838
 40
0.8532961729283818
 40
1.0
 40
1.0
 40
1.0
 40
1.0
 10
-8.669334181330711
 20
35.08338013986904
 30
0.0
 10
-8.66690050444645
 20
35.12700162105338
 30
0.0
 10
-8.662034400379069
 20
35.21422218364702
 30
0.0
 10
-8.61695352172092
 20
35.33862706525064
 30
0.0
 10
-8.545577532878802
 20
35.44892765399394
 30
0.0
 10
-8.450783632580526
 20
35.54299689628753
 30
0.0
 10
-8.337283731879873
 20
35.6170761196162
 30
0.0
 10
-8.20669080157017
 20
35.66372479610407
 30
0.0
 10
-8.115322653894275
 20
35.66870422779576
 30
0.0
 10
-8.069626975866191
 20
35.67119457605317
 30
0.0
  0
SPLINE
  5
106
330
1F
100
AcDbEntity
  8
0
  6
Continuous
 62
     7
370
    15
100
AcDbSpline
210
0.0
220
0.0
230
1.0
 70
     8
 71
     3
 72
    14
 73
    10
 74
     0
 42
0.000000001
 43
0.00000001
 40
0.0
 40
0.0
 40
0.0
 40
0.0
 40
0.140048446987012
 40
0.2800089186616497
 40
0.4200251148669435
 40
0.5600971880210527
 40
0.7067213625604599
 40
0.8533025256889418
 40
1.0
 40
1.0
 40
1.0
 40
1.0
 10
-8.074010498560696
 20
34.48930486934392
 30
0.0
 10
-8.117709400913494
 20
34.49176507777744
 30
0.0
 10
-8.205079754942789
 20
34.49668394919642
 30
0.0
 10
-8.33054248465499
 20
34.53939305426622
 30
0.0
 10
-8.44218074384647
 20
34.60931983954672
 30
0.0
 10
-8.538448331051503
 20
34.70233907632729
 30
0.0
 10
-8.61399728767373
 20
34.81536044440658
 30
0.0
 10
-8.661532296438912
 20
34.94601167302067
 30
0.0
 10
-8.666732865536689
 20
35.03757854610418
 30
0.0
 10
-8.669334181330711
 20
35.08338013986904
 30
0.0
  0
SPLINE
  5
107
330
1F
100
AcDbEntity
  8
0
  6
Continuous
 62
     7
370
    15
100
AcDbSpline
210
0.0
220
0.0
230
1.0
 70
     8
 71
     3
 72
    11
 73
     7
 74
     0
 42
0.000000001
 43
0.00000001
 40
0.0
 40
0.0
 40
0.0
 40
0.0
 40
0.2799907872910912
 40
0.5597202742296818
 40
0.7798634315049395
 40
1.0
 40
1.0
 40
1.0
 40
1.0
 10
-7.607639352786635
 20
34.70683835637851
 30
0.0
 10
-7.641614948734364
 20
34.67027472082405
 30
0.0
 10
-7.709534433032303
 20
34.59718157259093
 30
0.0
 10
-7.833027684281405
 20
34.52998941319828
 30
0.0
 10
-7.956690339244827
 20
34.49468355013031
 30
0.0
 10
-8.034904168945042
 20
34.49109774505221
 30
0.0
 10
-8.074010498560696
 20
34.48930486934392
 30
0.0
  0
LINE
  5
108
330
1F
100
AcDbEntity
  8
0
  6
Continuous
 62
     7
370
    15
100
AcDbLine
 10
-7.6076393528
 20
34.5093357846
 30
0.0
 11
-7.6076393528
 21
34.7068383564
 31
0.0
  0
LINE
  5
109
330
1F
100
AcDbEntity
  8
0
  6
Continuous
 62
     7
370
    15
100
AcDbLine
 10
-7.4674135594
 20
34.5093357846
 30
0.0
 11
-7.6076393528
 21
34.5093357846
 31
0.0
  0
LINE
  5
10A
330
1F
100
AcDbEntity
  8
0
  6
Continuous
 62
     7
370
    15
100
AcDbLine
 10
-7.4674135594
 20
35.6511636608
 30
0.0
 11
-7.4674135594
 21
34.5093357846
 31
0.0
  0
LINE
  5
10B
330
1F
100
AcDbEntity
  8
0
  6
Continuous
 62
     7
370
    15
100
AcDbLine
 10
-7.6076393528
 20
35.6511636608
 30
0.0
 11
-7.4674135594
 21
35.6511636608
 31
0.0
  0
LINE
  5
10C
330
1F
100
AcDbEntity
  8
0
  6
Continuous
 62
     7
370
    15
100
AcDbLine
 10
-7.6076393528
 20
35.4398863148
 30
0.0
 11
-7.6076393528
 21
35.6511636608
 31
0.0
  0
LINE
  5
10D
330
1F
100
AcDbEntity
  8
0
  6
Continuous
 62
     7
370
    15
100
AcDbLine
 10
-4.6228616732
 20
35.0501986565
 30
0.0
 11
-5.6444970178
 21
35.0501986565
 31
0.0
  0
SPLINE
  5
10E
330
1F
100
AcDbEntity
  8
0
  6
Continuous
 62
     7
370
    15
100
AcDbSpline
210
0.0
220
0.0
230
1.0
 70
     8
 71
     3
 72
    11
 73
     7
 74
     0
 42
0.000000001
 43
0.00000001
 40
0.0
 40
0.0
 40
0.0
 40
0.0
 40
0.2798418788997367
 40
0.5597367298344718
 40
0.7798374174211816
 40
1.0
 40
1.0
 40
1.0
 40
1.0
 10
-4.747123277712432
 20
35.44646159885437
 30
0.0
 10
-4.724963200466145
 20
35.41369396281232
 30
0.0
 10
-4.680638851231909
 20
35.3481524880527
 30
0.0
 10
-4.645254175186223
 20
35.24306445592116
 30
0.0
 10
-4.626176151032436
 20
35.14325327246732
 30
0.0
 10
-4.623966602683627
 20
35.08121976885487
 30
0.0
 10
-4.622861673193091
 20
35.05019865651769
 30
0.0
  0
SPLINE
  5
10F
330
1F
100
AcDbEntity
  8
0
  6
Continuous
 62
     7
370
    15
100
AcDbSpline
210
0.0
220
0.0
230
1.0
 70
     8
 71
     3
 72
    11
 73
     7
 74
     0
 42
0.000000001
 43
0.00000001
 40
0.0
 40
0.0
 40
0.0
 40
0.0
 40
0.2799893215028716
 40
0.5597309269190421
 40
0.7798376206942654
 40
1.0
 40
1.0
 40
1.0
 40
1.0
 10
-5.206923832723851
 20
35.67119457605317
 30
0.0
 10
-5.157231332491
 20
35.66827824392711
 30
0.0
 10
-5.057890296672332
 20
35.66244815985328
 30
0.0
 10
-4.927377688382252
 20
35.61074089917823
 30
0.0
 10
-4.822830897214758
 20
35.53594245600789
 30
0.0
 10
-4.772361278690375
 20
35.47629106615494
 30
0.0
 10
-4.747123277712432
 20
35.44646159885437
 30
0.0
  0
SPLINE
  5
110
330
1F
100
AcDbEntity
  8
0
  6
Continuous
 62
     7
370
    15
100
AcDbSpline
210
0.0
220
0.0
230
1.0
 70
     8
 71
     3
 72
    11
 73
     7
 74
     0
 42
0.000000001
 43
0.00000001
 40
0.0
 40
0.0
 40
0.0
 40
0.0
 40
0.2799331548591759
 40
0.559648953341199
 40
0.7797697004535348
 40
0.9999999999999999
 40
0.9999999999999999
 40
0.9999999999999999
 40
0.9999999999999999
 10
-5.653259369950971
 20
35.45835436813475
 30
0.0
 10
-5.621346688188473
 20
35.49432900878433
 30
0.0
 10
-5.557546103525066
 20
35.56625035728089
 30
0.0
 10
-5.438933290927521
 20
35.63181775028805
 30
0.0
 10
-5.319991480378881
 20
35.6664862814288
 30
0.0
 10
-5.24461929908106
 20
35.66962488423333
 30
0.0
 10
-5.206923832723851
 20
35.67119457605317
 30
0.0
  0
SPLINE
  5
111
330
1F
100
AcDbEntity
  8
0
  6
Continuous
 62
     7
370
    15
100
AcDbSpline
210
0.0
220
0.0
230
1.0
 70
     8
 71
     3
 72
    11
 73
     7
 74
     0
 42
0.000000001
 43
0.00000001
 40
0.0
 40
0.0
 40
0.0
 40
0.0
 40
0.2799707403749392
 40
0.5598637666866174
 40
0.7799151598307718
 40
1.0
 40
1.0
 40
1.0
 40
1.0
 10
-5.784722811274079
 20
35.07711930552806
 30
0.0
 10
-5.782922167116432
 20
35.11552022537316
 30
0.0
 10
-5.779321378622558
 20
35.19231140576551
 30
0.0
 10
-5.748866516493225
 20
35.29561618083557
 30
0.0
 10
-5.706469680981931
 20
35.38507633609635
 30
0.0
 10
-5.670997038845464
 20
35.43392712002525
 30
0.0
 10
-5.653259369950979
 20
35.45835436813476
 30
0.0
  0
SPLINE
  5
112
330
1F
100
AcDbEntity
  8
0
  6
Continuous
 62
     7
370
    15
100
AcDbSpline
210
0.0
220
0.0
230
1.0
 70
     8
 71
     3
 72
    14
 73
    10
 74
     0
 42
0.000000001
 43
0.00000001
 40
0.0
 40
0.0
 40
0.0
 40
0.0
 40
0.1400869236897959
 40
0.2800578866334348
 40
0.4199728311830661
 40
0.5599509690818102
 40
0.7066273666483553
 40
0.853298735201136
 40
1.0
 40
1.0
 40
1.0
 40
1.0
 10
-5.210364006316005
 20
34.48930486934392
 30
0.0
 10
-5.253294585503992
 20
34.49126167749913
 30
0.0
 10
-5.339120206930014
 20
34.4951736740086
 30
0.0
 10
-5.463330465460398
 20
34.53375899482342
 30
0.0
 10
-5.573707460263794
 20
34.60242845339151
 30
0.0
 10
-5.662252942909666
 20
34.69998526330276
 30
0.0
 10
-5.731432956442456
 20
34.81368391328741
 30
0.0
 10
-5.777167913475698
 20
34.94215864633337
 30
0.0
 10
-5.782204340928292
 20
35.03212936296352
 30
0.0
 10
-5.784722811274079
 20
35.07711930552806
 30
0.0
  0
SPLINE
  5
113
330
1F
100
AcDbEntity
  8
0
  6
Continuous
 62
     7
370
    15
100
AcDbSpline
210
0.0
220
0.0
230
1.0
 70
     8
 71
     3
 72
    12
 73
     8
 74
     0
 42
0.000000001
 43
0.00000001
 40
0.0
 40
0.0
 40
0.0
 40
0.0
 40
0.1868322706251694
 40
0.3734590035833619
 40
0.5601326851517436
 40
0.7799350144096509
 40
1.0
 40
1.0
 40
1.0
 40
1.0
 10
-4.68295911227568
 20
34.80449610822783
 30
0.0
 10
-4.703485641422697
 20
34.76963618456781
 30
0.0
 10
-4.744516118099014
 20
34.69995468730021
 30
0.0
 10
-4.829658891962656
 20
34.61208998884489
 30
0.0
 10
-4.937866177755253
 20
34.54204165458052
 30
0.0
 10
-5.067389658558217
 20
34.49602151816493
 30
0.0
 10
-5.162686922229962
 20
34.49154464337079
 30
0.0
 10
-5.210364006316005
 20
34.48930486934392
 30
0.0
  0
LINE
  5
114
330
1F
100
AcDbEntity
  8
0
  6
Continuous
 62
     7
370
    15
100
AcDbLine
 10
-4.8075328199
 20
34.8699110325
 30
0.0
 11
-4.6829591123
 21
34.8044961082
 31
0.0
  0
SPLINE
  5
115
330
1F
100
AcDbEntity
  8
0
  6
Continuous
 62
     7
370
    15
100
AcDbSpline
210
0.0
220
0.0
230
1.0
 70
     8
 71
     3
 72
    11
 73
     7
 74
     0
 42
0.000000001
 43
0.00000001
 40
0.0
 40
0.0
 40
0.0
 40
0.0
 40
0.2798995022298707
 40
0.5596992552324103
 40
0.7795388873879773
 40
1.0
 40
1.0
 40
1.0
 40
1.0
 10
-5.227893403814909
 20
34.62952596949781
 30
0.0
 10
-5.180577452377446
 20
34.63346563379368
 30
0.0
 10
-5.085962411731857
 20
34.64134355838696
 30
0.0
 10
-4.962232599643237
 20
34.69512174234297
 30
0.0
 10
-4.870990134216687
 20
34.7778023709912
 30
0.0
 10
-4.828705152930602
 20
34.83917926772112
 30
0.0
 10
-4.807532819856246
 20
34.86991103254904
 30
0.0
  0
SPLINE
  5
116
330
1F
100
AcDbEntity
  8
0
  6
Continuous
 62
     7
370
    15
100
AcDbSpline
210
0.0
220
0.0
230
1.0
 70
     8
 71
     3
 72
    13
 73
     9
 74
     0
 42
0.000000001
 43
0.00000001
 40
0.0
 40
0.0
 40
0.0
 40
0.0
 40
0.1867183381176958
 40
0.3732478196894461
 40
0.5597706168574024
 40
0.7064848837694774
 40
0.8531839154005094
 40
1.0
 40
1.0
 40
1.0
 40
1.0
 10
-5.644497017841076
 20
35.05019865651769
 30
0.0
 10
-5.641171265632768
 20
35.00910098691185
 30
0.0
 10
-5.634523125053262
 20
34.92694721600033
 30
0.0
 10
-5.582809630195715
 20
34.81251755883045
 30
0.0
 10
-5.505756942500853
 20
34.72627848971704
 30
0.0
 10
-5.417453693871623
 20
34.6671486825819
 30
0.0
 10
-5.324764289547115
 20
34.63502236307572
 30
0.0
 10
-5.260192282768021
 20
34.63135858772475
 30
0.0
 10
-5.227893403814909
 20
34.62952596949781
 30
0.0
  0
SPLINE
  5
117
330
1F
100
AcDbEntity
  8
0
  6
Continuous
 62
     7
370
    15
100
AcDbSpline
210
0.0
220
0.0
230
1.0
 70
     8
 71
     3
 72
    11
 73
     7
 74
     0
 42
0.000000001
 43
0.00000001
 40
0.0
 40
0.0
 40
0.0
 40
0.0
 40
0.2799796387714862
 40
0.5597510164342304
 40
0.779810820433635
 40
1.0
 40
1.0
 40
1.0
 40
1.0
 10
-1.699434538206153
 20
35.67119457605317
 30
0.0
 10
-1.649144161225482
 20
35.66821937068367
 30
0.0
 10
-1.548600815447506
 20
35.66227117303263
 30
0.0
 10
-1.416427945768517
 20
35.60989070050781
 30
0.0
 10
-1.311465451601739
 20
35.5326673896039
 30
0.0
 10
-1.262123029596114
 20
35.47081939814731
 30
0.0
 10
-1.23744456848704
 20
35.43988631481261
 30
0.0
  0
SPLINE
  5
118
330
1F
100
AcDbEntity
  8
0
  6
Continuous
 62
     7
370
    15
100
AcDbSpline
210
0.0
220
0.0
230
1.0
 70
     8
 71
     3
 72
    23
 73
    19
 74
     0
 42
0.000000001
 43
0.00000001
 40
0.0000011909461736
 40
0.0000011909461736
 40
0.0000011909461736
 40
0.0000011909461736
 40
0.0637745323056319
 40
0.1260788099895052
 40
0.1869040927472019
 40
0.2475739349176182
 40
0.3080033561644458
 40
0.369131898460977
 40
0.4320332277442072
 40
0.4967907944370895
 40
0.5616108232295631
 40
0.6249138657484582
 40
0.6867263492419252
 40
0.7480788332577664
 40
0.8095822911398961
 40
0.8716307425688256
 40
0.9348858208285517
 40
1.0
 40
1.0
 40
1.0
 40
1.0
 10
-2.299144168195407
 20
35.08338014206381
 30
0.0
 10
-2.298584816415333
 20
35.10322963904587
 30
0.0
 10
-2.297478955870346
 20
35.14247138298315
 30
0.0
 10
-2.289240963791351
 20
35.20018471969154
 30
0.0
 10
-2.275387834925616
 20
35.25577322894738
 30
0.0
 10
-2.255946831503358
 20
35.30905757860088
 30
0.0
 10
-2.231017387323392
 20
35.36010224384578
 30
0.0
 10
-2.200692348474803
 20
35.40894332644174
 30
0.0
 10
-2.164969524948519
 20
35.45571537888012
 30
0.0
 10
-2.123785414673358
 20
35.49931860513851
 30
0.0
 10
-2.079171677993615
 20
35.53959566508021
 30
0.0
 10
-2.03144456597782
 20
35.57459970322417
 30
0.0
 10
-1.981791315388169
 20
35.60483043930275
 30
0.0
 10
-1.92944175711925
 20
35.62878288408238
 30
0.0
 10
-1.875170728184416
 20
35.64816194861115
 30
0.0
 10
-1.81849508276155
 20
35.66156952365602
 30
0.0
 10
-1.75965062799567
 20
35.66947011349531
 30
0.0
 10
-1.719699515466827
 20
35.67061420463418
 30
0.0
 10
-1.699434664276134
 20
35.67119453482302
 30
0.0
  0
SPLINE
  5
119
330
1F
100
AcDbEntity
  8
0
  6
Continuous
 62
     7
370
    15
100
AcDbSpline
210
0.0
220
0.0
230
1.0
 70
     8
 71
     3
 72
    14
 73
    10
 74
     0
 42
0.000000001
 43
0.00000001
 40
0.0
 40
0.0
 40
0.0
 40
0.0
 40
0.1400481218345942
 40
0.2800130344867882
 40
0.4200267716261043
 40
0.5600985195729424
 40
0.7067223536929741
 40
0.8533023371872691
 40
1.0
 40
1.0
 40
1.0
 40
1.0
 10
-1.7038157142611
 20
34.48930486934392
 30
0.0
 10
-1.747514535166984
 20
34.49176530969395
 30
0.0
 10
-1.834886213452007
 20
34.49668472853058
 30
0.0
 10
-1.960350855003612
 20
34.53939122604194
 30
0.0
 10
-2.071988616042719
 20
34.60932073798573
 30
0.0
 10
-2.168255680905506
 20
34.70233902736356
 30
0.0
 10
-2.24380579095109
 20
34.81535994999194
 30
0.0
 10
-2.291335645367688
 20
34.94601246383817
 30
0.0
 10
-2.29654057915965
 20
35.03757866737264
 30
0.0
 10
-2.299144090310232
 20
35.08338013986904
 30
0.0
  0
SPLINE
  5
11A
330
1F
100
AcDbEntity
  8
0
  6
Continuous
 62
     7
370
    15
100
AcDbSpline
210
0.0
220
0.0
230
1.0
 70
     8
 71
     3
 72
    11
 73
     7
 74
     0
 42
0.000000001
 43
0.00000001
 40
0.0
 40
0.0
 40
0.0
 40
0.0
 40
0.2799943029135641
 40
0.5597241319586094
 40
0.7798675584668173
 40
1.0
 40
1.0
 40
1.0
 40
1.0
 10
-1.23744456848704
 20
34.70683835637851
 30
0.0
 10
-1.27142101997136
 20
34.67027479223172
 30
0.0
 10
-1.339341829845706
 20
34.59718220073818
 30
0.0
 10
-1.462835178690449
 20
34.52998933930123
 30
0.0
 10
-1.586497159539996
 20
34.49468378659455
 30
0.0
 10
-1.664710179831141
 20
34.49109781193719
 30
0.0
 10
-1.7038157142611
 20
34.48930486934392
 30
0.0
  0
LINE
  5
11B
330
1F
100
AcDbEntity
  8
0
  6
Continuous
 62
     7
370
    15
100
AcDbLine
 10
-1.2374445685
 20
34.5093357846
 30
0.0
 11
-1.2374445685
 21
34.7068383564
 31
0.0
  0
LINE
  5
11C
330
1F
100
AcDbEntity
  8
0
  6
Continuous
 62
     7
370
    15
100
AcDbLine
 10
-1.0972211217
 20
34.5093357846
 30
0.0
 11
-1.2374445685
 21
34.5093357846
 31
0.0
  0
LINE
  5
11D
330
1F
100
AcDbEntity
  8
0
  6
Continuous
 62
     7
370
    15
100
AcDbLine
 10
-1.0972211217
 20
35.6511636608
 30
0.0
 11
-1.0972211217
 21
34.5093357846
 31
0.0
  0
LINE
  5
11E
330
1F
100
AcDbEntity
  8
0
  6
Continuous
 62
     7
370
    15
100
AcDbLine
 10
-1.2374445685
 20
35.6511636608
 30
0.0
 11
-1.0972211217
 21
35.6511636608
 31
0.0
  0
LINE
  5
11F
330
1F
100
AcDbEntity
  8
0
  6
Continuous
 62
     7
370
    15
100
AcDbLine
 10
-1.2374445685
 20
35.4398863148
 30
0.0
 11
-1.2374445685
 21
35.6511636608
 31
0.0
  0
LINE
  5
120
330
1F
100
AcDbEntity
  8
0
  6
Continuous
 62
     7
370
    15
100
AcDbLine
 10
1.6672024101
 20
35.0501986565
 30
0.0
 11
0.6455670655
 21
35.0501986565
 31
0.0
  0
SPLINE
  5
121
330
1F
100
AcDbEntity
  8
0
  6
Continuous
 62
     7
370
    15
100
AcDbSpline
210
0.0
220
0.0
230
1.0
 70
     8
 71
     3
 72
    11
 73
     7
 74
     0
 42
0.000000001
 43
0.00000001
 40
0.0
 40
0.0
 40
0.0
 40
0.0
 40
0.2798418788997367
 40
0.5597367298344718
 40
0.7798374174211816
 40
1.0
 40
1.0
 40
1.0
 40
1.0
 10
1.542940805597192
 20
35.44646159885437
 30
0.0
 10
1.565100882843475
 20
35.41369396281232
 30
0.0
 10
1.609425232077715
 20
35.3481524880527
 30
0.0
 10
1.644809908123401
 20
35.24306445592116
 30
0.0
 10
1.663887932277192
 20
35.14325327246732
 30
0.0
 10
1.666097480625997
 20
35.08121976885487
 30
0.0
 10
1.667202410116533
 20
35.05019865651769
 30
0.0
  0
SPLINE
  5
122
330
1F
100
AcDbEntity
  8
0
  6
Continuous
 62
     7
370
    15
100
AcDbSpline
210
0.0
220
0.0
230
1.0
 70
     8
 71
     3
 72
    11
 73
     7
 74
     0
 42
0.000000001
 43
0.00000001
 40
0.0
 40
0.0
 40
0.0
 40
0.0
 40
0.2799818394435736
 40
0.5597288725058039
 40
0.7798365933577246
 40
1.0
 40
1.0
 40
1.0
 40
1.0
 10
1.083142597225332
 20
35.67119457605317
 30
0.0
 10
1.132833465163384
 20
35.66827796421729
 30
0.0
 10
1.232173527862024
 20
35.66244718655798
 30
0.0
 10
1.362685857273978
 20
35.61074150086739
 30
0.0
 10
1.4672331724084
 20
35.5359424170337
 30
0.0
 10
1.5177028000567
 20
35.47629105316244
 30
0.0
 10
1.542940805597192
 20
35.44646159885437
 30
0.0
  0
SPLINE
  5
123
330
1F
100
AcDbEntity
  8
0
  6
Continuous
 62
     7
370
    15
100
AcDbSpline
210
0.0
220
0.0
230
1.0
 70
     8
 71
     3
 72
    11
 73
     7
 74
     0
 42
0.000000001
 43
0.00000001
 40
0.0
 40
0.0
 40
0.0
 40
0.0
 40
0.2799340814763896
 40
0.5596436023691603
 40
0.779766946175698
 40
0.9999999999999999
 40
0.9999999999999999
 40
0.9999999999999999
 40
0.9999999999999999
 10
0.6368023667190956
 20
35.45835436813475
 30
0.0
 10
0.66871596767182
 20
35.49432881605539
 30
0.0
 10
0.7325175687757594
 20
35.56624885352055
 30
0.0
 10
0.8511294593074116
 20
35.63181892676159
 30
0.0
 10
0.9700727293594364
 20
35.66648612817756
 30
0.0
 10
1.045446381760846
 20
35.66962483276991
 30
0.0
 10
1.083142597225332
 20
35.67119457605317
 30
0.0
  0
SPLINE
  5
124
330
1F
100
AcDbEntity
  8
0
  6
Continuous
 62
     7
370
    15
100
AcDbSpline
210
0.0
220
0.0
230
1.0
 70
     8
 71
     3
 72
    11
 73
     7
 74
     0
 42
0.000000001
 43
0.00000001
 40
0.0
 40
0.0
 40
0.0
 40
0.0
 40
0.2799715435631817
 40
0.5598674256976516
 40
0.7799173521031985
 40
1.0
 40
1.0
 40
1.0
 40
1.0
 10
0.5053436186751041
 20
35.07711930552806
 30
0.0
 10
0.5071429600490032
 20
35.11552034334106
 30
0.0
 10
0.5107411565304634
 20
35.19231204120742
 30
0.0
 10
0.5412011807565219
 20
35.29561515399129
 30
0.0
 10
0.5835940152599318
 20
35.38507628689046
 30
0.0
 10
0.6190653705311734
 20
35.4339271304541
 30
0.0
 10
0.6368023667190912
 20
35.45835436813476
 30
0.0
  0
SPLINE
  5
125
330
1F
100
AcDbEntity
  8
0
  6
Continuous
 62
     7
370
    15
100
AcDbSpline
210
0.0
220
0.0
230
1.0
 70
     8
 71
     3
 72
    14
 73
    10
 74
     0
 42
0.000000001
 43
0.00000001
 40
0.0
 40
0.0
 40
0.0
 40
0.0
 40
0.140084396930805
 40
0.2800553805412262
 40
0.4199746793774522
 40
0.5599493430735889
 40
0.7066284134941201
 40
0.853298977980503
 40
1.0
 40
1.0
 40
1.0
 40
1.0
 10
1.079700076993619
 20
34.48930486934392
 30
0.0
 10
1.03677021411251
 20
34.49126164702552
 30
0.0
 10
0.9509452446714685
 20
34.49517361816763
 30
0.0
 10
0.8267355724653672
 20
34.53376055872954
 30
0.0
 10
0.716354347852297
 20
34.60242508221383
 30
0.0
 10
0.6278147886824913
 20
34.69998864578718
 30
0.0
 10
0.5586270929691366
 20
34.81368165398575
 30
0.0
 10
0.5128966228831908
 20
34.94215925150634
 30
0.0
 10
0.507861460992889
 20
35.03212950731468
 30
0.0
 10
0.5053436186751041
 20
35.07711930552806
 30
0.0
  0
SPLINE
  5
126
330
1F
100
AcDbEntity
  8
0
  6
Continuous
 62
     7
370
    15
100
AcDbSpline
210
0.0
220
0.0
230
1.0
 70
     8
 71
     3
 72
    12
 73
     8
 74
     0
 42
0.000000001
 43
0.00000001
 40
0.0
 40
0.0
 40
0.0
 40
0.0
 40
0.1868323050582312
 40
0.3734590724116049
 40
0.5601327883838205
 40
0.7799385786197355
 40
1.0
 40
1.0
 40
1.0
 40
1.0
 10
1.607104971033945
 20
34.80449610822783
 30
0.0
 10
1.58657844301213
 20
34.76963618102965
 30
0.0
 10
1.545547968584967
 20
34.69995467668964
 30
0.0
 10
1.460405177865473
 20
34.61209003123708
 30
0.0
 10
1.352197335876265
 20
34.54204107966839
 30
0.0
 10
1.222673467205164
 20
34.49602212904977
 30
0.0
 10
1.127376334540812
 20
34.49154482324916
 30
0.0
 10
1.079700076993619
 20
34.48930486934392
 30
0.0
  0
LINE
  5
127
330
1F
100
AcDbEntity
  8
0
  6
Continuous
 62
     7
370
    15
100
AcDbLine
 10
1.4825312635
 20
34.8699110325
 30
0.0
 11
1.607104971
 21
34.8044961082
 31
0.0
  0
SPLINE
  5
128
330
1F
100
AcDbEntity
  8
0
  6
Continuous
 62
     7
370
    15
100
AcDbSpline
210
0.0
220
0.0
230
1.0
 70
     8
 71
     3
 72
    11
 73
     7
 74
     0
 42
0.000000001
 43
0.00000001
 40
0.0
 40
0.0
 40
0.0
 40
0.0
 40
0.2799039899900365
 40
0.5596994104260764
 40
0.7795389650943375
 40
1.0
 40
1.0
 40
1.0
 40
1.0
 10
1.062170679494715
 20
34.62952596949781
 30
0.0
 10
1.10948747969894
 20
34.63346542051099
 30
0.0
 10
1.20410272680026
 20
34.64134279449753
 30
0.0
 10
1.327831946173349
 20
34.69512241643445
 30
0.0
 10
1.41907396575321
 20
34.77780232865622
 30
0.0
 10
1.46135893593766
 20
34.83917925359619
 30
0.0
 10
1.482531263453374
 20
34.86991103254906
 30
0.0
  0
SPLINE
  5
129
330
1F
100
AcDbEntity
  8
0
  6
Continuous
 62
     7
370
    15
100
AcDbSpline
210
0.0
220
0.0
230
1.0
 70
     8
 71
     3
 72
    13
 73
     9
 74
     0
 42
0.000000001
 43
0.00000001
 40
0.0
 40
0.0
 40
0.0
 40
0.0
 40
0.186719228183216
 40
0.3732476604863568
 40
0.5597732187158228
 40
0.7064877994152067
 40
0.8531871448009629
 40
1.0
 40
1.0
 40
1.0
 40
1.0
 10
0.6455670654685434
 20
35.0501986565177
 30
0.0
 10
0.6488940474804813
 20
35.00910114395141
 30
0.0
 10
0.6555446118841612
 20
34.92694811361577
 30
0.0
 10
0.7072535237029736
 20
34.81251607191639
 30
0.0
 10
0.7843096344179481
 20
34.72627920920468
 30
0.0
 10
0.8726125975189061
 20
34.6671485784241
 30
0.0
 10
0.9653014268433752
 20
34.63502265408488
 30
0.0
 10
1.029872604752134
 20
34.63135867001699
 30
0.0
 10
1.062170679494715
 20
34.62952596949781
 30
0.0
  0
SPLINE
  5
12A
330
1F
100
AcDbEntity
  8
0
  6
Continuous
 62
     7
370
    15
100
AcDbSpline
210
0.0
220
0.0
230
1.0
 70
     8
 71
     3
 72
    12
 73
     8
 74
     0
 42
0.000000001
 43
0.00000001
 40
0.0
 40
0.0
 40
0.0
 40
0.0
 40
0.1869034729850326
 40
0.3734782167378497
 40
0.5600613030909504
 40
0.7800343981405361
 40
1.0
 40
1.0
 40
1.0
 40
1.0
 10
-10.37206053795721
 20
35.1904244499507
 30
0.0
 10
-10.38285682437669
 20
35.2262746381512
 30
0.0
 10
-10.40443040851049
 20
35.29791196058834
 30
0.0
 10
-10.46620168833916
 20
35.39387597293749
 30
0.0
 10
-10.56019254848761
 20
35.46816470477849
 30
0.0
 10
-10.67640333182543
 20
35.52070192122725
 30
0.0
 10
-10.76459832283195
 20
35.52754653434915
 30
0.0
 10
-10.8086950672512
 20
35.53096878262017
 30
0.0
  0
LINE
  5
12B
330
1F
100
AcDbEntity
  8
0
  6
Continuous
 62
     7
370
    15
100
AcDbLine
 10
-11.2387590058
 20
35.19042445
 30
0.0
 11
-10.372060538
 21
35.19042445
 31
0.0
  0
SPLINE
  5
12C
330
1F
100
AcDbEntity
  8
0
  6
Continuous
 62
     7
370
    15
100
AcDbSpline
210
0.0
220
0.0
230
1.0
 70
     8
 71
     3
 72
    10
 73
     6
 74
     0
 42
0.000000001
 43
0.00000001
 40
0.0
 40
0.0
 40
0.0
 40
0.0
 40
0.2799246310530756
 40
0.5599727006229279
 40
1.0
 40
1.0
 40
1.0
 40
1.0
 10
-11.10291673504405
 20
35.42392447253851
 30
0.0
 10
-11.12106919674511
 20
35.40587667310984
 30
0.0
 10
-11.15738212484815
 20
35.3697731157046
 30
0.0
 10
-11.20434400677586
 20
35.29058770999018
 30
0.0
 10
-11.22570538606038
 20
35.22841640533139
 30
0.0
 10
-11.23875900578256
 20
35.1904244499507
 30
0.0
  0
SPLINE
  5
12D
330
1F
100
AcDbEntity
  8
0
  6
Continuous
 62
     7
370
    15
100
AcDbSpline
210
0.0
220
0.0
230
1.0
 70
     8
 71
     3
 72
    11
 73
     7
 74
     0
 42
0.000000001
 43
0.00000001
 40
0.0
 40
0.0
 40
0.0
 40
0.0
 40
0.2799667373048649
 40
0.559821602941415
 40
0.7798843789959404
 40
1.0
 40
1.0
 40
1.0
 40
1.0
 10
-10.8086950672512
 20
35.53096878262017
 30
0.0
 10
-10.83861365971481
 20
35.52962570277796
 30
0.0
 10
-10.89843888949733
 20
35.52694007977366
 30
0.0
 10
-10.97874018488758
 20
35.50250747311922
 30
0.0
 10
-11.04784433062565
 20
35.46807299673964
 30
0.0
 10
-11.0845577977114
 20
35.43864182504379
 30
0.0
 10
-11.10291673504406
 20
35.42392447253852
 30
0.0
  0
SPLINE
  5
12E
330
1F
100
AcDbEntity
  8
0
  6
Continuous
 62
     7
370
    15
100
AcDbSpline
210
0.0
220
0.0
230
1.0
 70
     8
 71
     3
 72
    12
 73
     8
 74
     0
 42
0.000000001
 43
0.00000001
 40
0.0
 40
0.0
 40
0.0
 40
0.0
 40
0.1869025889805268
 40
0.3734764502836414
 40
0.5600556253976912
 40
0.7800276800321146
 40
1.0
 40
1.0
 40
1.0
 40
1.0
 10
-4.763087466626097
 20
35.1904244499507
 30
0.0
 10
-4.773883728519189
 20
35.22627466859216
 30
0.0
 10
-4.795457263643337
 20
35.29791205185764
 30
0.0
 10
-4.857228576498403
 20
35.39387508963977
 30
0.0
 10
-4.951217247159769
 20
35.46816549800606
 30
0.0
 10
-5.067429479590079
 20
35.5207024525254
 30
0.0
 10
-5.15562603717248
 20
35.52754667121265
 30
0.0
 10
-5.199724342559651
 20
35.53096878262018
 30
0.0
  0
LINE
  5
12F
330
1F
100
AcDbEntity
  8
0
  6
Continuous
 62
     7
370
    15
100
AcDbLine
 10
-5.6297835878
 20
35.19042445
 30
0.0
 11
-4.7630874666
 21
35.19042445
 31
0.0
  0
SPLINE
  5
130
330
1F
100
AcDbEntity
  8
0
  6
Continuous
 62
     7
370
    15
100
AcDbSpline
210
0.0
220
0.0
230
1.0
 70
     8
 71
     3
 72
    10
 73
     6
 74
     0
 42
0.000000001
 43
0.00000001
 40
0.0
 40
0.0
 40
0.0
 40
0.0
 40
0.2799246310530756
 40
0.5599727006229279
 40
1.0
 40
1.0
 40
1.0
 40
1.0
 10
-5.49394131707338
 20
35.42392447253851
 30
0.0
 10
-5.512093778774441
 20
35.40587667310984
 30
0.0
 10
-5.54840670687748
 20
35.3697731157046
 30
0.0
 10
-5.595368588805187
 20
35.29058770999018
 30
0.0
 10
-5.616729968089712
 20
35.22841640533139
 30
0.0
 10
-5.629783587811884
 20
35.1904244499507
 30
0.0
  0
SPLINE
  5
131
330
1F
100
AcDbEntity
  8
0
  6
Continuous
 62
     7
370
    15
100
AcDbSpline
210
0.0
220
0.0
230
1.0
 70
     8
 71
     3
 72
    11
 73
     7
 74
     0
 42
0.000000001
 43
0.00000001
 40
0.0
 40
0.0
 40
0.0
 40
0.0
 40
0.2799562111778546
 40
0.5598151679974275
 40
0.779881161137678
 40
1.0
 40
1.0
 40
1.0
 40
1.0
 10
-5.199724342559651
 20
35.53096878262018
 30
0.0
 10
-5.229641353565284
 20
35.52962557199098
 30
0.0
 10
-5.289464982666518
 20
35.52693961735223
 30
0.0
 10
-5.369764765711547
 20
35.50250747402399
 30
0.0
 10
-5.438868912925755
 20
35.46807299653639
 30
0.0
 10
-5.475582379830982
 20
35.43864182497603
 30
0.0
 10
-5.49394131707338
 20
35.42392447253851
 30
0.0
  0
SPLINE
  5
132
330
1F
100
AcDbEntity
  8
0
  6
Continuous
 62
     7
370
    15
100
AcDbSpline
210
0.0
220
0.0
230
1.0
 70
     8
 71
     3
 72
    13
 73
     9
 74
     0
 42
0.000000001
 43
0.00000001
 40
0.0
 40
0.0
 40
0.0
 40
0.0
 40
0.1865009010495394
 40
0.3730908059349354
 40
0.5596376909561586
 40
0.706453103285955
 40
0.8532348600831384
 40
1.0
 40
1.0
 40
1.0
 40
1.0
 10
-8.529113081176826
 20
35.08181258464423
 30
0.0
 10
-8.525043936363643
 20
35.03726070171336
 30
0.0
 10
-8.516903704819049
 20
34.94813567435398
 30
0.0
 10
-8.454461821564232
 20
34.82738195130024
 30
0.0
 10
-8.371131559910962
 20
34.73398719860929
 30
0.0
 10
-8.273543468747883
 20
34.67284803243368
 30
0.0
 10
-8.174014606812886
 20
34.63617770287991
 30
0.0
 10
-8.104005394423982
 20
34.6317431302822
 30
0.0
 10
-8.06900276974374
 20
34.62952596949781
 30
0.0
  0
SPLINE
  5
133
330
1F
100
AcDbEntity
  8
0
  6
Continuous
 62
     7
370
    15
100
AcDbSpline
210
0.0
220
0.0
230
1.0
 70
     8
 71
     3
 72
    13
 73
     9
 74
     0
 42
0.000000001
 43
0.00000001
 40
0.0
 40
0.0
 40
0.0
 40
0.0
 40
0.1866148040186877
 40
0.3732131523048094
 40
0.5597123929306485
 40
0.7065170647600388
 40
0.8532926114124464
 40
1.0
 40
1.0
 40
1.0
 40
1.0
 10
-8.067749664219722
 20
35.53096878262017
 30
0.0
 10
-8.112316886542732
 20
35.52760164940005
 30
0.0
 10
-8.201447401241747
 20
35.52086767987429
 30
0.0
 10
-8.324816793428335
 20
35.46384839892041
 30
0.0
 10
-8.419589798034776
 20
35.38169359009411
 30
0.0
 10
-8.482693266313767
 20
35.28554996804156
 30
0.0
 10
-8.521872277101524
 20
35.18684166990978
 30
0.0
 10
-8.5266998535349
 20
35.11681685891147
 30
0.0
 10
-8.529113081176826
 20
35.08181258464423
 30
0.0
  0
SPLINE
  5
134
330
1F
100
AcDbEntity
  8
0
  6
Continuous
 62
     7
370
    15
100
AcDbSpline
210
0.0
220
0.0
230
1.0
 70
     8
 71
     3
 72
    13
 73
     9
 74
     0
 42
0.000000001
 43
0.00000001
 40
0.0
 40
0.0
 40
0.0
 40
0.0
 40
0.1866599336716228
 40
0.3730892986942075
 40
0.5596927289887056
 40
0.7064220452305477
 40
0.8531608438295529
 40
1.0
 40
1.0
 40
1.0
 40
1.0
 10
-7.607639352786644
 20
35.07774351165052
 30
0.0
 10
-7.610800125629787
 20
35.12269369021294
 30
0.0
 10
-7.61711776702279
 20
35.21253852336036
 30
0.0
 10
-7.676904602957234
 20
35.33624626224034
 30
0.0
 10
-7.76307364848167
 20
35.42831995499987
 30
0.0
 10
-7.86071545631009
 20
35.49083254993504
 30
0.0
 10
-7.961968506298854
 20
35.52538241250481
 30
0.0
 10
-8.032481243484016
 20
35.5291062349275
 30
0.0
 10
-8.067749664219722
 20
35.53096878262017
 30
0.0
  0
SPLINE
  5
135
330
1F
100
AcDbEntity
  8
0
  6
Continuous
 62
     7
370
    15
100
AcDbSpline
210
0.0
220
0.0
230
1.0
 70
     8
 71
     3
 72
    13
 73
     9
 74
     0
 42
0.000000001
 43
0.00000001
 40
0.0
 40
0.0
 40
0.0
 40
0.0
 40
0.1866314259075967
 40
0.3732592786148856
 40
0.5596865890171729
 40
0.706428175586522
 40
0.8531869134571898
 40
1.0
 40
1.0
 40
1.0
 40
1.0
 10
-8.06900276974374
 20
34.62952596949781
 30
0.0
 10
-8.024304389512423
 20
34.63298769004368
 30
0.0
 10
-7.934908484834212
 20
34.63991106485816
 30
0.0
 10
-7.811242673378015
 20
34.6964067578704
 30
0.0
 10
-7.713624434221063
 20
34.77572009279803
 30
0.0
 10
-7.649937829142814
 20
34.87229300113049
 30
0.0
 10
-7.613336100720917
 20
34.97233623213996
 30
0.0
 10
-7.609538503113277
 20
35.0426034156481
 30
0.0
 10
-7.607639352786635
 20
35.07774351165051
 30
0.0
  0
SPLINE
  5
136
330
1F
100
AcDbEntity
  8
0
  6
Continuous
 62
     7
370
    15
100
AcDbSpline
210
0.0
220
0.0
230
1.0
 70
     8
 71
     3
 72
    13
 73
     9
 74
     0
 42
0.000000001
 43
0.00000001
 40
0.0
 40
0.0
 40
0.0
 40
0.0
 40
0.1866288433756312
 40
0.3730674061423795
 40
0.5595107752842784
 40
0.7063469001084347
 40
0.8531779814706785
 40
1.0
 40
1.0
 40
1.0
 40
1.0
 10
-3.601228675184663
 20
35.07774351165051
 30
0.0
 10
-3.598001530272585
 20
35.03296174765677
 30
0.0
 10
-3.591550530738885
 20
34.9434438776778
 30
0.0
 10
-3.532030764197454
 20
34.82013099222809
 30
0.0
 10
-3.444492269254997
 20
34.72930644994798
 30
0.0
 10
-3.344718814804334
 20
34.67131772577163
 30
0.0
 10
-3.244406435221014
 20
34.63581277110771
 30
0.0
 10
-3.174084258813662
 20
34.63162152691719
 30
0.0
 10
-3.138924255764766
 20
34.62952596949781
 30
0.0
  0
SPLINE
  5
137
330
1F
100
AcDbEntity
  8
0
  6
Continuous
 62
     7
370
    15
100
AcDbSpline
210
0.0
220
0.0
230
1.0
 70
     8
 71
     3
 72
    13
 73
     9
 74
     0
 42
0.000000001
 43
0.00000001
 40
0.0
 40
0.0
 40
0.0
 40
0.0
 40
0.1864870643031604
 40
0.3730790549504169
 40
0.5595869916272472
 40
0.7063576483384342
 40
0.853169861459931
 40
1.0
 40
1.0
 40
1.0
 40
1.0
 10
-2.679752600154914
 20
35.08181258464423
 30
0.0
 10
-2.683774393916484
 20
35.12635933492589
 30
0.0
 10
-2.691820244288865
 20
35.21547789957428
 30
0.0
 10
-2.754001912781914
 20
35.33636247055144
 30
0.0
 10
-2.837803155352084
 20
35.42947651734817
 30
0.0
 10
-2.936191594618072
 20
35.48933385649962
 30
0.0
 10
-3.036031861400421
 20
35.52504018797367
 30
0.0
 10
-3.106086539710518
 20
35.52899250398153
 30
0.0
 10
-3.141116017112019
 20
35.53096878262017
 30
0.0
  0
SPLINE
  5
138
330
1F
100
AcDbEntity
  8
0
  6
Continuous
 62
     7
370
    15
100
AcDbSpline
210
0.0
220
0.0
230
1.0
 70
     8
 71
     3
 72
    13
 73
     9
 74
     0
 42
0.000000001
 43
0.00000001
 40
0.0
 40
0.0
 40
0.0
 40
0.0
 40
0.1865748570756247
 40
0.3731217279720079
 40
0.5596108543139614
 40
0.7064227291081597
 40
0.8532214029579792
 40
1.0
 40
1.0
 40
1.0
 40
1.0
 10
-3.138924255764771
 20
34.62952596949781
 30
0.0
 10
-3.094429220833668
 20
34.63321434130348
 30
0.0
 10
-3.005445825214956
 20
34.64059053166005
 30
0.0
 10
-2.883326195318409
 20
34.69969025929733
 30
0.0
 10
-2.789135960404558
 20
34.78214978145869
 30
0.0
 10
-2.72712978595252
 20
34.8787182923581
 30
0.0
 10
-2.686840836809814
 20
34.97681208022863
 30
0.0
 10
-2.682115237983701
 20
35.04681401224155
 30
0.0
 10
-2.679752600154914
 20
35.08181258464423
 30
0.0
  0
SPLINE
  5
139
330
1F
100
AcDbEntity
  8
0
  6
Continuous
 62
     7
370
    15
100
AcDbSpline
210
0.0
220
0.0
230
1.0
 70
     8
 71
     3
 72
    13
 73
     9
 74
     0
 42
0.000000001
 43
0.00000001
 40
0.0
 40
0.0
 40
0.0
 40
0.0
 40
0.1866518263597236
 40
0.3731417316240611
 40
0.5597305093508281
 40
0.7064674709699326
 40
0.8531676169043387
 40
1.0
 40
1.0
 40
1.0
 40
1.0
 10
-3.141116017112019
 20
35.53096878262017
 30
0.0
 10
-3.186067140197626
 20
35.52799576785641
 30
0.0
 10
-3.275930391116395
 20
35.52205231742933
 30
0.0
 10
-3.400409406024059
 20
35.46438778020798
 30
0.0
 10
-3.49488870474146
 20
35.38085121916634
 30
0.0
 10
-3.559597985361135
 20
35.28451710804242
 30
0.0
 10
-3.595229454560376
 20
35.18352310806731
 30
0.0
 10
-3.599228334474661
 20
35.11301396530632
 30
0.0
 10
-3.601228675184663
 20
35.07774351165051
 30
0.0
  0
SPLINE
  5
13A
330
1F
100
AcDbEntity
  8
0
  6
Continuous
 62
     7
370
    15
100
AcDbSpline
210
0.0
220
0.0
230
1.0
 70
     8
 71
     3
 72
    11
 73
     7
 74
     0
 42
0.000000001
 43
0.00000001
 40
0.0
 40
0.0
 40
0.0
 40
0.0
 40
0.2799668799729669
 40
0.5598148475303146
 40
0.7798842668273371
 40
1.0
 40
1.0
 40
1.0
 40
1.0
 10
1.09034208738954
 20
35.53096878262017
 30
0.0
 10
1.060423447598769
 20
35.52962583764192
 30
0.0
 10
1.000598875583669
 20
35.5269405180844
 30
0.0
 10
0.9202982534311508
 20
35.5025063096948
 30
0.0
 10
0.8511932219269266
 20
35.46807374169998
 30
0.0
 10
0.8144793079858839
 20
35.43864192781054
 30
0.0
 10
0.7961204195966869
 20
35.42392447253851
 30
0.0
  0
LINE
  5
13B
330
1F
100
AcDbEntity
  8
0
  6
Continuous
 62
     7
370
    15
100
AcDbLine
 10
0.6602781489
 20
35.19042445
 30
0.0
 11
1.5269766167
 21
35.19042445
 31
0.0
  0
SPLINE
  5
13C
330
1F
100
AcDbEntity
  8
0
  6
Continuous
 62
     7
370
    15
100
AcDbSpline
210
0.0
220
0.0
230
1.0
 70
     8
 71
     3
 72
    10
 73
     6
 74
     0
 42
0.000000001
 43
0.00000001
 40
0.0
 40
0.0
 40
0.0
 40
0.0
 40
0.2799195611002601
 40
0.5599683869360332
 40
0.9999999999999999
 40
0.9999999999999999
 40
0.9999999999999999
 40
0.9999999999999999
 10
0.7961204195966869
 20
35.42392447253851
 30
0.0
 10
0.7779688537553378
 20
35.40587655853584
 30
0.0
 10
0.7416573398168793
 20
35.36977239614037
 30
0.0
 10
0.6946955573508803
 20
35.29058745019426
 30
0.0
 10
0.6733327048822305
 20
35.2284163719309
 30
0.0
 10
0.6602781488581904
 20
35.1904244499507
 30
0.0
  0
SPLINE
  5
13D
330
1F
100
AcDbEntity
  8
0
  6
Continuous
 62
     7
370
    15
100
AcDbSpline
210
0.0
220
0.0
230
1.0
 70
     8
 71
     3
 72
    12
 73
     8
 74
     0
 42
0.000000001
 43
0.00000001
 40
0.0
 40
0.0
 40
0.0
 40
0.0
 40
0.186903314024218
 40
0.3734778990958038
 40
0.5600577979989384
 40
0.7800307059621002
 40
0.9999999999999999
 40
0.9999999999999999
 40
0.9999999999999999
 40
0.9999999999999999
 10
1.526976616683527
 20
35.1904244499507
 30
0.0
 10
1.516180354771191
 20
35.22627466865261
 30
0.0
 10
1.494606819608582
 20
35.29791205203892
 30
0.0
 10
1.432835507041536
 20
35.39387508891623
 30
0.0
 10
1.338846835220808
 20
35.46816550092459
 30
0.0
 10
1.222635327436983
 20
35.52070211414401
 30
0.0
 10
1.134439592576061
 20
35.52754657853617
 30
0.0
 10
1.09034208738954
 20
35.53096878262017
 30
0.0
  0
SPLINE
  5
13E
330
1F
100
AcDbEntity
  8
0
  6
Continuous
 62
     7
370
    15
100
AcDbSpline
210
0.0
220
0.0
230
1.0
 70
     8
 71
     3
 72
    13
 73
     9
 74
     0
 42
0.000000001
 43
0.00000001
 40
0.0
 40
0.0
 40
0.0
 40
0.0
 40
0.186499411636373
 40
0.3730897824592769
 40
0.5596334722780336
 40
0.7064481122338268
 40
0.8532290968340636
 40
1.0
 40
1.0
 40
1.0
 40
1.0
 10
-2.158920643516788
 20
35.08181258464423
 30
0.0
 10
-2.154852714945673
 20
35.03726053667535
 30
0.0
 10
-2.146714873799981
 20
34.94813471188594
 30
0.0
 10
-2.084268532515257
 20
34.82738347945698
 30
0.0
 10
-2.000941587369939
 20
34.73398647841826
 30
0.0
 10
-1.903353243254027
 20
34.67284814209226
 30
0.0
 10
-1.803823066438064
 20
34.63617711288808
 30
0.0
 10
-1.733812210982634
 20
34.63174296653403
 30
0.0
 10
-1.698807985444149
 20
34.62952596949781
 30
0.0
  0
SPLINE
  5
13F
330
1F
100
AcDbEntity
  8
0
  6
Continuous
 62
     7
370
    15
100
AcDbSpline
210
0.0
220
0.0
230
1.0
 70
     8
 71
     3
 72
    13
 73
     9
 74
     0
 42
0.000000001
 43
0.00000001
 40
0.0
 40
0.0
 40
0.0
 40
0.0
 40
0.1866181131147577
 40
0.3732105116632297
 40
0.5597147551511934
 40
0.7065158237984647
 40
0.8532925711413286
 40
1.0
 40
1.0
 40
1.0
 40
1.0
 10
-1.697557226559684
 20
35.53096878262017
 30
0.0
 10
-1.742125466354161
 20
35.52760209704106
 30
0.0
 10
-1.831255804776323
 20
35.52086918978666
 30
0.0
 10
-1.954622603930086
 20
35.46384513081185
 30
0.0
 10
-2.049400811737351
 20
35.38169703404381
 30
0.0
 10
-2.11249698138091
 20
35.28554773580407
 30
0.0
 10
-2.151680800462928
 20
35.18684242831727
 30
0.0
 10
-2.156507742526482
 20
35.11681701939848
 30
0.0
 10
-2.158920643516788
 20
35.08181258464423
 30
0.0
  0
SPLINE
  5
140
330
1F
100
AcDbEntity
  8
0
  6
Continuous
 62
     7
370
    15
100
AcDbSpline
210
0.0
220
0.0
230
1.0
 70
     8
 71
     3
 72
    13
 73
     9
 74
     0
 42
0.000000001
 43
0.00000001
 40
0.0
 40
0.0
 40
0.0
 40
0.0
 40
0.1866289471938517
 40
0.373254567009422
 40
0.5596851610119811
 40
0.7064255317227085
 40
0.8531859696381413
 40
1.0
 40
1.0
 40
1.0
 40
1.0
 10
-1.698807985444144
 20
34.62952596949781
 30
0.0
 10
-1.65411029916054
 20
34.63298760819176
 30
0.0
 10
-1.564715723501388
 20
34.63991082386266
 30
0.0
 10
-1.441052261226439
 20
34.696408380764
 30
0.0
 10
-1.343431400405945
 20
34.77571833418855
 30
0.0
 10
-1.279748640700167
 20
34.87229433549182
 30
0.0
 10
-1.243143439774189
 20
34.97233575516566
 30
0.0
 10
-1.239344423421406
 20
35.042603317007
 30
0.0
 10
-1.23744456848704
 20
35.07774351165051
 30
0.0
  0
SPLINE
  5
141
330
1F
100
AcDbEntity
  8
0
  6
Continuous
 62
     7
370
    15
100
AcDbSpline
210
0.0
220
0.0
230
1.0
 70
     8
 71
     3
 72
    13
 73
     9
 74
     0
 42
0.000000001
 43
0.00000001
 40
0.0
 40
0.0
 40
0.0
 40
0.0
 40
0.1866594832230185
 40
0.3730897831266037
 40
0.5596905434938555
 40
0.7064195056478416
 40
0.8531579501361081
 40
1.0
 40
1.0
 40
1.0
 40
1.0
 10
-1.23744456848704
 20
35.07774351165051
 30
0.0
 10
-1.240605097505756
 20
35.12269382343039
 30
0.0
 10
-1.246922274998156
 20
35.21253925632166
 30
0.0
 10
-1.306712861277351
 20
35.33624477381315
 30
0.0
 10
-1.392878786290729
 20
35.42832067248116
 30
0.0
 10
-1.490520797970467
 20
35.49083244634597
 30
0.0
 10
-1.59177443999365
 20
35.52538269746836
 30
0.0
 10
-1.662288002893309
 20
35.5291063162111
 30
0.0
 10
-1.697557226559684
 20
35.53096878262017
 30
0.0
  0
INSERT
  5
14D
330
1F
100
AcDbEntity
  8
0
  6
Continuous
 62
     7
370
     0
100
AcDbBlockReference
  2
SW_CENTERMARKSYMBOL_0
 10
21.1251778749
 20
4.791875
 30
0.0
  0
INSERT
  5
159
330
1F
100
AcDbEntity
  8
0
  6
Continuous
 62
     7
370
     0
100
AcDbBlockReference
  2
SW_CENTERMARKSYMBOL_1
 10
11.1251778749
 20
4.791875
 30
0.0
  0
INSERT
  5
165
330
1F
100
AcDbEntity
  8
0
  6
Continuous
 62
     7
370
     0
100
AcDbBlockReference
  2
SW_CENTERMARKSYMBOL_2
 10
1.1251778749
 20
4.791875
 30
0.0
  0
INSERT
  5
171
330
1F
100
AcDbEntity
  8
0
  6
Continuous
 62
     7
370
     0
100
AcDbBlockReference
  2
SW_CENTERMARKSYMBOL_3
 10
-8.8748221251
 20
4.791875
 30
0.0
  0
ENDSEC
  0
SECTION
  2
OBJECTS
  0
DICTIONARY
  5
C
330
0
100
AcDbDictionary
281
     1
  3
ACAD_GROUP
350
D
  3
ACAD_LAYOUT
350
1A
  3
ACAD_MLINESTYLE
350
17
  3
ACAD_PLOTSETTINGS
350
19
  3
ACAD_PLOTSTYLENAME
350
E
  3
ACAD_SCALELIST
350
47
  0
DICTIONARY
  5
D
102
{ACAD_REACTORS
330
C
102
}
330
C
100
AcDbDictionary
281
     1
  0
DICTIONARY
  5
1A
102
{ACAD_REACTORS
330
C
102
}
330
C
100
AcDbDictionary
281
     1
  3
Layout1
350
1E
  3
Layout2
350
26
  3
Model
350
22
  0
DICTIONARY
  5
17
102
{ACAD_REACTORS
330
C
102
}
330
C
100
AcDbDictionary
281
     1
  3
Standard
350
18
  0
DICTIONARY
  5
19
102
{ACAD_REACTORS
330
C
102
}
330
C
100
AcDbDictionary
281
     1
  0
ACDBDICTIONARYWDFLT
  5
E
102
{ACAD_REACTORS
330
C
102
}
330
C
100
AcDbDictionary
281
     1
  3
Normal
350
F
100
AcDbDictionaryWithDefault
340
F
  0
DICTIONARY
  5
47
102
{ACAD_REACTORS
330
C
102
}
330
C
100
AcDbDictionary
281
     1
  3
A0
350
48
  3
A1
350
49
  3
A2
350
4A
  3
A3
350
4B
  3
A4
350
4C
  3
A5
350
4D
  3
A6
350
4E
  3
A7
350
4F
  3
A8
350
50
  3
A9
350
51
  3
B0
350
52
  3
B1
350
53
  3
B2
350
54
  3
B3
350
55
  3
B4
350
56
  3
B5
350
57
  3
B6
350
58
  3
B7
350
59
  3
B8
350
5A
  3
B9
350
5B
  3
C0
350
5C
  3
C1
350
5D
  3
C2
350
5E
  3
C3
350
5F
  3
C4
350
60
  3
C5
350
61
  3
C6
350
62
  3
C7
350
63
  3
C8
350
64
  3
C9
350
65
  3
D0
350
66
  3
D1
350
67
  3
D2
350
68
  0
LAYOUT
  5
1E
102
{ACAD_REACTORS
330
1A
102
}
330
1A
100
AcDbPlotSettings
  1

  2
none_device
  4

  6

 40
0.0
 41
0.0
 42
0.0
 43
0.0
 44
0.0
 45
0.0
 46
0.0
 47
0.0
 48
0.0
 49
0.0
140
0.0
141
0.0
142
1.0
143
1.0
 70
   688
 72
     0
 73
     0
 74
     5
  7

 75
    16
147
1.0
148
0.0
149
0.0
100
AcDbLayout
  1
Layout1
 70
     1
 71
     1
 10
0.0
 20
0.0
 11
12.0
 21
9.0
 12
0.0
 22
0.0
 32
0.0
 14
1.0000000000E+20
 24
1.0000000000E+20
 34
1.0000000000E+20
 15
-1.0000000000E+20
 25
-1.0000000000E+20
 35
-1.0000000000E+20
146
0.0
 13
0.0
 23
0.0
 33
0.0
 16
1.0
 26
0.0
 36
0.0
 17
0.0
 27
1.0
 37
0.0
 76
     0
330
1B
  0
LAYOUT
  5
26
102
{ACAD_REACTORS
330
1A
102
}
330
1A
100
AcDbPlotSettings
  1

  2
none_device
  4

  6

 40
0.0
 41
0.0
 42
0.0
 43
0.0
 44
0.0
 45
0.0
 46
0.0
 47
0.0
 48
0.0
 49
0.0
140
0.0
141
0.0
142
1.0
143
1.0
 70
   688
 72
     0
 73
     0
 74
     5
  7

 75
    16
147
1.0
148
0.0
149
0.0
100
AcDbLayout
  1
Layout2
 70
     1
 71
     2
 10
0.0
 20
0.0
 11
0.0
 21
0.0
 12
0.0
 22
0.0
 32
0.0
 14
0.0
 24
0.0
 34
0.0
 15
0.0
 25
0.0
 35
0.0
146
0.0
 13
0.0
 23
0.0
 33
0.0
 16
1.0
 26
0.0
 36
0.0
 17
0.0
 27
1.0
 37
0.0
 76
     0
330
23
  0
LAYOUT
  5
22
102
{ACAD_REACTORS
330
1A
102
}
330
1A
100
AcDbPlotSettings
  1

  2
none_device
  4
Letter_(8.50_x_11.00_Inches)
  6

 40
6.35
 41
6.35
 42
6.35000508
 43
6.35000508
 44
215.9
 45
279.4
 46
0.0
 47
0.0
 48
0.0
 49
0.0
140
0.0
141
0.0
142
1.0
143
1.0
 70
  1712
 72
     0
 73
     0
 74
     0
  7

 75
     0
147
1.0
148
0.0
149
0.0
100
AcDbLayout
  1
Model
 70
     1
 71
     0
 10
0.0
 20
0.0
 11
11.0
 21
8.5
 12
0.0
 22
0.0
 32
0.0
 14
0.0
 24
0.0
 34
0.0
 15
11.0
 25
8.5
 35
0.0
146
0.0
 13
0.0
 23
0.0
 33
0.0
 16
1.0
 26
0.0
 36
0.0
 17
0.0
 27
1.0
 37
0.0
 76
     0
330
1F
331
29
  0
MLINESTYLE
  5
18
102
{ACAD_REACTORS
330
17
102
}
330
17
100
AcDbMlineStyle
  2
Standard
 70
     0
  3

 62
   256
 51
90.0
 52
90.0
 71
     2
 49
0.5
 62
   256
  6
BYLAYER
 49
-0.5
 62
   256
  6
BYLAYER
  0
ACDBPLACEHOLDER
  5
F
102
{ACAD_REACTORS
330
E
102
}
330
E
  0
SCALE
  5
48
102
{ACAD_REACTORS
330
47
102
}
330
47
100
AcDbScale
 70
     0
300
1:1
140
1.0
141
1.0
290
     1
  0
SCALE
  5
49
102
{ACAD_REACTORS
330
47
102
}
330
47
100
AcDbScale
 70
     0
300
1:2
140
1.0
141
2.0
290
     0
  0
SCALE
  5
4A
102
{ACAD_REACTORS
330
47
102
}
330
47
100
AcDbScale
 70
     0
300
1:4
140
1.0
141
4.0
290
     0
  0
SCALE
  5
4B
102
{ACAD_REACTORS
330
47
102
}
330
47
100
AcDbScale
 70
     0
300
1:5
140
1.0
141
5.0
290
     0
  0
SCALE
  5
4C
102
{ACAD_REACTORS
330
47
102
}
330
47
100
AcDbScale
 70
     0
300
1:8
140
1.0
141
8.0
290
     0
  0
SCALE
  5
4D
102
{ACAD_REACTORS
330
47
102
}
330
47
100
AcDbScale
 70
     0
300
1:10
140
1.0
141
10.0
290
     0
  0
SCALE
  5
4E
102
{ACAD_REACTORS
330
47
102
}
330
47
100
AcDbScale
 70
     0
300
1:16
140
1.0
141
16.0
290
     0
  0
SCALE
  5
4F
102
{ACAD_REACTORS
330
47
102
}
330
47
100
AcDbScale
 70
     0
300
1:20
140
1.0
141
20.0
290
     0
  0
SCALE
  5
50
102
{ACAD_REACTORS
330
47
102
}
330
47
100
AcDbScale
 70
     0
300
1:30
140
1.0
141
30.0
290
     0
  0
SCALE
  5
51
102
{ACAD_REACTORS
330
47
102
}
330
47
100
AcDbScale
 70
     0
300
1:40
140
1.0
141
40.0
290
     0
  0
SCALE
  5
52
102
{ACAD_REACTORS
330
47
102
}
330
47
100
AcDbScale
 70
     0
300
1:50
140
1.0
141
50.0
290
     0
  0
SCALE
  5
53
102
{ACAD_REACTORS
330
47
102
}
330
47
100
AcDbScale
 70
     0
300
1:100
140
1.0
141
100.0
290
     0
  0
SCALE
  5
54
102
{ACAD_REACTORS
330
47
102
}
330
47
100
AcDbScale
 70
     0
300
2:1
140
2.0
141
1.0
290
     0
  0
SCALE
  5
55
102
{ACAD_REACTORS
330
47
102
}
330
47
100
AcDbScale
 70
     0
300
4:1
140
4.0
141
1.0
290
     0
  0
SCALE
  5
56
102
{ACAD_REACTORS
330
47
102
}
330
47
100
AcDbScale
 70
     0
300
8:1
140
8.0
141
1.0
290
     0
  0
SCALE
  5
57
102
{ACAD_REACTORS
330
47
102
}
330
47
100
AcDbScale
 70
     0
300
10:1
140
10.0
141
1.0
290
     0
  0
SCALE
  5
58
102
{ACAD_REACTORS
330
47
102
}
330
47
100
AcDbScale
 70
     0
300
100:1
140
100.0
141
1.0
290
     0
  0
SCALE
  5
59
102
{ACAD_REACTORS
330
47
102
}
330
47
100
AcDbScale
 70
     0
300
1/128" = 1'-0"
140
0.0078125
141
12.0
290
     0
  0
SCALE
  5
5A
102
{ACAD_REACTORS
330
47
102
}
330
47
100
AcDbScale
 70
     0
300
1/64" = 1'-0"
140
0.015625
141
12.0
290
     0
  0
SCALE
  5
5B
102
{ACAD_REACTORS
330
47
102
}
330
47
100
AcDbScale
 70
     0
300
1/32" = 1'-0"
140
0.03125
141
12.0
290
     0
  0
SCALE
  5
5C
102
{ACAD_REACTORS
330
47
102
}
330
47
100
AcDbScale
 70
     0
300
1/16" = 1'-0"
140
0.0625
141
12.0
290
     0
  0
SCALE
  5
5D
102
{ACAD_REACTORS
330
47
102
}
330
47
100
AcDbScale
 70
     0
300
3/32" = 1'-0"
140
0.09375
141
12.0
290
     0
  0
SCALE
  5
5E
102
{ACAD_REACTORS
330
47
102
}
330
47
100
AcDbScale
 70
     0
300
1/8" = 1'-0"
140
0.125
141
12.0
290
     0
  0
SCALE
  5
5F
102
{ACAD_REACTORS
330
47
102
}
330
47
100
AcDbScale
 70
     0
300
3/16" = 1'-0"
140
0.1875
141
12.0
290
     0
  0
SCALE
  5
60
102
{ACAD_REACTORS
330
47
102
}
330
47
100
AcDbScale
 70
     0
300
1/4" = 1'-0"
140
0.25
141
12.0
290
     0
  0
SCALE
  5
61
102
{ACAD_REACTORS
330
47
102
}
330
47
100
AcDbScale
 70
     0
300
3/8" = 1'-0"
140
0.375
141
12.0
290
     0
  0
SCALE
  5
62
102
{ACAD_REACTORS
330
47
102
}
330
47
100
AcDbScale
 70
     0
300
1/2" = 1'-0"
140
0.5
141
12.0
290
     0
  0
SCALE
  5
63
102
{ACAD_REACTORS
330
47
102
}
330
47
100
AcDbScale
 70
     0
300
3/4" = 1'-0"
140
0.75
141
12.0
290
     0
  0
SCALE
  5
64
102
{ACAD_REACTORS
330
47
102
}
330
47
100
AcDbScale
 70
     0
300
1" = 1'-0"
140
1.0
141
12.0
290
     0
  0
SCALE
  5
65
102
{ACAD_REACTORS
330
47
102
}
330
47
100
AcDbScale
 70
     0
300
1-1/2" = 1'-0"
140
1.5
141
12.0
290
     0
  0
SCALE
  5
66
102
{ACAD_REACTORS
330
47
102
}
330
47
100
AcDbScale
 70
     0
300
3" = 1'-0"
140
3.0
141
12.0
290
     0
  0
SCALE
  5
67
102
{ACAD_REACTORS
330
47
102
}
330
47
100
AcDbScale
 70
     0
300
6" = 1'-0"
140
6.0
141
12.0
290
     0
  0
SCALE
  5
68
102
{ACAD_REACTORS
330
47
102
}
330
47
100
AcDbScale
 70
     0
300
1'-0" = 1'-0"
140
12.0
141
12.0
290
     0
  0
ENDSEC
  0
EOF
