  0
SECTION
  2
HEADER
  9
$ACADVER
  1
AC1015
  9
$ACADMAINTVER
 70
     6
  9
$DWGCODEPAGE
  3
ANSI_1252
  9
$INSBASE
 10
0.0
 20
0.0
 30
0.0
  9
$EXTMIN
 10
0.0
 20
0.0
 30
0.0
  9
$EXTMAX
 10
11.0
 20
8.5
 30
0.0
  9
$LIMMIN
 10
0.0
 20
0.0
  9
$LIMMAX
 10
11.0
 20
8.5
  9
$ORTHOMODE
 70
     0
  9
$REGENMODE
 70
     1
  9
$FILLMODE
 70
     1
  9
$QTEXTMODE
 70
     0
  9
$MIRRTEXT
 70
     1
  9
$LTSCALE
 40
1.0
  9
$ATTMODE
 70
     1
  9
$TEXTSIZE
 40
0.1377952756
  9
$TRACEWID
 40
0.05
  9
$TEXTSTYLE
  7
Standard
  9
$CLAYER
  8
0
  9
$CELTYPE
  6
ByLayer
  9
$CECOLOR
 62
   256
  9
$CELTSCALE
 40
1.0
  9
$DISPSILH
 70
     0
  9
$DIMSCALE
 40
1.0
  9
$DIMASZ
 40
0.13
  9
$DIMEXO
 40
0.0393700787
  9
$DIMDLI
 40
0.38
  9
$DIMRND
 40
0.0
  9
$DIMDLE
 40
0.0
  9
$DIMEXE
 40
0.0393700787
  9
$DIMTP
 40
0.0
  9
$DIMTM
 40
0.0
  9
$DIMTXT
 40
0.1377952756
  9
$DIMCEN
 40
0.09
  9
$DIMTSZ
 40
0.0
  9
$DIMTOL
 70
     0
  9
$DIMLIM
 70
     0
  9
$DIMTIH
 70
     1
  9
$DIMTOH
 70
     1
  9
$DIMSE1
 70
     0
  9
$DIMSE2
 70
     0
  9
$DIMTAD
 70
     1
  9
$DIMZIN
 70
     0
  9
$DIMBLK
  1

  9
$DIMASO
 70
     1
  9
$DIMSHO
 70
     1
  9
$DIMPOST
  1

  9
$DIMAPOST
  1

  9
$DIMALT
 70
     0
  9
$DIMALTD
 70
     2
  9
$DIMALTF
 40
25.4
  9
$DIMLFAC
 40
20.0
  9
$DIMTOFL
 70
     0
  9
$DIMTVP
 40
0.0
  9
$DIMTIX
 70
     0
  9
$DIMSOXD
 70
     0
  9
$DIMSAH
 70
     0
  9
$DIMBLK1
  1

  9
$DIMBLK2
  1

  9
$DIMSTYLE
  2
Standard
  9
$DIMCLRD
 70
     0
  9
$DIMCLRE
 70
     0
  9
$DIMCLRT
 70
     0
  9
$DIMTFAC
 40
1.0
  9
$DIMGAP
 40
0.06
  9
$DIMJUST
 70
     0
  9
$DIMSD1
 70
     0
  9
$DIMSD2
 70
     0
  9
$DIMTOLJ
 70
     1
  9
$DIMTZIN
 70
     0
  9
$DIMALTZ
 70
     0
  9
$DIMALTTZ
 70
     0
  9
$DIMUPT
 70
     0
  9
$DIMDEC
 70
     2
  9
$DIMTDEC
 70
     2
  9
$DIMALTU
 70
     2
  9
$DIMALTTD
 70
     2
  9
$DIMTXSTY
  7
Standard
  9
$DIMAUNIT
 70
     0
  9
$DIMADEC
 70
     2
  9
$DIMALTRND
 40
0.0
  9
$DIMAZIN
 70
     0
  9
$DIMDSEP
 70
    46
  9
$DIMATFIT
 70
     3
  9
$DIMFRAC
 70
     0
  9
$DIMLDRBLK
  1

  9
$DIMLUNIT
 70
     2
  9
$DIMLWD
 70
    -2
  9
$DIMLWE
 70
    -2
  9
$DIMTMOVE
 70
     0
  9
$LUNITS
 70
     2
  9
$LUPREC
 70
     2
  9
$SKETCHINC
 40
0.1
  9
$FILLETRAD
 40
0.5
  9
$AUNITS
 70
     0
  9
$AUPREC
 70
     2
  9
$MENU
  1
.
  9
$ELEVATION
 40
0.0
  9
$PELEVATION
 40
0.0
  9
$THICKNESS
 40
0.0
  9
$LIMCHECK
 70
     0
  9
$CHAMFERA
 40
0.0
  9
$CHAMFERB
 40
0.0
  9
$CHAMFERC
 40
0.0
  9
$CHAMFERD
 40
0.0
  9
$SKPOLY
 70
     0
  9
$TDCREATE
 40
2457219.893290984
  9
$TDUCREATE
 40
2457220.18495765
  9
$TDUPDATE
 40
2457219.893291343
  9
$TDUUPDATE
 40
2457220.184958009
  9
$TDINDWG
 40
0.0000000116
  9
$TDUSRTIMER
 40
0.0000000116
  9
$USRTIMER
 70
     1
  9
$ANGBASE
 50
0.0
  9
$ANGDIR
 70
     0
  9
$PDMODE
 70
     0
  9
$PDSIZE
 40
-1.0
  9
$PLINEWID
 40
0.0
  9
$SPLFRAME
 70
     0
  9
$SPLINETYPE
 70
     6
  9
$SPLINESEGS
 70
     8
  9
$HANDSEED
  5
15A
  9
$SURFTAB1
 70
     6
  9
$SURFTAB2
 70
     6
  9
$SURFTYPE
 70
     6
  9
$SURFU
 70
     6
  9
$SURFV
 70
     6
  9
$UCSBASE
  2

  9
$UCSNAME
  2

  9
$UCSORG
 10
0.0
 20
0.0
 30
0.0
  9
$UCSXDIR
 10
1.0
 20
0.0
 30
0.0
  9
$UCSYDIR
 10
0.0
 20
1.0
 30
0.0
  9
$UCSORTHOREF
  2

  9
$UCSORTHOVIEW
 70
     0
  9
$UCSORGTOP
 10
0.0
 20
0.0
 30
0.0
  9
$UCSORGBOTTOM
 10
0.0
 20
0.0
 30
0.0
  9
$UCSORGLEFT
 10
0.0
 20
0.0
 30
0.0
  9
$UCSORGRIGHT
 10
0.0
 20
0.0
 30
0.0
  9
$UCSORGFRONT
 10
0.0
 20
0.0
 30
0.0
  9
$UCSORGBACK
 10
0.0
 20
0.0
 30
0.0
  9
$PUCSBASE
  2

  9
$PUCSNAME
  2

  9
$PUCSORG
 10
0.0
 20
0.0
 30
0.0
  9
$PUCSXDIR
 10
1.0
 20
0.0
 30
0.0
  9
$PUCSYDIR
 10
0.0
 20
1.0
 30
0.0
  9
$PUCSORTHOREF
  2

  9
$PUCSORTHOVIEW
 70
     0
  9
$PUCSORGTOP
 10
0.0
 20
0.0
 30
0.0
  9
$PUCSORGBOTTOM
 10
0.0
 20
0.0
 30
0.0
  9
$PUCSORGLEFT
 10
0.0
 20
0.0
 30
0.0
  9
$PUCSORGRIGHT
 10
0.0
 20
0.0
 30
0.0
  9
$PUCSORGFRONT
 10
0.0
 20
0.0
 30
0.0
  9
$PUCSORGBACK
 10
0.0
 20
0.0
 30
0.0
  9
$USERI1
 70
     0
  9
$USERI2
 70
     0
  9
$USERI3
 70
     0
  9
$USERI4
 70
     0
  9
$USERI5
 70
     0
  9
$USERR1
 40
0.0
  9
$USERR2
 40
0.0
  9
$USERR3
 40
0.0
  9
$USERR4
 40
0.0
  9
$USERR5
 40
0.0
  9
$WORLDVIEW
 70
     1
  9
$SHADEDGE
 70
     3
  9
$SHADEDIF
 70
    70
  9
$TILEMODE
 70
     1
  9
$MAXACTVP
 70
    64
  9
$PINSBASE
 10
0.0
 20
0.0
 30
0.0
  9
$PLIMCHECK
 70
     0
  9
$PEXTMIN
 10
1.0000000000E+20
 20
1.0000000000E+20
 30
1.0000000000E+20
  9
$PEXTMAX
 10
-1.0000000000E+20
 20
-1.0000000000E+20
 30
-1.0000000000E+20
  9
$PLIMMIN
 10
0.0
 20
0.0
  9
$PLIMMAX
 10
12.0
 20
9.0
  9
$UNITMODE
 70
     0
  9
$VISRETAIN
 70
     1
  9
$PLINEGEN
 70
     0
  9
$PSLTSCALE
 70
     1
  9
$TREEDEPTH
 70
  3020
  9
$CMLSTYLE
  2
Standard
  9
$CMLJUST
 70
     0
  9
$CMLSCALE
 40
1.0
  9
$PROXYGRAPHICS
 70
     1
  9
$MEASUREMENT
 70
     0
  9
$CELWEIGHT
370
    -1
  9
$ENDCAPS
280
     0
  9
$JOINSTYLE
280
     0
  9
$LWDISPLAY
290
     1
  9
$INSUNITS
 70
     1
  9
$HYPERLINKBASE
  1

  9
$STYLESHEET
  1

  9
$XEDIT
290
     1
  9
$CEPSNTYPE
380
     0
  9
$PSTYLEMODE
290
     1
  9
$FINGERPRINTGUID
  2
{49D7BD55-8387-40A1-8AB5-B6CD026E5892}
  9
$VERSIONGUID
  2
{FAEB1C32-E019-11D5-929B-00C0DF256EC4}
  9
$EXTNAMES
290
     1
  9
$PSVPSCALE
 40
0.0
  9
$OLESTARTUP
290
     0
  0
ENDSEC
  0
SECTION
  2
CLASSES
  0
CLASS
  1
ACDBDICTIONARYWDFLT
  2
AcDbDictionaryWithDefault
  3
ObjectDBX Classes
 90
        0
280
     0
281
     0
  0
CLASS
  1
VISUALSTYLE
  2
AcDbVisualStyle
  3
ObjectDBX Classes
 90
     4095
280
     0
281
     0
  0
CLASS
  1
MATERIAL
  2
AcDbMaterial
  3
ObjectDBX Classes
 90
     1153
280
     0
281
     0
  0
CLASS
  1
SCALE
  2
AcDbScale
  3
ObjectDBX Classes
 90
     1153
280
     0
281
     0
  0
CLASS
  1
SUN
  2
AcDbSun
  3
SCENEOE
 90
     1153
280
     0
281
     0
  0
CLASS
  1
ACDBPLACEHOLDER
  2
AcDbPlaceHolder
  3
ObjectDBX Classes
 90
        0
280
     0
281
     0
  0
CLASS
  1
LAYOUT
  2
AcDbLayout
  3
ObjectDBX Classes
 90
        0
280
     0
281
     0
  0
ENDSEC
  0
SECTION
  2
TABLES
  0
TABLE
  2
VPORT
  5
8
330
0
100
AcDbSymbolTable
 70
     1
  0
VPORT
  5
29
330
8
100
AcDbSymbolTableRecord
100
AcDbViewportTableRecord
  2
*Active
 70
     0
 10
0.0
 20
0.0
 11
1.0
 21
1.0
 12
5.5
 22
4.25
 13
0.0
 23
0.0
 14
0.5
 24
0.5
 15
0.5
 25
0.5
 16
0.0
 26
0.0
 36
1.0
 17
0.0
 27
0.0
 37
0.0
 40
8.5
 41
1.2941176471
 42
50.0
 43
0.0
 44
0.0
 50
0.0
 51
0.0
 71
     0
 72
  2000
 73
     1
 74
     3
 75
     0
 76
     0
 77
     0
 78
     0
281
     0
 65
     1
110
0.0
120
0.0
130
0.0
111
1.0
121
0.0
131
0.0
112
0.0
122
1.0
132
0.0
 79
     0
146
0.0
  0
ENDTAB
  0
TABLE
  2
LTYPE
  5
5
330
0
100
AcDbSymbolTable
 70
     6
  0
LTYPE
  5
14
330
5
100
AcDbSymbolTableRecord
100
AcDbLinetypeTableRecord
  2
ByBlock
 70
     0
  3

 72
    65
 73
     0
 40
0.0
  0
LTYPE
  5
15
330
5
100
AcDbSymbolTableRecord
100
AcDbLinetypeTableRecord
  2
ByLayer
 70
     0
  3

 72
    65
 73
     0
 40
0.0
  0
LTYPE
  5
16
330
5
100
AcDbSymbolTableRecord
100
AcDbLinetypeTableRecord
  2
Continuous
 70
     0
  3
Solid line
 72
    65
 73
     0
 40
0.0
  0
LTYPE
  5
6A
330
5
100
AcDbSymbolTableRecord
100
AcDbLinetypeTableRecord
  2
HIDDEN
 70
     0
  3
Hidden __ __ __ __ __ __ __ __ __ __ __ __ __ __
 72
    65
 73
     2
 40
0.075
 49
0.05
 74
     0
 49
-0.025
 74
     0
  0
LTYPE
  5
6B
330
5
100
AcDbSymbolTableRecord
100
AcDbLinetypeTableRecord
  2
PHANTOM
 70
     0
  3
Phantom ______  __  __  ______  __  __  ______
 72
    65
 73
     6
 40
0.5
 49
0.25
 74
     0
 49
-0.05
 74
     0
 49
0.05
 74
     0
 49
-0.05
 74
     0
 49
0.05
 74
     0
 49
-0.05
 74
     0
  0
LTYPE
  5
6C
330
5
100
AcDbSymbolTableRecord
100
AcDbLinetypeTableRecord
  2
CENTER
 70
     0
  3
Center ____ _ ____ _ ____ _ ____ _ ____ _ ____
 72
    65
 73
     4
 40
0.4
 49
0.25
 74
     0
 49
-0.05
 74
     0
 49
0.05
 74
     0
 49
-0.05
 74
     0
  0
LTYPE
  5
6D
330
5
100
AcDbSymbolTableRecord
100
AcDbLinetypeTableRecord
  2
CENTERX2
 70
     0
  3
Center (2x) ________  __  ________  __  _____
 72
    65
 73
     4
 40
0.8
 49
0.5
 74
     0
 49
-0.1
 74
     0
 49
0.1
 74
     0
 49
-0.1
 74
     0
  0
LTYPE
  5
6E
330
5
100
AcDbSymbolTableRecord
100
AcDbLinetypeTableRecord
  2
DOT2
 70
     0
  3
Dot (.5x) ........................................
 72
    65
 73
     2
 40
0.025
 49
0.0
 74
     0
 49
-0.025
 74
     0
  0
ENDTAB
  0
TABLE
  2
LAYER
  5
2
330
0
100
AcDbSymbolTable
 70
     1
  0
LAYER
  5
10
330
2
100
AcDbSymbolTableRecord
100
AcDbLayerTableRecord
  2
0
 70
     0
 62
     7
  6
Continuous
370
    -3
390
F
  0
ENDTAB
  0
TABLE
  2
STYLE
  5
3
330
0
100
AcDbSymbolTable
 70
     1
  0
STYLE
  5
11
330
3
100
AcDbSymbolTableRecord
100
AcDbTextStyleTableRecord
  2
Standard
 70
     0
 40
0.0
 41
1.0
 50
0.0
 71
     0
 42
0.1377952756
  3
txt
  4

  0
ENDTAB
  0
TABLE
  2
VIEW
  5
6
330
0
100
AcDbSymbolTable
 70
     0
  0
ENDTAB
  0
TABLE
  2
UCS
  5
7
330
0
100
AcDbSymbolTable
 70
     0
  0
ENDTAB
  0
TABLE
  2
APPID
  5
9
330
0
100
AcDbSymbolTable
 70
     1
  0
APPID
  5
12
330
9
100
AcDbSymbolTableRecord
100
AcDbRegAppTableRecord
  2
ACAD
 70
     0
  0
ENDTAB
  0
TABLE
  2
DIMSTYLE
  5
A
330
0
100
AcDbSymbolTable
 70
     1
100
AcDbDimStyleTable
  0
DIMSTYLE
105
27
330
A
100
AcDbSymbolTableRecord
100
AcDbDimStyleTableRecord
  2
Standard
 70
     0
178
     0
340
11
  0
ENDTAB
  0
TABLE
  2
BLOCK_RECORD
  5
1
330
0
100
AcDbSymbolTable
 70
     4
  0
BLOCK_RECORD
  5
1F
330
1
100
AcDbSymbolTableRecord
100
AcDbBlockTableRecord
  2
*Model_Space
340
22
  0
BLOCK_RECORD
  5
1B
330
1
100
AcDbSymbolTableRecord
100
AcDbBlockTableRecord
  2
*Paper_Space
340
1E
  0
BLOCK_RECORD
  5
23
330
1
100
AcDbSymbolTableRecord
100
AcDbBlockTableRecord
  2
*Paper_Space0
340
26
  0
BLOCK_RECORD
  5
136
330
1
100
AcDbSymbolTableRecord
100
AcDbBlockTableRecord
  2
SW_CENTERMARKSYMBOL_0
340
0
102
{BLKREFS
331
141
102
}
  0
BLOCK_RECORD
  5
142
330
1
100
AcDbSymbolTableRecord
100
AcDbBlockTableRecord
  2
SW_CENTERMARKSYMBOL_1
340
0
102
{BLKREFS
331
14D
102
}
  0
BLOCK_RECORD
  5
14E
330
1
100
AcDbSymbolTableRecord
100
AcDbBlockTableRecord
  2
SW_CENTERMARKSYMBOL_2
340
0
102
{BLKREFS
331
159
102
}
  0
ENDTAB
  0
ENDSEC
  0
SECTION
  2
BLOCKS
  0
BLOCK
  5
20
330
1F
100
AcDbEntity
  8
0
100
AcDbBlockBegin
  2
*Model_Space
 70
     0
 10
0.0
 20
0.0
 30
0.0
  3
*Model_Space
  1
*Model_Space
  0
ENDBLK
  5
21
330
1F
100
AcDbEntity
  8
0
100
AcDbBlockEnd
  0
BLOCK
  5
1C
330
1B
100
AcDbEntity
 67
     1
  8
0
100
AcDbBlockBegin
  2
*Paper_Space
 70
     0
 10
0.0
 20
0.0
 30
0.0
  3
*Paper_Space
  1
*Paper_Space
  0
ENDBLK
  5
1D
330
1B
100
AcDbEntity
 67
     1
  8
0
100
AcDbBlockEnd
  0
BLOCK
  5
24
330
23
100
AcDbEntity
  8
0
100
AcDbBlockBegin
  2
*Paper_Space0
 70
     0
 10
0.0
 20
0.0
 30
0.0
  3
*Paper_Space0
  1
*Paper_Space0
  0
ENDBLK
  5
25
330
23
100
AcDbEntity
  8
0
100
AcDbBlockEnd
  0
BLOCK
  5
137
330
136
100
AcDbEntity
  8
0
100
AcDbBlockBegin
  2
SW_CENTERMARKSYMBOL_0
 70
     0
 10
0.0
 20
0.0
 30
0.0
  3
SW_CENTERMARKSYMBOL_0
  1
SW_CENTERMARKSYMBOL_0
  0
LINE
  5
139
330
136
100
AcDbEntity
  8
0
  6
Continuous
 62
     0
370
     0
100
AcDbLine
 10
0.0
 20
0.0
 30
0.0
 11
0.0
 21
0.0984251969
 31
0.0
  0
LINE
  5
13A
330
136
100
AcDbEntity
  8
0
  6
Continuous
 62
     0
370
     0
100
AcDbLine
 10
0.0
 20
0.0
 30
0.0
 11
-0.0984251969
 21
0.0
 31
0.0
  0
LINE
  5
13B
330
136
100
AcDbEntity
  8
0
  6
Continuous
 62
     0
370
     0
100
AcDbLine
 10
0.0
 20
0.0
 30
0.0
 11
0.0
 21
-0.0984251969
 31
0.0
  0
LINE
  5
13C
330
136
100
AcDbEntity
  8
0
  6
Continuous
 62
     0
370
     0
100
AcDbLine
 10
0.0
 20
0.0
 30
0.0
 11
0.0984251969
 21
0.0
 31
0.0
  0
LINE
  5
13D
330
136
100
AcDbEntity
  8
0
  6
Continuous
 62
     0
370
     0
100
AcDbLine
 10
0.0
 20
0.0984251969
 30
0.0
 11
0.0
 21
0.1924251969
 31
0.0
  0
LINE
  5
13E
330
136
100
AcDbEntity
  8
0
  6
Continuous
 62
     0
370
     0
100
AcDbLine
 10
-0.0984251969
 20
0.0
 30
0.0
 11
-0.1924251969
 21
0.0
 31
0.0
  0
LINE
  5
13F
330
136
100
AcDbEntity
  8
0
  6
Continuous
 62
     0
370
     0
100
AcDbLine
 10
0.0
 20
-0.0984251969
 30
0.0
 11
0.0
 21
-0.1924251969
 31
0.0
  0
LINE
  5
140
330
136
100
AcDbEntity
  8
0
  6
Continuous
 62
     0
370
     0
100
AcDbLine
 10
0.0984251969
 20
0.0
 30
0.0
 11
0.1924251969
 21
0.0
 31
0.0
  0
ENDBLK
  5
138
330
136
100
AcDbEntity
  8
0
100
AcDbBlockEnd
  0
BLOCK
  5
143
330
142
100
AcDbEntity
  8
0
100
AcDbBlockBegin
  2
SW_CENTERMARKSYMBOL_1
 70
     0
 10
0.0
 20
0.0
 30
0.0
  3
SW_CENTERMARKSYMBOL_1
  1
SW_CENTERMARKSYMBOL_1
  0
LINE
  5
145
330
142
100
AcDbEntity
  8
0
  6
Continuous
 62
     0
370
     0
100
AcDbLine
 10
0.0
 20
0.0
 30
0.0
 11
0.0
 21
0.0984251969
 31
0.0
  0
LINE
  5
146
330
142
100
AcDbEntity
  8
0
  6
Continuous
 62
     0
370
     0
100
AcDbLine
 10
0.0
 20
0.0
 30
0.0
 11
-0.0984251969
 21
0.0
 31
0.0
  0
LINE
  5
147
330
142
100
AcDbEntity
  8
0
  6
Continuous
 62
     0
370
     0
100
AcDbLine
 10
0.0
 20
0.0
 30
0.0
 11
0.0
 21
-0.0984251969
 31
0.0
  0
LINE
  5
148
330
142
100
AcDbEntity
  8
0
  6
Continuous
 62
     0
370
     0
100
AcDbLine
 10
0.0
 20
0.0
 30
0.0
 11
0.0984251969
 21
0.0
 31
0.0
  0
LINE
  5
149
330
142
100
AcDbEntity
  8
0
  6
Continuous
 62
     0
370
     0
100
AcDbLine
 10
0.0
 20
0.0984251969
 30
0.0
 11
0.0
 21
0.1924251969
 31
0.0
  0
LINE
  5
14A
330
142
100
AcDbEntity
  8
0
  6
Continuous
 62
     0
370
     0
100
AcDbLine
 10
-0.0984251969
 20
0.0
 30
0.0
 11
-0.1924251969
 21
0.0
 31
0.0
  0
LINE
  5
14B
330
142
100
AcDbEntity
  8
0
  6
Continuous
 62
     0
370
     0
100
AcDbLine
 10
0.0
 20
-0.0984251969
 30
0.0
 11
0.0
 21
-0.1924251969
 31
0.0
  0
LINE
  5
14C
330
142
100
AcDbEntity
  8
0
  6
Continuous
 62
     0
370
     0
100
AcDbLine
 10
0.0984251969
 20
0.0
 30
0.0
 11
0.1924251969
 21
0.0
 31
0.0
  0
ENDBLK
  5
144
330
142
100
AcDbEntity
  8
0
100
AcDbBlockEnd
  0
BLOCK
  5
14F
330
14E
100
AcDbEntity
  8
0
100
AcDbBlockBegin
  2
SW_CENTERMARKSYMBOL_2
 70
     0
 10
0.0
 20
0.0
 30
0.0
  3
SW_CENTERMARKSYMBOL_2
  1
SW_CENTERMARKSYMBOL_2
  0
LINE
  5
151
330
14E
100
AcDbEntity
  8
0
  6
Continuous
 62
     0
370
     0
100
AcDbLine
 10
0.0
 20
0.0
 30
0.0
 11
0.0
 21
0.0984251969
 31
0.0
  0
LINE
  5
152
330
14E
100
AcDbEntity
  8
0
  6
Continuous
 62
     0
370
     0
100
AcDbLine
 10
0.0
 20
0.0
 30
0.0
 11
-0.0984251969
 21
0.0
 31
0.0
  0
LINE
  5
153
330
14E
100
AcDbEntity
  8
0
  6
Continuous
 62
     0
370
     0
100
AcDbLine
 10
0.0
 20
0.0
 30
0.0
 11
0.0
 21
-0.0984251969
 31
0.0
  0
LINE
  5
154
330
14E
100
AcDbEntity
  8
0
  6
Continuous
 62
     0
370
     0
100
AcDbLine
 10
0.0
 20
0.0
 30
0.0
 11
0.0984251969
 21
0.0
 31
0.0
  0
LINE
  5
155
330
14E
100
AcDbEntity
  8
0
  6
Continuous
 62
     0
370
     0
100
AcDbLine
 10
0.0
 20
0.0984251969
 30
0.0
 11
0.0
 21
0.1924251969
 31
0.0
  0
LINE
  5
156
330
14E
100
AcDbEntity
  8
0
  6
Continuous
 62
     0
370
     0
100
AcDbLine
 10
-0.0984251969
 20
0.0
 30
0.0
 11
-0.1924251969
 21
0.0
 31
0.0
  0
LINE
  5
157
330
14E
100
AcDbEntity
  8
0
  6
Continuous
 62
     0
370
     0
100
AcDbLine
 10
0.0
 20
-0.0984251969
 30
0.0
 11
0.0
 21
-0.1924251969
 31
0.0
  0
LINE
  5
158
330
14E
100
AcDbEntity
  8
0
  6
Continuous
 62
     0
370
     0
100
AcDbLine
 10
0.0984251969
 20
0.0
 30
0.0
 11
0.1924251969
 21
0.0
 31
0.0
  0
ENDBLK
  5
150
330
14E
100
AcDbEntity
  8
0
100
AcDbBlockEnd
  0
ENDSEC
  0
SECTION
  2
ENTITIES
  0
SPLINE
  5
6F
330
1F
100
AcDbEntity
  8
0
  6
Continuous
 62
     7
370
    15
100
AcDbSpline
210
0.0
220
0.0
230
1.0
 70
     8
 71
     3
 72
    14
 73
    10
 74
     0
 42
0.000000001
 43
0.00000001
 40
0.0
 40
0.0
 40
0.0
 40
0.0
 40
0.1669317365716076
 40
0.3337965175037787
 40
0.5002379856869695
 40
0.6251763725332501
 40
0.7501493391621351
 40
0.8750632778004771
 40
1.0
 40
1.0
 40
1.0
 40
1.0
 10
-8.854256802422453
 20
25.99611021103078
 30
0.0
 10
-8.82320356560227
 20
25.99661730722979
 30
0.0
 10
-8.761109547288664
 20
25.99763129623357
 30
0.0
 10
-8.668309394125412
 20
26.00651504804303
 30
0.0
 10
-8.585414856906795
 20
26.03036845070288
 30
0.0
 10
-8.519419220579728
 20
26.0730722007225
 30
0.0
 10
-8.474409055839052
 20
26.12735667240499
 30
0.0
 10
-8.444468783528674
 20
26.19184126365057
 30
0.0
 10
-8.440967067843186
 20
26.23851124786992
 30
0.0
 10
-8.439216050341972
 20
26.26184836786758
 30
0.0
  0
LINE
  5
70
330
1F
100
AcDbEntity
  8
0
  6
Continuous
 62
     7
370
    15
100
AcDbLine
 10
-9.1403379776
 20
25.9983019724
 30
0.0
 11
-8.8542568024
 21
25.996110211
 31
0.0
  0
SPLINE
  5
71
330
1F
100
AcDbEntity
  8
0
  6
Continuous
 62
     7
370
    15
100
AcDbSpline
210
0.0
220
0.0
230
1.0
 70
     8
 71
     3
 72
    14
 73
    10
 74
     0
 42
0.000000001
 43
0.00000001
 40
0.0
 40
0.0
 40
0.0
 40
0.0
 40
0.124916778252189
 40
0.2498393194751303
 40
0.3747940093991949
 40
0.4997372566777619
 40
0.6661816712372849
 40
0.8330703160508055
 40
1.0
 40
1.0
 40
1.0
 40
1.0
 10
-8.439216050341976
 20
26.26184836786759
 30
0.0
 10
-8.44090899312448
 20
26.284729337034
 30
0.0
 10
-8.444294956792506
 20
26.33049233096845
 30
0.0
 10
-8.475322937470713
 20
26.39292503933273
 30
0.0
 10
-8.519457915515169
 20
26.44565995075649
 30
0.0
 10
-8.58330683989087
 20
26.48890632788504
 30
0.0
 10
-8.665372387050969
 20
26.50989616812908
 30
0.0
 10
-8.756119775823844
 20
26.51816526591657
 30
0.0
 10
-8.816950376012676
 20
26.51881101485381
 30
0.0
 10
-8.84736941531947
 20
26.51913392901616
 30
0.0
  0
LINE
  5
72
330
1F
100
AcDbEntity
  8
0
  6
Continuous
 62
     7
370
    15
100
AcDbLine
 10
-9.1403379776
 20
26.519133929
 30
0.0
 11
-9.1403379776
 21
25.9983019724
 31
0.0
  0
LINE
  5
73
330
1F
100
AcDbEntity
  8
0
  6
Continuous
 62
     7
370
    15
100
AcDbLine
 10
-8.8473694153
 20
26.519133929
 30
0.0
 11
-9.1403379776
 21
26.519133929
 31
0.0
  0
LINE
  5
74
330
1F
100
AcDbEntity
  8
0
  6
Continuous
 62
     7
370
    15
100
AcDbLine
 10
10.5311354692
 20
26.7194524683
 30
0.0
 11
10.5311354692
 21
25.1168900745
 31
0.0
  0
LINE
  5
75
330
1F
100
AcDbEntity
  8
0
  6
Continuous
 62
     7
370
    15
100
AcDbLine
 10
10.3909108491
 20
26.7194524683
 30
0.0
 11
10.5311354692
 21
26.7194524683
 31
0.0
  0
LINE
  5
76
330
1F
100
AcDbEntity
  8
0
  6
Continuous
 62
     7
370
    15
100
AcDbLine
 10
10.3909108491
 20
25.1168900745
 30
0.0
 11
10.3909108491
 21
26.7194524683
 31
0.0
  0
LINE
  5
77
330
1F
100
AcDbEntity
  8
0
  6
Continuous
 62
     7
370
    15
100
AcDbLine
 10
10.5311354692
 20
25.1168900745
 30
0.0
 11
10.3909108491
 21
25.1168900745
 31
0.0
  0
LINE
  5
78
330
1F
100
AcDbEntity
  8
0
  6
Continuous
 62
     7
370
    15
100
AcDbLine
 10
7.8268093765
 20
25.5297390653
 30
0.0
 11
7.8268093765
 21
25.1168900745
 31
0.0
  0
SPLINE
  5
79
330
1F
100
AcDbEntity
  8
0
  6
Continuous
 62
     7
370
    15
100
AcDbSpline
210
0.0
220
0.0
230
1.0
 70
     8
 71
     3
 72
    10
 73
     6
 74
     0
 42
0.000000001
 43
0.00000001
 40
0.0
 40
0.0
 40
0.0
 40
0.0
 40
0.2798736308421699
 40
0.5599229644634216
 40
1.0
 40
1.0
 40
1.0
 40
1.0
 10
7.848405500330665
 20
25.83616795203073
 30
0.0
 10
7.84331282761736
 20
25.80788768490701
 30
0.0
 10
7.833124285045151
 20
25.75130939649847
 30
0.0
 10
7.828173039659648
 20
25.64868885332212
 30
0.0
 10
7.827326627890755
 20
25.57485793829029
 30
0.0
 10
7.826809376477597
 20
25.52973906525672
 30
0.0
  0
SPLINE
  5
7A
330
1F
100
AcDbEntity
  8
0
  6
Continuous
 62
     7
370
    15
100
AcDbSpline
210
0.0
220
0.0
230
1.0
 70
     8
 71
     3
 72
    12
 73
     8
 74
     0
 42
0.000000001
 43
0.00000001
 40
0.0
 40
0.0
 40
0.0
 40
0.0
 40
0.1867021507563427
 40
0.3734037827371112
 40
0.5602148923178193
 40
0.7801268363584586
 40
0.9999999999999999
 40
0.9999999999999999
 40
0.9999999999999999
 40
0.9999999999999999
 10
8.236840053101565
 20
26.13852307253191
 30
0.0
 10
8.203924198723307
 20
26.13632929313883
 30
0.0
 10
8.138092581427662
 20
26.13194174044834
 30
0.0
 10
8.045485796069022
 20
26.09342808563001
 30
0.0
 10
7.961568487755146
 20
26.03089963990985
 30
0.0
 10
7.887592938721652
 20
25.94623967950782
 30
0.0
 10
7.861467211869193
 20
25.87285637086812
 30
0.0
 10
7.848405500330665
 20
25.83616795203073
 30
0.0
  0
SPLINE
  5
7B
330
1F
100
AcDbEntity
  8
0
  6
Continuous
 62
     7
370
    15
100
AcDbSpline
210
0.0
220
0.0
230
1.0
 70
     8
 71
     3
 72
    12
 73
     8
 74
     0
 42
0.000000001
 43
0.00000001
 40
0.0
 40
0.0
 40
0.0
 40
0.0
 40
0.1868254737132027
 40
0.3735402506477414
 40
0.5600869966672993
 40
0.7798963095611509
 40
1.0
 40
1.0
 40
1.0
 40
1.0
 10
8.531373823955644
 20
25.91379009533311
 30
0.0
 10
8.524539052195822
 20
25.93815237554436
 30
0.0
 10
8.510873558376678
 20
25.98686250096568
 30
0.0
 10
8.469287969978078
 20
26.05158111630076
 30
0.0
 10
8.406980002137281
 20
26.10362010935508
 30
0.0
 10
8.32611240208355
 20
26.13420165281644
 30
0.0
 10
8.266610775040126
 20
26.1370819568203
 30
0.0
 10
8.236840053101565
 20
26.13852307253191
 30
0.0
  0
SPLINE
  5
7C
330
1F
100
AcDbEntity
  8
0
  6
Continuous
 62
     7
370
    15
100
AcDbSpline
210
0.0
220
0.0
230
1.0
 70
     8
 71
     3
 72
     9
 73
     5
 74
     0
 42
0.000000001
 43
0.00000001
 40
0.0
 40
0.0
 40
0.0
 40
0.0
 40
0.5602557083380802
 40
0.9999999999999999
 40
0.9999999999999999
 40
0.9999999999999999
 40
0.9999999999999999
 10
8.547962218991755
 20
25.6539983231365
 30
0.0
 10
8.548264610860379
 20
25.7027520940462
 30
0.0
 10
8.548804349883342
 20
25.7897726637327
 30
0.0
 10
8.536697668142255
 20
25.87591117618845
 30
0.0
 10
8.531373823955644
 20
25.91379009533311
 30
0.0
  0
LINE
  5
7D
330
1F
100
AcDbEntity
  8
0
  6
Continuous
 62
     7
370
    15
100
AcDbLine
 10
8.547962219
 20
25.1168900745
 30
0.0
 11
8.547962219
 21
25.6539983231
 31
0.0
  0
LINE
  5
7E
330
1F
100
AcDbEntity
  8
0
  6
Continuous
 62
     7
370
    15
100
AcDbLine
 10
8.6881868391
 20
25.1168900745
 30
0.0
 11
8.547962219
 21
25.1168900745
 31
0.0
  0
LINE
  5
7F
330
1F
100
AcDbEntity
  8
0
  6
Continuous
 62
     7
370
    15
100
AcDbLine
 10
8.6881868391
 20
25.7000112316
 30
0.0
 11
8.6881868391
 21
25.1168900745
 31
0.0
  0
SPLINE
  5
80
330
1F
100
AcDbEntity
  8
0
  6
Continuous
 62
     7
370
    15
100
AcDbSpline
210
0.0
220
0.0
230
1.0
 70
     8
 71
     3
 72
    23
 73
    19
 74
     0
 42
0.000000001
 43
0.00000001
 40
0.00000081602696
 40
0.00000081602696
 40
0.00000081602696
 40
0.00000081602696
 40
0.0772404236164758
 40
0.1511781404663798
 40
0.2234879838004006
 40
0.2955426441988637
 40
0.3669762546197848
 40
0.4371305254863839
 40
0.50704361564327
 40
0.5785597335236765
 40
0.6166135446965532
 40
0.6587562369775287
 40
0.7044912261143988
 40
0.7548031149051471
 40
0.8093316253185673
 40
0.8682744554728181
 40
0.9320728834092953
 40
0.9999989967411618
 40
0.9999989967411618
 40
0.9999989967411618
 40
0.9999989967411618
 10
8.261254491052236
 20
26.27874886564873
 30
0.0
 10
8.282384015194852
 20
26.2779697687719
 30
0.0
 10
8.323739800986457
 20
26.276444844569
 30
0.0
 10
8.383953001387622
 20
26.26438386579026
 30
0.0
 10
8.44019112356922
 20
26.24378330546674
 30
0.0
 10
8.492253425260337
 20
26.21556363117968
 30
0.0
 10
8.539185216940078
 20
26.18047145555298
 30
0.0
 10
8.580401668491948
 20
26.13958851726762
 30
0.0
 10
8.614492403928354
 20
26.0925634801089
 30
0.0
 10
8.63734836955324
 20
26.04893707107468
 30
0.0
 10
8.652404462272422
 20
26.01023671648863
 30
0.0
 10
8.661883184376807
 20
25.97709084590879
 30
0.0
 10
8.669932729671183
 20
25.94016309985112
 30
0.0
 10
8.676911188607638
 20
25.89956506902332
 30
0.0
 10
8.681633113548466
 20
25.85501230551777
 30
0.0
 10
8.685357350839217
 20
25.80668744299416
 30
0.0
 10
8.688026396745284
 20
25.75460640877861
 30
0.0
 10
8.688132305152411
 20
25.71858586761856
 30
0.0
 10
8.688186911888874
 20
25.70001123180543
 30
0.0
  0
SPLINE
  5
81
330
1F
100
AcDbEntity
  8
0
  6
Continuous
 62
     7
370
    15
100
AcDbSpline
210
0.0
220
0.0
230
1.0
 70
     8
 71
     3
 72
    11
 73
     7
 74
     0
 42
0.000000001
 43
0.00000001
 40
0.0
 40
0.0
 40
0.0
 40
0.0
 40
0.2800999802527708
 40
0.5597787088700503
 40
0.7798658513056148
 40
1.0
 40
1.0
 40
1.0
 40
1.0
 10
7.826809376477597
 20
26.05276278324209
 30
0.0
 10
7.857306763318438
 20
26.08943348682704
 30
0.0
 10
7.918255670970178
 20
26.16271974371151
 30
0.0
 10
8.032108324245907
 20
26.23409965811008
 30
0.0
 10
8.149104428223941
 20
26.27273237838635
 30
0.0
 10
8.223868475714553
 20
26.27674322734764
 30
0.0
 10
8.261254491063895
 20
26.27874886596492
 30
0.0
  0
LINE
  5
82
330
1F
100
AcDbEntity
  8
0
  6
Continuous
 62
     7
370
    15
100
AcDbLine
 10
7.8268093765
 20
26.2587179507
 30
0.0
 11
7.8268093765
 21
26.0527627832
 31
0.0
  0
LINE
  5
83
330
1F
100
AcDbEntity
  8
0
  6
Continuous
 62
     7
370
    15
100
AcDbLine
 10
7.686583583
 20
26.2587179507
 30
0.0
 11
7.8268093765
 21
26.2587179507
 31
0.0
  0
LINE
  5
84
330
1F
100
AcDbEntity
  8
0
  6
Continuous
 62
     7
370
    15
100
AcDbLine
 10
7.686583583
 20
25.1168900745
 30
0.0
 11
7.686583583
 21
26.2587179507
 31
0.0
  0
LINE
  5
85
330
1F
100
AcDbEntity
  8
0
  6
Continuous
 62
     7
370
    15
100
AcDbLine
 10
7.8268093765
 20
25.1168900745
 30
0.0
 11
7.686583583
 21
25.1168900745
 31
0.0
  0
LINE
  5
86
330
1F
100
AcDbEntity
  8
0
  6
Continuous
 62
     7
370
    15
100
AcDbLine
 10
4.8620649588
 20
25.3237838978
 30
0.0
 11
4.8620649588
 21
24.6962173875
 31
0.0
  0
SPLINE
  5
87
330
1F
100
AcDbEntity
  8
0
  6
Continuous
 62
     7
370
    15
100
AcDbSpline
210
0.0
220
0.0
230
1.0
 70
     8
 71
     3
 72
    11
 73
     7
 74
     0
 42
0.000000001
 43
0.00000001
 40
0.0
 40
0.0
 40
0.0
 40
0.0
 40
0.2798921280207079
 40
0.5596099869347672
 40
0.779759061546074
 40
1.0
 40
1.0
 40
1.0
 40
1.0
 10
5.327809551803487
 20
25.09685915925566
 30
0.0
 10
5.2776929661054
 20
25.10014741841384
 30
0.0
 10
5.177490998775887
 20
25.10672188936289
 30
0.0
 10
5.046957356453162
 20
25.16147736565939
 30
0.0
 10
4.941385321660956
 20
25.23617257664064
 30
0.0
 10
4.888508756371188
 20
25.29457606315919
 30
0.0
 10
4.862064958791435
 20
25.32378389780172
 30
0.0
  0
SPLINE
  5
88
330
1F
100
AcDbEntity
  8
0
  6
Continuous
 62
     7
370
    15
100
AcDbSpline
210
0.0
220
0.0
230
1.0
 70
     8
 71
     3
 72
    14
 73
    10
 74
     0
 42
0.000000001
 43
0.00000001
 40
0.0
 40
0.0
 40
0.0
 40
0.0
 40
0.1400518997964249
 40
0.2800139377232843
 40
0.4200064971106488
 40
0.5600773406685979
 40
0.7067225218367349
 40
0.853306912318672
 40
1.0
 40
1.0
 40
1.0
 40
1.0
 10
5.923764480614627
 20
25.69093442978078
 30
0.0
 10
5.921373411800436
 20
25.64720403394723
 30
0.0
 10
5.916592808359843
 20
25.5597713011293
 30
0.0
 10
5.87362442784605
 20
25.43428270899321
 30
0.0
 10
5.803065406501282
 20
25.32293096462232
 30
0.0
 10
5.709322107323104
 20
25.22730262895486
 30
0.0
 10
5.596051134388858
 20
25.15202196173143
 30
0.0
 10
5.465212363928927
 20
25.10486078881167
 30
0.0
 10
5.373621804557454
 20
25.09952702805685
 30
0.0
 10
5.327809551803487
 20
25.09685915925566
 30
0.0
  0
SPLINE
  5
89
330
1F
100
AcDbEntity
  8
0
  6
Continuous
 62
     7
370
    15
100
AcDbSpline
210
0.0
220
0.0
230
1.0
 70
     8
 71
     3
 72
    14
 73
    10
 74
     0
 42
0.000000001
 43
0.00000001
 40
0.0
 40
0.0
 40
0.0
 40
0.0
 40
0.1400656476370587
 40
0.2800560586550449
 40
0.4200474821034269
 40
0.5601052425441011
 40
0.7067528374336857
 40
0.8533364488932268
 40
1.0
 40
1.0
 40
1.0
 40
1.0
 10
5.32342837574854
 20
26.27874886596492
 30
0.0
 10
5.367069626410392
 20
26.27650818102512
 30
0.0
 10
5.454328685725246
 20
26.27202801473517
 30
0.0
 10
5.579619436229485
 20
26.22963184035629
 30
0.0
 10
5.69165003343751
 20
26.16094149610822
 30
0.0
 10
5.788873798746374
 20
26.06932700111312
 30
0.0
 10
5.866145550195266
 20
25.95784528538127
 30
0.0
 10
5.915684034338907
 20
25.82807319897399
 30
0.0
 10
5.921070509068829
 20
25.73665565970116
 30
0.0
 10
5.923764480614627
 20
25.69093442978078
 30
0.0
  0
SPLINE
  5
8A
330
1F
100
AcDbEntity
  8
0
  6
Continuous
 62
     7
370
    15
100
AcDbSpline
210
0.0
220
0.0
230
1.0
 70
     8
 71
     3
 72
    11
 73
     7
 74
     0
 42
0.000000001
 43
0.00000001
 40
0.0
 40
0.0
 40
0.0
 40
0.0
 40
0.2800160125751335
 40
0.5595877791350828
 40
0.7797607054980498
 40
1.0
 40
1.0
 40
1.0
 40
1.0
 10
4.862064958791435
 20
26.04744060472435
 30
0.0
 10
4.89409805371661
 20
26.08633167377139
 30
0.0
 10
4.958113422991938
 20
26.16405211109954
 30
0.0
 10
5.080735660254247
 20
26.23597921354832
 30
0.0
 10
5.205028950462642
 20
26.27343090038265
 30
0.0
 10
5.283957935905646
 20
26.27697603269235
 30
0.0
 10
5.32342837574854
 20
26.27874886596492
 30
0.0
  0
LINE
  5
8B
330
1F
100
AcDbEntity
  8
0
  6
Continuous
 62
     7
370
    15
100
AcDbLine
 10
4.8620649588
 20
26.2587179507
 30
0.0
 11
4.8620649588
 21
26.0474406047
 31
0.0
  0
LINE
  5
8C
330
1F
100
AcDbEntity
  8
0
  6
Continuous
 62
     7
370
    15
100
AcDbLine
 10
4.721841512
 20
26.2587179507
 30
0.0
 11
4.8620649588
 21
26.2587179507
 31
0.0
  0
LINE
  5
8D
330
1F
100
AcDbEntity
  8
0
  6
Continuous
 62
     7
370
    15
100
AcDbLine
 10
4.721841512
 20
24.6962173875
 30
0.0
 11
4.721841512
 21
26.2587179507
 31
0.0
  0
LINE
  5
8E
330
1F
100
AcDbEntity
  8
0
  6
Continuous
 62
     7
370
    15
100
AcDbLine
 10
4.8620649588
 20
24.6962173875
 30
0.0
 11
4.721841512
 21
24.6962173875
 31
0.0
  0
SPLINE
  5
8F
330
1F
100
AcDbEntity
  8
0
  6
Continuous
 62
     7
370
    15
100
AcDbSpline
210
0.0
220
0.0
230
1.0
 70
     8
 71
     3
 72
    14
 73
    10
 74
     0
 42
0.000000001
 43
0.00000001
 40
0.0
 40
0.0
 40
0.0
 40
0.0
 40
0.1400890787923235
 40
0.2801208520140586
 40
0.4201189984458815
 40
0.5601735682805714
 40
0.70680489188264
 40
0.8533528141651293
 40
1.0
 40
1.0
 40
1.0
 40
1.0
 10
1.903893478507472
 20
25.09685915925566
 30
0.0
 10
1.859326215796016
 20
25.09888666522463
 30
0.0
 10
1.770209921290479
 20
25.10294084778037
 30
0.0
 10
1.64059187184233
 20
25.14000757833803
 30
0.0
 10
1.52236081790568
 20
25.20409234392628
 30
0.0
 10
1.419827751848794
 20
25.29443829240444
 30
0.0
 10
1.337829219753701
 20
25.40627194175917
 30
0.0
 10
1.28509571969114
 20
25.5382616947095
 30
0.0
 10
1.279250545013508
 20
25.6316851958775
 30
0.0
 10
1.276326968209352
 20
25.67841276109883
 30
0.0
  0
SPLINE
  5
90
330
1F
100
AcDbEntity
  8
0
  6
Continuous
 62
     7
370
    15
100
AcDbSpline
210
0.0
220
0.0
230
1.0
 70
     8
 71
     3
 72
    12
 73
     8
 74
     0
 42
0.000000001
 43
0.00000001
 40
0.0
 40
0.0
 40
0.0
 40
0.0
 40
0.1866224323854259
 40
0.3732525881028209
 40
0.5599481656478458
 40
0.779910565101783
 40
1.0
 40
1.0
 40
1.0
 40
1.0
 10
2.438185759650781
 20
25.36040555474521
 30
0.0
 10
2.415069314575282
 20
25.3292783816172
 30
0.0
 10
2.368835467754819
 20
25.26702274716938
 30
0.0
 10
2.276235124798994
 20
25.1951976806448
 30
0.0
 10
2.16685850094086
 20
25.13849985558235
 30
0.0
 10
2.040695922232884
 20
25.10277184080851
 30
0.0
 10
1.949503068355429
 20
25.09883043237904
 30
0.0
 10
1.903893478507472
 20
25.09685915925566
 30
0.0
  0
LINE
  5
91
330
1F
100
AcDbEntity
  8
0
  6
Continuous
 62
     7
370
    15
100
AcDbLine
 10
2.3208115422
 20
25.4374034919
 30
0.0
 11
2.4381857597
 21
25.3604055547
 31
0.0
  0
SPLINE
  5
92
330
1F
100
AcDbEntity
  8
0
  6
Continuous
 62
     7
370
    15
100
AcDbSpline
210
0.0
220
0.0
230
1.0
 70
     8
 71
     3
 72
    11
 73
     7
 74
     0
 42
0.000000001
 43
0.00000001
 40
0.0
 40
0.0
 40
0.0
 40
0.0
 40
0.2799506147862987
 40
0.5597165409853676
 40
0.7798393763665842
 40
1.0
 40
1.0
 40
1.0
 40
1.0
 10
1.906085239854725
 20
25.23708025940955
 30
0.0
 10
1.950713727026805
 20
25.23977230535827
 30
0.0
 10
2.039941259134336
 20
25.24515462126329
 30
0.0
 10
2.156873962649157
 20
25.29215504973351
 30
0.0
 10
2.251217111916065
 20
25.35845779871314
 30
0.0
 10
2.297612071480033
 20
25.41108675519091
 30
0.0
 10
2.320811542234423
 20
25.43740349192514
 30
0.0
  0
SPLINE
  5
93
330
1F
100
AcDbEntity
  8
0
  6
Continuous
 62
     7
370
    15
100
AcDbSpline
210
0.0
220
0.0
230
1.0
 70
     8
 71
     3
 72
    13
 73
     9
 74
     0
 42
0.000000001
 43
0.00000001
 40
0.0
 40
0.0
 40
0.0
 40
0.0
 40
0.1864653282288757
 40
0.3729898215648276
 40
0.5594738771473599
 40
0.7062848193782297
 40
0.8531161061683215
 40
1.0
 40
1.0
 40
1.0
 40
1.0
 10
1.416552761642353
 20
25.69093442978078
 30
0.0
 10
1.420832254417324
 20
25.64459415130824
 30
0.0
 10
1.429392597842469
 20
25.55189889067767
 30
0.0
 10
1.495977449905102
 20
25.42678101149798
 30
0.0
 10
1.586900048374461
 20
25.33324183531565
 30
0.0
 10
1.691664731143584
 20
25.27502619326807
 30
0.0
 10
1.796806746039729
 20
25.24223950301041
 30
0.0
 10
1.869654726006004
 20
25.23880021261251
 30
0.0
 10
1.906085239854725
 20
25.23708025940955
 30
0.0
  0
SPLINE
  5
94
330
1F
100
AcDbEntity
  8
0
  6
Continuous
 62
     7
370
    15
100
AcDbSpline
210
0.0
220
0.0
230
1.0
 70
     8
 71
     3
 72
    13
 73
     9
 74
     0
 42
0.000000001
 43
0.00000001
 40
0.0
 40
0.0
 40
0.0
 40
0.0
 40
0.1867516717795532
 40
0.3732680087009648
 40
0.5598324585485421
 40
0.7065814489247072
 40
0.8532402404688189
 40
1.0
 40
1.0
 40
1.0
 40
1.0
 10
1.905146584031491
 20
26.13852307253191
 30
0.0
 10
1.859096202492726
 20
26.13580024562341
 30
0.0
 10
1.767053469739108
 20
26.13035802297294
 30
0.0
 10
1.637258634353761
 20
26.0772999667561
 30
0.0
 10
1.53627452977915
 20
25.9964759206519
 30
0.0
 10
1.464860653891739
 20
25.90144435597896
 30
0.0
 10
1.423402076796869
 20
25.7994418207504
 30
0.0
 10
1.418836390391905
 20
25.72711185656975
 30
0.0
 10
1.416552761642353
 20
25.69093442978078
 30
0.0
  0
SPLINE
  5
95
330
1F
100
AcDbEntity
  8
0
  6
Continuous
 62
     7
370
    15
100
AcDbSpline
210
0.0
220
0.0
230
1.0
 70
     8
 71
     3
 72
    11
 73
     7
 74
     0
 42
0.000000001
 43
0.00000001
 40
0.0
 40
0.0
 40
0.0
 40
0.0
 40
0.2799097261741086
 40
0.5596093991124773
 40
0.7797744713688856
 40
0.9999999999999999
 40
0.9999999999999999
 40
0.9999999999999999
 40
0.9999999999999999
 10
2.320811542234423
 20
25.93820453329544
 30
0.0
 10
2.291341337274036
 20
25.97209761558092
 30
0.0
 10
2.232423042740226
 20
26.03985834569596
 30
0.0
 10
2.122047386787666
 20
26.10215629057853
 30
0.0
 10
2.01073423884605
 20
26.13392984835932
 30
0.0
 10
1.940345689925858
 20
26.13699185769122
 30
0.0
 10
1.905146584031491
 20
26.13852307253191
 30
0.0
  0
LINE
  5
96
330
1F
100
AcDbEntity
  8
0
  6
Continuous
 62
     7
370
    15
100
AcDbLine
 10
2.4381857597
 20
26.0111333975
 30
0.0
 11
2.3208115422
 21
25.9382045333
 31
0.0
  0
SPLINE
  5
97
330
1F
100
AcDbEntity
  8
0
  6
Continuous
 62
     7
370
    15
100
AcDbSpline
210
0.0
220
0.0
230
1.0
 70
     8
 71
     3
 72
    11
 73
     7
 74
     0
 42
0.000000001
 43
0.00000001
 40
0.0
 40
0.0
 40
0.0
 40
0.0
 40
0.280062999196152
 40
0.5601286390096851
 40
0.7800655139369185
 40
1.0
 40
1.0
 40
1.0
 40
1.0
 10
1.915476491366186
 20
26.27874886596492
 30
0.0
 10
1.972852046432475
 20
26.27476667724064
 30
0.0
 10
2.087603697539369
 20
26.26680226224541
 30
0.0
 10
2.237814320609927
 20
26.2075379850945
 30
0.0
 10
2.361169730917101
 20
26.1230814910074
 30
0.0
 10
2.41251384301984
 20
26.04844929355212
 30
0.0
 10
2.438185759650781
 20
26.01113339748165
 30
0.0
  0
SPLINE
  5
98
330
1F
100
AcDbEntity
  8
0
  6
Continuous
 62
     7
370
    15
100
AcDbSpline
210
0.0
220
0.0
230
1.0
 70
     8
 71
     3
 72
    14
 73
    10
 74
     0
 42
0.000000001
 43
0.00000001
 40
0.0
 40
0.0
 40
0.0
 40
0.0
 40
0.139978579531206
 40
0.2799598684520626
 40
0.4199435034493928
 40
0.559901028731921
 40
0.7065698778152291
 40
0.8532550781728909
 40
1.0
 40
1.0
 40
1.0
 40
1.0
 10
1.276326968209352
 20
25.67841276109883
 30
0.0
 10
1.27915307773437
 20
25.72411231563806
 30
0.0
 10
1.284805351485855
 20
25.81551230926545
 30
0.0
 10
1.334159236914451
 20
25.94499045689282
 30
0.0
 10
1.408605482032163
 20
26.06070030678285
 30
0.0
 10
1.510548170941731
 20
26.15714962711701
 30
0.0
 10
1.633837941947095
 20
26.22778225734723
 30
0.0
 10
1.771900281560084
 20
26.27163736676966
 30
0.0
 10
1.867611261451742
 20
26.27637804461174
 30
0.0
 10
1.915476491366186
 20
26.27874886596492
 30
0.0
  0
LINE
  5
99
330
1F
100
AcDbEntity
  8
0
  6
Continuous
 62
     7
370
    15
100
AcDbLine
 10
-0.7669413744
 20
26.2587179507
 30
0.0
 11
-0.7669413744
 21
26.441197336
 31
0.0
  0
LINE
  5
9A
330
1F
100
AcDbEntity
  8
0
  6
Continuous
 62
     7
370
    15
100
AcDbLine
 10
-0.9271980831
 20
26.2587179507
 30
0.0
 11
-0.7669413744
 21
26.2587179507
 31
0.0
  0
LINE
  5
9B
330
1F
100
AcDbEntity
  8
0
  6
Continuous
 62
     7
370
    15
100
AcDbLine
 10
-0.9271980831
 20
26.1184921573
 30
0.0
 11
-0.9271980831
 21
26.2587179507
 31
0.0
  0
LINE
  5
9C
330
1F
100
AcDbEntity
  8
0
  6
Continuous
 62
     7
370
    15
100
AcDbLine
 10
-0.7669413744
 20
26.1184921573
 30
0.0
 11
-0.9271980831
 21
26.1184921573
 31
0.0
  0
LINE
  5
9D
330
1F
100
AcDbEntity
  8
0
  6
Continuous
 62
     7
370
    15
100
AcDbLine
 10
-0.7669413744
 20
25.1168900745
 30
0.0
 11
-0.7669413744
 21
26.1184921573
 31
0.0
  0
LINE
  5
9E
330
1F
100
AcDbEntity
  8
0
  6
Continuous
 62
     7
370
    15
100
AcDbLine
 10
-0.6267179277
 20
25.1168900745
 30
0.0
 11
-0.7669413744
 21
25.1168900745
 31
0.0
  0
LINE
  5
9F
330
1F
100
AcDbEntity
  8
0
  6
Continuous
 62
     7
370
    15
100
AcDbLine
 10
-0.6260913749
 20
26.1184921573
 30
0.0
 11
-0.6267179277
 21
25.1168900745
 31
0.0
  0
LINE
  5
A0
330
1F
100
AcDbEntity
  8
0
  6
Continuous
 62
     7
370
    15
100
AcDbLine
 10
-0.3863328646
 20
26.1184921573
 30
0.0
 11
-0.6260913749
 21
26.1184921573
 31
0.0
  0
LINE
  5
A1
330
1F
100
AcDbEntity
  8
0
  6
Continuous
 62
     7
370
    15
100
AcDbLine
 10
-0.3863328646
 20
26.2587179507
 30
0.0
 11
-0.3863328646
 21
26.1184921573
 31
0.0
  0
LINE
  5
A2
330
1F
100
AcDbEntity
  8
0
  6
Continuous
 62
     7
370
    15
100
AcDbLine
 10
-0.6257769252
 20
26.2587179507
 30
0.0
 11
-0.3863328646
 21
26.2587179507
 31
0.0
  0
LINE
  5
A3
330
1F
100
AcDbEntity
  8
0
  6
Continuous
 62
     7
370
    15
100
AcDbLine
 10
-0.6257769252
 20
26.4170973478
 30
0.0
 11
-0.6257769252
 21
26.2587179507
 31
0.0
  0
SPLINE
  5
A4
330
1F
100
AcDbEntity
  8
0
  6
Continuous
 62
     7
370
    15
100
AcDbSpline
210
0.0
220
0.0
230
1.0
 70
     8
 71
     3
 72
    12
 73
     8
 74
     0
 42
0.000000001
 43
0.00000001
 40
0.0
 40
0.0
 40
0.0
 40
0.0
 40
0.2492972964758907
 40
0.3745183705362472
 40
0.4988655682018863
 40
0.7489789192966093
 40
1.0
 40
1.0
 40
1.0
 40
1.0
 10
-0.5084027077744677
 20
26.59926228336657
 30
0.0
 10
-0.5299794163110244
 20
26.59742401602737
 30
0.0
 10
-0.5623940226339881
 20
26.5946623940675
 30
0.0
 10
-0.598677356954503
 20
26.57113302047677
 30
0.0
 10
-0.6260462748853249
 20
26.53660277686386
 30
0.0
 10
-0.6242159592023853
 20
26.48030546391785
 30
0.0
 10
-0.6252559752505007
 20
26.43819214711888
 30
0.0
 10
-0.6257769251908256
 20
26.41709734775145
 30
0.0
  0
SPLINE
  5
A5
330
1F
100
AcDbEntity
  8
0
  6
Continuous
 62
     7
370
    15
100
AcDbSpline
210
0.0
220
0.0
230
1.0
 70
     8
 71
     3
 72
     9
 73
     5
 74
     0
 42
0.000000001
 43
0.00000001
 40
0.0
 40
0.0
 40
0.0
 40
0.0
 40
0.5602498234301465
 40
1.0
 40
1.0
 40
1.0
 40
1.0
 10
-0.3662996026949971
 20
26.56420348836876
 30
0.0
 10
-0.3919557466822745
 20
26.57451518793613
 30
0.0
 10
-0.4377498601550714
 20
26.59292072620871
 30
0.0
 10
-0.4868228512678201
 20
26.59732534949757
 30
0.0
 10
-0.5084027077744677
 20
26.59926228336657
 30
0.0
  0
LINE
  5
A6
330
1F
100
AcDbEntity
  8
0
  6
Continuous
 62
     7
370
    15
100
AcDbLine
 10
-0.3662996027
 20
26.71006591
 30
0.0
 11
-0.3662996027
 21
26.5642034884
 31
0.0
  0
SPLINE
  5
A7
330
1F
100
AcDbEntity
  8
0
  6
Continuous
 62
     7
370
    15
100
AcDbSpline
210
0.0
220
0.0
230
1.0
 70
     8
 71
     3
 72
     9
 73
     5
 74
     0
 42
0.000000001
 43
0.00000001
 40
0.0
 40
0.0
 40
0.0
 40
0.0
 40
0.5597129050101576
 40
1.0
 40
1.0
 40
1.0
 40
1.0
 10
-0.5371983217917441
 20
26.73948807679957
 30
0.0
 10
-0.5047394000567492
 20
26.73717638929035
 30
0.0
 10
-0.4467473090321548
 20
26.73304625848844
 30
0.0
 10
-0.3908919822594487
 20
26.71709086421455
 30
0.0
 10
-0.3662996026950014
 20
26.71006591002029
 30
0.0
  0
SPLINE
  5
A8
330
1F
100
AcDbEntity
  8
0
  6
Continuous
 62
     7
370
    15
100
AcDbSpline
210
0.0
220
0.0
230
1.0
 70
     8
 71
     3
 72
    12
 73
     8
 74
     0
 42
0.000000001
 43
0.00000001
 40
0.0
 40
0.0
 40
0.0
 40
0.0
 40
0.1874886356175481
 40
0.3747355574673205
 40
0.5607139488697535
 40
0.7799286475767545
 40
1.0
 40
1.0
 40
1.0
 40
1.0
 10
-0.7669413744470617
 20
26.44119733601299
 30
0.0
 10
-0.7663952305668584
 20
26.46822219357129
 30
0.0
 10
-0.7653036469050949
 20
26.52223706774876
 30
0.0
 10
-0.756014465260418
 20
26.60357498374941
 30
0.0
 10
-0.7131440793836848
 20
26.68078022061019
 30
0.0
 10
-0.6330970650949266
 20
26.73207208127319
 30
0.0
 10
-0.5692061009122655
 20
26.73701286660817
 30
0.0
 10
-0.5371983217917441
 20
26.73948807679957
 30
0.0
  0
LINE
  5
A9
330
1F
100
AcDbEntity
  8
0
  6
Continuous
 62
     7
370
    15
100
AcDbLine
 10
-1.7685434572
 20
25.6577576397
 30
0.0
 11
-2.7901788018
 21
25.6577576397
 31
0.0
  0
SPLINE
  5
AA
330
1F
100
AcDbEntity
  8
0
  6
Continuous
 62
     7
370
    15
100
AcDbSpline
210
0.0
220
0.0
230
1.0
 70
     8
 71
     3
 72
    11
 73
     7
 74
     0
 42
0.000000001
 43
0.00000001
 40
0.0
 40
0.0
 40
0.0
 40
0.0
 40
0.2798449828984581
 40
0.5597429384194791
 40
0.779846067357196
 40
1.0
 40
1.0
 40
1.0
 40
1.0
 10
-1.892805061707006
 20
26.05401588876611
 30
0.0
 10
-1.87064498486648
 20
26.02124825279232
 30
0.0
 10
-1.826320636443843
 20
25.95570677816924
 30
0.0
 10
-1.790935954743857
 20
25.8506187450865
 30
0.0
 10
-1.771858241593253
 20
25.75080910180846
 30
0.0
 10
-1.76964847032212
 20
25.68877717981108
 30
0.0
 10
-1.768543457187665
 20
25.65775763970855
 30
0.0
  0
SPLINE
  5
AB
330
1F
100
AcDbEntity
  8
0
  6
Continuous
 62
     7
370
    15
100
AcDbSpline
210
0.0
220
0.0
230
1.0
 70
     8
 71
     3
 72
    11
 73
     7
 74
     0
 42
0.000000001
 43
0.00000001
 40
0.0
 40
0.0
 40
0.0
 40
0.0
 40
0.2799818394435736
 40
0.5597288725058039
 40
0.7798365933577246
 40
1.0
 40
1.0
 40
1.0
 40
1.0
 10
-2.352603270078867
 20
26.27874886596492
 30
0.0
 10
-2.30291240214081
 20
26.27583225412903
 30
0.0
 10
-2.203572339442179
 20
26.27000147646973
 30
0.0
 10
-2.073060010030225
 20
26.21829579077913
 30
0.0
 10
-1.968512694895799
 20
26.14349670694545
 30
0.0
 10
-1.918043067247494
 20
26.08384534307418
 30
0.0
 10
-1.892805061707006
 20
26.05401588876611
 30
0.0
  0
SPLINE
  5
AC
330
1F
100
AcDbEntity
  8
0
  6
Continuous
 62
     7
370
    15
100
AcDbSpline
210
0.0
220
0.0
230
1.0
 70
     8
 71
     3
 72
    11
 73
     7
 74
     0
 42
0.000000001
 43
0.00000001
 40
0.0
 40
0.0
 40
0.0
 40
0.0
 40
0.2799340814763896
 40
0.5596436023691603
 40
0.779766946175698
 40
0.9999999999999999
 40
0.9999999999999999
 40
0.9999999999999999
 40
0.9999999999999999
 10
-2.798943500585103
 20
26.0659086580465
 30
0.0
 10
-2.767029899632383
 20
26.10188310596716
 30
0.0
 10
-2.703228298528444
 20
26.17380314343231
 30
0.0
 10
-2.584616407996778
 20
26.23937321667333
 30
0.0
 10
-2.465673137944767
 20
26.2740404180893
 30
0.0
 10
-2.390299485543352
 20
26.27717912268166
 30
0.0
 10
-2.352603270078867
 20
26.27874886596492
 30
0.0
  0
SPLINE
  5
AD
330
1F
100
AcDbEntity
  8
0
  6
Continuous
 62
     7
370
    15
100
AcDbSpline
210
0.0
220
0.0
230
1.0
 70
     8
 71
     3
 72
    11
 73
     7
 74
     0
 42
0.000000001
 43
0.00000001
 40
0.0
 40
0.0
 40
0.0
 40
0.0
 40
0.2799715435631817
 40
0.5598674256976516
 40
0.7799173521031985
 40
1.0
 40
1.0
 40
1.0
 40
1.0
 10
-2.930402248629095
 20
25.6846735954398
 30
0.0
 10
-2.928602907255196
 20
25.7230746332528
 30
0.0
 10
-2.925004710773735
 20
25.79986633111916
 30
0.0
 10
-2.894544686547677
 20
25.90316944390304
 30
0.0
 10
-2.852151852044267
 20
25.9926305768022
 30
0.0
 10
-2.81668049677303
 20
26.04148142036584
 30
0.0
 10
-2.798943500585108
 20
26.0659086580465
 30
0.0
  0
SPLINE
  5
AE
330
1F
100
AcDbEntity
  8
0
  6
Continuous
 62
     7
370
    15
100
AcDbSpline
210
0.0
220
0.0
230
1.0
 70
     8
 71
     3
 72
    14
 73
    10
 74
     0
 42
0.000000001
 43
0.00000001
 40
0.0
 40
0.0
 40
0.0
 40
0.0
 40
0.140084396930805
 40
0.2800553805412262
 40
0.4199746793774522
 40
0.5599493430735889
 40
0.7066284134941201
 40
0.853298977980503
 40
1.0
 40
1.0
 40
1.0
 40
1.0
 10
-2.35604579031058
 20
25.09685915925566
 30
0.0
 10
-2.398975653191693
 20
25.09881593693726
 30
0.0
 10
-2.484800622632722
 20
25.10272790807937
 30
0.0
 10
-2.60901029483884
 20
25.14131484864129
 30
0.0
 10
-2.719391519451897
 20
25.20997937212557
 30
0.0
 10
-2.807931078621707
 20
25.30754293569894
 30
0.0
 10
-2.877118774335058
 20
25.42123594389749
 30
0.0
 10
-2.922849244421012
 20
25.54971354141807
 30
0.0
 10
-2.92788440631131
 20
25.63968379722642
 30
0.0
 10
-2.930402248629095
 20
25.6846735954398
 30
0.0
  0
SPLINE
  5
AF
330
1F
100
AcDbEntity
  8
0
  6
Continuous
 62
     7
370
    15
100
AcDbSpline
210
0.0
220
0.0
230
1.0
 70
     8
 71
     3
 72
    12
 73
     8
 74
     0
 42
0.000000001
 43
0.00000001
 40
0.0
 40
0.0
 40
0.0
 40
0.0
 40
0.1868323050582312
 40
0.3734590724116049
 40
0.5601327883838205
 40
0.7799385786197355
 40
1.0
 40
1.0
 40
1.0
 40
1.0
 10
-1.828640896270254
 20
25.41205039813958
 30
0.0
 10
-1.849167424292069
 20
25.3771904709414
 30
0.0
 10
-1.890197898719227
 20
25.3075089666014
 30
0.0
 10
-1.975340689438726
 20
25.21964432114882
 30
0.0
 10
-2.083548531427934
 20
25.14959536958013
 30
0.0
 10
-2.213072400099043
 20
25.10357641896153
 30
0.0
 10
-2.308369532763391
 20
25.09909911316089
 30
0.0
 10
-2.35604579031058
 20
25.09685915925566
 30
0.0
  0
LINE
  5
B0
330
1F
100
AcDbEntity
  8
0
  6
Continuous
 62
     7
370
    15
100
AcDbLine
 10
-1.9532146039
 20
25.4774653225
 30
0.0
 11
-1.8286408963
 21
25.4120503981
 31
0.0
  0
SPLINE
  5
B1
330
1F
100
AcDbEntity
  8
0
  6
Continuous
 62
     7
370
    15
100
AcDbSpline
210
0.0
220
0.0
230
1.0
 70
     8
 71
     3
 72
    11
 73
     7
 74
     0
 42
0.000000001
 43
0.00000001
 40
0.0
 40
0.0
 40
0.0
 40
0.0
 40
0.2799057403575099
 40
0.5597021222248216
 40
0.7795385895372281
 40
1.0
 40
1.0
 40
1.0
 40
1.0
 10
-2.373575187809488
 20
25.23708025940956
 30
0.0
 10
-2.326258738070987
 20
25.24102228857901
 30
0.0
 10
-2.231644325015504
 20
25.2489048067767
 30
0.0
 10
-2.107911048547344
 20
25.30267425024356
 30
0.0
 10
-2.01667201714397
 20
25.38535780869316
 30
0.0
 10
-1.974387080860162
 20
25.4467337795814
 30
0.0
 10
-1.95321460385082
 20
25.47746532246079
 30
0.0
  0
SPLINE
  5
B2
330
1F
100
AcDbEntity
  8
0
  6
Continuous
 62
     7
370
    15
100
AcDbSpline
210
0.0
220
0.0
230
1.0
 70
     8
 71
     3
 72
    13
 73
     9
 74
     0
 42
0.000000001
 43
0.00000001
 40
0.0
 40
0.0
 40
0.0
 40
0.0
 40
0.1867249671507897
 40
0.3732520832041657
 40
0.559776325204148
 40
0.7064898706027474
 40
0.8531881807952278
 40
1.0
 40
1.0
 40
1.0
 40
1.0
 10
-2.790178801835651
 20
25.65775763970855
 30
0.0
 10
-2.786852005481449
 20
25.61665852775257
 30
0.0
 10
-2.780201937798727
 20
25.53450385187021
 30
0.0
 10
-2.728492335360826
 20
25.42007036026527
 30
0.0
 10
-2.651436234575704
 20
25.33383349943685
 30
0.0
 10
-2.563133269381123
 20
25.27470286825917
 30
0.0
 10
-2.470444440561941
 20
25.24257694401579
 30
0.0
 10
-2.405873262585787
 20
25.23891295993515
 30
0.0
 10
-2.373575187809484
 20
25.23708025940955
 30
0.0
  0
LINE
  5
B3
330
1F
100
AcDbEntity
  8
0
  6
Continuous
 62
     7
370
    15
100
AcDbLine
 10
-4.7933829673
 20
25.5297390653
 30
0.0
 11
-4.7933829673
 21
25.1168900745
 31
0.0
  0
SPLINE
  5
B4
330
1F
100
AcDbEntity
  8
0
  6
Continuous
 62
     7
370
    15
100
AcDbSpline
210
0.0
220
0.0
230
1.0
 70
     8
 71
     3
 72
    10
 73
     6
 74
     0
 42
0.000000001
 43
0.00000001
 40
0.0
 40
0.0
 40
0.0
 40
0.0
 40
0.2798736308421699
 40
0.5599229644634216
 40
1.0
 40
1.0
 40
1.0
 40
1.0
 10
-4.77178684346379
 20
25.83616795203073
 30
0.0
 10
-4.776879516177094
 20
25.80788768490701
 30
0.0
 10
-4.7870680587493
 20
25.75130939649847
 30
0.0
 10
-4.792019304134811
 20
25.64868885332212
 30
0.0
 10
-4.792865715903704
 20
25.57485793829029
 30
0.0
 10
-4.793382967316858
 20
25.52973906525672
 30
0.0
  0
SPLINE
  5
B5
330
1F
100
AcDbEntity
  8
0
  6
Continuous
 62
     7
370
    15
100
AcDbSpline
210
0.0
220
0.0
230
1.0
 70
     8
 71
     3
 72
    12
 73
     8
 74
     0
 42
0.000000001
 43
0.00000001
 40
0.0
 40
0.0
 40
0.0
 40
0.0
 40
0.1867021507563427
 40
0.3734037827371112
 40
0.5602148923178193
 40
0.7801268363584586
 40
0.9999999999999999
 40
0.9999999999999999
 40
0.9999999999999999
 40
0.9999999999999999
 10
-4.383352290692891
 20
26.13852307253191
 30
0.0
 10
-4.416268145071152
 20
26.13632929313883
 30
0.0
 10
-4.482099762366802
 20
26.13194174044834
 30
0.0
 10
-4.574706547725438
 20
26.09342808563001
 30
0.0
 10
-4.658623856039308
 20
26.03089963990985
 30
0.0
 10
-4.732599405072798
 20
25.94623967950782
 30
0.0
 10
-4.758725131925266
 20
25.87285637086812
 30
0.0
 10
-4.77178684346379
 20
25.83616795203073
 30
0.0
  0
SPLINE
  5
B6
330
1F
100
AcDbEntity
  8
0
  6
Continuous
 62
     7
370
    15
100
AcDbSpline
210
0.0
220
0.0
230
1.0
 70
     8
 71
     3
 72
    12
 73
     8
 74
     0
 42
0.000000001
 43
0.00000001
 40
0.0
 40
0.0
 40
0.0
 40
0.0
 40
0.1868244313159814
 40
0.3735406578184468
 40
0.5600872825909968
 40
0.7798964526186657
 40
0.9999999999999999
 40
0.9999999999999999
 40
0.9999999999999999
 40
0.9999999999999999
 10
-4.088818519838815
 20
25.91379009533312
 30
0.0
 10
-4.09565272654947
 20
25.93815246152924
 30
0.0
 10
-4.109317181740804
 20
25.98686308374719
 30
0.0
 10
-4.150904598021381
 20
26.05158074931122
 30
0.0
 10
-4.213212217053237
 20
26.10362018270924
 30
0.0
 10
-4.29407997500984
 20
26.13420163321338
 30
0.0
 10
-4.353581579858919
 20
26.13708195028304
 30
0.0
 10
-4.383352290692891
 20
26.13852307253191
 30
0.0
  0
SPLINE
  5
B7
330
1F
100
AcDbEntity
  8
0
  6
Continuous
 62
     7
370
    15
100
AcDbSpline
210
0.0
220
0.0
230
1.0
 70
     8
 71
     3
 72
     9
 73
     5
 74
     0
 42
0.000000001
 43
0.00000001
 40
0.0
 40
0.0
 40
0.0
 40
0.0
 40
0.5602557083380802
 40
0.9999999999999999
 40
0.9999999999999999
 40
0.9999999999999999
 40
0.9999999999999999
 10
-4.0722301248027
 20
25.6539983231365
 30
0.0
 10
-4.071927732934072
 20
25.7027520940462
 30
0.0
 10
-4.071387993911104
 20
25.7897726637327
 30
0.0
 10
-4.083494675652201
 20
25.87591117618845
 30
0.0
 10
-4.088818519838812
 20
25.91379009533311
 30
0.0
  0
LINE
  5
B8
330
1F
100
AcDbEntity
  8
0
  6
Continuous
 62
     7
370
    15
100
AcDbLine
 10
-4.0722301248
 20
25.1168900745
 30
0.0
 11
-4.0722301248
 21
25.6539983231
 31
0.0
  0
LINE
  5
B9
330
1F
100
AcDbEntity
  8
0
  6
Continuous
 62
     7
370
    15
100
AcDbLine
 10
-3.9320043314
 20
25.1168900745
 30
0.0
 11
-4.0722301248
 21
25.1168900745
 31
0.0
  0
LINE
  5
BA
330
1F
100
AcDbEntity
  8
0
  6
Continuous
 62
     7
370
    15
100
AcDbLine
 10
-3.9320043314
 20
25.7000112316
 30
0.0
 11
-3.9320043314
 21
25.1168900745
 31
0.0
  0
SPLINE
  5
BB
330
1F
100
AcDbEntity
  8
0
  6
Continuous
 62
     7
370
    15
100
AcDbSpline
210
0.0
220
0.0
230
1.0
 70
     8
 71
     3
 72
    14
 73
    10
 74
     0
 42
0.000000001
 43
0.00000001
 40
0.0
 40
0.0
 40
0.0
 40
0.0
 40
0.1400143729937567
 40
0.2799258856353233
 40
0.4198458582040784
 40
0.5597137673416487
 40
0.7062442245376004
 40
0.8530949600753999
 40
1.0
 40
1.0
 40
1.0
 40
1.0
 10
-4.358937852730561
 20
26.27874886596492
 30
0.0
 10
-4.320551644528252
 20
26.27642313423506
 30
0.0
 10
-4.243807428220609
 20
26.27177337935413
 30
0.0
 10
-4.136663215449072
 20
26.22525796749574
 30
0.0
 10
-4.046091980571772
 20
26.15311064570169
 30
0.0
 10
-3.979703316795652
 20
26.05496913098607
 30
0.0
 10
-3.947039393046137
 20
25.93996389038572
 30
0.0
 10
-3.934183296829972
 20
25.82029589622499
 30
0.0
 10
-3.932730742697319
 20
25.74011106085533
 30
0.0
 10
-3.932004331369698
 20
25.70001123159145
 30
0.0
  0
SPLINE
  5
BC
330
1F
100
AcDbEntity
  8
0
  6
Continuous
 62
     7
370
    15
100
AcDbSpline
210
0.0
220
0.0
230
1.0
 70
     8
 71
     3
 72
    11
 73
     7
 74
     0
 42
0.000000001
 43
0.00000001
 40
0.0
 40
0.0
 40
0.0
 40
0.0
 40
0.2801033284141644
 40
0.5597783751083584
 40
0.7798656844069495
 40
1.0
 40
1.0
 40
1.0
 40
1.0
 10
-4.793382967316858
 20
26.05276278324209
 30
0.0
 10
-4.7628846459788
 20
26.08943330205092
 30
0.0
 10
-4.701934635642231
 20
26.16271826995688
 30
0.0
 10
-4.588083670997089
 20
26.23410027128791
 30
0.0
 10
-4.471087851688154
 20
26.27273228755471
 30
0.0
 10
-4.396323846784269
 20
26.27674319706827
 30
0.0
 10
-4.358937852730561
 20
26.27874886596492
 30
0.0
  0
LINE
  5
BD
330
1F
100
AcDbEntity
  8
0
  6
Continuous
 62
     7
370
    15
100
AcDbLine
 10
-4.7933829673
 20
26.2587179507
 30
0.0
 11
-4.7933829673
 21
26.0527627832
 31
0.0
  0
LINE
  5
BE
330
1F
100
AcDbEntity
  8
0
  6
Continuous
 62
     7
370
    15
100
AcDbLine
 10
-4.9336087607
 20
26.2587179507
 30
0.0
 11
-4.7933829673
 21
26.2587179507
 31
0.0
  0
LINE
  5
BF
330
1F
100
AcDbEntity
  8
0
  6
Continuous
 62
     7
370
    15
100
AcDbLine
 10
-4.9336087607
 20
25.1168900745
 30
0.0
 11
-4.9336087607
 21
26.2587179507
 31
0.0
  0
LINE
  5
C0
330
1F
100
AcDbEntity
  8
0
  6
Continuous
 62
     7
370
    15
100
AcDbLine
 10
-4.7933829673
 20
25.1168900745
 30
0.0
 11
-4.9336087607
 21
25.1168900745
 31
0.0
  0
LINE
  5
C1
330
1F
100
AcDbEntity
  8
0
  6
Continuous
 62
     7
370
    15
100
AcDbLine
 10
-6.8967487491
 20
25.1168900745
 30
0.0
 11
-6.8967487491
 21
26.519133929
 31
0.0
  0
LINE
  5
C2
330
1F
100
AcDbEntity
  8
0
  6
Continuous
 62
     7
370
    15
100
AcDbLine
 10
-6.7565253023
 20
25.1168900745
 30
0.0
 11
-6.8967487491
 21
25.1168900745
 31
0.0
  0
LINE
  5
C3
330
1F
100
AcDbEntity
  8
0
  6
Continuous
 62
     7
370
    15
100
AcDbLine
 10
-6.7565253023
 20
26.6793906377
 30
0.0
 11
-6.7565253023
 21
25.1168900745
 31
0.0
  0
LINE
  5
C4
330
1F
100
AcDbEntity
  8
0
  6
Continuous
 62
     7
370
    15
100
AcDbLine
 10
-7.0454247915
 20
26.6793906377
 30
0.0
 11
-6.7565253023
 21
26.6793906377
 31
0.0
  0
LINE
  5
C5
330
1F
100
AcDbEntity
  8
0
  6
Continuous
 62
     7
370
    15
100
AcDbLine
 10
-7.1371338121
 20
26.519133929
 30
0.0
 11
-7.0454247915
 21
26.6793906377
 31
0.0
  0
LINE
  5
C6
330
1F
100
AcDbEntity
  8
0
  6
Continuous
 62
     7
370
    15
100
AcDbLine
 10
-6.8967487491
 20
26.519133929
 30
0.0
 11
-7.1371338121
 21
26.519133929
 31
0.0
  0
LINE
  5
C7
330
1F
100
AcDbEntity
  8
0
  6
Continuous
 62
     7
370
    15
100
AcDbLine
 10
-9.1403379776
 20
25.8380452637
 30
0.0
 11
-9.1403379776
 21
25.1168900745
 31
0.0
  0
LINE
  5
C8
330
1F
100
AcDbEntity
  8
0
  6
Continuous
 62
     7
370
    15
100
AcDbLine
 10
-9.0264062804
 20
25.8380452637
 30
0.0
 11
-9.1403379776
 21
25.8380452637
 31
0.0
  0
LINE
  5
C9
330
1F
100
AcDbEntity
  8
0
  6
Continuous
 62
     7
370
    15
100
AcDbLine
 10
-8.4523619251
 20
25.1168900745
 30
0.0
 11
-9.0264062804
 21
25.8380452637
 31
0.0
  0
LINE
  5
CA
330
1F
100
AcDbEntity
  8
0
  6
Continuous
 62
     7
370
    15
100
AcDbLine
 10
-8.2789616883
 20
25.1168900745
 30
0.0
 11
-8.4523619251
 21
25.1168900745
 31
0.0
  0
LINE
  5
CB
330
1F
100
AcDbEntity
  8
0
  6
Continuous
 62
     7
370
    15
100
AcDbLine
 10
-8.8530036969
 20
25.8380452637
 30
0.0
 11
-8.2789616883
 21
25.1168900745
 31
0.0
  0
SPLINE
  5
CC
330
1F
100
AcDbEntity
  8
0
  6
Continuous
 62
     7
370
    15
100
AcDbSpline
210
0.0
220
0.0
230
1.0
 70
     8
 71
     3
 72
    14
 73
    10
 74
     0
 42
0.000000001
 43
0.00000001
 40
0.0
 40
0.0
 40
0.0
 40
0.0
 40
0.1399934929320486
 40
0.2799164873692022
 40
0.4197683028168345
 40
0.5597056884527515
 40
0.7063026568310142
 40
0.8531242510343706
 40
1.0
 40
1.0
 40
1.0
 40
1.0
 10
-8.298992603548529
 20
26.2615339181668
 30
0.0
 10
-8.301157471397442
 20
26.22449412985527
 30
0.0
 10
-8.305486116902275
 20
26.15043320588009
 30
0.0
 10
-8.34833756684956
 20
26.04618718804899
 30
0.0
 10
-8.417825719573367
 20
25.95822034510018
 30
0.0
 10
-8.512455972539934
 20
25.89445851561703
 30
0.0
 10
-8.621612536964589
 20
25.8577119991296
 30
0.0
 10
-8.73685373047886
 20
25.84084710309534
 30
0.0
 10
-8.814282282416334
 20
25.83897932494961
 30
0.0
 10
-8.853003696898435
 20
25.83804526367721
 30
0.0
  0
SPLINE
  5
CD
330
1F
100
AcDbEntity
  8
0
  6
Continuous
 62
     7
370
    15
100
AcDbSpline
210
0.0
220
0.0
230
1.0
 70
     8
 71
     3
 72
    12
 73
     8
 74
     0
 42
0.000000001
 43
0.00000001
 40
0.0
 40
0.0
 40
0.0
 40
0.0
 40
0.1868175576693738
 40
0.3735278464037712
 40
0.5602871977265029
 40
0.780019281644162
 40
1.0
 40
1.0
 40
1.0
 40
1.0
 10
-8.613871739371215
 20
26.65810661692514
 30
0.0
 10
-8.58093873291026
 20
26.64846402146313
 30
0.0
 10
-8.515091629819793
 20
26.62918436722931
 30
0.0
 10
-8.429314705543163
 20
26.57028301944463
 30
0.0
 10
-8.356292610450941
 20
26.48911699695037
 30
0.0
 10
-8.306766786865225
 20
26.38261442933073
 30
0.0
 10
-8.301584974668092
 20
26.30190930005524
 30
0.0
 10
-8.298992603548532
 20
26.2615339181668
 30
0.0
  0
SPLINE
  5
CE
330
1F
100
AcDbEntity
  8
0
  6
Continuous
 62
     7
370
    15
100
AcDbSpline
210
0.0
220
0.0
230
1.0
 70
     8
 71
     3
 72
     9
 73
     5
 74
     0
 42
0.000000001
 43
0.00000001
 40
0.0
 40
0.0
 40
0.0
 40
0.0
 40
0.5602421585638596
 40
1.0
 40
1.0
 40
1.0
 40
1.0
 10
-8.967876396545874
 20
26.67939063771698
 30
0.0
 10
-8.901492791058091
 20
26.67960484271815
 30
0.0
 10
-8.783001876954177
 20
26.6799871863135
 30
0.0
 10
-8.665530637892022
 20
26.66478979078028
 30
0.0
 10
-8.613871739371215
 20
26.65810661692514
 30
0.0
  0
LINE
  5
CF
330
1F
100
AcDbEntity
  8
0
  6
Continuous
 62
     7
370
    15
100
AcDbLine
 10
-9.280563771
 20
26.6793906377
 30
0.0
 11
-8.9678763965
 21
26.6793906377
 31
0.0
  0
LINE
  5
D0
330
1F
100
AcDbEntity
  8
0
  6
Continuous
 62
     7
370
    15
100
AcDbLine
 10
-9.280563771
 20
25.1168900745
 30
0.0
 11
-9.280563771
 21
26.6793906377
 31
0.0
  0
LINE
  5
D1
330
1F
100
AcDbEntity
  8
0
  6
Continuous
 62
     7
370
    15
100
AcDbLine
 10
-9.1403379776
 20
25.1168900745
 30
0.0
 11
-9.280563771
 21
25.1168900745
 31
0.0
  0
CIRCLE
  5
D2
330
1F
100
AcDbEntity
  8
0
  6
Continuous
 62
     7
370
    15
100
AcDbCircle
 10
8.6209137706
 20
4.6360935738
 30
0.0
 40
0.0939999999999994
  0
LINE
  5
D3
330
1F
100
AcDbEntity
  8
0
  6
Continuous
 62
     7
370
    15
100
AcDbLine
 10
-17.6892374066
 20
43.9960934204
 30
0.0
 11
-6.6258597184
 21
-34.7239064262
 31
0.0
  0
LINE
  5
D4
330
1F
100
AcDbEntity
  8
0
  6
Continuous
 62
     7
370
    15
100
AcDbLine
 10
17.0892268562
 20
43.9960934204
 30
0.0
 11
-17.6892374066
 21
43.9960934204
 31
0.0
  0
LINE
  5
D5
330
1F
100
AcDbEntity
  8
0
  6
Continuous
 62
     7
370
    15
100
AcDbLine
 10
28.1526010245
 20
-34.7239064262
 30
0.0
 11
17.0892268562
 21
43.9960934204
 31
0.0
  0
LINE
  5
D6
330
1F
100
AcDbEntity
  8
0
  6
Continuous
 62
     7
370
    15
100
AcDbLine
 10
-6.6258597184
 20
-34.7239064262
 30
0.0
 11
28.1526010245
 21
-34.7239064262
 31
0.0
  0
CIRCLE
  5
D7
330
1F
100
AcDbEntity
  8
0
  6
Continuous
 62
     7
370
    15
100
AcDbCircle
 10
20.6209137706
 20
4.6360935738
 30
0.0
 40
0.0939999999999976
  0
CIRCLE
  5
D8
330
1F
100
AcDbEntity
  8
0
  6
Continuous
 62
     7
370
    15
100
AcDbCircle
 10
-3.3790862294
 20
4.6360935738
 30
0.0
 40
0.0940000000000016
  0
LINE
  5
D9
330
1F
100
AcDbEntity
  8
0
  6
Continuous
 62
     7
370
    15
100
AcDbLine
 10
-7.4977114067
 20
25.7979787399
 30
0.0
 11
-7.4977114067
 21
25.6377220312
 31
0.0
  0
LINE
  5
DA
330
1F
100
AcDbEntity
  8
0
  6
Continuous
 62
     7
370
    15
100
AcDbLine
 10
-8.0986717177
 20
25.7979787399
 30
0.0
 11
-7.4977114067
 21
25.7979787399
 31
0.0
  0
LINE
  5
DB
330
1F
100
AcDbEntity
  8
0
  6
Continuous
 62
     7
370
    15
100
AcDbLine
 10
-8.0986717177
 20
25.6377220312
 30
0.0
 11
-8.0986717177
 21
25.7979787399
 31
0.0
  0
LINE
  5
DC
330
1F
100
AcDbEntity
  8
0
  6
Continuous
 62
     7
370
    15
100
AcDbLine
 10
-7.4977114067
 20
25.6377220312
 30
0.0
 11
-8.0986717177
 21
25.6377220312
 31
0.0
  0
LINE
  5
DD
330
1F
100
AcDbEntity
  8
0
  6
Continuous
 62
     7
370
    15
100
AcDbLine
 10
-5.2941840087
 20
26.6793906377
 30
0.0
 11
-5.2941840087
 21
25.1168900745
 31
0.0
  0
LINE
  5
DE
330
1F
100
AcDbEntity
  8
0
  6
Continuous
 62
     7
370
    15
100
AcDbLine
 10
-5.4344098021
 20
26.6793906377
 30
0.0
 11
-5.2941840087
 21
26.6793906377
 31
0.0
  0
LINE
  5
DF
330
1F
100
AcDbEntity
  8
0
  6
Continuous
 62
     7
370
    15
100
AcDbLine
 10
-5.4344098021
 20
25.1168900745
 30
0.0
 11
-5.4344098021
 21
26.6793906377
 31
0.0
  0
LINE
  5
E0
330
1F
100
AcDbEntity
  8
0
  6
Continuous
 62
     7
370
    15
100
AcDbLine
 10
-5.2941840087
 20
25.1168900745
 30
0.0
 11
-5.4344098021
 21
25.1168900745
 31
0.0
  0
LINE
  5
E1
330
1F
100
AcDbEntity
  8
0
  6
Continuous
 62
     7
370
    15
100
AcDbLine
 10
-3.6715883531
 20
26.1184921573
 30
0.0
 11
-3.6715883531
 21
26.2587179507
 31
0.0
  0
LINE
  5
E2
330
1F
100
AcDbEntity
  8
0
  6
Continuous
 62
     7
370
    15
100
AcDbLine
 10
-3.4712674672
 20
26.1184921573
 30
0.0
 11
-3.6715883531
 21
26.1184921573
 31
0.0
  0
LINE
  5
E3
330
1F
100
AcDbEntity
  8
0
  6
Continuous
 62
     7
370
    15
100
AcDbLine
 10
-3.4712674672
 20
25.1168900745
 30
0.0
 11
-3.4712674672
 21
26.1184921573
 31
0.0
  0
LINE
  5
E4
330
1F
100
AcDbEntity
  8
0
  6
Continuous
 62
     7
370
    15
100
AcDbLine
 10
-3.3310440204
 20
25.1168900745
 30
0.0
 11
-3.4712674672
 21
25.1168900745
 31
0.0
  0
LINE
  5
E5
330
1F
100
AcDbEntity
  8
0
  6
Continuous
 62
     7
370
    15
100
AcDbLine
 10
-3.3310440204
 20
26.1184921573
 30
0.0
 11
-3.3310440204
 21
25.1168900745
 31
0.0
  0
LINE
  5
E6
330
1F
100
AcDbEntity
  8
0
  6
Continuous
 62
     7
370
    15
100
AcDbLine
 10
-3.1307231345
 20
26.1184921573
 30
0.0
 11
-3.3310440204
 21
26.1184921573
 31
0.0
  0
LINE
  5
E7
330
1F
100
AcDbEntity
  8
0
  6
Continuous
 62
     7
370
    15
100
AcDbLine
 10
-3.1307231345
 20
26.2587179507
 30
0.0
 11
-3.1307231345
 21
26.1184921573
 31
0.0
  0
LINE
  5
E8
330
1F
100
AcDbEntity
  8
0
  6
Continuous
 62
     7
370
    15
100
AcDbLine
 10
-3.3310440204
 20
26.2587179507
 30
0.0
 11
-3.1307231345
 21
26.2587179507
 31
0.0
  0
LINE
  5
E9
330
1F
100
AcDbEntity
  8
0
  6
Continuous
 62
     7
370
    15
100
AcDbLine
 10
-3.3310440204
 20
26.7194524683
 30
0.0
 11
-3.3310440204
 21
26.2587179507
 31
0.0
  0
LINE
  5
EA
330
1F
100
AcDbEntity
  8
0
  6
Continuous
 62
     7
370
    15
100
AcDbLine
 10
-3.4712674672
 20
26.7194524683
 30
0.0
 11
-3.3310440204
 21
26.7194524683
 31
0.0
  0
LINE
  5
EB
330
1F
100
AcDbEntity
  8
0
  6
Continuous
 62
     7
370
    15
100
AcDbLine
 10
-3.4712674672
 20
26.2587179507
 30
0.0
 11
-3.4712674672
 21
26.7194524683
 31
0.0
  0
LINE
  5
EC
330
1F
100
AcDbEntity
  8
0
  6
Continuous
 62
     7
370
    15
100
AcDbLine
 10
-3.6715883531
 20
26.2587179507
 30
0.0
 11
-3.4712674672
 21
26.2587179507
 31
0.0
  0
LINE
  5
ED
330
1F
100
AcDbEntity
  8
0
  6
Continuous
 62
     7
370
    15
100
AcDbLine
 10
-1.3879349473
 20
25.5006266549
 30
0.0
 11
-1.3879349473
 21
25.1168900745
 31
0.0
  0
SPLINE
  5
EE
330
1F
100
AcDbEntity
  8
0
  6
Continuous
 62
     7
370
    15
100
AcDbSpline
210
0.0
220
0.0
230
1.0
 70
     8
 71
     3
 72
    10
 73
     6
 74
     0
 42
0.000000001
 43
0.00000001
 40
0.0
 40
0.0
 40
0.0
 40
0.0
 40
0.2798063137643573
 40
0.5598846761999516
 40
1.0
 40
1.0
 40
1.0
 40
1.0
 10
-1.362893956618645
 20
25.89250607454127
 30
0.0
 10
-1.369031700530689
 20
25.85630554170834
 30
0.0
 10
-1.381313155929457
 20
25.78386927917105
 30
0.0
 10
-1.386557353526128
 20
25.65267347358369
 30
0.0
 10
-1.387412413997532
 20
25.55829933886462
 30
0.0
 10
-1.387934947342983
 20
25.5006266548991
 30
0.0
  0
SPLINE
  5
EF
330
1F
100
AcDbEntity
  8
0
  6
Continuous
 62
     7
370
    15
100
AcDbSpline
210
0.0
220
0.0
230
1.0
 70
     8
 71
     3
 72
    11
 73
     7
 74
     0
 42
0.000000001
 43
0.00000001
 40
0.0
 40
0.0
 40
0.0
 40
0.0
 40
0.2779184760406381
 40
0.5579312570633257
 40
0.7788656075000899
 40
1.0
 40
1.0
 40
1.0
 40
1.0
 10
-1.135969218072588
 20
26.13852307253191
 30
0.0
 10
-1.169037379119418
 20
26.13136422276577
 30
0.0
 10
-1.235422892326275
 20
26.11699257642523
 30
0.0
 10
-1.301056007356259
 20
26.04491282785173
 30
0.0
 10
-1.340362486165557
 20
25.96842124394905
 30
0.0
 10
-1.355381201077324
 20
25.91781876377858
 30
0.0
 10
-1.362893956618645
 20
25.89250607454127
 30
0.0
  0
SPLINE
  5
F0
330
1F
100
AcDbEntity
  8
0
  6
Continuous
 62
     7
370
    15
100
AcDbSpline
210
0.0
220
0.0
230
1.0
 70
     8
 71
     3
 72
     9
 73
     5
 74
     0
 42
0.000000001
 43
0.00000001
 40
0.0
 40
0.0
 40
0.0
 40
0.0
 40
0.5603984849705117
 40
1.0
 40
1.0
 40
1.0
 40
1.0
 10
-1.064291112770844
 20
26.11817770756331
 30
0.0
 10
-1.077102433822782
 20
26.12412397835906
 30
0.0
 10
-1.099963525341631
 20
26.13473476863639
 30
0.0
 10
-1.124974399778111
 20
26.1373662634327
 30
0.0
 10
-1.135969218072588
 20
26.13852307253191
 30
0.0
  0
LINE
  5
F1
330
1F
100
AcDbEntity
  8
0
  6
Continuous
 62
     7
370
    15
100
AcDbLine
 10
-0.9872931756
 20
26.2396256913
 30
0.0
 11
-1.0642911128
 21
26.1181777076
 31
0.0
  0
SPLINE
  5
F2
330
1F
100
AcDbEntity
  8
0
  6
Continuous
 62
     7
370
    15
100
AcDbSpline
210
0.0
220
0.0
230
1.0
 70
     8
 71
     3
 72
     9
 73
     5
 74
     0
 42
0.000000001
 43
0.00000001
 40
0.0
 40
0.0
 40
0.0
 40
0.0
 40
0.559237741400245
 40
0.9999999999999999
 40
0.9999999999999999
 40
0.9999999999999999
 40
0.9999999999999999
 10
-1.109363018763007
 20
26.27874886596492
 30
0.0
 10
-1.085119535601671
 20
26.27585573543345
 30
0.0
 10
-1.041768593119436
 20
26.27068238907766
 30
0.0
 10
-1.003958456711878
 20
26.24912664826075
 30
0.0
 10
-0.9872931755909182
 20
26.2396256912525
 30
0.0
  0
SPLINE
  5
F3
330
1F
100
AcDbEntity
  8
0
  6
Continuous
 62
     7
370
    15
100
AcDbSpline
210
0.0
220
0.0
230
1.0
 70
     8
 71
     3
 72
    11
 73
     7
 74
     0
 42
0.000000001
 43
0.00000001
 40
0.0
 40
0.0
 40
0.0
 40
0.0
 40
0.2803264612534861
 40
0.560205421742882
 40
0.7801890821934986
 40
1.0
 40
1.0
 40
1.0
 40
1.0
 10
-1.387934947342983
 20
26.09063754570961
 30
0.0
 10
-1.369452515588366
 20
26.11782419580998
 30
0.0
 10
-1.332517156615733
 20
26.17215409644497
 30
0.0
 10
-1.263528390907258
 20
26.23343474752799
 30
0.0
 10
-1.186804797609851
 20
26.2718723601301
 30
0.0
 10
-1.135170184692458
 20
26.27645729764434
 30
0.0
 10
-1.109363018763007
 20
26.27874886596492
 30
0.0
  0
LINE
  5
F4
330
1F
100
AcDbEntity
  8
0
  6
Continuous
 62
     7
370
    15
100
AcDbLine
 10
-1.3879349473
 20
26.2587179507
 30
0.0
 11
-1.3879349473
 21
26.0906375457
 31
0.0
  0
LINE
  5
F5
330
1F
100
AcDbEntity
  8
0
  6
Continuous
 62
     7
370
    15
100
AcDbLine
 10
-1.5281583941
 20
26.2587179507
 30
0.0
 11
-1.3879349473
 21
26.2587179507
 31
0.0
  0
LINE
  5
F6
330
1F
100
AcDbEntity
  8
0
  6
Continuous
 62
     7
370
    15
100
AcDbLine
 10
-1.5281583941
 20
25.1168900745
 30
0.0
 11
-1.5281583941
 21
26.2587179507
 31
0.0
  0
LINE
  5
F7
330
1F
100
AcDbEntity
  8
0
  6
Continuous
 62
     7
370
    15
100
AcDbLine
 10
-1.3879349473
 20
25.1168900745
 30
0.0
 11
-1.5281583941
 21
25.1168900745
 31
0.0
  0
SPLINE
  5
F8
330
1F
100
AcDbEntity
  8
0
  6
Continuous
 62
     7
370
    15
100
AcDbSpline
210
0.0
220
0.0
230
1.0
 70
     8
 71
     3
 72
    11
 73
     7
 74
     0
 42
0.000000001
 43
0.00000001
 40
0.0
 40
0.0
 40
0.0
 40
0.0
 40
0.2799807778133701
 40
0.5597492253681594
 40
0.77980992463743
 40
1.0
 40
1.0
 40
1.0
 40
1.0
 10
0.3936666581099076
 20
26.27874886596492
 30
0.0
 10
0.4439570766014375
 20
26.27577377456577
 30
0.0
 10
0.5444997746177879
 20
26.2698258480007
 30
0.0
 10
0.6766714343284088
 20
26.21744438277477
 30
0.0
 10
0.7816334121545164
 20
26.14022171802089
 30
0.0
 10
0.8309758247745564
 20
26.07837370089665
 30
0.0
 10
0.855654281189463
 20
26.04744060472435
 30
0.0
  0
SPLINE
  5
F9
330
1F
100
AcDbEntity
  8
0
  6
Continuous
 62
     7
370
    15
100
AcDbSpline
210
0.0
220
0.0
230
1.0
 70
     8
 71
     3
 72
    14
 73
    10
 74
     0
 42
0.000000001
 43
0.00000001
 40
0.0
 40
0.0
 40
0.0
 40
0.0
 40
0.1400227491540884
 40
0.279972500874278
 40
0.4199671422294052
 40
0.560026296534386
 40
0.7066645745779564
 40
0.8532937803271914
 40
1.0
 40
1.0
 40
1.0
 40
1.0
 10
-0.2060428939941713
 20
25.69093442978078
 30
0.0
 10
-0.2036078994625025
 20
25.734555739519
 30
0.0
 10
-0.1987391798239666
 20
25.82177561809301
 30
0.0
 10
-0.1536639830286011
 20
25.94618350059931
 30
0.0
 10
-0.0822806109237864
 20
26.05647966942697
 30
0.0
 10
0.0125093134983353
 20
26.15055141770202
 30
0.0
 10
0.1260081499900045
 20
26.22463086694849
 30
0.0
 10
0.2566012405082426
 20
26.27127929723243
 30
0.0
 10
0.3479701894043563
 20
26.27625857395837
 30
0.0
 10
0.3936666581099076
 20
26.27874886596492
 30
0.0
  0
SPLINE
  5
FA
330
1F
100
AcDbEntity
  8
0
  6
Continuous
 62
     7
370
    15
100
AcDbSpline
210
0.0
220
0.0
230
1.0
 70
     8
 71
     3
 72
    14
 73
    10
 74
     0
 42
0.000000001
 43
0.00000001
 40
0.0
 40
0.0
 40
0.0
 40
0.0
 40
0.1400483164333133
 40
0.2800110406001814
 40
0.4200249722904387
 40
0.5600987212841627
 40
0.7067213714312126
 40
0.8533023979161727
 40
0.9999999999999999
 40
0.9999999999999999
 40
0.9999999999999999
 40
0.9999999999999999
 10
0.3892831354154025
 20
25.09685915925566
 30
0.0
 10
0.3455842983690048
 20
25.09931951394795
 30
0.0
 10
0.2582133313627209
 20
25.10423871965625
 30
0.0
 10
0.1327495959522318
 20
25.14694595826631
 30
0.0
 10
0.0211127373905697
 20
25.21687585279174
 30
0.0
 10
-0.0751574344083158
 20
25.30989166617307
 30
0.0
 10
-0.1507032745631557
 20
25.42291565383563
 30
0.0
 10
-0.1982382378533409
 20
25.55356597693802
 30
0.0
 10
-0.2034406526429725
 20
25.64513281317047
 30
0.0
 10
-0.2060428939941756
 20
25.69093442978079
 30
0.0
  0
SPLINE
  5
FB
330
1F
100
AcDbEntity
  8
0
  6
Continuous
 62
     7
370
    15
100
AcDbSpline
210
0.0
220
0.0
230
1.0
 70
     8
 71
     3
 72
    11
 73
     7
 74
     0
 42
0.000000001
 43
0.00000001
 40
0.0
 40
0.0
 40
0.0
 40
0.0
 40
0.2799909404090156
 40
0.559724429638708
 40
0.7798677073031531
 40
0.9999999999999999
 40
0.9999999999999999
 40
0.9999999999999999
 40
0.9999999999999999
 10
0.855654281189463
 20
25.31439264629026
 30
0.0
 10
0.8216787387733315
 20
25.27782891009353
 30
0.0
 10
0.7537588943928252
 20
25.20473505799144
 30
0.0
 10
0.630264090010401
 20
25.13754420607456
 30
0.0
 10
0.5066017445241123
 20
25.1022379893182
 30
0.0
 10
0.4283886879742682
 20
25.09865207278672
 30
0.0
 10
0.3892831354154025
 20
25.09685915925566
 30
0.0
  0
LINE
  5
FC
330
1F
100
AcDbEntity
  8
0
  6
Continuous
 62
     7
370
    15
100
AcDbLine
 10
0.8556542812
 20
25.1168900745
 30
0.0
 11
0.8556542812
 21
25.3143926463
 31
0.0
  0
LINE
  5
FD
330
1F
100
AcDbEntity
  8
0
  6
Continuous
 62
     7
370
    15
100
AcDbLine
 10
0.9958800746
 20
25.1168900745
 30
0.0
 11
0.8556542812
 21
25.1168900745
 31
0.0
  0
LINE
  5
FE
330
1F
100
AcDbEntity
  8
0
  6
Continuous
 62
     7
370
    15
100
AcDbLine
 10
0.9958800746
 20
26.2587179507
 30
0.0
 11
0.9958800746
 21
25.1168900745
 31
0.0
  0
LINE
  5
FF
330
1F
100
AcDbEntity
  8
0
  6
Continuous
 62
     7
370
    15
100
AcDbLine
 10
0.8556542812
 20
26.2587179507
 30
0.0
 11
0.9958800746
 21
26.2587179507
 31
0.0
  0
LINE
  5
100
330
1F
100
AcDbEntity
  8
0
  6
Continuous
 62
     7
370
    15
100
AcDbLine
 10
0.8556542812
 20
26.0474406047
 30
0.0
 11
0.8556542812
 21
26.2587179507
 31
0.0
  0
LINE
  5
101
330
1F
100
AcDbEntity
  8
0
  6
Continuous
 62
     7
370
    15
100
AcDbLine
 10
3.8404296141
 20
25.6577576397
 30
0.0
 11
2.8187966161
 21
25.6577576397
 31
0.0
  0
SPLINE
  5
102
330
1F
100
AcDbEntity
  8
0
  6
Continuous
 62
     7
370
    15
100
AcDbSpline
210
0.0
220
0.0
230
1.0
 70
     8
 71
     3
 72
    11
 73
     7
 74
     0
 42
0.000000001
 43
0.00000001
 40
0.0
 40
0.0
 40
0.0
 40
0.0
 40
0.2798424627392657
 40
0.5597426754502746
 40
0.7798461054866563
 40
0.9999999999999999
 40
0.9999999999999999
 40
0.9999999999999999
 40
0.9999999999999999
 10
3.716170356263667
 20
26.05401588876611
 30
0.0
 10
3.738329245231278
 20
26.0212480578731
 30
0.0
 10
3.782651596007942
 20
25.95570563392062
 30
0.0
 10
3.81803984622342
 20
25.85061924801473
 30
0.0
 10
3.837117644413165
 20
25.75080912942178
 30
0.0
 10
3.839325539873379
 20
25.68877717308307
 30
0.0
 10
3.840429614143449
 20
25.65775763970855
 30
0.0
  0
SPLINE
  5
103
330
1F
100
AcDbEntity
  8
0
  6
Continuous
 62
     7
370
    15
100
AcDbSpline
210
0.0
220
0.0
230
1.0
 70
     8
 71
     3
 72
    11
 73
     7
 74
     0
 42
0.000000001
 43
0.00000001
 40
0.0
 40
0.0
 40
0.0
 40
0.0
 40
0.2799820048192615
 40
0.5597292031184876
 40
0.7798334704242567
 40
1.0
 40
1.0
 40
1.0
 40
1.0
 10
3.256372147891806
 20
26.27874886596492
 30
0.0
 10
3.306062967131096
 20
26.27583219170964
 30
0.0
 10
3.405402932473034
 20
26.27000128926392
 30
0.0
 10
3.535915340008291
 20
26.21829671002026
 30
0.0
 10
3.640460625479548
 20
26.14349524336048
 30
0.0
 10
3.690931400174877
 20
26.08384515216556
 30
0.0
 10
3.716170356263662
 20
26.05401588876612
 30
0.0
  0
SPLINE
  5
104
330
1F
100
AcDbEntity
  8
0
  6
Continuous
 62
     7
370
    15
100
AcDbSpline
210
0.0
220
0.0
230
1.0
 70
     8
 71
     3
 72
    11
 73
     7
 74
     0
 42
0.000000001
 43
0.00000001
 40
0.0
 40
0.0
 40
0.0
 40
0.0
 40
0.2799340814763896
 40
0.5596436023691603
 40
0.779766946175698
 40
0.9999999999999999
 40
0.9999999999999999
 40
0.9999999999999999
 40
0.9999999999999999
 10
2.810031917385569
 20
26.0659086580465
 30
0.0
 10
2.84194551833829
 20
26.10188310596716
 30
0.0
 10
2.905747119442224
 20
26.17380314343231
 30
0.0
 10
3.02435900997389
 20
26.23937321667333
 30
0.0
 10
3.143302280025901
 20
26.2740404180893
 30
0.0
 10
3.21867593242732
 20
26.27717912268166
 30
0.0
 10
3.256372147891806
 20
26.27874886596492
 30
0.0
  0
SPLINE
  5
105
330
1F
100
AcDbEntity
  8
0
  6
Continuous
 62
     7
370
    15
100
AcDbSpline
210
0.0
220
0.0
230
1.0
 70
     8
 71
     3
 72
    11
 73
     7
 74
     0
 42
0.000000001
 43
0.00000001
 40
0.0
 40
0.0
 40
0.0
 40
0.0
 40
0.2799706440012245
 40
0.5598656268168408
 40
0.7799148461914517
 40
1.0
 40
1.0
 40
1.0
 40
1.0
 10
2.678570822702016
 20
25.68467359543981
 30
0.0
 10
2.680370151061832
 20
25.72307464214336
 30
0.0
 10
2.683968321518629
 20
25.7998663577884
 30
0.0
 10
2.714428526982136
 20
25.90316934676036
 30
0.0
 10
2.756821000681513
 20
25.99263125458734
 30
0.0
 10
2.792293979762813
 20
26.04148152744574
 30
0.0
 10
2.810031917385569
 20
26.0659086580465
 30
0.0
  0
SPLINE
  5
106
330
1F
100
AcDbEntity
  8
0
  6
Continuous
 62
     7
370
    15
100
AcDbSpline
210
0.0
220
0.0
230
1.0
 70
     8
 71
     3
 72
    14
 73
    10
 74
     0
 42
0.000000001
 43
0.00000001
 40
0.0
 40
0.0
 40
0.0
 40
0.0
 40
0.1400846043362683
 40
0.2800557951842359
 40
0.4199731343576413
 40
0.55994975272213
 40
0.7066277146951947
 40
0.8532984963383563
 40
1.0
 40
1.0
 40
1.0
 40
1.0
 10
3.252927281020535
 20
25.09685915925566
 30
0.0
 10
3.209997454533686
 20
25.09881598538879
 30
0.0
 10
3.124172557851713
 20
25.10272805339471
 30
0.0
 10
2.999962981209611
 20
25.14131406893632
 30
0.0
 10
2.889583831307241
 20
25.20998104835747
 30
0.0
 10
2.801041461615306
 20
25.30754128036548
 30
0.0
 10
2.731857082588986
 20
25.42123682397737
 30
0.0
 10
2.686126587836847
 20
25.54971355662799
 30
0.0
 10
2.681089586905623
 20
25.639683775268
 30
0.0
 10
2.67857082270202
 20
25.6846735954398
 30
0.0
  0
SPLINE
  5
107
330
1F
100
AcDbEntity
  8
0
  6
Continuous
 62
     7
370
    15
100
AcDbSpline
210
0.0
220
0.0
230
1.0
 70
     8
 71
     3
 72
    12
 73
     8
 74
     0
 42
0.000000001
 43
0.00000001
 40
0.0
 40
0.0
 40
0.0
 40
0.0
 40
0.1868317287677254
 40
0.3734604364531131
 40
0.5601305404121806
 40
0.7799356526497698
 40
1.0
 40
1.0
 40
1.0
 40
1.0
 10
3.780334521700419
 20
25.41205039813958
 30
0.0
 10
3.759808139709372
 20
25.37719031736234
 30
0.0
 10
3.718777680762477
 20
25.30750803658637
 30
0.0
 10
3.633632622495468
 20
25.21964588557654
 30
0.0
 10
3.525426736824116
 20
25.14959449134944
 30
0.0
 10
3.395902141406906
 20
25.10357633023724
 30
0.0
 10
3.30060428893804
 20
25.09909909579561
 30
0.0
 10
3.252927281020535
 20
25.09685915925566
 30
0.0
  0
LINE
  5
108
330
1F
100
AcDbEntity
  8
0
  6
Continuous
 62
     7
370
    15
100
AcDbLine
 10
3.6557608141
 20
25.4774653225
 30
0.0
 11
3.7803345217
 21
25.4120503981
 31
0.0
  0
SPLINE
  5
109
330
1F
100
AcDbEntity
  8
0
  6
Continuous
 62
     7
370
    15
100
AcDbSpline
210
0.0
220
0.0
230
1.0
 70
     8
 71
     3
 72
    11
 73
     7
 74
     0
 42
0.000000001
 43
0.00000001
 40
0.0
 40
0.0
 40
0.0
 40
0.0
 40
0.2799014687167493
 40
0.5596981652293156
 40
0.7795383416171651
 40
1.0
 40
1.0
 40
1.0
 40
1.0
 10
3.235400230161189
 20
25.23708025940955
 30
0.0
 10
3.282715929890147
 20
25.24102232431271
 30
0.0
 10
3.377329618222169
 20
25.24890497853253
 30
0.0
 10
3.50106205093316
 20
25.30267507851616
 30
0.0
 10
3.592303377781698
 20
25.38535697267773
 30
0.0
 10
3.634588440348007
 20
25.44673366165556
 30
0.0
 10
3.655760814119848
 20
25.4774653224608
 30
0.0
  0
SPLINE
  5
10A
330
1F
100
AcDbEntity
  8
0
  6
Continuous
 62
     7
370
    15
100
AcDbSpline
210
0.0
220
0.0
230
1.0
 70
     8
 71
     3
 72
    13
 73
     9
 74
     0
 42
0.000000001
 43
0.00000001
 40
0.0
 40
0.0
 40
0.0
 40
0.0
 40
0.1867239064448748
 40
0.3732504530917176
 40
0.5597741256939401
 40
0.7064872232238701
 40
0.8531850855941894
 40
1.0
 40
1.0
 40
1.0
 40
1.0
 10
2.818796616135017
 20
25.65775763970856
 30
0.0
 10
2.822122433375859
 20
25.61665850098816
 30
0.0
 10
2.828770552600007
 20
25.53450366371456
 30
0.0
 10
2.880480904969709
 20
25.42007038415186
 30
0.0
 10
2.9575368023103
 20
25.33383349394385
 30
0.0
 10
3.04583980962328
 20
25.27470287123319
 30
0.0
 10
3.138529377078247
 20
25.24257667832505
 30
0.0
 10
3.20310136209405
 20
25.23891288608459
 30
0.0
 10
3.235400230161189
 20
25.23708025940955
 30
0.0
  0
SPLINE
  5
10B
330
1F
100
AcDbEntity
  8
0
  6
Continuous
 62
     7
370
    15
100
AcDbSpline
210
0.0
220
0.0
230
1.0
 70
     8
 71
     3
 72
    11
 73
     7
 74
     0
 42
0.000000001
 43
0.00000001
 40
0.0
 40
0.0
 40
0.0
 40
0.0
 40
0.2799807778133701
 40
0.5597492253681594
 40
0.77980992463743
 40
1.0
 40
1.0
 40
1.0
 40
1.0
 10
6.763859095769945
 20
26.27874886596492
 30
0.0
 10
6.814149514261479
 20
26.27577377456577
 30
0.0
 10
6.914692212277834
 20
26.2698258480007
 30
0.0
 10
7.046863871988442
 20
26.21744438277477
 30
0.0
 10
7.151825849814553
 20
26.14022171802089
 30
0.0
 10
7.201168262434594
 20
26.07837370089665
 30
0.0
 10
7.225846718849501
 20
26.04744060472435
 30
0.0
  0
SPLINE
  5
10C
330
1F
100
AcDbEntity
  8
0
  6
Continuous
 62
     7
370
    15
100
AcDbSpline
210
0.0
220
0.0
230
1.0
 70
     8
 71
     3
 72
    14
 73
    10
 74
     0
 42
0.000000001
 43
0.00000001
 40
0.0
 40
0.0
 40
0.0
 40
0.0
 40
0.1400227491540884
 40
0.279972500874278
 40
0.4199671422294052
 40
0.560026296534386
 40
0.7066645745779564
 40
0.8532937803271914
 40
1.0
 40
1.0
 40
1.0
 40
1.0
 10
6.164149543665866
 20
25.69093442978078
 30
0.0
 10
6.166584538197539
 20
25.734555739519
 30
0.0
 10
6.17145325783607
 20
25.82177561809301
 30
0.0
 10
6.216528454631436
 20
25.94618350059931
 30
0.0
 10
6.287911826736255
 20
26.05647966942697
 30
0.0
 10
6.382701751158373
 20
26.15055141770202
 30
0.0
 10
6.496200587650041
 20
26.22463086694849
 30
0.0
 10
6.626793678168275
 20
26.27127929723243
 30
0.0
 10
6.718162627064394
 20
26.27625857395837
 30
0.0
 10
6.763859095769945
 20
26.27874886596492
 30
0.0
  0
SPLINE
  5
10D
330
1F
100
AcDbEntity
  8
0
  6
Continuous
 62
     7
370
    15
100
AcDbSpline
210
0.0
220
0.0
230
1.0
 70
     8
 71
     3
 72
    14
 73
    10
 74
     0
 42
0.000000001
 43
0.00000001
 40
0.0
 40
0.0
 40
0.0
 40
0.0
 40
0.1400483164333133
 40
0.2800110406001814
 40
0.4200249722904387
 40
0.5600987212841627
 40
0.7067213714312126
 40
0.8533023979161727
 40
0.9999999999999999
 40
0.9999999999999999
 40
0.9999999999999999
 40
0.9999999999999999
 10
6.75947557307544
 20
25.09685915925566
 30
0.0
 10
6.715776736029038
 20
25.09931951394795
 30
0.0
 10
6.628405769022754
 20
25.10423871965625
 30
0.0
 10
6.502942033612269
 20
25.14694595826631
 30
0.0
 10
6.391305175050607
 20
25.21687585279174
 30
0.0
 10
6.295035003251725
 20
25.30989166617307
 30
0.0
 10
6.219489163096886
 20
25.42291565383563
 30
0.0
 10
6.171954199806696
 20
25.55356597693802
 30
0.0
 10
6.166751785017064
 20
25.64513281317047
 30
0.0
 10
6.164149543665862
 20
25.69093442978079
 30
0.0
  0
SPLINE
  5
10E
330
1F
100
AcDbEntity
  8
0
  6
Continuous
 62
     7
370
    15
100
AcDbSpline
210
0.0
220
0.0
230
1.0
 70
     8
 71
     3
 72
    11
 73
     7
 74
     0
 42
0.000000001
 43
0.00000001
 40
0.0
 40
0.0
 40
0.0
 40
0.0
 40
0.2799909404090156
 40
0.559724429638708
 40
0.7798677073031531
 40
0.9999999999999999
 40
0.9999999999999999
 40
0.9999999999999999
 40
0.9999999999999999
 10
7.225846718849501
 20
25.31439264629026
 30
0.0
 10
7.191871176433369
 20
25.27782891009353
 30
0.0
 10
7.123951332052862
 20
25.20473505799144
 30
0.0
 10
7.000456527670434
 20
25.13754420607456
 30
0.0
 10
6.876794182184162
 20
25.1022379893182
 30
0.0
 10
6.798581125634305
 20
25.09865207278672
 30
0.0
 10
6.75947557307544
 20
25.09685915925566
 30
0.0
  0
LINE
  5
10F
330
1F
100
AcDbEntity
  8
0
  6
Continuous
 62
     7
370
    15
100
AcDbLine
 10
7.2258467188
 20
25.1168900745
 30
0.0
 11
7.2258467188
 21
25.3143926463
 31
0.0
  0
LINE
  5
110
330
1F
100
AcDbEntity
  8
0
  6
Continuous
 62
     7
370
    15
100
AcDbLine
 10
7.3660725123
 20
25.1168900745
 30
0.0
 11
7.2258467188
 21
25.1168900745
 31
0.0
  0
LINE
  5
111
330
1F
100
AcDbEntity
  8
0
  6
Continuous
 62
     7
370
    15
100
AcDbLine
 10
7.3660725123
 20
26.2587179507
 30
0.0
 11
7.3660725123
 21
25.1168900745
 31
0.0
  0
LINE
  5
112
330
1F
100
AcDbEntity
  8
0
  6
Continuous
 62
     7
370
    15
100
AcDbLine
 10
7.2258467188
 20
26.2587179507
 30
0.0
 11
7.3660725123
 21
26.2587179507
 31
0.0
  0
LINE
  5
113
330
1F
100
AcDbEntity
  8
0
  6
Continuous
 62
     7
370
    15
100
AcDbLine
 10
7.2258467188
 20
26.0474406047
 30
0.0
 11
7.2258467188
 21
26.2587179507
 31
0.0
  0
LINE
  5
114
330
1F
100
AcDbEntity
  8
0
  6
Continuous
 62
     7
370
    15
100
AcDbLine
 10
10.1304948708
 20
25.6577576397
 30
0.0
 11
9.1088595261
 21
25.6577576397
 31
0.0
  0
SPLINE
  5
115
330
1F
100
AcDbEntity
  8
0
  6
Continuous
 62
     7
370
    15
100
AcDbSpline
210
0.0
220
0.0
230
1.0
 70
     8
 71
     3
 72
    11
 73
     7
 74
     0
 42
0.000000001
 43
0.00000001
 40
0.0
 40
0.0
 40
0.0
 40
0.0
 40
0.2798435549183016
 40
0.5597434082540597
 40
0.7798460488539941
 40
1.0
 40
1.0
 40
1.0
 40
1.0
 10
10.00623326625351
 20
26.05401588876611
 30
0.0
 10
10.02839256678023
 20
26.02124810095259
 30
0.0
 10
10.07271562580146
 20
25.95570593316157
 30
0.0
 10
10.10810460860152
 20
25.8506194004126
 30
0.0
 10
10.12717958318822
 20
25.75080891014449
 30
0.0
 10
10.12938968905097
 20
25.68877713972428
 30
0.0
 10
10.13049487077285
 20
25.65775763970855
 30
0.0
  0
SPLINE
  5
116
330
1F
100
AcDbEntity
  8
0
  6
Continuous
 62
     7
370
    15
100
AcDbSpline
210
0.0
220
0.0
230
1.0
 70
     8
 71
     3
 72
    11
 73
     7
 74
     0
 42
0.000000001
 43
0.00000001
 40
0.0
 40
0.0
 40
0.0
 40
0.0
 40
0.2799840812001841
 40
0.5597290976905658
 40
0.7798350618357981
 40
1.0
 40
1.0
 40
1.0
 40
1.0
 10
9.54643505788165
 20
26.27874886596492
 30
0.0
 10
9.596126319782918
 20
26.27583232117194
 30
0.0
 10
9.69546641464786
 20
26.27000172188094
 30
0.0
 10
9.825978552367541
 20
26.21829594995108
 30
0.0
 10
9.930524591203291
 20
26.14349599455098
 30
0.0
 10
9.980994787752751
 20
26.08384525408784
 30
0.0
 10
10.00623326625351
 20
26.05401588876611
 30
0.0
  0
SPLINE
  5
117
330
1F
100
AcDbEntity
  8
0
  6
Continuous
 62
     7
370
    15
100
AcDbSpline
210
0.0
220
0.0
230
1.0
 70
     8
 71
     3
 72
    15
 73
    11
 74
     0
 42
0.000000001
 43
0.00000001
 40
0.0
 40
0.0
 40
0.0
 40
0.0
 40
0.1288352544875546
 40
0.2535893349864811
 40
0.3746432573141688
 40
0.495340042237791
 40
0.6163247746357933
 40
0.7397593354405132
 40
0.8668423203805461
 40
1.0
 40
1.0
 40
1.0
 40
1.0
 10
9.100095968795651
 20
26.06590834547012
 30
0.0
 10
9.11425118432058
 20
26.08281409104514
 30
0.0
 10
9.142113214056415
 20
26.11609005106768
 30
0.0
 10
9.189236586982243
 20
26.15981251793446
 30
0.0
 10
9.240263460349377
 20
26.19643920328138
 30
0.0
 10
9.294554364858374
 20
26.22679953191451
 30
0.0
 10
9.35274029077828
 20
26.24986812432201
 30
0.0
 10
9.414039081420059
 20
26.26705900924713
 30
0.0
 10
9.47914871812838
 20
26.27669204988696
 30
0.0
 10
9.523659977431144
 20
26.27805268989679
 30
0.0
 10
9.54643511142386
 20
26.27874889034192
 30
0.0
  0
SPLINE
  5
118
330
1F
100
AcDbEntity
  8
0
  6
Continuous
 62
     7
370
    15
100
AcDbSpline
210
0.0
220
0.0
230
1.0
 70
     8
 71
     3
 72
    11
 73
     7
 74
     0
 42
0.000000001
 43
0.00000001
 40
0.0
 40
0.0
 40
0.0
 40
0.0
 40
0.27997056729043
 40
0.5598657209835342
 40
0.7799163183657778
 40
1.0
 40
1.0
 40
1.0
 40
1.0
 10
8.968636079331423
 20
25.6846735954398
 30
0.0
 10
8.970434959693758
 20
25.72307462744257
 30
0.0
 10
8.974032235867345
 20
25.79986634764662
 30
0.0
 10
9.004492221196772
 20
25.90316976302295
 30
0.0
 10
9.046886572285935
 20
25.99263062331255
 30
0.0
 10
9.082358635764344
 20
26.04148142245407
 30
0.0
 10
9.100096000695194
 20
26.0659086580465
 30
0.0
  0
SPLINE
  5
119
330
1F
100
AcDbEntity
  8
0
  6
Continuous
 62
     7
370
    15
100
AcDbSpline
210
0.0
220
0.0
230
1.0
 70
     8
 71
     3
 72
    14
 73
    10
 74
     0
 42
0.000000001
 43
0.00000001
 40
0.0
 40
0.0
 40
0.0
 40
0.0
 40
0.1400845006354703
 40
0.2800555878665968
 40
0.4199739068724974
 40
0.5599495479009817
 40
0.7066280640962189
 40
0.8532987371630157
 40
1.0
 40
1.0
 40
1.0
 40
1.0
 10
9.542992537649939
 20
25.09685915925566
 30
0.0
 10
9.500062692965859
 20
25.0988159611629
 30
0.0
 10
9.414237759904152
 20
25.10272798073668
 30
0.0
 10
9.290028135481352
 20
25.14131445878913
 30
0.0
 10
9.179647948224588
 20
25.2099802102415
 30
0.0
 10
9.091106983793356
 20
25.30754210803188
 30
0.0
 10
9.021920946419753
 20
25.42123638393964
 30
0.0
 10
8.976190464004308
 20
25.54971354902009
 30
0.0
 10
8.971154382592424
 20
25.63968378624679
 30
0.0
 10
8.968636079331423
 20
25.6846735954398
 30
0.0
  0
SPLINE
  5
11A
330
1F
100
AcDbEntity
  8
0
  6
Continuous
 62
     7
370
    15
100
AcDbSpline
210
0.0
220
0.0
230
1.0
 70
     8
 71
     3
 72
    12
 73
     8
 74
     0
 42
0.000000001
 43
0.00000001
 40
0.0
 40
0.0
 40
0.0
 40
0.0
 40
0.1868321186216188
 40
0.3734612157372644
 40
0.5601332273194359
 40
0.779938798215088
 40
1.0
 40
1.0
 40
1.0
 40
1.0
 10
10.07039860501004
 20
25.41205039813958
 30
0.0
 10
10.0498722138251
 20
25.37719033167555
 30
0.0
 10
10.00884173650043
 20
25.30750807951043
 30
0.0
 10
9.923696585196723
 20
25.21964547595163
 30
0.0
 10
9.815489794827128
 20
25.1495948588881
 30
0.0
 10
9.6859658444866
 20
25.10357652559029
 30
0.0
 10
9.590668767394744
 20
25.09909914871758
 30
0.0
 10
9.542992537649939
 20
25.09685915925566
 30
0.0
  0
LINE
  5
11B
330
1F
100
AcDbEntity
  8
0
  6
Continuous
 62
     7
370
    15
100
AcDbLine
 10
9.9458237241
 20
25.4774653225
 30
0.0
 11
10.070398605
 21
25.4120503981
 31
0.0
  0
SPLINE
  5
11C
330
1F
100
AcDbEntity
  8
0
  6
Continuous
 62
     7
370
    15
100
AcDbSpline
210
0.0
220
0.0
230
1.0
 70
     8
 71
     3
 72
    11
 73
     7
 74
     0
 42
0.000000001
 43
0.00000001
 40
0.0
 40
0.0
 40
0.0
 40
0.0
 40
0.2799019532086847
 40
0.5596991340318322
 40
0.7795379600118237
 40
1.0
 40
1.0
 40
1.0
 40
1.0
 10
9.525464313470813
 20
25.23708025940955
 30
0.0
 10
9.572779989342113
 20
25.24102235146838
 30
0.0
 10
9.667393629967734
 20
25.24890505998942
 30
0.0
 10
9.79112612008372
 20
25.30267466251533
 30
0.0
 10
9.882366299314794
 20
25.38535739110542
 30
0.0
 10
9.924651298725992
 20
25.44673372075819
 30
0.0
 10
9.945823724109697
 20
25.47746532246079
 30
0.0
  0
SPLINE
  5
11D
330
1F
100
AcDbEntity
  8
0
  6
Continuous
 62
     7
370
    15
100
AcDbSpline
210
0.0
220
0.0
230
1.0
 70
     8
 71
     3
 72
    13
 73
     9
 74
     0
 42
0.000000001
 43
0.00000001
 40
0.0
 40
0.0
 40
0.0
 40
0.0
 40
0.1867242162557627
 40
0.3732508273058952
 40
0.5597757453797364
 40
0.7064888935662956
 40
0.853186806587984
 40
1.0
 40
1.0
 40
1.0
 40
1.0
 10
9.108859526124867
 20
25.65775763970855
 30
0.0
 10
9.112185851949672
 20
25.61665853142116
 30
0.0
 10
9.11883498343832
 20
25.53450380892498
 30
0.0
 10
9.170544784920079
 20
25.42006992647614
 30
0.0
 10
9.247602056828372
 20
25.33383381972849
 30
0.0
 10
9.335905015057477
 20
25.27470282727893
 30
0.0
 10
9.428594272403021
 20
25.24257682179617
 30
0.0
 10
9.49316584600014
 20
25.23891292655294
 30
0.0
 10
9.525464313470813
 20
25.23708025940955
 30
0.0
  0
SPLINE
  5
11E
330
1F
100
AcDbEntity
  8
0
  6
Continuous
 62
     7
370
    15
100
AcDbSpline
210
0.0
220
0.0
230
1.0
 70
     8
 71
     3
 72
    11
 73
     7
 74
     0
 42
0.000000001
 43
0.00000001
 40
0.0
 40
0.0
 40
0.0
 40
0.0
 40
0.2799668799729669
 40
0.5598148475303146
 40
0.7798842668273371
 40
1.0
 40
1.0
 40
1.0
 40
1.0
 10
-2.345403779914658
 20
26.13852307253191
 30
0.0
 10
-2.375322419705425
 20
26.13718012755367
 30
0.0
 10
-2.435146991720521
 20
26.13449480799614
 30
0.0
 10
-2.515447613873052
 20
26.11006059960653
 30
0.0
 10
-2.584552645377276
 20
26.07562803161174
 30
0.0
 10
-2.621266559318319
 20
26.04619621772227
 30
0.0
 10
-2.639625447707512
 20
26.03147876245025
 30
0.0
  0
LINE
  5
11F
330
1F
100
AcDbEntity
  8
0
  6
Continuous
 62
     7
370
    15
100
AcDbLine
 10
-2.7754677184
 20
25.7979787399
 30
0.0
 11
-1.9087692506
 21
25.7979787399
 31
0.0
  0
SPLINE
  5
120
330
1F
100
AcDbEntity
  8
0
  6
Continuous
 62
     7
370
    15
100
AcDbSpline
210
0.0
220
0.0
230
1.0
 70
     8
 71
     3
 72
    10
 73
     6
 74
     0
 42
0.000000001
 43
0.00000001
 40
0.0
 40
0.0
 40
0.0
 40
0.0
 40
0.2799195611002601
 40
0.5599683869360332
 40
0.9999999999999999
 40
0.9999999999999999
 40
0.9999999999999999
 40
0.9999999999999999
 10
-2.639625447707512
 20
26.03147876245025
 30
0.0
 10
-2.657777013548857
 20
26.01343084844758
 30
0.0
 10
-2.694088527487315
 20
25.9773266860521
 30
0.0
 10
-2.741050309953319
 20
25.89814174010602
 30
0.0
 10
-2.762413162421968
 20
25.83597066184264
 30
0.0
 10
-2.775467718446008
 20
25.79797873986244
 30
0.0
  0
SPLINE
  5
121
330
1F
100
AcDbEntity
  8
0
  6
Continuous
 62
     7
370
    15
100
AcDbSpline
210
0.0
220
0.0
230
1.0
 70
     8
 71
     3
 72
    12
 73
     8
 74
     0
 42
0.000000001
 43
0.00000001
 40
0.0
 40
0.0
 40
0.0
 40
0.0
 40
0.186903314024218
 40
0.3734778990958038
 40
0.5600577979989384
 40
0.7800307059621002
 40
0.9999999999999999
 40
0.9999999999999999
 40
0.9999999999999999
 40
0.9999999999999999
 10
-1.908769250620671
 20
25.79797873986245
 30
0.0
 10
-1.919565512533012
 20
25.83382895856436
 30
0.0
 10
-1.941139047695617
 20
25.90546634195066
 30
0.0
 10
-2.002910360262654
 20
26.00142937882797
 30
0.0
 10
-2.096899032083395
 20
26.07571979083634
 30
0.0
 10
-2.213110539867211
 20
26.12825640405574
 30
0.0
 10
-2.301306274728133
 20
26.13510086844791
 30
0.0
 10
-2.345403779914658
 20
26.13852307253191
 30
0.0
  0
SPLINE
  5
122
330
1F
100
AcDbEntity
  8
0
  6
Continuous
 62
     7
370
    15
100
AcDbSpline
210
0.0
220
0.0
230
1.0
 70
     8
 71
     3
 72
    13
 73
     9
 74
     0
 42
0.000000001
 43
0.00000001
 40
0.0
 40
0.0
 40
0.0
 40
0.0
 40
0.1866287013025111
 40
0.3730689591688872
 40
0.5595103585908833
 40
0.7063495336633656
 40
0.8531777465397571
 40
1.0
 40
1.0
 40
1.0
 40
1.0
 10
4.862064958791435
 20
25.68529780156225
 30
0.0
 10
4.86529087660863
 20
25.64051586588622
 30
0.0
 10
4.871739454957114
 20
25.55099721191913
 30
0.0
 10
4.931263787565483
 20
25.42768695026104
 30
0.0
 10
5.018799131985866
 20
25.33685902907782
 30
0.0
 10
5.118573970341568
 20
25.27887333104261
 30
0.0
 10
5.218885409400047
 20
25.24336659384224
 30
0.0
 10
5.289206966555628
 20
25.23917567586995
 30
0.0
 10
5.324367031571774
 20
25.23708025940955
 30
0.0
  0
SPLINE
  5
123
330
1F
100
AcDbEntity
  8
0
  6
Continuous
 62
     7
370
    15
100
AcDbSpline
210
0.0
220
0.0
230
1.0
 70
     8
 71
     3
 72
    13
 73
     9
 74
     0
 42
0.000000001
 43
0.00000001
 40
0.0
 40
0.0
 40
0.0
 40
0.0
 40
0.186486782933555
 40
0.373077047033027
 40
0.55958470230876
 40
0.7063579318119435
 40
0.853166812564285
 40
1.0
 40
1.0
 40
1.0
 40
1.0
 10
5.783538687181625
 20
25.68936687455598
 30
0.0
 10
5.779516697276263
 20
25.73391353602473
 30
0.0
 10
5.771470485670879
 20
25.82303157782107
 30
0.0
 10
5.709292115641442
 20
25.94391721909313
 30
0.0
 10
5.625490173743379
 20
26.03703175184377
 30
0.0
 10
5.527100678274624
 20
26.09688692933617
 30
0.0
 10
5.427260436325831
 20
26.13259519041329
 30
0.0
 10
5.357205591891554
 20
26.13654700278655
 30
0.0
 10
5.322175270224522
 20
26.13852307253191
 30
0.0
  0
SPLINE
  5
124
330
1F
100
AcDbEntity
  8
0
  6
Continuous
 62
     7
370
    15
100
AcDbSpline
210
0.0
220
0.0
230
1.0
 70
     8
 71
     3
 72
    13
 73
     9
 74
     0
 42
0.000000001
 43
0.00000001
 40
0.0
 40
0.0
 40
0.0
 40
0.0
 40
0.1865779428734927
 40
0.3731216551751056
 40
0.559613071117005
 40
0.7064230010154428
 40
0.8532215389023232
 40
1.0
 40
1.0
 40
1.0
 40
1.0
 10
5.324367031571774
 20
25.23708025940955
 30
0.0
 10
5.368862978137354
 20
25.24076835546559
 30
0.0
 10
5.457846707807859
 20
25.24814387094012
 30
0.0
 10
5.579965396905729
 20
25.30724618629879
 30
0.0
 10
5.67415811868038
 20
25.38970239974866
 30
0.0
 10
5.736161044795606
 20
25.48627343495338
 30
0.0
 10
5.776450606016241
 20
25.58436625772248
 30
0.0
 10
5.781176101180319
 20
25.65436826468236
 30
0.0
 10
5.783538687181625
 20
25.68936687455598
 30
0.0
  0
SPLINE
  5
125
330
1F
100
AcDbEntity
  8
0
  6
Continuous
 62
     7
370
    15
100
AcDbSpline
210
0.0
220
0.0
230
1.0
 70
     8
 71
     3
 72
    13
 73
     9
 74
     0
 42
0.000000001
 43
0.00000001
 40
0.0
 40
0.0
 40
0.0
 40
0.0
 40
0.1866489194994884
 40
0.3731391545325032
 40
0.5597282622027829
 40
0.7064672901535775
 40
0.853167695496733
 40
1.0
 40
1.0
 40
1.0
 40
1.0
 10
5.322175270224522
 20
26.13852307253191
 30
0.0
 10
5.277224965493803
 20
26.13554994955842
 30
0.0
 10
5.187362571711002
 20
26.12960623128981
 30
0.0
 10
5.06288401146324
 20
26.07194222666685
 30
0.0
 10
4.968405344979985
 20
25.98840468743716
 30
0.0
 10
4.903693071599787
 20
25.89207215848599
 30
0.0
 10
4.868061368965844
 20
25.79107745029913
 30
0.0
 10
4.864064360869173
 20
25.72056824559723
 30
0.0
 10
4.862064958791435
 20
25.68529780156225
 30
0.0
  0
SPLINE
  5
126
330
1F
100
AcDbEntity
  8
0
  6
Continuous
 62
     7
370
    15
100
AcDbSpline
210
0.0
220
0.0
230
1.0
 70
     8
 71
     3
 72
    11
 73
     7
 74
     0
 42
0.000000001
 43
0.00000001
 40
0.0
 40
0.0
 40
0.0
 40
0.0
 40
0.2799616169457748
 40
0.5598116300305045
 40
0.7798826579081682
 40
1.0
 40
1.0
 40
1.0
 40
1.0
 10
3.263569291416456
 20
26.13852307253191
 30
0.0
 10
3.233651442356495
 20
26.13718006215461
 30
0.0
 10
3.173827670683881
 20
26.13449457677743
 30
0.0
 10
3.093527804700738
 20
26.11006060005749
 30
0.0
 10
3.02442277245791
 20
26.07562803151043
 30
0.0
 10
2.987708858607184
 20
26.04619621768851
 30
0.0
 10
2.969349970263161
 20
26.03147876245025
 30
0.0
  0
SPLINE
  5
127
330
1F
100
AcDbEntity
  8
0
  6
Continuous
 62
     7
370
    15
100
AcDbSpline
210
0.0
220
0.0
230
1.0
 70
     8
 71
     3
 72
    12
 73
     8
 74
     0
 42
0.000000001
 43
0.00000001
 40
0.0
 40
0.0
 40
0.0
 40
0.0
 40
0.1869041547599995
 40
0.3734761307011982
 40
0.5600585962838097
 40
0.7800273714771603
 40
1.0
 40
1.0
 40
1.0
 40
1.0
 10
3.700206167350006
 20
25.79797873986244
 30
0.0
 10
3.689408752139757
 20
25.83382874776256
 30
0.0
 10
3.66783311162243
 20
25.9054650484822
 30
0.0
 10
3.606065470458023
 20
26.0014310512849
 30
0.0
 10
3.512074392168007
 20
26.0757181801779
 30
0.0
 10
3.395863768214868
 20
26.12825734788228
 30
0.0
 10
3.307667707844518
 20
26.13510114433439
 30
0.0
 10
3.263569291416452
 20
26.13852307253192
 30
0.0
  0
LINE
  5
128
330
1F
100
AcDbEntity
  8
0
  6
Continuous
 62
     7
370
    15
100
AcDbLine
 10
2.8335076995
 20
25.7979787399
 30
0.0
 11
3.7002061674
 21
25.7979787399
 31
0.0
  0
SPLINE
  5
129
330
1F
100
AcDbEntity
  8
0
  6
Continuous
 62
     7
370
    15
100
AcDbSpline
210
0.0
220
0.0
230
1.0
 70
     8
 71
     3
 72
    10
 73
     6
 74
     0
 42
0.000000001
 43
0.00000001
 40
0.0
 40
0.0
 40
0.0
 40
0.0
 40
0.2799246310530756
 40
0.5599727006229279
 40
1.0
 40
1.0
 40
1.0
 40
1.0
 10
2.969349970263161
 20
26.03147876245025
 30
0.0
 10
2.9511975085621
 20
26.01343096302158
 30
0.0
 10
2.914884580459073
 20
25.97732740561634
 30
0.0
 10
2.867922698531353
 20
25.89814199990192
 30
0.0
 10
2.846561319246833
 20
25.83597069524314
 30
0.0
 10
2.83350769952466
 20
25.79797873986245
 30
0.0
  0
SPLINE
  5
12A
330
1F
100
AcDbEntity
  8
0
  6
Continuous
 62
     7
370
    15
100
AcDbSpline
210
0.0
220
0.0
230
1.0
 70
     8
 71
     3
 72
    13
 73
     9
 74
     0
 42
0.000000001
 43
0.00000001
 40
0.0
 40
0.0
 40
0.0
 40
0.0
 40
0.1865000210587165
 40
0.3730910016011904
 40
0.559635300986978
 40
0.7064504206875658
 40
0.853231884922622
 40
1.0
 40
1.0
 40
1.0
 40
1.0
 10
-0.0658194472007277
 20
25.68936687455598
 30
0.0
 10
-0.0617515186367321
 20
25.6448148266094
 30
0.0
 10
-0.0536136775053113
 20
25.55568900186465
 30
0.0
 10
0.0088326638864001
 20
25.43493776910081
 30
0.0
 10
0.0921596086540548
 20
25.34154076924403
 30
0.0
 10
0.1897479538973451
 20
25.28040242938995
 30
0.0
 10
0.2892773881863456
 20
25.24373168474348
 30
0.0
 10
0.3592874334518684
 20
25.23929733397022
 30
0.0
 10
0.3942908642323542
 20
25.23708025940956
 30
0.0
  0
SPLINE
  5
12B
330
1F
100
AcDbEntity
  8
0
  6
Continuous
 62
     7
370
    15
100
AcDbSpline
210
0.0
220
0.0
230
1.0
 70
     8
 71
     3
 72
    13
 73
     9
 74
     0
 42
0.000000001
 43
0.00000001
 40
0.0
 40
0.0
 40
0.0
 40
0.0
 40
0.1866177488291645
 40
0.3732127836109508
 40
0.5597141871938061
 40
0.7065167909907579
 40
0.8532932518198768
 40
1.0
 40
1.0
 40
1.0
 40
1.0
 10
0.3955439697563766
 20
26.13852307253191
 30
0.0
 10
0.3509758337514665
 20
26.13515621181515
 30
0.0
 10
0.2618449863208222
 20
26.12842290017669
 30
0.0
 10
0.1384765980357825
 20
26.07140103670065
 30
0.0
 10
0.0437007477362019
 20
25.9892496590177
 30
0.0
 10
-0.0193984166739743
 20
25.89310286325072
 30
0.0
 10
-0.0585823896782004
 20
25.79439677071822
 30
0.0
 10
-0.0634074767362
 20
25.72437129543384
 30
0.0
 10
-0.0658194472007277
 20
25.68936687455598
 30
0.0
  0
SPLINE
  5
12C
330
1F
100
AcDbEntity
  8
0
  6
Continuous
 62
     7
370
    15
100
AcDbSpline
210
0.0
220
0.0
230
1.0
 70
     8
 71
     3
 72
    13
 73
     9
 74
     0
 42
0.000000001
 43
0.00000001
 40
0.0
 40
0.0
 40
0.0
 40
0.0
 40
0.1866316523311042
 40
0.3732567291353653
 40
0.559686780694068
 40
0.7064267244447625
 40
0.8531867353417741
 40
1.0
 40
1.0
 40
1.0
 40
1.0
 10
0.3942908642323586
 20
25.23708025940955
 30
0.0
 10
0.4389893526927564
 20
25.24054180454662
 30
0.0
 10
0.5283847547675589
 20
25.24746477286135
 30
0.0
 10
0.6520489192331717
 20
25.30396267585697
 30
0.0
 10
0.7496698539721572
 20
25.38327261730891
 30
0.0
 10
0.8133523888420285
 20
25.47984864300783
 30
0.0
 10
0.8499583562156647
 20
25.57988990249896
 30
0.0
 10
0.8537554099382056
 20
25.65015758638959
 30
0.0
 10
0.855654281189463
 20
25.68529780156225
 30
0.0
  0
SPLINE
  5
12D
330
1F
100
AcDbEntity
  8
0
  6
Continuous
 62
     7
370
    15
100
AcDbSpline
210
0.0
220
0.0
230
1.0
 70
     8
 71
     3
 72
    13
 73
     9
 74
     0
 42
0.000000001
 43
0.00000001
 40
0.0
 40
0.0
 40
0.0
 40
0.0
 40
0.1866598050918344
 40
0.3730890416934567
 40
0.5596901238282649
 40
0.7064220943081295
 40
0.8531576969270243
 40
0.9999999999999999
 40
0.9999999999999999
 40
0.9999999999999999
 40
0.9999999999999999
 10
0.855654281189463
 20
25.68529780156225
 30
0.0
 10
0.8524935521565594
 20
25.73024802697716
 30
0.0
 10
0.8461759983299199
 20
25.82009295377164
 30
0.0
 10
0.786388743169811
 20
25.94379950015009
 30
0.0
 10
0.7002221090259751
 20
26.03587590230298
 30
0.0
 10
0.6025790260290638
 20
26.09838551820835
 30
0.0
 10
0.5013261626888127
 20
26.13293742430087
 30
0.0
 10
0.4308132433391443
 20
26.13666073871054
 30
0.0
 10
0.3955439697563766
 20
26.13852307253191
 30
0.0
  0
SPLINE
  5
12E
330
1F
100
AcDbEntity
  8
0
  6
Continuous
 62
     7
370
    15
100
AcDbSpline
210
0.0
220
0.0
230
1.0
 70
     8
 71
     3
 72
    11
 73
     7
 74
     0
 42
0.000000001
 43
0.00000001
 40
0.0
 40
0.0
 40
0.0
 40
0.0
 40
0.2799669513001443
 40
0.5598114698140352
 40
0.7798842107484399
 40
1.0
 40
1.0
 40
1.0
 40
1.0
 10
9.55363454804586
 20
26.13852307253191
 30
0.0
 10
9.523715884591608
 20
26.13718019498635
 30
0.0
 10
9.463891641460721
 20
26.13449502715112
 30
0.0
 10
9.383591355915346
 20
26.11006001790482
 30
0.0
 10
9.314485881545176
 20
26.07562840408923
 30
0.0
 10
9.277771744172304
 20
26.04619626910358
 30
0.0
 10
9.259412880253006
 20
26.03147876245025
 30
0.0
  0
SPLINE
  5
12F
330
1F
100
AcDbEntity
  8
0
  6
Continuous
 62
     7
370
    15
100
AcDbSpline
210
0.0
220
0.0
230
1.0
 70
     8
 71
     3
 72
    12
 73
     8
 74
     0
 42
0.000000001
 43
0.00000001
 40
0.0
 40
0.0
 40
0.0
 40
0.0
 40
0.1869037616056448
 40
0.3734770692772411
 40
0.5600582786927313
 40
0.7800309463070224
 40
1.0
 40
1.0
 40
1.0
 40
1.0
 10
9.99027025065963
 20
25.79797873986244
 30
0.0
 10
9.97947341299669
 20
25.83382885536882
 30
0.0
 10
9.95789882694675
 20
25.90546570182687
 30
0.0
 10
9.896129336653697
 20
26.00143018867197
 30
0.0
 10
9.802139231352976
 20
26.07571931663396
 30
0.0
 10
9.685927880277452
 20
26.12825649671878
 30
0.0
 10
9.597732083960263
 20
26.13510089933542
 30
0.0
 10
9.55363454804586
 20
26.13852307253191
 30
0.0
  0
LINE
  5
130
330
1F
100
AcDbEntity
  8
0
  6
Continuous
 62
     7
370
    15
100
AcDbLine
 10
9.1235706095
 20
25.7979787399
 30
0.0
 11
9.9902702507
 21
25.7979787399
 31
0.0
  0
SPLINE
  5
131
330
1F
100
AcDbEntity
  8
0
  6
Continuous
 62
     7
370
    15
100
AcDbSpline
210
0.0
220
0.0
230
1.0
 70
     8
 71
     3
 72
    10
 73
     6
 74
     0
 42
0.000000001
 43
0.00000001
 40
0.0
 40
0.0
 40
0.0
 40
0.0
 40
0.2799222873247206
 40
0.5599686804248717
 40
0.9999999999999999
 40
0.9999999999999999
 40
0.9999999999999999
 40
0.9999999999999999
 10
9.259412880253006
 20
26.03147876245025
 30
0.0
 10
9.241260762043032
 20
26.01343096784881
 30
0.0
 10
9.20494847773692
 20
25.97732737701243
 30
0.0
 10
9.157988471889738
 20
25.89814120449095
 30
0.0
 10
9.136625362970353
 20
25.83597053223464
 30
0.0
 10
9.123570609514509
 20
25.79797873986244
 30
0.0
  0
SPLINE
  5
132
330
1F
100
AcDbEntity
  8
0
  6
Continuous
 62
     7
370
    15
100
AcDbSpline
210
0.0
220
0.0
230
1.0
 70
     8
 71
     3
 72
    13
 73
     9
 74
     0
 42
0.000000001
 43
0.00000001
 40
0.0
 40
0.0
 40
0.0
 40
0.0
 40
0.1865000210587165
 40
0.3730910016011904
 40
0.559635300986978
 40
0.7064504206875658
 40
0.853231884922622
 40
1.0
 40
1.0
 40
1.0
 40
1.0
 10
6.30437299045931
 20
25.68936687455598
 30
0.0
 10
6.308440919023306
 20
25.6448148266094
 30
0.0
 10
6.316578760154721
 20
25.55568900186465
 30
0.0
 10
6.379025101546446
 20
25.43493776910081
 30
0.0
 10
6.462352046314088
 20
25.34154076924403
 30
0.0
 10
6.559940391557382
 20
25.28040242938995
 30
0.0
 10
6.659469825846387
 20
25.24373168474348
 30
0.0
 10
6.729479871111906
 20
25.23929733397022
 30
0.0
 10
6.764483301892391
 20
25.23708025940956
 30
0.0
  0
SPLINE
  5
133
330
1F
100
AcDbEntity
  8
0
  6
Continuous
 62
     7
370
    15
100
AcDbSpline
210
0.0
220
0.0
230
1.0
 70
     8
 71
     3
 72
    13
 73
     9
 74
     0
 42
0.000000001
 43
0.00000001
 40
0.0
 40
0.0
 40
0.0
 40
0.0
 40
0.1866177488291645
 40
0.3732127836109508
 40
0.5597141871938061
 40
0.7065167909907579
 40
0.8532932518198768
 40
1.0
 40
1.0
 40
1.0
 40
1.0
 10
6.765736407416414
 20
26.13852307253191
 30
0.0
 10
6.721168271411504
 20
26.13515621181515
 30
0.0
 10
6.632037423980855
 20
26.12842290017669
 30
0.0
 10
6.508669035695824
 20
26.07140103670065
 30
0.0
 10
6.41389318539624
 20
25.9892496590177
 30
0.0
 10
6.350794020986059
 20
25.89310286325072
 30
0.0
 10
6.311610047981842
 20
25.79439677071822
 30
0.0
 10
6.306784960923833
 20
25.72437129543384
 30
0.0
 10
6.30437299045931
 20
25.68936687455598
 30
0.0
  0
SPLINE
  5
134
330
1F
100
AcDbEntity
  8
0
  6
Continuous
 62
     7
370
    15
100
AcDbSpline
210
0.0
220
0.0
230
1.0
 70
     8
 71
     3
 72
    13
 73
     9
 74
     0
 42
0.000000001
 43
0.00000001
 40
0.0
 40
0.0
 40
0.0
 40
0.0
 40
0.1866599336716228
 40
0.3730892986942075
 40
0.5596927289887056
 40
0.7064220452305477
 40
0.8531608438295529
 40
1.0
 40
1.0
 40
1.0
 40
1.0
 10
7.225846718849496
 20
25.68529780156226
 30
0.0
 10
7.222685946006357
 20
25.7302479801247
 30
0.0
 10
7.21636830461335
 20
25.82009281327211
 30
0.0
 10
7.156581468678914
 20
25.94380055215208
 30
0.0
 10
7.070412423154465
 20
26.03587424491162
 30
0.0
 10
6.972770615326046
 20
26.09838683984678
 30
0.0
 10
6.871517565337281
 20
26.13293670241656
 30
0.0
 10
6.801004828152124
 20
26.13666052483924
 30
0.0
 10
6.765736407416414
 20
26.13852307253191
 30
0.0
  0
SPLINE
  5
135
330
1F
100
AcDbEntity
  8
0
  6
Continuous
 62
     7
370
    15
100
AcDbSpline
210
0.0
220
0.0
230
1.0
 70
     8
 71
     3
 72
    13
 73
     9
 74
     0
 42
0.000000001
 43
0.00000001
 40
0.0
 40
0.0
 40
0.0
 40
0.0
 40
0.1866317818784234
 40
0.3732569882254396
 40
0.5596846542092346
 40
0.7064265206656586
 40
0.8531866334337396
 40
0.9999999999999999
 40
0.9999999999999999
 40
0.9999999999999999
 40
0.9999999999999999
 10
6.764483301892396
 20
25.23708025940955
 30
0.0
 10
6.809181737942522
 20
25.24054185735366
 30
0.0
 10
6.898577035198624
 20
25.24746493128066
 30
0.0
 10
7.022241429814733
 20
25.30396178860915
 30
0.0
 10
7.119859578818236
 20
25.38327423572013
 30
0.0
 10
7.183545274978042
 20
25.47984779482697
 30
0.0
 10
7.220150643840862
 20
25.57989001116951
 30
0.0
 10
7.223947797580585
 20
25.65015762261748
 30
0.0
 10
7.225846718849501
 20
25.68529780156225
 30
0.0
  0
INSERT
  5
141
330
1F
100
AcDbEntity
  8
0
  6
Continuous
 62
     7
370
     0
100
AcDbBlockReference
  2
SW_CENTERMARKSYMBOL_0
 10
20.6209137706
 20
4.6360935738
 30
0.0
  0
INSERT
  5
14D
330
1F
100
AcDbEntity
  8
0
  6
Continuous
 62
     7
370
     0
100
AcDbBlockReference
  2
SW_CENTERMARKSYMBOL_1
 10
8.6209137706
 20
4.6360935738
 30
0.0
  0
INSERT
  5
159
330
1F
100
AcDbEntity
  8
0
  6
Continuous
 62
     7
370
     0
100
AcDbBlockReference
  2
SW_CENTERMARKSYMBOL_2
 10
-3.3790862294
 20
4.6360935738
 30
0.0
  0
ENDSEC
  0
SECTION
  2
OBJECTS
  0
DICTIONARY
  5
C
330
0
100
AcDbDictionary
281
     1
  3
ACAD_GROUP
350
D
  3
ACAD_LAYOUT
350
1A
  3
ACAD_MLINESTYLE
350
17
  3
ACAD_PLOTSETTINGS
350
19
  3
ACAD_PLOTSTYLENAME
350
E
  3
ACAD_SCALELIST
350
47
  0
DICTIONARY
  5
D
102
{ACAD_REACTORS
330
C
102
}
330
C
100
AcDbDictionary
281
     1
  0
DICTIONARY
  5
1A
102
{ACAD_REACTORS
330
C
102
}
330
C
100
AcDbDictionary
281
     1
  3
Layout1
350
1E
  3
Layout2
350
26
  3
Model
350
22
  0
DICTIONARY
  5
17
102
{ACAD_REACTORS
330
C
102
}
330
C
100
AcDbDictionary
281
     1
  3
Standard
350
18
  0
DICTIONARY
  5
19
102
{ACAD_REACTORS
330
C
102
}
330
C
100
AcDbDictionary
281
     1
  0
ACDBDICTIONARYWDFLT
  5
E
102
{ACAD_REACTORS
330
C
102
}
330
C
100
AcDbDictionary
281
     1
  3
Normal
350
F
100
AcDbDictionaryWithDefault
340
F
  0
DICTIONARY
  5
47
102
{ACAD_REACTORS
330
C
102
}
330
C
100
AcDbDictionary
281
     1
  3
A0
350
48
  3
A1
350
49
  3
A2
350
4A
  3
A3
350
4B
  3
A4
350
4C
  3
A5
350
4D
  3
A6
350
4E
  3
A7
350
4F
  3
A8
350
50
  3
A9
350
51
  3
B0
350
52
  3
B1
350
53
  3
B2
350
54
  3
B3
350
55
  3
B4
350
56
  3
B5
350
57
  3
B6
350
58
  3
B7
350
59
  3
B8
350
5A
  3
B9
350
5B
  3
C0
350
5C
  3
C1
350
5D
  3
C2
350
5E
  3
C3
350
5F
  3
C4
350
60
  3
C5
350
61
  3
C6
350
62
  3
C7
350
63
  3
C8
350
64
  3
C9
350
65
  3
D0
350
66
  3
D1
350
67
  3
D2
350
68
  0
LAYOUT
  5
1E
102
{ACAD_REACTORS
330
1A
102
}
330
1A
100
AcDbPlotSettings
  1

  2
none_device
  4

  6

 40
0.0
 41
0.0
 42
0.0
 43
0.0
 44
0.0
 45
0.0
 46
0.0
 47
0.0
 48
0.0
 49
0.0
140
0.0
141
0.0
142
1.0
143
1.0
 70
   688
 72
     0
 73
     0
 74
     5
  7

 75
    16
147
1.0
148
0.0
149
0.0
100
AcDbLayout
  1
Layout1
 70
     1
 71
     1
 10
0.0
 20
0.0
 11
12.0
 21
9.0
 12
0.0
 22
0.0
 32
0.0
 14
1.0000000000E+20
 24
1.0000000000E+20
 34
1.0000000000E+20
 15
-1.0000000000E+20
 25
-1.0000000000E+20
 35
-1.0000000000E+20
146
0.0
 13
0.0
 23
0.0
 33
0.0
 16
1.0
 26
0.0
 36
0.0
 17
0.0
 27
1.0
 37
0.0
 76
     0
330
1B
  0
LAYOUT
  5
26
102
{ACAD_REACTORS
330
1A
102
}
330
1A
100
AcDbPlotSettings
  1

  2
none_device
  4

  6

 40
0.0
 41
0.0
 42
0.0
 43
0.0
 44
0.0
 45
0.0
 46
0.0
 47
0.0
 48
0.0
 49
0.0
140
0.0
141
0.0
142
1.0
143
1.0
 70
   688
 72
     0
 73
     0
 74
     5
  7

 75
    16
147
1.0
148
0.0
149
0.0
100
AcDbLayout
  1
Layout2
 70
     1
 71
     2
 10
0.0
 20
0.0
 11
0.0
 21
0.0
 12
0.0
 22
0.0
 32
0.0
 14
0.0
 24
0.0
 34
0.0
 15
0.0
 25
0.0
 35
0.0
146
0.0
 13
0.0
 23
0.0
 33
0.0
 16
1.0
 26
0.0
 36
0.0
 17
0.0
 27
1.0
 37
0.0
 76
     0
330
23
  0
LAYOUT
  5
22
102
{ACAD_REACTORS
330
1A
102
}
330
1A
100
AcDbPlotSettings
  1

  2
none_device
  4
Letter_(8.50_x_11.00_Inches)
  6

 40
6.35
 41
6.35
 42
6.35000508
 43
6.35000508
 44
215.9
 45
279.4
 46
0.0
 47
0.0
 48
0.0
 49
0.0
140
0.0
141
0.0
142
1.0
143
1.0
 70
  1712
 72
     0
 73
     0
 74
     0
  7

 75
     0
147
1.0
148
0.0
149
0.0
100
AcDbLayout
  1
Model
 70
     1
 71
     0
 10
0.0
 20
0.0
 11
11.0
 21
8.5
 12
0.0
 22
0.0
 32
0.0
 14
0.0
 24
0.0
 34
0.0
 15
11.0
 25
8.5
 35
0.0
146
0.0
 13
0.0
 23
0.0
 33
0.0
 16
1.0
 26
0.0
 36
0.0
 17
0.0
 27
1.0
 37
0.0
 76
     0
330
1F
331
29
  0
MLINESTYLE
  5
18
102
{ACAD_REACTORS
330
17
102
}
330
17
100
AcDbMlineStyle
  2
Standard
 70
     0
  3

 62
   256
 51
90.0
 52
90.0
 71
     2
 49
0.5
 62
   256
  6
BYLAYER
 49
-0.5
 62
   256
  6
BYLAYER
  0
ACDBPLACEHOLDER
  5
F
102
{ACAD_REACTORS
330
E
102
}
330
E
  0
SCALE
  5
48
102
{ACAD_REACTORS
330
47
102
}
330
47
100
AcDbScale
 70
     0
300
1:1
140
1.0
141
1.0
290
     1
  0
SCALE
  5
49
102
{ACAD_REACTORS
330
47
102
}
330
47
100
AcDbScale
 70
     0
300
1:2
140
1.0
141
2.0
290
     0
  0
SCALE
  5
4A
102
{ACAD_REACTORS
330
47
102
}
330
47
100
AcDbScale
 70
     0
300
1:4
140
1.0
141
4.0
290
     0
  0
SCALE
  5
4B
102
{ACAD_REACTORS
330
47
102
}
330
47
100
AcDbScale
 70
     0
300
1:5
140
1.0
141
5.0
290
     0
  0
SCALE
  5
4C
102
{ACAD_REACTORS
330
47
102
}
330
47
100
AcDbScale
 70
     0
300
1:8
140
1.0
141
8.0
290
     0
  0
SCALE
  5
4D
102
{ACAD_REACTORS
330
47
102
}
330
47
100
AcDbScale
 70
     0
300
1:10
140
1.0
141
10.0
290
     0
  0
SCALE
  5
4E
102
{ACAD_REACTORS
330
47
102
}
330
47
100
AcDbScale
 70
     0
300
1:16
140
1.0
141
16.0
290
     0
  0
SCALE
  5
4F
102
{ACAD_REACTORS
330
47
102
}
330
47
100
AcDbScale
 70
     0
300
1:20
140
1.0
141
20.0
290
     0
  0
SCALE
  5
50
102
{ACAD_REACTORS
330
47
102
}
330
47
100
AcDbScale
 70
     0
300
1:30
140
1.0
141
30.0
290
     0
  0
SCALE
  5
51
102
{ACAD_REACTORS
330
47
102
}
330
47
100
AcDbScale
 70
     0
300
1:40
140
1.0
141
40.0
290
     0
  0
SCALE
  5
52
102
{ACAD_REACTORS
330
47
102
}
330
47
100
AcDbScale
 70
     0
300
1:50
140
1.0
141
50.0
290
     0
  0
SCALE
  5
53
102
{ACAD_REACTORS
330
47
102
}
330
47
100
AcDbScale
 70
     0
300
1:100
140
1.0
141
100.0
290
     0
  0
SCALE
  5
54
102
{ACAD_REACTORS
330
47
102
}
330
47
100
AcDbScale
 70
     0
300
2:1
140
2.0
141
1.0
290
     0
  0
SCALE
  5
55
102
{ACAD_REACTORS
330
47
102
}
330
47
100
AcDbScale
 70
     0
300
4:1
140
4.0
141
1.0
290
     0
  0
SCALE
  5
56
102
{ACAD_REACTORS
330
47
102
}
330
47
100
AcDbScale
 70
     0
300
8:1
140
8.0
141
1.0
290
     0
  0
SCALE
  5
57
102
{ACAD_REACTORS
330
47
102
}
330
47
100
AcDbScale
 70
     0
300
10:1
140
10.0
141
1.0
290
     0
  0
SCALE
  5
58
102
{ACAD_REACTORS
330
47
102
}
330
47
100
AcDbScale
 70
     0
300
100:1
140
100.0
141
1.0
290
     0
  0
SCALE
  5
59
102
{ACAD_REACTORS
330
47
102
}
330
47
100
AcDbScale
 70
     0
300
1/128" = 1'-0"
140
0.0078125
141
12.0
290
     0
  0
SCALE
  5
5A
102
{ACAD_REACTORS
330
47
102
}
330
47
100
AcDbScale
 70
     0
300
1/64" = 1'-0"
140
0.015625
141
12.0
290
     0
  0
SCALE
  5
5B
102
{ACAD_REACTORS
330
47
102
}
330
47
100
AcDbScale
 70
     0
300
1/32" = 1'-0"
140
0.03125
141
12.0
290
     0
  0
SCALE
  5
5C
102
{ACAD_REACTORS
330
47
102
}
330
47
100
AcDbScale
 70
     0
300
1/16" = 1'-0"
140
0.0625
141
12.0
290
     0
  0
SCALE
  5
5D
102
{ACAD_REACTORS
330
47
102
}
330
47
100
AcDbScale
 70
     0
300
3/32" = 1'-0"
140
0.09375
141
12.0
290
     0
  0
SCALE
  5
5E
102
{ACAD_REACTORS
330
47
102
}
330
47
100
AcDbScale
 70
     0
300
1/8" = 1'-0"
140
0.125
141
12.0
290
     0
  0
SCALE
  5
5F
102
{ACAD_REACTORS
330
47
102
}
330
47
100
AcDbScale
 70
     0
300
3/16" = 1'-0"
140
0.1875
141
12.0
290
     0
  0
SCALE
  5
60
102
{ACAD_REACTORS
330
47
102
}
330
47
100
AcDbScale
 70
     0
300
1/4" = 1'-0"
140
0.25
141
12.0
290
     0
  0
SCALE
  5
61
102
{ACAD_REACTORS
330
47
102
}
330
47
100
AcDbScale
 70
     0
300
3/8" = 1'-0"
140
0.375
141
12.0
290
     0
  0
SCALE
  5
62
102
{ACAD_REACTORS
330
47
102
}
330
47
100
AcDbScale
 70
     0
300
1/2" = 1'-0"
140
0.5
141
12.0
290
     0
  0
SCALE
  5
63
102
{ACAD_REACTORS
330
47
102
}
330
47
100
AcDbScale
 70
     0
300
3/4" = 1'-0"
140
0.75
141
12.0
290
     0
  0
SCALE
  5
64
102
{ACAD_REACTORS
330
47
102
}
330
47
100
AcDbScale
 70
     0
300
1" = 1'-0"
140
1.0
141
12.0
290
     0
  0
SCALE
  5
65
102
{ACAD_REACTORS
330
47
102
}
330
47
100
AcDbScale
 70
     0
300
1-1/2" = 1'-0"
140
1.5
141
12.0
290
     0
  0
SCALE
  5
66
102
{ACAD_REACTORS
330
47
102
}
330
47
100
AcDbScale
 70
     0
300
3" = 1'-0"
140
3.0
141
12.0
290
     0
  0
SCALE
  5
67
102
{ACAD_REACTORS
330
47
102
}
330
47
100
AcDbScale
 70
     0
300
6" = 1'-0"
140
6.0
141
12.0
290
     0
  0
SCALE
  5
68
102
{ACAD_REACTORS
330
47
102
}
330
47
100
AcDbScale
 70
     0
300
1'-0" = 1'-0"
140
12.0
141
12.0
290
     0
  0
ENDSEC
  0
EOF
