  0
SECTION
  2
HEADER
  9
$ACADVER
  1
AC1015
  9
$ACADMAINTVER
 70
     6
  9
$DWGCODEPAGE
  3
ANSI_1252
  9
$INSBASE
 10
0.0
 20
0.0
 30
0.0
  9
$EXTMIN
 10
0.0
 20
0.0
 30
0.0
  9
$EXTMAX
 10
8.5
 20
11.0
 30
0.0
  9
$LIMMIN
 10
0.0
 20
0.0
  9
$LIMMAX
 10
8.5
 20
11.0
  9
$ORTHOMODE
 70
     0
  9
$REGENMODE
 70
     1
  9
$FILLMODE
 70
     1
  9
$QTEXTMODE
 70
     0
  9
$MIRRTEXT
 70
     1
  9
$LTSCALE
 40
1.0
  9
$ATTMODE
 70
     1
  9
$TEXTSIZE
 40
0.1377952756
  9
$TRACEWID
 40
0.05
  9
$TEXTSTYLE
  7
Standard
  9
$CLAYER
  8
0
  9
$CELTYPE
  6
ByLayer
  9
$CECOLOR
 62
   256
  9
$CELTSCALE
 40
1.0
  9
$DISPSILH
 70
     0
  9
$DIMSCALE
 40
1.0
  9
$DIMASZ
 40
0.13
  9
$DIMEXO
 40
0.0393700787
  9
$DIMDLI
 40
0.38
  9
$DIMRND
 40
0.0
  9
$DIMDLE
 40
0.0
  9
$DIMEXE
 40
0.0393700787
  9
$DIMTP
 40
0.0
  9
$DIMTM
 40
0.0
  9
$DIMTXT
 40
0.1377952756
  9
$DIMCEN
 40
0.09
  9
$DIMTSZ
 40
0.0
  9
$DIMTOL
 70
     0
  9
$DIMLIM
 70
     0
  9
$DIMTIH
 70
     1
  9
$DIMTOH
 70
     1
  9
$DIMSE1
 70
     0
  9
$DIMSE2
 70
     0
  9
$DIMTAD
 70
     1
  9
$DIMZIN
 70
     0
  9
$DIMBLK
  1

  9
$DIMASO
 70
     1
  9
$DIMSHO
 70
     1
  9
$DIMPOST
  1

  9
$DIMAPOST
  1

  9
$DIMALT
 70
     0
  9
$DIMALTD
 70
     2
  9
$DIMALTF
 40
25.4
  9
$DIMLFAC
 40
20.0
  9
$DIMTOFL
 70
     0
  9
$DIMTVP
 40
0.0
  9
$DIMTIX
 70
     0
  9
$DIMSOXD
 70
     0
  9
$DIMSAH
 70
     0
  9
$DIMBLK1
  1

  9
$DIMBLK2
  1

  9
$DIMSTYLE
  2
Standard
  9
$DIMCLRD
 70
     0
  9
$DIMCLRE
 70
     0
  9
$DIMCLRT
 70
     0
  9
$DIMTFAC
 40
1.0
  9
$DIMGAP
 40
0.06
  9
$DIMJUST
 70
     0
  9
$DIMSD1
 70
     0
  9
$DIMSD2
 70
     0
  9
$DIMTOLJ
 70
     1
  9
$DIMTZIN
 70
     0
  9
$DIMALTZ
 70
     0
  9
$DIMALTTZ
 70
     0
  9
$DIMUPT
 70
     0
  9
$DIMDEC
 70
     2
  9
$DIMTDEC
 70
     2
  9
$DIMALTU
 70
     2
  9
$DIMALTTD
 70
     2
  9
$DIMTXSTY
  7
Standard
  9
$DIMAUNIT
 70
     0
  9
$DIMADEC
 70
     2
  9
$DIMALTRND
 40
0.0
  9
$DIMAZIN
 70
     0
  9
$DIMDSEP
 70
    46
  9
$DIMATFIT
 70
     3
  9
$DIMFRAC
 70
     0
  9
$DIMLDRBLK
  1

  9
$DIMLUNIT
 70
     2
  9
$DIMLWD
 70
    -2
  9
$DIMLWE
 70
    -2
  9
$DIMTMOVE
 70
     0
  9
$LUNITS
 70
     2
  9
$LUPREC
 70
     2
  9
$SKETCHINC
 40
0.1
  9
$FILLETRAD
 40
0.5
  9
$AUNITS
 70
     0
  9
$AUPREC
 70
     2
  9
$MENU
  1
.
  9
$ELEVATION
 40
0.0
  9
$PELEVATION
 40
0.0
  9
$THICKNESS
 40
0.0
  9
$LIMCHECK
 70
     0
  9
$CHAMFERA
 40
0.0
  9
$CHAMFERB
 40
0.0
  9
$CHAMFERC
 40
0.0
  9
$CHAMFERD
 40
0.0
  9
$SKPOLY
 70
     0
  9
$TDCREATE
 40
2457223.813685197
  9
$TDUCREATE
 40
2457224.105351863
  9
$TDUPDATE
 40
2457223.813685555
  9
$TDUUPDATE
 40
2457224.105352222
  9
$TDINDWG
 40
0.0000000116
  9
$TDUSRTIMER
 40
0.0000000116
  9
$USRTIMER
 70
     1
  9
$ANGBASE
 50
0.0
  9
$ANGDIR
 70
     0
  9
$PDMODE
 70
     0
  9
$PDSIZE
 40
-1.0
  9
$PLINEWID
 40
0.0
  9
$SPLFRAME
 70
     0
  9
$SPLINETYPE
 70
     6
  9
$SPLINESEGS
 70
     8
  9
$HANDSEED
  5
16B
  9
$SURFTAB1
 70
     6
  9
$SURFTAB2
 70
     6
  9
$SURFTYPE
 70
     6
  9
$SURFU
 70
     6
  9
$SURFV
 70
     6
  9
$UCSBASE
  2

  9
$UCSNAME
  2

  9
$UCSORG
 10
0.0
 20
0.0
 30
0.0
  9
$UCSXDIR
 10
1.0
 20
0.0
 30
0.0
  9
$UCSYDIR
 10
0.0
 20
1.0
 30
0.0
  9
$UCSORTHOREF
  2

  9
$UCSORTHOVIEW
 70
     0
  9
$UCSORGTOP
 10
0.0
 20
0.0
 30
0.0
  9
$UCSORGBOTTOM
 10
0.0
 20
0.0
 30
0.0
  9
$UCSORGLEFT
 10
0.0
 20
0.0
 30
0.0
  9
$UCSORGRIGHT
 10
0.0
 20
0.0
 30
0.0
  9
$UCSORGFRONT
 10
0.0
 20
0.0
 30
0.0
  9
$UCSORGBACK
 10
0.0
 20
0.0
 30
0.0
  9
$PUCSBASE
  2

  9
$PUCSNAME
  2

  9
$PUCSORG
 10
0.0
 20
0.0
 30
0.0
  9
$PUCSXDIR
 10
1.0
 20
0.0
 30
0.0
  9
$PUCSYDIR
 10
0.0
 20
1.0
 30
0.0
  9
$PUCSORTHOREF
  2

  9
$PUCSORTHOVIEW
 70
     0
  9
$PUCSORGTOP
 10
0.0
 20
0.0
 30
0.0
  9
$PUCSORGBOTTOM
 10
0.0
 20
0.0
 30
0.0
  9
$PUCSORGLEFT
 10
0.0
 20
0.0
 30
0.0
  9
$PUCSORGRIGHT
 10
0.0
 20
0.0
 30
0.0
  9
$PUCSORGFRONT
 10
0.0
 20
0.0
 30
0.0
  9
$PUCSORGBACK
 10
0.0
 20
0.0
 30
0.0
  9
$USERI1
 70
     0
  9
$USERI2
 70
     0
  9
$USERI3
 70
     0
  9
$USERI4
 70
     0
  9
$USERI5
 70
     0
  9
$USERR1
 40
0.0
  9
$USERR2
 40
0.0
  9
$USERR3
 40
0.0
  9
$USERR4
 40
0.0
  9
$USERR5
 40
0.0
  9
$WORLDVIEW
 70
     1
  9
$SHADEDGE
 70
     3
  9
$SHADEDIF
 70
    70
  9
$TILEMODE
 70
     1
  9
$MAXACTVP
 70
    64
  9
$PINSBASE
 10
0.0
 20
0.0
 30
0.0
  9
$PLIMCHECK
 70
     0
  9
$PEXTMIN
 10
1.0000000000E+20
 20
1.0000000000E+20
 30
1.0000000000E+20
  9
$PEXTMAX
 10
-1.0000000000E+20
 20
-1.0000000000E+20
 30
-1.0000000000E+20
  9
$PLIMMIN
 10
0.0
 20
0.0
  9
$PLIMMAX
 10
12.0
 20
9.0
  9
$UNITMODE
 70
     0
  9
$VISRETAIN
 70
     1
  9
$PLINEGEN
 70
     0
  9
$PSLTSCALE
 70
     1
  9
$TREEDEPTH
 70
  3020
  9
$CMLSTYLE
  2
Standard
  9
$CMLJUST
 70
     0
  9
$CMLSCALE
 40
1.0
  9
$PROXYGRAPHICS
 70
     1
  9
$MEASUREMENT
 70
     0
  9
$CELWEIGHT
370
    -1
  9
$ENDCAPS
280
     0
  9
$JOINSTYLE
280
     0
  9
$LWDISPLAY
290
     1
  9
$INSUNITS
 70
     1
  9
$HYPERLINKBASE
  1

  9
$STYLESHEET
  1

  9
$XEDIT
290
     1
  9
$CEPSNTYPE
380
     0
  9
$PSTYLEMODE
290
     1
  9
$FINGERPRINTGUID
  2
{89906EC0-4BFA-4FF2-B5F9-EE8ED32CAD26}
  9
$VERSIONGUID
  2
{FAEB1C32-E019-11D5-929B-00C0DF256EC4}
  9
$EXTNAMES
290
     1
  9
$PSVPSCALE
 40
0.0
  9
$OLESTARTUP
290
     0
  0
ENDSEC
  0
SECTION
  2
CLASSES
  0
CLASS
  1
ACDBDICTIONARYWDFLT
  2
AcDbDictionaryWithDefault
  3
ObjectDBX Classes
 90
        0
280
     0
281
     0
  0
CLASS
  1
VISUALSTYLE
  2
AcDbVisualStyle
  3
ObjectDBX Classes
 90
     4095
280
     0
281
     0
  0
CLASS
  1
MATERIAL
  2
AcDbMaterial
  3
ObjectDBX Classes
 90
     1153
280
     0
281
     0
  0
CLASS
  1
SCALE
  2
AcDbScale
  3
ObjectDBX Classes
 90
     1153
280
     0
281
     0
  0
CLASS
  1
SUN
  2
AcDbSun
  3
SCENEOE
 90
     1153
280
     0
281
     0
  0
CLASS
  1
ACDBPLACEHOLDER
  2
AcDbPlaceHolder
  3
ObjectDBX Classes
 90
        0
280
     0
281
     0
  0
CLASS
  1
LAYOUT
  2
AcDbLayout
  3
ObjectDBX Classes
 90
        0
280
     0
281
     0
  0
ENDSEC
  0
SECTION
  2
TABLES
  0
TABLE
  2
VPORT
  5
8
330
0
100
AcDbSymbolTable
 70
     1
  0
VPORT
  5
29
330
8
100
AcDbSymbolTableRecord
100
AcDbViewportTableRecord
  2
*Active
 70
     0
 10
0.0
 20
0.0
 11
1.0
 21
1.0
 12
4.25
 22
5.5
 13
0.0
 23
0.0
 14
0.5
 24
0.5
 15
0.5
 25
0.5
 16
0.0
 26
0.0
 36
1.0
 17
0.0
 27
0.0
 37
0.0
 40
11.0
 41
0.7727272727
 42
50.0
 43
0.0
 44
0.0
 50
0.0
 51
0.0
 71
     0
 72
  2000
 73
     1
 74
     3
 75
     0
 76
     0
 77
     0
 78
     0
281
     0
 65
     1
110
0.0
120
0.0
130
0.0
111
1.0
121
0.0
131
0.0
112
0.0
122
1.0
132
0.0
 79
     0
146
0.0
  0
ENDTAB
  0
TABLE
  2
LTYPE
  5
5
330
0
100
AcDbSymbolTable
 70
     6
  0
LTYPE
  5
14
330
5
100
AcDbSymbolTableRecord
100
AcDbLinetypeTableRecord
  2
ByBlock
 70
     0
  3

 72
    65
 73
     0
 40
0.0
  0
LTYPE
  5
15
330
5
100
AcDbSymbolTableRecord
100
AcDbLinetypeTableRecord
  2
ByLayer
 70
     0
  3

 72
    65
 73
     0
 40
0.0
  0
LTYPE
  5
16
330
5
100
AcDbSymbolTableRecord
100
AcDbLinetypeTableRecord
  2
Continuous
 70
     0
  3
Solid line
 72
    65
 73
     0
 40
0.0
  0
LTYPE
  5
6A
330
5
100
AcDbSymbolTableRecord
100
AcDbLinetypeTableRecord
  2
HIDDEN
 70
     0
  3
Hidden __ __ __ __ __ __ __ __ __ __ __ __ __ __
 72
    65
 73
     2
 40
0.075
 49
0.05
 74
     0
 49
-0.025
 74
     0
  0
LTYPE
  5
6B
330
5
100
AcDbSymbolTableRecord
100
AcDbLinetypeTableRecord
  2
PHANTOM
 70
     0
  3
Phantom ______  __  __  ______  __  __  ______
 72
    65
 73
     6
 40
0.5
 49
0.25
 74
     0
 49
-0.05
 74
     0
 49
0.05
 74
     0
 49
-0.05
 74
     0
 49
0.05
 74
     0
 49
-0.05
 74
     0
  0
LTYPE
  5
6C
330
5
100
AcDbSymbolTableRecord
100
AcDbLinetypeTableRecord
  2
CENTER
 70
     0
  3
Center ____ _ ____ _ ____ _ ____ _ ____ _ ____
 72
    65
 73
     4
 40
0.4
 49
0.25
 74
     0
 49
-0.05
 74
     0
 49
0.05
 74
     0
 49
-0.05
 74
     0
  0
LTYPE
  5
6D
330
5
100
AcDbSymbolTableRecord
100
AcDbLinetypeTableRecord
  2
CENTERX2
 70
     0
  3
Center (2x) ________  __  ________  __  _____
 72
    65
 73
     4
 40
0.8
 49
0.5
 74
     0
 49
-0.1
 74
     0
 49
0.1
 74
     0
 49
-0.1
 74
     0
  0
LTYPE
  5
6E
330
5
100
AcDbSymbolTableRecord
100
AcDbLinetypeTableRecord
  2
DOT2
 70
     0
  3
Dot (.5x) ........................................
 72
    65
 73
     2
 40
0.025
 49
0.0
 74
     0
 49
-0.025
 74
     0
  0
ENDTAB
  0
TABLE
  2
LAYER
  5
2
330
0
100
AcDbSymbolTable
 70
     1
  0
LAYER
  5
10
330
2
100
AcDbSymbolTableRecord
100
AcDbLayerTableRecord
  2
0
 70
     0
 62
     7
  6
Continuous
370
    -3
390
F
  0
ENDTAB
  0
TABLE
  2
STYLE
  5
3
330
0
100
AcDbSymbolTable
 70
     1
  0
STYLE
  5
11
330
3
100
AcDbSymbolTableRecord
100
AcDbTextStyleTableRecord
  2
Standard
 70
     0
 40
0.0
 41
1.0
 50
0.0
 71
     0
 42
0.1377952756
  3
txt
  4

  0
ENDTAB
  0
TABLE
  2
VIEW
  5
6
330
0
100
AcDbSymbolTable
 70
     0
  0
ENDTAB
  0
TABLE
  2
UCS
  5
7
330
0
100
AcDbSymbolTable
 70
     0
  0
ENDTAB
  0
TABLE
  2
APPID
  5
9
330
0
100
AcDbSymbolTable
 70
     1
  0
APPID
  5
12
330
9
100
AcDbSymbolTableRecord
100
AcDbRegAppTableRecord
  2
ACAD
 70
     0
  0
ENDTAB
  0
TABLE
  2
DIMSTYLE
  5
A
330
0
100
AcDbSymbolTable
 70
     1
100
AcDbDimStyleTable
  0
DIMSTYLE
105
27
330
A
100
AcDbSymbolTableRecord
100
AcDbDimStyleTableRecord
  2
Standard
 70
     0
178
     0
340
11
  0
ENDTAB
  0
TABLE
  2
BLOCK_RECORD
  5
1
330
0
100
AcDbSymbolTable
 70
     5
  0
BLOCK_RECORD
  5
1F
330
1
100
AcDbSymbolTableRecord
100
AcDbBlockTableRecord
  2
*Model_Space
340
22
  0
BLOCK_RECORD
  5
1B
330
1
100
AcDbSymbolTableRecord
100
AcDbBlockTableRecord
  2
*Paper_Space
340
1E
  0
BLOCK_RECORD
  5
23
330
1
100
AcDbSymbolTableRecord
100
AcDbBlockTableRecord
  2
*Paper_Space0
340
26
  0
BLOCK_RECORD
  5
13B
330
1
100
AcDbSymbolTableRecord
100
AcDbBlockTableRecord
  2
SW_CENTERMARKSYMBOL_0
340
0
102
{BLKREFS
331
146
102
}
  0
BLOCK_RECORD
  5
147
330
1
100
AcDbSymbolTableRecord
100
AcDbBlockTableRecord
  2
SW_CENTERMARKSYMBOL_1
340
0
102
{BLKREFS
331
152
102
}
  0
BLOCK_RECORD
  5
153
330
1
100
AcDbSymbolTableRecord
100
AcDbBlockTableRecord
  2
SW_CENTERMARKSYMBOL_2
340
0
102
{BLKREFS
331
15E
102
}
  0
BLOCK_RECORD
  5
15F
330
1
100
AcDbSymbolTableRecord
100
AcDbBlockTableRecord
  2
SW_CENTERMARKSYMBOL_3
340
0
102
{BLKREFS
331
16A
102
}
  0
ENDTAB
  0
ENDSEC
  0
SECTION
  2
BLOCKS
  0
BLOCK
  5
20
330
1F
100
AcDbEntity
  8
0
100
AcDbBlockBegin
  2
*Model_Space
 70
     0
 10
0.0
 20
0.0
 30
0.0
  3
*Model_Space
  1
*Model_Space
  0
ENDBLK
  5
21
330
1F
100
AcDbEntity
  8
0
100
AcDbBlockEnd
  0
BLOCK
  5
1C
330
1B
100
AcDbEntity
 67
     1
  8
0
100
AcDbBlockBegin
  2
*Paper_Space
 70
     0
 10
0.0
 20
0.0
 30
0.0
  3
*Paper_Space
  1
*Paper_Space
  0
ENDBLK
  5
1D
330
1B
100
AcDbEntity
 67
     1
  8
0
100
AcDbBlockEnd
  0
BLOCK
  5
24
330
23
100
AcDbEntity
  8
0
100
AcDbBlockBegin
  2
*Paper_Space0
 70
     0
 10
0.0
 20
0.0
 30
0.0
  3
*Paper_Space0
  1
*Paper_Space0
  0
ENDBLK
  5
25
330
23
100
AcDbEntity
  8
0
100
AcDbBlockEnd
  0
BLOCK
  5
13C
330
13B
100
AcDbEntity
  8
0
100
AcDbBlockBegin
  2
SW_CENTERMARKSYMBOL_0
 70
     0
 10
0.0
 20
0.0
 30
0.0
  3
SW_CENTERMARKSYMBOL_0
  1
SW_CENTERMARKSYMBOL_0
  0
LINE
  5
13E
330
13B
100
AcDbEntity
  8
0
  6
Continuous
 62
     0
370
     0
100
AcDbLine
 10
0.0
 20
0.0
 30
0.0
 11
0.0
 21
0.0984251969
 31
0.0
  0
LINE
  5
13F
330
13B
100
AcDbEntity
  8
0
  6
Continuous
 62
     0
370
     0
100
AcDbLine
 10
0.0
 20
0.0
 30
0.0
 11
-0.0984251969
 21
0.0
 31
0.0
  0
LINE
  5
140
330
13B
100
AcDbEntity
  8
0
  6
Continuous
 62
     0
370
     0
100
AcDbLine
 10
0.0
 20
0.0
 30
0.0
 11
0.0
 21
-0.0984251969
 31
0.0
  0
LINE
  5
141
330
13B
100
AcDbEntity
  8
0
  6
Continuous
 62
     0
370
     0
100
AcDbLine
 10
0.0
 20
0.0
 30
0.0
 11
0.0984251969
 21
0.0
 31
0.0
  0
LINE
  5
142
330
13B
100
AcDbEntity
  8
0
  6
Continuous
 62
     0
370
     0
100
AcDbLine
 10
0.0
 20
0.0984251969
 30
0.0
 11
0.0
 21
0.1924251969
 31
0.0
  0
LINE
  5
143
330
13B
100
AcDbEntity
  8
0
  6
Continuous
 62
     0
370
     0
100
AcDbLine
 10
-0.0984251969
 20
0.0
 30
0.0
 11
-0.1924251969
 21
0.0
 31
0.0
  0
LINE
  5
144
330
13B
100
AcDbEntity
  8
0
  6
Continuous
 62
     0
370
     0
100
AcDbLine
 10
0.0
 20
-0.0984251969
 30
0.0
 11
0.0
 21
-0.1924251969
 31
0.0
  0
LINE
  5
145
330
13B
100
AcDbEntity
  8
0
  6
Continuous
 62
     0
370
     0
100
AcDbLine
 10
0.0984251969
 20
0.0
 30
0.0
 11
0.1924251969
 21
0.0
 31
0.0
  0
ENDBLK
  5
13D
330
13B
100
AcDbEntity
  8
0
100
AcDbBlockEnd
  0
BLOCK
  5
148
330
147
100
AcDbEntity
  8
0
100
AcDbBlockBegin
  2
SW_CENTERMARKSYMBOL_1
 70
     0
 10
0.0
 20
0.0
 30
0.0
  3
SW_CENTERMARKSYMBOL_1
  1
SW_CENTERMARKSYMBOL_1
  0
LINE
  5
14A
330
147
100
AcDbEntity
  8
0
  6
Continuous
 62
     0
370
     0
100
AcDbLine
 10
0.0
 20
0.0
 30
0.0
 11
0.0
 21
0.0984251969
 31
0.0
  0
LINE
  5
14B
330
147
100
AcDbEntity
  8
0
  6
Continuous
 62
     0
370
     0
100
AcDbLine
 10
0.0
 20
0.0
 30
0.0
 11
-0.0984251969
 21
0.0
 31
0.0
  0
LINE
  5
14C
330
147
100
AcDbEntity
  8
0
  6
Continuous
 62
     0
370
     0
100
AcDbLine
 10
0.0
 20
0.0
 30
0.0
 11
0.0
 21
-0.0984251969
 31
0.0
  0
LINE
  5
14D
330
147
100
AcDbEntity
  8
0
  6
Continuous
 62
     0
370
     0
100
AcDbLine
 10
0.0
 20
0.0
 30
0.0
 11
0.0984251969
 21
0.0
 31
0.0
  0
LINE
  5
14E
330
147
100
AcDbEntity
  8
0
  6
Continuous
 62
     0
370
     0
100
AcDbLine
 10
0.0
 20
0.0984251969
 30
0.0
 11
0.0
 21
0.1924251969
 31
0.0
  0
LINE
  5
14F
330
147
100
AcDbEntity
  8
0
  6
Continuous
 62
     0
370
     0
100
AcDbLine
 10
-0.0984251969
 20
0.0
 30
0.0
 11
-0.1924251969
 21
0.0
 31
0.0
  0
LINE
  5
150
330
147
100
AcDbEntity
  8
0
  6
Continuous
 62
     0
370
     0
100
AcDbLine
 10
0.0
 20
-0.0984251969
 30
0.0
 11
0.0
 21
-0.1924251969
 31
0.0
  0
LINE
  5
151
330
147
100
AcDbEntity
  8
0
  6
Continuous
 62
     0
370
     0
100
AcDbLine
 10
0.0984251969
 20
0.0
 30
0.0
 11
0.1924251969
 21
0.0
 31
0.0
  0
ENDBLK
  5
149
330
147
100
AcDbEntity
  8
0
100
AcDbBlockEnd
  0
BLOCK
  5
154
330
153
100
AcDbEntity
  8
0
100
AcDbBlockBegin
  2
SW_CENTERMARKSYMBOL_2
 70
     0
 10
0.0
 20
0.0
 30
0.0
  3
SW_CENTERMARKSYMBOL_2
  1
SW_CENTERMARKSYMBOL_2
  0
LINE
  5
156
330
153
100
AcDbEntity
  8
0
  6
Continuous
 62
     0
370
     0
100
AcDbLine
 10
0.0
 20
0.0
 30
0.0
 11
0.0
 21
0.0984251969
 31
0.0
  0
LINE
  5
157
330
153
100
AcDbEntity
  8
0
  6
Continuous
 62
     0
370
     0
100
AcDbLine
 10
0.0
 20
0.0
 30
0.0
 11
-0.0984251969
 21
0.0
 31
0.0
  0
LINE
  5
158
330
153
100
AcDbEntity
  8
0
  6
Continuous
 62
     0
370
     0
100
AcDbLine
 10
0.0
 20
0.0
 30
0.0
 11
0.0
 21
-0.0984251969
 31
0.0
  0
LINE
  5
159
330
153
100
AcDbEntity
  8
0
  6
Continuous
 62
     0
370
     0
100
AcDbLine
 10
0.0
 20
0.0
 30
0.0
 11
0.0984251969
 21
0.0
 31
0.0
  0
LINE
  5
15A
330
153
100
AcDbEntity
  8
0
  6
Continuous
 62
     0
370
     0
100
AcDbLine
 10
0.0
 20
0.0984251969
 30
0.0
 11
0.0
 21
0.1924251969
 31
0.0
  0
LINE
  5
15B
330
153
100
AcDbEntity
  8
0
  6
Continuous
 62
     0
370
     0
100
AcDbLine
 10
-0.0984251969
 20
0.0
 30
0.0
 11
-0.1924251969
 21
0.0
 31
0.0
  0
LINE
  5
15C
330
153
100
AcDbEntity
  8
0
  6
Continuous
 62
     0
370
     0
100
AcDbLine
 10
0.0
 20
-0.0984251969
 30
0.0
 11
0.0
 21
-0.1924251969
 31
0.0
  0
LINE
  5
15D
330
153
100
AcDbEntity
  8
0
  6
Continuous
 62
     0
370
     0
100
AcDbLine
 10
0.0984251969
 20
0.0
 30
0.0
 11
0.1924251969
 21
0.0
 31
0.0
  0
ENDBLK
  5
155
330
153
100
AcDbEntity
  8
0
100
AcDbBlockEnd
  0
BLOCK
  5
160
330
15F
100
AcDbEntity
  8
0
100
AcDbBlockBegin
  2
SW_CENTERMARKSYMBOL_3
 70
     0
 10
0.0
 20
0.0
 30
0.0
  3
SW_CENTERMARKSYMBOL_3
  1
SW_CENTERMARKSYMBOL_3
  0
LINE
  5
162
330
15F
100
AcDbEntity
  8
0
  6
Continuous
 62
     0
370
     0
100
AcDbLine
 10
0.0
 20
0.0
 30
0.0
 11
0.0
 21
0.0984251969
 31
0.0
  0
LINE
  5
163
330
15F
100
AcDbEntity
  8
0
  6
Continuous
 62
     0
370
     0
100
AcDbLine
 10
0.0
 20
0.0
 30
0.0
 11
-0.0984251969
 21
0.0
 31
0.0
  0
LINE
  5
164
330
15F
100
AcDbEntity
  8
0
  6
Continuous
 62
     0
370
     0
100
AcDbLine
 10
0.0
 20
0.0
 30
0.0
 11
0.0
 21
-0.0984251969
 31
0.0
  0
LINE
  5
165
330
15F
100
AcDbEntity
  8
0
  6
Continuous
 62
     0
370
     0
100
AcDbLine
 10
0.0
 20
0.0
 30
0.0
 11
0.0984251969
 21
0.0
 31
0.0
  0
LINE
  5
166
330
15F
100
AcDbEntity
  8
0
  6
Continuous
 62
     0
370
     0
100
AcDbLine
 10
0.0
 20
0.0984251969
 30
0.0
 11
0.0
 21
0.1924251969
 31
0.0
  0
LINE
  5
167
330
15F
100
AcDbEntity
  8
0
  6
Continuous
 62
     0
370
     0
100
AcDbLine
 10
-0.0984251969
 20
0.0
 30
0.0
 11
-0.1924251969
 21
0.0
 31
0.0
  0
LINE
  5
168
330
15F
100
AcDbEntity
  8
0
  6
Continuous
 62
     0
370
     0
100
AcDbLine
 10
0.0
 20
-0.0984251969
 30
0.0
 11
0.0
 21
-0.1924251969
 31
0.0
  0
LINE
  5
169
330
15F
100
AcDbEntity
  8
0
  6
Continuous
 62
     0
370
     0
100
AcDbLine
 10
0.0984251969
 20
0.0
 30
0.0
 11
0.1924251969
 21
0.0
 31
0.0
  0
ENDBLK
  5
161
330
15F
100
AcDbEntity
  8
0
100
AcDbBlockEnd
  0
ENDSEC
  0
SECTION
  2
ENTITIES
  0
SPLINE
  5
6F
330
1F
100
AcDbEntity
  8
0
  6
Continuous
 62
     7
370
    15
100
AcDbSpline
210
0.0
220
0.0
230
1.0
 70
     8
 71
     3
 72
    14
 73
    10
 74
     0
 42
0.000000001
 43
0.00000001
 40
0.0
 40
0.0
 40
0.0
 40
0.0
 40
0.166927672240915
 40
0.3338068883648583
 40
0.5001853790351298
 40
0.6250791916726759
 40
0.7500719492768201
 40
0.8750147521571278
 40
1.0
 40
1.0
 40
1.0
 40
1.0
 10
-1.403012382274068
 20
33.97521781900834
 30
0.0
 10
-1.372327343230754
 20
33.97571975515167
 30
0.0
 10
-1.310966172462027
 20
33.97672348173526
 30
0.0
 10
-1.219351151461558
 20
33.98545924275942
 30
0.0
 10
-1.137194083286235
 20
34.00874499492492
 30
0.0
 10
-1.073065817518014
 20
34.05268037595102
 30
0.0
 10
-1.029487454621437
 20
34.10690340889239
 30
0.0
 10
-1.000309268515506
 20
34.1707985998797
 30
0.0
 10
-0.997093651578932
 20
34.2169418011608
 30
0.0
 10
-0.9954855700585783
 20
34.2400173200219
 30
0.0
  0
LINE
  5
70
330
1F
100
AcDbEntity
  8
0
  6
Continuous
 62
     7
370
    15
100
AcDbLine
 10
-1.6765742354
 20
33.9786626859
 30
0.0
 11
-1.4030123823
 21
33.975217819
 31
0.0
  0
LINE
  5
71
330
1F
100
AcDbEntity
  8
0
  6
Continuous
 62
     7
370
    15
100
AcDbLine
 10
-1.6765742354
 20
34.4994946425
 30
0.0
 11
-1.6765742354
 21
33.9786626859
 31
0.0
  0
LINE
  5
72
330
1F
100
AcDbEntity
  8
0
  6
Continuous
 62
     7
370
    15
100
AcDbLine
 10
-1.3908051633
 20
34.4994946425
 30
0.0
 11
-1.6765742354
 21
34.4994946425
 31
0.0
  0
SPLINE
  5
73
330
1F
100
AcDbEntity
  8
0
  6
Continuous
 62
     7
370
    15
100
AcDbSpline
210
0.0
220
0.0
230
1.0
 70
     8
 71
     3
 72
    14
 73
    10
 74
     0
 42
0.000000001
 43
0.00000001
 40
0.0
 40
0.0
 40
0.0
 40
0.0
 40
0.1249701857773736
 40
0.2499101464386567
 40
0.3749140239210826
 40
0.4998126873935047
 40
0.6661876285123292
 40
0.8330681791000207
 40
1.0
 40
1.0
 40
1.0
 40
1.0
 10
-0.9954855700585783
 20
34.2400173200219
 30
0.0
 10
-0.9970980229215375
 20
34.2624800767027
 30
0.0
 10
-1.000322538661844
 20
34.30740015725305
 30
0.0
 10
-1.028876212129951
 20
34.36951076983988
 30
0.0
 10
-1.070550196456016
 20
34.42270836262185
 30
0.0
 10
-1.131779734998547
 20
34.46734239594343
 30
0.0
 10
-1.212040142840134
 20
34.48981808163111
 30
0.0
 10
-1.301160516718206
 20
34.49844615105851
 30
0.0
 10
-1.36092055491572
 20
34.49914510958025
 30
0.0
 10
-1.390805163292903
 20
34.49949464251773
 30
0.0
  0
SPLINE
  5
74
330
1F
100
AcDbEntity
  8
0
  6
Continuous
 62
     7
370
    15
100
AcDbSpline
210
0.0
220
0.0
230
1.0
 70
     8
 71
     3
 72
    14
 73
    10
 74
     0
 42
0.000000001
 43
0.00000001
 40
0.0
 40
0.0
 40
0.0
 40
0.0
 40
0.1669281383124453
 40
0.3337935239343561
 40
0.5002355952732729
 40
0.6251744348751332
 40
0.7501478543849094
 40
0.875063954740367
 40
1.0
 40
1.0
 40
1.0
 40
1.0
 10
-14.71180498463291
 20
33.97647092453235
 30
0.0
 10
-14.68075253332963
 20
33.97697804292674
 30
0.0
 10
-14.61865930415865
 20
33.97799208907634
 30
0.0
 10
-14.52585989187821
 20
33.98687575013458
 30
0.0
 10
-14.44296548982662
 20
34.01072920070349
 30
0.0
 10
-14.37696946695323
 20
34.05343281541266
 30
0.0
 10
-14.33196044394657
 20
34.10771800569611
 30
0.0
 10
-14.30201519030894
 20
34.1722010044524
 30
0.0
 10
-14.2985177737199
 20
34.21887181386936
 30
0.0
 10
-14.29676892583154
 20
34.24220908136915
 30
0.0
  0
LINE
  5
75
330
1F
100
AcDbEntity
  8
0
  6
Continuous
 62
     7
370
    15
100
AcDbLine
 10
-14.9978885064
 20
33.9786626859
 30
0.0
 11
-14.7118049846
 21
33.9764709245
 31
0.0
  0
LINE
  5
76
330
1F
100
AcDbEntity
  8
0
  6
Continuous
 62
     7
370
    15
100
AcDbLine
 10
-14.7049199442
 20
34.4994946425
 30
0.0
 11
-14.9978885064
 21
34.4994946425
 31
0.0
  0
SPLINE
  5
77
330
1F
100
AcDbEntity
  8
0
  6
Continuous
 62
     7
370
    15
100
AcDbSpline
210
0.0
220
0.0
230
1.0
 70
     8
 71
     3
 72
    14
 73
    10
 74
     0
 42
0.000000001
 43
0.00000001
 40
0.0
 40
0.0
 40
0.0
 40
0.0
 40
0.1249160685953296
 40
0.2498366744955015
 40
0.3747940251350394
 40
0.4997335916781905
 40
0.666181964749866
 40
0.8330661805971398
 40
1.0
 40
1.0
 40
1.0
 40
1.0
 10
-14.29676892583154
 20
34.24220908136915
 30
0.0
 10
-14.29846114157366
 20
34.26508993711153
 30
0.0
 10
-14.30184563452398
 20
34.31085247969367
 30
0.0
 10
-14.33287049084219
 20
34.37328727747416
 30
0.0
 10
-14.37700849506404
 20
34.42601897689298
 30
0.0
 10
-14.44085561183401
 20
34.46926856797705
 30
0.0
 10
-14.52292168663996
 20
34.49025603592482
 30
0.0
 10
-14.61366943654604
 20
34.49852629487065
 30
0.0
 10
-14.67450009525933
 20
34.49917182799447
 30
0.0
 10
-14.70491994416948
 20
34.49949464251773
 30
0.0
  0
LINE
  5
78
330
1F
100
AcDbEntity
  8
0
  6
Continuous
 62
     7
370
    15
100
AcDbLine
 10
-14.9978885064
 20
34.4994946425
 30
0.0
 11
-14.9978885064
 21
33.9786626859
 31
0.0
  0
LINE
  5
79
330
1F
100
AcDbEntity
  8
0
  6
Continuous
 62
     7
370
    15
100
AcDbLine
 10
3.752111212
 20
34.6998131818
 30
0.0
 11
3.752111212
 21
33.097250788
 31
0.0
  0
LINE
  5
7A
330
1F
100
AcDbEntity
  8
0
  6
Continuous
 62
     7
370
    15
100
AcDbLine
 10
3.6118877652
 20
34.6998131818
 30
0.0
 11
3.752111212
 21
34.6998131818
 31
0.0
  0
LINE
  5
7B
330
1F
100
AcDbEntity
  8
0
  6
Continuous
 62
     7
370
    15
100
AcDbLine
 10
3.6118877652
 20
33.097250788
 30
0.0
 11
3.6118877652
 21
34.6998131818
 31
0.0
  0
LINE
  5
7C
330
1F
100
AcDbEntity
  8
0
  6
Continuous
 62
     7
370
    15
100
AcDbLine
 10
3.752111212
 20
33.097250788
 30
0.0
 11
3.6118877652
 21
33.097250788
 31
0.0
  0
LINE
  5
7D
330
1F
100
AcDbEntity
  8
0
  6
Continuous
 62
     7
370
    15
100
AcDbLine
 10
1.0477851192
 20
33.5100997788
 30
0.0
 11
1.0477851192
 21
33.097250788
 31
0.0
  0
SPLINE
  5
7E
330
1F
100
AcDbEntity
  8
0
  6
Continuous
 62
     7
370
    15
100
AcDbSpline
210
0.0
220
0.0
230
1.0
 70
     8
 71
     3
 72
    10
 73
     6
 74
     0
 42
0.000000001
 43
0.00000001
 40
0.0
 40
0.0
 40
0.0
 40
0.0
 40
0.2798736308421699
 40
0.5599229644634216
 40
1.0
 40
1.0
 40
1.0
 40
1.0
 10
1.069381243090461
 20
33.81652866553231
 30
0.0
 10
1.064288570377157
 20
33.78824839840858
 30
0.0
 10
1.054100027804951
 20
33.73167011000004
 30
0.0
 10
1.04914878241944
 20
33.6290495668237
 30
0.0
 10
1.048302370650551
 20
33.55521865179188
 30
0.0
 10
1.047785119237393
 20
33.51009977875829
 30
0.0
  0
SPLINE
  5
7F
330
1F
100
AcDbEntity
  8
0
  6
Continuous
 62
     7
370
    15
100
AcDbSpline
210
0.0
220
0.0
230
1.0
 70
     8
 71
     3
 72
    12
 73
     8
 74
     0
 42
0.000000001
 43
0.00000001
 40
0.0
 40
0.0
 40
0.0
 40
0.0
 40
0.1867021507563427
 40
0.3734037827371112
 40
0.5602148923178193
 40
0.7801268363584586
 40
0.9999999999999999
 40
0.9999999999999999
 40
0.9999999999999999
 40
0.9999999999999999
 10
1.457815795861361
 20
34.11888378603349
 30
0.0
 10
1.4248999414831
 20
34.1166900066404
 30
0.0
 10
1.359068324187453
 20
34.11230245394994
 30
0.0
 10
1.266461538828813
 20
34.07378879913157
 30
0.0
 10
1.182544230514943
 20
34.01126035341143
 30
0.0
 10
1.108568681481449
 20
33.92660039300938
 30
0.0
 10
1.082442954628985
 20
33.8532170843697
 30
0.0
 10
1.069381243090461
 20
33.81652866553231
 30
0.0
  0
SPLINE
  5
80
330
1F
100
AcDbEntity
  8
0
  6
Continuous
 62
     7
370
    15
100
AcDbSpline
210
0.0
220
0.0
230
1.0
 70
     8
 71
     3
 72
    12
 73
     8
 74
     0
 42
0.000000001
 43
0.00000001
 40
0.0
 40
0.0
 40
0.0
 40
0.0
 40
0.1868244313159814
 40
0.3735406578184468
 40
0.5600872825909968
 40
0.7798964526186657
 40
0.9999999999999999
 40
0.9999999999999999
 40
0.9999999999999999
 40
0.9999999999999999
 10
1.752349566715435
 20
33.89415080883469
 30
0.0
 10
1.745515360004782
 20
33.91851317503082
 30
0.0
 10
1.731850904813448
 20
33.96722379724876
 30
0.0
 10
1.690263488532875
 20
34.0319414628128
 30
0.0
 10
1.627955869501005
 20
34.08398089621082
 30
0.0
 10
1.54708811154442
 20
34.11456234671494
 30
0.0
 10
1.487586506695327
 20
34.11744266378462
 30
0.0
 10
1.457815795861361
 20
34.11888378603349
 30
0.0
  0
SPLINE
  5
81
330
1F
100
AcDbEntity
  8
0
  6
Continuous
 62
     7
370
    15
100
AcDbSpline
210
0.0
220
0.0
230
1.0
 70
     8
 71
     3
 72
     9
 73
     5
 74
     0
 42
0.000000001
 43
0.00000001
 40
0.0
 40
0.0
 40
0.0
 40
0.0
 40
0.5602557083380802
 40
0.9999999999999999
 40
0.9999999999999999
 40
0.9999999999999999
 40
0.9999999999999999
 10
1.768937961751551
 20
33.63435903663807
 30
0.0
 10
1.769240353620183
 20
33.68311280754778
 30
0.0
 10
1.769780092643152
 20
33.77013337723427
 30
0.0
 10
1.757673410902051
 20
33.85627188969003
 30
0.0
 10
1.75234956671544
 20
33.89415080883469
 30
0.0
  0
LINE
  5
82
330
1F
100
AcDbEntity
  8
0
  6
Continuous
 62
     7
370
    15
100
AcDbLine
 10
1.7689379618
 20
33.097250788
 30
0.0
 11
1.7689379618
 21
33.6343590366
 31
0.0
  0
LINE
  5
83
330
1F
100
AcDbEntity
  8
0
  6
Continuous
 62
     7
370
    15
100
AcDbLine
 10
1.9091637552
 20
33.097250788
 30
0.0
 11
1.7689379618
 21
33.097250788
 31
0.0
  0
LINE
  5
84
330
1F
100
AcDbEntity
  8
0
  6
Continuous
 62
     7
370
    15
100
AcDbLine
 10
1.9091637552
 20
33.6803719451
 30
0.0
 11
1.9091637552
 21
33.097250788
 31
0.0
  0
SPLINE
  5
85
330
1F
100
AcDbEntity
  8
0
  6
Continuous
 62
     7
370
    15
100
AcDbSpline
210
0.0
220
0.0
230
1.0
 70
     8
 71
     3
 72
    14
 73
    10
 74
     0
 42
0.000000001
 43
0.00000001
 40
0.0
 40
0.0
 40
0.0
 40
0.0
 40
0.1400141804403625
 40
0.2799255006699925
 40
0.4198475109000274
 40
0.5597152276856263
 40
0.7062446285223517
 40
0.8530951621051164
 40
1.0
 40
1.0
 40
1.0
 40
1.0
 10
1.48223023382369
 20
34.25910957946649
 30
0.0
 10
1.520616468254052
 20
34.25678388471032
 30
0.0
 10
1.597360736998547
 20
34.2521342037496
 30
0.0
 10
1.704505125821309
 20
34.2056179907126
 30
0.0
 10
1.795078203508591
 20
34.13347218631581
 30
0.0
 10
1.861467661331735
 20
34.03533017487199
 30
0.0
 10
1.894127970642458
 20
33.92032415851248
 30
0.0
 10
1.906984976932175
 20
33.80065666305592
 30
0.0
 10
1.908437406267254
 20
33.72047179213557
 30
0.0
 10
1.909163755184553
 20
33.68037194509303
 30
0.0
  0
SPLINE
  5
86
330
1F
100
AcDbEntity
  8
0
  6
Continuous
 62
     7
370
    15
100
AcDbSpline
210
0.0
220
0.0
230
1.0
 70
     8
 71
     3
 72
    11
 73
     7
 74
     0
 42
0.000000001
 43
0.00000001
 40
0.0
 40
0.0
 40
0.0
 40
0.0
 40
0.2801033284141644
 40
0.5597783751083584
 40
0.7798656844069495
 40
1.0
 40
1.0
 40
1.0
 40
1.0
 10
1.047785119237393
 20
34.03312349674367
 30
0.0
 10
1.078283440575447
 20
34.0697940155525
 30
0.0
 10
1.139233450912016
 20
34.14307898345846
 30
0.0
 10
1.253084415557163
 20
34.21446098478948
 30
0.0
 10
1.370080234866097
 20
34.25309300105629
 30
0.0
 10
1.444844239769978
 20
34.25710391056985
 30
0.0
 10
1.48223023382369
 20
34.25910957946649
 30
0.0
  0
LINE
  5
87
330
1F
100
AcDbEntity
  8
0
  6
Continuous
 62
     7
370
    15
100
AcDbLine
 10
1.0477851192
 20
34.2390786642
 30
0.0
 11
1.0477851192
 21
34.0331234967
 31
0.0
  0
LINE
  5
88
330
1F
100
AcDbEntity
  8
0
  6
Continuous
 62
     7
370
    15
100
AcDbLine
 10
0.9075593258
 20
34.2390786642
 30
0.0
 11
1.0477851192
 21
34.2390786642
 31
0.0
  0
LINE
  5
89
330
1F
100
AcDbEntity
  8
0
  6
Continuous
 62
     7
370
    15
100
AcDbLine
 10
0.9075593258
 20
33.097250788
 30
0.0
 11
0.9075593258
 21
34.2390786642
 31
0.0
  0
LINE
  5
8A
330
1F
100
AcDbEntity
  8
0
  6
Continuous
 62
     7
370
    15
100
AcDbLine
 10
1.0477851192
 20
33.097250788
 30
0.0
 11
0.9075593258
 21
33.097250788
 31
0.0
  0
LINE
  5
8B
330
1F
100
AcDbEntity
  8
0
  6
Continuous
 62
     7
370
    15
100
AcDbLine
 10
-1.6765742354
 20
33.8184059772
 30
0.0
 11
-1.6765742354
 21
33.097250788
 31
0.0
  0
LINE
  5
8C
330
1F
100
AcDbEntity
  8
0
  6
Continuous
 62
     7
370
    15
100
AcDbLine
 10
-1.5648319529
 20
33.8184059772
 30
0.0
 11
-1.6765742354
 21
33.8184059772
 31
0.0
  0
SPLINE
  5
8D
330
1F
100
AcDbEntity
  8
0
  6
Continuous
 62
     7
370
    15
100
AcDbSpline
210
0.0
220
0.0
230
1.0
 70
     8
 71
     3
 72
    10
 73
     6
 74
     0
 42
0.000000001
 43
0.00000001
 40
0.0
 40
0.0
 40
0.0
 40
0.0
 40
0.2798629552857895
 40
0.5599204583736508
 40
1.0
 40
1.0
 40
1.0
 40
1.0
 10
-1.167008495277776
 20
33.84406882738601
 30
0.0
 10
-1.203780836609457
 20
33.83796405964357
 30
0.0
 10
-1.277351081706318
 20
33.82575028040611
 30
0.0
 10
-1.410495924346645
 20
33.82004964471943
 30
0.0
 10
-1.506291048135314
 20
33.81902943358027
 30
0.0
 10
-1.564831952920579
 20
33.81840597717878
 30
0.0
  0
SPLINE
  5
8E
330
1F
100
AcDbEntity
  8
0
  6
Continuous
 62
     7
370
    15
100
AcDbSpline
210
0.0
220
0.0
230
1.0
 70
     8
 71
     3
 72
    12
 73
     8
 74
     0
 42
0.000000001
 43
0.00000001
 40
0.0
 40
0.0
 40
0.0
 40
0.0
 40
0.1869196122339449
 40
0.3735997352403055
 40
0.5601879116754754
 40
0.7798870371272366
 40
1.0
 40
1.0
 40
1.0
 40
1.0
 10
-0.8552597766255766
 20
34.24064152614435
 30
0.0
 10
-0.8569240214582382
 20
34.20643065605142
 30
0.0
 10
-0.8602503788234596
 20
34.13805274826364
 30
0.0
 10
-0.894326388980061
 20
34.03976958729109
 30
0.0
 10
-0.9580688781167239
 20
33.95076902045518
 30
0.0
 10
-1.051214756692876
 20
33.87985383935926
 30
0.0
 10
-1.128386377757324
 20
33.85600464494224
 30
0.0
 10
-1.167008495277776
 20
33.84406882738601
 30
0.0
  0
SPLINE
  5
8F
330
1F
100
AcDbEntity
  8
0
  6
Continuous
 62
     7
370
    15
100
AcDbSpline
210
0.0
220
0.0
230
1.0
 70
     8
 71
     3
 72
    12
 73
     8
 74
     0
 42
0.000000001
 43
0.00000001
 40
0.0
 40
0.0
 40
0.0
 40
0.0
 40
0.1867627156310902
 40
0.3734436507653143
 40
0.5601773148448921
 40
0.7799085492775784
 40
1.0
 40
1.0
 40
1.0
 40
1.0
 10
-1.15448917323539
 20
34.63627556907947
 30
0.0
 10
-1.122537123270892
 20
34.62605312969718
 30
0.0
 10
-1.058647014649046
 20
34.60561272718025
 30
0.0
 10
-0.9764934270689749
 20
34.54565806045872
 30
0.0
 10
-0.9071637879157093
 20
34.46441886880435
 30
0.0
 10
-0.8621905877982584
 20
34.35895057753844
 30
0.0
 10
-0.8575713080851128
 20
34.28009940306995
 30
0.0
 10
-0.8552597766255766
 20
34.24064152614435
 30
0.0
  0
SPLINE
  5
90
330
1F
100
AcDbEntity
  8
0
  6
Continuous
 62
     7
370
    15
100
AcDbSpline
210
0.0
220
0.0
230
1.0
 70
     8
 71
     3
 72
     9
 73
     5
 74
     0
 42
0.000000001
 43
0.00000001
 40
0.0
 40
0.0
 40
0.0
 40
0.0
 40
0.5603162312636466
 40
1.0
 40
1.0
 40
1.0
 40
1.0
 10
-1.510371142056514
 20
34.65975135121855
 30
0.0
 10
-1.443572334126911
 20
34.65996340884868
 30
0.0
 10
-1.324356069806033
 20
34.66034186947198
 30
0.0
 10
-1.206367036200587
 20
34.64362548986479
 30
0.0
 10
-1.154489173235386
 20
34.63627556907946
 30
0.0
  0
LINE
  5
91
330
1F
100
AcDbEntity
  8
0
  6
Continuous
 62
     7
370
    15
100
AcDbLine
 10
-1.8167976822
 20
34.6597513512
 30
0.0
 11
-1.5103711421
 21
34.6597513512
 31
0.0
  0
LINE
  5
92
330
1F
100
AcDbEntity
  8
0
  6
Continuous
 62
     7
370
    15
100
AcDbLine
 10
-1.8167976822
 20
33.097250788
 30
0.0
 11
-1.8167976822
 21
34.6597513512
 31
0.0
  0
LINE
  5
93
330
1F
100
AcDbEntity
  8
0
  6
Continuous
 62
     7
370
    15
100
AcDbLine
 10
-1.6765742354
 20
33.097250788
 30
0.0
 11
-1.8167976822
 21
33.097250788
 31
0.0
  0
SPLINE
  5
94
330
1F
100
AcDbEntity
  8
0
  6
Continuous
 62
     7
370
    15
100
AcDbSpline
210
0.0
220
0.0
230
1.0
 70
     8
 71
     3
 72
    14
 73
    10
 74
     0
 42
0.000000001
 43
0.00000001
 40
0.0
 40
0.0
 40
0.0
 40
0.0
 40
0.1400915758386599
 40
0.2801210234545128
 40
0.4201213767629142
 40
0.5601722870827933
 40
0.7068051010716154
 40
0.8533576607209383
 40
1.0
 40
1.0
 40
1.0
 40
1.0
 10
-4.674809892856699
 20
33.07721987275724
 30
0.0
 10
-4.719378007433182
 20
33.07924717408278
 30
0.0
 10
-4.808494471388042
 20
33.08330087766036
 30
0.0
 10
-4.938112315378874
 20
33.12036969173176
 30
0.0
 10
-5.056344488930764
 20
33.18445064049259
 30
0.0
 10
-5.15887286831246
 20
33.2748016550398
 30
0.0
 10
-5.240876051034697
 20
33.38663259974316
 30
0.0
 10
-5.293606110341853
 20
33.51862456376974
 30
0.0
 10
-5.299452375486086
 20
33.61204763525267
 30
0.0
 10
-5.30237640315482
 20
33.6587734746004
 30
0.0
  0
SPLINE
  5
95
330
1F
100
AcDbEntity
  8
0
  6
Continuous
 62
     7
370
    15
100
AcDbSpline
210
0.0
220
0.0
230
1.0
 70
     8
 71
     3
 72
    12
 73
     8
 74
     0
 42
0.000000001
 43
0.00000001
 40
0.0
 40
0.0
 40
0.0
 40
0.0
 40
0.1866248737414613
 40
0.3732521298214406
 40
0.559944402861595
 40
0.7799105032562399
 40
1.0
 40
1.0
 40
1.0
 40
1.0
 10
-4.140517611713399
 20
33.3407662682468
 30
0.0
 10
-4.163635019664881
 20
33.30963926557448
 30
0.0
 10
-4.2098701306705
 20
33.24738486288166
 30
0.0
 10
-4.30246794408151
 20
33.17555835277447
 30
0.0
 10
-4.411843744757757
 20
33.11885959839219
 30
0.0
 10
-4.538006787227444
 20
33.0831329255585
 30
0.0
 10
-4.629200333761334
 20
33.0791912587863
 30
0.0
 10
-4.674809892856699
 20
33.07721987275724
 30
0.0
  0
LINE
  5
96
330
1F
100
AcDbEntity
  8
0
  6
Continuous
 62
     7
370
    15
100
AcDbLine
 10
-4.2578918291
 20
33.4177642054
 30
0.0
 11
-4.1405176117
 21
33.3407662682
 31
0.0
  0
SPLINE
  5
97
330
1F
100
AcDbEntity
  8
0
  6
Continuous
 62
     7
370
    15
100
AcDbSpline
210
0.0
220
0.0
230
1.0
 70
     8
 71
     3
 72
    11
 73
     7
 74
     0
 42
0.000000001
 43
0.00000001
 40
0.0
 40
0.0
 40
0.0
 40
0.0
 40
0.2799554211638787
 40
0.5597166753128211
 40
0.7798394435360754
 40
1.0
 40
1.0
 40
1.0
 40
1.0
 10
-4.672618131509447
 20
33.21744097291112
 30
0.0
 10
-4.627988806774955
 20
33.22013282105641
 30
0.0
 10
-4.538761110601051
 20
33.22551465037787
 30
0.0
 10
-4.421828871188328
 20
33.27251636113705
 30
0.0
 10
-4.327486245194731
 20
33.33881847276994
 30
0.0
 10
-4.281091295132747
 20
33.39144745554348
 30
0.0
 10
-4.257891829129748
 20
33.41776420542671
 30
0.0
  0
SPLINE
  5
98
330
1F
100
AcDbEntity
  8
0
  6
Continuous
 62
     7
370
    15
100
AcDbSpline
210
0.0
220
0.0
230
1.0
 70
     8
 71
     3
 72
    13
 73
     9
 74
     0
 42
0.000000001
 43
0.00000001
 40
0.0
 40
0.0
 40
0.0
 40
0.0
 40
0.1864647301943833
 40
0.3729905578291748
 40
0.5594745129885883
 40
0.7062881258240896
 40
0.853119333544388
 40
1.0
 40
1.0
 40
1.0
 40
1.0
 10
-5.162150609721818
 20
33.67129514328235
 30
0.0
 10
-5.157872296715964
 20
33.6249547213886
 30
0.0
 10
-5.149314268862867
 20
33.53225869359733
 30
0.0
 10
-5.08272523072071
 20
33.40714249512395
 30
0.0
 10
-4.991803252713874
 20
33.31360155566617
 30
0.0
 10
-4.887036682927432
 20
33.25538752759047
 30
0.0
 10
-4.781895099509565
 20
33.22260034970019
 30
0.0
 10
-4.709047876473124
 20
33.2191609582295
 30
0.0
 10
-4.672618131509455
 20
33.21744097291113
 30
0.0
  0
SPLINE
  5
99
330
1F
100
AcDbEntity
  8
0
  6
Continuous
 62
     7
370
    15
100
AcDbSpline
210
0.0
220
0.0
230
1.0
 70
     8
 71
     3
 72
    13
 73
     9
 74
     0
 42
0.000000001
 43
0.00000001
 40
0.0
 40
0.0
 40
0.0
 40
0.0
 40
0.1867545717834486
 40
0.3732676922034522
 40
0.5598318796778792
 40
0.7065806636749888
 40
0.8532344950893896
 40
1.0
 40
1.0
 40
1.0
 40
1.0
 10
-4.673556787332681
 20
34.11888378603349
 30
0.0
 10
-4.719608019610395
 20
34.11616116315592
 30
0.0
 10
-4.811650945420831
 20
34.11071943742707
 30
0.0
 10
-4.941445084760971
 20
34.05765993946173
 30
0.0
 10
-5.042429339394286
 20
33.97683685078015
 30
0.0
 10
-5.113840633466805
 20
33.8818055162208
 30
0.0
 10
-5.155306251920986
 20
33.77980525822979
 30
0.0
 10
-5.159868578324259
 20
33.70747435782199
 30
0.0
 10
-5.162150609721818
 20
33.67129514328235
 30
0.0
  0
SPLINE
  5
9A
330
1F
100
AcDbEntity
  8
0
  6
Continuous
 62
     7
370
    15
100
AcDbSpline
210
0.0
220
0.0
230
1.0
 70
     8
 71
     3
 72
    11
 73
     7
 74
     0
 42
0.000000001
 43
0.00000001
 40
0.0
 40
0.0
 40
0.0
 40
0.0
 40
0.279906120688673
 40
0.5596098525461513
 40
0.7797795023463843
 40
0.9999999999999999
 40
0.9999999999999999
 40
0.9999999999999999
 40
0.9999999999999999
 10
-4.257891829129748
 20
33.91856524679702
 30
0.0
 10
-4.287361123007171
 20
33.95245848270489
 30
0.0
 10
-4.346278402703708
 20
34.0202204476882
 30
0.0
 10
-4.456656194858293
 20
34.08251701825406
 30
0.0
 10
-4.567969974989835
 20
34.11429014672964
 30
0.0
 10
-4.638358474178029
 20
34.11735245507324
 30
0.0
 10
-4.673556787332681
 20
34.11888378603349
 30
0.0
  0
LINE
  5
9B
330
1F
100
AcDbEntity
  8
0
  6
Continuous
 62
     7
370
    15
100
AcDbLine
 10
-4.1405176117
 20
33.991494111
 30
0.0
 11
-4.2578918291
 21
33.9185652468
 31
0.0
  0
SPLINE
  5
9C
330
1F
100
AcDbEntity
  8
0
  6
Continuous
 62
     7
370
    15
100
AcDbSpline
210
0.0
220
0.0
230
1.0
 70
     8
 71
     3
 72
    11
 73
     7
 74
     0
 42
0.000000001
 43
0.00000001
 40
0.0
 40
0.0
 40
0.0
 40
0.0
 40
0.2800633394457558
 40
0.5601257462705809
 40
0.7800628883999607
 40
1.0
 40
1.0
 40
1.0
 40
1.0
 10
-4.663226879997985
 20
34.25910957946649
 30
0.0
 10
-4.605851298120987
 20
34.2551274917768
 30
0.0
 10
-4.491100325429736
 20
34.24716332965789
 30
0.0
 10
-4.340890702573827
 20
34.18789822422534
 30
0.0
 10
-4.217535989735318
 20
34.10344163115482
 30
0.0
 10
-4.166190403199489
 20
34.02880994931381
 30
0.0
 10
-4.14051761171339
 20
33.99149411098322
 30
0.0
  0
SPLINE
  5
9D
330
1F
100
AcDbEntity
  8
0
  6
Continuous
 62
     7
370
    15
100
AcDbSpline
210
0.0
220
0.0
230
1.0
 70
     8
 71
     3
 72
    14
 73
    10
 74
     0
 42
0.000000001
 43
0.00000001
 40
0.0
 40
0.0
 40
0.0
 40
0.0
 40
0.1399785405879714
 40
0.2799606120496257
 40
0.4199415855842173
 40
0.5598990719293684
 40
0.7065699594499913
 40
0.8532551189985796
 40
1.0
 40
1.0
 40
1.0
 40
1.0
 10
-5.30237640315482
 20
33.6587734746004
 30
0.0
 10
-5.299550615894729
 20
33.70447317355264
 30
0.0
 10
-5.293898970095763
 20
33.79587372420426
 30
0.0
 10
-5.244540342278209
 20
33.92534912790523
 30
0.0
 10
-5.170101019708518
 20
34.04106242645043
 30
0.0
 10
-5.068156817100906
 20
34.13751087141657
 30
0.0
 10
-4.944865955938734
 20
34.20814241787168
 30
0.0
 10
-4.806803121258353
 20
34.25199816676185
 30
0.0
 10
-4.711092120398599
 20
34.25673878694742
 30
0.0
 10
-4.663226879997985
 20
34.25910957946649
 30
0.0
  0
LINE
  5
9E
330
1F
100
AcDbEntity
  8
0
  6
Continuous
 62
     7
370
    15
100
AcDbLine
 10
-7.3456470925
 20
34.2390786642
 30
0.0
 11
-7.3456470925
 21
34.4215580495
 31
0.0
  0
LINE
  5
9F
330
1F
100
AcDbEntity
  8
0
  6
Continuous
 62
     7
370
    15
100
AcDbLine
 10
-7.5058991079
 20
34.2390786642
 30
0.0
 11
-7.3456470925
 21
34.2390786642
 31
0.0
  0
LINE
  5
A0
330
1F
100
AcDbEntity
  8
0
  6
Continuous
 62
     7
370
    15
100
AcDbLine
 10
-7.5058991079
 20
34.0988528708
 30
0.0
 11
-7.5058991079
 21
34.2390786642
 31
0.0
  0
LINE
  5
A1
330
1F
100
AcDbEntity
  8
0
  6
Continuous
 62
     7
370
    15
100
AcDbLine
 10
-7.3456470925
 20
34.0988528708
 30
0.0
 11
-7.5058991079
 21
34.0988528708
 31
0.0
  0
LINE
  5
A2
330
1F
100
AcDbEntity
  8
0
  6
Continuous
 62
     7
370
    15
100
AcDbLine
 10
-7.3456470925
 20
33.097250788
 30
0.0
 11
-7.3456470925
 21
34.0988528708
 31
0.0
  0
LINE
  5
A3
330
1F
100
AcDbEntity
  8
0
  6
Continuous
 62
     7
370
    15
100
AcDbLine
 10
-7.205421299
 20
33.097250788
 30
0.0
 11
-7.3456470925
 21
33.097250788
 31
0.0
  0
LINE
  5
A4
330
1F
100
AcDbEntity
  8
0
  6
Continuous
 62
     7
370
    15
100
AcDbLine
 10
-7.2047923996
 20
34.0988528708
 30
0.0
 11
-7.205421299
 21
33.097250788
 31
0.0
  0
LINE
  5
A5
330
1F
100
AcDbEntity
  8
0
  6
Continuous
 62
     7
370
    15
100
AcDbLine
 10
-6.965036236
 20
34.0988528708
 30
0.0
 11
-7.2047923996
 21
34.0988528708
 31
0.0
  0
LINE
  5
A6
330
1F
100
AcDbEntity
  8
0
  6
Continuous
 62
     7
370
    15
100
AcDbLine
 10
-6.965036236
 20
34.2390786642
 30
0.0
 11
-6.965036236
 21
34.0988528708
 31
0.0
  0
LINE
  5
A7
330
1F
100
AcDbEntity
  8
0
  6
Continuous
 62
     7
370
    15
100
AcDbLine
 10
-7.2044826432
 20
34.2390786642
 30
0.0
 11
-6.965036236
 21
34.2390786642
 31
0.0
  0
LINE
  5
A8
330
1F
100
AcDbEntity
  8
0
  6
Continuous
 62
     7
370
    15
100
AcDbLine
 10
-7.2044826432
 20
34.3974580613
 30
0.0
 11
-7.2044826432
 21
34.2390786642
 31
0.0
  0
SPLINE
  5
A9
330
1F
100
AcDbEntity
  8
0
  6
Continuous
 62
     7
370
    15
100
AcDbSpline
210
0.0
220
0.0
230
1.0
 70
     8
 71
     3
 72
    12
 73
     8
 74
     0
 42
0.000000001
 43
0.00000001
 40
0.0
 40
0.0
 40
0.0
 40
0.0
 40
0.2492907862424536
 40
0.3745208341656046
 40
0.4988581773139049
 40
0.7489763825406422
 40
1.0
 40
1.0
 40
1.0
 40
1.0
 10
-7.087108425778206
 20
34.57962299686815
 30
0.0
 10
-7.108683813276977
 20
34.57778402727362
 30
0.0
 10
-7.141097494686065
 20
34.57502125999716
 30
0.0
 10
-7.177383229762359
 20
34.55149589994711
 30
0.0
 10
-7.204744464046168
 20
34.51696044859577
 30
0.0
 10
-7.202924058268815
 20
34.4606671554236
 30
0.0
 10
-7.203962489508544
 20
34.41855312176519
 30
0.0
 10
-7.204482643194555
 20
34.39745806125303
 30
0.0
  0
SPLINE
  5
AA
330
1F
100
AcDbEntity
  8
0
  6
Continuous
 62
     7
370
    15
100
AcDbSpline
210
0.0
220
0.0
230
1.0
 70
     8
 71
     3
 72
     9
 73
     5
 74
     0
 42
0.000000001
 43
0.00000001
 40
0.0
 40
0.0
 40
0.0
 40
0.0
 40
0.5602188130339475
 40
1.0
 40
1.0
 40
1.0
 40
1.0
 10
-6.945005320698726
 20
34.54456420187034
 30
0.0
 10
-6.970659882587886
 20
34.55487594788919
 30
0.0
 10
-7.016453706879903
 20
34.57328258790009
 30
0.0
 10
-7.065526940742052
 20
34.57768631884579
 30
0.0
 10
-7.087108425778197
 20
34.57962299686815
 30
0.0
  0
LINE
  5
AB
330
1F
100
AcDbEntity
  8
0
  6
Continuous
 62
     7
370
    15
100
AcDbLine
 10
-6.9450053207
 20
34.6904266235
 30
0.0
 11
-6.9450053207
 21
34.5445642019
 31
0.0
  0
SPLINE
  5
AC
330
1F
100
AcDbEntity
  8
0
  6
Continuous
 62
     7
370
    15
100
AcDbSpline
210
0.0
220
0.0
230
1.0
 70
     8
 71
     3
 72
     9
 73
     5
 74
     0
 42
0.000000001
 43
0.00000001
 40
0.0
 40
0.0
 40
0.0
 40
0.0
 40
0.5597334638118002
 40
1.0
 40
1.0
 40
1.0
 40
1.0
 10
-7.115901693155916
 20
34.71984879030114
 30
0.0
 10
-7.08344193951596
 20
34.71753733398573
 30
0.0
 10
-7.025450492267278
 20
34.71340776792462
 30
0.0
 10
-6.969596128128923
 20
34.69745159326852
 30
0.0
 10
-6.945005320698726
 20
34.69042662352186
 30
0.0
  0
SPLINE
  5
AD
330
1F
100
AcDbEntity
  8
0
  6
Continuous
 62
     7
370
    15
100
AcDbSpline
210
0.0
220
0.0
230
1.0
 70
     8
 71
     3
 72
    12
 73
     8
 74
     0
 42
0.000000001
 43
0.00000001
 40
0.0
 40
0.0
 40
0.0
 40
0.0
 40
0.1874886217295769
 40
0.3747364161363125
 40
0.5607147937626435
 40
0.7799340117286607
 40
0.9999999999999999
 40
0.9999999999999999
 40
0.9999999999999999
 40
0.9999999999999999
 10
-7.3456470924508
 20
34.42155804951458
 30
0.0
 10
-7.345101208595936
 20
34.44858295509956
 30
0.0
 10
-7.344010142068758
 20
34.50259805303946
 30
0.0
 10
-7.334717042388281
 20
34.58393538124269
 30
0.0
 10
-7.291847531567734
 20
34.6611418219085
 30
0.0
 10
-7.211799094173979
 20
34.71243183350081
 30
0.0
 10
-7.147908545503277
 20
34.71737329629761
 30
0.0
 10
-7.115901693155916
 20
34.71984879030114
 30
0.0
  0
LINE
  5
AE
330
1F
100
AcDbEntity
  8
0
  6
Continuous
 62
     7
370
    15
100
AcDbLine
 10
-8.3472491752
 20
33.6381183532
 30
0.0
 11
-9.3688821732
 21
33.6381183532
 31
0.0
  0
SPLINE
  5
AF
330
1F
100
AcDbEntity
  8
0
  6
Continuous
 62
     7
370
    15
100
AcDbSpline
210
0.0
220
0.0
230
1.0
 70
     8
 71
     3
 72
    11
 73
     7
 74
     0
 42
0.000000001
 43
0.00000001
 40
0.0
 40
0.0
 40
0.0
 40
0.0
 40
0.2798452665606584
 40
0.5597435057975749
 40
0.7798458442002599
 40
1.0
 40
1.0
 40
1.0
 40
1.0
 10
-8.471508433071177
 20
34.03437660226768
 30
0.0
 10
-8.44934845301144
 20
34.0016089483425
 30
0.0
 10
-8.405024298168703
 20
33.93606743781324
 30
0.0
 10
-8.369638313811457
 20
33.83097979147789
 30
0.0
 10
-8.350564693889977
 20
33.73116953492474
 30
0.0
 10
-8.348354434805428
 20
33.66913784745432
 30
0.0
 10
-8.347249175191395
 20
33.63811835321012
 30
0.0
  0
SPLINE
  5
B0
330
1F
100
AcDbEntity
  8
0
  6
Continuous
 62
     7
370
    15
100
AcDbSpline
210
0.0
220
0.0
230
1.0
 70
     8
 71
     3
 72
    11
 73
     7
 74
     0
 42
0.000000001
 43
0.00000001
 40
0.0
 40
0.0
 40
0.0
 40
0.0
 40
0.2799893360320497
 40
0.5597350782424385
 40
0.7798346163947185
 40
1.0
 40
1.0
 40
1.0
 40
1.0
 10
-8.931308988082597
 20
34.25910957946649
 30
0.0
 10
-8.88161661466087
 20
34.25619301989317
 30
0.0
 10
-8.782275100732377
 20
34.25036243818567
 30
0.0
 10
-8.651761295071092
 20
34.19865822421678
 30
0.0
 10
-8.547217987662325
 20
34.12385514027093
 30
0.0
 10
-8.49674746737017
 20
34.0642057552971
 30
0.0
 10
-8.471508433071177
 20
34.03437660226768
 30
0.0
  0
SPLINE
  5
B1
330
1F
100
AcDbEntity
  8
0
  6
Continuous
 62
     7
370
    15
100
AcDbSpline
210
0.0
220
0.0
230
1.0
 70
     8
 71
     3
 72
    11
 73
     7
 74
     0
 42
0.000000001
 43
0.00000001
 40
0.0
 40
0.0
 40
0.0
 40
0.0
 40
0.2799331548591759
 40
0.559648953341199
 40
0.7797697004535348
 40
0.9999999999999999
 40
0.9999999999999999
 40
0.9999999999999999
 40
0.9999999999999999
 10
-9.377644525309716
 20
34.04626937154807
 30
0.0
 10
-9.345731843547219
 20
34.08224401219766
 30
0.0
 10
-9.281931258883803
 20
34.15416536069419
 30
0.0
 10
-9.163318446286267
 20
34.21973275370137
 30
0.0
 10
-9.044376635737626
 20
34.2544012848421
 30
0.0
 10
-8.969004454439814
 20
34.25753988764665
 30
0.0
 10
-8.931308988082597
 20
34.25910957946649
 30
0.0
  0
SPLINE
  5
B2
330
1F
100
AcDbEntity
  8
0
  6
Continuous
 62
     7
370
    15
100
AcDbSpline
210
0.0
220
0.0
230
1.0
 70
     8
 71
     3
 72
    11
 73
     7
 74
     0
 42
0.000000001
 43
0.00000001
 40
0.0
 40
0.0
 40
0.0
 40
0.0
 40
0.2799707403749392
 40
0.5598637666866174
 40
0.7799151598307718
 40
1.0
 40
1.0
 40
1.0
 40
1.0
 10
-9.509107966632824
 20
33.66503430894138
 30
0.0
 10
-9.50730732247517
 20
33.70343522878647
 30
0.0
 10
-9.503706533981305
 20
33.78022640917882
 30
0.0
 10
-9.47325167185198
 20
33.88353118424888
 30
0.0
 10
-9.430854836340668
 20
33.97299133950968
 30
0.0
 10
-9.39538219420421
 20
34.02184212343857
 30
0.0
 10
-9.377644525309725
 20
34.04626937154808
 30
0.0
  0
SPLINE
  5
B3
330
1F
100
AcDbEntity
  8
0
  6
Continuous
 62
     7
370
    15
100
AcDbSpline
210
0.0
220
0.0
230
1.0
 70
     8
 71
     3
 72
    14
 73
    10
 74
     0
 42
0.000000001
 43
0.00000001
 40
0.0
 40
0.0
 40
0.0
 40
0.0
 40
0.1400869236897959
 40
0.2800578866334348
 40
0.4199728311830661
 40
0.5599509690818102
 40
0.7066273666483553
 40
0.853298735201136
 40
1.0
 40
1.0
 40
1.0
 40
1.0
 10
-8.934749161674752
 20
33.07721987275724
 30
0.0
 10
-8.977679740862738
 20
33.07917668091245
 30
0.0
 10
-9.06350536228876
 20
33.08308867742191
 30
0.0
 10
-9.187715620819144
 20
33.12167399823675
 30
0.0
 10
-9.298092615622531
 20
33.19034345680482
 30
0.0
 10
-9.386638098268412
 20
33.28790026671607
 30
0.0
 10
-9.45581811180121
 20
33.40159891670073
 30
0.0
 10
-9.501553068834443
 20
33.53007364974669
 30
0.0
 10
-9.506589496287038
 20
33.62004436637684
 30
0.0
 10
-9.509107966632824
 20
33.66503430894138
 30
0.0
  0
SPLINE
  5
B4
330
1F
100
AcDbEntity
  8
0
  6
Continuous
 62
     7
370
    15
100
AcDbSpline
210
0.0
220
0.0
230
1.0
 70
     8
 71
     3
 72
    12
 73
     8
 74
     0
 42
0.000000001
 43
0.00000001
 40
0.0
 40
0.0
 40
0.0
 40
0.0
 40
0.1868318259512993
 40
0.3734631467408512
 40
0.5601303116068999
 40
0.7799355381797067
 40
1.0
 40
1.0
 40
1.0
 40
1.0
 10
-8.407341920994867
 20
33.39241111164115
 30
0.0
 10
-8.427868156977704
 20
33.35755087729097
 30
0.0
 10
-8.468898600489496
 20
33.28786782008027
 30
0.0
 10
-8.554045926007966
 20
33.2000081634472
 30
0.0
 10
-8.662249856431933
 20
33.12995432685913
 30
0.0
 10
-8.79177442873527
 20
33.08393721870081
 30
0.0
 10
-8.887072196256216
 20
33.07945986764073
 30
0.0
 10
-8.934749161674752
 20
33.07721987275724
 30
0.0
  0
LINE
  5
B5
330
1F
100
AcDbEntity
  8
0
  6
Continuous
 62
     7
370
    15
100
AcDbLine
 10
-8.5319156286
 20
33.457826036
 30
0.0
 11
-8.407341921
 21
33.3924111116
 31
0.0
  0
SPLINE
  5
B6
330
1F
100
AcDbEntity
  8
0
  6
Continuous
 62
     7
370
    15
100
AcDbSpline
210
0.0
220
0.0
230
1.0
 70
     8
 71
     3
 72
    11
 73
     7
 74
     0
 42
0.000000001
 43
0.00000001
 40
0.0
 40
0.0
 40
0.0
 40
0.0
 40
0.2799006693515333
 40
0.5597008008122074
 40
0.7795334257091976
 40
1.0
 40
1.0
 40
1.0
 40
1.0
 10
-8.952278559173655
 20
33.21744097291112
 30
0.0
 10
-8.904963032789894
 20
33.22138328982574
 30
0.0
 10
-8.810348975348733
 20
33.22926650760898
 30
0.0
 10
-8.686614617060904
 20
33.28303323722852
 30
0.0
 10
-8.595377868546954
 20
33.36572067045076
 30
0.0
 10
-8.553090004133194
 20
33.42709479166495
 30
0.0
 10
-8.531915628575442
 20
33.45782603596237
 30
0.0
  0
SPLINE
  5
B7
330
1F
100
AcDbEntity
  8
0
  6
Continuous
 62
     7
370
    15
100
AcDbSpline
210
0.0
220
0.0
230
1.0
 70
     8
 71
     3
 72
    13
 73
     9
 74
     0
 42
0.000000001
 43
0.00000001
 40
0.0
 40
0.0
 40
0.0
 40
0.0
 40
0.1867240770943581
 40
0.3732522424082955
 40
0.5597737233656077
 40
0.7064869549786058
 40
0.8531849514180696
 40
1.0
 40
1.0
 40
1.0
 40
1.0
 10
-9.368882173199822
 20
33.63811835321012
 30
0.0
 10
-9.365556606667013
 20
33.59701908420793
 30
0.0
 10
-9.358908962801445
 20
33.51486366774995
 30
0.0
 10
-9.307194777327823
 20
33.40043256067658
 30
0.0
 10
-9.230142099546248
 20
33.31419349345168
 30
0.0
 10
-9.141838848826886
 20
33.25506368591834
 30
0.0
 10
-9.049149445006814
 20
33.22293736650828
 30
0.0
 10
-8.984577438160423
 20
33.21927359114446
 30
0.0
 10
-8.952278559173655
 20
33.21744097291112
 30
0.0
  0
LINE
  5
B8
330
1F
100
AcDbEntity
  8
0
  6
Continuous
 62
     7
370
    15
100
AcDbLine
 10
-11.3720863387
 20
33.5100997788
 30
0.0
 11
-11.3720863387
 21
33.097250788
 31
0.0
  0
SPLINE
  5
B9
330
1F
100
AcDbEntity
  8
0
  6
Continuous
 62
     7
370
    15
100
AcDbSpline
210
0.0
220
0.0
230
1.0
 70
     8
 71
     3
 72
    10
 73
     6
 74
     0
 42
0.000000001
 43
0.00000001
 40
0.0
 40
0.0
 40
0.0
 40
0.0
 40
0.2798744871408607
 40
0.5599234877568399
 40
1.0
 40
1.0
 40
1.0
 40
1.0
 10
-11.3504878681884
 20
33.81652866553231
 30
0.0
 10
-11.35558152747408
 20
33.78824843051434
 30
0.0
 10
-11.36577202215552
 20
33.73167032656637
 30
0.0
 10
-11.37072242313572
 20
33.62904952692171
 30
0.0
 10
-11.37156899154391
 20
33.55521863665664
 30
0.0
 10
-11.37208633868103
 20
33.51009977875829
 30
0.0
  0
SPLINE
  5
BA
330
1F
100
AcDbEntity
  8
0
  6
Continuous
 62
     7
370
    15
100
AcDbSpline
210
0.0
220
0.0
230
1.0
 70
     8
 71
     3
 72
    12
 73
     8
 74
     0
 42
0.000000001
 43
0.00000001
 40
0.0
 40
0.0
 40
0.0
 40
0.0
 40
0.1866984404477452
 40
0.3734049114506671
 40
0.5602167290128713
 40
0.7801295064813913
 40
1.0
 40
1.0
 40
1.0
 40
1.0
 10
-10.96205800869662
 20
34.11888378603349
 30
0.0
 10
-10.99497301850824
 20
34.11668980484821
 30
0.0
 10
-11.06080445392159
 20
34.11230174810685
 30
0.0
 10
-11.15341183064185
 20
34.07378949812821
 30
0.0
 10
-11.2373292951424
 20
34.01126016877271
 30
0.0
 10
-11.31130584094584
 20
33.92660137408738
 30
0.0
 10
-11.33742802963303
 20
33.85321721648913
 30
0.0
 10
-11.3504878681884
 20
33.81652866553231
 30
0.0
  0
SPLINE
  5
BB
330
1F
100
AcDbEntity
  8
0
  6
Continuous
 62
     7
370
    15
100
AcDbSpline
210
0.0
220
0.0
230
1.0
 70
     8
 71
     3
 72
    12
 73
     8
 74
     0
 42
0.000000001
 43
0.00000001
 40
0.0
 40
0.0
 40
0.0
 40
0.0
 40
0.1868257935341992
 40
0.37354154055893
 40
0.5600876862892741
 40
0.7798854812979403
 40
1.0
 40
1.0
 40
1.0
 40
1.0
 10
-10.66752189120298
 20
33.89415080883469
 30
0.0
 10
-10.67435705409128
 20
33.91851311130187
 30
0.0
 10
-10.68802335373314
 20
33.96722336604243
 30
0.0
 10
-10.72961013105639
 20
34.03194160230187
 30
0.0
 10
-10.79191696892279
 20
34.0839795796461
 30
0.0
 10
-10.8727836993799
 20
34.11456366200226
 30
0.0
 10
-10.93228562572263
 20
34.1174430536645
 30
0.0
 10
-10.96205800869663
 20
34.1188837860335
 30
0.0
  0
SPLINE
  5
BC
330
1F
100
AcDbEntity
  8
0
  6
Continuous
 62
     7
370
    15
100
AcDbSpline
210
0.0
220
0.0
230
1.0
 70
     8
 71
     3
 72
     9
 73
     5
 74
     0
 42
0.000000001
 43
0.00000001
 40
0.0
 40
0.0
 40
0.0
 40
0.0
 40
0.5602557914095225
 40
0.9999999999999999
 40
0.9999999999999999
 40
0.9999999999999999
 40
0.9999999999999999
 10
-10.65093114952731
 20
33.63435903663807
 30
0.0
 10
-10.65062975825284
 20
33.68311280299629
 30
0.0
 10
-10.65009180526941
 20
33.77013335165596
 30
0.0
 10
-10.66219818210327
 20
33.85627188684767
 30
0.0
 10
-10.66752189120298
 20
33.89415080883469
 30
0.0
  0
LINE
  5
BD
330
1F
100
AcDbEntity
  8
0
  6
Continuous
 62
     7
370
    15
100
AcDbLine
 10
-10.6509311495
 20
33.097250788
 30
0.0
 11
-10.6509311495
 21
33.6343590366
 31
0.0
  0
LINE
  5
BE
330
1F
100
AcDbEntity
  8
0
  6
Continuous
 62
     7
370
    15
100
AcDbLine
 10
-10.5107100494
 20
33.097250788
 30
0.0
 11
-10.6509311495
 21
33.097250788
 31
0.0
  0
LINE
  5
BF
330
1F
100
AcDbEntity
  8
0
  6
Continuous
 62
     7
370
    15
100
AcDbLine
 10
-10.5107100494
 20
33.6803719451
 30
0.0
 11
-10.5107100494
 21
33.097250788
 31
0.0
  0
SPLINE
  5
C0
330
1F
100
AcDbEntity
  8
0
  6
Continuous
 62
     7
370
    15
100
AcDbSpline
210
0.0
220
0.0
230
1.0
 70
     8
 71
     3
 72
    14
 73
    10
 74
     0
 42
0.000000001
 43
0.00000001
 40
0.0
 40
0.0
 40
0.0
 40
0.0
 40
0.1400195998360328
 40
0.2799280035266807
 40
0.4198497414386373
 40
0.5597155828504597
 40
0.7062446985097154
 40
0.8530956366796519
 40
1.0
 40
1.0
 40
1.0
 40
1.0
 10
-10.93764357073429
 20
34.25910957946649
 30
0.0
 10
-10.89925568322002
 20
34.25678419127138
 30
0.0
 10
-10.82251039381722
 20
34.25213526158122
 30
0.0
 10
-10.7153659834502
 20
34.20561718476704
 30
0.0
 10
-10.62479309026675
 20
34.13347293540405
 30
0.0
 10
-10.55840610010978
 20
34.03532938790411
 30
0.0
 10
-10.52574762663139
 20
33.92032387500588
 30
0.0
 10
-10.51288135887602
 20
33.80065710624893
 30
0.0
 10
-10.51143390695678
 20
33.7204718598971
 30
0.0
 10
-10.51071004937343
 20
33.68037194509303
 30
0.0
  0
SPLINE
  5
C1
330
1F
100
AcDbEntity
  8
0
  6
Continuous
 62
     7
370
    15
100
AcDbSpline
210
0.0
220
0.0
230
1.0
 70
     8
 71
     3
 72
    15
 73
    11
 74
     0
 42
0.000000001
 43
0.00000001
 40
0.000001684275492
 40
0.000001684275492
 40
0.000001684275492
 40
0.000001684275492
 40
0.1409759662687614
 40
0.2735687809631727
 40
0.398988313804258
 40
0.51992978139242
 40
0.6381100215247415
 40
0.7565889007405993
 40
0.876859754410611
 40
0.9999970044237253
 40
0.9999970044237253
 40
0.9999970044237253
 40
0.9999970044237253
 10
-11.37208662072554
 20
34.03312372280702
 30
0.0
 10
-11.35711464106042
 20
34.05180328661582
 30
0.0
 10
-11.32806079855556
 20
34.0880518197344
 30
0.0
 10
-11.27967513974058
 20
34.13569473225829
 30
0.0
 10
-11.2285394699537
 20
34.17495599343899
 30
0.0
 10
-11.17496714696838
 20
34.2062523300213
 30
0.0
 10
-11.1188854460309
 20
34.22984457383765
 30
0.0
 10
-11.0606362183688
 20
34.24688293592946
 30
0.0
 10
-10.99987122757136
 20
34.25709929267433
 30
0.0
 10
-10.95854833236684
 20
34.25843426862492
 30
0.0
 10
-10.93764357083329
 20
34.2591095825309
 30
0.0
  0
LINE
  5
C2
330
1F
100
AcDbEntity
  8
0
  6
Continuous
 62
     7
370
    15
100
AcDbLine
 10
-11.3720863387
 20
34.2390786642
 30
0.0
 11
-11.3720863387
 21
34.0331234967
 31
0.0
  0
LINE
  5
C3
330
1F
100
AcDbEntity
  8
0
  6
Continuous
 62
     7
370
    15
100
AcDbLine
 10
-11.5123121321
 20
34.2390786642
 30
0.0
 11
-11.3720863387
 21
34.2390786642
 31
0.0
  0
LINE
  5
C4
330
1F
100
AcDbEntity
  8
0
  6
Continuous
 62
     7
370
    15
100
AcDbLine
 10
-11.5123121321
 20
33.097250788
 30
0.0
 11
-11.5123121321
 21
34.2390786642
 31
0.0
  0
LINE
  5
C5
330
1F
100
AcDbEntity
  8
0
  6
Continuous
 62
     7
370
    15
100
AcDbLine
 10
-11.3720863387
 20
33.097250788
 30
0.0
 11
-11.5123121321
 21
33.097250788
 31
0.0
  0
LINE
  5
C6
330
1F
100
AcDbEntity
  8
0
  6
Continuous
 62
     7
370
    15
100
AcDbLine
 10
-13.2150337955
 20
33.097250788
 30
0.0
 11
-13.2150337955
 21
33.457826036
 31
0.0
  0
LINE
  5
C7
330
1F
100
AcDbEntity
  8
0
  6
Continuous
 62
     7
370
    15
100
AcDbLine
 10
-13.0748126953
 20
33.097250788
 30
0.0
 11
-13.2150337955
 21
33.097250788
 31
0.0
  0
LINE
  5
C8
330
1F
100
AcDbEntity
  8
0
  6
Continuous
 62
     7
370
    15
100
AcDbLine
 10
-13.0748126953
 20
33.457826036
 30
0.0
 11
-13.0748126953
 21
33.097250788
 31
0.0
  0
LINE
  5
C9
330
1F
100
AcDbEntity
  8
0
  6
Continuous
 62
     7
370
    15
100
AcDbLine
 10
-12.8945250713
 20
33.457826036
 30
0.0
 11
-13.0748126953
 21
33.457826036
 31
0.0
  0
LINE
  5
CA
330
1F
100
AcDbEntity
  8
0
  6
Continuous
 62
     7
370
    15
100
AcDbLine
 10
-12.8945250713
 20
33.6180827447
 30
0.0
 11
-12.8945250713
 21
33.457826036
 31
0.0
  0
LINE
  5
CB
330
1F
100
AcDbEntity
  8
0
  6
Continuous
 62
     7
370
    15
100
AcDbLine
 10
-13.0748126953
 20
33.6180827447
 30
0.0
 11
-12.8945250713
 21
33.6180827447
 31
0.0
  0
LINE
  5
CC
330
1F
100
AcDbEntity
  8
0
  6
Continuous
 62
     7
370
    15
100
AcDbLine
 10
-13.0748126953
 20
34.6998131818
 30
0.0
 11
-13.0748126953
 21
33.6180827447
 31
0.0
  0
LINE
  5
CD
330
1F
100
AcDbEntity
  8
0
  6
Continuous
 62
     7
370
    15
100
AcDbLine
 10
-13.1032962063
 20
34.6998131818
 30
0.0
 11
-13.0748126953
 21
34.6998131818
 31
0.0
  0
LINE
  5
CE
330
1F
100
AcDbEntity
  8
0
  6
Continuous
 62
     7
370
    15
100
AcDbLine
 10
-13.9562198999
 20
33.457826036
 30
0.0
 11
-13.1032962063
 21
34.6998131818
 31
0.0
  0
LINE
  5
CF
330
1F
100
AcDbEntity
  8
0
  6
Continuous
 62
     7
370
    15
100
AcDbLine
 10
-13.2150337955
 20
33.457826036
 30
0.0
 11
-13.9562198999
 21
33.457826036
 31
0.0
  0
CIRCLE
  5
D0
330
1F
100
AcDbEntity
  8
0
  6
Continuous
 62
     7
370
    15
100
AcDbCircle
 10
-10.0654605263
 20
6.0782236842
 30
0.0
 40
0.0939999999999923
  0
CIRCLE
  5
D1
330
1F
100
AcDbEntity
  8
0
  6
Continuous
 62
     7
370
    15
100
AcDbCircle
 10
9.9345394737
 20
6.0782236842
 30
0.0
 40
0.0939999999999976
  0
LINE
  5
D2
330
1F
100
AcDbEntity
  8
0
  6
Continuous
 62
     7
370
    15
100
AcDbLine
 10
-27.6720418269
 20
45.4382235307
 30
0.0
 11
1.5411215002
 21
-33.2817763158
 31
0.0
  0
LINE
  5
D3
330
1F
100
AcDbEntity
  8
0
  6
Continuous
 62
     7
370
    15
100
AcDbLine
 10
7.3279581168
 20
45.4382235307
 30
0.0
 11
-27.6720418269
 21
45.4382235307
 31
0.0
  0
LINE
  5
D4
330
1F
100
AcDbEntity
  8
0
  6
Continuous
 62
     7
370
    15
100
AcDbLine
 10
36.5411214439
 20
-33.2817763158
 30
0.0
 11
7.3279581168
 21
45.4382235307
 31
0.0
  0
LINE
  5
D5
330
1F
100
AcDbEntity
  8
0
  6
Continuous
 62
     7
370
    15
100
AcDbLine
 10
1.5411215002
 20
-33.2817763158
 30
0.0
 11
36.5411214439
 21
-33.2817763158
 31
0.0
  0
CIRCLE
  5
D6
330
1F
100
AcDbEntity
  8
0
  6
Continuous
 62
     7
370
    15
100
AcDbCircle
 10
19.9345394737
 20
6.0782236842
 30
0.0
 40
0.0939999999999976
  0
CIRCLE
  5
D7
330
1F
100
AcDbEntity
  8
0
  6
Continuous
 62
     7
370
    15
100
AcDbCircle
 10
-0.0654605263
 20
6.0782236842
 30
0.0
 40
0.0939999999999974
  0
LINE
  5
D8
330
1F
100
AcDbEntity
  8
0
  6
Continuous
 62
     7
370
    15
100
AcDbLine
 10
-14.9978885064
 20
33.8184059772
 30
0.0
 11
-14.9978885064
 21
33.097250788
 31
0.0
  0
LINE
  5
D9
330
1F
100
AcDbEntity
  8
0
  6
Continuous
 62
     7
370
    15
100
AcDbLine
 10
-14.8839544626
 20
33.8184059772
 30
0.0
 11
-14.9978885064
 21
33.8184059772
 31
0.0
  0
LINE
  5
DA
330
1F
100
AcDbEntity
  8
0
  6
Continuous
 62
     7
370
    15
100
AcDbLine
 10
-14.3099148006
 20
33.097250788
 30
0.0
 11
-14.8839544626
 21
33.8184059772
 31
0.0
  0
LINE
  5
DB
330
1F
100
AcDbEntity
  8
0
  6
Continuous
 62
     7
370
    15
100
AcDbLine
 10
-14.1365122171
 20
33.097250788
 30
0.0
 11
-14.3099148006
 21
33.097250788
 31
0.0
  0
LINE
  5
DC
330
1F
100
AcDbEntity
  8
0
  6
Continuous
 62
     7
370
    15
100
AcDbLine
 10
-14.7105518791
 20
33.8184059772
 30
0.0
 11
-14.1365122171
 21
33.097250788
 31
0.0
  0
SPLINE
  5
DD
330
1F
100
AcDbEntity
  8
0
  6
Continuous
 62
     7
370
    15
100
AcDbSpline
210
0.0
220
0.0
230
1.0
 70
     8
 71
     3
 72
    14
 73
    10
 74
     0
 42
0.000000001
 43
0.00000001
 40
0.0
 40
0.0
 40
0.0
 40
0.0
 40
0.1399938054803487
 40
0.2799171123084079
 40
0.4197673892310567
 40
0.5597075352201163
 40
0.7063020338623592
 40
0.8531268878970389
 40
1.0
 40
1.0
 40
1.0
 40
1.0
 10
-14.15654313239854
 20
34.24189463166837
 30
0.0
 10
-14.15870795410423
 20
34.20485480159938
 30
0.0
 10
-14.16303650734582
 20
34.13079379413026
 30
0.0
 10
-14.20588845994839
 20
34.02654886177225
 30
0.0
 10
-14.27537390830216
 20
33.93857940875814
 30
0.0
 10
-14.37000581046433
 20
33.87482068091856
 30
0.0
 10
-14.4791619395866
 20
33.83807178976807
 30
0.0
 10
-14.59440279174995
 20
33.82120822316131
 30
0.0
 10
-14.67183127584903
 20
33.81934016148787
 30
0.0
 10
-14.71055187910889
 20
33.81840597717878
 30
0.0
  0
SPLINE
  5
DE
330
1F
100
AcDbEntity
  8
0
  6
Continuous
 62
     7
370
    15
100
AcDbSpline
210
0.0
220
0.0
230
1.0
 70
     8
 71
     3
 72
    12
 73
     8
 74
     0
 42
0.000000001
 43
0.00000001
 40
0.0
 40
0.0
 40
0.0
 40
0.0
 40
0.18681404234811
 40
0.3735248543090627
 40
0.56028472899584
 40
0.7800192039723995
 40
1.0
 40
1.0
 40
1.0
 40
1.0
 10
-14.47141992158168
 20
34.63846733042672
 30
0.0
 10
-14.43848775872792
 20
34.6288246105108
 30
0.0
 10
-14.37264163079549
 20
34.60954449908844
 30
0.0
 10
-14.2868650364386
 20
34.55064384413227
 30
0.0
 10
-14.21384367532235
 20
34.46947715627912
 30
0.0
 10
-14.16431375786923
 20
34.36297594267566
 30
0.0
 10
-14.15913430803546
 20
34.28227013867918
 30
0.0
 10
-14.15654313239854
 20
34.24189463166837
 30
0.0
  0
SPLINE
  5
DF
330
1F
100
AcDbEntity
  8
0
  6
Continuous
 62
     7
370
    15
100
AcDbSpline
210
0.0
220
0.0
230
1.0
 70
     8
 71
     3
 72
     9
 73
     5
 74
     0
 42
0.000000001
 43
0.00000001
 40
0.0
 40
0.0
 40
0.0
 40
0.0
 40
0.5602421585638596
 40
1.0
 40
1.0
 40
1.0
 40
1.0
 10
-14.82542457875633
 20
34.65975135121855
 30
0.0
 10
-14.75904097326855
 20
34.65996555621972
 30
0.0
 10
-14.64055005916464
 20
34.66034789981508
 30
0.0
 10
-14.52307882010247
 20
34.64515050428187
 30
0.0
 10
-14.47141992158167
 20
34.63846733042671
 30
0.0
  0
LINE
  5
E0
330
1F
100
AcDbEntity
  8
0
  6
Continuous
 62
     7
370
    15
100
AcDbLine
 10
-15.1381142999
 20
34.6597513512
 30
0.0
 11
-14.8254245788
 21
34.6597513512
 31
0.0
  0
LINE
  5
E1
330
1F
100
AcDbEntity
  8
0
  6
Continuous
 62
     7
370
    15
100
AcDbLine
 10
-15.1381142999
 20
33.097250788
 30
0.0
 11
-15.1381142999
 21
34.6597513512
 31
0.0
  0
LINE
  5
E2
330
1F
100
AcDbEntity
  8
0
  6
Continuous
 62
     7
370
    15
100
AcDbLine
 10
-14.9978885064
 20
33.097250788
 30
0.0
 11
-15.1381142999
 21
33.097250788
 31
0.0
  0
LINE
  5
E3
330
1F
100
AcDbEntity
  8
0
  6
Continuous
 62
     7
370
    15
100
AcDbLine
 10
-11.8728873801
 20
34.6597513512
 30
0.0
 11
-11.8728873801
 21
33.097250788
 31
0.0
  0
LINE
  5
E4
330
1F
100
AcDbEntity
  8
0
  6
Continuous
 62
     7
370
    15
100
AcDbLine
 10
-12.0131131735
 20
34.6597513512
 30
0.0
 11
-11.8728873801
 21
34.6597513512
 31
0.0
  0
LINE
  5
E5
330
1F
100
AcDbEntity
  8
0
  6
Continuous
 62
     7
370
    15
100
AcDbLine
 10
-12.0131131735
 20
33.097250788
 30
0.0
 11
-12.0131131735
 21
34.6597513512
 31
0.0
  0
LINE
  5
E6
330
1F
100
AcDbEntity
  8
0
  6
Continuous
 62
     7
370
    15
100
AcDbLine
 10
-11.8728873801
 20
33.097250788
 30
0.0
 11
-12.0131131735
 21
33.097250788
 31
0.0
  0
LINE
  5
E7
330
1F
100
AcDbEntity
  8
0
  6
Continuous
 62
     7
370
    15
100
AcDbLine
 10
-10.2502940711
 20
34.0988528708
 30
0.0
 11
-10.2502940711
 21
34.2390786642
 31
0.0
  0
LINE
  5
E8
330
1F
100
AcDbEntity
  8
0
  6
Continuous
 62
     7
370
    15
100
AcDbLine
 10
-10.0499708385
 20
34.0988528708
 30
0.0
 11
-10.2502940711
 21
34.0988528708
 31
0.0
  0
LINE
  5
E9
330
1F
100
AcDbEntity
  8
0
  6
Continuous
 62
     7
370
    15
100
AcDbLine
 10
-10.0499708385
 20
33.097250788
 30
0.0
 11
-10.0499708385
 21
34.0988528708
 31
0.0
  0
LINE
  5
EA
330
1F
100
AcDbEntity
  8
0
  6
Continuous
 62
     7
370
    15
100
AcDbLine
 10
-9.9097497384
 20
33.097250788
 30
0.0
 11
-10.0499708385
 21
33.097250788
 31
0.0
  0
LINE
  5
EB
330
1F
100
AcDbEntity
  8
0
  6
Continuous
 62
     7
370
    15
100
AcDbLine
 10
-9.9097497384
 20
34.0988528708
 30
0.0
 11
-9.9097497384
 21
33.097250788
 31
0.0
  0
LINE
  5
EC
330
1F
100
AcDbEntity
  8
0
  6
Continuous
 62
     7
370
    15
100
AcDbLine
 10
-9.7094265059
 20
34.0988528708
 30
0.0
 11
-9.9097497384
 21
34.0988528708
 31
0.0
  0
LINE
  5
ED
330
1F
100
AcDbEntity
  8
0
  6
Continuous
 62
     7
370
    15
100
AcDbLine
 10
-9.7094265059
 20
34.2390786642
 30
0.0
 11
-9.7094265059
 21
34.0988528708
 31
0.0
  0
LINE
  5
EE
330
1F
100
AcDbEntity
  8
0
  6
Continuous
 62
     7
370
    15
100
AcDbLine
 10
-9.9097497384
 20
34.2390786642
 30
0.0
 11
-9.7094265059
 21
34.2390786642
 31
0.0
  0
LINE
  5
EF
330
1F
100
AcDbEntity
  8
0
  6
Continuous
 62
     7
370
    15
100
AcDbLine
 10
-9.9097497384
 20
34.6998131818
 30
0.0
 11
-9.9097497384
 21
34.2390786642
 31
0.0
  0
LINE
  5
F0
330
1F
100
AcDbEntity
  8
0
  6
Continuous
 62
     7
370
    15
100
AcDbLine
 10
-10.0499708385
 20
34.6998131818
 30
0.0
 11
-9.9097497384
 21
34.6998131818
 31
0.0
  0
LINE
  5
F1
330
1F
100
AcDbEntity
  8
0
  6
Continuous
 62
     7
370
    15
100
AcDbLine
 10
-10.0499708385
 20
34.2390786642
 30
0.0
 11
-10.0499708385
 21
34.6998131818
 31
0.0
  0
LINE
  5
F2
330
1F
100
AcDbEntity
  8
0
  6
Continuous
 62
     7
370
    15
100
AcDbLine
 10
-10.2502940711
 20
34.2390786642
 30
0.0
 11
-10.0499708385
 21
34.2390786642
 31
0.0
  0
LINE
  5
F3
330
1F
100
AcDbEntity
  8
0
  6
Continuous
 62
     7
370
    15
100
AcDbLine
 10
-7.9666383187
 20
33.4809873684
 30
0.0
 11
-7.9666383187
 21
33.097250788
 31
0.0
  0
SPLINE
  5
F4
330
1F
100
AcDbEntity
  8
0
  6
Continuous
 62
     7
370
    15
100
AcDbSpline
210
0.0
220
0.0
230
1.0
 70
     8
 71
     3
 72
    10
 73
     6
 74
     0
 42
0.000000001
 43
0.00000001
 40
0.0
 40
0.0
 40
0.0
 40
0.0
 40
0.2798063394008913
 40
0.5598847274979455
 40
1.0
 40
1.0
 40
1.0
 40
1.0
 10
-7.941599674622374
 20
33.87286678804284
 30
0.0
 10
-7.947737393137555
 20
33.83666625482018
 30
0.0
 10
-7.960018797717906
 20
33.76422999150303
 30
0.0
 10
-7.965263448928123
 20
33.63303420490463
 30
0.0
 10
-7.966116818639213
 20
33.53866005622714
 30
0.0
 10
-7.966638318707163
 20
33.48098736840068
 30
0.0
  0
SPLINE
  5
F5
330
1F
100
AcDbEntity
  8
0
  6
Continuous
 62
     7
370
    15
100
AcDbSpline
210
0.0
220
0.0
230
1.0
 70
     8
 71
     3
 72
    11
 73
     7
 74
     0
 42
0.000000001
 43
0.00000001
 40
0.0
 40
0.0
 40
0.0
 40
0.0
 40
0.2779138380954036
 40
0.5579235770857065
 40
0.7788622642467212
 40
1.0
 40
1.0
 40
1.0
 40
1.0
 10
-7.714674936076318
 20
34.11888378603349
 30
0.0
 10
-7.747742453097575
 20
34.11172496896478
 30
0.0
 10
-7.814126867448015
 20
34.09735334625591
 30
0.0
 10
-7.879756579701671
 20
34.02527209188525
 30
0.0
 10
-7.919065941512606
 20
33.94878227068826
 30
0.0
 10
-7.934086175923899
 20
33.89817954369111
 30
0.0
 10
-7.941599674622374
 20
33.87286678804284
 30
0.0
  0
SPLINE
  5
F6
330
1F
100
AcDbEntity
  8
0
  6
Continuous
 62
     7
370
    15
100
AcDbSpline
210
0.0
220
0.0
230
1.0
 70
     8
 71
     3
 72
     9
 73
     5
 74
     0
 42
0.000000001
 43
0.00000001
 40
0.0
 40
0.0
 40
0.0
 40
0.0
 40
0.5603811462020515
 40
1.0
 40
1.0
 40
1.0
 40
1.0
 10
-7.642994484135015
 20
34.09853842106488
 30
0.0
 10
-7.655805805685985
 20
34.10448470801801
 30
0.0
 10
-7.678667605441047
 20
34.1150958554369
 30
0.0
 10
-7.703679316381258
 20
34.11772705923547
 30
0.0
 10
-7.714674936076327
 20
34.1188837860335
 30
0.0
  0
LINE
  5
F7
330
1F
100
AcDbEntity
  8
0
  6
Continuous
 62
     7
370
    15
100
AcDbLine
 10
-7.565996547
 20
34.2199864048
 30
0.0
 11
-7.6429944841
 21
34.0985384211
 31
0.0
  0
SPLINE
  5
F8
330
1F
100
AcDbEntity
  8
0
  6
Continuous
 62
     7
370
    15
100
AcDbSpline
210
0.0
220
0.0
230
1.0
 70
     8
 71
     3
 72
     9
 73
     5
 74
     0
 42
0.000000001
 43
0.00000001
 40
0.0
 40
0.0
 40
0.0
 40
0.0
 40
0.5592455916575089
 40
1.0
 40
1.0
 40
1.0
 40
1.0
 10
-7.688068736766736
 20
34.25910957946649
 30
0.0
 10
-7.663824436921222
 20
34.25621656827664
 30
0.0
 10
-7.6204726426341
 20
34.25104350793784
 30
0.0
 10
-7.582661829518701
 20
34.22948736831825
 30
0.0
 10
-7.565996546955089
 20
34.21998640475407
 30
0.0
  0
SPLINE
  5
F9
330
1F
100
AcDbEntity
  8
0
  6
Continuous
 62
     7
370
    15
100
AcDbSpline
210
0.0
220
0.0
230
1.0
 70
     8
 71
     3
 72
    11
 73
     7
 74
     0
 42
0.000000001
 43
0.00000001
 40
0.0
 40
0.0
 40
0.0
 40
0.0
 40
0.2803325961558339
 40
0.5602086638530456
 40
0.7801940104770375
 40
1.0
 40
1.0
 40
1.0
 40
1.0
 10
-7.966638318707155
 20
34.07099825921118
 30
0.0
 10
-7.948154882260897
 20
34.09818469928759
 30
0.0
 10
-7.911218110094678
 20
34.15251330566077
 30
0.0
 10
-7.842231616773546
 20
34.21379615401092
 30
0.0
 10
-7.765508790631009
 20
34.25223260946521
 30
0.0
 10
-7.713875068911978
 20
34.2568178794592
 30
0.0
 10
-7.688068736766745
 20
34.2591095794665
 30
0.0
  0
LINE
  5
FA
330
1F
100
AcDbEntity
  8
0
  6
Continuous
 62
     7
370
    15
100
AcDbLine
 10
-7.9666383187
 20
34.2390786642
 30
0.0
 11
-7.9666383187
 21
34.0709982592
 31
0.0
  0
LINE
  5
FB
330
1F
100
AcDbEntity
  8
0
  6
Continuous
 62
     7
370
    15
100
AcDbLine
 10
-8.1068641121
 20
34.2390786642
 30
0.0
 11
-7.9666383187
 21
34.2390786642
 31
0.0
  0
LINE
  5
FC
330
1F
100
AcDbEntity
  8
0
  6
Continuous
 62
     7
370
    15
100
AcDbLine
 10
-8.1068641121
 20
33.097250788
 30
0.0
 11
-8.1068641121
 21
34.2390786642
 31
0.0
  0
LINE
  5
FD
330
1F
100
AcDbEntity
  8
0
  6
Continuous
 62
     7
370
    15
100
AcDbLine
 10
-7.9666383187
 20
33.097250788
 30
0.0
 11
-8.1068641121
 21
33.097250788
 31
0.0
  0
SPLINE
  5
FE
330
1F
100
AcDbEntity
  8
0
  6
Continuous
 62
     7
370
    15
100
AcDbSpline
210
0.0
220
0.0
230
1.0
 70
     8
 71
     3
 72
    11
 73
     7
 74
     0
 42
0.000000001
 43
0.00000001
 40
0.0
 40
0.0
 40
0.0
 40
0.0
 40
0.2799806005727073
 40
0.5597488710212486
 40
0.7798129354173073
 40
1.0
 40
1.0
 40
1.0
 40
1.0
 10
-6.185036713254264
 20
34.25910957946649
 30
0.0
 10
-6.134746244009041
 20
34.25613455103912
 30
0.0
 10
-6.034203444523805
 20
34.25018675036984
 30
0.0
 10
-5.902031897322714
 20
34.19780417318521
 30
0.0
 10
-5.797067802030723
 20
34.12058389946304
 30
0.0
 10
-5.747726589214981
 20
34.05873460525592
 30
0.0
 10
-5.723049090174717
 20
34.02780131822594
 30
0.0
  0
SPLINE
  5
FF
330
1F
100
AcDbEntity
  8
0
  6
Continuous
 62
     7
370
    15
100
AcDbSpline
210
0.0
220
0.0
230
1.0
 70
     8
 71
     3
 72
    14
 73
    10
 74
     0
 42
0.000000001
 43
0.00000001
 40
0.0
 40
0.0
 40
0.0
 40
0.0
 40
0.1400228964931167
 40
0.2799717001855887
 40
0.4199662264286851
 40
0.560027047950464
 40
0.7066673203399807
 40
0.8532964055218462
 40
1.0
 40
1.0
 40
1.0
 40
1.0
 10
-6.784748611997901
 20
33.67129514328235
 30
0.0
 10
-6.782312411275416
 20
33.71491635776599
 30
0.0
 10
-6.77744129894055
 20
33.80213570466576
 30
0.0
 10
-6.732370405664449
 20
33.92654463812455
 30
0.0
 10
-6.660986116021314
 20
34.03684108681593
 30
0.0
 10
-6.566193866207589
 20
34.1309121730615
 30
0.0
 10
-6.452693334396008
 20
34.20499104873327
 30
0.0
 10
-6.322100572695133
 20
34.25163981810185
 30
0.0
 10
-6.230732402529895
 20
34.25661923740495
 30
0.0
 10
-6.185036713254264
 20
34.25910957946649
 30
0.0
  0
SPLINE
  5
100
330
1F
100
AcDbEntity
  8
0
  6
Continuous
 62
     7
370
    15
100
AcDbSpline
210
0.0
220
0.0
230
1.0
 70
     8
 71
     3
 72
    14
 73
    10
 74
     0
 42
0.000000001
 43
0.00000001
 40
0.0
 40
0.0
 40
0.0
 40
0.0
 40
0.1400483031497024
 40
0.2800133970092767
 40
0.4200251814405218
 40
0.5600971107330559
 40
0.7067211346815265
 40
0.8533021472632469
 40
1.0
 40
1.0
 40
1.0
 40
1.0
 10
-6.189420235948769
 20
33.07721987275724
 30
0.0
 10
-6.23311903396772
 20
33.07968034890059
 30
0.0
 10
-6.320490666492427
 20
33.08459983930258
 30
0.0
 10
-6.445955013696025
 20
33.12730558328516
 30
0.0
 10
-6.557591008858838
 20
33.19723657210237
 30
0.0
 10
-6.653858111680735
 20
33.29025386303702
 30
0.0
 10
-6.729407326902009
 20
33.40327547328597
 30
0.0
 10
-6.776940844337114
 20
33.53392695198477
 30
0.0
 10
-6.782145331634418
 20
33.62549358635736
 30
0.0
 10
-6.784748611997901
 20
33.67129514328235
 30
0.0
  0
SPLINE
  5
101
330
1F
100
AcDbEntity
  8
0
  6
Continuous
 62
     7
370
    15
100
AcDbSpline
210
0.0
220
0.0
230
1.0
 70
     8
 71
     3
 72
    11
 73
     7
 74
     0
 42
0.000000001
 43
0.00000001
 40
0.0
 40
0.0
 40
0.0
 40
0.0
 40
0.2799907872910912
 40
0.5597202742296818
 40
0.7798634315049395
 40
1.0
 40
1.0
 40
1.0
 40
1.0
 10
-5.723049090174708
 20
33.29475335979183
 30
0.0
 10
-5.757024686122437
 20
33.25818972423737
 30
0.0
 10
-5.824944170420376
 20
33.18509657600425
 30
0.0
 10
-5.948437421669487
 20
33.11790441661158
 30
0.0
 10
-6.072100076632892
 20
33.08259855354364
 30
0.0
 10
-6.150313906333116
 20
33.07901274846553
 30
0.0
 10
-6.189420235948769
 20
33.07721987275724
 30
0.0
  0
LINE
  5
102
330
1F
100
AcDbEntity
  8
0
  6
Continuous
 62
     7
370
    15
100
AcDbLine
 10
-5.7230490902
 20
33.097250788
 30
0.0
 11
-5.7230490902
 21
33.2947533598
 31
0.0
  0
LINE
  5
103
330
1F
100
AcDbEntity
  8
0
  6
Continuous
 62
     7
370
    15
100
AcDbLine
 10
-5.5828232967
 20
33.097250788
 30
0.0
 11
-5.7230490902
 21
33.097250788
 31
0.0
  0
LINE
  5
104
330
1F
100
AcDbEntity
  8
0
  6
Continuous
 62
     7
370
    15
100
AcDbLine
 10
-5.5828232967
 20
34.2390786642
 30
0.0
 11
-5.5828232967
 21
33.097250788
 31
0.0
  0
LINE
  5
105
330
1F
100
AcDbEntity
  8
0
  6
Continuous
 62
     7
370
    15
100
AcDbLine
 10
-5.7230490902
 20
34.2390786642
 30
0.0
 11
-5.5828232967
 21
34.2390786642
 31
0.0
  0
LINE
  5
106
330
1F
100
AcDbEntity
  8
0
  6
Continuous
 62
     7
370
    15
100
AcDbLine
 10
-5.7230490902
 20
34.0278013182
 30
0.0
 11
-5.7230490902
 21
34.2390786642
 31
0.0
  0
LINE
  5
107
330
1F
100
AcDbEntity
  8
0
  6
Continuous
 62
     7
370
    15
100
AcDbLine
 10
-2.7382737572
 20
33.6381183532
 30
0.0
 11
-3.7599067552
 21
33.6381183532
 31
0.0
  0
SPLINE
  5
108
330
1F
100
AcDbEntity
  8
0
  6
Continuous
 62
     7
370
    15
100
AcDbSpline
210
0.0
220
0.0
230
1.0
 70
     8
 71
     3
 72
    11
 73
     7
 74
     0
 42
0.000000001
 43
0.00000001
 40
0.0
 40
0.0
 40
0.0
 40
0.0
 40
0.2798426514492565
 40
0.5597430529091995
 40
0.7798456177294201
 40
0.9999999999999999
 40
0.9999999999999999
 40
0.9999999999999999
 40
0.9999999999999999
 10
-2.862533015100505
 20
34.03437660226768
 30
0.0
 10
-2.840374242774157
 20
34.00160875220552
 30
0.0
 10
-2.7960521253041
 20
33.93606628991076
 30
0.0
 10
-2.76066229564693
 20
33.83098030772504
 30
0.0
 10
-2.741589421898229
 20
33.73116947730942
 30
0.0
 10
-2.739379065498212
 20
33.66913782824771
 30
0.0
 10
-2.738273757220722
 20
33.63811835321012
 30
0.0
  0
SPLINE
  5
109
330
1F
100
AcDbEntity
  8
0
  6
Continuous
 62
     7
370
    15
100
AcDbSpline
210
0.0
220
0.0
230
1.0
 70
     8
 71
     3
 72
    11
 73
     7
 74
     0
 42
0.000000001
 43
0.00000001
 40
0.0
 40
0.0
 40
0.0
 40
0.0
 40
0.2799810014915944
 40
0.5597271973045929
 40
0.7798342594005718
 40
1.0
 40
1.0
 40
1.0
 40
1.0
 10
-3.322333570111924
 20
34.25910957946649
 30
0.0
 10
-3.272642713726136
 20
34.25619295692023
 30
0.0
 10
-3.173302674122329
 20
34.25036215784911
 30
0.0
 10
-3.042790183908103
 20
34.19865662124228
 30
0.0
 10
-2.938242922471715
 20
34.12385677380673
 30
0.0
 10
-2.887771893110168
 20
34.06420597615248
 30
0.0
 10
-2.862533015100505
 20
34.03437660226768
 30
0.0
  0
SPLINE
  5
10A
330
1F
100
AcDbEntity
  8
0
  6
Continuous
 62
     7
370
    15
100
AcDbSpline
210
0.0
220
0.0
230
1.0
 70
     8
 71
     3
 72
    11
 73
     7
 74
     0
 42
0.000000001
 43
0.00000001
 40
0.0
 40
0.0
 40
0.0
 40
0.0
 40
0.2799375644438139
 40
0.5596433620804098
 40
0.7797713127051368
 40
0.9999999999999999
 40
0.9999999999999999
 40
0.9999999999999999
 40
0.9999999999999999
 10
-3.76867380061816
 20
34.04626937154807
 30
0.0
 10
-3.736759280666666
 20
34.08224362666336
 30
0.0
 10
-3.672956663535512
 20
34.15416235297308
 30
0.0
 10
-3.554345692323917
 20
34.21973510738428
 30
0.0
 10
-3.435402479527702
 20
34.2544005365819
 30
0.0
 10
-3.360028954105524
 20
34.25753965913477
 30
0.0
 10
-3.322333570111924
 20
34.25910957946649
 30
0.0
  0
SPLINE
  5
10B
330
1F
100
AcDbEntity
  8
0
  6
Continuous
 62
     7
370
    15
100
AcDbSpline
210
0.0
220
0.0
230
1.0
 70
     8
 71
     3
 72
    11
 73
     7
 74
     0
 42
0.000000001
 43
0.00000001
 40
0.0
 40
0.0
 40
0.0
 40
0.0
 40
0.2799725394742861
 40
0.5598673643859186
 40
0.7799201715861173
 40
1.0
 40
1.0
 40
1.0
 40
1.0
 10
-3.900132548662151
 20
33.66503430894138
 30
0.0
 10
-3.898331878475021
 20
33.70343521100503
 30
0.0
 10
-3.894731037929406
 20
33.78022635583941
 30
0.0
 10
-3.864276538291668
 20
33.88353137853735
 30
0.0
 10
-3.821878981147847
 20
33.97298998395516
 30
0.0
 10
-3.786409586656289
 20
34.02184190928944
 30
0.0
 10
-3.76867380061816
 20
34.04626937154807
 30
0.0
  0
SPLINE
  5
10C
330
1F
100
AcDbEntity
  8
0
  6
Continuous
 62
     7
370
    15
100
AcDbSpline
210
0.0
220
0.0
230
1.0
 70
     8
 71
     3
 72
    14
 73
    10
 74
     0
 42
0.000000001
 43
0.00000001
 40
0.0
 40
0.0
 40
0.0
 40
0.0
 40
0.1400866661335325
 40
0.2800573717341072
 40
0.4199763926631429
 40
0.5599507783421236
 40
0.7066295574292313
 40
0.8532990049181701
 40
0.9999999999999999
 40
0.9999999999999999
 40
0.9999999999999999
 40
0.9999999999999999
 10
-3.325773743704079
 20
33.07721987275724
 30
0.0
 10
-3.368704398479931
 20
33.07917658316645
 30
0.0
 10
-3.454530171019099
 20
33.08308838426479
 30
0.0
 10
-3.57874057876379
 20
33.12167556770796
 30
0.0
 10
-3.689121882133795
 20
33.19034006662692
 30
0.0
 10
-3.777661139310638
 20
33.28790372109791
 30
0.0
 10
-3.846849883704519
 20
33.40159615824173
 30
0.0
 10
-3.89257591618995
 20
33.53007489049624
 30
0.0
 10
-3.897613490599543
 20
33.62004461116145
 30
0.0
 10
-3.900132548662151
 20
33.66503430894138
 30
0.0
  0
SPLINE
  5
10D
330
1F
100
AcDbEntity
  8
0
  6
Continuous
 62
     7
370
    15
100
AcDbSpline
210
0.0
220
0.0
230
1.0
 70
     8
 71
     3
 72
    12
 73
     8
 74
     0
 42
0.000000001
 43
0.00000001
 40
0.0
 40
0.0
 40
0.0
 40
0.0
 40
0.186834572307635
 40
0.3734616466306059
 40
0.5601356696496413
 40
0.7799418214290577
 40
1.0
 40
1.0
 40
1.0
 40
1.0
 10
-2.798368849663757
 20
33.39241111164116
 30
0.0
 10
-2.818896287971898
 20
33.35755126562003
 30
0.0
 10
-2.859928366869174
 20
33.28787028883108
 30
0.0
 10
-2.945070865145599
 20
33.20000495434709
 30
0.0
 10
-3.053278872031578
 20
33.1299561090031
 30
0.0
 10
-3.182801940502388
 20
33.08393738928856
 30
0.0
 10
-3.278098275487364
 20
33.07945990008228
 30
0.0
 10
-3.325773743704079
 20
33.07721987275724
 30
0.0
  0
LINE
  5
10E
330
1F
100
AcDbEntity
  8
0
  6
Continuous
 62
     7
370
    15
100
AcDbLine
 10
-2.9229449039
 20
33.457826036
 30
0.0
 11
-2.7983688497
 21
33.3924111116
 31
0.0
  0
SPLINE
  5
10F
330
1F
100
AcDbEntity
  8
0
  6
Continuous
 62
     7
370
    15
100
AcDbSpline
210
0.0
220
0.0
230
1.0
 70
     8
 71
     3
 72
    11
 73
     7
 74
     0
 42
0.000000001
 43
0.00000001
 40
0.0
 40
0.0
 40
0.0
 40
0.0
 40
0.2799026538284035
 40
0.5596963009774479
 40
0.7795374081755442
 40
1.0
 40
1.0
 40
1.0
 40
1.0
 10
-3.343303141202983
 20
33.21744097291112
 30
0.0
 10
-3.295987390445569
 20
33.22138291460251
 30
0.0
 10
-3.201374315811639
 20
33.22926526281595
 30
0.0
 10
-3.077643204708046
 20
33.28303646238613
 30
0.0
 10
-2.986402323528373
 20
33.36571764468638
 30
0.0
 10
-2.94411727208593
 20
33.42709436131313
 30
0.0
 10
-2.922944903883877
 20
33.45782603596236
 30
0.0
  0
SPLINE
  5
110
330
1F
100
AcDbEntity
  8
0
  6
Continuous
 62
     7
370
    15
100
AcDbSpline
210
0.0
220
0.0
230
1.0
 70
     8
 71
     3
 72
    13
 73
     9
 74
     0
 42
0.000000001
 43
0.00000001
 40
0.0
 40
0.0
 40
0.0
 40
0.0
 40
0.1867237357779826
 40
0.3732486637997744
 40
0.5597745280633171
 40
0.7064874914965003
 40
0.8531852197839978
 40
1.0
 40
1.0
 40
1.0
 40
1.0
 10
-3.75990675522915
 20
33.63811835321012
 30
0.0
 10
-3.756580687276325
 20
33.59701934476877
 30
0.0
 10
-3.749932092688578
 20
33.51486508665952
 30
0.0
 10
-3.698225573444758
 20
33.40042963464246
 30
0.0
 10
-3.621166456546104
 20
33.31419492144179
 30
0.0
 10
-3.532863692622299
 20
33.25506348355285
 30
0.0
 10
-3.44017396153654
 20
33.22293741714457
 30
0.0
 10
-3.375601998350746
 20
33.21927360802771
 30
0.0
 10
-3.343303141202983
 20
33.21744097291112
 30
0.0
  0
SPLINE
  5
111
330
1F
100
AcDbEntity
  8
0
  6
Continuous
 62
     7
370
    15
100
AcDbSpline
210
0.0
220
0.0
230
1.0
 70
     8
 71
     3
 72
    11
 73
     7
 74
     0
 42
0.000000001
 43
0.00000001
 40
0.0
 40
0.0
 40
0.0
 40
0.0
 40
0.2799807778133701
 40
0.5597492253681594
 40
0.77980992463743
 40
1.0
 40
1.0
 40
1.0
 40
1.0
 10
-0.0151651614702589
 20
34.25910957946649
 30
0.0
 10
0.0351252570212665
 20
34.25613448806736
 30
0.0
 10
0.1356679550376212
 20
34.25018656150228
 30
0.0
 10
0.2678396147482423
 20
34.19780509627634
 30
0.0
 10
0.3728015925743368
 20
34.12058243152246
 30
0.0
 10
0.4221440051943898
 20
34.05873441439823
 30
0.0
 10
0.4468224616092963
 20
34.02780131822593
 30
0.0
  0
SPLINE
  5
112
330
1F
100
AcDbEntity
  8
0
  6
Continuous
 62
     7
370
    15
100
AcDbSpline
210
0.0
220
0.0
230
1.0
 70
     8
 71
     3
 72
    14
 73
    10
 74
     0
 42
0.000000001
 43
0.00000001
 40
0.0
 40
0.0
 40
0.0
 40
0.0
 40
0.1400227491540884
 40
0.279972500874278
 40
0.4199671422294052
 40
0.560026296534386
 40
0.7066645745779564
 40
0.8532937803271914
 40
1.0
 40
1.0
 40
1.0
 40
1.0
 10
-0.6148747135743378
 20
33.67129514328235
 30
0.0
 10
-0.6124397190426691
 20
33.71491645302059
 30
0.0
 10
-0.6075709994041287
 20
33.80213633159458
 30
0.0
 10
-0.5624958026087633
 20
33.92654421410086
 30
0.0
 10
-0.4911124305039573
 20
34.03684038292857
 30
0.0
 10
-0.3963225060818268
 20
34.13091213120357
 30
0.0
 10
-0.2828236695901708
 20
34.20499158045008
 30
0.0
 10
-0.152230579071924
 20
34.25164001073401
 30
0.0
 10
-0.0608616301758146
 20
34.25661928745995
 30
0.0
 10
-0.0151651614702589
 20
34.25910957946649
 30
0.0
  0
SPLINE
  5
113
330
1F
100
AcDbEntity
  8
0
  6
Continuous
 62
     7
370
    15
100
AcDbSpline
210
0.0
220
0.0
230
1.0
 70
     8
 71
     3
 72
    14
 73
    10
 74
     0
 42
0.000000001
 43
0.00000001
 40
0.0
 40
0.0
 40
0.0
 40
0.0
 40
0.1400483164333133
 40
0.2800110406001814
 40
0.4200249722904387
 40
0.5600987212841627
 40
0.7067213714312126
 40
0.8533023979161727
 40
0.9999999999999999
 40
0.9999999999999999
 40
0.9999999999999999
 40
0.9999999999999999
 10
-0.019548684164764
 20
33.07721987275724
 30
0.0
 10
-0.0632475212111618
 20
33.07968022744953
 30
0.0
 10
-0.1506184882174501
 20
33.08459943315781
 30
0.0
 10
-0.2760822236279391
 20
33.1273066717679
 30
0.0
 10
-0.3877190821895881
 20
33.19723656629331
 30
0.0
 10
-0.4839892539884867
 20
33.29025237967464
 30
0.0
 10
-0.5595350941433179
 20
33.40327636733721
 30
0.0
 10
-0.6070700574335075
 20
33.5339266904396
 30
0.0
 10
-0.6122724722231391
 20
33.62549352667205
 30
0.0
 10
-0.6148747135743422
 20
33.67129514328236
 30
0.0
  0
SPLINE
  5
114
330
1F
100
AcDbEntity
  8
0
  6
Continuous
 62
     7
370
    15
100
AcDbSpline
210
0.0
220
0.0
230
1.0
 70
     8
 71
     3
 72
    11
 73
     7
 74
     0
 42
0.000000001
 43
0.00000001
 40
0.0
 40
0.0
 40
0.0
 40
0.0
 40
0.2799909404090156
 40
0.559724429638708
 40
0.7798677073031531
 40
0.9999999999999999
 40
0.9999999999999999
 40
0.9999999999999999
 40
0.9999999999999999
 10
0.4468224616092963
 20
33.29475335979183
 30
0.0
 10
0.4128469191931605
 20
33.25818962359509
 30
0.0
 10
0.344927074812663
 20
33.185095771493
 30
0.0
 10
0.22143227043023
 20
33.11790491957616
 30
0.0
 10
0.0977699249439545
 20
33.08259870281975
 30
0.0
 10
0.0195568683940972
 20
33.0790127862883
 30
0.0
 10
-0.019548684164764
 20
33.07721987275724
 30
0.0
  0
LINE
  5
115
330
1F
100
AcDbEntity
  8
0
  6
Continuous
 62
     7
370
    15
100
AcDbLine
 10
0.4468224616
 20
33.097250788
 30
0.0
 11
0.4468224616
 21
33.2947533598
 31
0.0
  0
LINE
  5
116
330
1F
100
AcDbEntity
  8
0
  6
Continuous
 62
     7
370
    15
100
AcDbLine
 10
0.587048255
 20
33.097250788
 30
0.0
 11
0.4468224616
 21
33.097250788
 31
0.0
  0
LINE
  5
117
330
1F
100
AcDbEntity
  8
0
  6
Continuous
 62
     7
370
    15
100
AcDbLine
 10
0.587048255
 20
34.2390786642
 30
0.0
 11
0.587048255
 21
33.097250788
 31
0.0
  0
LINE
  5
118
330
1F
100
AcDbEntity
  8
0
  6
Continuous
 62
     7
370
    15
100
AcDbLine
 10
0.4468224616
 20
34.2390786642
 30
0.0
 11
0.587048255
 21
34.2390786642
 31
0.0
  0
LINE
  5
119
330
1F
100
AcDbEntity
  8
0
  6
Continuous
 62
     7
370
    15
100
AcDbLine
 10
0.4468224616
 20
34.0278013182
 30
0.0
 11
0.4468224616
 21
34.2390786642
 31
0.0
  0
LINE
  5
11A
330
1F
100
AcDbEntity
  8
0
  6
Continuous
 62
     7
370
    15
100
AcDbLine
 10
3.3514694402
 20
33.6381183532
 30
0.0
 11
2.3298364422
 21
33.6381183532
 31
0.0
  0
SPLINE
  5
11B
330
1F
100
AcDbEntity
  8
0
  6
Continuous
 62
     7
370
    15
100
AcDbSpline
210
0.0
220
0.0
230
1.0
 70
     8
 71
     3
 72
    11
 73
     7
 74
     0
 42
0.000000001
 43
0.00000001
 40
0.0
 40
0.0
 40
0.0
 40
0.0
 40
0.2798424627392657
 40
0.5597426754502746
 40
0.7798461054866563
 40
0.9999999999999999
 40
0.9999999999999999
 40
0.9999999999999999
 40
0.9999999999999999
 10
3.227210182333087
 20
34.03437660226768
 30
0.0
 10
3.249369071300698
 20
34.00160877137467
 30
0.0
 10
3.293691422077358
 20
33.9360663474222
 30
0.0
 10
3.329079672292841
 20
33.83097996151631
 30
0.0
 10
3.34815747048259
 20
33.73116984292334
 30
0.0
 10
3.350365365942799
 20
33.66913788658465
 30
0.0
 10
3.35146944021287
 20
33.63811835321012
 30
0.0
  0
SPLINE
  5
11C
330
1F
100
AcDbEntity
  8
0
  6
Continuous
 62
     7
370
    15
100
AcDbSpline
210
0.0
220
0.0
230
1.0
 70
     8
 71
     3
 72
    11
 73
     7
 74
     0
 42
0.000000001
 43
0.00000001
 40
0.0
 40
0.0
 40
0.0
 40
0.0
 40
0.2799820048192615
 40
0.5597292031184876
 40
0.7798334704242567
 40
1.0
 40
1.0
 40
1.0
 40
1.0
 10
2.767411973961226
 20
34.25910957946649
 30
0.0
 10
2.817102793200517
 20
34.25619290521123
 30
0.0
 10
2.916442758542459
 20
34.2503620027655
 30
0.0
 10
3.046955166077707
 20
34.19865742352182
 30
0.0
 10
3.151500451548972
 20
34.12385595686207
 30
0.0
 10
3.201971226244297
 20
34.06420586566712
 30
0.0
 10
3.227210182333082
 20
34.0343766022677
 30
0.0
  0
SPLINE
  5
11D
330
1F
100
AcDbEntity
  8
0
  6
Continuous
 62
     7
370
    15
100
AcDbSpline
210
0.0
220
0.0
230
1.0
 70
     8
 71
     3
 72
    11
 73
     7
 74
     0
 42
0.000000001
 43
0.00000001
 40
0.0
 40
0.0
 40
0.0
 40
0.0
 40
0.2799340814763896
 40
0.5596436023691603
 40
0.779766946175698
 40
0.9999999999999999
 40
0.9999999999999999
 40
0.9999999999999999
 40
0.9999999999999999
 10
2.32107174345499
 20
34.04626937154807
 30
0.0
 10
2.35298534440771
 20
34.08224381946872
 30
0.0
 10
2.41678694551165
 20
34.15416385693388
 30
0.0
 10
2.53539883604331
 20
34.21973393017491
 30
0.0
 10
2.654342106095327
 20
34.25440113159089
 30
0.0
 10
2.729715758496745
 20
34.25753983618323
 30
0.0
 10
2.767411973961226
 20
34.25910957946649
 30
0.0
  0
SPLINE
  5
11E
330
1F
100
AcDbEntity
  8
0
  6
Continuous
 62
     7
370
    15
100
AcDbSpline
210
0.0
220
0.0
230
1.0
 70
     8
 71
     3
 72
    11
 73
     7
 74
     0
 42
0.000000001
 43
0.00000001
 40
0.0
 40
0.0
 40
0.0
 40
0.0
 40
0.2799706440012245
 40
0.5598656268168408
 40
0.7799148461914517
 40
1.0
 40
1.0
 40
1.0
 40
1.0
 10
2.189610648771436
 20
33.66503430894139
 30
0.0
 10
2.191409977131253
 20
33.70343535564492
 30
0.0
 10
2.195008147588049
 20
33.78022707128998
 30
0.0
 10
2.225468353051547
 20
33.88353006026193
 30
0.0
 10
2.267860826750933
 20
33.97299196808893
 30
0.0
 10
2.303333805832233
 20
34.02184224094732
 30
0.0
 10
2.32107174345499
 20
34.04626937154807
 30
0.0
  0
SPLINE
  5
11F
330
1F
100
AcDbEntity
  8
0
  6
Continuous
 62
     7
370
    15
100
AcDbSpline
210
0.0
220
0.0
230
1.0
 70
     8
 71
     3
 72
    14
 73
    10
 74
     0
 42
0.000000001
 43
0.00000001
 40
0.0
 40
0.0
 40
0.0
 40
0.0
 40
0.1400821307494857
 40
0.2800558373959354
 40
0.4199732503420132
 40
0.5599481950841514
 40
0.7066275600120252
 40
0.8532984189886724
 40
1.0
 40
1.0
 40
1.0
 40
1.0
 10
2.763967107089956
 20
33.07721987275724
 30
0.0
 10
2.721038083873794
 20
33.07917684717631
 30
0.0
 10
2.635213264669045
 20
33.08308928130877
 30
0.0
 10
2.511003570052043
 20
33.12167434975819
 30
0.0
 10
2.400623484330631
 20
33.19034096844092
 30
0.0
 10
2.312084145994326
 20
33.2879035440658
 30
0.0
 10
2.242896318079167
 20
33.40159666957189
 30
0.0
 10
2.197166596031051
 20
33.53007439037627
 30
0.0
 10
2.192129473687541
 20
33.62004452885461
 30
0.0
 10
2.18961064877144
 20
33.66503430894138
 30
0.0
  0
SPLINE
  5
120
330
1F
100
AcDbEntity
  8
0
  6
Continuous
 62
     7
370
    15
100
AcDbSpline
210
0.0
220
0.0
230
1.0
 70
     8
 71
     3
 72
    12
 73
     8
 74
     0
 42
0.000000001
 43
0.00000001
 40
0.0
 40
0.0
 40
0.0
 40
0.0
 40
0.1868317287677254
 40
0.3734604364531131
 40
0.5601305404121806
 40
0.7799356526497698
 40
1.0
 40
1.0
 40
1.0
 40
1.0
 10
3.291374347769839
 20
33.39241111164115
 30
0.0
 10
3.270847965778797
 20
33.35755103086392
 30
0.0
 10
3.229817506831911
 20
33.28786875008796
 30
0.0
 10
3.144672448564876
 20
33.20000659907812
 30
0.0
 10
3.036466562893549
 20
33.12995520485101
 30
0.0
 10
2.906941967476322
 20
33.08393704373881
 30
0.0
 10
2.811644115007461
 20
33.07945980929718
 30
0.0
 10
2.763967107089956
 20
33.07721987275724
 30
0.0
  0
LINE
  5
121
330
1F
100
AcDbEntity
  8
0
  6
Continuous
 62
     7
370
    15
100
AcDbLine
 10
3.1668006402
 20
33.457826036
 30
0.0
 11
3.2913743478
 21
33.3924111116
 31
0.0
  0
SPLINE
  5
122
330
1F
100
AcDbEntity
  8
0
  6
Continuous
 62
     7
370
    15
100
AcDbSpline
210
0.0
220
0.0
230
1.0
 70
     8
 71
     3
 72
    11
 73
     7
 74
     0
 42
0.000000001
 43
0.00000001
 40
0.0
 40
0.0
 40
0.0
 40
0.0
 40
0.2799014687167493
 40
0.5596981652293156
 40
0.7795383416171651
 40
1.0
 40
1.0
 40
1.0
 40
1.0
 10
2.746440056230609
 20
33.21744097291112
 30
0.0
 10
2.793755755959572
 20
33.22138303781428
 30
0.0
 10
2.888369444291598
 20
33.2292656920341
 30
0.0
 10
3.012101877002576
 20
33.28303579201773
 30
0.0
 10
3.103343203851123
 20
33.36571768617932
 30
0.0
 10
3.145628266417428
 20
33.42709437515713
 30
0.0
 10
3.166800640189268
 20
33.45782603596237
 30
0.0
  0
SPLINE
  5
123
330
1F
100
AcDbEntity
  8
0
  6
Continuous
 62
     7
370
    15
100
AcDbSpline
210
0.0
220
0.0
230
1.0
 70
     8
 71
     3
 72
    13
 73
     9
 74
     0
 42
0.000000001
 43
0.00000001
 40
0.0
 40
0.0
 40
0.0
 40
0.0
 40
0.1867240527127646
 40
0.3732507454728977
 40
0.5597769263353658
 40
0.7064871672802162
 40
0.8531885139610023
 40
1.0
 40
1.0
 40
1.0
 40
1.0
 10
2.329836442204442
 20
33.63811835321012
 30
0.0
 10
2.33316230538914
 20
33.59701926160918
 30
0.0
 10
2.339810516452454
 20
33.51486451852469
 30
0.0
 10
2.391520398795702
 20
33.40043005022864
 30
0.0
 10
2.468578818355572
 20
33.31419587868218
 30
0.0
 10
2.556880445444957
 20
33.25506224004899
 30
0.0
 10
2.649570250362256
 20
33.22293812957401
 30
0.0
 10
2.714142044183642
 20
33.21927381680434
 30
0.0
 10
2.746440056230609
 20
33.21744097291112
 30
0.0
  0
SPLINE
  5
124
330
1F
100
AcDbEntity
  8
0
  6
Continuous
 62
     7
370
    15
100
AcDbSpline
210
0.0
220
0.0
230
1.0
 70
     8
 71
     3
 72
    11
 73
     7
 74
     0
 42
0.000000001
 43
0.00000001
 40
0.0
 40
0.0
 40
0.0
 40
0.0
 40
0.2799670226227391
 40
0.5598080920906036
 40
0.7798841546731453
 40
1.0
 40
1.0
 40
1.0
 40
1.0
 10
-3.315134079947716
 20
34.11888378603349
 30
0.0
 10
-3.345052767065371
 20
34.11754097592112
 30
0.0
 10
-3.404876681311732
 20
34.11485595980744
 30
0.0
 10
-3.485176630257738
 20
34.09042014971165
 30
0.0
 10
-3.554282547482453
 20
34.05598949006652
 30
0.0
 10
-3.590996908289937
 20
34.02655703398506
 30
0.0
 10
-3.609355747740569
 20
34.01183947595183
 30
0.0
  0
SPLINE
  5
125
330
1F
100
AcDbEntity
  8
0
  6
Continuous
 62
     7
370
    15
100
AcDbSpline
210
0.0
220
0.0
230
1.0
 70
     8
 71
     3
 72
    12
 73
     8
 74
     0
 42
0.000000001
 43
0.00000001
 40
0.0
 40
0.0
 40
0.0
 40
0.0
 40
0.1869031550572725
 40
0.3734775814415066
 40
0.5600542929266901
 40
0.7800270137962123
 40
1.0
 40
1.0
 40
1.0
 40
1.0
 10
-2.878499550653724
 20
33.77833945336401
 30
0.0
 10
-2.889295788057249
 20
33.81418970256844
 30
0.0
 10
-2.910869274245337
 20
33.88582714690606
 30
0.0
 10
-2.972640619575248
 20
33.9817892083056
 30
0.0
 10
-3.066627103023872
 20
34.0560813004912
 30
0.0
 10
-3.182839335290721
 20
34.10861731046101
 30
0.0
 10
-3.27103581399808
 20
34.11546162613338
 30
0.0
 10
-3.315134079947716
 20
34.11888378603349
 30
0.0
  0
LINE
  5
126
330
1F
100
AcDbEntity
  8
0
  6
Continuous
 62
     7
370
    15
100
AcDbLine
 10
-3.7451980185
 20
33.7783394534
 30
0.0
 11
-2.8784995507
 21
33.7783394534
 31
0.0
  0
SPLINE
  5
127
330
1F
100
AcDbEntity
  8
0
  6
Continuous
 62
     7
370
    15
100
AcDbSpline
210
0.0
220
0.0
230
1.0
 70
     8
 71
     3
 72
    10
 73
     6
 74
     0
 42
0.000000001
 43
0.00000001
 40
0.0
 40
0.0
 40
0.0
 40
0.0
 40
0.2799144911815976
 40
0.5599640732069749
 40
1.0
 40
1.0
 40
1.0
 40
1.0
 10
-3.609355747740569
 20
34.01183947595183
 30
0.0
 10
-3.627506417720868
 20
33.99379144738
 30
0.0
 10
-3.663816517461308
 20
33.95768667999278
 30
0.0
 10
-3.710778200527536
 20
33.87850219380284
 30
0.0
 10
-3.73214252615954
 20
33.81633134194239
 30
0.0
 10
-3.745198018479065
 20
33.77833945336401
 30
0.0
  0
SPLINE
  5
128
330
1F
100
AcDbEntity
  8
0
  6
Continuous
 62
     7
370
    15
100
AcDbSpline
210
0.0
220
0.0
230
1.0
 70
     8
 71
     3
 72
    11
 73
     7
 74
     0
 42
0.000000001
 43
0.00000001
 40
0.0
 40
0.0
 40
0.0
 40
0.0
 40
0.2799616169457748
 40
0.5598116300305045
 40
0.7798826579081682
 40
1.0
 40
1.0
 40
1.0
 40
1.0
 10
2.774609117485876
 20
34.11888378603349
 30
0.0
 10
2.744691268425915
 20
34.11754077565617
 30
0.0
 10
2.684867496753302
 20
34.11485529027902
 30
0.0
 10
2.604567630770159
 20
34.09042131355906
 30
0.0
 10
2.535462598527334
 20
34.05598874501202
 30
0.0
 10
2.498748684676604
 20
34.02655693119009
 30
0.0
 10
2.480389796332581
 20
34.01183947595183
 30
0.0
  0
LINE
  5
129
330
1F
100
AcDbEntity
  8
0
  6
Continuous
 62
     7
370
    15
100
AcDbLine
 10
2.3445475256
 20
33.7783394534
 30
0.0
 11
3.2112459934
 21
33.7783394534
 31
0.0
  0
SPLINE
  5
12A
330
1F
100
AcDbEntity
  8
0
  6
Continuous
 62
     7
370
    15
100
AcDbSpline
210
0.0
220
0.0
230
1.0
 70
     8
 71
     3
 72
    10
 73
     6
 74
     0
 42
0.000000001
 43
0.00000001
 40
0.0
 40
0.0
 40
0.0
 40
0.0
 40
0.2799246310530756
 40
0.5599727006229279
 40
1.0
 40
1.0
 40
1.0
 40
1.0
 10
2.480389796332581
 20
34.01183947595183
 30
0.0
 10
2.462237334631525
 20
33.99379167652316
 30
0.0
 10
2.425924406528489
 20
33.95768811911791
 30
0.0
 10
2.378962524600782
 20
33.87850271340349
 30
0.0
 10
2.357601145316253
 20
33.81633140874471
 30
0.0
 10
2.34454752559408
 20
33.77833945336402
 30
0.0
  0
SPLINE
  5
12B
330
1F
100
AcDbEntity
  8
0
  6
Continuous
 62
     7
370
    15
100
AcDbSpline
210
0.0
220
0.0
230
1.0
 70
     8
 71
     3
 72
    12
 73
     8
 74
     0
 42
0.000000001
 43
0.00000001
 40
0.0
 40
0.0
 40
0.0
 40
0.0
 40
0.1869041547599995
 40
0.3734761307011982
 40
0.5600585962838097
 40
0.7800273714771603
 40
1.0
 40
1.0
 40
1.0
 40
1.0
 10
3.211245993419426
 20
33.77833945336401
 30
0.0
 10
3.200448578209177
 20
33.81418946126411
 30
0.0
 10
3.178872937691855
 20
33.88582576198376
 30
0.0
 10
3.117105296527448
 20
33.98179176478649
 30
0.0
 10
3.023114218237423
 20
34.05607889367947
 30
0.0
 10
2.906903594284292
 20
34.10861806138384
 30
0.0
 10
2.818707533913935
 20
34.11546185783595
 30
0.0
 10
2.774609117485872
 20
34.1188837860335
 30
0.0
  0
SPLINE
  5
12C
330
1F
100
AcDbEntity
  8
0
  6
Continuous
 62
     7
370
    15
100
AcDbSpline
210
0.0
220
0.0
230
1.0
 70
     8
 71
     3
 72
    13
 73
     9
 74
     0
 42
0.000000001
 43
0.00000001
 40
0.0
 40
0.0
 40
0.0
 40
0.0
 40
0.1865005079461629
 40
0.3730900195405816
 40
0.5596320837650152
 40
0.7064471866398224
 40
0.8532286340529552
 40
1.0
 40
1.0
 40
1.0
 40
1.0
 10
-6.644522818564899
 20
33.66972758805755
 30
0.0
 10
-6.640453748575957
 20
33.6251756365099
 30
0.0
 10
-6.632313666715547
 20
33.53605047188416
 30
0.0
 10
-6.56987115452632
 20
33.41529873396736
 30
0.0
 10
-6.486545866584099
 20
33.32190091865173
 30
0.0
 10
-6.388957715300312
 20
33.2607632128077
 30
0.0
 10
-6.289427600533922
 20
33.22409209947882
 30
0.0
 10
-6.219416736806259
 20
33.21965796433996
 30
0.0
 10
-6.184412507131813
 20
33.21744097291112
 30
0.0
  0
SPLINE
  5
12D
330
1F
100
AcDbEntity
  8
0
  6
Continuous
 62
     7
370
    15
100
AcDbSpline
210
0.0
220
0.0
230
1.0
 70
     8
 71
     3
 72
    13
 73
     9
 74
     0
 42
0.000000001
 43
0.00000001
 40
0.0
 40
0.0
 40
0.0
 40
0.0
 40
0.186620979554134
 40
0.3732129867313189
 40
0.5597168390328977
 40
0.7065175997698596
 40
0.8532928788552319
 40
0.9999999999999999
 40
0.9999999999999999
 40
0.9999999999999999
 40
0.9999999999999999
 10
-6.183159401607795
 20
34.11888378603349
 30
0.0
 10
-6.227728435641604
 20
34.11551719263318
 30
0.0
 10
-6.31685958449328
 20
34.10878452848663
 30
0.0
 10
-6.440227203709321
 20
34.05176016045498
 30
0.0
 10
-6.535005071098967
 20
33.96961193876541
 30
0.0
 10
-6.598102100237353
 20
33.87346325546267
 30
0.0
 10
-6.637282321221027
 20
33.7747568979748
 30
0.0
 10
-6.642109693150963
 20
33.70473193719709
 30
0.0
 10
-6.644522818564899
 20
33.66972758805755
 30
0.0
  0
SPLINE
  5
12E
330
1F
100
AcDbEntity
  8
0
  6
Continuous
 62
     7
370
    15
100
AcDbSpline
210
0.0
220
0.0
230
1.0
 70
     8
 71
     3
 72
    13
 73
     9
 74
     0
 42
0.000000001
 43
0.00000001
 40
0.0
 40
0.0
 40
0.0
 40
0.0
 40
0.1866599336716228
 40
0.3730892986942075
 40
0.5596927289887056
 40
0.7064220452305477
 40
0.8531608438295529
 40
1.0
 40
1.0
 40
1.0
 40
1.0
 10
-5.723049090174717
 20
33.66565851506384
 30
0.0
 10
-5.726209863017861
 20
33.71060869362626
 30
0.0
 10
-5.732527504410863
 20
33.80045352677369
 30
0.0
 10
-5.792314340345298
 20
33.92416126565365
 30
0.0
 10
-5.878483385869743
 20
34.0162349584132
 30
0.0
 10
-5.976125193698163
 20
34.07874755334834
 30
0.0
 10
-6.077378243686919
 20
34.11329741591813
 30
0.0
 10
-6.14789098087209
 20
34.11702123834083
 30
0.0
 10
-6.183159401607795
 20
34.11888378603349
 30
0.0
  0
SPLINE
  5
12F
330
1F
100
AcDbEntity
  8
0
  6
Continuous
 62
     7
370
    15
100
AcDbSpline
210
0.0
220
0.0
230
1.0
 70
     8
 71
     3
 72
    13
 73
     9
 74
     0
 42
0.000000001
 43
0.00000001
 40
0.0
 40
0.0
 40
0.0
 40
0.0
 40
0.1866318787274062
 40
0.3732541796034386
 40
0.5596869723212023
 40
0.7064252732780806
 40
0.8531865572477597
 40
1.0
 40
1.0
 40
1.0
 40
1.0
 10
-6.184412507131813
 20
33.21744097291112
 30
0.0
 10
-6.139713910440734
 20
33.2209023426363
 30
0.0
 10
-6.050319010967426
 20
33.22782490445095
 30
0.0
 10
-5.926656493475315
 20
33.28432501742617
 30
0.0
 10
-5.829032863136506
 20
33.36363156540606
 30
0.0
 10
-5.765354398498983
 20
33.46021070848425
 30
0.0
 10
-5.728744192197403
 20
33.56024999642
 30
0.0
 10
-5.724947682354812
 20
33.63051818071744
 30
0.0
 10
-5.723049090174708
 20
33.66565851506383
 30
0.0
  0
SPLINE
  5
130
330
1F
100
AcDbEntity
  8
0
  6
Continuous
 62
     7
370
    15
100
AcDbSpline
210
0.0
220
0.0
230
1.0
 70
     8
 71
     3
 72
    12
 73
     8
 74
     0
 42
0.000000001
 43
0.00000001
 40
0.0
 40
0.0
 40
0.0
 40
0.0
 40
0.1869049454521888
 40
0.3734742623110144
 40
0.5600562157880111
 40
0.7800279752274526
 40
1.0
 40
1.0
 40
1.0
 40
1.0
 10
-8.48747027534528
 20
33.77833945336401
 30
0.0
 10
-8.49826881577041
 20
33.81418928977475
 30
0.0
 10
-8.519846505486164
 20
33.88582458639615
 30
0.0
 10
-8.58161056167173
 20
33.98179244767195
 30
0.0
 10
-8.675602779114536
 20
34.05607940367599
 30
0.0
 10
-8.791814384511481
 20
34.10861768112321
 30
0.0
 10
-8.880011109052079
 20
34.1154617496875
 30
0.0
 10
-8.924109497918389
 20
34.11888378603349
 30
0.0
  0
LINE
  5
131
330
1F
100
AcDbEntity
  8
0
  6
Continuous
 62
     7
370
    15
100
AcDbLine
 10
-9.3541687432
 20
33.7783394534
 30
0.0
 11
-8.4874702753
 21
33.7783394534
 31
0.0
  0
SPLINE
  5
132
330
1F
100
AcDbEntity
  8
0
  6
Continuous
 62
     7
370
    15
100
AcDbSpline
210
0.0
220
0.0
230
1.0
 70
     8
 71
     3
 72
    10
 73
     6
 74
     0
 42
0.000000001
 43
0.00000001
 40
0.0
 40
0.0
 40
0.0
 40
0.0
 40
0.2799246310530756
 40
0.5599727006229279
 40
1.0
 40
1.0
 40
1.0
 40
1.0
 10
-9.218326472432125
 20
34.01183947595183
 30
0.0
 10
-9.236478934133178
 20
33.99379167652316
 30
0.0
 10
-9.272791862236218
 20
33.95768811911791
 30
0.0
 10
-9.319753744163924
 20
33.87850271340349
 30
0.0
 10
-9.341115123448457
 20
33.81633140874471
 30
0.0
 10
-9.35416874317063
 20
33.77833945336402
 30
0.0
  0
SPLINE
  5
133
330
1F
100
AcDbEntity
  8
0
  6
Continuous
 62
     7
370
    15
100
AcDbSpline
210
0.0
220
0.0
230
1.0
 70
     8
 71
     3
 72
    11
 73
     7
 74
     0
 42
0.000000001
 43
0.00000001
 40
0.0
 40
0.0
 40
0.0
 40
0.0
 40
0.2799558487305667
 40
0.5598144432287627
 40
0.7798932138788287
 40
1.0
 40
1.0
 40
1.0
 40
1.0
 10
-8.924109497918389
 20
34.11888378603349
 30
0.0
 10
-8.954026569454621
 20
34.11754068479591
 30
0.0
 10
-9.01385031959606
 20
34.11485494890248
 30
0.0
 10
-9.094150604656805
 20
34.09042087297038
 30
0.0
 10
-9.16325730309517
 20
34.05599064702575
 30
0.0
 10
-9.199969303811905
 20
34.02655715740487
 30
0.0
 10
-9.218326472432125
 20
34.01183947595183
 30
0.0
  0
SPLINE
  5
134
330
1F
100
AcDbEntity
  8
0
  6
Continuous
 62
     7
370
    15
100
AcDbSpline
210
0.0
220
0.0
230
1.0
 70
     8
 71
     3
 72
    13
 73
     9
 74
     0
 42
0.000000001
 43
0.00000001
 40
0.0
 40
0.0
 40
0.0
 40
0.0
 40
0.1866177488291645
 40
0.3732127836109508
 40
0.5597141871938061
 40
0.7065167909907579
 40
0.8532932518198768
 40
1.0
 40
1.0
 40
1.0
 40
1.0
 10
-0.0132878498237899
 20
34.11888378603349
 30
0.0
 10
-0.0578559858287001
 20
34.11551692531673
 30
0.0
 10
-0.1469868332593444
 20
34.10878361367827
 30
0.0
 10
-0.2703552215443796
 20
34.05176175020222
 30
0.0
 10
-0.3651310718439647
 20
33.96961037251928
 30
0.0
 10
-0.4282302362541409
 20
33.87346357675231
 30
0.0
 10
-0.4674142092583713
 20
33.7747574842198
 30
0.0
 10
-0.4722392963163709
 20
33.70473200893541
 30
0.0
 10
-0.4746512667808943
 20
33.66972758805755
 30
0.0
  0
SPLINE
  5
135
330
1F
100
AcDbEntity
  8
0
  6
Continuous
 62
     7
370
    15
100
AcDbSpline
210
0.0
220
0.0
230
1.0
 70
     8
 71
     3
 72
    13
 73
     9
 74
     0
 42
0.000000001
 43
0.00000001
 40
0.0
 40
0.0
 40
0.0
 40
0.0
 40
0.1866316523311042
 40
0.3732567291353653
 40
0.559686780694068
 40
0.7064267244447625
 40
0.8531867353417741
 40
1.0
 40
1.0
 40
1.0
 40
1.0
 10
-0.014540955347808
 20
33.21744097291112
 30
0.0
 10
0.0301575331125898
 20
33.2209025180482
 30
0.0
 10
0.1195529351874011
 20
33.22782548636292
 30
0.0
 10
0.2432170996529963
 20
33.28432338935855
 30
0.0
 10
0.3408380343919951
 20
33.36363333081049
 30
0.0
 10
0.4045205692618532
 20
33.46020935650941
 30
0.0
 10
0.4411265366355026
 20
33.56025061600054
 30
0.0
 10
0.4449235903580435
 20
33.63051829989116
 30
0.0
 10
0.4468224616092963
 20
33.66565851506383
 30
0.0
  0
SPLINE
  5
136
330
1F
100
AcDbEntity
  8
0
  6
Continuous
 62
     7
370
    15
100
AcDbSpline
210
0.0
220
0.0
230
1.0
 70
     8
 71
     3
 72
    13
 73
     9
 74
     0
 42
0.000000001
 43
0.00000001
 40
0.0
 40
0.0
 40
0.0
 40
0.0
 40
0.1866598050918344
 40
0.3730890416934567
 40
0.5596901238282649
 40
0.7064220943081295
 40
0.8531576969270243
 40
0.9999999999999999
 40
0.9999999999999999
 40
0.9999999999999999
 40
0.9999999999999999
 10
0.4468224616092963
 20
33.66565851506383
 30
0.0
 10
0.4436617325763929
 20
33.71060874047873
 30
0.0
 10
0.4373441787497576
 20
33.80045366727323
 30
0.0
 10
0.37755692358964
 20
33.92416021365163
 30
0.0
 10
0.2913902894458043
 20
34.01623661580457
 30
0.0
 10
0.1937472064488971
 20
34.07874623170991
 30
0.0
 10
0.0924943431086461
 20
34.11329813780245
 30
0.0
 10
0.0219814237589777
 20
34.11702145221211
 30
0.0
 10
-0.0132878498237899
 20
34.11888378603349
 30
0.0
  0
SPLINE
  5
137
330
1F
100
AcDbEntity
  8
0
  6
Continuous
 62
     7
370
    15
100
AcDbSpline
210
0.0
220
0.0
230
1.0
 70
     8
 71
     3
 72
    13
 73
     9
 74
     0
 42
0.000000001
 43
0.00000001
 40
0.0
 40
0.0
 40
0.0
 40
0.0
 40
0.1865000210587165
 40
0.3730910016011904
 40
0.559635300986978
 40
0.7064504206875658
 40
0.853231884922622
 40
1.0
 40
1.0
 40
1.0
 40
1.0
 10
-0.4746512667808943
 20
33.66972758805755
 30
0.0
 10
-0.470583338216903
 20
33.62517554011097
 30
0.0
 10
-0.4624454970854822
 20
33.53604971536622
 30
0.0
 10
-0.3999991556937665
 20
33.4152984826024
 30
0.0
 10
-0.3166722109261162
 20
33.32190148274561
 30
0.0
 10
-0.2190838656828214
 20
33.26076314289153
 30
0.0
 10
-0.119554431393821
 20
33.22409239824506
 30
0.0
 10
-0.0495443861283069
 20
33.21965804747179
 30
0.0
 10
-0.0145409553478123
 20
33.21744097291113
 30
0.0
  0
LINE
  5
138
330
1F
100
AcDbEntity
  8
0
  6
Continuous
 62
     7
370
    15
100
AcDbLine
 10
-13.2150337955
 20
33.6180827447
 30
0.0
 11
-13.2150337955
 21
34.2966698922
 31
0.0
  0
LINE
  5
139
330
1F
100
AcDbEntity
  8
0
  6
Continuous
 62
     7
370
    15
100
AcDbLine
 10
-13.6807807351
 20
33.6180827447
 30
0.0
 11
-13.2150337955
 21
33.6180827447
 31
0.0
  0
LINE
  5
13A
330
1F
100
AcDbEntity
  8
0
  6
Continuous
 62
     7
370
    15
100
AcDbLine
 10
-13.2150337955
 20
34.2966698922
 30
0.0
 11
-13.6807807351
 21
33.6180827447
 31
0.0
  0
INSERT
  5
146
330
1F
100
AcDbEntity
  8
0
  6
Continuous
 62
     7
370
     0
100
AcDbBlockReference
  2
SW_CENTERMARKSYMBOL_0
 10
19.9345394737
 20
6.0782236842
 30
0.0
  0
INSERT
  5
152
330
1F
100
AcDbEntity
  8
0
  6
Continuous
 62
     7
370
     0
100
AcDbBlockReference
  2
SW_CENTERMARKSYMBOL_1
 10
9.9345394737
 20
6.0782236842
 30
0.0
  0
INSERT
  5
15E
330
1F
100
AcDbEntity
  8
0
  6
Continuous
 62
     7
370
     0
100
AcDbBlockReference
  2
SW_CENTERMARKSYMBOL_2
 10
-0.0654605263
 20
6.0782236842
 30
0.0
  0
INSERT
  5
16A
330
1F
100
AcDbEntity
  8
0
  6
Continuous
 62
     7
370
     0
100
AcDbBlockReference
  2
SW_CENTERMARKSYMBOL_3
 10
-10.0654605263
 20
6.0782236842
 30
0.0
  0
ENDSEC
  0
SECTION
  2
OBJECTS
  0
DICTIONARY
  5
C
330
0
100
AcDbDictionary
281
     1
  3
ACAD_GROUP
350
D
  3
ACAD_LAYOUT
350
1A
  3
ACAD_MLINESTYLE
350
17
  3
ACAD_PLOTSETTINGS
350
19
  3
ACAD_PLOTSTYLENAME
350
E
  3
ACAD_SCALELIST
350
47
  0
DICTIONARY
  5
D
102
{ACAD_REACTORS
330
C
102
}
330
C
100
AcDbDictionary
281
     1
  0
DICTIONARY
  5
1A
102
{ACAD_REACTORS
330
C
102
}
330
C
100
AcDbDictionary
281
     1
  3
Layout1
350
1E
  3
Layout2
350
26
  3
Model
350
22
  0
DICTIONARY
  5
17
102
{ACAD_REACTORS
330
C
102
}
330
C
100
AcDbDictionary
281
     1
  3
Standard
350
18
  0
DICTIONARY
  5
19
102
{ACAD_REACTORS
330
C
102
}
330
C
100
AcDbDictionary
281
     1
  0
ACDBDICTIONARYWDFLT
  5
E
102
{ACAD_REACTORS
330
C
102
}
330
C
100
AcDbDictionary
281
     1
  3
Normal
350
F
100
AcDbDictionaryWithDefault
340
F
  0
DICTIONARY
  5
47
102
{ACAD_REACTORS
330
C
102
}
330
C
100
AcDbDictionary
281
     1
  3
A0
350
48
  3
A1
350
49
  3
A2
350
4A
  3
A3
350
4B
  3
A4
350
4C
  3
A5
350
4D
  3
A6
350
4E
  3
A7
350
4F
  3
A8
350
50
  3
A9
350
51
  3
B0
350
52
  3
B1
350
53
  3
B2
350
54
  3
B3
350
55
  3
B4
350
56
  3
B5
350
57
  3
B6
350
58
  3
B7
350
59
  3
B8
350
5A
  3
B9
350
5B
  3
C0
350
5C
  3
C1
350
5D
  3
C2
350
5E
  3
C3
350
5F
  3
C4
350
60
  3
C5
350
61
  3
C6
350
62
  3
C7
350
63
  3
C8
350
64
  3
C9
350
65
  3
D0
350
66
  3
D1
350
67
  3
D2
350
68
  0
LAYOUT
  5
1E
102
{ACAD_REACTORS
330
1A
102
}
330
1A
100
AcDbPlotSettings
  1

  2
none_device
  4

  6

 40
0.0
 41
0.0
 42
0.0
 43
0.0
 44
0.0
 45
0.0
 46
0.0
 47
0.0
 48
0.0
 49
0.0
140
0.0
141
0.0
142
1.0
143
1.0
 70
   688
 72
     0
 73
     0
 74
     5
  7

 75
    16
147
1.0
148
0.0
149
0.0
100
AcDbLayout
  1
Layout1
 70
     1
 71
     1
 10
0.0
 20
0.0
 11
12.0
 21
9.0
 12
0.0
 22
0.0
 32
0.0
 14
1.0000000000E+20
 24
1.0000000000E+20
 34
1.0000000000E+20
 15
-1.0000000000E+20
 25
-1.0000000000E+20
 35
-1.0000000000E+20
146
0.0
 13
0.0
 23
0.0
 33
0.0
 16
1.0
 26
0.0
 36
0.0
 17
0.0
 27
1.0
 37
0.0
 76
     0
330
1B
  0
LAYOUT
  5
26
102
{ACAD_REACTORS
330
1A
102
}
330
1A
100
AcDbPlotSettings
  1

  2
none_device
  4

  6

 40
0.0
 41
0.0
 42
0.0
 43
0.0
 44
0.0
 45
0.0
 46
0.0
 47
0.0
 48
0.0
 49
0.0
140
0.0
141
0.0
142
1.0
143
1.0
 70
   688
 72
     0
 73
     0
 74
     5
  7

 75
    16
147
1.0
148
0.0
149
0.0
100
AcDbLayout
  1
Layout2
 70
     1
 71
     2
 10
0.0
 20
0.0
 11
0.0
 21
0.0
 12
0.0
 22
0.0
 32
0.0
 14
0.0
 24
0.0
 34
0.0
 15
0.0
 25
0.0
 35
0.0
146
0.0
 13
0.0
 23
0.0
 33
0.0
 16
1.0
 26
0.0
 36
0.0
 17
0.0
 27
1.0
 37
0.0
 76
     0
330
23
  0
LAYOUT
  5
22
102
{ACAD_REACTORS
330
1A
102
}
330
1A
100
AcDbPlotSettings
  1

  2
none_device
  4
Letter_(8.50_x_11.00_Inches)
  6

 40
6.35
 41
6.35
 42
6.35000508
 43
6.35000508
 44
215.9
 45
279.4
 46
0.0
 47
0.0
 48
0.0
 49
0.0
140
0.0
141
0.0
142
1.0
143
1.0
 70
  1712
 72
     0
 73
     0
 74
     0
  7

 75
     0
147
1.0
148
0.0
149
0.0
100
AcDbLayout
  1
Model
 70
     1
 71
     0
 10
0.0
 20
0.0
 11
8.5
 21
11.0
 12
0.0
 22
0.0
 32
0.0
 14
0.0
 24
0.0
 34
0.0
 15
8.5
 25
11.0
 35
0.0
146
0.0
 13
0.0
 23
0.0
 33
0.0
 16
1.0
 26
0.0
 36
0.0
 17
0.0
 27
1.0
 37
0.0
 76
     0
330
1F
331
29
  0
MLINESTYLE
  5
18
102
{ACAD_REACTORS
330
17
102
}
330
17
100
AcDbMlineStyle
  2
Standard
 70
     0
  3

 62
   256
 51
90.0
 52
90.0
 71
     2
 49
0.5
 62
   256
  6
BYLAYER
 49
-0.5
 62
   256
  6
BYLAYER
  0
ACDBPLACEHOLDER
  5
F
102
{ACAD_REACTORS
330
E
102
}
330
E
  0
SCALE
  5
48
102
{ACAD_REACTORS
330
47
102
}
330
47
100
AcDbScale
 70
     0
300
1:1
140
1.0
141
1.0
290
     1
  0
SCALE
  5
49
102
{ACAD_REACTORS
330
47
102
}
330
47
100
AcDbScale
 70
     0
300
1:2
140
1.0
141
2.0
290
     0
  0
SCALE
  5
4A
102
{ACAD_REACTORS
330
47
102
}
330
47
100
AcDbScale
 70
     0
300
1:4
140
1.0
141
4.0
290
     0
  0
SCALE
  5
4B
102
{ACAD_REACTORS
330
47
102
}
330
47
100
AcDbScale
 70
     0
300
1:5
140
1.0
141
5.0
290
     0
  0
SCALE
  5
4C
102
{ACAD_REACTORS
330
47
102
}
330
47
100
AcDbScale
 70
     0
300
1:8
140
1.0
141
8.0
290
     0
  0
SCALE
  5
4D
102
{ACAD_REACTORS
330
47
102
}
330
47
100
AcDbScale
 70
     0
300
1:10
140
1.0
141
10.0
290
     0
  0
SCALE
  5
4E
102
{ACAD_REACTORS
330
47
102
}
330
47
100
AcDbScale
 70
     0
300
1:16
140
1.0
141
16.0
290
     0
  0
SCALE
  5
4F
102
{ACAD_REACTORS
330
47
102
}
330
47
100
AcDbScale
 70
     0
300
1:20
140
1.0
141
20.0
290
     0
  0
SCALE
  5
50
102
{ACAD_REACTORS
330
47
102
}
330
47
100
AcDbScale
 70
     0
300
1:30
140
1.0
141
30.0
290
     0
  0
SCALE
  5
51
102
{ACAD_REACTORS
330
47
102
}
330
47
100
AcDbScale
 70
     0
300
1:40
140
1.0
141
40.0
290
     0
  0
SCALE
  5
52
102
{ACAD_REACTORS
330
47
102
}
330
47
100
AcDbScale
 70
     0
300
1:50
140
1.0
141
50.0
290
     0
  0
SCALE
  5
53
102
{ACAD_REACTORS
330
47
102
}
330
47
100
AcDbScale
 70
     0
300
1:100
140
1.0
141
100.0
290
     0
  0
SCALE
  5
54
102
{ACAD_REACTORS
330
47
102
}
330
47
100
AcDbScale
 70
     0
300
2:1
140
2.0
141
1.0
290
     0
  0
SCALE
  5
55
102
{ACAD_REACTORS
330
47
102
}
330
47
100
AcDbScale
 70
     0
300
4:1
140
4.0
141
1.0
290
     0
  0
SCALE
  5
56
102
{ACAD_REACTORS
330
47
102
}
330
47
100
AcDbScale
 70
     0
300
8:1
140
8.0
141
1.0
290
     0
  0
SCALE
  5
57
102
{ACAD_REACTORS
330
47
102
}
330
47
100
AcDbScale
 70
     0
300
10:1
140
10.0
141
1.0
290
     0
  0
SCALE
  5
58
102
{ACAD_REACTORS
330
47
102
}
330
47
100
AcDbScale
 70
     0
300
100:1
140
100.0
141
1.0
290
     0
  0
SCALE
  5
59
102
{ACAD_REACTORS
330
47
102
}
330
47
100
AcDbScale
 70
     0
300
1/128" = 1'-0"
140
0.0078125
141
12.0
290
     0
  0
SCALE
  5
5A
102
{ACAD_REACTORS
330
47
102
}
330
47
100
AcDbScale
 70
     0
300
1/64" = 1'-0"
140
0.015625
141
12.0
290
     0
  0
SCALE
  5
5B
102
{ACAD_REACTORS
330
47
102
}
330
47
100
AcDbScale
 70
     0
300
1/32" = 1'-0"
140
0.03125
141
12.0
290
     0
  0
SCALE
  5
5C
102
{ACAD_REACTORS
330
47
102
}
330
47
100
AcDbScale
 70
     0
300
1/16" = 1'-0"
140
0.0625
141
12.0
290
     0
  0
SCALE
  5
5D
102
{ACAD_REACTORS
330
47
102
}
330
47
100
AcDbScale
 70
     0
300
3/32" = 1'-0"
140
0.09375
141
12.0
290
     0
  0
SCALE
  5
5E
102
{ACAD_REACTORS
330
47
102
}
330
47
100
AcDbScale
 70
     0
300
1/8" = 1'-0"
140
0.125
141
12.0
290
     0
  0
SCALE
  5
5F
102
{ACAD_REACTORS
330
47
102
}
330
47
100
AcDbScale
 70
     0
300
3/16" = 1'-0"
140
0.1875
141
12.0
290
     0
  0
SCALE
  5
60
102
{ACAD_REACTORS
330
47
102
}
330
47
100
AcDbScale
 70
     0
300
1/4" = 1'-0"
140
0.25
141
12.0
290
     0
  0
SCALE
  5
61
102
{ACAD_REACTORS
330
47
102
}
330
47
100
AcDbScale
 70
     0
300
3/8" = 1'-0"
140
0.375
141
12.0
290
     0
  0
SCALE
  5
62
102
{ACAD_REACTORS
330
47
102
}
330
47
100
AcDbScale
 70
     0
300
1/2" = 1'-0"
140
0.5
141
12.0
290
     0
  0
SCALE
  5
63
102
{ACAD_REACTORS
330
47
102
}
330
47
100
AcDbScale
 70
     0
300
3/4" = 1'-0"
140
0.75
141
12.0
290
     0
  0
SCALE
  5
64
102
{ACAD_REACTORS
330
47
102
}
330
47
100
AcDbScale
 70
     0
300
1" = 1'-0"
140
1.0
141
12.0
290
     0
  0
SCALE
  5
65
102
{ACAD_REACTORS
330
47
102
}
330
47
100
AcDbScale
 70
     0
300
1-1/2" = 1'-0"
140
1.5
141
12.0
290
     0
  0
SCALE
  5
66
102
{ACAD_REACTORS
330
47
102
}
330
47
100
AcDbScale
 70
     0
300
3" = 1'-0"
140
3.0
141
12.0
290
     0
  0
SCALE
  5
67
102
{ACAD_REACTORS
330
47
102
}
330
47
100
AcDbScale
 70
     0
300
6" = 1'-0"
140
6.0
141
12.0
290
     0
  0
SCALE
  5
68
102
{ACAD_REACTORS
330
47
102
}
330
47
100
AcDbScale
 70
     0
300
1'-0" = 1'-0"
140
12.0
141
12.0
290
     0
  0
ENDSEC
  0
EOF
