  0
SECTION
  2
HEADER
  9
$ACADVER
  1
AC1015
  9
$ACADMAINTVER
 70
     6
  9
$DWGCODEPAGE
  3
ANSI_1252
  9
$INSBASE
 10
0.0
 20
0.0
 30
0.0
  9
$EXTMIN
 10
0.0
 20
0.0
 30
0.0
  9
$EXTMAX
 10
8.5
 20
11.0
 30
0.0
  9
$LIMMIN
 10
0.0
 20
0.0
  9
$LIMMAX
 10
8.5
 20
11.0
  9
$ORTHOMODE
 70
     0
  9
$REGENMODE
 70
     1
  9
$FILLMODE
 70
     1
  9
$QTEXTMODE
 70
     0
  9
$MIRRTEXT
 70
     1
  9
$LTSCALE
 40
1.0
  9
$ATTMODE
 70
     1
  9
$TEXTSIZE
 40
0.1377952756
  9
$TRACEWID
 40
0.05
  9
$TEXTSTYLE
  7
Standard
  9
$CLAYER
  8
0
  9
$CELTYPE
  6
ByLayer
  9
$CECOLOR
 62
   256
  9
$CELTSCALE
 40
1.0
  9
$DISPSILH
 70
     0
  9
$DIMSCALE
 40
1.0
  9
$DIMASZ
 40
0.13
  9
$DIMEXO
 40
0.0393700787
  9
$DIMDLI
 40
0.38
  9
$DIMRND
 40
0.0
  9
$DIMDLE
 40
0.0
  9
$DIMEXE
 40
0.0393700787
  9
$DIMTP
 40
0.0
  9
$DIMTM
 40
0.0
  9
$DIMTXT
 40
0.1377952756
  9
$DIMCEN
 40
0.09
  9
$DIMTSZ
 40
0.0
  9
$DIMTOL
 70
     0
  9
$DIMLIM
 70
     0
  9
$DIMTIH
 70
     1
  9
$DIMTOH
 70
     1
  9
$DIMSE1
 70
     0
  9
$DIMSE2
 70
     0
  9
$DIMTAD
 70
     1
  9
$DIMZIN
 70
     0
  9
$DIMBLK
  1

  9
$DIMASO
 70
     1
  9
$DIMSHO
 70
     1
  9
$DIMPOST
  1

  9
$DIMAPOST
  1

  9
$DIMALT
 70
     0
  9
$DIMALTD
 70
     2
  9
$DIMALTF
 40
25.4
  9
$DIMLFAC
 40
20.0
  9
$DIMTOFL
 70
     0
  9
$DIMTVP
 40
0.0
  9
$DIMTIX
 70
     0
  9
$DIMSOXD
 70
     0
  9
$DIMSAH
 70
     0
  9
$DIMBLK1
  1

  9
$DIMBLK2
  1

  9
$DIMSTYLE
  2
Standard
  9
$DIMCLRD
 70
     0
  9
$DIMCLRE
 70
     0
  9
$DIMCLRT
 70
     0
  9
$DIMTFAC
 40
1.0
  9
$DIMGAP
 40
0.06
  9
$DIMJUST
 70
     0
  9
$DIMSD1
 70
     0
  9
$DIMSD2
 70
     0
  9
$DIMTOLJ
 70
     1
  9
$DIMTZIN
 70
     0
  9
$DIMALTZ
 70
     0
  9
$DIMALTTZ
 70
     0
  9
$DIMUPT
 70
     0
  9
$DIMDEC
 70
     2
  9
$DIMTDEC
 70
     2
  9
$DIMALTU
 70
     2
  9
$DIMALTTD
 70
     2
  9
$DIMTXSTY
  7
Standard
  9
$DIMAUNIT
 70
     0
  9
$DIMADEC
 70
     2
  9
$DIMALTRND
 40
0.0
  9
$DIMAZIN
 70
     0
  9
$DIMDSEP
 70
    46
  9
$DIMATFIT
 70
     3
  9
$DIMFRAC
 70
     0
  9
$DIMLDRBLK
  1

  9
$DIMLUNIT
 70
     2
  9
$DIMLWD
 70
    -2
  9
$DIMLWE
 70
    -2
  9
$DIMTMOVE
 70
     0
  9
$LUNITS
 70
     2
  9
$LUPREC
 70
     2
  9
$SKETCHINC
 40
0.1
  9
$FILLETRAD
 40
0.5
  9
$AUNITS
 70
     0
  9
$AUPREC
 70
     2
  9
$MENU
  1
.
  9
$ELEVATION
 40
0.0
  9
$PELEVATION
 40
0.0
  9
$THICKNESS
 40
0.0
  9
$LIMCHECK
 70
     0
  9
$CHAMFERA
 40
0.0
  9
$CHAMFERB
 40
0.0
  9
$CHAMFERC
 40
0.0
  9
$CHAMFERD
 40
0.0
  9
$SKPOLY
 70
     0
  9
$TDCREATE
 40
2457224.337231701
  9
$TDUCREATE
 40
2457224.628898368
  9
$TDUPDATE
 40
2457224.337232419
  9
$TDUUPDATE
 40
2457224.628899086
  9
$TDINDWG
 40
0.0000000116
  9
$TDUSRTIMER
 40
0.0000000116
  9
$USRTIMER
 70
     1
  9
$ANGBASE
 50
0.0
  9
$ANGDIR
 70
     0
  9
$PDMODE
 70
     0
  9
$PDSIZE
 40
-1.0
  9
$PLINEWID
 40
0.0
  9
$SPLFRAME
 70
     0
  9
$SPLINETYPE
 70
     6
  9
$SPLINESEGS
 70
     8
  9
$HANDSEED
  5
170
  9
$SURFTAB1
 70
     6
  9
$SURFTAB2
 70
     6
  9
$SURFTYPE
 70
     6
  9
$SURFU
 70
     6
  9
$SURFV
 70
     6
  9
$UCSBASE
  2

  9
$UCSNAME
  2

  9
$UCSORG
 10
0.0
 20
0.0
 30
0.0
  9
$UCSXDIR
 10
1.0
 20
0.0
 30
0.0
  9
$UCSYDIR
 10
0.0
 20
1.0
 30
0.0
  9
$UCSORTHOREF
  2

  9
$UCSORTHOVIEW
 70
     0
  9
$UCSORGTOP
 10
0.0
 20
0.0
 30
0.0
  9
$UCSORGBOTTOM
 10
0.0
 20
0.0
 30
0.0
  9
$UCSORGLEFT
 10
0.0
 20
0.0
 30
0.0
  9
$UCSORGRIGHT
 10
0.0
 20
0.0
 30
0.0
  9
$UCSORGFRONT
 10
0.0
 20
0.0
 30
0.0
  9
$UCSORGBACK
 10
0.0
 20
0.0
 30
0.0
  9
$PUCSBASE
  2

  9
$PUCSNAME
  2

  9
$PUCSORG
 10
0.0
 20
0.0
 30
0.0
  9
$PUCSXDIR
 10
1.0
 20
0.0
 30
0.0
  9
$PUCSYDIR
 10
0.0
 20
1.0
 30
0.0
  9
$PUCSORTHOREF
  2

  9
$PUCSORTHOVIEW
 70
     0
  9
$PUCSORGTOP
 10
0.0
 20
0.0
 30
0.0
  9
$PUCSORGBOTTOM
 10
0.0
 20
0.0
 30
0.0
  9
$PUCSORGLEFT
 10
0.0
 20
0.0
 30
0.0
  9
$PUCSORGRIGHT
 10
0.0
 20
0.0
 30
0.0
  9
$PUCSORGFRONT
 10
0.0
 20
0.0
 30
0.0
  9
$PUCSORGBACK
 10
0.0
 20
0.0
 30
0.0
  9
$USERI1
 70
     0
  9
$USERI2
 70
     0
  9
$USERI3
 70
     0
  9
$USERI4
 70
     0
  9
$USERI5
 70
     0
  9
$USERR1
 40
0.0
  9
$USERR2
 40
0.0
  9
$USERR3
 40
0.0
  9
$USERR4
 40
0.0
  9
$USERR5
 40
0.0
  9
$WORLDVIEW
 70
     1
  9
$SHADEDGE
 70
     3
  9
$SHADEDIF
 70
    70
  9
$TILEMODE
 70
     1
  9
$MAXACTVP
 70
    64
  9
$PINSBASE
 10
0.0
 20
0.0
 30
0.0
  9
$PLIMCHECK
 70
     0
  9
$PEXTMIN
 10
1.0000000000E+20
 20
1.0000000000E+20
 30
1.0000000000E+20
  9
$PEXTMAX
 10
-1.0000000000E+20
 20
-1.0000000000E+20
 30
-1.0000000000E+20
  9
$PLIMMIN
 10
0.0
 20
0.0
  9
$PLIMMAX
 10
12.0
 20
9.0
  9
$UNITMODE
 70
     0
  9
$VISRETAIN
 70
     1
  9
$PLINEGEN
 70
     0
  9
$PSLTSCALE
 70
     1
  9
$TREEDEPTH
 70
  3020
  9
$CMLSTYLE
  2
Standard
  9
$CMLJUST
 70
     0
  9
$CMLSCALE
 40
1.0
  9
$PROXYGRAPHICS
 70
     1
  9
$MEASUREMENT
 70
     0
  9
$CELWEIGHT
370
    -1
  9
$ENDCAPS
280
     0
  9
$JOINSTYLE
280
     0
  9
$LWDISPLAY
290
     1
  9
$INSUNITS
 70
     1
  9
$HYPERLINKBASE
  1

  9
$STYLESHEET
  1

  9
$XEDIT
290
     1
  9
$CEPSNTYPE
380
     0
  9
$PSTYLEMODE
290
     1
  9
$FINGERPRINTGUID
  2
{ED262FE5-8BAD-4BFA-BC65-CE10F0CD8813}
  9
$VERSIONGUID
  2
{FAEB1C32-E019-11D5-929B-00C0DF256EC4}
  9
$EXTNAMES
290
     1
  9
$PSVPSCALE
 40
0.0
  9
$OLESTARTUP
290
     0
  0
ENDSEC
  0
SECTION
  2
CLASSES
  0
CLASS
  1
ACDBDICTIONARYWDFLT
  2
AcDbDictionaryWithDefault
  3
ObjectDBX Classes
 90
        0
280
     0
281
     0
  0
CLASS
  1
VISUALSTYLE
  2
AcDbVisualStyle
  3
ObjectDBX Classes
 90
     4095
280
     0
281
     0
  0
CLASS
  1
MATERIAL
  2
AcDbMaterial
  3
ObjectDBX Classes
 90
     1153
280
     0
281
     0
  0
CLASS
  1
SCALE
  2
AcDbScale
  3
ObjectDBX Classes
 90
     1153
280
     0
281
     0
  0
CLASS
  1
SUN
  2
AcDbSun
  3
SCENEOE
 90
     1153
280
     0
281
     0
  0
CLASS
  1
ACDBPLACEHOLDER
  2
AcDbPlaceHolder
  3
ObjectDBX Classes
 90
        0
280
     0
281
     0
  0
CLASS
  1
LAYOUT
  2
AcDbLayout
  3
ObjectDBX Classes
 90
        0
280
     0
281
     0
  0
ENDSEC
  0
SECTION
  2
TABLES
  0
TABLE
  2
VPORT
  5
8
330
0
100
AcDbSymbolTable
 70
     1
  0
VPORT
  5
29
330
8
100
AcDbSymbolTableRecord
100
AcDbViewportTableRecord
  2
*Active
 70
     0
 10
0.0
 20
0.0
 11
1.0
 21
1.0
 12
4.25
 22
5.5
 13
0.0
 23
0.0
 14
0.5
 24
0.5
 15
0.5
 25
0.5
 16
0.0
 26
0.0
 36
1.0
 17
0.0
 27
0.0
 37
0.0
 40
11.0
 41
0.7727272727
 42
50.0
 43
0.0
 44
0.0
 50
0.0
 51
0.0
 71
     0
 72
  2000
 73
     1
 74
     3
 75
     0
 76
     0
 77
     0
 78
     0
281
     0
 65
     1
110
0.0
120
0.0
130
0.0
111
1.0
121
0.0
131
0.0
112
0.0
122
1.0
132
0.0
 79
     0
146
0.0
  0
ENDTAB
  0
TABLE
  2
LTYPE
  5
5
330
0
100
AcDbSymbolTable
 70
     6
  0
LTYPE
  5
14
330
5
100
AcDbSymbolTableRecord
100
AcDbLinetypeTableRecord
  2
ByBlock
 70
     0
  3

 72
    65
 73
     0
 40
0.0
  0
LTYPE
  5
15
330
5
100
AcDbSymbolTableRecord
100
AcDbLinetypeTableRecord
  2
ByLayer
 70
     0
  3

 72
    65
 73
     0
 40
0.0
  0
LTYPE
  5
16
330
5
100
AcDbSymbolTableRecord
100
AcDbLinetypeTableRecord
  2
Continuous
 70
     0
  3
Solid line
 72
    65
 73
     0
 40
0.0
  0
LTYPE
  5
6A
330
5
100
AcDbSymbolTableRecord
100
AcDbLinetypeTableRecord
  2
HIDDEN
 70
     0
  3
Hidden __ __ __ __ __ __ __ __ __ __ __ __ __ __
 72
    65
 73
     2
 40
0.075
 49
0.05
 74
     0
 49
-0.025
 74
     0
  0
LTYPE
  5
6B
330
5
100
AcDbSymbolTableRecord
100
AcDbLinetypeTableRecord
  2
PHANTOM
 70
     0
  3
Phantom ______  __  __  ______  __  __  ______
 72
    65
 73
     6
 40
0.5
 49
0.25
 74
     0
 49
-0.05
 74
     0
 49
0.05
 74
     0
 49
-0.05
 74
     0
 49
0.05
 74
     0
 49
-0.05
 74
     0
  0
LTYPE
  5
6C
330
5
100
AcDbSymbolTableRecord
100
AcDbLinetypeTableRecord
  2
CENTER
 70
     0
  3
Center ____ _ ____ _ ____ _ ____ _ ____ _ ____
 72
    65
 73
     4
 40
0.4
 49
0.25
 74
     0
 49
-0.05
 74
     0
 49
0.05
 74
     0
 49
-0.05
 74
     0
  0
LTYPE
  5
6D
330
5
100
AcDbSymbolTableRecord
100
AcDbLinetypeTableRecord
  2
CENTERX2
 70
     0
  3
Center (2x) ________  __  ________  __  _____
 72
    65
 73
     4
 40
0.8
 49
0.5
 74
     0
 49
-0.1
 74
     0
 49
0.1
 74
     0
 49
-0.1
 74
     0
  0
LTYPE
  5
6E
330
5
100
AcDbSymbolTableRecord
100
AcDbLinetypeTableRecord
  2
DOT2
 70
     0
  3
Dot (.5x) ........................................
 72
    65
 73
     2
 40
0.025
 49
0.0
 74
     0
 49
-0.025
 74
     0
  0
ENDTAB
  0
TABLE
  2
LAYER
  5
2
330
0
100
AcDbSymbolTable
 70
     1
  0
LAYER
  5
10
330
2
100
AcDbSymbolTableRecord
100
AcDbLayerTableRecord
  2
0
 70
     0
 62
     7
  6
Continuous
370
    -3
390
F
  0
ENDTAB
  0
TABLE
  2
STYLE
  5
3
330
0
100
AcDbSymbolTable
 70
     1
  0
STYLE
  5
11
330
3
100
AcDbSymbolTableRecord
100
AcDbTextStyleTableRecord
  2
Standard
 70
     0
 40
0.0
 41
1.0
 50
0.0
 71
     0
 42
0.1377952756
  3
txt
  4

  0
ENDTAB
  0
TABLE
  2
VIEW
  5
6
330
0
100
AcDbSymbolTable
 70
     0
  0
ENDTAB
  0
TABLE
  2
UCS
  5
7
330
0
100
AcDbSymbolTable
 70
     0
  0
ENDTAB
  0
TABLE
  2
APPID
  5
9
330
0
100
AcDbSymbolTable
 70
     1
  0
APPID
  5
12
330
9
100
AcDbSymbolTableRecord
100
AcDbRegAppTableRecord
  2
ACAD
 70
     0
  0
ENDTAB
  0
TABLE
  2
DIMSTYLE
  5
A
330
0
100
AcDbSymbolTable
 70
     1
100
AcDbDimStyleTable
  0
DIMSTYLE
105
27
330
A
100
AcDbSymbolTableRecord
100
AcDbDimStyleTableRecord
  2
Standard
 70
     0
178
     0
340
11
  0
ENDTAB
  0
TABLE
  2
BLOCK_RECORD
  5
1
330
0
100
AcDbSymbolTable
 70
     5
  0
BLOCK_RECORD
  5
1F
330
1
100
AcDbSymbolTableRecord
100
AcDbBlockTableRecord
  2
*Model_Space
340
22
  0
BLOCK_RECORD
  5
1B
330
1
100
AcDbSymbolTableRecord
100
AcDbBlockTableRecord
  2
*Paper_Space
340
1E
  0
BLOCK_RECORD
  5
23
330
1
100
AcDbSymbolTableRecord
100
AcDbBlockTableRecord
  2
*Paper_Space0
340
26
  0
BLOCK_RECORD
  5
140
330
1
100
AcDbSymbolTableRecord
100
AcDbBlockTableRecord
  2
SW_CENTERMARKSYMBOL_0
340
0
102
{BLKREFS
331
14B
102
}
  0
BLOCK_RECORD
  5
14C
330
1
100
AcDbSymbolTableRecord
100
AcDbBlockTableRecord
  2
SW_CENTERMARKSYMBOL_1
340
0
102
{BLKREFS
331
157
102
}
  0
BLOCK_RECORD
  5
158
330
1
100
AcDbSymbolTableRecord
100
AcDbBlockTableRecord
  2
SW_CENTERMARKSYMBOL_2
340
0
102
{BLKREFS
331
163
102
}
  0
BLOCK_RECORD
  5
164
330
1
100
AcDbSymbolTableRecord
100
AcDbBlockTableRecord
  2
SW_CENTERMARKSYMBOL_3
340
0
102
{BLKREFS
331
16F
102
}
  0
ENDTAB
  0
ENDSEC
  0
SECTION
  2
BLOCKS
  0
BLOCK
  5
20
330
1F
100
AcDbEntity
  8
0
100
AcDbBlockBegin
  2
*Model_Space
 70
     0
 10
0.0
 20
0.0
 30
0.0
  3
*Model_Space
  1
*Model_Space
  0
ENDBLK
  5
21
330
1F
100
AcDbEntity
  8
0
100
AcDbBlockEnd
  0
BLOCK
  5
1C
330
1B
100
AcDbEntity
 67
     1
  8
0
100
AcDbBlockBegin
  2
*Paper_Space
 70
     0
 10
0.0
 20
0.0
 30
0.0
  3
*Paper_Space
  1
*Paper_Space
  0
ENDBLK
  5
1D
330
1B
100
AcDbEntity
 67
     1
  8
0
100
AcDbBlockEnd
  0
BLOCK
  5
24
330
23
100
AcDbEntity
  8
0
100
AcDbBlockBegin
  2
*Paper_Space0
 70
     0
 10
0.0
 20
0.0
 30
0.0
  3
*Paper_Space0
  1
*Paper_Space0
  0
ENDBLK
  5
25
330
23
100
AcDbEntity
  8
0
100
AcDbBlockEnd
  0
BLOCK
  5
141
330
140
100
AcDbEntity
  8
0
100
AcDbBlockBegin
  2
SW_CENTERMARKSYMBOL_0
 70
     0
 10
0.0
 20
0.0
 30
0.0
  3
SW_CENTERMARKSYMBOL_0
  1
SW_CENTERMARKSYMBOL_0
  0
LINE
  5
143
330
140
100
AcDbEntity
  8
0
  6
Continuous
 62
     0
370
     0
100
AcDbLine
 10
0.0
 20
0.0
 30
0.0
 11
0.0
 21
0.0984251969
 31
0.0
  0
LINE
  5
144
330
140
100
AcDbEntity
  8
0
  6
Continuous
 62
     0
370
     0
100
AcDbLine
 10
0.0
 20
0.0
 30
0.0
 11
-0.0984251969
 21
0.0
 31
0.0
  0
LINE
  5
145
330
140
100
AcDbEntity
  8
0
  6
Continuous
 62
     0
370
     0
100
AcDbLine
 10
0.0
 20
0.0
 30
0.0
 11
0.0
 21
-0.0984251969
 31
0.0
  0
LINE
  5
146
330
140
100
AcDbEntity
  8
0
  6
Continuous
 62
     0
370
     0
100
AcDbLine
 10
0.0
 20
0.0
 30
0.0
 11
0.0984251969
 21
0.0
 31
0.0
  0
LINE
  5
147
330
140
100
AcDbEntity
  8
0
  6
Continuous
 62
     0
370
     0
100
AcDbLine
 10
0.0
 20
0.0984251969
 30
0.0
 11
0.0
 21
0.1924251969
 31
0.0
  0
LINE
  5
148
330
140
100
AcDbEntity
  8
0
  6
Continuous
 62
     0
370
     0
100
AcDbLine
 10
-0.0984251969
 20
0.0
 30
0.0
 11
-0.1924251969
 21
0.0
 31
0.0
  0
LINE
  5
149
330
140
100
AcDbEntity
  8
0
  6
Continuous
 62
     0
370
     0
100
AcDbLine
 10
0.0
 20
-0.0984251969
 30
0.0
 11
0.0
 21
-0.1924251969
 31
0.0
  0
LINE
  5
14A
330
140
100
AcDbEntity
  8
0
  6
Continuous
 62
     0
370
     0
100
AcDbLine
 10
0.0984251969
 20
0.0
 30
0.0
 11
0.1924251969
 21
0.0
 31
0.0
  0
ENDBLK
  5
142
330
140
100
AcDbEntity
  8
0
100
AcDbBlockEnd
  0
BLOCK
  5
14D
330
14C
100
AcDbEntity
  8
0
100
AcDbBlockBegin
  2
SW_CENTERMARKSYMBOL_1
 70
     0
 10
0.0
 20
0.0
 30
0.0
  3
SW_CENTERMARKSYMBOL_1
  1
SW_CENTERMARKSYMBOL_1
  0
LINE
  5
14F
330
14C
100
AcDbEntity
  8
0
  6
Continuous
 62
     0
370
     0
100
AcDbLine
 10
0.0
 20
0.0
 30
0.0
 11
0.0
 21
0.0984251969
 31
0.0
  0
LINE
  5
150
330
14C
100
AcDbEntity
  8
0
  6
Continuous
 62
     0
370
     0
100
AcDbLine
 10
0.0
 20
0.0
 30
0.0
 11
-0.0984251969
 21
0.0
 31
0.0
  0
LINE
  5
151
330
14C
100
AcDbEntity
  8
0
  6
Continuous
 62
     0
370
     0
100
AcDbLine
 10
0.0
 20
0.0
 30
0.0
 11
0.0
 21
-0.0984251969
 31
0.0
  0
LINE
  5
152
330
14C
100
AcDbEntity
  8
0
  6
Continuous
 62
     0
370
     0
100
AcDbLine
 10
0.0
 20
0.0
 30
0.0
 11
0.0984251969
 21
0.0
 31
0.0
  0
LINE
  5
153
330
14C
100
AcDbEntity
  8
0
  6
Continuous
 62
     0
370
     0
100
AcDbLine
 10
0.0
 20
0.0984251969
 30
0.0
 11
0.0
 21
0.1924251969
 31
0.0
  0
LINE
  5
154
330
14C
100
AcDbEntity
  8
0
  6
Continuous
 62
     0
370
     0
100
AcDbLine
 10
-0.0984251969
 20
0.0
 30
0.0
 11
-0.1924251969
 21
0.0
 31
0.0
  0
LINE
  5
155
330
14C
100
AcDbEntity
  8
0
  6
Continuous
 62
     0
370
     0
100
AcDbLine
 10
0.0
 20
-0.0984251969
 30
0.0
 11
0.0
 21
-0.1924251969
 31
0.0
  0
LINE
  5
156
330
14C
100
AcDbEntity
  8
0
  6
Continuous
 62
     0
370
     0
100
AcDbLine
 10
0.0984251969
 20
0.0
 30
0.0
 11
0.1924251969
 21
0.0
 31
0.0
  0
ENDBLK
  5
14E
330
14C
100
AcDbEntity
  8
0
100
AcDbBlockEnd
  0
BLOCK
  5
159
330
158
100
AcDbEntity
  8
0
100
AcDbBlockBegin
  2
SW_CENTERMARKSYMBOL_2
 70
     0
 10
0.0
 20
0.0
 30
0.0
  3
SW_CENTERMARKSYMBOL_2
  1
SW_CENTERMARKSYMBOL_2
  0
LINE
  5
15B
330
158
100
AcDbEntity
  8
0
  6
Continuous
 62
     0
370
     0
100
AcDbLine
 10
0.0
 20
0.0
 30
0.0
 11
0.0
 21
0.0984251969
 31
0.0
  0
LINE
  5
15C
330
158
100
AcDbEntity
  8
0
  6
Continuous
 62
     0
370
     0
100
AcDbLine
 10
0.0
 20
0.0
 30
0.0
 11
-0.0984251969
 21
0.0
 31
0.0
  0
LINE
  5
15D
330
158
100
AcDbEntity
  8
0
  6
Continuous
 62
     0
370
     0
100
AcDbLine
 10
0.0
 20
0.0
 30
0.0
 11
0.0
 21
-0.0984251969
 31
0.0
  0
LINE
  5
15E
330
158
100
AcDbEntity
  8
0
  6
Continuous
 62
     0
370
     0
100
AcDbLine
 10
0.0
 20
0.0
 30
0.0
 11
0.0984251969
 21
0.0
 31
0.0
  0
LINE
  5
15F
330
158
100
AcDbEntity
  8
0
  6
Continuous
 62
     0
370
     0
100
AcDbLine
 10
0.0
 20
0.0984251969
 30
0.0
 11
0.0
 21
0.1924251969
 31
0.0
  0
LINE
  5
160
330
158
100
AcDbEntity
  8
0
  6
Continuous
 62
     0
370
     0
100
AcDbLine
 10
-0.0984251969
 20
0.0
 30
0.0
 11
-0.1924251969
 21
0.0
 31
0.0
  0
LINE
  5
161
330
158
100
AcDbEntity
  8
0
  6
Continuous
 62
     0
370
     0
100
AcDbLine
 10
0.0
 20
-0.0984251969
 30
0.0
 11
0.0
 21
-0.1924251969
 31
0.0
  0
LINE
  5
162
330
158
100
AcDbEntity
  8
0
  6
Continuous
 62
     0
370
     0
100
AcDbLine
 10
0.0984251969
 20
0.0
 30
0.0
 11
0.1924251969
 21
0.0
 31
0.0
  0
ENDBLK
  5
15A
330
158
100
AcDbEntity
  8
0
100
AcDbBlockEnd
  0
BLOCK
  5
165
330
164
100
AcDbEntity
  8
0
100
AcDbBlockBegin
  2
SW_CENTERMARKSYMBOL_3
 70
     0
 10
0.0
 20
0.0
 30
0.0
  3
SW_CENTERMARKSYMBOL_3
  1
SW_CENTERMARKSYMBOL_3
  0
LINE
  5
167
330
164
100
AcDbEntity
  8
0
  6
Continuous
 62
     0
370
     0
100
AcDbLine
 10
0.0
 20
0.0
 30
0.0
 11
0.0
 21
0.0984251969
 31
0.0
  0
LINE
  5
168
330
164
100
AcDbEntity
  8
0
  6
Continuous
 62
     0
370
     0
100
AcDbLine
 10
0.0
 20
0.0
 30
0.0
 11
-0.0984251969
 21
0.0
 31
0.0
  0
LINE
  5
169
330
164
100
AcDbEntity
  8
0
  6
Continuous
 62
     0
370
     0
100
AcDbLine
 10
0.0
 20
0.0
 30
0.0
 11
0.0
 21
-0.0984251969
 31
0.0
  0
LINE
  5
16A
330
164
100
AcDbEntity
  8
0
  6
Continuous
 62
     0
370
     0
100
AcDbLine
 10
0.0
 20
0.0
 30
0.0
 11
0.0984251969
 21
0.0
 31
0.0
  0
LINE
  5
16B
330
164
100
AcDbEntity
  8
0
  6
Continuous
 62
     0
370
     0
100
AcDbLine
 10
0.0
 20
0.0984251969
 30
0.0
 11
0.0
 21
0.1924251969
 31
0.0
  0
LINE
  5
16C
330
164
100
AcDbEntity
  8
0
  6
Continuous
 62
     0
370
     0
100
AcDbLine
 10
-0.0984251969
 20
0.0
 30
0.0
 11
-0.1924251969
 21
0.0
 31
0.0
  0
LINE
  5
16D
330
164
100
AcDbEntity
  8
0
  6
Continuous
 62
     0
370
     0
100
AcDbLine
 10
0.0
 20
-0.0984251969
 30
0.0
 11
0.0
 21
-0.1924251969
 31
0.0
  0
LINE
  5
16E
330
164
100
AcDbEntity
  8
0
  6
Continuous
 62
     0
370
     0
100
AcDbLine
 10
0.0984251969
 20
0.0
 30
0.0
 11
0.1924251969
 21
0.0
 31
0.0
  0
ENDBLK
  5
166
330
164
100
AcDbEntity
  8
0
100
AcDbBlockEnd
  0
ENDSEC
  0
SECTION
  2
ENTITIES
  0
SPLINE
  5
6F
330
1F
100
AcDbEntity
  8
0
  6
Continuous
 62
     7
370
    15
100
AcDbSpline
210
0.0
220
0.0
230
1.0
 70
     8
 71
     3
 72
    14
 73
    10
 74
     0
 42
0.000000001
 43
0.00000001
 40
0.0
 40
0.0
 40
0.0
 40
0.0
 40
0.1669241343785027
 40
0.3338082956719755
 40
0.5001834443792345
 40
0.6250742877238338
 40
0.7500636751994094
 40
0.8750131182082467
 40
1.0
 40
1.0
 40
1.0
 40
1.0
 10
-4.884597067263854
 20
32.20474083207628
 30
0.0
 10
-4.853912796846967
 20
32.20524282583089
 30
0.0
 10
-4.792551603931782
 20
32.20624669312836
 30
0.0
 10
-4.700937551369924
 20
32.21498192624912
 30
0.0
 10
-4.618780111268427
 20
32.2382673402371
 30
0.0
 10
-4.554657319034203
 20
32.2822049910787
 30
0.0
 10
-4.511070447771472
 20
32.3364214872241
 30
0.0
 10
-4.481901618857955
 20
32.40032171796187
 30
0.0
 10
-4.478680870467064
 20
32.44646515738809
 30
0.0
 10
-4.477070255048374
 20
32.46954033308985
 30
0.0
  0
LINE
  5
70
330
1F
100
AcDbEntity
  8
0
  6
Continuous
 62
     7
370
    15
100
AcDbLine
 10
-5.1581589204
 20
32.2081810057
 30
0.0
 11
-4.8845970673
 21
32.2047408321
 31
0.0
  0
LINE
  5
71
330
1F
100
AcDbEntity
  8
0
  6
Continuous
 62
     7
370
    15
100
AcDbLine
 10
-4.8723898483
 20
32.7290176556
 30
0.0
 11
-5.1581589204
 21
32.7290176556
 31
0.0
  0
SPLINE
  5
72
330
1F
100
AcDbEntity
  8
0
  6
Continuous
 62
     7
370
    15
100
AcDbSpline
210
0.0
220
0.0
230
1.0
 70
     8
 71
     3
 72
    14
 73
    10
 74
     0
 42
0.000000001
 43
0.00000001
 40
0.0
 40
0.0
 40
0.0
 40
0.0
 40
0.1249706923053638
 40
0.2499048896796002
 40
0.3749133992099148
 40
0.4998125689204334
 40
0.6661896663946874
 40
0.8330718724007498
 40
1.0
 40
1.0
 40
1.0
 40
1.0
 10
-4.477070255048365
 20
32.46954033308985
 30
0.0
 10
-4.478682140521134
 20
32.49200336561203
 30
0.0
 10
-4.481905440751124
 20
32.53692287082379
 30
0.0
 10
-4.510466865316772
 20
32.5990291236809
 30
0.0
 10
-4.552132752349279
 20
32.65223171901505
 30
0.0
 10
-4.613364783758223
 20
32.69686676858882
 30
0.0
 10
-4.693627698785524
 20
32.71933297859663
 30
0.0
 10
-4.782746309287663
 20
32.72797110364383
 30
0.0
 10
-4.842505928282199
 20
32.7286687729461
 30
0.0
 10
-4.87238984828269
 20
32.72901765558568
 30
0.0
  0
LINE
  5
73
330
1F
100
AcDbEntity
  8
0
  6
Continuous
 62
     7
370
    15
100
AcDbLine
 10
-5.1581589204
 20
32.7290176556
 30
0.0
 11
-5.1581589204
 21
32.2081810057
 31
0.0
  0
SPLINE
  5
74
330
1F
100
AcDbEntity
  8
0
  6
Continuous
 62
     7
370
    15
100
AcDbSpline
210
0.0
220
0.0
230
1.0
 70
     8
 71
     3
 72
    14
 73
    10
 74
     0
 42
0.000000001
 43
0.00000001
 40
0.0
 40
0.0
 40
0.0
 40
0.0
 40
0.1669298170760459
 40
0.3337966324167193
 40
0.5002401298474008
 40
0.62517541102672
 40
0.7501563357986595
 40
0.8750700884359701
 40
1.0
 40
1.0
 40
1.0
 40
1.0
 10
-18.91454485877641
 20
32.20598924432118
 30
0.0
 10
-18.88349244805512
 20
32.20649838801754
 30
0.0
 10
-18.82139934624297
 20
32.20751648325204
 30
0.0
 10
-18.72859941789712
 20
32.21639791416215
 30
0.0
 10
-18.64570733445153
 20
32.24025374449393
 30
0.0
 10
-18.57970667338053
 20
32.28295079342835
 30
0.0
 10
-18.53470058056103
 20
32.33723981754449
 30
0.0
 10
-18.50476254624723
 20
32.40172387860524
 30
0.0
 10
-18.50126012424017
 20
32.448391887538
 30
0.0
 10
-18.49950879997505
 20
32.47172740115798
 30
0.0
  0
LINE
  5
75
330
1F
100
AcDbEntity
  8
0
  6
Continuous
 62
     7
370
    15
100
AcDbLine
 10
-19.2006283806
 20
32.2081810057
 30
0.0
 11
-18.9145448588
 21
32.2059892443
 31
0.0
  0
SPLINE
  5
76
330
1F
100
AcDbEntity
  8
0
  6
Continuous
 62
     7
370
    15
100
AcDbSpline
210
0.0
220
0.0
230
1.0
 70
     8
 71
     3
 72
    14
 73
    10
 74
     0
 42
0.000000001
 43
0.00000001
 40
0.0
 40
0.0
 40
0.0
 40
0.0
 40
0.1249241377821773
 40
0.2498479401413595
 40
0.3747992949706077
 40
0.499733627292477
 40
0.666183868322586
 40
0.8330751463670366
 40
1.0
 40
1.0
 40
1.0
 40
1.0
 10
-18.49950879997505
 20
32.47172740115799
 30
0.0
 10
-18.50120030307528
 20
32.49461016176155
 30
0.0
 10
-18.50458330473399
 20
32.54037562152816
 30
0.0
 10
-18.5356167776068
 20
32.60280697225867
 30
0.0
 10
-18.57974631741963
 20
32.65554454423623
 30
0.0
 10
-18.64359867531467
 20
32.69878385083808
 30
0.0
 10
-18.72566134136089
 20
32.71978366440663
 30
0.0
 10
-18.81641154203329
 20
32.72804087349679
 30
0.0
 10
-18.87724168676579
 20
32.72869203972438
 30
0.0
 10
-18.90765981831299
 20
32.72901765558568
 30
0.0
  0
LINE
  5
77
330
1F
100
AcDbEntity
  8
0
  6
Continuous
 62
     7
370
    15
100
AcDbLine
 10
-18.9076598183
 20
32.7290176556
 30
0.0
 11
-19.2006283806
 21
32.7290176556
 31
0.0
  0
LINE
  5
78
330
1F
100
AcDbEntity
  8
0
  6
Continuous
 62
     7
370
    15
100
AcDbLine
 10
-19.2006283806
 20
32.7290176556
 30
0.0
 11
-19.2006283806
 21
32.2081810057
 31
0.0
  0
LINE
  5
79
330
1F
100
AcDbEntity
  8
0
  6
Continuous
 62
     7
370
    15
100
AcDbLine
 10
0.2705241803
 20
32.9293361948
 30
0.0
 11
0.2705241803
 21
31.3267738011
 31
0.0
  0
LINE
  5
7A
330
1F
100
AcDbEntity
  8
0
  6
Continuous
 62
     7
370
    15
100
AcDbLine
 10
0.1302983869
 20
32.9293361948
 30
0.0
 11
0.2705241803
 21
32.9293361948
 31
0.0
  0
LINE
  5
7B
330
1F
100
AcDbEntity
  8
0
  6
Continuous
 62
     7
370
    15
100
AcDbLine
 10
0.1302983869
 20
31.3267738011
 30
0.0
 11
0.1302983869
 21
32.9293361948
 31
0.0
  0
LINE
  5
7C
330
1F
100
AcDbEntity
  8
0
  6
Continuous
 62
     7
370
    15
100
AcDbLine
 10
0.2705241803
 20
31.3267738011
 30
0.0
 11
0.1302983869
 21
31.3267738011
 31
0.0
  0
LINE
  5
7D
330
1F
100
AcDbEntity
  8
0
  6
Continuous
 62
     7
370
    15
100
AcDbLine
 10
-2.4337995658
 20
31.7396180985
 30
0.0
 11
-2.4337995658
 21
31.3267738011
 31
0.0
  0
SPLINE
  5
7E
330
1F
100
AcDbEntity
  8
0
  6
Continuous
 62
     7
370
    15
100
AcDbSpline
210
0.0
220
0.0
230
1.0
 70
     8
 71
     3
 72
    10
 73
     6
 74
     0
 42
0.000000001
 43
0.00000001
 40
0.0
 40
0.0
 40
0.0
 40
0.0
 40
0.2798576563643461
 40
0.5599072714873067
 40
1.0
 40
1.0
 40
1.0
 40
1.0
 10
-2.412205788538884
 20
32.04604698532114
 30
0.0
 10
-2.417297488739107
 20
32.0177682546471
 30
0.0
 10
-2.427484381616623
 20
31.96119139647383
 30
0.0
 10
-2.432436131103982
 20
31.85857104003465
 30
0.0
 10
-2.433282396698477
 20
31.78473854511913
 30
0.0
 10
-2.433799565752393
 20
31.73961809854712
 30
0.0
  0
SPLINE
  5
7F
330
1F
100
AcDbEntity
  8
0
  6
Continuous
 62
     7
370
    15
100
AcDbSpline
210
0.0
220
0.0
230
1.0
 70
     8
 71
     3
 72
    12
 73
     8
 74
     0
 42
0.000000001
 43
0.00000001
 40
0.0
 40
0.0
 40
0.0
 40
0.0
 40
0.1866981157173369
 40
0.37340318553296
 40
0.5602083436055109
 40
0.7801194706813638
 40
1.0
 40
1.0
 40
1.0
 40
1.0
 10
-2.023771235767984
 20
32.34840679910143
 30
0.0
 10
-2.056686264792986
 20
32.34621094288311
 30
0.0
 10
-2.122517548856114
 20
32.34181914865555
 30
0.0
 10
-2.215123429977526
 20
32.3033074661107
 30
0.0
 10
-2.299044321298228
 20
32.24078382868502
 30
0.0
 10
-2.373019384992289
 20
32.15612210623706
 30
0.0
 10
-2.39914425988795
 20
32.08273699041155
 30
0.0
 10
-2.412205788538893
 20
32.04604698532115
 30
0.0
  0
SPLINE
  5
80
330
1F
100
AcDbEntity
  8
0
  6
Continuous
 62
     7
370
    15
100
AcDbSpline
210
0.0
220
0.0
230
1.0
 70
     8
 71
     3
 72
    12
 73
     8
 74
     0
 42
0.000000001
 43
0.00000001
 40
0.0
 40
0.0
 40
0.0
 40
0.0
 40
0.1868259291651748
 40
0.3735418117409902
 40
0.5600880928992923
 40
0.7798968580439314
 40
1.0
 40
1.0
 40
1.0
 40
1.0
 10
-1.729235118274347
 20
32.12367382190263
 30
0.0
 10
-1.736070278678232
 20
32.14803613164538
 30
0.0
 10
-1.749736573352751
 20
32.1967464009328
 30
0.0
 10
-1.791323387903022
 20
32.26146452817303
 30
0.0
 10
-1.853631211808241
 20
32.31350389253917
 30
0.0
 10
-1.934498906808572
 20
32.34408536425637
 30
0.0
 10
-1.994000520506592
 20
32.3469656783444
 30
0.0
 10
-2.023771235767984
 20
32.34840679910143
 30
0.0
  0
SPLINE
  5
81
330
1F
100
AcDbEntity
  8
0
  6
Continuous
 62
     7
370
    15
100
AcDbSpline
210
0.0
220
0.0
230
1.0
 70
     8
 71
     3
 72
     9
 73
     5
 74
     0
 42
0.000000001
 43
0.00000001
 40
0.0
 40
0.0
 40
0.0
 40
0.0
 40
0.5602556253302108
 40
1.0
 40
1.0
 40
1.0
 40
1.0
 10
-1.712649069877793
 20
31.86388204970602
 30
0.0
 10
-1.712345677414506
 20
31.91263582516372
 30
0.0
 10
-1.711804152350669
 20
31.999656415861
 30
0.0
 10
-1.723911139000764
 20
32.08579490559815
 30
0.0
 10
-1.729235118274347
 20
32.12367382190263
 30
0.0
  0
LINE
  5
82
330
1F
100
AcDbEntity
  8
0
  6
Continuous
 62
     7
370
    15
100
AcDbLine
 10
-1.7126490699
 20
31.3267738011
 30
0.0
 11
-1.7126490699
 21
31.8638820497
 31
0.0
  0
LINE
  5
83
330
1F
100
AcDbEntity
  8
0
  6
Continuous
 62
     7
370
    15
100
AcDbLine
 10
-1.5724232764
 20
31.3267738011
 30
0.0
 11
-1.7126490699
 21
31.3267738011
 31
0.0
  0
LINE
  5
84
330
1F
100
AcDbEntity
  8
0
  6
Continuous
 62
     7
370
    15
100
AcDbLine
 10
-1.5724232764
 20
31.9098949582
 30
0.0
 11
-1.5724232764
 21
31.3267738011
 31
0.0
  0
SPLINE
  5
85
330
1F
100
AcDbEntity
  8
0
  6
Continuous
 62
     7
370
    15
100
AcDbSpline
210
0.0
220
0.0
230
1.0
 70
     8
 71
     3
 72
    14
 73
    10
 74
     0
 42
0.000000001
 43
0.00000001
 40
0.0
 40
0.0
 40
0.0
 40
0.0
 40
0.1400144408364392
 40
0.2799308769549093
 40
0.4198450865021677
 40
0.5597146666192744
 40
0.7062498113247939
 40
0.8531006180177727
 40
0.9999999999999999
 40
0.9999999999999999
 40
0.9999999999999999
 40
0.9999999999999999
 10
-1.999356797805655
 20
32.48863259253444
 30
0.0
 10
-1.960970436326353
 20
32.48630720821717
 30
0.0
 10
-1.884224582342914
 20
32.48165806726217
 30
0.0
 10
-1.777083053611192
 20
32.43513687100098
 30
0.0
 10
-1.686509837276583
 20
32.36299330213172
 30
0.0
 10
-1.620117843412827
 20
32.26485265494123
 30
0.0
 10
-1.58745992645229
 20
32.14984373457526
 30
0.0
 10
-1.574602049217454
 20
32.03017659817256
 30
0.0
 10
-1.573149614095149
 20
31.94999325793953
 30
0.0
 10
-1.572423276444792
 20
31.90989495816098
 30
0.0
  0
SPLINE
  5
86
330
1F
100
AcDbEntity
  8
0
  6
Continuous
 62
     7
370
    15
100
AcDbSpline
210
0.0
220
0.0
230
1.0
 70
     8
 71
     3
 72
    11
 73
     7
 74
     0
 42
0.000000001
 43
0.00000001
 40
0.0
 40
0.0
 40
0.0
 40
0.0
 40
0.2800978633917177
 40
0.5597815033819242
 40
0.7798650505347536
 40
1.0
 40
1.0
 40
1.0
 40
1.0
 10
-2.433799565752393
 20
32.26264650981162
 30
0.0
 10
-2.403303120534067
 20
32.29931742112531
 30
0.0
 10
-2.342355329839064
 20
32.37260501288696
 30
0.0
 10
-2.228501530486969
 20
32.44398211862949
 30
0.0
 10
-2.111506262078812
 20
32.48261651652636
 30
0.0
 10
-2.036742862490803
 20
32.48662707776676
 30
0.0
 10
-1.999356797805655
 20
32.48863259253444
 30
0.0
  0
LINE
  5
87
330
1F
100
AcDbEntity
  8
0
  6
Continuous
 62
     7
370
    15
100
AcDbLine
 10
-2.4337995658
 20
32.468596984
 30
0.0
 11
-2.4337995658
 21
32.2626465098
 31
0.0
  0
LINE
  5
88
330
1F
100
AcDbEntity
  8
0
  6
Continuous
 62
     7
370
    15
100
AcDbLine
 10
-2.5740253592
 20
32.468596984
 30
0.0
 11
-2.4337995658
 21
32.468596984
 31
0.0
  0
LINE
  5
89
330
1F
100
AcDbEntity
  8
0
  6
Continuous
 62
     7
370
    15
100
AcDbLine
 10
-2.5740253592
 20
31.3267738011
 30
0.0
 11
-2.5740253592
 21
32.468596984
 31
0.0
  0
LINE
  5
8A
330
1F
100
AcDbEntity
  8
0
  6
Continuous
 62
     7
370
    15
100
AcDbLine
 10
-2.4337995658
 20
31.3267738011
 30
0.0
 11
-2.5740253592
 21
31.3267738011
 31
0.0
  0
LINE
  5
8B
330
1F
100
AcDbEntity
  8
0
  6
Continuous
 62
     7
370
    15
100
AcDbLine
 10
-5.1581589204
 20
32.047924297
 30
0.0
 11
-5.1581589204
 21
31.3267738011
 31
0.0
  0
LINE
  5
8C
330
1F
100
AcDbEntity
  8
0
  6
Continuous
 62
     7
370
    15
100
AcDbLine
 10
-5.0464213312
 20
32.047924297
 30
0.0
 11
-5.1581589204
 21
32.047924297
 31
0.0
  0
SPLINE
  5
8D
330
1F
100
AcDbEntity
  8
0
  6
Continuous
 62
     7
370
    15
100
AcDbSpline
210
0.0
220
0.0
230
1.0
 70
     8
 71
     3
 72
    10
 73
     6
 74
     0
 42
0.000000001
 43
0.00000001
 40
0.0
 40
0.0
 40
0.0
 40
0.0
 40
0.279856693631771
 40
0.5599120604741774
 40
0.9999999999999999
 40
0.9999999999999999
 40
0.9999999999999999
 40
0.9999999999999999
 10
-4.648595526907121
 20
32.07359184045396
 30
0.0
 10
-4.685367025117
 20
32.067485093141
 30
0.0
 10
-4.758936126010144
 20
32.05526726327094
 30
0.0
 10
-4.892082254238655
 20
32.04956844902822
 30
0.0
 10
-4.987878892685107
 20
32.04854794117231
 30
0.0
 10
-5.046421331189483
 20
32.04792429696761
 30
0.0
  0
SPLINE
  5
8E
330
1F
100
AcDbEntity
  8
0
  6
Continuous
 62
     7
370
    15
100
AcDbSpline
210
0.0
220
0.0
230
1.0
 70
     8
 71
     3
 72
    12
 73
     8
 74
     0
 42
0.000000001
 43
0.00000001
 40
0.0
 40
0.0
 40
0.0
 40
0.0
 40
0.1869194332413252
 40
0.3735989659643653
 40
0.5601865524069501
 40
0.7798867273264897
 40
1.0
 40
1.0
 40
1.0
 40
1.0
 10
-4.336844461615363
 20
32.4701645392123
 30
0.0
 10
-4.33850971315159
 20
32.43595372052641
 30
0.0
 10
-4.341838078967917
 20
32.36757599080509
 30
0.0
 10
-4.375912989945773
 20
32.26929219979461
 30
0.0
 10
-4.439657212954869
 20
32.18029332544178
 30
0.0
 10
-4.532797720122262
 20
32.1093694367345
 30
0.0
 10
-4.609972095794132
 20
32.08552517117668
 30
0.0
 10
-4.648595526907121
 20
32.07359184045396
 30
0.0
  0
SPLINE
  5
8F
330
1F
100
AcDbEntity
  8
0
  6
Continuous
 62
     7
370
    15
100
AcDbSpline
210
0.0
220
0.0
230
1.0
 70
     8
 71
     3
 72
    12
 73
     8
 74
     0
 42
0.000000001
 43
0.00000001
 40
0.0
 40
0.0
 40
0.0
 40
0.0
 40
0.1867591908336809
 40
0.373448820295048
 40
0.5601812179847931
 40
0.7799062140879829
 40
0.9999999999999999
 40
0.9999999999999999
 40
0.9999999999999999
 40
0.9999999999999999
 10
-4.636073858225172
 20
32.86579858214741
 30
0.0
 10
-4.604123838894433
 20
32.85557368503384
 30
0.0
 10
-4.54023570051575
 20
32.83512769922906
 30
0.0
 10
-4.458078139798672
 20
32.7751792265975
 30
0.0
 10
-4.388752572832867
 20
32.69393686296633
 30
0.0
 10
-4.343777203701519
 20
32.58847248899981
 30
0.0
 10
-4.339156667090227
 20
32.50962256113481
 30
0.0
 10
-4.336844461615372
 20
32.47016453921231
 30
0.0
  0
SPLINE
  5
90
330
1F
100
AcDbEntity
  8
0
  6
Continuous
 62
     7
370
    15
100
AcDbSpline
210
0.0
220
0.0
230
1.0
 70
     8
 71
     3
 72
     9
 73
     5
 74
     0
 42
0.000000001
 43
0.00000001
 40
0.0
 40
0.0
 40
0.0
 40
0.0
 40
0.5603096863168199
 40
1.0
 40
1.0
 40
1.0
 40
1.0
 10
-4.991955827046301
 20
32.8892743642865
 30
0.0
 10
-4.925157808439679
 20
32.88948634175716
 30
0.0
 10
-4.805941560286411
 20
32.88986466373842
 30
0.0
 10
-4.687952503579716
 20
32.87314851210338
 30
0.0
 10
-4.636073858225172
 20
32.86579858214741
 30
0.0
  0
LINE
  5
91
330
1F
100
AcDbEntity
  8
0
  6
Continuous
 62
     7
370
    15
100
AcDbLine
 10
-5.2983847138
 20
32.8892743643
 30
0.0
 11
-4.991955827
 21
32.8892743643
 31
0.0
  0
LINE
  5
92
330
1F
100
AcDbEntity
  8
0
  6
Continuous
 62
     7
370
    15
100
AcDbLine
 10
-5.2983847138
 20
31.3267738011
 30
0.0
 11
-5.2983847138
 21
32.8892743643
 31
0.0
  0
LINE
  5
93
330
1F
100
AcDbEntity
  8
0
  6
Continuous
 62
     7
370
    15
100
AcDbLine
 10
-5.1581589204
 20
31.3267738011
 30
0.0
 11
-5.2983847138
 21
31.3267738011
 31
0.0
  0
SPLINE
  5
94
330
1F
100
AcDbEntity
  8
0
  6
Continuous
 62
     7
370
    15
100
AcDbSpline
210
0.0
220
0.0
230
1.0
 70
     8
 71
     3
 72
    14
 73
    10
 74
     0
 42
0.000000001
 43
0.00000001
 40
0.0
 40
0.0
 40
0.0
 40
0.0
 40
0.1400914815612351
 40
0.2801204200560832
 40
0.4201179126965151
 40
0.5601752635632716
 40
0.7068046545536
 40
0.8533538692694193
 40
1.0
 40
1.0
 40
1.0
 40
1.0
 10
-8.156394577846486
 20
31.30673819254607
 30
0.0
 10
-8.200962706334517
 20
31.30876736711318
 30
0.0
 10
-8.290079066116364
 20
31.31282481033367
 30
0.0
 10
-8.419695726025886
 20
31.34989336007551
 30
0.0
 10
-8.5379319953368
 20
31.41396951395751
 30
0.0
 10
-8.640461514043736
 20
31.50432184139601
 30
0.0
 10
-8.722457291951269
 20
31.61615716268337
 30
0.0
 10
-8.775199572054872
 20
31.74814401868563
 30
0.0
 10
-8.781039939268291
 20
31.84156870413303
 30
0.0
 10
-8.783961088144606
 20
31.88829648766835
 30
0.0
  0
SPLINE
  5
95
330
1F
100
AcDbEntity
  8
0
  6
Continuous
 62
     7
370
    15
100
AcDbSpline
210
0.0
220
0.0
230
1.0
 70
     8
 71
     3
 72
    12
 73
     8
 74
     0
 42
0.000000001
 43
0.00000001
 40
0.0
 40
0.0
 40
0.0
 40
0.0
 40
0.1866197508223946
 40
0.3732583681783392
 40
0.559947902395822
 40
0.7799096357273521
 40
1.0
 40
1.0
 40
1.0
 40
1.0
 10
-7.622102296703178
 20
31.57028458803562
 30
0.0
 10
-7.645220127075645
 20
31.53915962204955
 30
0.0
 10
-7.691458124943685
 20
31.47690654346402
 30
0.0
 10
-7.784053747593763
 20
31.4050761738017
 30
0.0
 10
-7.893434189362779
 20
31.3483861546547
 30
0.0
 10
-8.019591764939472
 20
31.31264875865581
 30
0.0
 10
-8.110784754717356
 20
31.3087087651471
 30
0.0
 10
-8.156394577846486
 20
31.30673819254607
 30
0.0
  0
LINE
  5
96
330
1F
100
AcDbEntity
  8
0
  6
Continuous
 62
     7
370
    15
100
AcDbLine
 10
-7.7394765141
 20
31.6472872185
 30
0.0
 11
-7.6221022967
 21
31.570284588
 31
0.0
  0
SPLINE
  5
97
330
1F
100
AcDbEntity
  8
0
  6
Continuous
 62
     7
370
    15
100
AcDbSpline
210
0.0
220
0.0
230
1.0
 70
     8
 71
     3
 72
    11
 73
     7
 74
     0
 42
0.000000001
 43
0.00000001
 40
0.0
 40
0.0
 40
0.0
 40
0.0
 40
0.2799452144606864
 40
0.559711638806631
 40
0.7798397763003481
 40
1.0
 40
1.0
 40
1.0
 40
1.0
 10
-8.154202816499232
 20
31.44696398597907
 30
0.0
 10
-8.109575438318517
 20
31.44965681512763
 30
0.0
 10
-8.020349183726891
 20
31.45504075361952
 30
0.0
 10
-7.903411871561872
 20
31.50203162433769
 30
0.0
 10
-7.809072430774546
 20
31.56834221619713
 30
0.0
 10
-7.762676280051093
 20
31.62097093928178
 30
0.0
 10
-7.739476514119535
 20
31.64728721849466
 30
0.0
  0
SPLINE
  5
98
330
1F
100
AcDbEntity
  8
0
  6
Continuous
 62
     7
370
    15
100
AcDbSpline
210
0.0
220
0.0
230
1.0
 70
     8
 71
     3
 72
    13
 73
     9
 74
     0
 42
0.000000001
 43
0.00000001
 40
0.0
 40
0.0
 40
0.0
 40
0.0
 40
0.1864661493773829
 40
0.3729838982981176
 40
0.5594727143052542
 40
0.7062811615655552
 40
0.8531127030735305
 40
0.9999999999999999
 40
0.9999999999999999
 40
0.9999999999999999
 40
0.9999999999999999
 10
-8.64373998799072
 20
31.90081346307118
 30
0.0
 10
-8.639459510671239
 20
31.85447327048346
 30
0.0
 10
-8.630897371524098
 20
31.76178006189324
 30
0.0
 10
-8.564314730160307
 20
31.63666142269295
 30
0.0
 10
-8.473388436195128
 20
31.54312776487924
 30
0.0
 10
-8.368625428589683
 20
31.48490913817545
 30
0.0
 10
-8.263482799585171
 20
31.45212313663187
 30
0.0
 10
-8.190634087050004
 20
31.44868392048067
 30
0.0
 10
-8.154202816499232
 20
31.44696398597907
 30
0.0
  0
SPLINE
  5
99
330
1F
100
AcDbEntity
  8
0
  6
Continuous
 62
     7
370
    15
100
AcDbSpline
210
0.0
220
0.0
230
1.0
 70
     8
 71
     3
 72
    13
 73
     9
 74
     0
 42
0.000000001
 43
0.00000001
 40
0.0
 40
0.0
 40
0.0
 40
0.0
 40
0.1867533270674079
 40
0.37326520438064
 40
0.5598281484079344
 40
0.7065759543268977
 40
0.8532347304986435
 40
1.0
 40
1.0
 40
1.0
 40
1.0
 10
-8.155141472322468
 20
32.34840679910143
 30
0.0
 10
-8.20119269783471
 20
32.3456841744383
 30
0.0
 10
-8.29323561012297
 20
32.34024244514067
 30
0.0
 10
-8.42302985078821
 20
32.28718297391716
 30
0.0
 10
-8.524013747780627
 20
32.2063597908466
 30
0.0
 10
-8.595426990036657
 20
32.11132756532613
 30
0.0
 10
-8.636888988351183
 20
32.00932446996492
 30
0.0
 10
-8.641455768965438
 20
31.93699254925439
 30
0.0
 10
-8.64373998799072
 20
31.90081346307118
 30
0.0
  0
SPLINE
  5
9A
330
1F
100
AcDbEntity
  8
0
  6
Continuous
 62
     7
370
    15
100
AcDbSpline
210
0.0
220
0.0
230
1.0
 70
     8
 71
     3
 72
    11
 73
     7
 74
     0
 42
0.000000001
 43
0.00000001
 40
0.0
 40
0.0
 40
0.0
 40
0.0
 40
0.279914060024194
 40
0.559605477147233
 40
0.7797786423254448
 40
1.0
 40
1.0
 40
1.0
 40
1.0
 10
-7.739476514119535
 20
32.14808825986496
 30
0.0
 10
-7.768947335113808
 20
32.18198176493007
 30
0.0
 10
-7.827865536089461
 20
32.24974181625621
 30
0.0
 10
-7.938243930181678
 20
32.31203396621584
 30
0.0
 10
-8.049553833237422
 20
32.34381457065834
 30
0.0
 10
-8.11994302505777
 20
32.34687594461806
 30
0.0
 10
-8.155141472322468
 20
32.34840679910143
 30
0.0
  0
LINE
  5
9B
330
1F
100
AcDbEntity
  8
0
  6
Continuous
 62
     7
370
    15
100
AcDbLine
 10
-7.6221022967
 20
32.2210171241
 30
0.0
 11
-7.7394765141
 21
32.1480882599
 31
0.0
  0
SPLINE
  5
9C
330
1F
100
AcDbEntity
  8
0
  6
Continuous
 62
     7
370
    15
100
AcDbSpline
210
0.0
220
0.0
230
1.0
 70
     8
 71
     3
 72
    11
 73
     7
 74
     0
 42
0.000000001
 43
0.00000001
 40
0.0
 40
0.0
 40
0.0
 40
0.0
 40
0.2800688127252068
 40
0.5601290903907594
 40
0.780064560459934
 40
0.9999999999999999
 40
0.9999999999999999
 40
0.9999999999999999
 40
0.9999999999999999
 10
-8.144816258266887
 20
32.48863259253444
 30
0.0
 10
-8.087439083118259
 20
32.48465066940534
 30
0.0
 10
-7.972686481382743
 20
32.47668694449568
 30
0.0
 10
-7.822475386134817
 20
32.41742123237234
 30
0.0
 10
-7.699120675045759
 20
32.33296464532719
 30
0.0
 10
-7.647775088296171
 20
32.25833296274993
 30
0.0
 10
-7.622102296703178
 20
32.22101712405117
 30
0.0
  0
SPLINE
  5
9D
330
1F
100
AcDbEntity
  8
0
  6
Continuous
 62
     7
370
    15
100
AcDbSpline
210
0.0
220
0.0
230
1.0
 70
     8
 71
     3
 72
    14
 73
    10
 74
     0
 42
0.000000001
 43
0.00000001
 40
0.0
 40
0.0
 40
0.0
 40
0.0
 40
0.1399793374444002
 40
0.2799605628400951
 40
0.4199449557779923
 40
0.5598999303426554
 40
0.7065716528172588
 40
0.8532590694173636
 40
1.0
 40
1.0
 40
1.0
 40
1.0
 10
-8.783961088144606
 20
31.88829648766835
 30
0.0
 10
-8.781134769662529
 20
31.93399597557531
 30
0.0
 10
-8.775482094578804
 20
32.02539556775454
 30
0.0
 10
-8.72613156005905
 20
32.1548744839866
 30
0.0
 10
-8.651686137557146
 20
32.27058381308792
 30
0.0
 10
-8.549740305377124
 20
32.36702951801804
 30
0.0
 10
-8.426449849650393
 20
32.43765956715919
 30
0.0
 10
-8.288390195161695
 20
32.48152205283121
 30
0.0
 10
-8.19268005560938
 20
32.48626212447657
 30
0.0
 10
-8.144816258266887
 20
32.48863259253444
 30
0.0
  0
LINE
  5
9E
330
1F
100
AcDbEntity
  8
0
  6
Continuous
 62
     7
370
    15
100
AcDbLine
 10
-10.8272317774
 20
32.468596984
 30
0.0
 11
-10.8272317774
 21
32.6510763693
 31
0.0
  0
LINE
  5
9F
330
1F
100
AcDbEntity
  8
0
  6
Continuous
 62
     7
370
    15
100
AcDbLine
 10
-10.9874884861
 20
32.468596984
 30
0.0
 11
-10.8272317774
 21
32.468596984
 31
0.0
  0
LINE
  5
A0
330
1F
100
AcDbEntity
  8
0
  6
Continuous
 62
     7
370
    15
100
AcDbLine
 10
-10.9874884861
 20
32.3283758838
 30
0.0
 11
-10.9874884861
 21
32.468596984
 31
0.0
  0
LINE
  5
A1
330
1F
100
AcDbEntity
  8
0
  6
Continuous
 62
     7
370
    15
100
AcDbLine
 10
-10.8272317774
 20
32.3283758838
 30
0.0
 11
-10.9874884861
 21
32.3283758838
 31
0.0
  0
LINE
  5
A2
330
1F
100
AcDbEntity
  8
0
  6
Continuous
 62
     7
370
    15
100
AcDbLine
 10
-10.8272317774
 20
31.3267738011
 30
0.0
 11
-10.8272317774
 21
32.3283758838
 31
0.0
  0
LINE
  5
A3
330
1F
100
AcDbEntity
  8
0
  6
Continuous
 62
     7
370
    15
100
AcDbLine
 10
-10.687005984
 20
31.3267738011
 30
0.0
 11
-10.8272317774
 21
31.3267738011
 31
0.0
  0
LINE
  5
A4
330
1F
100
AcDbEntity
  8
0
  6
Continuous
 62
     7
370
    15
100
AcDbLine
 10
-10.6863817779
 20
32.3283758838
 30
0.0
 11
-10.687005984
 21
31.3267738011
 31
0.0
  0
LINE
  5
A5
330
1F
100
AcDbEntity
  8
0
  6
Continuous
 62
     7
370
    15
100
AcDbLine
 10
-10.446620921
 20
32.3283758838
 30
0.0
 11
-10.6863817779
 21
32.3283758838
 31
0.0
  0
LINE
  5
A6
330
1F
100
AcDbEntity
  8
0
  6
Continuous
 62
     7
370
    15
100
AcDbLine
 10
-10.446620921
 20
32.468596984
 30
0.0
 11
-10.446620921
 21
32.3283758838
 31
0.0
  0
LINE
  5
A7
330
1F
100
AcDbEntity
  8
0
  6
Continuous
 62
     7
370
    15
100
AcDbLine
 10
-10.6860673282
 20
32.468596984
 30
0.0
 11
-10.446620921
 21
32.468596984
 31
0.0
  0
LINE
  5
A8
330
1F
100
AcDbEntity
  8
0
  6
Continuous
 62
     7
370
    15
100
AcDbLine
 10
-10.6860673282
 20
32.626976381
 30
0.0
 11
-10.6860673282
 21
32.468596984
 31
0.0
  0
SPLINE
  5
A9
330
1F
100
AcDbEntity
  8
0
  6
Continuous
 62
     7
370
    15
100
AcDbSpline
210
0.0
220
0.0
230
1.0
 70
     8
 71
     3
 72
    12
 73
     8
 74
     0
 42
0.000000001
 43
0.00000001
 40
0.0
 40
0.0
 40
0.0
 40
0.0
 40
0.2492891444746245
 40
0.3745065711426271
 40
0.4988524578243828
 40
0.748963171991387
 40
0.9999999999999999
 40
0.9999999999999999
 40
0.9999999999999999
 40
0.9999999999999999
 10
-10.56869311076798
 20
32.80914600993609
 30
0.0
 10
-10.59026807995844
 20
32.8073042793474
 30
0.0
 10
-10.62268011198272
 20
32.80453745125627
 30
0.0
 10
-10.65896882253109
 20
32.78101809759466
 30
0.0
 10
-10.6863361328239
 20
32.74648562693689
 30
0.0
 10
-10.68450652358369
 20
32.69018784238974
 30
0.0
 10
-10.68554641941301
 20
32.64807281082631
 30
0.0
 10
-10.68606732818434
 20
32.62697638104186
 30
0.0
  0
SPLINE
  5
AA
330
1F
100
AcDbEntity
  8
0
  6
Continuous
 62
     7
370
    15
100
AcDbSpline
210
0.0
220
0.0
230
1.0
 70
     8
 71
     3
 72
     9
 73
     5
 74
     0
 42
0.000000001
 43
0.00000001
 40
0.0
 40
0.0
 40
0.0
 40
0.0
 40
0.5602498234301465
 40
1.0
 40
1.0
 40
1.0
 40
1.0
 10
-10.42659000568851
 20
32.77408721493828
 30
0.0
 10
-10.45224614967578
 20
32.78439891450564
 30
0.0
 10
-10.49804026314859
 20
32.80280445277824
 30
0.0
 10
-10.54711325426134
 20
32.80720907606709
 30
0.0
 10
-10.56869311076798
 20
32.80914600993609
 30
0.0
  0
LINE
  5
AB
330
1F
100
AcDbEntity
  8
0
  6
Continuous
 62
     7
370
    15
100
AcDbLine
 10
-10.4265900057
 20
32.9199449433
 30
0.0
 11
-10.4265900057
 21
32.7740872149
 31
0.0
  0
SPLINE
  5
AC
330
1F
100
AcDbEntity
  8
0
  6
Continuous
 62
     7
370
    15
100
AcDbSpline
210
0.0
220
0.0
230
1.0
 70
     8
 71
     3
 72
     9
 73
     5
 74
     0
 42
0.000000001
 43
0.00000001
 40
0.0
 40
0.0
 40
0.0
 40
0.0
 40
0.5597138042222904
 40
1.0
 40
1.0
 40
1.0
 40
1.0
 10
-10.59749107142482
 20
32.94936711008997
 30
0.0
 10
-10.56503118031439
 20
32.94705799150702
 30
0.0
 10
-10.50703745054475
 20
32.94293245705441
 30
0.0
 10
-10.45118227044785
 20
32.92697207792204
 30
0.0
 10
-10.42659000568851
 20
32.91994494331069
 30
0.0
  0
SPLINE
  5
AD
330
1F
100
AcDbEntity
  8
0
  6
Continuous
 62
     7
370
    15
100
AcDbSpline
210
0.0
220
0.0
230
1.0
 70
     8
 71
     3
 72
    12
 73
     8
 74
     0
 42
0.000000001
 43
0.00000001
 40
0.0
 40
0.0
 40
0.0
 40
0.0
 40
0.1874879496512002
 40
0.3747457616352358
 40
0.5607180992231661
 40
0.7799365313681836
 40
1.0
 40
1.0
 40
1.0
 40
1.0
 10
-10.82723177744058
 20
32.6510763693034
 30
0.0
 10
-10.82668588113304
 20
32.67810130974932
 30
0.0
 10
-10.82559475859466
 20
32.73211801807324
 30
0.0
 10
-10.81630153838272
 20
32.81345561111717
 30
0.0
 10
-10.77343778197842
 20
32.89066594747398
 30
0.0
 10
-10.69338847014425
 20
32.94195570915369
 30
0.0
 10
-10.62949783931021
 20
32.94689347688782
 30
0.0
 10
-10.59749107142482
 20
32.94936711008997
 30
0.0
  0
LINE
  5
AE
330
1F
100
AcDbEntity
  8
0
  6
Continuous
 62
     7
370
    15
100
AcDbLine
 10
-11.8288338602
 20
31.867636673
 30
0.0
 11
-12.8504668582
 21
31.867636673
 31
0.0
  0
SPLINE
  5
AF
330
1F
100
AcDbEntity
  8
0
  6
Continuous
 62
     7
370
    15
100
AcDbSpline
210
0.0
220
0.0
230
1.0
 70
     8
 71
     3
 72
    11
 73
     7
 74
     0
 42
0.000000001
 43
0.00000001
 40
0.0
 40
0.0
 40
0.0
 40
0.0
 40
0.2798301084977283
 40
0.5597322197760497
 40
0.7798346551832334
 40
1.0
 40
1.0
 40
1.0
 40
1.0
 10
-11.95309311806096
 20
32.26389492205652
 30
0.0
 10
-11.93093544282392
 20
32.23112851479099
 30
0.0
 10
-11.88661439098254
 20
32.16558726917136
 30
0.0
 10
-11.85122193563452
 20
32.06050375805047
 30
0.0
 10
-11.83214933450253
 20
31.96069091123393
 30
0.0
 10
-11.82993912355989
 20
31.89865770703083
 30
0.0
 10
-11.82883386018118
 20
31.86763667299896
 30
0.0
  0
SPLINE
  5
B0
330
1F
100
AcDbEntity
  8
0
  6
Continuous
 62
     7
370
    15
100
AcDbSpline
210
0.0
220
0.0
230
1.0
 70
     8
 71
     3
 72
    11
 73
     7
 74
     0
 42
0.000000001
 43
0.00000001
 40
0.0
 40
0.0
 40
0.0
 40
0.0
 40
0.2799817119995763
 40
0.5597276317616575
 40
0.7798344766580557
 40
1.0
 40
1.0
 40
1.0
 40
1.0
 10
-12.41289367307239
 20
32.48863259253444
 30
0.0
 10
-12.36320286110877
 20
32.48571400170567
 30
0.0
 10
-12.26386308529954
 20
32.47987927799817
 30
0.0
 10
-12.13335025769062
 20
32.42817519903453
 30
0.0
 10
-12.02880303198872
 20
32.35337503561981
 30
0.0
 10
-11.97833199825633
 20
32.29372427661432
 30
0.0
 10
-11.95309311806096
 20
32.26389492205652
 30
0.0
  0
SPLINE
  5
B1
330
1F
100
AcDbEntity
  8
0
  6
Continuous
 62
     7
370
    15
100
AcDbSpline
210
0.0
220
0.0
230
1.0
 70
     8
 71
     3
 72
    11
 73
     7
 74
     0
 42
0.000000001
 43
0.00000001
 40
0.0
 40
0.0
 40
0.0
 40
0.0
 40
0.2799375644438139
 40
0.5596433620804098
 40
0.7797713127051368
 40
0.9999999999999999
 40
0.9999999999999999
 40
0.9999999999999999
 40
0.9999999999999999
 10
-12.85923390357862
 20
32.27579238461602
 30
0.0
 10
-12.82731938362712
 20
32.31176663973129
 30
0.0
 10
-12.76351676649598
 20
32.38368536604103
 30
0.0
 10
-12.64490579528437
 20
32.44925812045221
 30
0.0
 10
-12.52596258248817
 20
32.48392354964984
 30
0.0
 10
-12.45058905706597
 20
32.48706267220272
 30
0.0
 10
-12.41289367307238
 20
32.48863259253444
 30
0.0
  0
SPLINE
  5
B2
330
1F
100
AcDbEntity
  8
0
  6
Continuous
 62
     7
370
    15
100
AcDbSpline
210
0.0
220
0.0
230
1.0
 70
     8
 71
     3
 72
    11
 73
     7
 74
     0
 42
0.000000001
 43
0.00000001
 40
0.0
 40
0.0
 40
0.0
 40
0.0
 40
0.2799705476466725
 40
0.5598674869835052
 40
0.7799145326269468
 40
1.0
 40
1.0
 40
1.0
 40
1.0
 10
-12.99069265162261
 20
31.89455732200932
 30
0.0
 10
-12.98889463905759
 20
31.93295849556985
 30
0.0
 10
-12.98529908665108
 20
32.00975074646647
 30
0.0
 10
-12.95483353783021
 20
32.11305194934814
 30
0.0
 10
-12.91244542598108
 20
32.20251560971533
 30
0.0
 10
-12.87697210993687
 20
32.25136537152242
 30
0.0
 10
-12.85923390357862
 20
32.27579238461602
 30
0.0
  0
SPLINE
  5
B3
330
1F
100
AcDbEntity
  8
0
  6
Continuous
 62
     7
370
    15
100
AcDbSpline
210
0.0
220
0.0
230
1.0
 70
     8
 71
     3
 72
    14
 73
    10
 74
     0
 42
0.000000001
 43
0.00000001
 40
0.0
 40
0.0
 40
0.0
 40
0.0
 40
0.1400826727160968
 40
0.2800540283373588
 40
0.4199736990470592
 40
0.5599487347638173
 40
0.7066281950237489
 40
0.8532983236421758
 40
1.0
 40
1.0
 40
1.0
 40
1.0
 10
-12.41633853994365
 20
31.30673819254607
 30
0.0
 10
-12.45926757807901
 20
31.3086970085958
 30
0.0
 10
-12.54509154066731
 20
31.31261308411653
 30
0.0
 10
-12.66930071031309
 20
31.35119824342814
 30
0.0
 10
-12.77968197744384
 20
31.41986316996952
 30
0.0
 10
-12.86822124443024
 20
31.51742670868794
 30
0.0
 10
-12.93740998607791
 20
31.63111917823693
 30
0.0
 10
-12.98313601929721
 20
31.75959790183199
 30
0.0
 10
-12.98817359360895
 20
31.84956762365196
 30
0.0
 10
-12.99069265162261
 20
31.89455732200932
 30
0.0
  0
SPLINE
  5
B4
330
1F
100
AcDbEntity
  8
0
  6
Continuous
 62
     7
370
    15
100
AcDbSpline
210
0.0
220
0.0
230
1.0
 70
     8
 71
     3
 72
    12
 73
     8
 74
     0
 42
0.000000001
 43
0.00000001
 40
0.0
 40
0.0
 40
0.0
 40
0.0
 40
0.1868315016786001
 40
0.3734574665361557
 40
0.560130379810674
 40
0.7799352248808448
 40
1.0
 40
1.0
 40
1.0
 40
1.0
 10
-11.88893129926378
 20
31.6219341247091
 30
0.0
 10
-11.90945782670207
 20
31.58707419167179
 30
0.0
 10
-11.9504882999628
 20
31.51739267565993
 30
0.0
 10
-12.03563109942379
 20
31.42952811767977
 30
0.0
 10
-12.14383890622935
 20
31.35947881404373
 30
0.0
 10
-12.2733638183465
 20
31.31346109369325
 30
0.0
 10
-12.36866152813813
 20
31.30898004225056
 30
0.0
 10
-12.41633853994365
 20
31.30673819254607
 30
0.0
  0
LINE
  5
B5
330
1F
100
AcDbEntity
  8
0
  6
Continuous
 62
     7
370
    15
100
AcDbLine
 10
-12.0135050068
 20
31.687349049
 30
0.0
 11
-11.8889312993
 21
31.6219341247
 31
0.0
  0
SPLINE
  5
B6
330
1F
100
AcDbEntity
  8
0
  6
Continuous
 62
     7
370
    15
100
AcDbSpline
210
0.0
220
0.0
230
1.0
 70
     8
 71
     3
 72
    11
 73
     7
 74
     0
 42
0.000000001
 43
0.00000001
 40
0.0
 40
0.0
 40
0.0
 40
0.0
 40
0.279900687314385
 40
0.5596973910147531
 40
0.7795379539634857
 40
1.0
 40
1.0
 40
1.0
 40
1.0
 10
-12.43386324416344
 20
31.44696398597907
 30
0.0
 10
-12.38654724169132
 20
31.45090352705583
 30
0.0
 10
-12.29193281472799
 20
31.45878114566268
 30
0.0
 10
-12.16820432428904
 20
31.51256042919473
 30
0.0
 10
-12.07696230450742
 20
31.59524034597559
 30
0.0
 10
-12.03467733434768
 20
31.6566172703571
 30
0.0
 10
-12.01350500684434
 20
31.68734904903031
 30
0.0
  0
SPLINE
  5
B7
330
1F
100
AcDbEntity
  8
0
  6
Continuous
 62
     7
370
    15
100
AcDbSpline
210
0.0
220
0.0
230
1.0
 70
     8
 71
     3
 72
    13
 73
     9
 74
     0
 42
0.000000001
 43
0.00000001
 40
0.0
 40
0.0
 40
0.0
 40
0.0
 40
0.1867176948680607
 40
0.3732436374911564
 40
0.5597705163610955
 40
0.7064882071388728
 40
0.8531844211858208
 40
1.0
 40
1.0
 40
1.0
 40
1.0
 10
-12.85046685818961
 20
31.86763667299896
 30
0.0
 10
-12.84714057386572
 20
31.8265393164485
 30
0.0
 10
-12.8404914211903
 20
31.74438680882998
 30
0.0
 10
-12.78878605275219
 20
31.62995202013473
 30
0.0
 10
-12.7117247191931
 20
31.54371942903552
 30
0.0
 10
-12.62342630385254
 20
31.48457975132443
 30
0.0
 10
-12.5307328943081
 20
31.45246205898494
 30
0.0
 10
-12.46616188074695
 20
31.44879717379032
 30
0.0
 10
-12.43386324416344
 20
31.44696398597907
 30
0.0
  0
LINE
  5
B8
330
1F
100
AcDbEntity
  8
0
  6
Continuous
 62
     7
370
    15
100
AcDbLine
 10
-14.8536757169
 20
31.7396180985
 30
0.0
 11
-14.8536757169
 21
31.3267738011
 31
0.0
  0
SPLINE
  5
B9
330
1F
100
AcDbEntity
  8
0
  6
Continuous
 62
     7
370
    15
100
AcDbSpline
210
0.0
220
0.0
230
1.0
 70
     8
 71
     3
 72
    10
 73
     6
 74
     0
 42
0.000000001
 43
0.00000001
 40
0.0
 40
0.0
 40
0.0
 40
0.0
 40
0.2798595654379311
 40
0.5599077196374934
 40
1.0
 40
1.0
 40
1.0
 40
1.0
 10
-14.83207724645731
 20
32.04604698532114
 30
0.0
 10
-14.83717146017751
 20
32.01776835176015
 30
0.0
 10
-14.84736332045197
 20
31.96119202853593
 30
0.0
 10
-14.85230374247337
 20
31.85857064586693
 30
0.0
 10
-14.85315530809727
 20
31.78473844132965
 30
0.0
 10
-14.85367571694993
 20
31.73961809854712
 30
0.0
  0
SPLINE
  5
BA
330
1F
100
AcDbEntity
  8
0
  6
Continuous
 62
     7
370
    15
100
AcDbSpline
210
0.0
220
0.0
230
1.0
 70
     8
 71
     3
 72
    12
 73
     8
 74
     0
 42
0.000000001
 43
0.00000001
 40
0.0
 40
0.0
 40
0.0
 40
0.0
 40
0.1866981157173369
 40
0.37340318553296
 40
0.5602083436055109
 40
0.7801194706813638
 40
1.0
 40
1.0
 40
1.0
 40
1.0
 10
-14.4436426936864
 20
32.34840679910143
 30
0.0
 10
-14.47655772271141
 20
32.34621094288311
 30
0.0
 10
-14.54238900677453
 20
32.34181914865555
 30
0.0
 10
-14.63499488789594
 20
32.3033074661107
 30
0.0
 10
-14.71891577921665
 20
32.24078382868502
 30
0.0
 10
-14.7928908429107
 20
32.15612210623706
 30
0.0
 10
-14.81901571780637
 20
32.08273699041155
 30
0.0
 10
-14.83207724645731
 20
32.04604698532115
 30
0.0
  0
SPLINE
  5
BB
330
1F
100
AcDbEntity
  8
0
  6
Continuous
 62
     7
370
    15
100
AcDbSpline
210
0.0
220
0.0
230
1.0
 70
     8
 71
     3
 72
     9
 73
     5
 74
     0
 42
0.000000001
 43
0.00000001
 40
0.0
 40
0.0
 40
0.0
 40
0.0
 40
0.5602556253302108
 40
1.0
 40
1.0
 40
1.0
 40
1.0
 10
-14.13252052779622
 20
31.86388204970602
 30
0.0
 10
-14.13221713533294
 20
31.91263582516372
 30
0.0
 10
-14.1316756102691
 20
31.999656415861
 30
0.0
 10
-14.14378259691918
 20
32.08579490559815
 30
0.0
 10
-14.14910657619277
 20
32.12367382190263
 30
0.0
  0
LINE
  5
BC
330
1F
100
AcDbEntity
  8
0
  6
Continuous
 62
     7
370
    15
100
AcDbLine
 10
-14.1325205278
 20
31.3267738011
 30
0.0
 11
-14.1325205278
 21
31.8638820497
 31
0.0
  0
LINE
  5
BD
330
1F
100
AcDbEntity
  8
0
  6
Continuous
 62
     7
370
    15
100
AcDbLine
 10
-13.9922947344
 20
31.3267738011
 30
0.0
 11
-14.1325205278
 21
31.3267738011
 31
0.0
  0
LINE
  5
BE
330
1F
100
AcDbEntity
  8
0
  6
Continuous
 62
     7
370
    15
100
AcDbLine
 10
-13.9922947344
 20
31.9098949582
 30
0.0
 11
-13.9922947344
 21
31.3267738011
 31
0.0
  0
SPLINE
  5
BF
330
1F
100
AcDbEntity
  8
0
  6
Continuous
 62
     7
370
    15
100
AcDbSpline
210
0.0
220
0.0
230
1.0
 70
     8
 71
     3
 72
    14
 73
    10
 74
     0
 42
0.000000001
 43
0.00000001
 40
0.0
 40
0.0
 40
0.0
 40
0.0
 40
0.1400144408364392
 40
0.2799308769549093
 40
0.4198450865021677
 40
0.5597146666192744
 40
0.7062498113247939
 40
0.8531006180177727
 40
0.9999999999999999
 40
0.9999999999999999
 40
0.9999999999999999
 40
0.9999999999999999
 10
-14.41922825572408
 20
32.48863259253444
 30
0.0
 10
-14.38084189424477
 20
32.48630720821717
 30
0.0
 10
-14.30409604026134
 20
32.48165806726217
 30
0.0
 10
-14.19695451152961
 20
32.43513687100098
 30
0.0
 10
-14.10638129519501
 20
32.36299330213172
 30
0.0
 10
-14.03998930133124
 20
32.26485265494123
 30
0.0
 10
-14.0073313843707
 20
32.14984373457526
 30
0.0
 10
-13.99447350713588
 20
32.03017659817256
 30
0.0
 10
-13.99302107201358
 20
31.94999325793953
 30
0.0
 10
-13.99229473436321
 20
31.90989495816098
 30
0.0
  0
SPLINE
  5
C0
330
1F
100
AcDbEntity
  8
0
  6
Continuous
 62
     7
370
    15
100
AcDbSpline
210
0.0
220
0.0
230
1.0
 70
     8
 71
     3
 72
    11
 73
     7
 74
     0
 42
0.000000001
 43
0.00000001
 40
0.0
 40
0.0
 40
0.0
 40
0.0
 40
0.280102378283048
 40
0.5597842642275626
 40
0.7798664311187585
 40
1.0
 40
1.0
 40
1.0
 40
1.0
 10
-14.85367571694993
 20
32.26264650981162
 30
0.0
 10
-14.82317753627947
 20
32.29931727057747
 30
0.0
 10
-14.76222695909571
 20
32.3726037416164
 30
0.0
 10
-14.64837314016963
 20
32.44398226081099
 30
0.0
 10
-14.53137768589384
 20
32.48261648457634
 30
0.0
 10
-14.45661430904053
 20
32.48662706711592
 30
0.0
 10
-14.41922825572409
 20
32.48863259253444
 30
0.0
  0
LINE
  5
C1
330
1F
100
AcDbEntity
  8
0
  6
Continuous
 62
     7
370
    15
100
AcDbLine
 10
-14.8536757169
 20
32.468596984
 30
0.0
 11
-14.8536757169
 21
32.2626465098
 31
0.0
  0
LINE
  5
C2
330
1F
100
AcDbEntity
  8
0
  6
Continuous
 62
     7
370
    15
100
AcDbLine
 10
-14.9938968171
 20
32.468596984
 30
0.0
 11
-14.8536757169
 21
32.468596984
 31
0.0
  0
LINE
  5
C3
330
1F
100
AcDbEntity
  8
0
  6
Continuous
 62
     7
370
    15
100
AcDbLine
 10
-14.9938968171
 20
31.3267738011
 30
0.0
 11
-14.9938968171
 21
32.468596984
 31
0.0
  0
LINE
  5
C4
330
1F
100
AcDbEntity
  8
0
  6
Continuous
 62
     7
370
    15
100
AcDbLine
 10
-14.8536757169
 20
31.3267738011
 30
0.0
 11
-14.9938968171
 21
31.3267738011
 31
0.0
  0
SPLINE
  5
C5
330
1F
100
AcDbEntity
  8
0
  6
Continuous
 62
     7
370
    15
100
AcDbSpline
210
0.0
220
0.0
230
1.0
 70
     8
 71
     3
 72
    10
 73
     6
 74
     0
 42
0.000000001
 43
0.00000001
 40
0.0
 40
0.0
 40
0.0
 40
0.0
 40
0.2798989859742321
 40
0.5599401569049561
 40
1.0
 40
1.0
 40
1.0
 40
1.0
 10
-16.91321800494167
 20
32.18815009040061
 30
0.0
 10
-16.94636427520908
 20
32.18624972688119
 30
0.0
 10
-17.01267365360766
 20
32.18244803448296
 30
0.0
 10
-17.12846299505031
 20
32.15528845307095
 30
0.0
 10
-17.20856850002403
 20
32.12595044304639
 30
0.0
 10
-17.2575216541832
 20
32.1080217360502
 30
0.0
  0
SPLINE
  5
C6
330
1F
100
AcDbEntity
  8
0
  6
Continuous
 62
     7
370
    15
100
AcDbSpline
210
0.0
220
0.0
230
1.0
 70
     8
 71
     3
 72
    12
 73
     8
 74
     0
 42
0.000000001
 43
0.00000001
 40
0.0
 40
0.0
 40
0.0
 40
0.0
 40
0.1867808982785779
 40
0.3733105185236728
 40
0.5599798059381899
 40
0.7797289633020252
 40
1.0
 40
1.0
 40
1.0
 40
1.0
 10
-16.5363664650295
 20
31.84322223503664
 30
0.0
 10
-16.53875443918202
 20
31.8790965317164
 30
0.0
 10
-16.54352717492384
 20
31.95079686305981
 30
0.0
 10
-16.59238028246335
 20
32.04931489977763
 30
0.0
 10
-16.67454703814631
 20
32.1296620762722
 30
0.0
 10
-16.7865174400116
 20
32.18089950367634
 30
0.0
 10
-16.87095110287294
 20
32.18573131792564
 30
0.0
 10
-16.91321800494167
 20
32.18815009040061
 30
0.0
  0
SPLINE
  5
C7
330
1F
100
AcDbEntity
  8
0
  6
Continuous
 62
     7
370
    15
100
AcDbSpline
210
0.0
220
0.0
230
1.0
 70
     8
 71
     3
 72
    13
 73
     9
 74
     0
 42
0.000000001
 43
0.00000001
 40
0.0
 40
0.0
 40
0.0
 40
0.0
 40
0.1866322011184935
 40
0.3730909612522278
 40
0.5597110774510676
 40
0.7064573299498531
 40
0.8531639746791039
 40
1.0
 40
1.0
 40
1.0
 40
1.0
 10
-16.93293916378783
 20
31.44696398597907
 30
0.0
 10
-16.89396885540666
 20
31.44977946457526
 30
0.0
 10
-16.81606445452038
 20
31.45540780528785
 30
0.0
 10
-16.7094141430598
 20
31.50786691503435
 30
0.0
 10
-16.62772301985189
 20
31.58024379517851
 30
0.0
 10
-16.57217984995604
 20
31.66408207213934
 30
0.0
 10
-16.54109725021084
 20
31.75150510292395
 30
0.0
 10
-16.53794385671528
 20
31.81264087568656
 30
0.0
 10
-16.53636646502949
 20
31.84322223503663
 30
0.0
  0
SPLINE
  5
C8
330
1F
100
AcDbEntity
  8
0
  6
Continuous
 62
     7
370
    15
100
AcDbSpline
210
0.0
220
0.0
230
1.0
 70
     8
 71
     3
 72
    12
 73
     8
 74
     0
 42
0.000000001
 43
0.00000001
 40
0.0
 40
0.0
 40
0.0
 40
0.0
 40
0.1869027964656545
 40
0.3734245018750095
 40
0.5601146773030213
 40
0.7800567376576705
 40
1.0
 40
1.0
 40
1.0
 40
1.0
 10
-17.27755256945103
 20
31.72741557284507
 30
0.0
 10
-17.27014288974368
 20
31.69814558643339
 30
0.0
 10
-17.25533863851741
 20
31.63966529452572
 30
0.0
 10
-17.2071495404551
 20
31.56112965742165
 30
0.0
 10
-17.13251772498027
 20
31.49992946383205
 30
0.0
 10
-17.03951860754358
 20
31.4559554884408
 30
0.0
 10
-16.96846570975715
 20
31.44996115892614
 30
0.0
 10
-16.93293916378783
 20
31.44696398597907
 30
0.0
  0
LINE
  5
C9
330
1F
100
AcDbEntity
  8
0
  6
Continuous
 62
     7
370
    15
100
AcDbLine
 10
-17.4177783629
 20
31.7274155728
 30
0.0
 11
-17.2775525695
 21
31.7274155728
 31
0.0
  0
SPLINE
  5
CA
330
1F
100
AcDbEntity
  8
0
  6
Continuous
 62
     7
370
    15
100
AcDbSpline
210
0.0
220
0.0
230
1.0
 70
     8
 71
     3
 72
    12
 73
     8
 74
     0
 42
0.000000001
 43
0.00000001
 40
0.0
 40
0.0
 40
0.0
 40
0.0
 40
0.1867982008420567
 40
0.373373948948909
 40
0.5600304267121657
 40
0.7798836161611652
 40
1.0
 40
1.0
 40
1.0
 40
1.0
 10
-16.94107730977527
 20
31.28670727727824
 30
0.0
 10
-16.98555978927231
 20
31.28957105823282
 30
0.0
 10
-17.07447177532989
 20
31.29529520974562
 30
0.0
 10
-17.19805267491157
 20
31.35162073906283
 30
0.0
 10
-17.30504896427932
 20
31.4446540234693
 30
0.0
 10
-17.38715822297274
 20
31.5728605781592
 30
0.0
 10
-17.40756757988352
 20
31.67587669951021
 30
0.0
 10
-17.41777836288404
 20
31.72741557284508
 30
0.0
  0
SPLINE
  5
CB
330
1F
100
AcDbEntity
  8
0
  6
Continuous
 62
     7
370
    15
100
AcDbSpline
210
0.0
220
0.0
230
1.0
 70
     8
 71
     3
 72
    14
 73
    10
 74
     0
 42
0.000000001
 43
0.00000001
 40
0.0
 40
0.0
 40
0.0
 40
0.0
 40
0.1400738929717021
 40
0.2800816874025691
 40
0.4201051289670072
 40
0.5600264698127999
 40
0.7066131854291738
 40
0.8532635312494455
 40
1.0
 40
1.0
 40
1.0
 40
1.0
 10
-16.39614067159648
 20
31.83727585039644
 30
0.0
 10
-16.39825474207658
 20
31.7967329129672
 30
0.0
 10
-16.40248188544206
 20
31.71566616964671
 30
0.0
 10
-16.44061689583792
 20
31.59909583740981
 30
0.0
 10
-16.50041081907363
 20
31.49273918712104
 30
0.0
 10
-16.58475037165609
 20
31.40112716949681
 30
0.0
 10
-16.69145252707039
 20
31.33339283749367
 30
0.0
 10
-16.81369926589102
 20
31.29304158363431
 30
0.0
 10
-16.89860965340664
 20
31.28881912589407
 30
0.0
 10
-16.94107730977527
 20
31.28670727727824
 30
0.0
  0
SPLINE
  5
CC
330
1F
100
AcDbEntity
  8
0
  6
Continuous
 62
     7
370
    15
100
AcDbSpline
210
0.0
220
0.0
230
1.0
 70
     8
 71
     3
 72
    14
 73
    10
 74
     0
 42
0.000000001
 43
0.00000001
 40
0.0
 40
0.0
 40
0.0
 40
0.0
 40
0.1400514799462911
 40
0.2800391229322174
 40
0.4199871877606475
 40
0.5599944238479704
 40
0.7065981162217639
 40
0.8532360076934714
 40
1.0
 40
1.0
 40
1.0
 40
1.0
 10
-16.88786491115611
 20
32.34840679910143
 30
0.0
 10
-16.85074884554429
 20
32.34646530987326
 30
0.0
 10
-16.77653363221977
 20
32.34258321636841
 30
0.0
 10
-16.66953639197828
 20
32.30752212679212
 30
0.0
 10
-16.57492556879273
 20
32.24737997322565
 30
0.0
 10
-16.4956317508637
 20
32.16571662103433
 30
0.0
 10
-16.43599798712197
 20
32.06662377630906
 30
0.0
 10
-16.40168166100666
 20
31.95389892653896
 30
0.0
 10
-16.39798819720297
 20
31.87616134602365
 30
0.0
 10
-16.39614067159648
 20
31.83727585039644
 30
0.0
  0
SPLINE
  5
CD
330
1F
100
AcDbEntity
  8
0
  6
Continuous
 62
     7
370
    15
100
AcDbSpline
210
0.0
220
0.0
230
1.0
 70
     8
 71
     3
 72
     9
 73
     5
 74
     0
 42
0.000000001
 43
0.00000001
 40
0.0
 40
0.0
 40
0.0
 40
0.0
 40
0.560051359847409
 40
1.0
 40
1.0
 40
1.0
 40
1.0
 10
-17.07191185169681
 20
32.31804597649892
 30
0.0
 10
-17.03812013136085
 20
32.32734937358811
 30
0.0
 10
-16.97778330735031
 20
32.34396105915157
 30
0.0
 10
-16.91533774944161
 20
32.34704848867919
 30
0.0
 10
-16.88786491115612
 20
32.34840679910145
 30
0.0
  0
LINE
  5
CE
330
1F
100
AcDbEntity
  8
0
  6
Continuous
 62
     7
370
    15
100
AcDbLine
 10
-16.9877144244
 20
32.7290176556
 30
0.0
 11
-17.0719118517
 21
32.3180459765
 31
0.0
  0
LINE
  5
CF
330
1F
100
AcDbEntity
  8
0
  6
Continuous
 62
     7
370
    15
100
AcDbLine
 10
-16.4562381107
 20
32.7290176556
 30
0.0
 11
-16.9877144244
 21
32.7290176556
 31
0.0
  0
LINE
  5
D0
330
1F
100
AcDbEntity
  8
0
  6
Continuous
 62
     7
370
    15
100
AcDbLine
 10
-16.4562381107
 20
32.8892743643
 30
0.0
 11
-16.4562381107
 21
32.7290176556
 31
0.0
  0
LINE
  5
D1
330
1F
100
AcDbEntity
  8
0
  6
Continuous
 62
     7
370
    15
100
AcDbLine
 10
-17.0972649455
 20
32.8892743643
 30
0.0
 11
-16.4562381107
 21
32.8892743643
 31
0.0
  0
LINE
  5
D2
330
1F
100
AcDbEntity
  8
0
  6
Continuous
 62
     7
370
    15
100
AcDbLine
 10
-17.2575216542
 20
32.1080217361
 30
0.0
 11
-17.0972649455
 21
32.8892743643
 31
0.0
  0
LINE
  5
D3
330
1F
100
AcDbEntity
  8
0
  6
Continuous
 62
     7
370
    15
100
AcDbLine
 10
-19.2006283806
 20
32.047924297
 30
0.0
 11
-19.2006283806
 21
31.3267738011
 31
0.0
  0
LINE
  5
D4
330
1F
100
AcDbEntity
  8
0
  6
Continuous
 62
     7
370
    15
100
AcDbLine
 10
-19.0866943368
 20
32.047924297
 30
0.0
 11
-19.2006283806
 21
32.047924297
 31
0.0
  0
LINE
  5
D5
330
1F
100
AcDbEntity
  8
0
  6
Continuous
 62
     7
370
    15
100
AcDbLine
 10
-18.5126546748
 20
31.3267738011
 30
0.0
 11
-19.0866943368
 21
32.047924297
 31
0.0
  0
LINE
  5
D6
330
1F
100
AcDbEntity
  8
0
  6
Continuous
 62
     7
370
    15
100
AcDbLine
 10
-18.3392520913
 20
31.3267738011
 30
0.0
 11
-18.5126546748
 21
31.3267738011
 31
0.0
  0
LINE
  5
D7
330
1F
100
AcDbEntity
  8
0
  6
Continuous
 62
     7
370
    15
100
AcDbLine
 10
-18.9132917533
 20
32.047924297
 30
0.0
 11
-18.3392520913
 21
31.3267738011
 31
0.0
  0
SPLINE
  5
D8
330
1F
100
AcDbEntity
  8
0
  6
Continuous
 62
     7
370
    15
100
AcDbSpline
210
0.0
220
0.0
230
1.0
 70
     8
 71
     3
 72
    14
 73
    10
 74
     0
 42
0.000000001
 43
0.00000001
 40
0.0
 40
0.0
 40
0.0
 40
0.0
 40
0.1399932474747737
 40
0.2799159965782606
 40
0.4197703559153019
 40
0.5597099441126694
 40
0.7063038584394333
 40
0.8531272100791726
 40
1.0
 40
1.0
 40
1.0
 40
1.0
 10
-18.35928300654204
 20
32.47141764473632
 30
0.0
 10
-18.36144775077622
 20
32.43437775098496
 30
0.0
 10
-18.36577614911381
 20
32.36031661618324
 30
0.0
 10
-18.40862973651947
 20
32.25607148603248
 30
0.0
 10
-18.47811198412304
 20
32.16809770459513
 30
0.0
 10
-18.5727459660848
 20
32.10433967269725
 30
0.0
 10
-18.68190125051127
 20
32.06758814840423
 30
0.0
 10
-18.79714328957611
 20
32.0507340372246
 30
0.0
 10
-18.87457125417455
 20
32.04886098215127
 30
0.0
 10
-18.91329175325239
 20
32.04792429696761
 30
0.0
  0
SPLINE
  5
D9
330
1F
100
AcDbEntity
  8
0
  6
Continuous
 62
     7
370
    15
100
AcDbSpline
210
0.0
220
0.0
230
1.0
 70
     8
 71
     3
 72
    12
 73
     8
 74
     0
 42
0.000000001
 43
0.00000001
 40
0.0
 40
0.0
 40
0.0
 40
0.0
 40
0.1868143497727825
 40
0.3735302240550458
 40
0.5602840053921886
 40
0.7800188419678986
 40
1.0
 40
1.0
 40
1.0
 40
1.0
 10
-18.67415979572517
 20
32.86799034349466
 30
0.0
 10
-18.64122733557094
 20
32.85834802392628
 30
0.0
 10
-18.57537977495765
 20
32.83906846754761
 30
0.0
 10
-18.48960805476003
 20
32.7801616023198
 30
0.0
 10
-18.41658167997569
 20
32.69900044062739
 30
0.0
 10
-18.36705399608616
 20
32.59249859275035
 30
0.0
 10
-18.36187430358209
 20
32.51179303070421
 30
0.0
 10
-18.35928300654204
 20
32.47141764473632
 30
0.0
  0
SPLINE
  5
DA
330
1F
100
AcDbEntity
  8
0
  6
Continuous
 62
     7
370
    15
100
AcDbSpline
210
0.0
220
0.0
230
1.0
 70
     8
 71
     3
 72
     9
 73
     5
 74
     0
 42
0.000000001
 43
0.00000001
 40
0.0
 40
0.0
 40
0.0
 40
0.0
 40
0.5602430910616043
 40
1.0
 40
1.0
 40
1.0
 40
1.0
 10
-19.02816445289983
 20
32.8892743642865
 30
0.0
 10
-18.96178091710039
 20
32.8894860187182
 30
0.0
 10
-18.84329032460843
 20
32.8898638090651
 30
0.0
 10
-18.72581873768064
 20
32.87467133772871
 30
0.0
 10
-18.67415979572517
 20
32.86799034349466
 30
0.0
  0
LINE
  5
DB
330
1F
100
AcDbEntity
  8
0
  6
Continuous
 62
     7
370
    15
100
AcDbLine
 10
-19.340854174
 20
32.8892743643
 30
0.0
 11
-19.0281644529
 21
32.8892743643
 31
0.0
  0
LINE
  5
DC
330
1F
100
AcDbEntity
  8
0
  6
Continuous
 62
     7
370
    15
100
AcDbLine
 10
-19.340854174
 20
31.3267738011
 30
0.0
 11
-19.340854174
 21
32.8892743643
 31
0.0
  0
LINE
  5
DD
330
1F
100
AcDbEntity
  8
0
  6
Continuous
 62
     7
370
    15
100
AcDbLine
 10
-19.2006283806
 20
31.3267738011
 30
0.0
 11
-19.340854174
 21
31.3267738011
 31
0.0
  0
CIRCLE
  5
DE
330
1F
100
AcDbEntity
  8
0
  6
Continuous
 62
     7
370
    15
100
AcDbCircle
 10
-0.5053947368
 20
6.0905263158
 30
0.0
 40
0.0940000000000017
  0
CIRCLE
  5
DF
330
1F
100
AcDbEntity
  8
0
  6
Continuous
 62
     7
370
    15
100
AcDbCircle
 10
19.4946052632
 20
6.0905263158
 30
0.0
 40
0.0940000000000012
  0
LINE
  5
E0
330
1F
100
AcDbEntity
  8
0
  6
Continuous
 62
     7
370
    15
100
AcDbLine
 10
-32.6983958666
 20
45.4505261623
 30
0.0
 11
6.8076049301
 21
-33.2694736842
 31
0.0
  0
LINE
  5
E1
330
1F
100
AcDbEntity
  8
0
  6
Continuous
 62
     7
370
    15
100
AcDbLine
 10
1.7416043596
 20
45.4505261623
 30
0.0
 11
-32.6983958666
 21
45.4505261623
 31
0.0
  0
LINE
  5
E2
330
1F
100
AcDbEntity
  8
0
  6
Continuous
 62
     7
370
    15
100
AcDbLine
 10
41.2476051563
 20
-33.2694736842
 30
0.0
 11
1.7416043596
 21
45.4505261623
 31
0.0
  0
LINE
  5
E3
330
1F
100
AcDbEntity
  8
0
  6
Continuous
 62
     7
370
    15
100
AcDbLine
 10
6.8076049301
 20
-33.2694736842
 30
0.0
 11
41.2476051563
 21
-33.2694736842
 31
0.0
  0
CIRCLE
  5
E4
330
1F
100
AcDbEntity
  8
0
  6
Continuous
 62
     7
370
    15
100
AcDbCircle
 10
9.4946052632
 20
6.0905263158
 30
0.0
 40
0.0940000000000012
  0
CIRCLE
  5
E5
330
1F
100
AcDbEntity
  8
0
  6
Continuous
 62
     7
370
    15
100
AcDbCircle
 10
-10.5053947368
 20
6.0905263158
 30
0.0
 40
0.094000000000003
  0
LINE
  5
E6
330
1F
100
AcDbEntity
  8
0
  6
Continuous
 62
     7
370
    15
100
AcDbLine
 10
-17.557999463
 20
32.0078624664
 30
0.0
 11
-17.557999463
 21
31.8476057577
 31
0.0
  0
LINE
  5
E7
330
1F
100
AcDbEntity
  8
0
  6
Continuous
 62
     7
370
    15
100
AcDbLine
 10
-18.1589644673
 20
32.0078624664
 30
0.0
 11
-17.557999463
 21
32.0078624664
 31
0.0
  0
LINE
  5
E8
330
1F
100
AcDbEntity
  8
0
  6
Continuous
 62
     7
370
    15
100
AcDbLine
 10
-18.1589644673
 20
31.8476057577
 30
0.0
 11
-18.1589644673
 21
32.0078624664
 31
0.0
  0
LINE
  5
E9
330
1F
100
AcDbEntity
  8
0
  6
Continuous
 62
     7
370
    15
100
AcDbLine
 10
-17.557999463
 20
31.8476057577
 30
0.0
 11
-18.1589644673
 21
31.8476057577
 31
0.0
  0
LINE
  5
EA
330
1F
100
AcDbEntity
  8
0
  6
Continuous
 62
     7
370
    15
100
AcDbLine
 10
-15.3544767583
 20
32.8892743643
 30
0.0
 11
-15.3544767583
 21
31.3267738011
 31
0.0
  0
LINE
  5
EB
330
1F
100
AcDbEntity
  8
0
  6
Continuous
 62
     7
370
    15
100
AcDbLine
 10
-15.4946978585
 20
32.8892743643
 30
0.0
 11
-15.3544767583
 21
32.8892743643
 31
0.0
  0
LINE
  5
EC
330
1F
100
AcDbEntity
  8
0
  6
Continuous
 62
     7
370
    15
100
AcDbLine
 10
-15.4946978585
 20
31.3267738011
 30
0.0
 11
-15.4946978585
 21
32.8892743643
 31
0.0
  0
LINE
  5
ED
330
1F
100
AcDbEntity
  8
0
  6
Continuous
 62
     7
370
    15
100
AcDbLine
 10
-15.3544767583
 20
31.3267738011
 30
0.0
 11
-15.4946978585
 21
31.3267738011
 31
0.0
  0
LINE
  5
EE
330
1F
100
AcDbEntity
  8
0
  6
Continuous
 62
     7
370
    15
100
AcDbLine
 10
-13.731878756
 20
32.3283758838
 30
0.0
 11
-13.731878756
 21
32.468596984
 31
0.0
  0
LINE
  5
EF
330
1F
100
AcDbEntity
  8
0
  6
Continuous
 62
     7
370
    15
100
AcDbLine
 10
-13.5315602168
 20
32.3283758838
 30
0.0
 11
-13.731878756
 21
32.3283758838
 31
0.0
  0
LINE
  5
F0
330
1F
100
AcDbEntity
  8
0
  6
Continuous
 62
     7
370
    15
100
AcDbLine
 10
-13.5315602168
 20
31.3267738011
 30
0.0
 11
-13.5315602168
 21
32.3283758838
 31
0.0
  0
LINE
  5
F1
330
1F
100
AcDbEntity
  8
0
  6
Continuous
 62
     7
370
    15
100
AcDbLine
 10
-13.3913344234
 20
31.3267738011
 30
0.0
 11
-13.5315602168
 21
31.3267738011
 31
0.0
  0
LINE
  5
F2
330
1F
100
AcDbEntity
  8
0
  6
Continuous
 62
     7
370
    15
100
AcDbLine
 10
-13.3913344234
 20
32.3283758838
 30
0.0
 11
-13.3913344234
 21
31.3267738011
 31
0.0
  0
LINE
  5
F3
330
1F
100
AcDbEntity
  8
0
  6
Continuous
 62
     7
370
    15
100
AcDbLine
 10
-13.1910111909
 20
32.3283758838
 30
0.0
 11
-13.3913344234
 21
32.3283758838
 31
0.0
  0
LINE
  5
F4
330
1F
100
AcDbEntity
  8
0
  6
Continuous
 62
     7
370
    15
100
AcDbLine
 10
-13.1910111909
 20
32.468596984
 30
0.0
 11
-13.1910111909
 21
32.3283758838
 31
0.0
  0
LINE
  5
F5
330
1F
100
AcDbEntity
  8
0
  6
Continuous
 62
     7
370
    15
100
AcDbLine
 10
-13.3913344234
 20
32.468596984
 30
0.0
 11
-13.1910111909
 21
32.468596984
 31
0.0
  0
LINE
  5
F6
330
1F
100
AcDbEntity
  8
0
  6
Continuous
 62
     7
370
    15
100
AcDbLine
 10
-13.3913344234
 20
32.9293361948
 30
0.0
 11
-13.3913344234
 21
32.468596984
 31
0.0
  0
LINE
  5
F7
330
1F
100
AcDbEntity
  8
0
  6
Continuous
 62
     7
370
    15
100
AcDbLine
 10
-13.5315602168
 20
32.9293361948
 30
0.0
 11
-13.3913344234
 21
32.9293361948
 31
0.0
  0
LINE
  5
F8
330
1F
100
AcDbEntity
  8
0
  6
Continuous
 62
     7
370
    15
100
AcDbLine
 10
-13.5315602168
 20
32.468596984
 30
0.0
 11
-13.5315602168
 21
32.9293361948
 31
0.0
  0
LINE
  5
F9
330
1F
100
AcDbEntity
  8
0
  6
Continuous
 62
     7
370
    15
100
AcDbLine
 10
-13.731878756
 20
32.468596984
 30
0.0
 11
-13.5315602168
 21
32.468596984
 31
0.0
  0
LINE
  5
FA
330
1F
100
AcDbEntity
  8
0
  6
Continuous
 62
     7
370
    15
100
AcDbLine
 10
-11.4482230037
 20
31.7105103815
 30
0.0
 11
-11.4482230037
 21
31.3267738011
 31
0.0
  0
SPLINE
  5
FB
330
1F
100
AcDbEntity
  8
0
  6
Continuous
 62
     7
370
    15
100
AcDbSpline
210
0.0
220
0.0
230
1.0
 70
     8
 71
     3
 72
    10
 73
     6
 74
     0
 42
0.000000001
 43
0.00000001
 40
0.0
 40
0.0
 40
0.0
 40
0.0
 40
0.2798181759235574
 40
0.5598846797289494
 40
1.0
 40
1.0
 40
1.0
 40
1.0
 10
-11.42318435961216
 20
32.10238980111079
 30
0.0
 10
-11.42932205583696
 20
32.06618770003011
 30
0.0
 10
-11.44160289525616
 20
31.99375136989471
 30
0.0
 10
-11.44684843056059
 20
31.86255568054646
 30
0.0
 10
-11.44770161079419
 20
31.76818307835091
 30
0.0
 10
-11.44822300369694
 20
31.71051038146862
 30
0.0
  0
SPLINE
  5
FC
330
1F
100
AcDbEntity
  8
0
  6
Continuous
 62
     7
370
    15
100
AcDbSpline
210
0.0
220
0.0
230
1.0
 70
     8
 71
     3
 72
    19
 73
    15
 74
     0
 42
0.000000001
 43
0.00000001
 40
0.0
 40
0.0
 40
0.0
 40
0.0
 40
0.093806529352349
 40
0.1913381281363586
 40
0.2951906166251861
 40
0.4103123367233195
 40
0.4719302510512808
 40
0.5364251593464463
 40
0.603118728303641
 40
0.6741176724906021
 40
0.7493320232258925
 40
0.8282833841715698
 40
0.9120398092627644
 40
0.9999955419006097
 40
0.9999955419006097
 40
0.9999955419006097
 40
0.9999955419006097
 10
-11.19625932637505
 20
32.34840692062739
 30
0.0
 10
-11.20751188597817
 20
32.34765690394498
 30
0.0
 10
-11.23046384578388
 20
32.3461270873206
 30
0.0
 10
-11.26416228302038
 20
32.33410083385317
 30
0.0
 10
-11.29686192833347
 20
32.31466992308838
 30
0.0
 10
-11.32283142044775
 20
32.29312031958354
 30
0.0
 10
-11.34293956905259
 20
32.27234005285836
 30
0.0
 10
-11.35728788402169
 20
32.25419344456954
 30
0.0
 10
-11.37044982462602
 20
32.23384584120863
 30
0.0
 10
-11.38302581587623
 20
32.2116450895107
 30
0.0
 10
-11.39448398293388
 20
32.18721212253201
 30
0.0
 10
-11.40517803168553
 20
32.16079104511154
 30
0.0
 10
-11.41484699495437
 20
32.13235176128036
 30
0.0
 10
-11.42036038252121
 20
32.11253865918455
 30
0.0
 10
-11.42318447788065
 20
32.10238983402115
 30
0.0
  0
SPLINE
  5
FD
330
1F
100
AcDbEntity
  8
0
  6
Continuous
 62
     7
370
    15
100
AcDbSpline
210
0.0
220
0.0
230
1.0
 70
     8
 71
     3
 72
     9
 73
     5
 74
     0
 42
0.000000001
 43
0.00000001
 40
0.0
 40
0.0
 40
0.0
 40
0.0
 40
0.5604158247830556
 40
0.9999999999999999
 40
0.9999999999999999
 40
0.9999999999999999
 40
0.9999999999999999
 10
-11.12458386240393
 20
32.32806143413283
 30
0.0
 10
-11.13739518295816
 20
32.33400768876433
 30
0.0
 10
-11.16025556624445
 20
32.34461812189014
 30
0.0
 10
-11.18526560417172
 20
32.34724990770476
 30
0.0
 10
-11.1962596210661
 20
32.34840679910143
 30
0.0
  0
LINE
  5
FE
330
1F
100
AcDbEntity
  8
0
  6
Continuous
 62
     7
370
    15
100
AcDbLine
 10
-11.0475859252
 20
32.4495047245
 30
0.0
 11
-11.1245838624
 21
32.3280614341
 31
0.0
  0
SPLINE
  5
FF
330
1F
100
AcDbEntity
  8
0
  6
Continuous
 62
     7
370
    15
100
AcDbSpline
210
0.0
220
0.0
230
1.0
 70
     8
 71
     3
 72
     9
 73
     5
 74
     0
 42
0.000000001
 43
0.00000001
 40
0.0
 40
0.0
 40
0.0
 40
0.0
 40
0.5592547582452937
 40
0.9999999999999999
 40
0.9999999999999999
 40
0.9999999999999999
 40
0.9999999999999999
 10
-11.16965342175652
 20
32.48863259253444
 30
0.0
 10
-11.14540878199053
 20
32.48574027578672
 30
0.0
 10
-11.10205709046081
 20
32.48056854196587
 30
0.0
 10
-11.06424945892529
 20
32.45900760494335
 30
0.0
 10
-11.04758592522399
 20
32.4495047245429
 30
0.0
  0
SPLINE
  5
100
330
1F
100
AcDbEntity
  8
0
  6
Continuous
 62
     7
370
    15
100
AcDbSpline
210
0.0
220
0.0
230
1.0
 70
     8
 71
     3
 72
    11
 73
     7
 74
     0
 42
0.000000001
 43
0.00000001
 40
0.0
 40
0.0
 40
0.0
 40
0.0
 40
0.2803212506353458
 40
0.560212827223394
 40
0.7801834293491317
 40
1.0
 40
1.0
 40
1.0
 40
1.0
 10
-11.44822300369694
 20
32.30051657900001
 30
0.0
 10
-11.42974131573589
 20
32.32770317544653
 30
0.0
 10
-11.39280626838914
 20
32.38203469695399
 30
0.0
 10
-11.32381887315869
 20
32.44331633154575
 30
0.0
 10
-11.2470956970508
 20
32.48175726084312
 30
0.0
 10
-11.19546148538292
 20
32.48634135048263
 30
0.0
 10
-11.16965342175652
 20
32.48863259253444
 30
0.0
  0
LINE
  5
101
330
1F
100
AcDbEntity
  8
0
  6
Continuous
 62
     7
370
    15
100
AcDbLine
 10
-11.4482230037
 20
32.468596984
 30
0.0
 11
-11.4482230037
 21
32.300516579
 31
0.0
  0
LINE
  5
102
330
1F
100
AcDbEntity
  8
0
  6
Continuous
 62
     7
370
    15
100
AcDbLine
 10
-11.5884487971
 20
32.468596984
 30
0.0
 11
-11.4482230037
 21
32.468596984
 31
0.0
  0
LINE
  5
103
330
1F
100
AcDbEntity
  8
0
  6
Continuous
 62
     7
370
    15
100
AcDbLine
 10
-11.5884487971
 20
31.3267738011
 30
0.0
 11
-11.5884487971
 21
32.468596984
 31
0.0
  0
LINE
  5
104
330
1F
100
AcDbEntity
  8
0
  6
Continuous
 62
     7
370
    15
100
AcDbLine
 10
-11.4482230037
 20
31.3267738011
 30
0.0
 11
-11.5884487971
 21
31.3267738011
 31
0.0
  0
SPLINE
  5
105
330
1F
100
AcDbEntity
  8
0
  6
Continuous
 62
     7
370
    15
100
AcDbSpline
210
0.0
220
0.0
230
1.0
 70
     8
 71
     3
 72
    11
 73
     7
 74
     0
 42
0.000000001
 43
0.00000001
 40
0.0
 40
0.0
 40
0.0
 40
0.0
 40
0.2799790598697132
 40
0.559753927347955
 40
0.7798149884686836
 40
1.0
 40
1.0
 40
1.0
 40
1.0
 10
-9.666626091523167
 20
32.48863259253444
 30
0.0
 10
-9.61633591521335
 20
32.48565707377488
 30
0.0
 10
-9.515792239877278
 20
32.47970820634055
 30
0.0
 10
-9.383615654474859
 20
32.42733138751888
 30
0.0
 10
-9.278659720458942
 20
32.35009911834111
 30
0.0
 10
-9.2293137213521
 20
32.28825506433328
 30
0.0
 10
-9.204633775164496
 20
32.25732433129387
 30
0.0
  0
SPLINE
  5
106
330
1F
100
AcDbEntity
  8
0
  6
Continuous
 62
     7
370
    15
100
AcDbSpline
210
0.0
220
0.0
230
1.0
 70
     8
 71
     3
 72
    14
 73
    10
 74
     0
 42
0.000000001
 43
0.00000001
 40
0.0
 40
0.0
 40
0.0
 40
0.0
 40
0.1400279110725428
 40
0.2799767211698338
 40
0.4199712538198417
 40
0.5600285251574879
 40
0.7066673069154805
 40
0.8532963988078911
 40
1.0
 40
1.0
 40
1.0
 40
1.0
 10
-10.26633329698769
 20
31.90081346307118
 30
0.0
 10
-10.26389727689179
 20
31.94443629624664
 30
0.0
 10
-10.25902661279397
 20
32.03165732030573
 30
0.0
 10
-10.21395476141844
 20
32.1560672811181
 30
0.0
 10
-10.14257263179482
 20
32.26636456086932
 30
0.0
 10
-10.04777589230455
 20
32.36042805062268
 30
0.0
 10
-9.93428380689108
 20
32.43451647695574
 30
0.0
 10
-9.803689566079768
 20
32.48116226675177
 30
0.0
 10
-9.712321652482299
 20
32.48614206230169
 30
0.0
 10
-9.666626091523167
 20
32.48863259253444
 30
0.0
  0
SPLINE
  5
107
330
1F
100
AcDbEntity
  8
0
  6
Continuous
 62
     7
370
    15
100
AcDbSpline
210
0.0
220
0.0
230
1.0
 70
     8
 71
     3
 72
    14
 73
    10
 74
     0
 42
0.000000001
 43
0.00000001
 40
0.0
 40
0.0
 40
0.0
 40
0.0
 40
0.1400483044834089
 40
0.2800149881035059
 40
0.4200310418380128
 40
0.5601029724644785
 40
0.706722810481871
 40
0.8533021458662154
 40
0.9999999999999999
 40
0.9999999999999999
 40
0.9999999999999999
 40
0.9999999999999999
 10
-9.671004920938556
 20
31.30673819254607
 30
0.0
 10
-9.71470392554647
 20
31.30919812824073
 30
0.0
 10
-9.802076466760408
 20
31.31411656596704
 30
0.0
 10
-9.927539434660657
 20
31.35683120749201
 30
0.0
 10
-10.03918026988316
 20
31.42675739142806
 30
0.0
 10
-10.13544531257212
 20
31.5197768609711
 30
0.0
 10
-10.21099932122369
 20
31.63279339098104
 30
0.0
 10
-10.25852395320419
 20
31.76344645391615
 30
0.0
 10
-10.26372948117639
 20
31.85501212555767
 30
0.0
 10
-10.26633329698769
 20
31.90081346307118
 30
0.0
  0
SPLINE
  5
108
330
1F
100
AcDbEntity
  8
0
  6
Continuous
 62
     7
370
    15
100
AcDbSpline
210
0.0
220
0.0
230
1.0
 70
     8
 71
     3
 72
    11
 73
     7
 74
     0
 42
0.000000001
 43
0.00000001
 40
0.0
 40
0.0
 40
0.0
 40
0.0
 40
0.2800026882498688
 40
0.5597315997975523
 40
0.7798719319401117
 40
1.0
 40
1.0
 40
1.0
 40
1.0
 10
-9.204633775164496
 20
31.52427637285978
 30
0.0
 10
-9.23861087165745
 20
31.48771125825006
 30
0.0
 10
-9.306531843042938
 20
31.41461678110342
 30
0.0
 10
-9.430025795159986
 20
31.34742042814486
 30
0.0
 10
-9.553688994172912
 20
31.31212460614477
 30
0.0
 10
-9.631900338233079
 20
31.30853363040234
 30
0.0
 10
-9.671004920938556
 20
31.30673819254607
 30
0.0
  0
LINE
  5
109
330
1F
100
AcDbEntity
  8
0
  6
Continuous
 62
     7
370
    15
100
AcDbLine
 10
-9.2046337752
 20
31.3267738011
 30
0.0
 11
-9.2046337752
 21
31.5242763729
 31
0.0
  0
LINE
  5
10A
330
1F
100
AcDbEntity
  8
0
  6
Continuous
 62
     7
370
    15
100
AcDbLine
 10
-9.064412675
 20
31.3267738011
 30
0.0
 11
-9.2046337752
 21
31.3267738011
 31
0.0
  0
LINE
  5
10B
330
1F
100
AcDbEntity
  8
0
  6
Continuous
 62
     7
370
    15
100
AcDbLine
 10
-9.064412675
 20
32.468596984
 30
0.0
 11
-9.064412675
 21
31.3267738011
 31
0.0
  0
LINE
  5
10C
330
1F
100
AcDbEntity
  8
0
  6
Continuous
 62
     7
370
    15
100
AcDbLine
 10
-9.2046337752
 20
32.468596984
 30
0.0
 11
-9.064412675
 21
32.468596984
 31
0.0
  0
LINE
  5
10D
330
1F
100
AcDbEntity
  8
0
  6
Continuous
 62
     7
370
    15
100
AcDbLine
 10
-9.2046337752
 20
32.2573243313
 30
0.0
 11
-9.2046337752
 21
32.468596984
 31
0.0
  0
LINE
  5
10E
330
1F
100
AcDbEntity
  8
0
  6
Continuous
 62
     7
370
    15
100
AcDbLine
 10
-6.2198584422
 20
31.867636673
 30
0.0
 11
-7.2414961335
 21
31.867636673
 31
0.0
  0
SPLINE
  5
10F
330
1F
100
AcDbEntity
  8
0
  6
Continuous
 62
     7
370
    15
100
AcDbSpline
210
0.0
220
0.0
230
1.0
 70
     8
 71
     3
 72
    11
 73
     7
 74
     0
 42
0.000000001
 43
0.00000001
 40
0.0
 40
0.0
 40
0.0
 40
0.0
 40
0.2798342898410557
 40
0.5597347759933629
 40
0.7798359334745176
 40
1.0
 40
1.0
 40
1.0
 40
1.0
 10
-6.344122393369408
 20
32.26389492205652
 30
0.0
 10
-6.321962798906362
 20
32.23112872788398
 30
0.0
 10
-6.277638368008636
 20
32.16558858851889
 30
0.0
 10
-6.24224669475973
 20
32.06050364855781
 30
0.0
 10
-6.223173876746825
 20
31.9606909358317
 30
0.0
 10
-6.220963692326269
 20
31.89865771523087
 30
0.0
 10
-6.219858442210509
 20
31.86763667299896
 30
0.0
  0
SPLINE
  5
110
330
1F
100
AcDbEntity
  8
0
  6
Continuous
 62
     7
370
    15
100
AcDbSpline
210
0.0
220
0.0
230
1.0
 70
     8
 71
     3
 72
    11
 73
     7
 74
     0
 42
0.000000001
 43
0.00000001
 40
0.0
 40
0.0
 40
0.0
 40
0.0
 40
0.2799833878976748
 40
0.5597309821464631
 40
0.7798391445454946
 40
1.0
 40
1.0
 40
1.0
 40
1.0
 10
-6.803918255101711
 20
32.48863259253444
 30
0.0
 10
-6.754227420032842
 20
32.48571402312677
 30
0.0
 10
-6.654887598032609
 20
32.47987934224344
 30
0.0
 10
-6.524375092036736
 20
32.42817496510894
 30
0.0
 10
-6.419827758910583
 20
32.35337632890128
 30
0.0
 10
-6.369359528625798
 20
32.29372443745915
 30
0.0
 10
-6.344122393369408
 20
32.26389492205652
 30
0.0
  0
SPLINE
  5
111
330
1F
100
AcDbEntity
  8
0
  6
Continuous
 62
     7
370
    15
100
AcDbSpline
210
0.0
220
0.0
230
1.0
 70
     8
 71
     3
 72
    11
 73
     7
 74
     0
 42
0.000000001
 43
0.00000001
 40
0.0
 40
0.0
 40
0.0
 40
0.0
 40
0.2799305985350891
 40
0.5596438426779042
 40
0.7797625796676159
 40
1.0
 40
1.0
 40
1.0
 40
1.0
 10
-7.250258485607947
 20
32.27579238461602
 30
0.0
 10
-7.218345803648599
 20
32.3117670253326
 30
0.0
 10
-7.15454521859164
 20
32.38368837396308
 30
0.0
 10
-7.035932408734545
 20
32.44925576603759
 30
0.0
 10
-6.916989081425215
 20
32.48392473968236
 30
0.0
 10
-6.841615302040561
 20
32.48706302631018
 30
0.0
 10
-6.803918255101711
 20
32.48863259253444
 30
0.0
  0
SPLINE
  5
112
330
1F
100
AcDbEntity
  8
0
  6
Continuous
 62
     7
370
    15
100
AcDbSpline
210
0.0
220
0.0
230
1.0
 70
     8
 71
     3
 72
    11
 73
     7
 74
     0
 42
0.000000001
 43
0.00000001
 40
0.0
 40
0.0
 40
0.0
 40
0.0
 40
0.2799705476466725
 40
0.5598674869835052
 40
0.7799145326269468
 40
1.0
 40
1.0
 40
1.0
 40
1.0
 10
-7.381717233651939
 20
31.89455732200932
 30
0.0
 10
-7.379919221086918
 20
31.93295849556985
 30
0.0
 10
-7.376323668680399
 20
32.00975074646647
 30
0.0
 10
-7.345858119859535
 20
32.11305194934814
 30
0.0
 10
-7.3034700080104
 20
32.20251560971533
 30
0.0
 10
-7.267996691966197
 20
32.25136537152242
 30
0.0
 10
-7.250258485607947
 20
32.27579238461602
 30
0.0
  0
SPLINE
  5
113
330
1F
100
AcDbEntity
  8
0
  6
Continuous
 62
     7
370
    15
100
AcDbSpline
210
0.0
220
0.0
230
1.0
 70
     8
 71
     3
 72
    14
 73
    10
 74
     0
 42
0.000000001
 43
0.00000001
 40
0.0
 40
0.0
 40
0.0
 40
0.0
 40
0.1400826727160968
 40
0.2800540283373588
 40
0.4199736990470592
 40
0.5599487347638173
 40
0.7066281950237489
 40
0.8532983236421758
 40
1.0
 40
1.0
 40
1.0
 40
1.0
 10
-6.807363121972982
 20
31.30673819254607
 30
0.0
 10
-6.850292160108338
 20
31.3086970085958
 30
0.0
 10
-6.936116122696646
 20
31.31261308411653
 30
0.0
 10
-7.060325292342422
 20
31.35119824342814
 30
0.0
 10
-7.170706559473166
 20
31.41986316996952
 30
0.0
 10
-7.259245826459573
 20
31.51742670868794
 30
0.0
 10
-7.328434568107242
 20
31.63111917823693
 30
0.0
 10
-7.374160601326531
 20
31.75959790183199
 30
0.0
 10
-7.379198175638267
 20
31.84956762365196
 30
0.0
 10
-7.381717233651939
 20
31.89455732200932
 30
0.0
  0
SPLINE
  5
114
330
1F
100
AcDbEntity
  8
0
  6
Continuous
 62
     7
370
    15
100
AcDbSpline
210
0.0
220
0.0
230
1.0
 70
     8
 71
     3
 72
    12
 73
     8
 74
     0
 42
0.000000001
 43
0.00000001
 40
0.0
 40
0.0
 40
0.0
 40
0.0
 40
0.1868315016786001
 40
0.3734574665361557
 40
0.560130379810674
 40
0.7799352248808448
 40
1.0
 40
1.0
 40
1.0
 40
1.0
 10
-6.279955881293106
 20
31.6219341247091
 30
0.0
 10
-6.300482408731394
 20
31.58707419167179
 30
0.0
 10
-6.341512881992128
 20
31.51739267565993
 30
0.0
 10
-6.426655681453116
 20
31.42952811767977
 30
0.0
 10
-6.53486348825867
 20
31.35947881404373
 30
0.0
 10
-6.664388400375818
 20
31.31346109369325
 30
0.0
 10
-6.759686110167449
 20
31.30898004225056
 30
0.0
 10
-6.807363121972982
 20
31.30673819254607
 30
0.0
  0
LINE
  5
115
330
1F
100
AcDbEntity
  8
0
  6
Continuous
 62
     7
370
    15
100
AcDbLine
 10
-6.4045295889
 20
31.687349049
 30
0.0
 11
-6.2799558813
 21
31.6219341247
 31
0.0
  0
SPLINE
  5
116
330
1F
100
AcDbEntity
  8
0
  6
Continuous
 62
     7
370
    15
100
AcDbSpline
210
0.0
220
0.0
230
1.0
 70
     8
 71
     3
 72
    11
 73
     7
 74
     0
 42
0.000000001
 43
0.00000001
 40
0.0
 40
0.0
 40
0.0
 40
0.0
 40
0.279900687314385
 40
0.5596973910147531
 40
0.7795379539634857
 40
1.0
 40
1.0
 40
1.0
 40
1.0
 10
-6.82488782619277
 20
31.44696398597907
 30
0.0
 10
-6.777571823720635
 20
31.45090352705583
 30
0.0
 10
-6.68295739675731
 20
31.45878114566268
 30
0.0
 10
-6.559228906318391
 20
31.51256042919473
 30
0.0
 10
-6.467986886536732
 20
31.59524034597559
 30
0.0
 10
-6.425701916377013
 20
31.6566172703571
 30
0.0
 10
-6.404529588873664
 20
31.68734904903031
 30
0.0
  0
SPLINE
  5
117
330
1F
100
AcDbEntity
  8
0
  6
Continuous
 62
     7
370
    15
100
AcDbSpline
210
0.0
220
0.0
230
1.0
 70
     8
 71
     3
 72
    13
 73
     9
 74
     0
 42
0.000000001
 43
0.00000001
 40
0.0
 40
0.0
 40
0.0
 40
0.0
 40
0.1867184931030593
 40
0.3732442526513056
 40
0.5597709484454764
 40
0.7064884952201259
 40
0.8531845652850256
 40
1.0
 40
1.0
 40
1.0
 40
1.0
 10
-7.241496133498053
 20
31.86763667299896
 30
0.0
 10
-7.238167890942568
 20
31.82653936995268
 30
0.0
 10
-7.231514841292187
 20
31.7443871850964
 30
0.0
 10
-7.179810972927489
 20
31.62995197272553
 30
0.0
 10
-7.102749231893465
 20
31.54371943875566
 30
0.0
 10
-7.014450902466113
 20
31.48457974899924
 30
0.0
 10
-6.921757472187687
 20
31.45246205956675
 30
0.0
 10
-6.857186461392665
 20
31.44879717398432
 30
0.0
 10
-6.82488782619277
 20
31.44696398597907
 30
0.0
  0
SPLINE
  5
118
330
1F
100
AcDbEntity
  8
0
  6
Continuous
 62
     7
370
    15
100
AcDbSpline
210
0.0
220
0.0
230
1.0
 70
     8
 71
     3
 72
    11
 73
     7
 74
     0
 42
0.000000001
 43
0.00000001
 40
0.0
 40
0.0
 40
0.0
 40
0.0
 40
0.2799809835903768
 40
0.5597496367661168
 40
0.7798192185973754
 40
1.0
 40
1.0
 40
1.0
 40
1.0
 10
-3.496752193099604
 20
32.48863259253444
 30
0.0
 10
-3.446461832257318
 20
32.48565742765686
 30
0.0
 10
-3.345919249495764
 20
32.47970935419066
 30
0.0
 10
-3.213745309200078
 20
32.42732832598522
 30
0.0
 10
-3.108786172790674
 20
32.35010213125229
 30
0.0
 10
-3.059442592053194
 20
32.2882554717429
 30
0.0
 10
-3.034764570020049
 20
32.25732433129387
 30
0.0
  0
SPLINE
  5
119
330
1F
100
AcDbEntity
  8
0
  6
Continuous
 62
     7
370
    15
100
AcDbSpline
210
0.0
220
0.0
230
1.0
 70
     8
 71
     3
 72
    14
 73
    10
 74
     0
 42
0.000000001
 43
0.00000001
 40
0.0
 40
0.0
 40
0.0
 40
0.0
 40
0.1400273187919632
 40
0.2799755369432506
 40
0.4199694774538608
 40
0.5600261563867414
 40
0.7066685476342496
 40
0.8532970193248528
 40
1.0
 40
1.0
 40
1.0
 40
1.0
 10
-4.096464091843241
 20
31.90081346307118
 30
0.0
 10
-4.094028069236572
 20
31.944436292305
 30
0.0
 10
-4.089157400118639
 20
32.03165730848306
 30
0.0
 10
-4.044085586381796
 20
32.15606732838408
 30
0.0
 10
-3.972703313681451
 20
32.26636438352024
 30
0.0
 10
-3.877906177790165
 20
32.36042965865845
 30
0.0
 10
-3.764410609836123
 20
32.43451516270315
 30
0.0
 10
-3.633815806263878
 20
32.4811624833251
 30
0.0
 10
-3.542447800269138
 20
32.48614213450505
 30
0.0
 10
-3.496752193099604
 20
32.48863259253444
 30
0.0
  0
SPLINE
  5
11A
330
1F
100
AcDbEntity
  8
0
  6
Continuous
 62
     7
370
    15
100
AcDbSpline
210
0.0
220
0.0
230
1.0
 70
     8
 71
     3
 72
    14
 73
    10
 74
     0
 42
0.000000001
 43
0.00000001
 40
0.0
 40
0.0
 40
0.0
 40
0.0
 40
0.1400486671221516
 40
0.2800157131696436
 40
0.4200278614784292
 40
0.5601001548048147
 40
0.7067203724771692
 40
0.8533017660092399
 40
1.0
 40
1.0
 40
1.0
 40
1.0
 10
-3.501135715794109
 20
31.30673819254607
 30
0.0
 10
-3.544834674629826
 20
31.30919819982439
 30
0.0
 10
-3.63220712432607
 20
31.3141167806763
 30
0.0
 10
-3.757669503536595
 20
31.35682991509677
 30
0.0
 10
-3.869306806998336
 20
31.42675905283782
 30
0.0
 10
-3.965571925594492
 20
31.51977652550507
 30
0.0
 10
-4.041124144648119
 20
31.6327944306963
 30
0.0
 10
-4.088656102640832
 20
31.76344542340226
 30
0.0
 10
-4.09386073761294
 20
31.85501195670248
 30
0.0
 10
-4.096464091843241
 20
31.90081346307118
 30
0.0
  0
SPLINE
  5
11B
330
1F
100
AcDbEntity
  8
0
  6
Continuous
 62
     7
370
    15
100
AcDbSpline
210
0.0
220
0.0
230
1.0
 70
     8
 71
     3
 72
    11
 73
     7
 74
     0
 42
0.000000001
 43
0.00000001
 40
0.0
 40
0.0
 40
0.0
 40
0.0
 40
0.2799956571004647
 40
0.5597238844195781
 40
0.7798636780897149
 40
1.0
 40
1.0
 40
1.0
 40
1.0
 10
-3.034764570020049
 20
31.52427637285978
 30
0.0
 10
-3.068739955432286
 20
31.48771111542564
 30
0.0
 10
-3.136658275646671
 20
31.41461552480909
 30
0.0
 10
-3.260152032602562
 20
31.34742057596806
 30
0.0
 10
-3.383816579842329
 20
31.31212413322735
 30
0.0
 10
-3.462029542724064
 20
31.3085334966686
 30
0.0
 10
-3.501135715794109
 20
31.30673819254607
 30
0.0
  0
LINE
  5
11C
330
1F
100
AcDbEntity
  8
0
  6
Continuous
 62
     7
370
    15
100
AcDbLine
 10
-3.03476457
 20
31.3267738011
 30
0.0
 11
-3.03476457
 21
31.5242763729
 31
0.0
  0
LINE
  5
11D
330
1F
100
AcDbEntity
  8
0
  6
Continuous
 62
     7
370
    15
100
AcDbLine
 10
-2.8945387766
 20
31.3267738011
 30
0.0
 11
-3.03476457
 21
31.3267738011
 31
0.0
  0
LINE
  5
11E
330
1F
100
AcDbEntity
  8
0
  6
Continuous
 62
     7
370
    15
100
AcDbLine
 10
-2.8945387766
 20
32.468596984
 30
0.0
 11
-2.8945387766
 21
31.3267738011
 31
0.0
  0
LINE
  5
11F
330
1F
100
AcDbEntity
  8
0
  6
Continuous
 62
     7
370
    15
100
AcDbLine
 10
-3.03476457
 20
32.468596984
 30
0.0
 11
-2.8945387766
 21
32.468596984
 31
0.0
  0
LINE
  5
120
330
1F
100
AcDbEntity
  8
0
  6
Continuous
 62
     7
370
    15
100
AcDbLine
 10
-3.03476457
 20
32.2573243313
 30
0.0
 11
-3.03476457
 21
32.468596984
 31
0.0
  0
LINE
  5
121
330
1F
100
AcDbEntity
  8
0
  6
Continuous
 62
     7
370
    15
100
AcDbLine
 10
-0.1301175914
 20
31.867636673
 30
0.0
 11
-1.1517505894
 21
31.867636673
 31
0.0
  0
SPLINE
  5
122
330
1F
100
AcDbEntity
  8
0
  6
Continuous
 62
     7
370
    15
100
AcDbSpline
210
0.0
220
0.0
230
1.0
 70
     8
 71
     3
 72
    11
 73
     7
 74
     0
 42
0.000000001
 43
0.00000001
 40
0.0
 40
0.0
 40
0.0
 40
0.0
 40
0.2798353388490508
 40
0.5597331255818276
 40
0.7798351081508372
 40
1.0
 40
1.0
 40
1.0
 40
1.0
 10
-0.2543768492962579
 20
32.26389492205652
 30
0.0
 10
-0.2322167586363398
 20
32.23112890705786
 30
0.0
 10
-0.187891632084187
 20
32.16558956501662
 30
0.0
 10
-0.1525068672545254
 20
32.06050272552572
 30
0.0
 10
-0.133432773763489
 20
31.96069102647494
 30
0.0
 10
-0.1312227574611299
 20
31.89865774544815
 30
0.0
 10
-0.1301175914164751
 20
31.86763667299896
 30
0.0
  0
SPLINE
  5
123
330
1F
100
AcDbEntity
  8
0
  6
Continuous
 62
     7
370
    15
100
AcDbSpline
210
0.0
220
0.0
230
1.0
 70
     8
 71
     3
 72
    11
 73
     7
 74
     0
 42
0.000000001
 43
0.00000001
 40
0.0
 40
0.0
 40
0.0
 40
0.0
 40
0.2799903481981993
 40
0.5597278712461539
 40
0.7798345964162628
 40
1.0
 40
1.0
 40
1.0
 40
1.0
 10
-0.7141774043076768
 20
32.48863259253444
 30
0.0
 10
-0.6644849190873062
 20
32.48571439472009
 30
0.0
 10
-0.5651448198720143
 20
32.47988063416012
 30
0.0
 10
-0.4346329153123226
 20
32.42817399722554
 30
0.0
 10
-0.3300867354716058
 20
32.35337511321558
 30
0.0
 10
-0.2796157202400156
 20
32.29372430248188
 30
0.0
 10
-0.2543768492962579
 20
32.26389492205652
 30
0.0
  0
SPLINE
  5
124
330
1F
100
AcDbEntity
  8
0
  6
Continuous
 62
     7
370
    15
100
AcDbSpline
210
0.0
220
0.0
230
1.0
 70
     8
 71
     3
 72
    11
 73
     7
 74
     0
 42
0.000000001
 43
0.00000001
 40
0.0
 40
0.0
 40
0.0
 40
0.0
 40
0.2799331548591759
 40
0.559648953341199
 40
0.7797697004535348
 40
0.9999999999999999
 40
0.9999999999999999
 40
0.9999999999999999
 40
0.9999999999999999
 10
-1.160512941534797
 20
32.27579238461602
 30
0.0
 10
-1.128600259772299
 20
32.3117670252656
 30
0.0
 10
-1.064799675108883
 20
32.38368837376215
 30
0.0
 10
-0.9461868625113471
 20
32.44925576676932
 30
0.0
 10
-0.8272450519627152
 20
32.48392429791005
 30
0.0
 10
-0.7518728706648855
 20
32.4870629007146
 30
0.0
 10
-0.7141774043076768
 20
32.48863259253444
 30
0.0
  0
SPLINE
  5
125
330
1F
100
AcDbEntity
  8
0
  6
Continuous
 62
     7
370
    15
100
AcDbSpline
210
0.0
220
0.0
230
1.0
 70
     8
 71
     3
 72
    11
 73
     7
 74
     0
 42
0.000000001
 43
0.00000001
 40
0.0
 40
0.0
 40
0.0
 40
0.0
 40
0.2799707403749392
 40
0.5598637666866174
 40
0.7799151598307718
 40
1.0
 40
1.0
 40
1.0
 40
1.0
 10
-1.291976382857905
 20
31.89455732200932
 30
0.0
 10
-1.290175738700258
 20
31.93295824185443
 30
0.0
 10
-1.286574950206384
 20
32.00974942224677
 30
0.0
 10
-1.25612008807706
 20
32.11305419731681
 30
0.0
 10
-1.213723252565748
 20
32.20251435257763
 30
0.0
 10
-1.17825061042929
 20
32.25136513650651
 30
0.0
 10
-1.160512941534806
 20
32.27579238461603
 30
0.0
  0
SPLINE
  5
126
330
1F
100
AcDbEntity
  8
0
  6
Continuous
 62
     7
370
    15
100
AcDbSpline
210
0.0
220
0.0
230
1.0
 70
     8
 71
     3
 72
    14
 73
    10
 74
     0
 42
0.000000001
 43
0.00000001
 40
0.0
 40
0.0
 40
0.0
 40
0.0
 40
0.1400873114284364
 40
0.280058211258544
 40
0.4199730927199029
 40
0.5599511675018806
 40
0.706627498931384
 40
0.8532988013493904
 40
1.0
 40
1.0
 40
1.0
 40
1.0
 10
-0.7176175778998313
 20
31.30673819254607
 30
0.0
 10
-0.7605481214405329
 20
31.30869697264517
 30
0.0
 10
-0.8463735335336707
 20
31.31261290511049
 30
0.0
 10
-0.9705840669254572
 20
31.35119667505912
 30
0.0
 10
-1.080961023850972
 20
31.41986655985704
 30
0.0
 10
-1.169506516750288
 20
31.51742325438868
 30
0.0
 10
-1.238686527412652
 20
31.63112193667358
 30
0.0
 10
-1.284421485212963
 20
31.75959666108802
 30
0.0
 10
-1.289457912563258
 20
31.84956737886919
 30
0.0
 10
-1.291976382857905
 20
31.89455732200932
 30
0.0
  0
SPLINE
  5
127
330
1F
100
AcDbEntity
  8
0
  6
Continuous
 62
     7
370
    15
100
AcDbSpline
210
0.0
220
0.0
230
1.0
 70
     8
 71
     3
 72
    12
 73
     8
 74
     0
 42
0.000000001
 43
0.00000001
 40
0.0
 40
0.0
 40
0.0
 40
0.0
 40
0.1868317649138136
 40
0.3734630247313843
 40
0.5601301286137417
 40
0.7799421243134507
 40
1.0
 40
1.0
 40
1.0
 40
1.0
 10
-0.1902103372199477
 20
31.6219341247091
 30
0.0
 10
-0.210736570386909
 20
31.58707387744898
 30
0.0
 10
-0.2517670082699662
 20
31.51739079443229
 30
0.0
 10
-0.3369143759718755
 20
31.42953133119735
 30
0.0
 10
-0.4451193846558524
 20
31.35947590821463
 30
0.0
 10
-0.5746450262757579
 20
31.31346266543069
 30
0.0
 10
-0.6699423041574654
 20
31.30898051865627
 30
0.0
 10
-0.7176175778998313
 20
31.30673819254607
 30
0.0
  0
LINE
  5
128
330
1F
100
AcDbEntity
  8
0
  6
Continuous
 62
     7
370
    15
100
AcDbLine
 10
-0.3147887381
 20
31.687349049
 30
0.0
 11
-0.1902103372
 21
31.6219341247
 31
0.0
  0
SPLINE
  5
129
330
1F
100
AcDbEntity
  8
0
  6
Continuous
 62
     7
370
    15
100
AcDbSpline
210
0.0
220
0.0
230
1.0
 70
     8
 71
     3
 72
    11
 73
     7
 74
     0
 42
0.000000001
 43
0.00000001
 40
0.0
 40
0.0
 40
0.0
 40
0.0
 40
0.2799002550767975
 40
0.5597049946283407
 40
0.7795382944127491
 40
1.0
 40
1.0
 40
1.0
 40
1.0
 10
-0.7351469753987355
 20
31.44696398597907
 30
0.0
 10
-0.6878311704263431
 20
31.45090388211218
 30
0.0
 10
-0.593215706926177
 20
31.458782329895
 30
0.0
 10
-0.4694843434831843
 20
31.51255742437045
 30
0.0
 10
-0.3782460229925909
 20
31.59524210268086
 30
0.0
 10
-0.3359612831810616
 20
31.65661753446248
 30
0.0
 10
-0.3147887380796303
 20
31.68734904903031
 30
0.0
  0
SPLINE
  5
12A
330
1F
100
AcDbEntity
  8
0
  6
Continuous
 62
     7
370
    15
100
AcDbSpline
210
0.0
220
0.0
230
1.0
 70
     8
 71
     3
 72
    13
 73
     9
 74
     0
 42
0.000000001
 43
0.00000001
 40
0.0
 40
0.0
 40
0.0
 40
0.0
 40
0.1867180361752504
 40
0.3732472161099556
 40
0.5597697116516759
 40
0.7064876706193682
 40
0.8531841528169732
 40
1.0
 40
1.0
 40
1.0
 40
1.0
 10
-1.151750589424903
 20
31.86763667299896
 30
0.0
 10
-1.148424806492938
 20
31.82653905590247
 30
0.0
 10
-1.14177660449717
 20
31.74438538995652
 30
0.0
 10
-1.090063569898882
 20
31.62995494616458
 30
0.0
 10
-1.013008675526809
 20
31.54371800095996
 30
0.0
 10
-0.9247097733254769
 20
31.48457995368423
 30
0.0
 10
-0.8320166910421303
 20
31.45246200835007
 30
0.0
 10
-0.767445633821079
 20
31.44879715690745
 30
0.0
 10
-0.7351469753987355
 20
31.44696398597907
 30
0.0
  0
SPLINE
  5
12B
330
1F
100
AcDbEntity
  8
0
  6
Continuous
 62
     7
370
    15
100
AcDbSpline
210
0.0
220
0.0
230
1.0
 70
     8
 71
     3
 72
    12
 73
     8
 74
     0
 42
0.000000001
 43
0.00000001
 40
0.0
 40
0.0
 40
0.0
 40
0.0
 40
0.1868259291651748
 40
0.3735418117409902
 40
0.5600880928992923
 40
0.7798968580439314
 40
1.0
 40
1.0
 40
1.0
 40
1.0
 10
-14.14910657619277
 20
32.12367382190263
 30
0.0
 10
-14.15594173659665
 20
32.14803613164538
 30
0.0
 10
-14.16960803127116
 20
32.1967464009328
 30
0.0
 10
-14.21119484582144
 20
32.26146452817303
 30
0.0
 10
-14.27350266972666
 20
32.31350389253917
 30
0.0
 10
-14.354370364727
 20
32.34408536425637
 30
0.0
 10
-14.41387197842501
 20
32.3469656783444
 30
0.0
 10
-14.4436426936864
 20
32.34840679910143
 30
0.0
  0
SPLINE
  5
12C
330
1F
100
AcDbEntity
  8
0
  6
Continuous
 62
     7
370
    15
100
AcDbSpline
210
0.0
220
0.0
230
1.0
 70
     8
 71
     3
 72
    13
 73
     9
 74
     0
 42
0.000000001
 43
0.00000001
 40
0.0
 40
0.0
 40
0.0
 40
0.0
 40
0.1864988689011061
 40
0.3730906527805756
 40
0.5596320942838968
 40
0.7064467070554958
 40
0.8532298554830936
 40
1.0
 40
1.0
 40
1.0
 40
1.0
 10
-10.12610750355469
 20
31.89925060112549
 30
0.0
 10
-10.12204079615743
 20
31.85469837234448
 30
0.0
 10
-10.11390535530223
 20
31.76557171856541
 30
0.0
 10
-10.05145448188815
 20
31.64482321354141
 30
0.0
 10
-9.968131114817282
 20
31.55142312839643
 30
0.0
 10
-9.870541291616114
 20
31.49028783770264
 30
0.0
 10
-9.771013626637332
 20
31.45360787581825
 30
0.0
 10
-9.701001636489549
 20
31.4491785505216
 30
0.0
 10
-9.6659971921216
 20
31.44696398597907
 30
0.0
  0
SPLINE
  5
12D
330
1F
100
AcDbEntity
  8
0
  6
Continuous
 62
     7
370
    15
100
AcDbSpline
210
0.0
220
0.0
230
1.0
 70
     8
 71
     3
 72
    13
 73
     9
 74
     0
 42
0.000000001
 43
0.00000001
 40
0.0
 40
0.0
 40
0.0
 40
0.0
 40
0.1866209778340469
 40
0.3732129832914117
 40
0.559721160395685
 40
0.7065164459334939
 40
0.8533001968325202
 40
1.0
 40
1.0
 40
1.0
 40
1.0
 10
-9.664744086597581
 20
32.34840679910143
 30
0.0
 10
-9.70931304149341
 20
32.34504011733734
 30
0.0
 10
-9.79844403208142
 20
32.33830727647692
 30
0.0
 10
-9.921813791567931
 20
32.28128379265374
 30
0.0
 10
-10.01658703269622
 20
32.1991307383615
 30
0.0
 10
-10.07968802422792
 20
32.10298364723166
 30
0.0
 10
-10.11887259025004
 20
32.00427913868531
 30
0.0
 10
-10.12369632571192
 20
31.93425343695239
 30
0.0
 10
-10.12610750355469
 20
31.89925060112549
 30
0.0
  0
SPLINE
  5
12E
330
1F
100
AcDbEntity
  8
0
  6
Continuous
 62
     7
370
    15
100
AcDbSpline
210
0.0
220
0.0
230
1.0
 70
     8
 71
     3
 72
    13
 73
     9
 74
     0
 42
0.000000001
 43
0.00000001
 40
0.0
 40
0.0
 40
0.0
 40
0.0
 40
0.1866543860167847
 40
0.3730933530237293
 40
0.5596884797324978
 40
0.7064185208756499
 40
0.85316011838559
 40
1.0
 40
1.0
 40
1.0
 40
1.0
 10
-9.204633775164504
 20
31.89518152813178
 30
0.0
 10
-9.207794586662397
 20
31.94013019916011
 30
0.0
 10
-9.214112561745605
 20
32.02997566567067
 30
0.0
 10
-9.27390218361962
 20
32.15368014927399
 30
0.0
 10
-9.360069421476096
 20
32.24575527429756
 30
0.0
 10
-9.457710901232474
 20
32.30826454383963
 30
0.0
 10
-9.55896193869657
 20
32.34282181105324
 30
0.0
 10
-9.629475501875326
 20
32.34654472097144
 30
0.0
 10
-9.664744086597581
 20
32.34840679910143
 30
0.0
  0
SPLINE
  5
12F
330
1F
100
AcDbEntity
  8
0
  6
Continuous
 62
     7
370
    15
100
AcDbSpline
210
0.0
220
0.0
230
1.0
 70
     8
 71
     3
 72
    13
 73
     9
 74
     0
 42
0.000000001
 43
0.00000001
 40
0.0
 40
0.0
 40
0.0
 40
0.0
 40
0.1866256583430295
 40
0.3732516068116634
 40
0.5596838510604106
 40
0.7064260106341368
 40
0.8531791414967889
 40
1.0
 40
1.0
 40
1.0
 40
1.0
 10
-9.6659971921216
 20
31.44696398597907
 30
0.0
 10
-9.621300671298922
 20
31.4504264007517
 30
0.0
 10
-9.531907560169007
 20
31.45735123567959
 30
0.0
 10
-9.408238907755926
 20
31.51383846576771
 30
0.0
 10
-9.31062491962644
 20
31.59315836525679
 30
0.0
 10
-9.246937650054463
 20
31.68972960551872
 30
0.0
 10
-9.210335216423351
 20
31.78977267229361
 30
0.0
 10
-9.206534547856048
 20
31.86003983929758
 30
0.0
 10
-9.204633775164496
 20
31.89518152813178
 30
0.0
  0
SPLINE
  5
130
330
1F
100
AcDbEntity
  8
0
  6
Continuous
 62
     7
370
    15
100
AcDbSpline
210
0.0
220
0.0
230
1.0
 70
     8
 71
     3
 72
    19
 73
    15
 74
     0
 42
0.000000001
 43
0.00000001
 40
0.000000797506066
 40
0.000000797506066
 40
0.000000797506066
 40
0.000000797506066
 40
0.0962401251801396
 40
0.1852312611286949
 40
0.2675005230774379
 40
0.3444003817777646
 40
0.4195948685557234
 40
0.4968906265927803
 40
0.5766379188385184
 40
0.6602678524196393
 40
0.7453866150876178
 40
0.8300403273864528
 40
0.9144742116387966
 40
0.9999978374966426
 40
0.9999978374966426
 40
0.9999978374966426
 40
0.9999978374966426
 10
-6.360084073357473
 20
32.00786251121384
 30
0.0
 10
-6.365216452502773
 20
32.02646185428515
 30
0.0
 10
-6.375094688571324
 20
32.0622597387212
 30
0.0
 10
-6.395735861160954
 20
32.11183141702249
 30
0.0
 10
-6.418982084686033
 20
32.15588851568752
 30
0.0
 10
-6.446491786192654
 20
32.19409370901614
 30
0.0
 10
-6.477660860133114
 20
32.22802384874028
 30
0.0
 10
-6.513663173815225
 20
32.25767500283307
 30
0.0
 10
-6.554036340553221
 20
32.284200650631
 30
0.0
 10
-6.598571671212968
 20
32.30659015932158
 30
0.0
 10
-6.645733182407571
 20
32.32564813196549
 30
0.0
 10
-6.695110946680563
 20
32.33842720149657
 30
0.0
 10
-6.745493459777774
 20
32.34718138709936
 30
0.0
 10
-6.77957082691306
 20
32.34799666768374
 30
0.0
 10
-6.796718762774717
 20
32.34840688950945
 30
0.0
  0
LINE
  5
131
330
1F
100
AcDbEntity
  8
0
  6
Continuous
 62
     7
370
    15
100
AcDbLine
 10
-7.2267827035
 20
32.0078624664
 30
0.0
 11
-6.3600842356
 21
32.0078624664
 31
0.0
  0
SPLINE
  5
132
330
1F
100
AcDbEntity
  8
0
  6
Continuous
 62
     7
370
    15
100
AcDbSpline
210
0.0
220
0.0
230
1.0
 70
     8
 71
     3
 72
    10
 73
     6
 74
     0
 42
0.000000001
 43
0.00000001
 40
0.0
 40
0.0
 40
0.0
 40
0.0
 40
0.2799378016284224
 40
0.5599718111261561
 40
1.0
 40
1.0
 40
1.0
 40
1.0
 10
-7.090940432730355
 20
32.24136248901977
 30
0.0
 10
-7.109092552011886
 20
32.22331286608019
 30
0.0
 10
-7.145403029020437
 20
32.187207416981
 30
0.0
 10
-7.192369688592923
 20
32.10802549230256
 30
0.0
 10
-7.213729671760262
 20
32.04585481198583
 30
0.0
 10
-7.226782703468852
 20
32.00786246643196
 30
0.0
  0
SPLINE
  5
133
330
1F
100
AcDbEntity
  8
0
  6
Continuous
 62
     7
370
    15
100
AcDbSpline
210
0.0
220
0.0
230
1.0
 70
     8
 71
     3
 72
    11
 73
     7
 74
     0
 42
0.000000001
 43
0.00000001
 40
0.0
 40
0.0
 40
0.0
 40
0.0
 40
0.2799690920044726
 40
0.5598068342390834
 40
0.7798835256905455
 40
1.0
 40
1.0
 40
1.0
 40
1.0
 10
-6.796718764937502
 20
32.34840679910143
 30
0.0
 10
-6.826637270817176
 20
32.34706151872396
 30
0.0
 10
-6.886460246066862
 20
32.34437158911821
 30
0.0
 10
-6.966762089617463
 20
32.31994443393491
 30
0.0
 10
-7.035867147494545
 20
32.28551217325655
 30
0.0
 10
-7.072581564952112
 20
32.25607993708707
 30
0.0
 10
-7.090940432730355
 20
32.24136248901977
 30
0.0
  0
SPLINE
  5
134
330
1F
100
AcDbEntity
  8
0
  6
Continuous
 62
     7
370
    15
100
AcDbSpline
210
0.0
220
0.0
230
1.0
 70
     8
 71
     3
 72
    15
 73
    11
 74
     0
 42
0.000000001
 43
0.00000001
 40
0.0000045028237031
 40
0.0000045028237031
 40
0.0000045028237031
 40
0.0000045028237031
 40
0.1310919762569304
 40
0.2591412763281264
 40
0.3841617634834156
 40
0.5059919524977774
 40
0.6290980893898573
 40
0.7506691234237092
 40
0.8740389376151289
 40
0.9999907060246686
 40
0.9999907060246686
 40
0.9999907060246686
 40
0.9999907060246686
 10
-0.706977915965589
 20
32.34840689248892
 30
0.0
 10
-0.7209727202993562
 20
32.34813383421348
 30
0.0
 10
-0.7486379727946985
 20
32.34759399561158
 30
0.0
 10
-0.7893969004903517
 20
32.34247346217884
 30
0.0
 10
-0.828539623221656
 20
32.33400924571816
 30
0.0
 10
-0.8663544837624508
 20
32.32241774723506
 30
0.0
 10
-0.9023459428571574
 20
32.30696747826062
 30
0.0
 10
-0.937254321526212
 20
32.28884996638136
 30
0.0
 10
-0.9701911730764361
 20
32.26673374209531
 30
0.0
 10
-0.9907892553751773
 20
32.2498778129583
 30
0.0
 10
-1.001194923514703
 20
32.24136253161561
 30
0.0
  0
SPLINE
  5
135
330
1F
100
AcDbEntity
  8
0
  6
Continuous
 62
     7
370
    15
100
AcDbSpline
210
0.0
220
0.0
230
1.0
 70
     8
 71
     3
 72
    12
 73
     8
 74
     0
 42
0.000000001
 43
0.00000001
 40
0.0
 40
0.0
 40
0.0
 40
0.0
 40
0.1869049454521888
 40
0.3734742623110144
 40
0.5600562157880111
 40
0.7800279752274526
 40
1.0
 40
1.0
 40
1.0
 40
1.0
 10
-0.2703386915703606
 20
32.00786246643196
 30
0.0
 10
-0.2811372319954825
 20
32.04371230284271
 30
0.0
 10
-0.3027149217112453
 20
32.11534759946409
 30
0.0
 10
-0.3644789778968111
 20
32.21131546073991
 30
0.0
 10
-0.4584711953396158
 20
32.28560241674393
 30
0.0
 10
-0.5746828007365701
 20
32.33814069419116
 30
0.0
 10
-0.6628795252771512
 20
32.34498476275544
 30
0.0
 10
-0.7069779141434682
 20
32.34840679910143
 30
0.0
  0
LINE
  5
136
330
1F
100
AcDbEntity
  8
0
  6
Continuous
 62
     7
370
    15
100
AcDbLine
 10
-1.1370418527
 20
32.0078624664
 30
0.0
 11
-0.2703386916
 21
32.0078624664
 31
0.0
  0
SPLINE
  5
137
330
1F
100
AcDbEntity
  8
0
  6
Continuous
 62
     7
370
    15
100
AcDbSpline
210
0.0
220
0.0
230
1.0
 70
     8
 71
     3
 72
    10
 73
     6
 74
     0
 42
0.000000001
 43
0.00000001
 40
0.0
 40
0.0
 40
0.0
 40
0.0
 40
0.2799360517650916
 40
0.5599683107981087
 40
1.0
 40
1.0
 40
1.0
 40
1.0
 10
-1.001194888657206
 20
32.24136248901977
 30
0.0
 10
-1.019347053473283
 20
32.22331288391744
 30
0.0
 10
-1.055657621566585
 20
32.18720747049893
 30
0.0
 10
-1.102623761254368
 20
32.10802473219795
 30
0.0
 10
-1.12398685064041
 20
32.04585465395253
 30
0.0
 10
-1.137041852674818
 20
32.00786246643196
 30
0.0
  0
SPLINE
  5
138
330
1F
100
AcDbEntity
  8
0
  6
Continuous
 62
     7
370
    15
100
AcDbSpline
210
0.0
220
0.0
230
1.0
 70
     8
 71
     3
 72
    11
 73
     7
 74
     0
 42
0.000000001
 43
0.00000001
 40
0.0
 40
0.0
 40
0.0
 40
0.0
 40
0.2799690920044726
 40
0.5598068342390834
 40
0.7798835256905455
 40
1.0
 40
1.0
 40
1.0
 40
1.0
 10
-12.40569418290817
 20
32.34840679910143
 30
0.0
 10
-12.43561268878784
 20
32.34706151872396
 30
0.0
 10
-12.49543566403753
 20
32.34437158911821
 30
0.0
 10
-12.57573750758814
 20
32.31994443393491
 30
0.0
 10
-12.6448425654652
 20
32.28551217325655
 30
0.0
 10
-12.68155698292279
 20
32.25607993708707
 30
0.0
 10
-12.69991585070103
 20
32.24136248901977
 30
0.0
  0
SPLINE
  5
139
330
1F
100
AcDbEntity
  8
0
  6
Continuous
 62
     7
370
    15
100
AcDbSpline
210
0.0
220
0.0
230
1.0
 70
     8
 71
     3
 72
    12
 73
     8
 74
     0
 42
0.000000001
 43
0.00000001
 40
0.0
 40
0.0
 40
0.0
 40
0.0
 40
0.186903364109934
 40
0.373477999179144
 40
0.5600609768437778
 40
0.7800267677546823
 40
0.9999999999999999
 40
0.9999999999999999
 40
0.9999999999999999
 40
0.9999999999999999
 10
-11.96905965361418
 20
32.00786246643196
 30
0.0
 10
-11.97985594362199
 20
32.04371264581402
 30
0.0
 10
-12.0014295349261
 20
32.11534995062974
 30
0.0
 10
-12.06320076104906
 20
32.21131409496324
 30
0.0
 10
-12.15719070023111
 20
32.28560139673932
 30
0.0
 10
-12.27340034270713
 20
32.33814145472199
 30
0.0
 10
-12.3615957389151
 20
32.34498497905678
 30
0.0
 10
-12.40569418290817
 20
32.34840679910143
 30
0.0
  0
LINE
  5
13A
330
1F
100
AcDbEntity
  8
0
  6
Continuous
 62
     7
370
    15
100
AcDbLine
 10
-12.8357581214
 20
32.0078624664
 30
0.0
 11
-11.9690596536
 21
32.0078624664
 31
0.0
  0
SPLINE
  5
13B
330
1F
100
AcDbEntity
  8
0
  6
Continuous
 62
     7
370
    15
100
AcDbSpline
210
0.0
220
0.0
230
1.0
 70
     8
 71
     3
 72
    10
 73
     6
 74
     0
 42
0.000000001
 43
0.00000001
 40
0.0
 40
0.0
 40
0.0
 40
0.0
 40
0.2799378016284224
 40
0.5599718111261561
 40
1.0
 40
1.0
 40
1.0
 40
1.0
 10
-12.69991585070103
 20
32.24136248901977
 30
0.0
 10
-12.71806796998256
 20
32.22331286608019
 30
0.0
 10
-12.75437844699111
 20
32.187207416981
 30
0.0
 10
-12.80134510656359
 20
32.10802549230256
 30
0.0
 10
-12.82270508973093
 20
32.04585481198583
 30
0.0
 10
-12.83575812143952
 20
32.00786246643196
 30
0.0
  0
SPLINE
  5
13C
330
1F
100
AcDbEntity
  8
0
  6
Continuous
 62
     7
370
    15
100
AcDbSpline
210
0.0
220
0.0
230
1.0
 70
     8
 71
     3
 72
    13
 73
     9
 74
     0
 42
0.000000001
 43
0.00000001
 40
0.0
 40
0.0
 40
0.0
 40
0.0
 40
0.1865002982127008
 40
0.3730895999735664
 40
0.5596314544178048
 40
0.7064463921882908
 40
0.8532360659870768
 40
1.0
 40
1.0
 40
1.0
 40
1.0
 10
-3.956238298410239
 20
31.89925060112549
 30
0.0
 10
-3.952169232123086
 20
31.85469863744306
 30
0.0
 10
-3.944029157668065
 20
31.76557344854199
 30
0.0
 10
-3.881586589922954
 20
31.64482189274147
 30
0.0
 10
-3.798261498079015
 20
31.55142343460094
 30
0.0
 10
-3.700671055857124
 20
31.49028657914328
 30
0.0
 10
-3.601142465355552
 20
31.4536091575666
 30
0.0
 10
-3.53113076681477
 20
31.44917891368859
 30
0.0
 10
-3.496127986977153
 20
31.44696398597907
 30
0.0
  0
SPLINE
  5
13D
330
1F
100
AcDbEntity
  8
0
  6
Continuous
 62
     7
370
    15
100
AcDbSpline
210
0.0
220
0.0
230
1.0
 70
     8
 71
     3
 72
    13
 73
     9
 74
     0
 42
0.000000001
 43
0.00000001
 40
0.0
 40
0.0
 40
0.0
 40
0.0
 40
0.1866150881842079
 40
0.3732137206107922
 40
0.5597175718772653
 40
0.7065169935231658
 40
0.8532989160998903
 40
1.0
 40
1.0
 40
1.0
 40
1.0
 10
-3.494874881453135
 20
32.34840679910143
 30
0.0
 10
-3.539442008980277
 20
32.34503957232268
 30
0.0
 10
-3.628572334095887
 20
32.3383054156879
 30
0.0
 10
-3.751944101481425
 20
32.28128709695335
 30
0.0
 10
-3.84671165109449
 20
32.19912718030863
 30
0.0
 10
-3.909821250375932
 20
32.10298643666788
 30
0.0
 10
-3.94899589198295
 20
32.00427751694971
 30
0.0
 10
-3.953824606284263
 20
31.93425314375921
 30
0.0
 10
-3.956238298410248
 20
31.89925060112551
 30
0.0
  0
SPLINE
  5
13E
330
1F
100
AcDbEntity
  8
0
  6
Continuous
 62
     7
370
    15
100
AcDbSpline
210
0.0
220
0.0
230
1.0
 70
     8
 71
     3
 72
    13
 73
     9
 74
     0
 42
0.000000001
 43
0.00000001
 40
0.0
 40
0.0
 40
0.0
 40
0.0
 40
0.1866540743380762
 40
0.3730899605048471
 40
0.5596892149722577
 40
0.7064190111030599
 40
0.8531603635813533
 40
1.0
 40
1.0
 40
1.0
 40
1.0
 10
-3.034764570020049
 20
31.89518152813178
 30
0.0
 10
-3.037925869140271
 20
31.94012993276699
 30
0.0
 10
-3.044244771998878
 20
32.02997419986687
 30
0.0
 10
-3.104026893139657
 20
32.15368312590176
 30
0.0
 10
-3.190200372591816
 20
32.24575384015861
 30
0.0
 10
-3.287841442691048
 20
32.3082647486495
 30
0.0
 10
-3.389092796952947
 20
32.34282175980908
 30
0.0
 10
-3.459606317869212
 20
32.34654470388625
 30
0.0
 10
-3.494874881453135
 20
32.34840679910143
 30
0.0
  0
SPLINE
  5
13F
330
1F
100
AcDbEntity
  8
0
  6
Continuous
 62
     7
370
    15
100
AcDbSpline
210
0.0
220
0.0
230
1.0
 70
     8
 71
     3
 72
    13
 73
     9
 74
     0
 42
0.000000001
 43
0.00000001
 40
0.0
 40
0.0
 40
0.0
 40
0.0
 40
0.1866312505634223
 40
0.3732502902426922
 40
0.5596866612078578
 40
0.7064281099103807
 40
0.8531805298486806
 40
1.0
 40
1.0
 40
1.0
 40
1.0
 10
-3.496127986977153
 20
31.44696398597907
 30
0.0
 10
-3.451429697690429
 20
31.45042589399818
 30
0.0
 10
-3.362036043630588
 20
31.45734948353115
 30
0.0
 10
-3.238368496228717
 20
31.51384135881435
 30
0.0
 10
-3.140751051952418
 20
31.59315664955261
 30
0.0
 10
-3.077064209757324
 20
31.68972980587784
 30
0.0
 10
-3.040460087620307
 20
31.78977234582056
 30
0.0
 10
-3.036663364937017
 20
31.86003978446189
 30
0.0
 10
-3.034764570020049
 20
31.89518152813178
 30
0.0
  0
INSERT
  5
14B
330
1F
100
AcDbEntity
  8
0
  6
Continuous
 62
     7
370
     0
100
AcDbBlockReference
  2
SW_CENTERMARKSYMBOL_0
 10
19.4946052632
 20
6.0905263158
 30
0.0
  0
INSERT
  5
157
330
1F
100
AcDbEntity
  8
0
  6
Continuous
 62
     7
370
     0
100
AcDbBlockReference
  2
SW_CENTERMARKSYMBOL_1
 10
9.4946052632
 20
6.0905263158
 30
0.0
  0
INSERT
  5
163
330
1F
100
AcDbEntity
  8
0
  6
Continuous
 62
     7
370
     0
100
AcDbBlockReference
  2
SW_CENTERMARKSYMBOL_2
 10
-0.5053947368
 20
6.0905263158
 30
0.0
  0
INSERT
  5
16F
330
1F
100
AcDbEntity
  8
0
  6
Continuous
 62
     7
370
     0
100
AcDbBlockReference
  2
SW_CENTERMARKSYMBOL_3
 10
-10.5053947368
 20
6.0905263158
 30
0.0
  0
ENDSEC
  0
SECTION
  2
OBJECTS
  0
DICTIONARY
  5
C
330
0
100
AcDbDictionary
281
     1
  3
ACAD_GROUP
350
D
  3
ACAD_LAYOUT
350
1A
  3
ACAD_MLINESTYLE
350
17
  3
ACAD_PLOTSETTINGS
350
19
  3
ACAD_PLOTSTYLENAME
350
E
  3
ACAD_SCALELIST
350
47
  0
DICTIONARY
  5
D
102
{ACAD_REACTORS
330
C
102
}
330
C
100
AcDbDictionary
281
     1
  0
DICTIONARY
  5
1A
102
{ACAD_REACTORS
330
C
102
}
330
C
100
AcDbDictionary
281
     1
  3
Layout1
350
1E
  3
Layout2
350
26
  3
Model
350
22
  0
DICTIONARY
  5
17
102
{ACAD_REACTORS
330
C
102
}
330
C
100
AcDbDictionary
281
     1
  3
Standard
350
18
  0
DICTIONARY
  5
19
102
{ACAD_REACTORS
330
C
102
}
330
C
100
AcDbDictionary
281
     1
  0
ACDBDICTIONARYWDFLT
  5
E
102
{ACAD_REACTORS
330
C
102
}
330
C
100
AcDbDictionary
281
     1
  3
Normal
350
F
100
AcDbDictionaryWithDefault
340
F
  0
DICTIONARY
  5
47
102
{ACAD_REACTORS
330
C
102
}
330
C
100
AcDbDictionary
281
     1
  3
A0
350
48
  3
A1
350
49
  3
A2
350
4A
  3
A3
350
4B
  3
A4
350
4C
  3
A5
350
4D
  3
A6
350
4E
  3
A7
350
4F
  3
A8
350
50
  3
A9
350
51
  3
B0
350
52
  3
B1
350
53
  3
B2
350
54
  3
B3
350
55
  3
B4
350
56
  3
B5
350
57
  3
B6
350
58
  3
B7
350
59
  3
B8
350
5A
  3
B9
350
5B
  3
C0
350
5C
  3
C1
350
5D
  3
C2
350
5E
  3
C3
350
5F
  3
C4
350
60
  3
C5
350
61
  3
C6
350
62
  3
C7
350
63
  3
C8
350
64
  3
C9
350
65
  3
D0
350
66
  3
D1
350
67
  3
D2
350
68
  0
LAYOUT
  5
1E
102
{ACAD_REACTORS
330
1A
102
}
330
1A
100
AcDbPlotSettings
  1

  2
none_device
  4

  6

 40
0.0
 41
0.0
 42
0.0
 43
0.0
 44
0.0
 45
0.0
 46
0.0
 47
0.0
 48
0.0
 49
0.0
140
0.0
141
0.0
142
1.0
143
1.0
 70
   688
 72
     0
 73
     0
 74
     5
  7

 75
    16
147
1.0
148
0.0
149
0.0
100
AcDbLayout
  1
Layout1
 70
     1
 71
     1
 10
0.0
 20
0.0
 11
12.0
 21
9.0
 12
0.0
 22
0.0
 32
0.0
 14
1.0000000000E+20
 24
1.0000000000E+20
 34
1.0000000000E+20
 15
-1.0000000000E+20
 25
-1.0000000000E+20
 35
-1.0000000000E+20
146
0.0
 13
0.0
 23
0.0
 33
0.0
 16
1.0
 26
0.0
 36
0.0
 17
0.0
 27
1.0
 37
0.0
 76
     0
330
1B
  0
LAYOUT
  5
26
102
{ACAD_REACTORS
330
1A
102
}
330
1A
100
AcDbPlotSettings
  1

  2
none_device
  4

  6

 40
0.0
 41
0.0
 42
0.0
 43
0.0
 44
0.0
 45
0.0
 46
0.0
 47
0.0
 48
0.0
 49
0.0
140
0.0
141
0.0
142
1.0
143
1.0
 70
   688
 72
     0
 73
     0
 74
     5
  7

 75
    16
147
1.0
148
0.0
149
0.0
100
AcDbLayout
  1
Layout2
 70
     1
 71
     2
 10
0.0
 20
0.0
 11
0.0
 21
0.0
 12
0.0
 22
0.0
 32
0.0
 14
0.0
 24
0.0
 34
0.0
 15
0.0
 25
0.0
 35
0.0
146
0.0
 13
0.0
 23
0.0
 33
0.0
 16
1.0
 26
0.0
 36
0.0
 17
0.0
 27
1.0
 37
0.0
 76
     0
330
23
  0
LAYOUT
  5
22
102
{ACAD_REACTORS
330
1A
102
}
330
1A
100
AcDbPlotSettings
  1

  2
none_device
  4
Letter_(8.50_x_11.00_Inches)
  6

 40
6.35
 41
6.35
 42
6.35000508
 43
6.35000508
 44
215.9
 45
279.4
 46
0.0
 47
0.0
 48
0.0
 49
0.0
140
0.0
141
0.0
142
1.0
143
1.0
 70
  1712
 72
     0
 73
     0
 74
     0
  7

 75
     0
147
1.0
148
0.0
149
0.0
100
AcDbLayout
  1
Model
 70
     1
 71
     0
 10
0.0
 20
0.0
 11
8.5
 21
11.0
 12
0.0
 22
0.0
 32
0.0
 14
0.0
 24
0.0
 34
0.0
 15
8.5
 25
11.0
 35
0.0
146
0.0
 13
0.0
 23
0.0
 33
0.0
 16
1.0
 26
0.0
 36
0.0
 17
0.0
 27
1.0
 37
0.0
 76
     0
330
1F
331
29
  0
MLINESTYLE
  5
18
102
{ACAD_REACTORS
330
17
102
}
330
17
100
AcDbMlineStyle
  2
Standard
 70
     0
  3

 62
   256
 51
90.0
 52
90.0
 71
     2
 49
0.5
 62
   256
  6
BYLAYER
 49
-0.5
 62
   256
  6
BYLAYER
  0
ACDBPLACEHOLDER
  5
F
102
{ACAD_REACTORS
330
E
102
}
330
E
  0
SCALE
  5
48
102
{ACAD_REACTORS
330
47
102
}
330
47
100
AcDbScale
 70
     0
300
1:1
140
1.0
141
1.0
290
     1
  0
SCALE
  5
49
102
{ACAD_REACTORS
330
47
102
}
330
47
100
AcDbScale
 70
     0
300
1:2
140
1.0
141
2.0
290
     0
  0
SCALE
  5
4A
102
{ACAD_REACTORS
330
47
102
}
330
47
100
AcDbScale
 70
     0
300
1:4
140
1.0
141
4.0
290
     0
  0
SCALE
  5
4B
102
{ACAD_REACTORS
330
47
102
}
330
47
100
AcDbScale
 70
     0
300
1:5
140
1.0
141
5.0
290
     0
  0
SCALE
  5
4C
102
{ACAD_REACTORS
330
47
102
}
330
47
100
AcDbScale
 70
     0
300
1:8
140
1.0
141
8.0
290
     0
  0
SCALE
  5
4D
102
{ACAD_REACTORS
330
47
102
}
330
47
100
AcDbScale
 70
     0
300
1:10
140
1.0
141
10.0
290
     0
  0
SCALE
  5
4E
102
{ACAD_REACTORS
330
47
102
}
330
47
100
AcDbScale
 70
     0
300
1:16
140
1.0
141
16.0
290
     0
  0
SCALE
  5
4F
102
{ACAD_REACTORS
330
47
102
}
330
47
100
AcDbScale
 70
     0
300
1:20
140
1.0
141
20.0
290
     0
  0
SCALE
  5
50
102
{ACAD_REACTORS
330
47
102
}
330
47
100
AcDbScale
 70
     0
300
1:30
140
1.0
141
30.0
290
     0
  0
SCALE
  5
51
102
{ACAD_REACTORS
330
47
102
}
330
47
100
AcDbScale
 70
     0
300
1:40
140
1.0
141
40.0
290
     0
  0
SCALE
  5
52
102
{ACAD_REACTORS
330
47
102
}
330
47
100
AcDbScale
 70
     0
300
1:50
140
1.0
141
50.0
290
     0
  0
SCALE
  5
53
102
{ACAD_REACTORS
330
47
102
}
330
47
100
AcDbScale
 70
     0
300
1:100
140
1.0
141
100.0
290
     0
  0
SCALE
  5
54
102
{ACAD_REACTORS
330
47
102
}
330
47
100
AcDbScale
 70
     0
300
2:1
140
2.0
141
1.0
290
     0
  0
SCALE
  5
55
102
{ACAD_REACTORS
330
47
102
}
330
47
100
AcDbScale
 70
     0
300
4:1
140
4.0
141
1.0
290
     0
  0
SCALE
  5
56
102
{ACAD_REACTORS
330
47
102
}
330
47
100
AcDbScale
 70
     0
300
8:1
140
8.0
141
1.0
290
     0
  0
SCALE
  5
57
102
{ACAD_REACTORS
330
47
102
}
330
47
100
AcDbScale
 70
     0
300
10:1
140
10.0
141
1.0
290
     0
  0
SCALE
  5
58
102
{ACAD_REACTORS
330
47
102
}
330
47
100
AcDbScale
 70
     0
300
100:1
140
100.0
141
1.0
290
     0
  0
SCALE
  5
59
102
{ACAD_REACTORS
330
47
102
}
330
47
100
AcDbScale
 70
     0
300
1/128" = 1'-0"
140
0.0078125
141
12.0
290
     0
  0
SCALE
  5
5A
102
{ACAD_REACTORS
330
47
102
}
330
47
100
AcDbScale
 70
     0
300
1/64" = 1'-0"
140
0.015625
141
12.0
290
     0
  0
SCALE
  5
5B
102
{ACAD_REACTORS
330
47
102
}
330
47
100
AcDbScale
 70
     0
300
1/32" = 1'-0"
140
0.03125
141
12.0
290
     0
  0
SCALE
  5
5C
102
{ACAD_REACTORS
330
47
102
}
330
47
100
AcDbScale
 70
     0
300
1/16" = 1'-0"
140
0.0625
141
12.0
290
     0
  0
SCALE
  5
5D
102
{ACAD_REACTORS
330
47
102
}
330
47
100
AcDbScale
 70
     0
300
3/32" = 1'-0"
140
0.09375
141
12.0
290
     0
  0
SCALE
  5
5E
102
{ACAD_REACTORS
330
47
102
}
330
47
100
AcDbScale
 70
     0
300
1/8" = 1'-0"
140
0.125
141
12.0
290
     0
  0
SCALE
  5
5F
102
{ACAD_REACTORS
330
47
102
}
330
47
100
AcDbScale
 70
     0
300
3/16" = 1'-0"
140
0.1875
141
12.0
290
     0
  0
SCALE
  5
60
102
{ACAD_REACTORS
330
47
102
}
330
47
100
AcDbScale
 70
     0
300
1/4" = 1'-0"
140
0.25
141
12.0
290
     0
  0
SCALE
  5
61
102
{ACAD_REACTORS
330
47
102
}
330
47
100
AcDbScale
 70
     0
300
3/8" = 1'-0"
140
0.375
141
12.0
290
     0
  0
SCALE
  5
62
102
{ACAD_REACTORS
330
47
102
}
330
47
100
AcDbScale
 70
     0
300
1/2" = 1'-0"
140
0.5
141
12.0
290
     0
  0
SCALE
  5
63
102
{ACAD_REACTORS
330
47
102
}
330
47
100
AcDbScale
 70
     0
300
3/4" = 1'-0"
140
0.75
141
12.0
290
     0
  0
SCALE
  5
64
102
{ACAD_REACTORS
330
47
102
}
330
47
100
AcDbScale
 70
     0
300
1" = 1'-0"
140
1.0
141
12.0
290
     0
  0
SCALE
  5
65
102
{ACAD_REACTORS
330
47
102
}
330
47
100
AcDbScale
 70
     0
300
1-1/2" = 1'-0"
140
1.5
141
12.0
290
     0
  0
SCALE
  5
66
102
{ACAD_REACTORS
330
47
102
}
330
47
100
AcDbScale
 70
     0
300
3" = 1'-0"
140
3.0
141
12.0
290
     0
  0
SCALE
  5
67
102
{ACAD_REACTORS
330
47
102
}
330
47
100
AcDbScale
 70
     0
300
6" = 1'-0"
140
6.0
141
12.0
290
     0
  0
SCALE
  5
68
102
{ACAD_REACTORS
330
47
102
}
330
47
100
AcDbScale
 70
     0
300
1'-0" = 1'-0"
140
12.0
141
12.0
290
     0
  0
ENDSEC
  0
EOF
