  0
SECTION
  2
HEADER
  9
$ACADVER
  1
AC1015
  9
$ACADMAINTVER
 70
     6
  9
$DWGCODEPAGE
  3
ANSI_1252
  9
$INSBASE
 10
0.0
 20
0.0
 30
0.0
  9
$EXTMIN
 10
0.0
 20
0.0
 30
0.0
  9
$EXTMAX
 10
8.5
 20
11.0
 30
0.0
  9
$LIMMIN
 10
0.0
 20
0.0
  9
$LIMMAX
 10
8.5
 20
11.0
  9
$ORTHOMODE
 70
     0
  9
$REGENMODE
 70
     1
  9
$FILLMODE
 70
     1
  9
$QTEXTMODE
 70
     0
  9
$MIRRTEXT
 70
     1
  9
$LTSCALE
 40
1.0
  9
$ATTMODE
 70
     1
  9
$TEXTSIZE
 40
0.1377952756
  9
$TRACEWID
 40
0.05
  9
$TEXTSTYLE
  7
Standard
  9
$CLAYER
  8
0
  9
$CELTYPE
  6
ByLayer
  9
$CECOLOR
 62
   256
  9
$CELTSCALE
 40
1.0
  9
$DISPSILH
 70
     0
  9
$DIMSCALE
 40
1.0
  9
$DIMASZ
 40
0.13
  9
$DIMEXO
 40
0.0393700787
  9
$DIMDLI
 40
0.38
  9
$DIMRND
 40
0.0
  9
$DIMDLE
 40
0.0
  9
$DIMEXE
 40
0.0393700787
  9
$DIMTP
 40
0.0
  9
$DIMTM
 40
0.0
  9
$DIMTXT
 40
0.1377952756
  9
$DIMCEN
 40
0.09
  9
$DIMTSZ
 40
0.0
  9
$DIMTOL
 70
     0
  9
$DIMLIM
 70
     0
  9
$DIMTIH
 70
     1
  9
$DIMTOH
 70
     1
  9
$DIMSE1
 70
     0
  9
$DIMSE2
 70
     0
  9
$DIMTAD
 70
     1
  9
$DIMZIN
 70
     0
  9
$DIMBLK
  1

  9
$DIMASO
 70
     1
  9
$DIMSHO
 70
     1
  9
$DIMPOST
  1

  9
$DIMAPOST
  1

  9
$DIMALT
 70
     0
  9
$DIMALTD
 70
     2
  9
$DIMALTF
 40
25.4
  9
$DIMLFAC
 40
20.0
  9
$DIMTOFL
 70
     0
  9
$DIMTVP
 40
0.0
  9
$DIMTIX
 70
     0
  9
$DIMSOXD
 70
     0
  9
$DIMSAH
 70
     0
  9
$DIMBLK1
  1

  9
$DIMBLK2
  1

  9
$DIMSTYLE
  2
Standard
  9
$DIMCLRD
 70
     0
  9
$DIMCLRE
 70
     0
  9
$DIMCLRT
 70
     0
  9
$DIMTFAC
 40
1.0
  9
$DIMGAP
 40
0.06
  9
$DIMJUST
 70
     0
  9
$DIMSD1
 70
     0
  9
$DIMSD2
 70
     0
  9
$DIMTOLJ
 70
     1
  9
$DIMTZIN
 70
     0
  9
$DIMALTZ
 70
     0
  9
$DIMALTTZ
 70
     0
  9
$DIMUPT
 70
     0
  9
$DIMDEC
 70
     2
  9
$DIMTDEC
 70
     2
  9
$DIMALTU
 70
     2
  9
$DIMALTTD
 70
     2
  9
$DIMTXSTY
  7
Standard
  9
$DIMAUNIT
 70
     0
  9
$DIMADEC
 70
     2
  9
$DIMALTRND
 40
0.0
  9
$DIMAZIN
 70
     0
  9
$DIMDSEP
 70
    46
  9
$DIMATFIT
 70
     3
  9
$DIMFRAC
 70
     0
  9
$DIMLDRBLK
  1

  9
$DIMLUNIT
 70
     2
  9
$DIMLWD
 70
    -2
  9
$DIMLWE
 70
    -2
  9
$DIMTMOVE
 70
     0
  9
$LUNITS
 70
     2
  9
$LUPREC
 70
     2
  9
$SKETCHINC
 40
0.1
  9
$FILLETRAD
 40
0.5
  9
$AUNITS
 70
     0
  9
$AUPREC
 70
     2
  9
$MENU
  1
.
  9
$ELEVATION
 40
0.0
  9
$PELEVATION
 40
0.0
  9
$THICKNESS
 40
0.0
  9
$LIMCHECK
 70
     0
  9
$CHAMFERA
 40
0.0
  9
$CHAMFERB
 40
0.0
  9
$CHAMFERC
 40
0.0
  9
$CHAMFERD
 40
0.0
  9
$SKPOLY
 70
     0
  9
$TDCREATE
 40
2457224.389977384
  9
$TDUCREATE
 40
2457224.681644051
  9
$TDUPDATE
 40
2457224.389977743
  9
$TDUUPDATE
 40
2457224.68164441
  9
$TDINDWG
 40
0.0000000116
  9
$TDUSRTIMER
 40
0.0000000116
  9
$USRTIMER
 70
     1
  9
$ANGBASE
 50
0.0
  9
$ANGDIR
 70
     0
  9
$PDMODE
 70
     0
  9
$PDSIZE
 40
-1.0
  9
$PLINEWID
 40
0.0
  9
$SPLFRAME
 70
     0
  9
$SPLINETYPE
 70
     6
  9
$SPLINESEGS
 70
     8
  9
$HANDSEED
  5
16E
  9
$SURFTAB1
 70
     6
  9
$SURFTAB2
 70
     6
  9
$SURFTYPE
 70
     6
  9
$SURFU
 70
     6
  9
$SURFV
 70
     6
  9
$UCSBASE
  2

  9
$UCSNAME
  2

  9
$UCSORG
 10
0.0
 20
0.0
 30
0.0
  9
$UCSXDIR
 10
1.0
 20
0.0
 30
0.0
  9
$UCSYDIR
 10
0.0
 20
1.0
 30
0.0
  9
$UCSORTHOREF
  2

  9
$UCSORTHOVIEW
 70
     0
  9
$UCSORGTOP
 10
0.0
 20
0.0
 30
0.0
  9
$UCSORGBOTTOM
 10
0.0
 20
0.0
 30
0.0
  9
$UCSORGLEFT
 10
0.0
 20
0.0
 30
0.0
  9
$UCSORGRIGHT
 10
0.0
 20
0.0
 30
0.0
  9
$UCSORGFRONT
 10
0.0
 20
0.0
 30
0.0
  9
$UCSORGBACK
 10
0.0
 20
0.0
 30
0.0
  9
$PUCSBASE
  2

  9
$PUCSNAME
  2

  9
$PUCSORG
 10
0.0
 20
0.0
 30
0.0
  9
$PUCSXDIR
 10
1.0
 20
0.0
 30
0.0
  9
$PUCSYDIR
 10
0.0
 20
1.0
 30
0.0
  9
$PUCSORTHOREF
  2

  9
$PUCSORTHOVIEW
 70
     0
  9
$PUCSORGTOP
 10
0.0
 20
0.0
 30
0.0
  9
$PUCSORGBOTTOM
 10
0.0
 20
0.0
 30
0.0
  9
$PUCSORGLEFT
 10
0.0
 20
0.0
 30
0.0
  9
$PUCSORGRIGHT
 10
0.0
 20
0.0
 30
0.0
  9
$PUCSORGFRONT
 10
0.0
 20
0.0
 30
0.0
  9
$PUCSORGBACK
 10
0.0
 20
0.0
 30
0.0
  9
$USERI1
 70
     0
  9
$USERI2
 70
     0
  9
$USERI3
 70
     0
  9
$USERI4
 70
     0
  9
$USERI5
 70
     0
  9
$USERR1
 40
0.0
  9
$USERR2
 40
0.0
  9
$USERR3
 40
0.0
  9
$USERR4
 40
0.0
  9
$USERR5
 40
0.0
  9
$WORLDVIEW
 70
     1
  9
$SHADEDGE
 70
     3
  9
$SHADEDIF
 70
    70
  9
$TILEMODE
 70
     1
  9
$MAXACTVP
 70
    64
  9
$PINSBASE
 10
0.0
 20
0.0
 30
0.0
  9
$PLIMCHECK
 70
     0
  9
$PEXTMIN
 10
1.0000000000E+20
 20
1.0000000000E+20
 30
1.0000000000E+20
  9
$PEXTMAX
 10
-1.0000000000E+20
 20
-1.0000000000E+20
 30
-1.0000000000E+20
  9
$PLIMMIN
 10
0.0
 20
0.0
  9
$PLIMMAX
 10
12.0
 20
9.0
  9
$UNITMODE
 70
     0
  9
$VISRETAIN
 70
     1
  9
$PLINEGEN
 70
     0
  9
$PSLTSCALE
 70
     1
  9
$TREEDEPTH
 70
  3020
  9
$CMLSTYLE
  2
Standard
  9
$CMLJUST
 70
     0
  9
$CMLSCALE
 40
1.0
  9
$PROXYGRAPHICS
 70
     1
  9
$MEASUREMENT
 70
     0
  9
$CELWEIGHT
370
    -1
  9
$ENDCAPS
280
     0
  9
$JOINSTYLE
280
     0
  9
$LWDISPLAY
290
     1
  9
$INSUNITS
 70
     1
  9
$HYPERLINKBASE
  1

  9
$STYLESHEET
  1

  9
$XEDIT
290
     1
  9
$CEPSNTYPE
380
     0
  9
$PSTYLEMODE
290
     1
  9
$FINGERPRINTGUID
  2
{7BBF1EE1-CFA6-4220-A010-A0F6D65E6D7E}
  9
$VERSIONGUID
  2
{FAEB1C32-E019-11D5-929B-00C0DF256EC4}
  9
$EXTNAMES
290
     1
  9
$PSVPSCALE
 40
0.0
  9
$OLESTARTUP
290
     0
  0
ENDSEC
  0
SECTION
  2
CLASSES
  0
CLASS
  1
ACDBDICTIONARYWDFLT
  2
AcDbDictionaryWithDefault
  3
ObjectDBX Classes
 90
        0
280
     0
281
     0
  0
CLASS
  1
VISUALSTYLE
  2
AcDbVisualStyle
  3
ObjectDBX Classes
 90
     4095
280
     0
281
     0
  0
CLASS
  1
MATERIAL
  2
AcDbMaterial
  3
ObjectDBX Classes
 90
     1153
280
     0
281
     0
  0
CLASS
  1
SCALE
  2
AcDbScale
  3
ObjectDBX Classes
 90
     1153
280
     0
281
     0
  0
CLASS
  1
SUN
  2
AcDbSun
  3
SCENEOE
 90
     1153
280
     0
281
     0
  0
CLASS
  1
ACDBPLACEHOLDER
  2
AcDbPlaceHolder
  3
ObjectDBX Classes
 90
        0
280
     0
281
     0
  0
CLASS
  1
LAYOUT
  2
AcDbLayout
  3
ObjectDBX Classes
 90
        0
280
     0
281
     0
  0
ENDSEC
  0
SECTION
  2
TABLES
  0
TABLE
  2
VPORT
  5
8
330
0
100
AcDbSymbolTable
 70
     1
  0
VPORT
  5
29
330
8
100
AcDbSymbolTableRecord
100
AcDbViewportTableRecord
  2
*Active
 70
     0
 10
0.0
 20
0.0
 11
1.0
 21
1.0
 12
4.25
 22
5.5
 13
0.0
 23
0.0
 14
0.5
 24
0.5
 15
0.5
 25
0.5
 16
0.0
 26
0.0
 36
1.0
 17
0.0
 27
0.0
 37
0.0
 40
11.0
 41
0.7727272727
 42
50.0
 43
0.0
 44
0.0
 50
0.0
 51
0.0
 71
     0
 72
  2000
 73
     1
 74
     3
 75
     0
 76
     0
 77
     0
 78
     0
281
     0
 65
     1
110
0.0
120
0.0
130
0.0
111
1.0
121
0.0
131
0.0
112
0.0
122
1.0
132
0.0
 79
     0
146
0.0
  0
ENDTAB
  0
TABLE
  2
LTYPE
  5
5
330
0
100
AcDbSymbolTable
 70
     6
  0
LTYPE
  5
14
330
5
100
AcDbSymbolTableRecord
100
AcDbLinetypeTableRecord
  2
ByBlock
 70
     0
  3

 72
    65
 73
     0
 40
0.0
  0
LTYPE
  5
15
330
5
100
AcDbSymbolTableRecord
100
AcDbLinetypeTableRecord
  2
ByLayer
 70
     0
  3

 72
    65
 73
     0
 40
0.0
  0
LTYPE
  5
16
330
5
100
AcDbSymbolTableRecord
100
AcDbLinetypeTableRecord
  2
Continuous
 70
     0
  3
Solid line
 72
    65
 73
     0
 40
0.0
  0
LTYPE
  5
6A
330
5
100
AcDbSymbolTableRecord
100
AcDbLinetypeTableRecord
  2
HIDDEN
 70
     0
  3
Hidden __ __ __ __ __ __ __ __ __ __ __ __ __ __
 72
    65
 73
     2
 40
0.075
 49
0.05
 74
     0
 49
-0.025
 74
     0
  0
LTYPE
  5
6B
330
5
100
AcDbSymbolTableRecord
100
AcDbLinetypeTableRecord
  2
PHANTOM
 70
     0
  3
Phantom ______  __  __  ______  __  __  ______
 72
    65
 73
     6
 40
0.5
 49
0.25
 74
     0
 49
-0.05
 74
     0
 49
0.05
 74
     0
 49
-0.05
 74
     0
 49
0.05
 74
     0
 49
-0.05
 74
     0
  0
LTYPE
  5
6C
330
5
100
AcDbSymbolTableRecord
100
AcDbLinetypeTableRecord
  2
CENTER
 70
     0
  3
Center ____ _ ____ _ ____ _ ____ _ ____ _ ____
 72
    65
 73
     4
 40
0.4
 49
0.25
 74
     0
 49
-0.05
 74
     0
 49
0.05
 74
     0
 49
-0.05
 74
     0
  0
LTYPE
  5
6D
330
5
100
AcDbSymbolTableRecord
100
AcDbLinetypeTableRecord
  2
CENTERX2
 70
     0
  3
Center (2x) ________  __  ________  __  _____
 72
    65
 73
     4
 40
0.8
 49
0.5
 74
     0
 49
-0.1
 74
     0
 49
0.1
 74
     0
 49
-0.1
 74
     0
  0
LTYPE
  5
6E
330
5
100
AcDbSymbolTableRecord
100
AcDbLinetypeTableRecord
  2
DOT2
 70
     0
  3
Dot (.5x) ........................................
 72
    65
 73
     2
 40
0.025
 49
0.0
 74
     0
 49
-0.025
 74
     0
  0
ENDTAB
  0
TABLE
  2
LAYER
  5
2
330
0
100
AcDbSymbolTable
 70
     1
  0
LAYER
  5
10
330
2
100
AcDbSymbolTableRecord
100
AcDbLayerTableRecord
  2
0
 70
     0
 62
     7
  6
Continuous
370
    -3
390
F
  0
ENDTAB
  0
TABLE
  2
STYLE
  5
3
330
0
100
AcDbSymbolTable
 70
     1
  0
STYLE
  5
11
330
3
100
AcDbSymbolTableRecord
100
AcDbTextStyleTableRecord
  2
Standard
 70
     0
 40
0.0
 41
1.0
 50
0.0
 71
     0
 42
0.1377952756
  3
txt
  4

  0
ENDTAB
  0
TABLE
  2
VIEW
  5
6
330
0
100
AcDbSymbolTable
 70
     0
  0
ENDTAB
  0
TABLE
  2
UCS
  5
7
330
0
100
AcDbSymbolTable
 70
     0
  0
ENDTAB
  0
TABLE
  2
APPID
  5
9
330
0
100
AcDbSymbolTable
 70
     1
  0
APPID
  5
12
330
9
100
AcDbSymbolTableRecord
100
AcDbRegAppTableRecord
  2
ACAD
 70
     0
  0
ENDTAB
  0
TABLE
  2
DIMSTYLE
  5
A
330
0
100
AcDbSymbolTable
 70
     1
100
AcDbDimStyleTable
  0
DIMSTYLE
105
27
330
A
100
AcDbSymbolTableRecord
100
AcDbDimStyleTableRecord
  2
Standard
 70
     0
178
     0
340
11
  0
ENDTAB
  0
TABLE
  2
BLOCK_RECORD
  5
1
330
0
100
AcDbSymbolTable
 70
     5
  0
BLOCK_RECORD
  5
1F
330
1
100
AcDbSymbolTableRecord
100
AcDbBlockTableRecord
  2
*Model_Space
340
22
  0
BLOCK_RECORD
  5
1B
330
1
100
AcDbSymbolTableRecord
100
AcDbBlockTableRecord
  2
*Paper_Space
340
1E
  0
BLOCK_RECORD
  5
23
330
1
100
AcDbSymbolTableRecord
100
AcDbBlockTableRecord
  2
*Paper_Space0
340
26
  0
BLOCK_RECORD
  5
13E
330
1
100
AcDbSymbolTableRecord
100
AcDbBlockTableRecord
  2
SW_CENTERMARKSYMBOL_0
340
0
102
{BLKREFS
331
149
102
}
  0
BLOCK_RECORD
  5
14A
330
1
100
AcDbSymbolTableRecord
100
AcDbBlockTableRecord
  2
SW_CENTERMARKSYMBOL_1
340
0
102
{BLKREFS
331
155
102
}
  0
BLOCK_RECORD
  5
156
330
1
100
AcDbSymbolTableRecord
100
AcDbBlockTableRecord
  2
SW_CENTERMARKSYMBOL_2
340
0
102
{BLKREFS
331
161
102
}
  0
BLOCK_RECORD
  5
162
330
1
100
AcDbSymbolTableRecord
100
AcDbBlockTableRecord
  2
SW_CENTERMARKSYMBOL_3
340
0
102
{BLKREFS
331
16D
102
}
  0
ENDTAB
  0
ENDSEC
  0
SECTION
  2
BLOCKS
  0
BLOCK
  5
20
330
1F
100
AcDbEntity
  8
0
100
AcDbBlockBegin
  2
*Model_Space
 70
     0
 10
0.0
 20
0.0
 30
0.0
  3
*Model_Space
  1
*Model_Space
  0
ENDBLK
  5
21
330
1F
100
AcDbEntity
  8
0
100
AcDbBlockEnd
  0
BLOCK
  5
1C
330
1B
100
AcDbEntity
 67
     1
  8
0
100
AcDbBlockBegin
  2
*Paper_Space
 70
     0
 10
0.0
 20
0.0
 30
0.0
  3
*Paper_Space
  1
*Paper_Space
  0
ENDBLK
  5
1D
330
1B
100
AcDbEntity
 67
     1
  8
0
100
AcDbBlockEnd
  0
BLOCK
  5
24
330
23
100
AcDbEntity
  8
0
100
AcDbBlockBegin
  2
*Paper_Space0
 70
     0
 10
0.0
 20
0.0
 30
0.0
  3
*Paper_Space0
  1
*Paper_Space0
  0
ENDBLK
  5
25
330
23
100
AcDbEntity
  8
0
100
AcDbBlockEnd
  0
BLOCK
  5
13F
330
13E
100
AcDbEntity
  8
0
100
AcDbBlockBegin
  2
SW_CENTERMARKSYMBOL_0
 70
     0
 10
0.0
 20
0.0
 30
0.0
  3
SW_CENTERMARKSYMBOL_0
  1
SW_CENTERMARKSYMBOL_0
  0
LINE
  5
141
330
13E
100
AcDbEntity
  8
0
  6
Continuous
 62
     0
370
     0
100
AcDbLine
 10
0.0
 20
0.0
 30
0.0
 11
0.0
 21
0.0984251969
 31
0.0
  0
LINE
  5
142
330
13E
100
AcDbEntity
  8
0
  6
Continuous
 62
     0
370
     0
100
AcDbLine
 10
0.0
 20
0.0
 30
0.0
 11
-0.0984251969
 21
0.0
 31
0.0
  0
LINE
  5
143
330
13E
100
AcDbEntity
  8
0
  6
Continuous
 62
     0
370
     0
100
AcDbLine
 10
0.0
 20
0.0
 30
0.0
 11
0.0
 21
-0.0984251969
 31
0.0
  0
LINE
  5
144
330
13E
100
AcDbEntity
  8
0
  6
Continuous
 62
     0
370
     0
100
AcDbLine
 10
0.0
 20
0.0
 30
0.0
 11
0.0984251969
 21
0.0
 31
0.0
  0
LINE
  5
145
330
13E
100
AcDbEntity
  8
0
  6
Continuous
 62
     0
370
     0
100
AcDbLine
 10
0.0
 20
0.0984251969
 30
0.0
 11
0.0
 21
0.1924251969
 31
0.0
  0
LINE
  5
146
330
13E
100
AcDbEntity
  8
0
  6
Continuous
 62
     0
370
     0
100
AcDbLine
 10
-0.0984251969
 20
0.0
 30
0.0
 11
-0.1924251969
 21
0.0
 31
0.0
  0
LINE
  5
147
330
13E
100
AcDbEntity
  8
0
  6
Continuous
 62
     0
370
     0
100
AcDbLine
 10
0.0
 20
-0.0984251969
 30
0.0
 11
0.0
 21
-0.1924251969
 31
0.0
  0
LINE
  5
148
330
13E
100
AcDbEntity
  8
0
  6
Continuous
 62
     0
370
     0
100
AcDbLine
 10
0.0984251969
 20
0.0
 30
0.0
 11
0.1924251969
 21
0.0
 31
0.0
  0
ENDBLK
  5
140
330
13E
100
AcDbEntity
  8
0
100
AcDbBlockEnd
  0
BLOCK
  5
14B
330
14A
100
AcDbEntity
  8
0
100
AcDbBlockBegin
  2
SW_CENTERMARKSYMBOL_1
 70
     0
 10
0.0
 20
0.0
 30
0.0
  3
SW_CENTERMARKSYMBOL_1
  1
SW_CENTERMARKSYMBOL_1
  0
LINE
  5
14D
330
14A
100
AcDbEntity
  8
0
  6
Continuous
 62
     0
370
     0
100
AcDbLine
 10
0.0
 20
0.0
 30
0.0
 11
0.0
 21
0.0984251969
 31
0.0
  0
LINE
  5
14E
330
14A
100
AcDbEntity
  8
0
  6
Continuous
 62
     0
370
     0
100
AcDbLine
 10
0.0
 20
0.0
 30
0.0
 11
-0.0984251969
 21
0.0
 31
0.0
  0
LINE
  5
14F
330
14A
100
AcDbEntity
  8
0
  6
Continuous
 62
     0
370
     0
100
AcDbLine
 10
0.0
 20
0.0
 30
0.0
 11
0.0
 21
-0.0984251969
 31
0.0
  0
LINE
  5
150
330
14A
100
AcDbEntity
  8
0
  6
Continuous
 62
     0
370
     0
100
AcDbLine
 10
0.0
 20
0.0
 30
0.0
 11
0.0984251969
 21
0.0
 31
0.0
  0
LINE
  5
151
330
14A
100
AcDbEntity
  8
0
  6
Continuous
 62
     0
370
     0
100
AcDbLine
 10
0.0
 20
0.0984251969
 30
0.0
 11
0.0
 21
0.1924251969
 31
0.0
  0
LINE
  5
152
330
14A
100
AcDbEntity
  8
0
  6
Continuous
 62
     0
370
     0
100
AcDbLine
 10
-0.0984251969
 20
0.0
 30
0.0
 11
-0.1924251969
 21
0.0
 31
0.0
  0
LINE
  5
153
330
14A
100
AcDbEntity
  8
0
  6
Continuous
 62
     0
370
     0
100
AcDbLine
 10
0.0
 20
-0.0984251969
 30
0.0
 11
0.0
 21
-0.1924251969
 31
0.0
  0
LINE
  5
154
330
14A
100
AcDbEntity
  8
0
  6
Continuous
 62
     0
370
     0
100
AcDbLine
 10
0.0984251969
 20
0.0
 30
0.0
 11
0.1924251969
 21
0.0
 31
0.0
  0
ENDBLK
  5
14C
330
14A
100
AcDbEntity
  8
0
100
AcDbBlockEnd
  0
BLOCK
  5
157
330
156
100
AcDbEntity
  8
0
100
AcDbBlockBegin
  2
SW_CENTERMARKSYMBOL_2
 70
     0
 10
0.0
 20
0.0
 30
0.0
  3
SW_CENTERMARKSYMBOL_2
  1
SW_CENTERMARKSYMBOL_2
  0
LINE
  5
159
330
156
100
AcDbEntity
  8
0
  6
Continuous
 62
     0
370
     0
100
AcDbLine
 10
0.0
 20
0.0
 30
0.0
 11
0.0
 21
0.0984251969
 31
0.0
  0
LINE
  5
15A
330
156
100
AcDbEntity
  8
0
  6
Continuous
 62
     0
370
     0
100
AcDbLine
 10
0.0
 20
0.0
 30
0.0
 11
-0.0984251969
 21
0.0
 31
0.0
  0
LINE
  5
15B
330
156
100
AcDbEntity
  8
0
  6
Continuous
 62
     0
370
     0
100
AcDbLine
 10
0.0
 20
0.0
 30
0.0
 11
0.0
 21
-0.0984251969
 31
0.0
  0
LINE
  5
15C
330
156
100
AcDbEntity
  8
0
  6
Continuous
 62
     0
370
     0
100
AcDbLine
 10
0.0
 20
0.0
 30
0.0
 11
0.0984251969
 21
0.0
 31
0.0
  0
LINE
  5
15D
330
156
100
AcDbEntity
  8
0
  6
Continuous
 62
     0
370
     0
100
AcDbLine
 10
0.0
 20
0.0984251969
 30
0.0
 11
0.0
 21
0.1924251969
 31
0.0
  0
LINE
  5
15E
330
156
100
AcDbEntity
  8
0
  6
Continuous
 62
     0
370
     0
100
AcDbLine
 10
-0.0984251969
 20
0.0
 30
0.0
 11
-0.1924251969
 21
0.0
 31
0.0
  0
LINE
  5
15F
330
156
100
AcDbEntity
  8
0
  6
Continuous
 62
     0
370
     0
100
AcDbLine
 10
0.0
 20
-0.0984251969
 30
0.0
 11
0.0
 21
-0.1924251969
 31
0.0
  0
LINE
  5
160
330
156
100
AcDbEntity
  8
0
  6
Continuous
 62
     0
370
     0
100
AcDbLine
 10
0.0984251969
 20
0.0
 30
0.0
 11
0.1924251969
 21
0.0
 31
0.0
  0
ENDBLK
  5
158
330
156
100
AcDbEntity
  8
0
100
AcDbBlockEnd
  0
BLOCK
  5
163
330
162
100
AcDbEntity
  8
0
100
AcDbBlockBegin
  2
SW_CENTERMARKSYMBOL_3
 70
     0
 10
0.0
 20
0.0
 30
0.0
  3
SW_CENTERMARKSYMBOL_3
  1
SW_CENTERMARKSYMBOL_3
  0
LINE
  5
165
330
162
100
AcDbEntity
  8
0
  6
Continuous
 62
     0
370
     0
100
AcDbLine
 10
0.0
 20
0.0
 30
0.0
 11
0.0
 21
0.0984251969
 31
0.0
  0
LINE
  5
166
330
162
100
AcDbEntity
  8
0
  6
Continuous
 62
     0
370
     0
100
AcDbLine
 10
0.0
 20
0.0
 30
0.0
 11
-0.0984251969
 21
0.0
 31
0.0
  0
LINE
  5
167
330
162
100
AcDbEntity
  8
0
  6
Continuous
 62
     0
370
     0
100
AcDbLine
 10
0.0
 20
0.0
 30
0.0
 11
0.0
 21
-0.0984251969
 31
0.0
  0
LINE
  5
168
330
162
100
AcDbEntity
  8
0
  6
Continuous
 62
     0
370
     0
100
AcDbLine
 10
0.0
 20
0.0
 30
0.0
 11
0.0984251969
 21
0.0
 31
0.0
  0
LINE
  5
169
330
162
100
AcDbEntity
  8
0
  6
Continuous
 62
     0
370
     0
100
AcDbLine
 10
0.0
 20
0.0984251969
 30
0.0
 11
0.0
 21
0.1924251969
 31
0.0
  0
LINE
  5
16A
330
162
100
AcDbEntity
  8
0
  6
Continuous
 62
     0
370
     0
100
AcDbLine
 10
-0.0984251969
 20
0.0
 30
0.0
 11
-0.1924251969
 21
0.0
 31
0.0
  0
LINE
  5
16B
330
162
100
AcDbEntity
  8
0
  6
Continuous
 62
     0
370
     0
100
AcDbLine
 10
0.0
 20
-0.0984251969
 30
0.0
 11
0.0
 21
-0.1924251969
 31
0.0
  0
LINE
  5
16C
330
162
100
AcDbEntity
  8
0
  6
Continuous
 62
     0
370
     0
100
AcDbLine
 10
0.0984251969
 20
0.0
 30
0.0
 11
0.1924251969
 21
0.0
 31
0.0
  0
ENDBLK
  5
164
330
162
100
AcDbEntity
  8
0
100
AcDbBlockEnd
  0
ENDSEC
  0
SECTION
  2
ENTITIES
  0
SPLINE
  5
6F
330
1F
100
AcDbEntity
  8
0
  6
Continuous
 62
     7
370
    15
100
AcDbSpline
210
0.0
220
0.0
230
1.0
 70
     8
 71
     3
 72
    14
 73
    10
 74
     0
 42
0.000000001
 43
0.00000001
 40
0.0
 40
0.0
 40
0.0
 40
0.0
 40
0.124978614979939
 40
0.2499120679416917
 40
0.3749129876950552
 40
0.4998165282693358
 40
0.6661926343962166
 40
0.8330728670314008
 40
0.9999999999999999
 40
0.9999999999999999
 40
0.9999999999999999
 40
0.9999999999999999
 10
-6.735901473723523
 20
30.28046607787481
 30
0.0
 10
-6.73751326486253
 20
30.30293062829282
 30
0.0
 10
-6.740736264706968
 20
30.34785161138461
 30
0.0
 10
-6.769296439444711
 20
30.40995943293222
 30
0.0
 10
-6.810967126307882
 20
30.46315726140165
 30
0.0
 10
-6.872193817256145
 20
30.50779827903217
 30
0.0
 10
-6.952458952882504
 20
30.53026455908161
 30
0.0
 10
-7.041577781610616
 20
30.53889539955423
 30
0.0
 10
-7.101337173086822
 20
30.53959403404551
 30
0.0
 10
-7.131221066957847
 20
30.53994340037064
 30
0.0
  0
SPLINE
  5
70
330
1F
100
AcDbEntity
  8
0
  6
Continuous
 62
     7
370
    15
100
AcDbSpline
210
0.0
220
0.0
230
1.0
 70
     8
 71
     3
 72
    14
 73
    10
 74
     0
 42
0.000000001
 43
0.00000001
 40
0.0
 40
0.0
 40
0.0
 40
0.0
 40
0.1669242611199264
 40
0.3338085491244721
 40
0.5001838241563235
 40
0.6250769453600263
 40
0.7500730240151982
 40
0.8750225618950997
 40
1.0
 40
1.0
 40
1.0
 40
1.0
 10
-7.143428285939012
 20
30.01567127014036
 30
0.0
 10
-7.112744069861956
 20
30.01617333744793
 30
0.0
 10
-7.051382985613407
 20
30.01717735183369
 30
0.0
 10
-6.959768119029715
 20
30.02591148311592
 30
0.0
 10
-6.877613115435445
 20
30.04920083593232
 30
0.0
 10
-6.813480962190592
 20
30.09312863725981
 30
0.0
 10
-6.769899074453159
 20
30.1473520855799
 30
0.0
 10
-6.740727331086938
 20
30.21125004484752
 30
0.0
 10
-6.737510212557402
 20
30.25739234985659
 30
0.0
 10
-6.735901473723532
 20
30.28046607787482
 30
0.0
  0
LINE
  5
71
330
1F
100
AcDbEntity
  8
0
  6
Continuous
 62
     7
370
    15
100
AcDbLine
 10
-7.4169901391
 20
30.0191114437
 30
0.0
 11
-7.1434282859
 21
30.0156712701
 31
0.0
  0
LINE
  5
72
330
1F
100
AcDbEntity
  8
0
  6
Continuous
 62
     7
370
    15
100
AcDbLine
 10
-7.4169901391
 20
30.5399434004
 30
0.0
 11
-7.4169901391
 21
30.0191114437
 31
0.0
  0
LINE
  5
73
330
1F
100
AcDbEntity
  8
0
  6
Continuous
 62
     7
370
    15
100
AcDbLine
 10
-7.131221067
 20
30.5399434004
 30
0.0
 11
-7.4169901391
 21
30.5399434004
 31
0.0
  0
SPLINE
  5
74
330
1F
100
AcDbEntity
  8
0
  6
Continuous
 62
     7
370
    15
100
AcDbSpline
210
0.0
220
0.0
230
1.0
 70
     8
 71
     3
 72
    14
 73
    10
 74
     0
 42
0.000000001
 43
0.00000001
 40
0.0
 40
0.0
 40
0.0
 40
0.0
 40
0.1249251719809191
 40
0.249845190922606
 40
0.3747954060923094
 40
0.4997343855878861
 40
0.6661844281868754
 40
0.8330669649611044
 40
1.0
 40
1.0
 40
1.0
 40
1.0
 10
-20.75833532537109
 20
30.28265783922206
 30
0.0
 10
-20.76002936992672
 20
30.30554019296879
 30
0.0
 10
-20.76341738916034
 20
30.35130395658792
 30
0.0
 10
-20.79443982027622
 20
30.41374036569475
 30
0.0
 10
-20.83858135286467
 20
30.46646811794728
 30
0.0
 10
-20.90242715850466
 20
30.50971630377492
 30
0.0
 10
-20.98449161080158
 20
30.53071262699447
 30
0.0
 10
-21.07524095488663
 20
30.53897309223312
 30
0.0
 10
-21.13607127556631
 20
30.5396199317077
 30
0.0
 10
-21.16649103698814
 20
30.53994340037064
 30
0.0
  0
SPLINE
  5
75
330
1F
100
AcDbEntity
  8
0
  6
Continuous
 62
     7
370
    15
100
AcDbSpline
210
0.0
220
0.0
230
1.0
 70
     8
 71
     3
 72
    14
 73
    10
 74
     0
 42
0.000000001
 43
0.00000001
 40
0.0
 40
0.0
 40
0.0
 40
0.0
 40
0.1669288807454583
 40
0.3337959594710255
 40
0.5002387710811138
 40
0.6251735374719914
 40
0.7501539472674177
 40
0.8750706032022865
 40
1.0
 40
1.0
 40
1.0
 40
1.0
 10
-21.17337607745157
 20
30.01691968238526
 30
0.0
 10
-21.14232359812306
 20
30.01742632009115
 30
0.0
 10
-21.08023013601439
 20
30.01843940793064
 30
0.0
 10
-20.98743096787677
 20
30.02733030769525
 30
0.0
 10
-20.90453865630111
 20
30.05118385271167
 30
0.0
 10
-20.83853751468546
 20
30.0938811508506
 30
0.0
 10
-20.79353284333139
 20
30.14817137850778
 30
0.0
 10
-20.76358784998586
 20
30.21265310984294
 30
0.0
 10
-20.76008622643094
 20
30.25932213613564
 30
0.0
 10
-20.7583353253711
 20
30.28265783922207
 30
0.0
  0
LINE
  5
76
330
1F
100
AcDbEntity
  8
0
  6
Continuous
 62
     7
370
    15
100
AcDbLine
 10
-21.4594595993
 20
30.0191114437
 30
0.0
 11
-21.1733760775
 21
30.0169196824
 31
0.0
  0
LINE
  5
77
330
1F
100
AcDbEntity
  8
0
  6
Continuous
 62
     7
370
    15
100
AcDbLine
 10
-21.4594595993
 20
30.5399434004
 30
0.0
 11
-21.4594595993
 21
30.0191114437
 31
0.0
  0
LINE
  5
78
330
1F
100
AcDbEntity
  8
0
  6
Continuous
 62
     7
370
    15
100
AcDbLine
 10
-21.166491037
 20
30.5399434004
 30
0.0
 11
-21.4594595993
 21
30.5399434004
 31
0.0
  0
LINE
  5
79
330
1F
100
AcDbEntity
  8
0
  6
Continuous
 62
     7
370
    15
100
AcDbLine
 10
-1.9883070383
 20
29.1377042392
 30
0.0
 11
-2.1285281385
 21
29.1377042392
 31
0.0
  0
LINE
  5
7A
330
1F
100
AcDbEntity
  8
0
  6
Continuous
 62
     7
370
    15
100
AcDbLine
 10
-1.9883070383
 20
30.7402666329
 30
0.0
 11
-1.9883070383
 21
29.1377042392
 31
0.0
  0
LINE
  5
7B
330
1F
100
AcDbEntity
  8
0
  6
Continuous
 62
     7
370
    15
100
AcDbLine
 10
-2.1285281385
 20
30.7402666329
 30
0.0
 11
-1.9883070383
 21
30.7402666329
 31
0.0
  0
LINE
  5
7C
330
1F
100
AcDbEntity
  8
0
  6
Continuous
 62
     7
370
    15
100
AcDbLine
 10
-2.1285281385
 20
29.1377042392
 30
0.0
 11
-2.1285281385
 21
30.7402666329
 31
0.0
  0
LINE
  5
7D
330
1F
100
AcDbEntity
  8
0
  6
Continuous
 62
     7
370
    15
100
AcDbLine
 10
-4.6926307844
 20
29.1377042392
 30
0.0
 11
-4.8328565779
 21
29.1377042392
 31
0.0
  0
LINE
  5
7E
330
1F
100
AcDbEntity
  8
0
  6
Continuous
 62
     7
370
    15
100
AcDbLine
 10
-4.6926307844
 20
29.5505485366
 30
0.0
 11
-4.6926307844
 21
29.1377042392
 31
0.0
  0
SPLINE
  5
7F
330
1F
100
AcDbEntity
  8
0
  6
Continuous
 62
     7
370
    15
100
AcDbSpline
210
0.0
220
0.0
230
1.0
 70
     8
 71
     3
 72
    10
 73
     6
 74
     0
 42
0.000000001
 43
0.00000001
 40
0.0
 40
0.0
 40
0.0
 40
0.0
 40
0.2798576563643461
 40
0.5599072714873067
 40
1.0
 40
1.0
 40
1.0
 40
1.0
 10
-4.671037007214041
 20
29.85697742338522
 30
0.0
 10
-4.676128707414265
 20
29.82869869271118
 30
0.0
 10
-4.686315600291772
 20
29.77212183453792
 30
0.0
 10
-4.69126734977914
 20
29.66950147809872
 30
0.0
 10
-4.692113615373644
 20
29.59566898318321
 30
0.0
 10
-4.692630784427551
 20
29.5505485366112
 30
0.0
  0
SPLINE
  5
80
330
1F
100
AcDbEntity
  8
0
  6
Continuous
 62
     7
370
    15
100
AcDbSpline
210
0.0
220
0.0
230
1.0
 70
     8
 71
     3
 72
    12
 73
     8
 74
     0
 42
0.000000001
 43
0.00000001
 40
0.0
 40
0.0
 40
0.0
 40
0.0
 40
0.1866981157173369
 40
0.37340318553296
 40
0.5602083436055109
 40
0.7801194706813638
 40
1.0
 40
1.0
 40
1.0
 40
1.0
 10
-4.282602454443142
 20
30.15933723716551
 30
0.0
 10
-4.315517483468144
 20
30.15714138094718
 30
0.0
 10
-4.381348767531271
 20
30.15274958671962
 30
0.0
 10
-4.473954648652692
 20
30.11423790417478
 30
0.0
 10
-4.557875539973368
 20
30.0517142667491
 30
0.0
 10
-4.631850603667456
 20
29.96705254430113
 30
0.0
 10
-4.657975478563107
 20
29.89366742847561
 30
0.0
 10
-4.67103700721405
 20
29.85697742338522
 30
0.0
  0
SPLINE
  5
81
330
1F
100
AcDbEntity
  8
0
  6
Continuous
 62
     7
370
    15
100
AcDbSpline
210
0.0
220
0.0
230
1.0
 70
     8
 71
     3
 72
     9
 73
     5
 74
     0
 42
0.000000001
 43
0.00000001
 40
0.0
 40
0.0
 40
0.0
 40
0.0
 40
0.5602556253302108
 40
1.0
 40
1.0
 40
1.0
 40
1.0
 10
-3.971480288552951
 20
29.6748124877701
 30
0.0
 10
-3.971176896089673
 20
29.72356626322779
 30
0.0
 10
-3.970635371025827
 20
29.81058685392508
 30
0.0
 10
-3.982742357675912
 20
29.89672534366223
 30
0.0
 10
-3.988066336949504
 20
29.93460425996671
 30
0.0
  0
LINE
  5
82
330
1F
100
AcDbEntity
  8
0
  6
Continuous
 62
     7
370
    15
100
AcDbLine
 10
-3.9714802886
 20
29.1377042392
 30
0.0
 11
-3.9714802886
 21
29.6748124878
 31
0.0
  0
LINE
  5
83
330
1F
100
AcDbEntity
  8
0
  6
Continuous
 62
     7
370
    15
100
AcDbLine
 10
-3.8312544951
 20
29.1377042392
 30
0.0
 11
-3.9714802886
 21
29.1377042392
 31
0.0
  0
LINE
  5
84
330
1F
100
AcDbEntity
  8
0
  6
Continuous
 62
     7
370
    15
100
AcDbLine
 10
-3.8312544951
 20
29.7208207029
 30
0.0
 11
-3.8312544951
 21
29.1377042392
 31
0.0
  0
SPLINE
  5
85
330
1F
100
AcDbEntity
  8
0
  6
Continuous
 62
     7
370
    15
100
AcDbSpline
210
0.0
220
0.0
230
1.0
 70
     8
 71
     3
 72
    14
 73
    10
 74
     0
 42
0.000000001
 43
0.00000001
 40
0.0
 40
0.0
 40
0.0
 40
0.0
 40
0.1400134631198797
 40
0.2799289222061543
 40
0.4198466149752303
 40
0.5597120120344372
 40
0.7062461334895217
 40
0.8530959147278072
 40
1.0
 40
1.0
 40
1.0
 40
1.0
 10
-4.258188016480812
 20
30.29956303059851
 30
0.0
 10
-4.219801566088696
 20
30.29723774185135
 30
0.0
 10
-4.143055534341836
 20
30.29258879196966
 30
0.0
 10
-4.035914199897825
 20
30.2460656691971
 30
0.0
 10
-3.945335914184904
 20
30.17392691744804
 30
0.0
 10
-3.878950149109158
 20
30.07578123449228
 30
0.0
 10
-3.846290784032286
 20
29.96077444729679
 30
0.0
 10
-3.833433187108308
 20
29.84110540993344
 30
0.0
 10
-3.831980815279032
 20
29.76092054632957
 30
0.0
 10
-3.831254495119958
 20
29.72082070294595
 30
0.0
  0
SPLINE
  5
86
330
1F
100
AcDbEntity
  8
0
  6
Continuous
 62
     7
370
    15
100
AcDbSpline
210
0.0
220
0.0
230
1.0
 70
     8
 71
     3
 72
    11
 73
     7
 74
     0
 42
0.000000001
 43
0.00000001
 40
0.0
 40
0.0
 40
0.0
 40
0.0
 40
0.2801043071998426
 40
0.5597803311831384
 40
0.7798640136637075
 40
1.0
 40
1.0
 40
1.0
 40
1.0
 10
-4.69263078442756
 20
30.07357225459658
 30
0.0
 10
-4.662132466297635
 20
30.11024275659928
 30
0.0
 10
-4.60118246237243
 20
30.18352769091867
 30
0.0
 10
-4.487332094851777
 20
30.25490952363338
 30
0.0
 10
-4.370337083585049
 20
30.29354088244273
 30
0.0
 10
-4.295573999793029
 20
30.29755548888401
 30
0.0
 10
-4.258188016480812
 20
30.29956303059851
 30
0.0
  0
LINE
  5
87
330
1F
100
AcDbEntity
  8
0
  6
Continuous
 62
     7
370
    15
100
AcDbLine
 10
-4.6926307844
 20
30.2795274221
 30
0.0
 11
-4.6926307844
 21
30.0735722546
 31
0.0
  0
LINE
  5
88
330
1F
100
AcDbEntity
  8
0
  6
Continuous
 62
     7
370
    15
100
AcDbLine
 10
-4.8328565779
 20
30.2795274221
 30
0.0
 11
-4.6926307844
 21
30.2795274221
 31
0.0
  0
LINE
  5
89
330
1F
100
AcDbEntity
  8
0
  6
Continuous
 62
     7
370
    15
100
AcDbLine
 10
-4.8328565779
 20
29.1377042392
 30
0.0
 11
-4.8328565779
 21
30.2795274221
 31
0.0
  0
LINE
  5
8A
330
1F
100
AcDbEntity
  8
0
  6
Continuous
 62
     7
370
    15
100
AcDbLine
 10
-7.4169901391
 20
29.1377042392
 30
0.0
 11
-7.5572159325
 21
29.1377042392
 31
0.0
  0
LINE
  5
8B
330
1F
100
AcDbEntity
  8
0
  6
Continuous
 62
     7
370
    15
100
AcDbLine
 10
-7.4169901391
 20
29.858854735
 30
0.0
 11
-7.4169901391
 21
29.1377042392
 31
0.0
  0
LINE
  5
8C
330
1F
100
AcDbEntity
  8
0
  6
Continuous
 62
     7
370
    15
100
AcDbLine
 10
-7.3052478566
 20
29.858854735
 30
0.0
 11
-7.4169901391
 21
29.858854735
 31
0.0
  0
SPLINE
  5
8D
330
1F
100
AcDbEntity
  8
0
  6
Continuous
 62
     7
370
    15
100
AcDbSpline
210
0.0
220
0.0
230
1.0
 70
     8
 71
     3
 72
    10
 73
     6
 74
     0
 42
0.000000001
 43
0.00000001
 40
0.0
 40
0.0
 40
0.0
 40
0.0
 40
0.2798599833226492
 40
0.5599186421913198
 40
1.0
 40
1.0
 40
1.0
 40
1.0
 10
-6.907426745582279
 20
29.88452227851803
 30
0.0
 10
-6.944198243758186
 20
29.87841553099701
 30
0.0
 10
-7.017767344583354
 20
29.86619770071067
 30
0.0
 10
-7.150911908316446
 20
29.86049895717512
 30
0.0
 10
-7.246706982260547
 20
29.85947840179852
 30
0.0
 10
-7.305247856585524
 20
29.85885473503168
 30
0.0
  0
SPLINE
  5
8E
330
1F
100
AcDbEntity
  8
0
  6
Continuous
 62
     7
370
    15
100
AcDbSpline
210
0.0
220
0.0
230
1.0
 70
     8
 71
     3
 72
    12
 73
     8
 74
     0
 42
0.000000001
 43
0.00000001
 40
0.0
 40
0.0
 40
0.0
 40
0.0
 40
0.1869194332413252
 40
0.3735989659643653
 40
0.5601865524069501
 40
0.7798867273264897
 40
1.0
 40
1.0
 40
1.0
 40
1.0
 10
-6.595675680290521
 20
30.28109497727637
 30
0.0
 10
-6.597340931826757
 20
30.2468841585905
 30
0.0
 10
-6.600669297643083
 20
30.17850642886917
 30
0.0
 10
-6.634744208620922
 20
30.08022263785867
 30
0.0
 10
-6.698488431630036
 20
29.99122376350587
 30
0.0
 10
-6.791628938797419
 20
29.92029987479858
 30
0.0
 10
-6.868803314469289
 20
29.89645560924075
 30
0.0
 10
-6.907426745582279
 20
29.88452227851803
 30
0.0
  0
SPLINE
  5
8F
330
1F
100
AcDbEntity
  8
0
  6
Continuous
 62
     7
370
    15
100
AcDbSpline
210
0.0
220
0.0
230
1.0
 70
     8
 71
     3
 72
    12
 73
     8
 74
     0
 42
0.000000001
 43
0.00000001
 40
0.0
 40
0.0
 40
0.0
 40
0.0
 40
0.1867671819162751
 40
0.3734494725955646
 40
0.5601816758787816
 40
0.7799064432269501
 40
1.0
 40
1.0
 40
1.0
 40
1.0
 10
-6.89490507690033
 20
30.67672902021149
 30
0.0
 10
-6.862953196030339
 20
30.66650465054791
 30
0.0
 10
-6.79906395737018
 20
30.64606055850076
 30
0.0
 10
-6.716909045734057
 20
30.58610789549805
 30
0.0
 10
-6.647583624493617
 20
30.50486755384739
 30
0.0
 10
-6.602608467003603
 20
30.39940285951008
 30
0.0
 10
-6.597987900649341
 20
30.32055297666838
 30
0.0
 10
-6.59567568029053
 20
30.28109497727639
 30
0.0
  0
SPLINE
  5
90
330
1F
100
AcDbEntity
  8
0
  6
Continuous
 62
     7
370
    15
100
AcDbSpline
210
0.0
220
0.0
230
1.0
 70
     8
 71
     3
 72
     9
 73
     5
 74
     0
 42
0.000000001
 43
0.00000001
 40
0.0
 40
0.0
 40
0.0
 40
0.0
 40
0.5603095497226809
 40
1.0
 40
1.0
 40
1.0
 40
1.0
 10
-7.250787045721458
 20
30.70020010907146
 30
0.0
 10
-7.183989016861552
 20
30.70041408757708
 30
0.0
 10
-7.064772721346073
 20
30.70079598095323
 30
0.0
 10
-6.946783715853249
 20
30.68407922025158
 30
0.0
 10
-6.89490507690033
 20
30.67672902021149
 30
0.0
  0
LINE
  5
91
330
1F
100
AcDbEntity
  8
0
  6
Continuous
 62
     7
370
    15
100
AcDbLine
 10
-7.5572159325
 20
30.7002001091
 30
0.0
 11
-7.2507870457
 21
30.7002001091
 31
0.0
  0
LINE
  5
92
330
1F
100
AcDbEntity
  8
0
  6
Continuous
 62
     7
370
    15
100
AcDbLine
 10
-7.5572159325
 20
29.1377042392
 30
0.0
 11
-7.5572159325
 21
30.7002001091
 31
0.0
  0
SPLINE
  5
93
330
1F
100
AcDbEntity
  8
0
  6
Continuous
 62
     7
370
    15
100
AcDbSpline
210
0.0
220
0.0
230
1.0
 70
     8
 71
     3
 72
    14
 73
    10
 74
     0
 42
0.000000001
 43
0.00000001
 40
0.0
 40
0.0
 40
0.0
 40
0.0
 40
0.1399787682138186
 40
0.2799594243712544
 40
0.419939220312783
 40
0.559896934249544
 40
0.7065680602787618
 40
0.8532548803696605
 40
1.0
 40
1.0
 40
1.0
 40
1.0
 10
-11.04279230681976
 20
29.69922692573243
 30
0.0
 10
-11.03996589657854
 20
29.74492634623068
 30
0.0
 10
-11.03431303797529
 20
29.83632580359159
 30
0.0
 10
-10.98496435319262
 20
29.96580448911577
 30
0.0
 10
-10.91051418921433
 20
30.08150997587828
 30
0.0
 10
-10.80857351258409
 20
30.17796042979769
 30
0.0
 10
-10.68528078486439
 20
30.2485897275927
 30
0.0
 10
-10.54721997851825
 20
30.29245304532192
 30
0.0
 10
-10.45150818733998
 20
30.29719272161077
 30
0.0
 10
-10.40364278366293
 20
30.29956303059851
 30
0.0
  0
SPLINE
  5
94
330
1F
100
AcDbEntity
  8
0
  6
Continuous
 62
     7
370
    15
100
AcDbSpline
210
0.0
220
0.0
230
1.0
 70
     8
 71
     3
 72
    14
 73
    10
 74
     0
 42
0.000000001
 43
0.00000001
 40
0.0
 40
0.0
 40
0.0
 40
0.0
 40
0.1400911062691826
 40
0.2801214281401644
 40
0.4201189605314409
 40
0.5601763511660383
 40
0.7068057837902705
 40
0.8533532602699258
 40
1.0
 40
1.0
 40
1.0
 40
1.0
 10
-10.41522579652164
 20
29.11766863061014
 30
0.0
 10
-10.45979409983987
 20
29.11969534819616
 30
0.0
 10
-10.54891136864991
 20
29.1237479039918
 30
0.0
 10
-10.67852605291868
 20
29.16082552835997
 30
0.0
 10
-10.79676346624987
 20
29.22489939502243
 30
0.0
 10
-10.89929222563085
 20
29.31525258495164
 30
0.0
 10
-10.98129003235936
 20
29.42708647236186
 30
0.0
 10
-11.03402360440457
 20
29.559075876264
 30
0.0
 10
-11.03986874637483
 20
29.65249936615268
 30
0.0
 10
-11.04279230681976
 20
29.69922692573243
 30
0.0
  0
SPLINE
  5
95
330
1F
100
AcDbEntity
  8
0
  6
Continuous
 62
     7
370
    15
100
AcDbSpline
210
0.0
220
0.0
230
1.0
 70
     8
 71
     3
 72
    12
 73
     8
 74
     0
 42
0.000000001
 43
0.00000001
 40
0.0
 40
0.0
 40
0.0
 40
0.0
 40
0.1866195996538942
 40
0.3732521617653923
 40
0.5599482588533536
 40
0.7799098140082157
 40
1.0
 40
1.0
 40
1.0
 40
1.0
 10
-9.880933515378334
 20
29.3812150260997
 30
0.0
 10
-9.904051557489732
 20
29.35009034801043
 30
0.0
 10
-9.95028924747442
 20
29.28783882993508
 30
0.0
 10
-10.04288145988959
 20
29.21600369602109
 30
0.0
 10
-10.15226475193344
 20
29.15931817763249
 30
0.0
 10
-10.27842279795111
 20
29.12357887577472
 30
0.0
 10
-10.36961591149262
 20
29.1196390962086
 30
0.0
 10
-10.41522579652164
 20
29.11766863061014
 30
0.0
  0
LINE
  5
96
330
1F
100
AcDbEntity
  8
0
  6
Continuous
 62
     7
370
    15
100
AcDbLine
 10
-9.9983077328
 20
29.4582129633
 30
0.0
 11
-9.8809335154
 21
29.3812150261
 31
0.0
  0
SPLINE
  5
97
330
1F
100
AcDbEntity
  8
0
  6
Continuous
 62
     7
370
    15
100
AcDbSpline
210
0.0
220
0.0
230
1.0
 70
     8
 71
     3
 72
    11
 73
     7
 74
     0
 42
0.000000001
 43
0.00000001
 40
0.0
 40
0.0
 40
0.0
 40
0.0
 40
0.2799472092610369
 40
0.5597156271333307
 40
0.7798453331899776
 40
1.0
 40
1.0
 40
1.0
 40
1.0
 10
-10.41303403517439
 20
29.25789442404315
 30
0.0
 10
-10.36840667530827
 20
29.26058727048098
 30
0.0
 10
-10.27918045733416
 20
29.26597124354042
 30
0.0
 10
-10.16224289017313
 20
29.31296187353814
 30
0.0
 10
-10.06790515726343
 20
29.37927254014156
 30
0.0
 10
-10.02150775107685
 20
29.43189849440402
 30
0.0
 10
-9.998307732794693
 20
29.45821296327962
 30
0.0
  0
SPLINE
  5
98
330
1F
100
AcDbEntity
  8
0
  6
Continuous
 62
     7
370
    15
100
AcDbSpline
210
0.0
220
0.0
230
1.0
 70
     8
 71
     3
 72
    13
 73
     9
 74
     0
 42
0.000000001
 43
0.00000001
 40
0.0
 40
0.0
 40
0.0
 40
0.0
 40
0.1864650814077745
 40
0.3729827576358395
 40
0.5594760044232329
 40
0.7062812760383421
 40
0.8531127603207888
 40
1.0
 40
1.0
 40
1.0
 40
1.0
 10
-10.90256651338676
 20
29.71174390113526
 30
0.0
 10
-10.89828809014915
 20
29.66540352897089
 30
0.0
 10
-10.88973003689083
 20
29.57270971375763
 30
0.0
 10
-10.82314382599647
 20
29.44759235380274
 30
0.0
 10
-10.73222285561066
 20
29.35405227668421
 30
0.0
 10
-10.62745505590986
 20
29.29584069032822
 30
0.0
 10
-10.52231423013624
 20
29.26305323797778
 30
0.0
 10
-10.44946537635941
 20
29.25961424629116
 30
0.0
 10
-10.41303403517439
 20
29.25789442404315
 30
0.0
  0
SPLINE
  5
99
330
1F
100
AcDbEntity
  8
0
  6
Continuous
 62
     7
370
    15
100
AcDbSpline
210
0.0
220
0.0
230
1.0
 70
     8
 71
     3
 72
    13
 73
     9
 74
     0
 42
0.000000001
 43
0.00000001
 40
0.0
 40
0.0
 40
0.0
 40
0.0
 40
0.1867536167046083
 40
0.3732657832805745
 40
0.5598290166498028
 40
0.7065821642465505
 40
0.8532352456607244
 40
1.0
 40
1.0
 40
1.0
 40
1.0
 10
-10.41397269099762
 20
30.15933723716551
 30
0.0
 10
-10.46002394704621
 20
30.15661463167372
 30
0.0
 10
-10.55206692036771
 20
30.15117294069401
 30
0.0
 10
-10.68186070369574
 20
30.09811318234488
 30
0.0
 10
-10.78284720843026
 20
30.01729021758538
 30
0.0
 10
-10.85425517924314
 20
29.92225481522324
 30
0.0
 10
-10.89572237474786
 20
29.82025417716609
 30
0.0
 10
-10.90028455506172
 20
29.74792316938301
 30
0.0
 10
-10.90256651338676
 20
29.71174390113526
 30
0.0
  0
SPLINE
  5
9A
330
1F
100
AcDbEntity
  8
0
  6
Continuous
 62
     7
370
    15
100
AcDbSpline
210
0.0
220
0.0
230
1.0
 70
     8
 71
     3
 72
    11
 73
     7
 74
     0
 42
0.000000001
 43
0.00000001
 40
0.0
 40
0.0
 40
0.0
 40
0.0
 40
0.2799191176866144
 40
0.5596085703430652
 40
0.7797801890926055
 40
1.0
 40
1.0
 40
1.0
 40
1.0
 10
-9.998307732794693
 20
29.95901400464992
 30
0.0
 10
-10.02777828059134
 20
29.99290935043877
 30
0.0
 10
-10.08669519650622
 20
30.06067223192731
 30
0.0
 10
-10.19707526395492
 20
30.12296429435409
 30
0.0
 10
-10.3083850260443
 20
30.1547450334282
 30
0.0
 10
-10.37877423510955
 20
30.15780639091802
 30
0.0
 10
-10.41397269099763
 20
30.15933723716552
 30
0.0
  0
LINE
  5
9B
330
1F
100
AcDbEntity
  8
0
  6
Continuous
 62
     7
370
    15
100
AcDbLine
 10
-9.8809335154
 20
30.0319475621
 30
0.0
 11
-9.9983077328
 21
29.9590140046
 31
0.0
  0
SPLINE
  5
9C
330
1F
100
AcDbEntity
  8
0
  6
Continuous
 62
     7
370
    15
100
AcDbSpline
210
0.0
220
0.0
230
1.0
 70
     8
 71
     3
 72
    11
 73
     7
 74
     0
 42
0.000000001
 43
0.00000001
 40
0.0
 40
0.0
 40
0.0
 40
0.0
 40
0.2800633394457558
 40
0.5601257462705809
 40
0.7800628883999607
 40
1.0
 40
1.0
 40
1.0
 40
1.0
 10
-10.40364278366293
 20
30.29956303059851
 30
0.0
 10
-10.34626720178593
 20
30.29558094290882
 30
0.0
 10
-10.23151622909468
 20
30.28761678078992
 30
0.0
 10
-10.08130660623877
 20
30.22835167535736
 30
0.0
 10
-9.957951893400255
 20
30.14389508228684
 30
0.0
 10
-9.906606306864425
 20
30.06926340044584
 30
0.0
 10
-9.880933515378334
 20
30.03194756211524
 30
0.0
  0
SPLINE
  5
9D
330
1F
100
AcDbEntity
  8
0
  6
Continuous
 62
     7
370
    15
100
AcDbSpline
210
0.0
220
0.0
230
1.0
 70
     8
 71
     3
 72
    12
 73
     8
 74
     0
 42
0.000000001
 43
0.00000001
 40
0.0
 40
0.0
 40
0.0
 40
0.0
 40
0.1874880770339719
 40
0.3747460162444194
 40
0.5607144452371546
 40
0.7799239553955091
 40
1.0
 40
1.0
 40
1.0
 40
1.0
 10
-13.08606299611574
 20
30.46200680736748
 30
0.0
 10
-13.08551692185189
 20
30.48903164549378
 30
0.0
 10
-13.08442544361934
 20
30.54304814930404
 30
0.0
 10
-13.07513494936227
 20
30.62438668593282
 30
0.0
 10
-13.03226186703481
 20
30.70158929593385
 30
0.0
 10
-12.95221773662884
 20
30.75288258900456
 30
0.0
 10
-12.88832632081421
 20
30.75782264685241
 30
0.0
 10
-12.85631759682086
 20
30.76029754815405
 30
0.0
  0
LINE
  5
9E
330
1F
100
AcDbEntity
  8
0
  6
Continuous
 62
     7
370
    15
100
AcDbLine
 10
-13.0860629961
 20
30.2795274221
 30
0.0
 11
-13.0860629961
 21
30.4620068074
 31
0.0
  0
LINE
  5
9F
330
1F
100
AcDbEntity
  8
0
  6
Continuous
 62
     7
370
    15
100
AcDbLine
 10
-13.2463197048
 20
30.2795274221
 30
0.0
 11
-13.0860629961
 21
30.2795274221
 31
0.0
  0
LINE
  5
A0
330
1F
100
AcDbEntity
  8
0
  6
Continuous
 62
     7
370
    15
100
AcDbLine
 10
-13.2463197048
 20
30.1393063219
 30
0.0
 11
-13.2463197048
 21
30.2795274221
 31
0.0
  0
LINE
  5
A1
330
1F
100
AcDbEntity
  8
0
  6
Continuous
 62
     7
370
    15
100
AcDbLine
 10
-13.0860629961
 20
30.1393063219
 30
0.0
 11
-13.2463197048
 21
30.1393063219
 31
0.0
  0
LINE
  5
A2
330
1F
100
AcDbEntity
  8
0
  6
Continuous
 62
     7
370
    15
100
AcDbLine
 10
-13.0860629961
 20
29.1377042392
 30
0.0
 11
-13.0860629961
 21
30.1393063219
 31
0.0
  0
LINE
  5
A3
330
1F
100
AcDbEntity
  8
0
  6
Continuous
 62
     7
370
    15
100
AcDbLine
 10
-12.9458372027
 20
29.1377042392
 30
0.0
 11
-13.0860629961
 21
29.1377042392
 31
0.0
  0
LINE
  5
A4
330
1F
100
AcDbEntity
  8
0
  6
Continuous
 62
     7
370
    15
100
AcDbLine
 10
-12.9452129966
 20
30.1393063219
 30
0.0
 11
-12.9458372027
 21
29.1377042392
 31
0.0
  0
LINE
  5
A5
330
1F
100
AcDbEntity
  8
0
  6
Continuous
 62
     7
370
    15
100
AcDbLine
 10
-12.7054521396
 20
30.1393063219
 30
0.0
 11
-12.9452129966
 21
30.1393063219
 31
0.0
  0
LINE
  5
A6
330
1F
100
AcDbEntity
  8
0
  6
Continuous
 62
     7
370
    15
100
AcDbLine
 10
-12.7054521396
 20
30.2795274221
 30
0.0
 11
-12.7054521396
 21
30.1393063219
 31
0.0
  0
LINE
  5
A7
330
1F
100
AcDbEntity
  8
0
  6
Continuous
 62
     7
370
    15
100
AcDbLine
 10
-12.9448985469
 20
30.2795274221
 30
0.0
 11
-12.7054521396
 21
30.2795274221
 31
0.0
  0
LINE
  5
A8
330
1F
100
AcDbEntity
  8
0
  6
Continuous
 62
     7
370
    15
100
AcDbLine
 10
-12.9448985469
 20
30.4379068191
 30
0.0
 11
-12.9448985469
 21
30.2795274221
 31
0.0
  0
SPLINE
  5
A9
330
1F
100
AcDbEntity
  8
0
  6
Continuous
 62
     7
370
    15
100
AcDbSpline
210
0.0
220
0.0
230
1.0
 70
     8
 71
     3
 72
    12
 73
     8
 74
     0
 42
0.000000001
 43
0.00000001
 40
0.0
 40
0.0
 40
0.0
 40
0.0
 40
0.2492885600280585
 40
0.3745174896229328
 40
0.4988648334546296
 40
0.748960230210932
 40
1.0
 40
1.0
 40
1.0
 40
1.0
 10
-12.82752432944314
 20
30.62007175472105
 30
0.0
 10
-12.84909998650879
 20
30.61823297072313
 30
0.0
 10
-12.88151407290041
 20
30.61547048227688
 30
0.0
 10
-12.91779872432158
 20
30.591943295704
 30
0.0
 10
-12.9451668521048
 20
30.55741338836775
 30
0.0
 10
-12.94333789764412
 20
30.50111654516782
 30
0.0
 10
-12.94437767731065
 20
30.45900318155101
 30
0.0
 10
-12.9448985468595
 20
30.43790681910593
 30
0.0
  0
SPLINE
  5
AA
330
1F
100
AcDbEntity
  8
0
  6
Continuous
 62
     7
370
    15
100
AcDbSpline
210
0.0
220
0.0
230
1.0
 70
     8
 71
     3
 72
     9
 73
     5
 74
     0
 42
0.000000001
 43
0.00000001
 40
0.0
 40
0.0
 40
0.0
 40
0.0
 40
0.5602521779882662
 40
1.0
 40
1.0
 40
1.0
 40
1.0
 10
-12.68542122436367
 20
30.58501765300236
 30
0.0
 10
-12.71107729402601
 20
30.59532990736833
 30
0.0
 10
-12.75687108237763
 20
30.61373635855426
 30
0.0
 10
-12.80594443118589
 20
30.61813670983101
 30
0.0
 10
-12.82752432944315
 20
30.62007175472106
 30
0.0
  0
LINE
  5
AB
330
1F
100
AcDbEntity
  8
0
  6
Continuous
 62
     7
370
    15
100
AcDbLine
 10
-12.6854212244
 20
30.7308753814
 30
0.0
 11
-12.6854212244
 21
30.585017653
 31
0.0
  0
SPLINE
  5
AC
330
1F
100
AcDbEntity
  8
0
  6
Continuous
 62
     7
370
    15
100
AcDbSpline
210
0.0
220
0.0
230
1.0
 70
     8
 71
     3
 72
     9
 73
     5
 74
     0
 42
0.000000001
 43
0.00000001
 40
0.0
 40
0.0
 40
0.0
 40
0.0
 40
0.5597069966269674
 40
1.0
 40
1.0
 40
1.0
 40
1.0
 10
-12.85631759682086
 20
30.76029754815405
 30
0.0
 10
-12.82385946762211
 20
30.75798579420792
 30
0.0
 10
-12.76586818040514
 20
30.75385550110802
 30
0.0
 10
-12.71001360369535
 20
30.73790033109785
 30
0.0
 10
-12.68542122436367
 20
30.73087538137477
 30
0.0
  0
SPLINE
  5
AD
330
1F
100
AcDbEntity
  8
0
  6
Continuous
 62
     7
370
    15
100
AcDbSpline
210
0.0
220
0.0
230
1.0
 70
     8
 71
     3
 72
    13
 73
     9
 74
     0
 42
0.000000001
 43
0.00000001
 40
0.0
 40
0.0
 40
0.0
 40
0.0
 40
0.1867174327944095
 40
0.3732431136129941
 40
0.5597750635541402
 40
0.7064886191068297
 40
0.8531846272535686
 40
1.0
 40
1.0
 40
1.0
 40
1.0
 10
-15.10929807686477
 20
29.67856711106304
 30
0.0
 10
-15.10597189895894
 20
29.63746964493712
 30
0.0
 10
-15.09932295901037
 20
29.55531691828021
 30
0.0
 10
-15.04761550376672
 20
29.44088268088762
 30
0.0
 10
-14.97055917275146
 20
29.35464435034099
 30
0.0
 10
-14.88225582608954
 20
29.2955111179092
 30
0.0
 10
-14.78956433045281
 20
29.2633921929784
 30
0.0
 10
-14.72499317193162
 20
29.25972751047006
 30
0.0
 10
-14.6926944628386
 20
29.25789442404315
 30
0.0
  0
LINE
  5
AE
330
1F
100
AcDbEntity
  8
0
  6
Continuous
 62
     7
370
    15
100
AcDbLine
 10
-14.0876650789
 20
29.6785671111
 30
0.0
 11
-15.1092980769
 21
29.6785671111
 31
0.0
  0
SPLINE
  5
AF
330
1F
100
AcDbEntity
  8
0
  6
Continuous
 62
     7
370
    15
100
AcDbSpline
210
0.0
220
0.0
230
1.0
 70
     8
 71
     3
 72
    11
 73
     7
 74
     0
 42
0.000000001
 43
0.00000001
 40
0.0
 40
0.0
 40
0.0
 40
0.0
 40
0.2798354689175025
 40
0.559743847196435
 40
0.7798350058174195
 40
1.0
 40
1.0
 40
1.0
 40
1.0
 10
-14.21192433673612
 20
30.0748253601206
 30
0.0
 10
-14.18976407517615
 20
30.04205939770905
 30
0.0
 10
-14.14543777834023
 20
29.97651893592171
 30
0.0
 10
-14.11005590912243
 20
29.8714311687439
 30
0.0
 10
-14.09097975586444
 20
29.77162002211274
 30
0.0
 10
-14.08877009472014
 20
29.70958821587384
 30
0.0
 10
-14.08766507885634
 20
29.67856711106304
 30
0.0
  0
SPLINE
  5
B0
330
1F
100
AcDbEntity
  8
0
  6
Continuous
 62
     7
370
    15
100
AcDbSpline
210
0.0
220
0.0
230
1.0
 70
     8
 71
     3
 72
    11
 73
     7
 74
     0
 42
0.000000001
 43
0.00000001
 40
0.0
 40
0.0
 40
0.0
 40
0.0
 40
0.2799817119995763
 40
0.5597276317616575
 40
0.7798344766580557
 40
1.0
 40
1.0
 40
1.0
 40
1.0
 10
-14.67172489174755
 20
30.29956303059852
 30
0.0
 10
-14.62203407978393
 20
30.29664443976976
 30
0.0
 10
-14.5226943039747
 20
30.29080971606226
 30
0.0
 10
-14.39218147636579
 20
30.23910563709861
 30
0.0
 10
-14.28763425066386
 20
30.16430547368387
 30
0.0
 10
-14.2371632169315
 20
30.10465471467841
 30
0.0
 10
-14.21192433673612
 20
30.0748253601206
 30
0.0
  0
SPLINE
  5
B1
330
1F
100
AcDbEntity
  8
0
  6
Continuous
 62
     7
370
    15
100
AcDbSpline
210
0.0
220
0.0
230
1.0
 70
     8
 71
     3
 72
    11
 73
     7
 74
     0
 42
0.000000001
 43
0.00000001
 40
0.0
 40
0.0
 40
0.0
 40
0.0
 40
0.279942244058097
 40
0.5596462239144825
 40
0.779772743949512
 40
1.0
 40
1.0
 40
1.0
 40
1.0
 10
-15.11806512225378
 20
30.08671812940097
 30
0.0
 10
-15.08615087384555
 20
30.12269422916883
 30
0.0
 10
-15.02234953985676
 20
30.1946158087575
 30
0.0
 10
-14.90373689847059
 20
30.26018844608082
 30
0.0
 10
-14.78479382712354
 20
30.29485401298778
 30
0.0
 10
-14.70942028439588
 20
30.2979931186927
 30
0.0
 10
-14.67172489174755
 20
30.29956303059852
 30
0.0
  0
SPLINE
  5
B2
330
1F
100
AcDbEntity
  8
0
  6
Continuous
 62
     7
370
    15
100
AcDbSpline
210
0.0
220
0.0
230
1.0
 70
     8
 71
     3
 72
    11
 73
     7
 74
     0
 42
0.000000001
 43
0.00000001
 40
0.0
 40
0.0
 40
0.0
 40
0.0
 40
0.2799754200231198
 40
0.5598731246840052
 40
0.7799179072544287
 40
0.9999999999999999
 40
0.9999999999999999
 40
0.9999999999999999
 40
0.9999999999999999
 10
-15.24952387029777
 20
29.7054877600734
 30
0.0
 10
-15.24772311488731
 20
29.74388862105806
 30
0.0
 10
-15.24412210391869
 20
29.82067968374584
 30
0.0
 10
-15.21366919285244
 20
29.92398391572749
 30
0.0
 10
-15.17126893404177
 20
30.0134396286174
 30
0.0
 10
-15.13580072841302
 20
30.06229058208506
 30
0.0
 10
-15.11806512225378
 20
30.08671812940097
 30
0.0
  0
SPLINE
  5
B3
330
1F
100
AcDbEntity
  8
0
  6
Continuous
 62
     7
370
    15
100
AcDbSpline
210
0.0
220
0.0
230
1.0
 70
     8
 71
     3
 72
    14
 73
    10
 74
     0
 42
0.000000001
 43
0.00000001
 40
0.0
 40
0.0
 40
0.0
 40
0.0
 40
0.1400869884622348
 40
0.2800575655945235
 40
0.4199764581027104
 40
0.5599507153100275
 40
0.7066249858054524
 40
0.8532991395636684
 40
1.0
 40
1.0
 40
1.0
 40
1.0
 10
-14.67516506533969
 20
29.11766863061014
 30
0.0
 10
-14.71809568892349
 20
29.11962731045985
 30
0.0
 10
-14.8039212610363
 20
29.12354304250967
 30
0.0
 10
-14.92813187689861
 20
29.16212871257104
 30
0.0
 10
-15.03851339591629
 20
29.23079349530892
 30
0.0
 10
-15.12705079267757
 20
29.32835657487675
 30
0.0
 10
-15.19624368649341
 20
29.44204683144011
 30
0.0
 10
-15.24196634387026
 20
29.57052717307195
 30
0.0
 10
-15.24700454194192
 20
29.66049816764298
 30
0.0
 10
-15.24952387029777
 20
29.7054877600734
 30
0.0
  0
SPLINE
  5
B4
330
1F
100
AcDbEntity
  8
0
  6
Continuous
 62
     7
370
    15
100
AcDbSpline
210
0.0
220
0.0
230
1.0
 70
     8
 71
     3
 72
    12
 73
     8
 74
     0
 42
0.000000001
 43
0.00000001
 40
0.0
 40
0.0
 40
0.0
 40
0.0
 40
0.1868278959479467
 40
0.373456342969165
 40
0.5601317390317695
 40
0.7799395075515242
 40
1.0
 40
1.0
 40
1.0
 40
1.0
 10
-14.14776251793893
 20
29.43285986949406
 30
0.0
 10
-14.16828929885016
 20
29.39800166787124
 30
0.0
 10
-14.20932094721909
 20
29.32832247764919
 30
0.0
 10
-14.29446218378584
 20
29.24045847058363
 30
0.0
 10
-14.40267016945237
 20
29.17040927979345
 30
0.0
 10
-14.53219352754866
 20
29.12439205189868
 30
0.0
 10
-14.627489635455
 20
29.11991062929869
 30
0.0
 10
-14.67516506533969
 20
29.11766863061014
 30
0.0
  0
LINE
  5
B5
330
1F
100
AcDbEntity
  8
0
  6
Continuous
 62
     7
370
    15
100
AcDbLine
 10
-14.2723362255
 20
29.4982794871
 30
0.0
 11
-14.1477625179
 21
29.4328598695
 31
0.0
  0
SPLINE
  5
B6
330
1F
100
AcDbEntity
  8
0
  6
Continuous
 62
     7
370
    15
100
AcDbSpline
210
0.0
220
0.0
230
1.0
 70
     8
 71
     3
 72
    11
 73
     7
 74
     0
 42
0.000000001
 43
0.00000001
 40
0.0
 40
0.0
 40
0.0
 40
0.0
 40
0.279900687314385
 40
0.5596973910147531
 40
0.7795379539634857
 40
1.0
 40
1.0
 40
1.0
 40
1.0
 10
-14.6926944628386
 20
29.25789442404315
 30
0.0
 10
-14.64537846036647
 20
29.26183396511989
 30
0.0
 10
-14.55076403340313
 20
29.26971158372675
 30
0.0
 10
-14.42703554296423
 20
29.32349086725882
 30
0.0
 10
-14.33579352318256
 20
29.40617078403966
 30
0.0
 10
-14.29350855302284
 20
29.46754770842116
 30
0.0
 10
-14.27233622551949
 20
29.49827948709439
 30
0.0
  0
LINE
  5
B7
330
1F
100
AcDbEntity
  8
0
  6
Continuous
 62
     7
370
    15
100
AcDbLine
 10
-17.1125022423
 20
29.1377042392
 30
0.0
 11
-17.2527280358
 21
29.1377042392
 31
0.0
  0
LINE
  5
B8
330
1F
100
AcDbEntity
  8
0
  6
Continuous
 62
     7
370
    15
100
AcDbLine
 10
-17.1125022423
 20
29.5505485366
 30
0.0
 11
-17.1125022423
 21
29.1377042392
 31
0.0
  0
SPLINE
  5
B9
330
1F
100
AcDbEntity
  8
0
  6
Continuous
 62
     7
370
    15
100
AcDbSpline
210
0.0
220
0.0
230
1.0
 70
     8
 71
     3
 72
    10
 73
     6
 74
     0
 42
0.000000001
 43
0.00000001
 40
0.0
 40
0.0
 40
0.0
 40
0.0
 40
0.2798576563643461
 40
0.5599072714873067
 40
1.0
 40
1.0
 40
1.0
 40
1.0
 10
-17.09090846513246
 20
29.85697742338522
 30
0.0
 10
-17.0960001653327
 20
29.82869869271118
 30
0.0
 10
-17.1061870582102
 20
29.77212183453792
 30
0.0
 10
-17.11113880769756
 20
29.66950147809872
 30
0.0
 10
-17.11198507329205
 20
29.59566898318321
 30
0.0
 10
-17.11250224234598
 20
29.5505485366112
 30
0.0
  0
SPLINE
  5
BA
330
1F
100
AcDbEntity
  8
0
  6
Continuous
 62
     7
370
    15
100
AcDbSpline
210
0.0
220
0.0
230
1.0
 70
     8
 71
     3
 72
    12
 73
     8
 74
     0
 42
0.000000001
 43
0.00000001
 40
0.0
 40
0.0
 40
0.0
 40
0.0
 40
0.1866981157173369
 40
0.37340318553296
 40
0.5602083436055109
 40
0.7801194706813638
 40
1.0
 40
1.0
 40
1.0
 40
1.0
 10
-16.70247391236157
 20
30.15933723716551
 30
0.0
 10
-16.73538894138657
 20
30.15714138094718
 30
0.0
 10
-16.80122022544969
 20
30.15274958671962
 30
0.0
 10
-16.89382610657111
 20
30.11423790417478
 30
0.0
 10
-16.97774699789179
 20
30.0517142667491
 30
0.0
 10
-17.05172206158588
 20
29.96705254430113
 30
0.0
 10
-17.07784693648152
 20
29.89366742847561
 30
0.0
 10
-17.09090846513247
 20
29.85697742338522
 30
0.0
  0
SPLINE
  5
BB
330
1F
100
AcDbEntity
  8
0
  6
Continuous
 62
     7
370
    15
100
AcDbSpline
210
0.0
220
0.0
230
1.0
 70
     8
 71
     3
 72
     9
 73
     5
 74
     0
 42
0.000000001
 43
0.00000001
 40
0.0
 40
0.0
 40
0.0
 40
0.0
 40
0.5602556253302108
 40
1.0
 40
1.0
 40
1.0
 40
1.0
 10
-16.39135174647137
 20
29.6748124877701
 30
0.0
 10
-16.39104835400809
 20
29.72356626322779
 30
0.0
 10
-16.39050682894425
 20
29.81058685392508
 30
0.0
 10
-16.40261381559434
 20
29.89672534366223
 30
0.0
 10
-16.40793779486793
 20
29.93460425996671
 30
0.0
  0
LINE
  5
BC
330
1F
100
AcDbEntity
  8
0
  6
Continuous
 62
     7
370
    15
100
AcDbLine
 10
-16.3913517465
 20
29.1377042392
 30
0.0
 11
-16.3913517465
 21
29.6748124878
 31
0.0
  0
LINE
  5
BD
330
1F
100
AcDbEntity
  8
0
  6
Continuous
 62
     7
370
    15
100
AcDbLine
 10
-16.251125953
 20
29.1377042392
 30
0.0
 11
-16.3913517465
 21
29.1377042392
 31
0.0
  0
LINE
  5
BE
330
1F
100
AcDbEntity
  8
0
  6
Continuous
 62
     7
370
    15
100
AcDbLine
 10
-16.251125953
 20
29.7208207029
 30
0.0
 11
-16.251125953
 21
29.1377042392
 31
0.0
  0
SPLINE
  5
BF
330
1F
100
AcDbEntity
  8
0
  6
Continuous
 62
     7
370
    15
100
AcDbSpline
210
0.0
220
0.0
230
1.0
 70
     8
 71
     3
 72
    14
 73
    10
 74
     0
 42
0.000000001
 43
0.00000001
 40
0.0
 40
0.0
 40
0.0
 40
0.0
 40
0.1400136386809604
 40
0.2799292732054297
 40
0.4198426811714435
 40
0.5597114599629917
 40
0.7062457651553263
 40
0.853095730526664
 40
1.0
 40
1.0
 40
1.0
 40
1.0
 10
-16.67805947439923
 20
30.29956303059851
 30
0.0
 10
-16.6396731129216
 20
30.29723764628145
 30
0.0
 10
-16.56292725894145
 20
30.29258850532679
 30
0.0
 10
-16.455785730185
 20
30.24606730906297
 30
0.0
 10
-16.36521251394426
 20
30.17392374020354
 30
0.0
 10
-16.29882051972435
 20
30.07578309297588
 30
0.0
 10
-16.2661626041555
 20
29.96077417275507
 30
0.0
 10
-16.25330455435528
 20
29.84110547866005
 30
0.0
 10
-16.2518522429699
 20
29.76092056924124
 30
0.0
 10
-16.25112595303837
 20
29.72082070294594
 30
0.0
  0
SPLINE
  5
C0
330
1F
100
AcDbEntity
  8
0
  6
Continuous
 62
     7
370
    15
100
AcDbSpline
210
0.0
220
0.0
230
1.0
 70
     8
 71
     3
 72
    11
 73
     7
 74
     0
 42
0.000000001
 43
0.00000001
 40
0.0
 40
0.0
 40
0.0
 40
0.0
 40
0.2800976108805997
 40
0.5597809987331149
 40
0.7798643474783525
 40
1.0
 40
1.0
 40
1.0
 40
1.0
 10
-17.11250224234598
 20
30.07357225459658
 30
0.0
 10
-17.08200579320392
 20
30.11024312614218
 30
0.0
 10
-17.02105799466723
 20
30.18353063842647
 30
0.0
 10
-16.90720424989026
 20
30.25490829730102
 30
0.0
 10
-16.79020866926609
 20
30.29354106410386
 30
0.0
 10
-16.71544550030238
 20
30.29755554944252
 30
0.0
 10
-16.67805947439924
 20
30.29956303059852
 30
0.0
  0
LINE
  5
C1
330
1F
100
AcDbEntity
  8
0
  6
Continuous
 62
     7
370
    15
100
AcDbLine
 10
-17.1125022423
 20
30.2795274221
 30
0.0
 11
-17.1125022423
 21
30.0735722546
 31
0.0
  0
LINE
  5
C2
330
1F
100
AcDbEntity
  8
0
  6
Continuous
 62
     7
370
    15
100
AcDbLine
 10
-17.2527280358
 20
30.2795274221
 30
0.0
 11
-17.1125022423
 21
30.2795274221
 31
0.0
  0
LINE
  5
C3
330
1F
100
AcDbEntity
  8
0
  6
Continuous
 62
     7
370
    15
100
AcDbLine
 10
-17.2527280358
 20
29.1377042392
 30
0.0
 11
-17.2527280358
 21
30.2795274221
 31
0.0
  0
SPLINE
  5
C4
330
1F
100
AcDbEntity
  8
0
  6
Continuous
 62
     7
370
    15
100
AcDbSpline
210
0.0
220
0.0
230
1.0
 70
     8
 71
     3
 72
    10
 73
     6
 74
     0
 42
0.000000001
 43
0.00000001
 40
0.0
 40
0.0
 40
0.0
 40
0.0
 40
0.2797512237806245
 40
0.5597267076438004
 40
1.0
 40
1.0
 40
1.0
 40
1.0
 10
-19.6165121424766
 20
29.57340011262784
 30
0.0
 10
-19.61254552734898
 20
29.6193929966672
 30
0.0
 10
-19.60460911729202
 20
29.7114156345327
 30
0.0
 10
-19.5439236567084
 20
29.86608095101058
 30
0.0
 10
-19.48057821914071
 20
29.96610620510839
 30
0.0
 10
-19.44185645344735
 20
30.02724958971995
 30
0.0
  0
SPLINE
  5
C5
330
1F
100
AcDbEntity
  8
0
  6
Continuous
 62
     7
370
    15
100
AcDbSpline
210
0.0
220
0.0
230
1.0
 70
     8
 71
     3
 72
    13
 73
     9
 74
     0
 42
0.000000001
 43
0.00000001
 40
0.0
 40
0.0
 40
0.0
 40
0.0
 40
0.1865709850303299
 40
0.3731292636329779
 40
0.5596036544225577
 40
0.7063710434273748
 40
0.8531778951756503
 40
0.9999999999999999
 40
0.9999999999999999
 40
0.9999999999999999
 40
0.9999999999999999
 10
-19.14325126296
 20
29.09763771534232
 30
0.0
 10
-19.18980582993109
 20
29.10128647072044
 30
0.0
 10
-19.2829117932718
 20
29.10858373297797
 30
0.0
 10
-19.41119586991217
 20
29.1695187415512
 30
0.0
 10
-19.50906530906171
 20
29.25692962751881
 30
0.0
 10
-19.57139896397949
 20
29.35971904297501
 30
0.0
 10
-19.60989015336049
 20
29.46359458804292
 30
0.0
 10
-19.61430473633012
 20
29.53679700355651
 30
0.0
 10
-19.6165121424766
 20
29.57340011262784
 30
0.0
  0
SPLINE
  5
C6
330
1F
100
AcDbEntity
  8
0
  6
Continuous
 62
     7
370
    15
100
AcDbSpline
210
0.0
220
0.0
230
1.0
 70
     8
 71
     3
 72
    19
 73
    15
 74
     0
 42
0.000000001
 43
0.00000001
 40
0.0
 40
0.0
 40
0.0
 40
0.0
 40
0.0859479431441264
 40
0.1691252118806894
 40
0.2503991071860554
 40
0.332289736138835
 40
0.4133642879158808
 40
0.4941722833711942
 40
0.5760217353866409
 40
0.6607569692540133
 40
0.7457831259137464
 40
0.8300435929752211
 40
0.9140275458206846
 40
0.9999973337189645
 40
0.9999973337189645
 40
0.9999973337189645
 40
0.9999973337189645
 10
-18.65497205669675
 20
29.57621614090437
 30
0.0
 10
-18.65560737137721
 20
29.55435020164239
 30
0.0
 10
-18.65685752031634
 20
29.51132320791375
 30
0.0
 10
-18.66931457211126
 20
29.44865503541174
 30
0.0
 10
-18.68867155637703
 20
29.38895301954876
 30
0.0
 10
-18.71634009584272
 20
29.33317035375931
 30
0.0
 10
-18.75070723110332
 20
29.28138349234051
 30
0.0
 10
-18.79261687068715
 20
29.23549712384868
 30
0.0
 10
-18.84058271369345
 20
29.19457300004625
 30
0.0
 10
-18.89481789145238
 20
29.16035129504271
 30
0.0
 10
-18.95318528614716
 20
29.13240350441214
 30
0.0
 10
-19.01450314213571
 20
29.11232973562516
 30
0.0
 10
-19.07817530750855
 20
29.09997117355339
 30
0.0
 10
-19.12139096224602
 20
29.09842171635699
 30
0.0
 10
-19.14325127275903
 20
29.09763798866408
 30
0.0
  0
SPLINE
  5
C7
330
1F
100
AcDbEntity
  8
0
  6
Continuous
 62
     7
370
    15
100
AcDbSpline
210
0.0
220
0.0
230
1.0
 70
     8
 71
     3
 72
    13
 73
     9
 74
     0
 42
0.000000001
 43
0.00000001
 40
0.0
 40
0.0
 40
0.0
 40
0.0
 40
0.1866172611002279
 40
0.3731017623804251
 40
0.5597233170047416
 40
0.7064460623025661
 40
0.8531877008036546
 40
1.0
 40
1.0
 40
1.0
 40
1.0
 10
-19.11852706857601
 20
30.03914235900034
 30
0.0
 10
-19.07299785009024
 20
30.03593278287789
 30
0.0
 10
-18.98197180267806
 20
30.02951591393061
 30
0.0
 10
-18.85669583505997
 20
29.96913593168923
 30
0.0
 10
-18.76217910699001
 20
29.88340780023103
 30
0.0
 10
-18.69690746406958
 20
29.78569722743941
 30
0.0
 10
-18.66096921153043
 20
29.6833539179819
 30
0.0
 10
-18.65697131813251
 20
29.6119344231333
 30
0.0
 10
-18.65497189027164
 20
29.57621608009755
 30
0.0
  0
SPLINE
  5
C8
330
1F
100
AcDbEntity
  8
0
  6
Continuous
 62
     7
370
    15
100
AcDbSpline
210
0.0
220
0.0
230
1.0
 70
     8
 71
     3
 72
     9
 73
     5
 74
     0
 42
0.000000001
 43
0.00000001
 40
0.0
 40
0.0
 40
0.0
 40
0.0
 40
0.559916509409291
 40
1.0
 40
1.0
 40
1.0
 40
1.0
 10
-19.28034663922251
 20
30.02411917254947
 30
0.0
 10
-19.25031212386128
 20
30.02883437923467
 30
0.0
 10
-19.19667106335227
 20
30.03725564670219
 30
0.0
 10
-19.14240754648894
 20
30.03856578761448
 30
0.0
 10
-19.118527068576
 20
30.03914235900034
 30
0.0
  0
LINE
  5
C9
330
1F
100
AcDbEntity
  8
0
  6
Continuous
 62
     7
370
    15
100
AcDbLine
 10
-18.8674976485
 20
30.6554449994
 30
0.0
 11
-19.2803466392
 21
30.0241191725
 31
0.0
  0
LINE
  5
CA
330
1F
100
AcDbEntity
  8
0
  6
Continuous
 62
     7
370
    15
100
AcDbLine
 10
-18.9754853077
 20
30.7402666329
 30
0.0
 11
-18.8674976485
 21
30.6554449994
 31
0.0
  0
LINE
  5
CB
330
1F
100
AcDbEntity
  8
0
  6
Continuous
 62
     7
370
    15
100
AcDbLine
 10
-19.4418564534
 20
30.0272495897
 30
0.0
 11
-18.9754853077
 21
30.7402666329
 31
0.0
  0
LINE
  5
CC
330
1F
100
AcDbEntity
  8
0
  6
Continuous
 62
     7
370
    15
100
AcDbLine
 10
-21.4594595993
 20
29.1377042392
 30
0.0
 11
-21.5996853927
 21
29.1377042392
 31
0.0
  0
LINE
  5
CD
330
1F
100
AcDbEntity
  8
0
  6
Continuous
 62
     7
370
    15
100
AcDbLine
 10
-21.4594595993
 20
29.858854735
 30
0.0
 11
-21.4594595993
 21
29.1377042392
 31
0.0
  0
LINE
  5
CE
330
1F
100
AcDbEntity
  8
0
  6
Continuous
 62
     7
370
    15
100
AcDbLine
 10
-21.3455255554
 20
29.858854735
 30
0.0
 11
-21.4594595993
 21
29.858854735
 31
0.0
  0
LINE
  5
CF
330
1F
100
AcDbEntity
  8
0
  6
Continuous
 62
     7
370
    15
100
AcDbLine
 10
-20.7714812002
 20
29.1377042392
 30
0.0
 11
-21.3455255554
 21
29.858854735
 31
0.0
  0
LINE
  5
D0
330
1F
100
AcDbEntity
  8
0
  6
Continuous
 62
     7
370
    15
100
AcDbLine
 10
-20.5980833099
 20
29.1377042392
 30
0.0
 11
-20.7714812002
 21
29.1377042392
 31
0.0
  0
LINE
  5
D1
330
1F
100
AcDbEntity
  8
0
  6
Continuous
 62
     7
370
    15
100
AcDbLine
 10
-21.1721229719
 20
29.858854735
 30
0.0
 11
-20.5980833099
 21
29.1377042392
 31
0.0
  0
SPLINE
  5
D2
330
1F
100
AcDbEntity
  8
0
  6
Continuous
 62
     7
370
    15
100
AcDbSpline
210
0.0
220
0.0
230
1.0
 70
     8
 71
     3
 72
    14
 73
    10
 74
     0
 42
0.000000001
 43
0.00000001
 40
0.0
 40
0.0
 40
0.0
 40
0.0
 40
0.1399931559308129
 40
0.2799158135364391
 40
0.4197700814203409
 40
0.5597095781088364
 40
0.7063033965753513
 40
0.85312756936549
 40
1.0
 40
1.0
 40
1.0
 40
1.0
 10
-20.6181142252172
 20
30.28234808280039
 30
0.0
 10
-20.62027896985895
 20
30.24530819200914
 30
0.0
 10
-20.62460736901149
 20
30.1712470631261
 30
0.0
 10
-20.6674609503084
 20
30.06700188860944
 30
0.0
 10
-20.73694322111654
 20
29.9790282756997
 30
0.0
 10
-20.83157711494856
 20
29.91526960374217
 30
0.0
 10
-20.940732974758
 20
29.87852050269111
 30
0.0
 10
-21.05597389899539
 20
29.86165699225834
 30
0.0
 10
-21.13340237347712
 20
29.85978892308923
 30
0.0
 10
-21.17212297192755
 20
29.85885473503168
 30
0.0
  0
SPLINE
  5
D3
330
1F
100
AcDbEntity
  8
0
  6
Continuous
 62
     7
370
    15
100
AcDbSpline
210
0.0
220
0.0
230
1.0
 70
     8
 71
     3
 72
    12
 73
     8
 74
     0
 42
0.000000001
 43
0.00000001
 40
0.0
 40
0.0
 40
0.0
 40
0.0
 40
0.1868124344657636
 40
0.3735292289545621
 40
0.5602903314017731
 40
0.780026250913968
 40
0.9999999999999999
 40
0.9999999999999999
 40
0.9999999999999999
 40
0.9999999999999999
 10
-20.93299101440034
 20
30.67891608827963
 30
0.0
 10
-20.90005850283143
 20
30.66927561317577
 30
0.0
 10
-20.83421033973112
 20
30.64999959847902
 30
0.0
 10
-20.74843764113438
 20
30.59109173049488
 30
0.0
 10
-20.67541447109549
 20
30.50992639856213
 30
0.0
 10
-20.62588560508241
 20
30.40342602530519
 30
0.0
 10
-20.6207056190869
 20
30.3227219473397
 30
0.0
 10
-20.6181142252172
 20
30.28234808280039
 30
0.0
  0
SPLINE
  5
D4
330
1F
100
AcDbEntity
  8
0
  6
Continuous
 62
     7
370
    15
100
AcDbSpline
210
0.0
220
0.0
230
1.0
 70
     8
 71
     3
 72
     9
 73
     5
 74
     0
 42
0.000000001
 43
0.00000001
 40
0.0
 40
0.0
 40
0.0
 40
0.0
 40
0.5602421585638596
 40
1.0
 40
1.0
 40
1.0
 40
1.0
 10
-21.28699567157499
 20
30.70020010907146
 30
0.0
 10
-21.22061206608721
 20
30.70041431407263
 30
0.0
 10
-21.1021211519833
 20
30.70079665766799
 30
0.0
 10
-20.98464991292114
 20
30.68559926213476
 30
0.0
 10
-20.93299101440033
 20
30.67891608827962
 30
0.0
  0
LINE
  5
D5
330
1F
100
AcDbEntity
  8
0
  6
Continuous
 62
     7
370
    15
100
AcDbLine
 10
-21.5996853927
 20
30.7002001091
 30
0.0
 11
-21.2869956716
 21
30.7002001091
 31
0.0
  0
LINE
  5
D6
330
1F
100
AcDbEntity
  8
0
  6
Continuous
 62
     7
370
    15
100
AcDbLine
 10
-21.5996853927
 20
29.1377042392
 30
0.0
 11
-21.5996853927
 21
30.7002001091
 31
0.0
  0
CIRCLE
  5
D7
330
1F
100
AcDbEntity
  8
0
  6
Continuous
 62
     7
370
    15
100
AcDbCircle
 10
-0.7136773053
 20
5.7755159579
 30
0.0
 40
0.0940000000000019
  0
CIRCLE
  5
D8
330
1F
100
AcDbEntity
  8
0
  6
Continuous
 62
     7
370
    15
100
AcDbCircle
 10
19.2863226947
 20
5.7755159579
 30
0.0
 40
0.0940000000000012
  0
LINE
  5
D9
330
1F
100
AcDbEntity
  8
0
  6
Continuous
 62
     7
370
    15
100
AcDbLine
 10
-39.9127478653
 20
45.1355158044
 30
0.0
 11
13.6053944219
 21
-33.5844840421
 31
0.0
  0
LINE
  5
DA
330
1F
100
AcDbEntity
  8
0
  6
Continuous
 62
     7
370
    15
100
AcDbLine
 10
-5.4727476391
 20
45.1355158044
 30
0.0
 11
-39.9127478653
 21
45.1355158044
 31
0.0
  0
LINE
  5
DB
330
1F
100
AcDbEntity
  8
0
  6
Continuous
 62
     7
370
    15
100
AcDbLine
 10
48.0453946481
 20
-33.5844840421
 30
0.0
 11
-5.4727476391
 21
45.1355158044
 31
0.0
  0
LINE
  5
DC
330
1F
100
AcDbEntity
  8
0
  6
Continuous
 62
     7
370
    15
100
AcDbLine
 10
13.6053944219
 20
-33.5844840421
 30
0.0
 11
48.0453946481
 21
-33.5844840421
 31
0.0
  0
CIRCLE
  5
DD
330
1F
100
AcDbEntity
  8
0
  6
Continuous
 62
     7
370
    15
100
AcDbCircle
 10
9.2863226947
 20
5.7755159579
 30
0.0
 40
0.0940000000000012
  0
CIRCLE
  5
DE
330
1F
100
AcDbEntity
  8
0
  6
Continuous
 62
     7
370
    15
100
AcDbCircle
 10
-10.7136773053
 20
5.7755159579
 30
0.0
 40
0.0940000000000012
  0
LINE
  5
DF
330
1F
100
AcDbEntity
  8
0
  6
Continuous
 62
     7
370
    15
100
AcDbLine
 10
-19.8168306817
 20
29.6585361958
 30
0.0
 11
-20.4177909927
 21
29.6585361958
 31
0.0
  0
LINE
  5
E0
330
1F
100
AcDbEntity
  8
0
  6
Continuous
 62
     7
370
    15
100
AcDbLine
 10
-19.8168306817
 20
29.8187929045
 30
0.0
 11
-19.8168306817
 21
29.6585361958
 31
0.0
  0
LINE
  5
E1
330
1F
100
AcDbEntity
  8
0
  6
Continuous
 62
     7
370
    15
100
AcDbLine
 10
-20.4177909927
 20
29.8187929045
 30
0.0
 11
-19.8168306817
 21
29.8187929045
 31
0.0
  0
LINE
  5
E2
330
1F
100
AcDbEntity
  8
0
  6
Continuous
 62
     7
370
    15
100
AcDbLine
 10
-20.4177909927
 20
29.6585361958
 30
0.0
 11
-20.4177909927
 21
29.8187929045
 31
0.0
  0
LINE
  5
E3
330
1F
100
AcDbEntity
  8
0
  6
Continuous
 62
     7
370
    15
100
AcDbLine
 10
-17.6133032837
 20
29.1377042392
 30
0.0
 11
-17.7535290771
 21
29.1377042392
 31
0.0
  0
LINE
  5
E4
330
1F
100
AcDbEntity
  8
0
  6
Continuous
 62
     7
370
    15
100
AcDbLine
 10
-17.6133032837
 20
30.7002001091
 30
0.0
 11
-17.6133032837
 21
29.1377042392
 31
0.0
  0
LINE
  5
E5
330
1F
100
AcDbEntity
  8
0
  6
Continuous
 62
     7
370
    15
100
AcDbLine
 10
-17.7535290771
 20
30.7002001091
 30
0.0
 11
-17.6133032837
 21
30.7002001091
 31
0.0
  0
LINE
  5
E6
330
1F
100
AcDbEntity
  8
0
  6
Continuous
 62
     7
370
    15
100
AcDbLine
 10
-17.7535290771
 20
29.1377042392
 30
0.0
 11
-17.7535290771
 21
30.7002001091
 31
0.0
  0
LINE
  5
E7
330
1F
100
AcDbEntity
  8
0
  6
Continuous
 62
     7
370
    15
100
AcDbLine
 10
-15.9907099747
 20
30.2795274221
 30
0.0
 11
-15.7903867422
 21
30.2795274221
 31
0.0
  0
LINE
  5
E8
330
1F
100
AcDbEntity
  8
0
  6
Continuous
 62
     7
370
    15
100
AcDbLine
 10
-15.9907099747
 20
30.1393063219
 30
0.0
 11
-15.9907099747
 21
30.2795274221
 31
0.0
  0
LINE
  5
E9
330
1F
100
AcDbEntity
  8
0
  6
Continuous
 62
     7
370
    15
100
AcDbLine
 10
-15.7903867422
 20
30.1393063219
 30
0.0
 11
-15.9907099747
 21
30.1393063219
 31
0.0
  0
LINE
  5
EA
330
1F
100
AcDbEntity
  8
0
  6
Continuous
 62
     7
370
    15
100
AcDbLine
 10
-15.7903867422
 20
29.1377042392
 30
0.0
 11
-15.7903867422
 21
30.1393063219
 31
0.0
  0
LINE
  5
EB
330
1F
100
AcDbEntity
  8
0
  6
Continuous
 62
     7
370
    15
100
AcDbLine
 10
-15.650165642
 20
29.1377042392
 30
0.0
 11
-15.7903867422
 21
29.1377042392
 31
0.0
  0
LINE
  5
EC
330
1F
100
AcDbEntity
  8
0
  6
Continuous
 62
     7
370
    15
100
AcDbLine
 10
-15.650165642
 20
30.1393063219
 30
0.0
 11
-15.650165642
 21
29.1377042392
 31
0.0
  0
LINE
  5
ED
330
1F
100
AcDbEntity
  8
0
  6
Continuous
 62
     7
370
    15
100
AcDbLine
 10
-15.4498424095
 20
30.1393063219
 30
0.0
 11
-15.650165642
 21
30.1393063219
 31
0.0
  0
LINE
  5
EE
330
1F
100
AcDbEntity
  8
0
  6
Continuous
 62
     7
370
    15
100
AcDbLine
 10
-15.4498424095
 20
30.2795274221
 30
0.0
 11
-15.4498424095
 21
30.1393063219
 31
0.0
  0
LINE
  5
EF
330
1F
100
AcDbEntity
  8
0
  6
Continuous
 62
     7
370
    15
100
AcDbLine
 10
-15.650165642
 20
30.2795274221
 30
0.0
 11
-15.4498424095
 21
30.2795274221
 31
0.0
  0
LINE
  5
F0
330
1F
100
AcDbEntity
  8
0
  6
Continuous
 62
     7
370
    15
100
AcDbLine
 10
-15.650165642
 20
30.7402666329
 30
0.0
 11
-15.650165642
 21
30.2795274221
 31
0.0
  0
LINE
  5
F1
330
1F
100
AcDbEntity
  8
0
  6
Continuous
 62
     7
370
    15
100
AcDbLine
 10
-15.7903867422
 20
30.7402666329
 30
0.0
 11
-15.650165642
 21
30.7402666329
 31
0.0
  0
LINE
  5
F2
330
1F
100
AcDbEntity
  8
0
  6
Continuous
 62
     7
370
    15
100
AcDbLine
 10
-15.7903867422
 20
30.2795274221
 30
0.0
 11
-15.7903867422
 21
30.7402666329
 31
0.0
  0
LINE
  5
F3
330
1F
100
AcDbEntity
  8
0
  6
Continuous
 62
     7
370
    15
100
AcDbLine
 10
-13.7070542224
 20
29.1377042392
 30
0.0
 11
-13.8472800158
 21
29.1377042392
 31
0.0
  0
LINE
  5
F4
330
1F
100
AcDbEntity
  8
0
  6
Continuous
 62
     7
370
    15
100
AcDbLine
 10
-13.7070542224
 20
29.5214408195
 30
0.0
 11
-13.7070542224
 21
29.1377042392
 31
0.0
  0
SPLINE
  5
F5
330
1F
100
AcDbEntity
  8
0
  6
Continuous
 62
     7
370
    15
100
AcDbSpline
210
0.0
220
0.0
230
1.0
 70
     8
 71
     3
 72
    10
 73
     6
 74
     0
 42
0.000000001
 43
0.00000001
 40
0.0
 40
0.0
 40
0.0
 40
0.0
 40
0.2798181759235574
 40
0.5598846797289494
 40
1.0
 40
1.0
 40
1.0
 40
1.0
 10
-13.68201557828732
 20
29.91332023917487
 30
0.0
 10
-13.68815327451212
 20
29.87711813809417
 30
0.0
 10
-13.70043411393132
 20
29.80468180795878
 30
0.0
 10
-13.70567964923575
 20
29.67348611861054
 30
0.0
 10
-13.70653282946934
 20
29.57911351641499
 30
0.0
 10
-13.7070542223721
 20
29.5214408195327
 30
0.0
  0
SPLINE
  5
F6
330
1F
100
AcDbEntity
  8
0
  6
Continuous
 62
     7
370
    15
100
AcDbSpline
210
0.0
220
0.0
230
1.0
 70
     8
 71
     3
 72
    11
 73
     7
 74
     0
 42
0.000000001
 43
0.00000001
 40
0.0
 40
0.0
 40
0.0
 40
0.0
 40
0.2779131802467767
 40
0.5579315831000826
 40
0.7788752622641079
 40
0.9999999999999999
 40
0.9999999999999999
 40
0.9999999999999999
 40
0.9999999999999999
 10
-13.45509083974126
 20
30.15933723716551
 30
0.0
 10
-13.48815781962178
 20
30.15217797583863
 30
0.0
 10
-13.55454226535657
 20
30.13780522100065
 30
0.0
 10
-13.62018033726545
 20
30.0657279771301
 30
0.0
 10
-13.65947866476043
 20
29.98923176806695
 30
0.0
 10
-13.67450122284173
 20
29.93863099034902
 30
0.0
 10
-13.68201557828732
 20
29.91332023917487
 30
0.0
  0
SPLINE
  5
F7
330
1F
100
AcDbEntity
  8
0
  6
Continuous
 62
     7
370
    15
100
AcDbSpline
210
0.0
220
0.0
230
1.0
 70
     8
 71
     3
 72
     9
 73
     5
 74
     0
 42
0.000000001
 43
0.00000001
 40
0.0
 40
0.0
 40
0.0
 40
0.0
 40
0.5603811462020515
 40
1.0
 40
1.0
 40
1.0
 40
1.0
 10
-13.38341038779996
 20
30.1389918721969
 30
0.0
 10
-13.39622170935094
 20
30.14493815915003
 30
0.0
 10
-13.41908350910598
 20
30.15554930656893
 30
0.0
 10
-13.4440952200462
 20
30.15818051036749
 30
0.0
 10
-13.45509083974127
 20
30.15933723716552
 30
0.0
  0
LINE
  5
F8
330
1F
100
AcDbEntity
  8
0
  6
Continuous
 62
     7
370
    15
100
AcDbLine
 10
-13.3064124506
 20
30.2604351626
 30
0.0
 11
-13.3834103878
 21
30.1389918722
 31
0.0
  0
SPLINE
  5
F9
330
1F
100
AcDbEntity
  8
0
  6
Continuous
 62
     7
370
    15
100
AcDbSpline
210
0.0
220
0.0
230
1.0
 70
     8
 71
     3
 72
     9
 73
     5
 74
     0
 42
0.000000001
 43
0.00000001
 40
0.0
 40
0.0
 40
0.0
 40
0.0
 40
0.5592365769122386
 40
1.0
 40
1.0
 40
1.0
 40
1.0
 10
-13.42848464043168
 20
30.29956303059851
 30
0.0
 10
-13.40424012900534
 20
30.29667043738738
 30
0.0
 10
-13.36088725756017
 20
30.29149804106969
 30
0.0
 10
-13.32307757550746
 20
30.26993802783994
 30
0.0
 10
-13.30641245062003
 20
30.26043516260698
 30
0.0
  0
SPLINE
  5
FA
330
1F
100
AcDbEntity
  8
0
  6
Continuous
 62
     7
370
    15
100
AcDbSpline
210
0.0
220
0.0
230
1.0
 70
     8
 71
     3
 72
    11
 73
     7
 74
     0
 42
0.000000001
 43
0.00000001
 40
0.0
 40
0.0
 40
0.0
 40
0.0
 40
0.2803224326905879
 40
0.5602063888450728
 40
0.7801957285961956
 40
1.0
 40
1.0
 40
1.0
 40
1.0
 10
-13.7070542223721
 20
30.11144701706409
 30
0.0
 10
-13.68857287587545
 20
30.13863404502865
 30
0.0
 10
-13.65163909115294
 20
30.19296557537843
 30
0.0
 10
-13.58264642760007
 20
30.2542421442052
 30
0.0
 10
-13.50592611548967
 20
30.29268738193496
 30
0.0
 10
-13.45429122267165
 20
30.29727179076151
 30
0.0
 10
-13.42848464043168
 20
30.29956303059851
 30
0.0
  0
LINE
  5
FB
330
1F
100
AcDbEntity
  8
0
  6
Continuous
 62
     7
370
    15
100
AcDbLine
 10
-13.7070542224
 20
30.2795274221
 30
0.0
 11
-13.7070542224
 21
30.1114470171
 31
0.0
  0
LINE
  5
FC
330
1F
100
AcDbEntity
  8
0
  6
Continuous
 62
     7
370
    15
100
AcDbLine
 10
-13.8472800158
 20
30.2795274221
 30
0.0
 11
-13.7070542224
 21
30.2795274221
 31
0.0
  0
LINE
  5
FD
330
1F
100
AcDbEntity
  8
0
  6
Continuous
 62
     7
370
    15
100
AcDbLine
 10
-13.8472800158
 20
29.1377042392
 30
0.0
 11
-13.8472800158
 21
30.2795274221
 31
0.0
  0
LINE
  5
FE
330
1F
100
AcDbEntity
  8
0
  6
Continuous
 62
     7
370
    15
100
AcDbLine
 10
-11.4634649938
 20
30.0682547694
 30
0.0
 11
-11.4634649938
 21
30.2795274221
 31
0.0
  0
SPLINE
  5
FF
330
1F
100
AcDbEntity
  8
0
  6
Continuous
 62
     7
370
    15
100
AcDbSpline
210
0.0
220
0.0
230
1.0
 70
     8
 71
     3
 72
    11
 73
     7
 74
     0
 42
0.000000001
 43
0.00000001
 40
0.0
 40
0.0
 40
0.0
 40
0.0
 40
0.2799813379558624
 40
0.5597503452283462
 40
0.7798131969046098
 40
1.0
 40
1.0
 40
1.0
 40
1.0
 10
-11.92545261691921
 20
30.29956303059851
 30
0.0
 10
-11.87516235758984
 20
30.29658773977575
 30
0.0
 10
-11.77461997777714
 20
30.29063941451465
 30
0.0
 10
-11.64244581236233
 20
30.23826061022304
 30
0.0
 10
-11.53749091098048
 20
30.1610296334071
 30
0.0
 10
-11.48814493064098
 20
30.09918552806952
 30
0.0
 10
-11.46346499383966
 20
30.06825476935796
 30
0.0
  0
SPLINE
  5
100
330
1F
100
AcDbEntity
  8
0
  6
Continuous
 62
     7
370
    15
100
AcDbSpline
210
0.0
220
0.0
230
1.0
 70
     8
 71
     3
 72
    14
 73
    10
 74
     0
 42
0.000000001
 43
0.00000001
 40
0.0
 40
0.0
 40
0.0
 40
0.0
 40
0.140022237368765
 40
0.2799751343547317
 40
0.4199690016070227
 40
0.5600256072487532
 40
0.706663692028737
 40
0.853292086989195
 40
1.0
 40
1.0
 40
1.0
 40
1.0
 10
-12.52516451566285
 20
29.71174390113526
 30
0.0
 10
-12.52272813689613
 20
29.75536507948424
 30
0.0
 10
-12.51785658588135
 20
29.84258583454762
 30
0.0
 10
-12.47278721086342
 20
29.96699660845945
 30
0.0
 10
-12.40140373730963
 20
30.07729496205296
 30
0.0
 10
-12.30660714247644
 20
30.1713584996282
 30
0.0
 10
-12.19311501862485
 20
30.24544690990384
 30
0.0
 10
-12.06251929361201
 20
30.2920932451653
 30
0.0
 10
-11.97114976534682
 20
30.29707265217905
 30
0.0
 10
-11.92545261691921
 20
30.29956303059851
 30
0.0
  0
SPLINE
  5
101
330
1F
100
AcDbEntity
  8
0
  6
Continuous
 62
     7
370
    15
100
AcDbSpline
210
0.0
220
0.0
230
1.0
 70
     8
 71
     3
 72
    14
 73
    10
 74
     0
 42
0.000000001
 43
0.00000001
 40
0.0
 40
0.0
 40
0.0
 40
0.0
 40
0.1400484522485063
 40
0.2800152835475825
 40
0.4200272170387528
 40
0.5600994177920966
 40
0.7067208224497675
 40
0.8533019910851719
 40
1.0
 40
1.0
 40
1.0
 40
1.0
 10
-11.92983613961371
 20
29.11766863061014
 30
0.0
 10
-11.97353505029231
 20
29.12012868367772
 30
0.0
 10
-12.06090740370237
 20
29.12504735608147
 30
0.0
 10
-12.18637050481403
 20
29.16775980409615
 30
0.0
 10
-12.29800509664962
 20
29.2376915714162
 30
0.0
 10
-12.39428097324314
 20
29.33069948110516
 30
0.0
 10
-12.46982192104967
 20
29.44372628023243
 30
0.0
 10
-12.51735715068287
 20
29.57437540338762
 30
0.0
 10
-12.52256136956194
 20
29.6659422420331
 30
0.0
 10
-12.52516451566285
 20
29.71174390113526
 30
0.0
  0
SPLINE
  5
102
330
1F
100
AcDbEntity
  8
0
  6
Continuous
 62
     7
370
    15
100
AcDbSpline
210
0.0
220
0.0
230
1.0
 70
     8
 71
     3
 72
    11
 73
     7
 74
     0
 42
0.000000001
 43
0.00000001
 40
0.0
 40
0.0
 40
0.0
 40
0.0
 40
0.2799959633272716
 40
0.5597321951990143
 40
0.7798722296325499
 40
1.0
 40
1.0
 40
1.0
 40
1.0
 10
-11.46346499383965
 20
29.33520681092386
 30
0.0
 10
-11.49744027219103
 20
29.29864135220753
 30
0.0
 10
-11.56535931255194
 20
29.22554435383466
 30
0.0
 10
-11.68885617575381
 20
29.15835201983705
 30
0.0
 10
-11.81252010407613
 20
29.12305486983477
 30
0.0
 10
-11.8907315206516
 20
29.11946401034278
 30
0.0
 10
-11.92983613961371
 20
29.11766863061014
 30
0.0
  0
LINE
  5
103
330
1F
100
AcDbEntity
  8
0
  6
Continuous
 62
     7
370
    15
100
AcDbLine
 10
-11.4634649938
 20
29.1377042392
 30
0.0
 11
-11.4634649938
 21
29.3352068109
 31
0.0
  0
LINE
  5
104
330
1F
100
AcDbEntity
  8
0
  6
Continuous
 62
     7
370
    15
100
AcDbLine
 10
-11.3232392004
 20
29.1377042392
 30
0.0
 11
-11.4634649938
 21
29.1377042392
 31
0.0
  0
LINE
  5
105
330
1F
100
AcDbEntity
  8
0
  6
Continuous
 62
     7
370
    15
100
AcDbLine
 10
-11.3232392004
 20
30.2795274221
 30
0.0
 11
-11.3232392004
 21
29.1377042392
 31
0.0
  0
LINE
  5
106
330
1F
100
AcDbEntity
  8
0
  6
Continuous
 62
     7
370
    15
100
AcDbLine
 10
-11.4634649938
 20
30.2795274221
 30
0.0
 11
-11.3232392004
 21
30.2795274221
 31
0.0
  0
SPLINE
  5
107
330
1F
100
AcDbEntity
  8
0
  6
Continuous
 62
     7
370
    15
100
AcDbSpline
210
0.0
220
0.0
230
1.0
 70
     8
 71
     3
 72
    13
 73
     9
 74
     0
 42
0.000000001
 43
0.00000001
 40
0.0
 40
0.0
 40
0.0
 40
0.0
 40
0.1867174327944095
 40
0.3732431136129941
 40
0.5597750635541402
 40
0.7064886191068297
 40
0.8531846272535686
 40
1.0
 40
1.0
 40
1.0
 40
1.0
 10
-9.500322658894094
 20
29.67856711106304
 30
0.0
 10
-9.496996480988269
 20
29.63746964493712
 30
0.0
 10
-9.490347541039686
 20
29.55531691828021
 30
0.0
 10
-9.438640085796058
 20
29.44088268088762
 30
0.0
 10
-9.361583754780774
 20
29.35464435034099
 30
0.0
 10
-9.273280408118895
 20
29.2955111179092
 30
0.0
 10
-9.18058891248212
 20
29.2633921929784
 30
0.0
 10
-9.116017753960937
 20
29.25972751047006
 30
0.0
 10
-9.083719044867927
 20
29.25789442404315
 30
0.0
  0
LINE
  5
108
330
1F
100
AcDbEntity
  8
0
  6
Continuous
 62
     7
370
    15
100
AcDbLine
 10
-8.4786896609
 20
29.6785671111
 30
0.0
 11
-9.5003226589
 21
29.6785671111
 31
0.0
  0
SPLINE
  5
109
330
1F
100
AcDbEntity
  8
0
  6
Continuous
 62
     7
370
    15
100
AcDbSpline
210
0.0
220
0.0
230
1.0
 70
     8
 71
     3
 72
    11
 73
     7
 74
     0
 42
0.000000001
 43
0.00000001
 40
0.0
 40
0.0
 40
0.0
 40
0.0
 40
0.2798344199477379
 40
0.5597454975068649
 40
0.7798358311110216
 40
1.0
 40
1.0
 40
1.0
 40
1.0
 10
-8.602953612044566
 20
30.0748253601206
 30
0.0
 10
-8.58079384666459
 20
30.04205921854865
 30
0.0
 10
-8.5364682454767
 20
29.97651795947482
 30
0.0
 10
-8.501079467956483
 20
29.87143209170529
 30
0.0
 10
-8.482004590067946
 20
29.77161993147894
 30
0.0
 10
-8.479794760816924
 20
29.70958818565919
 30
0.0
 10
-8.478689660885667
 20
29.67856711106304
 30
0.0
  0
SPLINE
  5
10A
330
1F
100
AcDbEntity
  8
0
  6
Continuous
 62
     7
370
    15
100
AcDbSpline
210
0.0
220
0.0
230
1.0
 70
     8
 71
     3
 72
    11
 73
     7
 74
     0
 42
0.000000001
 43
0.00000001
 40
0.0
 40
0.0
 40
0.0
 40
0.0
 40
0.2799833878976748
 40
0.5597309821464631
 40
0.7798391445454946
 40
1.0
 40
1.0
 40
1.0
 40
1.0
 10
-9.062749473776869
 20
30.29956303059851
 30
0.0
 10
-9.013058638708001
 20
30.29664446119085
 30
0.0
 10
-8.913718816707766
 20
30.29080978030753
 30
0.0
 10
-8.783206310711904
 20
30.23910540317302
 30
0.0
 10
-8.678658977585732
 20
30.16430676696534
 30
0.0
 10
-8.628190747300955
 20
30.10465487552323
 30
0.0
 10
-8.602953612044566
 20
30.0748253601206
 30
0.0
  0
SPLINE
  5
10B
330
1F
100
AcDbEntity
  8
0
  6
Continuous
 62
     7
370
    15
100
AcDbSpline
210
0.0
220
0.0
230
1.0
 70
     8
 71
     3
 72
    11
 73
     7
 74
     0
 42
0.000000001
 43
0.00000001
 40
0.0
 40
0.0
 40
0.0
 40
0.0
 40
0.279942244058097
 40
0.5596462239144825
 40
0.779772743949512
 40
1.0
 40
1.0
 40
1.0
 40
1.0
 10
-9.509089704283104
 20
30.08671812940097
 30
0.0
 10
-9.477175455874887
 20
30.12269422916883
 30
0.0
 10
-9.413374121886102
 20
30.1946158087575
 30
0.0
 10
-9.294761480499922
 20
30.26018844608082
 30
0.0
 10
-9.17581840915287
 20
30.29485401298778
 30
0.0
 10
-9.100444866425216
 20
30.2979931186927
 30
0.0
 10
-9.062749473776877
 20
30.29956303059852
 30
0.0
  0
SPLINE
  5
10C
330
1F
100
AcDbEntity
  8
0
  6
Continuous
 62
     7
370
    15
100
AcDbSpline
210
0.0
220
0.0
230
1.0
 70
     8
 71
     3
 72
    11
 73
     7
 74
     0
 42
0.000000001
 43
0.00000001
 40
0.0
 40
0.0
 40
0.0
 40
0.0
 40
0.2799734282298351
 40
0.5598732473924833
 40
0.7799122681941449
 40
1.0
 40
1.0
 40
1.0
 40
1.0
 10
-9.640548452327096
 20
29.7054877600734
 30
0.0
 10
-9.63875035454821
 20
29.74388889256318
 30
0.0
 10
-9.635154631736382
 20
29.82068106132914
 30
0.0
 10
-9.60469067152178
 20
29.92398147339912
 30
0.0
 10
-9.562299857887771
 20
30.01344224134496
 30
0.0
 10
-9.52682773077657
 20
30.06229103126993
 30
0.0
 10
-9.509089704283104
 20
30.08671812940097
 30
0.0
  0
SPLINE
  5
10D
330
1F
100
AcDbEntity
  8
0
  6
Continuous
 62
     7
370
    15
100
AcDbSpline
210
0.0
220
0.0
230
1.0
 70
     8
 71
     3
 72
    14
 73
    10
 74
     0
 42
0.000000001
 43
0.00000001
 40
0.0
 40
0.0
 40
0.0
 40
0.0
 40
0.1400826073084677
 40
0.2800538975740769
 40
0.4199735029522574
 40
0.5599484733116445
 40
0.7066234910949045
 40
0.8532983921403607
 40
1.0
 40
1.0
 40
1.0
 40
1.0
 10
-9.066194340648138
 20
29.11766863061014
 30
0.0
 10
-9.109123383238094
 20
29.11962744415746
 30
0.0
 10
-9.194947354732044
 20
29.12354351467532
 30
0.0
 10
-9.319156457634316
 20
29.1621287114809
 30
0.0
 10
-9.429537978291812
 20
29.23079349560067
 30
0.0
 10
-9.518075374609166
 20
29.32835657479439
 30
0.0
 10
-9.587268268549291
 20
29.44204683146248
 30
0.0
 10
-9.632990925892939
 20
29.57052717306635
 30
0.0
 10
-9.638029123969021
 20
29.66049816764111
 30
0.0
 10
-9.640548452327096
 20
29.7054877600734
 30
0.0
  0
SPLINE
  5
10E
330
1F
100
AcDbEntity
  8
0
  6
Continuous
 62
     7
370
    15
100
AcDbSpline
210
0.0
220
0.0
230
1.0
 70
     8
 71
     3
 72
    12
 73
     8
 74
     0
 42
0.000000001
 43
0.00000001
 40
0.0
 40
0.0
 40
0.0
 40
0.0
 40
0.1868265490074838
 40
0.3734536505261713
 40
0.5601277007477647
 40
0.7799338845578272
 40
1.0
 40
1.0
 40
1.0
 40
1.0
 10
-8.538787099968255
 20
29.43285986949406
 30
0.0
 10
-8.559313880844304
 20
29.39800166786151
 30
0.0
 10
-8.6003455291429
 20
29.32832247762004
 30
0.0
 10
-8.68548676623661
 20
29.24045847070008
 30
0.0
 10
-8.793694749782281
 20
29.17040927932378
 30
0.0
 10
-8.92321960760531
 20
29.12439152448739
 30
0.0
 10
-9.01851732502586
 20
29.11991047789035
 30
0.0
 10
-9.066194340648138
 20
29.11766863061014
 30
0.0
  0
LINE
  5
10F
330
1F
100
AcDbEntity
  8
0
  6
Continuous
 62
     7
370
    15
100
AcDbLine
 10
-8.6633608075
 20
29.4982794871
 30
0.0
 11
-8.5387871
 21
29.4328598695
 31
0.0
  0
SPLINE
  5
110
330
1F
100
AcDbEntity
  8
0
  6
Continuous
 62
     7
370
    15
100
AcDbSpline
210
0.0
220
0.0
230
1.0
 70
     8
 71
     3
 72
    11
 73
     7
 74
     0
 42
0.000000001
 43
0.00000001
 40
0.0
 40
0.0
 40
0.0
 40
0.0
 40
0.279900687314385
 40
0.5596973910147531
 40
0.7795379539634857
 40
1.0
 40
1.0
 40
1.0
 40
1.0
 10
-9.083719044867927
 20
29.25789442404315
 30
0.0
 10
-9.0364030423958
 20
29.26183396511989
 30
0.0
 10
-8.941788615432467
 20
29.26971158372675
 30
0.0
 10
-8.818060124993549
 20
29.32349086725882
 30
0.0
 10
-8.726818105211906
 20
29.40617078403966
 30
0.0
 10
-8.684533135052162
 20
29.46754770842116
 30
0.0
 10
-8.663360807548822
 20
29.49827948709439
 30
0.0
  0
LINE
  5
111
330
1F
100
AcDbEntity
  8
0
  6
Continuous
 62
     7
370
    15
100
AcDbLine
 10
-5.2935957887
 20
30.0682547694
 30
0.0
 11
-5.2935957887
 21
30.2795274221
 31
0.0
  0
SPLINE
  5
112
330
1F
100
AcDbEntity
  8
0
  6
Continuous
 62
     7
370
    15
100
AcDbSpline
210
0.0
220
0.0
230
1.0
 70
     8
 71
     3
 72
    11
 73
     7
 74
     0
 42
0.000000001
 43
0.00000001
 40
0.0
 40
0.0
 40
0.0
 40
0.0
 40
0.2799806677898103
 40
0.5597571420154722
 40
0.7798194669471548
 40
1.0
 40
1.0
 40
1.0
 40
1.0
 10
-5.75558341177477
 20
30.29956303059852
 30
0.0
 10
-5.705293211239729
 20
30.29658753315573
 30
0.0
 10
-5.604749487470877
 20
30.29063870833938
 30
0.0
 10
-5.472573239288702
 20
30.23826159278377
 30
0.0
 10
-5.367617118638087
 20
30.16103084048102
 30
0.0
 10
-5.318273981662458
 20
30.09918566167892
 30
0.0
 10
-5.293595788695206
 20
30.06825476935795
 30
0.0
  0
SPLINE
  5
113
330
1F
100
AcDbEntity
  8
0
  6
Continuous
 62
     7
370
    15
100
AcDbSpline
210
0.0
220
0.0
230
1.0
 70
     8
 71
     3
 72
    14
 73
    10
 74
     0
 42
0.000000001
 43
0.00000001
 40
0.0
 40
0.0
 40
0.0
 40
0.0
 40
0.1400221609880025
 40
0.2799771721603282
 40
0.4199714878437517
 40
0.5600249772912457
 40
0.7066677615288951
 40
0.8532966261723365
 40
1.0
 40
1.0
 40
1.0
 40
1.0
 10
-6.355290617239282
 20
29.71174390113526
 30
0.0
 10
-6.352856645800816
 20
29.75536526210324
 30
0.0
 10
-6.347989870172919
 20
29.8425870647338
 30
0.0
 10
-6.302911963491389
 20
29.96699585490255
 30
0.0
 10
-6.231530038528184
 20
30.0772931998405
 30
0.0
 10
-6.13673730280029
 20
30.17136163096704
 30
0.0
 10
-6.023241600202238
 20
30.24544534942306
 30
0.0
 10
-5.892647082047876
 20
30.29209298425998
 30
0.0
 10
-5.801279037983798
 20
30.2970725935296
 30
0.0
 10
-5.755583411774762
 20
30.29956303059851
 30
0.0
  0
SPLINE
  5
114
330
1F
100
AcDbEntity
  8
0
  6
Continuous
 62
     7
370
    15
100
AcDbSpline
210
0.0
220
0.0
230
1.0
 70
     8
 71
     3
 72
    14
 73
    10
 74
     0
 42
0.000000001
 43
0.00000001
 40
0.0
 40
0.0
 40
0.0
 40
0.0
 40
0.1400487133772636
 40
0.2800110397611474
 40
0.4200275022953476
 40
0.5600963512690339
 40
0.7067208047065766
 40
0.8533022466513807
 40
1.0
 40
1.0
 40
1.0
 40
1.0
 10
-5.759966934469267
 20
29.11766863061014
 30
0.0
 10
-5.803665975770619
 20
29.12012839114716
 30
0.0
 10
-5.89103710326108
 20
29.12504639495399
 30
0.0
 10
-6.016498192840437
 20
29.16776257603949
 30
0.0
 10
-6.128135585929417
 20
29.237688124764
 30
0.0
 10
-6.224406293506531
 20
29.33070288124053
 30
0.0
 10
-6.299953474186949
 20
29.44372444120701
 30
0.0
 10
-6.347488794746405
 20
29.574375375356
 30
0.0
 10
-6.352689322250402
 20
29.6659422877216
 30
0.0
 10
-6.355290617239282
 20
29.71174390113526
 30
0.0
  0
SPLINE
  5
115
330
1F
100
AcDbEntity
  8
0
  6
Continuous
 62
     7
370
    15
100
AcDbSpline
210
0.0
220
0.0
230
1.0
 70
     8
 71
     3
 72
    11
 73
     7
 74
     0
 42
0.000000001
 43
0.00000001
 40
0.0
 40
0.0
 40
0.0
 40
0.0
 40
0.2799956571004647
 40
0.5597238844195781
 40
0.7798636780897149
 40
1.0
 40
1.0
 40
1.0
 40
1.0
 10
-5.293595788695206
 20
29.33520681092386
 30
0.0
 10
-5.327571174107444
 20
29.29864155348973
 30
0.0
 10
-5.395489494321828
 20
29.22554596287317
 30
0.0
 10
-5.51898325127772
 20
29.15835101403214
 30
0.0
 10
-5.642647798517495
 20
29.12305457129142
 30
0.0
 10
-5.720860761399221
 20
29.11946393473267
 30
0.0
 10
-5.759966934469267
 20
29.11766863061014
 30
0.0
  0
LINE
  5
116
330
1F
100
AcDbEntity
  8
0
  6
Continuous
 62
     7
370
    15
100
AcDbLine
 10
-5.2935957887
 20
29.1377042392
 30
0.0
 11
-5.2935957887
 21
29.3352068109
 31
0.0
  0
LINE
  5
117
330
1F
100
AcDbEntity
  8
0
  6
Continuous
 62
     7
370
    15
100
AcDbLine
 10
-5.1533699953
 20
29.1377042392
 30
0.0
 11
-5.2935957887
 21
29.1377042392
 31
0.0
  0
LINE
  5
118
330
1F
100
AcDbEntity
  8
0
  6
Continuous
 62
     7
370
    15
100
AcDbLine
 10
-5.1533699953
 20
30.2795274221
 30
0.0
 11
-5.1533699953
 21
29.1377042392
 31
0.0
  0
LINE
  5
119
330
1F
100
AcDbEntity
  8
0
  6
Continuous
 62
     7
370
    15
100
AcDbLine
 10
-5.2935957887
 20
30.2795274221
 30
0.0
 11
-5.1533699953
 21
30.2795274221
 31
0.0
  0
SPLINE
  5
11A
330
1F
100
AcDbEntity
  8
0
  6
Continuous
 62
     7
370
    15
100
AcDbSpline
210
0.0
220
0.0
230
1.0
 70
     8
 71
     3
 72
    13
 73
     9
 74
     0
 42
0.000000001
 43
0.00000001
 40
0.0
 40
0.0
 40
0.0
 40
0.0
 40
0.1867180666089918
 40
0.373247276946656
 40
0.5597798600727605
 40
0.7064879706166419
 40
0.8531912156716895
 40
1.0
 40
1.0
 40
1.0
 40
1.0
 10
-3.41058180810006
 20
29.67856711106304
 30
0.0
 10
-3.407256039699988
 20
29.63746947862558
 30
0.0
 10
-3.400607866753345
 20
29.55531578201326
 30
0.0
 10
-3.348893685344878
 20
29.44088351211169
 30
0.0
 10
-3.271838748991662
 20
29.35464626485606
 30
0.0
 10
-3.183537675982606
 20
29.29550863100715
 30
0.0
 10
-3.090846032855184
 20
29.26339361770122
 30
0.0
 10
-3.026275212995436
 20
29.259727927958
 30
0.0
 10
-2.993978194073893
 20
29.25789442404315
 30
0.0
  0
LINE
  5
11B
330
1F
100
AcDbEntity
  8
0
  6
Continuous
 62
     7
370
    15
100
AcDbLine
 10
-2.3889441168
 20
29.6785671111
 30
0.0
 11
-3.4105818081
 21
29.6785671111
 31
0.0
  0
SPLINE
  5
11C
330
1F
100
AcDbEntity
  8
0
  6
Continuous
 62
     7
370
    15
100
AcDbSpline
210
0.0
220
0.0
230
1.0
 70
     8
 71
     3
 72
    11
 73
     7
 74
     0
 42
0.000000001
 43
0.00000001
 40
0.0
 40
0.0
 40
0.0
 40
0.0
 40
0.279834901548083
 40
0.5597427123097717
 40
0.7798354522043104
 40
1.0
 40
1.0
 40
1.0
 40
1.0
 10
-2.513208067971415
 20
30.0748253601206
 30
0.0
 10
-2.491047612850761
 20
30.04205943361593
 30
0.0
 10
-2.446720928843026
 20
29.9765190436517
 30
0.0
 10
-2.411341665101926
 20
29.87143050285403
 30
0.0
 10
-2.392257325099035
 20
29.77162058297554
 30
0.0
 10
-2.390048639656796
 20
29.70958830761291
 30
0.0
 10
-2.388944116812517
 20
29.67856711106304
 30
0.0
  0
SPLINE
  5
11D
330
1F
100
AcDbEntity
  8
0
  6
Continuous
 62
     7
370
    15
100
AcDbSpline
210
0.0
220
0.0
230
1.0
 70
     8
 71
     3
 72
    11
 73
     7
 74
     0
 42
0.000000001
 43
0.00000001
 40
0.0
 40
0.0
 40
0.0
 40
0.0
 40
0.2799837186566763
 40
0.5597316433859106
 40
0.7798328987095982
 40
1.0
 40
1.0
 40
1.0
 40
1.0
 10
-2.973003929703718
 20
30.29956303059851
 30
0.0
 10
-2.923313192035573
 20
30.29664433634915
 30
0.0
 10
-2.82397356475475
 20
30.29080940588753
 30
0.0
 10
-2.693460902475117
 20
30.23910724165756
 30
0.0
 10
-2.588917628741374
 20
30.16430383979073
 30
0.0
 10
-2.538447104330213
 20
30.1046544937037
 30
0.0
 10
-2.513208067971415
 20
30.0748253601206
 30
0.0
  0
SPLINE
  5
11E
330
1F
100
AcDbEntity
  8
0
  6
Continuous
 62
     7
370
    15
100
AcDbSpline
210
0.0
220
0.0
230
1.0
 70
     8
 71
     3
 72
    11
 73
     7
 74
     0
 42
0.000000001
 43
0.00000001
 40
0.0
 40
0.0
 40
0.0
 40
0.0
 40
0.2799352782941387
 40
0.5596467045696998
 40
0.7797640109991775
 40
1.0
 40
1.0
 40
1.0
 40
1.0
 10
-3.419344160209954
 20
30.08671812940097
 30
0.0
 10
-3.387431749801796
 20
30.12269461477266
 30
0.0
 10
-3.323632447946605
 20
30.19461881669158
 30
0.0
 10
-3.205017967850157
 20
30.26018609167573
 30
0.0
 10
-3.086074781988529
 20
30.29485520301975
 30
0.0
 10
-3.010700985297884
 20
30.2979934728002
 30
0.0
 10
-2.973003929703718
 20
30.29956303059851
 30
0.0
  0
SPLINE
  5
11F
330
1F
100
AcDbEntity
  8
0
  6
Continuous
 62
     7
370
    15
100
AcDbSpline
210
0.0
220
0.0
230
1.0
 70
     8
 71
     3
 72
    11
 73
     7
 74
     0
 42
0.000000001
 43
0.00000001
 40
0.0
 40
0.0
 40
0.0
 40
0.0
 40
0.2799736208867521
 40
0.5598695269106728
 40
0.7799128954620699
 40
1.0
 40
1.0
 40
1.0
 40
1.0
 10
-3.550807601533062
 20
29.7054877600734
 30
0.0
 10
-3.54900687215224
 20
29.74388863883956
 30
0.0
 10
-3.545405913235678
 20
29.82067973708543
 30
0.0
 10
-3.51495263968043
 20
29.92398372144172
 30
0.0
 10
-3.472553102434149
 20
30.01344098413146
 30
0.0
 10
-3.437081649223395
 20
30.06229079623433
 30
0.0
 10
-3.419344160209954
 20
30.08671812940097
 30
0.0
  0
SPLINE
  5
120
330
1F
100
AcDbEntity
  8
0
  6
Continuous
 62
     7
370
    15
100
AcDbSpline
210
0.0
220
0.0
230
1.0
 70
     8
 71
     3
 72
    14
 73
    10
 74
     0
 42
0.000000001
 43
0.00000001
 40
0.0
 40
0.0
 40
0.0
 40
0.0
 40
0.1400822988869676
 40
0.2800581649652591
 40
0.4199731286527864
 40
0.5599477908276589
 40
0.7066224856748323
 40
0.8532987151349912
 40
1.0
 40
1.0
 40
1.0
 40
1.0
 10
-2.976448796574989
 20
29.11766863061014
 30
0.0
 10
-3.019377738031844
 20
29.11962770476068
 30
0.0
 10
-3.105203004063525
 20
29.12354436458125
 30
0.0
 10
-3.229413706682857
 20
29.16212627772282
 30
0.0
 10
-3.339792788730235
 20
29.23079529865699
 30
0.0
 10
-3.428330348244246
 20
29.3283562209061
 30
0.0
 10
-3.497521409107181
 20
29.4420478540325
 30
0.0
 10
-3.543251445495203
 20
29.57052617286123
 30
0.0
 10
-3.548288739453299
 20
29.66049800303925
 30
0.0
 10
-3.550807601533062
 20
29.7054877600734
 30
0.0
  0
SPLINE
  5
121
330
1F
100
AcDbEntity
  8
0
  6
Continuous
 62
     7
370
    15
100
AcDbSpline
210
0.0
220
0.0
230
1.0
 70
     8
 71
     3
 72
    12
 73
     8
 74
     0
 42
0.000000001
 43
0.00000001
 40
0.0
 40
0.0
 40
0.0
 40
0.0
 40
0.1868267433809835
 40
0.3734590711088514
 40
0.5601272431066068
 40
0.7799336556020324
 40
1.0
 40
1.0
 40
1.0
 40
1.0
 10
-2.449041555895105
 20
29.43285986949406
 30
0.0
 10
-2.469568044761964
 20
29.39800136072806
 30
0.0
 10
-2.510599662220015
 20
29.32832061765883
 30
0.0
 10
-2.595745433804513
 20
29.24046159944428
 30
0.0
 10
-2.703949506838629
 20
29.17040752335224
 30
0.0
 10
-2.83347431842454
 20
29.12439187441069
 30
0.0
 10
-2.928771865950327
 20
29.11991059457741
 30
0.0
 10
-2.976448796574989
 20
29.11766863061014
 30
0.0
  0
LINE
  5
122
330
1F
100
AcDbEntity
  8
0
  6
Continuous
 62
     7
370
    15
100
AcDbLine
 10
-2.5736152635
 20
29.4982794871
 30
0.0
 11
-2.4490415559
 21
29.4328598695
 31
0.0
  0
SPLINE
  5
123
330
1F
100
AcDbEntity
  8
0
  6
Continuous
 62
     7
370
    15
100
AcDbSpline
210
0.0
220
0.0
230
1.0
 70
     8
 71
     3
 72
    11
 73
     7
 74
     0
 42
0.000000001
 43
0.00000001
 40
0.0
 40
0.0
 40
0.0
 40
0.0
 40
0.2798983171518759
 40
0.5597011194398114
 40
0.7795398208073336
 40
1.0
 40
1.0
 40
1.0
 40
1.0
 10
-2.993978194073902
 20
29.25789442404315
 30
0.0
 10
-2.946662293668504
 20
29.26183421155402
 30
0.0
 10
-2.852046639334847
 20
29.2697124421294
 30
0.0
 10
-2.728315505611047
 20
29.32348952652223
 30
0.0
 10
-2.637072594532238
 20
29.4061708670315
 30
0.0
 10
-2.594787602120641
 20
29.46754773611113
 30
0.0
 10
-2.573615263475672
 20
29.49827948709439
 30
0.0
  0
SPLINE
  5
124
330
1F
100
AcDbEntity
  8
0
  6
Continuous
 62
     7
370
    15
100
AcDbSpline
210
0.0
220
0.0
230
1.0
 70
     8
 71
     3
 72
    12
 73
     8
 74
     0
 42
0.000000001
 43
0.00000001
 40
0.0
 40
0.0
 40
0.0
 40
0.0
 40
0.186826533222942
 40
0.3735430195007146
 40
0.5600824764396484
 40
0.7798961463921117
 40
1.0
 40
1.0
 40
1.0
 40
1.0
 10
-3.988066336949504
 20
29.93460425996671
 30
0.0
 10
-3.994901582059498
 20
29.95896645519331
 30
0.0
 10
-4.008568046096328
 20
30.00767649551583
 30
0.0
 10
-4.050153039919775
 20
30.07239548044537
 30
0.0
 10
-4.112465265067252
 20
30.12442798832276
 30
0.0
 10
-4.193328770476223
 20
30.15501743713562
 30
0.0
 10
-4.25283147649209
 20
30.15789667074404
 30
0.0
 10
-4.282602454443142
 20
30.15933723716551
 30
0.0
  0
SPLINE
  5
125
330
1F
100
AcDbEntity
  8
0
  6
Continuous
 62
     7
370
    15
100
AcDbSpline
210
0.0
220
0.0
230
1.0
 70
     8
 71
     3
 72
    12
 73
     8
 74
     0
 42
0.000000001
 43
0.00000001
 40
0.0
 40
0.0
 40
0.0
 40
0.0
 40
0.186826533222942
 40
0.3735430195007146
 40
0.5600824764396484
 40
0.7798961463921117
 40
1.0
 40
1.0
 40
1.0
 40
1.0
 10
-16.40793779486793
 20
29.93460425996671
 30
0.0
 10
-16.41477303997793
 20
29.95896645519331
 30
0.0
 10
-16.42843950401475
 20
30.00767649551583
 30
0.0
 10
-16.47002449783821
 20
30.07239548044537
 30
0.0
 10
-16.53233672298568
 20
30.12442798832276
 30
0.0
 10
-16.61320022839466
 20
30.15501743713562
 30
0.0
 10
-16.67270293441053
 20
30.15789667074404
 30
0.0
 10
-16.70247391236157
 20
30.15933723716551
 30
0.0
  0
SPLINE
  5
126
330
1F
100
AcDbEntity
  8
0
  6
Continuous
 62
     7
370
    15
100
AcDbSpline
210
0.0
220
0.0
230
1.0
 70
     8
 71
     3
 72
    13
 73
     9
 74
     0
 42
0.000000001
 43
0.00000001
 40
0.0
 40
0.0
 40
0.0
 40
0.0
 40
0.1866304319074374
 40
0.3732521729221859
 40
0.5596835822276809
 40
0.7064196324485251
 40
0.853180476138771
 40
1.0
 40
1.0
 40
1.0
 40
1.0
 10
-11.92482841079676
 20
29.25789442404315
 30
0.0
 10
-11.88012995739006
 20
29.26135403665077
 30
0.0
 10
-11.79073513206711
 20
29.26827310076089
 30
0.0
 10
-11.6670702812115
 20
29.32477161677509
 30
0.0
 10
-11.56945738923328
 20
29.4040879381218
 30
0.0
 10
-11.50576793439708
 20
29.50065825997157
 30
0.0
 10
-11.46916010222937
 20
29.60070064792881
 30
0.0
 10
-11.46536361624718
 20
29.67097017833593
 30
0.0
 10
-11.46346499383965
 20
29.70611196619585
 30
0.0
  0
SPLINE
  5
127
330
1F
100
AcDbEntity
  8
0
  6
Continuous
 62
     7
370
    15
100
AcDbSpline
210
0.0
220
0.0
230
1.0
 70
     8
 71
     3
 72
    13
 73
     9
 74
     0
 42
0.000000001
 43
0.00000001
 40
0.0
 40
0.0
 40
0.0
 40
0.0
 40
0.1864986202183085
 40
0.3730901552910849
 40
0.5596362105351648
 40
0.7064470984876507
 40
0.8532300511905012
 40
1.0
 40
1.0
 40
1.0
 40
1.0
 10
-12.38493872222984
 20
29.71018103918957
 30
0.0
 10
-12.38087211972032
 20
29.66562869863701
 30
0.0
 10
-12.3727368886928
 20
29.57650182125914
 30
0.0
 10
-12.31028389847958
 20
29.45575394458021
 30
0.0
 10
-12.22696554447667
 20
29.36234794357911
 30
0.0
 10
-12.12937084983545
 20
29.30121923667556
 30
0.0
 10
-12.02984506098628
 20
29.2645380002252
 30
0.0
 10
-11.95983292705386
 20
29.26010888403639
 30
0.0
 10
-11.92482841079676
 20
29.25789442404315
 30
0.0
  0
SPLINE
  5
128
330
1F
100
AcDbEntity
  8
0
  6
Continuous
 62
     7
370
    15
100
AcDbSpline
210
0.0
220
0.0
230
1.0
 70
     8
 71
     3
 72
    13
 73
     9
 74
     0
 42
0.000000001
 43
0.00000001
 40
0.0
 40
0.0
 40
0.0
 40
0.0
 40
0.1866209778340469
 40
0.3732129832914117
 40
0.559721160395685
 40
0.7065164459334939
 40
0.8533001968325202
 40
1.0
 40
1.0
 40
1.0
 40
1.0
 10
-11.92357530527274
 20
30.15933723716551
 30
0.0
 10
-11.96814426016857
 20
30.15597055540142
 30
0.0
 10
-12.05727525075659
 20
30.14923771454101
 30
0.0
 10
-12.1806450102431
 20
30.09221423071781
 30
0.0
 10
-12.27541825137138
 20
30.01006117642559
 30
0.0
 10
-12.33851924290307
 20
29.91391408529574
 30
0.0
 10
-12.3777038089252
 20
29.81520957674939
 30
0.0
 10
-12.38252754438708
 20
29.74518387501647
 30
0.0
 10
-12.38493872222984
 20
29.71018103918957
 30
0.0
  0
SPLINE
  5
129
330
1F
100
AcDbEntity
  8
0
  6
Continuous
 62
     7
370
    15
100
AcDbSpline
210
0.0
220
0.0
230
1.0
 70
     8
 71
     3
 72
    13
 73
     9
 74
     0
 42
0.000000001
 43
0.00000001
 40
0.0
 40
0.0
 40
0.0
 40
0.0
 40
0.1866542843775403
 40
0.3730844689182859
 40
0.5596887194961121
 40
0.7064186807400942
 40
0.8531601983445716
 40
1.0
 40
1.0
 40
1.0
 40
1.0
 10
-11.46346499383965
 20
29.70611196619585
 30
0.0
 10
-11.46662595959152
 20
29.75106055479467
 30
0.0
 10
-11.47294409599404
 20
29.84090376606593
 30
0.0
 10
-11.53273029439565
 20
29.96460986266757
 30
0.0
 10
-11.61889910868884
 20
30.0566842551803
 30
0.0
 10
-11.71654203739042
 20
30.11919504313241
 30
0.0
 10
-11.81779317801782
 20
30.15375223379768
 30
0.0
 10
-11.88830672743406
 20
30.15747515392783
 30
0.0
 10
-11.92357530527274
 20
30.15933723716551
 30
0.0
  0
SPLINE
  5
12A
330
1F
100
AcDbEntity
  8
0
  6
Continuous
 62
     7
370
    15
100
AcDbSpline
210
0.0
220
0.0
230
1.0
 70
     8
 71
     3
 72
    10
 73
     6
 74
     0
 42
0.000000001
 43
0.00000001
 40
0.0
 40
0.0
 40
0.0
 40
0.0
 40
0.2799291061263671
 40
0.5599816527428864
 40
0.9999999999999999
 40
0.9999999999999999
 40
0.9999999999999999
 40
0.9999999999999999
 10
-3.260026107332363
 20
30.05228823380473
 30
0.0
 10
-3.278178582616688
 20
30.03424043960427
 30
0.0
 10
-3.314491537892244
 20
29.9981368926577
 30
0.0
 10
-3.361452426382003
 20
29.91895265942794
 30
0.0
 10
-3.382814511485011
 20
29.85678319719445
 30
0.0
 10
-3.39586837807086
 20
29.81879290449604
 30
0.0
  0
SPLINE
  5
12B
330
1F
100
AcDbEntity
  8
0
  6
Continuous
 62
     7
370
    15
100
AcDbSpline
210
0.0
220
0.0
230
1.0
 70
     8
 71
     3
 72
    11
 73
     7
 74
     0
 42
0.000000001
 43
0.00000001
 40
0.0
 40
0.0
 40
0.0
 40
0.0
 40
0.2799565427221317
 40
0.5598145619621663
 40
0.7798731324874886
 40
1.0
 40
1.0
 40
1.0
 40
1.0
 10
-2.965809132818626
 20
30.15933723716551
 30
0.0
 10
-2.995726205507603
 20
30.15799222889897
 30
0.0
 10
-3.055549822343714
 20
30.15530268570683
 30
0.0
 10
-3.13584783154982
 20
30.13086975930832
 30
0.0
 10
-3.204956313268515
 20
30.09644254346285
 30
0.0
 10
-3.241667610663527
 20
30.06700785933726
 30
0.0
 10
-3.260026107332363
 20
30.05228823380473
 30
0.0
  0
SPLINE
  5
12C
330
1F
100
AcDbEntity
  8
0
  6
Continuous
 62
     7
370
    15
100
AcDbSpline
210
0.0
220
0.0
230
1.0
 70
     8
 71
     3
 72
    12
 73
     8
 74
     0
 42
0.000000001
 43
0.00000001
 40
0.0
 40
0.0
 40
0.0
 40
0.0
 40
0.1869049454521888
 40
0.3734742623110144
 40
0.5600562157880111
 40
0.7800279752274526
 40
1.0
 40
1.0
 40
1.0
 40
1.0
 10
-2.529169910245518
 20
29.81879290449604
 30
0.0
 10
-2.539968450670649
 20
29.85464274090677
 30
0.0
 10
-2.561546140386412
 20
29.92627803752816
 30
0.0
 10
-2.623310196571969
 20
30.02224589880399
 30
0.0
 10
-2.717302414014773
 20
30.09653285480801
 30
0.0
 10
-2.83351401941171
 20
30.14907113225524
 30
0.0
 10
-2.9217107439523
 20
30.15591520081952
 30
0.0
 10
-2.965809132818626
 20
30.15933723716551
 30
0.0
  0
LINE
  5
12D
330
1F
100
AcDbEntity
  8
0
  6
Continuous
 62
     7
370
    15
100
AcDbLine
 10
-3.3958683781
 20
29.8187929045
 30
0.0
 11
-2.5291699102
 21
29.8187929045
 31
0.0
  0
SPLINE
  5
12E
330
1F
100
AcDbEntity
  8
0
  6
Continuous
 62
     7
370
    15
100
AcDbSpline
210
0.0
220
0.0
230
1.0
 70
     8
 71
     3
 72
    13
 73
     9
 74
     0
 42
0.000000001
 43
0.00000001
 40
0.0
 40
0.0
 40
0.0
 40
0.0
 40
0.1867149981087409
 40
0.3732824745385465
 40
0.5599753581986857
 40
0.7066858682634722
 40
0.8533094263142557
 40
1.0
 40
1.0
 40
1.0
 40
1.0
 10
-19.13574201637413
 20
29.25789442404315
 30
0.0
 10
-19.10385076454053
 20
29.25991547360941
 30
0.0
 10
-19.04009345783695
 20
29.26395597593059
 30
0.0
 10
-18.95064704118102
 20
29.30176264263905
 30
0.0
 10
-18.88059786801697
 20
29.35740556573248
 30
0.0
 10
-18.83026941859092
 20
29.422489977596
 30
0.0
 10
-18.80023887988889
 20
29.49262064419043
 30
0.0
 10
-18.7968783383686
 20
29.54271205608537
 30
0.0
 10
-18.79519768370465
 20
29.56776348440932
 30
0.0
  0
SPLINE
  5
12F
330
1F
100
AcDbEntity
  8
0
  6
Continuous
 62
     7
370
    15
100
AcDbSpline
210
0.0
220
0.0
230
1.0
 70
     8
 71
     3
 72
    12
 73
     8
 74
     0
 42
0.000000001
 43
0.00000001
 40
0.0
 40
0.0
 40
0.0
 40
0.0
 40
0.1870035030582766
 40
0.3736884671985946
 40
0.5604770218588463
 40
0.7801982896300315
 40
1.0
 40
1.0
 40
1.0
 40
1.0
 10
-19.14794923535528
 20
29.87888565029951
 30
0.0
 10
-19.17945513668554
 20
29.87703175495113
 30
0.0
 10
-19.24241327267377
 20
29.87332712215149
 30
0.0
 10
-19.3314737513727
 20
29.83673935976246
 30
0.0
 10
-19.40791673507949
 20
29.77136476576719
 30
0.0
 10
-19.46615418339648
 20
29.67940163773224
 30
0.0
 10
-19.47290854842761
 20
29.60498074241666
 30
0.0
 10
-19.4762863490436
 20
29.56776348440932
 30
0.0
  0
SPLINE
  5
130
330
1F
100
AcDbEntity
  8
0
  6
Continuous
 62
     7
370
    15
100
AcDbSpline
210
0.0
220
0.0
230
1.0
 70
     8
 71
     3
 72
    12
 73
     8
 74
     0
 42
0.000000001
 43
0.00000001
 40
0.0
 40
0.0
 40
0.0
 40
0.0
 40
0.1865908113445944
 40
0.3731115859033522
 40
0.5599565477520877
 40
0.7798211919733329
 40
1.0
 40
1.0
 40
1.0
 40
1.0
 10
-18.79519768370465
 20
29.56776348440932
 30
0.0
 10
-18.79802102366293
 20
29.60042460274993
 30
0.0
 10
-18.80366664384
 20
29.66573458009356
 30
0.0
 10
-18.85619549296407
 20
29.75120673539257
 30
0.0
 10
-18.93278072700481
 20
29.82081713323413
 30
0.0
 10
-19.0327126431892
 20
29.8707696370702
 30
0.0
 10
-19.1095187596945
 20
29.87617902523355
 30
0.0
 10
-19.14794923535528
 20
29.87888565029951
 30
0.0
  0
SPLINE
  5
131
330
1F
100
AcDbEntity
  8
0
  6
Continuous
 62
     7
370
    15
100
AcDbSpline
210
0.0
220
0.0
230
1.0
 70
     8
 71
     3
 72
    23
 73
    19
 74
     0
 42
0.000000001
 43
0.00000001
 40
0.0000031799208248
 40
0.0000031799208248
 40
0.0000031799208248
 40
0.0000031799208248
 40
0.0618417029839013
 40
0.1212623730944422
 40
0.1807459488653095
 40
0.2392309018221037
 40
0.2983075587884682
 40
0.3581827976158541
 40
0.4203592307800747
 40
0.484792415514193
 40
0.5499384837666822
 40
0.6137182775404291
 40
0.6766807072496354
 40
0.7391541704483182
 40
0.8021997032403497
 40
0.8667401776162947
 40
0.9320496524002397
 40
0.9999985713042026
 40
0.9999985713042026
 40
0.9999985713042026
 40
0.9999985713042026
 10
-19.47628611612553
 20
29.56776349057808
 30
0.0
 10
-19.47600650484116
 20
29.55720600674197
 30
0.0
 10
-19.47545814171509
 20
29.53650383715264
 30
0.0
 10
-19.4704795150802
 20
29.50599581159173
 30
0.0
 10
-19.46287456761424
 20
29.47663647748341
 30
0.0
 10
-19.45156189089066
 20
29.44857772802627
 30
0.0
 10
-19.43806774438846
 20
29.4213918717618
 30
0.0
 10
-19.42025286751838
 20
29.39606361931904
 30
0.0
 10
-19.40051323098626
 20
29.37105465945598
 30
0.0
 10
-19.37691772498277
 20
29.34828614542617
 30
0.0
 10
-19.35159479508157
 20
29.32710015249053
 30
0.0
 10
-19.32454068682002
 20
29.30858218217012
 30
0.0
 10
-19.29634427616955
 20
29.2927401404745
 30
0.0
 10
-19.26662489131461
 20
29.28032447189527
 30
0.0
 10
-19.23580418418616
 20
29.27013505812421
 30
0.0
 10
-19.20362536541565
 20
29.26296475488401
 30
0.0
 10
-19.17006629730696
 20
29.25891097791616
 30
0.0
 10
-19.14733353431236
 20
29.25823766235568
 30
0.0
 10
-19.13574201863653
 20
29.25789434765615
 30
0.0
  0
SPLINE
  5
132
330
1F
100
AcDbEntity
  8
0
  6
Continuous
 62
     7
370
    15
100
AcDbSpline
210
0.0
220
0.0
230
1.0
 70
     8
 71
     3
 72
    10
 73
     6
 74
     0
 42
0.000000001
 43
0.00000001
 40
0.0
 40
0.0
 40
0.0
 40
0.0
 40
0.2799291061263671
 40
0.5599816527428864
 40
0.9999999999999999
 40
0.9999999999999999
 40
0.9999999999999999
 40
0.9999999999999999
 10
-9.349771651405513
 20
30.05228823380473
 30
0.0
 10
-9.367924126689847
 20
30.03424043960427
 30
0.0
 10
-9.404237081965404
 20
29.9981368926577
 30
0.0
 10
-9.451197970455144
 20
29.91895265942794
 30
0.0
 10
-9.47256005555817
 20
29.85678319719445
 30
0.0
 10
-9.48561392214401
 20
29.81879290449604
 30
0.0
  0
SPLINE
  5
133
330
1F
100
AcDbEntity
  8
0
  6
Continuous
 62
     7
370
    15
100
AcDbSpline
210
0.0
220
0.0
230
1.0
 70
     8
 71
     3
 72
    12
 73
     8
 74
     0
 42
0.000000001
 43
0.00000001
 40
0.0
 40
0.0
 40
0.0
 40
0.0
 40
0.1869034729850326
 40
0.3734782167378497
 40
0.5600613030909504
 40
0.7800343981405361
 40
1.0
 40
1.0
 40
1.0
 40
1.0
 10
-8.618915454318667
 20
29.81879290449604
 30
0.0
 10
-8.629711740738147
 20
29.85464309269654
 30
0.0
 10
-8.651285324871955
 20
29.92628041513368
 30
0.0
 10
-8.71305660470063
 20
30.02224442748282
 30
0.0
 10
-8.80704746484907
 20
30.09653315932383
 30
0.0
 10
-8.923258248186885
 20
30.14907037577259
 30
0.0
 10
-9.011453239193406
 20
30.15591498889448
 30
0.0
 10
-9.055549983612659
 20
30.15933723716551
 30
0.0
  0
LINE
  5
134
330
1F
100
AcDbEntity
  8
0
  6
Continuous
 62
     7
370
    15
100
AcDbLine
 10
-9.4856139221
 20
29.8187929045
 30
0.0
 11
-8.6189154543
 21
29.8187929045
 31
0.0
  0
SPLINE
  5
135
330
1F
100
AcDbEntity
  8
0
  6
Continuous
 62
     7
370
    15
100
AcDbSpline
210
0.0
220
0.0
230
1.0
 70
     8
 71
     3
 72
    11
 73
     7
 74
     0
 42
0.000000001
 43
0.00000001
 40
0.0
 40
0.0
 40
0.0
 40
0.0
 40
0.2799673539674682
 40
0.5598074858359772
 40
0.7798761261948689
 40
1.0
 40
1.0
 40
1.0
 40
1.0
 10
-9.055549983612659
 20
30.15933723716551
 30
0.0
 10
-9.085468732412899
 20
30.15799262940661
 30
0.0
 10
-9.14529263440675
 20
30.15530402490231
 30
0.0
 10
-9.225590809689624
 20
30.1308674317242
 30
0.0
 10
-9.294701061191564
 20
30.09644403366314
 30
0.0
 10
-9.33141325250539
 20
30.06700806492341
 30
0.0
 10
-9.349771651405513
 20
30.05228823380473
 30
0.0
  0
SPLINE
  5
136
330
1F
100
AcDbEntity
  8
0
  6
Continuous
 62
     7
370
    15
100
AcDbSpline
210
0.0
220
0.0
230
1.0
 70
     8
 71
     3
 72
    13
 73
     9
 74
     0
 42
0.000000001
 43
0.00000001
 40
0.0
 40
0.0
 40
0.0
 40
0.0
 40
0.1866297199879334
 40
0.3732567537178075
 40
0.5596874518629891
 40
0.7064229423452365
 40
0.8531810361957861
 40
1.0
 40
1.0
 40
1.0
 40
1.0
 10
-5.754959205652311
 20
29.25789442404315
 30
0.0
 10
-5.710260863885589
 20
29.26135428186237
 30
0.0
 10
-5.620864823718495
 20
29.26827394770132
 30
0.0
 10
-5.497197139129879
 20
29.32477013506017
 30
0.0
 10
-5.399584066889735
 20
29.40408823210295
 30
0.0
 10
-5.335892794334345
 20
29.50065725241465
 30
0.0
 10
-5.299292242995762
 20
29.60070166974634
 30
0.0
 10
-5.295494869243203
 20
29.67097034423537
 30
0.0
 10
-5.293595788695206
 20
29.70611196619585
 30
0.0
  0
SPLINE
  5
137
330
1F
100
AcDbEntity
  8
0
  6
Continuous
 62
     7
370
    15
100
AcDbSpline
210
0.0
220
0.0
230
1.0
 70
     8
 71
     3
 72
    13
 73
     9
 74
     0
 42
0.000000001
 43
0.00000001
 40
0.0
 40
0.0
 40
0.0
 40
0.0
 40
0.1865003801858108
 40
0.3730897639589065
 40
0.5596409903722787
 40
0.7064524636063539
 40
0.853236001479426
 40
1.0
 40
1.0
 40
1.0
 40
1.0
 10
-6.215069517085396
 20
29.71018103918957
 30
0.0
 10
-6.211000482084005
 20
29.66562902866223
 30
0.0
 10
-6.202860470215385
 20
29.57650374604896
 30
0.0
 10
-6.140416396375568
 20
29.45575088880344
 30
0.0
 10
-6.057091408526649
 20
29.36234938199946
 30
0.0
 10
-5.959497222028914
 20
29.3012190226196
 30
0.0
 10
-5.859972577869877
 20
29.26453861635024
 30
0.0
 10
-5.789962109693374
 20
29.26010905653084
 30
0.0
 10
-5.754959205652311
 20
29.25789442404315
 30
0.0
  0
SPLINE
  5
138
330
1F
100
AcDbEntity
  8
0
  6
Continuous
 62
     7
370
    15
100
AcDbSpline
210
0.0
220
0.0
230
1.0
 70
     8
 71
     3
 72
    13
 73
     9
 74
     0
 42
0.000000001
 43
0.00000001
 40
0.0
 40
0.0
 40
0.0
 40
0.0
 40
0.1866150881842079
 40
0.3732137206107922
 40
0.5597175718772653
 40
0.7065169935231658
 40
0.8532989160998903
 40
1.0
 40
1.0
 40
1.0
 40
1.0
 10
-5.753706100128293
 20
30.15933723716551
 30
0.0
 10
-5.798273227655435
 20
30.15597001038676
 30
0.0
 10
-5.887403552771053
 20
30.14923585375199
 30
0.0
 10
-6.010775320156583
 20
30.09221753501742
 30
0.0
 10
-6.105542869769648
 20
30.0100576183727
 30
0.0
 10
-6.168652469051089
 20
29.91391687473198
 30
0.0
 10
-6.207827110658116
 20
29.81520795501378
 30
0.0
 10
-6.212655824959412
 20
29.74518358182329
 30
0.0
 10
-6.215069517085405
 20
29.71018103918958
 30
0.0
  0
SPLINE
  5
139
330
1F
100
AcDbEntity
  8
0
  6
Continuous
 62
     7
370
    15
100
AcDbSpline
210
0.0
220
0.0
230
1.0
 70
     8
 71
     3
 72
    13
 73
     9
 74
     0
 42
0.000000001
 43
0.00000001
 40
0.0
 40
0.0
 40
0.0
 40
0.0
 40
0.1866540271973402
 40
0.3730839548666601
 40
0.5596835091098132
 40
0.7064187788479156
 40
0.8531539045379638
 40
1.0
 40
1.0
 40
1.0
 40
1.0
 10
-5.293595788695206
 20
29.70611196619585
 30
0.0
 10
-5.296756666829531
 20
29.75106064849559
 30
0.0
 10
-5.303074628102117
 20
29.84090404705618
 30
0.0
 10
-5.362861664966515
 20
29.96460775866745
 30
0.0
 10
-5.449025656460189
 20
30.05668756997347
 30
0.0
 10
-5.546671135588268
 20
30.11919239975952
 30
0.0
 10
-5.647921902758697
 20
30.15375367769461
 30
0.0
 10
-5.718435816566561
 20
30.1574755817319
 30
0.0
 10
-5.753706100128293
 20
30.15933723716551
 30
0.0
  0
SPLINE
  5
13A
330
1F
100
AcDbEntity
  8
0
  6
Continuous
 62
     7
370
    15
100
AcDbSpline
210
0.0
220
0.0
230
1.0
 70
     8
 71
     3
 72
    10
 73
     6
 74
     0
 42
0.000000001
 43
0.00000001
 40
0.0
 40
0.0
 40
0.0
 40
0.0
 40
0.2799189660533816
 40
0.5599730251101818
 40
0.9999999999999999
 40
0.9999999999999999
 40
0.9999999999999999
 40
0.9999999999999999
 10
-14.95874706937619
 20
30.05228823380473
 30
0.0
 10
-14.97689775294078
 20
30.03424021046213
 30
0.0
 10
-15.01320787985642
 20
29.99813545353586
 30
0.0
 10
-15.06016856946103
 20
29.91895213978087
 30
0.0
 10
-15.0815336009346
 20
29.85678313038361
 30
0.0
 10
-15.09458934011469
 20
29.81879290449605
 30
0.0
  0
SPLINE
  5
13B
330
1F
100
AcDbEntity
  8
0
  6
Continuous
 62
     7
370
    15
100
AcDbSpline
210
0.0
220
0.0
230
1.0
 70
     8
 71
     3
 72
    12
 73
     8
 74
     0
 42
0.000000001
 43
0.00000001
 40
0.0
 40
0.0
 40
0.0
 40
0.0
 40
0.1869031550572725
 40
0.3734775814415066
 40
0.5600542929266901
 40
0.7800270137962123
 40
1.0
 40
1.0
 40
1.0
 40
1.0
 10
-14.22789087228934
 20
29.81879290449604
 30
0.0
 10
-14.23868710969287
 20
29.85464315370045
 30
0.0
 10
-14.26026059588095
 20
29.92628059803808
 30
0.0
 10
-14.32203194121086
 20
30.02224265943761
 30
0.0
 10
-14.41601842465949
 20
30.09653475162323
 30
0.0
 10
-14.53223065692632
 20
30.14907076159302
 30
0.0
 10
-14.6204271356337
 20
30.1559150772654
 30
0.0
 10
-14.66452540158333
 20
30.15933723716551
 30
0.0
  0
LINE
  5
13C
330
1F
100
AcDbEntity
  8
0
  6
Continuous
 62
     7
370
    15
100
AcDbLine
 10
-15.0945893401
 20
29.8187929045
 30
0.0
 11
-14.2278908723
 21
29.8187929045
 31
0.0
  0
SPLINE
  5
13D
330
1F
100
AcDbEntity
  8
0
  6
Continuous
 62
     7
370
    15
100
AcDbSpline
210
0.0
220
0.0
230
1.0
 70
     8
 71
     3
 72
    11
 73
     7
 74
     0
 42
0.000000001
 43
0.00000001
 40
0.0
 40
0.0
 40
0.0
 40
0.0
 40
0.2799673539674682
 40
0.5598074858359772
 40
0.7798761261948689
 40
1.0
 40
1.0
 40
1.0
 40
1.0
 10
-14.66452540158333
 20
30.15933723716551
 30
0.0
 10
-14.69444415038357
 20
30.15799262940661
 30
0.0
 10
-14.75426805237742
 20
30.15530402490231
 30
0.0
 10
-14.83456622766031
 20
30.1308674317242
 30
0.0
 10
-14.90367647916223
 20
30.09644403366314
 30
0.0
 10
-14.94038867047606
 20
30.06700806492341
 30
0.0
 10
-14.95874706937619
 20
30.05228823380473
 30
0.0
  0
INSERT
  5
149
330
1F
100
AcDbEntity
  8
0
  6
Continuous
 62
     7
370
     0
100
AcDbBlockReference
  2
SW_CENTERMARKSYMBOL_0
 10
19.2863226947
 20
5.7755159579
 30
0.0
  0
INSERT
  5
155
330
1F
100
AcDbEntity
  8
0
  6
Continuous
 62
     7
370
     0
100
AcDbBlockReference
  2
SW_CENTERMARKSYMBOL_1
 10
9.2863226947
 20
5.7755159579
 30
0.0
  0
INSERT
  5
161
330
1F
100
AcDbEntity
  8
0
  6
Continuous
 62
     7
370
     0
100
AcDbBlockReference
  2
SW_CENTERMARKSYMBOL_2
 10
-0.7136773053
 20
5.7755159579
 30
0.0
  0
INSERT
  5
16D
330
1F
100
AcDbEntity
  8
0
  6
Continuous
 62
     7
370
     0
100
AcDbBlockReference
  2
SW_CENTERMARKSYMBOL_3
 10
-10.7136773053
 20
5.7755159579
 30
0.0
  0
ENDSEC
  0
SECTION
  2
OBJECTS
  0
DICTIONARY
  5
C
330
0
100
AcDbDictionary
281
     1
  3
ACAD_GROUP
350
D
  3
ACAD_LAYOUT
350
1A
  3
ACAD_MLINESTYLE
350
17
  3
ACAD_PLOTSETTINGS
350
19
  3
ACAD_PLOTSTYLENAME
350
E
  3
ACAD_SCALELIST
350
47
  0
DICTIONARY
  5
D
102
{ACAD_REACTORS
330
C
102
}
330
C
100
AcDbDictionary
281
     1
  0
DICTIONARY
  5
1A
102
{ACAD_REACTORS
330
C
102
}
330
C
100
AcDbDictionary
281
     1
  3
Layout1
350
1E
  3
Layout2
350
26
  3
Model
350
22
  0
DICTIONARY
  5
17
102
{ACAD_REACTORS
330
C
102
}
330
C
100
AcDbDictionary
281
     1
  3
Standard
350
18
  0
DICTIONARY
  5
19
102
{ACAD_REACTORS
330
C
102
}
330
C
100
AcDbDictionary
281
     1
  0
ACDBDICTIONARYWDFLT
  5
E
102
{ACAD_REACTORS
330
C
102
}
330
C
100
AcDbDictionary
281
     1
  3
Normal
350
F
100
AcDbDictionaryWithDefault
340
F
  0
DICTIONARY
  5
47
102
{ACAD_REACTORS
330
C
102
}
330
C
100
AcDbDictionary
281
     1
  3
A0
350
48
  3
A1
350
49
  3
A2
350
4A
  3
A3
350
4B
  3
A4
350
4C
  3
A5
350
4D
  3
A6
350
4E
  3
A7
350
4F
  3
A8
350
50
  3
A9
350
51
  3
B0
350
52
  3
B1
350
53
  3
B2
350
54
  3
B3
350
55
  3
B4
350
56
  3
B5
350
57
  3
B6
350
58
  3
B7
350
59
  3
B8
350
5A
  3
B9
350
5B
  3
C0
350
5C
  3
C1
350
5D
  3
C2
350
5E
  3
C3
350
5F
  3
C4
350
60
  3
C5
350
61
  3
C6
350
62
  3
C7
350
63
  3
C8
350
64
  3
C9
350
65
  3
D0
350
66
  3
D1
350
67
  3
D2
350
68
  0
LAYOUT
  5
1E
102
{ACAD_REACTORS
330
1A
102
}
330
1A
100
AcDbPlotSettings
  1

  2
none_device
  4

  6

 40
0.0
 41
0.0
 42
0.0
 43
0.0
 44
0.0
 45
0.0
 46
0.0
 47
0.0
 48
0.0
 49
0.0
140
0.0
141
0.0
142
1.0
143
1.0
 70
   688
 72
     0
 73
     0
 74
     5
  7

 75
    16
147
1.0
148
0.0
149
0.0
100
AcDbLayout
  1
Layout1
 70
     1
 71
     1
 10
0.0
 20
0.0
 11
12.0
 21
9.0
 12
0.0
 22
0.0
 32
0.0
 14
1.0000000000E+20
 24
1.0000000000E+20
 34
1.0000000000E+20
 15
-1.0000000000E+20
 25
-1.0000000000E+20
 35
-1.0000000000E+20
146
0.0
 13
0.0
 23
0.0
 33
0.0
 16
1.0
 26
0.0
 36
0.0
 17
0.0
 27
1.0
 37
0.0
 76
     0
330
1B
  0
LAYOUT
  5
26
102
{ACAD_REACTORS
330
1A
102
}
330
1A
100
AcDbPlotSettings
  1

  2
none_device
  4

  6

 40
0.0
 41
0.0
 42
0.0
 43
0.0
 44
0.0
 45
0.0
 46
0.0
 47
0.0
 48
0.0
 49
0.0
140
0.0
141
0.0
142
1.0
143
1.0
 70
   688
 72
     0
 73
     0
 74
     5
  7

 75
    16
147
1.0
148
0.0
149
0.0
100
AcDbLayout
  1
Layout2
 70
     1
 71
     2
 10
0.0
 20
0.0
 11
0.0
 21
0.0
 12
0.0
 22
0.0
 32
0.0
 14
0.0
 24
0.0
 34
0.0
 15
0.0
 25
0.0
 35
0.0
146
0.0
 13
0.0
 23
0.0
 33
0.0
 16
1.0
 26
0.0
 36
0.0
 17
0.0
 27
1.0
 37
0.0
 76
     0
330
23
  0
LAYOUT
  5
22
102
{ACAD_REACTORS
330
1A
102
}
330
1A
100
AcDbPlotSettings
  1

  2
none_device
  4
Letter_(8.50_x_11.00_Inches)
  6

 40
6.35
 41
6.35
 42
6.35000508
 43
6.35000508
 44
215.9
 45
279.4
 46
0.0
 47
0.0
 48
0.0
 49
0.0
140
0.0
141
0.0
142
1.0
143
1.0
 70
  1712
 72
     0
 73
     0
 74
     0
  7

 75
     0
147
1.0
148
0.0
149
0.0
100
AcDbLayout
  1
Model
 70
     1
 71
     0
 10
0.0
 20
0.0
 11
8.5
 21
11.0
 12
0.0
 22
0.0
 32
0.0
 14
0.0
 24
0.0
 34
0.0
 15
8.5
 25
11.0
 35
0.0
146
0.0
 13
0.0
 23
0.0
 33
0.0
 16
1.0
 26
0.0
 36
0.0
 17
0.0
 27
1.0
 37
0.0
 76
     0
330
1F
331
29
  0
MLINESTYLE
  5
18
102
{ACAD_REACTORS
330
17
102
}
330
17
100
AcDbMlineStyle
  2
Standard
 70
     0
  3

 62
   256
 51
90.0
 52
90.0
 71
     2
 49
0.5
 62
   256
  6
BYLAYER
 49
-0.5
 62
   256
  6
BYLAYER
  0
ACDBPLACEHOLDER
  5
F
102
{ACAD_REACTORS
330
E
102
}
330
E
  0
SCALE
  5
48
102
{ACAD_REACTORS
330
47
102
}
330
47
100
AcDbScale
 70
     0
300
1:1
140
1.0
141
1.0
290
     1
  0
SCALE
  5
49
102
{ACAD_REACTORS
330
47
102
}
330
47
100
AcDbScale
 70
     0
300
1:2
140
1.0
141
2.0
290
     0
  0
SCALE
  5
4A
102
{ACAD_REACTORS
330
47
102
}
330
47
100
AcDbScale
 70
     0
300
1:4
140
1.0
141
4.0
290
     0
  0
SCALE
  5
4B
102
{ACAD_REACTORS
330
47
102
}
330
47
100
AcDbScale
 70
     0
300
1:5
140
1.0
141
5.0
290
     0
  0
SCALE
  5
4C
102
{ACAD_REACTORS
330
47
102
}
330
47
100
AcDbScale
 70
     0
300
1:8
140
1.0
141
8.0
290
     0
  0
SCALE
  5
4D
102
{ACAD_REACTORS
330
47
102
}
330
47
100
AcDbScale
 70
     0
300
1:10
140
1.0
141
10.0
290
     0
  0
SCALE
  5
4E
102
{ACAD_REACTORS
330
47
102
}
330
47
100
AcDbScale
 70
     0
300
1:16
140
1.0
141
16.0
290
     0
  0
SCALE
  5
4F
102
{ACAD_REACTORS
330
47
102
}
330
47
100
AcDbScale
 70
     0
300
1:20
140
1.0
141
20.0
290
     0
  0
SCALE
  5
50
102
{ACAD_REACTORS
330
47
102
}
330
47
100
AcDbScale
 70
     0
300
1:30
140
1.0
141
30.0
290
     0
  0
SCALE
  5
51
102
{ACAD_REACTORS
330
47
102
}
330
47
100
AcDbScale
 70
     0
300
1:40
140
1.0
141
40.0
290
     0
  0
SCALE
  5
52
102
{ACAD_REACTORS
330
47
102
}
330
47
100
AcDbScale
 70
     0
300
1:50
140
1.0
141
50.0
290
     0
  0
SCALE
  5
53
102
{ACAD_REACTORS
330
47
102
}
330
47
100
AcDbScale
 70
     0
300
1:100
140
1.0
141
100.0
290
     0
  0
SCALE
  5
54
102
{ACAD_REACTORS
330
47
102
}
330
47
100
AcDbScale
 70
     0
300
2:1
140
2.0
141
1.0
290
     0
  0
SCALE
  5
55
102
{ACAD_REACTORS
330
47
102
}
330
47
100
AcDbScale
 70
     0
300
4:1
140
4.0
141
1.0
290
     0
  0
SCALE
  5
56
102
{ACAD_REACTORS
330
47
102
}
330
47
100
AcDbScale
 70
     0
300
8:1
140
8.0
141
1.0
290
     0
  0
SCALE
  5
57
102
{ACAD_REACTORS
330
47
102
}
330
47
100
AcDbScale
 70
     0
300
10:1
140
10.0
141
1.0
290
     0
  0
SCALE
  5
58
102
{ACAD_REACTORS
330
47
102
}
330
47
100
AcDbScale
 70
     0
300
100:1
140
100.0
141
1.0
290
     0
  0
SCALE
  5
59
102
{ACAD_REACTORS
330
47
102
}
330
47
100
AcDbScale
 70
     0
300
1/128" = 1'-0"
140
0.0078125
141
12.0
290
     0
  0
SCALE
  5
5A
102
{ACAD_REACTORS
330
47
102
}
330
47
100
AcDbScale
 70
     0
300
1/64" = 1'-0"
140
0.015625
141
12.0
290
     0
  0
SCALE
  5
5B
102
{ACAD_REACTORS
330
47
102
}
330
47
100
AcDbScale
 70
     0
300
1/32" = 1'-0"
140
0.03125
141
12.0
290
     0
  0
SCALE
  5
5C
102
{ACAD_REACTORS
330
47
102
}
330
47
100
AcDbScale
 70
     0
300
1/16" = 1'-0"
140
0.0625
141
12.0
290
     0
  0
SCALE
  5
5D
102
{ACAD_REACTORS
330
47
102
}
330
47
100
AcDbScale
 70
     0
300
3/32" = 1'-0"
140
0.09375
141
12.0
290
     0
  0
SCALE
  5
5E
102
{ACAD_REACTORS
330
47
102
}
330
47
100
AcDbScale
 70
     0
300
1/8" = 1'-0"
140
0.125
141
12.0
290
     0
  0
SCALE
  5
5F
102
{ACAD_REACTORS
330
47
102
}
330
47
100
AcDbScale
 70
     0
300
3/16" = 1'-0"
140
0.1875
141
12.0
290
     0
  0
SCALE
  5
60
102
{ACAD_REACTORS
330
47
102
}
330
47
100
AcDbScale
 70
     0
300
1/4" = 1'-0"
140
0.25
141
12.0
290
     0
  0
SCALE
  5
61
102
{ACAD_REACTORS
330
47
102
}
330
47
100
AcDbScale
 70
     0
300
3/8" = 1'-0"
140
0.375
141
12.0
290
     0
  0
SCALE
  5
62
102
{ACAD_REACTORS
330
47
102
}
330
47
100
AcDbScale
 70
     0
300
1/2" = 1'-0"
140
0.5
141
12.0
290
     0
  0
SCALE
  5
63
102
{ACAD_REACTORS
330
47
102
}
330
47
100
AcDbScale
 70
     0
300
3/4" = 1'-0"
140
0.75
141
12.0
290
     0
  0
SCALE
  5
64
102
{ACAD_REACTORS
330
47
102
}
330
47
100
AcDbScale
 70
     0
300
1" = 1'-0"
140
1.0
141
12.0
290
     0
  0
SCALE
  5
65
102
{ACAD_REACTORS
330
47
102
}
330
47
100
AcDbScale
 70
     0
300
1-1/2" = 1'-0"
140
1.5
141
12.0
290
     0
  0
SCALE
  5
66
102
{ACAD_REACTORS
330
47
102
}
330
47
100
AcDbScale
 70
     0
300
3" = 1'-0"
140
3.0
141
12.0
290
     0
  0
SCALE
  5
67
102
{ACAD_REACTORS
330
47
102
}
330
47
100
AcDbScale
 70
     0
300
6" = 1'-0"
140
6.0
141
12.0
290
     0
  0
SCALE
  5
68
102
{ACAD_REACTORS
330
47
102
}
330
47
100
AcDbScale
 70
     0
300
1'-0" = 1'-0"
140
12.0
141
12.0
290
     0
  0
ENDSEC
  0
EOF
